<?xml version="1.0" encoding="UTF-8" standalone="no"?>
<!-- Created with Inkscape (http://www.inkscape.org/) -->

<svg xmlns:dc="http://purl.org/dc/elements/1.1/" xmlns:cc="http://creativecommons.org/ns#" xmlns:rdf="http://www.w3.org/1999/02/22-rdf-syntax-ns#" xmlns:svg="http://www.w3.org/2000/svg" xmlns="http://www.w3.org/2000/svg" xmlns:sodipodi="http://sodipodi.sourceforge.net/DTD/sodipodi-0.dtd" xmlns:inkscape="http://www.inkscape.org/namespaces/inkscape" width="765" height="990" id="svg3707" version="1.1" inkscape:version="0.48.4 r9939" sodipodi:docname="spencer_drawing_short_formulas.svg">
  <defs id="defs3709">
    <marker style="overflow:visible" id="Arrow1Mstart" refX="0" refY="0" orient="auto" inkscape:stockid="Arrow1Mstart">
      <path inkscape:connector-curvature="0" transform="matrix(0.4,0,0,0.4,4,0)" style="fill-rule:evenodd;stroke:#000000;stroke-width:1pt;marker-start:none" d="M 0,0 5,-5 -12.5,0 5,5 0,0 z" id="path8" />
    </marker>
    <marker style="overflow:visible" id="Arrow1Mend" refX="0" refY="0" orient="auto" inkscape:stockid="Arrow1Mend">
      <path inkscape:connector-curvature="0" transform="matrix(-0.4,0,0,-0.4,-4,0)" style="fill-rule:evenodd;stroke:#000000;stroke-width:1pt;marker-start:none" d="M 0,0 5,-5 -12.5,0 5,5 0,0 z" id="path11" />
    </marker>
    <marker style="overflow:visible" id="Arrow1Mstart-0" refX="0" refY="0" orient="auto" inkscape:stockid="Arrow1Mstart">
      <path inkscape:connector-curvature="0" transform="matrix(0.4,0,0,0.4,4,0)" style="fill-rule:evenodd;stroke:#000000;stroke-width:1pt;marker-start:none" d="M 0,0 5,-5 -12.5,0 5,5 0,0 z" id="path8-4" />
    </marker>
    <marker style="overflow:visible" id="Arrow1Mend-5" refX="0" refY="0" orient="auto" inkscape:stockid="Arrow1Mend">
      <path inkscape:connector-curvature="0" transform="matrix(-0.4,0,0,-0.4,-4,0)" style="fill-rule:evenodd;stroke:#000000;stroke-width:1pt;marker-start:none" d="M 0,0 5,-5 -12.5,0 5,5 0,0 z" id="path11-8" />
    </marker>
  </defs>
  <sodipodi:namedview id="base" pagecolor="#ffffff" bordercolor="#666666" borderopacity="1.0" inkscape:pageopacity="0.0" inkscape:pageshadow="2" inkscape:zoom="0.35" inkscape:cx="1002.4056" inkscape:cy="608.01554" inkscape:document-units="px" inkscape:current-layer="layer1" showgrid="false" units="in" fit-margin-top="0.5" fit-margin-left="0.5" fit-margin-right="0.5" fit-margin-bottom="0.5" inkscape:window-width="1855" inkscape:window-height="1056" inkscape:window-x="65" inkscape:window-y="24" inkscape:window-maximized="1" />
  <metadata id="metadata3712">
    <rdf:RDF>
      <cc:Work rdf:about="">
        <dc:format>image/svg+xml</dc:format>
        <dc:type rdf:resource="http://purl.org/dc/dcmitype/StillImage" />
        <dc:title />
      </cc:Work>
    </rdf:RDF>
  </metadata>
  <g inkscape:label="Layer 1" inkscape:groupmode="layer" id="layer1" transform="translate(627.40559,-150.37527)">
    <g transform="matrix(0.50716273,0,0,0.50716273,-542.45145,40.299811)" id="g3292">
      <g transform="translate(58.750003,757.71763)" id="document.bodice.Bodice Front.pattern">
        <g transform="matrix(10,0,0,10,-3228.8386,-1030.0394)" id="A.letter">
          <text x="358.75986" y="114.44882" id="A.letter.letterline" style="font-size:24px;font-style:normal;font-weight:normal;text-align:right;text-anchor:start;fill:#000000;fill-opacity:1;stroke:none">A</text>
        </g>
        <line id="A.grainline" x1="133.45581" y1="159.44882" x2="133.45581" y2="1089.5669" style="fill:none;stroke:#008000;stroke-width:4;stroke-linejoin:miter;stroke-miterlimit:4;marker-start:url(#Arrow1Mstart);marker-end:url(#Arrow1Mend)" />
        <path inkscape:connector-curvature="0" id="A.dartline" d="M 259.39906,1311.312 354.33071,710.07874 449.26236,1311.312 M 1153.6398,637.79528 443.11579,637.79528 1119.0973,856.64072" style="fill:none;stroke:#008000;stroke-width:3;stroke-linejoin:miter;stroke-miterlimit:4;stroke-dasharray:6, 6;stroke-dashoffset:0" />
        <path inkscape:connector-curvature="0" id="A.seamline" d="M 0,0 0,1240.1575 C 88.646218,1240.1575 169.41706,1240.1575 268.17196,1255.7504 L 354.33071,1278.2212 440.48946,1255.7504 C 636.51948,1224.7982 856.88701,1200.9349 1063.2893,1191.7749 L 1065.5819,839.3154 1068.9671,736.57938 1097.3898,637.79528 1028.0015,396.63363 C 889.86003,441.6007 737.62471,419.9806 673.22835,318.89764 576.76619,167.48101 700.58962,-143.50429 717.51969,-223.33451 L 266.91164,-318.89764 C 233.83209,-162.91793 160.14698,0 0,0" style="fill:none;stroke:#008000;stroke-width:4;stroke-linejoin:miter;stroke-miterlimit:4;stroke-dasharray:24, 6;stroke-dashoffset:0" />
        <path inkscape:connector-curvature="0" id="A.cuttingline" d="M 211.90625,-330.65625 C 197.45138,-264.20535 177.34444,-197.87692 139.96875,-140.40625 116.15169,-104.08797 82.171731,-71.60028 38.90625,-60.9375 9.6980416,-53.498727 -20.657228,-57.036286 -50.466985,-55.829847 -59.45958,-58.486119 -55.389515,-48.189039 -56.25,-42.78125 -56.25,403.61458 -56.25,850.01042 -56.25,1296.4062 48.994452,1296.6498 154.70398,1293.8005 258.71648,1311.4111 290.59282,1319.7197 322.46209,1328.0555 354.34375,1336.3438 388.2971,1327.7847 422.02466,1318.1546 456.10763,1310.222 672.56531,1276.5628 890.90361,1254.4505 1109.7679,1245.9872 1117.5459,1247.2896 1121.1403,1244.5668 1119.2454,1236.5627 1120.2573,1101.8258 1120.7343,967.07799 1122.107,832.34808 1123.234,803.07029 1123.7125,773.69028 1125.2449,744.47638 1135.4664,708.91163 1145.6753,673.34327 1155.9062,637.78125 1125.9311,533.52711 1095.9341,429.27922 1065.9375,325.03125 1024.1118,338.45664 982.65383,354.43859 938.71875,359.5 883.87123,366.50646 825.6517,363.03656 775.64977,337.59028 743.73268,321.61044 717.85302,293.48482 706.625,259.40625 689.96164,210.59091 691.45667,158.00497 696.34375,107.375 706.968,9.1880899 736.4176,-85.368133 764.34375,-179.71875 772.60111,-208.29903 778.11185,-237.58398 784.9375,-266.53125 597.84169,-306.25813 410.72586,-345.89065 223.625,-385.59375 219.71875,-367.28125 215.8125,-348.96875 211.90625,-330.65625 z" style="fill:none;stroke:#008000;stroke-width:4;stroke-linejoin:miter;stroke-miterlimit:4" />
        <g id="A.info">
          <text x="358.75986" y="159.44882" id="A.info.lineNext Patterns" style="font-size:12px;font-style:normal;font-weight:normal;text-align:right;text-anchor:start;fill:#000000;fill-opacity:1;stroke:none">Next Patterns</text>
          <text x="358.75986" y="173.84882" id="A.info.lineDesigner:S.L.Spencer" style="font-size:12px;font-style:normal;font-weight:normal;text-align:right;text-anchor:start;fill:#000000;fill-opacity:1;stroke:none">Designer:S.L.Spencer</text>
          <text x="358.75986" y="188.24883" id="A.info.lineClient:DressFormLg" style="font-size:12px;font-style:normal;font-weight:normal;text-align:right;text-anchor:start;fill:#000000;fill-opacity:1;stroke:none">Client:DressFormLg</text>
          <text x="358.75986" y="202.64882" id="A.info.lineMR_B1" style="font-size:12px;font-style:normal;font-weight:normal;text-align:right;text-anchor:start;fill:#000000;fill-opacity:1;stroke:none">MR_B1</text>
          <text x="358.75986" y="217.04881" id="A.info.linePattern Piece A" style="font-size:12px;font-style:normal;font-weight:normal;text-align:right;text-anchor:start;fill:#000000;fill-opacity:1;stroke:none">Pattern Piece A</text>
          <text x="358.75986" y="231.44882" id="A.info.lineCut 2 Fabric" style="font-size:12px;font-style:normal;font-weight:normal;text-align:right;text-anchor:start;fill:#000000;fill-opacity:1;stroke:none">Cut 2 Fabric</text>
        </g>
      </g>
      <g transform="translate(58.75,757.71764)" id="document.bodice.Bodice Front.reference">
        <circle sodipodi:ry="5" sodipodi:rx="5" sodipodi:cy="0" sodipodi:cx="160.14699" d="M 165.14699,0 C 165.14699,2.7614237 162.90841,5 160.14699,5 157.38556,5 155.14699,2.7614237 155.14699,0 155.14699,-2.7614237 157.38556,-5 160.14699,-5 162.90841,-5 165.14699,-2.7614237 165.14699,0 z" id="A.FNC.inpoint" r="5" cx="160.14699" cy="0" style="fill:none;stroke:#808080;stroke-width:1" />
        <text x="167.14699" y="-7" id="A.FNC.inpoint.text" style="font-size:25px;font-style:italic;font-weight:normal;text-align:right;fill:#808080;fill-opacity:1;stroke:none">FNC.in</text>
        <circle sodipodi:ry="5" sodipodi:rx="5" sodipodi:cy="0" sodipodi:cx="0" d="M 5,0 C 5,2.7614237 2.7614237,5 0,5 -2.7614237,5 -5,2.7614237 -5,0 -5,-2.7614237 -2.7614237,-5 0,-5 2.7614237,-5 5,-2.7614237 5,0 z" id="A.FNC" r="5" cx="0" cy="0" style="fill:#ff0000;stroke:#ff0000;stroke-width:1" />
        <text x="7" y="-7" id="A.FNC.text" style="font-size:30px;font-style:italic;font-weight:normal;text-align:right;fill:#00008b;fill-opacity:1;stroke:none">FNC</text>
        <circle sodipodi:ry="5" sodipodi:rx="5" sodipodi:cy="1240.1575" sodipodi:cx="88.646217" d="M 93.646217,1240.1575 C 93.646217,1242.9189 91.407641,1245.1575 88.646217,1245.1575 85.884794,1245.1575 83.646217,1242.9189 83.646217,1240.1575 83.646217,1237.396 85.884794,1235.1575 88.646217,1235.1575 91.407641,1235.1575 93.646217,1237.396 93.646217,1240.1575 z" id="A.FWC.outpoint" r="5" cx="88.646217" cy="1240.1575" style="fill:none;stroke:#808080;stroke-width:1" />
        <text x="95.646217" y="1233.1575" id="A.FWC.outpoint.text" style="font-size:25px;font-style:italic;font-weight:normal;text-align:right;fill:#808080;fill-opacity:1;stroke:none">FWC.out</text>
        <circle sodipodi:ry="5" sodipodi:rx="5" sodipodi:cy="1240.1575" sodipodi:cx="0" d="M 5,1240.1575 C 5,1242.9189 2.7614237,1245.1575 0,1245.1575 -2.7614237,1245.1575 -5,1242.9189 -5,1240.1575 -5,1237.396 -2.7614237,1235.1575 0,1235.1575 2.7614237,1235.1575 5,1237.396 5,1240.1575 z" id="A.FWC" r="5" cx="0" cy="1240.1575" style="fill:#ff0000;stroke:#ff0000;stroke-width:1" />
        <text x="7" y="1233.1575" id="A.FWC.text" style="font-size:30px;font-style:italic;font-weight:normal;text-align:right;fill:#00008b;fill-opacity:1;stroke:none">FWC</text>
        <circle sodipodi:ry="5" sodipodi:rx="5" sodipodi:cy="-318.89764" sodipodi:cx="0" d="M 5,-318.89764 C 5,-316.13622 2.7614237,-313.89764 0,-313.89764 -2.7614237,-313.89764 -5,-316.13622 -5,-318.89764 -5,-321.65907 -2.7614237,-323.89764 0,-323.89764 2.7614237,-323.89764 5,-321.65907 5,-318.89764 z" id="A.FSH" r="5" cx="0" cy="-318.89764" style="fill:#ff0000;stroke:#ff0000;stroke-width:1" />
        <text x="7" y="-325.89764" id="A.FSH.text" style="font-size:30px;font-style:italic;font-weight:normal;text-align:right;fill:#00008b;fill-opacity:1;stroke:none">FSH</text>
        <circle sodipodi:ry="5" sodipodi:rx="5" sodipodi:cy="-318.89764" sodipodi:cx="717.51971" d="M 722.51971,-318.89764 C 722.51971,-316.13622 720.28114,-313.89764 717.51971,-313.89764 714.75829,-313.89764 712.51971,-316.13622 712.51971,-318.89764 712.51971,-321.65907 714.75829,-323.89764 717.51971,-323.89764 720.28114,-323.89764 722.51971,-321.65907 722.51971,-318.89764 z" id="A.FSW" r="5" cx="717.51971" cy="-318.89764" style="fill:#ff0000;stroke:#ff0000;stroke-width:1" />
        <text x="724.51971" y="-325.89764" id="A.FSW.text" style="font-size:30px;font-style:italic;font-weight:normal;text-align:right;fill:#00008b;fill-opacity:1;stroke:none">FSW</text>
        <circle sodipodi:ry="5" sodipodi:rx="5" sodipodi:cy="-143.50429" sodipodi:cx="700.5896" d="M 705.5896,-143.50429 C 705.5896,-140.74286 703.35102,-138.50429 700.5896,-138.50429 697.82818,-138.50429 695.5896,-140.74286 695.5896,-143.50429 695.5896,-146.26571 697.82818,-148.50429 700.5896,-148.50429 703.35102,-148.50429 705.5896,-146.26571 705.5896,-143.50429 z" id="A.FSP.inpoint" r="5" cx="700.5896" cy="-143.50429" style="fill:none;stroke:#808080;stroke-width:1" />
        <text x="707.5896" y="-150.50429" id="A.FSP.inpoint.text" style="font-size:25px;font-style:italic;font-weight:normal;text-align:right;fill:#808080;fill-opacity:1;stroke:none">FSP.in</text>
        <circle sodipodi:ry="5" sodipodi:rx="5" sodipodi:cy="-223.33452" sodipodi:cx="717.51971" d="M 722.51971,-223.33452 C 722.51971,-220.57309 720.28114,-218.33452 717.51971,-218.33452 714.75829,-218.33452 712.51971,-220.57309 712.51971,-223.33452 712.51971,-226.09594 714.75829,-228.33452 717.51971,-228.33452 720.28114,-228.33452 722.51971,-226.09594 722.51971,-223.33452 z" id="A.FSP" r="5" cx="717.51971" cy="-223.33452" style="fill:#ff0000;stroke:#ff0000;stroke-width:1" />
        <text x="724.51971" y="-230.33452" id="A.FSP.text" style="font-size:30px;font-style:italic;font-weight:normal;text-align:right;fill:#00008b;fill-opacity:1;stroke:none">FSP</text>
        <circle sodipodi:ry="5" sodipodi:rx="5" sodipodi:cy="-162.91792" sodipodi:cx="233.83209" d="M 238.83209,-162.91792 C 238.83209,-160.1565 236.59352,-157.91792 233.83209,-157.91792 231.07067,-157.91792 228.83209,-160.1565 228.83209,-162.91792 228.83209,-165.67935 231.07067,-167.91792 233.83209,-167.91792 236.59352,-167.91792 238.83209,-165.67935 238.83209,-162.91792 z" id="A.FNS.outpoint" r="5" cx="233.83209" cy="-162.91792" style="fill:none;stroke:#808080;stroke-width:1" />
        <text x="240.83209" y="-169.91792" id="A.FNS.outpoint.text" style="font-size:25px;font-style:italic;font-weight:normal;text-align:right;fill:#808080;fill-opacity:1;stroke:none">FNS.out</text>
        <circle sodipodi:ry="5" sodipodi:rx="5" sodipodi:cy="-318.89764" sodipodi:cx="266.91162" d="M 271.91162,-318.89764 C 271.91162,-316.13622 269.67304,-313.89764 266.91162,-313.89764 264.1502,-313.89764 261.91162,-316.13622 261.91162,-318.89764 261.91162,-321.65907 264.1502,-323.89764 266.91162,-323.89764 269.67304,-323.89764 271.91162,-321.65907 271.91162,-318.89764 z" id="A.FNS" r="5" cx="266.91162" cy="-318.89764" style="fill:#ff0000;stroke:#ff0000;stroke-width:1" />
        <text x="273.91162" y="-325.89764" id="A.FNS.text" style="font-size:30px;font-style:italic;font-weight:normal;text-align:right;fill:#00008b;fill-opacity:1;stroke:none">FNS</text>
        <circle sodipodi:ry="5" sodipodi:rx="5" sodipodi:cy="318.89764" sodipodi:cx="0" d="M 5,318.89764 C 5,321.65907 2.7614237,323.89764 0,323.89764 -2.7614237,323.89764 -5,321.65907 -5,318.89764 -5,316.13622 -2.7614237,313.89764 0,313.89764 2.7614237,313.89764 5,316.13622 5,318.89764 z" id="A.FUC" r="5" cx="0" cy="318.89764" style="fill:#ff0000;stroke:#ff0000;stroke-width:1" />
        <text x="7" y="311.89764" id="A.FUC.text" style="font-size:30px;font-style:italic;font-weight:normal;text-align:right;fill:#00008b;fill-opacity:1;stroke:none">FUC</text>
        <circle sodipodi:ry="5" sodipodi:rx="5" sodipodi:cy="637.79529" sodipodi:cx="0" d="M 5,637.79529 C 5,640.55671 2.7614237,642.79529 0,642.79529 -2.7614237,642.79529 -5,640.55671 -5,637.79529 -5,635.03386 -2.7614237,632.79529 0,632.79529 2.7614237,632.79529 5,635.03386 5,637.79529 z" id="A.FBC" r="5" cx="0" cy="637.79529" style="fill:#ff0000;stroke:#ff0000;stroke-width:1" />
        <text x="7" y="630.79529" id="A.FBC.text" style="font-size:30px;font-style:italic;font-weight:normal;text-align:right;fill:#00008b;fill-opacity:1;stroke:none">FBC</text>
        <circle sodipodi:ry="5" sodipodi:rx="5" sodipodi:cy="637.79529" sodipodi:cx="354.33072" d="M 359.33072,637.79529 C 359.33072,640.55671 357.09214,642.79529 354.33072,642.79529 351.5693,642.79529 349.33072,640.55671 349.33072,637.79529 349.33072,635.03386 351.5693,632.79529 354.33072,632.79529 357.09214,632.79529 359.33072,635.03386 359.33072,637.79529 z" id="A.FBP" r="5" cx="354.33072" cy="637.79529" style="fill:#ff0000;stroke:#ff0000;stroke-width:1" />
        <text x="361.33072" y="630.79529" id="A.FBP.text" style="font-size:30px;font-style:italic;font-weight:normal;text-align:right;fill:#00008b;fill-opacity:1;stroke:none">FBP</text>
        <circle sodipodi:ry="5" sodipodi:rx="5" sodipodi:cy="419.98059" sodipodi:cx="737.62469" d="M 742.62469,419.98059 C 742.62469,422.74201 740.38612,424.98059 737.62469,424.98059 734.86327,424.98059 732.62469,422.74201 732.62469,419.98059 732.62469,417.21917 734.86327,414.98059 737.62469,414.98059 740.38612,414.98059 742.62469,417.21917 742.62469,419.98059 z" id="A.FAP.inpoint" r="5" cx="737.62469" cy="419.98059" style="fill:none;stroke:#808080;stroke-width:1" />
        <text x="744.62469" y="412.98059" id="A.FAP.inpoint.text" style="font-size:25px;font-style:italic;font-weight:normal;text-align:right;fill:#808080;fill-opacity:1;stroke:none">FAP.in</text>
        <circle sodipodi:ry="5" sodipodi:rx="5" sodipodi:cy="167.48102" sodipodi:cx="576.76617" d="M 581.76617,167.48102 C 581.76617,170.24244 579.5276,172.48102 576.76617,172.48102 574.00475,172.48102 571.76617,170.24244 571.76617,167.48102 571.76617,164.71959 574.00475,162.48102 576.76617,162.48102 579.5276,162.48102 581.76617,164.71959 581.76617,167.48102 z" id="A.FAP.outpoint" r="5" cx="576.76617" cy="167.48102" style="fill:none;stroke:#808080;stroke-width:1" />
        <text x="583.76617" y="160.48102" id="A.FAP.outpoint.text" style="font-size:25px;font-style:italic;font-weight:normal;text-align:right;fill:#808080;fill-opacity:1;stroke:none">FAP.out</text>
        <circle sodipodi:ry="5" sodipodi:rx="5" sodipodi:cy="318.89764" sodipodi:cx="673.22833" d="M 678.22833,318.89764 C 678.22833,321.65907 675.98976,323.89764 673.22833,323.89764 670.46691,323.89764 668.22833,321.65907 668.22833,318.89764 668.22833,316.13622 670.46691,313.89764 673.22833,313.89764 675.98976,313.89764 678.22833,316.13622 678.22833,318.89764 z" id="A.FAP" r="5" cx="673.22833" cy="318.89764" style="fill:#ff0000;stroke:#ff0000;stroke-width:1" />
        <text x="680.22833" y="311.89764" id="A.FAP.text" style="font-size:30px;font-style:italic;font-weight:normal;text-align:right;fill:#00008b;fill-opacity:1;stroke:none">FAP</text>
        <circle sodipodi:ry="5" sodipodi:rx="5" sodipodi:cy="318.89764" sodipodi:cx="921.25983" d="M 926.25983,318.89764 C 926.25983,321.65907 924.02125,323.89764 921.25983,323.89764 918.4984,323.89764 916.25983,321.65907 916.25983,318.89764 916.25983,316.13622 918.4984,313.89764 921.25983,313.89764 924.02125,313.89764 926.25983,316.13622 926.25983,318.89764 z" id="A.f1" r="5" cx="921.25983" cy="318.89764" style="fill:#ff0000;stroke:#ff0000;stroke-width:1" />
        <text x="928.25983" y="311.89764" id="A.f1.text" style="font-size:30px;font-style:italic;font-weight:normal;text-align:right;fill:#00008b;fill-opacity:1;stroke:none">f1</text>
        <circle sodipodi:ry="5" sodipodi:rx="5" sodipodi:cy="440.37933" sodipodi:cx="960.80389" d="M 965.80389,440.37933 C 965.80389,443.14076 963.56532,445.37933 960.80389,445.37933 958.04247,445.37933 955.80389,443.14076 955.80389,440.37933 955.80389,437.61791 958.04247,435.37933 960.80389,435.37933 963.56532,435.37933 965.80389,437.61791 965.80389,440.37933 z" id="A.f2" r="5" cx="960.80389" cy="440.37933" style="fill:#ff0000;stroke:#ff0000;stroke-width:1" />
        <text x="967.80389" y="433.37933" id="A.f2.text" style="font-size:30px;font-style:italic;font-weight:normal;text-align:right;fill:#00008b;fill-opacity:1;stroke:none">f2</text>
        <circle sodipodi:ry="5" sodipodi:rx="5" sodipodi:cy="992.75677" sodipodi:cx="1140.611" d="M 1145.611,992.75677 C 1145.611,995.5182 1143.3724,997.75677 1140.611,997.75677 1137.8495,997.75677 1135.611,995.5182 1135.611,992.75677 1135.611,989.99535 1137.8495,987.75677 1140.611,987.75677 1143.3724,987.75677 1145.611,989.99535 1145.611,992.75677 z" id="A.f3" r="5" cx="1140.611" cy="992.75677" style="fill:#ff0000;stroke:#ff0000;stroke-width:1" />
        <text x="1147.611" y="985.75677" id="A.f3.text" style="font-size:30px;font-style:italic;font-weight:normal;text-align:right;fill:#00008b;fill-opacity:1;stroke:none">f3</text>
        <circle sodipodi:ry="5" sodipodi:rx="5" sodipodi:cy="1240.1575" sodipodi:cx="354.33072" d="M 359.33072,1240.1575 C 359.33072,1242.9189 357.09214,1245.1575 354.33072,1245.1575 351.5693,1245.1575 349.33072,1242.9189 349.33072,1240.1575 349.33072,1237.396 351.5693,1235.1575 354.33072,1235.1575 357.09214,1235.1575 359.33072,1237.396 359.33072,1240.1575 z" id="A.f4" r="5" cx="354.33072" cy="1240.1575" style="fill:#ff0000;stroke:#ff0000;stroke-width:1" />
        <text x="361.33072" y="1233.1575" id="A.f4.text" style="font-size:30px;font-style:italic;font-weight:normal;text-align:right;fill:#00008b;fill-opacity:1;stroke:none">f4</text>
        <circle sodipodi:ry="5" sodipodi:rx="5" sodipodi:cy="1150.6128" sodipodi:cx="670.33447" d="M 675.33447,1150.6128 C 675.33447,1153.3742 673.0959,1155.6128 670.33447,1155.6128 667.57305,1155.6128 665.33447,1153.3742 665.33447,1150.6128 665.33447,1147.8514 667.57305,1145.6128 670.33447,1145.6128 673.0959,1145.6128 675.33447,1147.8514 675.33447,1150.6128 z" id="A.f5" r="5" cx="670.33447" cy="1150.6128" style="fill:#ff0000;stroke:#ff0000;stroke-width:1" />
        <text x="677.33447" y="1143.6128" id="A.f5.text" style="font-size:30px;font-style:italic;font-weight:normal;text-align:right;fill:#00008b;fill-opacity:1;stroke:none">f5</text>
        <circle sodipodi:ry="5" sodipodi:rx="5" sodipodi:cy="416.71133" sodipodi:cx="1033.5133" d="M 1038.5133,416.71133 C 1038.5133,419.47276 1036.2747,421.71133 1033.5133,421.71133 1030.7519,421.71133 1028.5133,419.47276 1028.5133,416.71133 1028.5133,413.94991 1030.7519,411.71133 1033.5133,411.71133 1036.2747,411.71133 1038.5133,413.94991 1038.5133,416.71133 z" id="A.FBS" r="5" cx="1033.5133" cy="416.71133" style="fill:#ff0000;stroke:#ff0000;stroke-width:1" />
        <text x="1040.5133" y="409.71133" id="A.FBS.text" style="font-size:30px;font-style:italic;font-weight:normal;text-align:right;fill:#00008b;fill-opacity:1;stroke:none">FBS</text>
        <circle sodipodi:ry="5" sodipodi:rx="5" sodipodi:cy="977.505" sodipodi:cx="1187.4652" d="M 1192.4652,977.505 C 1192.4652,980.26643 1190.2266,982.505 1187.4652,982.505 1184.7038,982.505 1182.4652,980.26643 1182.4652,977.505 1182.4652,974.74358 1184.7038,972.505 1187.4652,972.505 1190.2266,972.505 1192.4652,974.74358 1192.4652,977.505 z" id="A.f6" r="5" cx="1187.4652" cy="977.505" style="fill:#ff0000;stroke:#ff0000;stroke-width:1" />
        <text x="1194.4652" y="970.505" id="A.f6.text" style="font-size:30px;font-style:italic;font-weight:normal;text-align:right;fill:#00008b;fill-opacity:1;stroke:none">f6</text>
        <circle sodipodi:ry="5" sodipodi:rx="5" sodipodi:cy="294.12692" sodipodi:cx="999.86084" d="M 1004.8608,294.12692 C 1004.8608,296.88835 1002.6223,299.12692 999.86084,299.12692 997.09942,299.12692 994.86084,296.88835 994.86084,294.12692 994.86084,291.3655 997.09942,289.12692 999.86084,289.12692 1002.6223,289.12692 1004.8608,291.3655 1004.8608,294.12692 z" id="A.f7" r="5" cx="999.86084" cy="294.12692" style="fill:#ff0000;stroke:#ff0000;stroke-width:1" />
        <text x="1006.8608" y="287.12692" id="A.f7.text" style="font-size:30px;font-style:italic;font-weight:normal;text-align:right;fill:#00008b;fill-opacity:1;stroke:none">f7</text>
        <circle sodipodi:ry="5" sodipodi:rx="5" sodipodi:cy="441.60071" sodipodi:cx="889.86005" d="M 894.86005,441.60071 C 894.86005,444.36213 892.62147,446.60071 889.86005,446.60071 887.09862,446.60071 884.86005,444.36213 884.86005,441.60071 884.86005,438.83928 887.09862,436.60071 889.86005,436.60071 892.62147,436.60071 894.86005,438.83928 894.86005,441.60071 z" id="A.FUS.outpoint" r="5" cx="889.86005" cy="441.60071" style="fill:none;stroke:#808080;stroke-width:1" />
        <text x="896.86005" y="434.60071" id="A.FUS.outpoint.text" style="font-size:25px;font-style:italic;font-weight:normal;text-align:right;fill:#808080;fill-opacity:1;stroke:none">FUS.out</text>
        <circle sodipodi:ry="5" sodipodi:rx="5" sodipodi:cy="396.63364" sodipodi:cx="1028.0015" d="M 1033.0015,396.63364 C 1033.0015,399.39506 1030.7629,401.63364 1028.0015,401.63364 1025.24,401.63364 1023.0015,399.39506 1023.0015,396.63364 1023.0015,393.87221 1025.24,391.63364 1028.0015,391.63364 1030.7629,391.63364 1033.0015,393.87221 1033.0015,396.63364 z" id="A.FUS" r="5" cx="1028.0015" cy="396.63364" style="fill:#ff0000;stroke:#ff0000;stroke-width:1" />
        <text x="1035.0015" y="389.63364" id="A.FUS.text" style="font-size:30px;font-style:italic;font-weight:normal;text-align:right;fill:#00008b;fill-opacity:1;stroke:none">FUS</text>
        <circle sodipodi:ry="5" sodipodi:rx="5" sodipodi:cy="1200.9349" sodipodi:cx="856.88702" d="M 861.88702,1200.9349 C 861.88702,1203.6964 859.64845,1205.9349 856.88702,1205.9349 854.1256,1205.9349 851.88702,1203.6964 851.88702,1200.9349 851.88702,1198.1735 854.1256,1195.9349 856.88702,1195.9349 859.64845,1195.9349 861.88702,1198.1735 861.88702,1200.9349 z" id="A.FWS.inpoint" r="5" cx="856.88702" cy="1200.9349" style="fill:none;stroke:#808080;stroke-width:1" />
        <text x="863.88702" y="1193.9349" id="A.FWS.inpoint.text" style="font-size:25px;font-style:italic;font-weight:normal;text-align:right;fill:#808080;fill-opacity:1;stroke:none">FWS.in</text>
        <circle sodipodi:ry="5" sodipodi:rx="5" sodipodi:cy="1191.7749" sodipodi:cx="1063.2893" d="M 1068.2893,1191.7749 C 1068.2893,1194.5363 1066.0507,1196.7749 1063.2893,1196.7749 1060.5279,1196.7749 1058.2893,1194.5363 1058.2893,1191.7749 1058.2893,1189.0135 1060.5279,1186.7749 1063.2893,1186.7749 1066.0507,1186.7749 1068.2893,1189.0135 1068.2893,1191.7749 z" id="A.FWS" r="5" cx="1063.2893" cy="1191.7749" style="fill:#ff0000;stroke:#ff0000;stroke-width:1" />
        <text x="1070.2893" y="1184.7749" id="A.FWS.text" style="font-size:30px;font-style:italic;font-weight:normal;text-align:right;fill:#00008b;fill-opacity:1;stroke:none">FWS</text>
        <circle sodipodi:ry="5" sodipodi:rx="5" sodipodi:cy="637.79529" sodipodi:cx="443.11578" d="M 448.11578,637.79529 C 448.11578,640.55671 445.87721,642.79529 443.11578,642.79529 440.35436,642.79529 438.11578,640.55671 438.11578,637.79529 438.11578,635.03386 440.35436,632.79529 443.11578,632.79529 445.87721,632.79529 448.11578,635.03386 448.11578,637.79529 z" id="A.FD2" r="5" cx="443.11578" cy="637.79529" style="fill:#ff0000;stroke:#ff0000;stroke-width:1" />
        <text x="450.11578" y="630.79529" id="A.FD2.text" style="font-size:30px;font-style:italic;font-weight:normal;text-align:right;fill:#00008b;fill-opacity:1;stroke:none">FD2</text>
        <circle sodipodi:ry="5" sodipodi:rx="5" sodipodi:cy="637.79529" sodipodi:cx="1097.3898" d="M 1102.3898,637.79529 C 1102.3898,640.55671 1100.1512,642.79529 1097.3898,642.79529 1094.6283,642.79529 1092.3898,640.55671 1092.3898,637.79529 1092.3898,635.03386 1094.6283,632.79529 1097.3898,632.79529 1100.1512,632.79529 1102.3898,635.03386 1102.3898,637.79529 z" id="A.FD2.i" r="5" cx="1097.3898" cy="637.79529" style="fill:#ff0000;stroke:#ff0000;stroke-width:1" />
        <text x="1104.3898" y="630.79529" id="A.FD2.i.text" style="font-size:30px;font-style:italic;font-weight:normal;text-align:right;fill:#00008b;fill-opacity:1;stroke:none">FD2.i</text>
        <circle sodipodi:ry="5" sodipodi:rx="5" sodipodi:cy="839.31543" sodipodi:cx="1065.5819" d="M 1070.5819,839.31543 C 1070.5819,842.07685 1068.3433,844.31543 1065.5819,844.31543 1062.8205,844.31543 1060.5819,842.07685 1060.5819,839.31543 1060.5819,836.55401 1062.8205,834.31543 1065.5819,834.31543 1068.3433,834.31543 1070.5819,836.55401 1070.5819,839.31543 z" id="A.FD2.o" r="5" cx="1065.5819" cy="839.31543" style="fill:#ff0000;stroke:#ff0000;stroke-width:1" />
        <text x="1072.5819" y="832.31543" id="A.FD2.o.text" style="font-size:30px;font-style:italic;font-weight:normal;text-align:right;fill:#00008b;fill-opacity:1;stroke:none">FD2.o</text>
        <circle sodipodi:ry="5" sodipodi:rx="5" sodipodi:cy="1240.1575" sodipodi:cx="270.634" d="M 275.634,1240.1575 C 275.634,1242.9189 273.39543,1245.1575 270.634,1245.1575 267.87258,1245.1575 265.634,1242.9189 265.634,1240.1575 265.634,1237.396 267.87258,1235.1575 270.634,1235.1575 273.39543,1235.1575 275.634,1237.396 275.634,1240.1575 z" id="A.f8" r="5" cx="270.634" cy="1240.1575" style="fill:#ff0000;stroke:#ff0000;stroke-width:1" />
        <text x="277.634" y="1233.1575" id="A.f8.text" style="font-size:30px;font-style:italic;font-weight:normal;text-align:right;fill:#00008b;fill-opacity:1;stroke:none">f8</text>
        <circle sodipodi:ry="5" sodipodi:rx="5" sodipodi:cy="1240.1575" sodipodi:cx="438.02744" d="M 443.02744,1240.1575 C 443.02744,1242.9189 440.78886,1245.1575 438.02744,1245.1575 435.26601,1245.1575 433.02744,1242.9189 433.02744,1240.1575 433.02744,1237.396 435.26601,1235.1575 438.02744,1235.1575 440.78886,1235.1575 443.02744,1237.396 443.02744,1240.1575 z" id="A.f9" r="5" cx="438.02744" cy="1240.1575" style="fill:#ff0000;stroke:#ff0000;stroke-width:1" />
        <text x="445.02744" y="1233.1575" id="A.f9.text" style="font-size:30px;font-style:italic;font-weight:normal;text-align:right;fill:#00008b;fill-opacity:1;stroke:none">f9</text>
        <circle sodipodi:ry="5" sodipodi:rx="5" sodipodi:cy="710.07874" sodipodi:cx="354.33072" d="M 359.33072,710.07874 C 359.33072,712.84016 357.09214,715.07874 354.33072,715.07874 351.5693,715.07874 349.33072,712.84016 349.33072,710.07874 349.33072,707.31731 351.5693,705.07874 354.33072,705.07874 357.09214,705.07874 359.33072,707.31731 359.33072,710.07874 z" id="A.FD1" r="5" cx="354.33072" cy="710.07874" style="fill:#ff0000;stroke:#ff0000;stroke-width:1" />
        <text x="361.33072" y="703.07874" id="A.FD1.text" style="font-size:30px;font-style:italic;font-weight:normal;text-align:right;fill:#00008b;fill-opacity:1;stroke:none">FD1</text>
        <circle sodipodi:ry="5" sodipodi:rx="5" sodipodi:cy="1240.1575" sodipodi:cx="169.41705" d="M 174.41705,1240.1575 C 174.41705,1242.9189 172.17848,1245.1575 169.41705,1245.1575 166.65563,1245.1575 164.41705,1242.9189 164.41705,1240.1575 164.41705,1237.396 166.65563,1235.1575 169.41705,1235.1575 172.17848,1235.1575 174.41705,1237.396 174.41705,1240.1575 z" id="A.FD1.i.inpoint" r="5" cx="169.41705" cy="1240.1575" style="fill:none;stroke:#808080;stroke-width:1" />
        <text x="176.41705" y="1233.1575" id="A.FD1.i.inpoint.text" style="font-size:25px;font-style:italic;font-weight:normal;text-align:right;fill:#808080;fill-opacity:1;stroke:none">FD1.i.in</text>
        <circle sodipodi:ry="5" sodipodi:rx="5" sodipodi:cy="1255.7504" sodipodi:cx="268.17197" d="M 273.17197,1255.7504 C 273.17197,1258.5118 270.93339,1260.7504 268.17197,1260.7504 265.41054,1260.7504 263.17197,1258.5118 263.17197,1255.7504 263.17197,1252.9889 265.41054,1250.7504 268.17197,1250.7504 270.93339,1250.7504 273.17197,1252.9889 273.17197,1255.7504 z" id="A.FD1.i" r="5" cx="268.17197" cy="1255.7504" style="fill:#ff0000;stroke:#ff0000;stroke-width:1" />
        <text x="275.17197" y="1248.7504" id="A.FD1.i.text" style="font-size:30px;font-style:italic;font-weight:normal;text-align:right;fill:#00008b;fill-opacity:1;stroke:none">FD1.i</text>
        <circle sodipodi:ry="5" sodipodi:rx="5" sodipodi:cy="1224.7982" sodipodi:cx="636.51947" d="M 641.51947,1224.7982 C 641.51947,1227.5596 639.28089,1229.7982 636.51947,1229.7982 633.75805,1229.7982 631.51947,1227.5596 631.51947,1224.7982 631.51947,1222.0368 633.75805,1219.7982 636.51947,1219.7982 639.28089,1219.7982 641.51947,1222.0368 641.51947,1224.7982 z" id="A.FD1.o.outpoint" r="5" cx="636.51947" cy="1224.7982" style="fill:none;stroke:#808080;stroke-width:1" />
        <text x="643.51947" y="1217.7982" id="A.FD1.o.outpoint.text" style="font-size:25px;font-style:italic;font-weight:normal;text-align:right;fill:#808080;fill-opacity:1;stroke:none">FD1.o.out</text>
        <circle sodipodi:ry="5" sodipodi:rx="5" sodipodi:cy="1255.7504" sodipodi:cx="440.48947" d="M 445.48947,1255.7504 C 445.48947,1258.5118 443.2509,1260.7504 440.48947,1260.7504 437.72805,1260.7504 435.48947,1258.5118 435.48947,1255.7504 435.48947,1252.9889 437.72805,1250.7504 440.48947,1250.7504 443.2509,1250.7504 445.48947,1252.9889 445.48947,1255.7504 z" id="A.FD1.o" r="5" cx="440.48947" cy="1255.7504" style="fill:#ff0000;stroke:#ff0000;stroke-width:1" />
        <text x="447.48947" y="1248.7504" id="A.FD1.o.text" style="font-size:30px;font-style:italic;font-weight:normal;text-align:right;fill:#00008b;fill-opacity:1;stroke:none">FD1.o</text>
        <path inkscape:connector-curvature="0" id="A.gridline" d="M 0,1240.1575 717.51969,-223.33451 717.51969,-318.89764 0,-318.89764 0,0 M 0,637.79528 354.33071,637.79528 1033.5133,416.71134 M 0,318.89764 921.25984,318.89764 999.86083,294.12691 1187.4652,977.50501 1140.6109,992.75676 921.25984,318.89764 M 0,1240.1575 354.33071,1240.1575 354.33071,637.79528 670.33445,1150.6128 1140.6109,992.75676 M 354.33071,637.79528 443.11579,637.79528" style="fill:none;stroke:#808080;stroke-width:2;stroke-linejoin:miter;stroke-miterlimit:4;stroke-dasharray:6, 6;stroke-dashoffset:0" />
      </g>
    </g>
  </g>
</svg>
