<?xml version="1.0" encoding="UTF-8" standalone="no"?>
<!-- Created with Inkscape (http://www.inkscape.org/) -->

<svg xmlns:dc="http://purl.org/dc/elements/1.1/" xmlns:cc="http://creativecommons.org/ns#" xmlns:rdf="http://www.w3.org/1999/02/22-rdf-syntax-ns#" xmlns:svg="http://www.w3.org/2000/svg" xmlns="http://www.w3.org/2000/svg" xmlns:sodipodi="http://sodipodi.sourceforge.net/DTD/sodipodi-0.dtd" xmlns:inkscape="http://www.inkscape.org/namespaces/inkscape" width="744.09448819" height="1052.3622047" id="svg4713" version="1.1" inkscape:version="0.48.4 r9939" sodipodi:docname="spencer_bodice_short_sleeve_formulas.svg">
  <defs id="defs4715">
    <marker style="overflow:visible" id="Arrow1Mstart" refX="0" refY="0" orient="auto" inkscape:stockid="Arrow1Mstart">
      <path inkscape:connector-curvature="0" transform="matrix(0.4,0,0,0.4,4,0)" style="fill-rule:evenodd;stroke:#000000;stroke-width:1pt;marker-start:none" d="M 0,0 5,-5 -12.5,0 5,5 0,0 z" id="path8" />
    </marker>
    <marker style="overflow:visible" id="Arrow1Mend" refX="0" refY="0" orient="auto" inkscape:stockid="Arrow1Mend">
      <path inkscape:connector-curvature="0" transform="matrix(-0.4,0,0,-0.4,-4,0)" style="fill-rule:evenodd;stroke:#000000;stroke-width:1pt;marker-start:none" d="M 0,0 5,-5 -12.5,0 5,5 0,0 z" id="path11" />
    </marker>
    <marker style="overflow:visible" id="Arrow1Mstart-2" refX="0" refY="0" orient="auto" inkscape:stockid="Arrow1Mstart">
      <path inkscape:connector-curvature="0" transform="matrix(0.4,0,0,0.4,4,0)" style="fill-rule:evenodd;stroke:#000000;stroke-width:1pt;marker-start:none" d="M 0,0 5,-5 -12.5,0 5,5 0,0 z" id="path8-2" />
    </marker>
    <marker style="overflow:visible" id="Arrow1Mend-6" refX="0" refY="0" orient="auto" inkscape:stockid="Arrow1Mend">
      <path inkscape:connector-curvature="0" transform="matrix(-0.4,0,0,-0.4,-4,0)" style="fill-rule:evenodd;stroke:#000000;stroke-width:1pt;marker-start:none" d="M 0,0 5,-5 -12.5,0 5,5 0,0 z" id="path11-5" />
    </marker>
  </defs>
  <sodipodi:namedview id="base" pagecolor="#ffffff" bordercolor="#666666" borderopacity="1.0" inkscape:pageopacity="0.0" inkscape:pageshadow="2" inkscape:zoom="0.35" inkscape:cx="375" inkscape:cy="505.57681" inkscape:document-units="px" inkscape:current-layer="layer1" showgrid="false" inkscape:window-width="1302" inkscape:window-height="985" inkscape:window-x="65" inkscape:window-y="24" inkscape:window-maximized="0" />
  <metadata id="metadata4718">
    <rdf:RDF>
      <cc:Work rdf:about="">
        <dc:format>image/svg+xml</dc:format>
        <dc:type rdf:resource="http://purl.org/dc/dcmitype/StillImage" />
        <dc:title />
      </cc:Work>
    </rdf:RDF>
  </metadata>
  <g inkscape:label="Layer 1" inkscape:groupmode="layer" id="layer1">
    <g transform="matrix(0.29120822,0,0,0.29120822,95.782272,-516.86021)" id="g5252">
      <g transform="translate(950.95202,2240.2797)" id="document.bodice.Bodice Sleeve.pattern">
        <line id="C.grainline" x1="0" y1="644.11237" x2="0" y2="2090.5513" style="fill:none;stroke:#008000;stroke-width:4;stroke-linejoin:miter;stroke-miterlimit:4;marker-start:url(#Arrow1Mstart);marker-end:url(#Arrow1Mend)" />
        <g transform="matrix(15,0,0,15,-3876.9704,-15072.235)" id="C.letter">
          <text x="276.92645" y="1076.5883" id="C.letter.letterline" style="font-size:24px;font-style:normal;font-weight:normal;text-align:right;text-anchor:start;fill:#000000;fill-opacity:1;stroke:none">C</text>
        </g>
        <path inkscape:connector-curvature="0" id="C.dartline" d="M 737.65597,1547.3816 483.66142,1509.0641 717.25489,1615.9077" style="fill:none;stroke:#008000;stroke-width:3;stroke-linejoin:miter;stroke-miterlimit:4;stroke-dasharray:6, 6;stroke-dashoffset:0" />
        <path inkscape:connector-curvature="0" id="C.seamline" d="M 948.45205,644.11239 C 867.28191,593.71916 785.70088,543.07085 711.33904,483.08429 561.48323,362.19791 436.20511,210.57228 276.92645,102.40302 195.50882,47.110706 97.433661,0 0,0 -94.585524,0 -203.41644,88.249424 -257.01973,131.71556 -405.07257,251.76947 -536.74233,397.76138 -691.43232,512.39683 -768.77731,569.71456 -859.50728,607.28308 -948.45205,644.11239 -772.58187,907.69311 -580.23535,1195.9673 -531.49606,1509.0641 L -396.24584,2377.8993 C -143.04628,2338.4842 126.21639,2372.8631 368.48958,2456.3333 L 666.10176,1592.5107 681.74185,1568.0351 682.03533,1538.9907 948.45205,644.11239" style="fill:none;stroke:#008000;stroke-width:4;stroke-linejoin:miter;stroke-miterlimit:4;stroke-dasharray:24, 6;stroke-dashoffset:0" />
        <path inkscape:connector-curvature="0" id="C.cuttingline" d="M -3,-56.21875 C -64.708626,-55.031618 -122.70145,-28.800345 -174.74181,2.4738267 -238.57391,41.547761 -295.95277,90.030682 -352.55166,138.7214 -480.47869,250.01736 -597.44668,374.49749 -735.03125,474.53125 -819.04441,533.40234 -915.86286,569.02173 -1009.7381,608.69108 -1017.5545,611.93989 -1025.371,615.18869 -1033.1875,618.4375 -915.51115,795.53424 -793.80748,971.31096 -702.125,1163.7812 -646.09275,1281.6287 -602.38833,1406.0476 -584.29418,1535.5983 -537.26869,1837.7218 -490.2461,2139.8456 -443.21875,2441.9688 -383.12436,2432.4823 -322.87353,2423.2332 -262.0387,2420.1959 -45.289051,2407.8909 172.51892,2445.461 376.55262,2518.6612 385.483,2521.7533 394.41337,2524.8454 403.34375,2527.9375 507.90813,2224.3268 612.51335,1920.7302 717.09375,1617.125 723.82058,1605.9412 731.99786,1595.1906 737.8534,1583.75 738.52155,1570.7282 737.01992,1557.3766 739.0747,1544.5622 830.91386,1236.0517 922.7573,927.54253 1014.5938,619.03125 910.48873,554.10112 804.32835,491.01029 711.54717,410.06971 585.3897,301.53349 473.95103,175.39101 338.65972,77.09974 261.737,21.058028 176.49652,-26.83477 82.731698,-47.199387 54.570233,-53.204535 25.754523,-56.509887 -3,-56.21875 z" style="fill:none;stroke:#008000;stroke-width:4;stroke-linejoin:miter;stroke-miterlimit:4" />
        <g id="C.info">
          <text x="276.92645" y="1147.4543" id="C.info.lineNext Patterns" style="font-size:12px;font-style:normal;font-weight:normal;text-align:right;text-anchor:start;fill:#000000;fill-opacity:1;stroke:none">Next Patterns</text>
          <text x="276.92645" y="1161.8544" id="C.info.lineDesigner:S.L.Spencer" style="font-size:12px;font-style:normal;font-weight:normal;text-align:right;text-anchor:start;fill:#000000;fill-opacity:1;stroke:none">Designer:S.L.Spencer</text>
          <text x="276.92645" y="1176.2544" id="C.info.lineClient:DressFormLg" style="font-size:12px;font-style:normal;font-weight:normal;text-align:right;text-anchor:start;fill:#000000;fill-opacity:1;stroke:none">Client:DressFormLg</text>
          <text x="276.92645" y="1190.6544" id="C.info.lineMR_B1" style="font-size:12px;font-style:normal;font-weight:normal;text-align:right;text-anchor:start;fill:#000000;fill-opacity:1;stroke:none">MR_B1</text>
          <text x="276.92645" y="1205.0543" id="C.info.linePattern Piece C" style="font-size:12px;font-style:normal;font-weight:normal;text-align:right;text-anchor:start;fill:#000000;fill-opacity:1;stroke:none">Pattern Piece C</text>
          <text x="276.92645" y="1219.4543" id="C.info.lineCut 2 Fabric" style="font-size:12px;font-style:normal;font-weight:normal;text-align:right;text-anchor:start;fill:#000000;fill-opacity:1;stroke:none">Cut 2 Fabric</text>
        </g>
      </g>
      <g transform="translate(950.95205,2240.2797)" id="document.bodice.Bodice Sleeve.reference">
        <circle sodipodi:ry="5" sodipodi:rx="5" sodipodi:cy="0" sodipodi:cx="97.433662" d="M 102.43366,0 C 102.43366,2.7614237 100.19509,5 97.433662,5 94.672239,5 92.433662,2.7614237 92.433662,0 92.433662,-2.7614237 94.672239,-5 97.433662,-5 100.19509,-5 102.43366,-2.7614237 102.43366,0 z" id="C.SCM.inpoint" r="5" cx="97.433662" cy="0" style="fill:none;stroke:#808080;stroke-width:1" />
        <text x="104.43366" y="-7" id="C.SCM.inpoint.text" style="font-size:25px;font-style:italic;font-weight:normal;text-align:right;fill:#808080;fill-opacity:1;stroke:none">SCM.in</text>
        <circle sodipodi:ry="5" sodipodi:rx="5" sodipodi:cy="0" sodipodi:cx="-94.585526" d="M -89.585526,0 C -89.585526,2.7614237 -91.824102,5 -94.585526,5 -97.346949,5 -99.585526,2.7614237 -99.585526,0 -99.585526,-2.7614237 -97.346949,-5 -94.585526,-5 -91.824102,-5 -89.585526,-2.7614237 -89.585526,0 z" id="C.SCM.outpoint" r="5" cx="-94.585526" cy="0" style="fill:none;stroke:#808080;stroke-width:1" />
        <text x="-87.585526" y="-7" id="C.SCM.outpoint.text" style="font-size:25px;font-style:italic;font-weight:normal;text-align:right;fill:#808080;fill-opacity:1;stroke:none">SCM.out</text>
        <circle sodipodi:ry="5" sodipodi:rx="5" sodipodi:cy="0" sodipodi:cx="0" d="M 5,0 C 5,2.7614237 2.7614237,5 0,5 -2.7614237,5 -5,2.7614237 -5,0 -5,-2.7614237 -2.7614237,-5 0,-5 2.7614237,-5 5,-2.7614237 5,0 z" id="C.SCM" r="5" cx="0" cy="0" style="fill:#ff0000;stroke:#ff0000;stroke-width:1" />
        <text x="7" y="-7" id="C.SCM.text" style="font-size:30px;font-style:italic;font-weight:normal;text-align:right;fill:#00008b;fill-opacity:1;stroke:none">SCM</text>
        <circle sodipodi:ry="5" sodipodi:rx="5" sodipodi:cy="644.11237" sodipodi:cx="0" d="M 5,644.11237 C 5,646.87379 2.7614237,649.11237 0,649.11237 -2.7614237,649.11237 -5,646.87379 -5,644.11237 -5,641.35094 -2.7614237,639.11237 0,639.11237 2.7614237,639.11237 5,641.35094 5,644.11237 z" id="C.SUM" r="5" cx="0" cy="644.11237" style="fill:#ff0000;stroke:#ff0000;stroke-width:1" />
        <text x="7" y="637.11237" id="C.SUM.text" style="font-size:30px;font-style:italic;font-weight:normal;text-align:right;fill:#00008b;fill-opacity:1;stroke:none">SUM</text>
        <circle sodipodi:ry="5" sodipodi:rx="5" sodipodi:cy="2374.0159" sodipodi:cx="0" d="M 5,2374.0159 C 5,2376.7773 2.7614237,2379.0159 0,2379.0159 -2.7614237,2379.0159 -5,2376.7773 -5,2374.0159 -5,2371.2544 -2.7614237,2369.0159 0,2369.0159 2.7614237,2369.0159 5,2371.2544 5,2374.0159 z" id="C.SWM" r="5" cx="0" cy="2374.0159" style="fill:#ff0000;stroke:#ff0000;stroke-width:1" />
        <text x="7" y="2367.0159" id="C.SWM.text" style="font-size:30px;font-style:italic;font-weight:normal;text-align:right;fill:#00008b;fill-opacity:1;stroke:none">SWM</text>
        <circle sodipodi:ry="5" sodipodi:rx="5" sodipodi:cy="1509.0641" sodipodi:cx="0" d="M 5,1509.0641 C 5,1511.8255 2.7614237,1514.0641 0,1514.0641 -2.7614237,1514.0641 -5,1511.8255 -5,1509.0641 -5,1506.3027 -2.7614237,1504.0641 0,1504.0641 2.7614237,1504.0641 5,1506.3027 5,1509.0641 z" id="C.SEM" r="5" cx="0" cy="1509.0641" style="fill:#ff0000;stroke:#ff0000;stroke-width:1" />
        <text x="7" y="1502.0641" id="C.SEM.text" style="font-size:30px;font-style:italic;font-weight:normal;text-align:right;fill:#00008b;fill-opacity:1;stroke:none">SEM</text>
        <circle sodipodi:ry="5" sodipodi:rx="5" sodipodi:cy="593.71918" sodipodi:cx="867.28192" d="M 872.28192,593.71918 C 872.28192,596.4806 870.04335,598.71918 867.28192,598.71918 864.5205,598.71918 862.28192,596.4806 862.28192,593.71918 862.28192,590.95775 864.5205,588.71918 867.28192,588.71918 870.04335,588.71918 872.28192,590.95775 872.28192,593.71918 z" id="C.SUB.outpoint" r="5" cx="867.28192" cy="593.71918" style="fill:none;stroke:#808080;stroke-width:1" />
        <text x="874.28192" y="586.71918" id="C.SUB.outpoint.text" style="font-size:25px;font-style:italic;font-weight:normal;text-align:right;fill:#808080;fill-opacity:1;stroke:none">SUB.out</text>
        <circle sodipodi:ry="5" sodipodi:rx="5" sodipodi:cy="644.11237" sodipodi:cx="948.45203" d="M 953.45203,644.11237 C 953.45203,646.87379 951.21345,649.11237 948.45203,649.11237 945.6906,649.11237 943.45203,646.87379 943.45203,644.11237 943.45203,641.35094 945.6906,639.11237 948.45203,639.11237 951.21345,639.11237 953.45203,641.35094 953.45203,644.11237 z" id="C.SUB" r="5" cx="948.45203" cy="644.11237" style="fill:#ff0000;stroke:#ff0000;stroke-width:1" />
        <text x="955.45203" y="637.11237" id="C.SUB.text" style="font-size:30px;font-style:italic;font-weight:normal;text-align:right;fill:#00008b;fill-opacity:1;stroke:none">SUB</text>
        <circle sodipodi:ry="5" sodipodi:rx="5" sodipodi:cy="607.28308" sodipodi:cx="-859.50726" d="M -854.50726,607.28308 C -854.50726,610.0445 -856.74584,612.28308 -859.50726,612.28308 -862.26869,612.28308 -864.50726,610.0445 -864.50726,607.28308 -864.50726,604.52166 -862.26869,602.28308 -859.50726,602.28308 -856.74584,602.28308 -854.50726,604.52166 -854.50726,607.28308 z" id="C.SUF.inpoint" r="5" cx="-859.50726" cy="607.28308" style="fill:none;stroke:#808080;stroke-width:1" />
        <text x="-852.50726" y="600.28308" id="C.SUF.inpoint.text" style="font-size:25px;font-style:italic;font-weight:normal;text-align:right;fill:#808080;fill-opacity:1;stroke:none">SUF.in</text>
        <circle sodipodi:ry="5" sodipodi:rx="5" sodipodi:cy="907.69312" sodipodi:cx="-772.58185" d="M -767.58185,907.69312 C -767.58185,910.45454 -769.82042,912.69312 -772.58185,912.69312 -775.34327,912.69312 -777.58185,910.45454 -777.58185,907.69312 -777.58185,904.93169 -775.34327,902.69312 -772.58185,902.69312 -769.82042,902.69312 -767.58185,904.93169 -767.58185,907.69312 z" id="C.SUF.outpoint" r="5" cx="-772.58185" cy="907.69312" style="fill:none;stroke:#808080;stroke-width:1" />
        <text x="-765.58185" y="900.69312" id="C.SUF.outpoint.text" style="font-size:25px;font-style:italic;font-weight:normal;text-align:right;fill:#808080;fill-opacity:1;stroke:none">SUF.out</text>
        <circle sodipodi:ry="5" sodipodi:rx="5" sodipodi:cy="644.11237" sodipodi:cx="-948.45203" d="M -943.45203,644.11237 C -943.45203,646.87379 -945.6906,649.11237 -948.45203,649.11237 -951.21345,649.11237 -953.45203,646.87379 -953.45203,644.11237 -953.45203,641.35094 -951.21345,639.11237 -948.45203,639.11237 -945.6906,639.11237 -943.45203,641.35094 -943.45203,644.11237 z" id="C.SUF" r="5" cx="-948.45203" cy="644.11237" style="fill:#ff0000;stroke:#ff0000;stroke-width:1" />
        <text x="-941.45203" y="637.11237" id="C.SUF.text" style="font-size:30px;font-style:italic;font-weight:normal;text-align:right;fill:#00008b;fill-opacity:1;stroke:none">SUF</text>
        <circle sodipodi:ry="5" sodipodi:rx="5" sodipodi:cy="1509.0641" sodipodi:cx="690.94489" d="M 695.94489,1509.0641 C 695.94489,1511.8255 693.70631,1514.0641 690.94489,1514.0641 688.18346,1514.0641 685.94489,1511.8255 685.94489,1509.0641 685.94489,1506.3027 688.18346,1504.0641 690.94489,1504.0641 693.70631,1504.0641 695.94489,1506.3027 695.94489,1509.0641 z" id="C.SEB" r="5" cx="690.94489" cy="1509.0641" style="fill:#ff0000;stroke:#ff0000;stroke-width:1" />
        <text x="697.94489" y="1502.0641" id="C.SEB.text" style="font-size:30px;font-style:italic;font-weight:normal;text-align:right;fill:#00008b;fill-opacity:1;stroke:none">SEB</text>
        <circle sodipodi:ry="5" sodipodi:rx="5" sodipodi:cy="1195.9673" sodipodi:cx="-580.23535" d="M -575.23535,1195.9673 C -575.23535,1198.7287 -577.47393,1200.9673 -580.23535,1200.9673 -582.99678,1200.9673 -585.23535,1198.7287 -585.23535,1195.9673 -585.23535,1193.2059 -582.99678,1190.9673 -580.23535,1190.9673 -577.47393,1190.9673 -575.23535,1193.2059 -575.23535,1195.9673 z" id="C.SEF.inpoint" r="5" cx="-580.23535" cy="1195.9673" style="fill:none;stroke:#808080;stroke-width:1" />
        <text x="-573.23535" y="1188.9673" id="C.SEF.inpoint.text" style="font-size:25px;font-style:italic;font-weight:normal;text-align:right;fill:#808080;fill-opacity:1;stroke:none">SEF.in</text>
        <circle sodipodi:ry="5" sodipodi:rx="5" sodipodi:cy="1509.0641" sodipodi:cx="-531.49603" d="M -526.49603,1509.0641 C -526.49603,1511.8255 -528.73461,1514.0641 -531.49603,1514.0641 -534.25746,1514.0641 -536.49603,1511.8255 -536.49603,1509.0641 -536.49603,1506.3027 -534.25746,1504.0641 -531.49603,1504.0641 -528.73461,1504.0641 -526.49603,1506.3027 -526.49603,1509.0641 z" id="C.SEF" r="5" cx="-531.49603" cy="1509.0641" style="fill:#ff0000;stroke:#ff0000;stroke-width:1" />
        <text x="-524.49603" y="1502.0641" id="C.SEF.text" style="font-size:30px;font-style:italic;font-weight:normal;text-align:right;fill:#00008b;fill-opacity:1;stroke:none">SEF</text>
        <circle sodipodi:ry="5" sodipodi:rx="5" sodipodi:cy="543.07086" sodipodi:cx="785.70087" d="M 790.70087,543.07086 C 790.70087,545.83229 788.46229,548.07086 785.70087,548.07086 782.93944,548.07086 780.70087,545.83229 780.70087,543.07086 780.70087,540.30944 782.93944,538.07086 785.70087,538.07086 788.46229,538.07086 790.70087,540.30944 790.70087,543.07086 z" id="C.s1.inpoint" r="5" cx="785.70087" cy="543.07086" style="fill:none;stroke:#808080;stroke-width:1" />
        <text x="792.70087" y="536.07086" id="C.s1.inpoint.text" style="font-size:25px;font-style:italic;font-weight:normal;text-align:right;fill:#808080;fill-opacity:1;stroke:none">s1.in</text>
        <circle sodipodi:ry="5" sodipodi:rx="5" sodipodi:cy="362.19791" sodipodi:cx="561.48322" d="M 566.48322,362.19791 C 566.48322,364.95933 564.24464,367.19791 561.48322,367.19791 558.72179,367.19791 556.48322,364.95933 556.48322,362.19791 556.48322,359.43648 558.72179,357.19791 561.48322,357.19791 564.24464,357.19791 566.48322,359.43648 566.48322,362.19791 z" id="C.s1.outpoint" r="5" cx="561.48322" cy="362.19791" style="fill:none;stroke:#808080;stroke-width:1" />
        <text x="568.48322" y="355.19791" id="C.s1.outpoint.text" style="font-size:25px;font-style:italic;font-weight:normal;text-align:right;fill:#808080;fill-opacity:1;stroke:none">s1.out</text>
        <circle sodipodi:ry="5" sodipodi:rx="5" sodipodi:cy="483.08429" sodipodi:cx="711.33905" d="M 716.33905,483.08429 C 716.33905,485.84571 714.10047,488.08429 711.33905,488.08429 708.57763,488.08429 706.33905,485.84571 706.33905,483.08429 706.33905,480.32287 708.57763,478.08429 711.33905,478.08429 714.10047,478.08429 716.33905,480.32287 716.33905,483.08429 z" id="C.s1" r="5" cx="711.33905" cy="483.08429" style="fill:#ff0000;stroke:#ff0000;stroke-width:1" />
        <text x="718.33905" y="476.08429" id="C.s1.text" style="font-size:30px;font-style:italic;font-weight:normal;text-align:right;fill:#00008b;fill-opacity:1;stroke:none">s1</text>
        <circle sodipodi:ry="5" sodipodi:rx="5" sodipodi:cy="161.02809" sodipodi:cx="237.11301" d="M 242.11301,161.02809 C 242.11301,163.78952 239.87443,166.02809 237.11301,166.02809 234.35158,166.02809 232.11301,163.78952 232.11301,161.02809 232.11301,158.26667 234.35158,156.02809 237.11301,156.02809 239.87443,156.02809 242.11301,158.26667 242.11301,161.02809 z" id="C.s2" r="5" cx="237.11301" cy="161.02809" style="fill:#ff0000;stroke:#ff0000;stroke-width:1" />
        <text x="244.11301" y="154.02809" id="C.s2.text" style="font-size:30px;font-style:italic;font-weight:normal;text-align:right;fill:#00008b;fill-opacity:1;stroke:none">s2</text>
        <circle sodipodi:ry="5" sodipodi:rx="5" sodipodi:cy="210.57228" sodipodi:cx="436.20511" d="M 441.20511,210.57228 C 441.20511,213.3337 438.96653,215.57228 436.20511,215.57228 433.44368,215.57228 431.20511,213.3337 431.20511,210.57228 431.20511,207.81086 433.44368,205.57228 436.20511,205.57228 438.96653,205.57228 441.20511,207.81086 441.20511,210.57228 z" id="C.s3.inpoint" r="5" cx="436.20511" cy="210.57228" style="fill:none;stroke:#808080;stroke-width:1" />
        <text x="443.20511" y="203.57228" id="C.s3.inpoint.text" style="font-size:25px;font-style:italic;font-weight:normal;text-align:right;fill:#808080;fill-opacity:1;stroke:none">s3.in</text>
        <circle sodipodi:ry="5" sodipodi:rx="5" sodipodi:cy="47.110706" sodipodi:cx="195.50882" d="M 200.50882,47.110706 C 200.50882,49.87213 198.27024,52.110706 195.50882,52.110706 192.7474,52.110706 190.50882,49.87213 190.50882,47.110706 190.50882,44.349283 192.7474,42.110706 195.50882,42.110706 198.27024,42.110706 200.50882,44.349283 200.50882,47.110706 z" id="C.s3.outpoint" r="5" cx="195.50882" cy="47.110706" style="fill:none;stroke:#808080;stroke-width:1" />
        <text x="202.50882" y="40.110706" id="C.s3.outpoint.text" style="font-size:25px;font-style:italic;font-weight:normal;text-align:right;fill:#808080;fill-opacity:1;stroke:none">s3.out</text>
        <circle sodipodi:ry="5" sodipodi:rx="5" sodipodi:cy="102.40302" sodipodi:cx="276.92645" d="M 281.92645,102.40302 C 281.92645,105.16445 279.68788,107.40302 276.92645,107.40302 274.16503,107.40302 271.92645,105.16445 271.92645,102.40302 271.92645,99.641599 274.16503,97.403023 276.92645,97.403023 279.68788,97.403023 281.92645,99.641599 281.92645,102.40302 z" id="C.s3" r="5" cx="276.92645" cy="102.40302" style="fill:#ff0000;stroke:#ff0000;stroke-width:1" />
        <text x="283.92645" y="95.403015" id="C.s3.text" style="font-size:30px;font-style:italic;font-weight:normal;text-align:right;fill:#00008b;fill-opacity:1;stroke:none">s3</text>
        <circle sodipodi:ry="5" sodipodi:rx="5" sodipodi:cy="161.02809" sodipodi:cx="-237.11301" d="M -232.11301,161.02809 C -232.11301,163.78952 -234.35158,166.02809 -237.11301,166.02809 -239.87443,166.02809 -242.11301,163.78952 -242.11301,161.02809 -242.11301,158.26667 -239.87443,156.02809 -237.11301,156.02809 -234.35158,156.02809 -232.11301,158.26667 -232.11301,161.02809 z" id="C.s4" r="5" cx="-237.11301" cy="161.02809" style="fill:#ff0000;stroke:#ff0000;stroke-width:1" />
        <text x="-230.11301" y="154.02809" id="C.s4.text" style="font-size:30px;font-style:italic;font-weight:normal;text-align:right;fill:#00008b;fill-opacity:1;stroke:none">s4</text>
        <circle sodipodi:ry="5" sodipodi:rx="5" sodipodi:cy="88.24942" sodipodi:cx="-203.41644" d="M -198.41644,88.24942 C -198.41644,91.010844 -200.65502,93.24942 -203.41644,93.24942 -206.17787,93.24942 -208.41644,91.010844 -208.41644,88.24942 -208.41644,85.487996 -206.17787,83.24942 -203.41644,83.24942 -200.65502,83.24942 -198.41644,85.487996 -198.41644,88.24942 z" id="C.s5.inpoint" r="5" cx="-203.41644" cy="88.24942" style="fill:none;stroke:#808080;stroke-width:1" />
        <text x="-196.41644" y="81.24942" id="C.s5.inpoint.text" style="font-size:25px;font-style:italic;font-weight:normal;text-align:right;fill:#808080;fill-opacity:1;stroke:none">s5.in</text>
        <circle sodipodi:ry="5" sodipodi:rx="5" sodipodi:cy="251.76947" sodipodi:cx="-405.07257" d="M -400.07257,251.76947 C -400.07257,254.53089 -402.31115,256.76947 -405.07257,256.76947 -407.83399,256.76947 -410.07257,254.53089 -410.07257,251.76947 -410.07257,249.00805 -407.83399,246.76947 -405.07257,246.76947 -402.31115,246.76947 -400.07257,249.00805 -400.07257,251.76947 z" id="C.s5.outpoint" r="5" cx="-405.07257" cy="251.76947" style="fill:none;stroke:#808080;stroke-width:1" />
        <text x="-398.07257" y="244.76947" id="C.s5.outpoint.text" style="font-size:25px;font-style:italic;font-weight:normal;text-align:right;fill:#808080;fill-opacity:1;stroke:none">s5.out</text>
        <circle sodipodi:ry="5" sodipodi:rx="5" sodipodi:cy="131.71556" sodipodi:cx="-257.01974" d="M -252.01974,131.71556 C -252.01974,134.47698 -254.25832,136.71556 -257.01974,136.71556 -259.78117,136.71556 -262.01974,134.47698 -262.01974,131.71556 -262.01974,128.95414 -259.78117,126.71556 -257.01974,126.71556 -254.25832,126.71556 -252.01974,128.95414 -252.01974,131.71556 z" id="C.s5" r="5" cx="-257.01974" cy="131.71556" style="fill:#ff0000;stroke:#ff0000;stroke-width:1" />
        <text x="-250.01973" y="124.71556" id="C.s5.text" style="font-size:30px;font-style:italic;font-weight:normal;text-align:right;fill:#00008b;fill-opacity:1;stroke:none">s5</text>
        <circle sodipodi:ry="5" sodipodi:rx="5" sodipodi:cy="483.08429" sodipodi:cx="-711.33905" d="M -706.33905,483.08429 C -706.33905,485.84571 -708.57763,488.08429 -711.33905,488.08429 -714.10047,488.08429 -716.33905,485.84571 -716.33905,483.08429 -716.33905,480.32287 -714.10047,478.08429 -711.33905,478.08429 -708.57763,478.08429 -706.33905,480.32287 -706.33905,483.08429 z" id="C.s6" r="5" cx="-711.33905" cy="483.08429" style="fill:#ff0000;stroke:#ff0000;stroke-width:1" />
        <text x="-704.33905" y="476.08429" id="C.s6.text" style="font-size:30px;font-style:italic;font-weight:normal;text-align:right;fill:#00008b;fill-opacity:1;stroke:none">s6</text>
        <circle sodipodi:ry="5" sodipodi:rx="5" sodipodi:cy="397.76138" sodipodi:cx="-536.74231" d="M -531.74231,397.76138 C -531.74231,400.52281 -533.98089,402.76138 -536.74231,402.76138 -539.50373,402.76138 -541.74231,400.52281 -541.74231,397.76138 -541.74231,394.99996 -539.50373,392.76138 -536.74231,392.76138 -533.98089,392.76138 -531.74231,394.99996 -531.74231,397.76138 z" id="C.s7.inpoint" r="5" cx="-536.74231" cy="397.76138" style="fill:none;stroke:#808080;stroke-width:1" />
        <text x="-529.74231" y="390.76138" id="C.s7.inpoint.text" style="font-size:25px;font-style:italic;font-weight:normal;text-align:right;fill:#808080;fill-opacity:1;stroke:none">s7.in</text>
        <circle sodipodi:ry="5" sodipodi:rx="5" sodipodi:cy="569.71454" sodipodi:cx="-768.77728" d="M -763.77728,569.71454 C -763.77728,572.47596 -766.01586,574.71454 -768.77728,574.71454 -771.53871,574.71454 -773.77728,572.47596 -773.77728,569.71454 -773.77728,566.95311 -771.53871,564.71454 -768.77728,564.71454 -766.01586,564.71454 -763.77728,566.95311 -763.77728,569.71454 z" id="C.s7.outpoint" r="5" cx="-768.77728" cy="569.71454" style="fill:none;stroke:#808080;stroke-width:1" />
        <text x="-761.77728" y="562.71454" id="C.s7.outpoint.text" style="font-size:25px;font-style:italic;font-weight:normal;text-align:right;fill:#808080;fill-opacity:1;stroke:none">s7.out</text>
        <circle sodipodi:ry="5" sodipodi:rx="5" sodipodi:cy="512.39685" sodipodi:cx="-691.43231" d="M -686.43231,512.39685 C -686.43231,515.15827 -688.67089,517.39685 -691.43231,517.39685 -694.19374,517.39685 -696.43231,515.15827 -696.43231,512.39685 -696.43231,509.63543 -694.19374,507.39685 -691.43231,507.39685 -688.67089,507.39685 -686.43231,509.63543 -686.43231,512.39685 z" id="C.s7" r="5" cx="-691.43231" cy="512.39685" style="fill:#ff0000;stroke:#ff0000;stroke-width:1" />
        <text x="-684.43231" y="505.39682" id="C.s7.text" style="font-size:30px;font-style:italic;font-weight:normal;text-align:right;fill:#00008b;fill-opacity:1;stroke:none">s7</text>
        <circle sodipodi:ry="5" sodipodi:rx="5" sodipodi:cy="2374.0159" sodipodi:cx="-948.45203" d="M -943.45203,2374.0159 C -943.45203,2376.7773 -945.6906,2379.0159 -948.45203,2379.0159 -951.21345,2379.0159 -953.45203,2376.7773 -953.45203,2374.0159 -953.45203,2371.2544 -951.21345,2369.0159 -948.45203,2369.0159 -945.6906,2369.0159 -943.45203,2371.2544 -943.45203,2374.0159 z" id="C.s8" r="5" cx="-948.45203" cy="2374.0159" style="fill:#ff0000;stroke:#ff0000;stroke-width:1" />
        <text x="-941.45203" y="2367.0159" id="C.s8.text" style="font-size:30px;font-style:italic;font-weight:normal;text-align:right;fill:#00008b;fill-opacity:1;stroke:none">s8</text>
        <circle sodipodi:ry="5" sodipodi:rx="5" sodipodi:cy="2374.0159" sodipodi:cx="-396.8504" d="M -391.8504,2374.0159 C -391.8504,2376.7773 -394.08898,2379.0159 -396.8504,2379.0159 -399.61183,2379.0159 -401.8504,2376.7773 -401.8504,2374.0159 -401.8504,2371.2544 -399.61183,2369.0159 -396.8504,2369.0159 -394.08898,2369.0159 -391.8504,2371.2544 -391.8504,2374.0159 z" id="C.s9" r="5" cx="-396.8504" cy="2374.0159" style="fill:#ff0000;stroke:#ff0000;stroke-width:1" />
        <text x="-389.8504" y="2367.0159" id="C.s9.text" style="font-size:30px;font-style:italic;font-weight:normal;text-align:right;fill:#00008b;fill-opacity:1;stroke:none">s9</text>
        <circle sodipodi:ry="5" sodipodi:rx="5" sodipodi:cy="2374.0159" sodipodi:cx="948.45203" d="M 953.45203,2374.0159 C 953.45203,2376.7773 951.21345,2379.0159 948.45203,2379.0159 945.6906,2379.0159 943.45203,2376.7773 943.45203,2374.0159 943.45203,2371.2544 945.6906,2369.0159 948.45203,2369.0159 951.21345,2369.0159 953.45203,2371.2544 953.45203,2374.0159 z" id="C.s10" r="5" cx="948.45203" cy="2374.0159" style="fill:#ff0000;stroke:#ff0000;stroke-width:1" />
        <text x="955.45203" y="2367.0159" id="C.s10.text" style="font-size:30px;font-style:italic;font-weight:normal;text-align:right;fill:#00008b;fill-opacity:1;stroke:none">s10</text>
        <circle sodipodi:ry="5" sodipodi:rx="5" sodipodi:cy="2374.0159" sodipodi:cx="396.8504" d="M 401.8504,2374.0159 C 401.8504,2376.7773 399.61183,2379.0159 396.8504,2379.0159 394.08898,2379.0159 391.8504,2376.7773 391.8504,2374.0159 391.8504,2371.2544 394.08898,2369.0159 396.8504,2369.0159 399.61183,2369.0159 401.8504,2371.2544 401.8504,2374.0159 z" id="C.s11" r="5" cx="396.8504" cy="2374.0159" style="fill:#ff0000;stroke:#ff0000;stroke-width:1" />
        <text x="403.8504" y="2367.0159" id="C.s11.text" style="font-size:30px;font-style:italic;font-weight:normal;text-align:right;fill:#00008b;fill-opacity:1;stroke:none">s11</text>
        <circle sodipodi:ry="5" sodipodi:rx="5" sodipodi:cy="1509.0641" sodipodi:cx="483.66141" d="M 488.66141,1509.0641 C 488.66141,1511.8255 486.42283,1514.0641 483.66141,1514.0641 480.89998,1514.0641 478.66141,1511.8255 478.66141,1509.0641 478.66141,1506.3027 480.89998,1504.0641 483.66141,1504.0641 486.42283,1504.0641 488.66141,1506.3027 488.66141,1509.0641 z" id="C.SD1" r="5" cx="483.66141" cy="1509.0641" style="fill:#ff0000;stroke:#ff0000;stroke-width:1" />
        <text x="490.66141" y="1502.0641" id="C.SD1.text" style="font-size:30px;font-style:italic;font-weight:normal;text-align:right;fill:#00008b;fill-opacity:1;stroke:none">SD1</text>
        <circle sodipodi:ry="5" sodipodi:rx="5" sodipodi:cy="1538.9907" sodipodi:cx="682.03534" d="M 687.03534,1538.9907 C 687.03534,1541.7521 684.79676,1543.9907 682.03534,1543.9907 679.27392,1543.9907 677.03534,1541.7521 677.03534,1538.9907 677.03534,1536.2293 679.27392,1533.9907 682.03534,1533.9907 684.79676,1533.9907 687.03534,1536.2293 687.03534,1538.9907 z" id="C.SD1.i" r="5" cx="682.03534" cy="1538.9907" style="fill:#ff0000;stroke:#ff0000;stroke-width:1" />
        <text x="689.03534" y="1531.9907" id="C.SD1.i.text" style="font-size:30px;font-style:italic;font-weight:normal;text-align:right;fill:#00008b;fill-opacity:1;stroke:none">SD1.i</text>
        <circle sodipodi:ry="5" sodipodi:rx="5" sodipodi:cy="1592.5107" sodipodi:cx="666.10175" d="M 671.10175,1592.5107 C 671.10175,1595.2722 668.86317,1597.5107 666.10175,1597.5107 663.34032,1597.5107 661.10175,1595.2722 661.10175,1592.5107 661.10175,1589.7493 663.34032,1587.5107 666.10175,1587.5107 668.86317,1587.5107 671.10175,1589.7493 671.10175,1592.5107 z" id="C.SD1.o" r="5" cx="666.10175" cy="1592.5107" style="fill:#ff0000;stroke:#ff0000;stroke-width:1" />
        <text x="673.10175" y="1585.5107" id="C.SD1.o.text" style="font-size:30px;font-style:italic;font-weight:normal;text-align:right;fill:#00008b;fill-opacity:1;stroke:none">SD1.o</text>
        <circle sodipodi:ry="5" sodipodi:rx="5" sodipodi:cy="2372.863" sodipodi:cx="126.21639" d="M 131.21639,2372.863 C 131.21639,2375.6245 128.97782,2377.863 126.21639,2377.863 123.45497,2377.863 121.21639,2375.6245 121.21639,2372.863 121.21639,2370.1016 123.45497,2367.863 126.21639,2367.863 128.97782,2367.863 131.21639,2370.1016 131.21639,2372.863 z" id="C.SWB.inpoint" r="5" cx="126.21639" cy="2372.863" style="fill:none;stroke:#808080;stroke-width:1" />
        <text x="133.2164" y="2365.863" id="C.SWB.inpoint.text" style="font-size:25px;font-style:italic;font-weight:normal;text-align:right;fill:#808080;fill-opacity:1;stroke:none">SWB.in</text>
        <circle sodipodi:ry="5" sodipodi:rx="5" sodipodi:cy="2456.3333" sodipodi:cx="368.48959" d="M 373.48959,2456.3333 C 373.48959,2459.0947 371.25102,2461.3333 368.48959,2461.3333 365.72817,2461.3333 363.48959,2459.0947 363.48959,2456.3333 363.48959,2453.5718 365.72817,2451.3333 368.48959,2451.3333 371.25102,2451.3333 373.48959,2453.5718 373.48959,2456.3333 z" id="C.SWB" r="5" cx="368.48959" cy="2456.3333" style="fill:#ff0000;stroke:#ff0000;stroke-width:1" />
        <text x="375.48959" y="2449.3333" id="C.SWB.text" style="font-size:30px;font-style:italic;font-weight:normal;text-align:right;fill:#00008b;fill-opacity:1;stroke:none">SWB</text>
        <circle sodipodi:ry="5" sodipodi:rx="5" sodipodi:cy="2338.4841" sodipodi:cx="-143.04628" d="M -138.04628,2338.4841 C -138.04628,2341.2456 -140.28486,2343.4841 -143.04628,2343.4841 -145.8077,2343.4841 -148.04628,2341.2456 -148.04628,2338.4841 -148.04628,2335.7227 -145.8077,2333.4841 -143.04628,2333.4841 -140.28486,2333.4841 -138.04628,2335.7227 -138.04628,2338.4841 z" id="C.SWF.outpoint" r="5" cx="-143.04628" cy="2338.4841" style="fill:none;stroke:#808080;stroke-width:1" />
        <text x="-136.04628" y="2331.4841" id="C.SWF.outpoint.text" style="font-size:25px;font-style:italic;font-weight:normal;text-align:right;fill:#808080;fill-opacity:1;stroke:none">SWF.out</text>
        <circle sodipodi:ry="5" sodipodi:rx="5" sodipodi:cy="2377.8994" sodipodi:cx="-396.24585" d="M -391.24585,2377.8994 C -391.24585,2380.6608 -393.48443,2382.8994 -396.24585,2382.8994 -399.00727,2382.8994 -401.24585,2380.6608 -401.24585,2377.8994 -401.24585,2375.138 -399.00727,2372.8994 -396.24585,2372.8994 -393.48443,2372.8994 -391.24585,2375.138 -391.24585,2377.8994 z" id="C.SWF" r="5" cx="-396.24585" cy="2377.8994" style="fill:#ff0000;stroke:#ff0000;stroke-width:1" />
        <text x="-389.24585" y="2370.8994" id="C.SWF.text" style="font-size:30px;font-style:italic;font-weight:normal;text-align:right;fill:#00008b;fill-opacity:1;stroke:none">SWF</text>
        <path inkscape:connector-curvature="0" id="C.gridline" d="M 0,0 0,2374.0157 M 948.45205,644.11239 0,0 -948.45205,644.11239 M 948.45205,644.11239 -948.45205,644.11239 M 690.94488,1509.0641 -531.49606,1509.0641 M -948.45205,644.11239 -948.45205,2374.0157 948.45205,2374.0157 948.45205,644.11239 M 690.94488,1509.0641 396.85039,2374.0157 M -948.45205,644.11239 -396.85039,2374.0157 M 237.11301,161.0281 276.92645,102.40302 M -237.11301,161.0281 -257.01973,131.71556 M -711.33904,483.08429 -691.43232,512.39683" style="fill:none;stroke:#808080;stroke-width:2;stroke-linejoin:miter;stroke-miterlimit:4;stroke-dasharray:6, 6;stroke-dashoffset:0" />
      </g>
    </g>
  </g>
</svg>
