<?xml version="1.0" encoding="UTF-8" standalone="no"?>
<svg xmlns:dc="http://purl.org/dc/elements/1.1/" xmlns:cc="http://creativecommons.org/ns#" xmlns:rdf="http://www.w3.org/1999/02/22-rdf-syntax-ns#" xmlns:svg="http://www.w3.org/2000/svg" xmlns="http://www.w3.org/2000/svg" xmlns:sodipodi="http://sodipodi.sourceforge.net/DTD/sodipodi-0.dtd" xmlns:inkscape="http://www.inkscape.org/namespaces/inkscape" patternNumber="MR_B1" fitBoxtoViewport="True" companyName="Seamly Patterns" currentscale="0.5:1" margin-right="88.5826771654" client-name="DressFormLg" designerName="S.L.Spencer" height="4323.19969933" width="1912.16535433" margin-top="88.5826771654" version="1.1" margin-bottom="88.5826771654" margin-left="88.5826771654" preserveAspectRatio="xMidYMid meet" id="svg2" inkscape:version="0.48.4 r9939" sodipodi:docname="Adult_bibb-2015-01-06.svg">
  <metadata id="metadata106">
    <rdf:RDF>
      <cc:Work rdf:about="">
        <dc:format>image/svg+xml</dc:format>
        <dc:type rdf:resource="http://purl.org/dc/dcmitype/StillImage" />
        <dc:title></dc:title>
      </cc:Work>
    </rdf:RDF>
  </metadata>
  <sodipodi:namedview id="base" pagecolor="#ffffff" bordercolor="#666666" borderopacity="1.0" inkscape:pageopacity="0.0" inkscape:pageshadow="2" inkscape:zoom="0.4074428" inkscape:document-units="pt" showgrid="false" inkscape:window-maximized="1" inkscape:cx="840.67157" inkscape:cy="3312.2295" inkscape:window-width="1855" inkscape:window-height="1056" inkscape:window-x="65" inkscape:window-y="24" inkscape:current-layer="pattern" />
  <defs id="defs5">
    <marker style="overflow:visible" id="Arrow1Mstart" refX="0.0" refY="0.0" orient="auto" inkscape:stockid="Arrow1Mstart">
      <path transform="scale(0.4) translate(10,0)" style="fill-rule:evenodd;stroke:#000000;stroke-width:1.0pt;marker-start:none" d="M 0.0,0.0 L 5.0,-5.0 L -12.5,0.0 L 5.0,5.0 L 0.0,0.0 z " id="path8" />
    </marker>
    <marker style="overflow:visible;" id="Arrow1Mend" refX="0.0" refY="0.0" orient="auto" inkscape:stockid="Arrow1Mend">
      <path transform="scale(0.4) rotate(180) translate(10,0)" style="fill-rule:evenodd;stroke:#000000;stroke-width:1.0pt;marker-start:none;" d="M 0.0,0.0 L 5.0,-5.0 L -12.5,0.0 L 5.0,5.0 L 0.0,0.0 z " id="path11" />
    </marker>
  </defs>
  <g inkscape:label="Label-pattern" id="pattern" inkscape:groupmode="layer" transform="translate(88.582677,88.582677)">
    <g id="document.bibb.Bibb Front &amp; Back.pattern" transform=" translate(868.750000, 1344.784345)">
      <g id="A.letter" transform="matrix(10.000000, 0, 0, 10.000000, -2835.000000, -11947.500000)">
        <text style="font-size:24px;font-style:normal;font-weight:normal;text-align:right;text-anchor:start;fill:#000000;fill-opacity:1;stroke:none" id="A.letter.letterline" y="1226.3323" x="296.27625">A</text>
      </g>
      <path style="fill:none;stroke:#008000;stroke-width:4;stroke-linejoin:miter;stroke-miterlimit:4;stroke-dasharray:none;stroke-dashoffset:0" d="M 0,0 C 276.38448,0 319.90866,-41.598372 315,-191.25 301.1328,-614.02263 -22.685486,-534.03566 45,-720 112.68549,-905.96434 810,-787.90168 810,0 L 810,1830 C 810,2516.25 810,2745 0,2745 -810,2745 -810,2516.25 -810,1830 L -810,0 C -810,-787.90168 -112.68549,-905.96434 -45,-720 22.685486,-534.03566 -319.90866,-628.97599 -315,-191.25 -313.45952,-53.87867 -276.38448,0 0,0" id="A.seamline" inkscape:connector-curvature="0" sodipodi:nodetypes="csssssssssc" />
      <g id="A.info" transform="">
        <text style="font-size:12;vertical-align:top;fill-opacity:1;fill:#000000;text-anchor:start;stroke:none;font-weight:normal;font-style:normal;text-align:right" transform="" id="A.info.line " y="1458.9" x="315.0" />
      </g>
    </g>
    <text style="font-size:22px;font-style:normal;font-weight:normal;text-align:right;text-anchor:start;fill:#000000;fill-opacity:1;stroke:none" id="A.info.lineSeamly Patterns" y="1700.6141" x="1002.0214">Seamly Patterns</text>
    <text style="font-size:22px;font-style:normal;font-weight:normal;text-align:right;text-anchor:start;fill:#000000;fill-opacity:1;stroke:none" id="A.info.lineSpencer Bibb Short" y="1729.4142" x="1002.0214">Adult Bibb Short</text>
    <text style="font-size:22px;font-style:normal;font-weight:normal;text-align:right;text-anchor:start;fill:#000000;fill-opacity:1;stroke:none" id="A.info.linePattern Piece A" y="1743.8141" x="1002.0214" />
    <text style="font-size:22px;font-style:normal;font-weight:normal;text-align:right;text-anchor:start;fill:#000000;fill-opacity:1;stroke:none" id="A.info.lineCut 2 Fabric" y="1776.6005" x="1002.897">Cut 2 Fabric</text>
    <text style="font-size:22px;font-style:normal;font-weight:normal;text-align:right;text-anchor:start;fill:#000000;fill-opacity:1;stroke:none" id="A.info.lineCut 1 Lining" y="1798.0048" x="1002.897">Cut 1 Lining</text>
    <text style="font-size:22px;font-style:normal;font-weight:normal;text-align:right;text-anchor:start;fill:#000000;fill-opacity:1;stroke:none" id="A.info.lineDressFormLg" y="1801.4142" x="1002.0214" />
    <text style="font-size:22px;font-style:normal;font-weight:normal;text-align:right;text-anchor:start;fill:#000000;fill-opacity:1;stroke:none" id="A.info.line2015/1/6 3:14" y="1750.1486" x="1003.7725">2015/1/6</text>
  </g>
  <g inkscape:label="Label-notes" id="notes" inkscape:groupmode="layer" transform="translate(88.582677,88.582677)">
    <g id="document.titleblock">
      <text style="font-size:40px;font-style:normal;font-weight:normal;text-align:right;fill:#000000;fill-opacity:1;stroke:none" id="company" y="0" x="0">Seamly Patterns</text>
      <text style="font-size:40px;font-style:normal;font-weight:normal;text-align:right;fill:#000000;fill-opacity:1;stroke:none" id="date" y="220" x="0" />
    </g>
    <g id="document.testgrid">
      <path style="stroke-linejoin:miter;stroke:green;stroke-width:4;stroke-miterlimit:4;fill:none" d="M 1080.0  0.0 L 1080.0  212.598425197 M 1115.43307087  0.0 L 1115.43307087  212.598425197 M 1150.86614173  0.0 L 1150.86614173  212.598425197 M 1186.2992126  0.0 L 1186.2992126  212.598425197 M 1221.73228346  0.0 L 1221.73228346  212.598425197 M 1257.16535433  0.0 L 1257.16535433  212.598425197 M 1292.5984252  0.0 L 1292.5984252  212.598425197 M 1080.0  0.0 L 1292.5984252  0.0 M 1080.0  35.4330708661 L 1292.5984252  35.4330708661 M 1080.0  70.8661417323 L 1292.5984252  70.8661417323 M 1080.0  106.299212598 L 1292.5984252  106.299212598 M 1080.0  141.732283465 L 1292.5984252  141.732283465 M 1080.0  177.165354331 L 1292.5984252  177.165354331 M 1080.0  212.598425197 L 1292.5984252  212.598425197 M 1469.76377953  0.0 L 1469.76377953  270.0 M 1559.76377953  0.0 L 1559.76377953  270.0 M 1649.76377953  0.0 L 1649.76377953  270.0 M 1739.76377953  0.0 L 1739.76377953  270.0 M 1469.76377953  0.0 L 1739.76377953  0.0 M 1469.76377953  90.0 L 1739.76377953  90.0 M 1469.76377953  180.0 L 1739.76377953  180.0 M 1469.76377953  270.0 L 1739.76377953  270.0 " id="testgrid" />
    </g>
    <g id="document.bibb.Bibb Front &amp; Back.notes" transform=" translate(868.750000, 1344.784345)" />
    <text xml:space="preserve" style="font-size:22px;font-style:normal;font-variant:normal;font-weight:normal;font-stretch:normal;text-align:start;line-height:125%;letter-spacing:0px;word-spacing:0px;writing-mode:lr-tb;text-anchor:start;fill:#000000;fill-opacity:1;stroke:none;font-family:Nimbus Sans L;-inkscape-font-specification:Nimbus Sans L" x="95.718956" y="145.92625" id="text3984" sodipodi:linespacing="125%" transform="translate(-88.582677,-88.582677)"><tspan sodipodi:role="line" id="tspan3986" x="95.718956" y="145.92625">Adult Bibb</tspan><tspan sodipodi:role="line" x="95.718956" y="195.92625" id="tspan3988">2015/1/6 3:14</tspan></text>
  </g>
  <g inkscape:label="Label-reference" id="reference" inkscape:groupmode="layer" transform="translate(88.582677,88.582677)" />
</svg>
