<?xml version="1.0" encoding="UTF-8" standalone="no"?>
<!-- Created with Inkscape (http://www.inkscape.org/) -->

<svg xmlns:dc="http://purl.org/dc/elements/1.1/" xmlns:cc="http://creativecommons.org/ns#" xmlns:rdf="http://www.w3.org/1999/02/22-rdf-syntax-ns#" xmlns:svg="http://www.w3.org/2000/svg" xmlns="http://www.w3.org/2000/svg" xmlns:sodipodi="http://sodipodi.sourceforge.net/DTD/sodipodi-0.dtd" xmlns:inkscape="http://www.inkscape.org/namespaces/inkscape" id="svg2985" version="1.1" inkscape:version="0.48.3.1 r9886" width="546.02008" height="242.6432" sodipodi:docname="TMTP2.png">
  <metadata id="metadata2991">
    <rdf:RDF>
      <cc:Work rdf:about="">
        <dc:format>image/svg+xml</dc:format>
        <dc:type rdf:resource="http://purl.org/dc/dcmitype/StillImage" />
        <dc:title></dc:title>
      </cc:Work>
    </rdf:RDF>
  </metadata>
  <defs id="defs2989">
    <inkscape:perspective sodipodi:type="inkscape:persp3d" inkscape:vp_x="0 : 526.5 : 1" inkscape:vp_y="0 : 1000 : 0" inkscape:vp_z="1855 : 526.5 : 1" inkscape:persp3d-origin="927.5 : 351 : 1" id="perspective4583" />
  </defs>
  <sodipodi:namedview pagecolor="#ffffff" bordercolor="#666666" borderopacity="1" objecttolerance="10" gridtolerance="10" guidetolerance="10" inkscape:pageopacity="0" inkscape:pageshadow="2" inkscape:window-width="1301" inkscape:window-height="744" id="namedview2987" showgrid="false" inkscape:zoom="1.6035812" inkscape:cx="313.88668" inkscape:cy="156.34978" inkscape:window-x="65" inkscape:window-y="24" inkscape:window-maximized="1" inkscape:current-layer="svg2985" fit-margin-top="0" fit-margin-left="0" fit-margin-bottom="0" fit-margin-right="0" showguides="true" inkscape:guide-bbox="true" />
  <rect style="fill:#e3c771;fill-opacity:1;stroke:#178f19;stroke-width:1;stroke-miterlimit:4;stroke-opacity:1;stroke-dasharray:none;stroke-dashoffset:0" id="rect3893" width="545.02008" height="241.6432" x="0.5" y="0.5" />
  <g style="font-size:144px;font-style:normal;font-weight:normal;line-height:125%;letter-spacing:0px;word-spacing:0px;fill:black;fill-opacity:1;stroke:none;font-family:Goudy Bookletter 1911;-inkscape-font-specification:Goudy Bookletter 1911" id="text4398" transform="translate(-141.99392,-212.73175)" />
  <g id="g4919" transform="translate(-141.99392,-212.73175)">
    <path sodipodi:nodetypes="ccccccccccsccccsccc" inkscape:connector-curvature="0" id="path4403-6" d="M 191.8125,235.125 C 183.65293,234.8286 182.0903,243.08349 180.04835,250.43488 C 178.67461,258.14976 173.87748,268.34335 181.40625,274.5 C 195.23341,281.45877 197.39222,267.83756 203.73104,261.03309 L 219.41976,260.80706 L 219.9375,269.625 C 219.9375,288.96875 219.9375,308.3125 219.9375,327.65625 C 213.03617,329.05813 204.24251,333.03488 204.53125,338.6875 C 203.53785,346.50649 211.29895,352.91351 218.84138,350.8062 C 231.49159,349.44005 238.12527,350.81771 250.73271,350.78125 C 257.91016,350.74128 264.32987,348.76801 263.5353,339.32384 C 262.99902,332.94959 256.61823,329.58467 248.6889,327.91237 L 249.3125,261.2486 L 265.125,261.28125 C 267.387,268.44763 275.81407,277.37818 281.375,275.90625 C 289.6398,274.9801 290.1777,264.99393 289.02837,258.61161 C 287.60002,250.67981 286.0122,235.82132 279.84375,235.59375 C 261.09571,234.36517 242.13655,235.47211 223.3125,235.09375 C 212.81315,235.11522 202.30893,235.05122 191.8125,235.125 z" style="font-size:144px;font-style:normal;font-weight:normal;line-height:125%;letter-spacing:0px;word-spacing:0px;fill:#faf6e6;fill-opacity:1;stroke:#119719;stroke-width:1;stroke-miterlimit:4;stroke-opacity:1;stroke-dasharray:none;stroke-dashoffset:0;font-family:Goudy Bookletter 1911;-inkscape-font-specification:'Goudy Bookletter 1911,'" />
    <path id="path4403" style="font-size:144px;font-style:normal;font-weight:normal;line-height:125%;letter-spacing:0px;word-spacing:0px;fill:none;stroke:#119719;stroke-width:1;stroke-miterlimit:4;stroke-opacity:1;stroke-dasharray:4, 1;stroke-dashoffset:0;font-family:Goudy Bookletter 1911;-inkscape-font-specification:'Goudy Bookletter 1911,'" d="M 254.57319,343.04491 C 256.44519,343.04491 257.02119,341.60491 257.02119,340.16491 C 257.02119,337.28491 256.73319,336.42091 254.42919,336.13291 C 243.19721,335.12491 241.32519,335.7009 241.32519,331.95691 L 241.32519,256.50091 C 241.32519,254.62891 241.4692,252.61291 244.49319,252.61291 L 265.66119,252.61291 C 270.12519,252.61291 269.8372,253.47692 276.60519,265.28491 C 277.18119,266.29291 278.0452,268.02091 279.91719,268.02091 C 281.50119,268.02091 282.65319,266.58091 282.65319,264.85291 C 282.65319,263.98891 282.07719,261.10889 279.19719,246.42091 C 278.9092,244.54891 278.62119,243.10891 276.31719,243.10891 L 192.36519,243.10891 C 191.2132,243.10891 189.77319,243.25291 189.34119,245.26891 C 185.3092,263.84489 185.16519,264.27691 185.16519,265.14091 L 185.16519,265.28491 C 185.16519,267.30091 186.4612,268.88491 188.33319,268.88491 C 191.06919,268.88491 191.2132,267.1569 197.11719,255.49291 C 198.12519,253.47691 198.7012,252.61291 202.58919,252.61291 L 224.04519,252.61291 C 227.78919,252.61291 227.93319,255.06091 227.93319,257.07691 L 227.93319,330.08491 C 227.93319,332.96491 227.35719,334.98091 223.03719,335.41291 C 214.1092,336.27691 212.52519,335.70091 212.52519,339.30091 C 212.52519,341.31691 213.1012,343.04491 215.40519,343.04491 C 215.98119,343.04491 224.62121,342.18091 234.98919,342.18091 C 245.50118,342.18091 253.8532,343.04491 254.57319,343.04491" inkscape:connector-curvature="0" />
  </g>
  <g id="g4895" transform="translate(-141.99392,-212.73175)">
    <path inkscape:connector-curvature="0" id="path4409-2" d="M 618.41106,234.40625 C 605.31877,235.10878 592.29159,235.60317 579.22356,236.28125 C 567.77588,238.90989 567.99195,258.14346 579.72705,258.71875 C 584.35381,259.15636 582.92576,264.25128 583.25481,271.75 C 584.07267,290.38831 583.25481,309.0625 583.25481,327.71875 C 576.19075,327.11244 569.25597,332.84466 570.31731,340.1875 C 570.12423,347.98539 578.43565,352.75501 585.50481,350.75 C 598.13604,349.43356 610.97507,350.85994 623.56731,350.78125 C 635.21884,348.62607 634.2612,328.81788 622.28606,328.125 C 618.79505,327.57818 615.2001,327.68102 611.66106,327.53125 C 611.66106,320.63542 611.66106,313.73958 611.66106,306.84375 C 629.11363,306.8381 649.69902,303.49693 659.75481,287.40625 C 670.4625,271.70477 663.63618,248.2867 646.75481,240.03125 C 638.14473,235.34139 628.08622,234.19295 618.41106,234.40625 z M 612.59856,256.875 C 621.34756,256.95342 633.7465,258.75507 636.62981,268.46875 C 638.37113,277.81325 628.11415,283.42716 620.31731,284.6875 C 617.2351,284.79544 610.65588,287.98499 611.94231,282.71875 C 611.94231,274.10417 611.94231,265.48958 611.94231,256.875 z" style="font-size:144px;font-style:normal;font-weight:normal;line-height:125%;letter-spacing:0px;word-spacing:0px;fill:#faf6e6;fill-opacity:1;stroke:#119719;stroke-width:1;stroke-miterlimit:4;stroke-opacity:1;stroke-dasharray:none;stroke-dashoffset:0;font-family:Goudy Bookletter 1911;-inkscape-font-specification:'Goudy Bookletter 1911,'" sodipodi:nodetypes="cccscccccccccccccccc" />
    <path inkscape:connector-curvature="0" id="path4409" style="font-size:144px;font-style:normal;font-weight:normal;line-height:125%;letter-spacing:0px;word-spacing:0px;fill:none;stroke:#119719;stroke-width:1;stroke-miterlimit:4;stroke-opacity:1;stroke-dasharray:4, 1;stroke-dashoffset:0;font-family:Goudy Bookletter 1911;-inkscape-font-specification:'Goudy Bookletter 1911,'" d="M 644.82975,270.46891 C 644.82975,284.43689 630.42973,293.79691 609.26175,293.79691 C 604.36576,293.79691 603.93375,293.65291 603.93375,292.06891 L 603.93375,251.02891 C 603.93375,249.30091 604.79776,248.86891 612.71775,248.86891 C 633.16573,248.86891 644.82975,258.51692 644.82975,270.46891 M 586.22175,243.82891 L 582.62175,243.82891 C 580.46176,243.82891 579.45375,244.83691 579.45375,246.99691 C 579.45375,250.5969 581.46976,250.74091 582.90975,250.74091 L 588.09375,250.74091 C 591.11775,250.74091 591.26175,252.75691 591.26175,254.48491 L 591.26175,331.52491 C 591.26175,333.82891 590.54175,334.98091 587.22975,335.41291 C 579.74176,336.13291 578.30175,335.55691 578.30175,339.58891 C 578.30175,341.17291 578.87776,343.04491 581.18175,343.04491 C 581.90175,343.04491 590.39777,342.18091 601.19775,342.18091 C 611.70974,342.18091 620.34976,343.04491 621.06975,343.04491 C 623.37375,343.04491 623.80575,341.31691 623.80575,339.58891 L 623.80575,339.44491 C 623.80575,335.12491 621.93374,335.98891 608.25375,335.41291 C 604.50976,335.12491 603.64575,333.54091 603.64575,330.37291 L 603.64575,301.14091 C 603.64575,299.70091 604.07776,298.83691 605.51775,298.83691 L 609.83775,298.83691 C 627.69374,298.83691 636.76576,295.95691 642.23775,292.93291 C 650.15775,288.75691 656.78175,280.6929 656.92575,269.89291 L 656.92575,269.74891 C 656.92575,262.69292 653.75775,255.7809 648.57375,251.02891 C 641.66176,244.83691 632.44574,242.38891 620.49375,242.38891 C 610.12577,242.38891 599.90174,243.82891 586.22175,243.82891" />
    <g transform="matrix(0,-1,1,0,373.96236,859.8386)" id="g4888">
      <path style="fill:black;fill-opacity:1;stroke:#178f19;stroke-width:1px;stroke-linecap:butt;stroke-linejoin:miter;stroke-opacity:1" d="M 587.33928,217.53569 L 589.23699,213.50154 L 591.27271,217.46956 L 589.30599,221.23915 z" id="path4652-0-98-30" inkscape:connector-curvature="0" sodipodi:nodetypes="ccccc" />
    </g>
  </g>
  <g id="g4910" transform="translate(-141.99392,-212.73175)">
    <path inkscape:connector-curvature="0" id="path4405-2" d="M 304.20091,236.3764 C 292.90961,236.03304 290.34936,254.47429 301.16966,257.47015 C 305.37377,257.79923 309.66995,258.60594 311.76341,262.8139 C 313.59692,267.84206 311.45645,274.16696 311.87157,279.62524 C 311.08917,295.40447 310.25665,311.08873 308.85716,326.8139 C 301.72691,326.54587 293.35605,330.78807 293.63841,338.8764 C 292.88908,346.66191 300.95213,352.18696 308.13841,350.1264 C 319.01225,348.83694 330.07073,350.17257 340.91966,350.22015 C 352.08683,348.22306 351.99972,330.26884 341.07591,327.90765 C 338.69794,326.6662 333.90485,328.52899 335.38841,324.09515 C 335.33426,315.83578 334.50432,304.64042 335.29466,298.0639 C 345.03515,313.9185 353.06509,330.76834 362.01341,347.0014 C 367.25829,354.64837 379.52433,352.16928 382.70091,344.0014 C 391.17393,328.90451 399.01568,313.44786 407.54466,298.3139 C 407.54466,307.95973 407.54466,317.60557 407.54466,327.2514 C 400.27278,326.78564 391.45186,331.09182 392.13841,339.4389 C 391.98951,347.00436 399.8818,352.15731 406.91966,350.1264 C 418.58058,348.84854 430.39043,350.13745 442.04466,350.2514 C 453.20184,348.29264 453.42184,330.2046 442.32591,328.0639 C 439.67039,326.95064 434.62647,328.76456 436.34162,323.97019 C 436.25644,302.62833 435.61835,280.92835 435.85716,259.8139 C 442.58659,259.23554 450.81398,255.49878 450.32591,247.53265 C 451.01851,240.39892 448.83288,234.9596 435.92245,234.78614 C 428.84172,234.691 415.39427,232.78138 411.13425,240.01666 C 401.18789,256.90972 396.21827,267.86608 387.95915,282.36204 C 383.66474,290.4085 379.37032,298.45495 375.07591,306.5014 C 360.7197,284.5865 348.29838,261.37649 333.98216,239.5014 C 327.01748,233.47751 316.83411,237.54699 308.54466,236.34515 C 307.09845,236.37701 305.64385,236.28871 304.20091,236.3764 z" style="font-size:144px;font-style:normal;font-weight:normal;line-height:125%;letter-spacing:0px;word-spacing:0px;fill:#faf6e6;fill-opacity:1;stroke:#119719;stroke-width:1;stroke-miterlimit:4;stroke-opacity:1;stroke-dasharray:none;stroke-dashoffset:0;font-family:Goudy Bookletter 1911;-inkscape-font-specification:'Goudy Bookletter 1911,'" sodipodi:nodetypes="ccccccccccccccccccccccssccccc" />
    <path inkscape:connector-curvature="0" id="path4405" style="font-size:144px;font-style:normal;font-weight:normal;line-height:125%;letter-spacing:0px;word-spacing:0px;fill:none;stroke:#119719;stroke-width:1;stroke-miterlimit:4;stroke-opacity:1;stroke-dasharray:4, 1;stroke-dashoffset:0;font-family:Goudy Bookletter 1911;-inkscape-font-specification:'Goudy Bookletter 1911,'" d="M 402.86835,342.42131 C 403.44435,342.42131 411.36436,341.55731 421.15635,341.55731 C 431.09234,341.55731 439.01236,342.42131 439.73235,342.42131 C 441.46035,342.42131 442.61235,341.12531 442.61235,339.25331 C 442.61235,335.07731 439.73235,335.65331 433.39635,335.07731 C 428.50036,334.50131 428.35635,331.6213 428.35635,328.02131 L 428.35635,327.01331 C 428.35635,319.95732 428.21235,312.90125 427.63635,257.02931 C 427.63635,254.43731 428.78836,253.42931 431.09235,252.85331 C 438.86835,250.40531 442.32435,251.4133 442.32435,247.52531 C 442.32435,244.50131 441.17235,244.35731 440.16435,244.35731 L 419.28435,244.35731 C 417.98836,244.35731 417.26835,244.64531 416.69235,245.65331 C 416.54835,245.65331 416.69232,245.65338 377.66835,318.66131 C 377.23636,319.66931 376.66035,320.24531 375.65235,320.24531 C 374.35636,320.24531 373.49235,319.09331 373.20435,318.51731 L 356.35635,291.73331 L 329.14035,246.22931 C 328.27636,244.78931 327.55635,244.35731 325.54035,244.35731 L 304.80435,244.35731 C 303.79636,244.35731 302.21235,244.50131 302.21235,247.52531 C 302.21235,249.97331 304.08436,249.97331 305.09235,250.11731 C 313.44435,250.26131 316.75636,256.59731 318.91635,258.90131 C 319.63635,259.76531 320.50035,260.62931 320.50035,262.50131 C 320.50035,268.9813 319.06035,301.23733 316.90035,326.86931 C 316.46836,330.9013 317.04435,333.92531 312.29235,334.50131 C 305.09236,335.36531 301.63635,334.93331 301.63635,339.25331 C 301.63635,341.84531 303.22036,342.42131 304.22835,342.42131 C 304.80435,342.42131 312.29236,341.55731 321.50835,341.55731 C 330.72435,341.55731 338.21236,342.42131 338.78835,342.42131 C 340.80435,342.42131 341.38035,340.40531 341.38035,339.10931 C 341.38035,332.19732 329.28435,337.3813 327.84435,332.62931 C 327.41236,331.18931 326.98035,309.4453 326.98035,303.39731 C 326.98035,293.31732 327.26836,283.5253 327.84435,273.44531 C 327.84435,273.15731 327.98836,272.72531 328.42035,272.72531 C 328.56435,272.72531 328.70835,272.72531 328.85235,272.86931 C 330.00435,273.58931 350.74037,306.56534 366.29235,338.53331 C 367.30035,340.54931 368.59636,343.71731 371.33235,343.71731 C 371.90835,343.71731 373.20436,343.57331 374.50035,341.98931 C 377.09235,338.82131 399.26837,295.04529 412.08435,274.59731 C 412.51635,273.87731 413.09236,272.86931 414.10035,272.86931 C 414.53235,272.86931 414.96435,273.01331 415.10835,273.73331 C 415.25235,274.16531 415.54035,286.83732 415.54035,296.77331 L 415.54035,327.44531 C 415.54035,328.30931 415.54035,329.31731 415.39635,330.18131 C 413.81236,338.6773 400.13235,332.48531 400.13235,338.96531 C 400.13235,340.26131 400.70836,342.42131 402.86835,342.42131" />
    <g transform="matrix(0.48939938,0.87205977,-0.87205977,0.48939938,395.57423,-40.049361)" id="g4831">
      <path style="fill:black;fill-opacity:1;stroke:#178f19;stroke-width:1px;stroke-linecap:butt;stroke-linejoin:miter;stroke-opacity:1" d="M 265.2477,195.70954 L 267.14541,191.67539 L 269.18113,195.64341 L 267.21441,199.413 z" id="path4652-0-98-55" inkscape:connector-curvature="0" sodipodi:nodetypes="ccccc" />
      <path style="fill:black;fill-opacity:1;stroke:#178f19;stroke-width:1px;stroke-linecap:butt;stroke-linejoin:miter;stroke-opacity:1" d="M 260.25886,196.02135 L 262.15657,191.9872 L 264.19229,195.95522 L 262.22557,199.72481 z" id="path4652-0-98-50" inkscape:connector-curvature="0" sodipodi:nodetypes="ccccc" />
    </g>
  </g>
  <g id="g4903" transform="translate(-141.99392,-212.73175)">
    <path sodipodi:nodetypes="ccccccccccsccccsccc" inkscape:connector-curvature="0" id="path4403-6-9" d="M 466.04804,235.47144 C 457.88847,235.17504 456.32584,243.42993 454.28389,250.78132 C 452.91015,258.4962 448.11302,268.68979 455.64179,274.84644 C 469.46895,281.80521 471.62776,268.184 477.96658,261.37953 L 493.6553,261.1535 L 494.17304,269.97144 C 494.17304,289.31519 494.17304,308.65894 494.17304,328.00269 C 487.27171,329.40457 478.47805,333.38132 478.76679,339.03394 C 477.77339,346.85293 485.53449,353.25995 493.07692,351.15264 C 505.72713,349.78649 512.36081,351.16415 524.96825,351.12769 C 532.1457,351.08772 538.56541,349.11445 537.77084,339.67028 C 537.23456,333.29603 530.85377,329.93111 522.92444,328.25881 L 523.54804,261.59504 L 539.36054,261.62769 C 541.62254,268.79407 550.04961,277.72462 555.61054,276.25269 C 563.87534,275.32654 564.41324,265.34037 563.26391,258.95805 C 561.83556,251.02625 560.24774,236.16776 554.07929,235.94019 C 535.33125,234.71161 516.37209,235.81855 497.54804,235.44019 C 487.04869,235.46166 476.54447,235.39766 466.04804,235.47144 z" style="font-size:144px;font-style:normal;font-weight:normal;line-height:125%;letter-spacing:0px;word-spacing:0px;fill:#faf6e6;fill-opacity:1;stroke:#119719;stroke-width:1;stroke-miterlimit:4;stroke-opacity:1;stroke-dasharray:none;stroke-dashoffset:0;font-family:Goudy Bookletter 1911;-inkscape-font-specification:'Goudy Bookletter 1911,'" />
    <path inkscape:connector-curvature="0" id="path4407" style="font-size:144px;font-style:normal;font-weight:normal;line-height:125%;letter-spacing:0px;word-spacing:0px;fill:none;stroke:#119719;stroke-width:1;stroke-miterlimit:4;stroke-opacity:1;stroke-dasharray:4, 1;stroke-dashoffset:0;font-family:Goudy Bookletter 1911;-inkscape-font-specification:'Goudy Bookletter 1911,'" d="M 528.69656,343.04491 C 530.56856,343.04491 531.14456,341.60491 531.14456,340.16491 C 531.14456,337.28491 530.85656,336.42091 528.55256,336.13291 C 517.32058,335.12491 515.44856,335.7009 515.44856,331.95691 L 515.44856,256.50091 C 515.44856,254.62891 515.59257,252.61291 518.61656,252.61291 L 539.78456,252.61291 C 544.24856,252.61291 543.96057,253.47692 550.72856,265.28491 C 551.30456,266.29291 552.16857,268.02091 554.04056,268.02091 C 555.62456,268.02091 556.77656,266.58091 556.77656,264.85291 C 555.49749,258.52334 553.977,243.29881 550.44056,243.10891 L 466.48856,243.10891 C 465.33657,243.10891 463.89656,243.25291 463.46456,245.26891 C 459.43257,263.84489 459.28856,264.27691 459.28856,265.14091 L 459.28856,265.28491 C 459.28856,267.30091 460.58457,268.88491 462.45656,268.88491 C 465.19256,268.88491 465.33657,267.1569 471.24056,255.49291 C 472.24856,253.47691 472.82457,252.61291 476.71256,252.61291 L 498.16856,252.61291 C 501.91256,252.61291 502.05656,255.06091 502.05656,257.07691 L 502.05656,330.08491 C 502.05656,332.96491 501.48056,334.98091 497.16056,335.41291 C 488.23257,336.27691 486.64856,335.70091 486.64856,339.30091 C 486.64856,341.31691 487.22457,343.04491 489.52856,343.04491 C 490.10456,343.04491 498.74458,342.18091 509.11256,342.18091 C 519.62455,342.18091 527.97657,343.04491 528.69656,343.04491" sodipodi:nodetypes="cscsssscsccscssscsssscsssc" />
  </g>
  <text xml:space="preserve" style="font-size:40px;font-style:normal;font-weight:normal;line-height:125%;letter-spacing:0px;word-spacing:0px;fill:black;fill-opacity:1;stroke:none;font-family:Sans" x="496.22662" y="136.27969" id="text3006" sodipodi:linespacing="125%"><tspan sodipodi:role="line" id="tspan3008" x="496.22662" y="136.27969" /><tspan sodipodi:role="line" id="tspan3010" x="496.22662" y="186.27969" /></text>
  <g id="g3111" transform="translate(8.437186,11.150397)" />
  <text xml:space="preserve" style="font-size:40px;font-style:normal;font-weight:normal;line-height:125%;letter-spacing:0px;word-spacing:0px;fill:black;fill-opacity:1;stroke:none;font-family:Goudy Bookletter 1911;-inkscape-font-specification:Goudy Bookletter 1911" x="71.052765" y="183.93718" id="text3895" sodipodi:linespacing="125%"><tspan sodipodi:role="line" id="tspan3897" x="71.052765" y="183.93718">Pattern Drafting Software</tspan></text>
</svg>
