<?xml version="1.0" encoding="UTF-8" standalone="no"?>
<svg xmlns:dc="http://purl.org/dc/elements/1.1/" xmlns:cc="http://creativecommons.org/ns#" xmlns:rdf="http://www.w3.org/1999/02/22-rdf-syntax-ns#" xmlns:svg="http://www.w3.org/2000/svg" xmlns="http://www.w3.org/2000/svg" xmlns:sodipodi="http://sodipodi.sourceforge.net/DTD/sodipodi-0.dtd" xmlns:inkscape="http://www.inkscape.org/namespaces/inkscape" patternNumber="MR_B1" fitBoxtoViewport="True" companyName="Epic Patterns" currentscale="0.5:1" margin-right="88.5826771654" client-name="DressFormLg" designerName="S.L.Spencer" height="4961.17483933" width="2580.72013548" margin-top="88.5826771654" version="1.1" margin-bottom="88.5826771654" margin-left="88.5826771654" preserveAspectRatio="xMidYMid meet" id="svg2" inkscape:version="0.48.4 r9939" sodipodi:docname="Susan-spencer_bodice_short-2014-11-04-1658.svg">
  <metadata id="metadata281">
    <rdf:RDF>
      <cc:Work rdf:about="">
        <dc:format>image/svg+xml</dc:format>
        <dc:type rdf:resource="http://purl.org/dc/dcmitype/StillImage" />
      </cc:Work>
    </rdf:RDF>
  </metadata>
  <sodipodi:namedview id="base" pagecolor="#ffffff" bordercolor="#666666" borderopacity="1.0" inkscape:pageopacity="0.0" inkscape:pageshadow="2" inkscape:zoom="0.70587149" inkscape:document-units="pt" showgrid="false" inkscape:window-maximized="1" inkscape:cx="687.47751" inkscape:cy="3444.2535" inkscape:window-width="1855" inkscape:window-height="1056" inkscape:window-x="65" inkscape:window-y="24" inkscape:current-layer="reference" />
  <defs id="defs5">
    <marker style="overflow:visible" id="Arrow1Mstart" refX="0.0" refY="0.0" orient="auto" inkscape:stockid="Arrow1Mstart">
      <path transform="scale(0.4) translate(10,0)" style="fill-rule:evenodd;stroke:#000000;stroke-width:1.0pt;marker-start:none" d="M 0.0,0.0 L 5.0,-5.0 L -12.5,0.0 L 5.0,5.0 L 0.0,0.0 z " id="path8" />
    </marker>
    <marker style="overflow:visible;" id="Arrow1Mend" refX="0.0" refY="0.0" orient="auto" inkscape:stockid="Arrow1Mend">
      <path transform="scale(0.4) rotate(180) translate(10,0)" style="fill-rule:evenodd;stroke:#000000;stroke-width:1.0pt;marker-start:none;" d="M 0.0,0.0 L 5.0,-5.0 L -12.5,0.0 L 5.0,5.0 L 0.0,0.0 z " id="path11" />
    </marker>
  </defs>
  <g inkscape:label="Label-pattern" id="pattern" inkscape:groupmode="layer" transform="translate(88.582677,88.582677)">
    <g id="document.bodice.Bodice Front.pattern" transform=" translate(58.750000, 757.717638)">
      <g id="A.letter" transform="matrix(10.000000, 0, 0, 10.000000, -3228.838583, -1030.039370)">
        <text style="font-size:24; vertical-align:top; fill-opacity:1.0; fill:#000000; text-anchor:start; stroke:none; font-weight:normal; font-style:normal; text-align:right; " transform="" id="A.letter.letterline" y="114.448818898" x="358.75984252">
A</text>
      </g>
      <line style="stroke-linejoin:miter; stroke:green; stroke-width:4; stroke-miterlimit:4; fill:none; " y2="1089.56692913" marker-end="url(#Arrow1Mend)" marker-start="url(#Arrow1Mstart)" transform="" x2="133.455818164" y1="159.448818898" x1="133.455818164" id="A.grainline" />
      <path style="stroke-linejoin:miter; stroke-dashoffset:0; stroke:green; stroke-miterlimit:4; stroke-dasharray:6,6; stroke-width:3; fill:none; " transform="" d="M 257.751753648  1321.74495644 L 354.330708661  710.078740157 L 450.909663675  1321.74495644 M 1160.89533254  637.795275591 L 443.747905788  637.795275591 L 1126.03085812  858.680776811 " id="A.dartline" />
      <path style="stroke-linejoin:miter; stroke-dashoffset:0; stroke:green; stroke-dasharray:24,6; stroke-miterlimit:4; stroke-width:4; fill:none; " transform="" d="M 0.0  0.0 L 0.0  1240.15748031 L 266.524655386  1266.18329074 L 354.330708661  1285.43743703 L 442.136761937  1266.18329074 C 647.315463535  1233.78662722  859.624375018  1200.34462532  1067.16189061  1191.62550743 L 1072.5154795  841.355455712 L 1075.51646246  737.513358306 L 1104.64533254  637.795275591 L 1033.68915656  394.888022168 C 893.572200606  440.498153899  738.545618172  421.42614887  673.228346457  318.897637795 C 576.766193088  167.481010918  700.589615123  -143.504287858  717.519685039  -223.334513127 L 266.911636328  -318.897637795 C 233.832093174  -162.917928626  160.146981797  0.0  0.0  0.0 " id="A.seamline" />
      <path style="fill:none;stroke:#008000;stroke-width:4;stroke-linejoin:miter;stroke-miterlimit:4" d="M 211.90625,-330.65625 C 197.45138,-264.20535 177.34444,-197.87692 139.96875,-140.40625 116.15169,-104.08797 82.171731,-71.60028 38.90625,-60.9375 9.6980416,-53.498727 -20.657228,-57.036286 -50.466985,-55.829847 -59.45958,-58.486119 -55.389515,-48.189039 -56.25,-42.78125 -56.25,401.875 -56.25,846.53125 -56.25,1291.1875 48.729935,1301.4735 153.7502,1311.5379 258.69559,1322.0577 290.57738,1329.0531 322.46898,1336.0039 354.34375,1343.0312 390.02931,1335.5183 425.47502,1326.7271 461.32712,1320.0948 669.72565,1287.2276 878.67277,1254.6496 1089.6674,1246.9156 1100.6428,1246.4229 1111.6183,1245.9302 1122.5938,1245.4375 1124.8797,1105.6914 1126.5692,965.93229 1129.2144,826.19424 1130.1643,799.29157 1130.4427,772.28286 1131.8117,745.44638 1142.2885,709.55722 1152.7981,673.67766 1163.25,637.78125 1132.675,533.02274 1102.0625,428.27515 1071.4375,323.53125 1028.7736,337.11491 986.4689,353.12384 941.79102,358.51447 886.05465,365.74414 826.78676,362.9867 775.75,337.40625 743.96283,321.73608 718.17742,293.87286 706.875,260.125 689.94226,211.12386 691.43565,158.24857 696.34375,107.375 706.968,9.1880899 736.4176,-85.368133 764.34375,-179.71875 772.60111,-208.29903 778.11185,-237.58398 784.9375,-266.53125 597.84169,-306.25813 410.72586,-345.89065 223.625,-385.59375 219.71875,-367.28125 215.8125,-348.96875 211.90625,-330.65625 z" id="A.cuttingline" inkscape:connector-curvature="0" />
      <g id="A.info" transform="">
        <text style="font-size:12; vertical-align:top; fill-opacity:1.0; fill:#000000; text-anchor:start; stroke:none; font-weight:normal; font-style:normal; text-align:right; " transform="" id="A.info.lineEpic Patterns" y="159.448818898" x="358.75984252">
Epic Patterns</text>
        <text style="font-size:12; vertical-align:top; fill-opacity:1.0; fill:#000000; text-anchor:start; stroke:none; font-weight:normal; font-style:normal; text-align:right; " transform="" id="A.info.lineDesigner:S.L.Spencer" y="173.848818898" x="358.75984252">
Designer:S.L.Spencer</text>
        <text style="font-size:12; vertical-align:top; fill-opacity:1.0; fill:#000000; text-anchor:start; stroke:none; font-weight:normal; font-style:normal; text-align:right; " transform="" id="A.info.lineClient:DressFormLg" y="188.248818898" x="358.75984252">
Client:DressFormLg</text>
        <text style="font-size:12; vertical-align:top; fill-opacity:1.0; fill:#000000; text-anchor:start; stroke:none; font-weight:normal; font-style:normal; text-align:right; " transform="" id="A.info.lineMR_B1" y="202.648818898" x="358.75984252">
MR_B1</text>
        <text style="font-size:12; vertical-align:top; fill-opacity:1.0; fill:#000000; text-anchor:start; stroke:none; font-weight:normal; font-style:normal; text-align:right; " transform="" id="A.info.linePattern Piece A" y="217.048818898" x="358.75984252">
Pattern Piece A</text>
        <text style="font-size:12; vertical-align:top; fill-opacity:1.0; fill:#000000; text-anchor:start; stroke:none; font-weight:normal; font-style:normal; text-align:right; " transform="" id="A.info.lineCut 2 Fabric" y="231.448818898" x="358.75984252">
Cut 2 Fabric</text>
      </g>
    </g>
    <g id="document.bodice.Bodice Back.pattern" transform=" translate(2347.304781, 580.552283)">
      <g id="B.letter" transform="matrix(10.000000, 0, 0, 10.000000, 3188.976378, -2465.078740)">
        <text style="font-size:24; vertical-align:top; fill-opacity:1.0; fill:#000000; text-anchor:start; stroke:none; font-weight:normal; font-style:normal; text-align:right; " transform="" id="B.letter.letterline" y="273.897637795" x="-354.330708661">
B</text>
      </g>
      <line style="stroke-linejoin:miter; stroke:green; stroke-width:4; stroke-miterlimit:4; fill:none; " y2="1222.44094488" marker-end="url(#Arrow1Mend)" marker-start="url(#Arrow1Mstart)" transform="" x2="-142.235487856" y1="212.598425197" x1="-142.235487856" id="B.grainline" />
      <path style="stroke-linejoin:miter; stroke-dashoffset:0; stroke:green; stroke-miterlimit:4; stroke-dasharray:6,6; stroke-width:3; fill:none; " transform="" d="M -467.967419542  1415.27473374 L -383.761673202  637.795275591 L -299.555926862  1415.27473374 M -559.69322976  -100.832894361 L -415.314857008  139.993979033 L -524.771526596  -118.582769632 " id="B.dartline" />
      <path style="stroke-linejoin:miter; stroke-dashoffset:0; stroke:green; stroke-dasharray:24,6; stroke-miterlimit:4; stroke-width:4; fill:none; " transform="" d="M 0.0  0.0 L 0.0  1346.45669291 L -305.61272326  1359.3517714 L -383.761673202  1373.05653292 L -461.910623144  1359.3517714 C -596.175389335  1353.30133441  -361.667637468  1363.86906872  -868.773550997  1341.01711386 L -943.264064146  743.278551331 C -796.026850542  724.929767626  -668.727833657  685.629663886  -646.511811024  637.795275591 C -562.668021212  457.267173678  -673.392103074  121.148427062  -708.661417323  37.8293872947 L -530.770190158  -52.5885135469 L -516.807237133  -59.6855521256 L -502.844284109  -66.7825907043 L -284.470975712  -141.732283465 C -252.688753608  -78.3927191927  -213.353231784  0.0  0.0  0.0 " id="B.seamline" />
      <path style="fill:none;stroke:#008000;stroke-width:4;stroke-linejoin:miter;stroke-miterlimit:4" d="M -302.71875,-194.9375 C -377.02831,-169.33548 -451.48786,-144.08984 -525.70372,-118.26518 -610.68316,-75.115796 -695.63896,-31.896833 -780.59375,11.3125 -762.92195,53.089899 -745.41509,95.128026 -732.1218,138.44623 -703.17342,230.09113 -681.21981,324.47243 -673.91795,420.43035 -670.07749,480.27842 -670.84409,542.0014 -691.28125,599.09375 -694.25146,605.89137 -695.52186,614.07949 -702.4375,618.0625 -729.05555,637.1011 -760.97895,646.95275 -791.88889,656.43451 -860.78309,676.53057 -931.89445,685.52267 -1002.9184,694.16973 -1009.5131,694.46119 -1003.1274,704.8277 -1004.1456,709.44744 -975.66792,937.99595 -947.20963,1166.5469 -918.71875,1395.0938 -768.19635,1401.9359 -617.63834,1408.4767 -467.14003,1415.5478 -439.01567,1420.2553 -410.88531,1425.8623 -382.76528,1430.0134 -353.98006,1425.1989 -325.29938,1419.3917 -296.44016,1415.2487 -178.87664,1410.3044 -61.314884,1405.318 56.25,1400.4062 56.25,914.85417 56.25,429.30208 56.25,-56.25 -8.2028894,-56.354282 -74.213712,-53.53629 -136.34375,-73.46875 -166.34681,-82.915222 -194.66624,-100.53616 -212.09375,-127.3125 -229.28847,-153.74651 -241.59842,-182.99175 -256.28125,-210.875 -271.76042,-205.5625 -287.23958,-200.25 -302.71875,-194.9375 z" id="B.cuttingline" inkscape:connector-curvature="0" />
      <g id="B.info" transform="">
        <text style="font-size:12; vertical-align:top; fill-opacity:1.0; fill:#000000; text-anchor:start; stroke:none; font-weight:normal; font-style:normal; text-align:right; " transform="" id="B.info.lineEpic Patterns" y="318.897637795" x="-354.330708661">
Epic Patterns</text>
        <text style="font-size:12; vertical-align:top; fill-opacity:1.0; fill:#000000; text-anchor:start; stroke:none; font-weight:normal; font-style:normal; text-align:right; " transform="" id="B.info.lineDesigner:S.L.Spencer" y="333.297637795" x="-354.330708661">
Designer:S.L.Spencer</text>
        <text style="font-size:12; vertical-align:top; fill-opacity:1.0; fill:#000000; text-anchor:start; stroke:none; font-weight:normal; font-style:normal; text-align:right; " transform="" id="B.info.lineClient:DressFormLg" y="347.697637795" x="-354.330708661">
Client:DressFormLg</text>
        <text style="font-size:12; vertical-align:top; fill-opacity:1.0; fill:#000000; text-anchor:start; stroke:none; font-weight:normal; font-style:normal; text-align:right; " transform="" id="B.info.lineMR_B1" y="362.097637795" x="-354.330708661">
MR_B1</text>
        <text style="font-size:12; vertical-align:top; fill-opacity:1.0; fill:#000000; text-anchor:start; stroke:none; font-weight:normal; font-style:normal; text-align:right; " transform="" id="B.info.linePattern Piece B" y="376.497637795" x="-354.330708661">
Pattern Piece B</text>
        <text style="font-size:12; vertical-align:top; fill-opacity:1.0; fill:#000000; text-anchor:start; stroke:none; font-weight:normal; font-style:normal; text-align:right; " transform="" id="B.info.lineCut 2 Fabric" y="390.897637795" x="-354.330708661">
Cut 2 Fabric</text>
      </g>
    </g>
    <g id="document.bodice.Bodice Sleeve.pattern" transform=" translate(930.755317, 2256.100604)">
      <line style="stroke-linejoin:miter; stroke:green; stroke-width:4; stroke-miterlimit:4; fill:none; " y2="2090.5511811" marker-end="url(#Arrow1Mend)" marker-start="url(#Arrow1Mstart)" transform="" x2="0.0" y1="630.647901721" x1="0.0" id="C.grainline" />
      <g id="C.letter" transform="matrix(15.000000, 0, 0, 15.000000, -3806.433950, -14930.858086)">
        <text style="font-size:24; vertical-align:top; fill-opacity:1.0; fill:#000000; text-anchor:start; stroke:none; font-weight:normal; font-style:normal; text-align:right; " transform="" id="C.letter.letterline" y="1066.4898633" x="271.888139269">
C</text>
      </g>
      <path style="stroke-linejoin:miter; stroke-dashoffset:0; stroke:green; stroke-miterlimit:4; stroke-dasharray:6,6; stroke-width:3; fill:none; " transform="" d="M 739.828354319  1534.82644991 L 483.661417323  1502.33182488 L 720.948149101  1604.1768404 " id="C.dartline" />
      <path style="stroke-linejoin:miter; stroke-dashoffset:0; stroke:green; stroke-dasharray:24,6; stroke-miterlimit:4; stroke-width:4; fill:none; " transform="" d="M 928.255317149  630.647901721 C 848.769590893  581.376439105  768.864032429  531.844731688  696.191487861  472.985926291 C 549.691799136  354.333184452  427.826345632  204.987224306  271.888139269  99.0442786273 C 192.103947545  44.8396517624  96.3048709905  -5.38800948054  0.0  0.0 C -94.1139373708  5.26543238768  -176.303945758  72.149029563  -251.975984278  128.353127029 C -403.320061317  240.76132196  -524.935255831  389.886579761  -676.27933287  502.294774692 C -751.95137139  558.498872158  -841.016509864  594.947082555  -928.255317149  630.647901721 C -761.118583384  898.890181802  -579.743149235  1189.98453857  -531.496062992  1502.33182488 L -393.182568476  2397.76091784 C -142.801736541  2359.08555192  123.691119611  2389.2594597  363.267162443  2471.658881 L 669.258134807  1581.99114857 L 684.418828064  1556.98676029 L 684.025518081  1527.74789301 L 928.255317149  630.647901721 " id="C.seamline" />
      <path style="fill:none;stroke:#008000;stroke-width:4;stroke-linejoin:miter;stroke-miterlimit:4" d="M 10.5,-56.625 C -54.717252,-56.443244 -117.02284,-31.040421 -171.8302,2.7951241 -219.27468,32.128206 -263.26923,66.618685 -307.75,100.125 -441.90211,204.14019 -553.17599,334.4074 -686.40625,439.25 -733.77663,477.75417 -787.40822,507.9612 -842.92081,533.16125 -898.13446,558.44124 -954.99799,580.54436 -1011.1562,603.875 -891.21725,797.39432 -766.4023,989.85 -678.14099,1200.366 -633.82424,1306.2729 -599.77096,1417.0096 -584.00948,1530.8594 -536.09188,1841.1149 -488.1554,2151.3676 -440.25,2461.625 -379.20736,2452.2692 -318.08471,2442.9487 -256.34832,2439.8033 -55.606478,2428.3058 146.60853,2458.017 336.9037,2522.1194 357.35206,2529.0495 377.80128,2535.9771 398.25,2542.9062 505.6597,2230.6054 613.06196,1918.3019 720.46875,1606 727.0717,1594.4092 735.11887,1583.2123 740.8321,1571.3751 741.2275,1558.2975 739.42307,1544.9455 741.16304,1532.0428 825.28073,1223.0168 909.44008,914.00204 993.53125,604.96875 891.09436,541.22194 786.69751,479.3052 695.8185,399.28941 571.30407,291.31753 461.94622,165.9812 327.66115,69.431801 258.09426,19.812089 182.8807,-25.047322 99.241234,-45.926016 70.250302,-53.061246 40.416657,-56.999322 10.5,-56.625 z" id="C.cuttingline" inkscape:connector-curvature="0" />
      <g id="C.info" transform="">
        <text style="font-size:12; vertical-align:top; fill-opacity:1.0; fill:#000000; text-anchor:start; stroke:none; font-weight:normal; font-style:normal; text-align:right; " transform="" id="C.info.lineEpic Patterns" y="1137.35600503" x="271.888139269">
Epic Patterns</text>
        <text style="font-size:12; vertical-align:top; fill-opacity:1.0; fill:#000000; text-anchor:start; stroke:none; font-weight:normal; font-style:normal; text-align:right; " transform="" id="C.info.lineDesigner:S.L.Spencer" y="1151.75600503" x="271.888139269">
Designer:S.L.Spencer</text>
        <text style="font-size:12; vertical-align:top; fill-opacity:1.0; fill:#000000; text-anchor:start; stroke:none; font-weight:normal; font-style:normal; text-align:right; " transform="" id="C.info.lineClient:DressFormLg" y="1166.15600503" x="271.888139269">
Client:DressFormLg</text>
        <text style="font-size:12; vertical-align:top; fill-opacity:1.0; fill:#000000; text-anchor:start; stroke:none; font-weight:normal; font-style:normal; text-align:right; " transform="" id="C.info.lineMR_B1" y="1180.55600503" x="271.888139269">
MR_B1</text>
        <text style="font-size:12; vertical-align:top; fill-opacity:1.0; fill:#000000; text-anchor:start; stroke:none; font-weight:normal; font-style:normal; text-align:right; " transform="" id="C.info.linePattern Piece C" y="1194.95600503" x="271.888139269">
Pattern Piece C</text>
        <text style="font-size:12; vertical-align:top; fill-opacity:1.0; fill:#000000; text-anchor:start; stroke:none; font-weight:normal; font-style:normal; text-align:right; " transform="" id="C.info.lineCut 2 Fabric" y="1209.35600503" x="271.888139269">
Cut 2 Fabric</text>
      </g>
    </g>
  </g>
  <g inkscape:label="Label-notes" id="notes" inkscape:groupmode="layer" transform="translate(88.582677,88.582677)">
    <g id="document.titleblock">
      <text style="font-size:40; vertical-align:top; fill-opacity:1.0; fill:#000000; text-anchor:right; stroke:none; font-weight:normal; font-style:normal; text-align:right; " transform="" id="company" y="0.0" x="0.0">
Epic Patterns</text>
      <text style="font-size:40; vertical-align:top; fill-opacity:1.0; fill:#000000; text-anchor:right; stroke:none; font-weight:normal; font-style:normal; text-align:right; " transform="" id="designer" y="44.0" x="0.0">
S.L.Spencer</text>
      <text style="font-size:40; vertical-align:top; fill-opacity:1.0; fill:#000000; text-anchor:right; stroke:none; font-weight:normal; font-style:normal; text-align:right; " transform="" id="pattern_number" y="88.0" x="0.0">
MR_B1</text>
      <text style="font-size:40; vertical-align:top; fill-opacity:1.0; fill:#000000; text-anchor:right; stroke:none; font-weight:normal; font-style:normal; text-align:right; " transform="" id="pattern_name" y="132.0" x="0.0">
New Bodice - Short</text>
      <text style="font-size:40; vertical-align:top; fill-opacity:1.0; fill:#000000; text-anchor:right; stroke:none; font-weight:normal; font-style:normal; text-align:right; " transform="" id="client" y="176.0" x="0.0">
DressFormLg</text>
    </g>
    <g id="document.testgrid">
      <path style="stroke-linejoin:miter; stroke:green; stroke-width:4; stroke-miterlimit:4; fill:none; " d="M 1320.0  0.0 L 1320.0  212.598425197 M 1355.43307087  0.0 L 1355.43307087  212.598425197 M 1390.86614173  0.0 L 1390.86614173  212.598425197 M 1426.2992126  0.0 L 1426.2992126  212.598425197 M 1461.73228346  0.0 L 1461.73228346  212.598425197 M 1497.16535433  0.0 L 1497.16535433  212.598425197 M 1532.5984252  0.0 L 1532.5984252  212.598425197 M 1320.0  0.0 L 1532.5984252  0.0 M 1320.0  35.4330708661 L 1532.5984252  35.4330708661 M 1320.0  70.8661417323 L 1532.5984252  70.8661417323 M 1320.0  106.299212598 L 1532.5984252  106.299212598 M 1320.0  141.732283465 L 1532.5984252  141.732283465 M 1320.0  177.165354331 L 1532.5984252  177.165354331 M 1320.0  212.598425197 L 1532.5984252  212.598425197 M 1709.76377953  0.0 L 1709.76377953  270.0 M 1799.76377953  0.0 L 1799.76377953  270.0 M 1889.76377953  0.0 L 1889.76377953  270.0 M 1979.76377953  0.0 L 1979.76377953  270.0 M 1709.76377953  0.0 L 1979.76377953  0.0 M 1709.76377953  90.0 L 1979.76377953  90.0 M 1709.76377953  180.0 L 1979.76377953  180.0 M 1709.76377953  270.0 L 1979.76377953  270.0 " id="testgrid" />
    </g>
    <g id="document.bodice.Bodice Front.notes" transform=" translate(58.750000, 757.717638)" />
    <g id="document.bodice.Bodice Back.notes" transform=" translate(2347.304781, 580.552283)" />
    <g id="document.bodice.Bodice Sleeve.notes" transform=" translate(930.755317, 2256.100604)" />
  </g>
  <g inkscape:label="Label-reference" id="reference" inkscape:groupmode="layer" transform="translate(88.582677,88.582677)">
    <g id="document.bodice.Bodice Front.reference" transform=" translate(58.750000, 757.717638)">
      <circle style="stroke:gray; stroke-width:1; fill:none; " transform="" cy="0.0" cx="160.146981797" r="5" id="A.FNC.inpoint" d="M 165.14699,0 C 165.14699,2.7614237 162.90841,5 160.14699,5 157.38556,5 155.14699,2.7614237 155.14699,0 155.14699,-2.7614237 157.38556,-5 160.14699,-5 162.90841,-5 165.14699,-2.7614237 165.14699,0 z" />
      <text style="font-size:25; vertical-align:top; fill-opacity:1.0; fill:gray; text-anchor:right; stroke:none; font-weight:normal; font-style:italic; text-align:right; " transform="" id="A.FNC.inpoint.text" y="-7.0" x="167.146981797">
FNC.in</text>
      <circle style="stroke:red; stroke-width:1; fill:red; " transform="" cy="0.0" cx="0.0" r="5" id="A.FNC" d="M 5,0 C 5,2.7614237 2.7614237,5 0,5 -2.7614237,5 -5,2.7614237 -5,0 -5,-2.7614237 -2.7614237,-5 0,-5 2.7614237,-5 5,-2.7614237 5,0 z" />
      <text style="font-size:30; vertical-align:top; fill-opacity:1.0; fill:darkblue; text-anchor:right; stroke:none; font-weight:normal; font-style:italic; text-align:right; " transform="" id="A.FNC.text" y="-7.0" x="7.0">
FNC</text>
      <circle style="stroke:red; stroke-width:1; fill:red; " transform="" cy="1240.15748031" cx="0.0" r="5" id="A.FWC" d="M 5,1240.1575 C 5,1242.9189 2.7614237,1245.1575 0,1245.1575 -2.7614237,1245.1575 -5,1242.9189 -5,1240.1575 -5,1237.396 -2.7614237,1235.1575 0,1235.1575 2.7614237,1235.1575 5,1237.396 5,1240.1575 z" />
      <text style="font-size:30; vertical-align:top; fill-opacity:1.0; fill:darkblue; text-anchor:right; stroke:none; font-weight:normal; font-style:italic; text-align:right; " transform="" id="A.FWC.text" y="1233.15748031" x="7.0">
FWC</text>
      <circle style="stroke:red; stroke-width:1; fill:red; " transform="" cy="-318.897637795" cx="0.0" r="5" id="A.FSH" d="M 5,-318.89764 C 5,-316.13622 2.7614237,-313.89764 0,-313.89764 -2.7614237,-313.89764 -5,-316.13622 -5,-318.89764 -5,-321.65907 -2.7614237,-323.89764 0,-323.89764 2.7614237,-323.89764 5,-321.65907 5,-318.89764 z" />
      <text style="font-size:30; vertical-align:top; fill-opacity:1.0; fill:darkblue; text-anchor:right; stroke:none; font-weight:normal; font-style:italic; text-align:right; " transform="" id="A.FSH.text" y="-325.897637795" x="7.0">
FSH</text>
      <circle style="stroke:red; stroke-width:1; fill:red; " transform="" cy="-318.897637795" cx="717.519685039" r="5" id="A.FSW" d="M 722.51971,-318.89764 C 722.51971,-316.13622 720.28114,-313.89764 717.51971,-313.89764 714.75829,-313.89764 712.51971,-316.13622 712.51971,-318.89764 712.51971,-321.65907 714.75829,-323.89764 717.51971,-323.89764 720.28114,-323.89764 722.51971,-321.65907 722.51971,-318.89764 z" />
      <text style="font-size:30; vertical-align:top; fill-opacity:1.0; fill:darkblue; text-anchor:right; stroke:none; font-weight:normal; font-style:italic; text-align:right; " transform="" id="A.FSW.text" y="-325.897637795" x="724.519685039">
FSW</text>
      <circle style="stroke:gray; stroke-width:1; fill:none; " transform="" cy="-143.504287858" cx="700.589615123" r="5" id="A.FSP.inpoint" d="M 705.5896,-143.50429 C 705.5896,-140.74286 703.35102,-138.50429 700.5896,-138.50429 697.82818,-138.50429 695.5896,-140.74286 695.5896,-143.50429 695.5896,-146.26571 697.82818,-148.50429 700.5896,-148.50429 703.35102,-148.50429 705.5896,-146.26571 705.5896,-143.50429 z" />
      <text style="font-size:25; vertical-align:top; fill-opacity:1.0; fill:gray; text-anchor:right; stroke:none; font-weight:normal; font-style:italic; text-align:right; " transform="" id="A.FSP.inpoint.text" y="-150.504287858" x="707.589615123">
FSP.in</text>
      <circle style="stroke:red; stroke-width:1; fill:red; " transform="" cy="-223.334513127" cx="717.519685039" r="5" id="A.FSP" d="M 722.51971,-223.33452 C 722.51971,-220.57309 720.28114,-218.33452 717.51971,-218.33452 714.75829,-218.33452 712.51971,-220.57309 712.51971,-223.33452 712.51971,-226.09594 714.75829,-228.33452 717.51971,-228.33452 720.28114,-228.33452 722.51971,-226.09594 722.51971,-223.33452 z" />
      <text style="font-size:30; vertical-align:top; fill-opacity:1.0; fill:darkblue; text-anchor:right; stroke:none; font-weight:normal; font-style:italic; text-align:right; " transform="" id="A.FSP.text" y="-230.334513127" x="724.519685039">
FSP</text>
      <circle style="stroke:gray; stroke-width:1; fill:none; " transform="" cy="-162.917928626" cx="233.832093174" r="5" id="A.FNS.outpoint" d="M 238.83209,-162.91792 C 238.83209,-160.1565 236.59352,-157.91792 233.83209,-157.91792 231.07067,-157.91792 228.83209,-160.1565 228.83209,-162.91792 228.83209,-165.67935 231.07067,-167.91792 233.83209,-167.91792 236.59352,-167.91792 238.83209,-165.67935 238.83209,-162.91792 z" />
      <text style="font-size:25; vertical-align:top; fill-opacity:1.0; fill:gray; text-anchor:right; stroke:none; font-weight:normal; font-style:italic; text-align:right; " transform="" id="A.FNS.outpoint.text" y="-169.917928626" x="240.832093174">
FNS.out</text>
      <circle style="stroke:red; stroke-width:1; fill:red; " transform="" cy="-318.897637795" cx="266.911636328" r="5" id="A.FNS" d="M 271.91162,-318.89764 C 271.91162,-316.13622 269.67304,-313.89764 266.91162,-313.89764 264.1502,-313.89764 261.91162,-316.13622 261.91162,-318.89764 261.91162,-321.65907 264.1502,-323.89764 266.91162,-323.89764 269.67304,-323.89764 271.91162,-321.65907 271.91162,-318.89764 z" />
      <text style="font-size:30; vertical-align:top; fill-opacity:1.0; fill:darkblue; text-anchor:right; stroke:none; font-weight:normal; font-style:italic; text-align:right; " transform="" id="A.FNS.text" y="-325.897637795" x="273.911636328">
FNS</text>
      <circle style="stroke:red; stroke-width:1; fill:red; " transform="" cy="318.897637795" cx="0.0" r="5" id="A.FUC" d="M 5,318.89764 C 5,321.65907 2.7614237,323.89764 0,323.89764 -2.7614237,323.89764 -5,321.65907 -5,318.89764 -5,316.13622 -2.7614237,313.89764 0,313.89764 2.7614237,313.89764 5,316.13622 5,318.89764 z" />
      <text style="font-size:30; vertical-align:top; fill-opacity:1.0; fill:darkblue; text-anchor:right; stroke:none; font-weight:normal; font-style:italic; text-align:right; " transform="" id="A.FUC.text" y="311.897637795" x="7.0">
FUC</text>
      <circle style="stroke:red; stroke-width:1; fill:red; " transform="" cy="637.795275591" cx="0.0" r="5" id="A.FBC" d="M 5,637.79529 C 5,640.55671 2.7614237,642.79529 0,642.79529 -2.7614237,642.79529 -5,640.55671 -5,637.79529 -5,635.03386 -2.7614237,632.79529 0,632.79529 2.7614237,632.79529 5,635.03386 5,637.79529 z" />
      <text style="font-size:30; vertical-align:top; fill-opacity:1.0; fill:darkblue; text-anchor:right; stroke:none; font-weight:normal; font-style:italic; text-align:right; " transform="" id="A.FBC.text" y="630.795275591" x="7.0">
FBC</text>
      <circle style="stroke:red; stroke-width:1; fill:red; " transform="" cy="637.795275591" cx="354.330708661" r="5" id="A.FBP" d="M 359.33072,637.79529 C 359.33072,640.55671 357.09214,642.79529 354.33072,642.79529 351.5693,642.79529 349.33072,640.55671 349.33072,637.79529 349.33072,635.03386 351.5693,632.79529 354.33072,632.79529 357.09214,632.79529 359.33072,635.03386 359.33072,637.79529 z" />
      <text style="font-size:30; vertical-align:top; fill-opacity:1.0; fill:darkblue; text-anchor:right; stroke:none; font-weight:normal; font-style:italic; text-align:right; " transform="" id="A.FBP.text" y="630.795275591" x="361.330708661">
FBP</text>
      <circle style="stroke:gray; stroke-width:1; fill:none; " transform="" cy="421.42614887" cx="738.545618172" r="5" id="A.FAP.inpoint" d="M 743.54559,421.42615 C 743.54559,424.18757 741.30702,426.42615 738.54559,426.42615 735.78417,426.42615 733.54559,424.18757 733.54559,421.42615 733.54559,418.66472 735.78417,416.42615 738.54559,416.42615 741.30702,416.42615 743.54559,418.66472 743.54559,421.42615 z" />
      <text style="font-size:25; vertical-align:top; fill-opacity:1.0; fill:gray; text-anchor:right; stroke:none; font-weight:normal; font-style:italic; text-align:right; " transform="" id="A.FAP.inpoint.text" y="414.42614887" x="745.545618172">
FAP.in</text>
      <circle style="stroke:gray; stroke-width:1; fill:none; " transform="" cy="167.481010918" cx="576.766193088" r="5" id="A.FAP.outpoint" d="M 581.76617,167.48102 C 581.76617,170.24244 579.5276,172.48102 576.76617,172.48102 574.00475,172.48102 571.76617,170.24244 571.76617,167.48102 571.76617,164.71959 574.00475,162.48102 576.76617,162.48102 579.5276,162.48102 581.76617,164.71959 581.76617,167.48102 z" />
      <text style="font-size:25; vertical-align:top; fill-opacity:1.0; fill:gray; text-anchor:right; stroke:none; font-weight:normal; font-style:italic; text-align:right; " transform="" id="A.FAP.outpoint.text" y="160.481010918" x="583.766193088">
FAP.out</text>
      <circle style="stroke:red; stroke-width:1; fill:red; " transform="" cy="318.897637795" cx="673.228346457" r="5" id="A.FAP" d="M 678.22833,318.89764 C 678.22833,321.65907 675.98976,323.89764 673.22833,323.89764 670.46691,323.89764 668.22833,321.65907 668.22833,318.89764 668.22833,316.13622 670.46691,313.89764 673.22833,313.89764 675.98976,313.89764 678.22833,316.13622 678.22833,318.89764 z" />
      <text style="font-size:30; vertical-align:top; fill-opacity:1.0; fill:darkblue; text-anchor:right; stroke:none; font-weight:normal; font-style:italic; text-align:right; " transform="" id="A.FAP.text" y="311.897637795" x="680.228346457">
FAP</text>
      <circle style="stroke:red; stroke-width:1; fill:red; " transform="" cy="318.897637795" cx="921.25984252" r="5" id="A.f1" d="M 926.25983,318.89764 C 926.25983,321.65907 924.02125,323.89764 921.25983,323.89764 918.4984,323.89764 916.25983,321.65907 916.25983,318.89764 916.25983,316.13622 918.4984,313.89764 921.25983,313.89764 924.02125,313.89764 926.25983,316.13622 926.25983,318.89764 z" />
      <text style="font-size:30; vertical-align:top; fill-opacity:1.0; fill:darkblue; text-anchor:right; stroke:none; font-weight:normal; font-style:italic; text-align:right; " transform="" id="A.f1.text" y="311.897637795" x="928.25984252">
f1</text>
      <circle style="stroke:red; stroke-width:1; fill:red; " transform="" cy="440.379318512" cx="960.803917844" r="5" id="A.f2" d="M 965.80389,440.37933 C 965.80389,443.14076 963.56532,445.37933 960.80389,445.37933 958.04247,445.37933 955.80389,443.14076 955.80389,440.37933 955.80389,437.61791 958.04247,435.37933 960.80389,435.37933 963.56532,435.37933 965.80389,437.61791 965.80389,440.37933 z" />
      <text style="font-size:30; vertical-align:top; fill-opacity:1.0; fill:darkblue; text-anchor:right; stroke:none; font-weight:normal; font-style:italic; text-align:right; " transform="" id="A.f2.text" y="433.379318512" x="967.803917844">
f2</text>
      <circle style="stroke:red; stroke-width:1; fill:red; " transform="" cy="992.756759109" cx="1140.61090594" r="5" id="A.f3" d="M 1145.611,992.75677 C 1145.611,995.5182 1143.3724,997.75677 1140.611,997.75677 1137.8495,997.75677 1135.611,995.5182 1135.611,992.75677 1135.611,989.99535 1137.8495,987.75677 1140.611,987.75677 1143.3724,987.75677 1145.611,989.99535 1145.611,992.75677 z" />
      <text style="font-size:30; vertical-align:top; fill-opacity:1.0; fill:darkblue; text-anchor:right; stroke:none; font-weight:normal; font-style:italic; text-align:right; " transform="" id="A.f3.text" y="985.756759109" x="1147.61090594">
f3</text>
      <circle style="stroke:red; stroke-width:1; fill:red; " transform="" cy="1240.15748031" cx="354.330708661" r="5" id="A.f4" d="M 359.33072,1240.1575 C 359.33072,1242.9189 357.09214,1245.1575 354.33072,1245.1575 351.5693,1245.1575 349.33072,1242.9189 349.33072,1240.1575 349.33072,1237.396 351.5693,1235.1575 354.33072,1235.1575 357.09214,1235.1575 359.33072,1237.396 359.33072,1240.1575 z" />
      <text style="font-size:30; vertical-align:top; fill-opacity:1.0; fill:darkblue; text-anchor:right; stroke:none; font-weight:normal; font-style:italic; text-align:right; " transform="" id="A.f4.text" y="1233.15748031" x="361.330708661">
f4</text>
      <circle style="stroke:red; stroke-width:1; fill:red; " transform="" cy="1150.61284812" cx="670.334447545" r="5" id="A.f5" d="M 675.33447,1150.6128 C 675.33447,1153.3742 673.0959,1155.6128 670.33447,1155.6128 667.57305,1155.6128 665.33447,1153.3742 665.33447,1150.6128 665.33447,1147.8514 667.57305,1145.6128 670.33447,1145.6128 673.0959,1145.6128 675.33447,1147.8514 675.33447,1150.6128 z" />
      <text style="font-size:30; vertical-align:top; fill-opacity:1.0; fill:darkblue; text-anchor:right; stroke:none; font-weight:normal; font-style:italic; text-align:right; " transform="" id="A.f5.text" y="1143.61284812" x="677.334447545">
f5</text>
      <circle style="stroke:red; stroke-width:1; fill:red; " transform="" cy="414.890724943" cx="1039.10634774" r="5" id="A.FBS" d="M 1044.1063,414.89072 C 1044.1063,417.65214 1041.8677,419.89072 1039.1063,419.89072 1036.3449,419.89072 1034.1063,417.65214 1034.1063,414.89072 1034.1063,412.12929 1036.3449,409.89072 1039.1063,409.89072 1041.8677,409.89072 1044.1063,412.12929 1044.1063,414.89072 z" />
      <text style="font-size:30; vertical-align:top; fill-opacity:1.0; fill:darkblue; text-anchor:right; stroke:none; font-weight:normal; font-style:italic; text-align:right; " transform="" id="A.FBS.text" y="407.890724943" x="1046.10634774">
FBS</text>
      <circle style="stroke:red; stroke-width:1; fill:red; " transform="" cy="976.305429353" cx="1191.15034004" r="5" id="A.f6" d="M 1196.1504,976.30542 C 1196.1504,979.06684 1193.9118,981.30542 1191.1504,981.30542 1188.389,981.30542 1186.1504,979.06684 1186.1504,976.30542 1186.1504,973.544 1188.389,971.30542 1191.1504,971.30542 1193.9118,971.30542 1196.1504,973.544 1196.1504,976.30542 z" />
      <text style="font-size:30; vertical-align:top; fill-opacity:1.0; fill:darkblue; text-anchor:right; stroke:none; font-weight:normal; font-style:italic; text-align:right; " transform="" id="A.f6.text" y="969.305429353" x="1198.15034004">
f6</text>
      <circle style="stroke:red; stroke-width:1; fill:red; " transform="" cy="292.284950312" cx="1005.90188889" r="5" id="A.f7" d="M 1010.9019,292.28494 C 1010.9019,295.04637 1008.6633,297.28494 1005.9019,297.28494 1003.1405,297.28494 1000.9019,295.04637 1000.9019,292.28494 1000.9019,289.52352 1003.1405,287.28494 1005.9019,287.28494 1008.6633,287.28494 1010.9019,289.52352 1010.9019,292.28494 z" />
      <text style="font-size:30; vertical-align:top; fill-opacity:1.0; fill:darkblue; text-anchor:right; stroke:none; font-weight:normal; font-style:italic; text-align:right; " transform="" id="A.f7.text" y="285.284950312" x="1012.90188889">
f7</text>
      <circle style="stroke:gray; stroke-width:1; fill:none; " transform="" cy="440.498153899" cx="893.572200606" r="5" id="A.FUS.outpoint" d="M 898.5722,440.49817 C 898.5722,443.25959 896.33363,445.49817 893.5722,445.49817 890.81078,445.49817 888.5722,443.25959 888.5722,440.49817 888.5722,437.73675 890.81078,435.49817 893.5722,435.49817 896.33363,435.49817 898.5722,437.73675 898.5722,440.49817 z" />
      <text style="font-size:25; vertical-align:top; fill-opacity:1.0; fill:gray; text-anchor:right; stroke:none; font-weight:normal; font-style:italic; text-align:right; " transform="" id="A.FUS.outpoint.text" y="433.498153899" x="900.572200606">
FUS.out</text>
      <circle style="stroke:red; stroke-width:1; fill:red; " transform="" cy="394.888022168" cx="1033.68915656" r="5" id="A.FUS" d="M 1038.6892,394.88803 C 1038.6892,397.64945 1036.4506,399.88803 1033.6892,399.88803 1030.9278,399.88803 1028.6892,397.64945 1028.6892,394.88803 1028.6892,392.12661 1030.9278,389.88803 1033.6892,389.88803 1036.4506,389.88803 1038.6892,392.12661 1038.6892,394.88803 z" />
      <text style="font-size:30; vertical-align:top; fill-opacity:1.0; fill:darkblue; text-anchor:right; stroke:none; font-weight:normal; font-style:italic; text-align:right; " transform="" id="A.FUS.text" y="387.888022168" x="1040.68915656">
FUS</text>
      <circle style="stroke:gray; stroke-width:1; fill:none; " transform="" cy="1200.34462532" cx="859.624375018" r="5" id="A.FWS.inpoint" d="M 864.62439,1200.3446 C 864.62439,1203.106 862.38581,1205.3446 859.62439,1205.3446 856.86297,1205.3446 854.62439,1203.106 854.62439,1200.3446 854.62439,1197.5832 856.86297,1195.3446 859.62439,1195.3446 862.38581,1195.3446 864.62439,1197.5832 864.62439,1200.3446 z" />
      <text style="font-size:25; vertical-align:top; fill-opacity:1.0; fill:gray; text-anchor:right; stroke:none; font-weight:normal; font-style:italic; text-align:right; " transform="" id="A.FWS.inpoint.text" y="1193.34462532" x="866.624375018">
FWS.in</text>
      <circle style="stroke:red; stroke-width:1; fill:red; " transform="" cy="1191.62550743" cx="1067.16189061" r="5" id="A.FWS" d="M 1072.1619,1191.6255 C 1072.1619,1194.3869 1069.9233,1196.6255 1067.1619,1196.6255 1064.4004,1196.6255 1062.1619,1194.3869 1062.1619,1191.6255 1062.1619,1188.8641 1064.4004,1186.6255 1067.1619,1186.6255 1069.9233,1186.6255 1072.1619,1188.8641 1072.1619,1191.6255 z" />
      <text style="font-size:30; vertical-align:top; fill-opacity:1.0; fill:darkblue; text-anchor:right; stroke:none; font-weight:normal; font-style:italic; text-align:right; " transform="" id="A.FWS.text" y="1184.62550743" x="1074.16189061">
FWS</text>
      <circle style="stroke:red; stroke-width:1; fill:red; " transform="" cy="637.795275591" cx="1099.47401805" r="5" id="A.f8" d="M 1104.474,637.79529 C 1104.474,640.55671 1102.2354,642.79529 1099.474,642.79529 1096.7126,642.79529 1094.474,640.55671 1094.474,637.79529 1094.474,635.03386 1096.7126,632.79529 1099.474,632.79529 1102.2354,632.79529 1104.474,635.03386 1104.474,637.79529 z" />
      <text style="font-size:30; vertical-align:top; fill-opacity:1.0; fill:darkblue; text-anchor:right; stroke:none; font-weight:normal; font-style:italic; text-align:right; " transform="" id="A.f8.text" y="630.795275591" x="1106.47401805">
f8</text>
      <circle style="stroke:red; stroke-width:1; fill:red; " transform="" cy="840.944762528" cx="1071.24690842" r="5" id="A.f9" d="M 1076.2469,840.94476 C 1076.2469,843.70619 1074.0084,845.94476 1071.2469,845.94476 1068.4855,845.94476 1066.2469,843.70619 1066.2469,840.94476 1066.2469,838.18334 1068.4855,835.94476 1071.2469,835.94476 1074.0084,835.94476 1076.2469,838.18334 1076.2469,840.94476 z" />
      <text style="font-size:30; vertical-align:top; fill-opacity:1.0; fill:darkblue; text-anchor:right; stroke:none; font-weight:normal; font-style:italic; text-align:right; " transform="" id="A.f9.text" y="833.944762528" x="1078.24690842">
f9</text>
      <circle style="stroke:red; stroke-width:1; fill:red; " transform="" cy="637.795275591" cx="443.747905788" r="5" id="A.FD2" d="M 448.74789,637.79529 C 448.74789,640.55671 446.50932,642.79529 443.74789,642.79529 440.98647,642.79529 438.74789,640.55671 438.74789,637.79529 438.74789,635.03386 440.98647,632.79529 443.74789,632.79529 446.50932,632.79529 448.74789,635.03386 448.74789,637.79529 z" />
      <text style="font-size:30; vertical-align:top; fill-opacity:1.0; fill:darkblue; text-anchor:right; stroke:none; font-weight:normal; font-style:italic; text-align:right; " transform="" id="A.FD2.text" y="630.795275591" x="450.747905788">
FD2</text>
      <circle style="stroke:red; stroke-width:1; fill:red; " transform="" cy="637.795275591" cx="1104.64533254" r="5" id="A.FD2.i" d="M 1109.6454,637.79529 C 1109.6454,640.55671 1107.4068,642.79529 1104.6454,642.79529 1101.884,642.79529 1099.6454,640.55671 1099.6454,637.79529 1099.6454,635.03386 1101.884,632.79529 1104.6454,632.79529 1107.4068,632.79529 1109.6454,635.03386 1109.6454,637.79529 z" />
      <text style="font-size:30px;font-style:italic;font-weight:normal;text-align:right;fill:#00008b;fill-opacity:1;stroke:none" id="A.FD2.i.text" y="627.96191" x="1104.5619">FD2.i</text>
      <circle style="stroke:red; stroke-width:1; fill:red; " transform="" cy="841.355455712" cx="1072.5154795" r="5" id="A.FD2.o" d="M 1077.5155,841.35547 C 1077.5155,844.11689 1075.2769,846.35547 1072.5155,846.35547 1069.7541,846.35547 1067.5155,844.11689 1067.5155,841.35547 1067.5155,838.59405 1069.7541,836.35547 1072.5155,836.35547 1075.2769,836.35547 1077.5155,838.59405 1077.5155,841.35547 z" />
      <text style="font-size:30; vertical-align:top; fill-opacity:1.0; fill:darkblue; text-anchor:right; stroke:none; font-weight:normal; font-style:italic; text-align:right; " transform="" id="A.FD2.o.text" y="834.355455712" x="1079.5154795">
FD2.o</text>
      <circle style="stroke:red; stroke-width:1; fill:red; " transform="" cy="1240.15748031" cx="270.633997225" r="5" id="A.f10" d="M 275.634,1240.1575 C 275.634,1242.9189 273.39543,1245.1575 270.634,1245.1575 267.87258,1245.1575 265.634,1242.9189 265.634,1240.1575 265.634,1237.396 267.87258,1235.1575 270.634,1235.1575 273.39543,1235.1575 275.634,1237.396 275.634,1240.1575 z" />
      <text style="font-size:30; vertical-align:top; fill-opacity:1.0; fill:darkblue; text-anchor:right; stroke:none; font-weight:normal; font-style:italic; text-align:right; " transform="" id="A.f10.text" y="1233.15748031" x="277.633997225">
f10</text>
      <circle style="stroke:red; stroke-width:1; fill:red; " transform="" cy="1240.15748031" cx="438.027420098" r="5" id="A.f11" d="M 443.02744,1240.1575 C 443.02744,1242.9189 440.78886,1245.1575 438.02744,1245.1575 435.26601,1245.1575 433.02744,1242.9189 433.02744,1240.1575 433.02744,1237.396 435.26601,1235.1575 438.02744,1235.1575 440.78886,1235.1575 443.02744,1237.396 443.02744,1240.1575 z" />
      <text style="font-size:30; vertical-align:top; fill-opacity:1.0; fill:darkblue; text-anchor:right; stroke:none; font-weight:normal; font-style:italic; text-align:right; " transform="" id="A.f11.text" y="1233.15748031" x="445.027420098">
f11</text>
      <circle style="stroke:red; stroke-width:1; fill:red; " transform="" cy="710.078740157" cx="354.330708661" r="5" id="A.FD1" d="M 359.33072,710.07874 C 359.33072,712.84016 357.09214,715.07874 354.33072,715.07874 351.5693,715.07874 349.33072,712.84016 349.33072,710.07874 349.33072,707.31731 351.5693,705.07874 354.33072,705.07874 357.09214,705.07874 359.33072,707.31731 359.33072,710.07874 z" />
      <text style="font-size:30; vertical-align:top; fill-opacity:1.0; fill:darkblue; text-anchor:right; stroke:none; font-weight:normal; font-style:italic; text-align:right; " transform="" id="A.FD1.text" y="703.078740157" x="361.330708661">
FD1</text>
      <circle style="stroke:red; stroke-width:1; fill:red; " transform="" cy="1266.18329074" cx="266.524655386" r="5" id="A.FD1.i" d="M 271.52466,1266.1833 C 271.52466,1268.9448 269.28608,1271.1833 266.52466,1271.1833 263.76323,1271.1833 261.52466,1268.9448 261.52466,1266.1833 261.52466,1263.4219 263.76323,1261.1833 266.52466,1261.1833 269.28608,1261.1833 271.52466,1263.4219 271.52466,1266.1833 z" />
      <text style="font-size:30; vertical-align:top; fill-opacity:1.0; fill:darkblue; text-anchor:right; stroke:none; font-weight:normal; font-style:italic; text-align:right; " transform="" id="A.FD1.i.text" y="1259.18329074" x="273.524655386">
FD1.i</text>
      <circle style="stroke:gray; stroke-width:1; fill:none; " transform="" cy="1233.78662722" cx="647.315463535" r="5" id="A.FD1.o.outpoint" d="M 652.31549,1233.7866 C 652.31549,1236.548 650.07691,1238.7866 647.31549,1238.7866 644.55407,1238.7866 642.31549,1236.548 642.31549,1233.7866 642.31549,1231.0252 644.55407,1228.7866 647.31549,1228.7866 650.07691,1228.7866 652.31549,1231.0252 652.31549,1233.7866 z" />
      <text style="font-size:25; vertical-align:top; fill-opacity:1.0; fill:gray; text-anchor:right; stroke:none; font-weight:normal; font-style:italic; text-align:right; " transform="" id="A.FD1.o.outpoint.text" y="1226.78662722" x="654.315463535">
FD1.o.out</text>
      <circle style="stroke:red; stroke-width:1; fill:red; " transform="" cy="1266.18329074" cx="442.136761937" r="5" id="A.FD1.o" d="M 447.13675,1266.1833 C 447.13675,1268.9448 444.89817,1271.1833 442.13675,1271.1833 439.37533,1271.1833 437.13675,1268.9448 437.13675,1266.1833 437.13675,1263.4219 439.37533,1261.1833 442.13675,1261.1833 444.89817,1261.1833 447.13675,1263.4219 447.13675,1266.1833 z" />
      <text style="font-size:30; vertical-align:top; fill-opacity:1.0; fill:darkblue; text-anchor:right; stroke:none; font-weight:normal; font-style:italic; text-align:right; " transform="" id="A.FD1.o.text" y="1259.18329074" x="449.136761937">
FD1.o</text>
      <path style="stroke-linejoin:miter; stroke-dashoffset:0; stroke:gray; stroke-miterlimit:4; stroke-dasharray:6,6; stroke-width:2; fill:none; " transform="" d="M 0.0  1240.15748031 L 717.519685039  -223.334513127 L 717.519685039  -318.897637795 L 0.0  -318.897637795 L 0.0  0.0 M 0.0  637.795275591 L 354.330708661  637.795275591 L 1039.10634774  414.890724943 M 0.0  318.897637795 L 921.25984252  318.897637795 L 1005.90188889  292.284950312 " id="A.gridline" />
    </g>
    <g id="document.bodice.Bodice Back.reference" transform=" translate(2347.304781, 580.552283)">
      <circle style="stroke:gray; stroke-width:1; fill:none; " transform="" cy="0.0" cx="-213.353231784" r="5" id="B.BNC.inpoint" d="M -208.35323,0 C -208.35323,2.7614237 -210.5918,5 -213.35323,5 -216.11465,5 -218.35323,2.7614237 -218.35323,0 -218.35323,-2.7614237 -216.11465,-5 -213.35323,-5 -210.5918,-5 -208.35323,-2.7614237 -208.35323,0 z" />
      <text style="font-size:25; vertical-align:top; fill-opacity:1.0; fill:gray; text-anchor:right; stroke:none; font-weight:normal; font-style:italic; text-align:right; " transform="" id="B.BNC.inpoint.text" y="-7.0" x="-206.353231784">
BNC.in</text>
      <circle style="stroke:red; stroke-width:1; fill:red; " transform="" cy="0.0" cx="0.0" r="5" id="B.BNC" d="M 5,0 C 5,2.7614237 2.7614237,5 0,5 -2.7614237,5 -5,2.7614237 -5,0 -5,-2.7614237 -2.7614237,-5 0,-5 2.7614237,-5 5,-2.7614237 5,0 z" />
      <text style="font-size:30; vertical-align:top; fill-opacity:1.0; fill:darkblue; text-anchor:right; stroke:none; font-weight:normal; font-style:italic; text-align:right; " transform="" id="B.BNC.text" y="-7.0" x="7.0">
BNC</text>
      <circle style="stroke:red; stroke-width:1; fill:red; " transform="" cy="1346.45669291" cx="0.0" r="5" id="B.BWC" d="M 5,1346.4567 C 5,1349.2181 2.7614237,1351.4567 0,1351.4567 -2.7614237,1351.4567 -5,1349.2181 -5,1346.4567 -5,1343.6952 -2.7614237,1341.4567 0,1341.4567 2.7614237,1341.4567 5,1343.6952 5,1346.4567 z" />
      <text style="font-size:30; vertical-align:top; fill-opacity:1.0; fill:darkblue; text-anchor:right; stroke:none; font-weight:normal; font-style:italic; text-align:right; " transform="" id="B.BWC.text" y="1339.45669291" x="7.0">
BWC</text>
      <circle style="stroke:red; stroke-width:1; fill:red; " transform="" cy="-141.732283465" cx="0.0" r="5" id="B.BSH" d="M 5,-141.73228 C 5,-138.97086 2.7614237,-136.73228 0,-136.73228 -2.7614237,-136.73228 -5,-138.97086 -5,-141.73228 -5,-144.49371 -2.7614237,-146.73228 0,-146.73228 2.7614237,-146.73228 5,-144.49371 5,-141.73228 z" />
      <text style="font-size:30; vertical-align:top; fill-opacity:1.0; fill:darkblue; text-anchor:right; stroke:none; font-weight:normal; font-style:italic; text-align:right; " transform="" id="B.BSH.text" y="-148.732283465" x="7.0">
BSH</text>
      <circle style="stroke:red; stroke-width:1; fill:red; " transform="" cy="-141.732283465" cx="-708.661417323" r="5" id="B.BSW" d="M -703.66144,-141.73228 C -703.66144,-138.97086 -705.90001,-136.73228 -708.66144,-136.73228 -711.42286,-136.73228 -713.66144,-138.97086 -713.66144,-141.73228 -713.66144,-144.49371 -711.42286,-146.73228 -708.66144,-146.73228 -705.90001,-146.73228 -703.66144,-144.49371 -703.66144,-141.73228 z" />
      <text style="font-size:30; vertical-align:top; fill-opacity:1.0; fill:darkblue; text-anchor:right; stroke:none; font-weight:normal; font-style:italic; text-align:right; " transform="" id="B.BSW.text" y="-148.732283465" x="-701.661417323">
BSW</text>
      <circle style="stroke:gray; stroke-width:1; fill:none; " transform="" cy="121.148427062" cx="-673.392103074" r="5" id="B.BSP.inpoint" d="M -668.39209,121.14843 C -668.39209,123.90985 -670.63067,126.14843 -673.39209,126.14843 -676.15351,126.14843 -678.39209,123.90985 -678.39209,121.14843 -678.39209,118.38701 -676.15351,116.14843 -673.39209,116.14843 -670.63067,116.14843 -668.39209,118.38701 -668.39209,121.14843 z" />
      <text style="font-size:25; vertical-align:top; fill-opacity:1.0; fill:gray; text-anchor:right; stroke:none; font-weight:normal; font-style:italic; text-align:right; " transform="" id="B.BSP.inpoint.text" y="114.148427062" x="-666.392103074">
BSP.in</text>
      <circle style="stroke:red; stroke-width:1; fill:red; " transform="" cy="37.8293872947" cx="-708.661417323" r="5" id="B.BSP" d="M -703.66144,37.829388 C -703.66144,40.590811 -705.90001,42.829388 -708.66144,42.829388 -711.42286,42.829388 -713.66144,40.590811 -713.66144,37.829388 -713.66144,35.067964 -711.42286,32.829388 -708.66144,32.829388 -705.90001,32.829388 -703.66144,35.067964 -703.66144,37.829388 z" />
      <text style="font-size:30; vertical-align:top; fill-opacity:1.0; fill:darkblue; text-anchor:right; stroke:none; font-weight:normal; font-style:italic; text-align:right; " transform="" id="B.BSP.text" y="30.8293872947" x="-701.661417323">
BSP</text>
      <circle style="stroke:gray; stroke-width:1; fill:none; " transform="" cy="-78.3927191927" cx="-252.688753608" r="5" id="B.BNS.outpoint" d="M -247.68875,-78.392715 C -247.68875,-75.631292 -249.92733,-73.392715 -252.68875,-73.392715 -255.45017,-73.392715 -257.68875,-75.631292 -257.68875,-78.392715 -257.68875,-81.154139 -255.45017,-83.392715 -252.68875,-83.392715 -249.92733,-83.392715 -247.68875,-81.154139 -247.68875,-78.392715 z" />
      <text style="font-size:25; vertical-align:top; fill-opacity:1.0; fill:gray; text-anchor:right; stroke:none; font-weight:normal; font-style:italic; text-align:right; " transform="" id="B.BNS.outpoint.text" y="-85.3927191927" x="-245.688753608">
BNS.out</text>
      <circle style="stroke:red; stroke-width:1; fill:red; " transform="" cy="-141.732283465" cx="-284.470975712" r="5" id="B.BNS" d="M -279.47098,-141.73228 C -279.47098,-138.97086 -281.70955,-136.73228 -284.47098,-136.73228 -287.2324,-136.73228 -289.47098,-138.97086 -289.47098,-141.73228 -289.47098,-144.49371 -287.2324,-146.73228 -284.47098,-146.73228 -281.70955,-146.73228 -279.47098,-144.49371 -279.47098,-141.73228 z" />
      <text style="font-size:30; vertical-align:top; fill-opacity:1.0; fill:darkblue; text-anchor:right; stroke:none; font-weight:normal; font-style:italic; text-align:right; " transform="" id="B.BNS.text" y="-148.732283465" x="-277.470975712">
BNS</text>
      <circle style="stroke:red; stroke-width:1; fill:red; " transform="" cy="637.795275591" cx="0.0" r="5" id="B.BUC" d="M 5,637.79529 C 5,640.55671 2.7614237,642.79529 0,642.79529 -2.7614237,642.79529 -5,640.55671 -5,637.79529 -5,635.03386 -2.7614237,632.79529 0,632.79529 2.7614237,632.79529 5,635.03386 5,637.79529 z" />
      <text style="font-size:30; vertical-align:top; fill-opacity:1.0; fill:darkblue; text-anchor:right; stroke:none; font-weight:normal; font-style:italic; text-align:right; " transform="" id="B.BUC.text" y="630.795275591" x="7.0">
BUC</text>
      <circle style="stroke:gray; stroke-width:1; fill:none; " transform="" cy="685.629663886" cx="-668.727833657" r="5" id="B.BAP.inpoint" d="M -663.72784,685.62964 C -663.72784,688.39106 -665.96642,690.62964 -668.72784,690.62964 -671.48927,690.62964 -673.72784,688.39106 -673.72784,685.62964 -673.72784,682.86821 -671.48927,680.62964 -668.72784,680.62964 -665.96642,680.62964 -663.72784,682.86821 -663.72784,685.62964 z" />
      <text style="font-size:25; vertical-align:top; fill-opacity:1.0; fill:gray; text-anchor:right; stroke:none; font-weight:normal; font-style:italic; text-align:right; " transform="" id="B.BAP.inpoint.text" y="678.629663886" x="-661.727833657">
BAP.in</text>
      <circle style="stroke:gray; stroke-width:1; fill:none; " transform="" cy="457.267173678" cx="-562.668021212" r="5" id="B.BAP.outpoint" d="M -557.66803,457.26718 C -557.66803,460.02861 -559.90661,462.26718 -562.66803,462.26718 -565.42945,462.26718 -567.66803,460.02861 -567.66803,457.26718 -567.66803,454.50576 -565.42945,452.26718 -562.66803,452.26718 -559.90661,452.26718 -557.66803,454.50576 -557.66803,457.26718 z" />
      <text style="font-size:25; vertical-align:top; fill-opacity:1.0; fill:gray; text-anchor:right; stroke:none; font-weight:normal; font-style:italic; text-align:right; " transform="" id="B.BAP.outpoint.text" y="450.267173678" x="-555.668021212">
BAP.out</text>
      <circle style="stroke:red; stroke-width:1; fill:red; " transform="" cy="637.795275591" cx="-646.511811024" r="5" id="B.BAP" d="M -641.51184,637.79529 C -641.51184,640.55671 -643.75042,642.79529 -646.51184,642.79529 -649.27326,642.79529 -651.51184,640.55671 -651.51184,637.79529 -651.51184,635.03386 -649.27326,632.79529 -646.51184,632.79529 -643.75042,632.79529 -641.51184,635.03386 -641.51184,637.79529 z" />
      <text style="font-size:30; vertical-align:top; fill-opacity:1.0; fill:darkblue; text-anchor:right; stroke:none; font-weight:normal; font-style:italic; text-align:right; " transform="" id="B.BAP.text" y="630.795275591" x="-639.511811024">
BAP</text>
      <circle style="stroke:red; stroke-width:1; fill:red; " transform="" cy="637.795275591" cx="-956.409448819" r="5" id="B.t_bus" d="M -951.40942,637.79529 C -951.40942,640.55671 -953.648,642.79529 -956.40942,642.79529 -959.17085,642.79529 -961.40942,640.55671 -961.40942,637.79529 -961.40942,635.03386 -959.17085,632.79529 -956.40942,632.79529 -953.648,632.79529 -951.40942,635.03386 -951.40942,637.79529 z" />
      <text style="font-size:30; vertical-align:top; fill-opacity:1.0; fill:darkblue; text-anchor:right; stroke:none; font-weight:normal; font-style:italic; text-align:right; " transform="" id="B.t_bus.text" y="630.795275591" x="-949.409448819">
t_bus</text>
      <circle style="stroke:red; stroke-width:1; fill:red; " transform="" cy="637.795275591" cx="-383.761673202" r="5" id="B.BD1" d="M -378.76169,637.79529 C -378.76169,640.55671 -381.00026,642.79529 -383.76169,642.79529 -386.52311,642.79529 -388.76169,640.55671 -388.76169,637.79529 -388.76169,635.03386 -386.52311,632.79529 -383.76169,632.79529 -381.00026,632.79529 -378.76169,635.03386 -378.76169,637.79529 z" />
      <text style="font-size:30; vertical-align:top; fill-opacity:1.0; fill:darkblue; text-anchor:right; stroke:none; font-weight:normal; font-style:italic; text-align:right; " transform="" id="B.BD1.text" y="630.795275591" x="-376.761673202">
BD1</text>
      <circle style="stroke:red; stroke-width:1; fill:red; " transform="" cy="1359.3517714" cx="-305.61272326" r="5" id="B.BD1.i" d="M -300.61273,1359.3518 C -300.61273,1362.1132 -302.85131,1364.3518 -305.61273,1364.3518 -308.37416,1364.3518 -310.61273,1362.1132 -310.61273,1359.3518 -310.61273,1356.5904 -308.37416,1354.3518 -305.61273,1354.3518 -302.85131,1354.3518 -300.61273,1356.5904 -300.61273,1359.3518 z" />
      <text style="font-size:30; vertical-align:top; fill-opacity:1.0; fill:darkblue; text-anchor:right; stroke:none; font-weight:normal; font-style:italic; text-align:right; " transform="" id="B.BD1.i.text" y="1352.3517714" x="-298.61272326">
BD1.i</text>
      <circle style="stroke:gray; stroke-width:1; fill:none; " transform="" cy="1353.30133441" cx="-596.175389335" r="5" id="B.BD1.o.outpoint" d="M -591.17542,1353.3014 C -591.17542,1356.0628 -593.41399,1358.3014 -596.17542,1358.3014 -598.93684,1358.3014 -601.17542,1356.0628 -601.17542,1353.3014 -601.17542,1350.54 -598.93684,1348.3014 -596.17542,1348.3014 -593.41399,1348.3014 -591.17542,1350.54 -591.17542,1353.3014 z" />
      <text style="font-size:25; vertical-align:top; fill-opacity:1.0; fill:gray; text-anchor:right; stroke:none; font-weight:normal; font-style:italic; text-align:right; " transform="" id="B.BD1.o.outpoint.text" y="1346.30133441" x="-589.175389335">
BD1.o.out</text>
      <circle style="stroke:red; stroke-width:1; fill:red; " transform="" cy="1359.3517714" cx="-461.910623144" r="5" id="B.BD1.o" d="M -456.91061,1359.3518 C -456.91061,1362.1132 -459.14919,1364.3518 -461.91061,1364.3518 -464.67204,1364.3518 -466.91061,1362.1132 -466.91061,1359.3518 -466.91061,1356.5904 -464.67204,1354.3518 -461.91061,1354.3518 -459.14919,1354.3518 -456.91061,1356.5904 -456.91061,1359.3518 z" />
      <text style="font-size:30; vertical-align:top; fill-opacity:1.0; fill:darkblue; text-anchor:right; stroke:none; font-weight:normal; font-style:italic; text-align:right; " transform="" id="B.BD1.o.text" y="1352.3517714" x="-454.910623144">
BD1.o</text>
      <circle style="stroke:gray; stroke-width:1; fill:none; " transform="" cy="1363.86906872" cx="-361.667637468" r="5" id="B.BWS.inpoint" d="M -356.66763,1363.869 C -356.66763,1366.6304 -358.90621,1368.869 -361.66763,1368.869 -364.42906,1368.869 -366.66763,1366.6304 -366.66763,1363.869 -366.66763,1361.1076 -364.42906,1358.869 -361.66763,1358.869 -358.90621,1358.869 -356.66763,1361.1076 -356.66763,1363.869 z" />
      <text style="font-size:25; vertical-align:top; fill-opacity:1.0; fill:gray; text-anchor:right; stroke:none; font-weight:normal; font-style:italic; text-align:right; " transform="" id="B.BWS.inpoint.text" y="1356.86906872" x="-354.667637468">
BWS.in</text>
      <circle style="stroke:red; stroke-width:1; fill:red; " transform="" cy="1341.01711386" cx="-868.773550997" r="5" id="B.BWS" d="M -863.77356,1341.0171 C -863.77356,1343.7785 -866.01214,1346.0171 -868.77356,1346.0171 -871.53498,1346.0171 -873.77356,1343.7785 -873.77356,1341.0171 -873.77356,1338.2557 -871.53498,1336.0171 -868.77356,1336.0171 -866.01214,1336.0171 -863.77356,1338.2557 -863.77356,1341.0171 z" />
      <text style="font-size:30; vertical-align:top; fill-opacity:1.0; fill:darkblue; text-anchor:right; stroke:none; font-weight:normal; font-style:italic; text-align:right; " transform="" id="B.BWS.text" y="1334.01711386" x="-861.773550997">
BWS</text>
      <circle style="stroke:gray; stroke-width:1; fill:none; " transform="" cy="724.929767626" cx="-796.026850542" r="5" id="B.BUS.outpoint" d="M -791.02686,724.92975 C -791.02686,727.69117 -793.26543,729.92975 -796.02686,729.92975 -798.78828,729.92975 -801.02686,727.69117 -801.02686,724.92975 -801.02686,722.16832 -798.78828,719.92975 -796.02686,719.92975 -793.26543,719.92975 -791.02686,722.16832 -791.02686,724.92975 z" />
      <text style="font-size:25; vertical-align:top; fill-opacity:1.0; fill:gray; text-anchor:right; stroke:none; font-weight:normal; font-style:italic; text-align:right; " transform="" id="B.BUS.outpoint.text" y="717.929767626" x="-789.026850542">
BUS.out</text>
      <circle style="stroke:red; stroke-width:1; fill:red; " transform="" cy="743.278551331" cx="-943.264064146" r="5" id="B.BUS" d="M -938.26404,743.27856 C -938.26404,746.03999 -940.50261,748.27856 -943.26404,748.27856 -946.02546,748.27856 -948.26404,746.03999 -948.26404,743.27856 -948.26404,740.51714 -946.02546,738.27856 -943.26404,738.27856 -940.50261,738.27856 -938.26404,740.51714 -938.26404,743.27856 z" />
      <text style="font-size:30; vertical-align:top; fill-opacity:1.0; fill:darkblue; text-anchor:right; stroke:none; font-weight:normal; font-style:italic; text-align:right; " transform="" id="B.BUS.text" y="736.278551331" x="-936.264064146">
BUS</text>
      <circle style="stroke:red; stroke-width:1; fill:red; " transform="" cy="139.993979033" cx="-415.314857008" r="5" id="B.BD2" d="M -410.31485,139.99397 C -410.31485,142.7554 -412.55343,144.99397 -415.31485,144.99397 -418.07627,144.99397 -420.31485,142.7554 -420.31485,139.99397 -420.31485,137.23255 -418.07627,134.99397 -415.31485,134.99397 -412.55343,134.99397 -410.31485,137.23255 -410.31485,139.99397 z" />
      <text style="font-size:30; vertical-align:top; fill-opacity:1.0; fill:darkblue; text-anchor:right; stroke:none; font-weight:normal; font-style:italic; text-align:right; " transform="" id="B.BD2.text" y="132.993979033" x="-408.314857008">
BD2</text>
      <circle style="stroke:red; stroke-width:1; fill:red; " transform="" cy="-66.7825907043" cx="-502.844284109" r="5" id="B.BD2.i" d="M -497.8443,-66.782593 C -497.8443,-64.021169 -500.08288,-61.782593 -502.8443,-61.782593 -505.60572,-61.782593 -507.8443,-64.021169 -507.8443,-66.782593 -507.8443,-69.544017 -505.60572,-71.782593 -502.8443,-71.782593 -500.08288,-71.782593 -497.8443,-69.544017 -497.8443,-66.782593 z" />
      <text style="font-size:30; vertical-align:top; fill-opacity:1.0; fill:darkblue; text-anchor:right; stroke:none; font-weight:normal; font-style:italic; text-align:right; " transform="" id="B.BD2.i.text" y="-73.7825907043" x="-495.844284109">
BD2.i</text>
      <circle style="stroke:red; stroke-width:1; fill:red; " transform="" cy="-52.5885135469" cx="-530.770190158" r="5" id="B.BD2.o" d="M -525.7702,-52.588512 C -525.7702,-49.827089 -528.00878,-47.588512 -530.7702,-47.588512 -533.53163,-47.588512 -535.7702,-49.827089 -535.7702,-52.588512 -535.7702,-55.349936 -533.53163,-57.588512 -530.7702,-57.588512 -528.00878,-57.588512 -525.7702,-55.349936 -525.7702,-52.588512 z" />
      <text style="font-size:30; vertical-align:top; fill-opacity:1.0; fill:darkblue; text-anchor:right; stroke:none; font-weight:normal; font-style:italic; text-align:right; " transform="" id="B.BD2.o.text" y="-59.5885135469" x="-523.770190158">
BD2.o</text>
      <path style="stroke-linejoin:miter; stroke-dashoffset:0; stroke:gray; stroke-miterlimit:4; stroke-dasharray:6,6; stroke-width:2; fill:none; " transform="" d="M 0.0  1346.45669291 L -708.661417323  37.8293872947 L -708.661417323  -141.732283465 L 0.0  -141.732283465 L 0.0  637.795275591 L -956.409448819  637.795275591 L -943.264064146  743.278551331 " id="B.gridline" />
    </g>
    <g id="document.bodice.Bodice Sleeve.reference" transform=" translate(930.755317, 2256.100604)">
      <circle style="stroke:gray; stroke-width:1; fill:none; " transform="" cy="-5.38800948054" cx="96.3048709905" r="5" id="C.SCM.inpoint" d="M 101.30487,-5.3880095 C 101.30487,-2.6265858 99.066294,-0.38800955 96.304871,-0.38800955 93.543447,-0.38800955 91.304871,-2.6265858 91.304871,-5.3880095 91.304871,-8.1494333 93.543447,-10.38801 96.304871,-10.38801 99.066294,-10.38801 101.30487,-8.1494333 101.30487,-5.3880095 z" />
      <text style="font-size:25; vertical-align:top; fill-opacity:1.0; fill:gray; text-anchor:right; stroke:none; font-weight:normal; font-style:italic; text-align:right; " transform="" id="C.SCM.inpoint.text" y="-12.3880094805" x="103.304870991">
SCM.in</text>
      <circle style="stroke:gray; stroke-width:1; fill:none; " transform="" cy="5.26543238768" cx="-94.1139373708" r="5" id="C.SCM.outpoint" d="M -89.113937,5.2654324 C -89.113937,8.0268561 -91.352514,10.265432 -94.113937,10.265432 -96.875361,10.265432 -99.113937,8.0268561 -99.113937,5.2654324 -99.113937,2.5040086 -96.875361,0.26543236 -94.113937,0.26543236 -91.352514,0.26543236 -89.113937,2.5040086 -89.113937,5.2654324 z" />
      <text style="font-size:25; vertical-align:top; fill-opacity:1.0; fill:gray; text-anchor:right; stroke:none; font-weight:normal; font-style:italic; text-align:right; " transform="" id="C.SCM.outpoint.text" y="-1.73456761232" x="-87.1139373708">
SCM.out</text>
      <circle style="stroke:red; stroke-width:1; fill:red; " transform="" cy="0.0" cx="0.0" r="5" id="C.SCM" d="M 5,0 C 5,2.7614237 2.7614237,5 0,5 -2.7614237,5 -5,2.7614237 -5,0 -5,-2.7614237 -2.7614237,-5 0,-5 2.7614237,-5 5,-2.7614237 5,0 z" />
      <text style="font-size:30; vertical-align:top; fill-opacity:1.0; fill:darkblue; text-anchor:right; stroke:none; font-weight:normal; font-style:italic; text-align:right; " transform="" id="C.SCM.text" y="-7.0" x="7.0">
SCM</text>
      <circle style="stroke:red; stroke-width:1; fill:red; " transform="" cy="630.647901721" cx="0.0" r="5" id="C.SUM" d="M 5,630.64789 C 5,633.40931 2.7614237,635.64789 0,635.64789 -2.7614237,635.64789 -5,633.40931 -5,630.64789 -5,627.88646 -2.7614237,625.64789 0,625.64789 2.7614237,625.64789 5,627.88646 5,630.64789 z" />
      <text style="font-size:30; vertical-align:top; fill-opacity:1.0; fill:darkblue; text-anchor:right; stroke:none; font-weight:normal; font-style:italic; text-align:right; " transform="" id="C.SUM.text" y="623.647901721" x="7.0">
SUM</text>
      <circle style="stroke:red; stroke-width:1; fill:red; " transform="" cy="2374.01574803" cx="0.0" r="5" id="C.SWM" d="M 5,2374.0159 C 5,2376.7773 2.7614237,2379.0159 0,2379.0159 -2.7614237,2379.0159 -5,2376.7773 -5,2374.0159 -5,2371.2544 -2.7614237,2369.0159 0,2369.0159 2.7614237,2369.0159 5,2371.2544 5,2374.0159 z" />
      <text style="font-size:30; vertical-align:top; fill-opacity:1.0; fill:darkblue; text-anchor:right; stroke:none; font-weight:normal; font-style:italic; text-align:right; " transform="" id="C.SWM.text" y="2367.01574803" x="7.0">
SWM</text>
      <circle style="stroke:red; stroke-width:1; fill:red; " transform="" cy="1502.33182488" cx="0.0" r="5" id="C.SEM" d="M 5,1502.3318 C 5,1505.0932 2.7614237,1507.3318 0,1507.3318 -2.7614237,1507.3318 -5,1505.0932 -5,1502.3318 -5,1499.5704 -2.7614237,1497.3318 0,1497.3318 2.7614237,1497.3318 5,1499.5704 5,1502.3318 z" />
      <text style="font-size:30; vertical-align:top; fill-opacity:1.0; fill:darkblue; text-anchor:right; stroke:none; font-weight:normal; font-style:italic; text-align:right; " transform="" id="C.SEM.text" y="1495.33182488" x="7.0">
SEM</text>
      <circle style="stroke:gray; stroke-width:1; fill:none; " transform="" cy="581.376439105" cx="848.769590893" r="5" id="C.SUB.outpoint" d="M 853.76959,581.37646 C 853.76959,584.13789 851.53102,586.37646 848.76959,586.37646 846.00817,586.37646 843.76959,584.13789 843.76959,581.37646 843.76959,578.61504 846.00817,576.37646 848.76959,576.37646 851.53102,576.37646 853.76959,578.61504 853.76959,581.37646 z" />
      <text style="font-size:25; vertical-align:top; fill-opacity:1.0; fill:gray; text-anchor:right; stroke:none; font-weight:normal; font-style:italic; text-align:right; " transform="" id="C.SUB.outpoint.text" y="574.376439105" x="855.769590893">
SUB.out</text>
      <circle style="stroke:red; stroke-width:1; fill:red; " transform="" cy="630.647901721" cx="928.255317149" r="5" id="C.SUB" d="M 933.25531,630.64789 C 933.25531,633.40931 931.01673,635.64789 928.25531,635.64789 925.49389,635.64789 923.25531,633.40931 923.25531,630.64789 923.25531,627.88646 925.49389,625.64789 928.25531,625.64789 931.01673,625.64789 933.25531,627.88646 933.25531,630.64789 z" />
      <text style="font-size:30; vertical-align:top; fill-opacity:1.0; fill:darkblue; text-anchor:right; stroke:none; font-weight:normal; font-style:italic; text-align:right; " transform="" id="C.SUB.text" y="623.647901721" x="935.255317149">
SUB</text>
      <circle style="stroke:red; stroke-width:1; fill:red; " transform="" cy="2374.01574803" cx="928.255317149" r="5" id="C.SWB1" d="M 933.25531,2374.0159 C 933.25531,2376.7773 931.01673,2379.0159 928.25531,2379.0159 925.49389,2379.0159 923.25531,2376.7773 923.25531,2374.0159 923.25531,2371.2544 925.49389,2369.0159 928.25531,2369.0159 931.01673,2369.0159 933.25531,2371.2544 933.25531,2374.0159 z" />
      <text style="font-size:30; vertical-align:top; fill-opacity:1.0; fill:darkblue; text-anchor:right; stroke:none; font-weight:normal; font-style:italic; text-align:right; " transform="" id="C.SWB1.text" y="2367.01574803" x="935.255317149">
SWB1</text>
      <circle style="stroke:gray; stroke-width:1; fill:none; " transform="" cy="594.947082555" cx="-841.016509864" r="5" id="C.SUF.inpoint" d="M -836.01648,594.94708 C -836.01648,597.70851 -838.25506,599.94708 -841.01648,599.94708 -843.7779,599.94708 -846.01648,597.70851 -846.01648,594.94708 -846.01648,592.18566 -843.7779,589.94708 -841.01648,589.94708 -838.25506,589.94708 -836.01648,592.18566 -836.01648,594.94708 z" />
      <text style="font-size:25; vertical-align:top; fill-opacity:1.0; fill:gray; text-anchor:right; stroke:none; font-weight:normal; font-style:italic; text-align:right; " transform="" id="C.SUF.inpoint.text" y="587.947082555" x="-834.016509864">
SUF.in</text>
      <circle style="stroke:gray; stroke-width:1; fill:none; " transform="" cy="898.890181802" cx="-761.118583384" r="5" id="C.SUF.outpoint" d="M -756.11859,898.8902 C -756.11859,901.65162 -758.35717,903.8902 -761.11859,903.8902 -763.88002,903.8902 -766.11859,901.65162 -766.11859,898.8902 -766.11859,896.12877 -763.88002,893.8902 -761.11859,893.8902 -758.35717,893.8902 -756.11859,896.12877 -756.11859,898.8902 z" />
      <text style="font-size:25; vertical-align:top; fill-opacity:1.0; fill:gray; text-anchor:right; stroke:none; font-weight:normal; font-style:italic; text-align:right; " transform="" id="C.SUF.outpoint.text" y="891.890181802" x="-754.118583384">
SUF.out</text>
      <circle style="stroke:red; stroke-width:1; fill:red; " transform="" cy="630.647901721" cx="-928.255317149" r="5" id="C.SUF" d="M -923.25531,630.64789 C -923.25531,633.40931 -925.49389,635.64789 -928.25531,635.64789 -931.01673,635.64789 -933.25531,633.40931 -933.25531,630.64789 -933.25531,627.88646 -931.01673,625.64789 -928.25531,625.64789 -925.49389,625.64789 -923.25531,627.88646 -923.25531,630.64789 z" />
      <text style="font-size:30; vertical-align:top; fill-opacity:1.0; fill:darkblue; text-anchor:right; stroke:none; font-weight:normal; font-style:italic; text-align:right; " transform="" id="C.SUF.text" y="623.647901721" x="-921.255317149">
SUF</text>
      <circle style="stroke:red; stroke-width:1; fill:red; " transform="" cy="2374.01574803" cx="-928.255317149" r="5" id="C.SWF1" d="M -923.25531,2374.0159 C -923.25531,2376.7773 -925.49389,2379.0159 -928.25531,2379.0159 -931.01673,2379.0159 -933.25531,2376.7773 -933.25531,2374.0159 -933.25531,2371.2544 -931.01673,2369.0159 -928.25531,2369.0159 -925.49389,2369.0159 -923.25531,2371.2544 -923.25531,2374.0159 z" />
      <text style="font-size:30; vertical-align:top; fill-opacity:1.0; fill:darkblue; text-anchor:right; stroke:none; font-weight:normal; font-style:italic; text-align:right; " transform="" id="C.SWF1.text" y="2367.01574803" x="-921.255317149">
SWF1</text>
      <circle style="stroke:gray; stroke-width:1; fill:none; " transform="" cy="531.844731688" cx="768.864032429" r="5" id="C.s1.inpoint" d="M 773.86401,531.84473 C 773.86401,534.60615 771.62544,536.84473 768.86401,536.84473 766.10259,536.84473 763.86401,534.60615 763.86401,531.84473 763.86401,529.0833 766.10259,526.84473 768.86401,526.84473 771.62544,526.84473 773.86401,529.0833 773.86401,531.84473 z" />
      <text style="font-size:25; vertical-align:top; fill-opacity:1.0; fill:gray; text-anchor:right; stroke:none; font-weight:normal; font-style:italic; text-align:right; " transform="" id="C.s1.inpoint.text" y="524.844731688" x="775.864032429">
s1.in</text>
      <circle style="stroke:gray; stroke-width:1; fill:none; " transform="" cy="354.333184452" cx="549.691799136" r="5" id="C.s1.outpoint" d="M 554.69177,354.33319 C 554.69177,357.09461 552.4532,359.33319 549.69177,359.33319 546.93035,359.33319 544.69177,357.09461 544.69177,354.33319 544.69177,351.57177 546.93035,349.33319 549.69177,349.33319 552.4532,349.33319 554.69177,351.57177 554.69177,354.33319 z" />
      <text style="font-size:25; vertical-align:top; fill-opacity:1.0; fill:gray; text-anchor:right; stroke:none; font-weight:normal; font-style:italic; text-align:right; " transform="" id="C.s1.outpoint.text" y="347.333184452" x="556.691799136">
s1.out</text>
      <circle style="stroke:red; stroke-width:1; fill:red; " transform="" cy="472.985926291" cx="696.191487861" r="5" id="C.s1" d="M 701.19147,472.98593 C 701.19147,475.74736 698.95289,477.98593 696.19147,477.98593 693.43004,477.98593 691.19147,475.74736 691.19147,472.98593 691.19147,470.22451 693.43004,467.98593 696.19147,467.98593 698.95289,467.98593 701.19147,470.22451 701.19147,472.98593 z" />
      <text style="font-size:30; vertical-align:top; fill-opacity:1.0; fill:darkblue; text-anchor:right; stroke:none; font-weight:normal; font-style:italic; text-align:right; " transform="" id="C.s1.text" y="465.985926291" x="703.191487861">
s1</text>
      <circle style="stroke:gray; stroke-width:1; fill:none; " transform="" cy="204.987224306" cx="427.826345632" r="5" id="C.s2.inpoint" d="M 432.82635,204.98723 C 432.82635,207.74865 430.58778,209.98723 427.82635,209.98723 425.06493,209.98723 422.82635,207.74865 422.82635,204.98723 422.82635,202.2258 425.06493,199.98723 427.82635,199.98723 430.58778,199.98723 432.82635,202.2258 432.82635,204.98723 z" />
      <text style="font-size:25; vertical-align:top; fill-opacity:1.0; fill:gray; text-anchor:right; stroke:none; font-weight:normal; font-style:italic; text-align:right; " transform="" id="C.s2.inpoint.text" y="197.987224306" x="434.826345632">
s2.in</text>
      <circle style="stroke:gray; stroke-width:1; fill:none; " transform="" cy="44.8396517624" cx="192.103947545" r="5" id="C.s2.outpoint" d="M 197.10394,44.839653 C 197.10394,47.601077 194.86537,49.839653 192.10394,49.839653 189.34252,49.839653 187.10394,47.601077 187.10394,44.839653 187.10394,42.078229 189.34252,39.839653 192.10394,39.839653 194.86537,39.839653 197.10394,42.078229 197.10394,44.839653 z" />
      <text style="font-size:25; vertical-align:top; fill-opacity:1.0; fill:gray; text-anchor:right; stroke:none; font-weight:normal; font-style:italic; text-align:right; " transform="" id="C.s2.outpoint.text" y="37.8396517624" x="199.103947545">
s2.out</text>
      <circle style="stroke:red; stroke-width:1; fill:red; " transform="" cy="99.0442786273" cx="271.888139269" r="5" id="C.s2" d="M 276.88815,99.044281 C 276.88815,101.8057 274.64958,104.04428 271.88815,104.04428 269.12673,104.04428 266.88815,101.8057 266.88815,99.044281 266.88815,96.282857 269.12673,94.044281 271.88815,94.044281 274.64958,94.044281 276.88815,96.282857 276.88815,99.044281 z" />
      <text style="font-size:30; vertical-align:top; fill-opacity:1.0; fill:darkblue; text-anchor:right; stroke:none; font-weight:normal; font-style:italic; text-align:right; " transform="" id="C.s2.text" y="92.0442786273" x="278.888139269">
s2</text>
      <circle style="stroke:gray; stroke-width:1; fill:none; " transform="" cy="72.149029563" cx="-176.303945758" r="5" id="C.s3.inpoint" d="M -171.30394,72.149033 C -171.30394,74.910456 -173.54252,77.149033 -176.30394,77.149033 -179.06536,77.149033 -181.30394,74.910456 -181.30394,72.149033 -181.30394,69.387609 -179.06536,67.149033 -176.30394,67.149033 -173.54252,67.149033 -171.30394,69.387609 -171.30394,72.149033 z" />
      <text style="font-size:25; vertical-align:top; fill-opacity:1.0; fill:gray; text-anchor:right; stroke:none; font-weight:normal; font-style:italic; text-align:right; " transform="" id="C.s3.inpoint.text" y="65.149029563" x="-169.303945758">
s3.in</text>
      <circle style="stroke:gray; stroke-width:1; fill:none; " transform="" cy="240.76132196" cx="-403.320061317" r="5" id="C.s3.outpoint" d="M -398.32007,240.76132 C -398.32007,243.52275 -400.55864,245.76132 -403.32007,245.76132 -406.08149,245.76132 -408.32007,243.52275 -408.32007,240.76132 -408.32007,237.9999 -406.08149,235.76132 -403.32007,235.76132 -400.55864,235.76132 -398.32007,237.9999 -398.32007,240.76132 z" />
      <text style="font-size:25; vertical-align:top; fill-opacity:1.0; fill:gray; text-anchor:right; stroke:none; font-weight:normal; font-style:italic; text-align:right; " transform="" id="C.s3.outpoint.text" y="233.76132196" x="-396.320061317">
s3.out</text>
      <circle style="stroke:red; stroke-width:1; fill:red; " transform="" cy="128.353127029" cx="-251.975984278" r="5" id="C.s3" d="M -246.97598,128.35313 C -246.97598,131.11456 -249.21456,133.35313 -251.97598,133.35313 -254.73741,133.35313 -256.97598,131.11456 -256.97598,128.35313 -256.97598,125.59171 -254.73741,123.35313 -251.97598,123.35313 -249.21456,123.35313 -246.97598,125.59171 -246.97598,128.35313 z" />
      <text style="font-size:30; vertical-align:top; fill-opacity:1.0; fill:darkblue; text-anchor:right; stroke:none; font-weight:normal; font-style:italic; text-align:right; " transform="" id="C.s3.text" y="121.353127029" x="-244.975984278">
s3</text>
      <circle style="stroke:gray; stroke-width:1; fill:none; " transform="" cy="389.886579761" cx="-524.935255831" r="5" id="C.s4.inpoint" d="M -519.93524,389.88657 C -519.93524,392.64799 -522.17382,394.88657 -524.93524,394.88657 -527.69667,394.88657 -529.93524,392.64799 -529.93524,389.88657 -529.93524,387.12514 -527.69667,384.88657 -524.93524,384.88657 -522.17382,384.88657 -519.93524,387.12514 -519.93524,389.88657 z" />
      <text style="font-size:25; vertical-align:top; fill-opacity:1.0; fill:gray; text-anchor:right; stroke:none; font-weight:normal; font-style:italic; text-align:right; " transform="" id="C.s4.inpoint.text" y="382.886579761" x="-517.935255831">
s4.in</text>
      <circle style="stroke:gray; stroke-width:1; fill:none; " transform="" cy="558.498872158" cx="-751.95137139" r="5" id="C.s4.outpoint" d="M -746.95135,558.4989 C -746.95135,561.26033 -749.18993,563.4989 -751.95135,563.4989 -754.71278,563.4989 -756.95135,561.26033 -756.95135,558.4989 -756.95135,555.73748 -754.71278,553.4989 -751.95135,553.4989 -749.18993,553.4989 -746.95135,555.73748 -746.95135,558.4989 z" />
      <text style="font-size:25; vertical-align:top; fill-opacity:1.0; fill:gray; text-anchor:right; stroke:none; font-weight:normal; font-style:italic; text-align:right; " transform="" id="C.s4.outpoint.text" y="551.498872158" x="-744.95137139">
s4.out</text>
      <circle style="stroke:red; stroke-width:1; fill:red; " transform="" cy="502.294774692" cx="-676.27933287" r="5" id="C.s4" d="M -671.27936,502.29477 C -671.27936,505.05619 -673.51793,507.29477 -676.27936,507.29477 -679.04078,507.29477 -681.27936,505.05619 -681.27936,502.29477 -681.27936,499.53335 -679.04078,497.29477 -676.27936,497.29477 -673.51793,497.29477 -671.27936,499.53335 -671.27936,502.29477 z" />
      <text style="font-size:30; vertical-align:top; fill-opacity:1.0; fill:darkblue; text-anchor:right; stroke:none; font-weight:normal; font-style:italic; text-align:right; " transform="" id="C.s4.text" y="495.294774692" x="-669.27933287">
s4</text>
      <circle style="stroke:red; stroke-width:1; fill:red; " transform="" cy="2374.01574803" cx="396.850393701" r="5" id="C.SWB3" d="M 401.8504,2374.0159 C 401.8504,2376.7773 399.61183,2379.0159 396.8504,2379.0159 394.08898,2379.0159 391.8504,2376.7773 391.8504,2374.0159 391.8504,2371.2544 394.08898,2369.0159 396.8504,2369.0159 399.61183,2369.0159 401.8504,2371.2544 401.8504,2374.0159 z" />
      <text style="font-size:30; vertical-align:top; fill-opacity:1.0; fill:darkblue; text-anchor:right; stroke:none; font-weight:normal; font-style:italic; text-align:right; " transform="" id="C.SWB3.text" y="2367.01574803" x="403.850393701">
SWB3</text>
      <circle style="stroke:red; stroke-width:1; fill:red; " transform="" cy="2374.01574803" cx="-396.850393701" r="5" id="C.SWF3" d="M -391.8504,2374.0159 C -391.8504,2376.7773 -394.08898,2379.0159 -396.8504,2379.0159 -399.61183,2379.0159 -401.8504,2376.7773 -401.8504,2374.0159 -401.8504,2371.2544 -399.61183,2369.0159 -396.8504,2369.0159 -394.08898,2369.0159 -391.8504,2371.2544 -391.8504,2374.0159 z" />
      <text style="font-size:30; vertical-align:top; fill-opacity:1.0; fill:darkblue; text-anchor:right; stroke:none; font-weight:normal; font-style:italic; text-align:right; " transform="" id="C.SWF3.text" y="2367.01574803" x="-389.850393701">
SWF3</text>
      <circle style="stroke:red; stroke-width:1; fill:red; " transform="" cy="2374.01574803" cx="662.552855425" r="5" id="C.SWB2" d="M 667.55286,2374.0159 C 667.55286,2376.7773 665.31428,2379.0159 662.55286,2379.0159 659.79143,2379.0159 657.55286,2376.7773 657.55286,2374.0159 657.55286,2371.2544 659.79143,2369.0159 662.55286,2369.0159 665.31428,2369.0159 667.55286,2371.2544 667.55286,2374.0159 z" />
      <text style="font-size:30; vertical-align:top; fill-opacity:1.0; fill:darkblue; text-anchor:right; stroke:none; font-weight:normal; font-style:italic; text-align:right; " transform="" id="C.SWB2.text" y="2367.01574803" x="669.552855425">
SWB2</text>
      <circle style="stroke:red; stroke-width:1; fill:red; " transform="" cy="2374.01574803" cx="-662.552855425" r="5" id="C.SWF2" d="M -657.55286,2374.0159 C -657.55286,2376.7773 -659.79143,2379.0159 -662.55286,2379.0159 -665.31428,2379.0159 -667.55286,2376.7773 -667.55286,2374.0159 -667.55286,2371.2544 -665.31428,2369.0159 -662.55286,2369.0159 -659.79143,2369.0159 -657.55286,2371.2544 -657.55286,2374.0159 z" />
      <text style="font-size:30; vertical-align:top; fill-opacity:1.0; fill:darkblue; text-anchor:right; stroke:none; font-weight:normal; font-style:italic; text-align:right; " transform="" id="C.SWF2.text" y="2367.01574803" x="-655.552855425">
SWF2</text>
      <circle style="stroke:red; stroke-width:1; fill:red; " transform="" cy="1502.33182488" cx="690.94488189" r="5" id="C.SEB" d="M 695.94489,1502.3318 C 695.94489,1505.0932 693.70631,1507.3318 690.94489,1507.3318 688.18346,1507.3318 685.94489,1505.0932 685.94489,1502.3318 685.94489,1499.5704 688.18346,1497.3318 690.94489,1497.3318 693.70631,1497.3318 695.94489,1499.5704 695.94489,1502.3318 z" />
      <text style="font-size:30; vertical-align:top; fill-opacity:1.0; fill:darkblue; text-anchor:right; stroke:none; font-weight:normal; font-style:italic; text-align:right; " transform="" id="C.SEB.text" y="1495.33182488" x="697.94488189">
SEB</text>
      <circle style="stroke:gray; stroke-width:1; fill:none; " transform="" cy="1189.98453857" cx="-579.743149235" r="5" id="C.SEF.inpoint" d="M -574.74316,1189.9845 C -574.74316,1192.7459 -576.98174,1194.9845 -579.74316,1194.9845 -582.50459,1194.9845 -584.74316,1192.7459 -584.74316,1189.9845 -584.74316,1187.2231 -582.50459,1184.9845 -579.74316,1184.9845 -576.98174,1184.9845 -574.74316,1187.2231 -574.74316,1189.9845 z" />
      <text style="font-size:25; vertical-align:top; fill-opacity:1.0; fill:gray; text-anchor:right; stroke:none; font-weight:normal; font-style:italic; text-align:right; " transform="" id="C.SEF.inpoint.text" y="1182.98453857" x="-572.743149235">
SEF.in</text>
      <circle style="stroke:red; stroke-width:1; fill:red; " transform="" cy="1502.33182488" cx="-531.496062992" r="5" id="C.SEF" d="M -526.49603,1502.3318 C -526.49603,1505.0932 -528.73461,1507.3318 -531.49603,1507.3318 -534.25746,1507.3318 -536.49603,1505.0932 -536.49603,1502.3318 -536.49603,1499.5704 -534.25746,1497.3318 -531.49603,1497.3318 -528.73461,1497.3318 -526.49603,1499.5704 -526.49603,1502.3318 z" />
      <text style="font-size:30; vertical-align:top; fill-opacity:1.0; fill:darkblue; text-anchor:right; stroke:none; font-weight:normal; font-style:italic; text-align:right; " transform="" id="C.SEF.text" y="1495.33182488" x="-524.496062992">
SEF</text>
      <circle style="stroke:red; stroke-width:1; fill:red; " transform="" cy="1502.33182488" cx="483.661417323" r="5" id="C.SD1" d="M 488.66141,1502.3318 C 488.66141,1505.0932 486.42283,1507.3318 483.66141,1507.3318 480.89998,1507.3318 478.66141,1505.0932 478.66141,1502.3318 478.66141,1499.5704 480.89998,1497.3318 483.66141,1497.3318 486.42283,1497.3318 488.66141,1499.5704 488.66141,1502.3318 z" />
      <text style="font-size:30; vertical-align:top; fill-opacity:1.0; fill:darkblue; text-anchor:right; stroke:none; font-weight:normal; font-style:italic; text-align:right; " transform="" id="C.SD1.text" y="1495.33182488" x="490.661417323">
SD1</text>
      <circle style="stroke:red; stroke-width:1; fill:red; " transform="" cy="1527.74789301" cx="684.025518081" r="5" id="C.SD1.i" d="M 689.02551,1527.7479 C 689.02551,1530.5093 686.78694,1532.7479 684.02551,1532.7479 681.26409,1532.7479 679.02551,1530.5093 679.02551,1527.7479 679.02551,1524.9865 681.26409,1522.7479 684.02551,1522.7479 686.78694,1522.7479 689.02551,1524.9865 689.02551,1527.7479 z" />
      <text style="font-size:30; vertical-align:top; fill-opacity:1.0; fill:darkblue; text-anchor:right; stroke:none; font-weight:normal; font-style:italic; text-align:right; " transform="" id="C.SD1.i.text" y="1520.74789301" x="691.025518081">
SD1.i</text>
      <circle style="stroke:red; stroke-width:1; fill:red; " transform="" cy="1581.99114857" cx="669.258134807" r="5" id="C.SD1.o" d="M 674.25812,1581.9911 C 674.25812,1584.7525 672.01954,1586.9911 669.25812,1586.9911 666.49669,1586.9911 664.25812,1584.7525 664.25812,1581.9911 664.25812,1579.2297 666.49669,1576.9911 669.25812,1576.9911 672.01954,1576.9911 674.25812,1579.2297 674.25812,1581.9911 z" />
      <text style="font-size:30; vertical-align:top; fill-opacity:1.0; fill:darkblue; text-anchor:right; stroke:none; font-weight:normal; font-style:italic; text-align:right; " transform="" id="C.SD1.o.text" y="1574.99114857" x="676.258134807">
SD1.o</text>
      <circle style="stroke:red; stroke-width:1; fill:red; " transform="" cy="2496.06966424" cx="354.871354628" r="5" id="C.SWB4" d="M 359.87137,2496.0696 C 359.87137,2498.831 357.63279,2501.0696 354.87137,2501.0696 352.10994,2501.0696 349.87137,2498.831 349.87137,2496.0696 349.87137,2493.3082 352.10994,2491.0696 354.87137,2491.0696 357.63279,2491.0696 359.87137,2493.3082 359.87137,2496.0696 z" />
      <text style="font-size:30; vertical-align:top; fill-opacity:1.0; fill:darkblue; text-anchor:right; stroke:none; font-weight:normal; font-style:italic; text-align:right; " transform="" id="C.SWB4.text" y="2489.06966424" x="361.871354628">
SWB4</text>
      <circle style="stroke:gray; stroke-width:1; fill:none; " transform="" cy="2389.2594597" cx="123.691119611" r="5" id="C.SWB.inpoint" d="M 128.69112,2389.2595 C 128.69112,2392.0209 126.45254,2394.2595 123.69112,2394.2595 120.92969,2394.2595 118.69112,2392.0209 118.69112,2389.2595 118.69112,2386.4981 120.92969,2384.2595 123.69112,2384.2595 126.45254,2384.2595 128.69112,2386.4981 128.69112,2389.2595 z" />
      <text style="font-size:25; vertical-align:top; fill-opacity:1.0; fill:gray; text-anchor:right; stroke:none; font-weight:normal; font-style:italic; text-align:right; " transform="" id="C.SWB.inpoint.text" y="2382.2594597" x="130.691119611">
SWB.in</text>
      <circle style="stroke:red; stroke-width:1; fill:red; " transform="" cy="2471.658881" cx="363.267162443" r="5" id="C.SWB" d="M 368.26715,2471.6589 C 368.26715,2474.4204 366.02857,2476.6589 363.26715,2476.6589 360.50573,2476.6589 358.26715,2474.4204 358.26715,2471.6589 358.26715,2468.8975 360.50573,2466.6589 363.26715,2466.6589 366.02857,2466.6589 368.26715,2468.8975 368.26715,2471.6589 z" />
      <text style="font-size:30; vertical-align:top; fill-opacity:1.0; fill:darkblue; text-anchor:right; stroke:none; font-weight:normal; font-style:italic; text-align:right; " transform="" id="C.SWB.text" y="2464.658881" x="370.267162443">
SWB</text>
      <circle style="stroke:gray; stroke-width:1; fill:none; " transform="" cy="2359.08555192" cx="-142.801736541" r="5" id="C.SWF.outpoint" d="M -137.80174,2359.0854 C -137.80174,2361.8469 -140.04032,2364.0854 -142.80174,2364.0854 -145.56317,2364.0854 -147.80174,2361.8469 -147.80174,2359.0854 -147.80174,2356.324 -145.56317,2354.0854 -142.80174,2354.0854 -140.04032,2354.0854 -137.80174,2356.324 -137.80174,2359.0854 z" />
      <text style="font-size:25; vertical-align:top; fill-opacity:1.0; fill:gray; text-anchor:right; stroke:none; font-weight:normal; font-style:italic; text-align:right; " transform="" id="C.SWF.outpoint.text" y="2352.08555192" x="-135.801736541">
SWF.out</text>
      <circle style="stroke:red; stroke-width:1; fill:red; " transform="" cy="2397.76091784" cx="-393.182568476" r="5" id="C.SWF" d="M -388.18256,2397.761 C -388.18256,2400.5224 -390.42113,2402.761 -393.18256,2402.761 -395.94398,2402.761 -398.18256,2400.5224 -398.18256,2397.761 -398.18256,2394.9996 -395.94398,2392.761 -393.18256,2392.761 -390.42113,2392.761 -388.18256,2394.9996 -388.18256,2397.761 z" />
      <text style="font-size:30; vertical-align:top; fill-opacity:1.0; fill:darkblue; text-anchor:right; stroke:none; font-weight:normal; font-style:italic; text-align:right; " transform="" id="C.SWF.text" y="2390.76091784" x="-386.182568476">
SWF</text>
      <path style="stroke-linejoin:miter; stroke-dashoffset:0; stroke:gray; stroke-miterlimit:4; stroke-dasharray:6,6; stroke-width:2; fill:none; " transform="" d="M 0.0  0.0 L 0.0  2374.01574803 M -928.255317149  630.647901721 L -928.255317149  2374.01574803 M 928.255317149  630.647901721 L 928.255317149  2374.01574803 M 928.255317149  630.647901721 L 0.0  0.0 L -928.255317149  630.647901721 M 928.255317149  630.647901721 L 662.552855425  2374.01574803 M 690.94488189  1502.33182488 L 396.850393701  2374.01574803 M -928.255317149  630.647901721 L -662.552855425  2374.01574803 M -531.496062992  1502.33182488 L -396.850393701  2374.01574803 M 928.255317149  630.647901721 L -928.255317149  630.647901721 M 690.94488189  1502.33182488 L -531.496062992  1502.33182488 M 928.255317149  2374.01574803 L -928.255317149  2374.01574803 " id="C.gridline" />
    </g>
  </g>
</svg>
