<?xml version="1.0" encoding="UTF-8" standalone="no"?>
<svg xmlns:dc="http://purl.org/dc/elements/1.1/" xmlns:cc="http://creativecommons.org/ns#" xmlns:rdf="http://www.w3.org/1999/02/22-rdf-syntax-ns#" xmlns:svg="http://www.w3.org/2000/svg" xmlns="http://www.w3.org/2000/svg" xmlns:sodipodi="http://sodipodi.sourceforge.net/DTD/sodipodi-0.dtd" xmlns:inkscape="http://www.inkscape.org/namespaces/inkscape" patternNumber="MR_B1" fitBoxtoViewport="True" companyName="Next Patterns" currentscale="0.5:1" margin-right="88.5826771654" client-name="DressFormLg" designerName="S.L.Spencer" height="17481.7678555" width="115311.094305" margin-top="88.5826771654" version="1.1" margin-bottom="88.5826771654" margin-left="88.5826771654" preserveAspectRatio="xMidYMid meet" id="svg2" inkscape:version="0.48.4 r9939" sodipodi:docname="Susan-spencer_bodice_short-2014-12-20-0827.svg">
  <metadata id="metadata300">
    <rdf:RDF>
      <cc:Work rdf:about="">
        <dc:format>image/svg+xml</dc:format>
        <dc:type rdf:resource="http://purl.org/dc/dcmitype/StillImage" />
      </cc:Work>
    </rdf:RDF>
  </metadata>
  <sodipodi:namedview id="base" pagecolor="#ffffff" bordercolor="#666666" borderopacity="1.0" inkscape:pageopacity="0.0" inkscape:pageshadow="2" inkscape:zoom="0.014551939" inkscape:document-units="pt" showgrid="false" inkscape:window-maximized="1" inkscape:cx="57655.547" inkscape:cy="8740.8838" inkscape:window-width="1855" inkscape:window-height="1056" inkscape:window-x="65" inkscape:window-y="24" inkscape:current-layer="pattern" />
  <defs id="defs5">
    <marker style="overflow:visible" id="Arrow1Mstart" refX="0.0" refY="0.0" orient="auto" inkscape:stockid="Arrow1Mstart">
      <path transform="scale(0.4) translate(10,0)" style="fill-rule:evenodd;stroke:#000000;stroke-width:1.0pt;marker-start:none" d="M 0.0,0.0 L 5.0,-5.0 L -12.5,0.0 L 5.0,5.0 L 0.0,0.0 z " id="path8" />
    </marker>
    <marker style="overflow:visible;" id="Arrow1Mend" refX="0.0" refY="0.0" orient="auto" inkscape:stockid="Arrow1Mend">
      <path transform="scale(0.4) rotate(180) translate(10,0)" style="fill-rule:evenodd;stroke:#000000;stroke-width:1.0pt;marker-start:none;" d="M 0.0,0.0 L 5.0,-5.0 L -12.5,0.0 L 5.0,5.0 L 0.0,0.0 z " id="path11" />
    </marker>
  </defs>
  <g inkscape:label="Label-pattern" id="pattern" inkscape:groupmode="layer" transform="translate(88.582677,88.582677)">
    <g id="document.bodice.Bodice Front.pattern" transform=" translate(262.845877, 719.449921)">
      <g id="A.letter" transform="matrix(10.000000, 0, 0, 10.000000, -3228.838583, -1030.039370)">
        <text style="font-size:24; vertical-align:top; fill-opacity:1.0; fill:#000000; text-anchor:start; stroke:none; font-weight:normal; font-style:normal; text-align:right; " transform="" id="A.letter.letterline" y="114.448818898" x="358.75984252">
A</text>
      </g>
      <line style="stroke-linejoin:miter; stroke:green; stroke-width:4; stroke-miterlimit:4; fill:none; " y2="1089.56692913" marker-end="url(#Arrow1Mend)" marker-start="url(#Arrow1Mstart)" transform="" x2="133.455818164" y1="159.448818898" x1="133.455818164" id="A.grainline" />
      <path style="stroke-linejoin:miter; stroke-dashoffset:0; stroke:green; stroke-miterlimit:4; stroke-dasharray:6,6; stroke-width:3; fill:none; " transform="" d="M 268.382591133  1350.9958829 L 354.330708661  748.346456693 L 440.27882619  1350.9958829 M 1099.8573543  675.078375698 L 436.186310261  686.336120106 L 1076.49262278  861.247004991 " id="A.dartline" />
      <path style="stroke-linejoin:miter; stroke-dashoffset:0; stroke:green; stroke-dasharray:24,6; stroke-miterlimit:4; stroke-width:4; fill:none; " transform="" d="M 0.0  0.0 L 0.0  1278.42519685 C 91.3571325492  1278.42519685  157.936420394  1278.42519685  276.324442757  1295.30935407 L 354.330708661  1312.94129447 L 432.336974566  1295.30935407 C -204.095876888  1386.07556596  820.674347227  1188.85629798  1017.22302229  1178.70920847 L 1022.23072638  846.424417537 L 1023.53243586  760.049852571 L 1043.61544518  676.032398091 L 977.751964718  414.156569068 C 813.693014409  456.155209878  639.566929134  371.13559003  639.566929134  159.448818898 C 639.566929134  42.8846899558  706.527590921  -133.235861813  717.519685039  -185.066796591 L 266.911636328  -280.62992126 C 237.801638352  -143.367777191  160.146981797  0.0  0.0  0.0 " id="A.seamline" />
      <path style="fill:none;stroke:#008000;stroke-width:4;stroke-linejoin:miter;stroke-miterlimit:4" d="M 211.90625,-292.375 C 198.98441,-232.95872 177.9739,-173.65789 139.84041,-125.44081 113.60648,-91.940678 76.012405,-66.103582 33.469056,-59.114872 4.4568244,-54.204763 -25.153352,-56.850557 -54.466843,-55.796235 -58.498516,-53.533097 -55.156094,-43.957571 -56.25,-38.78125 -56.25,419.04167 -56.25,876.86458 -56.25,1334.6875 20.76985,1334.9538 97.990851,1333.1645 174.6875,1340.0625 178.35626,1347.3161 181.01497,1355.3801 188.48431,1359.6273 202.81583,1373.4798 223.58395,1376.699 242.74857,1375.1028 273.11146,1373.5789 303.33955,1368.8115 333.47558,1365.9072 343.35665,1367.4532 353.24214,1372.6929 363.12577,1368.625 390.55603,1362.1804 418.40332,1356.6598 445.56662,1349.6103 461.34501,1338.8008 476.67722,1326.9394 492.73254,1316.7827 537.79408,1308.3252 582.96083,1300.1736 628.0625,1292.25 621.48958,1290.5521 614.91667,1288.8542 608.34375,1287.1562 605.57292,1271.5833 602.80208,1256.0104 600.03125,1240.4375 602.78125,1256 605.53125,1271.5625 608.28125,1287.125 600.38542,1285.0938 592.48958,1283.0625 584.59375,1281.0312 583.02083,1272.25 581.44792,1263.4688 579.875,1254.6875 581.4375,1263.4583 583,1272.2292 584.5625,1281 576.72917,1278.9792 568.89583,1276.9583 561.0625,1274.9375 557.04686,1267.7429 565.2424,1265.5438 569.74367,1261.8334 594.87869,1244.0697 620.04763,1226.291 645.1875,1208.5 649.95833,1234.5937 654.72917,1260.6875 659.5,1286.7812 765.851,1268.7297 872.35692,1250.6351 979.551,1238.3796 1010.4653,1234.7225 1041.6048,1233.9588 1072.6562,1232.125 1075.0416,1077.1361 1077.3167,922.14542 1079.6875,767.15625 1086.9645,736.66565 1094.2926,706.18723 1101.5312,675.6875 1073.9115,565.73043 1046.2398,455.78635 1018.5625,345.84375 978.79466,355.34842 939.2448,368.80578 897.87512,368.30299 842.57582,369.0128 784.86318,349.92342 746.9375,308.46875 710.69594,269.78769 696.19625,215.51989 695.84375,163.65625 695.84769,107.63293 709.13148,52.81446 722.95175,-1.1510215 737.22393,-56.615352 756.16092,-110.75564 770.90625,-166.1875 775.6319,-186.87183 780.2294,-207.58568 784.90625,-228.28125 597.81143,-267.95328 410.71669,-307.62571 223.625,-347.3125 219.71875,-329 215.8125,-310.6875 211.90625,-292.375 z M 653.75,1287.75 C 650.7088,1269.4043 647.35067,1250.792 644.1875,1232.3438 647.375,1250.8125 650.5625,1269.2813 653.75,1287.75 z M 631.6875,1291.5938 C 628.84704,1273.3763 625.20956,1254.6144 622.0625,1236.1875 625.27083,1254.6562 628.47917,1273.125 631.6875,1291.5938 z M 561,1274.9062 C 549.48149,1276.6676 558.82379,1265.4654 560.43362,1271.7345 560.62241,1272.7918 560.81121,1273.849 561,1274.9062 z" id="A.cuttingline" inkscape:connector-curvature="0" />
      <g id="A.info" transform="">
        <text style="font-size:12; vertical-align:top; fill-opacity:1.0; fill:#000000; text-anchor:start; stroke:none; font-weight:normal; font-style:normal; text-align:right; " transform="" id="A.info.lineNext Patterns" y="159.448818898" x="358.75984252">
Next Patterns</text>
        <text style="font-size:12; vertical-align:top; fill-opacity:1.0; fill:#000000; text-anchor:start; stroke:none; font-weight:normal; font-style:normal; text-align:right; " transform="" id="A.info.lineMR_B1" y="173.848818898" x="358.75984252">
MR_B1</text>
        <text style="font-size:12; vertical-align:top; fill-opacity:1.0; fill:#000000; text-anchor:start; stroke:none; font-weight:normal; font-style:normal; text-align:right; " transform="" id="A.info.lineSpencer Bodice Short" y="188.248818898" x="358.75984252">
Spencer Bodice Short</text>
        <text style="font-size:12; vertical-align:top; fill-opacity:1.0; fill:#000000; text-anchor:start; stroke:none; font-weight:normal; font-style:normal; text-align:right; " transform="" id="A.info.linePattern Piece A" y="202.648818898" x="358.75984252">
Pattern Piece A</text>
        <text style="font-size:12; vertical-align:top; fill-opacity:1.0; fill:#000000; text-anchor:start; stroke:none; font-weight:normal; font-style:normal; text-align:right; " transform="" id="A.info.lineCut 2 Fabric" y="217.048818898" x="358.75984252">
Cut 2 Fabric</text>
        <text style="font-size:12; vertical-align:top; fill-opacity:1.0; fill:#000000; text-anchor:start; stroke:none; font-weight:normal; font-style:normal; text-align:right; " transform="" id="A.info.line " y="231.448818898" x="358.75984252" />
        <text style="font-size:12; vertical-align:top; fill-opacity:1.0; fill:#000000; text-anchor:start; stroke:none; font-weight:normal; font-style:normal; text-align:right; " transform="" id="A.info.lineDressFormLg" y="245.848818898" x="358.75984252">
DressFormLg</text>
        <text style="font-size:12; vertical-align:top; fill-opacity:1.0; fill:#000000; text-anchor:start; stroke:none; font-weight:normal; font-style:normal; text-align:right; " transform="" id="A.info.line2014/12/20 8:27" y="260.248818898" x="358.75984252">
2014/12/20 8:27</text>
      </g>
    </g>
    <g id="document.bodice.Bodice Back.pattern" transform=" translate(115077.678951, 13286.322780)">
      <g id="B.letter" transform="matrix(10.000000, 0, 0, 10.000000, 3215.891946, -2465.078740)">
        <text style="font-size:24; vertical-align:top; fill-opacity:1.0; fill:#000000; text-anchor:start; stroke:none; font-weight:normal; font-style:normal; text-align:right; " transform="" id="B.letter.letterline" y="273.897637795" x="-357.321327279">
B</text>
      </g>
      <line style="stroke-linejoin:miter; stroke:green; stroke-width:4; stroke-miterlimit:4; fill:none; " y2="1222.44094488" marker-end="url(#Arrow1Mend)" marker-start="url(#Arrow1Mstart)" transform="" x2="-142.235487856" y1="212.598425197" x1="-142.235487856" id="B.grainline" />
      <path style="stroke-linejoin:miter; stroke-dashoffset:0; stroke:green; stroke-miterlimit:4; stroke-dasharray:6,6; stroke-width:3; fill:none; " transform="" d="M -492.177754565  1447.47241757 L -404.484803555  637.795275591 L -316.791852545  1447.47241757 M -548.964109851  -49.6602878646 L -433.199680137  136.011191943 L -518.493439004  -65.483910477 " id="B.dartline" />
      <path style="stroke-linejoin:miter; stroke-dashoffset:0; stroke:green; stroke-dasharray:24,6; stroke-miterlimit:4; stroke-width:4; fill:none; " transform="" d="M 0.0  0.0 L 0.0  1384.72440945 C -106.563858022  1384.72440945  -259.832368872  1384.72440945  -322.848648943  1391.54945523 L -404.484803555  1407.64236749 L -486.120958167  1391.54945523 C -114986.596274  -11009.5472929  -734.568852473  1357.75096214  -857.333430278  1344.46221635 L -908.968097613  743.704020292 C -816.37303945  735.745552049  -627.342519685  637.795275591  -627.342519685  448.610592374 C -627.342519685  336.384110283  -691.132822337  165.198032789  -714.642654558  119.926455172 L -519.203494826  -1.92803154546 L -508.347442499  -8.69667855487 L -496.566196517  -13.6837315495 L -284.470975712  -103.464566929 C -255.167104168  -60.8322755881  -213.353231784  0.0  0.0  0.0 " id="B.seamline" />
      <path style="fill:none;stroke:#008000;stroke-width:4;stroke-linejoin:miter;stroke-miterlimit:4" d="M -51570.844,-4136.375 C -51530.375,-4115.3438 -51489.906,-4094.3125 -51449.438,-4073.2812 -50661.114,-3987.324 -49872.713,-3902.025 -49084.345,-3816.4558 -44568.277,-3326.8073 -40052.158,-2837.6254 -35536.05,-2348.3346 -23855.536,-1082.926 -12174.984,182.13443 -494.4375,1447.25 -464.13185,1452.9703 -433.82094,1459.7161 -403.5191,1464.8055 -372.38318,1458.9292 -341.40004,1451.9786 -310.16046,1446.8145 -237.92699,1441.3715 -165.47342,1441.7754 -93.031387,1441.1213 -43.271165,1440.937 6.4895375,1440.9852 56.25,1440.9375 56.25,941.875 56.25,442.8125 56.25,-56.25 -15.173557,-56.367046 -88.173501,-53.745379 -157.09375,-74.5 -184.79654,-82.849187 -211.78433,-97.615924 -228.53253,-121.8271 -240.7362,-138.56262 -252.15353,-156.11572 -264.03125,-173.1875 -354.39476,-134.86944 -444.98477,-96.868674 -535.15969,-58.249961 -619.7468,-5.5611535 -704.26839,47.244141 -788.875,99.90625 -773.76639,128.5803 -757.55674,156.90947 -746.47366,187.39775 -720.60047,254.52027 -699.22412,323.8145 -688.09375,394.875 -681.72929,435.31917 -680.8182,477.62652 -694.71875,516.59375 -715.87619,578.17738 -765.73307,625.86671 -821.90964,656.41545 -854.83341,674.20986 -890.87976,687.27679 -928.49271,689.14618 -942.24514,690.52453 -955.99757,691.90289 -969.75,693.28125 -952.90376,889.24979 -936.06284,1085.2188 -919.21875,1281.1875 -10305.796,265.1132 -19692.391,-750.80533 -29078.989,-1766.6935 -35735.342,-2486.9794 -42391.673,-3207.4715 -49048.082,-3927.241 -49838.455,-4012.5886 -50628.796,-4098.242 -51419.203,-4183.2566 -51429.684,-4183.5395 -51440.831,-4188.1596 -51450.593,-4182.5687 -51490.677,-4167.1708 -51530.76,-4151.7729 -51570.844,-4136.375 z" id="B.cuttingline" inkscape:connector-curvature="0" />
      <g id="B.info" transform="">
        <text style="font-size:12; vertical-align:top; fill-opacity:1.0; fill:#000000; text-anchor:start; stroke:none; font-weight:normal; font-style:normal; text-align:right; " transform="" id="B.info.lineNext Patterns" y="318.897637795" x="-357.321327279">
Next Patterns</text>
        <text style="font-size:12; vertical-align:top; fill-opacity:1.0; fill:#000000; text-anchor:start; stroke:none; font-weight:normal; font-style:normal; text-align:right; " transform="" id="B.info.lineMR_B1" y="333.297637795" x="-357.321327279">
MR_B1</text>
        <text style="font-size:12; vertical-align:top; fill-opacity:1.0; fill:#000000; text-anchor:start; stroke:none; font-weight:normal; font-style:normal; text-align:right; " transform="" id="B.info.lineSpencer Bodice Short" y="347.697637795" x="-357.321327279">
Spencer Bodice Short</text>
        <text style="font-size:12; vertical-align:top; fill-opacity:1.0; fill:#000000; text-anchor:start; stroke:none; font-weight:normal; font-style:normal; text-align:right; " transform="" id="B.info.linePattern Piece B" y="362.097637795" x="-357.321327279">
Pattern Piece B</text>
        <text style="font-size:12; vertical-align:top; fill-opacity:1.0; fill:#000000; text-anchor:start; stroke:none; font-weight:normal; font-style:normal; text-align:right; " transform="" id="B.info.lineCut 2 Fabric" y="376.497637795" x="-357.321327279">
Cut 2 Fabric</text>
        <text style="font-size:12; vertical-align:top; fill-opacity:1.0; fill:#000000; text-anchor:start; stroke:none; font-weight:normal; font-style:normal; text-align:right; " transform="" id="B.info.line " y="390.897637795" x="-357.321327279" />
        <text style="font-size:12; vertical-align:top; fill-opacity:1.0; fill:#000000; text-anchor:start; stroke:none; font-weight:normal; font-style:normal; text-align:right; " transform="" id="B.info.lineDressFormLg" y="405.297637795" x="-357.321327279">
DressFormLg</text>
        <text style="font-size:12; vertical-align:top; fill-opacity:1.0; fill:#000000; text-anchor:start; stroke:none; font-weight:normal; font-style:normal; text-align:right; " transform="" id="B.info.line2014/12/20 8:27" y="419.697637795" x="-357.321327279">
2014/12/20 8:27</text>
      </g>
    </g>
    <g id="document.bodice.Bodice Sleeve.pattern" transform=" translate(843.342502, 14905.045198)">
      <line style="stroke-linejoin:miter; stroke:green; stroke-width:4; stroke-miterlimit:4; fill:none; " y2="2007.63779528" marker-end="url(#Arrow1Mend)" marker-start="url(#Arrow1Mstart)" transform="" x2="0.0" y1="554.881889764" x1="0.0" id="C.grainline" />
      <g id="C.letter" transform="matrix(15.000000, 0, 0, 15.000000, 5793.971795, -14452.795276)">
        <text style="font-size:24; vertical-align:top; fill-opacity:1.0; fill:#000000; text-anchor:start; stroke:none; font-weight:normal; font-style:normal; text-align:right; " transform="" id="C.letter.letterline" y="1032.34251969" x="-413.855128205">
C</text>
      </g>
      <path style="stroke-linejoin:miter; stroke-dashoffset:0; stroke:green; stroke-miterlimit:4; stroke-dasharray:6,6; stroke-width:3; fill:none; " transform="" d="M 693.684302357  1476.45969223 L 446.456692913  1509.80314961 L 693.297826474  1545.89652577 " id="C.dartline" />
      <path style="stroke-linejoin:miter; stroke-dashoffset:0; stroke:green; stroke-dasharray:24,6; stroke-miterlimit:4; stroke-width:4; fill:none; " transform="" d="M 680.372468035  554.881889764 C 608.451818264  554.881889764  429.029580553  393.176099668  345.058047997  276.389537196 C 279.477545115  185.180989921  146.329251383  0.0  0.0  0.0 C -180.133854192  0.0  -336.72710778  133.296743216  -413.855128205  198.950363009 C -537.269011193  304.003858564  -671.223993894  554.881889764  -752.259824615  554.881889764 C -670.676141759  867.858994229  -586.42579924  1191.06612743  -531.496062992  1509.80314961 L -392.958641217  2313.68476807 C -158.706173778  2273.31472833  98.4505376022  2256.00195899  319.542680117  2343.3073032 L 637.639681997  1537.758132 L 637.789348329  1510.8680809 L 637.939014662  1483.9780298 L 680.372468035  554.881889764 " id="C.seamline" />
      <path style="fill:none;stroke:#008000;stroke-width:4;stroke-linejoin:miter;stroke-miterlimit:4" d="M -4.625,-56.21875 C -99.609789,-55.309551 -191.47059,-21.739274 -272.78926,25.618603 -342.46948,66.125877 -405.71874,116.67608 -465.85884,169.94306 -530.88069,231.36332 -583.05948,304.53446 -637.90625,374.75 -667.67482,412.46669 -696.72868,451.38297 -732.58689,483.66969 -739.24723,489.28225 -746.2341,495.17985 -754.1875,498.625 -777.80208,498.625 -801.41667,498.625 -825.03125,498.625 -734.45281,847.13031 -641.05291,1195.5214 -581.50286,1550.9414 -533.96055,1826.8151 -486.41556,2102.6884 -438.875,2378.5625 -342.36791,2361.5495 -245.55382,2346.0795 -147.65625,2340.0312 -12.771219,2331.4249 125.22001,2338.2178 254.71875,2379.8125 287.45287,2390.2749 319.0393,2403.8016 351.25,2416.1562 465.41808,2126.9715 579.60667,1837.7948 693.8125,1548.625 693.82453,1511.1721 694.1298,1473.7265 696.42302,1436.3323 710.69388,1124.1176 724.91688,811.90075 739.21875,499.6875 719.01981,499.0695 698.6145,499.41438 678.53125,498.25 652.88195,490.82673 630.7112,474.9769 608.90625,460.09375 547.46344,415.57181 492.18248,362.78652 441.52051,306.34407 414.63018,276.78303 391.09134,244.47125 367.88541,212.02374 312.58341,136.95929 252.37768,63.60171 176.5,8.375 123.98757,-29.609396 61.248088,-57.714269 -4.625,-56.21875 z" id="C.cuttingline" inkscape:connector-curvature="0" />
      <g id="C.info" transform="">
        <text style="font-size:12; vertical-align:top; fill-opacity:1.0; fill:#000000; text-anchor:start; stroke:none; font-weight:normal; font-style:normal; text-align:right; " transform="" id="C.info.lineNext Patterns" y="1103.20866142" x="-413.855128205">
Next Patterns</text>
        <text style="font-size:12; vertical-align:top; fill-opacity:1.0; fill:#000000; text-anchor:start; stroke:none; font-weight:normal; font-style:normal; text-align:right; " transform="" id="C.info.lineMR_B1" y="1117.60866142" x="-413.855128205">
MR_B1</text>
        <text style="font-size:12; vertical-align:top; fill-opacity:1.0; fill:#000000; text-anchor:start; stroke:none; font-weight:normal; font-style:normal; text-align:right; " transform="" id="C.info.lineSpencer Bodice Short" y="1132.00866142" x="-413.855128205">
Spencer Bodice Short</text>
        <text style="font-size:12; vertical-align:top; fill-opacity:1.0; fill:#000000; text-anchor:start; stroke:none; font-weight:normal; font-style:normal; text-align:right; " transform="" id="C.info.linePattern Piece C" y="1146.40866142" x="-413.855128205">
Pattern Piece C</text>
        <text style="font-size:12; vertical-align:top; fill-opacity:1.0; fill:#000000; text-anchor:start; stroke:none; font-weight:normal; font-style:normal; text-align:right; " transform="" id="C.info.lineCut 2 Fabric" y="1160.80866142" x="-413.855128205">
Cut 2 Fabric</text>
        <text style="font-size:12; vertical-align:top; fill-opacity:1.0; fill:#000000; text-anchor:start; stroke:none; font-weight:normal; font-style:normal; text-align:right; " transform="" id="C.info.line " y="1175.20866142" x="-413.855128205" />
        <text style="font-size:12; vertical-align:top; fill-opacity:1.0; fill:#000000; text-anchor:start; stroke:none; font-weight:normal; font-style:normal; text-align:right; " transform="" id="C.info.lineDressFormLg" y="1189.60866142" x="-413.855128205">
DressFormLg</text>
        <text style="font-size:12; vertical-align:top; fill-opacity:1.0; fill:#000000; text-anchor:start; stroke:none; font-weight:normal; font-style:normal; text-align:right; " transform="" id="C.info.line2014/12/20 8:27" y="1204.00866142" x="-413.855128205">
2014/12/20 8:27</text>
      </g>
    </g>
  </g>
  <g inkscape:label="Label-notes" id="notes" inkscape:groupmode="layer" transform="translate(88.582677,88.582677)">
    <g id="document.titleblock">
      <text style="font-size:40; vertical-align:top; fill-opacity:1.0; fill:#000000; text-anchor:right; stroke:none; font-weight:normal; font-style:normal; text-align:right; " transform="" id="company" y="0.0" x="0.0">
Next Patterns</text>
      <text style="font-size:40; vertical-align:top; fill-opacity:1.0; fill:#000000; text-anchor:right; stroke:none; font-weight:normal; font-style:normal; text-align:right; " transform="" id="designer" y="44.0" x="0.0">
S.L.Spencer</text>
      <text style="font-size:40; vertical-align:top; fill-opacity:1.0; fill:#000000; text-anchor:right; stroke:none; font-weight:normal; font-style:normal; text-align:right; " transform="" id="pattern_number" y="88.0" x="0.0">
MR_B1</text>
      <text style="font-size:40; vertical-align:top; fill-opacity:1.0; fill:#000000; text-anchor:right; stroke:none; font-weight:normal; font-style:normal; text-align:right; " transform="" id="pattern_name" y="132.0" x="0.0">
Spencer Bodice Short</text>
      <text style="font-size:40; vertical-align:top; fill-opacity:1.0; fill:#000000; text-anchor:right; stroke:none; font-weight:normal; font-style:normal; text-align:right; " transform="" id="client" y="176.0" x="0.0">
DressFormLg</text>
      <text style="font-size:40; vertical-align:top; fill-opacity:1.0; fill:#000000; text-anchor:right; stroke:none; font-weight:normal; font-style:normal; text-align:right; " transform="" id="date" y="220.0" x="0.0">
2014/12/20 8:27</text>
    </g>
    <g id="document.testgrid">
      <path style="stroke-linejoin:miter; stroke:green; stroke-width:4; stroke-miterlimit:4; fill:none; " d="M 1080.0  0.0 L 1080.0  212.598425197 M 1115.43307087  0.0 L 1115.43307087  212.598425197 M 1150.86614173  0.0 L 1150.86614173  212.598425197 M 1186.2992126  0.0 L 1186.2992126  212.598425197 M 1221.73228346  0.0 L 1221.73228346  212.598425197 M 1257.16535433  0.0 L 1257.16535433  212.598425197 M 1292.5984252  0.0 L 1292.5984252  212.598425197 M 1080.0  0.0 L 1292.5984252  0.0 M 1080.0  35.4330708661 L 1292.5984252  35.4330708661 M 1080.0  70.8661417323 L 1292.5984252  70.8661417323 M 1080.0  106.299212598 L 1292.5984252  106.299212598 M 1080.0  141.732283465 L 1292.5984252  141.732283465 M 1080.0  177.165354331 L 1292.5984252  177.165354331 M 1080.0  212.598425197 L 1292.5984252  212.598425197 M 1469.76377953  0.0 L 1469.76377953  270.0 M 1559.76377953  0.0 L 1559.76377953  270.0 M 1649.76377953  0.0 L 1649.76377953  270.0 M 1739.76377953  0.0 L 1739.76377953  270.0 M 1469.76377953  0.0 L 1739.76377953  0.0 M 1469.76377953  90.0 L 1739.76377953  90.0 M 1469.76377953  180.0 L 1739.76377953  180.0 M 1469.76377953  270.0 L 1739.76377953  270.0 " id="testgrid" />
    </g>
    <g id="document.bodice.Bodice Front.notes" transform=" translate(262.845877, 719.449921)" />
    <g id="document.bodice.Bodice Back.notes" transform=" translate(115077.678951, 13286.322780)" />
    <g id="document.bodice.Bodice Sleeve.notes" transform=" translate(843.342502, 14905.045198)" />
  </g>
  <g inkscape:label="Label-reference" id="reference" inkscape:groupmode="layer" transform="translate(88.582677,88.582677)">
    <g id="document.bodice.Bodice Front.reference" transform=" translate(262.845877, 719.449921)">
      <circle style="stroke:gray; stroke-width:1; fill:none; " transform="" cy="0.0" cx="160.146981797" r="5" id="A.FNC.inpoint" d="M 165.14699,0 C 165.14699,2.7614237 162.90841,5 160.14699,5 157.38556,5 155.14699,2.7614237 155.14699,0 155.14699,-2.7614237 157.38556,-5 160.14699,-5 162.90841,-5 165.14699,-2.7614237 165.14699,0 z" />
      <text style="font-size:25; vertical-align:top; fill-opacity:1.0; fill:gray; text-anchor:right; stroke:none; font-weight:normal; font-style:italic; text-align:right; " transform="" id="A.FNC.inpoint.text" y="-7.0" x="167.146981797">
FNC.in</text>
      <circle style="stroke:red; stroke-width:1; fill:red; " transform="" cy="0.0" cx="0.0" r="5" id="A.FNC" d="M 5,0 C 5,2.7614237 2.7614237,5 0,5 -2.7614237,5 -5,2.7614237 -5,0 -5,-2.7614237 -2.7614237,-5 0,-5 2.7614237,-5 5,-2.7614237 5,0 z" />
      <text style="font-size:30; vertical-align:top; fill-opacity:1.0; fill:darkblue; text-anchor:right; stroke:none; font-weight:normal; font-style:italic; text-align:right; " transform="" id="A.FNC.text" y="-7.0" x="7.0">
FNC</text>
      <circle style="stroke:gray; stroke-width:1; fill:none; " transform="" cy="1278.42519685" cx="91.3571325492" r="5" id="A.FWC.outpoint" d="M 96.357132,1278.4252 C 96.357132,1281.1866 94.118556,1283.4252 91.357132,1283.4252 88.595708,1283.4252 86.357132,1281.1866 86.357132,1278.4252 86.357132,1275.6637 88.595708,1273.4252 91.357132,1273.4252 94.118556,1273.4252 96.357132,1275.6637 96.357132,1278.4252 z" />
      <text style="font-size:25; vertical-align:top; fill-opacity:1.0; fill:gray; text-anchor:right; stroke:none; font-weight:normal; font-style:italic; text-align:right; " transform="" id="A.FWC.outpoint.text" y="1271.42519685" x="98.3571325492">
FWC.out</text>
      <circle style="stroke:red; stroke-width:1; fill:red; " transform="" cy="1278.42519685" cx="0.0" r="5" id="A.FWC" d="M 5,1278.4252 C 5,1281.1866 2.7614237,1283.4252 0,1283.4252 -2.7614237,1283.4252 -5,1281.1866 -5,1278.4252 -5,1275.6637 -2.7614237,1273.4252 0,1273.4252 2.7614237,1273.4252 5,1275.6637 5,1278.4252 z" />
      <text style="font-size:30; vertical-align:top; fill-opacity:1.0; fill:darkblue; text-anchor:right; stroke:none; font-weight:normal; font-style:italic; text-align:right; " transform="" id="A.FWC.text" y="1271.42519685" x="7.0">
FWC</text>
      <circle style="stroke:red; stroke-width:1; fill:red; " transform="" cy="-280.62992126" cx="0.0" r="5" id="A.FSH" d="M 5,-280.62991 C 5,-277.86849 2.7614237,-275.62991 0,-275.62991 -2.7614237,-275.62991 -5,-277.86849 -5,-280.62991 -5,-283.39134 -2.7614237,-285.62991 0,-285.62991 2.7614237,-285.62991 5,-283.39134 5,-280.62991 z" />
      <text style="font-size:30; vertical-align:top; fill-opacity:1.0; fill:darkblue; text-anchor:right; stroke:none; font-weight:normal; font-style:italic; text-align:right; " transform="" id="A.FSH.text" y="-287.62992126" x="7.0">
FSH</text>
      <circle style="stroke:red; stroke-width:1; fill:red; " transform="" cy="-280.62992126" cx="717.519685039" r="5" id="A.FSW" d="M 722.51971,-280.62991 C 722.51971,-277.86849 720.28114,-275.62991 717.51971,-275.62991 714.75829,-275.62991 712.51971,-277.86849 712.51971,-280.62991 712.51971,-283.39134 714.75829,-285.62991 717.51971,-285.62991 720.28114,-285.62991 722.51971,-283.39134 722.51971,-280.62991 z" />
      <text style="font-size:30; vertical-align:top; fill-opacity:1.0; fill:darkblue; text-anchor:right; stroke:none; font-weight:normal; font-style:italic; text-align:right; " transform="" id="A.FSW.text" y="-287.62992126" x="724.519685039">
FSW</text>
      <circle style="stroke:gray; stroke-width:1; fill:none; " transform="" cy="-133.235861813" cx="706.527590921" r="5" id="A.FSP.inpoint" d="M 711.52759,-133.23586 C 711.52759,-130.47443 709.28901,-128.23586 706.52759,-128.23586 703.76616,-128.23586 701.52759,-130.47443 701.52759,-133.23586 701.52759,-135.99728 703.76616,-138.23586 706.52759,-138.23586 709.28901,-138.23586 711.52759,-135.99728 711.52759,-133.23586 z" />
      <text style="font-size:25; vertical-align:top; fill-opacity:1.0; fill:gray; text-anchor:right; stroke:none; font-weight:normal; font-style:italic; text-align:right; " transform="" id="A.FSP.inpoint.text" y="-140.235861813" x="713.527590921">
FSP.in</text>
      <circle style="stroke:red; stroke-width:1; fill:red; " transform="" cy="-185.066796591" cx="717.519685039" r="5" id="A.FSP" d="M 722.51971,-185.0668 C 722.51971,-182.30538 720.28114,-180.0668 717.51971,-180.0668 714.75829,-180.0668 712.51971,-182.30538 712.51971,-185.0668 712.51971,-187.82823 714.75829,-190.0668 717.51971,-190.0668 720.28114,-190.0668 722.51971,-187.82823 722.51971,-185.0668 z" />
      <text style="font-size:30; vertical-align:top; fill-opacity:1.0; fill:darkblue; text-anchor:right; stroke:none; font-weight:normal; font-style:italic; text-align:right; " transform="" id="A.FSP.text" y="-192.066796591" x="724.519685039">
FSP</text>
      <circle style="stroke:gray; stroke-width:1; fill:none; " transform="" cy="-143.367777191" cx="237.801638352" r="5" id="A.FNS.outpoint" d="M 242.80164,-143.36778 C 242.80164,-140.60636 240.56306,-138.36778 237.80164,-138.36778 235.04021,-138.36778 232.80164,-140.60636 232.80164,-143.36778 232.80164,-146.12921 235.04021,-148.36778 237.80164,-148.36778 240.56306,-148.36778 242.80164,-146.12921 242.80164,-143.36778 z" />
      <text style="font-size:25; vertical-align:top; fill-opacity:1.0; fill:gray; text-anchor:right; stroke:none; font-weight:normal; font-style:italic; text-align:right; " transform="" id="A.FNS.outpoint.text" y="-150.367777191" x="244.801638352">
FNS.out</text>
      <circle style="stroke:red; stroke-width:1; fill:red; " transform="" cy="-280.62992126" cx="266.911636328" r="5" id="A.FNS" d="M 271.91162,-280.62991 C 271.91162,-277.86849 269.67304,-275.62991 266.91162,-275.62991 264.1502,-275.62991 261.91162,-277.86849 261.91162,-280.62991 261.91162,-283.39134 264.1502,-285.62991 266.91162,-285.62991 269.67304,-285.62991 271.91162,-283.39134 271.91162,-280.62991 z" />
      <text style="font-size:30; vertical-align:top; fill-opacity:1.0; fill:darkblue; text-anchor:right; stroke:none; font-weight:normal; font-style:italic; text-align:right; " transform="" id="A.FNS.text" y="-287.62992126" x="273.911636328">
FNS</text>
      <circle style="stroke:red; stroke-width:1; fill:red; " transform="" cy="318.897637795" cx="0.0" r="5" id="A.FUC" d="M 5,318.89764 C 5,321.65907 2.7614237,323.89764 0,323.89764 -2.7614237,323.89764 -5,321.65907 -5,318.89764 -5,316.13622 -2.7614237,313.89764 0,313.89764 2.7614237,313.89764 5,316.13622 5,318.89764 z" />
      <text style="font-size:30; vertical-align:top; fill-opacity:1.0; fill:darkblue; text-anchor:right; stroke:none; font-weight:normal; font-style:italic; text-align:right; " transform="" id="A.FUC.text" y="311.897637795" x="7.0">
FUC</text>
      <circle style="stroke:red; stroke-width:1; fill:red; " transform="" cy="676.062992126" cx="0.0" r="5" id="A.FBC" d="M 5,676.06299 C 5,678.82441 2.7614237,681.06299 0,681.06299 -2.7614237,681.06299 -5,678.82441 -5,676.06299 -5,673.30156 -2.7614237,671.06299 0,671.06299 2.7614237,671.06299 5,673.30156 5,676.06299 z" />
      <text style="font-size:30; vertical-align:top; fill-opacity:1.0; fill:darkblue; text-anchor:right; stroke:none; font-weight:normal; font-style:italic; text-align:right; " transform="" id="A.FBC.text" y="669.062992126" x="7.0">
FBC</text>
      <circle style="stroke:red; stroke-width:1; fill:red; " transform="" cy="676.062992126" cx="354.330708661" r="5" id="A.FBP" d="M 359.33072,676.06299 C 359.33072,678.82441 357.09214,681.06299 354.33072,681.06299 351.5693,681.06299 349.33072,678.82441 349.33072,676.06299 349.33072,673.30156 351.5693,671.06299 354.33072,671.06299 357.09214,671.06299 359.33072,673.30156 359.33072,676.06299 z" />
      <text style="font-size:30; vertical-align:top; fill-opacity:1.0; fill:darkblue; text-anchor:right; stroke:none; font-weight:normal; font-style:italic; text-align:right; " transform="" id="A.FBP.text" y="669.062992126" x="361.330708661">
FBP</text>
      <circle style="stroke:red; stroke-width:1; fill:red; " transform="" cy="318.897637795" cx="673.228346457" r="5" id="A.f10" d="M 678.22833,318.89764 C 678.22833,321.65907 675.98976,323.89764 673.22833,323.89764 670.46691,323.89764 668.22833,321.65907 668.22833,318.89764 668.22833,316.13622 670.46691,313.89764 673.22833,313.89764 675.98976,313.89764 678.22833,316.13622 678.22833,318.89764 z" />
      <text style="font-size:30; vertical-align:top; fill-opacity:1.0; fill:darkblue; text-anchor:right; stroke:none; font-weight:normal; font-style:italic; text-align:right; " transform="" id="A.f10.text" y="311.897637795" x="680.228346457">
f10</text>
      <circle style="stroke:red; stroke-width:1; fill:red; " transform="" cy="159.448818898" cx="0.0" r="5" id="A.FAC" d="M 5,159.44882 C 5,162.21025 2.7614237,164.44882 0,164.44882 -2.7614237,164.44882 -5,162.21025 -5,159.44882 -5,156.6874 -2.7614237,154.44882 0,154.44882 2.7614237,154.44882 5,156.6874 5,159.44882 z" />
      <text style="font-size:30; vertical-align:top; fill-opacity:1.0; fill:darkblue; text-anchor:right; stroke:none; font-weight:normal; font-style:italic; text-align:right; " transform="" id="A.FAC.text" y="152.448818898" x="7.0">
FAC</text>
      <circle style="stroke:gray; stroke-width:1; fill:none; " transform="" cy="371.13559003" cx="639.566929134" r="5" id="A.FAP.inpoint" d="M 644.56696,371.13559 C 644.56696,373.89701 642.32838,376.13559 639.56696,376.13559 636.80553,376.13559 634.56696,373.89701 634.56696,371.13559 634.56696,368.37417 636.80553,366.13559 639.56696,366.13559 642.32838,366.13559 644.56696,368.37417 644.56696,371.13559 z" />
      <text style="font-size:25; vertical-align:top; fill-opacity:1.0; fill:gray; text-anchor:right; stroke:none; font-weight:normal; font-style:italic; text-align:right; " transform="" id="A.FAP.inpoint.text" y="364.13559003" x="646.566929134">
FAP.in</text>
      <circle style="stroke:gray; stroke-width:1; fill:none; " transform="" cy="42.8846899558" cx="639.566929134" r="5" id="A.FAP.outpoint" d="M 644.56696,42.884689 C 644.56696,45.646113 642.32838,47.884689 639.56696,47.884689 636.80553,47.884689 634.56696,45.646113 634.56696,42.884689 634.56696,40.123266 636.80553,37.884689 639.56696,37.884689 642.32838,37.884689 644.56696,40.123266 644.56696,42.884689 z" />
      <text style="font-size:25; vertical-align:top; fill-opacity:1.0; fill:gray; text-anchor:right; stroke:none; font-weight:normal; font-style:italic; text-align:right; " transform="" id="A.FAP.outpoint.text" y="35.8846899558" x="646.566929134">
FAP.out</text>
      <circle style="stroke:red; stroke-width:1; fill:red; " transform="" cy="159.448818898" cx="639.566929134" r="5" id="A.FAP" d="M 644.56696,159.44882 C 644.56696,162.21025 642.32838,164.44882 639.56696,164.44882 636.80553,164.44882 634.56696,162.21025 634.56696,159.44882 634.56696,156.6874 636.80553,154.44882 639.56696,154.44882 642.32838,154.44882 644.56696,156.6874 644.56696,159.44882 z" />
      <text style="font-size:30; vertical-align:top; fill-opacity:1.0; fill:darkblue; text-anchor:right; stroke:none; font-weight:normal; font-style:italic; text-align:right; " transform="" id="A.FAP.text" y="152.448818898" x="646.566929134">
FAP</text>
      <circle style="stroke:red; stroke-width:1; fill:red; " transform="" cy="318.897637795" cx="921.25984252" r="5" id="A.f1" d="M 926.25983,318.89764 C 926.25983,321.65907 924.02125,323.89764 921.25983,323.89764 918.4984,323.89764 916.25983,321.65907 916.25983,318.89764 916.25983,316.13622 918.4984,313.89764 921.25983,313.89764 924.02125,313.89764 926.25983,316.13622 926.25983,318.89764 z" />
      <text style="font-size:30; vertical-align:top; fill-opacity:1.0; fill:darkblue; text-anchor:right; stroke:none; font-weight:normal; font-style:italic; text-align:right; " transform="" id="A.f1.text" y="311.897637795" x="928.25984252">
f1</text>
      <circle style="stroke:red; stroke-width:1; fill:red; " transform="" cy="517.889818701" cx="972.201294443" r="5" id="A.f2" d="M 977.20129,517.88983 C 977.20129,520.65126 974.96272,522.88983 972.20129,522.88983 969.43987,522.88983 967.20129,520.65126 967.20129,517.88983 967.20129,515.12841 969.43987,512.88983 972.20129,512.88983 974.96272,512.88983 977.20129,515.12841 977.20129,517.88983 z" />
      <text style="font-size:30; vertical-align:top; fill-opacity:1.0; fill:darkblue; text-anchor:right; stroke:none; font-weight:normal; font-style:italic; text-align:right; " transform="" id="A.f2.text" y="510.889818701" x="979.201294443">
f2</text>
      <circle style="stroke:red; stroke-width:1; fill:red; " transform="" cy="1005.42051089" cx="1097.00781299" r="5" id="A.f3" d="M 1102.0078,1005.4205 C 1102.0078,1008.182 1099.7692,1010.4205 1097.0078,1010.4205 1094.2464,1010.4205 1092.0078,1008.182 1092.0078,1005.4205 1092.0078,1002.6591 1094.2464,1000.4205 1097.0078,1000.4205 1099.7692,1000.4205 1102.0078,1002.6591 1102.0078,1005.4205 z" />
      <text style="font-size:30; vertical-align:top; fill-opacity:1.0; fill:darkblue; text-anchor:right; stroke:none; font-weight:normal; font-style:italic; text-align:right; " transform="" id="A.f3.text" y="998.420510886" x="1104.00781299">
f3</text>
      <circle style="stroke:red; stroke-width:1; fill:red; " transform="" cy="1278.42519685" cx="354.330708661" r="5" id="A.f4" d="M 359.33072,1278.4252 C 359.33072,1281.1866 357.09214,1283.4252 354.33072,1283.4252 351.5693,1283.4252 349.33072,1281.1866 349.33072,1278.4252 349.33072,1275.6637 351.5693,1273.4252 354.33072,1273.4252 357.09214,1273.4252 359.33072,1275.6637 359.33072,1278.4252 z" />
      <text style="font-size:30; vertical-align:top; fill-opacity:1.0; fill:darkblue; text-anchor:right; stroke:none; font-weight:normal; font-style:italic; text-align:right; " transform="" id="A.f4.text" y="1271.42519685" x="361.330708661">
f4</text>
      <circle style="stroke:red; stroke-width:1; fill:red; " transform="" cy="1204.85841516" cx="642.801896586" r="5" id="A.f5" d="M 647.80188,1204.8584 C 647.80188,1207.6198 645.5633,1209.8584 642.80188,1209.8584 640.04046,1209.8584 637.80188,1207.6198 637.80188,1204.8584 637.80188,1202.097 640.04046,1199.8584 642.80188,1199.8584 645.5633,1199.8584 647.80188,1202.097 647.80188,1204.8584 z" />
      <text style="font-size:30; vertical-align:top; fill-opacity:1.0; fill:darkblue; text-anchor:right; stroke:none; font-weight:normal; font-style:italic; text-align:right; " transform="" id="A.f5.text" y="1197.85841516" x="649.801896586">
f5</text>
      <circle style="stroke:red; stroke-width:1; fill:red; " transform="" cy="999.31052285" cx="1120.87520975" r="5" id="A.f6" d="M 1125.8752,999.31055 C 1125.8752,1002.072 1123.6367,1004.3105 1120.8752,1004.3105 1118.1138,1004.3105 1115.8752,1002.072 1115.8752,999.31055 1115.8752,996.54912 1118.1138,994.31055 1120.8752,994.31055 1123.6367,994.31055 1125.8752,996.54912 1125.8752,999.31055 z" />
      <text style="font-size:30; vertical-align:top; fill-opacity:1.0; fill:darkblue; text-anchor:right; stroke:none; font-weight:normal; font-style:italic; text-align:right; " transform="" id="A.f6.text" y="992.31052285" x="1127.87520975">
f6</text>
      <circle style="stroke:red; stroke-width:1; fill:red; " transform="" cy="310.901105139" cx="952.496633245" r="5" id="A.f7" d="M 957.49664,310.90109 C 957.49664,313.66252 955.25807,315.90109 952.49664,315.90109 949.73522,315.90109 947.49664,313.66252 947.49664,310.90109 947.49664,308.13967 949.73522,305.90109 952.49664,305.90109 955.25807,305.90109 957.49664,308.13967 957.49664,310.90109 z" />
      <text style="font-size:30; vertical-align:top; fill-opacity:1.0; fill:darkblue; text-anchor:right; stroke:none; font-weight:normal; font-style:italic; text-align:right; " transform="" id="A.f7.text" y="303.901105139" x="959.496633245">
f7</text>
      <circle style="stroke:red; stroke-width:1; fill:red; " transform="" cy="510.440110693" cx="1001.30202848" r="5" id="A.FBS" d="M 1006.302,510.44012 C 1006.302,513.20155 1004.0634,515.44012 1001.302,515.44012 998.54058,515.44012 996.302,513.20155 996.302,510.44012 996.302,507.6787 998.54058,505.44012 1001.302,505.44012 1004.0634,505.44012 1006.302,507.6787 1006.302,510.44012 z" />
      <text style="font-size:30; vertical-align:top; fill-opacity:1.0; fill:darkblue; text-anchor:right; stroke:none; font-weight:normal; font-style:italic; text-align:right; " transform="" id="A.FBS.text" y="503.440110693" x="1008.30202848">
FBS</text>
      <circle style="stroke:gray; stroke-width:1; fill:none; " transform="" cy="456.155209878" cx="813.693014409" r="5" id="A.FUS.outpoint" d="M 818.69299,456.15521 C 818.69299,458.91664 816.45442,461.15521 813.69299,461.15521 810.93157,461.15521 808.69299,458.91664 808.69299,456.15521 808.69299,453.39379 810.93157,451.15521 813.69299,451.15521 816.45442,451.15521 818.69299,453.39379 818.69299,456.15521 z" />
      <text style="font-size:25; vertical-align:top; fill-opacity:1.0; fill:gray; text-anchor:right; stroke:none; font-weight:normal; font-style:italic; text-align:right; " transform="" id="A.FUS.outpoint.text" y="449.155209878" x="820.693014409">
FUS.out</text>
      <circle style="stroke:red; stroke-width:1; fill:red; " transform="" cy="414.156569068" cx="977.751964718" r="5" id="A.FUS" d="M 982.75195,414.15656 C 982.75195,416.91798 980.51338,419.15656 977.75195,419.15656 974.99053,419.15656 972.75195,416.91798 972.75195,414.15656 972.75195,411.39513 974.99053,409.15656 977.75195,409.15656 980.51338,409.15656 982.75195,411.39513 982.75195,414.15656 z" />
      <text style="font-size:30; vertical-align:top; fill-opacity:1.0; fill:darkblue; text-anchor:right; stroke:none; font-weight:normal; font-style:italic; text-align:right; " transform="" id="A.FUS.text" y="407.156569068" x="984.751964718">
FUS</text>
      <circle style="stroke:gray; stroke-width:1; fill:none; " transform="" cy="1188.85629798" cx="820.674347227" r="5" id="A.FWS.inpoint" d="M 825.67438,1188.8563 C 825.67438,1191.6177 823.4358,1193.8563 820.67438,1193.8563 817.91295,1193.8563 815.67438,1191.6177 815.67438,1188.8563 815.67438,1186.0949 817.91295,1183.8563 820.67438,1183.8563 823.4358,1183.8563 825.67438,1186.0949 825.67438,1188.8563 z" />
      <text style="font-size:25; vertical-align:top; fill-opacity:1.0; fill:gray; text-anchor:right; stroke:none; font-weight:normal; font-style:italic; text-align:right; " transform="" id="A.FWS.inpoint.text" y="1181.85629798" x="827.674347227">
FWS.in</text>
      <circle style="stroke:red; stroke-width:1; fill:red; " transform="" cy="1178.70920847" cx="1017.22302229" r="5" id="A.FWS" d="M 1022.223,1178.7092 C 1022.223,1181.4707 1019.9844,1183.7092 1017.223,1183.7092 1014.4616,1183.7092 1012.223,1181.4707 1012.223,1178.7092 1012.223,1175.9478 1014.4616,1173.7092 1017.223,1173.7092 1019.9844,1173.7092 1022.223,1175.9478 1022.223,1178.7092 z" />
      <text style="font-size:30; vertical-align:top; fill-opacity:1.0; fill:darkblue; text-anchor:right; stroke:none; font-weight:normal; font-style:italic; text-align:right; " transform="" id="A.FWS.text" y="1171.70920847" x="1024.22302229">
FWS</text>
      <circle style="stroke:red; stroke-width:1; fill:red; " transform="" cy="686.336120106" cx="436.186310261" r="5" id="A.FD2" d="M 441.18631,686.33612 C 441.18631,689.09754 438.94773,691.33612 436.18631,691.33612 433.42489,691.33612 431.18631,689.09754 431.18631,686.33612 431.18631,683.5747 433.42489,681.33612 436.18631,681.33612 438.94773,681.33612 441.18631,683.5747 441.18631,686.33612 z" />
      <text style="font-size:30; vertical-align:top; fill-opacity:1.0; fill:darkblue; text-anchor:right; stroke:none; font-weight:normal; font-style:italic; text-align:right; " transform="" id="A.FD2.text" y="679.336120106" x="443.186310261">
FD2</text>
      <circle style="stroke:red; stroke-width:1; fill:red; " transform="" cy="676.032398091" cx="1043.61544518" r="5" id="A.FD2.i" d="M 1048.6155,676.03241 C 1048.6155,678.79383 1046.3769,681.03241 1043.6155,681.03241 1040.8541,681.03241 1038.6155,678.79383 1038.6155,676.03241 1038.6155,673.27099 1040.8541,671.03241 1043.6155,671.03241 1046.3769,671.03241 1048.6155,673.27099 1048.6155,676.03241 z" />
      <text style="font-size:30; vertical-align:top; fill-opacity:1.0; fill:darkblue; text-anchor:right; stroke:none; font-weight:normal; font-style:italic; text-align:right; " transform="" id="A.FD2.i.text" y="669.032398091" x="1050.61544518">
FD2.i</text>
      <circle style="stroke:red; stroke-width:1; fill:red; " transform="" cy="846.424417537" cx="1022.23072638" r="5" id="A.FD2.o" d="M 1027.2307,846.42444 C 1027.2307,849.18586 1024.9921,851.42444 1022.2307,851.42444 1019.4693,851.42444 1017.2307,849.18586 1017.2307,846.42444 1017.2307,843.66301 1019.4693,841.42444 1022.2307,841.42444 1024.9921,841.42444 1027.2307,843.66301 1027.2307,846.42444 z" />
      <text style="font-size:30; vertical-align:top; fill-opacity:1.0; fill:darkblue; text-anchor:right; stroke:none; font-weight:normal; font-style:italic; text-align:right; " transform="" id="A.FD2.o.text" y="839.424417537" x="1029.23072638">
FD2.o</text>
      <circle style="stroke:red; stroke-width:1; fill:red; " transform="" cy="1278.42519685" cx="278.732412409" r="5" id="A.f8" d="M 283.73242,1278.4252 C 283.73242,1281.1866 281.49385,1283.4252 278.73242,1283.4252 275.971,1283.4252 273.73242,1281.1866 273.73242,1278.4252 273.73242,1275.6637 275.971,1273.4252 278.73242,1273.4252 281.49385,1273.4252 283.73242,1275.6637 283.73242,1278.4252 z" />
      <text style="font-size:30; vertical-align:top; fill-opacity:1.0; fill:darkblue; text-anchor:right; stroke:none; font-weight:normal; font-style:italic; text-align:right; " transform="" id="A.f8.text" y="1271.42519685" x="285.732412409">
f8</text>
      <circle style="stroke:red; stroke-width:1; fill:red; " transform="" cy="1278.42519685" cx="429.929004914" r="5" id="A.f9" d="M 434.92902,1278.4252 C 434.92902,1281.1866 432.69044,1283.4252 429.92902,1283.4252 427.16759,1283.4252 424.92902,1281.1866 424.92902,1278.4252 424.92902,1275.6637 427.16759,1273.4252 429.92902,1273.4252 432.69044,1273.4252 434.92902,1275.6637 434.92902,1278.4252 z" />
      <text style="font-size:30; vertical-align:top; fill-opacity:1.0; fill:darkblue; text-anchor:right; stroke:none; font-weight:normal; font-style:italic; text-align:right; " transform="" id="A.f9.text" y="1271.42519685" x="436.929004914">
f9</text>
      <circle style="stroke:red; stroke-width:1; fill:red; " transform="" cy="748.346456693" cx="354.330708661" r="5" id="A.FD1" d="M 359.33072,748.34644 C 359.33072,751.10786 357.09214,753.34644 354.33072,753.34644 351.5693,753.34644 349.33072,751.10786 349.33072,748.34644 349.33072,745.58501 351.5693,743.34644 354.33072,743.34644 357.09214,743.34644 359.33072,745.58501 359.33072,748.34644 z" />
      <text style="font-size:30; vertical-align:top; fill-opacity:1.0; fill:darkblue; text-anchor:right; stroke:none; font-weight:normal; font-style:italic; text-align:right; " transform="" id="A.FD1.text" y="741.346456693" x="361.330708661">
FD1</text>
      <circle style="stroke:gray; stroke-width:1; fill:none; " transform="" cy="1278.42519685" cx="157.936420394" r="5" id="A.FD1.i.inpoint" d="M 162.93642,1278.4252 C 162.93642,1281.1866 160.69784,1283.4252 157.93642,1283.4252 155.17499,1283.4252 152.93642,1281.1866 152.93642,1278.4252 152.93642,1275.6637 155.17499,1273.4252 157.93642,1273.4252 160.69784,1273.4252 162.93642,1275.6637 162.93642,1278.4252 z" />
      <text style="font-size:25; vertical-align:top; fill-opacity:1.0; fill:gray; text-anchor:right; stroke:none; font-weight:normal; font-style:italic; text-align:right; " transform="" id="A.FD1.i.inpoint.text" y="1271.42519685" x="164.936420394">
FD1.i.in</text>
      <circle style="stroke:red; stroke-width:1; fill:red; " transform="" cy="1295.30935407" cx="276.324442757" r="5" id="A.FD1.i" d="M 281.32443,1295.3093 C 281.32443,1298.0707 279.08586,1300.3093 276.32443,1300.3093 273.56301,1300.3093 271.32443,1298.0707 271.32443,1295.3093 271.32443,1292.5479 273.56301,1290.3093 276.32443,1290.3093 279.08586,1290.3093 281.32443,1292.5479 281.32443,1295.3093 z" />
      <text style="font-size:30; vertical-align:top; fill-opacity:1.0; fill:darkblue; text-anchor:right; stroke:none; font-weight:normal; font-style:italic; text-align:right; " transform="" id="A.FD1.i.text" y="1288.30935407" x="283.324442757">
FD1.i</text>
      <circle style="stroke:gray; stroke-width:1; fill:none; " transform="" cy="1386.07556596" cx="-204.095876888" r="5" id="A.FD1.o.outpoint" d="M -199.09587,1386.0756 C -199.09587,1388.837 -201.33445,1391.0756 -204.09587,1391.0756 -206.85729,1391.0756 -209.09587,1388.837 -209.09587,1386.0756 -209.09587,1383.3141 -206.85729,1381.0756 -204.09587,1381.0756 -201.33445,1381.0756 -199.09587,1383.3141 -199.09587,1386.0756 z" />
      <text style="font-size:25; vertical-align:top; fill-opacity:1.0; fill:gray; text-anchor:right; stroke:none; font-weight:normal; font-style:italic; text-align:right; " transform="" id="A.FD1.o.outpoint.text" y="1379.07556596" x="-197.095876888">
FD1.o.out</text>
      <circle style="stroke:red; stroke-width:1; fill:red; " transform="" cy="1295.30935407" cx="432.336974566" r="5" id="A.FD1.o" d="M 437.33698,1295.3093 C 437.33698,1298.0707 435.0984,1300.3093 432.33698,1300.3093 429.57555,1300.3093 427.33698,1298.0707 427.33698,1295.3093 427.33698,1292.5479 429.57555,1290.3093 432.33698,1290.3093 435.0984,1290.3093 437.33698,1292.5479 437.33698,1295.3093 z" />
      <text style="font-size:30; vertical-align:top; fill-opacity:1.0; fill:darkblue; text-anchor:right; stroke:none; font-weight:normal; font-style:italic; text-align:right; " transform="" id="A.FD1.o.text" y="1288.30935407" x="439.336974566">
FD1.o</text>
      <path style="stroke-linejoin:miter; stroke-dashoffset:0; stroke:gray; stroke-miterlimit:4; stroke-dasharray:6,6; stroke-width:2; fill:none; " transform="" d="M 0.0  1278.42519685 L 717.519685039  -185.066796591 L 717.519685039  -280.62992126 L 0.0  -280.62992126 L 0.0  0.0 M 0.0  676.062992126 L 354.330708661  676.062992126 L 1001.30202848  510.440110693 M 0.0  318.897637795 L 921.25984252  318.897637795 L 952.496633245  310.901105139 L 1120.87520975  999.31052285 L 1097.00781299  1005.42051089 L 921.25984252  318.897637795 M 0.0  1278.42519685 L 354.330708661  1278.42519685 L 354.330708661  676.062992126 L 642.801896586  1204.85841516 L 1097.00781299  1005.42051089 M 354.330708661  676.062992126 L 436.186310261  686.336120106 " id="A.gridline" />
    </g>
    <g id="document.bodice.Bodice Back.reference" transform=" translate(115077.678951, 13286.322780)">
      <circle style="stroke:gray; stroke-width:1; fill:none; " transform="" cy="0.0" cx="-213.353231784" r="5" id="B.BNC.inpoint" d="M -208.35323,0 C -208.35323,2.7614237 -210.5918,5 -213.35323,5 -216.11465,5 -218.35323,2.7614237 -218.35323,0 -218.35323,-2.7614237 -216.11465,-5 -213.35323,-5 -210.5918,-5 -208.35323,-2.7614237 -208.35323,0 z" />
      <text style="font-size:25; vertical-align:top; fill-opacity:1.0; fill:gray; text-anchor:right; stroke:none; font-weight:normal; font-style:italic; text-align:right; " transform="" id="B.BNC.inpoint.text" y="-7.0" x="-206.353231784">
BNC.in</text>
      <circle style="stroke:red; stroke-width:1; fill:red; " transform="" cy="0.0" cx="0.0" r="5" id="B.BNC" d="M 5,0 C 5,2.7614237 2.7614237,5 0,5 -2.7614237,5 -5,2.7614237 -5,0 -5,-2.7614237 -2.7614237,-5 0,-5 2.7614237,-5 5,-2.7614237 5,0 z" />
      <text style="font-size:30; vertical-align:top; fill-opacity:1.0; fill:darkblue; text-anchor:right; stroke:none; font-weight:normal; font-style:italic; text-align:right; " transform="" id="B.BNC.text" y="-7.0" x="7.0">
BNC</text>
      <circle style="stroke:gray; stroke-width:1; fill:none; " transform="" cy="1384.72440945" cx="-106.563858022" r="5" id="B.BWC.outpoint" d="M -101.56386,1384.7244 C -101.56386,1387.4858 -103.80243,1389.7244 -106.56386,1389.7244 -109.32528,1389.7244 -111.56386,1387.4858 -111.56386,1384.7244 -111.56386,1381.9629 -109.32528,1379.7244 -106.56386,1379.7244 -103.80243,1379.7244 -101.56386,1381.9629 -101.56386,1384.7244 z" />
      <text style="font-size:25; vertical-align:top; fill-opacity:1.0; fill:gray; text-anchor:right; stroke:none; font-weight:normal; font-style:italic; text-align:right; " transform="" id="B.BWC.outpoint.text" y="1377.72440945" x="-99.5638580225">
BWC.out</text>
      <circle style="stroke:red; stroke-width:1; fill:red; " transform="" cy="1384.72440945" cx="0.0" r="5" id="B.BWC" d="M 5,1384.7244 C 5,1387.4858 2.7614237,1389.7244 0,1389.7244 -2.7614237,1389.7244 -5,1387.4858 -5,1384.7244 -5,1381.9629 -2.7614237,1379.7244 0,1379.7244 2.7614237,1379.7244 5,1381.9629 5,1384.7244 z" />
      <text style="font-size:30; vertical-align:top; fill-opacity:1.0; fill:darkblue; text-anchor:right; stroke:none; font-weight:normal; font-style:italic; text-align:right; " transform="" id="B.BWC.text" y="1377.72440945" x="7.0">
BWC</text>
      <circle style="stroke:red; stroke-width:1; fill:red; " transform="" cy="-103.464566929" cx="0.0" r="5" id="B.BSH" d="M 5,-103.46457 C 5,-100.70315 2.7614237,-98.464569 0,-98.464569 -2.7614237,-98.464569 -5,-100.70315 -5,-103.46457 -5,-106.22599 -2.7614237,-108.46457 0,-108.46457 2.7614237,-108.46457 5,-106.22599 5,-103.46457 z" />
      <text style="font-size:30; vertical-align:top; fill-opacity:1.0; fill:darkblue; text-anchor:right; stroke:none; font-weight:normal; font-style:italic; text-align:right; " transform="" id="B.BSH.text" y="-110.464566929" x="7.0">
BSH</text>
      <circle style="stroke:red; stroke-width:1; fill:red; " transform="" cy="-103.464566929" cx="-708.661417323" r="5" id="B.BSW" d="M -703.66144,-103.46457 C -703.66144,-100.70315 -705.90001,-98.464569 -708.66144,-98.464569 -711.42286,-98.464569 -713.66144,-100.70315 -713.66144,-103.46457 -713.66144,-106.22599 -711.42286,-108.46457 -708.66144,-108.46457 -705.90001,-108.46457 -703.66144,-106.22599 -703.66144,-103.46457 z" />
      <text style="font-size:30; vertical-align:top; fill-opacity:1.0; fill:darkblue; text-anchor:right; stroke:none; font-weight:normal; font-style:italic; text-align:right; " transform="" id="B.BSW.text" y="-110.464566929" x="-701.661417323">
BSW</text>
      <circle style="stroke:gray; stroke-width:1; fill:none; " transform="" cy="165.198032789" cx="-691.132822337" r="5" id="B.BSP.inpoint" d="M -686.13281,165.19803 C -686.13281,167.95945 -688.37139,170.19803 -691.13281,170.19803 -693.89424,170.19803 -696.13281,167.95945 -696.13281,165.19803 -696.13281,162.4366 -693.89424,160.19803 -691.13281,160.19803 -688.37139,160.19803 -686.13281,162.4366 -686.13281,165.19803 z" />
      <text style="font-size:25; vertical-align:top; fill-opacity:1.0; fill:gray; text-anchor:right; stroke:none; font-weight:normal; font-style:italic; text-align:right; " transform="" id="B.BSP.inpoint.text" y="158.198032789" x="-684.132822337">
BSP.in</text>
      <circle style="stroke:red; stroke-width:1; fill:red; " transform="" cy="119.926455172" cx="-714.642654558" r="5" id="B.BSP" d="M -709.64264,119.92645 C -709.64264,122.68788 -711.88122,124.92645 -714.64264,124.92645 -717.40406,124.92645 -719.64264,122.68788 -719.64264,119.92645 -719.64264,117.16503 -717.40406,114.92645 -714.64264,114.92645 -711.88122,114.92645 -709.64264,117.16503 -709.64264,119.92645 z" />
      <text style="font-size:30; vertical-align:top; fill-opacity:1.0; fill:darkblue; text-anchor:right; stroke:none; font-weight:normal; font-style:italic; text-align:right; " transform="" id="B.BSP.text" y="112.926455172" x="-707.642654558">
BSP</text>
      <circle style="stroke:gray; stroke-width:1; fill:none; " transform="" cy="-60.8322755881" cx="-255.167104168" r="5" id="B.BNS.outpoint" d="M -250.1671,-60.832275 C -250.1671,-58.070852 -252.40568,-55.832275 -255.1671,-55.832275 -257.92852,-55.832275 -260.1671,-58.070852 -260.1671,-60.832275 -260.1671,-63.593699 -257.92852,-65.832275 -255.1671,-65.832275 -252.40568,-65.832275 -250.1671,-63.593699 -250.1671,-60.832275 z" />
      <text style="font-size:25; vertical-align:top; fill-opacity:1.0; fill:gray; text-anchor:right; stroke:none; font-weight:normal; font-style:italic; text-align:right; " transform="" id="B.BNS.outpoint.text" y="-67.8322755881" x="-248.167104168">
BNS.out</text>
      <circle style="stroke:red; stroke-width:1; fill:red; " transform="" cy="-103.464566929" cx="-284.470975712" r="5" id="B.BNS" d="M -279.47098,-103.46457 C -279.47098,-100.70315 -281.70955,-98.464569 -284.47098,-98.464569 -287.2324,-98.464569 -289.47098,-100.70315 -289.47098,-103.46457 -289.47098,-106.22599 -287.2324,-108.46457 -284.47098,-108.46457 -281.70955,-108.46457 -279.47098,-106.22599 -279.47098,-103.46457 z" />
      <text style="font-size:30; vertical-align:top; fill-opacity:1.0; fill:darkblue; text-anchor:right; stroke:none; font-weight:normal; font-style:italic; text-align:right; " transform="" id="B.BNS.text" y="-110.464566929" x="-277.470975712">
BNS</text>
      <circle style="stroke:red; stroke-width:1; fill:red; " transform="" cy="637.795275591" cx="0.0" r="5" id="B.BUC" d="M 5,637.79529 C 5,640.55671 2.7614237,642.79529 0,642.79529 -2.7614237,642.79529 -5,640.55671 -5,637.79529 -5,635.03386 -2.7614237,632.79529 0,632.79529 2.7614237,632.79529 5,635.03386 5,637.79529 z" />
      <text style="font-size:30; vertical-align:top; fill-opacity:1.0; fill:darkblue; text-anchor:right; stroke:none; font-weight:normal; font-style:italic; text-align:right; " transform="" id="B.BUC.text" y="630.795275591" x="7.0">
BUC</text>
      <circle style="stroke:red; stroke-width:1; fill:red; " transform="" cy="637.795275591" cx="-627.342519685" r="5" id="B.b7" d="M -622.34253,637.79529 C -622.34253,640.55671 -624.58111,642.79529 -627.34253,642.79529 -630.10395,642.79529 -632.34253,640.55671 -632.34253,637.79529 -632.34253,635.03386 -630.10395,632.79529 -627.34253,632.79529 -624.58111,632.79529 -622.34253,635.03386 -622.34253,637.79529 z" />
      <text style="font-size:30; vertical-align:top; fill-opacity:1.0; fill:darkblue; text-anchor:right; stroke:none; font-weight:normal; font-style:italic; text-align:right; " transform="" id="B.b7.text" y="630.795275591" x="-620.342519685">
b7</text>
      <circle style="stroke:red; stroke-width:1; fill:red; " transform="" cy="425.196850394" cx="0.0" r="5" id="B.BAC" d="M 5,425.19684 C 5,427.95826 2.7614237,430.19684 0,430.19684 -2.7614237,430.19684 -5,427.95826 -5,425.19684 -5,422.43541 -2.7614237,420.19684 0,420.19684 2.7614237,420.19684 5,422.43541 5,425.19684 z" />
      <text style="font-size:30; vertical-align:top; fill-opacity:1.0; fill:darkblue; text-anchor:right; stroke:none; font-weight:normal; font-style:italic; text-align:right; " transform="" id="B.BAC.text" y="418.196850394" x="7.0">
BAC</text>
      <circle style="stroke:gray; stroke-width:1; fill:none; " transform="" cy="637.795275591" cx="-627.342519685" r="5" id="B.BAP.inpoint" d="M -622.34253,637.79529 C -622.34253,640.55671 -624.58111,642.79529 -627.34253,642.79529 -630.10395,642.79529 -632.34253,640.55671 -632.34253,637.79529 -632.34253,635.03386 -630.10395,632.79529 -627.34253,632.79529 -624.58111,632.79529 -622.34253,635.03386 -622.34253,637.79529 z" />
      <text style="font-size:25; vertical-align:top; fill-opacity:1.0; fill:gray; text-anchor:right; stroke:none; font-weight:normal; font-style:italic; text-align:right; " transform="" id="B.BAP.inpoint.text" y="630.795275591" x="-620.342519685">
BAP.in</text>
      <circle style="stroke:gray; stroke-width:1; fill:none; " transform="" cy="336.384110283" cx="-627.342519685" r="5" id="B.BAP.outpoint" d="M -622.34253,336.38412 C -622.34253,339.14555 -624.58111,341.38412 -627.34253,341.38412 -630.10395,341.38412 -632.34253,339.14555 -632.34253,336.38412 -632.34253,333.6227 -630.10395,331.38412 -627.34253,331.38412 -624.58111,331.38412 -622.34253,333.6227 -622.34253,336.38412 z" />
      <text style="font-size:25; vertical-align:top; fill-opacity:1.0; fill:gray; text-anchor:right; stroke:none; font-weight:normal; font-style:italic; text-align:right; " transform="" id="B.BAP.outpoint.text" y="329.384110283" x="-620.342519685">
BAP.out</text>
      <circle style="stroke:red; stroke-width:1; fill:red; " transform="" cy="448.610592374" cx="-627.342519685" r="5" id="B.BAP" d="M -622.34253,448.6106 C -622.34253,451.37202 -624.58111,453.6106 -627.34253,453.6106 -630.10395,453.6106 -632.34253,451.37202 -632.34253,448.6106 -632.34253,445.84917 -630.10395,443.6106 -627.34253,443.6106 -624.58111,443.6106 -622.34253,445.84917 -622.34253,448.6106 z" />
      <text style="font-size:30; vertical-align:top; fill-opacity:1.0; fill:darkblue; text-anchor:right; stroke:none; font-weight:normal; font-style:italic; text-align:right; " transform="" id="B.BAP.text" y="441.610592374" x="-620.342519685">
BAP</text>
      <circle style="stroke:red; stroke-width:1; fill:red; " transform="" cy="637.795275591" cx="-885.826771654" r="5" id="B.b1" d="M -880.82678,637.79529 C -880.82678,640.55671 -883.06536,642.79529 -885.82678,642.79529 -888.58821,642.79529 -890.82678,640.55671 -890.82678,637.79529 -890.82678,635.03386 -888.58821,632.79529 -885.82678,632.79529 -883.06536,632.79529 -880.82678,635.03386 -880.82678,637.79529 z" />
      <text style="font-size:30; vertical-align:top; fill-opacity:1.0; fill:darkblue; text-anchor:right; stroke:none; font-weight:normal; font-style:italic; text-align:right; " transform="" id="B.b1.text" y="630.795275591" x="-878.826771654">
b1</text>
      <circle style="stroke:red; stroke-width:1; fill:red; " transform="" cy="637.795275591" cx="-404.484803555" r="5" id="B.BD1" d="M -399.4848,637.79529 C -399.4848,640.55671 -401.72338,642.79529 -404.4848,642.79529 -407.24623,642.79529 -409.4848,640.55671 -409.4848,637.79529 -409.4848,635.03386 -407.24623,632.79529 -404.4848,632.79529 -401.72338,632.79529 -399.4848,635.03386 -399.4848,637.79529 z" />
      <text style="font-size:30; vertical-align:top; fill-opacity:1.0; fill:darkblue; text-anchor:right; stroke:none; font-weight:normal; font-style:italic; text-align:right; " transform="" id="B.BD1.text" y="630.795275591" x="-397.484803555">
BD1</text>
      <circle style="stroke:red; stroke-width:1; fill:red; " transform="" cy="1384.72440945" cx="-404.484803555" r="5" id="B.b2" d="M -399.4848,1384.7244 C -399.4848,1387.4858 -401.72338,1389.7244 -404.4848,1389.7244 -407.24623,1389.7244 -409.4848,1387.4858 -409.4848,1384.7244 -409.4848,1381.9629 -407.24623,1379.7244 -404.4848,1379.7244 -401.72338,1379.7244 -399.4848,1381.9629 -399.4848,1384.7244 z" />
      <text style="font-size:30; vertical-align:top; fill-opacity:1.0; fill:darkblue; text-anchor:right; stroke:none; font-weight:normal; font-style:italic; text-align:right; " transform="" id="B.b2.text" y="1377.72440945" x="-397.484803555">
b2</text>
      <circle style="stroke:red; stroke-width:1; fill:red; " transform="" cy="1384.72440945" cx="-323.587842844" r="5" id="B.b3" d="M -318.58783,1384.7244 C -318.58783,1387.4858 -320.82641,1389.7244 -323.58783,1389.7244 -326.34925,1389.7244 -328.58783,1387.4858 -328.58783,1384.7244 -328.58783,1381.9629 -326.34925,1379.7244 -323.58783,1379.7244 -320.82641,1379.7244 -318.58783,1381.9629 -318.58783,1384.7244 z" />
      <text style="font-size:30; vertical-align:top; fill-opacity:1.0; fill:darkblue; text-anchor:right; stroke:none; font-weight:normal; font-style:italic; text-align:right; " transform="" id="B.b3.text" y="1377.72440945" x="-316.587842844">
b3</text>
      <circle style="stroke:red; stroke-width:1; fill:red; " transform="" cy="1384.72440945" cx="-485.381764266" r="5" id="B.b4" d="M -480.38177,1384.7244 C -480.38177,1387.4858 -482.62035,1389.7244 -485.38177,1389.7244 -488.1432,1389.7244 -490.38177,1387.4858 -490.38177,1384.7244 -490.38177,1381.9629 -488.1432,1379.7244 -485.38177,1379.7244 -482.62035,1379.7244 -480.38177,1381.9629 -480.38177,1384.7244 z" />
      <text style="font-size:30; vertical-align:top; fill-opacity:1.0; fill:darkblue; text-anchor:right; stroke:none; font-weight:normal; font-style:italic; text-align:right; " transform="" id="B.b4.text" y="1377.72440945" x="-478.381764266">
b4</text>
      <circle style="stroke:gray; stroke-width:1; fill:none; " transform="" cy="1384.72440945" cx="-259.832368872" r="5" id="B.BD1.i.inpoint" d="M -254.83237,1384.7244 C -254.83237,1387.4858 -257.07094,1389.7244 -259.83237,1389.7244 -262.59379,1389.7244 -264.83237,1387.4858 -264.83237,1384.7244 -264.83237,1381.9629 -262.59379,1379.7244 -259.83237,1379.7244 -257.07094,1379.7244 -254.83237,1381.9629 -254.83237,1384.7244 z" />
      <text style="font-size:25; vertical-align:top; fill-opacity:1.0; fill:gray; text-anchor:right; stroke:none; font-weight:normal; font-style:italic; text-align:right; " transform="" id="B.BD1.i.inpoint.text" y="1377.72440945" x="-252.832368872">
BD1.i.in</text>
      <circle style="stroke:red; stroke-width:1; fill:red; " transform="" cy="1391.54945523" cx="-322.848648943" r="5" id="B.BD1.i" d="M -317.84866,1391.5494 C -317.84866,1394.3109 -320.08724,1396.5494 -322.84866,1396.5494 -325.61009,1396.5494 -327.84866,1394.3109 -327.84866,1391.5494 -327.84866,1388.788 -325.61009,1386.5494 -322.84866,1386.5494 -320.08724,1386.5494 -317.84866,1388.788 -317.84866,1391.5494 z" />
      <text style="font-size:30; vertical-align:top; fill-opacity:1.0; fill:darkblue; text-anchor:right; stroke:none; font-weight:normal; font-style:italic; text-align:right; " transform="" id="B.BD1.i.text" y="1384.54945523" x="-315.848648943">
BD1.i</text>
      <circle style="stroke:gray; stroke-width:1; fill:none; " transform="" cy="-11009.5472929" cx="-114986.596274" r="5" id="B.BD1.o.outpoint" d="M -114981.59,-11009.547 C -114981.59,-11006.785 -114983.83,-11004.547 -114986.59,-11004.547 -114989.36,-11004.547 -114991.59,-11006.785 -114991.59,-11009.547 -114991.59,-11012.308 -114989.36,-11014.547 -114986.59,-11014.547 -114983.83,-11014.547 -114981.59,-11012.308 -114981.59,-11009.547 z" />
      <text style="font-size:25; vertical-align:top; fill-opacity:1.0; fill:gray; text-anchor:right; stroke:none; font-weight:normal; font-style:italic; text-align:right; " transform="" id="B.BD1.o.outpoint.text" y="-11016.5472929" x="-114979.596274">
BD1.o.out</text>
      <circle style="stroke:red; stroke-width:1; fill:red; " transform="" cy="1391.54945523" cx="-486.120958167" r="5" id="B.BD1.o" d="M -481.12097,1391.5494 C -481.12097,1394.3109 -483.35955,1396.5494 -486.12097,1396.5494 -488.8824,1396.5494 -491.12097,1394.3109 -491.12097,1391.5494 -491.12097,1388.788 -488.8824,1386.5494 -486.12097,1386.5494 -483.35955,1386.5494 -481.12097,1388.788 -481.12097,1391.5494 z" />
      <text style="font-size:30; vertical-align:top; fill-opacity:1.0; fill:darkblue; text-anchor:right; stroke:none; font-weight:normal; font-style:italic; text-align:right; " transform="" id="B.BD1.o.text" y="1384.54945523" x="-479.120958167">
BD1.o</text>
      <circle style="stroke:red; stroke-width:1; fill:red; " transform="" cy="1344.46221635" cx="-832.696373192" r="5" id="B.b5" d="M -827.69635,1344.4622 C -827.69635,1347.2236 -829.93493,1349.4622 -832.69635,1349.4622 -835.45777,1349.4622 -837.69635,1347.2236 -837.69635,1344.4622 -837.69635,1341.7007 -835.45777,1339.4622 -832.69635,1339.4622 -829.93493,1339.4622 -827.69635,1341.7007 -827.69635,1344.4622 z" />
      <text style="font-size:30; vertical-align:top; fill-opacity:1.0; fill:darkblue; text-anchor:right; stroke:none; font-weight:normal; font-style:italic; text-align:right; " transform="" id="B.b5.text" y="1337.46221635" x="-825.696373192">
b5</text>
      <circle style="stroke:red; stroke-width:1; fill:red; " transform="" cy="637.795275591" cx="-918.070866142" r="5" id="B.b6" d="M -913.07086,637.79529 C -913.07086,640.55671 -915.30944,642.79529 -918.07086,642.79529 -920.83229,642.79529 -923.07086,640.55671 -923.07086,637.79529 -923.07086,635.03386 -920.83229,632.79529 -918.07086,632.79529 -915.30944,632.79529 -913.07086,635.03386 -913.07086,637.79529 z" />
      <text style="font-size:30; vertical-align:top; fill-opacity:1.0; fill:darkblue; text-anchor:right; stroke:none; font-weight:normal; font-style:italic; text-align:right; " transform="" id="B.b6.text" y="630.795275591" x="-911.070866142">
b6</text>
      <circle style="stroke:gray; stroke-width:1; fill:none; " transform="" cy="1357.75096214" cx="-734.568852473" r="5" id="B.BWS.inpoint" d="M -729.56885,1357.751 C -729.56885,1360.5124 -731.80742,1362.751 -734.56885,1362.751 -737.33027,1362.751 -739.56885,1360.5124 -739.56885,1357.751 -739.56885,1354.9896 -737.33027,1352.751 -734.56885,1352.751 -731.80742,1352.751 -729.56885,1354.9896 -729.56885,1357.751 z" />
      <text style="font-size:25; vertical-align:top; fill-opacity:1.0; fill:gray; text-anchor:right; stroke:none; font-weight:normal; font-style:italic; text-align:right; " transform="" id="B.BWS.inpoint.text" y="1350.75096214" x="-727.568852473">
BWS.in</text>
      <circle style="stroke:red; stroke-width:1; fill:red; " transform="" cy="1344.46221635" cx="-857.333430278" r="5" id="B.BWS" d="M -852.33344,1344.4622 C -852.33344,1347.2236 -854.57201,1349.4622 -857.33344,1349.4622 -860.09486,1349.4622 -862.33344,1347.2236 -862.33344,1344.4622 -862.33344,1341.7007 -860.09486,1339.4622 -857.33344,1339.4622 -854.57201,1339.4622 -852.33344,1341.7007 -852.33344,1344.4622 z" />
      <text style="font-size:30; vertical-align:top; fill-opacity:1.0; fill:darkblue; text-anchor:right; stroke:none; font-weight:normal; font-style:italic; text-align:right; " transform="" id="B.BWS.text" y="1337.46221635" x="-850.333430278">
BWS</text>
      <circle style="stroke:gray; stroke-width:1; fill:none; " transform="" cy="735.745552049" cx="-816.37303945" r="5" id="B.BUS.outpoint" d="M -811.37305,735.74554 C -811.37305,738.50697 -813.61162,740.74554 -816.37305,740.74554 -819.13447,740.74554 -821.37305,738.50697 -821.37305,735.74554 -821.37305,732.98412 -819.13447,730.74554 -816.37305,730.74554 -813.61162,730.74554 -811.37305,732.98412 -811.37305,735.74554 z" />
      <text style="font-size:25; vertical-align:top; fill-opacity:1.0; fill:gray; text-anchor:right; stroke:none; font-weight:normal; font-style:italic; text-align:right; " transform="" id="B.BUS.outpoint.text" y="728.745552049" x="-809.37303945">
BUS.out</text>
      <circle style="stroke:red; stroke-width:1; fill:red; " transform="" cy="743.704020292" cx="-908.968097613" r="5" id="B.BUS" d="M -903.96808,743.70404 C -903.96808,746.46546 -906.20665,748.70404 -908.96808,748.70404 -911.7295,748.70404 -913.96808,746.46546 -913.96808,743.70404 -913.96808,740.94262 -911.7295,738.70404 -908.96808,738.70404 -906.20665,738.70404 -903.96808,740.94262 -903.96808,743.70404 z" />
      <text style="font-size:30; vertical-align:top; fill-opacity:1.0; fill:darkblue; text-anchor:right; stroke:none; font-weight:normal; font-style:italic; text-align:right; " transform="" id="B.BUS.text" y="736.704020292" x="-901.968097613">
BUS</text>
      <circle style="stroke:red; stroke-width:1; fill:red; " transform="" cy="136.011191943" cx="-433.199680137" r="5" id="B.BD2" d="M -428.19968,136.01118 C -428.19968,138.77261 -430.43825,141.01118 -433.19968,141.01118 -435.9611,141.01118 -438.19968,138.77261 -438.19968,136.01118 -438.19968,133.24976 -435.9611,131.01118 -433.19968,131.01118 -430.43825,131.01118 -428.19968,133.24976 -428.19968,136.01118 z" />
      <text style="font-size:30; vertical-align:top; fill-opacity:1.0; fill:darkblue; text-anchor:right; stroke:none; font-weight:normal; font-style:italic; text-align:right; " transform="" id="B.BD2.text" y="129.011191943" x="-426.199680137">
BD2</text>
      <circle style="stroke:red; stroke-width:1; fill:red; " transform="" cy="-13.6837315495" cx="-496.566196517" r="5" id="B.BD2.i" d="M -491.56619,-13.683731 C -491.56619,-10.922307 -493.80477,-8.6837311 -496.56619,-8.6837311 -499.32762,-8.6837311 -501.56619,-10.922307 -501.56619,-13.683731 -501.56619,-16.445155 -499.32762,-18.683731 -496.56619,-18.683731 -493.80477,-18.683731 -491.56619,-16.445155 -491.56619,-13.683731 z" />
      <text style="font-size:30; vertical-align:top; fill-opacity:1.0; fill:darkblue; text-anchor:right; stroke:none; font-weight:normal; font-style:italic; text-align:right; " transform="" id="B.BD2.i.text" y="-20.6837315495" x="-489.566196517">
BD2.i</text>
      <circle style="stroke:red; stroke-width:1; fill:red; " transform="" cy="-1.92803154546" cx="-519.203494826" r="5" id="B.BD2.o" d="M -514.20349,-1.9280316 C -514.20349,0.83339219 -516.44207,3.0719684 -519.20349,3.0719684 -521.96491,3.0719684 -524.20349,0.83339219 -524.20349,-1.9280316 -524.20349,-4.6894553 -521.96491,-6.9280316 -519.20349,-6.9280316 -516.44207,-6.9280316 -514.20349,-4.6894553 -514.20349,-1.9280316 z" />
      <text style="font-size:30; vertical-align:top; fill-opacity:1.0; fill:darkblue; text-anchor:right; stroke:none; font-weight:normal; font-style:italic; text-align:right; " transform="" id="B.BD2.o.text" y="-8.92803154546" x="-512.203494826">
BD2.o</text>
      <path style="stroke-linejoin:miter; stroke-dashoffset:0; stroke:gray; stroke-miterlimit:4; stroke-dasharray:6,6; stroke-width:2; fill:none; " transform="" d="M 0.0  1384.72440945 L -714.642654558  119.926455172 L -708.661417323  -103.464566929 L 0.0  -103.464566929 L 0.0  637.795275591 L -918.070866142  637.795275591 L -908.968097613  743.704020292 M -885.826771654  637.795275591 L -832.696373192  1344.46221635 L -857.333430278  1344.46221635 " id="B.gridline" />
    </g>
    <g id="document.bodice.Bodice Sleeve.reference" transform=" translate(843.342502, 14905.045198)">
      <circle style="stroke:gray; stroke-width:1; fill:none; " transform="" cy="0.0" cx="146.329251383" r="5" id="C.SCM.inpoint" d="M 151.32925,0 C 151.32925,2.7614237 149.09068,5 146.32925,5 143.56783,5 141.32925,2.7614237 141.32925,0 141.32925,-2.7614237 143.56783,-5 146.32925,-5 149.09068,-5 151.32925,-2.7614237 151.32925,0 z" />
      <text style="font-size:25; vertical-align:top; fill-opacity:1.0; fill:gray; text-anchor:right; stroke:none; font-weight:normal; font-style:italic; text-align:right; " transform="" id="C.SCM.inpoint.text" y="-7.0" x="153.329251383">
SCM.in</text>
      <circle style="stroke:gray; stroke-width:1; fill:none; " transform="" cy="0.0" cx="-180.133854192" r="5" id="C.SCM.outpoint" d="M -175.13385,0 C -175.13385,2.7614237 -177.37243,5 -180.13385,5 -182.89527,5 -185.13385,2.7614237 -185.13385,0 -185.13385,-2.7614237 -182.89527,-5 -180.13385,-5 -177.37243,-5 -175.13385,-2.7614237 -175.13385,0 z" />
      <text style="font-size:25; vertical-align:top; fill-opacity:1.0; fill:gray; text-anchor:right; stroke:none; font-weight:normal; font-style:italic; text-align:right; " transform="" id="C.SCM.outpoint.text" y="-7.0" x="-173.133854192">
SCM.out</text>
      <circle style="stroke:red; stroke-width:1; fill:red; " transform="" cy="0.0" cx="0.0" r="5" id="C.SCM" d="M 5,0 C 5,2.7614237 2.7614237,5 0,5 -2.7614237,5 -5,2.7614237 -5,0 -5,-2.7614237 -2.7614237,-5 0,-5 2.7614237,-5 5,-2.7614237 5,0 z" />
      <text style="font-size:30; vertical-align:top; fill-opacity:1.0; fill:darkblue; text-anchor:right; stroke:none; font-weight:normal; font-style:italic; text-align:right; " transform="" id="C.SCM.text" y="-7.0" x="7.0">
SCM</text>
      <circle style="stroke:red; stroke-width:1; fill:red; " transform="" cy="2291.1023622" cx="0.0" r="5" id="C.SWM" d="M 5,2291.1023 C 5,2293.8637 2.7614237,2296.1023 0,2296.1023 -2.7614237,2296.1023 -5,2293.8637 -5,2291.1023 -5,2288.3409 -2.7614237,2286.1023 0,2286.1023 2.7614237,2286.1023 5,2288.3409 5,2291.1023 z" />
      <text style="font-size:30; vertical-align:top; fill-opacity:1.0; fill:darkblue; text-anchor:right; stroke:none; font-weight:normal; font-style:italic; text-align:right; " transform="" id="C.SWM.text" y="2284.1023622" x="7.0">
SWM</text>
      <circle style="stroke:red; stroke-width:1; fill:red; " transform="" cy="554.881889764" cx="0.0" r="5" id="C.SUM" d="M 5,554.8819 C 5,557.64332 2.7614237,559.8819 0,559.8819 -2.7614237,559.8819 -5,557.64332 -5,554.8819 -5,552.12047 -2.7614237,549.8819 0,549.8819 2.7614237,549.8819 5,552.12047 5,554.8819 z" />
      <text style="font-size:30; vertical-align:top; fill-opacity:1.0; fill:darkblue; text-anchor:right; stroke:none; font-weight:normal; font-style:italic; text-align:right; " transform="" id="C.SUM.text" y="547.881889764" x="7.0">
SUM</text>
      <circle style="stroke:red; stroke-width:1; fill:red; " transform="" cy="0.0" cx="-613.877952756" r="5" id="C.SCF" d="M -608.87793,0 C -608.87793,2.7614237 -611.11651,5 -613.87793,5 -616.63935,5 -618.87793,2.7614237 -618.87793,0 -618.87793,-2.7614237 -616.63935,-5 -613.87793,-5 -611.11651,-5 -608.87793,-2.7614237 -608.87793,0 z" />
      <text style="font-size:30; vertical-align:top; fill-opacity:1.0; fill:darkblue; text-anchor:right; stroke:none; font-weight:normal; font-style:italic; text-align:right; " transform="" id="C.SCF.text" y="-7.0" x="-606.877952756">
SCF</text>
      <circle style="stroke:red; stroke-width:1; fill:red; " transform="" cy="0.0" cx="613.877952756" r="5" id="C.SCB" d="M 618.87793,0 C 618.87793,2.7614237 616.63935,5 613.87793,5 611.11651,5 608.87793,2.7614237 608.87793,0 608.87793,-2.7614237 611.11651,-5 613.87793,-5 616.63935,-5 618.87793,-2.7614237 618.87793,0 z" />
      <text style="font-size:30; vertical-align:top; fill-opacity:1.0; fill:darkblue; text-anchor:right; stroke:none; font-weight:normal; font-style:italic; text-align:right; " transform="" id="C.SCB.text" y="-7.0" x="620.877952756">
SCB</text>
      <circle style="stroke:red; stroke-width:1; fill:red; " transform="" cy="0.0" cx="-306.938976378" r="5" id="C.SCF1" d="M -301.93896,0 C -301.93896,2.7614237 -304.17754,5 -306.93896,5 -309.70039,5 -311.93896,2.7614237 -311.93896,0 -311.93896,-2.7614237 -309.70039,-5 -306.93896,-5 -304.17754,-5 -301.93896,-2.7614237 -301.93896,0 z" />
      <text style="font-size:30; vertical-align:top; fill-opacity:1.0; fill:darkblue; text-anchor:right; stroke:none; font-weight:normal; font-style:italic; text-align:right; " transform="" id="C.SCF1.text" y="-7.0" x="-299.938976378">
SCF1</text>
      <circle style="stroke:red; stroke-width:1; fill:red; " transform="" cy="0.0" cx="306.938976378" r="5" id="C.SCB1" d="M 311.93896,0 C 311.93896,2.7614237 309.70039,5 306.93896,5 304.17754,5 301.93896,2.7614237 301.93896,0 301.93896,-2.7614237 304.17754,-5 306.93896,-5 309.70039,-5 311.93896,-2.7614237 311.93896,0 z" />
      <text style="font-size:30; vertical-align:top; fill-opacity:1.0; fill:darkblue; text-anchor:right; stroke:none; font-weight:normal; font-style:italic; text-align:right; " transform="" id="C.SCB1.text" y="-7.0" x="313.938976378">
SCB1</text>
      <circle style="stroke:gray; stroke-width:1; fill:none; " transform="" cy="554.881889764" cx="608.451818264" r="5" id="C.SUB.outpoint" d="M 613.45184,554.8819 C 613.45184,557.64332 611.21327,559.8819 608.45184,559.8819 605.69042,559.8819 603.45184,557.64332 603.45184,554.8819 603.45184,552.12047 605.69042,549.8819 608.45184,549.8819 611.21327,549.8819 613.45184,552.12047 613.45184,554.8819 z" />
      <text style="font-size:25; vertical-align:top; fill-opacity:1.0; fill:gray; text-anchor:right; stroke:none; font-weight:normal; font-style:italic; text-align:right; " transform="" id="C.SUB.outpoint.text" y="547.881889764" x="615.451818264">
SUB.out</text>
      <circle style="stroke:red; stroke-width:1; fill:red; " transform="" cy="554.881889764" cx="680.372468035" r="5" id="C.SUB" d="M 685.3725,554.8819 C 685.3725,557.64332 683.13392,559.8819 680.3725,559.8819 677.61107,559.8819 675.3725,557.64332 675.3725,554.8819 675.3725,552.12047 677.61107,549.8819 680.3725,549.8819 683.13392,549.8819 685.3725,552.12047 685.3725,554.8819 z" />
      <text style="font-size:30; vertical-align:top; fill-opacity:1.0; fill:darkblue; text-anchor:right; stroke:none; font-weight:normal; font-style:italic; text-align:right; " transform="" id="C.SUB.text" y="547.881889764" x="687.372468035">
SUB</text>
      <circle style="stroke:gray; stroke-width:1; fill:none; " transform="" cy="554.881889764" cx="-671.223993894" r="5" id="C.SUF.inpoint" d="M -666.224,554.8819 C -666.224,557.64332 -668.46258,559.8819 -671.224,559.8819 -673.98542,559.8819 -676.224,557.64332 -676.224,554.8819 -676.224,552.12047 -673.98542,549.8819 -671.224,549.8819 -668.46258,549.8819 -666.224,552.12047 -666.224,554.8819 z" />
      <text style="font-size:25; vertical-align:top; fill-opacity:1.0; fill:gray; text-anchor:right; stroke:none; font-weight:normal; font-style:italic; text-align:right; " transform="" id="C.SUF.inpoint.text" y="547.881889764" x="-664.223993894">
SUF.in</text>
      <circle style="stroke:gray; stroke-width:1; fill:none; " transform="" cy="867.858994229" cx="-670.676141759" r="5" id="C.SUF.outpoint" d="M -665.67615,867.85901 C -665.67615,870.62043 -667.91472,872.85901 -670.67615,872.85901 -673.43757,872.85901 -675.67615,870.62043 -675.67615,867.85901 -675.67615,865.09759 -673.43757,862.85901 -670.67615,862.85901 -667.91472,862.85901 -665.67615,865.09759 -665.67615,867.85901 z" />
      <text style="font-size:25; vertical-align:top; fill-opacity:1.0; fill:gray; text-anchor:right; stroke:none; font-weight:normal; font-style:italic; text-align:right; " transform="" id="C.SUF.outpoint.text" y="860.858994229" x="-663.676141759">
SUF.out</text>
      <circle style="stroke:red; stroke-width:1; fill:red; " transform="" cy="554.881889764" cx="-752.259824615" r="5" id="C.SUF" d="M -747.25983,554.8819 C -747.25983,557.64332 -749.4984,559.8819 -752.25983,559.8819 -755.02125,559.8819 -757.25983,557.64332 -757.25983,554.8819 -757.25983,552.12047 -755.02125,549.8819 -752.25983,549.8819 -749.4984,549.8819 -747.25983,552.12047 -747.25983,554.8819 z" />
      <text style="font-size:30; vertical-align:top; fill-opacity:1.0; fill:darkblue; text-anchor:right; stroke:none; font-weight:normal; font-style:italic; text-align:right; " transform="" id="C.SUF.text" y="547.881889764" x="-745.259824615">
SUF</text>
      <circle style="stroke:gray; stroke-width:1; fill:none; " transform="" cy="185.180989921" cx="279.477545115" r="5" id="C.s1.outpoint" d="M 284.47754,185.18098 C 284.47754,187.94241 282.23896,190.18098 279.47754,190.18098 276.71612,190.18098 274.47754,187.94241 274.47754,185.18098 274.47754,182.41956 276.71612,180.18098 279.47754,180.18098 282.23896,180.18098 284.47754,182.41956 284.47754,185.18098 z" />
      <text style="font-size:25; vertical-align:top; fill-opacity:1.0; fill:gray; text-anchor:right; stroke:none; font-weight:normal; font-style:italic; text-align:right; " transform="" id="C.s1.outpoint.text" y="178.180989921" x="286.477545115">
s1.out</text>
      <circle style="stroke:gray; stroke-width:1; fill:none; " transform="" cy="393.176099668" cx="429.029580553" r="5" id="C.s1.inpoint" d="M 434.02957,393.17609 C 434.02957,395.93751 431.791,398.17609 429.02957,398.17609 426.26815,398.17609 424.02957,395.93751 424.02957,393.17609 424.02957,390.41466 426.26815,388.17609 429.02957,388.17609 431.791,388.17609 434.02957,390.41466 434.02957,393.17609 z" />
      <text style="font-size:25; vertical-align:top; fill-opacity:1.0; fill:gray; text-anchor:right; stroke:none; font-weight:normal; font-style:italic; text-align:right; " transform="" id="C.s1.inpoint.text" y="386.176099668" x="436.029580553">
s1.in</text>
      <circle style="stroke:red; stroke-width:1; fill:red; " transform="" cy="276.389537196" cx="345.058047997" r="5" id="C.s1" d="M 350.05804,276.38953 C 350.05804,279.15095 347.81947,281.38953 345.05804,281.38953 342.29662,281.38953 340.05804,279.15095 340.05804,276.38953 340.05804,273.6281 342.29662,271.38953 345.05804,271.38953 347.81947,271.38953 350.05804,273.6281 350.05804,276.38953 z" />
      <text style="font-size:30; vertical-align:top; fill-opacity:1.0; fill:darkblue; text-anchor:right; stroke:none; font-weight:normal; font-style:italic; text-align:right; " transform="" id="C.s1.text" y="269.389537196" x="352.058047997">
s1</text>
      <circle style="stroke:gray; stroke-width:1; fill:none; " transform="" cy="133.296743216" cx="-336.72710778" r="5" id="C.s2.inpoint" d="M -331.72711,133.29674 C -331.72711,136.05816 -333.96569,138.29674 -336.72711,138.29674 -339.48854,138.29674 -341.72711,136.05816 -341.72711,133.29674 -341.72711,130.53531 -339.48854,128.29674 -336.72711,128.29674 -333.96569,128.29674 -331.72711,130.53531 -331.72711,133.29674 z" />
      <text style="font-size:25; vertical-align:top; fill-opacity:1.0; fill:gray; text-anchor:right; stroke:none; font-weight:normal; font-style:italic; text-align:right; " transform="" id="C.s2.inpoint.text" y="126.296743216" x="-329.72710778">
s2.in</text>
      <circle style="stroke:gray; stroke-width:1; fill:none; " transform="" cy="304.003858564" cx="-537.269011193" r="5" id="C.s2.outpoint" d="M -532.26898,304.00385 C -532.26898,306.76527 -534.50756,309.00385 -537.26898,309.00385 -540.03041,309.00385 -542.26898,306.76527 -542.26898,304.00385 -542.26898,301.24242 -540.03041,299.00385 -537.26898,299.00385 -534.50756,299.00385 -532.26898,301.24242 -532.26898,304.00385 z" />
      <text style="font-size:25; vertical-align:top; fill-opacity:1.0; fill:gray; text-anchor:right; stroke:none; font-weight:normal; font-style:italic; text-align:right; " transform="" id="C.s2.outpoint.text" y="297.003858564" x="-530.269011193">
s2.out</text>
      <circle style="stroke:red; stroke-width:1; fill:red; " transform="" cy="198.950363009" cx="-413.855128205" r="5" id="C.s2" d="M -408.85513,198.95036 C -408.85513,201.71179 -411.09371,203.95036 -413.85513,203.95036 -416.61656,203.95036 -418.85513,201.71179 -418.85513,198.95036 -418.85513,196.18894 -416.61656,193.95036 -413.85513,193.95036 -411.09371,193.95036 -408.85513,196.18894 -408.85513,198.95036 z" />
      <text style="font-size:30; vertical-align:top; fill-opacity:1.0; fill:darkblue; text-anchor:right; stroke:none; font-weight:normal; font-style:italic; text-align:right; " transform="" id="C.s2.text" y="191.950363009" x="-406.855128205">
s2</text>
      <circle style="stroke:red; stroke-width:1; fill:red; " transform="" cy="1509.80314961" cx="0.0" r="5" id="C.SEM" d="M 5,1509.8031 C 5,1512.5645 2.7614237,1514.8031 0,1514.8031 -2.7614237,1514.8031 -5,1512.5645 -5,1509.8031 -5,1507.0417 -2.7614237,1504.8031 0,1504.8031 2.7614237,1504.8031 5,1507.0417 5,1509.8031 z" />
      <text style="font-size:30; vertical-align:top; fill-opacity:1.0; fill:darkblue; text-anchor:right; stroke:none; font-weight:normal; font-style:italic; text-align:right; " transform="" id="C.SEM.text" y="1502.80314961" x="7.0">
SEM</text>
      <circle style="stroke:red; stroke-width:1; fill:red; " transform="" cy="1509.80314961" cx="637.795275591" r="5" id="C.SEB" d="M 642.79529,1509.8031 C 642.79529,1512.5645 640.55671,1514.8031 637.79529,1514.8031 635.03386,1514.8031 632.79529,1512.5645 632.79529,1509.8031 632.79529,1507.0417 635.03386,1504.8031 637.79529,1504.8031 640.55671,1504.8031 642.79529,1507.0417 642.79529,1509.8031 z" />
      <text style="font-size:30; vertical-align:top; fill-opacity:1.0; fill:darkblue; text-anchor:right; stroke:none; font-weight:normal; font-style:italic; text-align:right; " transform="" id="C.SEB.text" y="1502.80314961" x="644.795275591">
SEB</text>
      <circle style="stroke:gray; stroke-width:1; fill:none; " transform="" cy="1191.06612743" cx="-586.42579924" r="5" id="C.SEF.inpoint" d="M -581.42578,1191.0662 C -581.42578,1193.8276 -583.66436,1196.0662 -586.42578,1196.0662 -589.1872,1196.0662 -591.42578,1193.8276 -591.42578,1191.0662 -591.42578,1188.3047 -589.1872,1186.0662 -586.42578,1186.0662 -583.66436,1186.0662 -581.42578,1188.3047 -581.42578,1191.0662 z" />
      <text style="font-size:25; vertical-align:top; fill-opacity:1.0; fill:gray; text-anchor:right; stroke:none; font-weight:normal; font-style:italic; text-align:right; " transform="" id="C.SEF.inpoint.text" y="1184.06612743" x="-579.42579924">
SEF.in</text>
      <circle style="stroke:red; stroke-width:1; fill:red; " transform="" cy="1509.80314961" cx="-531.496062992" r="5" id="C.SEF" d="M -526.49603,1509.8031 C -526.49603,1512.5645 -528.73461,1514.8031 -531.49603,1514.8031 -534.25746,1514.8031 -536.49603,1512.5645 -536.49603,1509.8031 -536.49603,1507.0417 -534.25746,1504.8031 -531.49603,1504.8031 -528.73461,1504.8031 -526.49603,1507.0417 -526.49603,1509.8031 z" />
      <text style="font-size:30; vertical-align:top; fill-opacity:1.0; fill:darkblue; text-anchor:right; stroke:none; font-weight:normal; font-style:italic; text-align:right; " transform="" id="C.SEF.text" y="1502.80314961" x="-524.496062992">
SEF</text>
      <circle style="stroke:red; stroke-width:1; fill:red; " transform="" cy="2291.1023622" cx="340.157480315" r="5" id="C.s3" d="M 345.15747,2291.1023 C 345.15747,2293.8637 342.91889,2296.1023 340.15747,2296.1023 337.39605,2296.1023 335.15747,2293.8637 335.15747,2291.1023 335.15747,2288.3409 337.39605,2286.1023 340.15747,2286.1023 342.91889,2286.1023 345.15747,2288.3409 345.15747,2291.1023 z" />
      <text style="font-size:30; vertical-align:top; fill-opacity:1.0; fill:darkblue; text-anchor:right; stroke:none; font-weight:normal; font-style:italic; text-align:right; " transform="" id="C.s3.text" y="2284.1023622" x="347.157480315">
s3</text>
      <circle style="stroke:red; stroke-width:1; fill:red; " transform="" cy="2291.1023622" cx="112.251968504" r="5" id="C.s4" d="M 117.25197,2291.1023 C 117.25197,2293.8637 115.01339,2296.1023 112.25197,2296.1023 109.49054,2296.1023 107.25197,2293.8637 107.25197,2291.1023 107.25197,2288.3409 109.49054,2286.1023 112.25197,2286.1023 115.01339,2286.1023 117.25197,2288.3409 117.25197,2291.1023 z" />
      <text style="font-size:30; vertical-align:top; fill-opacity:1.0; fill:darkblue; text-anchor:right; stroke:none; font-weight:normal; font-style:italic; text-align:right; " transform="" id="C.s4.text" y="2284.1023622" x="119.251968504">
s4</text>
      <circle style="stroke:red; stroke-width:1; fill:red; " transform="" cy="2291.1023622" cx="-396.850393701" r="5" id="C.s5" d="M -391.8504,2291.1023 C -391.8504,2293.8637 -394.08898,2296.1023 -396.8504,2296.1023 -399.61183,2296.1023 -401.8504,2293.8637 -401.8504,2291.1023 -401.8504,2288.3409 -399.61183,2286.1023 -396.8504,2286.1023 -394.08898,2286.1023 -391.8504,2288.3409 -391.8504,2291.1023 z" />
      <text style="font-size:30; vertical-align:top; fill-opacity:1.0; fill:darkblue; text-anchor:right; stroke:none; font-weight:normal; font-style:italic; text-align:right; " transform="" id="C.s5.text" y="2284.1023622" x="-389.850393701">
s5</text>
      <circle style="stroke:red; stroke-width:1; fill:red; " transform="" cy="2291.1023622" cx="-261.921259843" r="5" id="C.s6" d="M -256.92126,2291.1023 C -256.92126,2293.8637 -259.15984,2296.1023 -261.92126,2296.1023 -264.68269,2296.1023 -266.92126,2293.8637 -266.92126,2291.1023 -266.92126,2288.3409 -264.68269,2286.1023 -261.92126,2286.1023 -259.15984,2286.1023 -256.92126,2288.3409 -256.92126,2291.1023 z" />
      <text style="font-size:30; vertical-align:top; fill-opacity:1.0; fill:darkblue; text-anchor:right; stroke:none; font-weight:normal; font-style:italic; text-align:right; " transform="" id="C.s6.text" y="2284.1023622" x="-254.921259843">
s6</text>
      <circle style="stroke:red; stroke-width:1; fill:red; " transform="" cy="1509.80314961" cx="446.456692913" r="5" id="C.SD1" d="M 451.4567,1509.8031 C 451.4567,1512.5645 449.21812,1514.8031 446.4567,1514.8031 443.69527,1514.8031 441.4567,1512.5645 441.4567,1509.8031 441.4567,1507.0417 443.69527,1504.8031 446.4567,1504.8031 449.21812,1504.8031 451.4567,1507.0417 451.4567,1509.8031 z" />
      <text style="font-size:30; vertical-align:top; fill-opacity:1.0; fill:darkblue; text-anchor:right; stroke:none; font-weight:normal; font-style:italic; text-align:right; " transform="" id="C.SD1.text" y="1502.80314961" x="453.456692913">
SD1</text>
      <circle style="stroke:red; stroke-width:1; fill:red; " transform="" cy="1483.9780298" cx="637.939014662" r="5" id="C.SD1.i" d="M 642.93903,1483.978 C 642.93903,1486.7395 640.70045,1488.978 637.93903,1488.978 635.1776,1488.978 632.93903,1486.7395 632.93903,1483.978 632.93903,1481.2166 635.1776,1478.978 637.93903,1478.978 640.70045,1478.978 642.93903,1481.2166 642.93903,1483.978 z" />
      <text style="font-size:30; vertical-align:top; fill-opacity:1.0; fill:darkblue; text-anchor:right; stroke:none; font-weight:normal; font-style:italic; text-align:right; " transform="" id="C.SD1.i.text" y="1476.9780298" x="644.939014662">
SD1.i</text>
      <circle style="stroke:red; stroke-width:1; fill:red; " transform="" cy="1537.758132" cx="637.639681997" r="5" id="C.SD1.o" d="M 642.63971,1537.7582 C 642.63971,1540.5196 640.40113,1542.7582 637.63971,1542.7582 634.87829,1542.7582 632.63971,1540.5196 632.63971,1537.7582 632.63971,1534.9968 634.87829,1532.7582 637.63971,1532.7582 640.40113,1532.7582 642.63971,1534.9968 642.63971,1537.7582 z" />
      <text style="font-size:30; vertical-align:top; fill-opacity:1.0; fill:darkblue; text-anchor:right; stroke:none; font-weight:normal; font-style:italic; text-align:right; " transform="" id="C.SD1.o.text" y="1530.758132" x="644.639681997">
SD1.o</text>
      <circle style="stroke:gray; stroke-width:1; fill:none; " transform="" cy="2273.31472833" cx="-158.706173778" r="5" id="C.SWF.outpoint" d="M -153.70618,2273.3147 C -153.70618,2276.0761 -155.94475,2278.3147 -158.70618,2278.3147 -161.4676,2278.3147 -163.70618,2276.0761 -163.70618,2273.3147 -163.70618,2270.5533 -161.4676,2268.3147 -158.70618,2268.3147 -155.94475,2268.3147 -153.70618,2270.5533 -153.70618,2273.3147 z" />
      <text style="font-size:25; vertical-align:top; fill-opacity:1.0; fill:gray; text-anchor:right; stroke:none; font-weight:normal; font-style:italic; text-align:right; " transform="" id="C.SWF.outpoint.text" y="2266.31472833" x="-151.706173778">
SWF.out</text>
      <circle style="stroke:red; stroke-width:1; fill:red; " transform="" cy="2313.68476807" cx="-392.958641217" r="5" id="C.SWF" d="M -387.95865,2313.6848 C -387.95865,2316.4462 -390.19722,2318.6848 -392.95865,2318.6848 -395.72007,2318.6848 -397.95865,2316.4462 -397.95865,2313.6848 -397.95865,2310.9234 -395.72007,2308.6848 -392.95865,2308.6848 -390.19722,2308.6848 -387.95865,2310.9234 -387.95865,2313.6848 z" />
      <text style="font-size:30; vertical-align:top; fill-opacity:1.0; fill:darkblue; text-anchor:right; stroke:none; font-weight:normal; font-style:italic; text-align:right; " transform="" id="C.SWF.text" y="2306.68476807" x="-385.958641217">
SWF</text>
      <circle style="stroke:gray; stroke-width:1; fill:none; " transform="" cy="2256.00195899" cx="98.4505376022" r="5" id="C.SWB.inpoint" d="M 103.45054,2256.002 C 103.45054,2258.7634 101.21196,2261.002 98.450539,2261.002 95.689115,2261.002 93.450539,2258.7634 93.450539,2256.002 93.450539,2253.2405 95.689115,2251.002 98.450539,2251.002 101.21196,2251.002 103.45054,2253.2405 103.45054,2256.002 z" />
      <text style="font-size:25; vertical-align:top; fill-opacity:1.0; fill:gray; text-anchor:right; stroke:none; font-weight:normal; font-style:italic; text-align:right; " transform="" id="C.SWB.inpoint.text" y="2249.00195899" x="105.450537602">
SWB.in</text>
      <circle style="stroke:red; stroke-width:1; fill:red; " transform="" cy="2343.3073032" cx="319.542680117" r="5" id="C.SWB" d="M 324.54269,2343.3074 C 324.54269,2346.0688 322.30412,2348.3074 319.54269,2348.3074 316.78127,2348.3074 314.54269,2346.0688 314.54269,2343.3074 314.54269,2340.5459 316.78127,2338.3074 319.54269,2338.3074 322.30412,2338.3074 324.54269,2340.5459 324.54269,2343.3074 z" />
      <text style="font-size:30; vertical-align:top; fill-opacity:1.0; fill:darkblue; text-anchor:right; stroke:none; font-weight:normal; font-style:italic; text-align:right; " transform="" id="C.SWB.text" y="2336.3073032" x="326.542680117">
SWB</text>
      <path style="stroke-linejoin:miter; stroke-dashoffset:0; stroke:gray; stroke-miterlimit:4; stroke-dasharray:6,6; stroke-width:2; fill:none; " transform="" d="M 0.0  0.0 L 0.0  2291.1023622 M 680.372468035  554.881889764 L -752.259824615  554.881889764 M 637.795275591  1509.80314961 L -531.496062992  1509.80314961 M 680.372468035  554.881889764 L 345.058047997  276.389537196 L 0.0  0.0 L -413.855128205  198.950363009 L -752.259824615  554.881889764 M 637.795275591  1509.80314961 L 340.157480315  2291.1023622 M -752.259824615  554.881889764 L -396.850393701  2291.1023622 L 340.157480315  2291.1023622 M -752.259824615  554.881889764 L -613.877952756  0.0 L 613.877952756  0.0 L 680.372468035  554.881889764 " id="C.gridline" />
    </g>
  </g>
</svg>
