<?xml version="1.0" encoding="UTF-8" standalone="no"?>
<svg xmlns:dc="http://purl.org/dc/elements/1.1/" xmlns:cc="http://creativecommons.org/ns#" xmlns:rdf="http://www.w3.org/1999/02/22-rdf-syntax-ns#" xmlns:svg="http://www.w3.org/2000/svg" xmlns="http://www.w3.org/2000/svg" xmlns:sodipodi="http://sodipodi.sourceforge.net/DTD/sodipodi-0.dtd" xmlns:inkscape="http://www.inkscape.org/namespaces/inkscape" patternNumber="MR_B1" fitBoxtoViewport="True" companyName="Next Patterns" currentscale="0.5:1" margin-right="88.5826771654" client-name="Susan" designerName="S.L.Spencer" height="2442.50444952" width="2821.82102033" margin-top="88.5826771654" version="1.1" margin-bottom="88.5826771654" margin-left="88.5826771654" preserveAspectRatio="xMidYMid meet" id="svg2" inkscape:version="0.48.4 r9939" sodipodi:docname="Susan-spencer_bodice_short-2014-12-21-0343.svg">
  <metadata id="metadata223">
    <rdf:RDF>
      <cc:Work rdf:about="">
        <dc:format>image/svg+xml</dc:format>
        <dc:type rdf:resource="http://purl.org/dc/dcmitype/StillImage" />
      </cc:Work>
    </rdf:RDF>
  </metadata>
  <sodipodi:namedview id="base" pagecolor="#ffffff" bordercolor="#666666" borderopacity="1.0" inkscape:pageopacity="0.0" inkscape:pageshadow="2" inkscape:zoom="0.36274244" inkscape:document-units="pt" showgrid="false" inkscape:window-maximized="1" inkscape:cx="1410.9105" inkscape:cy="1221.2522" inkscape:window-width="1855" inkscape:window-height="1056" inkscape:window-x="65" inkscape:window-y="24" inkscape:current-layer="pattern" />
  <defs id="defs5">
    <marker style="overflow:visible" id="Arrow1Mstart" refX="0.0" refY="0.0" orient="auto" inkscape:stockid="Arrow1Mstart">
      <path transform="scale(0.4) translate(10,0)" style="fill-rule:evenodd;stroke:#000000;stroke-width:1.0pt;marker-start:none" d="M 0.0,0.0 L 5.0,-5.0 L -12.5,0.0 L 5.0,5.0 L 0.0,0.0 z " id="path8" />
    </marker>
    <marker style="overflow:visible;" id="Arrow1Mend" refX="0.0" refY="0.0" orient="auto" inkscape:stockid="Arrow1Mend">
      <path transform="scale(0.4) rotate(180) translate(10,0)" style="fill-rule:evenodd;stroke:#000000;stroke-width:1.0pt;marker-start:none;" d="M 0.0,0.0 L 5.0,-5.0 L -12.5,0.0 L 5.0,5.0 L 0.0,0.0 z " id="path11" />
    </marker>
  </defs>
  <g inkscape:label="Label-pattern" id="pattern" inkscape:groupmode="layer" transform="translate(88.582677,88.582677)">
    <g id="document.bodice.Bodice Front.pattern" transform=" translate(58.750000, 934.882992)">
      <g id="A.letter" transform="matrix(10.000000, 0, 0, 10.000000, -3428.149606, -1030.039370)">
        <text style="font-size:24; vertical-align:top; fill-opacity:1.0; fill:#000000; text-anchor:start; stroke:none; font-weight:normal; font-style:normal; text-align:right; " transform="" id="A.letter.letterline" y="114.448818898" x="380.905511811">
A</text>
      </g>
      <line style="stroke-linejoin:miter; stroke:green; stroke-width:4; stroke-miterlimit:4; fill:none; " y2="1062.99212598" marker-end="url(#Arrow1Mend)" marker-start="url(#Arrow1Mstart)" transform="" x2="138.967890865" y1="159.448818898" x1="138.967890865" id="A.grainline" />
      <path style="stroke-linejoin:miter; stroke-dashoffset:0; stroke:green; stroke-miterlimit:4; stroke-dasharray:6,6; stroke-width:3; fill:none; " transform="" d="M 287.083873882  1274.20610319 L 372.047244094  705.826771654 L 457.010614307  1274.20610319 M 1093.30061536  636.741572938 L 450.801221945  648.155010092 L 1068.49123583  825.340742656 " id="A.dartline" />
      <path style="stroke-linejoin:miter; stroke-dashoffset:0; stroke:green; stroke-dasharray:24,6; stroke-miterlimit:4; stroke-width:4; fill:none; " transform="" d="M 0.0  0.0 L 0.0  1204.72440945 C 97.5890590179  1204.72440945  202.748829844  1204.72440945  295.399925392  1218.57422575 L 372.047244094  1238.13888808 L 448.694562797  1218.57422575 C 593.306865425  1196.95706284  833.576676059  1188.55003378  1023.17851116  1174.19388877 L 1014.42179578  809.830805424 L 1065.92232093  729.071446893 L 1037.05948849  637.740647137 L 965.38765353  410.949114401 C 832.204994061  452.509278324  723.720472441  333.844507673  723.720472441  159.448818898 C 723.720472441  15.1460150084  734.673955823  -216.454981063  761.811023622  -276.170256318 L 277.935781731  -496.062992126 C 175.319171687  -270.25454591  166.761469039  0.0  0.0  0.0 " id="A.seamline" />
      <path style="fill:none;stroke:#008000;stroke-width:4;stroke-linejoin:miter;stroke-miterlimit:4" d="M 226.59375,-519.03125 C 181.76032,-420.90334 155.25819,-316.00488 121.3125,-213.96875 106.11161,-170.70675 90.667742,-126.22984 62.625,-89.4375 49.395387,-72.050075 30.089772,-57.775964 7.65625,-56.5625 -13.626802,-55.833866 -34.951333,-56.457467 -56.25,-56.25 -56.25,382.82292 -56.25,821.89583 -56.25,1260.9688 51.310812,1261.4756 159.49518,1258.5601 266.34375,1271.375 291.74104,1273.8625 315.94124,1282.5611 340.73152,1288.1801 351.49993,1290.582 362.26716,1294.3517 373.03122,1295.9393 403.262,1288.4833 433.28401,1279.9684 463.65625,1273.2188 570.84021,1258.5877 679.23248,1252.6712 787.23685,1245.7586 885.11149,1239.9033 982.97186,1234.0207 1080.7188,1226.2812 1077.4474,1092.751 1074.265,959.21864 1071.0312,825.6875 1089.8546,796.17733 1108.6867,766.67283 1127.5,737.15625 1085.6538,604.95169 1043.8934,472.72077 1002.0938,340.5 978.73646,347.19404 955.98373,356.24191 932.18568,361.24808 900.82095,367.62714 867.39173,357.3912 844,335.8125 805.13347,300.39846 787.77733,247.70662 781.9375,196.71875 778.16064,158.13551 780.69073,119.20408 780.9235,80.533401 783.45186,-9.9335985 787.26083,-100.64673 799.36269,-190.33334 803.52939,-216.45003 806.85577,-243.27422 819.31161,-267.01933 824.83274,-279.43997 830.35387,-291.86061 835.875,-304.28125 640.48882,-393.10457 445.09123,-481.90279 249.6875,-570.6875 241.98958,-553.46875 234.29167,-536.25 226.59375,-519.03125 z" id="A.cuttingline" inkscape:connector-curvature="0" />
      <g id="A.info" transform="">
        <text style="font-size:12; vertical-align:top; fill-opacity:1.0; fill:#000000; text-anchor:start; stroke:none; font-weight:normal; font-style:normal; text-align:right; " transform="" id="A.info.lineNext Patterns" y="159.448818898" x="380.905511811">
Next Patterns</text>
        <text style="font-size:12; vertical-align:top; fill-opacity:1.0; fill:#000000; text-anchor:start; stroke:none; font-weight:normal; font-style:normal; text-align:right; " transform="" id="A.info.lineMR_B1" y="173.848818898" x="380.905511811">
MR_B1</text>
        <text style="font-size:12; vertical-align:top; fill-opacity:1.0; fill:#000000; text-anchor:start; stroke:none; font-weight:normal; font-style:normal; text-align:right; " transform="" id="A.info.lineSpencer Bodice Short" y="188.248818898" x="380.905511811">
Spencer Bodice Short</text>
        <text style="font-size:12; vertical-align:top; fill-opacity:1.0; fill:#000000; text-anchor:start; stroke:none; font-weight:normal; font-style:normal; text-align:right; " transform="" id="A.info.linePattern Piece A" y="202.648818898" x="380.905511811">
Pattern Piece A</text>
        <text style="font-size:12; vertical-align:top; fill-opacity:1.0; fill:#000000; text-anchor:start; stroke:none; font-weight:normal; font-style:normal; text-align:right; " transform="" id="A.info.lineCut 2 Fabric" y="217.048818898" x="380.905511811">
Cut 2 Fabric</text>
        <text style="font-size:12; vertical-align:top; fill-opacity:1.0; fill:#000000; text-anchor:start; stroke:none; font-weight:normal; font-style:normal; text-align:right; " transform="" id="A.info.line " y="231.448818898" x="380.905511811" />
        <text style="font-size:12; vertical-align:top; fill-opacity:1.0; fill:#000000; text-anchor:start; stroke:none; font-weight:normal; font-style:normal; text-align:right; " transform="" id="A.info.lineSusan" y="245.848818898" x="380.905511811">
Susan</text>
        <text style="font-size:12; vertical-align:top; fill-opacity:1.0; fill:#000000; text-anchor:start; stroke:none; font-weight:normal; font-style:normal; text-align:right; " transform="" id="A.info.line2014/12/21 3:43" y="260.248818898" x="380.905511811">
2014/12/21 3:43</text>
      </g>
    </g>
    <g id="document.bodice.Bodice Back.pattern" transform=" translate(2419.655666, 651.418425)">
      <g id="B.letter" transform="matrix(10.000000, 0, 0, 10.000000, 3680.840750, -2465.078740)">
        <text style="font-size:24; vertical-align:top; fill-opacity:1.0; fill:#000000; text-anchor:start; stroke:none; font-weight:normal; font-style:normal; text-align:right; " transform="" id="B.letter.letterline" y="273.897637795" x="-408.982305594">
B</text>
      </g>
      <line style="stroke-linejoin:miter; stroke:green; stroke-width:4; stroke-miterlimit:4; fill:none; " y2="1302.16535433" marker-end="url(#Arrow1Mend)" marker-start="url(#Arrow1Mstart)" transform="" x2="-215.167117294" y1="212.598425197" x1="-215.167117294" id="B.grainline" />
      <path style="stroke-linejoin:miter; stroke-dashoffset:0; stroke:green; stroke-miterlimit:4; stroke-dasharray:6,6; stroke-width:3; fill:none; " transform="" d="M -625.897929141  1516.74655516 L -514.844021733  637.795275591 L -403.790114325  1516.74655516 M -689.396933996  -60.1774059115 L -543.133726897  63.4267811003 L -668.260236335  -81.5362398176 " id="B.dartline" />
      <path style="stroke-linejoin:miter; stroke-dashoffset:0; stroke:green; stroke-dasharray:24,6; stroke-miterlimit:4; stroke-width:4; fill:none; " transform="" d="M 0.0  0.0 L 0.0  1452.75590551 C -135.60447576  1452.75590551  -346.065161097  1452.75590551  -410.841142283  1460.94023379 L -514.844021733  1485.45052429 L -618.846901183  1460.94023379 C -554.532350041  1469.06626123  -906.959401281  1378.22923014  -1049.90726628  1341.38484033 L -983.298980092  743.441031555 C -892.753615108  753.527383308  -707.221948819  637.795275591  -707.221948819  464.957713371 C -707.221948819  363.794934051  -785.280144076  211.450297025  -817.964611188  179.105755062 L -646.433725095  -23.8700350219 L -639.563316666  -31.9999211951 L -631.505699971  -38.9549463114 L -430.334234587  -212.598425197 C -382.337945439  -117.751818368  -322.75067594  0.0  0.0  0.0 " id="B.seamline" />
      <path style="fill:none;stroke:#008000;stroke-width:4;stroke-linejoin:miter;stroke-miterlimit:4" d="M -467.09375,-255.1875 C -538.1218,-193.72443 -609.48306,-132.59805 -680.30411,-70.925736 -751.64792,13.423274 -822.98174,97.881286 -894.3125,182.28125 -880.73064,196.57011 -865.68551,209.57409 -852.9625,224.6125 -826.99422,261.15084 -808.02251,302.41864 -791.6147,343.99773 -777.03861,383.34127 -763.81375,424.63098 -763.46875,466.96875 -763.73805,522.61118 -791.51919,575.11365 -830.3125,613.71875 -863.17198,646.37257 -903.35712,672.8121 -948.46875,684.625 -963.22469,688.81524 -978.53156,688.08332 -993.54327,685.85359 -1006.7163,684.51698 -1019.8894,683.18036 -1033.0625,681.84375 -1059.095,915.78343 -1085.1607,1149.7194 -1111.2188,1383.6562 -1022.7942,1406.4613 -934.2826,1429.2413 -846.03125,1452.4688 -841.39583,1427.1146 -836.76042,1401.7604 -832.125,1376.4062 -802.473,1397.027 -772.80112,1417.6191 -743.15625,1438.25 -749.91667,1439.9479 -756.67708,1441.6458 -763.4375,1443.3438 -762.44231,1439.6289 -758.90082,1426.4499 -759.61463,1429.0872 -762.30269,1434.0617 -760.28922,1443.8238 -767.34899,1444.3465 -773.17016,1445.8039 -778.99133,1447.2613 -784.8125,1448.7188 -781.86458,1437.625 -778.91667,1426.5312 -775.96875,1415.4375 -778.9375,1426.5417 -781.90625,1437.6458 -784.875,1448.75 -792.13542,1450.5729 -799.39583,1452.3958 -806.65625,1454.2188 -802.58333,1438.7917 -798.51042,1423.3646 -794.4375,1407.9375 -798.55208,1423.375 -802.66667,1438.8125 -806.78125,1454.25 -811.23602,1455.7358 -821.29512,1457.1872 -822.47075,1458.6932 -761.86544,1475.0309 -701.09762,1490.4359 -641.09375,1509.1875 -635.28137,1514.1479 -628.6573,1517.2887 -621.04309,1518.2098 -585.64287,1526.5442 -550.24728,1534.8984 -514.84375,1543.2188 -475.89217,1534.3126 -437.11558,1524.4088 -398.0625,1516.0938 -331.87015,1510.5979 -265.32269,1510.6857 -198.90636,1509.6622 -113.85671,1508.8622 -28.802306,1509.0288 56.25,1509 56.25,987.32292 56.25,465.64583 56.25,-56.03125 -12.148379,-56.087832 -80.69737,-55.42112 -148.25256,-67.337553 -207.07673,-77.596443 -267.37544,-96.217278 -312.19928,-137.46413 -351.25294,-172.93347 -371.68039,-222.69518 -395.70967,-268.43823 -401.42103,-279.62549 -407.13239,-290.81274 -412.84375,-302 -430.92708,-286.39583 -449.01042,-270.79167 -467.09375,-255.1875 z" id="B.cuttingline" inkscape:connector-curvature="0" />
      <g id="B.info" transform="">
        <text style="font-size:12; vertical-align:top; fill-opacity:1.0; fill:#000000; text-anchor:start; stroke:none; font-weight:normal; font-style:normal; text-align:right; " transform="" id="B.info.lineNext Patterns" y="318.897637795" x="-408.982305594">
Next Patterns</text>
        <text style="font-size:12; vertical-align:top; fill-opacity:1.0; fill:#000000; text-anchor:start; stroke:none; font-weight:normal; font-style:normal; text-align:right; " transform="" id="B.info.lineMR_B1" y="333.297637795" x="-408.982305594">
MR_B1</text>
        <text style="font-size:12; vertical-align:top; fill-opacity:1.0; fill:#000000; text-anchor:start; stroke:none; font-weight:normal; font-style:normal; text-align:right; " transform="" id="B.info.lineSpencer Bodice Short" y="347.697637795" x="-408.982305594">
Spencer Bodice Short</text>
        <text style="font-size:12; vertical-align:top; fill-opacity:1.0; fill:#000000; text-anchor:start; stroke:none; font-weight:normal; font-style:normal; text-align:right; " transform="" id="B.info.linePattern Piece B" y="362.097637795" x="-408.982305594">
Pattern Piece B</text>
        <text style="font-size:12; vertical-align:top; fill-opacity:1.0; fill:#000000; text-anchor:start; stroke:none; font-weight:normal; font-style:normal; text-align:right; " transform="" id="B.info.lineCut 2 Fabric" y="376.497637795" x="-408.982305594">
Cut 2 Fabric</text>
        <text style="font-size:12; vertical-align:top; fill-opacity:1.0; fill:#000000; text-anchor:start; stroke:none; font-weight:normal; font-style:normal; text-align:right; " transform="" id="B.info.line " y="390.897637795" x="-408.982305594" />
        <text style="font-size:12; vertical-align:top; fill-opacity:1.0; fill:#000000; text-anchor:start; stroke:none; font-weight:normal; font-style:normal; text-align:right; " transform="" id="B.info.lineSusan" y="405.297637795" x="-408.982305594">
Susan</text>
        <text style="font-size:12; vertical-align:top; fill-opacity:1.0; fill:#000000; text-anchor:start; stroke:none; font-weight:normal; font-style:normal; text-align:right; " transform="" id="B.info.line2014/12/21 3:43" y="419.697637795" x="-408.982305594">
2014/12/21 3:43</text>
      </g>
    </g>
    <g id="document.bodice.Bodice Sleeve.pattern" transform=" translate(2588.405666, 436.320000)">
      <g id="C.info" transform="">
        <text style="font-size:12; vertical-align:top; fill-opacity:1.0; fill:#000000; text-anchor:start; stroke:none; font-weight:normal; font-style:normal; text-align:right; " transform="" id="C.info.lineNext Patterns" y="0" x="0">
Next Patterns</text>
        <text style="font-size:12; vertical-align:top; fill-opacity:1.0; fill:#000000; text-anchor:start; stroke:none; font-weight:normal; font-style:normal; text-align:right; " transform="" id="C.info.lineMR_B1" y="14.4" x="0">
MR_B1</text>
        <text style="font-size:12; vertical-align:top; fill-opacity:1.0; fill:#000000; text-anchor:start; stroke:none; font-weight:normal; font-style:normal; text-align:right; " transform="" id="C.info.lineSpencer Bodice Short" y="28.8" x="0">
Spencer Bodice Short</text>
        <text style="font-size:12; vertical-align:top; fill-opacity:1.0; fill:#000000; text-anchor:start; stroke:none; font-weight:normal; font-style:normal; text-align:right; " transform="" id="C.info.linePattern Piece C" y="43.2" x="0">
Pattern Piece C</text>
        <text style="font-size:12; vertical-align:top; fill-opacity:1.0; fill:#000000; text-anchor:start; stroke:none; font-weight:normal; font-style:normal; text-align:right; " transform="" id="C.info.lineCut 2 Fabric" y="57.6" x="0">
Cut 2 Fabric</text>
        <text style="font-size:12; vertical-align:top; fill-opacity:1.0; fill:#000000; text-anchor:start; stroke:none; font-weight:normal; font-style:normal; text-align:right; " transform="" id="C.info.line " y="72.0" x="0" />
        <text style="font-size:12; vertical-align:top; fill-opacity:1.0; fill:#000000; text-anchor:start; stroke:none; font-weight:normal; font-style:normal; text-align:right; " transform="" id="C.info.lineSusan" y="86.4" x="0">
Susan</text>
        <text style="font-size:12; vertical-align:top; fill-opacity:1.0; fill:#000000; text-anchor:start; stroke:none; font-weight:normal; font-style:normal; text-align:right; " transform="" id="C.info.line2014/12/21 3:43" y="100.8" x="0">
2014/12/21 3:43</text>
      </g>
    </g>
  </g>
  <g inkscape:label="Label-notes" id="notes" inkscape:groupmode="layer" transform="translate(88.582677,88.582677)">
    <g id="document.titleblock">
      <text style="font-size:40; vertical-align:top; fill-opacity:1.0; fill:#000000; text-anchor:right; stroke:none; font-weight:normal; font-style:normal; text-align:right; " transform="" id="company" y="0.0" x="0.0">
Next Patterns</text>
      <text style="font-size:40; vertical-align:top; fill-opacity:1.0; fill:#000000; text-anchor:right; stroke:none; font-weight:normal; font-style:normal; text-align:right; " transform="" id="designer" y="44.0" x="0.0">
S.L.Spencer</text>
      <text style="font-size:40; vertical-align:top; fill-opacity:1.0; fill:#000000; text-anchor:right; stroke:none; font-weight:normal; font-style:normal; text-align:right; " transform="" id="pattern_number" y="88.0" x="0.0">
MR_B1</text>
      <text style="font-size:40; vertical-align:top; fill-opacity:1.0; fill:#000000; text-anchor:right; stroke:none; font-weight:normal; font-style:normal; text-align:right; " transform="" id="pattern_name" y="132.0" x="0.0">
Spencer Bodice Short</text>
      <text style="font-size:40; vertical-align:top; fill-opacity:1.0; fill:#000000; text-anchor:right; stroke:none; font-weight:normal; font-style:normal; text-align:right; " transform="" id="client" y="176.0" x="0.0">
Susan</text>
      <text style="font-size:40; vertical-align:top; fill-opacity:1.0; fill:#000000; text-anchor:right; stroke:none; font-weight:normal; font-style:normal; text-align:right; " transform="" id="date" y="220.0" x="0.0">
2014/12/21 3:43</text>
    </g>
    <g id="document.testgrid">
      <path style="stroke-linejoin:miter; stroke:green; stroke-width:4; stroke-miterlimit:4; fill:none; " d="M 1080.0  0.0 L 1080.0  212.598425197 M 1115.43307087  0.0 L 1115.43307087  212.598425197 M 1150.86614173  0.0 L 1150.86614173  212.598425197 M 1186.2992126  0.0 L 1186.2992126  212.598425197 M 1221.73228346  0.0 L 1221.73228346  212.598425197 M 1257.16535433  0.0 L 1257.16535433  212.598425197 M 1292.5984252  0.0 L 1292.5984252  212.598425197 M 1080.0  0.0 L 1292.5984252  0.0 M 1080.0  35.4330708661 L 1292.5984252  35.4330708661 M 1080.0  70.8661417323 L 1292.5984252  70.8661417323 M 1080.0  106.299212598 L 1292.5984252  106.299212598 M 1080.0  141.732283465 L 1292.5984252  141.732283465 M 1080.0  177.165354331 L 1292.5984252  177.165354331 M 1080.0  212.598425197 L 1292.5984252  212.598425197 M 1469.76377953  0.0 L 1469.76377953  270.0 M 1559.76377953  0.0 L 1559.76377953  270.0 M 1649.76377953  0.0 L 1649.76377953  270.0 M 1739.76377953  0.0 L 1739.76377953  270.0 M 1469.76377953  0.0 L 1739.76377953  0.0 M 1469.76377953  90.0 L 1739.76377953  90.0 M 1469.76377953  180.0 L 1739.76377953  180.0 M 1469.76377953  270.0 L 1739.76377953  270.0 " id="testgrid" />
    </g>
    <g id="document.bodice.Bodice Front.notes" transform=" translate(58.750000, 934.882992)" />
    <g id="document.bodice.Bodice Back.notes" transform=" translate(2419.655666, 651.418425)" />
    <g id="document.bodice.Bodice Sleeve.notes" transform=" translate(2588.405666, 436.320000)" />
  </g>
  <g inkscape:label="Label-reference" id="reference" inkscape:groupmode="layer" transform="translate(88.582677,88.582677)">
    <g id="document.bodice.Bodice Front.reference" transform=" translate(58.750000, 934.882992)">
      <circle style="stroke:gray; stroke-width:1; fill:none; " transform="" cy="0.0" cx="166.761469039" r="5" id="A.FNC.inpoint" d="M 171.76147,0 C 171.76147,2.7614237 169.5229,5 166.76147,5 164.00005,5 161.76147,2.7614237 161.76147,0 161.76147,-2.7614237 164.00005,-5 166.76147,-5 169.5229,-5 171.76147,-2.7614237 171.76147,0 z" />
      <text style="font-size:25; vertical-align:top; fill-opacity:1.0; fill:gray; text-anchor:right; stroke:none; font-weight:normal; font-style:italic; text-align:right; " transform="" id="A.FNC.inpoint.text" y="-7.0" x="173.761469039">
FNC.in</text>
      <circle style="stroke:red; stroke-width:1; fill:red; " transform="" cy="0.0" cx="0.0" r="5" id="A.FNC" d="M 5,0 C 5,2.7614237 2.7614237,5 0,5 -2.7614237,5 -5,2.7614237 -5,0 -5,-2.7614237 -2.7614237,-5 0,-5 2.7614237,-5 5,-2.7614237 5,0 z" />
      <text style="font-size:30; vertical-align:top; fill-opacity:1.0; fill:darkblue; text-anchor:right; stroke:none; font-weight:normal; font-style:italic; text-align:right; " transform="" id="A.FNC.text" y="-7.0" x="7.0">
FNC</text>
      <circle style="stroke:gray; stroke-width:1; fill:none; " transform="" cy="1204.72440945" cx="97.5890590179" r="5" id="A.FWC.outpoint" d="M 102.58906,1204.7244 C 102.58906,1207.4858 100.35048,1209.7244 97.589058,1209.7244 94.827634,1209.7244 92.589058,1207.4858 92.589058,1204.7244 92.589058,1201.9629 94.827634,1199.7244 97.589058,1199.7244 100.35048,1199.7244 102.58906,1201.9629 102.58906,1204.7244 z" />
      <text style="font-size:25; vertical-align:top; fill-opacity:1.0; fill:gray; text-anchor:right; stroke:none; font-weight:normal; font-style:italic; text-align:right; " transform="" id="A.FWC.outpoint.text" y="1197.72440945" x="104.589059018">
FWC.out</text>
      <circle style="stroke:red; stroke-width:1; fill:red; " transform="" cy="1204.72440945" cx="0.0" r="5" id="A.FWC" d="M 5,1204.7244 C 5,1207.4858 2.7614237,1209.7244 0,1209.7244 -2.7614237,1209.7244 -5,1207.4858 -5,1204.7244 -5,1201.9629 -2.7614237,1199.7244 0,1199.7244 2.7614237,1199.7244 5,1201.9629 5,1204.7244 z" />
      <text style="font-size:30; vertical-align:top; fill-opacity:1.0; fill:darkblue; text-anchor:right; stroke:none; font-weight:normal; font-style:italic; text-align:right; " transform="" id="A.FWC.text" y="1197.72440945" x="7.0">
FWC</text>
      <circle style="stroke:red; stroke-width:1; fill:red; " transform="" cy="-496.062992126" cx="0.0" r="5" id="A.FSH" d="M 5,-496.06299 C 5,-493.30156 2.7614237,-491.06299 0,-491.06299 -2.7614237,-491.06299 -5,-493.30156 -5,-496.06299 -5,-498.82441 -2.7614237,-501.06299 0,-501.06299 2.7614237,-501.06299 5,-498.82441 5,-496.06299 z" />
      <text style="font-size:30; vertical-align:top; fill-opacity:1.0; fill:darkblue; text-anchor:right; stroke:none; font-weight:normal; font-style:italic; text-align:right; " transform="" id="A.FSH.text" y="-503.062992126" x="7.0">
FSH</text>
      <circle style="stroke:red; stroke-width:1; fill:red; " transform="" cy="-496.062992126" cx="761.811023622" r="5" id="A.FSW" d="M 766.81104,-496.06299 C 766.81104,-493.30156 764.57246,-491.06299 761.81104,-491.06299 759.04961,-491.06299 756.81104,-493.30156 756.81104,-496.06299 756.81104,-498.82441 759.04961,-501.06299 761.81104,-501.06299 764.57246,-501.06299 766.81104,-498.82441 766.81104,-496.06299 z" />
      <text style="font-size:30; vertical-align:top; fill-opacity:1.0; fill:darkblue; text-anchor:right; stroke:none; font-weight:normal; font-style:italic; text-align:right; " transform="" id="A.FSW.text" y="-503.062992126" x="768.811023622">
FSW</text>
      <circle style="stroke:gray; stroke-width:1; fill:none; " transform="" cy="-216.454981063" cx="734.673955823" r="5" id="A.FSP.inpoint" d="M 739.67395,-216.45499 C 739.67395,-213.69356 737.43537,-211.45499 734.67395,-211.45499 731.91253,-211.45499 729.67395,-213.69356 729.67395,-216.45499 729.67395,-219.21641 731.91253,-221.45499 734.67395,-221.45499 737.43537,-221.45499 739.67395,-219.21641 739.67395,-216.45499 z" />
      <text style="font-size:25; vertical-align:top; fill-opacity:1.0; fill:gray; text-anchor:right; stroke:none; font-weight:normal; font-style:italic; text-align:right; " transform="" id="A.FSP.inpoint.text" y="-223.454981063" x="741.673955823">
FSP.in</text>
      <circle style="stroke:red; stroke-width:1; fill:red; " transform="" cy="-276.170256318" cx="761.811023622" r="5" id="A.FSP" d="M 766.81104,-276.17026 C 766.81104,-273.40883 764.57246,-271.17026 761.81104,-271.17026 759.04961,-271.17026 756.81104,-273.40883 756.81104,-276.17026 756.81104,-278.93168 759.04961,-281.17026 761.81104,-281.17026 764.57246,-281.17026 766.81104,-278.93168 766.81104,-276.17026 z" />
      <text style="font-size:30; vertical-align:top; fill-opacity:1.0; fill:darkblue; text-anchor:right; stroke:none; font-weight:normal; font-style:italic; text-align:right; " transform="" id="A.FSP.text" y="-283.170256318" x="768.811023622">
FSP</text>
      <circle style="stroke:gray; stroke-width:1; fill:none; " transform="" cy="-270.25454591" cx="175.319171687" r="5" id="A.FNS.outpoint" d="M 180.31917,-270.25455 C 180.31917,-267.49312 178.08059,-265.25455 175.31917,-265.25455 172.55774,-265.25455 170.31917,-267.49312 170.31917,-270.25455 170.31917,-273.01597 172.55774,-275.25455 175.31917,-275.25455 178.08059,-275.25455 180.31917,-273.01597 180.31917,-270.25455 z" />
      <text style="font-size:25; vertical-align:top; fill-opacity:1.0; fill:gray; text-anchor:right; stroke:none; font-weight:normal; font-style:italic; text-align:right; " transform="" id="A.FNS.outpoint.text" y="-277.25454591" x="182.319171687">
FNS.out</text>
      <circle style="stroke:red; stroke-width:1; fill:red; " transform="" cy="-496.062992126" cx="277.935781731" r="5" id="A.FNS" d="M 282.93579,-496.06299 C 282.93579,-493.30156 280.69721,-491.06299 277.93579,-491.06299 275.17437,-491.06299 272.93579,-493.30156 272.93579,-496.06299 272.93579,-498.82441 275.17437,-501.06299 277.93579,-501.06299 280.69721,-501.06299 282.93579,-498.82441 282.93579,-496.06299 z" />
      <text style="font-size:30; vertical-align:top; fill-opacity:1.0; fill:darkblue; text-anchor:right; stroke:none; font-weight:normal; font-style:italic; text-align:right; " transform="" id="A.FNS.text" y="-503.062992126" x="284.935781731">
FNS</text>
      <circle style="stroke:red; stroke-width:1; fill:red; " transform="" cy="318.897637795" cx="0.0" r="5" id="A.FUC" d="M 5,318.89764 C 5,321.65907 2.7614237,323.89764 0,323.89764 -2.7614237,323.89764 -5,321.65907 -5,318.89764 -5,316.13622 -2.7614237,313.89764 0,313.89764 2.7614237,313.89764 5,316.13622 5,318.89764 z" />
      <text style="font-size:30; vertical-align:top; fill-opacity:1.0; fill:darkblue; text-anchor:right; stroke:none; font-weight:normal; font-style:italic; text-align:right; " transform="" id="A.FUC.text" y="311.897637795" x="7.0">
FUC</text>
      <circle style="stroke:red; stroke-width:1; fill:red; " transform="" cy="637.795275591" cx="0.0" r="5" id="A.FBC" d="M 5,637.79529 C 5,640.55671 2.7614237,642.79529 0,642.79529 -2.7614237,642.79529 -5,640.55671 -5,637.79529 -5,635.03386 -2.7614237,632.79529 0,632.79529 2.7614237,632.79529 5,635.03386 5,637.79529 z" />
      <text style="font-size:30; vertical-align:top; fill-opacity:1.0; fill:darkblue; text-anchor:right; stroke:none; font-weight:normal; font-style:italic; text-align:right; " transform="" id="A.FBC.text" y="630.795275591" x="7.0">
FBC</text>
      <circle style="stroke:red; stroke-width:1; fill:red; " transform="" cy="637.795275591" cx="372.047244094" r="5" id="A.FBP" d="M 377.04724,637.79529 C 377.04724,640.55671 374.80866,642.79529 372.04724,642.79529 369.28582,642.79529 367.04724,640.55671 367.04724,637.79529 367.04724,635.03386 369.28582,632.79529 372.04724,632.79529 374.80866,632.79529 377.04724,635.03386 377.04724,637.79529 z" />
      <text style="font-size:30; vertical-align:top; fill-opacity:1.0; fill:darkblue; text-anchor:right; stroke:none; font-weight:normal; font-style:italic; text-align:right; " transform="" id="A.FBP.text" y="630.795275591" x="379.047244094">
FBP</text>
      <circle style="stroke:red; stroke-width:1; fill:red; " transform="" cy="318.897637795" cx="761.811023622" r="5" id="A.f10" d="M 766.81104,318.89764 C 766.81104,321.65907 764.57246,323.89764 761.81104,323.89764 759.04961,323.89764 756.81104,321.65907 756.81104,318.89764 756.81104,316.13622 759.04961,313.89764 761.81104,313.89764 764.57246,313.89764 766.81104,316.13622 766.81104,318.89764 z" />
      <text style="font-size:30; vertical-align:top; fill-opacity:1.0; fill:darkblue; text-anchor:right; stroke:none; font-weight:normal; font-style:italic; text-align:right; " transform="" id="A.f10.text" y="311.897637795" x="768.811023622">
f10</text>
      <circle style="stroke:red; stroke-width:1; fill:red; " transform="" cy="159.448818898" cx="0.0" r="5" id="A.FAC" d="M 5,159.44882 C 5,162.21025 2.7614237,164.44882 0,164.44882 -2.7614237,164.44882 -5,162.21025 -5,159.44882 -5,156.6874 -2.7614237,154.44882 0,154.44882 2.7614237,154.44882 5,156.6874 5,159.44882 z" />
      <text style="font-size:30; vertical-align:top; fill-opacity:1.0; fill:darkblue; text-anchor:right; stroke:none; font-weight:normal; font-style:italic; text-align:right; " transform="" id="A.FAC.text" y="152.448818898" x="7.0">
FAC</text>
      <circle style="stroke:gray; stroke-width:1; fill:none; " transform="" cy="333.844507673" cx="723.720472441" r="5" id="A.FAP.inpoint" d="M 728.72046,333.84451 C 728.72046,336.60594 726.48188,338.84451 723.72046,338.84451 720.95904,338.84451 718.72046,336.60594 718.72046,333.84451 718.72046,331.08309 720.95904,328.84451 723.72046,328.84451 726.48188,328.84451 728.72046,331.08309 728.72046,333.84451 z" />
      <text style="font-size:25; vertical-align:top; fill-opacity:1.0; fill:gray; text-anchor:right; stroke:none; font-weight:normal; font-style:italic; text-align:right; " transform="" id="A.FAP.inpoint.text" y="326.844507673" x="730.720472441">
FAP.in</text>
      <circle style="stroke:gray; stroke-width:1; fill:none; " transform="" cy="15.1460150084" cx="723.720472441" r="5" id="A.FAP.outpoint" d="M 728.72046,15.146015 C 728.72046,17.907439 726.48188,20.146015 723.72046,20.146015 720.95904,20.146015 718.72046,17.907439 718.72046,15.146015 718.72046,12.384591 720.95904,10.146015 723.72046,10.146015 726.48188,10.146015 728.72046,12.384591 728.72046,15.146015 z" />
      <text style="font-size:25; vertical-align:top; fill-opacity:1.0; fill:gray; text-anchor:right; stroke:none; font-weight:normal; font-style:italic; text-align:right; " transform="" id="A.FAP.outpoint.text" y="8.1460150084" x="730.720472441">
FAP.out</text>
      <circle style="stroke:red; stroke-width:1; fill:red; " transform="" cy="159.448818898" cx="723.720472441" r="5" id="A.FAP" d="M 728.72046,159.44882 C 728.72046,162.21025 726.48188,164.44882 723.72046,164.44882 720.95904,164.44882 718.72046,162.21025 718.72046,159.44882 718.72046,156.6874 720.95904,154.44882 723.72046,154.44882 726.48188,154.44882 728.72046,156.6874 728.72046,159.44882 z" />
      <text style="font-size:30; vertical-align:top; fill-opacity:1.0; fill:darkblue; text-anchor:right; stroke:none; font-weight:normal; font-style:italic; text-align:right; " transform="" id="A.FAP.text" y="152.448818898" x="730.720472441">
FAP</text>
      <circle style="stroke:red; stroke-width:1; fill:red; " transform="" cy="318.897637795" cx="903.543307087" r="5" id="A.f1" d="M 908.54333,318.89764 C 908.54333,321.65907 906.30476,323.89764 903.54333,323.89764 900.78191,323.89764 898.54333,321.65907 898.54333,318.89764 898.54333,316.13622 900.78191,313.89764 903.54333,313.89764 906.30476,313.89764 908.54333,316.13622 908.54333,318.89764 z" />
      <text style="font-size:30; vertical-align:top; fill-opacity:1.0; fill:darkblue; text-anchor:right; stroke:none; font-weight:normal; font-style:italic; text-align:right; " transform="" id="A.f1.text" y="311.897637795" x="910.543307087">
f1</text>
      <circle style="stroke:red; stroke-width:1; fill:red; " transform="" cy="458.359418079" cx="947.062894942" r="5" id="A.f2" d="M 952.06287,458.35941 C 952.06287,461.12083 949.82429,463.35941 947.06287,463.35941 944.30144,463.35941 942.06287,461.12083 942.06287,458.35941 942.06287,455.59798 944.30144,453.35941 947.06287,453.35941 949.82429,453.35941 952.06287,455.59798 952.06287,458.35941 z" />
      <text style="font-size:30; vertical-align:top; fill-opacity:1.0; fill:darkblue; text-anchor:right; stroke:none; font-weight:normal; font-style:italic; text-align:right; " transform="" id="A.f2.text" y="451.359418079" x="954.062894942">
f2</text>
      <circle style="stroke:red; stroke-width:1; fill:red; " transform="" cy="995.386638792" cx="1114.64431592" r="5" id="A.f3" d="M 1119.6443,995.38666 C 1119.6443,998.14808 1117.4057,1000.3867 1114.6443,1000.3867 1111.8829,1000.3867 1109.6443,998.14808 1109.6443,995.38666 1109.6443,992.62523 1111.8829,990.38666 1114.6443,990.38666 1117.4057,990.38666 1119.6443,992.62523 1119.6443,995.38666 z" />
      <text style="font-size:30; vertical-align:top; fill-opacity:1.0; fill:darkblue; text-anchor:right; stroke:none; font-weight:normal; font-style:italic; text-align:right; " transform="" id="A.f3.text" y="988.386638792" x="1121.64431592">
f3</text>
      <circle style="stroke:red; stroke-width:1; fill:red; " transform="" cy="1204.72440945" cx="372.047244094" r="5" id="A.f4" d="M 377.04724,1204.7244 C 377.04724,1207.4858 374.80866,1209.7244 372.04724,1209.7244 369.28582,1209.7244 367.04724,1207.4858 367.04724,1204.7244 367.04724,1201.9629 369.28582,1199.7244 372.04724,1199.7244 374.80866,1199.7244 377.04724,1201.9629 377.04724,1204.7244 z" />
      <text style="font-size:30; vertical-align:top; fill-opacity:1.0; fill:darkblue; text-anchor:right; stroke:none; font-weight:normal; font-style:italic; text-align:right; " transform="" id="A.f4.text" y="1197.72440945" x="379.047244094">
f4</text>
      <circle style="stroke:red; stroke-width:1; fill:red; " transform="" cy="1128.88947506" cx="655.30530676" r="5" id="A.f5" d="M 660.3053,1128.8895 C 660.3053,1131.651 658.06672,1133.8895 655.3053,1133.8895 652.54387,1133.8895 650.3053,1131.651 650.3053,1128.8895 650.3053,1126.1281 652.54387,1123.8895 655.3053,1123.8895 658.06672,1123.8895 660.3053,1126.1281 660.3053,1128.8895 z" />
      <text style="font-size:30; vertical-align:top; fill-opacity:1.0; fill:darkblue; text-anchor:right; stroke:none; font-weight:normal; font-style:italic; text-align:right; " transform="" id="A.f5.text" y="1121.88947506" x="662.30530676">
f5</text>
      <circle style="stroke:red; stroke-width:1; fill:red; " transform="" cy="987.552812293" cx="1139.74839994" r="5" id="A.f6" d="M 1144.7484,987.5528 C 1144.7484,990.31422 1142.5098,992.5528 1139.7484,992.5528 1136.987,992.5528 1134.7484,990.31422 1134.7484,987.5528 1134.7484,984.79137 1136.987,982.5528 1139.7484,982.5528 1142.5098,982.5528 1144.7484,984.79137 1144.7484,987.5528 z" />
      <text style="font-size:30; vertical-align:top; fill-opacity:1.0; fill:darkblue; text-anchor:right; stroke:none; font-weight:normal; font-style:italic; text-align:right; " transform="" id="A.f6.text" y="980.552812293" x="1146.74839994">
f6</text>
      <circle style="stroke:red; stroke-width:1; fill:red; " transform="" cy="309.200185202" cx="934.61952057" r="5" id="A.f7" d="M 939.61951,309.2002 C 939.61951,311.96162 937.38093,314.2002 934.61951,314.2002 931.85808,314.2002 929.61951,311.96162 929.61951,309.2002 929.61951,306.43877 931.85808,304.2002 934.61951,304.2002 937.38093,304.2002 939.61951,306.43877 939.61951,309.2002 z" />
      <text style="font-size:30; vertical-align:top; fill-opacity:1.0; fill:darkblue; text-anchor:right; stroke:none; font-weight:normal; font-style:italic; text-align:right; " transform="" id="A.f7.text" y="302.200185202" x="941.61952057">
f7</text>
      <circle style="stroke:red; stroke-width:1; fill:red; " transform="" cy="449.046161847" cx="976.907922396" r="5" id="A.FBS" d="M 981.9079,449.04617 C 981.9079,451.8076 979.66932,454.04617 976.9079,454.04617 974.14647,454.04617 971.9079,451.8076 971.9079,449.04617 971.9079,446.28475 974.14647,444.04617 976.9079,444.04617 979.66932,444.04617 981.9079,446.28475 981.9079,449.04617 z" />
      <text style="font-size:30; vertical-align:top; fill-opacity:1.0; fill:darkblue; text-anchor:right; stroke:none; font-weight:normal; font-style:italic; text-align:right; " transform="" id="A.FBS.text" y="442.046161847" x="983.907922396">
FBS</text>
      <circle style="stroke:gray; stroke-width:1; fill:none; " transform="" cy="452.509278324" cx="832.204994061" r="5" id="A.FUS.outpoint" d="M 837.20502,452.50928 C 837.20502,455.2707 834.96644,457.50928 832.20502,457.50928 829.44359,457.50928 827.20502,455.2707 827.20502,452.50928 827.20502,449.74785 829.44359,447.50928 832.20502,447.50928 834.96644,447.50928 837.20502,449.74785 837.20502,452.50928 z" />
      <text style="font-size:25; vertical-align:top; fill-opacity:1.0; fill:gray; text-anchor:right; stroke:none; font-weight:normal; font-style:italic; text-align:right; " transform="" id="A.FUS.outpoint.text" y="445.509278324" x="839.204994061">
FUS.out</text>
      <circle style="stroke:red; stroke-width:1; fill:red; " transform="" cy="410.949114401" cx="965.38765353" r="5" id="A.FUS" d="M 970.38763,410.94913 C 970.38763,413.71055 968.14906,415.94913 965.38763,415.94913 962.62621,415.94913 960.38763,413.71055 960.38763,410.94913 960.38763,408.1877 962.62621,405.94913 965.38763,405.94913 968.14906,405.94913 970.38763,408.1877 970.38763,410.94913 z" />
      <text style="font-size:30; vertical-align:top; fill-opacity:1.0; fill:darkblue; text-anchor:right; stroke:none; font-weight:normal; font-style:italic; text-align:right; " transform="" id="A.FUS.text" y="403.949114401" x="972.38765353">
FUS</text>
      <circle style="stroke:gray; stroke-width:1; fill:none; " transform="" cy="1188.55003378" cx="833.576676059" r="5" id="A.FWS.inpoint" d="M 838.57666,1188.55 C 838.57666,1191.3115 836.33808,1193.55 833.57666,1193.55 830.81524,1193.55 828.57666,1191.3115 828.57666,1188.55 828.57666,1185.7886 830.81524,1183.55 833.57666,1183.55 836.33808,1183.55 838.57666,1185.7886 838.57666,1188.55 z" />
      <text style="font-size:25; vertical-align:top; fill-opacity:1.0; fill:gray; text-anchor:right; stroke:none; font-weight:normal; font-style:italic; text-align:right; " transform="" id="A.FWS.inpoint.text" y="1181.55003378" x="840.576676059">
FWS.in</text>
      <circle style="stroke:red; stroke-width:1; fill:red; " transform="" cy="1174.19388877" cx="1023.17851116" r="5" id="A.FWS" d="M 1028.1785,1174.1938 C 1028.1785,1176.9553 1025.94,1179.1938 1023.1785,1179.1938 1020.4171,1179.1938 1018.1785,1176.9553 1018.1785,1174.1938 1018.1785,1171.4324 1020.4171,1169.1938 1023.1785,1169.1938 1025.94,1169.1938 1028.1785,1171.4324 1028.1785,1174.1938 z" />
      <text style="font-size:30; vertical-align:top; fill-opacity:1.0; fill:darkblue; text-anchor:right; stroke:none; font-weight:normal; font-style:italic; text-align:right; " transform="" id="A.FWS.text" y="1167.19388877" x="1030.17851116">
FWS</text>
      <circle style="stroke:red; stroke-width:1; fill:red; " transform="" cy="648.155010092" cx="450.801221945" r="5" id="A.FD2" d="M 455.80121,648.15503 C 455.80121,650.91645 453.56263,653.15503 450.80121,653.15503 448.03978,653.15503 445.80121,650.91645 445.80121,648.15503 445.80121,645.39361 448.03978,643.15503 450.80121,643.15503 453.56263,643.15503 455.80121,645.39361 455.80121,648.15503 z" />
      <text style="font-size:30; vertical-align:top; fill-opacity:1.0; fill:darkblue; text-anchor:right; stroke:none; font-weight:normal; font-style:italic; text-align:right; " transform="" id="A.FD2.text" y="641.155010092" x="457.801221945">
FD2</text>
      <circle style="stroke:red; stroke-width:1; fill:red; " transform="" cy="637.740647137" cx="1037.05948849" r="5" id="A.FD2.i" d="M 1042.0594,637.74066 C 1042.0594,640.50209 1039.8209,642.74066 1037.0594,642.74066 1034.298,642.74066 1032.0594,640.50209 1032.0594,637.74066 1032.0594,634.97924 1034.298,632.74066 1037.0594,632.74066 1039.8209,632.74066 1042.0594,634.97924 1042.0594,637.74066 z" />
      <text style="font-size:30; vertical-align:top; fill-opacity:1.0; fill:darkblue; text-anchor:right; stroke:none; font-weight:normal; font-style:italic; text-align:right; " transform="" id="A.FD2.i.text" y="630.740647137" x="1044.05948849">
FD2.i</text>
      <circle style="stroke:red; stroke-width:1; fill:red; " transform="" cy="809.830805424" cx="1014.42179578" r="5" id="A.FD2.o" d="M 1019.4218,809.83081 C 1019.4218,812.59223 1017.1832,814.83081 1014.4218,814.83081 1011.6604,814.83081 1009.4218,812.59223 1009.4218,809.83081 1009.4218,807.06939 1011.6604,804.83081 1014.4218,804.83081 1017.1832,804.83081 1019.4218,807.06939 1019.4218,809.83081 z" />
      <text style="font-size:30; vertical-align:top; fill-opacity:1.0; fill:darkblue; text-anchor:right; stroke:none; font-weight:normal; font-style:italic; text-align:right; " transform="" id="A.FD2.o.text" y="802.830805424" x="1021.42179578">
FD2.o</text>
      <circle style="stroke:red; stroke-width:1; fill:red; " transform="" cy="1204.72440945" cx="297.470245343" r="5" id="A.f8" d="M 302.47025,1204.7244 C 302.47025,1207.4858 300.23167,1209.7244 297.47025,1209.7244 294.70882,1209.7244 292.47025,1207.4858 292.47025,1204.7244 292.47025,1201.9629 294.70882,1199.7244 297.47025,1199.7244 300.23167,1199.7244 302.47025,1201.9629 302.47025,1204.7244 z" />
      <text style="font-size:30; vertical-align:top; fill-opacity:1.0; fill:darkblue; text-anchor:right; stroke:none; font-weight:normal; font-style:italic; text-align:right; " transform="" id="A.f8.text" y="1197.72440945" x="304.470245343">
f8</text>
      <circle style="stroke:red; stroke-width:1; fill:red; " transform="" cy="1204.72440945" cx="446.624242846" r="5" id="A.f9" d="M 451.62424,1204.7244 C 451.62424,1207.4858 449.38566,1209.7244 446.62424,1209.7244 443.86281,1209.7244 441.62424,1207.4858 441.62424,1204.7244 441.62424,1201.9629 443.86281,1199.7244 446.62424,1199.7244 449.38566,1199.7244 451.62424,1201.9629 451.62424,1204.7244 z" />
      <text style="font-size:30; vertical-align:top; fill-opacity:1.0; fill:darkblue; text-anchor:right; stroke:none; font-weight:normal; font-style:italic; text-align:right; " transform="" id="A.f9.text" y="1197.72440945" x="453.624242846">
f9</text>
      <circle style="stroke:red; stroke-width:1; fill:red; " transform="" cy="705.826771654" cx="372.047244094" r="5" id="A.FD1" d="M 377.04724,705.82678 C 377.04724,708.58821 374.80866,710.82678 372.04724,710.82678 369.28582,710.82678 367.04724,708.58821 367.04724,705.82678 367.04724,703.06536 369.28582,700.82678 372.04724,700.82678 374.80866,700.82678 377.04724,703.06536 377.04724,705.82678 z" />
      <text style="font-size:30; vertical-align:top; fill-opacity:1.0; fill:darkblue; text-anchor:right; stroke:none; font-weight:normal; font-style:italic; text-align:right; " transform="" id="A.FD1.text" y="698.826771654" x="379.047244094">
FD1</text>
      <circle style="stroke:gray; stroke-width:1; fill:none; " transform="" cy="1204.72440945" cx="202.748829844" r="5" id="A.FD1.i.inpoint" d="M 207.74883,1204.7244 C 207.74883,1207.4858 205.51025,1209.7244 202.74883,1209.7244 199.9874,1209.7244 197.74883,1207.4858 197.74883,1204.7244 197.74883,1201.9629 199.9874,1199.7244 202.74883,1199.7244 205.51025,1199.7244 207.74883,1201.9629 207.74883,1204.7244 z" />
      <text style="font-size:25; vertical-align:top; fill-opacity:1.0; fill:gray; text-anchor:right; stroke:none; font-weight:normal; font-style:italic; text-align:right; " transform="" id="A.FD1.i.inpoint.text" y="1197.72440945" x="209.748829844">
FD1.i.in</text>
      <circle style="stroke:red; stroke-width:1; fill:red; " transform="" cy="1218.57422575" cx="295.399925392" r="5" id="A.FD1.i" d="M 300.39993,1218.5742 C 300.39993,1221.3356 298.16136,1223.5742 295.39993,1223.5742 292.63851,1223.5742 290.39993,1221.3356 290.39993,1218.5742 290.39993,1215.8128 292.63851,1213.5742 295.39993,1213.5742 298.16136,1213.5742 300.39993,1215.8128 300.39993,1218.5742 z" />
      <text style="font-size:30; vertical-align:top; fill-opacity:1.0; fill:darkblue; text-anchor:right; stroke:none; font-weight:normal; font-style:italic; text-align:right; " transform="" id="A.FD1.i.text" y="1211.57422575" x="302.399925392">
FD1.i</text>
      <circle style="stroke:gray; stroke-width:1; fill:none; " transform="" cy="1196.95706284" cx="593.306865425" r="5" id="A.FD1.o.outpoint" d="M 598.30688,1196.957 C 598.30688,1199.7185 596.06831,1201.957 593.30688,1201.957 590.54546,1201.957 588.30688,1199.7185 588.30688,1196.957 588.30688,1194.1956 590.54546,1191.957 593.30688,1191.957 596.06831,1191.957 598.30688,1194.1956 598.30688,1196.957 z" />
      <text style="font-size:25; vertical-align:top; fill-opacity:1.0; fill:gray; text-anchor:right; stroke:none; font-weight:normal; font-style:italic; text-align:right; " transform="" id="A.FD1.o.outpoint.text" y="1189.95706284" x="600.306865425">
FD1.o.out</text>
      <circle style="stroke:red; stroke-width:1; fill:red; " transform="" cy="1218.57422575" cx="448.694562797" r="5" id="A.FD1.o" d="M 453.69455,1218.5742 C 453.69455,1221.3356 451.45597,1223.5742 448.69455,1223.5742 445.93313,1223.5742 443.69455,1221.3356 443.69455,1218.5742 443.69455,1215.8128 445.93313,1213.5742 448.69455,1213.5742 451.45597,1213.5742 453.69455,1215.8128 453.69455,1218.5742 z" />
      <text style="font-size:30; vertical-align:top; fill-opacity:1.0; fill:darkblue; text-anchor:right; stroke:none; font-weight:normal; font-style:italic; text-align:right; " transform="" id="A.FD1.o.text" y="1211.57422575" x="455.694562797">
FD1.o</text>
      <path style="stroke-linejoin:miter; stroke-dashoffset:0; stroke:gray; stroke-miterlimit:4; stroke-dasharray:6,6; stroke-width:2; fill:none; " transform="" d="M 0.0  1204.72440945 L 761.811023622  -276.170256318 L 761.811023622  -496.062992126 L 0.0  -496.062992126 L 0.0  0.0 M 0.0  637.795275591 L 372.047244094  637.795275591 L 976.907922396  449.046161847 M 0.0  318.897637795 L 903.543307087  318.897637795 L 934.61952057  309.200185202 L 1139.74839994  987.552812293 L 1114.64431592  995.386638792 L 903.543307087  318.897637795 M 0.0  1204.72440945 L 372.047244094  1204.72440945 L 372.047244094  637.795275591 L 655.30530676  1128.88947506 L 1114.64431592  995.386638792 M 372.047244094  637.795275591 L 450.801221945  648.155010092 " id="A.gridline" />
    </g>
    <g id="document.bodice.Bodice Back.reference" transform=" translate(2419.655666, 651.418425)">
      <circle style="stroke:gray; stroke-width:1; fill:none; " transform="" cy="0.0" cx="-322.75067594" r="5" id="B.BNC.inpoint" d="M -317.75067,0 C -317.75067,2.7614237 -319.98925,5 -322.75067,5 -325.5121,5 -327.75067,2.7614237 -327.75067,0 -327.75067,-2.7614237 -325.5121,-5 -322.75067,-5 -319.98925,-5 -317.75067,-2.7614237 -317.75067,0 z" />
      <text style="font-size:25; vertical-align:top; fill-opacity:1.0; fill:gray; text-anchor:right; stroke:none; font-weight:normal; font-style:italic; text-align:right; " transform="" id="B.BNC.inpoint.text" y="-7.0" x="-315.75067594">
BNC.in</text>
      <circle style="stroke:red; stroke-width:1; fill:red; " transform="" cy="0.0" cx="0.0" r="5" id="B.BNC" d="M 5,0 C 5,2.7614237 2.7614237,5 0,5 -2.7614237,5 -5,2.7614237 -5,0 -5,-2.7614237 -2.7614237,-5 0,-5 2.7614237,-5 5,-2.7614237 5,0 z" />
      <text style="font-size:30; vertical-align:top; fill-opacity:1.0; fill:darkblue; text-anchor:right; stroke:none; font-weight:normal; font-style:italic; text-align:right; " transform="" id="B.BNC.text" y="-7.0" x="7.0">
BNC</text>
      <circle style="stroke:gray; stroke-width:1; fill:none; " transform="" cy="1452.75590551" cx="-135.60447576" r="5" id="B.BWC.outpoint" d="M -130.60448,1452.7559 C -130.60448,1455.5173 -132.84305,1457.7559 -135.60448,1457.7559 -138.3659,1457.7559 -140.60448,1455.5173 -140.60448,1452.7559 -140.60448,1449.9944 -138.3659,1447.7559 -135.60448,1447.7559 -132.84305,1447.7559 -130.60448,1449.9944 -130.60448,1452.7559 z" />
      <text style="font-size:25; vertical-align:top; fill-opacity:1.0; fill:gray; text-anchor:right; stroke:none; font-weight:normal; font-style:italic; text-align:right; " transform="" id="B.BWC.outpoint.text" y="1445.75590551" x="-128.60447576">
BWC.out</text>
      <circle style="stroke:red; stroke-width:1; fill:red; " transform="" cy="1452.75590551" cx="0.0" r="5" id="B.BWC" d="M 5,1452.7559 C 5,1455.5173 2.7614237,1457.7559 0,1457.7559 -2.7614237,1457.7559 -5,1455.5173 -5,1452.7559 -5,1449.9944 -2.7614237,1447.7559 0,1447.7559 2.7614237,1447.7559 5,1449.9944 5,1452.7559 z" />
      <text style="font-size:30; vertical-align:top; fill-opacity:1.0; fill:darkblue; text-anchor:right; stroke:none; font-weight:normal; font-style:italic; text-align:right; " transform="" id="B.BWC.text" y="1445.75590551" x="7.0">
BWC</text>
      <circle style="stroke:red; stroke-width:1; fill:red; " transform="" cy="-212.598425197" cx="0.0" r="5" id="B.BSH" d="M 5,-212.59842 C 5,-209.837 2.7614237,-207.59842 0,-207.59842 -2.7614237,-207.59842 -5,-209.837 -5,-212.59842 -5,-215.35984 -2.7614237,-217.59842 0,-217.59842 2.7614237,-217.59842 5,-215.35984 5,-212.59842 z" />
      <text style="font-size:30; vertical-align:top; fill-opacity:1.0; fill:darkblue; text-anchor:right; stroke:none; font-weight:normal; font-style:italic; text-align:right; " transform="" id="B.BSH.text" y="-219.598425197" x="7.0">
BSH</text>
      <circle style="stroke:red; stroke-width:1; fill:red; " transform="" cy="-212.598425197" cx="-832.677165354" r="5" id="B.BSW" d="M -827.67719,-212.59842 C -827.67719,-209.837 -829.91576,-207.59842 -832.67719,-207.59842 -835.43861,-207.59842 -837.67719,-209.837 -837.67719,-212.59842 -837.67719,-215.35984 -835.43861,-217.59842 -832.67719,-217.59842 -829.91576,-217.59842 -827.67719,-215.35984 -827.67719,-212.59842 z" />
      <text style="font-size:30; vertical-align:top; fill-opacity:1.0; fill:darkblue; text-anchor:right; stroke:none; font-weight:normal; font-style:italic; text-align:right; " transform="" id="B.BSW.text" y="-219.598425197" x="-825.677165354">
BSW</text>
      <circle style="stroke:gray; stroke-width:1; fill:none; " transform="" cy="211.450297025" cx="-785.280144076" r="5" id="B.BSP.inpoint" d="M -780.28015,211.4503 C -780.28015,214.21173 -782.51873,216.4503 -785.28015,216.4503 -788.04158,216.4503 -790.28015,214.21173 -790.28015,211.4503 -790.28015,208.68888 -788.04158,206.4503 -785.28015,206.4503 -782.51873,206.4503 -780.28015,208.68888 -780.28015,211.4503 z" />
      <text style="font-size:25; vertical-align:top; fill-opacity:1.0; fill:gray; text-anchor:right; stroke:none; font-weight:normal; font-style:italic; text-align:right; " transform="" id="B.BSP.inpoint.text" y="204.450297025" x="-778.280144076">
BSP.in</text>
      <circle style="stroke:red; stroke-width:1; fill:red; " transform="" cy="179.105755062" cx="-817.964611188" r="5" id="B.BSP" d="M -812.9646,179.10576 C -812.9646,181.86718 -815.20318,184.10576 -817.9646,184.10576 -820.72602,184.10576 -822.9646,181.86718 -822.9646,179.10576 -822.9646,176.34433 -820.72602,174.10576 -817.9646,174.10576 -815.20318,174.10576 -812.9646,176.34433 -812.9646,179.10576 z" />
      <text style="font-size:30; vertical-align:top; fill-opacity:1.0; fill:darkblue; text-anchor:right; stroke:none; font-weight:normal; font-style:italic; text-align:right; " transform="" id="B.BSP.text" y="172.105755062" x="-810.964611188">
BSP</text>
      <circle style="stroke:gray; stroke-width:1; fill:none; " transform="" cy="-117.751818368" cx="-382.337945439" r="5" id="B.BNS.outpoint" d="M -377.33795,-117.75182 C -377.33795,-114.99039 -379.57653,-112.75182 -382.33795,-112.75182 -385.09938,-112.75182 -387.33795,-114.99039 -387.33795,-117.75182 -387.33795,-120.51324 -385.09938,-122.75182 -382.33795,-122.75182 -379.57653,-122.75182 -377.33795,-120.51324 -377.33795,-117.75182 z" />
      <text style="font-size:25; vertical-align:top; fill-opacity:1.0; fill:gray; text-anchor:right; stroke:none; font-weight:normal; font-style:italic; text-align:right; " transform="" id="B.BNS.outpoint.text" y="-124.751818368" x="-375.337945439">
BNS.out</text>
      <circle style="stroke:red; stroke-width:1; fill:red; " transform="" cy="-212.598425197" cx="-430.334234587" r="5" id="B.BNS" d="M -425.33423,-212.59842 C -425.33423,-209.837 -427.5728,-207.59842 -430.33423,-207.59842 -433.09565,-207.59842 -435.33423,-209.837 -435.33423,-212.59842 -435.33423,-215.35984 -433.09565,-217.59842 -430.33423,-217.59842 -427.5728,-217.59842 -425.33423,-215.35984 -425.33423,-212.59842 z" />
      <text style="font-size:30; vertical-align:top; fill-opacity:1.0; fill:darkblue; text-anchor:right; stroke:none; font-weight:normal; font-style:italic; text-align:right; " transform="" id="B.BNS.text" y="-219.598425197" x="-423.334234587">
BNS</text>
      <circle style="stroke:red; stroke-width:1; fill:red; " transform="" cy="637.795275591" cx="0.0" r="5" id="B.BUC" d="M 5,637.79529 C 5,640.55671 2.7614237,642.79529 0,642.79529 -2.7614237,642.79529 -5,640.55671 -5,637.79529 -5,635.03386 -2.7614237,632.79529 0,632.79529 2.7614237,632.79529 5,635.03386 5,637.79529 z" />
      <text style="font-size:30; vertical-align:top; fill-opacity:1.0; fill:darkblue; text-anchor:right; stroke:none; font-weight:normal; font-style:italic; text-align:right; " transform="" id="B.BUC.text" y="630.795275591" x="7.0">
BUC</text>
      <circle style="stroke:red; stroke-width:1; fill:red; " transform="" cy="637.795275591" cx="-707.221948819" r="5" id="B.b7" d="M -702.22192,637.79529 C -702.22192,640.55671 -704.4605,642.79529 -707.22192,642.79529 -709.98335,642.79529 -712.22192,640.55671 -712.22192,637.79529 -712.22192,635.03386 -709.98335,632.79529 -707.22192,632.79529 -704.4605,632.79529 -702.22192,635.03386 -702.22192,637.79529 z" />
      <text style="font-size:30; vertical-align:top; fill-opacity:1.0; fill:darkblue; text-anchor:right; stroke:none; font-weight:normal; font-style:italic; text-align:right; " transform="" id="B.b7.text" y="630.795275591" x="-700.221948819">
b7</text>
      <circle style="stroke:red; stroke-width:1; fill:red; " transform="" cy="425.196850394" cx="0.0" r="5" id="B.BAC" d="M 5,425.19684 C 5,427.95826 2.7614237,430.19684 0,430.19684 -2.7614237,430.19684 -5,427.95826 -5,425.19684 -5,422.43541 -2.7614237,420.19684 0,420.19684 2.7614237,420.19684 5,422.43541 5,425.19684 z" />
      <text style="font-size:30; vertical-align:top; fill-opacity:1.0; fill:darkblue; text-anchor:right; stroke:none; font-weight:normal; font-style:italic; text-align:right; " transform="" id="B.BAC.text" y="418.196850394" x="7.0">
BAC</text>
      <circle style="stroke:gray; stroke-width:1; fill:none; " transform="" cy="637.795275591" cx="-707.221948819" r="5" id="B.BAP.inpoint" d="M -702.22192,637.79529 C -702.22192,640.55671 -704.4605,642.79529 -707.22192,642.79529 -709.98335,642.79529 -712.22192,640.55671 -712.22192,637.79529 -712.22192,635.03386 -709.98335,632.79529 -707.22192,632.79529 -704.4605,632.79529 -702.22192,635.03386 -702.22192,637.79529 z" />
      <text style="font-size:25; vertical-align:top; fill-opacity:1.0; fill:gray; text-anchor:right; stroke:none; font-weight:normal; font-style:italic; text-align:right; " transform="" id="B.BAP.inpoint.text" y="630.795275591" x="-700.221948819">
BAP.in</text>
      <circle style="stroke:gray; stroke-width:1; fill:none; " transform="" cy="363.794934051" cx="-707.221948819" r="5" id="B.BAP.outpoint" d="M -702.22192,363.79492 C -702.22192,366.55635 -704.4605,368.79492 -707.22192,368.79492 -709.98335,368.79492 -712.22192,366.55635 -712.22192,363.79492 -712.22192,361.0335 -709.98335,358.79492 -707.22192,358.79492 -704.4605,358.79492 -702.22192,361.0335 -702.22192,363.79492 z" />
      <text style="font-size:25; vertical-align:top; fill-opacity:1.0; fill:gray; text-anchor:right; stroke:none; font-weight:normal; font-style:italic; text-align:right; " transform="" id="B.BAP.outpoint.text" y="356.794934051" x="-700.221948819">
BAP.out</text>
      <circle style="stroke:red; stroke-width:1; fill:red; " transform="" cy="464.957713371" cx="-707.221948819" r="5" id="B.BAP" d="M -702.22192,464.9577 C -702.22192,467.71913 -704.4605,469.9577 -707.22192,469.9577 -709.98335,469.9577 -712.22192,467.71913 -712.22192,464.9577 -712.22192,462.19628 -709.98335,459.9577 -707.22192,459.9577 -704.4605,459.9577 -702.22192,462.19628 -702.22192,464.9577 z" />
      <text style="font-size:30; vertical-align:top; fill-opacity:1.0; fill:darkblue; text-anchor:right; stroke:none; font-weight:normal; font-style:italic; text-align:right; " transform="" id="B.BAP.text" y="457.957713371" x="-700.221948819">
BAP</text>
      <circle style="stroke:red; stroke-width:1; fill:red; " transform="" cy="637.795275591" cx="-938.976377953" r="5" id="B.b1" d="M -933.97638,637.79529 C -933.97638,640.55671 -936.21496,642.79529 -938.97638,642.79529 -941.7378,642.79529 -943.97638,640.55671 -943.97638,637.79529 -943.97638,635.03386 -941.7378,632.79529 -938.97638,632.79529 -936.21496,632.79529 -933.97638,635.03386 -933.97638,637.79529 z" />
      <text style="font-size:30; vertical-align:top; fill-opacity:1.0; fill:darkblue; text-anchor:right; stroke:none; font-weight:normal; font-style:italic; text-align:right; " transform="" id="B.b1.text" y="630.795275591" x="-931.976377953">
b1</text>
      <circle style="stroke:red; stroke-width:1; fill:red; " transform="" cy="637.795275591" cx="-514.844021733" r="5" id="B.BD1" d="M -509.84399,637.79529 C -509.84399,640.55671 -512.08257,642.79529 -514.84399,642.79529 -517.60542,642.79529 -519.84399,640.55671 -519.84399,637.79529 -519.84399,635.03386 -517.60542,632.79529 -514.84399,632.79529 -512.08257,632.79529 -509.84399,635.03386 -509.84399,637.79529 z" />
      <text style="font-size:30; vertical-align:top; fill-opacity:1.0; fill:darkblue; text-anchor:right; stroke:none; font-weight:normal; font-style:italic; text-align:right; " transform="" id="B.BD1.text" y="630.795275591" x="-507.844021733">
BD1</text>
      <circle style="stroke:red; stroke-width:1; fill:red; " transform="" cy="1452.75590551" cx="-514.844021733" r="5" id="B.b2" d="M -509.84399,1452.7559 C -509.84399,1455.5173 -512.08257,1457.7559 -514.84399,1457.7559 -517.60542,1457.7559 -519.84399,1455.5173 -519.84399,1452.7559 -519.84399,1449.9944 -517.60542,1447.7559 -514.84399,1447.7559 -512.08257,1447.7559 -509.84399,1449.9944 -509.84399,1452.7559 z" />
      <text style="font-size:30; vertical-align:top; fill-opacity:1.0; fill:darkblue; text-anchor:right; stroke:none; font-weight:normal; font-style:italic; text-align:right; " transform="" id="B.b2.text" y="1445.75590551" x="-507.844021733">
b2</text>
      <circle style="stroke:red; stroke-width:1; fill:red; " transform="" cy="1452.75590551" cx="-411.875217386" r="5" id="B.b3" d="M -406.87521,1452.7559 C -406.87521,1455.5173 -409.11379,1457.7559 -411.87521,1457.7559 -414.63664,1457.7559 -416.87521,1455.5173 -416.87521,1452.7559 -416.87521,1449.9944 -414.63664,1447.7559 -411.87521,1447.7559 -409.11379,1447.7559 -406.87521,1449.9944 -406.87521,1452.7559 z" />
      <text style="font-size:30; vertical-align:top; fill-opacity:1.0; fill:darkblue; text-anchor:right; stroke:none; font-weight:normal; font-style:italic; text-align:right; " transform="" id="B.b3.text" y="1445.75590551" x="-404.875217386">
b3</text>
      <circle style="stroke:red; stroke-width:1; fill:red; " transform="" cy="1452.75590551" cx="-617.812826079" r="5" id="B.b4" d="M -612.81281,1452.7559 C -612.81281,1455.5173 -615.05138,1457.7559 -617.81281,1457.7559 -620.57423,1457.7559 -622.81281,1455.5173 -622.81281,1452.7559 -622.81281,1449.9944 -620.57423,1447.7559 -617.81281,1447.7559 -615.05138,1447.7559 -612.81281,1449.9944 -612.81281,1452.7559 z" />
      <text style="font-size:30; vertical-align:top; fill-opacity:1.0; fill:darkblue; text-anchor:right; stroke:none; font-weight:normal; font-style:italic; text-align:right; " transform="" id="B.b4.text" y="1445.75590551" x="-610.812826079">
b4</text>
      <circle style="stroke:gray; stroke-width:1; fill:none; " transform="" cy="1452.75590551" cx="-346.065161097" r="5" id="B.BD1.i.inpoint" d="M -341.06516,1452.7559 C -341.06516,1455.5173 -343.30373,1457.7559 -346.06516,1457.7559 -348.82658,1457.7559 -351.06516,1455.5173 -351.06516,1452.7559 -351.06516,1449.9944 -348.82658,1447.7559 -346.06516,1447.7559 -343.30373,1447.7559 -341.06516,1449.9944 -341.06516,1452.7559 z" />
      <text style="font-size:25; vertical-align:top; fill-opacity:1.0; fill:gray; text-anchor:right; stroke:none; font-weight:normal; font-style:italic; text-align:right; " transform="" id="B.BD1.i.inpoint.text" y="1445.75590551" x="-339.065161097">
BD1.i.in</text>
      <circle style="stroke:red; stroke-width:1; fill:red; " transform="" cy="1460.94023379" cx="-410.841142283" r="5" id="B.BD1.i" d="M -405.84116,1460.9402 C -405.84116,1463.7016 -408.07973,1465.9402 -410.84116,1465.9402 -413.60258,1465.9402 -415.84116,1463.7016 -415.84116,1460.9402 -415.84116,1458.1788 -413.60258,1455.9402 -410.84116,1455.9402 -408.07973,1455.9402 -405.84116,1458.1788 -405.84116,1460.9402 z" />
      <text style="font-size:30; vertical-align:top; fill-opacity:1.0; fill:darkblue; text-anchor:right; stroke:none; font-weight:normal; font-style:italic; text-align:right; " transform="" id="B.BD1.i.text" y="1453.94023379" x="-403.841142283">
BD1.i</text>
      <circle style="stroke:gray; stroke-width:1; fill:none; " transform="" cy="1469.06626123" cx="-554.532350041" r="5" id="B.BD1.o.outpoint" d="M -549.53235,1469.0663 C -549.53235,1471.8277 -551.77092,1474.0663 -554.53235,1474.0663 -557.29377,1474.0663 -559.53235,1471.8277 -559.53235,1469.0663 -559.53235,1466.3049 -557.29377,1464.0663 -554.53235,1464.0663 -551.77092,1464.0663 -549.53235,1466.3049 -549.53235,1469.0663 z" />
      <text style="font-size:25; vertical-align:top; fill-opacity:1.0; fill:gray; text-anchor:right; stroke:none; font-weight:normal; font-style:italic; text-align:right; " transform="" id="B.BD1.o.outpoint.text" y="1462.06626123" x="-547.532350041">
BD1.o.out</text>
      <circle style="stroke:red; stroke-width:1; fill:red; " transform="" cy="1460.94023379" cx="-618.846901183" r="5" id="B.BD1.o" d="M -613.84692,1460.9402 C -613.84692,1463.7016 -616.0855,1465.9402 -618.84692,1465.9402 -621.60835,1465.9402 -623.84692,1463.7016 -623.84692,1460.9402 -623.84692,1458.1788 -621.60835,1455.9402 -618.84692,1455.9402 -616.0855,1455.9402 -613.84692,1458.1788 -613.84692,1460.9402 z" />
      <text style="font-size:30; vertical-align:top; fill-opacity:1.0; fill:darkblue; text-anchor:right; stroke:none; font-weight:normal; font-style:italic; text-align:right; " transform="" id="B.BD1.o.text" y="1453.94023379" x="-611.846901183">
BD1.o</text>
      <circle style="stroke:red; stroke-width:1; fill:red; " transform="" cy="1341.38484033" cx="-1023.60928399" r="5" id="B.b5" d="M -1018.6093,1341.3849 C -1018.6093,1344.1463 -1020.8479,1346.3849 -1023.6093,1346.3849 -1026.3707,1346.3849 -1028.6093,1344.1463 -1028.6093,1341.3849 -1028.6093,1338.6235 -1026.3707,1336.3849 -1023.6093,1336.3849 -1020.8479,1336.3849 -1018.6093,1338.6235 -1018.6093,1341.3849 z" />
      <text style="font-size:30; vertical-align:top; fill-opacity:1.0; fill:darkblue; text-anchor:right; stroke:none; font-weight:normal; font-style:italic; text-align:right; " transform="" id="B.b5.text" y="1334.38484033" x="-1016.60928399">
b5</text>
      <circle style="stroke:red; stroke-width:1; fill:red; " transform="" cy="637.795275591" cx="-971.530511811" r="5" id="B.b6" d="M -966.53052,637.79529 C -966.53052,640.55671 -968.76909,642.79529 -971.53052,642.79529 -974.29194,642.79529 -976.53052,640.55671 -976.53052,637.79529 -976.53052,635.03386 -974.29194,632.79529 -971.53052,632.79529 -968.76909,632.79529 -966.53052,635.03386 -966.53052,637.79529 z" />
      <text style="font-size:30; vertical-align:top; fill-opacity:1.0; fill:darkblue; text-anchor:right; stroke:none; font-weight:normal; font-style:italic; text-align:right; " transform="" id="B.b6.text" y="630.795275591" x="-964.530511811">
b6</text>
      <circle style="stroke:gray; stroke-width:1; fill:none; " transform="" cy="1378.22923014" cx="-906.959401281" r="5" id="B.BWS.inpoint" d="M -901.95941,1378.2292 C -901.95941,1380.9907 -904.19799,1383.2292 -906.95941,1383.2292 -909.72084,1383.2292 -911.95941,1380.9907 -911.95941,1378.2292 -911.95941,1375.4678 -909.72084,1373.2292 -906.95941,1373.2292 -904.19799,1373.2292 -901.95941,1375.4678 -901.95941,1378.2292 z" />
      <text style="font-size:25; vertical-align:top; fill-opacity:1.0; fill:gray; text-anchor:right; stroke:none; font-weight:normal; font-style:italic; text-align:right; " transform="" id="B.BWS.inpoint.text" y="1371.22923014" x="-899.959401281">
BWS.in</text>
      <circle style="stroke:red; stroke-width:1; fill:red; " transform="" cy="1341.38484033" cx="-1049.90726628" r="5" id="B.BWS" d="M -1044.9072,1341.3849 C -1044.9072,1344.1463 -1047.1458,1346.3849 -1049.9072,1346.3849 -1052.6687,1346.3849 -1054.9072,1344.1463 -1054.9072,1341.3849 -1054.9072,1338.6235 -1052.6687,1336.3849 -1049.9072,1336.3849 -1047.1458,1336.3849 -1044.9072,1338.6235 -1044.9072,1341.3849 z" />
      <text style="font-size:30; vertical-align:top; fill-opacity:1.0; fill:darkblue; text-anchor:right; stroke:none; font-weight:normal; font-style:italic; text-align:right; " transform="" id="B.BWS.text" y="1334.38484033" x="-1042.90726628">
BWS</text>
      <circle style="stroke:gray; stroke-width:1; fill:none; " transform="" cy="753.527383308" cx="-892.753615108" r="5" id="B.BUS.outpoint" d="M -887.7536,753.5274 C -887.7536,756.28883 -889.99218,758.5274 -892.7536,758.5274 -895.51502,758.5274 -897.7536,756.28883 -897.7536,753.5274 -897.7536,750.76598 -895.51502,748.5274 -892.7536,748.5274 -889.99218,748.5274 -887.7536,750.76598 -887.7536,753.5274 z" />
      <text style="font-size:25; vertical-align:top; fill-opacity:1.0; fill:gray; text-anchor:right; stroke:none; font-weight:normal; font-style:italic; text-align:right; " transform="" id="B.BUS.outpoint.text" y="746.527383308" x="-885.753615108">
BUS.out</text>
      <circle style="stroke:red; stroke-width:1; fill:red; " transform="" cy="743.441031555" cx="-983.298980092" r="5" id="B.BUS" d="M -978.29895,743.44104 C -978.29895,746.20246 -980.53753,748.44104 -983.29895,748.44104 -986.06037,748.44104 -988.29895,746.20246 -988.29895,743.44104 -988.29895,740.67962 -986.06037,738.44104 -983.29895,738.44104 -980.53753,738.44104 -978.29895,740.67962 -978.29895,743.44104 z" />
      <text style="font-size:30; vertical-align:top; fill-opacity:1.0; fill:darkblue; text-anchor:right; stroke:none; font-weight:normal; font-style:italic; text-align:right; " transform="" id="B.BUS.text" y="736.441031555" x="-976.298980092">
BUS</text>
      <circle style="stroke:red; stroke-width:1; fill:red; " transform="" cy="63.4267811003" cx="-543.133726897" r="5" id="B.BD2" d="M -538.13373,63.426781 C -538.13373,66.188204 -540.3723,68.426781 -543.13373,68.426781 -545.89515,68.426781 -548.13373,66.188204 -548.13373,63.426781 -548.13373,60.665357 -545.89515,58.426781 -543.13373,58.426781 -540.3723,58.426781 -538.13373,60.665357 -538.13373,63.426781 z" />
      <text style="font-size:30; vertical-align:top; fill-opacity:1.0; fill:darkblue; text-anchor:right; stroke:none; font-weight:normal; font-style:italic; text-align:right; " transform="" id="B.BD2.text" y="56.4267811003" x="-536.133726897">
BD2</text>
      <circle style="stroke:red; stroke-width:1; fill:red; " transform="" cy="-38.9549463114" cx="-631.505699971" r="5" id="B.BD2.i" d="M -626.50568,-38.954945 C -626.50568,-36.193521 -628.74425,-33.954945 -631.50568,-33.954945 -634.2671,-33.954945 -636.50568,-36.193521 -636.50568,-38.954945 -636.50568,-41.716368 -634.2671,-43.954945 -631.50568,-43.954945 -628.74425,-43.954945 -626.50568,-41.716368 -626.50568,-38.954945 z" />
      <text style="font-size:30; vertical-align:top; fill-opacity:1.0; fill:darkblue; text-anchor:right; stroke:none; font-weight:normal; font-style:italic; text-align:right; " transform="" id="B.BD2.i.text" y="-45.9549463114" x="-624.505699971">
BD2.i</text>
      <circle style="stroke:red; stroke-width:1; fill:red; " transform="" cy="-23.8700350219" cx="-646.433725095" r="5" id="B.BD2.o" d="M -641.43372,-23.870035 C -641.43372,-21.108611 -643.67229,-18.870035 -646.43372,-18.870035 -649.19514,-18.870035 -651.43372,-21.108611 -651.43372,-23.870035 -651.43372,-26.631459 -649.19514,-28.870035 -646.43372,-28.870035 -643.67229,-28.870035 -641.43372,-26.631459 -641.43372,-23.870035 z" />
      <text style="font-size:30; vertical-align:top; fill-opacity:1.0; fill:darkblue; text-anchor:right; stroke:none; font-weight:normal; font-style:italic; text-align:right; " transform="" id="B.BD2.o.text" y="-30.8700350219" x="-639.433725095">
BD2.o</text>
      <path style="stroke-linejoin:miter; stroke-dashoffset:0; stroke:gray; stroke-miterlimit:4; stroke-dasharray:6,6; stroke-width:2; fill:none; " transform="" d="M 0.0  1452.75590551 L -817.964611188  179.105755062 L -832.677165354  -212.598425197 L 0.0  -212.598425197 L 0.0  637.795275591 L -971.530511811  637.795275591 L -983.298980092  743.441031555 M -938.976377953  637.795275591 L -1023.60928399  1341.38484033 L -1049.90726628  1341.38484033 " id="B.gridline" />
    </g>
    <g id="document.bodice.Bodice Sleeve.reference" transform=" translate(2588.405666, 436.320000)" />
  </g>
</svg>
