<?xml version="1.0" encoding="UTF-8" standalone="no"?>
<svg xmlns:dc="http://purl.org/dc/elements/1.1/" xmlns:cc="http://creativecommons.org/ns#" xmlns:rdf="http://www.w3.org/1999/02/22-rdf-syntax-ns#" xmlns:svg="http://www.w3.org/2000/svg" xmlns="http://www.w3.org/2000/svg" xmlns:sodipodi="http://sodipodi.sourceforge.net/DTD/sodipodi-0.dtd" xmlns:inkscape="http://www.inkscape.org/namespaces/inkscape" patternNumber="MR_B1" fitBoxtoViewport="True" companyName="Next Patterns" currentscale="0.5:1" margin-right="88.5826771654" client-name="DressFormLg" designerName="S.L.Spencer" height="4924.93000839" width="2610.97514333" margin-top="88.5826771654" version="1.1" margin-bottom="88.5826771654" margin-left="88.5826771654" preserveAspectRatio="xMidYMid meet" id="svg2" inkscape:version="0.48.4 r9939" sodipodi:docname="Susan-spencer_bodice_short-2014-11-05-0014.svg">
  <metadata id="metadata295">
    <rdf:RDF>
      <cc:Work rdf:about="">
        <dc:format>image/svg+xml</dc:format>
        <dc:type rdf:resource="http://purl.org/dc/dcmitype/StillImage" />
      </cc:Work>
    </rdf:RDF>
  </metadata>
  <sodipodi:namedview id="base" pagecolor="#ffffff" bordercolor="#666666" borderopacity="1.0" inkscape:pageopacity="0.0" inkscape:pageshadow="2" inkscape:zoom="0.17990103" inkscape:document-units="pt" showgrid="false" inkscape:window-maximized="1" inkscape:cx="1305.4875" inkscape:cy="2462.4651" inkscape:window-width="1855" inkscape:window-height="1056" inkscape:window-x="65" inkscape:window-y="24" inkscape:current-layer="pattern" />
  <defs id="defs5">
    <marker style="overflow:visible" id="Arrow1Mstart" refX="0.0" refY="0.0" orient="auto" inkscape:stockid="Arrow1Mstart">
      <path transform="scale(0.4) translate(10,0)" style="fill-rule:evenodd;stroke:#000000;stroke-width:1.0pt;marker-start:none" d="M 0.0,0.0 L 5.0,-5.0 L -12.5,0.0 L 5.0,5.0 L 0.0,0.0 z " id="path8" />
    </marker>
    <marker style="overflow:visible;" id="Arrow1Mend" refX="0.0" refY="0.0" orient="auto" inkscape:stockid="Arrow1Mend">
      <path transform="scale(0.4) rotate(180) translate(10,0)" style="fill-rule:evenodd;stroke:#000000;stroke-width:1.0pt;marker-start:none;" d="M 0.0,0.0 L 5.0,-5.0 L -12.5,0.0 L 5.0,5.0 L 0.0,0.0 z " id="path11" />
    </marker>
  </defs>
  <g inkscape:label="Label-pattern" id="pattern" inkscape:groupmode="layer" transform="translate(88.582677,88.582677)">
    <g id="document.bodice.Bodice Front.pattern" transform=" translate(58.750000, 757.717638)">
      <g id="A.letter" transform="matrix(10.000000, 0, 0, 10.000000, -3228.838583, -1030.039370)">
        <text style="font-size:24; vertical-align:top; fill-opacity:1.0; fill:#000000; text-anchor:start; stroke:none; font-weight:normal; font-style:normal; text-align:right; " transform="" id="A.letter.letterline" y="114.448818898" x="358.75984252">
A</text>
      </g>
      <line style="stroke-linejoin:miter; stroke:green; stroke-width:4; stroke-miterlimit:4; fill:none; " y2="1089.56692913" marker-end="url(#Arrow1Mend)" marker-start="url(#Arrow1Mstart)" transform="" x2="133.455818164" y1="159.448818898" x1="133.455818164" id="A.grainline" />
      <path style="stroke-linejoin:miter; stroke-dashoffset:0; stroke:green; stroke-miterlimit:4; stroke-dasharray:6,6; stroke-width:3; fill:none; " transform="" d="M 259.395490383  1311.33463227 L 354.330708661  710.078740157 L 449.265926939  1311.33463227 M 1158.82680674  637.795275591 L 443.747905788  637.795275591 L 1124.06289472  858.043659058 " id="A.dartline" />
      <path style="stroke-linejoin:miter; stroke-dashoffset:0; stroke:green; stroke-dasharray:24,6; stroke-miterlimit:4; stroke-width:4; fill:none; " transform="" d="M 0.0  0.0 L 0.0  1240.15748031 C 88.645475637  1240.15748031  169.270393162  1240.15748031  268.168392122  1255.77296657 L 354.330708661  1278.23694662 L 440.493025201  1255.77296657 C 636.21935046  1224.86878475  859.463764467  1200.35137293  1067.16189061  1191.62550743 L 1070.5475161  840.718337959 L 1074.34934934  737.329141664 L 1102.57680674  637.795275591 L 1033.68915656  394.888022168 C 893.572200606  440.498153899  738.545618172  421.42614887  673.228346457  318.897637795 C 576.766193088  167.481010918  700.589615123  -143.504287858  717.519685039  -223.334513127 L 266.911636328  -318.897637795 C 233.832093174  -162.917928626  160.146981797  0.0  0.0  0.0 " id="A.seamline" />
      <path style="fill:none;stroke:#008000;stroke-width:4;stroke-linejoin:miter;stroke-miterlimit:4" d="M 211.90625,-330.65625 C 197.45138,-264.20535 177.34444,-197.87692 139.96875,-140.40625 116.15169,-104.08797 82.171731,-71.60028 38.90625,-60.9375 9.6980416,-53.498727 -20.657228,-57.036286 -50.466985,-55.829847 -59.45958,-58.486119 -55.389515,-48.189039 -56.25,-42.78125 -56.25,403.61458 -56.25,850.01042 -56.25,1296.4062 46.185893,1296.5579 149.06128,1294.1252 250.33425,1309.9445 275.61881,1314.9795 300.37501,1322.7461 325.45247,1328.8532 335.4038,1331.1047 345.35695,1334.7182 355.31159,1336.1234 388.94232,1327.6491 422.34664,1318.098 456.10811,1310.2563 665.61128,1277.7645 876.70764,1255.4514 1088.4836,1247.0234 1099.9474,1246.5468 1111.4112,1246.0703 1122.875,1245.5938 1124.3548,1108.7844 1125.2942,971.9632 1127.0676,835.1609 1128.3203,805.19503 1128.9383,775.12915 1130.5852,745.22539 1140.7331,709.41045 1150.8906,673.59823 1161.0312,637.78125 1131.3237,532.976 1101.6145,428.17121 1071.875,323.375 1029.0655,337.0081 986.62384,353.10525 941.79102,358.51447 886.05465,365.74414 826.78676,362.9867 775.75,337.40625 743.96283,321.73608 718.17742,293.87286 706.875,260.125 689.94226,211.12386 691.43565,158.24857 696.34375,107.375 706.968,9.1880899 736.4176,-85.368133 764.34375,-179.71875 772.60111,-208.29903 778.11185,-237.58398 784.9375,-266.53125 597.84169,-306.25813 410.72586,-345.89065 223.625,-385.59375 219.71875,-367.28125 215.8125,-348.96875 211.90625,-330.65625 z" id="A.cuttingline" inkscape:connector-curvature="0" />
      <g id="A.info" transform="">
        <text style="font-size:12; vertical-align:top; fill-opacity:1.0; fill:#000000; text-anchor:start; stroke:none; font-weight:normal; font-style:normal; text-align:right; " transform="" id="A.info.lineNext Patterns" y="159.448818898" x="358.75984252">
Next Patterns</text>
        <text style="font-size:12; vertical-align:top; fill-opacity:1.0; fill:#000000; text-anchor:start; stroke:none; font-weight:normal; font-style:normal; text-align:right; " transform="" id="A.info.lineDesigner:S.L.Spencer" y="173.848818898" x="358.75984252">
Designer:S.L.Spencer</text>
        <text style="font-size:12; vertical-align:top; fill-opacity:1.0; fill:#000000; text-anchor:start; stroke:none; font-weight:normal; font-style:normal; text-align:right; " transform="" id="A.info.lineClient:DressFormLg" y="188.248818898" x="358.75984252">
Client:DressFormLg</text>
        <text style="font-size:12; vertical-align:top; fill-opacity:1.0; fill:#000000; text-anchor:start; stroke:none; font-weight:normal; font-style:normal; text-align:right; " transform="" id="A.info.lineMR_B1" y="202.648818898" x="358.75984252">
MR_B1</text>
        <text style="font-size:12; vertical-align:top; fill-opacity:1.0; fill:#000000; text-anchor:start; stroke:none; font-weight:normal; font-style:normal; text-align:right; " transform="" id="A.info.linePattern Piece A" y="217.048818898" x="358.75984252">
Pattern Piece A</text>
        <text style="font-size:12; vertical-align:top; fill-opacity:1.0; fill:#000000; text-anchor:start; stroke:none; font-weight:normal; font-style:normal; text-align:right; " transform="" id="A.info.lineCut 2 Fabric" y="231.448818898" x="358.75984252">
Cut 2 Fabric</text>
      </g>
    </g>
    <g id="document.bodice.Bodice Back.pattern" transform=" translate(2377.559789, 580.552283)">
      <g id="B.letter" transform="matrix(10.000000, 0, 0, 10.000000, 3188.976378, -2465.078740)">
        <text style="font-size:24; vertical-align:top; fill-opacity:1.0; fill:#000000; text-anchor:start; stroke:none; font-weight:normal; font-style:normal; text-align:right; " transform="" id="B.letter.letterline" y="273.897637795" x="-354.330708661">
B</text>
      </g>
      <line style="stroke-linejoin:miter; stroke:green; stroke-width:4; stroke-miterlimit:4; fill:none; " y2="1222.44094488" marker-end="url(#Arrow1Mend)" marker-start="url(#Arrow1Mstart)" transform="" x2="-142.235487856" y1="212.598425197" x1="-142.235487856" id="B.grainline" />
      <path style="stroke-linejoin:miter; stroke-dashoffset:0; stroke:green; stroke-miterlimit:4; stroke-dasharray:6,6; stroke-width:3; fill:none; " transform="" d="M -467.418479171  1410.20631643 L -383.761673202  637.795275591 L -300.104867233  1410.20631643 M -561.737868518  -99.7936528683 L -408.90625351  155.133448032 L -524.771526596  -118.582769632 " id="B.dartline" />
      <path style="stroke-linejoin:miter; stroke-dashoffset:0; stroke:green; stroke-dasharray:24,6; stroke-miterlimit:4; stroke-width:4; fill:none; " transform="" d="M 0.0  0.0 L 0.0  1346.45669291 C -101.066356698  1346.45669291  -233.897375817  1346.45669291  -306.161663631  1354.28335409 L -383.761673202  1369.22450296 L -461.361682773  1354.28335409 C -537.949254067  1345.98845506  -734.305877332  1344.80111973  -868.801465504  1343.98784763 L -883.264792109  744.06360982 C -793.516244836  741.899899022  -653.441816562  738.522902265  -611.220472441  637.795275591 C -533.679798926  452.806185913  -673.120157064  121.790863154  -708.661417323  37.8293872947 L -532.814828916  -51.5492720537 L -517.829556513  -59.165931379 L -502.844284109  -66.7825907043 L -284.470975712  -141.732283465 C -252.688753608  -78.3927191927  -213.353231784  0.0  0.0  0.0 " id="B.seamline" />
      <path style="fill:none;stroke:#008000;stroke-width:4;stroke-linejoin:miter;stroke-miterlimit:4" d="M -302.71875,-194.9375 C -377.02939,-169.33762 -451.4857,-144.08557 -525.70534,-118.26838 -610.75152,-75.07373 -695.85109,-31.792352 -780.90625,11.46875 -749.13317,85.474008 -718.15181,159.91946 -694.08598,236.86982 -668.44871,319.00671 -647.62896,403.6347 -644.5625,490 -643.57443,534.50867 -646.84211,580.25575 -665.5,621.25 -679.74357,649.7736 -710.7712,664.21927 -740.03125,672.46875 -801.13606,689.08894 -864.93477,686.59742 -927.67342,688.94411 -932.49837,690.27025 -943.43305,685.78525 -940.72129,694.27975 -935.01115,929.49796 -929.39016,1164.7183 -923.71875,1399.9375 -790.58016,1400.9647 -657.30442,1400.5776 -524.35014,1406.2214 -498.5087,1407.6912 -472.35194,1408.2009 -446.97689,1414.3463 -425.57357,1418.2063 -404.17536,1423.1013 -382.76779,1426.3122 -352.55687,1420.8735 -322.55141,1414.0128 -292.22308,1409.4071 -208.43976,1402.5496 -124.35575,1403.2238 -40.343773,1402.7205 -8.1458513,1402.7164 24.052076,1402.7199 56.25,1402.7188 56.25,916.39583 56.25,430.07292 56.25,-56.25 -8.2028894,-56.354282 -74.213712,-53.53629 -136.34375,-73.46875 -166.34681,-82.915222 -194.66624,-100.53616 -212.09375,-127.3125 -229.28847,-153.74651 -241.59842,-182.99175 -256.28125,-210.875 -271.76042,-205.5625 -287.23958,-200.25 -302.71875,-194.9375 z" id="B.cuttingline" inkscape:connector-curvature="0" />
      <g id="B.info" transform="">
        <text style="font-size:12; vertical-align:top; fill-opacity:1.0; fill:#000000; text-anchor:start; stroke:none; font-weight:normal; font-style:normal; text-align:right; " transform="" id="B.info.lineNext Patterns" y="318.897637795" x="-354.330708661">
Next Patterns</text>
        <text style="font-size:12; vertical-align:top; fill-opacity:1.0; fill:#000000; text-anchor:start; stroke:none; font-weight:normal; font-style:normal; text-align:right; " transform="" id="B.info.lineDesigner:S.L.Spencer" y="333.297637795" x="-354.330708661">
Designer:S.L.Spencer</text>
        <text style="font-size:12; vertical-align:top; fill-opacity:1.0; fill:#000000; text-anchor:start; stroke:none; font-weight:normal; font-style:normal; text-align:right; " transform="" id="B.info.lineClient:DressFormLg" y="347.697637795" x="-354.330708661">
Client:DressFormLg</text>
        <text style="font-size:12; vertical-align:top; fill-opacity:1.0; fill:#000000; text-anchor:start; stroke:none; font-weight:normal; font-style:normal; text-align:right; " transform="" id="B.info.lineMR_B1" y="362.097637795" x="-354.330708661">
MR_B1</text>
        <text style="font-size:12; vertical-align:top; fill-opacity:1.0; fill:#000000; text-anchor:start; stroke:none; font-weight:normal; font-style:normal; text-align:right; " transform="" id="B.info.linePattern Piece B" y="376.497637795" x="-354.330708661">
Pattern Piece B</text>
        <text style="font-size:12; vertical-align:top; fill-opacity:1.0; fill:#000000; text-anchor:start; stroke:none; font-weight:normal; font-style:normal; text-align:right; " transform="" id="B.info.lineCut 2 Fabric" y="390.897637795" x="-354.330708661">
Cut 2 Fabric</text>
      </g>
    </g>
    <g id="document.bodice.Bodice Sleeve.pattern" transform=" translate(926.619251, 2240.302270)">
      <line style="stroke-linejoin:miter; stroke:green; stroke-width:4; stroke-miterlimit:4; fill:none; " y2="2090.5511811" marker-end="url(#Arrow1Mend)" marker-start="url(#Arrow1Mstart)" transform="" x2="0.0" y1="627.890523993" x1="0.0" id="C.grainline" />
      <g id="C.letter" transform="matrix(15.000000, 0, 0, 15.000000, -3791.989691, -14901.905620)">
        <text style="font-size:24; vertical-align:top; fill-opacity:1.0; fill:#000000; text-anchor:start; stroke:none; font-weight:normal; font-style:normal; text-align:right; " transform="" id="C.letter.letterline" y="1064.42183" x="270.856406489">
C</text>
      </g>
      <path style="stroke-linejoin:miter; stroke-dashoffset:0; stroke:green; stroke-miterlimit:4; stroke-dasharray:6,6; stroke-width:3; fill:none; " transform="" d="M 740.242499904  1532.24520162 L 483.661417323  1500.95313601 L 721.677721688  1601.75633122 " id="C.dartline" />
      <path style="stroke-linejoin:miter; stroke-dashoffset:0; stroke:green; stroke-dasharray:24,6; stroke-miterlimit:4; stroke-width:4; fill:none; " transform="" d="M 924.119250557  627.890523993 C 844.978483128  578.848782602  765.416002498  529.545715091  693.089437917  470.917892995 C 547.276999051  352.722513817  426.110660243  203.843602072  270.856406489  98.3564858988 C 191.406473412  44.3744266772  95.0933758346  0.0  0.0  0.0 C -92.1729528323  0.0  -198.548957843  85.5352541605  -250.943109564  127.664558449 C -395.757797459  244.107746309  -522.517167306  388.27379435  -673.176140992  500.225965545 C -748.505627836  556.202051142  -837.229929864  592.42082289  -924.119250557  627.890523993 C -758.786785567  897.074824632  -579.646157179  1188.74074017  -531.496062992  1500.95313601 L -396.361999544  2377.18256862 C -142.615430922  2338.04920511  127.512285643  2367.74213833  370.311501674  2451.21238406 L 669.881437991  1579.81988905 L 684.941057642  1554.71016605 L 684.406213477  1525.43553069 L 924.119250557  627.890523993 " id="C.seamline" />
      <path style="fill:none;stroke:#008000;stroke-width:4;stroke-linejoin:miter;stroke-miterlimit:4" d="M -3.75,-56.21875 C -64.195538,-54.781589 -121.01642,-29.177982 -172.03614,1.4581817 -232.22567,38.044687 -286.55205,83.239271 -340.00692,128.86767 -465.72286,237.62056 -578.81224,361.05552 -713.125,459.75 -793.352,516.99337 -886.41749,551.25731 -976.85508,588.62666 -986.80964,592.68861 -996.76419,596.75055 -1006.7188,600.8125 -890.20611,791.43753 -769.40062,980.73691 -682.25,1187.0938 -635.88488,1297.1251 -600.15436,1412.1853 -583.8619,1530.4734 -537.04082,1834.0548 -490.24124,2137.6395 -443.40625,2441.2188 -382.4913,2431.6884 -321.37622,2422.363 -259.78324,2419.1244 -62.458552,2407.292 136.47878,2434.6183 324.5,2495.2188 351.513,2504.069 378.35131,2513.4563 405.28125,2522.5625 510.53282,2216.2466 615.87082,1909.9605 721.15625,1603.6562 727.7233,1591.9963 735.74637,1580.7274 741.45134,1568.8439 741.7586,1555.7221 739.90974,1542.3368 741.58655,1529.3828 824.14315,1220.2662 906.68232,911.14492 989.25,602.03125 887.5231,538.88514 783.80255,477.31029 693.63422,397.97845 570.15542,290.92132 461.77839,166.49252 328.875,70.375 251.44686,14.093959 164.45974,-32.468432 69.51714,-49.880406 45.354536,-54.194571 20.804365,-56.509008 -3.75,-56.21875 z" id="C.cuttingline" inkscape:connector-curvature="0" />
      <g id="C.info" transform="">
        <text style="font-size:12; vertical-align:top; fill-opacity:1.0; fill:#000000; text-anchor:start; stroke:none; font-weight:normal; font-style:normal; text-align:right; " transform="" id="C.info.lineNext Patterns" y="1135.28797173" x="270.856406489">
Next Patterns</text>
        <text style="font-size:12; vertical-align:top; fill-opacity:1.0; fill:#000000; text-anchor:start; stroke:none; font-weight:normal; font-style:normal; text-align:right; " transform="" id="C.info.lineDesigner:S.L.Spencer" y="1149.68797173" x="270.856406489">
Designer:S.L.Spencer</text>
        <text style="font-size:12; vertical-align:top; fill-opacity:1.0; fill:#000000; text-anchor:start; stroke:none; font-weight:normal; font-style:normal; text-align:right; " transform="" id="C.info.lineClient:DressFormLg" y="1164.08797173" x="270.856406489">
Client:DressFormLg</text>
        <text style="font-size:12; vertical-align:top; fill-opacity:1.0; fill:#000000; text-anchor:start; stroke:none; font-weight:normal; font-style:normal; text-align:right; " transform="" id="C.info.lineMR_B1" y="1178.48797173" x="270.856406489">
MR_B1</text>
        <text style="font-size:12; vertical-align:top; fill-opacity:1.0; fill:#000000; text-anchor:start; stroke:none; font-weight:normal; font-style:normal; text-align:right; " transform="" id="C.info.linePattern Piece C" y="1192.88797173" x="270.856406489">
Pattern Piece C</text>
        <text style="font-size:12; vertical-align:top; fill-opacity:1.0; fill:#000000; text-anchor:start; stroke:none; font-weight:normal; font-style:normal; text-align:right; " transform="" id="C.info.lineCut 2 Fabric" y="1207.28797173" x="270.856406489">
Cut 2 Fabric</text>
      </g>
    </g>
  </g>
  <g inkscape:label="Label-notes" id="notes" inkscape:groupmode="layer" transform="translate(88.582677,88.582677)">
    <g id="document.titleblock">
      <text style="font-size:40; vertical-align:top; fill-opacity:1.0; fill:#000000; text-anchor:right; stroke:none; font-weight:normal; font-style:normal; text-align:right; " transform="" id="company" y="0.0" x="0.0">
Next Patterns</text>
      <text style="font-size:40; vertical-align:top; fill-opacity:1.0; fill:#000000; text-anchor:right; stroke:none; font-weight:normal; font-style:normal; text-align:right; " transform="" id="designer" y="44.0" x="0.0">
S.L.Spencer</text>
      <text style="font-size:40; vertical-align:top; fill-opacity:1.0; fill:#000000; text-anchor:right; stroke:none; font-weight:normal; font-style:normal; text-align:right; " transform="" id="pattern_number" y="88.0" x="0.0">
MR_B1</text>
      <text style="font-size:40; vertical-align:top; fill-opacity:1.0; fill:#000000; text-anchor:right; stroke:none; font-weight:normal; font-style:normal; text-align:right; " transform="" id="pattern_name" y="132.0" x="0.0">
Spencer Bodice Short</text>
      <text style="font-size:40; vertical-align:top; fill-opacity:1.0; fill:#000000; text-anchor:right; stroke:none; font-weight:normal; font-style:normal; text-align:right; " transform="" id="client" y="176.0" x="0.0">
DressFormLg</text>
    </g>
    <g id="document.testgrid">
      <path style="stroke-linejoin:miter; stroke:green; stroke-width:4; stroke-miterlimit:4; fill:none; " d="M 1320.0  0.0 L 1320.0  212.598425197 M 1355.43307087  0.0 L 1355.43307087  212.598425197 M 1390.86614173  0.0 L 1390.86614173  212.598425197 M 1426.2992126  0.0 L 1426.2992126  212.598425197 M 1461.73228346  0.0 L 1461.73228346  212.598425197 M 1497.16535433  0.0 L 1497.16535433  212.598425197 M 1532.5984252  0.0 L 1532.5984252  212.598425197 M 1320.0  0.0 L 1532.5984252  0.0 M 1320.0  35.4330708661 L 1532.5984252  35.4330708661 M 1320.0  70.8661417323 L 1532.5984252  70.8661417323 M 1320.0  106.299212598 L 1532.5984252  106.299212598 M 1320.0  141.732283465 L 1532.5984252  141.732283465 M 1320.0  177.165354331 L 1532.5984252  177.165354331 M 1320.0  212.598425197 L 1532.5984252  212.598425197 M 1709.76377953  0.0 L 1709.76377953  270.0 M 1799.76377953  0.0 L 1799.76377953  270.0 M 1889.76377953  0.0 L 1889.76377953  270.0 M 1979.76377953  0.0 L 1979.76377953  270.0 M 1709.76377953  0.0 L 1979.76377953  0.0 M 1709.76377953  90.0 L 1979.76377953  90.0 M 1709.76377953  180.0 L 1979.76377953  180.0 M 1709.76377953  270.0 L 1979.76377953  270.0 " id="testgrid" />
    </g>
    <g id="document.bodice.Bodice Front.notes" transform=" translate(58.750000, 757.717638)" />
    <g id="document.bodice.Bodice Back.notes" transform=" translate(2377.559789, 580.552283)" />
    <g id="document.bodice.Bodice Sleeve.notes" transform=" translate(926.619251, 2240.302270)" />
  </g>
  <g inkscape:label="Label-reference" id="reference" inkscape:groupmode="layer" transform="translate(88.582677,88.582677)">
    <g id="document.bodice.Bodice Front.reference" transform=" translate(58.750000, 757.717638)">
      <circle style="stroke:gray; stroke-width:1; fill:none; " transform="" cy="0.0" cx="160.146981797" r="5" id="A.FNC.inpoint" d="M 165.14699,0 C 165.14699,2.7614237 162.90841,5 160.14699,5 157.38556,5 155.14699,2.7614237 155.14699,0 155.14699,-2.7614237 157.38556,-5 160.14699,-5 162.90841,-5 165.14699,-2.7614237 165.14699,0 z" />
      <text style="font-size:25; vertical-align:top; fill-opacity:1.0; fill:gray; text-anchor:right; stroke:none; font-weight:normal; font-style:italic; text-align:right; " transform="" id="A.FNC.inpoint.text" y="-7.0" x="167.146981797">
FNC.in</text>
      <circle style="stroke:red; stroke-width:1; fill:red; " transform="" cy="0.0" cx="0.0" r="5" id="A.FNC" d="M 5,0 C 5,2.7614237 2.7614237,5 0,5 -2.7614237,5 -5,2.7614237 -5,0 -5,-2.7614237 -2.7614237,-5 0,-5 2.7614237,-5 5,-2.7614237 5,0 z" />
      <text style="font-size:30; vertical-align:top; fill-opacity:1.0; fill:darkblue; text-anchor:right; stroke:none; font-weight:normal; font-style:italic; text-align:right; " transform="" id="A.FNC.text" y="-7.0" x="7.0">
FNC</text>
      <circle style="stroke:gray; stroke-width:1; fill:none; " transform="" cy="1240.15748031" cx="88.645475637" r="5" id="A.FWC.outpoint" d="M 93.645477,1240.1575 C 93.645477,1242.9189 91.406901,1245.1575 88.645477,1245.1575 85.884054,1245.1575 83.645477,1242.9189 83.645477,1240.1575 83.645477,1237.396 85.884054,1235.1575 88.645477,1235.1575 91.406901,1235.1575 93.645477,1237.396 93.645477,1240.1575 z" />
      <text style="font-size:25; vertical-align:top; fill-opacity:1.0; fill:gray; text-anchor:right; stroke:none; font-weight:normal; font-style:italic; text-align:right; " transform="" id="A.FWC.outpoint.text" y="1233.15748031" x="95.645475637">
FWC.out</text>
      <circle style="stroke:red; stroke-width:1; fill:red; " transform="" cy="1240.15748031" cx="0.0" r="5" id="A.FWC" d="M 5,1240.1575 C 5,1242.9189 2.7614237,1245.1575 0,1245.1575 -2.7614237,1245.1575 -5,1242.9189 -5,1240.1575 -5,1237.396 -2.7614237,1235.1575 0,1235.1575 2.7614237,1235.1575 5,1237.396 5,1240.1575 z" />
      <text style="font-size:30; vertical-align:top; fill-opacity:1.0; fill:darkblue; text-anchor:right; stroke:none; font-weight:normal; font-style:italic; text-align:right; " transform="" id="A.FWC.text" y="1233.15748031" x="7.0">
FWC</text>
      <circle style="stroke:red; stroke-width:1; fill:red; " transform="" cy="-318.897637795" cx="0.0" r="5" id="A.FSH" d="M 5,-318.89764 C 5,-316.13622 2.7614237,-313.89764 0,-313.89764 -2.7614237,-313.89764 -5,-316.13622 -5,-318.89764 -5,-321.65907 -2.7614237,-323.89764 0,-323.89764 2.7614237,-323.89764 5,-321.65907 5,-318.89764 z" />
      <text style="font-size:30; vertical-align:top; fill-opacity:1.0; fill:darkblue; text-anchor:right; stroke:none; font-weight:normal; font-style:italic; text-align:right; " transform="" id="A.FSH.text" y="-325.897637795" x="7.0">
FSH</text>
      <circle style="stroke:red; stroke-width:1; fill:red; " transform="" cy="-318.897637795" cx="717.519685039" r="5" id="A.FSW" d="M 722.51971,-318.89764 C 722.51971,-316.13622 720.28114,-313.89764 717.51971,-313.89764 714.75829,-313.89764 712.51971,-316.13622 712.51971,-318.89764 712.51971,-321.65907 714.75829,-323.89764 717.51971,-323.89764 720.28114,-323.89764 722.51971,-321.65907 722.51971,-318.89764 z" />
      <text style="font-size:30; vertical-align:top; fill-opacity:1.0; fill:darkblue; text-anchor:right; stroke:none; font-weight:normal; font-style:italic; text-align:right; " transform="" id="A.FSW.text" y="-325.897637795" x="724.519685039">
FSW</text>
      <circle style="stroke:gray; stroke-width:1; fill:none; " transform="" cy="-143.504287858" cx="700.589615123" r="5" id="A.FSP.inpoint" d="M 705.5896,-143.50429 C 705.5896,-140.74286 703.35102,-138.50429 700.5896,-138.50429 697.82818,-138.50429 695.5896,-140.74286 695.5896,-143.50429 695.5896,-146.26571 697.82818,-148.50429 700.5896,-148.50429 703.35102,-148.50429 705.5896,-146.26571 705.5896,-143.50429 z" />
      <text style="font-size:25; vertical-align:top; fill-opacity:1.0; fill:gray; text-anchor:right; stroke:none; font-weight:normal; font-style:italic; text-align:right; " transform="" id="A.FSP.inpoint.text" y="-150.504287858" x="707.589615123">
FSP.in</text>
      <circle style="stroke:red; stroke-width:1; fill:red; " transform="" cy="-223.334513127" cx="717.519685039" r="5" id="A.FSP" d="M 722.51971,-223.33452 C 722.51971,-220.57309 720.28114,-218.33452 717.51971,-218.33452 714.75829,-218.33452 712.51971,-220.57309 712.51971,-223.33452 712.51971,-226.09594 714.75829,-228.33452 717.51971,-228.33452 720.28114,-228.33452 722.51971,-226.09594 722.51971,-223.33452 z" />
      <text style="font-size:30; vertical-align:top; fill-opacity:1.0; fill:darkblue; text-anchor:right; stroke:none; font-weight:normal; font-style:italic; text-align:right; " transform="" id="A.FSP.text" y="-230.334513127" x="724.519685039">
FSP</text>
      <circle style="stroke:gray; stroke-width:1; fill:none; " transform="" cy="-162.917928626" cx="233.832093174" r="5" id="A.FNS.outpoint" d="M 238.83209,-162.91792 C 238.83209,-160.1565 236.59352,-157.91792 233.83209,-157.91792 231.07067,-157.91792 228.83209,-160.1565 228.83209,-162.91792 228.83209,-165.67935 231.07067,-167.91792 233.83209,-167.91792 236.59352,-167.91792 238.83209,-165.67935 238.83209,-162.91792 z" />
      <text style="font-size:25; vertical-align:top; fill-opacity:1.0; fill:gray; text-anchor:right; stroke:none; font-weight:normal; font-style:italic; text-align:right; " transform="" id="A.FNS.outpoint.text" y="-169.917928626" x="240.832093174">
FNS.out</text>
      <circle style="stroke:red; stroke-width:1; fill:red; " transform="" cy="-318.897637795" cx="266.911636328" r="5" id="A.FNS" d="M 271.91162,-318.89764 C 271.91162,-316.13622 269.67304,-313.89764 266.91162,-313.89764 264.1502,-313.89764 261.91162,-316.13622 261.91162,-318.89764 261.91162,-321.65907 264.1502,-323.89764 266.91162,-323.89764 269.67304,-323.89764 271.91162,-321.65907 271.91162,-318.89764 z" />
      <text style="font-size:30; vertical-align:top; fill-opacity:1.0; fill:darkblue; text-anchor:right; stroke:none; font-weight:normal; font-style:italic; text-align:right; " transform="" id="A.FNS.text" y="-325.897637795" x="273.911636328">
FNS</text>
      <circle style="stroke:red; stroke-width:1; fill:red; " transform="" cy="318.897637795" cx="0.0" r="5" id="A.FUC" d="M 5,318.89764 C 5,321.65907 2.7614237,323.89764 0,323.89764 -2.7614237,323.89764 -5,321.65907 -5,318.89764 -5,316.13622 -2.7614237,313.89764 0,313.89764 2.7614237,313.89764 5,316.13622 5,318.89764 z" />
      <text style="font-size:30; vertical-align:top; fill-opacity:1.0; fill:darkblue; text-anchor:right; stroke:none; font-weight:normal; font-style:italic; text-align:right; " transform="" id="A.FUC.text" y="311.897637795" x="7.0">
FUC</text>
      <circle style="stroke:red; stroke-width:1; fill:red; " transform="" cy="637.795275591" cx="0.0" r="5" id="A.FBC" d="M 5,637.79529 C 5,640.55671 2.7614237,642.79529 0,642.79529 -2.7614237,642.79529 -5,640.55671 -5,637.79529 -5,635.03386 -2.7614237,632.79529 0,632.79529 2.7614237,632.79529 5,635.03386 5,637.79529 z" />
      <text style="font-size:30; vertical-align:top; fill-opacity:1.0; fill:darkblue; text-anchor:right; stroke:none; font-weight:normal; font-style:italic; text-align:right; " transform="" id="A.FBC.text" y="630.795275591" x="7.0">
FBC</text>
      <circle style="stroke:red; stroke-width:1; fill:red; " transform="" cy="637.795275591" cx="354.330708661" r="5" id="A.FBP" d="M 359.33072,637.79529 C 359.33072,640.55671 357.09214,642.79529 354.33072,642.79529 351.5693,642.79529 349.33072,640.55671 349.33072,637.79529 349.33072,635.03386 351.5693,632.79529 354.33072,632.79529 357.09214,632.79529 359.33072,635.03386 359.33072,637.79529 z" />
      <text style="font-size:30; vertical-align:top; fill-opacity:1.0; fill:darkblue; text-anchor:right; stroke:none; font-weight:normal; font-style:italic; text-align:right; " transform="" id="A.FBP.text" y="630.795275591" x="361.330708661">
FBP</text>
      <circle style="stroke:gray; stroke-width:1; fill:none; " transform="" cy="421.42614887" cx="738.545618172" r="5" id="A.FAP.inpoint" d="M 743.54559,421.42615 C 743.54559,424.18757 741.30702,426.42615 738.54559,426.42615 735.78417,426.42615 733.54559,424.18757 733.54559,421.42615 733.54559,418.66472 735.78417,416.42615 738.54559,416.42615 741.30702,416.42615 743.54559,418.66472 743.54559,421.42615 z" />
      <text style="font-size:25; vertical-align:top; fill-opacity:1.0; fill:gray; text-anchor:right; stroke:none; font-weight:normal; font-style:italic; text-align:right; " transform="" id="A.FAP.inpoint.text" y="414.42614887" x="745.545618172">
FAP.in</text>
      <circle style="stroke:gray; stroke-width:1; fill:none; " transform="" cy="167.481010918" cx="576.766193088" r="5" id="A.FAP.outpoint" d="M 581.76617,167.48102 C 581.76617,170.24244 579.5276,172.48102 576.76617,172.48102 574.00475,172.48102 571.76617,170.24244 571.76617,167.48102 571.76617,164.71959 574.00475,162.48102 576.76617,162.48102 579.5276,162.48102 581.76617,164.71959 581.76617,167.48102 z" />
      <text style="font-size:25; vertical-align:top; fill-opacity:1.0; fill:gray; text-anchor:right; stroke:none; font-weight:normal; font-style:italic; text-align:right; " transform="" id="A.FAP.outpoint.text" y="160.481010918" x="583.766193088">
FAP.out</text>
      <circle style="stroke:red; stroke-width:1; fill:red; " transform="" cy="318.897637795" cx="673.228346457" r="5" id="A.FAP" d="M 678.22833,318.89764 C 678.22833,321.65907 675.98976,323.89764 673.22833,323.89764 670.46691,323.89764 668.22833,321.65907 668.22833,318.89764 668.22833,316.13622 670.46691,313.89764 673.22833,313.89764 675.98976,313.89764 678.22833,316.13622 678.22833,318.89764 z" />
      <text style="font-size:30; vertical-align:top; fill-opacity:1.0; fill:darkblue; text-anchor:right; stroke:none; font-weight:normal; font-style:italic; text-align:right; " transform="" id="A.FAP.text" y="311.897637795" x="680.228346457">
FAP</text>
      <circle style="stroke:red; stroke-width:1; fill:red; " transform="" cy="318.897637795" cx="921.25984252" r="5" id="A.f1" d="M 926.25983,318.89764 C 926.25983,321.65907 924.02125,323.89764 921.25983,323.89764 918.4984,323.89764 916.25983,321.65907 916.25983,318.89764 916.25983,316.13622 918.4984,313.89764 921.25983,313.89764 924.02125,313.89764 926.25983,316.13622 926.25983,318.89764 z" />
      <text style="font-size:30; vertical-align:top; fill-opacity:1.0; fill:darkblue; text-anchor:right; stroke:none; font-weight:normal; font-style:italic; text-align:right; " transform="" id="A.f1.text" y="311.897637795" x="928.25984252">
f1</text>
      <circle style="stroke:red; stroke-width:1; fill:red; " transform="" cy="440.379318512" cx="960.803917844" r="5" id="A.f2" d="M 965.80389,440.37933 C 965.80389,443.14076 963.56532,445.37933 960.80389,445.37933 958.04247,445.37933 955.80389,443.14076 955.80389,440.37933 955.80389,437.61791 958.04247,435.37933 960.80389,435.37933 963.56532,435.37933 965.80389,437.61791 965.80389,440.37933 z" />
      <text style="font-size:30; vertical-align:top; fill-opacity:1.0; fill:darkblue; text-anchor:right; stroke:none; font-weight:normal; font-style:italic; text-align:right; " transform="" id="A.f2.text" y="433.379318512" x="967.803917844">
f2</text>
      <circle style="stroke:red; stroke-width:1; fill:red; " transform="" cy="992.756759109" cx="1140.61090594" r="5" id="A.f3" d="M 1145.611,992.75677 C 1145.611,995.5182 1143.3724,997.75677 1140.611,997.75677 1137.8495,997.75677 1135.611,995.5182 1135.611,992.75677 1135.611,989.99535 1137.8495,987.75677 1140.611,987.75677 1143.3724,987.75677 1145.611,989.99535 1145.611,992.75677 z" />
      <text style="font-size:30; vertical-align:top; fill-opacity:1.0; fill:darkblue; text-anchor:right; stroke:none; font-weight:normal; font-style:italic; text-align:right; " transform="" id="A.f3.text" y="985.756759109" x="1147.61090594">
f3</text>
      <circle style="stroke:red; stroke-width:1; fill:red; " transform="" cy="1240.15748031" cx="354.330708661" r="5" id="A.f4" d="M 359.33072,1240.1575 C 359.33072,1242.9189 357.09214,1245.1575 354.33072,1245.1575 351.5693,1245.1575 349.33072,1242.9189 349.33072,1240.1575 349.33072,1237.396 351.5693,1235.1575 354.33072,1235.1575 357.09214,1235.1575 359.33072,1237.396 359.33072,1240.1575 z" />
      <text style="font-size:30; vertical-align:top; fill-opacity:1.0; fill:darkblue; text-anchor:right; stroke:none; font-weight:normal; font-style:italic; text-align:right; " transform="" id="A.f4.text" y="1233.15748031" x="361.330708661">
f4</text>
      <circle style="stroke:red; stroke-width:1; fill:red; " transform="" cy="1150.61284812" cx="670.334447545" r="5" id="A.f5" d="M 675.33447,1150.6128 C 675.33447,1153.3742 673.0959,1155.6128 670.33447,1155.6128 667.57305,1155.6128 665.33447,1153.3742 665.33447,1150.6128 665.33447,1147.8514 667.57305,1145.6128 670.33447,1145.6128 673.0959,1145.6128 675.33447,1147.8514 675.33447,1150.6128 z" />
      <text style="font-size:30; vertical-align:top; fill-opacity:1.0; fill:darkblue; text-anchor:right; stroke:none; font-weight:normal; font-style:italic; text-align:right; " transform="" id="A.f5.text" y="1143.61284812" x="677.334447545">
f5</text>
      <circle style="stroke:red; stroke-width:1; fill:red; " transform="" cy="414.890724943" cx="1039.10634774" r="5" id="A.FBS" d="M 1044.1063,414.89072 C 1044.1063,417.65214 1041.8677,419.89072 1039.1063,419.89072 1036.3449,419.89072 1034.1063,417.65214 1034.1063,414.89072 1034.1063,412.12929 1036.3449,409.89072 1039.1063,409.89072 1041.8677,409.89072 1044.1063,412.12929 1044.1063,414.89072 z" />
      <text style="font-size:30; vertical-align:top; fill-opacity:1.0; fill:darkblue; text-anchor:right; stroke:none; font-weight:normal; font-style:italic; text-align:right; " transform="" id="A.FBS.text" y="407.890724943" x="1046.10634774">
FBS</text>
      <circle style="stroke:red; stroke-width:1; fill:red; " transform="" cy="976.305429353" cx="1191.15034004" r="5" id="A.f6" d="M 1196.1504,976.30542 C 1196.1504,979.06684 1193.9118,981.30542 1191.1504,981.30542 1188.389,981.30542 1186.1504,979.06684 1186.1504,976.30542 1186.1504,973.544 1188.389,971.30542 1191.1504,971.30542 1193.9118,971.30542 1196.1504,973.544 1196.1504,976.30542 z" />
      <text style="font-size:30; vertical-align:top; fill-opacity:1.0; fill:darkblue; text-anchor:right; stroke:none; font-weight:normal; font-style:italic; text-align:right; " transform="" id="A.f6.text" y="969.305429353" x="1198.15034004">
f6</text>
      <circle style="stroke:red; stroke-width:1; fill:red; " transform="" cy="292.284950312" cx="1005.90188889" r="5" id="A.f7" d="M 1010.9019,292.28494 C 1010.9019,295.04637 1008.6633,297.28494 1005.9019,297.28494 1003.1405,297.28494 1000.9019,295.04637 1000.9019,292.28494 1000.9019,289.52352 1003.1405,287.28494 1005.9019,287.28494 1008.6633,287.28494 1010.9019,289.52352 1010.9019,292.28494 z" />
      <text style="font-size:30; vertical-align:top; fill-opacity:1.0; fill:darkblue; text-anchor:right; stroke:none; font-weight:normal; font-style:italic; text-align:right; " transform="" id="A.f7.text" y="285.284950312" x="1012.90188889">
f7</text>
      <circle style="stroke:gray; stroke-width:1; fill:none; " transform="" cy="440.498153899" cx="893.572200606" r="5" id="A.FUS.outpoint" d="M 898.5722,440.49817 C 898.5722,443.25959 896.33363,445.49817 893.5722,445.49817 890.81078,445.49817 888.5722,443.25959 888.5722,440.49817 888.5722,437.73675 890.81078,435.49817 893.5722,435.49817 896.33363,435.49817 898.5722,437.73675 898.5722,440.49817 z" />
      <text style="font-size:25; vertical-align:top; fill-opacity:1.0; fill:gray; text-anchor:right; stroke:none; font-weight:normal; font-style:italic; text-align:right; " transform="" id="A.FUS.outpoint.text" y="433.498153899" x="900.572200606">
FUS.out</text>
      <circle style="stroke:red; stroke-width:1; fill:red; " transform="" cy="394.888022168" cx="1033.68915656" r="5" id="A.FUS" d="M 1038.6892,394.88803 C 1038.6892,397.64945 1036.4506,399.88803 1033.6892,399.88803 1030.9278,399.88803 1028.6892,397.64945 1028.6892,394.88803 1028.6892,392.12661 1030.9278,389.88803 1033.6892,389.88803 1036.4506,389.88803 1038.6892,392.12661 1038.6892,394.88803 z" />
      <text style="font-size:30; vertical-align:top; fill-opacity:1.0; fill:darkblue; text-anchor:right; stroke:none; font-weight:normal; font-style:italic; text-align:right; " transform="" id="A.FUS.text" y="387.888022168" x="1040.68915656">
FUS</text>
      <circle style="stroke:gray; stroke-width:1; fill:none; " transform="" cy="1200.35137293" cx="859.463764467" r="5" id="A.FWS.inpoint" d="M 864.46375,1200.3513 C 864.46375,1203.1127 862.22517,1205.3513 859.46375,1205.3513 856.70232,1205.3513 854.46375,1203.1127 854.46375,1200.3513 854.46375,1197.5899 856.70232,1195.3513 859.46375,1195.3513 862.22517,1195.3513 864.46375,1197.5899 864.46375,1200.3513 z" />
      <text style="font-size:25; vertical-align:top; fill-opacity:1.0; fill:gray; text-anchor:right; stroke:none; font-weight:normal; font-style:italic; text-align:right; " transform="" id="A.FWS.inpoint.text" y="1193.35137293" x="866.463764467">
FWS.in</text>
      <circle style="stroke:red; stroke-width:1; fill:red; " transform="" cy="1191.62550743" cx="1067.16189061" r="5" id="A.FWS" d="M 1072.1619,1191.6255 C 1072.1619,1194.3869 1069.9233,1196.6255 1067.1619,1196.6255 1064.4004,1196.6255 1062.1619,1194.3869 1062.1619,1191.6255 1062.1619,1188.8641 1064.4004,1186.6255 1067.1619,1186.6255 1069.9233,1186.6255 1072.1619,1188.8641 1072.1619,1191.6255 z" />
      <text style="font-size:30; vertical-align:top; fill-opacity:1.0; fill:darkblue; text-anchor:right; stroke:none; font-weight:normal; font-style:italic; text-align:right; " transform="" id="A.FWS.text" y="1184.62550743" x="1074.16189061">
FWS</text>
      <circle style="stroke:red; stroke-width:1; fill:red; " transform="" cy="637.795275591" cx="443.747905788" r="5" id="A.FD2" d="M 448.74789,637.79529 C 448.74789,640.55671 446.50932,642.79529 443.74789,642.79529 440.98647,642.79529 438.74789,640.55671 438.74789,637.79529 438.74789,635.03386 440.98647,632.79529 443.74789,632.79529 446.50932,632.79529 448.74789,635.03386 448.74789,637.79529 z" />
      <text style="font-size:30; vertical-align:top; fill-opacity:1.0; fill:darkblue; text-anchor:right; stroke:none; font-weight:normal; font-style:italic; text-align:right; " transform="" id="A.FD2.text" y="630.795275591" x="450.747905788">
FD2</text>
      <circle style="stroke:red; stroke-width:1; fill:red; " transform="" cy="637.795275591" cx="1102.57680674" r="5" id="A.FD2.i" d="M 1107.5768,637.79529 C 1107.5768,640.55671 1105.3382,642.79529 1102.5768,642.79529 1099.8154,642.79529 1097.5768,640.55671 1097.5768,637.79529 1097.5768,635.03386 1099.8154,632.79529 1102.5768,632.79529 1105.3382,632.79529 1107.5768,635.03386 1107.5768,637.79529 z" />
      <text style="font-size:30; vertical-align:top; fill-opacity:1.0; fill:darkblue; text-anchor:right; stroke:none; font-weight:normal; font-style:italic; text-align:right; " transform="" id="A.FD2.i.text" y="630.795275591" x="1109.57680674">
FD2.i</text>
      <circle style="stroke:red; stroke-width:1; fill:red; " transform="" cy="840.718337959" cx="1070.5475161" r="5" id="A.FD2.o" d="M 1075.5475,840.71832 C 1075.5475,843.47975 1073.3089,845.71832 1070.5475,845.71832 1067.7861,845.71832 1065.5475,843.47975 1065.5475,840.71832 1065.5475,837.9569 1067.7861,835.71832 1070.5475,835.71832 1073.3089,835.71832 1075.5475,837.9569 1075.5475,840.71832 z" />
      <text style="font-size:30; vertical-align:top; fill-opacity:1.0; fill:darkblue; text-anchor:right; stroke:none; font-weight:normal; font-style:italic; text-align:right; " transform="" id="A.FD2.o.text" y="833.718337959" x="1077.5475161">
FD2.o</text>
      <circle style="stroke:red; stroke-width:1; fill:red; " transform="" cy="1240.15748031" cx="270.633997225" r="5" id="A.f8" d="M 275.634,1240.1575 C 275.634,1242.9189 273.39543,1245.1575 270.634,1245.1575 267.87258,1245.1575 265.634,1242.9189 265.634,1240.1575 265.634,1237.396 267.87258,1235.1575 270.634,1235.1575 273.39543,1235.1575 275.634,1237.396 275.634,1240.1575 z" />
      <text style="font-size:30; vertical-align:top; fill-opacity:1.0; fill:darkblue; text-anchor:right; stroke:none; font-weight:normal; font-style:italic; text-align:right; " transform="" id="A.f8.text" y="1233.15748031" x="277.633997225">
f8</text>
      <circle style="stroke:red; stroke-width:1; fill:red; " transform="" cy="1240.15748031" cx="438.027420098" r="5" id="A.f9" d="M 443.02744,1240.1575 C 443.02744,1242.9189 440.78886,1245.1575 438.02744,1245.1575 435.26601,1245.1575 433.02744,1242.9189 433.02744,1240.1575 433.02744,1237.396 435.26601,1235.1575 438.02744,1235.1575 440.78886,1235.1575 443.02744,1237.396 443.02744,1240.1575 z" />
      <text style="font-size:30; vertical-align:top; fill-opacity:1.0; fill:darkblue; text-anchor:right; stroke:none; font-weight:normal; font-style:italic; text-align:right; " transform="" id="A.f9.text" y="1233.15748031" x="445.027420098">
f9</text>
      <circle style="stroke:red; stroke-width:1; fill:red; " transform="" cy="710.078740157" cx="354.330708661" r="5" id="A.FD1" d="M 359.33072,710.07874 C 359.33072,712.84016 357.09214,715.07874 354.33072,715.07874 351.5693,715.07874 349.33072,712.84016 349.33072,710.07874 349.33072,707.31731 351.5693,705.07874 354.33072,705.07874 357.09214,705.07874 359.33072,707.31731 359.33072,710.07874 z" />
      <text style="font-size:30; vertical-align:top; fill-opacity:1.0; fill:darkblue; text-anchor:right; stroke:none; font-weight:normal; font-style:italic; text-align:right; " transform="" id="A.FD1.text" y="703.078740157" x="361.330708661">
FD1</text>
      <circle style="stroke:gray; stroke-width:1; fill:none; " transform="" cy="1240.15748031" cx="169.270393162" r="5" id="A.FD1.i.inpoint" d="M 174.27039,1240.1575 C 174.27039,1242.9189 172.03181,1245.1575 169.27039,1245.1575 166.50896,1245.1575 164.27039,1242.9189 164.27039,1240.1575 164.27039,1237.396 166.50896,1235.1575 169.27039,1235.1575 172.03181,1235.1575 174.27039,1237.396 174.27039,1240.1575 z" />
      <text style="font-size:25; vertical-align:top; fill-opacity:1.0; fill:gray; text-anchor:right; stroke:none; font-weight:normal; font-style:italic; text-align:right; " transform="" id="A.FD1.i.inpoint.text" y="1233.15748031" x="176.270393162">
FD1.i.in</text>
      <circle style="stroke:red; stroke-width:1; fill:red; " transform="" cy="1255.77296657" cx="268.168392122" r="5" id="A.FD1.i" d="M 273.1684,1255.7729 C 273.1684,1258.5344 270.92982,1260.7729 268.1684,1260.7729 265.40697,1260.7729 263.1684,1258.5344 263.1684,1255.7729 263.1684,1253.0115 265.40697,1250.7729 268.1684,1250.7729 270.92982,1250.7729 273.1684,1253.0115 273.1684,1255.7729 z" />
      <text style="font-size:30; vertical-align:top; fill-opacity:1.0; fill:darkblue; text-anchor:right; stroke:none; font-weight:normal; font-style:italic; text-align:right; " transform="" id="A.FD1.i.text" y="1248.77296657" x="275.168392122">
FD1.i</text>
      <circle style="stroke:gray; stroke-width:1; fill:none; " transform="" cy="1224.86878475" cx="636.21935046" r="5" id="A.FD1.o.outpoint" d="M 641.21936,1224.8688 C 641.21936,1227.6302 638.98078,1229.8688 636.21936,1229.8688 633.45794,1229.8688 631.21936,1227.6302 631.21936,1224.8688 631.21936,1222.1074 633.45794,1219.8688 636.21936,1219.8688 638.98078,1219.8688 641.21936,1222.1074 641.21936,1224.8688 z" />
      <text style="font-size:25; vertical-align:top; fill-opacity:1.0; fill:gray; text-anchor:right; stroke:none; font-weight:normal; font-style:italic; text-align:right; " transform="" id="A.FD1.o.outpoint.text" y="1217.86878475" x="643.21935046">
FD1.o.out</text>
      <circle style="stroke:red; stroke-width:1; fill:red; " transform="" cy="1255.77296657" cx="440.493025201" r="5" id="A.FD1.o" d="M 445.49301,1255.7729 C 445.49301,1258.5344 443.25444,1260.7729 440.49301,1260.7729 437.73159,1260.7729 435.49301,1258.5344 435.49301,1255.7729 435.49301,1253.0115 437.73159,1250.7729 440.49301,1250.7729 443.25444,1250.7729 445.49301,1253.0115 445.49301,1255.7729 z" />
      <text style="font-size:30; vertical-align:top; fill-opacity:1.0; fill:darkblue; text-anchor:right; stroke:none; font-weight:normal; font-style:italic; text-align:right; " transform="" id="A.FD1.o.text" y="1248.77296657" x="447.493025201">
FD1.o</text>
      <path style="stroke-linejoin:miter; stroke-dashoffset:0; stroke:gray; stroke-miterlimit:4; stroke-dasharray:6,6; stroke-width:2; fill:none; " transform="" d="M 0.0  1240.15748031 L 717.519685039  -223.334513127 L 717.519685039  -318.897637795 L 0.0  -318.897637795 L 0.0  0.0 M 0.0  637.795275591 L 354.330708661  637.795275591 L 1039.10634774  414.890724943 M 0.0  318.897637795 L 921.25984252  318.897637795 L 1005.90188889  292.284950312 L 1191.15034004  976.305429353 L 1140.61090594  992.756759109 L 921.25984252  318.897637795 " id="A.gridline" />
    </g>
    <g id="document.bodice.Bodice Back.reference" transform=" translate(2377.559789, 580.552283)">
      <circle style="stroke:gray; stroke-width:1; fill:none; " transform="" cy="0.0" cx="-213.353231784" r="5" id="B.BNC.inpoint" d="M -208.35323,0 C -208.35323,2.7614237 -210.5918,5 -213.35323,5 -216.11465,5 -218.35323,2.7614237 -218.35323,0 -218.35323,-2.7614237 -216.11465,-5 -213.35323,-5 -210.5918,-5 -208.35323,-2.7614237 -208.35323,0 z" />
      <text style="font-size:25; vertical-align:top; fill-opacity:1.0; fill:gray; text-anchor:right; stroke:none; font-weight:normal; font-style:italic; text-align:right; " transform="" id="B.BNC.inpoint.text" y="-7.0" x="-206.353231784">
BNC.in</text>
      <circle style="stroke:red; stroke-width:1; fill:red; " transform="" cy="0.0" cx="0.0" r="5" id="B.BNC" d="M 5,0 C 5,2.7614237 2.7614237,5 0,5 -2.7614237,5 -5,2.7614237 -5,0 -5,-2.7614237 -2.7614237,-5 0,-5 2.7614237,-5 5,-2.7614237 5,0 z" />
      <text style="font-size:30; vertical-align:top; fill-opacity:1.0; fill:darkblue; text-anchor:right; stroke:none; font-weight:normal; font-style:italic; text-align:right; " transform="" id="B.BNC.text" y="-7.0" x="7.0">
BNC</text>
      <circle style="stroke:gray; stroke-width:1; fill:none; " transform="" cy="1346.45669291" cx="-101.066356698" r="5" id="B.BWC.outpoint" d="M -96.06636,1346.4567 C -96.06636,1349.2181 -98.304937,1351.4567 -101.06636,1351.4567 -103.82778,1351.4567 -106.06636,1349.2181 -106.06636,1346.4567 -106.06636,1343.6952 -103.82778,1341.4567 -101.06636,1341.4567 -98.304937,1341.4567 -96.06636,1343.6952 -96.06636,1346.4567 z" />
      <text style="font-size:25; vertical-align:top; fill-opacity:1.0; fill:gray; text-anchor:right; stroke:none; font-weight:normal; font-style:italic; text-align:right; " transform="" id="B.BWC.outpoint.text" y="1339.45669291" x="-94.0663566984">
BWC.out</text>
      <circle style="stroke:red; stroke-width:1; fill:red; " transform="" cy="1346.45669291" cx="0.0" r="5" id="B.BWC" d="M 5,1346.4567 C 5,1349.2181 2.7614237,1351.4567 0,1351.4567 -2.7614237,1351.4567 -5,1349.2181 -5,1346.4567 -5,1343.6952 -2.7614237,1341.4567 0,1341.4567 2.7614237,1341.4567 5,1343.6952 5,1346.4567 z" />
      <text style="font-size:30; vertical-align:top; fill-opacity:1.0; fill:darkblue; text-anchor:right; stroke:none; font-weight:normal; font-style:italic; text-align:right; " transform="" id="B.BWC.text" y="1339.45669291" x="7.0">
BWC</text>
      <circle style="stroke:red; stroke-width:1; fill:red; " transform="" cy="-141.732283465" cx="0.0" r="5" id="B.BSH" d="M 5,-141.73228 C 5,-138.97086 2.7614237,-136.73228 0,-136.73228 -2.7614237,-136.73228 -5,-138.97086 -5,-141.73228 -5,-144.49371 -2.7614237,-146.73228 0,-146.73228 2.7614237,-146.73228 5,-144.49371 5,-141.73228 z" />
      <text style="font-size:30; vertical-align:top; fill-opacity:1.0; fill:darkblue; text-anchor:right; stroke:none; font-weight:normal; font-style:italic; text-align:right; " transform="" id="B.BSH.text" y="-148.732283465" x="7.0">
BSH</text>
      <circle style="stroke:red; stroke-width:1; fill:red; " transform="" cy="-141.732283465" cx="-708.661417323" r="5" id="B.BSW" d="M -703.66144,-141.73228 C -703.66144,-138.97086 -705.90001,-136.73228 -708.66144,-136.73228 -711.42286,-136.73228 -713.66144,-138.97086 -713.66144,-141.73228 -713.66144,-144.49371 -711.42286,-146.73228 -708.66144,-146.73228 -705.90001,-146.73228 -703.66144,-144.49371 -703.66144,-141.73228 z" />
      <text style="font-size:30; vertical-align:top; fill-opacity:1.0; fill:darkblue; text-anchor:right; stroke:none; font-weight:normal; font-style:italic; text-align:right; " transform="" id="B.BSW.text" y="-148.732283465" x="-701.661417323">
BSW</text>
      <circle style="stroke:gray; stroke-width:1; fill:none; " transform="" cy="121.790863154" cx="-673.120157064" r="5" id="B.BSP.inpoint" d="M -668.12018,121.79086 C -668.12018,124.55229 -670.35875,126.79086 -673.12018,126.79086 -675.8816,126.79086 -678.12018,124.55229 -678.12018,121.79086 -678.12018,119.02944 -675.8816,116.79086 -673.12018,116.79086 -670.35875,116.79086 -668.12018,119.02944 -668.12018,121.79086 z" />
      <text style="font-size:25; vertical-align:top; fill-opacity:1.0; fill:gray; text-anchor:right; stroke:none; font-weight:normal; font-style:italic; text-align:right; " transform="" id="B.BSP.inpoint.text" y="114.790863154" x="-666.120157064">
BSP.in</text>
      <circle style="stroke:red; stroke-width:1; fill:red; " transform="" cy="37.8293872947" cx="-708.661417323" r="5" id="B.BSP" d="M -703.66144,37.829388 C -703.66144,40.590811 -705.90001,42.829388 -708.66144,42.829388 -711.42286,42.829388 -713.66144,40.590811 -713.66144,37.829388 -713.66144,35.067964 -711.42286,32.829388 -708.66144,32.829388 -705.90001,32.829388 -703.66144,35.067964 -703.66144,37.829388 z" />
      <text style="font-size:30; vertical-align:top; fill-opacity:1.0; fill:darkblue; text-anchor:right; stroke:none; font-weight:normal; font-style:italic; text-align:right; " transform="" id="B.BSP.text" y="30.8293872947" x="-701.661417323">
BSP</text>
      <circle style="stroke:gray; stroke-width:1; fill:none; " transform="" cy="-78.3927191927" cx="-252.688753608" r="5" id="B.BNS.outpoint" d="M -247.68875,-78.392715 C -247.68875,-75.631292 -249.92733,-73.392715 -252.68875,-73.392715 -255.45017,-73.392715 -257.68875,-75.631292 -257.68875,-78.392715 -257.68875,-81.154139 -255.45017,-83.392715 -252.68875,-83.392715 -249.92733,-83.392715 -247.68875,-81.154139 -247.68875,-78.392715 z" />
      <text style="font-size:25; vertical-align:top; fill-opacity:1.0; fill:gray; text-anchor:right; stroke:none; font-weight:normal; font-style:italic; text-align:right; " transform="" id="B.BNS.outpoint.text" y="-85.3927191927" x="-245.688753608">
BNS.out</text>
      <circle style="stroke:red; stroke-width:1; fill:red; " transform="" cy="-141.732283465" cx="-284.470975712" r="5" id="B.BNS" d="M -279.47098,-141.73228 C -279.47098,-138.97086 -281.70955,-136.73228 -284.47098,-136.73228 -287.2324,-136.73228 -289.47098,-138.97086 -289.47098,-141.73228 -289.47098,-144.49371 -287.2324,-146.73228 -284.47098,-146.73228 -281.70955,-146.73228 -279.47098,-144.49371 -279.47098,-141.73228 z" />
      <text style="font-size:30; vertical-align:top; fill-opacity:1.0; fill:darkblue; text-anchor:right; stroke:none; font-weight:normal; font-style:italic; text-align:right; " transform="" id="B.BNS.text" y="-148.732283465" x="-277.470975712">
BNS</text>
      <circle style="stroke:red; stroke-width:1; fill:red; " transform="" cy="637.795275591" cx="0.0" r="5" id="B.BUC" d="M 5,637.79529 C 5,640.55671 2.7614237,642.79529 0,642.79529 -2.7614237,642.79529 -5,640.55671 -5,637.79529 -5,635.03386 -2.7614237,632.79529 0,632.79529 2.7614237,632.79529 5,635.03386 5,637.79529 z" />
      <text style="font-size:30; vertical-align:top; fill-opacity:1.0; fill:darkblue; text-anchor:right; stroke:none; font-weight:normal; font-style:italic; text-align:right; " transform="" id="B.BUC.text" y="630.795275591" x="7.0">
BUC</text>
      <circle style="stroke:gray; stroke-width:1; fill:none; " transform="" cy="738.522902265" cx="-653.441816562" r="5" id="B.BAP.inpoint" d="M -648.44183,738.52289 C -648.44183,741.28431 -650.68041,743.52289 -653.44183,743.52289 -656.20326,743.52289 -658.44183,741.28431 -658.44183,738.52289 -658.44183,735.76146 -656.20326,733.52289 -653.44183,733.52289 -650.68041,733.52289 -648.44183,735.76146 -648.44183,738.52289 z" />
      <text style="font-size:25; vertical-align:top; fill-opacity:1.0; fill:gray; text-anchor:right; stroke:none; font-weight:normal; font-style:italic; text-align:right; " transform="" id="B.BAP.inpoint.text" y="731.522902265" x="-646.441816562">
BAP.in</text>
      <circle style="stroke:gray; stroke-width:1; fill:none; " transform="" cy="452.806185913" cx="-533.679798926" r="5" id="B.BAP.outpoint" d="M -528.67981,452.80618 C -528.67981,455.56761 -530.91839,457.80618 -533.67981,457.80618 -536.44123,457.80618 -538.67981,455.56761 -538.67981,452.80618 -538.67981,450.04476 -536.44123,447.80618 -533.67981,447.80618 -530.91839,447.80618 -528.67981,450.04476 -528.67981,452.80618 z" />
      <text style="font-size:25; vertical-align:top; fill-opacity:1.0; fill:gray; text-anchor:right; stroke:none; font-weight:normal; font-style:italic; text-align:right; " transform="" id="B.BAP.outpoint.text" y="445.806185913" x="-526.679798926">
BAP.out</text>
      <circle style="stroke:red; stroke-width:1; fill:red; " transform="" cy="637.795275591" cx="-611.220472441" r="5" id="B.BAP" d="M -606.22046,637.79529 C -606.22046,640.55671 -608.45904,642.79529 -611.22046,642.79529 -613.98188,642.79529 -616.22046,640.55671 -616.22046,637.79529 -616.22046,635.03386 -613.98188,632.79529 -611.22046,632.79529 -608.45904,632.79529 -606.22046,635.03386 -606.22046,637.79529 z" />
      <text style="font-size:30; vertical-align:top; fill-opacity:1.0; fill:darkblue; text-anchor:right; stroke:none; font-weight:normal; font-style:italic; text-align:right; " transform="" id="B.BAP.text" y="630.795275591" x="-604.220472441">
BAP</text>
      <circle style="stroke:red; stroke-width:1; fill:red; " transform="" cy="637.795275591" cx="-885.826771654" r="5" id="B.b1" d="M -880.82678,637.79529 C -880.82678,640.55671 -883.06536,642.79529 -885.82678,642.79529 -888.58821,642.79529 -890.82678,640.55671 -890.82678,637.79529 -890.82678,635.03386 -888.58821,632.79529 -885.82678,632.79529 -883.06536,632.79529 -880.82678,635.03386 -880.82678,637.79529 z" />
      <text style="font-size:30; vertical-align:top; fill-opacity:1.0; fill:darkblue; text-anchor:right; stroke:none; font-weight:normal; font-style:italic; text-align:right; " transform="" id="B.b1.text" y="630.795275591" x="-878.826771654">
b1</text>
      <circle style="stroke:red; stroke-width:1; fill:red; " transform="" cy="637.795275591" cx="-383.761673202" r="5" id="B.BD1" d="M -378.76169,637.79529 C -378.76169,640.55671 -381.00026,642.79529 -383.76169,642.79529 -386.52311,642.79529 -388.76169,640.55671 -388.76169,637.79529 -388.76169,635.03386 -386.52311,632.79529 -383.76169,632.79529 -381.00026,632.79529 -378.76169,635.03386 -378.76169,637.79529 z" />
      <text style="font-size:30; vertical-align:top; fill-opacity:1.0; fill:darkblue; text-anchor:right; stroke:none; font-weight:normal; font-style:italic; text-align:right; " transform="" id="B.BD1.text" y="630.795275591" x="-376.761673202">
BD1</text>
      <circle style="stroke:red; stroke-width:1; fill:red; " transform="" cy="1346.45669291" cx="-383.761673202" r="5" id="B.b2" d="M -378.76169,1346.4567 C -378.76169,1349.2181 -381.00026,1351.4567 -383.76169,1351.4567 -386.52311,1351.4567 -388.76169,1349.2181 -388.76169,1346.4567 -388.76169,1343.6952 -386.52311,1341.4567 -383.76169,1341.4567 -381.00026,1341.4567 -378.76169,1343.6952 -378.76169,1346.4567 z" />
      <text style="font-size:30; vertical-align:top; fill-opacity:1.0; fill:darkblue; text-anchor:right; stroke:none; font-weight:normal; font-style:italic; text-align:right; " transform="" id="B.b2.text" y="1339.45669291" x="-376.761673202">
b2</text>
      <circle style="stroke:red; stroke-width:1; fill:red; " transform="" cy="1346.45669291" cx="-307.009338562" r="5" id="B.b3" d="M -302.00934,1346.4567 C -302.00934,1349.2181 -304.24791,1351.4567 -307.00934,1351.4567 -309.77076,1351.4567 -312.00934,1349.2181 -312.00934,1346.4567 -312.00934,1343.6952 -309.77076,1341.4567 -307.00934,1341.4567 -304.24791,1341.4567 -302.00934,1343.6952 -302.00934,1346.4567 z" />
      <text style="font-size:30; vertical-align:top; fill-opacity:1.0; fill:darkblue; text-anchor:right; stroke:none; font-weight:normal; font-style:italic; text-align:right; " transform="" id="B.b3.text" y="1339.45669291" x="-300.009338562">
b3</text>
      <circle style="stroke:red; stroke-width:1; fill:red; " transform="" cy="1346.45669291" cx="-460.514007842" r="5" id="B.b4" d="M -455.51401,1346.4567 C -455.51401,1349.2181 -457.75258,1351.4567 -460.51401,1351.4567 -463.27543,1351.4567 -465.51401,1349.2181 -465.51401,1346.4567 -465.51401,1343.6952 -463.27543,1341.4567 -460.51401,1341.4567 -457.75258,1341.4567 -455.51401,1343.6952 -455.51401,1346.4567 z" />
      <text style="font-size:30; vertical-align:top; fill-opacity:1.0; fill:darkblue; text-anchor:right; stroke:none; font-weight:normal; font-style:italic; text-align:right; " transform="" id="B.b4.text" y="1339.45669291" x="-453.514007842">
b4</text>
      <circle style="stroke:gray; stroke-width:1; fill:none; " transform="" cy="1346.45669291" cx="-233.897375817" r="5" id="B.BD1.i.inpoint" d="M -228.89737,1346.4567 C -228.89737,1349.2181 -231.13595,1351.4567 -233.89737,1351.4567 -236.65879,1351.4567 -238.89737,1349.2181 -238.89737,1346.4567 -238.89737,1343.6952 -236.65879,1341.4567 -233.89737,1341.4567 -231.13595,1341.4567 -228.89737,1343.6952 -228.89737,1346.4567 z" />
      <text style="font-size:25; vertical-align:top; fill-opacity:1.0; fill:gray; text-anchor:right; stroke:none; font-weight:normal; font-style:italic; text-align:right; " transform="" id="B.BD1.i.inpoint.text" y="1339.45669291" x="-226.897375817">
BD1.i.in</text>
      <circle style="stroke:red; stroke-width:1; fill:red; " transform="" cy="1354.28335409" cx="-306.161663631" r="5" id="B.BD1.i" d="M -301.16165,1354.2833 C -301.16165,1357.0447 -303.40023,1359.2833 -306.16165,1359.2833 -308.92308,1359.2833 -311.16165,1357.0447 -311.16165,1354.2833 -311.16165,1351.5219 -308.92308,1349.2833 -306.16165,1349.2833 -303.40023,1349.2833 -301.16165,1351.5219 -301.16165,1354.2833 z" />
      <text style="font-size:30; vertical-align:top; fill-opacity:1.0; fill:darkblue; text-anchor:right; stroke:none; font-weight:normal; font-style:italic; text-align:right; " transform="" id="B.BD1.i.text" y="1347.28335409" x="-299.161663631">
BD1.i</text>
      <circle style="stroke:gray; stroke-width:1; fill:none; " transform="" cy="1345.98845506" cx="-537.949254067" r="5" id="B.BD1.o.outpoint" d="M -532.94928,1345.9884 C -532.94928,1348.7498 -535.18786,1350.9884 -537.94928,1350.9884 -540.7107,1350.9884 -542.94928,1348.7498 -542.94928,1345.9884 -542.94928,1343.227 -540.7107,1340.9884 -537.94928,1340.9884 -535.18786,1340.9884 -532.94928,1343.227 -532.94928,1345.9884 z" />
      <text style="font-size:25; vertical-align:top; fill-opacity:1.0; fill:gray; text-anchor:right; stroke:none; font-weight:normal; font-style:italic; text-align:right; " transform="" id="B.BD1.o.outpoint.text" y="1338.98845506" x="-530.949254067">
BD1.o.out</text>
      <circle style="stroke:red; stroke-width:1; fill:red; " transform="" cy="1354.28335409" cx="-461.361682773" r="5" id="B.BD1.o" d="M -456.36169,1354.2833 C -456.36169,1357.0447 -458.60027,1359.2833 -461.36169,1359.2833 -464.12312,1359.2833 -466.36169,1357.0447 -466.36169,1354.2833 -466.36169,1351.5219 -464.12312,1349.2833 -461.36169,1349.2833 -458.60027,1349.2833 -456.36169,1351.5219 -456.36169,1354.2833 z" />
      <text style="font-size:30; vertical-align:top; fill-opacity:1.0; fill:darkblue; text-anchor:right; stroke:none; font-weight:normal; font-style:italic; text-align:right; " transform="" id="B.BD1.o.text" y="1347.28335409" x="-454.361682773">
BD1.o</text>
      <circle style="stroke:red; stroke-width:1; fill:red; " transform="" cy="1343.98784763" cx="-826.724693851" r="5" id="B.b5" d="M -821.72467,1343.9878 C -821.72467,1346.7492 -823.96325,1348.9878 -826.72467,1348.9878 -829.48609,1348.9878 -831.72467,1346.7492 -831.72467,1343.9878 -831.72467,1341.2264 -829.48609,1338.9878 -826.72467,1338.9878 -823.96325,1338.9878 -821.72467,1341.2264 -821.72467,1343.9878 z" />
      <text style="font-size:30; vertical-align:top; fill-opacity:1.0; fill:darkblue; text-anchor:right; stroke:none; font-weight:normal; font-style:italic; text-align:right; " transform="" id="B.b5.text" y="1336.98784763" x="-819.724693851">
b5</text>
      <circle style="stroke:red; stroke-width:1; fill:red; " transform="" cy="637.795275591" cx="-956.409448819" r="5" id="B.b6" d="M -951.40942,637.79529 C -951.40942,640.55671 -953.648,642.79529 -956.40942,642.79529 -959.17085,642.79529 -961.40942,640.55671 -961.40942,637.79529 -961.40942,635.03386 -959.17085,632.79529 -956.40942,632.79529 -953.648,632.79529 -951.40942,635.03386 -951.40942,637.79529 z" />
      <text style="font-size:30; vertical-align:top; fill-opacity:1.0; fill:darkblue; text-anchor:right; stroke:none; font-weight:normal; font-style:italic; text-align:right; " transform="" id="B.b6.text" y="630.795275591" x="-949.409448819">
b6</text>
      <circle style="stroke:gray; stroke-width:1; fill:none; " transform="" cy="1344.80111973" cx="-734.305877332" r="5" id="B.b7.inpoint" d="M -729.30585,1344.8011 C -729.30585,1347.5626 -731.54442,1349.8011 -734.30585,1349.8011 -737.06727,1349.8011 -739.30585,1347.5626 -739.30585,1344.8011 -739.30585,1342.0397 -737.06727,1339.8011 -734.30585,1339.8011 -731.54442,1339.8011 -729.30585,1342.0397 -729.30585,1344.8011 z" />
      <text style="font-size:25; vertical-align:top; fill-opacity:1.0; fill:gray; text-anchor:right; stroke:none; font-weight:normal; font-style:italic; text-align:right; " transform="" id="B.b7.inpoint.text" y="1337.80111973" x="-727.305877332">
b7.in</text>
      <circle style="stroke:red; stroke-width:1; fill:red; " transform="" cy="1343.98784763" cx="-868.801465504" r="5" id="B.b7" d="M -863.80145,1343.9878 C -863.80145,1346.7492 -866.04003,1348.9878 -868.80145,1348.9878 -871.56288,1348.9878 -873.80145,1346.7492 -873.80145,1343.9878 -873.80145,1341.2264 -871.56288,1338.9878 -868.80145,1338.9878 -866.04003,1338.9878 -863.80145,1341.2264 -863.80145,1343.9878 z" />
      <text style="font-size:30; vertical-align:top; fill-opacity:1.0; fill:darkblue; text-anchor:right; stroke:none; font-weight:normal; font-style:italic; text-align:right; " transform="" id="B.b7.text" y="1336.98784763" x="-861.801465504">
b7</text>
      <circle style="stroke:gray; stroke-width:1; fill:none; " transform="" cy="741.899899022" cx="-793.516244836" r="5" id="B.BUS.outpoint" d="M -788.51624,741.8999 C -788.51624,744.66133 -790.75481,746.8999 -793.51624,746.8999 -796.27766,746.8999 -798.51624,744.66133 -798.51624,741.8999 -798.51624,739.13848 -796.27766,736.8999 -793.51624,736.8999 -790.75481,736.8999 -788.51624,739.13848 -788.51624,741.8999 z" />
      <text style="font-size:25; vertical-align:top; fill-opacity:1.0; fill:gray; text-anchor:right; stroke:none; font-weight:normal; font-style:italic; text-align:right; " transform="" id="B.BUS.outpoint.text" y="734.899899022" x="-786.516244836">
BUS.out</text>
      <circle style="stroke:red; stroke-width:1; fill:red; " transform="" cy="744.06360982" cx="-883.264792109" r="5" id="B.BUS" d="M -878.26477,744.0636 C -878.26477,746.82502 -880.50335,749.0636 -883.26477,749.0636 -886.02619,749.0636 -888.26477,746.82502 -888.26477,744.0636 -888.26477,741.30217 -886.02619,739.0636 -883.26477,739.0636 -880.50335,739.0636 -878.26477,741.30217 -878.26477,744.0636 z" />
      <text style="font-size:30; vertical-align:top; fill-opacity:1.0; fill:darkblue; text-anchor:right; stroke:none; font-weight:normal; font-style:italic; text-align:right; " transform="" id="B.BUS.text" y="737.06360982" x="-876.264792109">
BUS</text>
      <circle style="stroke:red; stroke-width:1; fill:red; " transform="" cy="155.133448032" cx="-408.90625351" r="5" id="B.BD2" d="M -403.90625,155.13345 C -403.90625,157.89488 -406.14483,160.13345 -408.90625,160.13345 -411.66767,160.13345 -413.90625,157.89488 -413.90625,155.13345 -413.90625,152.37203 -411.66767,150.13345 -408.90625,150.13345 -406.14483,150.13345 -403.90625,152.37203 -403.90625,155.13345 z" />
      <text style="font-size:30; vertical-align:top; fill-opacity:1.0; fill:darkblue; text-anchor:right; stroke:none; font-weight:normal; font-style:italic; text-align:right; " transform="" id="B.BD2.text" y="148.133448032" x="-401.90625351">
BD2</text>
      <circle style="stroke:red; stroke-width:1; fill:red; " transform="" cy="-66.7825907043" cx="-502.844284109" r="5" id="B.BD2.i" d="M -497.8443,-66.782593 C -497.8443,-64.021169 -500.08288,-61.782593 -502.8443,-61.782593 -505.60572,-61.782593 -507.8443,-64.021169 -507.8443,-66.782593 -507.8443,-69.544017 -505.60572,-71.782593 -502.8443,-71.782593 -500.08288,-71.782593 -497.8443,-69.544017 -497.8443,-66.782593 z" />
      <text style="font-size:30; vertical-align:top; fill-opacity:1.0; fill:darkblue; text-anchor:right; stroke:none; font-weight:normal; font-style:italic; text-align:right; " transform="" id="B.BD2.i.text" y="-73.7825907043" x="-495.844284109">
BD2.i</text>
      <circle style="stroke:red; stroke-width:1; fill:red; " transform="" cy="-51.5492720537" cx="-532.814828916" r="5" id="B.BD2.o" d="M -527.81482,-51.549271 C -527.81482,-48.787847 -530.0534,-46.549271 -532.81482,-46.549271 -535.57624,-46.549271 -537.81482,-48.787847 -537.81482,-51.549271 -537.81482,-54.310694 -535.57624,-56.549271 -532.81482,-56.549271 -530.0534,-56.549271 -527.81482,-54.310694 -527.81482,-51.549271 z" />
      <text style="font-size:30; vertical-align:top; fill-opacity:1.0; fill:darkblue; text-anchor:right; stroke:none; font-weight:normal; font-style:italic; text-align:right; " transform="" id="B.BD2.o.text" y="-58.5492720537" x="-525.814828916">
BD2.o</text>
      <path style="stroke-linejoin:miter; stroke-dashoffset:0; stroke:gray; stroke-miterlimit:4; stroke-dasharray:6,6; stroke-width:2; fill:none; " transform="" d="M 0.0  1346.45669291 L -708.661417323  37.8293872947 L -708.661417323  -141.732283465 L 0.0  -141.732283465 L 0.0  637.795275591 L -885.826771654  637.795275591 L -883.264792109  744.06360982 " id="B.gridline" />
    </g>
    <g id="document.bodice.Bodice Sleeve.reference" transform=" translate(926.619251, 2240.302270)">
      <circle style="stroke:gray; stroke-width:1; fill:none; " transform="" cy="0.0" cx="95.0933758346" r="5" id="C.SCM.inpoint" d="M 100.09338,0 C 100.09338,2.7614237 97.8548,5 95.093376,5 92.331952,5 90.093376,2.7614237 90.093376,0 90.093376,-2.7614237 92.331952,-5 95.093376,-5 97.8548,-5 100.09338,-2.7614237 100.09338,0 z" />
      <text style="font-size:25; vertical-align:top; fill-opacity:1.0; fill:gray; text-anchor:right; stroke:none; font-weight:normal; font-style:italic; text-align:right; " transform="" id="C.SCM.inpoint.text" y="-7.0" x="102.093375835">
SCM.in</text>
      <circle style="stroke:gray; stroke-width:1; fill:none; " transform="" cy="0.0" cx="-92.1729528323" r="5" id="C.SCM.outpoint" d="M -87.172951,0 C -87.172951,2.7614237 -89.411527,5 -92.172951,5 -94.934374,5 -97.172951,2.7614237 -97.172951,0 -97.172951,-2.7614237 -94.934374,-5 -92.172951,-5 -89.411527,-5 -87.172951,-2.7614237 -87.172951,0 z" />
      <text style="font-size:25; vertical-align:top; fill-opacity:1.0; fill:gray; text-anchor:right; stroke:none; font-weight:normal; font-style:italic; text-align:right; " transform="" id="C.SCM.outpoint.text" y="-7.0" x="-85.1729528323">
SCM.out</text>
      <circle style="stroke:red; stroke-width:1; fill:red; " transform="" cy="0.0" cx="0.0" r="5" id="C.SCM" d="M 5,0 C 5,2.7614237 2.7614237,5 0,5 -2.7614237,5 -5,2.7614237 -5,0 -5,-2.7614237 -2.7614237,-5 0,-5 2.7614237,-5 5,-2.7614237 5,0 z" />
      <text style="font-size:30; vertical-align:top; fill-opacity:1.0; fill:darkblue; text-anchor:right; stroke:none; font-weight:normal; font-style:italic; text-align:right; " transform="" id="C.SCM.text" y="-7.0" x="7.0">
SCM</text>
      <circle style="stroke:red; stroke-width:1; fill:red; " transform="" cy="627.890523993" cx="0.0" r="5" id="C.SUM" d="M 5,627.8905 C 5,630.65193 2.7614237,632.8905 0,632.8905 -2.7614237,632.8905 -5,630.65193 -5,627.8905 -5,625.12908 -2.7614237,622.8905 0,622.8905 2.7614237,622.8905 5,625.12908 5,627.8905 z" />
      <text style="font-size:30; vertical-align:top; fill-opacity:1.0; fill:darkblue; text-anchor:right; stroke:none; font-weight:normal; font-style:italic; text-align:right; " transform="" id="C.SUM.text" y="620.890523993" x="7.0">
SUM</text>
      <circle style="stroke:red; stroke-width:1; fill:red; " transform="" cy="2374.01574803" cx="0.0" r="5" id="C.SWM" d="M 5,2374.0159 C 5,2376.7773 2.7614237,2379.0159 0,2379.0159 -2.7614237,2379.0159 -5,2376.7773 -5,2374.0159 -5,2371.2544 -2.7614237,2369.0159 0,2369.0159 2.7614237,2369.0159 5,2371.2544 5,2374.0159 z" />
      <text style="font-size:30; vertical-align:top; fill-opacity:1.0; fill:darkblue; text-anchor:right; stroke:none; font-weight:normal; font-style:italic; text-align:right; " transform="" id="C.SWM.text" y="2367.01574803" x="7.0">
SWM</text>
      <circle style="stroke:red; stroke-width:1; fill:red; " transform="" cy="1500.95313601" cx="0.0" r="5" id="C.SEM" d="M 5,1500.9531 C 5,1503.7145 2.7614237,1505.9531 0,1505.9531 -2.7614237,1505.9531 -5,1503.7145 -5,1500.9531 -5,1498.1917 -2.7614237,1495.9531 0,1495.9531 2.7614237,1495.9531 5,1498.1917 5,1500.9531 z" />
      <text style="font-size:30; vertical-align:top; fill-opacity:1.0; fill:darkblue; text-anchor:right; stroke:none; font-weight:normal; font-style:italic; text-align:right; " transform="" id="C.SEM.text" y="1493.95313601" x="7.0">
SEM</text>
      <circle style="stroke:gray; stroke-width:1; fill:none; " transform="" cy="578.848782602" cx="844.978483128" r="5" id="C.SUB.outpoint" d="M 849.97845,578.84875 C 849.97845,581.61018 847.73988,583.84875 844.97845,583.84875 842.21703,583.84875 839.97845,581.61018 839.97845,578.84875 839.97845,576.08733 842.21703,573.84875 844.97845,573.84875 847.73988,573.84875 849.97845,576.08733 849.97845,578.84875 z" />
      <text style="font-size:25; vertical-align:top; fill-opacity:1.0; fill:gray; text-anchor:right; stroke:none; font-weight:normal; font-style:italic; text-align:right; " transform="" id="C.SUB.outpoint.text" y="571.848782602" x="851.978483128">
SUB.out</text>
      <circle style="stroke:red; stroke-width:1; fill:red; " transform="" cy="627.890523993" cx="924.119250557" r="5" id="C.SUB" d="M 929.11926,627.8905 C 929.11926,630.65193 926.88069,632.8905 924.11926,632.8905 921.35784,632.8905 919.11926,630.65193 919.11926,627.8905 919.11926,625.12908 921.35784,622.8905 924.11926,622.8905 926.88069,622.8905 929.11926,625.12908 929.11926,627.8905 z" />
      <text style="font-size:30; vertical-align:top; fill-opacity:1.0; fill:darkblue; text-anchor:right; stroke:none; font-weight:normal; font-style:italic; text-align:right; " transform="" id="C.SUB.text" y="620.890523993" x="931.119250557">
SUB</text>
      <circle style="stroke:gray; stroke-width:1; fill:none; " transform="" cy="592.42082289" cx="-837.229929864" r="5" id="C.SUF.inpoint" d="M -832.22992,592.42084 C -832.22992,595.18226 -834.4685,597.42084 -837.22992,597.42084 -839.99134,597.42084 -842.22992,595.18226 -842.22992,592.42084 -842.22992,589.65941 -839.99134,587.42084 -837.22992,587.42084 -834.4685,587.42084 -832.22992,589.65941 -832.22992,592.42084 z" />
      <text style="font-size:25; vertical-align:top; fill-opacity:1.0; fill:gray; text-anchor:right; stroke:none; font-weight:normal; font-style:italic; text-align:right; " transform="" id="C.SUF.inpoint.text" y="585.42082289" x="-830.229929864">
SUF.in</text>
      <circle style="stroke:gray; stroke-width:1; fill:none; " transform="" cy="897.074824632" cx="-758.786785567" r="5" id="C.SUF.outpoint" d="M -753.7868,897.07483 C -753.7868,899.83625 -756.02538,902.07483 -758.7868,902.07483 -761.54823,902.07483 -763.7868,899.83625 -763.7868,897.07483 -763.7868,894.31341 -761.54823,892.07483 -758.7868,892.07483 -756.02538,892.07483 -753.7868,894.31341 -753.7868,897.07483 z" />
      <text style="font-size:25; vertical-align:top; fill-opacity:1.0; fill:gray; text-anchor:right; stroke:none; font-weight:normal; font-style:italic; text-align:right; " transform="" id="C.SUF.outpoint.text" y="890.074824632" x="-751.786785567">
SUF.out</text>
      <circle style="stroke:red; stroke-width:1; fill:red; " transform="" cy="627.890523993" cx="-924.119250557" r="5" id="C.SUF" d="M -919.11926,627.8905 C -919.11926,630.65193 -921.35784,632.8905 -924.11926,632.8905 -926.88069,632.8905 -929.11926,630.65193 -929.11926,627.8905 -929.11926,625.12908 -926.88069,622.8905 -924.11926,622.8905 -921.35784,622.8905 -919.11926,625.12908 -919.11926,627.8905 z" />
      <text style="font-size:30; vertical-align:top; fill-opacity:1.0; fill:darkblue; text-anchor:right; stroke:none; font-weight:normal; font-style:italic; text-align:right; " transform="" id="C.SUF.text" y="620.890523993" x="-917.119250557">
SUF</text>
      <circle style="stroke:red; stroke-width:1; fill:red; " transform="" cy="1500.95313601" cx="690.94488189" r="5" id="C.SEB" d="M 695.94489,1500.9531 C 695.94489,1503.7145 693.70631,1505.9531 690.94489,1505.9531 688.18346,1505.9531 685.94489,1503.7145 685.94489,1500.9531 685.94489,1498.1917 688.18346,1495.9531 690.94489,1495.9531 693.70631,1495.9531 695.94489,1498.1917 695.94489,1500.9531 z" />
      <text style="font-size:30; vertical-align:top; fill-opacity:1.0; fill:darkblue; text-anchor:right; stroke:none; font-weight:normal; font-style:italic; text-align:right; " transform="" id="C.SEB.text" y="1493.95313601" x="697.94488189">
SEB</text>
      <circle style="stroke:gray; stroke-width:1; fill:none; " transform="" cy="1188.74074017" cx="-579.646157179" r="5" id="C.SEF.inpoint" d="M -574.64618,1188.7407 C -574.64618,1191.5021 -576.88476,1193.7407 -579.64618,1193.7407 -582.4076,1193.7407 -584.64618,1191.5021 -584.64618,1188.7407 -584.64618,1185.9793 -582.4076,1183.7407 -579.64618,1183.7407 -576.88476,1183.7407 -574.64618,1185.9793 -574.64618,1188.7407 z" />
      <text style="font-size:25; vertical-align:top; fill-opacity:1.0; fill:gray; text-anchor:right; stroke:none; font-weight:normal; font-style:italic; text-align:right; " transform="" id="C.SEF.inpoint.text" y="1181.74074017" x="-572.646157179">
SEF.in</text>
      <circle style="stroke:red; stroke-width:1; fill:red; " transform="" cy="1500.95313601" cx="-531.496062992" r="5" id="C.SEF" d="M -526.49603,1500.9531 C -526.49603,1503.7145 -528.73461,1505.9531 -531.49603,1505.9531 -534.25746,1505.9531 -536.49603,1503.7145 -536.49603,1500.9531 -536.49603,1498.1917 -534.25746,1495.9531 -531.49603,1495.9531 -528.73461,1495.9531 -526.49603,1498.1917 -526.49603,1500.9531 z" />
      <text style="font-size:30; vertical-align:top; fill-opacity:1.0; fill:darkblue; text-anchor:right; stroke:none; font-weight:normal; font-style:italic; text-align:right; " transform="" id="C.SEF.text" y="1493.95313601" x="-524.496062992">
SEF</text>
      <circle style="stroke:gray; stroke-width:1; fill:none; " transform="" cy="529.545715091" cx="765.416002498" r="5" id="C.s1.inpoint" d="M 770.41602,529.54572 C 770.41602,532.30714 768.17744,534.54572 765.41602,534.54572 762.65459,534.54572 760.41602,532.30714 760.41602,529.54572 760.41602,526.78429 762.65459,524.54572 765.41602,524.54572 768.17744,524.54572 770.41602,526.78429 770.41602,529.54572 z" />
      <text style="font-size:25; vertical-align:top; fill-opacity:1.0; fill:gray; text-anchor:right; stroke:none; font-weight:normal; font-style:italic; text-align:right; " transform="" id="C.s1.inpoint.text" y="522.545715091" x="772.416002498">
s1.in</text>
      <circle style="stroke:gray; stroke-width:1; fill:none; " transform="" cy="352.722513817" cx="547.276999051" r="5" id="C.s1.outpoint" d="M 552.27698,352.7225 C 552.27698,355.48393 550.0384,357.7225 547.27698,357.7225 544.51555,357.7225 542.27698,355.48393 542.27698,352.7225 542.27698,349.96108 544.51555,347.7225 547.27698,347.7225 550.0384,347.7225 552.27698,349.96108 552.27698,352.7225 z" />
      <text style="font-size:25; vertical-align:top; fill-opacity:1.0; fill:gray; text-anchor:right; stroke:none; font-weight:normal; font-style:italic; text-align:right; " transform="" id="C.s1.outpoint.text" y="345.722513817" x="554.276999051">
s1.out</text>
      <circle style="stroke:red; stroke-width:1; fill:red; " transform="" cy="470.917892995" cx="693.089437917" r="5" id="C.s1" d="M 698.08942,470.91791 C 698.08942,473.67933 695.85084,475.91791 693.08942,475.91791 690.32799,475.91791 688.08942,473.67933 688.08942,470.91791 688.08942,468.15648 690.32799,465.91791 693.08942,465.91791 695.85084,465.91791 698.08942,468.15648 698.08942,470.91791 z" />
      <text style="font-size:30; vertical-align:top; fill-opacity:1.0; fill:darkblue; text-anchor:right; stroke:none; font-weight:normal; font-style:italic; text-align:right; " transform="" id="C.s1.text" y="463.917892995" x="700.089437917">
s1</text>
      <circle style="stroke:red; stroke-width:1; fill:red; " transform="" cy="156.972630998" cx="231.029812639" r="5" id="C.s2" d="M 236.02982,156.97263 C 236.02982,159.73405 233.79124,161.97263 231.02982,161.97263 228.26839,161.97263 226.02982,159.73405 226.02982,156.97263 226.02982,154.2112 228.26839,151.97263 231.02982,151.97263 233.79124,151.97263 236.02982,154.2112 236.02982,156.97263 z" />
      <text style="font-size:30; vertical-align:top; fill-opacity:1.0; fill:darkblue; text-anchor:right; stroke:none; font-weight:normal; font-style:italic; text-align:right; " transform="" id="C.s2.text" y="149.972630998" x="238.029812639">
s2</text>
      <circle style="stroke:gray; stroke-width:1; fill:none; " transform="" cy="203.843602072" cx="426.110660243" r="5" id="C.s3.inpoint" d="M 431.11066,203.8436 C 431.11066,206.60502 428.87208,208.8436 426.11066,208.8436 423.34923,208.8436 421.11066,206.60502 421.11066,203.8436 421.11066,201.08217 423.34923,198.8436 426.11066,198.8436 428.87208,198.8436 431.11066,201.08217 431.11066,203.8436 z" />
      <text style="font-size:25; vertical-align:top; fill-opacity:1.0; fill:gray; text-anchor:right; stroke:none; font-weight:normal; font-style:italic; text-align:right; " transform="" id="C.s3.inpoint.text" y="196.843602072" x="433.110660243">
s3.in</text>
      <circle style="stroke:gray; stroke-width:1; fill:none; " transform="" cy="44.3744266772" cx="191.406473412" r="5" id="C.s3.outpoint" d="M 196.40648,44.374428 C 196.40648,47.135852 194.1679,49.374428 191.40648,49.374428 188.64506,49.374428 186.40648,47.135852 186.40648,44.374428 186.40648,41.613004 188.64506,39.374428 191.40648,39.374428 194.1679,39.374428 196.40648,41.613004 196.40648,44.374428 z" />
      <text style="font-size:25; vertical-align:top; fill-opacity:1.0; fill:gray; text-anchor:right; stroke:none; font-weight:normal; font-style:italic; text-align:right; " transform="" id="C.s3.outpoint.text" y="37.3744266772" x="198.406473412">
s3.out</text>
      <circle style="stroke:red; stroke-width:1; fill:red; " transform="" cy="98.3564858988" cx="270.856406489" r="5" id="C.s3" d="M 275.85641,98.356483 C 275.85641,101.11791 273.61784,103.35648 270.85641,103.35648 268.09499,103.35648 265.85641,101.11791 265.85641,98.356483 265.85641,95.59506 268.09499,93.356483 270.85641,93.356483 273.61784,93.356483 275.85641,95.59506 275.85641,98.356483 z" />
      <text style="font-size:30; vertical-align:top; fill-opacity:1.0; fill:darkblue; text-anchor:right; stroke:none; font-weight:normal; font-style:italic; text-align:right; " transform="" id="C.s3.text" y="91.3564858988" x="277.856406489">
s3</text>
      <circle style="stroke:red; stroke-width:1; fill:red; " transform="" cy="156.972630998" cx="-231.029812639" r="5" id="C.s4" d="M -226.02982,156.97263 C -226.02982,159.73405 -228.26839,161.97263 -231.02982,161.97263 -233.79124,161.97263 -236.02982,159.73405 -236.02982,156.97263 -236.02982,154.2112 -233.79124,151.97263 -231.02982,151.97263 -228.26839,151.97263 -226.02982,154.2112 -226.02982,156.97263 z" />
      <text style="font-size:30; vertical-align:top; fill-opacity:1.0; fill:darkblue; text-anchor:right; stroke:none; font-weight:normal; font-style:italic; text-align:right; " transform="" id="C.s4.text" y="149.972630998" x="-224.029812639">
s4</text>
      <circle style="stroke:gray; stroke-width:1; fill:none; " transform="" cy="85.5352541605" cx="-198.548957843" r="5" id="C.s5.inpoint" d="M -193.54897,85.535255 C -193.54897,88.296679 -195.78754,90.535255 -198.54897,90.535255 -201.31039,90.535255 -203.54897,88.296679 -203.54897,85.535255 -203.54897,82.773832 -201.31039,80.535255 -198.54897,80.535255 -195.78754,80.535255 -193.54897,82.773832 -193.54897,85.535255 z" />
      <text style="font-size:25; vertical-align:top; fill-opacity:1.0; fill:gray; text-anchor:right; stroke:none; font-weight:normal; font-style:italic; text-align:right; " transform="" id="C.s5.inpoint.text" y="78.5352541605" x="-191.548957843">
s5.in</text>
      <circle style="stroke:gray; stroke-width:1; fill:none; " transform="" cy="244.107746309" cx="-395.757797459" r="5" id="C.s5.outpoint" d="M -390.75781,244.10774 C -390.75781,246.86917 -392.99639,249.10774 -395.75781,249.10774 -398.51924,249.10774 -400.75781,246.86917 -400.75781,244.10774 -400.75781,241.34632 -398.51924,239.10774 -395.75781,239.10774 -392.99639,239.10774 -390.75781,241.34632 -390.75781,244.10774 z" />
      <text style="font-size:25; vertical-align:top; fill-opacity:1.0; fill:gray; text-anchor:right; stroke:none; font-weight:normal; font-style:italic; text-align:right; " transform="" id="C.s5.outpoint.text" y="237.107746309" x="-388.757797459">
s5.out</text>
      <circle style="stroke:red; stroke-width:1; fill:red; " transform="" cy="127.664558449" cx="-250.943109564" r="5" id="C.s5" d="M -245.94312,127.66456 C -245.94312,130.42598 -248.18169,132.66456 -250.94312,132.66456 -253.70454,132.66456 -255.94312,130.42598 -255.94312,127.66456 -255.94312,124.90313 -253.70454,122.66456 -250.94312,122.66456 -248.18169,122.66456 -245.94312,124.90313 -245.94312,127.66456 z" />
      <text style="font-size:30; vertical-align:top; fill-opacity:1.0; fill:darkblue; text-anchor:right; stroke:none; font-weight:normal; font-style:italic; text-align:right; " transform="" id="C.s5.text" y="120.664558449" x="-243.943109564">
s5</text>
      <circle style="stroke:red; stroke-width:1; fill:red; " transform="" cy="470.917892995" cx="-693.089437917" r="5" id="C.s6" d="M -688.08942,470.91791 C -688.08942,473.67933 -690.32799,475.91791 -693.08942,475.91791 -695.85084,475.91791 -698.08942,473.67933 -698.08942,470.91791 -698.08942,468.15648 -695.85084,465.91791 -693.08942,465.91791 -690.32799,465.91791 -688.08942,468.15648 -688.08942,470.91791 z" />
      <text style="font-size:30; vertical-align:top; fill-opacity:1.0; fill:darkblue; text-anchor:right; stroke:none; font-weight:normal; font-style:italic; text-align:right; " transform="" id="C.s6.text" y="463.917892995" x="-686.089437917">
s6</text>
      <circle style="stroke:gray; stroke-width:1; fill:none; " transform="" cy="388.27379435" cx="-522.517167306" r="5" id="C.s7.inpoint" d="M -517.51715,388.2738 C -517.51715,391.03523 -519.75573,393.2738 -522.51715,393.2738 -525.27857,393.2738 -527.51715,391.03523 -527.51715,388.2738 -527.51715,385.51238 -525.27857,383.2738 -522.51715,383.2738 -519.75573,383.2738 -517.51715,385.51238 -517.51715,388.2738 z" />
      <text style="font-size:25; vertical-align:top; fill-opacity:1.0; fill:gray; text-anchor:right; stroke:none; font-weight:normal; font-style:italic; text-align:right; " transform="" id="C.s7.inpoint.text" y="381.27379435" x="-515.517167306">
s7.in</text>
      <circle style="stroke:gray; stroke-width:1; fill:none; " transform="" cy="556.202051142" cx="-748.505627836" r="5" id="C.s7.outpoint" d="M -743.50562,556.20203 C -743.50562,558.96345 -745.74419,561.20203 -748.50562,561.20203 -751.26704,561.20203 -753.50562,558.96345 -753.50562,556.20203 -753.50562,553.4406 -751.26704,551.20203 -748.50562,551.20203 -745.74419,551.20203 -743.50562,553.4406 -743.50562,556.20203 z" />
      <text style="font-size:25; vertical-align:top; fill-opacity:1.0; fill:gray; text-anchor:right; stroke:none; font-weight:normal; font-style:italic; text-align:right; " transform="" id="C.s7.outpoint.text" y="549.202051142" x="-741.505627836">
s7.out</text>
      <circle style="stroke:red; stroke-width:1; fill:red; " transform="" cy="500.225965545" cx="-673.176140992" r="5" id="C.s7" d="M -668.17615,500.22595 C -668.17615,502.98738 -670.41472,505.22595 -673.17615,505.22595 -675.93757,505.22595 -678.17615,502.98738 -678.17615,500.22595 -678.17615,497.46453 -675.93757,495.22595 -673.17615,495.22595 -670.41472,495.22595 -668.17615,497.46453 -668.17615,500.22595 z" />
      <text style="font-size:30; vertical-align:top; fill-opacity:1.0; fill:darkblue; text-anchor:right; stroke:none; font-weight:normal; font-style:italic; text-align:right; " transform="" id="C.s7.text" y="493.225965545" x="-666.176140992">
s7</text>
      <circle style="stroke:red; stroke-width:1; fill:red; " transform="" cy="2374.01574803" cx="-924.119250557" r="5" id="C.s8" d="M -919.11926,2374.0159 C -919.11926,2376.7773 -921.35784,2379.0159 -924.11926,2379.0159 -926.88069,2379.0159 -929.11926,2376.7773 -929.11926,2374.0159 -929.11926,2371.2544 -926.88069,2369.0159 -924.11926,2369.0159 -921.35784,2369.0159 -919.11926,2371.2544 -919.11926,2374.0159 z" />
      <text style="font-size:30; vertical-align:top; fill-opacity:1.0; fill:darkblue; text-anchor:right; stroke:none; font-weight:normal; font-style:italic; text-align:right; " transform="" id="C.s8.text" y="2367.01574803" x="-917.119250557">
s8</text>
      <circle style="stroke:red; stroke-width:1; fill:red; " transform="" cy="2374.01574803" cx="-396.850393701" r="5" id="C.s9" d="M -391.8504,2374.0159 C -391.8504,2376.7773 -394.08898,2379.0159 -396.8504,2379.0159 -399.61183,2379.0159 -401.8504,2376.7773 -401.8504,2374.0159 -401.8504,2371.2544 -399.61183,2369.0159 -396.8504,2369.0159 -394.08898,2369.0159 -391.8504,2371.2544 -391.8504,2374.0159 z" />
      <text style="font-size:30; vertical-align:top; fill-opacity:1.0; fill:darkblue; text-anchor:right; stroke:none; font-weight:normal; font-style:italic; text-align:right; " transform="" id="C.s9.text" y="2367.01574803" x="-389.850393701">
s9</text>
      <circle style="stroke:red; stroke-width:1; fill:red; " transform="" cy="2374.01574803" cx="924.119250557" r="5" id="C.s10" d="M 929.11926,2374.0159 C 929.11926,2376.7773 926.88069,2379.0159 924.11926,2379.0159 921.35784,2379.0159 919.11926,2376.7773 919.11926,2374.0159 919.11926,2371.2544 921.35784,2369.0159 924.11926,2369.0159 926.88069,2369.0159 929.11926,2371.2544 929.11926,2374.0159 z" />
      <text style="font-size:30; vertical-align:top; fill-opacity:1.0; fill:darkblue; text-anchor:right; stroke:none; font-weight:normal; font-style:italic; text-align:right; " transform="" id="C.s10.text" y="2367.01574803" x="931.119250557">
s10</text>
      <circle style="stroke:red; stroke-width:1; fill:red; " transform="" cy="2374.01574803" cx="396.850393701" r="5" id="C.s11" d="M 401.8504,2374.0159 C 401.8504,2376.7773 399.61183,2379.0159 396.8504,2379.0159 394.08898,2379.0159 391.8504,2376.7773 391.8504,2374.0159 391.8504,2371.2544 394.08898,2369.0159 396.8504,2369.0159 399.61183,2369.0159 401.8504,2371.2544 401.8504,2374.0159 z" />
      <text style="font-size:30; vertical-align:top; fill-opacity:1.0; fill:darkblue; text-anchor:right; stroke:none; font-weight:normal; font-style:italic; text-align:right; " transform="" id="C.s11.text" y="2367.01574803" x="403.850393701">
s11</text>
      <circle style="stroke:red; stroke-width:1; fill:red; " transform="" cy="1500.95313601" cx="483.661417323" r="5" id="C.SD1" d="M 488.66141,1500.9531 C 488.66141,1503.7145 486.42283,1505.9531 483.66141,1505.9531 480.89998,1505.9531 478.66141,1503.7145 478.66141,1500.9531 478.66141,1498.1917 480.89998,1495.9531 483.66141,1495.9531 486.42283,1495.9531 488.66141,1498.1917 488.66141,1500.9531 z" />
      <text style="font-size:30; vertical-align:top; fill-opacity:1.0; fill:darkblue; text-anchor:right; stroke:none; font-weight:normal; font-style:italic; text-align:right; " transform="" id="C.SD1.text" y="1493.95313601" x="490.661417323">
SD1</text>
      <circle style="stroke:red; stroke-width:1; fill:red; " transform="" cy="1525.43553069" cx="684.406213477" r="5" id="C.SD1.i" d="M 689.40619,1525.4355 C 689.40619,1528.197 687.16761,1530.4355 684.40619,1530.4355 681.64477,1530.4355 679.40619,1528.197 679.40619,1525.4355 679.40619,1522.6741 681.64477,1520.4355 684.40619,1520.4355 687.16761,1520.4355 689.40619,1522.6741 689.40619,1525.4355 z" />
      <text style="font-size:30; vertical-align:top; fill-opacity:1.0; fill:darkblue; text-anchor:right; stroke:none; font-weight:normal; font-style:italic; text-align:right; " transform="" id="C.SD1.i.text" y="1518.43553069" x="691.406213477">
SD1.i</text>
      <circle style="stroke:red; stroke-width:1; fill:red; " transform="" cy="1579.81988905" cx="669.881437991" r="5" id="C.SD1.o" d="M 674.88141,1579.8199 C 674.88141,1582.5814 672.64283,1584.8199 669.88141,1584.8199 667.11998,1584.8199 664.88141,1582.5814 664.88141,1579.8199 664.88141,1577.0585 667.11998,1574.8199 669.88141,1574.8199 672.64283,1574.8199 674.88141,1577.0585 674.88141,1579.8199 z" />
      <text style="font-size:30; vertical-align:top; fill-opacity:1.0; fill:darkblue; text-anchor:right; stroke:none; font-weight:normal; font-style:italic; text-align:right; " transform="" id="C.SD1.o.text" y="1572.81988905" x="676.881437991">
SD1.o</text>
      <circle style="stroke:gray; stroke-width:1; fill:none; " transform="" cy="2367.74213833" cx="127.512285643" r="5" id="C.SWB.inpoint" d="M 132.51228,2367.7422 C 132.51228,2370.5036 130.27371,2372.7422 127.51228,2372.7422 124.75086,2372.7422 122.51228,2370.5036 122.51228,2367.7422 122.51228,2364.9808 124.75086,2362.7422 127.51228,2362.7422 130.27371,2362.7422 132.51228,2364.9808 132.51228,2367.7422 z" />
      <text style="font-size:25; vertical-align:top; fill-opacity:1.0; fill:gray; text-anchor:right; stroke:none; font-weight:normal; font-style:italic; text-align:right; " transform="" id="C.SWB.inpoint.text" y="2360.74213833" x="134.512285643">
SWB.in</text>
      <circle style="stroke:red; stroke-width:1; fill:red; " transform="" cy="2451.21238406" cx="370.311501674" r="5" id="C.SWB" d="M 375.31149,2451.2124 C 375.31149,2453.9738 373.07292,2456.2124 370.31149,2456.2124 367.55007,2456.2124 365.31149,2453.9738 365.31149,2451.2124 365.31149,2448.451 367.55007,2446.2124 370.31149,2446.2124 373.07292,2446.2124 375.31149,2448.451 375.31149,2451.2124 z" />
      <text style="font-size:30; vertical-align:top; fill-opacity:1.0; fill:darkblue; text-anchor:right; stroke:none; font-weight:normal; font-style:italic; text-align:right; " transform="" id="C.SWB.text" y="2444.21238406" x="377.311501674">
SWB</text>
      <circle style="stroke:gray; stroke-width:1; fill:none; " transform="" cy="2338.04920511" cx="-142.615430922" r="5" id="C.SWF.outpoint" d="M -137.61543,2338.0493 C -137.61543,2340.8107 -139.85401,2343.0493 -142.61543,2343.0493 -145.37686,2343.0493 -147.61543,2340.8107 -147.61543,2338.0493 -147.61543,2335.2879 -145.37686,2333.0493 -142.61543,2333.0493 -139.85401,2333.0493 -137.61543,2335.2879 -137.61543,2338.0493 z" />
      <text style="font-size:25; vertical-align:top; fill-opacity:1.0; fill:gray; text-anchor:right; stroke:none; font-weight:normal; font-style:italic; text-align:right; " transform="" id="C.SWF.outpoint.text" y="2331.04920511" x="-135.615430922">
SWF.out</text>
      <circle style="stroke:red; stroke-width:1; fill:red; " transform="" cy="2377.18256862" cx="-396.361999544" r="5" id="C.SWF" d="M -391.362,2377.1826 C -391.362,2379.944 -393.60058,2382.1826 -396.362,2382.1826 -399.12342,2382.1826 -401.362,2379.944 -401.362,2377.1826 -401.362,2374.4212 -399.12342,2372.1826 -396.362,2372.1826 -393.60058,2372.1826 -391.362,2374.4212 -391.362,2377.1826 z" />
      <text style="font-size:30; vertical-align:top; fill-opacity:1.0; fill:darkblue; text-anchor:right; stroke:none; font-weight:normal; font-style:italic; text-align:right; " transform="" id="C.SWF.text" y="2370.18256862" x="-389.361999544">
SWF</text>
      <path style="stroke-linejoin:miter; stroke-dashoffset:0; stroke:gray; stroke-miterlimit:4; stroke-dasharray:6,6; stroke-width:2; fill:none; " transform="" d="M 0.0  0.0 L 0.0  2374.01574803 M 924.119250557  627.890523993 L 0.0  0.0 L -924.119250557  627.890523993 M 924.119250557  627.890523993 L -924.119250557  627.890523993 M 690.94488189  1500.95313601 L -531.496062992  1500.95313601 M -924.119250557  627.890523993 L -924.119250557  2374.01574803 L 924.119250557  2374.01574803 L 924.119250557  627.890523993 M 690.94488189  1500.95313601 L 396.850393701  2374.01574803 M -924.119250557  627.890523993 L -396.850393701  2374.01574803 M 231.029812639  156.972630998 L 270.856406489  98.3564858988 M -231.029812639  156.972630998 L -250.943109564  127.664558449 M -693.089437917  470.917892995 L -673.176140992  500.225965545 " id="C.gridline" />
    </g>
  </g>
</svg>
