<?xml version="1.0" encoding="UTF-8" standalone="no"?>
<svg xmlns:dc="http://purl.org/dc/elements/1.1/" xmlns:cc="http://creativecommons.org/ns#" xmlns:rdf="http://www.w3.org/1999/02/22-rdf-syntax-ns#" xmlns:svg="http://www.w3.org/2000/svg" xmlns="http://www.w3.org/2000/svg" xmlns:sodipodi="http://sodipodi.sourceforge.net/DTD/sodipodi-0.dtd" xmlns:inkscape="http://www.inkscape.org/namespaces/inkscape" patternNumber="MR_B1" fitBoxtoViewport="True" companyName="Next Patterns" currentscale="0.5:1" margin-right="88.5826771654" client-name="DressFormLg" designerName="S.L.Spencer" height="4715.641132" width="2545.52426033" margin-top="88.5826771654" version="1.1" margin-bottom="88.5826771654" margin-left="88.5826771654" preserveAspectRatio="xMidYMid meet" id="svg2" inkscape:version="0.48.4 r9939" sodipodi:docname="Susan-spencer_bodice_short-2014-11-23-1811.svg">
  <metadata id="metadata286">
    <rdf:RDF>
      <cc:Work rdf:about="">
        <dc:format>image/svg+xml</dc:format>
        <dc:type rdf:resource="http://purl.org/dc/dcmitype/StillImage" />
      </cc:Work>
    </rdf:RDF>
  </metadata>
  <sodipodi:namedview id="base" pagecolor="#ffffff" bordercolor="#666666" borderopacity="1.0" inkscape:pageopacity="0.0" inkscape:pageshadow="2" inkscape:zoom="0.18788538" inkscape:document-units="pt" showgrid="false" inkscape:window-maximized="1" inkscape:cx="1272.7621" inkscape:cy="2357.8206" inkscape:window-width="1855" inkscape:window-height="1056" inkscape:window-x="65" inkscape:window-y="24" inkscape:current-layer="pattern" />
  <defs id="defs5">
    <marker style="overflow:visible" id="Arrow1Mstart" refX="0.0" refY="0.0" orient="auto" inkscape:stockid="Arrow1Mstart">
      <path transform="scale(0.4) translate(10,0)" style="fill-rule:evenodd;stroke:#000000;stroke-width:1.0pt;marker-start:none" d="M 0.0,0.0 L 5.0,-5.0 L -12.5,0.0 L 5.0,5.0 L 0.0,0.0 z " id="path8" />
    </marker>
    <marker style="overflow:visible;" id="Arrow1Mend" refX="0.0" refY="0.0" orient="auto" inkscape:stockid="Arrow1Mend">
      <path transform="scale(0.4) rotate(180) translate(10,0)" style="fill-rule:evenodd;stroke:#000000;stroke-width:1.0pt;marker-start:none;" d="M 0.0,0.0 L 5.0,-5.0 L -12.5,0.0 L 5.0,5.0 L 0.0,0.0 z " id="path11" />
    </marker>
  </defs>
  <g inkscape:label="Label-pattern" id="pattern" inkscape:groupmode="layer" transform="translate(88.582677,88.582677)">
    <g id="document.bodice.Bodice Front.pattern" transform=" translate(58.750000, 757.717638)">
      <g id="A.letter" transform="matrix(10.000000, 0, 0, 10.000000, -3228.838583, -1030.039370)">
        <text style="font-size:24; vertical-align:top; fill-opacity:1.0; fill:#000000; text-anchor:start; stroke:none; font-weight:normal; font-style:normal; text-align:right; " transform="" id="A.letter.letterline" y="114.448818898" x="358.75984252">
A</text>
      </g>
      <line style="stroke-linejoin:miter; stroke:green; stroke-width:4; stroke-miterlimit:4; fill:none; " y2="1089.56692913" marker-end="url(#Arrow1Mend)" marker-start="url(#Arrow1Mstart)" transform="" x2="133.455818164" y1="159.448818898" x1="133.455818164" id="A.grainline" />
      <path style="stroke-linejoin:miter; stroke-dashoffset:0; stroke:green; stroke-miterlimit:4; stroke-dasharray:6,6; stroke-width:3; fill:none; " transform="" d="M 259.422273289  1311.16500733 L 354.330708661  710.078740157 L 449.239144033  1311.16500733 M 1115.36754711  637.795275591 L 438.42114238  637.795275591 L 1082.45746513  846.298632545 " id="A.dartline" />
      <path style="stroke-linejoin:miter; stroke-dashoffset:0; stroke:green; stroke-dasharray:24,6; stroke-miterlimit:4; stroke-width:4; fill:none; " transform="" d="M 0.0  0.0 L 0.0  1240.15748031 C 88.6510629953  1240.15748031  170.37146643  1240.15748031  268.195175027  1255.60334164 L 354.330708661  1278.11886836 L 440.466242295  1255.60334164 C 638.608627086  1224.31767642  840.663085938  1206.62791188  1038.67054744  1192.7249741 L 1028.94208651  828.973311446 L 1028.2625664  730.895597359 L 1059.11754711  637.795275591 L 983.736240613  410.343378751 C 866.486995836  448.509733875  745.523886777  403.708010594  689.350393701  318.897637795 C 590.408044493  169.515125469  700.623059386  -143.661987328  717.519685039  -223.334513127 L 266.911636328  -318.897637795 C 233.832093174  -162.917928626  160.146981797  0.0  0.0  0.0 " id="A.seamline" />
      <path style="fill:none;stroke:#008000;stroke-width:4;stroke-linejoin:miter;stroke-miterlimit:4" d="M 211.90625,-330.65625 C 197.45138,-264.20535 177.34444,-197.87692 139.96875,-140.40625 116.15169,-104.08797 82.171731,-71.60028 38.90625,-60.9375 9.6980416,-53.498727 -20.657228,-57.036286 -50.466985,-55.829847 -59.45958,-58.486119 -55.389515,-48.189039 -56.25,-42.78125 -56.25,403.61458 -56.25,850.01042 -56.25,1296.4062 46.358054,1296.5757 149.38339,1294.0996 251,1309.8438 278.00729,1315.4948 304.50194,1323.6109 331.30863,1330.2263 339.63709,1331.7447 347.95565,1335.9211 356.2779,1335.7723 389.43648,1327.3273 422.39894,1317.9228 455.70196,1310.1632 667.79065,1276.9628 882.08778,1259.76 1096.3125,1245.0312 1092.6452,1102.874 1088.457,960.72553 1085.1171,818.56275 1085.145,792.0133 1084.3128,765.32807 1084.8773,738.86333 1096.041,705.16858 1107.2418,671.48609 1118.375,637.78125 1085.4999,538.46886 1052.5693,439.17481 1019.6562,339.875 983.50933,350.61777 947.83618,366.01948 909.8125,367.5 848.87911,371.0631 785.04751,347.94405 745.5625,300.46875 716.21972,265.1272 707.96154,217.73535 705.45047,173.25123 702.05697,95.046921 716.02614,17.150529 733.42252,-58.84383 745.12702,-111.35292 761.24214,-162.54959 773.28095,-214.96569 777.13522,-232.16463 780.98948,-249.36356 784.84375,-266.5625 597.77484,-306.25846 410.69518,-345.90378 223.625,-385.59375 219.71875,-367.28125 215.8125,-348.96875 211.90625,-330.65625 z" id="A.cuttingline" inkscape:connector-curvature="0" />
      <g id="A.info" transform="">
        <text style="font-size:12; vertical-align:top; fill-opacity:1.0; fill:#000000; text-anchor:start; stroke:none; font-weight:normal; font-style:normal; text-align:right; " transform="" id="A.info.lineNext Patterns" y="159.448818898" x="358.75984252">
Next Patterns</text>
        <text style="font-size:12; vertical-align:top; fill-opacity:1.0; fill:#000000; text-anchor:start; stroke:none; font-weight:normal; font-style:normal; text-align:right; " transform="" id="A.info.lineMR_B1" y="173.848818898" x="358.75984252">
MR_B1</text>
        <text style="font-size:12; vertical-align:top; fill-opacity:1.0; fill:#000000; text-anchor:start; stroke:none; font-weight:normal; font-style:normal; text-align:right; " transform="" id="A.info.lineSpencer Bodice Short" y="188.248818898" x="358.75984252">
Spencer Bodice Short</text>
        <text style="font-size:12; vertical-align:top; fill-opacity:1.0; fill:#000000; text-anchor:start; stroke:none; font-weight:normal; font-style:normal; text-align:right; " transform="" id="A.info.linePattern Piece A" y="202.648818898" x="358.75984252">
Pattern Piece A</text>
        <text style="font-size:12; vertical-align:top; fill-opacity:1.0; fill:#000000; text-anchor:start; stroke:none; font-weight:normal; font-style:normal; text-align:right; " transform="" id="A.info.lineCut 2 Fabric" y="217.048818898" x="358.75984252">
Cut 2 Fabric</text>
        <text style="font-size:12; vertical-align:top; fill-opacity:1.0; fill:#000000; text-anchor:start; stroke:none; font-weight:normal; font-style:normal; text-align:right; " transform="" id="A.info.line " y="231.448818898" x="358.75984252" />
        <text style="font-size:12; vertical-align:top; fill-opacity:1.0; fill:#000000; text-anchor:start; stroke:none; font-weight:normal; font-style:normal; text-align:right; " transform="" id="A.info.lineDressFormLg" y="245.848818898" x="358.75984252">
DressFormLg</text>
        <text style="font-size:12; vertical-align:top; fill-opacity:1.0; fill:#000000; text-anchor:start; stroke:none; font-weight:normal; font-style:normal; text-align:right; " transform="" id="A.info.line2014/11/23 18:11" y="260.248818898" x="358.75984252">
2014/11/23 18:11</text>
      </g>
    </g>
    <g id="document.bodice.Bodice Back.pattern" transform=" translate(2312.108906, 580.552283)">
      <g id="B.letter" transform="matrix(10.000000, 0, 0, 10.000000, 3220.308797, -2465.078740)">
        <text style="font-size:24; vertical-align:top; fill-opacity:1.0; fill:#000000; text-anchor:start; stroke:none; font-weight:normal; font-style:normal; text-align:right; " transform="" id="B.letter.letterline" y="273.897637795" x="-357.812088528">
B</text>
      </g>
      <line style="stroke-linejoin:miter; stroke:green; stroke-width:4; stroke-miterlimit:4; fill:none; " y2="1222.44094488" marker-end="url(#Arrow1Mend)" marker-start="url(#Arrow1Mstart)" transform="" x2="-142.235487856" y1="212.598425197" x1="-142.235487856" id="B.grainline" />
      <path style="stroke-linejoin:miter; stroke-dashoffset:0; stroke:green; stroke-miterlimit:4; stroke-dasharray:6,6; stroke-width:3; fill:none; " transform="" d="M -564.693147723  1411.34191935 L -464.721403086  488.293538101 L -364.749658449  1411.34191935 M -549.94563235  -87.4182932197 L -430.45219408  104.234043908 L -518.493439004  -103.751627012 " id="B.dartline" />
      <path style="stroke-linejoin:miter; stroke-dashoffset:0; stroke:green; stroke-dasharray:24,6; stroke-miterlimit:4; stroke-width:4; fill:none; " transform="" d="M 0.0  0.0 L 0.0  1346.45669291 C -122.401866328  1346.45669291  -288.057040113  1346.45669291  -370.806454847  1355.418957 L -464.721403086  1373.63713249 L -558.636351325  1355.418957 C -642.59670283  1346.32554111  -776.4195345  1346.1188898  -883.753544208  1345.95314295 L -912.925645447  743.969892628 C -818.793677498  739.408258567  -694.340559474  733.377261929  -627.342519685  435.978023208 C -600.895845793  318.583235139  -690.415334864  130.711716533  -715.624177057  82.1684498171 L -520.185017325  -39.6860369005 L -508.858261319  -46.7481632481 L -496.566196517  -51.9514480849 L -284.470975712  -141.732283465 C -252.688753608  -78.3927191927  -213.353231784  0.0  0.0  0.0 " id="B.seamline" />
      <path style="fill:none;stroke:#008000;stroke-width:4;stroke-linejoin:miter;stroke-miterlimit:4" d="M -306.40625,-193.53125 C -382.79654,-161.0806 -459.42069,-128.98719 -535.6605,-96.313751 -620.19684,-43.607412 -704.78903,9.1568526 -789.375,61.84375 -765.01085,108.34349 -741.08264,155.08599 -722.3402,204.17748 -701.22959,259.46175 -682.72144,316.86251 -679.09375,376.21875 -677.34444,399.17286 -680.89018,422.03204 -687.05392,444.09542 -701.94747,502.96558 -720.75594,562.39706 -755.14292,613.03307 -775.47344,643.13071 -804.66311,668.65444 -840.24042,678.25158 -878.75179,688.98403 -919.08633,687.0059 -958.63603,689.88446 -963.44307,691.32476 -974.49955,687.09595 -971.60196,695.5254 -960.18812,931.02762 -948.77321,1166.5298 -937.34375,1402.0312 -823.61272,1402.7704 -709.68769,1400.9405 -596.21875,1408.5312 -576.05554,1409.4063 -556.06633,1412.7479 -536.31765,1417.0303 -512.12464,1421.472 -487.92579,1426.9223 -463.7373,1430.7458 -428.5111,1424.1696 -393.43604,1416.5181 -358.10701,1410.6557 -278.34886,1403.8325 -198.22635,1403.8232 -118.15631,1402.9442 -60.0214,1402.6291 -1.8854801,1402.7367 56.25,1402.7188 56.25,916.39583 56.25,430.07292 56.25,-56.25 -8.2028894,-56.354282 -74.213712,-53.53629 -136.34375,-73.46875 -166.34681,-82.915222 -194.66624,-100.53616 -212.09375,-127.3125 -229.87902,-154.77479 -242.63111,-185.13446 -257.875,-214.0625 -274.05208,-207.21875 -290.22917,-200.375 -306.40625,-193.53125 z" id="B.cuttingline" inkscape:connector-curvature="0" />
      <g id="B.info" transform="">
        <text style="font-size:12; vertical-align:top; fill-opacity:1.0; fill:#000000; text-anchor:start; stroke:none; font-weight:normal; font-style:normal; text-align:right; " transform="" id="B.info.lineNext Patterns" y="318.897637795" x="-357.812088528">
Next Patterns</text>
        <text style="font-size:12; vertical-align:top; fill-opacity:1.0; fill:#000000; text-anchor:start; stroke:none; font-weight:normal; font-style:normal; text-align:right; " transform="" id="B.info.lineMR_B1" y="333.297637795" x="-357.812088528">
MR_B1</text>
        <text style="font-size:12; vertical-align:top; fill-opacity:1.0; fill:#000000; text-anchor:start; stroke:none; font-weight:normal; font-style:normal; text-align:right; " transform="" id="B.info.lineSpencer Bodice Short" y="347.697637795" x="-357.812088528">
Spencer Bodice Short</text>
        <text style="font-size:12; vertical-align:top; fill-opacity:1.0; fill:#000000; text-anchor:start; stroke:none; font-weight:normal; font-style:normal; text-align:right; " transform="" id="B.info.linePattern Piece B" y="362.097637795" x="-357.812088528">
Pattern Piece B</text>
        <text style="font-size:12; vertical-align:top; fill-opacity:1.0; fill:#000000; text-anchor:start; stroke:none; font-weight:normal; font-style:normal; text-align:right; " transform="" id="B.info.lineCut 2 Fabric" y="376.497637795" x="-357.812088528">
Cut 2 Fabric</text>
        <text style="font-size:12; vertical-align:top; fill-opacity:1.0; fill:#000000; text-anchor:start; stroke:none; font-weight:normal; font-style:normal; text-align:right; " transform="" id="B.info.line " y="390.897637795" x="-357.812088528" />
        <text style="font-size:12; vertical-align:top; fill-opacity:1.0; fill:#000000; text-anchor:start; stroke:none; font-weight:normal; font-style:normal; text-align:right; " transform="" id="B.info.lineDressFormLg" y="405.297637795" x="-357.812088528">
DressFormLg</text>
        <text style="font-size:12; vertical-align:top; fill-opacity:1.0; fill:#000000; text-anchor:start; stroke:none; font-weight:normal; font-style:normal; text-align:right; " transform="" id="B.info.line2014/11/23 18:11" y="419.697637795" x="-357.812088528">
2014/11/23 18:11</text>
      </g>
    </g>
    <g id="document.bodice.Bodice Sleeve.pattern" transform=" translate(835.539131, 2240.132645)">
      <line style="stroke-linejoin:miter; stroke:green; stroke-width:4; stroke-miterlimit:4; fill:none; " y2="1877.95275591" marker-end="url(#Arrow1Mend)" marker-start="url(#Arrow1Mstart)" transform="" x2="0.0" y1="430.218389926" x1="0.0" id="C.grainline" />
      <g id="C.letter" transform="matrix(15.000000, 0, 0, 15.000000, 6485.589230, -12082.253724)">
        <text style="font-size:24; vertical-align:top; fill-opacity:1.0; fill:#000000; text-anchor:start; stroke:none; font-weight:normal; font-style:normal; text-align:right; " transform="" id="C.letter.letterline" y="863.018123153" x="-463.256373541">
C</text>
      </g>
      <path style="stroke-linejoin:miter; stroke-dashoffset:0; stroke:green; stroke-miterlimit:4; stroke-dasharray:6,6; stroke-width:3; fill:none; " transform="" d="M 744.789322718  1248.37700882 L 483.661417323  1295.81785638 L 747.750140299  1322.19139217 " id="C.dartline" />
      <path style="stroke-linejoin:miter; stroke-dashoffset:0; stroke:green; stroke-dasharray:24,6; stroke-miterlimit:4; stroke-width:4; fill:none; " transform="" d="M 661.714824465  430.218389926 C 588.221682676  430.218389926  339.390097003  326.083409053  287.574642352  188.532959327 C 264.137831075  126.317082749  216.554002117  0.0  0.0  0.0 C -242.386393361  0.0  -390.369280082  181.798744532  -463.256373541  271.34140975 C -530.541158902  354.001572528  -691.164932339  430.218389926  -744.456453362  430.218389926 C -662.063597896  712.609861838  -576.710381197  1005.14761114  -531.496062992  1295.81785638 L -390.56880943  2201.7998767 C -140.139311591  2162.8450845  129.406841857  2158.55985589  368.686178392  2242.09313267 L 691.778557326  1316.60172318 L 690.611909844  1287.51672822 L 689.445262363  1258.43173325 L 661.714824465  430.218389926 " id="C.seamline" />
      <path style="fill:none;stroke:#008000;stroke-width:4;stroke-linejoin:miter;stroke-miterlimit:4" d="M -6.28125,-56.21875 C -100.0017,-55.523414 -192.7894,-28.036085 -273.11602,19.929061 -358.257,70.114054 -429.10219,140.6377 -491.2847,216.7244 -507.07465,237.05 -524.14253,256.52126 -544.43712,272.4997 -590.80487,309.78237 -643.35648,339.36529 -698.71875,361.1875 -714.55571,366.64774 -730.61712,373.52908 -747.5625,373.96875 -771.54167,373.96875 -795.52083,373.96875 -819.5,373.96875 -735.80929,661.61661 -648.66677,949.1571 -596.96032,1244.4596 -580.74156,1341.301 -566.47947,1438.7296 -551.09696,1535.8133 -513.22484,1779.1974 -475.40976,2022.5905 -437.5,2265.9688 -357.42003,2253.1348 -277.10712,2241.5271 -196.15625,2236.0312 -31.432665,2224.3805 136.84044,2232.4197 296.40625,2278.0938 332.4781,2288.3809 367.75507,2301.4771 403.34375,2313.5312 518.3104,1984.0124 633.38091,1654.5297 748.40625,1325.0312 742.1018,1164.5121 737.43083,1003.9328 731.83497,843.38758 726.61034,687.2375 721.36946,531.08796 716.15625,374.9375 694.84776,374.03602 673.38492,375.17342 652.16753,373.06894 611.00887,365.86434 572.0406,349.89058 534.21875,332.5 476.5051,304.73527 420.48043,270.64598 376.34375,223.75 358.37869,204.51966 343.69533,182.00788 335.70093,156.83319 315.9611,103.83239 285.28049,53.800141 240.97904,17.863119 184.5266,-28.994202 111.10696,-50.261832 38.823503,-54.95273 23.814512,-55.969246 8.761913,-56.3561 -6.28125,-56.21875 z" id="C.cuttingline" inkscape:connector-curvature="0" />
      <g id="C.info" transform="">
        <text style="font-size:12; vertical-align:top; fill-opacity:1.0; fill:#000000; text-anchor:start; stroke:none; font-weight:normal; font-style:normal; text-align:right; " transform="" id="C.info.lineNext Patterns" y="933.884264885" x="-463.256373541">
Next Patterns</text>
        <text style="font-size:12; vertical-align:top; fill-opacity:1.0; fill:#000000; text-anchor:start; stroke:none; font-weight:normal; font-style:normal; text-align:right; " transform="" id="C.info.lineMR_B1" y="948.284264885" x="-463.256373541">
MR_B1</text>
        <text style="font-size:12; vertical-align:top; fill-opacity:1.0; fill:#000000; text-anchor:start; stroke:none; font-weight:normal; font-style:normal; text-align:right; " transform="" id="C.info.lineSpencer Bodice Short" y="962.684264885" x="-463.256373541">
Spencer Bodice Short</text>
        <text style="font-size:12; vertical-align:top; fill-opacity:1.0; fill:#000000; text-anchor:start; stroke:none; font-weight:normal; font-style:normal; text-align:right; " transform="" id="C.info.linePattern Piece C" y="977.084264885" x="-463.256373541">
Pattern Piece C</text>
        <text style="font-size:12; vertical-align:top; fill-opacity:1.0; fill:#000000; text-anchor:start; stroke:none; font-weight:normal; font-style:normal; text-align:right; " transform="" id="C.info.lineCut 2 Fabric" y="991.484264885" x="-463.256373541">
Cut 2 Fabric</text>
        <text style="font-size:12; vertical-align:top; fill-opacity:1.0; fill:#000000; text-anchor:start; stroke:none; font-weight:normal; font-style:normal; text-align:right; " transform="" id="C.info.line " y="1005.88426489" x="-463.256373541" />
        <text style="font-size:12; vertical-align:top; fill-opacity:1.0; fill:#000000; text-anchor:start; stroke:none; font-weight:normal; font-style:normal; text-align:right; " transform="" id="C.info.lineDressFormLg" y="1020.28426489" x="-463.256373541">
DressFormLg</text>
        <text style="font-size:12; vertical-align:top; fill-opacity:1.0; fill:#000000; text-anchor:start; stroke:none; font-weight:normal; font-style:normal; text-align:right; " transform="" id="C.info.line2014/11/23 18:11" y="1034.68426489" x="-463.256373541">
2014/11/23 18:11</text>
      </g>
    </g>
  </g>
  <g inkscape:label="Label-notes" id="notes" inkscape:groupmode="layer" transform="translate(88.582677,88.582677)">
    <g id="document.titleblock">
      <text style="font-size:40; vertical-align:top; fill-opacity:1.0; fill:#000000; text-anchor:right; stroke:none; font-weight:normal; font-style:normal; text-align:right; " transform="" id="company" y="0.0" x="0.0">
Next Patterns</text>
      <text style="font-size:40; vertical-align:top; fill-opacity:1.0; fill:#000000; text-anchor:right; stroke:none; font-weight:normal; font-style:normal; text-align:right; " transform="" id="designer" y="44.0" x="0.0">
S.L.Spencer</text>
      <text style="font-size:40; vertical-align:top; fill-opacity:1.0; fill:#000000; text-anchor:right; stroke:none; font-weight:normal; font-style:normal; text-align:right; " transform="" id="pattern_number" y="88.0" x="0.0">
MR_B1</text>
      <text style="font-size:40; vertical-align:top; fill-opacity:1.0; fill:#000000; text-anchor:right; stroke:none; font-weight:normal; font-style:normal; text-align:right; " transform="" id="pattern_name" y="132.0" x="0.0">
Spencer Bodice Short</text>
      <text style="font-size:40; vertical-align:top; fill-opacity:1.0; fill:#000000; text-anchor:right; stroke:none; font-weight:normal; font-style:normal; text-align:right; " transform="" id="client" y="176.0" x="0.0">
DressFormLg</text>
      <text style="font-size:40; vertical-align:top; fill-opacity:1.0; fill:#000000; text-anchor:right; stroke:none; font-weight:normal; font-style:normal; text-align:right; " transform="" id="date" y="220.0" x="0.0">
2014/11/23 18:11</text>
    </g>
    <g id="document.testgrid">
      <path style="stroke-linejoin:miter; stroke:green; stroke-width:4; stroke-miterlimit:4; fill:none; " d="M 1080.0  0.0 L 1080.0  212.598425197 M 1115.43307087  0.0 L 1115.43307087  212.598425197 M 1150.86614173  0.0 L 1150.86614173  212.598425197 M 1186.2992126  0.0 L 1186.2992126  212.598425197 M 1221.73228346  0.0 L 1221.73228346  212.598425197 M 1257.16535433  0.0 L 1257.16535433  212.598425197 M 1292.5984252  0.0 L 1292.5984252  212.598425197 M 1080.0  0.0 L 1292.5984252  0.0 M 1080.0  35.4330708661 L 1292.5984252  35.4330708661 M 1080.0  70.8661417323 L 1292.5984252  70.8661417323 M 1080.0  106.299212598 L 1292.5984252  106.299212598 M 1080.0  141.732283465 L 1292.5984252  141.732283465 M 1080.0  177.165354331 L 1292.5984252  177.165354331 M 1080.0  212.598425197 L 1292.5984252  212.598425197 M 1469.76377953  0.0 L 1469.76377953  270.0 M 1559.76377953  0.0 L 1559.76377953  270.0 M 1649.76377953  0.0 L 1649.76377953  270.0 M 1739.76377953  0.0 L 1739.76377953  270.0 M 1469.76377953  0.0 L 1739.76377953  0.0 M 1469.76377953  90.0 L 1739.76377953  90.0 M 1469.76377953  180.0 L 1739.76377953  180.0 M 1469.76377953  270.0 L 1739.76377953  270.0 " id="testgrid" />
    </g>
    <g id="document.bodice.Bodice Front.notes" transform=" translate(58.750000, 757.717638)" />
    <g id="document.bodice.Bodice Back.notes" transform=" translate(2312.108906, 580.552283)" />
    <g id="document.bodice.Bodice Sleeve.notes" transform=" translate(835.539131, 2240.132645)" />
  </g>
  <g inkscape:label="Label-reference" id="reference" inkscape:groupmode="layer" transform="translate(88.582677,88.582677)">
    <g id="document.bodice.Bodice Front.reference" transform=" translate(58.750000, 757.717638)">
      <circle style="stroke:gray; stroke-width:1; fill:none; " transform="" cy="0.0" cx="160.146981797" r="5" id="A.FNC.inpoint" d="M 165.14699,0 C 165.14699,2.7614237 162.90841,5 160.14699,5 157.38556,5 155.14699,2.7614237 155.14699,0 155.14699,-2.7614237 157.38556,-5 160.14699,-5 162.90841,-5 165.14699,-2.7614237 165.14699,0 z" />
      <text style="font-size:25; vertical-align:top; fill-opacity:1.0; fill:gray; text-anchor:right; stroke:none; font-weight:normal; font-style:italic; text-align:right; " transform="" id="A.FNC.inpoint.text" y="-7.0" x="167.146981797">
FNC.in</text>
      <circle style="stroke:red; stroke-width:1; fill:red; " transform="" cy="0.0" cx="0.0" r="5" id="A.FNC" d="M 5,0 C 5,2.7614237 2.7614237,5 0,5 -2.7614237,5 -5,2.7614237 -5,0 -5,-2.7614237 -2.7614237,-5 0,-5 2.7614237,-5 5,-2.7614237 5,0 z" />
      <text style="font-size:30; vertical-align:top; fill-opacity:1.0; fill:darkblue; text-anchor:right; stroke:none; font-weight:normal; font-style:italic; text-align:right; " transform="" id="A.FNC.text" y="-7.0" x="7.0">
FNC</text>
      <circle style="stroke:gray; stroke-width:1; fill:none; " transform="" cy="1240.15748031" cx="88.6510629953" r="5" id="A.FWC.outpoint" d="M 93.651062,1240.1575 C 93.651062,1242.9189 91.412486,1245.1575 88.651062,1245.1575 85.889638,1245.1575 83.651062,1242.9189 83.651062,1240.1575 83.651062,1237.396 85.889638,1235.1575 88.651062,1235.1575 91.412486,1235.1575 93.651062,1237.396 93.651062,1240.1575 z" />
      <text style="font-size:25; vertical-align:top; fill-opacity:1.0; fill:gray; text-anchor:right; stroke:none; font-weight:normal; font-style:italic; text-align:right; " transform="" id="A.FWC.outpoint.text" y="1233.15748031" x="95.6510629953">
FWC.out</text>
      <circle style="stroke:red; stroke-width:1; fill:red; " transform="" cy="1240.15748031" cx="0.0" r="5" id="A.FWC" d="M 5,1240.1575 C 5,1242.9189 2.7614237,1245.1575 0,1245.1575 -2.7614237,1245.1575 -5,1242.9189 -5,1240.1575 -5,1237.396 -2.7614237,1235.1575 0,1235.1575 2.7614237,1235.1575 5,1237.396 5,1240.1575 z" />
      <text style="font-size:30; vertical-align:top; fill-opacity:1.0; fill:darkblue; text-anchor:right; stroke:none; font-weight:normal; font-style:italic; text-align:right; " transform="" id="A.FWC.text" y="1233.15748031" x="7.0">
FWC</text>
      <circle style="stroke:red; stroke-width:1; fill:red; " transform="" cy="-318.897637795" cx="0.0" r="5" id="A.FSH" d="M 5,-318.89764 C 5,-316.13622 2.7614237,-313.89764 0,-313.89764 -2.7614237,-313.89764 -5,-316.13622 -5,-318.89764 -5,-321.65907 -2.7614237,-323.89764 0,-323.89764 2.7614237,-323.89764 5,-321.65907 5,-318.89764 z" />
      <text style="font-size:30; vertical-align:top; fill-opacity:1.0; fill:darkblue; text-anchor:right; stroke:none; font-weight:normal; font-style:italic; text-align:right; " transform="" id="A.FSH.text" y="-325.897637795" x="7.0">
FSH</text>
      <circle style="stroke:red; stroke-width:1; fill:red; " transform="" cy="-318.897637795" cx="717.519685039" r="5" id="A.FSW" d="M 722.51971,-318.89764 C 722.51971,-316.13622 720.28114,-313.89764 717.51971,-313.89764 714.75829,-313.89764 712.51971,-316.13622 712.51971,-318.89764 712.51971,-321.65907 714.75829,-323.89764 717.51971,-323.89764 720.28114,-323.89764 722.51971,-321.65907 722.51971,-318.89764 z" />
      <text style="font-size:30; vertical-align:top; fill-opacity:1.0; fill:darkblue; text-anchor:right; stroke:none; font-weight:normal; font-style:italic; text-align:right; " transform="" id="A.FSW.text" y="-325.897637795" x="724.519685039">
FSW</text>
      <circle style="stroke:gray; stroke-width:1; fill:none; " transform="" cy="-143.661987328" cx="700.623059386" r="5" id="A.FSP.inpoint" d="M 705.62305,-143.66199 C 705.62305,-140.90056 703.38447,-138.66199 700.62305,-138.66199 697.86162,-138.66199 695.62305,-140.90056 695.62305,-143.66199 695.62305,-146.42341 697.86162,-148.66199 700.62305,-148.66199 703.38447,-148.66199 705.62305,-146.42341 705.62305,-143.66199 z" />
      <text style="font-size:25; vertical-align:top; fill-opacity:1.0; fill:gray; text-anchor:right; stroke:none; font-weight:normal; font-style:italic; text-align:right; " transform="" id="A.FSP.inpoint.text" y="-150.661987328" x="707.623059386">
FSP.in</text>
      <circle style="stroke:red; stroke-width:1; fill:red; " transform="" cy="-223.334513127" cx="717.519685039" r="5" id="A.FSP" d="M 722.51971,-223.33452 C 722.51971,-220.57309 720.28114,-218.33452 717.51971,-218.33452 714.75829,-218.33452 712.51971,-220.57309 712.51971,-223.33452 712.51971,-226.09594 714.75829,-228.33452 717.51971,-228.33452 720.28114,-228.33452 722.51971,-226.09594 722.51971,-223.33452 z" />
      <text style="font-size:30; vertical-align:top; fill-opacity:1.0; fill:darkblue; text-anchor:right; stroke:none; font-weight:normal; font-style:italic; text-align:right; " transform="" id="A.FSP.text" y="-230.334513127" x="724.519685039">
FSP</text>
      <circle style="stroke:gray; stroke-width:1; fill:none; " transform="" cy="-162.917928626" cx="233.832093174" r="5" id="A.FNS.outpoint" d="M 238.83209,-162.91792 C 238.83209,-160.1565 236.59352,-157.91792 233.83209,-157.91792 231.07067,-157.91792 228.83209,-160.1565 228.83209,-162.91792 228.83209,-165.67935 231.07067,-167.91792 233.83209,-167.91792 236.59352,-167.91792 238.83209,-165.67935 238.83209,-162.91792 z" />
      <text style="font-size:25; vertical-align:top; fill-opacity:1.0; fill:gray; text-anchor:right; stroke:none; font-weight:normal; font-style:italic; text-align:right; " transform="" id="A.FNS.outpoint.text" y="-169.917928626" x="240.832093174">
FNS.out</text>
      <circle style="stroke:red; stroke-width:1; fill:red; " transform="" cy="-318.897637795" cx="266.911636328" r="5" id="A.FNS" d="M 271.91162,-318.89764 C 271.91162,-316.13622 269.67304,-313.89764 266.91162,-313.89764 264.1502,-313.89764 261.91162,-316.13622 261.91162,-318.89764 261.91162,-321.65907 264.1502,-323.89764 266.91162,-323.89764 269.67304,-323.89764 271.91162,-321.65907 271.91162,-318.89764 z" />
      <text style="font-size:30; vertical-align:top; fill-opacity:1.0; fill:darkblue; text-anchor:right; stroke:none; font-weight:normal; font-style:italic; text-align:right; " transform="" id="A.FNS.text" y="-325.897637795" x="273.911636328">
FNS</text>
      <circle style="stroke:red; stroke-width:1; fill:red; " transform="" cy="318.897637795" cx="0.0" r="5" id="A.FUC" d="M 5,318.89764 C 5,321.65907 2.7614237,323.89764 0,323.89764 -2.7614237,323.89764 -5,321.65907 -5,318.89764 -5,316.13622 -2.7614237,313.89764 0,313.89764 2.7614237,313.89764 5,316.13622 5,318.89764 z" />
      <text style="font-size:30; vertical-align:top; fill-opacity:1.0; fill:darkblue; text-anchor:right; stroke:none; font-weight:normal; font-style:italic; text-align:right; " transform="" id="A.FUC.text" y="311.897637795" x="7.0">
FUC</text>
      <circle style="stroke:red; stroke-width:1; fill:red; " transform="" cy="637.795275591" cx="0.0" r="5" id="A.FBC" d="M 5,637.79529 C 5,640.55671 2.7614237,642.79529 0,642.79529 -2.7614237,642.79529 -5,640.55671 -5,637.79529 -5,635.03386 -2.7614237,632.79529 0,632.79529 2.7614237,632.79529 5,635.03386 5,637.79529 z" />
      <text style="font-size:30; vertical-align:top; fill-opacity:1.0; fill:darkblue; text-anchor:right; stroke:none; font-weight:normal; font-style:italic; text-align:right; " transform="" id="A.FBC.text" y="630.795275591" x="7.0">
FBC</text>
      <circle style="stroke:red; stroke-width:1; fill:red; " transform="" cy="637.795275591" cx="354.330708661" r="5" id="A.FBP" d="M 359.33072,637.79529 C 359.33072,640.55671 357.09214,642.79529 354.33072,642.79529 351.5693,642.79529 349.33072,640.55671 349.33072,637.79529 349.33072,635.03386 351.5693,632.79529 354.33072,632.79529 357.09214,632.79529 359.33072,635.03386 359.33072,637.79529 z" />
      <text style="font-size:30; vertical-align:top; fill-opacity:1.0; fill:darkblue; text-anchor:right; stroke:none; font-weight:normal; font-style:italic; text-align:right; " transform="" id="A.FBP.text" y="630.795275591" x="361.330708661">
FBP</text>
      <circle style="stroke:gray; stroke-width:1; fill:none; " transform="" cy="403.708010594" cx="745.523886777" r="5" id="A.FAP.inpoint" d="M 750.52386,403.70801 C 750.52386,406.46943 748.28529,408.70801 745.52386,408.70801 742.76244,408.70801 740.52386,406.46943 740.52386,403.70801 740.52386,400.94658 742.76244,398.70801 745.52386,398.70801 748.28529,398.70801 750.52386,400.94658 750.52386,403.70801 z" />
      <text style="font-size:25; vertical-align:top; fill-opacity:1.0; fill:gray; text-anchor:right; stroke:none; font-weight:normal; font-style:italic; text-align:right; " transform="" id="A.FAP.inpoint.text" y="396.708010594" x="752.523886777">
FAP.in</text>
      <circle style="stroke:gray; stroke-width:1; fill:none; " transform="" cy="169.515125469" cx="590.408044493" r="5" id="A.FAP.outpoint" d="M 595.40802,169.51512 C 595.40802,172.27655 593.16944,174.51512 590.40802,174.51512 587.6466,174.51512 585.40802,172.27655 585.40802,169.51512 585.40802,166.7537 587.6466,164.51512 590.40802,164.51512 593.16944,164.51512 595.40802,166.7537 595.40802,169.51512 z" />
      <text style="font-size:25; vertical-align:top; fill-opacity:1.0; fill:gray; text-anchor:right; stroke:none; font-weight:normal; font-style:italic; text-align:right; " transform="" id="A.FAP.outpoint.text" y="162.515125469" x="597.408044493">
FAP.out</text>
      <circle style="stroke:red; stroke-width:1; fill:red; " transform="" cy="318.897637795" cx="689.350393701" r="5" id="A.FAP" d="M 694.3504,318.89764 C 694.3504,321.65907 692.11183,323.89764 689.3504,323.89764 686.58898,323.89764 684.3504,321.65907 684.3504,318.89764 684.3504,316.13622 686.58898,313.89764 689.3504,313.89764 692.11183,313.89764 694.3504,316.13622 694.3504,318.89764 z" />
      <text style="font-size:30; vertical-align:top; fill-opacity:1.0; fill:darkblue; text-anchor:right; stroke:none; font-weight:normal; font-style:italic; text-align:right; " transform="" id="A.FAP.text" y="311.897637795" x="696.350393701">
FAP</text>
      <circle style="stroke:red; stroke-width:1; fill:red; " transform="" cy="318.897637795" cx="921.25984252" r="5" id="A.f1" d="M 926.25983,318.89764 C 926.25983,321.65907 924.02125,323.89764 921.25983,323.89764 918.4984,323.89764 916.25983,321.65907 916.25983,318.89764 916.25983,316.13622 918.4984,313.89764 921.25983,313.89764 924.02125,313.89764 926.25983,316.13622 926.25983,318.89764 z" />
      <text style="font-size:30; vertical-align:top; fill-opacity:1.0; fill:darkblue; text-anchor:right; stroke:none; font-weight:normal; font-style:italic; text-align:right; " transform="" id="A.f1.text" y="311.897637795" x="928.25984252">
f1</text>
      <circle style="stroke:red; stroke-width:1; fill:red; " transform="" cy="440.379318512" cx="960.803917844" r="5" id="A.f2" d="M 965.80389,440.37933 C 965.80389,443.14076 963.56532,445.37933 960.80389,445.37933 958.04247,445.37933 955.80389,443.14076 955.80389,440.37933 955.80389,437.61791 958.04247,435.37933 960.80389,435.37933 963.56532,435.37933 965.80389,437.61791 965.80389,440.37933 z" />
      <text style="font-size:30; vertical-align:top; fill-opacity:1.0; fill:darkblue; text-anchor:right; stroke:none; font-weight:normal; font-style:italic; text-align:right; " transform="" id="A.f2.text" y="433.379318512" x="967.803917844">
f2</text>
      <circle style="stroke:red; stroke-width:1; fill:red; " transform="" cy="992.756759109" cx="1140.61090594" r="5" id="A.f3" d="M 1145.611,992.75677 C 1145.611,995.5182 1143.3724,997.75677 1140.611,997.75677 1137.8495,997.75677 1135.611,995.5182 1135.611,992.75677 1135.611,989.99535 1137.8495,987.75677 1140.611,987.75677 1143.3724,987.75677 1145.611,989.99535 1145.611,992.75677 z" />
      <text style="font-size:30; vertical-align:top; fill-opacity:1.0; fill:darkblue; text-anchor:right; stroke:none; font-weight:normal; font-style:italic; text-align:right; " transform="" id="A.f3.text" y="985.756759109" x="1147.61090594">
f3</text>
      <circle style="stroke:red; stroke-width:1; fill:red; " transform="" cy="1240.15748031" cx="354.330708661" r="5" id="A.f4" d="M 359.33072,1240.1575 C 359.33072,1242.9189 357.09214,1245.1575 354.33072,1245.1575 351.5693,1245.1575 349.33072,1242.9189 349.33072,1240.1575 349.33072,1237.396 351.5693,1235.1575 354.33072,1235.1575 357.09214,1235.1575 359.33072,1237.396 359.33072,1240.1575 z" />
      <text style="font-size:30; vertical-align:top; fill-opacity:1.0; fill:darkblue; text-anchor:right; stroke:none; font-weight:normal; font-style:italic; text-align:right; " transform="" id="A.f4.text" y="1233.15748031" x="361.330708661">
f4</text>
      <circle style="stroke:red; stroke-width:1; fill:red; " transform="" cy="1150.61284812" cx="670.334447545" r="5" id="A.f5" d="M 675.33447,1150.6128 C 675.33447,1153.3742 673.0959,1155.6128 670.33447,1155.6128 667.57305,1155.6128 665.33447,1153.3742 665.33447,1150.6128 665.33447,1147.8514 667.57305,1145.6128 670.33447,1145.6128 673.0959,1145.6128 675.33447,1147.8514 675.33447,1150.6128 z" />
      <text style="font-size:30; vertical-align:top; fill-opacity:1.0; fill:darkblue; text-anchor:right; stroke:none; font-weight:normal; font-style:italic; text-align:right; " transform="" id="A.f5.text" y="1143.61284812" x="677.334447545">
f5</text>
      <circle style="stroke:red; stroke-width:1; fill:red; " transform="" cy="985.130882295" cx="1164.03803945" r="5" id="A.f6" d="M 1169.0381,985.13086 C 1169.0381,987.89228 1166.7995,990.13086 1164.0381,990.13086 1161.2767,990.13086 1159.0381,987.89228 1159.0381,985.13086 1159.0381,982.36944 1161.2767,980.13086 1164.0381,980.13086 1166.7995,980.13086 1169.0381,982.36944 1169.0381,985.13086 z" />
      <text style="font-size:30; vertical-align:top; fill-opacity:1.0; fill:darkblue; text-anchor:right; stroke:none; font-weight:normal; font-style:italic; text-align:right; " transform="" id="A.f6.text" y="978.130882295" x="1171.03803945">
f6</text>
      <circle style="stroke:red; stroke-width:1; fill:red; " transform="" cy="308.91716441" cx="951.920432539" r="5" id="A.f7" d="M 956.92041,308.91718 C 956.92041,311.6786 954.68183,313.91718 951.92041,313.91718 949.15899,313.91718 946.92041,311.6786 946.92041,308.91718 946.92041,306.15575 949.15899,303.91718 951.92041,303.91718 954.68183,303.91718 956.92041,306.15575 956.92041,308.91718 z" />
      <text style="font-size:30; vertical-align:top; fill-opacity:1.0; fill:darkblue; text-anchor:right; stroke:none; font-weight:normal; font-style:italic; text-align:right; " transform="" id="A.f7.text" y="301.91716441" x="958.920432539">
f7</text>
      <circle style="stroke:red; stroke-width:1; fill:red; " transform="" cy="430.82332606" cx="990.160477948" r="5" id="A.FBS" d="M 995.16046,430.82333 C 995.16046,433.58476 992.92189,435.82333 990.16046,435.82333 987.39904,435.82333 985.16046,433.58476 985.16046,430.82333 985.16046,428.06191 987.39904,425.82333 990.16046,425.82333 992.92189,425.82333 995.16046,428.06191 995.16046,430.82333 z" />
      <text style="font-size:30; vertical-align:top; fill-opacity:1.0; fill:darkblue; text-anchor:right; stroke:none; font-weight:normal; font-style:italic; text-align:right; " transform="" id="A.FBS.text" y="423.82332606" x="997.160477948">
FBS</text>
      <circle style="stroke:gray; stroke-width:1; fill:none; " transform="" cy="448.509733875" cx="866.486995836" r="5" id="A.FUS.outpoint" d="M 871.487,448.50974 C 871.487,451.27116 869.24842,453.50974 866.487,453.50974 863.72558,453.50974 861.487,451.27116 861.487,448.50974 861.487,445.74831 863.72558,443.50974 866.487,443.50974 869.24842,443.50974 871.487,445.74831 871.487,448.50974 z" />
      <text style="font-size:25; vertical-align:top; fill-opacity:1.0; fill:gray; text-anchor:right; stroke:none; font-weight:normal; font-style:italic; text-align:right; " transform="" id="A.FUS.outpoint.text" y="441.509733875" x="873.486995836">
FUS.out</text>
      <circle style="stroke:red; stroke-width:1; fill:red; " transform="" cy="410.343378751" cx="983.736240613" r="5" id="A.FUS" d="M 988.73627,410.34338 C 988.73627,413.10481 986.49769,415.34338 983.73627,415.34338 980.97484,415.34338 978.73627,413.10481 978.73627,410.34338 978.73627,407.58196 980.97484,405.34338 983.73627,405.34338 986.49769,405.34338 988.73627,407.58196 988.73627,410.34338 z" />
      <text style="font-size:30; vertical-align:top; fill-opacity:1.0; fill:darkblue; text-anchor:right; stroke:none; font-weight:normal; font-style:italic; text-align:right; " transform="" id="A.FUS.text" y="403.343378751" x="990.736240613">
FUS</text>
      <circle style="stroke:gray; stroke-width:1; fill:none; " transform="" cy="1206.62791188" cx="840.663085938" r="5" id="A.FWS.inpoint" d="M 845.66309,1206.6279 C 845.66309,1209.3894 843.42451,1211.6279 840.66309,1211.6279 837.90166,1211.6279 835.66309,1209.3894 835.66309,1206.6279 835.66309,1203.8665 837.90166,1201.6279 840.66309,1201.6279 843.42451,1201.6279 845.66309,1203.8665 845.66309,1206.6279 z" />
      <text style="font-size:25; vertical-align:top; fill-opacity:1.0; fill:gray; text-anchor:right; stroke:none; font-weight:normal; font-style:italic; text-align:right; " transform="" id="A.FWS.inpoint.text" y="1199.62791188" x="847.663085938">
FWS.in</text>
      <circle style="stroke:red; stroke-width:1; fill:red; " transform="" cy="1192.7249741" cx="1038.67054744" r="5" id="A.FWS" d="M 1043.6705,1192.725 C 1043.6705,1195.4864 1041.432,1197.725 1038.6705,1197.725 1035.9091,1197.725 1033.6705,1195.4864 1033.6705,1192.725 1033.6705,1189.9636 1035.9091,1187.725 1038.6705,1187.725 1041.432,1187.725 1043.6705,1189.9636 1043.6705,1192.725 z" />
      <text style="font-size:30; vertical-align:top; fill-opacity:1.0; fill:darkblue; text-anchor:right; stroke:none; font-weight:normal; font-style:italic; text-align:right; " transform="" id="A.FWS.text" y="1185.7249741" x="1045.67054744">
FWS</text>
      <circle style="stroke:red; stroke-width:1; fill:red; " transform="" cy="637.795275591" cx="438.42114238" r="5" id="A.FD2" d="M 443.42114,637.79529 C 443.42114,640.55671 441.18257,642.79529 438.42114,642.79529 435.65972,642.79529 433.42114,640.55671 433.42114,637.79529 433.42114,635.03386 435.65972,632.79529 438.42114,632.79529 441.18257,632.79529 443.42114,635.03386 443.42114,637.79529 z" />
      <text style="font-size:30; vertical-align:top; fill-opacity:1.0; fill:darkblue; text-anchor:right; stroke:none; font-weight:normal; font-style:italic; text-align:right; " transform="" id="A.FD2.text" y="630.795275591" x="445.42114238">
FD2</text>
      <circle style="stroke:red; stroke-width:1; fill:red; " transform="" cy="637.795275591" cx="1059.11754711" r="5" id="A.FD2.i" d="M 1064.1176,637.79529 C 1064.1176,640.55671 1061.879,642.79529 1059.1176,642.79529 1056.3561,642.79529 1054.1176,640.55671 1054.1176,637.79529 1054.1176,635.03386 1056.3561,632.79529 1059.1176,632.79529 1061.879,632.79529 1064.1176,635.03386 1064.1176,637.79529 z" />
      <text style="font-size:30; vertical-align:top; fill-opacity:1.0; fill:darkblue; text-anchor:right; stroke:none; font-weight:normal; font-style:italic; text-align:right; " transform="" id="A.FD2.i.text" y="630.795275591" x="1066.11754711">
FD2.i</text>
      <circle style="stroke:red; stroke-width:1; fill:red; " transform="" cy="828.973311446" cx="1028.94208651" r="5" id="A.FD2.o" d="M 1033.9421,828.97333 C 1033.9421,831.73475 1031.7036,833.97333 1028.9421,833.97333 1026.1807,833.97333 1023.9421,831.73475 1023.9421,828.97333 1023.9421,826.2119 1026.1807,823.97333 1028.9421,823.97333 1031.7036,823.97333 1033.9421,826.2119 1033.9421,828.97333 z" />
      <text style="font-size:30; vertical-align:top; fill-opacity:1.0; fill:darkblue; text-anchor:right; stroke:none; font-weight:normal; font-style:italic; text-align:right; " transform="" id="A.FD2.o.text" y="821.973311446" x="1035.94208651">
FD2.o</text>
      <circle style="stroke:red; stroke-width:1; fill:red; " transform="" cy="1240.15748031" cx="270.633997225" r="5" id="A.f8" d="M 275.634,1240.1575 C 275.634,1242.9189 273.39543,1245.1575 270.634,1245.1575 267.87258,1245.1575 265.634,1242.9189 265.634,1240.1575 265.634,1237.396 267.87258,1235.1575 270.634,1235.1575 273.39543,1235.1575 275.634,1237.396 275.634,1240.1575 z" />
      <text style="font-size:30; vertical-align:top; fill-opacity:1.0; fill:darkblue; text-anchor:right; stroke:none; font-weight:normal; font-style:italic; text-align:right; " transform="" id="A.f8.text" y="1233.15748031" x="277.633997225">
f8</text>
      <circle style="stroke:red; stroke-width:1; fill:red; " transform="" cy="1240.15748031" cx="438.027420098" r="5" id="A.f9" d="M 443.02744,1240.1575 C 443.02744,1242.9189 440.78886,1245.1575 438.02744,1245.1575 435.26601,1245.1575 433.02744,1242.9189 433.02744,1240.1575 433.02744,1237.396 435.26601,1235.1575 438.02744,1235.1575 440.78886,1235.1575 443.02744,1237.396 443.02744,1240.1575 z" />
      <text style="font-size:30; vertical-align:top; fill-opacity:1.0; fill:darkblue; text-anchor:right; stroke:none; font-weight:normal; font-style:italic; text-align:right; " transform="" id="A.f9.text" y="1233.15748031" x="445.027420098">
f9</text>
      <circle style="stroke:red; stroke-width:1; fill:red; " transform="" cy="710.078740157" cx="354.330708661" r="5" id="A.FD1" d="M 359.33072,710.07874 C 359.33072,712.84016 357.09214,715.07874 354.33072,715.07874 351.5693,715.07874 349.33072,712.84016 349.33072,710.07874 349.33072,707.31731 351.5693,705.07874 354.33072,705.07874 357.09214,705.07874 359.33072,707.31731 359.33072,710.07874 z" />
      <text style="font-size:30; vertical-align:top; fill-opacity:1.0; fill:darkblue; text-anchor:right; stroke:none; font-weight:normal; font-style:italic; text-align:right; " transform="" id="A.FD1.text" y="703.078740157" x="361.330708661">
FD1</text>
      <circle style="stroke:gray; stroke-width:1; fill:none; " transform="" cy="1240.15748031" cx="170.37146643" r="5" id="A.FD1.i.inpoint" d="M 175.37146,1240.1575 C 175.37146,1242.9189 173.13288,1245.1575 170.37146,1245.1575 167.61004,1245.1575 165.37146,1242.9189 165.37146,1240.1575 165.37146,1237.396 167.61004,1235.1575 170.37146,1235.1575 173.13288,1235.1575 175.37146,1237.396 175.37146,1240.1575 z" />
      <text style="font-size:25; vertical-align:top; fill-opacity:1.0; fill:gray; text-anchor:right; stroke:none; font-weight:normal; font-style:italic; text-align:right; " transform="" id="A.FD1.i.inpoint.text" y="1233.15748031" x="177.37146643">
FD1.i.in</text>
      <circle style="stroke:red; stroke-width:1; fill:red; " transform="" cy="1255.60334164" cx="268.195175027" r="5" id="A.FD1.i" d="M 273.19516,1255.6034 C 273.19516,1258.3648 270.95658,1260.6034 268.19516,1260.6034 265.43374,1260.6034 263.19516,1258.3648 263.19516,1255.6034 263.19516,1252.842 265.43374,1250.6034 268.19516,1250.6034 270.95658,1250.6034 273.19516,1252.842 273.19516,1255.6034 z" />
      <text style="font-size:30; vertical-align:top; fill-opacity:1.0; fill:darkblue; text-anchor:right; stroke:none; font-weight:normal; font-style:italic; text-align:right; " transform="" id="A.FD1.i.text" y="1248.60334164" x="275.195175027">
FD1.i</text>
      <circle style="stroke:gray; stroke-width:1; fill:none; " transform="" cy="1224.31767642" cx="638.608627086" r="5" id="A.FD1.o.outpoint" d="M 643.60864,1224.3176 C 643.60864,1227.0791 641.37007,1229.3176 638.60864,1229.3176 635.84722,1229.3176 633.60864,1227.0791 633.60864,1224.3176 633.60864,1221.5562 635.84722,1219.3176 638.60864,1219.3176 641.37007,1219.3176 643.60864,1221.5562 643.60864,1224.3176 z" />
      <text style="font-size:25; vertical-align:top; fill-opacity:1.0; fill:gray; text-anchor:right; stroke:none; font-weight:normal; font-style:italic; text-align:right; " transform="" id="A.FD1.o.outpoint.text" y="1217.31767642" x="645.608627086">
FD1.o.out</text>
      <circle style="stroke:red; stroke-width:1; fill:red; " transform="" cy="1255.60334164" cx="440.466242295" r="5" id="A.FD1.o" d="M 445.46625,1255.6034 C 445.46625,1258.3648 443.22767,1260.6034 440.46625,1260.6034 437.70482,1260.6034 435.46625,1258.3648 435.46625,1255.6034 435.46625,1252.842 437.70482,1250.6034 440.46625,1250.6034 443.22767,1250.6034 445.46625,1252.842 445.46625,1255.6034 z" />
      <text style="font-size:30; vertical-align:top; fill-opacity:1.0; fill:darkblue; text-anchor:right; stroke:none; font-weight:normal; font-style:italic; text-align:right; " transform="" id="A.FD1.o.text" y="1248.60334164" x="447.466242295">
FD1.o</text>
      <path style="stroke-linejoin:miter; stroke-dashoffset:0; stroke:gray; stroke-miterlimit:4; stroke-dasharray:6,6; stroke-width:2; fill:none; " transform="" d="M 0.0  1240.15748031 L 717.519685039  -223.334513127 L 717.519685039  -318.897637795 L 0.0  -318.897637795 L 0.0  0.0 M 0.0  637.795275591 L 354.330708661  637.795275591 L 990.160477948  430.82332606 M 0.0  318.897637795 L 921.25984252  318.897637795 L 951.920432539  308.91716441 L 1164.03803945  985.130882295 L 1140.61090594  992.756759109 L 921.25984252  318.897637795 M 0.0  1240.15748031 L 354.330708661  1240.15748031 L 354.330708661  637.795275591 L 670.334447545  1150.61284812 L 1140.61090594  992.756759109 M 354.330708661  637.795275591 L 438.42114238  637.795275591 " id="A.gridline" />
    </g>
    <g id="document.bodice.Bodice Back.reference" transform=" translate(2312.108906, 580.552283)">
      <circle style="stroke:gray; stroke-width:1; fill:none; " transform="" cy="0.0" cx="-213.353231784" r="5" id="B.BNC.inpoint" d="M -208.35323,0 C -208.35323,2.7614237 -210.5918,5 -213.35323,5 -216.11465,5 -218.35323,2.7614237 -218.35323,0 -218.35323,-2.7614237 -216.11465,-5 -213.35323,-5 -210.5918,-5 -208.35323,-2.7614237 -208.35323,0 z" />
      <text style="font-size:25; vertical-align:top; fill-opacity:1.0; fill:gray; text-anchor:right; stroke:none; font-weight:normal; font-style:italic; text-align:right; " transform="" id="B.BNC.inpoint.text" y="-7.0" x="-206.353231784">
BNC.in</text>
      <circle style="stroke:red; stroke-width:1; fill:red; " transform="" cy="0.0" cx="0.0" r="5" id="B.BNC" d="M 5,0 C 5,2.7614237 2.7614237,5 0,5 -2.7614237,5 -5,2.7614237 -5,0 -5,-2.7614237 -2.7614237,-5 0,-5 2.7614237,-5 5,-2.7614237 5,0 z" />
      <text style="font-size:30; vertical-align:top; fill-opacity:1.0; fill:darkblue; text-anchor:right; stroke:none; font-weight:normal; font-style:italic; text-align:right; " transform="" id="B.BNC.text" y="-7.0" x="7.0">
BNC</text>
      <circle style="stroke:gray; stroke-width:1; fill:none; " transform="" cy="1346.45669291" cx="-122.401866328" r="5" id="B.BWC.outpoint" d="M -117.40186,1346.4567 C -117.40186,1349.2181 -119.64044,1351.4567 -122.40186,1351.4567 -125.16329,1351.4567 -127.40186,1349.2181 -127.40186,1346.4567 -127.40186,1343.6952 -125.16329,1341.4567 -122.40186,1341.4567 -119.64044,1341.4567 -117.40186,1343.6952 -117.40186,1346.4567 z" />
      <text style="font-size:25; vertical-align:top; fill-opacity:1.0; fill:gray; text-anchor:right; stroke:none; font-weight:normal; font-style:italic; text-align:right; " transform="" id="B.BWC.outpoint.text" y="1339.45669291" x="-115.401866328">
BWC.out</text>
      <circle style="stroke:red; stroke-width:1; fill:red; " transform="" cy="1346.45669291" cx="0.0" r="5" id="B.BWC" d="M 5,1346.4567 C 5,1349.2181 2.7614237,1351.4567 0,1351.4567 -2.7614237,1351.4567 -5,1349.2181 -5,1346.4567 -5,1343.6952 -2.7614237,1341.4567 0,1341.4567 2.7614237,1341.4567 5,1343.6952 5,1346.4567 z" />
      <text style="font-size:30; vertical-align:top; fill-opacity:1.0; fill:darkblue; text-anchor:right; stroke:none; font-weight:normal; font-style:italic; text-align:right; " transform="" id="B.BWC.text" y="1339.45669291" x="7.0">
BWC</text>
      <circle style="stroke:red; stroke-width:1; fill:red; " transform="" cy="-141.732283465" cx="0.0" r="5" id="B.BSH" d="M 5,-141.73228 C 5,-138.97086 2.7614237,-136.73228 0,-136.73228 -2.7614237,-136.73228 -5,-138.97086 -5,-141.73228 -5,-144.49371 -2.7614237,-146.73228 0,-146.73228 2.7614237,-146.73228 5,-144.49371 5,-141.73228 z" />
      <text style="font-size:30; vertical-align:top; fill-opacity:1.0; fill:darkblue; text-anchor:right; stroke:none; font-weight:normal; font-style:italic; text-align:right; " transform="" id="B.BSH.text" y="-148.732283465" x="7.0">
BSH</text>
      <circle style="stroke:red; stroke-width:1; fill:red; " transform="" cy="-141.732283465" cx="-708.661417323" r="5" id="B.BSW" d="M -703.66144,-141.73228 C -703.66144,-138.97086 -705.90001,-136.73228 -708.66144,-136.73228 -711.42286,-136.73228 -713.66144,-138.97086 -713.66144,-141.73228 -713.66144,-144.49371 -711.42286,-146.73228 -708.66144,-146.73228 -705.90001,-146.73228 -703.66144,-144.49371 -703.66144,-141.73228 z" />
      <text style="font-size:30; vertical-align:top; fill-opacity:1.0; fill:darkblue; text-anchor:right; stroke:none; font-weight:normal; font-style:italic; text-align:right; " transform="" id="B.BSW.text" y="-148.732283465" x="-701.661417323">
BSW</text>
      <circle style="stroke:gray; stroke-width:1; fill:none; " transform="" cy="130.711716533" cx="-690.415334864" r="5" id="B.BSP.inpoint" d="M -685.41534,130.71172 C -685.41534,133.47314 -687.65392,135.71172 -690.41534,135.71172 -693.17677,135.71172 -695.41534,133.47314 -695.41534,130.71172 -695.41534,127.95029 -693.17677,125.71172 -690.41534,125.71172 -687.65392,125.71172 -685.41534,127.95029 -685.41534,130.71172 z" />
      <text style="font-size:25; vertical-align:top; fill-opacity:1.0; fill:gray; text-anchor:right; stroke:none; font-weight:normal; font-style:italic; text-align:right; " transform="" id="B.BSP.inpoint.text" y="123.711716533" x="-683.415334864">
BSP.in</text>
      <circle style="stroke:red; stroke-width:1; fill:red; " transform="" cy="82.1684498171" cx="-715.624177057" r="5" id="B.BSP" d="M -710.62421,82.168449 C -710.62421,84.929873 -712.86278,87.168449 -715.62421,87.168449 -718.38563,87.168449 -720.62421,84.929873 -720.62421,82.168449 -720.62421,79.407026 -718.38563,77.168449 -715.62421,77.168449 -712.86278,77.168449 -710.62421,79.407026 -710.62421,82.168449 z" />
      <text style="font-size:30; vertical-align:top; fill-opacity:1.0; fill:darkblue; text-anchor:right; stroke:none; font-weight:normal; font-style:italic; text-align:right; " transform="" id="B.BSP.text" y="75.1684498171" x="-708.624177057">
BSP</text>
      <circle style="stroke:gray; stroke-width:1; fill:none; " transform="" cy="-78.3927191927" cx="-252.688753608" r="5" id="B.BNS.outpoint" d="M -247.68875,-78.392715 C -247.68875,-75.631292 -249.92733,-73.392715 -252.68875,-73.392715 -255.45017,-73.392715 -257.68875,-75.631292 -257.68875,-78.392715 -257.68875,-81.154139 -255.45017,-83.392715 -252.68875,-83.392715 -249.92733,-83.392715 -247.68875,-81.154139 -247.68875,-78.392715 z" />
      <text style="font-size:25; vertical-align:top; fill-opacity:1.0; fill:gray; text-anchor:right; stroke:none; font-weight:normal; font-style:italic; text-align:right; " transform="" id="B.BNS.outpoint.text" y="-85.3927191927" x="-245.688753608">
BNS.out</text>
      <circle style="stroke:red; stroke-width:1; fill:red; " transform="" cy="-141.732283465" cx="-284.470975712" r="5" id="B.BNS" d="M -279.47098,-141.73228 C -279.47098,-138.97086 -281.70955,-136.73228 -284.47098,-136.73228 -287.2324,-136.73228 -289.47098,-138.97086 -289.47098,-141.73228 -289.47098,-144.49371 -287.2324,-146.73228 -284.47098,-146.73228 -281.70955,-146.73228 -279.47098,-144.49371 -279.47098,-141.73228 z" />
      <text style="font-size:30; vertical-align:top; fill-opacity:1.0; fill:darkblue; text-anchor:right; stroke:none; font-weight:normal; font-style:italic; text-align:right; " transform="" id="B.BNS.text" y="-148.732283465" x="-277.470975712">
BNS</text>
      <circle style="stroke:red; stroke-width:1; fill:red; " transform="" cy="637.795275591" cx="0.0" r="5" id="B.BUC" d="M 5,637.79529 C 5,640.55671 2.7614237,642.79529 0,642.79529 -2.7614237,642.79529 -5,640.55671 -5,637.79529 -5,635.03386 -2.7614237,632.79529 0,632.79529 2.7614237,632.79529 5,635.03386 5,637.79529 z" />
      <text style="font-size:30; vertical-align:top; fill-opacity:1.0; fill:darkblue; text-anchor:right; stroke:none; font-weight:normal; font-style:italic; text-align:right; " transform="" id="B.BUC.text" y="630.795275591" x="7.0">
BUC</text>
      <circle style="stroke:red; stroke-width:1; fill:red; " transform="" cy="637.795275591" cx="-627.342519685" r="5" id="B.b7" d="M -622.34253,637.79529 C -622.34253,640.55671 -624.58111,642.79529 -627.34253,642.79529 -630.10395,642.79529 -632.34253,640.55671 -632.34253,637.79529 -632.34253,635.03386 -630.10395,632.79529 -627.34253,632.79529 -624.58111,632.79529 -622.34253,635.03386 -622.34253,637.79529 z" />
      <text style="font-size:30; vertical-align:top; fill-opacity:1.0; fill:darkblue; text-anchor:right; stroke:none; font-weight:normal; font-style:italic; text-align:right; " transform="" id="B.b7.text" y="630.795275591" x="-620.342519685">
b7</text>
      <circle style="stroke:gray; stroke-width:1; fill:none; " transform="" cy="733.377261929" cx="-694.340559474" r="5" id="B.BAP.inpoint" d="M -689.34058,733.37726 C -689.34058,736.13868 -691.57915,738.37726 -694.34058,738.37726 -697.102,738.37726 -699.34058,736.13868 -699.34058,733.37726 -699.34058,730.61583 -697.102,728.37726 -694.34058,728.37726 -691.57915,728.37726 -689.34058,730.61583 -689.34058,733.37726 z" />
      <text style="font-size:25; vertical-align:top; fill-opacity:1.0; fill:gray; text-anchor:right; stroke:none; font-weight:normal; font-style:italic; text-align:right; " transform="" id="B.BAP.inpoint.text" y="726.377261929" x="-687.340559474">
BAP.in</text>
      <circle style="stroke:gray; stroke-width:1; fill:none; " transform="" cy="318.583235139" cx="-600.895845793" r="5" id="B.BAP.outpoint" d="M -595.89587,318.58322 C -595.89587,321.34465 -598.13445,323.58322 -600.89587,323.58322 -603.6573,323.58322 -605.89587,321.34465 -605.89587,318.58322 -605.89587,315.8218 -603.6573,313.58322 -600.89587,313.58322 -598.13445,313.58322 -595.89587,315.8218 -595.89587,318.58322 z" />
      <text style="font-size:25; vertical-align:top; fill-opacity:1.0; fill:gray; text-anchor:right; stroke:none; font-weight:normal; font-style:italic; text-align:right; " transform="" id="B.BAP.outpoint.text" y="311.583235139" x="-593.895845793">
BAP.out</text>
      <circle style="stroke:red; stroke-width:1; fill:red; " transform="" cy="435.978023208" cx="-627.342519685" r="5" id="B.BAP" d="M -622.34253,435.97803 C -622.34253,438.73945 -624.58111,440.97803 -627.34253,440.97803 -630.10395,440.97803 -632.34253,438.73945 -632.34253,435.97803 -632.34253,433.2166 -630.10395,430.97803 -627.34253,430.97803 -624.58111,430.97803 -622.34253,433.2166 -622.34253,435.97803 z" />
      <text style="font-size:30; vertical-align:top; fill-opacity:1.0; fill:darkblue; text-anchor:right; stroke:none; font-weight:normal; font-style:italic; text-align:right; " transform="" id="B.BAP.text" y="428.978023208" x="-620.342519685">
BAP</text>
      <circle style="stroke:red; stroke-width:1; fill:red; " transform="" cy="637.795275591" cx="-885.826771654" r="5" id="B.b1" d="M -880.82678,637.79529 C -880.82678,640.55671 -883.06536,642.79529 -885.82678,642.79529 -888.58821,642.79529 -890.82678,640.55671 -890.82678,637.79529 -890.82678,635.03386 -888.58821,632.79529 -885.82678,632.79529 -883.06536,632.79529 -880.82678,635.03386 -880.82678,637.79529 z" />
      <text style="font-size:30; vertical-align:top; fill-opacity:1.0; fill:darkblue; text-anchor:right; stroke:none; font-weight:normal; font-style:italic; text-align:right; " transform="" id="B.b1.text" y="630.795275591" x="-878.826771654">
b1</text>
      <circle style="stroke:red; stroke-width:1; fill:red; " transform="" cy="488.293538101" cx="-464.721403086" r="5" id="B.BD1" d="M -459.72141,488.29355 C -459.72141,491.05497 -461.95998,493.29355 -464.72141,493.29355 -467.48283,493.29355 -469.72141,491.05497 -469.72141,488.29355 -469.72141,485.53212 -467.48283,483.29355 -464.72141,483.29355 -461.95998,483.29355 -459.72141,485.53212 -459.72141,488.29355 z" />
      <text style="font-size:30; vertical-align:top; fill-opacity:1.0; fill:darkblue; text-anchor:right; stroke:none; font-weight:normal; font-style:italic; text-align:right; " transform="" id="B.BD1.text" y="481.293538101" x="-457.721403086">
BD1</text>
      <circle style="stroke:red; stroke-width:1; fill:red; " transform="" cy="1346.45669291" cx="-464.721403086" r="5" id="B.b2" d="M -459.72141,1346.4567 C -459.72141,1349.2181 -461.95998,1351.4567 -464.72141,1351.4567 -467.48283,1351.4567 -469.72141,1349.2181 -469.72141,1346.4567 -469.72141,1343.6952 -467.48283,1341.4567 -464.72141,1341.4567 -461.95998,1341.4567 -459.72141,1343.6952 -459.72141,1346.4567 z" />
      <text style="font-size:30; vertical-align:top; fill-opacity:1.0; fill:darkblue; text-anchor:right; stroke:none; font-weight:normal; font-style:italic; text-align:right; " transform="" id="B.b2.text" y="1339.45669291" x="-457.721403086">
b2</text>
      <circle style="stroke:red; stroke-width:1; fill:red; " transform="" cy="1346.45669291" cx="-371.777122469" r="5" id="B.b3" d="M -366.77713,1346.4567 C -366.77713,1349.2181 -369.01571,1351.4567 -371.77713,1351.4567 -374.53855,1351.4567 -376.77713,1349.2181 -376.77713,1346.4567 -376.77713,1343.6952 -374.53855,1341.4567 -371.77713,1341.4567 -369.01571,1341.4567 -366.77713,1343.6952 -366.77713,1346.4567 z" />
      <text style="font-size:30; vertical-align:top; fill-opacity:1.0; fill:darkblue; text-anchor:right; stroke:none; font-weight:normal; font-style:italic; text-align:right; " transform="" id="B.b3.text" y="1339.45669291" x="-364.777122469">
b3</text>
      <circle style="stroke:red; stroke-width:1; fill:red; " transform="" cy="1346.45669291" cx="-557.665683703" r="5" id="B.b4" d="M -552.66571,1346.4567 C -552.66571,1349.2181 -554.90429,1351.4567 -557.66571,1351.4567 -560.42713,1351.4567 -562.66571,1349.2181 -562.66571,1346.4567 -562.66571,1343.6952 -560.42713,1341.4567 -557.66571,1341.4567 -554.90429,1341.4567 -552.66571,1343.6952 -552.66571,1346.4567 z" />
      <text style="font-size:30; vertical-align:top; fill-opacity:1.0; fill:darkblue; text-anchor:right; stroke:none; font-weight:normal; font-style:italic; text-align:right; " transform="" id="B.b4.text" y="1339.45669291" x="-550.665683703">
b4</text>
      <circle style="stroke:gray; stroke-width:1; fill:none; " transform="" cy="1346.45669291" cx="-288.057040113" r="5" id="B.BD1.i.inpoint" d="M -283.05704,1346.4567 C -283.05704,1349.2181 -285.29561,1351.4567 -288.05704,1351.4567 -290.81846,1351.4567 -293.05704,1349.2181 -293.05704,1346.4567 -293.05704,1343.6952 -290.81846,1341.4567 -288.05704,1341.4567 -285.29561,1341.4567 -283.05704,1343.6952 -283.05704,1346.4567 z" />
      <text style="font-size:25; vertical-align:top; fill-opacity:1.0; fill:gray; text-anchor:right; stroke:none; font-weight:normal; font-style:italic; text-align:right; " transform="" id="B.BD1.i.inpoint.text" y="1339.45669291" x="-281.057040113">
BD1.i.in</text>
      <circle style="stroke:red; stroke-width:1; fill:red; " transform="" cy="1355.418957" cx="-370.806454847" r="5" id="B.BD1.i" d="M -365.80646,1355.4189 C -365.80646,1358.1804 -368.04503,1360.4189 -370.80646,1360.4189 -373.56788,1360.4189 -375.80646,1358.1804 -375.80646,1355.4189 -375.80646,1352.6575 -373.56788,1350.4189 -370.80646,1350.4189 -368.04503,1350.4189 -365.80646,1352.6575 -365.80646,1355.4189 z" />
      <text style="font-size:30; vertical-align:top; fill-opacity:1.0; fill:darkblue; text-anchor:right; stroke:none; font-weight:normal; font-style:italic; text-align:right; " transform="" id="B.BD1.i.text" y="1348.418957" x="-363.806454847">
BD1.i</text>
      <circle style="stroke:gray; stroke-width:1; fill:none; " transform="" cy="1346.32554111" cx="-642.59670283" r="5" id="B.BD1.o.outpoint" d="M -637.59668,1346.3256 C -637.59668,1349.087 -639.83526,1351.3256 -642.59668,1351.3256 -645.3581,1351.3256 -647.59668,1349.087 -647.59668,1346.3256 -647.59668,1343.5641 -645.3581,1341.3256 -642.59668,1341.3256 -639.83526,1341.3256 -637.59668,1343.5641 -637.59668,1346.3256 z" />
      <text style="font-size:25; vertical-align:top; fill-opacity:1.0; fill:gray; text-anchor:right; stroke:none; font-weight:normal; font-style:italic; text-align:right; " transform="" id="B.BD1.o.outpoint.text" y="1339.32554111" x="-635.59670283">
BD1.o.out</text>
      <circle style="stroke:red; stroke-width:1; fill:red; " transform="" cy="1355.418957" cx="-558.636351325" r="5" id="B.BD1.o" d="M -553.63635,1355.4189 C -553.63635,1358.1804 -555.87493,1360.4189 -558.63635,1360.4189 -561.39778,1360.4189 -563.63635,1358.1804 -563.63635,1355.4189 -563.63635,1352.6575 -561.39778,1350.4189 -558.63635,1350.4189 -555.87493,1350.4189 -553.63635,1352.6575 -553.63635,1355.4189 z" />
      <text style="font-size:30; vertical-align:top; fill-opacity:1.0; fill:darkblue; text-anchor:right; stroke:none; font-weight:normal; font-style:italic; text-align:right; " transform="" id="B.BD1.o.text" y="1348.418957" x="-551.636351325">
BD1.o</text>
      <circle style="stroke:red; stroke-width:1; fill:red; " transform="" cy="1345.95314295" cx="-859.116487121" r="5" id="B.b5" d="M -854.11652,1345.9531 C -854.11652,1348.7145 -856.35509,1350.9531 -859.11652,1350.9531 -861.87794,1350.9531 -864.11652,1348.7145 -864.11652,1345.9531 -864.11652,1343.1917 -861.87794,1340.9531 -859.11652,1340.9531 -856.35509,1340.9531 -854.11652,1343.1917 -854.11652,1345.9531 z" />
      <text style="font-size:30; vertical-align:top; fill-opacity:1.0; fill:darkblue; text-anchor:right; stroke:none; font-weight:normal; font-style:italic; text-align:right; " transform="" id="B.b5.text" y="1338.95314295" x="-852.116487121">
b5</text>
      <circle style="stroke:red; stroke-width:1; fill:red; " transform="" cy="637.795275591" cx="-918.070866142" r="5" id="B.b6" d="M -913.07086,637.79529 C -913.07086,640.55671 -915.30944,642.79529 -918.07086,642.79529 -920.83229,642.79529 -923.07086,640.55671 -923.07086,637.79529 -923.07086,635.03386 -920.83229,632.79529 -918.07086,632.79529 -915.30944,632.79529 -913.07086,635.03386 -913.07086,637.79529 z" />
      <text style="font-size:30; vertical-align:top; fill-opacity:1.0; fill:darkblue; text-anchor:right; stroke:none; font-weight:normal; font-style:italic; text-align:right; " transform="" id="B.b6.text" y="630.795275591" x="-911.070866142">
b6</text>
      <circle style="stroke:gray; stroke-width:1; fill:none; " transform="" cy="1346.1188898" cx="-776.4195345" r="5" id="B.BWS.inpoint" d="M -771.41956,1346.1189 C -771.41956,1348.8803 -773.65813,1351.1189 -776.41956,1351.1189 -779.18098,1351.1189 -781.41956,1348.8803 -781.41956,1346.1189 -781.41956,1343.3575 -779.18098,1341.1189 -776.41956,1341.1189 -773.65813,1341.1189 -771.41956,1343.3575 -771.41956,1346.1189 z" />
      <text style="font-size:25; vertical-align:top; fill-opacity:1.0; fill:gray; text-anchor:right; stroke:none; font-weight:normal; font-style:italic; text-align:right; " transform="" id="B.BWS.inpoint.text" y="1339.1188898" x="-769.4195345">
BWS.in</text>
      <circle style="stroke:red; stroke-width:1; fill:red; " transform="" cy="1345.95314295" cx="-883.753544208" r="5" id="B.BWS" d="M -878.75354,1345.9531 C -878.75354,1348.7145 -880.99212,1350.9531 -883.75354,1350.9531 -886.51496,1350.9531 -888.75354,1348.7145 -888.75354,1345.9531 -888.75354,1343.1917 -886.51496,1340.9531 -883.75354,1340.9531 -880.99212,1340.9531 -878.75354,1343.1917 -878.75354,1345.9531 z" />
      <text style="font-size:30; vertical-align:top; fill-opacity:1.0; fill:darkblue; text-anchor:right; stroke:none; font-weight:normal; font-style:italic; text-align:right; " transform="" id="B.BWS.text" y="1338.95314295" x="-876.753544208">
BWS</text>
      <circle style="stroke:gray; stroke-width:1; fill:none; " transform="" cy="739.408258567" cx="-818.793677498" r="5" id="B.BUS.outpoint" d="M -813.7937,739.40826 C -813.7937,742.16969 -816.03228,744.40826 -818.7937,744.40826 -821.55512,744.40826 -823.7937,742.16969 -823.7937,739.40826 -823.7937,736.64684 -821.55512,734.40826 -818.7937,734.40826 -816.03228,734.40826 -813.7937,736.64684 -813.7937,739.40826 z" />
      <text style="font-size:25; vertical-align:top; fill-opacity:1.0; fill:gray; text-anchor:right; stroke:none; font-weight:normal; font-style:italic; text-align:right; " transform="" id="B.BUS.outpoint.text" y="732.408258567" x="-811.793677498">
BUS.out</text>
      <circle style="stroke:red; stroke-width:1; fill:red; " transform="" cy="743.969892628" cx="-912.925645447" r="5" id="B.BUS" d="M -907.92566,743.96991 C -907.92566,746.73133 -910.16424,748.96991 -912.92566,748.96991 -915.68708,748.96991 -917.92566,746.73133 -917.92566,743.96991 -917.92566,741.20849 -915.68708,738.96991 -912.92566,738.96991 -910.16424,738.96991 -907.92566,741.20849 -907.92566,743.96991 z" />
      <text style="font-size:30; vertical-align:top; fill-opacity:1.0; fill:darkblue; text-anchor:right; stroke:none; font-weight:normal; font-style:italic; text-align:right; " transform="" id="B.BUS.text" y="736.969892628" x="-905.925645447">
BUS</text>
      <circle style="stroke:red; stroke-width:1; fill:red; " transform="" cy="104.234043908" cx="-430.45219408" r="5" id="B.BD2" d="M -425.45218,104.23405 C -425.45218,106.99547 -427.69076,109.23405 -430.45218,109.23405 -433.2136,109.23405 -435.45218,106.99547 -435.45218,104.23405 -435.45218,101.47262 -433.2136,99.234047 -430.45218,99.234047 -427.69076,99.234047 -425.45218,101.47262 -425.45218,104.23405 z" />
      <text style="font-size:30; vertical-align:top; fill-opacity:1.0; fill:darkblue; text-anchor:right; stroke:none; font-weight:normal; font-style:italic; text-align:right; " transform="" id="B.BD2.text" y="97.2340439084" x="-423.45219408">
BD2</text>
      <circle style="stroke:red; stroke-width:1; fill:red; " transform="" cy="-51.9514480849" cx="-496.566196517" r="5" id="B.BD2.i" d="M -491.56619,-51.951447 C -491.56619,-49.190023 -493.80477,-46.951447 -496.56619,-46.951447 -499.32762,-46.951447 -501.56619,-49.190023 -501.56619,-51.951447 -501.56619,-54.71287 -499.32762,-56.951447 -496.56619,-56.951447 -493.80477,-56.951447 -491.56619,-54.71287 -491.56619,-51.951447 z" />
      <text style="font-size:30; vertical-align:top; fill-opacity:1.0; fill:darkblue; text-anchor:right; stroke:none; font-weight:normal; font-style:italic; text-align:right; " transform="" id="B.BD2.i.text" y="-58.9514480849" x="-489.566196517">
BD2.i</text>
      <circle style="stroke:red; stroke-width:1; fill:red; " transform="" cy="-39.6860369005" cx="-520.185017325" r="5" id="B.BD2.o" d="M -515.185,-39.686035 C -515.185,-36.924611 -517.42357,-34.686035 -520.185,-34.686035 -522.94642,-34.686035 -525.185,-36.924611 -525.185,-39.686035 -525.185,-42.447459 -522.94642,-44.686035 -520.185,-44.686035 -517.42357,-44.686035 -515.185,-42.447459 -515.185,-39.686035 z" />
      <text style="font-size:30; vertical-align:top; fill-opacity:1.0; fill:darkblue; text-anchor:right; stroke:none; font-weight:normal; font-style:italic; text-align:right; " transform="" id="B.BD2.o.text" y="-46.6860369005" x="-513.185017325">
BD2.o</text>
      <path style="stroke-linejoin:miter; stroke-dashoffset:0; stroke:gray; stroke-miterlimit:4; stroke-dasharray:6,6; stroke-width:2; fill:none; " transform="" d="M 0.0  1346.45669291 L -715.624177057  82.1684498171 L -708.661417323  -141.732283465 L 0.0  -141.732283465 L 0.0  637.795275591 L -918.070866142  637.795275591 L -912.925645447  743.969892628 M -885.826771654  637.795275591 L -859.116487121  1345.95314295 L -883.753544208  1345.95314295 " id="B.gridline" />
    </g>
    <g id="document.bodice.Bodice Sleeve.reference" transform=" translate(835.539131, 2240.132645)">
      <circle style="stroke:gray; stroke-width:1; fill:none; " transform="" cy="0.0" cx="216.554002117" r="5" id="C.SCM.inpoint" d="M 221.554,0 C 221.554,2.7614237 219.31542,5 216.554,5 213.79258,5 211.554,2.7614237 211.554,0 211.554,-2.7614237 213.79258,-5 216.554,-5 219.31542,-5 221.554,-2.7614237 221.554,0 z" />
      <text style="font-size:25; vertical-align:top; fill-opacity:1.0; fill:gray; text-anchor:right; stroke:none; font-weight:normal; font-style:italic; text-align:right; " transform="" id="C.SCM.inpoint.text" y="-7.0" x="223.554002117">
SCM.in</text>
      <circle style="stroke:gray; stroke-width:1; fill:none; " transform="" cy="0.0" cx="-242.386393361" r="5" id="C.SCM.outpoint" d="M -237.3864,0 C -237.3864,2.7614237 -239.62497,5 -242.3864,5 -245.14782,5 -247.3864,2.7614237 -247.3864,0 -247.3864,-2.7614237 -245.14782,-5 -242.3864,-5 -239.62497,-5 -237.3864,-2.7614237 -237.3864,0 z" />
      <text style="font-size:25; vertical-align:top; fill-opacity:1.0; fill:gray; text-anchor:right; stroke:none; font-weight:normal; font-style:italic; text-align:right; " transform="" id="C.SCM.outpoint.text" y="-7.0" x="-235.386393361">
SCM.out</text>
      <circle style="stroke:red; stroke-width:1; fill:red; " transform="" cy="0.0" cx="0.0" r="5" id="C.SCM" d="M 5,0 C 5,2.7614237 2.7614237,5 0,5 -2.7614237,5 -5,2.7614237 -5,0 -5,-2.7614237 -2.7614237,-5 0,-5 2.7614237,-5 5,-2.7614237 5,0 z" />
      <text style="font-size:30; vertical-align:top; fill-opacity:1.0; fill:darkblue; text-anchor:right; stroke:none; font-weight:normal; font-style:italic; text-align:right; " transform="" id="C.SCM.text" y="-7.0" x="7.0">
SCM</text>
      <circle style="stroke:red; stroke-width:1; fill:red; " transform="" cy="430.218389926" cx="0.0" r="5" id="C.SUM" d="M 5,430.21838 C 5,432.97981 2.7614237,435.21838 0,435.21838 -2.7614237,435.21838 -5,432.97981 -5,430.21838 -5,427.45696 -2.7614237,425.21838 0,425.21838 2.7614237,425.21838 5,427.45696 5,430.21838 z" />
      <text style="font-size:30; vertical-align:top; fill-opacity:1.0; fill:darkblue; text-anchor:right; stroke:none; font-weight:normal; font-style:italic; text-align:right; " transform="" id="C.SUM.text" y="423.218389926" x="7.0">
SUM</text>
      <circle style="stroke:gray; stroke-width:1; fill:none; " transform="" cy="430.218389926" cx="588.221682676" r="5" id="C.SUB.outpoint" d="M 593.22168,430.21838 C 593.22168,432.97981 590.9831,435.21838 588.22168,435.21838 585.46026,435.21838 583.22168,432.97981 583.22168,430.21838 583.22168,427.45696 585.46026,425.21838 588.22168,425.21838 590.9831,425.21838 593.22168,427.45696 593.22168,430.21838 z" />
      <text style="font-size:25; vertical-align:top; fill-opacity:1.0; fill:gray; text-anchor:right; stroke:none; font-weight:normal; font-style:italic; text-align:right; " transform="" id="C.SUB.outpoint.text" y="423.218389926" x="595.221682676">
SUB.out</text>
      <circle style="stroke:red; stroke-width:1; fill:red; " transform="" cy="430.218389926" cx="661.714824465" r="5" id="C.SUB" d="M 666.71484,430.21838 C 666.71484,432.97981 664.47627,435.21838 661.71484,435.21838 658.95342,435.21838 656.71484,432.97981 656.71484,430.21838 656.71484,427.45696 658.95342,425.21838 661.71484,425.21838 664.47627,425.21838 666.71484,427.45696 666.71484,430.21838 z" />
      <text style="font-size:30; vertical-align:top; fill-opacity:1.0; fill:darkblue; text-anchor:right; stroke:none; font-weight:normal; font-style:italic; text-align:right; " transform="" id="C.SUB.text" y="423.218389926" x="668.714824465">
SUB</text>
      <circle style="stroke:gray; stroke-width:1; fill:none; " transform="" cy="430.218389926" cx="-691.164932339" r="5" id="C.SUF.inpoint" d="M -686.16492,430.21838 C -686.16492,432.97981 -688.40349,435.21838 -691.16492,435.21838 -693.92634,435.21838 -696.16492,432.97981 -696.16492,430.21838 -696.16492,427.45696 -693.92634,425.21838 -691.16492,425.21838 -688.40349,425.21838 -686.16492,427.45696 -686.16492,430.21838 z" />
      <text style="font-size:25; vertical-align:top; fill-opacity:1.0; fill:gray; text-anchor:right; stroke:none; font-weight:normal; font-style:italic; text-align:right; " transform="" id="C.SUF.inpoint.text" y="423.218389926" x="-684.164932339">
SUF.in</text>
      <circle style="stroke:gray; stroke-width:1; fill:none; " transform="" cy="712.609861838" cx="-662.063597896" r="5" id="C.SUF.outpoint" d="M -657.0636,712.60986 C -657.0636,715.37129 -659.30217,717.60986 -662.0636,717.60986 -664.82502,717.60986 -667.0636,715.37129 -667.0636,712.60986 -667.0636,709.84844 -664.82502,707.60986 -662.0636,707.60986 -659.30217,707.60986 -657.0636,709.84844 -657.0636,712.60986 z" />
      <text style="font-size:25; vertical-align:top; fill-opacity:1.0; fill:gray; text-anchor:right; stroke:none; font-weight:normal; font-style:italic; text-align:right; " transform="" id="C.SUF.outpoint.text" y="705.609861838" x="-655.063597896">
SUF.out</text>
      <circle style="stroke:red; stroke-width:1; fill:red; " transform="" cy="430.218389926" cx="-744.456453362" r="5" id="C.SUF" d="M -739.45648,430.21838 C -739.45648,432.97981 -741.69506,435.21838 -744.45648,435.21838 -747.21791,435.21838 -749.45648,432.97981 -749.45648,430.21838 -749.45648,427.45696 -747.21791,425.21838 -744.45648,425.21838 -741.69506,425.21838 -739.45648,427.45696 -739.45648,430.21838 z" />
      <text style="font-size:30; vertical-align:top; fill-opacity:1.0; fill:darkblue; text-anchor:right; stroke:none; font-weight:normal; font-style:italic; text-align:right; " transform="" id="C.SUF.text" y="423.218389926" x="-737.456453362">
SUF</text>
      <circle style="stroke:gray; stroke-width:1; fill:none; " transform="" cy="126.317082749" cx="264.137831075" r="5" id="C.s1.outpoint" d="M 269.13782,126.31709 C 269.13782,129.07851 266.89924,131.31709 264.13782,131.31709 261.37639,131.31709 259.13782,129.07851 259.13782,126.31709 259.13782,123.55566 261.37639,121.31709 264.13782,121.31709 266.89924,121.31709 269.13782,123.55566 269.13782,126.31709 z" />
      <text style="font-size:25; vertical-align:top; fill-opacity:1.0; fill:gray; text-anchor:right; stroke:none; font-weight:normal; font-style:italic; text-align:right; " transform="" id="C.s1.outpoint.text" y="119.317082749" x="271.137831075">
s1.out</text>
      <circle style="stroke:gray; stroke-width:1; fill:none; " transform="" cy="326.083409053" cx="339.390097003" r="5" id="C.s1.inpoint" d="M 344.39011,326.0834 C 344.39011,328.84483 342.15153,331.0834 339.39011,331.0834 336.62868,331.0834 334.39011,328.84483 334.39011,326.0834 334.39011,323.32198 336.62868,321.0834 339.39011,321.0834 342.15153,321.0834 344.39011,323.32198 344.39011,326.0834 z" />
      <text style="font-size:25; vertical-align:top; fill-opacity:1.0; fill:gray; text-anchor:right; stroke:none; font-weight:normal; font-style:italic; text-align:right; " transform="" id="C.s1.inpoint.text" y="319.083409053" x="346.390097003">
s1.in</text>
      <circle style="stroke:red; stroke-width:1; fill:red; " transform="" cy="188.532959327" cx="287.574642352" r="5" id="C.s1" d="M 292.57465,188.53296 C 292.57465,191.29438 290.33607,193.53296 287.57465,193.53296 284.81322,193.53296 282.57465,191.29438 282.57465,188.53296 282.57465,185.77154 284.81322,183.53296 287.57465,183.53296 290.33607,183.53296 292.57465,185.77154 292.57465,188.53296 z" />
      <text style="font-size:30; vertical-align:top; fill-opacity:1.0; fill:darkblue; text-anchor:right; stroke:none; font-weight:normal; font-style:italic; text-align:right; " transform="" id="C.s1.text" y="181.532959327" x="294.574642352">
s1</text>
      <circle style="stroke:gray; stroke-width:1; fill:none; " transform="" cy="181.798744532" cx="-390.369280082" r="5" id="C.s2.inpoint" d="M -385.36929,181.79875 C -385.36929,184.56018 -387.60787,186.79875 -390.36929,186.79875 -393.13072,186.79875 -395.36929,184.56018 -395.36929,181.79875 -395.36929,179.03733 -393.13072,176.79875 -390.36929,176.79875 -387.60787,176.79875 -385.36929,179.03733 -385.36929,181.79875 z" />
      <text style="font-size:25; vertical-align:top; fill-opacity:1.0; fill:gray; text-anchor:right; stroke:none; font-weight:normal; font-style:italic; text-align:right; " transform="" id="C.s2.inpoint.text" y="174.798744532" x="-383.369280082">
s2.in</text>
      <circle style="stroke:gray; stroke-width:1; fill:none; " transform="" cy="354.001572528" cx="-530.541158902" r="5" id="C.s2.outpoint" d="M -525.54114,354.00159 C -525.54114,356.76301 -527.77971,359.00159 -530.54114,359.00159 -533.30256,359.00159 -535.54114,356.76301 -535.54114,354.00159 -535.54114,351.24016 -533.30256,349.00159 -530.54114,349.00159 -527.77971,349.00159 -525.54114,351.24016 -525.54114,354.00159 z" />
      <text style="font-size:25; vertical-align:top; fill-opacity:1.0; fill:gray; text-anchor:right; stroke:none; font-weight:normal; font-style:italic; text-align:right; " transform="" id="C.s2.outpoint.text" y="347.001572528" x="-523.541158902">
s2.out</text>
      <circle style="stroke:red; stroke-width:1; fill:red; " transform="" cy="271.34140975" cx="-463.256373541" r="5" id="C.s2" d="M -458.25638,271.3414 C -458.25638,274.10282 -460.49495,276.3414 -463.25638,276.3414 -466.0178,276.3414 -468.25638,274.10282 -468.25638,271.3414 -468.25638,268.57998 -466.0178,266.3414 -463.25638,266.3414 -460.49495,266.3414 -458.25638,268.57998 -458.25638,271.3414 z" />
      <text style="font-size:30; vertical-align:top; fill-opacity:1.0; fill:darkblue; text-anchor:right; stroke:none; font-weight:normal; font-style:italic; text-align:right; " transform="" id="C.s2.text" y="264.34140975" x="-456.256373541">
s2</text>
      <circle style="stroke:red; stroke-width:1; fill:red; " transform="" cy="2161.41732283" cx="0.0" r="5" id="C.SWM" d="M 5,2161.4172 C 5,2164.1787 2.7614237,2166.4172 0,2166.4172 -2.7614237,2166.4172 -5,2164.1787 -5,2161.4172 -5,2158.6558 -2.7614237,2156.4172 0,2156.4172 2.7614237,2156.4172 5,2158.6558 5,2161.4172 z" />
      <text style="font-size:30; vertical-align:top; fill-opacity:1.0; fill:darkblue; text-anchor:right; stroke:none; font-weight:normal; font-style:italic; text-align:right; " transform="" id="C.SWM.text" y="2154.41732283" x="7.0">
SWM</text>
      <circle style="stroke:red; stroke-width:1; fill:red; " transform="" cy="1295.81785638" cx="0.0" r="5" id="C.SEM" d="M 5,1295.8179 C 5,1298.5793 2.7614237,1300.8179 0,1300.8179 -2.7614237,1300.8179 -5,1298.5793 -5,1295.8179 -5,1293.0564 -2.7614237,1290.8179 0,1290.8179 2.7614237,1290.8179 5,1293.0564 5,1295.8179 z" />
      <text style="font-size:30; vertical-align:top; fill-opacity:1.0; fill:darkblue; text-anchor:right; stroke:none; font-weight:normal; font-style:italic; text-align:right; " transform="" id="C.SEM.text" y="1288.81785638" x="7.0">
SEM</text>
      <circle style="stroke:red; stroke-width:1; fill:red; " transform="" cy="1295.81785638" cx="690.94488189" r="5" id="C.SEB" d="M 695.94489,1295.8179 C 695.94489,1298.5793 693.70631,1300.8179 690.94489,1300.8179 688.18346,1300.8179 685.94489,1298.5793 685.94489,1295.8179 685.94489,1293.0564 688.18346,1290.8179 690.94489,1290.8179 693.70631,1290.8179 695.94489,1293.0564 695.94489,1295.8179 z" />
      <text style="font-size:30; vertical-align:top; fill-opacity:1.0; fill:darkblue; text-anchor:right; stroke:none; font-weight:normal; font-style:italic; text-align:right; " transform="" id="C.SEB.text" y="1288.81785638" x="697.94488189">
SEB</text>
      <circle style="stroke:gray; stroke-width:1; fill:none; " transform="" cy="1005.14761114" cx="-576.710381197" r="5" id="C.SEF.inpoint" d="M -571.71039,1005.1476 C -571.71039,1007.909 -573.94896,1010.1476 -576.71039,1010.1476 -579.47181,1010.1476 -581.71039,1007.909 -581.71039,1005.1476 -581.71039,1002.3862 -579.47181,1000.1476 -576.71039,1000.1476 -573.94896,1000.1476 -571.71039,1002.3862 -571.71039,1005.1476 z" />
      <text style="font-size:25; vertical-align:top; fill-opacity:1.0; fill:gray; text-anchor:right; stroke:none; font-weight:normal; font-style:italic; text-align:right; " transform="" id="C.SEF.inpoint.text" y="998.147611137" x="-569.710381197">
SEF.in</text>
      <circle style="stroke:red; stroke-width:1; fill:red; " transform="" cy="1295.81785638" cx="-531.496062992" r="5" id="C.SEF" d="M -526.49603,1295.8179 C -526.49603,1298.5793 -528.73461,1300.8179 -531.49603,1300.8179 -534.25746,1300.8179 -536.49603,1298.5793 -536.49603,1295.8179 -536.49603,1293.0564 -534.25746,1290.8179 -531.49603,1290.8179 -528.73461,1290.8179 -526.49603,1293.0564 -526.49603,1295.8179 z" />
      <text style="font-size:30; vertical-align:top; fill-opacity:1.0; fill:darkblue; text-anchor:right; stroke:none; font-weight:normal; font-style:italic; text-align:right; " transform="" id="C.SEF.text" y="1288.81785638" x="-524.496062992">
SEF</text>
      <circle style="stroke:red; stroke-width:1; fill:red; " transform="" cy="2161.41732283" cx="396.850393701" r="5" id="C.s3" d="M 401.8504,2161.4172 C 401.8504,2164.1787 399.61183,2166.4172 396.8504,2166.4172 394.08898,2166.4172 391.8504,2164.1787 391.8504,2161.4172 391.8504,2158.6558 394.08898,2156.4172 396.8504,2156.4172 399.61183,2156.4172 401.8504,2158.6558 401.8504,2161.4172 z" />
      <text style="font-size:30; vertical-align:top; fill-opacity:1.0; fill:darkblue; text-anchor:right; stroke:none; font-weight:normal; font-style:italic; text-align:right; " transform="" id="C.s3.text" y="2154.41732283" x="403.850393701">
s3</text>
      <circle style="stroke:red; stroke-width:1; fill:red; " transform="" cy="2161.41732283" cx="130.960629921" r="5" id="C.s4" d="M 135.96063,2161.4172 C 135.96063,2164.1787 133.72206,2166.4172 130.96063,2166.4172 128.19921,2166.4172 125.96063,2164.1787 125.96063,2161.4172 125.96063,2158.6558 128.19921,2156.4172 130.96063,2156.4172 133.72206,2156.4172 135.96063,2158.6558 135.96063,2161.4172 z" />
      <text style="font-size:30; vertical-align:top; fill-opacity:1.0; fill:darkblue; text-anchor:right; stroke:none; font-weight:normal; font-style:italic; text-align:right; " transform="" id="C.s4.text" y="2154.41732283" x="137.960629921">
s4</text>
      <circle style="stroke:red; stroke-width:1; fill:red; " transform="" cy="2161.41732283" cx="-396.850393701" r="5" id="C.s5" d="M -391.8504,2161.4172 C -391.8504,2164.1787 -394.08898,2166.4172 -396.8504,2166.4172 -399.61183,2166.4172 -401.8504,2164.1787 -401.8504,2161.4172 -401.8504,2158.6558 -399.61183,2156.4172 -396.8504,2156.4172 -394.08898,2156.4172 -391.8504,2158.6558 -391.8504,2161.4172 z" />
      <text style="font-size:30; vertical-align:top; fill-opacity:1.0; fill:darkblue; text-anchor:right; stroke:none; font-weight:normal; font-style:italic; text-align:right; " transform="" id="C.s5.text" y="2154.41732283" x="-389.850393701">
s5</text>
      <circle style="stroke:red; stroke-width:1; fill:red; " transform="" cy="2161.41732283" cx="-130.960629921" r="5" id="C.s6" d="M -125.96063,2161.4172 C -125.96063,2164.1787 -128.19921,2166.4172 -130.96063,2166.4172 -133.72206,2166.4172 -135.96063,2164.1787 -135.96063,2161.4172 -135.96063,2158.6558 -133.72206,2156.4172 -130.96063,2156.4172 -128.19921,2156.4172 -125.96063,2158.6558 -125.96063,2161.4172 z" />
      <text style="font-size:30; vertical-align:top; fill-opacity:1.0; fill:darkblue; text-anchor:right; stroke:none; font-weight:normal; font-style:italic; text-align:right; " transform="" id="C.s6.text" y="2154.41732283" x="-123.960629921">
s6</text>
      <circle style="stroke:red; stroke-width:1; fill:red; " transform="" cy="1295.81785638" cx="483.661417323" r="5" id="C.SD1" d="M 488.66141,1295.8179 C 488.66141,1298.5793 486.42283,1300.8179 483.66141,1300.8179 480.89998,1300.8179 478.66141,1298.5793 478.66141,1295.8179 478.66141,1293.0564 480.89998,1290.8179 483.66141,1290.8179 486.42283,1290.8179 488.66141,1293.0564 488.66141,1295.8179 z" />
      <text style="font-size:30; vertical-align:top; fill-opacity:1.0; fill:darkblue; text-anchor:right; stroke:none; font-weight:normal; font-style:italic; text-align:right; " transform="" id="C.SD1.text" y="1288.81785638" x="490.661417323">
SD1</text>
      <circle style="stroke:red; stroke-width:1; fill:red; " transform="" cy="1258.43173325" cx="689.445262363" r="5" id="C.SD1.i" d="M 694.44525,1258.4318 C 694.44525,1261.1932 692.20668,1263.4318 689.44525,1263.4318 686.68383,1263.4318 684.44525,1261.1932 684.44525,1258.4318 684.44525,1255.6703 686.68383,1253.4318 689.44525,1253.4318 692.20668,1253.4318 694.44525,1255.6703 694.44525,1258.4318 z" />
      <text style="font-size:30; vertical-align:top; fill-opacity:1.0; fill:darkblue; text-anchor:right; stroke:none; font-weight:normal; font-style:italic; text-align:right; " transform="" id="C.SD1.i.text" y="1251.43173325" x="696.445262363">
SD1.i</text>
      <circle style="stroke:red; stroke-width:1; fill:red; " transform="" cy="1316.60172318" cx="691.778557326" r="5" id="C.SD1.o" d="M 696.77856,1316.6017 C 696.77856,1319.3631 694.53999,1321.6017 691.77856,1321.6017 689.01714,1321.6017 686.77856,1319.3631 686.77856,1316.6017 686.77856,1313.8403 689.01714,1311.6017 691.77856,1311.6017 694.53999,1311.6017 696.77856,1313.8403 696.77856,1316.6017 z" />
      <text style="font-size:30; vertical-align:top; fill-opacity:1.0; fill:darkblue; text-anchor:right; stroke:none; font-weight:normal; font-style:italic; text-align:right; " transform="" id="C.SD1.o.text" y="1309.60172318" x="698.778557326">
SD1.o</text>
      <circle style="stroke:gray; stroke-width:1; fill:none; " transform="" cy="2162.8450845" cx="-140.139311591" r="5" id="C.SWF.outpoint" d="M -135.13931,2162.845 C -135.13931,2165.6064 -137.37789,2167.845 -140.13931,2167.845 -142.90074,2167.845 -145.13931,2165.6064 -145.13931,2162.845 -145.13931,2160.0835 -142.90074,2157.845 -140.13931,2157.845 -137.37789,2157.845 -135.13931,2160.0835 -135.13931,2162.845 z" />
      <text style="font-size:25; vertical-align:top; fill-opacity:1.0; fill:gray; text-anchor:right; stroke:none; font-weight:normal; font-style:italic; text-align:right; " transform="" id="C.SWF.outpoint.text" y="2155.8450845" x="-133.139311591">
SWF.out</text>
      <circle style="stroke:red; stroke-width:1; fill:red; " transform="" cy="2201.7998767" cx="-390.56880943" r="5" id="C.SWF" d="M -385.56882,2201.7998 C -385.56882,2204.5612 -387.80739,2206.7998 -390.56882,2206.7998 -393.33024,2206.7998 -395.56882,2204.5612 -395.56882,2201.7998 -395.56882,2199.0384 -393.33024,2196.7998 -390.56882,2196.7998 -387.80739,2196.7998 -385.56882,2199.0384 -385.56882,2201.7998 z" />
      <text style="font-size:30; vertical-align:top; fill-opacity:1.0; fill:darkblue; text-anchor:right; stroke:none; font-weight:normal; font-style:italic; text-align:right; " transform="" id="C.SWF.text" y="2194.7998767" x="-383.56880943">
SWF</text>
      <circle style="stroke:gray; stroke-width:1; fill:none; " transform="" cy="2158.55985589" cx="129.406841857" r="5" id="C.SWB.inpoint" d="M 134.40685,2158.5598 C 134.40685,2161.3212 132.16827,2163.5598 129.40685,2163.5598 126.64542,2163.5598 124.40685,2161.3212 124.40685,2158.5598 124.40685,2155.7984 126.64542,2153.5598 129.40685,2153.5598 132.16827,2153.5598 134.40685,2155.7984 134.40685,2158.5598 z" />
      <text style="font-size:25; vertical-align:top; fill-opacity:1.0; fill:gray; text-anchor:right; stroke:none; font-weight:normal; font-style:italic; text-align:right; " transform="" id="C.SWB.inpoint.text" y="2151.55985589" x="136.406841857">
SWB.in</text>
      <circle style="stroke:red; stroke-width:1; fill:red; " transform="" cy="2242.09313267" cx="368.686178392" r="5" id="C.SWB" d="M 373.68619,2242.093 C 373.68619,2244.8544 371.44761,2247.093 368.68619,2247.093 365.92476,2247.093 363.68619,2244.8544 363.68619,2242.093 363.68619,2239.3316 365.92476,2237.093 368.68619,2237.093 371.44761,2237.093 373.68619,2239.3316 373.68619,2242.093 z" />
      <text style="font-size:30; vertical-align:top; fill-opacity:1.0; fill:darkblue; text-anchor:right; stroke:none; font-weight:normal; font-style:italic; text-align:right; " transform="" id="C.SWB.text" y="2235.09313267" x="375.686178392">
SWB</text>
      <path style="stroke-linejoin:miter; stroke-dashoffset:0; stroke:gray; stroke-miterlimit:4; stroke-dasharray:6,6; stroke-width:2; fill:none; " transform="" d="M 0.0  0.0 L 0.0  2161.41732283 M 661.714824465  430.218389926 L -744.456453362  430.218389926 M 690.94488189  1295.81785638 L -531.496062992  1295.81785638 M 661.714824465  430.218389926 L 287.574642352  188.532959327 L 0.0  0.0 L -463.256373541  271.34140975 L -744.456453362  430.218389926 M 690.94488189  1295.81785638 L 396.850393701  2161.41732283 M -744.456453362  430.218389926 L -396.850393701  2161.41732283 L 396.850393701  2161.41732283 " id="C.gridline" />
    </g>
  </g>
</svg>
