<?xml version="1.0" encoding="UTF-8" standalone="no"?>
<svg xmlns:dc="http://purl.org/dc/elements/1.1/" xmlns:cc="http://creativecommons.org/ns#" xmlns:rdf="http://www.w3.org/1999/02/22-rdf-syntax-ns#" xmlns:svg="http://www.w3.org/2000/svg" xmlns="http://www.w3.org/2000/svg" xmlns:sodipodi="http://sodipodi.sourceforge.net/DTD/sodipodi-0.dtd" xmlns:inkscape="http://www.inkscape.org/namespaces/inkscape" patternNumber="pyjama_pants_tie_waist_aldrich" fitBoxtoViewport="True" companyName="Seamly Patterns" currentscale="0.5:1" margin-right="88.5826771654" client-name="DressFormLg" designerName="Winifred. P. Aldrich" height="4711.60543307" width="1508.70078733" margin-top="88.5826771654" version="1.1" margin-bottom="88.5826771654" margin-left="88.5826771654" preserveAspectRatio="xMidYMid meet" id="svg2" inkscape:version="0.48.4 r9939" sodipodi:docname="Susan-pyjama_pants_tie_string_aldrich-2014-07-03-0054.svg">
  <metadata id="metadata64">
    <rdf:RDF>
      <cc:Work rdf:about="">
        <dc:format>image/svg+xml</dc:format>
        <dc:type rdf:resource="http://purl.org/dc/dcmitype/StillImage" />
      </cc:Work>
    </rdf:RDF>
  </metadata>
  <sodipodi:namedview id="base" pagecolor="#ffffff" bordercolor="#666666" borderopacity="1.0" inkscape:pageopacity="0.0" inkscape:pageshadow="2" inkscape:zoom="0.18804631" inkscape:document-units="pt" showgrid="false" inkscape:window-maximized="1" inkscape:cx="754.3504" inkscape:cy="2355.8027" inkscape:window-width="1855" inkscape:window-height="1056" inkscape:window-x="65" inkscape:window-y="24" inkscape:current-layer="pattern" />
  <defs id="defs5">
    <marker style="overflow:visible" id="Arrow1Mstart" refX="0.0" refY="0.0" orient="auto" inkscape:stockid="Arrow1Mstart">
      <path transform="scale(0.4) translate(10,0)" style="fill-rule:evenodd;stroke:#000000;stroke-width:1.0pt;marker-start:none" d="M 0.0,0.0 L 5.0,-5.0 L -12.5,0.0 L 5.0,5.0 L 0.0,0.0 z " id="path8" />
    </marker>
    <marker style="overflow:visible;" id="Arrow1Mend" refX="0.0" refY="0.0" orient="auto" inkscape:stockid="Arrow1Mend">
      <path transform="scale(0.4) rotate(180) translate(10,0)" style="fill-rule:evenodd;stroke:#000000;stroke-width:1.0pt;marker-start:none;" d="M 0.0,0.0 L 5.0,-5.0 L -12.5,0.0 L 5.0,5.0 L 0.0,0.0 z " id="path11" />
    </marker>
  </defs>
  <g inkscape:label="Label-pattern" id="pattern" inkscape:groupmode="layer" transform="translate(88.582677,88.582677)">
    <g id="document.pants.Pants.pattern" transform=" translate(1275.285433, 438.820000)">
      <g id="A.letter" transform="matrix(10.000000, 0, 0, 10.000000, 4783.464567, -8131.889764)">
        <text style="font-size:24; vertical-align:top; fill-opacity:1.0; fill:#000000; text-anchor:start; stroke:none; font-weight:normal; font-style:normal; text-align:right; " transform="" id="A.letter.letterline" y="903.543307087" x="-531.496062992">
A</text>
      </g>
      <line style="stroke-linejoin:miter; stroke:green; stroke-width:4; stroke-miterlimit:4; fill:none; " y2="3614.17322835" marker-end="url(#Arrow1Mend)" marker-start="url(#Arrow1Mstart)" transform="" x2="-531.496062992" y1="1488.18897638" x1="-531.496062992" id="A.grainline" />
      <path style="stroke-linejoin:miter; stroke-dashoffset:0; stroke:green; stroke-dasharray:24,6; stroke-miterlimit:4; stroke-width:4; fill:none; " transform="" d="M -1062.99212598  0 L 0  0 L -88.5826771654  4039.37007874 L -921.25984252  4039.37007874 L -1062.99212598  2409.4488189 L -1216.53543307  1204.72440945 L -1062.99212598  903.543307087 M -1062.99212598  0 " id="A.seamline" />
      <path style="fill:none;stroke:#008000;stroke-width:4;stroke-linejoin:miter;stroke-miterlimit:4" d="M -1119.25,0 C -1119.25,296.66667 -1119.25,593.33333 -1119.25,890 -1171.0119,991.5409 -1222.7613,1093.0882 -1274.5312,1194.625 -1222.6284,1602.4188 -1170.4834,2010.186 -1118.7017,2417.9925 -1070.0716,2977.2033 -1021.4445,3536.4144 -972.8125,4095.625 -659.72917,4095.625 -346.64583,4095.625 -33.5625,4095.625 -3.1882778,2711.6671 27.162765,1327.7087 57.5,-56.25 -334.75,-56.25 -727,-56.25 -1119.25,-56.25 -1119.25,-37.5 -1119.25,-18.75 -1119.25,0 z" id="A.cuttingline" inkscape:connector-curvature="0" />
      <g id="A.info" transform="">
        <text style="font-size:12; vertical-align:top; fill-opacity:1.0; fill:#000000; text-anchor:start; stroke:none; font-weight:normal; font-style:normal; text-align:right; " transform="" id="A.info.lineSeamly Patterns" y="1204.72440945" x="-531.496062992">
Seamly Patterns</text>
        <text style="font-size:12; vertical-align:top; fill-opacity:1.0; fill:#000000; text-anchor:start; stroke:none; font-weight:normal; font-style:normal; text-align:right; " transform="" id="A.info.lineDesigner:Winifred. P. Aldrich" y="1219.12440945" x="-531.496062992">
Designer:Winifred. P. Aldrich</text>
        <text style="font-size:12; vertical-align:top; fill-opacity:1.0; fill:#000000; text-anchor:start; stroke:none; font-weight:normal; font-style:normal; text-align:right; " transform="" id="A.info.lineClient:DressFormLg" y="1233.52440945" x="-531.496062992">
Client:DressFormLg</text>
        <text style="font-size:12; vertical-align:top; fill-opacity:1.0; fill:#000000; text-anchor:start; stroke:none; font-weight:normal; font-style:normal; text-align:right; " transform="" id="A.info.linepyjama_pants_tie_waist_aldrich" y="1247.92440945" x="-531.496062992">
pyjama_pants_tie_waist_aldrich</text>
        <text style="font-size:12; vertical-align:top; fill-opacity:1.0; fill:#000000; text-anchor:start; stroke:none; font-weight:normal; font-style:normal; text-align:right; " transform="" id="A.info.linePattern Piece A" y="1262.32440945" x="-531.496062992">
Pattern Piece A</text>
        <text style="font-size:12; vertical-align:top; fill-opacity:1.0; fill:#000000; text-anchor:start; stroke:none; font-weight:normal; font-style:normal; text-align:right; " transform="" id="A.info.lineCut 2 Fabric" y="1276.72440945" x="-531.496062992">
Cut 2 Fabric</text>
      </g>
    </g>
  </g>
  <g inkscape:label="Label-notes" id="notes" inkscape:groupmode="layer" transform="translate(88.582677,88.582677)">
    <g id="document.titleblock">
      <text style="font-size:40; vertical-align:top; fill-opacity:1.0; fill:#000000; text-anchor:right; stroke:none; font-weight:normal; font-style:normal; text-align:right; " transform="" id="company" y="0.0" x="0.0">
Seamly Patterns</text>
      <text style="font-size:40; vertical-align:top; fill-opacity:1.0; fill:#000000; text-anchor:right; stroke:none; font-weight:normal; font-style:normal; text-align:right; " transform="" id="designer" y="44.0" x="0.0">
Winifred. P. Aldrich</text>
      <text style="font-size:40; vertical-align:top; fill-opacity:1.0; fill:#000000; text-anchor:right; stroke:none; font-weight:normal; font-style:normal; text-align:right; " transform="" id="pattern_number" y="88.0" x="0.0">
pyjama_pants_tie_waist_aldrich</text>
      <text style="font-size:40; vertical-align:top; fill-opacity:1.0; fill:#000000; text-anchor:right; stroke:none; font-weight:normal; font-style:normal; text-align:right; " transform="" id="pattern_name" y="132.0" x="0.0">
pyjama_pants_tie_waist</text>
      <text style="font-size:40; vertical-align:top; fill-opacity:1.0; fill:#000000; text-anchor:right; stroke:none; font-weight:normal; font-style:normal; text-align:right; " transform="" id="client" y="176.0" x="0.0">
DressFormLg</text>
    </g>
    <g id="document.testgrid">
      <path style="stroke-linejoin:miter; stroke:green; stroke-width:4; stroke-miterlimit:4; fill:none; " d="M 1320.0  0.0 L 1320.0  212.598425197 M 1355.43307087  0.0 L 1355.43307087  212.598425197 M 1390.86614173  0.0 L 1390.86614173  212.598425197 M 1426.2992126  0.0 L 1426.2992126  212.598425197 M 1461.73228346  0.0 L 1461.73228346  212.598425197 M 1497.16535433  0.0 L 1497.16535433  212.598425197 M 1532.5984252  0.0 L 1532.5984252  212.598425197 M 1320.0  0.0 L 1532.5984252  0.0 M 1320.0  35.4330708661 L 1532.5984252  35.4330708661 M 1320.0  70.8661417323 L 1532.5984252  70.8661417323 M 1320.0  106.299212598 L 1532.5984252  106.299212598 M 1320.0  141.732283465 L 1532.5984252  141.732283465 M 1320.0  177.165354331 L 1532.5984252  177.165354331 M 1320.0  212.598425197 L 1532.5984252  212.598425197 M 1709.76377953  0.0 L 1709.76377953  270.0 M 1799.76377953  0.0 L 1799.76377953  270.0 M 1889.76377953  0.0 L 1889.76377953  270.0 M 1979.76377953  0.0 L 1979.76377953  270.0 M 1709.76377953  0.0 L 1979.76377953  0.0 M 1709.76377953  90.0 L 1979.76377953  90.0 M 1709.76377953  180.0 L 1979.76377953  180.0 M 1709.76377953  270.0 L 1979.76377953  270.0 " id="testgrid" />
    </g>
    <g id="document.pants.Pants.notes" transform=" translate(1275.285433, 438.820000)" />
  </g>
  <g inkscape:label="Label-reference" id="reference" inkscape:groupmode="layer" transform="translate(88.582677,88.582677)">
    <g id="document.pants.Pants.reference" transform=" translate(1275.285433, 438.820000)">
      <circle style="stroke:red; stroke-width:1; fill:red; " transform="" cy="0" cx="0" r="5" id="A.a0" d="M 5,0 C 5,2.7614237 2.7614237,5 0,5 -2.7614237,5 -5,2.7614237 -5,0 -5,-2.7614237 -2.7614237,-5 0,-5 2.7614237,-5 5,-2.7614237 5,0 z" />
      <text style="font-size:30; vertical-align:top; fill-opacity:1.0; fill:darkblue; text-anchor:right; stroke:none; font-weight:normal; font-style:italic; text-align:right; " transform="" id="A.a0.text" y="-7" x="7">
a0</text>
      <circle style="stroke:red; stroke-width:1; fill:red; " transform="" cy="1204.72440945" cx="0" r="5" id="A.a1" d="M 5,1204.7244 C 5,1207.4858 2.7614237,1209.7244 0,1209.7244 -2.7614237,1209.7244 -5,1207.4858 -5,1204.7244 -5,1201.9629 -2.7614237,1199.7244 0,1199.7244 2.7614237,1199.7244 5,1201.9629 5,1204.7244 z" />
      <text style="font-size:30; vertical-align:top; fill-opacity:1.0; fill:darkblue; text-anchor:right; stroke:none; font-weight:normal; font-style:italic; text-align:right; " transform="" id="A.a1.text" y="1197.72440945" x="7">
a1</text>
      <circle style="stroke:red; stroke-width:1; fill:red; " transform="" cy="4039.37007874" cx="0" r="5" id="A.a2" d="M 5,4039.3701 C 5,4042.1315 2.7614237,4044.3701 0,4044.3701 -2.7614237,4044.3701 -5,4042.1315 -5,4039.3701 -5,4036.6087 -2.7614237,4034.3701 0,4034.3701 2.7614237,4034.3701 5,4036.6087 5,4039.3701 z" />
      <text style="font-size:30; vertical-align:top; fill-opacity:1.0; fill:darkblue; text-anchor:right; stroke:none; font-weight:normal; font-style:italic; text-align:right; " transform="" id="A.a2.text" y="4032.37007874" x="7">
a2</text>
      <circle style="stroke:red; stroke-width:1; fill:red; " transform="" cy="2409.4488189" cx="0" r="5" id="A.a3" d="M 5,2409.4487 C 5,2412.2102 2.7614237,2414.4487 0,2414.4487 -2.7614237,2414.4487 -5,2412.2102 -5,2409.4487 -5,2406.6873 -2.7614237,2404.4487 0,2404.4487 2.7614237,2404.4487 5,2406.6873 5,2409.4487 z" />
      <text style="font-size:30; vertical-align:top; fill-opacity:1.0; fill:darkblue; text-anchor:right; stroke:none; font-weight:normal; font-style:italic; text-align:right; " transform="" id="A.a3.text" y="2402.4488189" x="7">
a3</text>
      <circle style="stroke:red; stroke-width:1; fill:red; " transform="" cy="1204.72440945" cx="-1062.99212598" r="5" id="A.a4" d="M -1057.9921,1204.7244 C -1057.9921,1207.4858 -1060.2306,1209.7244 -1062.9921,1209.7244 -1065.7535,1209.7244 -1067.9921,1207.4858 -1067.9921,1204.7244 -1067.9921,1201.9629 -1065.7535,1199.7244 -1062.9921,1199.7244 -1060.2306,1199.7244 -1057.9921,1201.9629 -1057.9921,1204.7244 z" />
      <text style="font-size:30; vertical-align:top; fill-opacity:1.0; fill:darkblue; text-anchor:right; stroke:none; font-weight:normal; font-style:italic; text-align:right; " transform="" id="A.a4.text" y="1197.72440945" x="-1055.99212598">
a4</text>
      <circle style="stroke:red; stroke-width:1; fill:red; " transform="" cy="0" cx="-1062.99212598" r="5" id="A.a5" d="M -1057.9921,0 C -1057.9921,2.7614237 -1060.2306,5 -1062.9921,5 -1065.7535,5 -1067.9921,2.7614237 -1067.9921,0 -1067.9921,-2.7614237 -1065.7535,-5 -1062.9921,-5 -1060.2306,-5 -1057.9921,-2.7614237 -1057.9921,0 z" />
      <text style="font-size:30; vertical-align:top; fill-opacity:1.0; fill:darkblue; text-anchor:right; stroke:none; font-weight:normal; font-style:italic; text-align:right; " transform="" id="A.a5.text" y="-7" x="-1055.99212598">
a5</text>
      <circle style="stroke:red; stroke-width:1; fill:red; " transform="" cy="2409.4488189" cx="-1062.99212598" r="5" id="A.a6" d="M -1057.9921,2409.4487 C -1057.9921,2412.2102 -1060.2306,2414.4487 -1062.9921,2414.4487 -1065.7535,2414.4487 -1067.9921,2412.2102 -1067.9921,2409.4487 -1067.9921,2406.6873 -1065.7535,2404.4487 -1062.9921,2404.4487 -1060.2306,2404.4487 -1057.9921,2406.6873 -1057.9921,2409.4487 z" />
      <text style="font-size:30; vertical-align:top; fill-opacity:1.0; fill:darkblue; text-anchor:right; stroke:none; font-weight:normal; font-style:italic; text-align:right; " transform="" id="A.a6.text" y="2402.4488189" x="-1055.99212598">
a6</text>
      <circle style="stroke:red; stroke-width:1; fill:red; " transform="" cy="4039.37007874" cx="-1062.99212598" r="5" id="A.a7" d="M -1057.9921,4039.3701 C -1057.9921,4042.1315 -1060.2306,4044.3701 -1062.9921,4044.3701 -1065.7535,4044.3701 -1067.9921,4042.1315 -1067.9921,4039.3701 -1067.9921,4036.6087 -1065.7535,4034.3701 -1062.9921,4034.3701 -1060.2306,4034.3701 -1057.9921,4036.6087 -1057.9921,4039.3701 z" />
      <text style="font-size:30; vertical-align:top; fill-opacity:1.0; fill:darkblue; text-anchor:right; stroke:none; font-weight:normal; font-style:italic; text-align:right; " transform="" id="A.a7.text" y="4032.37007874" x="-1055.99212598">
a7</text>
      <circle style="stroke:red; stroke-width:1; fill:red; " transform="" cy="903.543307087" cx="-1062.99212598" r="5" id="A.a8" d="M -1057.9921,903.54333 C -1057.9921,906.30476 -1060.2306,908.54333 -1062.9921,908.54333 -1065.7535,908.54333 -1067.9921,906.30476 -1067.9921,903.54333 -1067.9921,900.78191 -1065.7535,898.54333 -1062.9921,898.54333 -1060.2306,898.54333 -1057.9921,900.78191 -1057.9921,903.54333 z" />
      <text style="font-size:30; vertical-align:top; fill-opacity:1.0; fill:darkblue; text-anchor:right; stroke:none; font-weight:normal; font-style:italic; text-align:right; " transform="" id="A.a8.text" y="896.543307087" x="-1055.99212598">
a8</text>
      <circle style="stroke:red; stroke-width:1; fill:red; " transform="" cy="1204.72440945" cx="-1216.53543307" r="5" id="A.a9" d="M -1211.5354,1204.7244 C -1211.5354,1207.4858 -1213.774,1209.7244 -1216.5354,1209.7244 -1219.2968,1209.7244 -1221.5354,1207.4858 -1221.5354,1204.7244 -1221.5354,1201.9629 -1219.2968,1199.7244 -1216.5354,1199.7244 -1213.774,1199.7244 -1211.5354,1201.9629 -1211.5354,1204.7244 z" />
      <text style="font-size:30; vertical-align:top; fill-opacity:1.0; fill:darkblue; text-anchor:right; stroke:none; font-weight:normal; font-style:italic; text-align:right; " transform="" id="A.a9.text" y="1197.72440945" x="-1209.53543307">
a9</text>
      <circle style="stroke:red; stroke-width:1; fill:red; " transform="" cy="4039.37007874" cx="-921.25984252" r="5" id="A.a10" d="M -916.25983,4039.3701 C -916.25983,4042.1315 -918.4984,4044.3701 -921.25983,4044.3701 -924.02125,4044.3701 -926.25983,4042.1315 -926.25983,4039.3701 -926.25983,4036.6087 -924.02125,4034.3701 -921.25983,4034.3701 -918.4984,4034.3701 -916.25983,4036.6087 -916.25983,4039.3701 z" />
      <text style="font-size:30; vertical-align:top; fill-opacity:1.0; fill:darkblue; text-anchor:right; stroke:none; font-weight:normal; font-style:italic; text-align:right; " transform="" id="A.a10.text" y="4032.37007874" x="-914.25984252">
a10</text>
      <circle style="stroke:red; stroke-width:1; fill:red; " transform="" cy="4039.37007874" cx="-88.5826771654" r="5" id="A.a18" d="M -83.58268,4039.3701 C -83.58268,4042.1315 -85.821256,4044.3701 -88.58268,4044.3701 -91.344103,4044.3701 -93.58268,4042.1315 -93.58268,4039.3701 -93.58268,4036.6087 -91.344103,4034.3701 -88.58268,4034.3701 -85.821256,4034.3701 -83.58268,4036.6087 -83.58268,4039.3701 z" />
      <text style="font-size:30; vertical-align:top; fill-opacity:1.0; fill:darkblue; text-anchor:right; stroke:none; font-weight:normal; font-style:italic; text-align:right; " transform="" id="A.a18.text" y="4032.37007874" x="-81.5826771654">
a18</text>
      <path style="stroke-linejoin:miter; stroke-dashoffset:0; stroke:gray; stroke-miterlimit:4; stroke-dasharray:6,6; stroke-width:2; fill:none; " transform="" d="M -1062.99212598  0 L 0  0 L 0  4039.37007874 L -1062.99212598  4039.37007874 L -1062.99212598  0 M -1216.53543307  1204.72440945 L 0  1204.72440945 M -1062.99212598  2409.4488189 L 0  2409.4488189 " id="A.gridline" />
    </g>
  </g>
</svg>
