<?xml version="1.0" encoding="UTF-8" standalone="no"?>
<svg xmlns:dc="http://purl.org/dc/elements/1.1/" xmlns:cc="http://creativecommons.org/ns#" xmlns:rdf="http://www.w3.org/1999/02/22-rdf-syntax-ns#" xmlns:svg="http://www.w3.org/2000/svg" xmlns="http://www.w3.org/2000/svg" xmlns:sodipodi="http://sodipodi.sourceforge.net/DTD/sodipodi-0.dtd" xmlns:inkscape="http://www.inkscape.org/namespaces/inkscape" patternNumber="MR_B1" fitBoxtoViewport="True" companyName="Next Patterns" currentscale="0.5:1" margin-right="88.5826771654" client-name="DressFormLg" designerName="S.L.Spencer" height="4925.32507544" width="2613.17186633" margin-top="88.5826771654" version="1.1" margin-bottom="88.5826771654" margin-left="88.5826771654" preserveAspectRatio="xMidYMid meet" id="svg2" inkscape:version="0.48.4 r9939" sodipodi:docname="Susan-spencer_bodice_short-2014-11-12-2157.svg">
  <metadata id="metadata284">
    <rdf:RDF>
      <cc:Work rdf:about="">
        <dc:format>image/svg+xml</dc:format>
        <dc:type rdf:resource="http://purl.org/dc/dcmitype/StillImage" />
      </cc:Work>
    </rdf:RDF>
  </metadata>
  <sodipodi:namedview id="base" pagecolor="#ffffff" bordercolor="#666666" borderopacity="1.0" inkscape:pageopacity="0.0" inkscape:pageshadow="2" inkscape:zoom="0.1798866" inkscape:document-units="pt" showgrid="false" inkscape:window-maximized="1" inkscape:cx="1306.5859" inkscape:cy="2462.6626" inkscape:window-width="1855" inkscape:window-height="1056" inkscape:window-x="65" inkscape:window-y="24" inkscape:current-layer="pattern" />
  <defs id="defs5">
    <marker style="overflow:visible" id="Arrow1Mstart" refX="0.0" refY="0.0" orient="auto" inkscape:stockid="Arrow1Mstart">
      <path transform="scale(0.4) translate(10,0)" style="fill-rule:evenodd;stroke:#000000;stroke-width:1.0pt;marker-start:none" d="M 0.0,0.0 L 5.0,-5.0 L -12.5,0.0 L 5.0,5.0 L 0.0,0.0 z " id="path8" />
    </marker>
    <marker style="overflow:visible;" id="Arrow1Mend" refX="0.0" refY="0.0" orient="auto" inkscape:stockid="Arrow1Mend">
      <path transform="scale(0.4) rotate(180) translate(10,0)" style="fill-rule:evenodd;stroke:#000000;stroke-width:1.0pt;marker-start:none;" d="M 0.0,0.0 L 5.0,-5.0 L -12.5,0.0 L 5.0,5.0 L 0.0,0.0 z " id="path11" />
    </marker>
  </defs>
  <g inkscape:label="Label-pattern" id="pattern" inkscape:groupmode="layer" transform="translate(88.582677,88.582677)">
    <g id="document.bodice.Bodice Front.pattern" transform=" translate(58.750000, 757.717638)">
      <g id="A.letter" transform="matrix(10.000000, 0, 0, 10.000000, -3228.838583, -1030.039370)">
        <text style="font-size:24; vertical-align:top; fill-opacity:1.0; fill:#000000; text-anchor:start; stroke:none; font-weight:normal; font-style:normal; text-align:right; " transform="" id="A.letter.letterline" y="114.448818898" x="358.75984252">
A</text>
      </g>
      <line style="stroke-linejoin:miter; stroke:green; stroke-width:4; stroke-miterlimit:4; fill:none; " y2="1089.56692913" marker-end="url(#Arrow1Mend)" marker-start="url(#Arrow1Mstart)" transform="" x2="133.455818164" y1="159.448818898" x1="133.455818164" id="A.grainline" />
      <path style="stroke-linejoin:miter; stroke-dashoffset:0; stroke:green; stroke-miterlimit:4; stroke-dasharray:6,6; stroke-width:3; fill:none; " transform="" d="M 259.399057947  1311.31203772 L 354.330708661  710.078740157 L 449.262359376  1311.31203772 M 1150.79185159  637.795275591 L 442.745684951  637.795275591 L 1116.3698394  855.877536743 " id="A.dartline" />
      <path style="stroke-linejoin:miter; stroke-dashoffset:0; stroke:green; stroke-dasharray:24,6; stroke-miterlimit:4; stroke-width:4; fill:none; " transform="" d="M 0.0  0.0 L 0.0  1240.15748031 C 88.6462178188  1240.15748031  169.417059436  1240.15748031  268.171959685  1255.75037202 L 354.330708661  1278.22121965 L 440.489457638  1255.75037202 C 636.519475316  1224.79823872  856.949499848  1202.2485947  1063.28928086  1191.7749495 L 1062.85446078  838.552215645 L 1065.27660358  736.055293411 L 1094.54185159  637.795275591 L 1022.97229067  397.495711804 C 900.773673277  437.27316057  772.084679423  405.875075416  711.460629921  318.897637795 C 609.135726881  172.091907325  700.644760759  -143.764315644  717.519685039  -223.334513127 L 266.911636328  -318.897637795 C 233.832093174  -162.917928626  160.146981797  0.0  0.0  0.0 " id="A.seamline" />
      <path style="fill:none;stroke:#008000;stroke-width:4;stroke-linejoin:miter;stroke-miterlimit:4" d="M 211.90625,-330.65625 C 197.45138,-264.20535 177.34444,-197.87692 139.96875,-140.40625 116.15169,-104.08797 82.171731,-71.60028 38.90625,-60.9375 9.6980416,-53.498727 -20.657228,-57.036286 -50.466985,-55.829847 -59.45958,-58.486119 -55.389515,-48.189039 -56.25,-42.78125 -56.25,403.61458 -56.25,850.01042 -56.25,1296.4062 48.994452,1296.6498 154.70398,1293.8005 258.71648,1311.4111 290.59282,1319.7197 322.46209,1328.0555 354.34375,1336.3438 388.2971,1327.7847 422.02466,1318.1546 456.10763,1310.222 673.07085,1276.5587 891.83475,1255.8107 1111.1266,1245.6284 1119.604,1247.5138 1120.7833,1242.4792 1119.5821,1235.1875 1119.5547,1100.2932 1118.9829,965.39285 1119.2834,830.50225 1120.1429,801.67507 1120.3021,772.7374 1121.5978,743.97906 1132.1396,708.58022 1142.6633,673.17603 1153.2188,637.78125 1122.3383,534.07142 1091.4427,430.36614 1060.5625,326.65625 1021.2354,338.4153 982.37166,354.28051 941.15625,357.21875 887.36768,361.89276 830.13479,351.18119 786.78125,317.4375 758.00537,295.68969 740.5313,262.40934 731.86828,227.97101 716.35851,167.02501 718.43703,103.33716 724.35658,41.197558 732.72009,-42.856815 752.22985,-125.57322 771.65625,-207.5625 775.91443,-227.2609 780.17742,-246.95826 784.4375,-266.65625 597.50109,-306.30724 410.56015,-345.93685 223.625,-385.59375 219.71875,-367.28125 215.8125,-348.96875 211.90625,-330.65625 z" id="A.cuttingline" inkscape:connector-curvature="0" />
      <g id="A.info" transform="">
        <text style="font-size:12; vertical-align:top; fill-opacity:1.0; fill:#000000; text-anchor:start; stroke:none; font-weight:normal; font-style:normal; text-align:right; " transform="" id="A.info.lineNext Patterns" y="159.448818898" x="358.75984252">
Next Patterns</text>
        <text style="font-size:12; vertical-align:top; fill-opacity:1.0; fill:#000000; text-anchor:start; stroke:none; font-weight:normal; font-style:normal; text-align:right; " transform="" id="A.info.lineMR_B1" y="173.848818898" x="358.75984252">
MR_B1</text>
        <text style="font-size:12; vertical-align:top; fill-opacity:1.0; fill:#000000; text-anchor:start; stroke:none; font-weight:normal; font-style:normal; text-align:right; " transform="" id="A.info.lineSpencer Bodice Short" y="188.248818898" x="358.75984252">
Spencer Bodice Short</text>
        <text style="font-size:12; vertical-align:top; fill-opacity:1.0; fill:#000000; text-anchor:start; stroke:none; font-weight:normal; font-style:normal; text-align:right; " transform="" id="A.info.linePattern Piece A" y="202.648818898" x="358.75984252">
Pattern Piece A</text>
        <text style="font-size:12; vertical-align:top; fill-opacity:1.0; fill:#000000; text-anchor:start; stroke:none; font-weight:normal; font-style:normal; text-align:right; " transform="" id="A.info.lineCut 2 Fabric" y="217.048818898" x="358.75984252">
Cut 2 Fabric</text>
        <text style="font-size:12; vertical-align:top; fill-opacity:1.0; fill:#000000; text-anchor:start; stroke:none; font-weight:normal; font-style:normal; text-align:right; " transform="" id="A.info.line " y="231.448818898" x="358.75984252" />
        <text style="font-size:12; vertical-align:top; fill-opacity:1.0; fill:#000000; text-anchor:start; stroke:none; font-weight:normal; font-style:normal; text-align:right; " transform="" id="A.info.lineDressFormLg" y="245.848818898" x="358.75984252">
DressFormLg</text>
        <text style="font-size:12; vertical-align:top; fill-opacity:1.0; fill:#000000; text-anchor:start; stroke:none; font-weight:normal; font-style:normal; text-align:right; " transform="" id="A.info.line2014/11/12 21:57" y="260.248818898" x="358.75984252">
2014/11/12 21:57</text>
      </g>
    </g>
    <g id="document.bodice.Bodice Back.pattern" transform=" translate(2379.756512, 580.552283)">
      <g id="B.letter" transform="matrix(10.000000, 0, 0, 10.000000, 3243.832233, -2465.078740)">
        <text style="font-size:24; vertical-align:top; fill-opacity:1.0; fill:#000000; text-anchor:start; stroke:none; font-weight:normal; font-style:normal; text-align:right; " transform="" id="B.letter.letterline" y="273.897637795" x="-360.425803656">
B</text>
      </g>
      <line style="stroke-linejoin:miter; stroke:green; stroke-width:4; stroke-miterlimit:4; fill:none; " y2="1222.44094488" marker-end="url(#Arrow1Mend)" marker-start="url(#Arrow1Mstart)" transform="" x2="-142.235487856" y1="212.598425197" x1="-142.235487856" id="B.grainline" />
      <path style="stroke-linejoin:miter; stroke-dashoffset:0; stroke:green; stroke-miterlimit:4; stroke-dasharray:6,6; stroke-width:3; fill:none; " transform="" d="M -467.420717536  1410.22698347 L -383.761673202  637.795275591 L -300.102628868  1410.22698347 M -555.173062606  -84.7036538205 L -415.819527212  138.801763145 L -518.493439004  -103.751627012 " id="B.dartline" />
      <path style="stroke-linejoin:miter; stroke-dashoffset:0; stroke:green; stroke-dasharray:24,6; stroke-miterlimit:4; stroke-width:4; fill:none; " transform="" d="M 0.0  0.0 L 0.0  1346.45669291 C -101.065792802  1346.45669291  -233.704316826  1346.45669291  -306.159425266  1354.30402112 L -383.761673202  1369.2401569 L -461.363921138  1354.30402112 C -538.074281339  1345.99582331  -739.129368008  1344.80113724  -875.998808024  1343.98784763 L -949.398107518  743.309668882 C -851.14693672  731.303960391  -683.651555005  710.837021319  -649.452755906  637.795275591 C -571.4410187  471.177919926  -682.311280813  159.098054515  -720.851607312  84.8830892163 L -525.41244758  -36.9713975014 L -511.578799823  -45.5965473902 L -496.566196517  -51.9514480849 L -284.470975712  -141.732283465 C -252.688753608  -78.3927191927  -213.353231784  0.0  0.0  0.0 " id="B.seamline" />
      <path style="fill:none;stroke:#008000;stroke-width:4;stroke-linejoin:miter;stroke-miterlimit:4" d="M -306.40625,-193.53125 C -383.72626,-160.70009 -461.26011,-128.18278 -538.44057,-95.155615 -623.72172,-41.925934 -709.05493,11.25557 -794.375,64.4375 -777.4258,97.558384 -759.79321,130.45814 -747.24685,165.5231 -716.39064,247.85683 -693.34119,333.59456 -682.875,420.8125 -676.80085,477.33051 -674.90934,535.74186 -691.46407,590.73269 -695.92834,602.93116 -698.826,617.19261 -710.3125,625 -736.50072,644.50196 -768.7949,653.37133 -799.875,661.6875 -869.52259,678.82598 -941.02926,685.17763 -1012.0625,694.34375 -983.33289,929.5533 -954.56862,1164.7586 -925.84375,1399.9688 -792.21502,1400.9914 -658.45183,1400.6253 -525.00617,1406.2482 -498.70301,1407.6637 -472.20494,1408.2221 -446.43296,1414.4756 -425.2109,1418.3008 -403.99453,1423.1707 -382.76779,1426.3435 -352.74627,1420.9158 -322.82398,1414.1708 -292.75465,1409.4974 -211.86298,1402.719 -130.52745,1403.274 -49.312512,1402.7345 -14.125032,1402.6988 21.062499,1402.7285 56.25,1402.7188 56.25,916.39583 56.25,430.07292 56.25,-56.25 -8.2028894,-56.354282 -74.213712,-53.53629 -136.34375,-73.46875 -166.34681,-82.915222 -194.66624,-100.53616 -212.09375,-127.3125 -229.87902,-154.77479 -242.63111,-185.13446 -257.875,-214.0625 -274.05208,-207.21875 -290.22917,-200.375 -306.40625,-193.53125 z" id="B.cuttingline" inkscape:connector-curvature="0" />
      <g id="B.info" transform="">
        <text style="font-size:12; vertical-align:top; fill-opacity:1.0; fill:#000000; text-anchor:start; stroke:none; font-weight:normal; font-style:normal; text-align:right; " transform="" id="B.info.lineNext Patterns" y="318.897637795" x="-360.425803656">
Next Patterns</text>
        <text style="font-size:12; vertical-align:top; fill-opacity:1.0; fill:#000000; text-anchor:start; stroke:none; font-weight:normal; font-style:normal; text-align:right; " transform="" id="B.info.lineMR_B1" y="333.297637795" x="-360.425803656">
MR_B1</text>
        <text style="font-size:12; vertical-align:top; fill-opacity:1.0; fill:#000000; text-anchor:start; stroke:none; font-weight:normal; font-style:normal; text-align:right; " transform="" id="B.info.lineSpencer Bodice Short" y="347.697637795" x="-360.425803656">
Spencer Bodice Short</text>
        <text style="font-size:12; vertical-align:top; fill-opacity:1.0; fill:#000000; text-anchor:start; stroke:none; font-weight:normal; font-style:normal; text-align:right; " transform="" id="B.info.linePattern Piece B" y="362.097637795" x="-360.425803656">
Pattern Piece B</text>
        <text style="font-size:12; vertical-align:top; fill-opacity:1.0; fill:#000000; text-anchor:start; stroke:none; font-weight:normal; font-style:normal; text-align:right; " transform="" id="B.info.lineCut 2 Fabric" y="376.497637795" x="-360.425803656">
Cut 2 Fabric</text>
        <text style="font-size:12; vertical-align:top; fill-opacity:1.0; fill:#000000; text-anchor:start; stroke:none; font-weight:normal; font-style:normal; text-align:right; " transform="" id="B.info.line " y="390.897637795" x="-360.425803656" />
        <text style="font-size:12; vertical-align:top; fill-opacity:1.0; fill:#000000; text-anchor:start; stroke:none; font-weight:normal; font-style:normal; text-align:right; " transform="" id="B.info.lineDressFormLg" y="405.297637795" x="-360.425803656">
DressFormLg</text>
        <text style="font-size:12; vertical-align:top; fill-opacity:1.0; fill:#000000; text-anchor:start; stroke:none; font-weight:normal; font-style:normal; text-align:right; " transform="" id="B.info.line2014/11/12 21:57" y="419.697637795" x="-360.425803656">
2014/11/12 21:57</text>
      </g>
    </g>
    <g id="document.bodice.Bodice Sleeve.pattern" transform=" translate(835.591339, 2240.279676)">
      <line style="stroke-linejoin:miter; stroke:green; stroke-width:4; stroke-miterlimit:4; fill:none; " y2="2090.5511811" marker-end="url(#Arrow1Mend)" marker-start="url(#Arrow1Mstart)" transform="" x2="0.0" y1="449.610373395" x1="0.0" id="C.grainline" />
      <g id="C.letter" transform="matrix(15.000000, 0, 0, 15.000000, 6388.914860, -13029.964039)">
        <text style="font-size:24; vertical-align:top; fill-opacity:1.0; fill:#000000; text-anchor:start; stroke:none; font-weight:normal; font-style:normal; text-align:right; " transform="" id="C.letter.letterline" y="930.711717054" x="-456.351061426">
C</text>
      </g>
      <path style="stroke-linejoin:miter; stroke-dashoffset:0; stroke:green; stroke-miterlimit:4; stroke-dasharray:6,6; stroke-width:3; fill:none; " transform="" d="M 748.035263488  1391.39126072 L 483.661417323  1411.81306071 L 743.422880001  1465.05367452 " id="C.dartline" />
      <path style="stroke-linejoin:miter; stroke-dashoffset:0; stroke:green; stroke-dasharray:24,6; stroke-miterlimit:4; stroke-width:4; fill:none; " transform="" d="M 748.415382812  449.610373395 C 695.130967305  449.610373395  538.291546774  366.02367162  472.055803666  282.538690462 C 398.082344563  189.300922609  247.893806385  0.0  0.0  0.0 C -243.295810875  0.0  -386.042828744  186.461639735  -456.351061426  278.300954828 C -523.598711326  366.142419089  -689.195080186  449.610373395  -744.508661838  449.610373395 C -661.978748045  764.178976048  -576.565791922  1089.73649842  -531.496062992  1411.81306071 L -391.743801119  2410.50839671 C -139.165551075  2375.16390228  129.132427872  2374.62296723  372.268018928  2451.63004511 L 688.318400288  1453.75948064 L 690.135368207  1424.74145923 L 691.952336127  1395.72343783 L 748.415382812  449.610373395 " id="C.seamline" />
      <path style="fill:none;stroke:#008000;stroke-width:4;stroke-linejoin:miter;stroke-miterlimit:4" d="M -6.3125,-56.21875 C -99.066801,-55.528869 -191.00436,-28.033448 -269.90625,20.5 -355.45026,72.286268 -425.44817,145.74506 -485.96411,224.52534 -501.77196,246.26128 -519.1674,266.94533 -539.9375,284.125 -586.71098,323.71482 -640.11367,355.38045 -696.47463,379.04742 -716.10419,386.58923 -736.38217,394.9897 -757.84037,393.69088 -777.54983,394.1585 -797.25929,394.62613 -816.96875,395.09375 -731.44345,722.13339 -642.52676,1049.2876 -592.36719,1383.9026 -558.06814,1626.4386 -524.40444,1869.2173 -490.34895,2111.8489 -473.46085,2232.5137 -456.58528,2353.1803 -439.6875,2473.8438 -358.92263,2462.3543 -278.01266,2451.841 -196.5,2447.3438 -14.658064,2436.6661 170.69064,2448.6907 345.61053,2502.2364 366.73434,2508.8331 387.87099,2515.3887 409,2521.9688 520.6856,2169.3673 632.32562,1816.7513 744.03125,1464.1562 764.21903,1132.698 783.66705,801.19309 803.5629,469.7164 805.05257,444.75886 806.5418,419.8013 808.03125,394.84375 786.95648,393.97674 765.76286,394.44683 744.75,392.875 711.01604,385.25121 680.01276,368.83812 649.82226,352.43637 603.07189,325.54419 557.68132,294.53086 521.53125,254.125 480.56599,202.49707 438.37465,151.47435 389.54763,107.00794 314.14201,37.196583 223.14128,-18.040038 122.5,-41.84375 80.346144,-52.028767 37.046716,-56.718601 -6.3125,-56.21875 z" id="C.cuttingline" inkscape:connector-curvature="0" />
      <g id="C.info" transform="">
        <text style="font-size:12; vertical-align:top; fill-opacity:1.0; fill:#000000; text-anchor:start; stroke:none; font-weight:normal; font-style:normal; text-align:right; " transform="" id="C.info.lineNext Patterns" y="1001.57785879" x="-456.351061426">
Next Patterns</text>
        <text style="font-size:12; vertical-align:top; fill-opacity:1.0; fill:#000000; text-anchor:start; stroke:none; font-weight:normal; font-style:normal; text-align:right; " transform="" id="C.info.lineMR_B1" y="1015.97785879" x="-456.351061426">
MR_B1</text>
        <text style="font-size:12; vertical-align:top; fill-opacity:1.0; fill:#000000; text-anchor:start; stroke:none; font-weight:normal; font-style:normal; text-align:right; " transform="" id="C.info.lineSpencer Bodice Short" y="1030.37785879" x="-456.351061426">
Spencer Bodice Short</text>
        <text style="font-size:12; vertical-align:top; fill-opacity:1.0; fill:#000000; text-anchor:start; stroke:none; font-weight:normal; font-style:normal; text-align:right; " transform="" id="C.info.linePattern Piece C" y="1044.77785879" x="-456.351061426">
Pattern Piece C</text>
        <text style="font-size:12; vertical-align:top; fill-opacity:1.0; fill:#000000; text-anchor:start; stroke:none; font-weight:normal; font-style:normal; text-align:right; " transform="" id="C.info.lineCut 2 Fabric" y="1059.17785879" x="-456.351061426">
Cut 2 Fabric</text>
        <text style="font-size:12; vertical-align:top; fill-opacity:1.0; fill:#000000; text-anchor:start; stroke:none; font-weight:normal; font-style:normal; text-align:right; " transform="" id="C.info.line " y="1073.57785879" x="-456.351061426" />
        <text style="font-size:12; vertical-align:top; fill-opacity:1.0; fill:#000000; text-anchor:start; stroke:none; font-weight:normal; font-style:normal; text-align:right; " transform="" id="C.info.lineDressFormLg" y="1087.97785879" x="-456.351061426">
DressFormLg</text>
        <text style="font-size:12; vertical-align:top; fill-opacity:1.0; fill:#000000; text-anchor:start; stroke:none; font-weight:normal; font-style:normal; text-align:right; " transform="" id="C.info.line2014/11/12 21:57" y="1102.37785879" x="-456.351061426">
2014/11/12 21:57</text>
      </g>
    </g>
  </g>
  <g inkscape:label="Label-notes" id="notes" inkscape:groupmode="layer" transform="translate(88.582677,88.582677)">
    <g id="document.titleblock">
      <text style="font-size:40; vertical-align:top; fill-opacity:1.0; fill:#000000; text-anchor:right; stroke:none; font-weight:normal; font-style:normal; text-align:right; " transform="" id="company" y="0.0" x="0.0">
Next Patterns</text>
      <text style="font-size:40; vertical-align:top; fill-opacity:1.0; fill:#000000; text-anchor:right; stroke:none; font-weight:normal; font-style:normal; text-align:right; " transform="" id="designer" y="44.0" x="0.0">
S.L.Spencer</text>
      <text style="font-size:40; vertical-align:top; fill-opacity:1.0; fill:#000000; text-anchor:right; stroke:none; font-weight:normal; font-style:normal; text-align:right; " transform="" id="pattern_number" y="88.0" x="0.0">
MR_B1</text>
      <text style="font-size:40; vertical-align:top; fill-opacity:1.0; fill:#000000; text-anchor:right; stroke:none; font-weight:normal; font-style:normal; text-align:right; " transform="" id="pattern_name" y="132.0" x="0.0">
Spencer Bodice Short</text>
      <text style="font-size:40; vertical-align:top; fill-opacity:1.0; fill:#000000; text-anchor:right; stroke:none; font-weight:normal; font-style:normal; text-align:right; " transform="" id="client" y="176.0" x="0.0">
DressFormLg</text>
      <text style="font-size:40; vertical-align:top; fill-opacity:1.0; fill:#000000; text-anchor:right; stroke:none; font-weight:normal; font-style:normal; text-align:right; " transform="" id="date" y="220.0" x="0.0">
2014/11/12 21:57</text>
    </g>
    <g id="document.testgrid">
      <path style="stroke-linejoin:miter; stroke:green; stroke-width:4; stroke-miterlimit:4; fill:none; " d="M 1080.0  0.0 L 1080.0  212.598425197 M 1115.43307087  0.0 L 1115.43307087  212.598425197 M 1150.86614173  0.0 L 1150.86614173  212.598425197 M 1186.2992126  0.0 L 1186.2992126  212.598425197 M 1221.73228346  0.0 L 1221.73228346  212.598425197 M 1257.16535433  0.0 L 1257.16535433  212.598425197 M 1292.5984252  0.0 L 1292.5984252  212.598425197 M 1080.0  0.0 L 1292.5984252  0.0 M 1080.0  35.4330708661 L 1292.5984252  35.4330708661 M 1080.0  70.8661417323 L 1292.5984252  70.8661417323 M 1080.0  106.299212598 L 1292.5984252  106.299212598 M 1080.0  141.732283465 L 1292.5984252  141.732283465 M 1080.0  177.165354331 L 1292.5984252  177.165354331 M 1080.0  212.598425197 L 1292.5984252  212.598425197 M 1469.76377953  0.0 L 1469.76377953  270.0 M 1559.76377953  0.0 L 1559.76377953  270.0 M 1649.76377953  0.0 L 1649.76377953  270.0 M 1739.76377953  0.0 L 1739.76377953  270.0 M 1469.76377953  0.0 L 1739.76377953  0.0 M 1469.76377953  90.0 L 1739.76377953  90.0 M 1469.76377953  180.0 L 1739.76377953  180.0 M 1469.76377953  270.0 L 1739.76377953  270.0 " id="testgrid" />
    </g>
    <g id="document.bodice.Bodice Front.notes" transform=" translate(58.750000, 757.717638)" />
    <g id="document.bodice.Bodice Back.notes" transform=" translate(2379.756512, 580.552283)" />
    <g id="document.bodice.Bodice Sleeve.notes" transform=" translate(835.591339, 2240.279676)" />
  </g>
  <g inkscape:label="Label-reference" id="reference" inkscape:groupmode="layer" transform="translate(88.582677,88.582677)">
    <g id="document.bodice.Bodice Front.reference" transform=" translate(58.750000, 757.717638)">
      <circle style="stroke:gray; stroke-width:1; fill:none; " transform="" cy="0.0" cx="160.146981797" r="5" id="A.FNC.inpoint" d="M 165.14699,0 C 165.14699,2.7614237 162.90841,5 160.14699,5 157.38556,5 155.14699,2.7614237 155.14699,0 155.14699,-2.7614237 157.38556,-5 160.14699,-5 162.90841,-5 165.14699,-2.7614237 165.14699,0 z" />
      <text style="font-size:25; vertical-align:top; fill-opacity:1.0; fill:gray; text-anchor:right; stroke:none; font-weight:normal; font-style:italic; text-align:right; " transform="" id="A.FNC.inpoint.text" y="-7.0" x="167.146981797">
FNC.in</text>
      <circle style="stroke:red; stroke-width:1; fill:red; " transform="" cy="0.0" cx="0.0" r="5" id="A.FNC" d="M 5,0 C 5,2.7614237 2.7614237,5 0,5 -2.7614237,5 -5,2.7614237 -5,0 -5,-2.7614237 -2.7614237,-5 0,-5 2.7614237,-5 5,-2.7614237 5,0 z" />
      <text style="font-size:30; vertical-align:top; fill-opacity:1.0; fill:darkblue; text-anchor:right; stroke:none; font-weight:normal; font-style:italic; text-align:right; " transform="" id="A.FNC.text" y="-7.0" x="7.0">
FNC</text>
      <circle style="stroke:gray; stroke-width:1; fill:none; " transform="" cy="1240.15748031" cx="88.6462178188" r="5" id="A.FWC.outpoint" d="M 93.646217,1240.1575 C 93.646217,1242.9189 91.407641,1245.1575 88.646217,1245.1575 85.884794,1245.1575 83.646217,1242.9189 83.646217,1240.1575 83.646217,1237.396 85.884794,1235.1575 88.646217,1235.1575 91.407641,1235.1575 93.646217,1237.396 93.646217,1240.1575 z" />
      <text style="font-size:25; vertical-align:top; fill-opacity:1.0; fill:gray; text-anchor:right; stroke:none; font-weight:normal; font-style:italic; text-align:right; " transform="" id="A.FWC.outpoint.text" y="1233.15748031" x="95.6462178188">
FWC.out</text>
      <circle style="stroke:red; stroke-width:1; fill:red; " transform="" cy="1240.15748031" cx="0.0" r="5" id="A.FWC" d="M 5,1240.1575 C 5,1242.9189 2.7614237,1245.1575 0,1245.1575 -2.7614237,1245.1575 -5,1242.9189 -5,1240.1575 -5,1237.396 -2.7614237,1235.1575 0,1235.1575 2.7614237,1235.1575 5,1237.396 5,1240.1575 z" />
      <text style="font-size:30; vertical-align:top; fill-opacity:1.0; fill:darkblue; text-anchor:right; stroke:none; font-weight:normal; font-style:italic; text-align:right; " transform="" id="A.FWC.text" y="1233.15748031" x="7.0">
FWC</text>
      <circle style="stroke:red; stroke-width:1; fill:red; " transform="" cy="-318.897637795" cx="0.0" r="5" id="A.FSH" d="M 5,-318.89764 C 5,-316.13622 2.7614237,-313.89764 0,-313.89764 -2.7614237,-313.89764 -5,-316.13622 -5,-318.89764 -5,-321.65907 -2.7614237,-323.89764 0,-323.89764 2.7614237,-323.89764 5,-321.65907 5,-318.89764 z" />
      <text style="font-size:30; vertical-align:top; fill-opacity:1.0; fill:darkblue; text-anchor:right; stroke:none; font-weight:normal; font-style:italic; text-align:right; " transform="" id="A.FSH.text" y="-325.897637795" x="7.0">
FSH</text>
      <circle style="stroke:red; stroke-width:1; fill:red; " transform="" cy="-318.897637795" cx="717.519685039" r="5" id="A.FSW" d="M 722.51971,-318.89764 C 722.51971,-316.13622 720.28114,-313.89764 717.51971,-313.89764 714.75829,-313.89764 712.51971,-316.13622 712.51971,-318.89764 712.51971,-321.65907 714.75829,-323.89764 717.51971,-323.89764 720.28114,-323.89764 722.51971,-321.65907 722.51971,-318.89764 z" />
      <text style="font-size:30; vertical-align:top; fill-opacity:1.0; fill:darkblue; text-anchor:right; stroke:none; font-weight:normal; font-style:italic; text-align:right; " transform="" id="A.FSW.text" y="-325.897637795" x="724.519685039">
FSW</text>
      <circle style="stroke:gray; stroke-width:1; fill:none; " transform="" cy="-143.764315644" cx="700.644760759" r="5" id="A.FSP.inpoint" d="M 705.64478,-143.76431 C 705.64478,-141.00289 703.4062,-138.76431 700.64478,-138.76431 697.88335,-138.76431 695.64478,-141.00289 695.64478,-143.76431 695.64478,-146.52574 697.88335,-148.76431 700.64478,-148.76431 703.4062,-148.76431 705.64478,-146.52574 705.64478,-143.76431 z" />
      <text style="font-size:25; vertical-align:top; fill-opacity:1.0; fill:gray; text-anchor:right; stroke:none; font-weight:normal; font-style:italic; text-align:right; " transform="" id="A.FSP.inpoint.text" y="-150.764315644" x="707.644760759">
FSP.in</text>
      <circle style="stroke:red; stroke-width:1; fill:red; " transform="" cy="-223.334513127" cx="717.519685039" r="5" id="A.FSP" d="M 722.51971,-223.33452 C 722.51971,-220.57309 720.28114,-218.33452 717.51971,-218.33452 714.75829,-218.33452 712.51971,-220.57309 712.51971,-223.33452 712.51971,-226.09594 714.75829,-228.33452 717.51971,-228.33452 720.28114,-228.33452 722.51971,-226.09594 722.51971,-223.33452 z" />
      <text style="font-size:30; vertical-align:top; fill-opacity:1.0; fill:darkblue; text-anchor:right; stroke:none; font-weight:normal; font-style:italic; text-align:right; " transform="" id="A.FSP.text" y="-230.334513127" x="724.519685039">
FSP</text>
      <circle style="stroke:gray; stroke-width:1; fill:none; " transform="" cy="-162.917928626" cx="233.832093174" r="5" id="A.FNS.outpoint" d="M 238.83209,-162.91792 C 238.83209,-160.1565 236.59352,-157.91792 233.83209,-157.91792 231.07067,-157.91792 228.83209,-160.1565 228.83209,-162.91792 228.83209,-165.67935 231.07067,-167.91792 233.83209,-167.91792 236.59352,-167.91792 238.83209,-165.67935 238.83209,-162.91792 z" />
      <text style="font-size:25; vertical-align:top; fill-opacity:1.0; fill:gray; text-anchor:right; stroke:none; font-weight:normal; font-style:italic; text-align:right; " transform="" id="A.FNS.outpoint.text" y="-169.917928626" x="240.832093174">
FNS.out</text>
      <circle style="stroke:red; stroke-width:1; fill:red; " transform="" cy="-318.897637795" cx="266.911636328" r="5" id="A.FNS" d="M 271.91162,-318.89764 C 271.91162,-316.13622 269.67304,-313.89764 266.91162,-313.89764 264.1502,-313.89764 261.91162,-316.13622 261.91162,-318.89764 261.91162,-321.65907 264.1502,-323.89764 266.91162,-323.89764 269.67304,-323.89764 271.91162,-321.65907 271.91162,-318.89764 z" />
      <text style="font-size:30; vertical-align:top; fill-opacity:1.0; fill:darkblue; text-anchor:right; stroke:none; font-weight:normal; font-style:italic; text-align:right; " transform="" id="A.FNS.text" y="-325.897637795" x="273.911636328">
FNS</text>
      <circle style="stroke:red; stroke-width:1; fill:red; " transform="" cy="318.897637795" cx="0.0" r="5" id="A.FUC" d="M 5,318.89764 C 5,321.65907 2.7614237,323.89764 0,323.89764 -2.7614237,323.89764 -5,321.65907 -5,318.89764 -5,316.13622 -2.7614237,313.89764 0,313.89764 2.7614237,313.89764 5,316.13622 5,318.89764 z" />
      <text style="font-size:30; vertical-align:top; fill-opacity:1.0; fill:darkblue; text-anchor:right; stroke:none; font-weight:normal; font-style:italic; text-align:right; " transform="" id="A.FUC.text" y="311.897637795" x="7.0">
FUC</text>
      <circle style="stroke:red; stroke-width:1; fill:red; " transform="" cy="637.795275591" cx="0.0" r="5" id="A.FBC" d="M 5,637.79529 C 5,640.55671 2.7614237,642.79529 0,642.79529 -2.7614237,642.79529 -5,640.55671 -5,637.79529 -5,635.03386 -2.7614237,632.79529 0,632.79529 2.7614237,632.79529 5,635.03386 5,637.79529 z" />
      <text style="font-size:30; vertical-align:top; fill-opacity:1.0; fill:darkblue; text-anchor:right; stroke:none; font-weight:normal; font-style:italic; text-align:right; " transform="" id="A.FBC.text" y="630.795275591" x="7.0">
FBC</text>
      <circle style="stroke:red; stroke-width:1; fill:red; " transform="" cy="637.795275591" cx="354.330708661" r="5" id="A.FBP" d="M 359.33072,637.79529 C 359.33072,640.55671 357.09214,642.79529 354.33072,642.79529 351.5693,642.79529 349.33072,640.55671 349.33072,637.79529 349.33072,635.03386 351.5693,632.79529 354.33072,632.79529 357.09214,632.79529 359.33072,635.03386 359.33072,637.79529 z" />
      <text style="font-size:30; vertical-align:top; fill-opacity:1.0; fill:darkblue; text-anchor:right; stroke:none; font-weight:normal; font-style:italic; text-align:right; " transform="" id="A.FBP.text" y="630.795275591" x="361.330708661">
FBP</text>
      <circle style="stroke:gray; stroke-width:1; fill:none; " transform="" cy="405.875075416" cx="772.084679423" r="5" id="A.FAP.inpoint" d="M 777.08466,405.87506 C 777.08466,408.63648 774.84608,410.87506 772.08466,410.87506 769.32323,410.87506 767.08466,408.63648 767.08466,405.87506 767.08466,403.11364 769.32323,400.87506 772.08466,400.87506 774.84608,400.87506 777.08466,403.11364 777.08466,405.87506 z" />
      <text style="font-size:25; vertical-align:top; fill-opacity:1.0; fill:gray; text-anchor:right; stroke:none; font-weight:normal; font-style:italic; text-align:right; " transform="" id="A.FAP.inpoint.text" y="398.875075416" x="779.084679423">
FAP.in</text>
      <circle style="stroke:gray; stroke-width:1; fill:none; " transform="" cy="172.091907325" cx="609.135726881" r="5" id="A.FAP.outpoint" d="M 614.13574,172.0919 C 614.13574,174.85333 611.89717,177.0919 609.13574,177.0919 606.37432,177.0919 604.13574,174.85333 604.13574,172.0919 604.13574,169.33048 606.37432,167.0919 609.13574,167.0919 611.89717,167.0919 614.13574,169.33048 614.13574,172.0919 z" />
      <text style="font-size:25; vertical-align:top; fill-opacity:1.0; fill:gray; text-anchor:right; stroke:none; font-weight:normal; font-style:italic; text-align:right; " transform="" id="A.FAP.outpoint.text" y="165.091907325" x="616.135726881">
FAP.out</text>
      <circle style="stroke:red; stroke-width:1; fill:red; " transform="" cy="318.897637795" cx="711.460629921" r="5" id="A.FAP" d="M 716.46063,318.89764 C 716.46063,321.65907 714.22206,323.89764 711.46063,323.89764 708.69921,323.89764 706.46063,321.65907 706.46063,318.89764 706.46063,316.13622 708.69921,313.89764 711.46063,313.89764 714.22206,313.89764 716.46063,316.13622 716.46063,318.89764 z" />
      <text style="font-size:30; vertical-align:top; fill-opacity:1.0; fill:darkblue; text-anchor:right; stroke:none; font-weight:normal; font-style:italic; text-align:right; " transform="" id="A.FAP.text" y="311.897637795" x="718.460629921">
FAP</text>
      <circle style="stroke:red; stroke-width:1; fill:red; " transform="" cy="318.897637795" cx="921.25984252" r="5" id="A.f1" d="M 926.25983,318.89764 C 926.25983,321.65907 924.02125,323.89764 921.25983,323.89764 918.4984,323.89764 916.25983,321.65907 916.25983,318.89764 916.25983,316.13622 918.4984,313.89764 921.25983,313.89764 924.02125,313.89764 926.25983,316.13622 926.25983,318.89764 z" />
      <text style="font-size:30; vertical-align:top; fill-opacity:1.0; fill:darkblue; text-anchor:right; stroke:none; font-weight:normal; font-style:italic; text-align:right; " transform="" id="A.f1.text" y="311.897637795" x="928.25984252">
f1</text>
      <circle style="stroke:red; stroke-width:1; fill:red; " transform="" cy="440.379318512" cx="960.803917844" r="5" id="A.f2" d="M 965.80389,440.37933 C 965.80389,443.14076 963.56532,445.37933 960.80389,445.37933 958.04247,445.37933 955.80389,443.14076 955.80389,440.37933 955.80389,437.61791 958.04247,435.37933 960.80389,435.37933 963.56532,435.37933 965.80389,437.61791 965.80389,440.37933 z" />
      <text style="font-size:30; vertical-align:top; fill-opacity:1.0; fill:darkblue; text-anchor:right; stroke:none; font-weight:normal; font-style:italic; text-align:right; " transform="" id="A.f2.text" y="433.379318512" x="967.803917844">
f2</text>
      <circle style="stroke:red; stroke-width:1; fill:red; " transform="" cy="992.756759109" cx="1140.61090594" r="5" id="A.f3" d="M 1145.611,992.75677 C 1145.611,995.5182 1143.3724,997.75677 1140.611,997.75677 1137.8495,997.75677 1135.611,995.5182 1135.611,992.75677 1135.611,989.99535 1137.8495,987.75677 1140.611,987.75677 1143.3724,987.75677 1145.611,989.99535 1145.611,992.75677 z" />
      <text style="font-size:30; vertical-align:top; fill-opacity:1.0; fill:darkblue; text-anchor:right; stroke:none; font-weight:normal; font-style:italic; text-align:right; " transform="" id="A.f3.text" y="985.756759109" x="1147.61090594">
f3</text>
      <circle style="stroke:red; stroke-width:1; fill:red; " transform="" cy="1240.15748031" cx="354.330708661" r="5" id="A.f4" d="M 359.33072,1240.1575 C 359.33072,1242.9189 357.09214,1245.1575 354.33072,1245.1575 351.5693,1245.1575 349.33072,1242.9189 349.33072,1240.1575 349.33072,1237.396 351.5693,1235.1575 354.33072,1235.1575 357.09214,1235.1575 359.33072,1237.396 359.33072,1240.1575 z" />
      <text style="font-size:30; vertical-align:top; fill-opacity:1.0; fill:darkblue; text-anchor:right; stroke:none; font-weight:normal; font-style:italic; text-align:right; " transform="" id="A.f4.text" y="1233.15748031" x="361.330708661">
f4</text>
      <circle style="stroke:red; stroke-width:1; fill:red; " transform="" cy="1150.61284812" cx="670.334447545" r="5" id="A.f5" d="M 675.33447,1150.6128 C 675.33447,1153.3742 673.0959,1155.6128 670.33447,1155.6128 667.57305,1155.6128 665.33447,1153.3742 665.33447,1150.6128 665.33447,1147.8514 667.57305,1145.6128 670.33447,1145.6128 673.0959,1145.6128 675.33447,1147.8514 675.33447,1150.6128 z" />
      <text style="font-size:30; vertical-align:top; fill-opacity:1.0; fill:darkblue; text-anchor:right; stroke:none; font-weight:normal; font-style:italic; text-align:right; " transform="" id="A.f5.text" y="1143.61284812" x="677.334447545">
f5</text>
      <circle style="stroke:red; stroke-width:1; fill:red; " transform="" cy="977.505005481" cx="1187.46517297" r="5" id="A.f6" d="M 1192.4652,977.505 C 1192.4652,980.26643 1190.2266,982.505 1187.4652,982.505 1184.7038,982.505 1182.4652,980.26643 1182.4652,977.505 1182.4652,974.74358 1184.7038,972.505 1187.4652,972.505 1190.2266,972.505 1192.4652,974.74358 1192.4652,977.505 z" />
      <text style="font-size:30; vertical-align:top; fill-opacity:1.0; fill:darkblue; text-anchor:right; stroke:none; font-weight:normal; font-style:italic; text-align:right; " transform="" id="A.f6.text" y="970.505005481" x="1194.46517297">
f6</text>
      <circle style="stroke:red; stroke-width:1; fill:red; " transform="" cy="295.229658052" cx="993.969241709" r="5" id="A.f7" d="M 998.96924,295.22964 C 998.96924,297.99107 996.73066,300.22964 993.96924,300.22964 991.20781,300.22964 988.96924,297.99107 988.96924,295.22964 988.96924,292.46822 991.20781,290.22964 993.96924,290.22964 996.73066,290.22964 998.96924,292.46822 998.96924,295.22964 z" />
      <text style="font-size:30; vertical-align:top; fill-opacity:1.0; fill:darkblue; text-anchor:right; stroke:none; font-weight:normal; font-style:italic; text-align:right; " transform="" id="A.f7.text" y="288.229658052" x="1000.96924171">
f7</text>
      <circle style="stroke:red; stroke-width:1; fill:red; " transform="" cy="418.228595509" cx="1028.8522168" r="5" id="A.FBS" d="M 1033.8522,418.22861 C 1033.8522,420.99003 1031.6136,423.22861 1028.8522,423.22861 1026.0907,423.22861 1023.8522,420.99003 1023.8522,418.22861 1023.8522,415.46718 1026.0907,413.22861 1028.8522,413.22861 1031.6136,413.22861 1033.8522,415.46718 1033.8522,418.22861 z" />
      <text style="font-size:30; vertical-align:top; fill-opacity:1.0; fill:darkblue; text-anchor:right; stroke:none; font-weight:normal; font-style:italic; text-align:right; " transform="" id="A.FBS.text" y="411.228595509" x="1035.8522168">
FBS</text>
      <circle style="stroke:gray; stroke-width:1; fill:none; " transform="" cy="437.27316057" cx="900.773673277" r="5" id="A.FUS.outpoint" d="M 905.77368,437.27316 C 905.77368,440.03459 903.53511,442.27316 900.77368,442.27316 898.01226,442.27316 895.77368,440.03459 895.77368,437.27316 895.77368,434.51174 898.01226,432.27316 900.77368,432.27316 903.53511,432.27316 905.77368,434.51174 905.77368,437.27316 z" />
      <text style="font-size:25; vertical-align:top; fill-opacity:1.0; fill:gray; text-anchor:right; stroke:none; font-weight:normal; font-style:italic; text-align:right; " transform="" id="A.FUS.outpoint.text" y="430.27316057" x="907.773673277">
FUS.out</text>
      <circle style="stroke:red; stroke-width:1; fill:red; " transform="" cy="397.495711804" cx="1022.97229067" r="5" id="A.FUS" d="M 1027.9723,397.4957 C 1027.9723,400.25712 1025.7337,402.4957 1022.9723,402.4957 1020.2109,402.4957 1017.9723,400.25712 1017.9723,397.4957 1017.9723,394.73427 1020.2109,392.4957 1022.9723,392.4957 1025.7337,392.4957 1027.9723,394.73427 1027.9723,397.4957 z" />
      <text style="font-size:30; vertical-align:top; fill-opacity:1.0; fill:darkblue; text-anchor:right; stroke:none; font-weight:normal; font-style:italic; text-align:right; " transform="" id="A.FUS.text" y="390.495711804" x="1029.97229067">
FUS</text>
      <circle style="stroke:gray; stroke-width:1; fill:none; " transform="" cy="1202.2485947" cx="856.949499848" r="5" id="A.FWS.inpoint" d="M 861.94952,1202.2485 C 861.94952,1205.01 859.71095,1207.2485 856.94952,1207.2485 854.1881,1207.2485 851.94952,1205.01 851.94952,1202.2485 851.94952,1199.4871 854.1881,1197.2485 856.94952,1197.2485 859.71095,1197.2485 861.94952,1199.4871 861.94952,1202.2485 z" />
      <text style="font-size:25; vertical-align:top; fill-opacity:1.0; fill:gray; text-anchor:right; stroke:none; font-weight:normal; font-style:italic; text-align:right; " transform="" id="A.FWS.inpoint.text" y="1195.2485947" x="863.949499848">
FWS.in</text>
      <circle style="stroke:red; stroke-width:1; fill:red; " transform="" cy="1191.7749495" cx="1063.28928086" r="5" id="A.FWS" d="M 1068.2893,1191.7749 C 1068.2893,1194.5363 1066.0507,1196.7749 1063.2893,1196.7749 1060.5279,1196.7749 1058.2893,1194.5363 1058.2893,1191.7749 1058.2893,1189.0135 1060.5279,1186.7749 1063.2893,1186.7749 1066.0507,1186.7749 1068.2893,1189.0135 1068.2893,1191.7749 z" />
      <text style="font-size:30; vertical-align:top; fill-opacity:1.0; fill:darkblue; text-anchor:right; stroke:none; font-weight:normal; font-style:italic; text-align:right; " transform="" id="A.FWS.text" y="1184.7749495" x="1070.28928086">
FWS</text>
      <circle style="stroke:red; stroke-width:1; fill:red; " transform="" cy="637.795275591" cx="442.745684951" r="5" id="A.FD2" d="M 447.7457,637.79529 C 447.7457,640.55671 445.50712,642.79529 442.7457,642.79529 439.98427,642.79529 437.7457,640.55671 437.7457,637.79529 437.7457,635.03386 439.98427,632.79529 442.7457,632.79529 445.50712,632.79529 447.7457,635.03386 447.7457,637.79529 z" />
      <text style="font-size:30; vertical-align:top; fill-opacity:1.0; fill:darkblue; text-anchor:right; stroke:none; font-weight:normal; font-style:italic; text-align:right; " transform="" id="A.FD2.text" y="630.795275591" x="449.745684951">
FD2</text>
      <circle style="stroke:red; stroke-width:1; fill:red; " transform="" cy="637.795275591" cx="1094.54185159" r="5" id="A.FD2.i" d="M 1099.5419,637.79529 C 1099.5419,640.55671 1097.3033,642.79529 1094.5419,642.79529 1091.7804,642.79529 1089.5419,640.55671 1089.5419,637.79529 1089.5419,635.03386 1091.7804,632.79529 1094.5419,632.79529 1097.3033,632.79529 1099.5419,635.03386 1099.5419,637.79529 z" />
      <text style="font-size:30; vertical-align:top; fill-opacity:1.0; fill:darkblue; text-anchor:right; stroke:none; font-weight:normal; font-style:italic; text-align:right; " transform="" id="A.FD2.i.text" y="630.795275591" x="1101.54185159">
FD2.i</text>
      <circle style="stroke:red; stroke-width:1; fill:red; " transform="" cy="838.552215645" cx="1062.85446078" r="5" id="A.FD2.o" d="M 1067.8545,838.55225 C 1067.8545,841.31367 1065.6159,843.55225 1062.8545,843.55225 1060.0931,843.55225 1057.8545,841.31367 1057.8545,838.55225 1057.8545,835.79082 1060.0931,833.55225 1062.8545,833.55225 1065.6159,833.55225 1067.8545,835.79082 1067.8545,838.55225 z" />
      <text style="font-size:30; vertical-align:top; fill-opacity:1.0; fill:darkblue; text-anchor:right; stroke:none; font-weight:normal; font-style:italic; text-align:right; " transform="" id="A.FD2.o.text" y="831.552215645" x="1069.85446078">
FD2.o</text>
      <circle style="stroke:red; stroke-width:1; fill:red; " transform="" cy="1240.15748031" cx="270.633997225" r="5" id="A.f8" d="M 275.634,1240.1575 C 275.634,1242.9189 273.39543,1245.1575 270.634,1245.1575 267.87258,1245.1575 265.634,1242.9189 265.634,1240.1575 265.634,1237.396 267.87258,1235.1575 270.634,1235.1575 273.39543,1235.1575 275.634,1237.396 275.634,1240.1575 z" />
      <text style="font-size:30; vertical-align:top; fill-opacity:1.0; fill:darkblue; text-anchor:right; stroke:none; font-weight:normal; font-style:italic; text-align:right; " transform="" id="A.f8.text" y="1233.15748031" x="277.633997225">
f8</text>
      <circle style="stroke:red; stroke-width:1; fill:red; " transform="" cy="1240.15748031" cx="438.027420098" r="5" id="A.f9" d="M 443.02744,1240.1575 C 443.02744,1242.9189 440.78886,1245.1575 438.02744,1245.1575 435.26601,1245.1575 433.02744,1242.9189 433.02744,1240.1575 433.02744,1237.396 435.26601,1235.1575 438.02744,1235.1575 440.78886,1235.1575 443.02744,1237.396 443.02744,1240.1575 z" />
      <text style="font-size:30; vertical-align:top; fill-opacity:1.0; fill:darkblue; text-anchor:right; stroke:none; font-weight:normal; font-style:italic; text-align:right; " transform="" id="A.f9.text" y="1233.15748031" x="445.027420098">
f9</text>
      <circle style="stroke:red; stroke-width:1; fill:red; " transform="" cy="710.078740157" cx="354.330708661" r="5" id="A.FD1" d="M 359.33072,710.07874 C 359.33072,712.84016 357.09214,715.07874 354.33072,715.07874 351.5693,715.07874 349.33072,712.84016 349.33072,710.07874 349.33072,707.31731 351.5693,705.07874 354.33072,705.07874 357.09214,705.07874 359.33072,707.31731 359.33072,710.07874 z" />
      <text style="font-size:30; vertical-align:top; fill-opacity:1.0; fill:darkblue; text-anchor:right; stroke:none; font-weight:normal; font-style:italic; text-align:right; " transform="" id="A.FD1.text" y="703.078740157" x="361.330708661">
FD1</text>
      <circle style="stroke:gray; stroke-width:1; fill:none; " transform="" cy="1240.15748031" cx="169.417059436" r="5" id="A.FD1.i.inpoint" d="M 174.41705,1240.1575 C 174.41705,1242.9189 172.17848,1245.1575 169.41705,1245.1575 166.65563,1245.1575 164.41705,1242.9189 164.41705,1240.1575 164.41705,1237.396 166.65563,1235.1575 169.41705,1235.1575 172.17848,1235.1575 174.41705,1237.396 174.41705,1240.1575 z" />
      <text style="font-size:25; vertical-align:top; fill-opacity:1.0; fill:gray; text-anchor:right; stroke:none; font-weight:normal; font-style:italic; text-align:right; " transform="" id="A.FD1.i.inpoint.text" y="1233.15748031" x="176.417059436">
FD1.i.in</text>
      <circle style="stroke:red; stroke-width:1; fill:red; " transform="" cy="1255.75037202" cx="268.171959685" r="5" id="A.FD1.i" d="M 273.17197,1255.7504 C 273.17197,1258.5118 270.93339,1260.7504 268.17197,1260.7504 265.41054,1260.7504 263.17197,1258.5118 263.17197,1255.7504 263.17197,1252.9889 265.41054,1250.7504 268.17197,1250.7504 270.93339,1250.7504 273.17197,1252.9889 273.17197,1255.7504 z" />
      <text style="font-size:30; vertical-align:top; fill-opacity:1.0; fill:darkblue; text-anchor:right; stroke:none; font-weight:normal; font-style:italic; text-align:right; " transform="" id="A.FD1.i.text" y="1248.75037202" x="275.171959685">
FD1.i</text>
      <circle style="stroke:gray; stroke-width:1; fill:none; " transform="" cy="1224.79823872" cx="636.519475316" r="5" id="A.FD1.o.outpoint" d="M 641.51947,1224.7982 C 641.51947,1227.5596 639.28089,1229.7982 636.51947,1229.7982 633.75805,1229.7982 631.51947,1227.5596 631.51947,1224.7982 631.51947,1222.0368 633.75805,1219.7982 636.51947,1219.7982 639.28089,1219.7982 641.51947,1222.0368 641.51947,1224.7982 z" />
      <text style="font-size:25; vertical-align:top; fill-opacity:1.0; fill:gray; text-anchor:right; stroke:none; font-weight:normal; font-style:italic; text-align:right; " transform="" id="A.FD1.o.outpoint.text" y="1217.79823872" x="643.519475316">
FD1.o.out</text>
      <circle style="stroke:red; stroke-width:1; fill:red; " transform="" cy="1255.75037202" cx="440.489457638" r="5" id="A.FD1.o" d="M 445.48947,1255.7504 C 445.48947,1258.5118 443.2509,1260.7504 440.48947,1260.7504 437.72805,1260.7504 435.48947,1258.5118 435.48947,1255.7504 435.48947,1252.9889 437.72805,1250.7504 440.48947,1250.7504 443.2509,1250.7504 445.48947,1252.9889 445.48947,1255.7504 z" />
      <text style="font-size:30; vertical-align:top; fill-opacity:1.0; fill:darkblue; text-anchor:right; stroke:none; font-weight:normal; font-style:italic; text-align:right; " transform="" id="A.FD1.o.text" y="1248.75037202" x="447.489457638">
FD1.o</text>
      <path style="stroke-linejoin:miter; stroke-dashoffset:0; stroke:gray; stroke-miterlimit:4; stroke-dasharray:6,6; stroke-width:2; fill:none; " transform="" d="M 0.0  1240.15748031 L 717.519685039  -223.334513127 L 717.519685039  -318.897637795 L 0.0  -318.897637795 L 0.0  0.0 M 0.0  637.795275591 L 354.330708661  637.795275591 L 1028.8522168  418.228595509 M 0.0  318.897637795 L 921.25984252  318.897637795 L 993.969241709  295.229658052 L 1187.46517297  977.505005481 L 1140.61090594  992.756759109 L 921.25984252  318.897637795 M 0.0  1240.15748031 L 354.330708661  1240.15748031 L 354.330708661  637.795275591 L 670.334447545  1150.61284812 L 1140.61090594  992.756759109 M 354.330708661  637.795275591 L 442.745684951  637.795275591 " id="A.gridline" />
    </g>
    <g id="document.bodice.Bodice Back.reference" transform=" translate(2379.756512, 580.552283)">
      <circle style="stroke:gray; stroke-width:1; fill:none; " transform="" cy="0.0" cx="-213.353231784" r="5" id="B.BNC.inpoint" d="M -208.35323,0 C -208.35323,2.7614237 -210.5918,5 -213.35323,5 -216.11465,5 -218.35323,2.7614237 -218.35323,0 -218.35323,-2.7614237 -216.11465,-5 -213.35323,-5 -210.5918,-5 -208.35323,-2.7614237 -208.35323,0 z" />
      <text style="font-size:25; vertical-align:top; fill-opacity:1.0; fill:gray; text-anchor:right; stroke:none; font-weight:normal; font-style:italic; text-align:right; " transform="" id="B.BNC.inpoint.text" y="-7.0" x="-206.353231784">
BNC.in</text>
      <circle style="stroke:red; stroke-width:1; fill:red; " transform="" cy="0.0" cx="0.0" r="5" id="B.BNC" d="M 5,0 C 5,2.7614237 2.7614237,5 0,5 -2.7614237,5 -5,2.7614237 -5,0 -5,-2.7614237 -2.7614237,-5 0,-5 2.7614237,-5 5,-2.7614237 5,0 z" />
      <text style="font-size:30; vertical-align:top; fill-opacity:1.0; fill:darkblue; text-anchor:right; stroke:none; font-weight:normal; font-style:italic; text-align:right; " transform="" id="B.BNC.text" y="-7.0" x="7.0">
BNC</text>
      <circle style="stroke:gray; stroke-width:1; fill:none; " transform="" cy="1346.45669291" cx="-101.065792802" r="5" id="B.BWC.outpoint" d="M -96.065796,1346.4567 C -96.065796,1349.2181 -98.304372,1351.4567 -101.0658,1351.4567 -103.82722,1351.4567 -106.0658,1349.2181 -106.0658,1346.4567 -106.0658,1343.6952 -103.82722,1341.4567 -101.0658,1341.4567 -98.304372,1341.4567 -96.065796,1343.6952 -96.065796,1346.4567 z" />
      <text style="font-size:25; vertical-align:top; fill-opacity:1.0; fill:gray; text-anchor:right; stroke:none; font-weight:normal; font-style:italic; text-align:right; " transform="" id="B.BWC.outpoint.text" y="1339.45669291" x="-94.0657928018">
BWC.out</text>
      <circle style="stroke:red; stroke-width:1; fill:red; " transform="" cy="1346.45669291" cx="0.0" r="5" id="B.BWC" d="M 5,1346.4567 C 5,1349.2181 2.7614237,1351.4567 0,1351.4567 -2.7614237,1351.4567 -5,1349.2181 -5,1346.4567 -5,1343.6952 -2.7614237,1341.4567 0,1341.4567 2.7614237,1341.4567 5,1343.6952 5,1346.4567 z" />
      <text style="font-size:30; vertical-align:top; fill-opacity:1.0; fill:darkblue; text-anchor:right; stroke:none; font-weight:normal; font-style:italic; text-align:right; " transform="" id="B.BWC.text" y="1339.45669291" x="7.0">
BWC</text>
      <circle style="stroke:red; stroke-width:1; fill:red; " transform="" cy="-141.732283465" cx="0.0" r="5" id="B.BSH" d="M 5,-141.73228 C 5,-138.97086 2.7614237,-136.73228 0,-136.73228 -2.7614237,-136.73228 -5,-138.97086 -5,-141.73228 -5,-144.49371 -2.7614237,-146.73228 0,-146.73228 2.7614237,-146.73228 5,-144.49371 5,-141.73228 z" />
      <text style="font-size:30; vertical-align:top; fill-opacity:1.0; fill:darkblue; text-anchor:right; stroke:none; font-weight:normal; font-style:italic; text-align:right; " transform="" id="B.BSH.text" y="-148.732283465" x="7.0">
BSH</text>
      <circle style="stroke:red; stroke-width:1; fill:red; " transform="" cy="-141.732283465" cx="-708.661417323" r="5" id="B.BSW" d="M -703.66144,-141.73228 C -703.66144,-138.97086 -705.90001,-136.73228 -708.66144,-136.73228 -711.42286,-136.73228 -713.66144,-138.97086 -713.66144,-141.73228 -713.66144,-144.49371 -711.42286,-146.73228 -708.66144,-146.73228 -705.90001,-146.73228 -703.66144,-144.49371 -703.66144,-141.73228 z" />
      <text style="font-size:30; vertical-align:top; fill-opacity:1.0; fill:darkblue; text-anchor:right; stroke:none; font-weight:normal; font-style:italic; text-align:right; " transform="" id="B.BSW.text" y="-148.732283465" x="-701.661417323">
BSW</text>
      <circle style="stroke:gray; stroke-width:1; fill:none; " transform="" cy="159.098054515" cx="-682.311280813" r="5" id="B.BSP.inpoint" d="M -677.31128,159.09805 C -677.31128,161.85948 -679.54986,164.09805 -682.31128,164.09805 -685.0727,164.09805 -687.31128,161.85948 -687.31128,159.09805 -687.31128,156.33663 -685.0727,154.09805 -682.31128,154.09805 -679.54986,154.09805 -677.31128,156.33663 -677.31128,159.09805 z" />
      <text style="font-size:25; vertical-align:top; fill-opacity:1.0; fill:gray; text-anchor:right; stroke:none; font-weight:normal; font-style:italic; text-align:right; " transform="" id="B.BSP.inpoint.text" y="152.098054515" x="-675.311280813">
BSP.in</text>
      <circle style="stroke:red; stroke-width:1; fill:red; " transform="" cy="84.8830892163" cx="-720.851607312" r="5" id="B.BSP" d="M -715.85162,84.883087 C -715.85162,87.644511 -718.0902,89.883087 -720.85162,89.883087 -723.61305,89.883087 -725.85162,87.644511 -725.85162,84.883087 -725.85162,82.121663 -723.61305,79.883087 -720.85162,79.883087 -718.0902,79.883087 -715.85162,82.121663 -715.85162,84.883087 z" />
      <text style="font-size:30; vertical-align:top; fill-opacity:1.0; fill:darkblue; text-anchor:right; stroke:none; font-weight:normal; font-style:italic; text-align:right; " transform="" id="B.BSP.text" y="77.8830892163" x="-713.851607312">
BSP</text>
      <circle style="stroke:gray; stroke-width:1; fill:none; " transform="" cy="-78.3927191927" cx="-252.688753608" r="5" id="B.BNS.outpoint" d="M -247.68875,-78.392715 C -247.68875,-75.631292 -249.92733,-73.392715 -252.68875,-73.392715 -255.45017,-73.392715 -257.68875,-75.631292 -257.68875,-78.392715 -257.68875,-81.154139 -255.45017,-83.392715 -252.68875,-83.392715 -249.92733,-83.392715 -247.68875,-81.154139 -247.68875,-78.392715 z" />
      <text style="font-size:25; vertical-align:top; fill-opacity:1.0; fill:gray; text-anchor:right; stroke:none; font-weight:normal; font-style:italic; text-align:right; " transform="" id="B.BNS.outpoint.text" y="-85.3927191927" x="-245.688753608">
BNS.out</text>
      <circle style="stroke:red; stroke-width:1; fill:red; " transform="" cy="-141.732283465" cx="-284.470975712" r="5" id="B.BNS" d="M -279.47098,-141.73228 C -279.47098,-138.97086 -281.70955,-136.73228 -284.47098,-136.73228 -287.2324,-136.73228 -289.47098,-138.97086 -289.47098,-141.73228 -289.47098,-144.49371 -287.2324,-146.73228 -284.47098,-146.73228 -281.70955,-146.73228 -279.47098,-144.49371 -279.47098,-141.73228 z" />
      <text style="font-size:30; vertical-align:top; fill-opacity:1.0; fill:darkblue; text-anchor:right; stroke:none; font-weight:normal; font-style:italic; text-align:right; " transform="" id="B.BNS.text" y="-148.732283465" x="-277.470975712">
BNS</text>
      <circle style="stroke:red; stroke-width:1; fill:red; " transform="" cy="637.795275591" cx="0.0" r="5" id="B.BUC" d="M 5,637.79529 C 5,640.55671 2.7614237,642.79529 0,642.79529 -2.7614237,642.79529 -5,640.55671 -5,637.79529 -5,635.03386 -2.7614237,632.79529 0,632.79529 2.7614237,632.79529 5,635.03386 5,637.79529 z" />
      <text style="font-size:30; vertical-align:top; fill-opacity:1.0; fill:darkblue; text-anchor:right; stroke:none; font-weight:normal; font-style:italic; text-align:right; " transform="" id="B.BUC.text" y="630.795275591" x="7.0">
BUC</text>
      <circle style="stroke:gray; stroke-width:1; fill:none; " transform="" cy="710.837021319" cx="-683.651555005" r="5" id="B.BAP.inpoint" d="M -678.65155,710.83704 C -678.65155,713.59846 -680.89013,715.83704 -683.65155,715.83704 -686.41297,715.83704 -688.65155,713.59846 -688.65155,710.83704 -688.65155,708.07561 -686.41297,705.83704 -683.65155,705.83704 -680.89013,705.83704 -678.65155,708.07561 -678.65155,710.83704 z" />
      <text style="font-size:25; vertical-align:top; fill-opacity:1.0; fill:gray; text-anchor:right; stroke:none; font-weight:normal; font-style:italic; text-align:right; " transform="" id="B.BAP.inpoint.text" y="703.837021319" x="-676.651555005">
BAP.in</text>
      <circle style="stroke:gray; stroke-width:1; fill:none; " transform="" cy="471.177919926" cx="-571.4410187" r="5" id="B.BAP.outpoint" d="M -566.44104,471.17792 C -566.44104,473.93934 -568.67962,476.17792 -571.44104,476.17792 -574.20246,476.17792 -576.44104,473.93934 -576.44104,471.17792 -576.44104,468.41649 -574.20246,466.17792 -571.44104,466.17792 -568.67962,466.17792 -566.44104,468.41649 -566.44104,471.17792 z" />
      <text style="font-size:25; vertical-align:top; fill-opacity:1.0; fill:gray; text-anchor:right; stroke:none; font-weight:normal; font-style:italic; text-align:right; " transform="" id="B.BAP.outpoint.text" y="464.177919926" x="-564.4410187">
BAP.out</text>
      <circle style="stroke:red; stroke-width:1; fill:red; " transform="" cy="637.795275591" cx="-649.452755906" r="5" id="B.BAP" d="M -644.45276,637.79529 C -644.45276,640.55671 -646.69134,642.79529 -649.45276,642.79529 -652.21418,642.79529 -654.45276,640.55671 -654.45276,637.79529 -654.45276,635.03386 -652.21418,632.79529 -649.45276,632.79529 -646.69134,632.79529 -644.45276,635.03386 -644.45276,637.79529 z" />
      <text style="font-size:30; vertical-align:top; fill-opacity:1.0; fill:darkblue; text-anchor:right; stroke:none; font-weight:normal; font-style:italic; text-align:right; " transform="" id="B.BAP.text" y="630.795275591" x="-642.452755906">
BAP</text>
      <circle style="stroke:red; stroke-width:1; fill:red; " transform="" cy="637.795275591" cx="-885.826771654" r="5" id="B.b1" d="M -880.82678,637.79529 C -880.82678,640.55671 -883.06536,642.79529 -885.82678,642.79529 -888.58821,642.79529 -890.82678,640.55671 -890.82678,637.79529 -890.82678,635.03386 -888.58821,632.79529 -885.82678,632.79529 -883.06536,632.79529 -880.82678,635.03386 -880.82678,637.79529 z" />
      <text style="font-size:30; vertical-align:top; fill-opacity:1.0; fill:darkblue; text-anchor:right; stroke:none; font-weight:normal; font-style:italic; text-align:right; " transform="" id="B.b1.text" y="630.795275591" x="-878.826771654">
b1</text>
      <circle style="stroke:red; stroke-width:1; fill:red; " transform="" cy="637.795275591" cx="-383.761673202" r="5" id="B.BD1" d="M -378.76169,637.79529 C -378.76169,640.55671 -381.00026,642.79529 -383.76169,642.79529 -386.52311,642.79529 -388.76169,640.55671 -388.76169,637.79529 -388.76169,635.03386 -386.52311,632.79529 -383.76169,632.79529 -381.00026,632.79529 -378.76169,635.03386 -378.76169,637.79529 z" />
      <text style="font-size:30; vertical-align:top; fill-opacity:1.0; fill:darkblue; text-anchor:right; stroke:none; font-weight:normal; font-style:italic; text-align:right; " transform="" id="B.BD1.text" y="630.795275591" x="-376.761673202">
BD1</text>
      <circle style="stroke:red; stroke-width:1; fill:red; " transform="" cy="1346.45669291" cx="-383.761673202" r="5" id="B.b2" d="M -378.76169,1346.4567 C -378.76169,1349.2181 -381.00026,1351.4567 -383.76169,1351.4567 -386.52311,1351.4567 -388.76169,1349.2181 -388.76169,1346.4567 -388.76169,1343.6952 -386.52311,1341.4567 -383.76169,1341.4567 -381.00026,1341.4567 -378.76169,1343.6952 -378.76169,1346.4567 z" />
      <text style="font-size:30; vertical-align:top; fill-opacity:1.0; fill:darkblue; text-anchor:right; stroke:none; font-weight:normal; font-style:italic; text-align:right; " transform="" id="B.b2.text" y="1339.45669291" x="-376.761673202">
b2</text>
      <circle style="stroke:red; stroke-width:1; fill:red; " transform="" cy="1346.45669291" cx="-307.009338562" r="5" id="B.b3" d="M -302.00934,1346.4567 C -302.00934,1349.2181 -304.24791,1351.4567 -307.00934,1351.4567 -309.77076,1351.4567 -312.00934,1349.2181 -312.00934,1346.4567 -312.00934,1343.6952 -309.77076,1341.4567 -307.00934,1341.4567 -304.24791,1341.4567 -302.00934,1343.6952 -302.00934,1346.4567 z" />
      <text style="font-size:30; vertical-align:top; fill-opacity:1.0; fill:darkblue; text-anchor:right; stroke:none; font-weight:normal; font-style:italic; text-align:right; " transform="" id="B.b3.text" y="1339.45669291" x="-300.009338562">
b3</text>
      <circle style="stroke:red; stroke-width:1; fill:red; " transform="" cy="1346.45669291" cx="-460.514007842" r="5" id="B.b4" d="M -455.51401,1346.4567 C -455.51401,1349.2181 -457.75258,1351.4567 -460.51401,1351.4567 -463.27543,1351.4567 -465.51401,1349.2181 -465.51401,1346.4567 -465.51401,1343.6952 -463.27543,1341.4567 -460.51401,1341.4567 -457.75258,1341.4567 -455.51401,1343.6952 -455.51401,1346.4567 z" />
      <text style="font-size:30; vertical-align:top; fill-opacity:1.0; fill:darkblue; text-anchor:right; stroke:none; font-weight:normal; font-style:italic; text-align:right; " transform="" id="B.b4.text" y="1339.45669291" x="-453.514007842">
b4</text>
      <circle style="stroke:gray; stroke-width:1; fill:none; " transform="" cy="1346.45669291" cx="-233.704316826" r="5" id="B.BD1.i.inpoint" d="M -228.70432,1346.4567 C -228.70432,1349.2181 -230.94289,1351.4567 -233.70432,1351.4567 -236.46574,1351.4567 -238.70432,1349.2181 -238.70432,1346.4567 -238.70432,1343.6952 -236.46574,1341.4567 -233.70432,1341.4567 -230.94289,1341.4567 -228.70432,1343.6952 -228.70432,1346.4567 z" />
      <text style="font-size:25; vertical-align:top; fill-opacity:1.0; fill:gray; text-anchor:right; stroke:none; font-weight:normal; font-style:italic; text-align:right; " transform="" id="B.BD1.i.inpoint.text" y="1339.45669291" x="-226.704316826">
BD1.i.in</text>
      <circle style="stroke:red; stroke-width:1; fill:red; " transform="" cy="1354.30402112" cx="-306.159425266" r="5" id="B.BD1.i" d="M -301.15942,1354.3041 C -301.15942,1357.0655 -303.398,1359.3041 -306.15942,1359.3041 -308.92085,1359.3041 -311.15942,1357.0655 -311.15942,1354.3041 -311.15942,1351.5427 -308.92085,1349.3041 -306.15942,1349.3041 -303.398,1349.3041 -301.15942,1351.5427 -301.15942,1354.3041 z" />
      <text style="font-size:30; vertical-align:top; fill-opacity:1.0; fill:darkblue; text-anchor:right; stroke:none; font-weight:normal; font-style:italic; text-align:right; " transform="" id="B.BD1.i.text" y="1347.30402112" x="-299.159425266">
BD1.i</text>
      <circle style="stroke:gray; stroke-width:1; fill:none; " transform="" cy="1345.99582331" cx="-538.074281339" r="5" id="B.BD1.o.outpoint" d="M -533.07428,1345.9958 C -533.07428,1348.7573 -535.31286,1350.9958 -538.07428,1350.9958 -540.8357,1350.9958 -543.07428,1348.7573 -543.07428,1345.9958 -543.07428,1343.2344 -540.8357,1340.9958 -538.07428,1340.9958 -535.31286,1340.9958 -533.07428,1343.2344 -533.07428,1345.9958 z" />
      <text style="font-size:25; vertical-align:top; fill-opacity:1.0; fill:gray; text-anchor:right; stroke:none; font-weight:normal; font-style:italic; text-align:right; " transform="" id="B.BD1.o.outpoint.text" y="1338.99582331" x="-531.074281339">
BD1.o.out</text>
      <circle style="stroke:red; stroke-width:1; fill:red; " transform="" cy="1354.30402112" cx="-461.363921138" r="5" id="B.BD1.o" d="M -456.36392,1354.3041 C -456.36392,1357.0655 -458.6025,1359.3041 -461.36392,1359.3041 -464.12535,1359.3041 -466.36392,1357.0655 -466.36392,1354.3041 -466.36392,1351.5427 -464.12535,1349.3041 -461.36392,1349.3041 -458.6025,1349.3041 -456.36392,1351.5427 -456.36392,1354.3041 z" />
      <text style="font-size:30; vertical-align:top; fill-opacity:1.0; fill:darkblue; text-anchor:right; stroke:none; font-weight:normal; font-style:italic; text-align:right; " transform="" id="B.BD1.o.text" y="1347.30402112" x="-454.363921138">
BD1.o</text>
      <circle style="stroke:red; stroke-width:1; fill:red; " transform="" cy="1343.98784763" cx="-826.724693851" r="5" id="B.b5" d="M -821.72467,1343.9878 C -821.72467,1346.7492 -823.96325,1348.9878 -826.72467,1348.9878 -829.48609,1348.9878 -831.72467,1346.7492 -831.72467,1343.9878 -831.72467,1341.2264 -829.48609,1338.9878 -826.72467,1338.9878 -823.96325,1338.9878 -821.72467,1341.2264 -821.72467,1343.9878 z" />
      <text style="font-size:30; vertical-align:top; fill-opacity:1.0; fill:darkblue; text-anchor:right; stroke:none; font-weight:normal; font-style:italic; text-align:right; " transform="" id="B.b5.text" y="1336.98784763" x="-819.724693851">
b5</text>
      <circle style="stroke:red; stroke-width:1; fill:red; " transform="" cy="637.795275591" cx="-962.291338583" r="5" id="B.b6" d="M -957.29132,637.79529 C -957.29132,640.55671 -959.5299,642.79529 -962.29132,642.79529 -965.05274,642.79529 -967.29132,640.55671 -967.29132,637.79529 -967.29132,635.03386 -965.05274,632.79529 -962.29132,632.79529 -959.5299,632.79529 -957.29132,635.03386 -957.29132,637.79529 z" />
      <text style="font-size:30; vertical-align:top; fill-opacity:1.0; fill:darkblue; text-anchor:right; stroke:none; font-weight:normal; font-style:italic; text-align:right; " transform="" id="B.b6.text" y="630.795275591" x="-955.291338583">
b6</text>
      <circle style="stroke:gray; stroke-width:1; fill:none; " transform="" cy="1344.80113724" cx="-739.129368008" r="5" id="B.BWS.inpoint" d="M -734.12939,1344.8011 C -734.12939,1347.5626 -736.36797,1349.8011 -739.12939,1349.8011 -741.89082,1349.8011 -744.12939,1347.5626 -744.12939,1344.8011 -744.12939,1342.0397 -741.89082,1339.8011 -739.12939,1339.8011 -736.36797,1339.8011 -734.12939,1342.0397 -734.12939,1344.8011 z" />
      <text style="font-size:25; vertical-align:top; fill-opacity:1.0; fill:gray; text-anchor:right; stroke:none; font-weight:normal; font-style:italic; text-align:right; " transform="" id="B.BWS.inpoint.text" y="1337.80113724" x="-732.129368008">
BWS.in</text>
      <circle style="stroke:red; stroke-width:1; fill:red; " transform="" cy="1343.98784763" cx="-875.998808024" r="5" id="B.BWS" d="M -870.99878,1343.9878 C -870.99878,1346.7492 -873.23736,1348.9878 -875.99878,1348.9878 -878.7602,1348.9878 -880.99878,1346.7492 -880.99878,1343.9878 -880.99878,1341.2264 -878.7602,1338.9878 -875.99878,1338.9878 -873.23736,1338.9878 -870.99878,1341.2264 -870.99878,1343.9878 z" />
      <text style="font-size:30; vertical-align:top; fill-opacity:1.0; fill:darkblue; text-anchor:right; stroke:none; font-weight:normal; font-style:italic; text-align:right; " transform="" id="B.BWS.text" y="1336.98784763" x="-868.998808024">
BWS</text>
      <circle style="stroke:gray; stroke-width:1; fill:none; " transform="" cy="731.303960391" cx="-851.14693672" r="5" id="B.BUS.outpoint" d="M -846.14691,731.30396 C -846.14691,734.06538 -848.38549,736.30396 -851.14691,736.30396 -853.90834,736.30396 -856.14691,734.06538 -856.14691,731.30396 -856.14691,728.54253 -853.90834,726.30396 -851.14691,726.30396 -848.38549,726.30396 -846.14691,728.54253 -846.14691,731.30396 z" />
      <text style="font-size:25; vertical-align:top; fill-opacity:1.0; fill:gray; text-anchor:right; stroke:none; font-weight:normal; font-style:italic; text-align:right; " transform="" id="B.BUS.outpoint.text" y="724.303960391" x="-844.14693672">
BUS.out</text>
      <circle style="stroke:red; stroke-width:1; fill:red; " transform="" cy="743.309668882" cx="-949.398107518" r="5" id="B.BUS" d="M -944.39813,743.30969 C -944.39813,746.07112 -946.63671,748.30969 -949.39813,748.30969 -952.15956,748.30969 -954.39813,746.07112 -954.39813,743.30969 -954.39813,740.54827 -952.15956,738.30969 -949.39813,738.30969 -946.63671,738.30969 -944.39813,740.54827 -944.39813,743.30969 z" />
      <text style="font-size:30; vertical-align:top; fill-opacity:1.0; fill:darkblue; text-anchor:right; stroke:none; font-weight:normal; font-style:italic; text-align:right; " transform="" id="B.BUS.text" y="736.309668882" x="-942.398107518">
BUS</text>
      <circle style="stroke:red; stroke-width:1; fill:red; " transform="" cy="138.801763145" cx="-415.819527212" r="5" id="B.BD2" d="M -410.81952,138.80176 C -410.81952,141.56318 -413.0581,143.80176 -415.81952,143.80176 -418.58094,143.80176 -420.81952,141.56318 -420.81952,138.80176 -420.81952,136.04033 -418.58094,133.80176 -415.81952,133.80176 -413.0581,133.80176 -410.81952,136.04033 -410.81952,138.80176 z" />
      <text style="font-size:30; vertical-align:top; fill-opacity:1.0; fill:darkblue; text-anchor:right; stroke:none; font-weight:normal; font-style:italic; text-align:right; " transform="" id="B.BD2.text" y="131.801763145" x="-408.819527212">
BD2</text>
      <circle style="stroke:red; stroke-width:1; fill:red; " transform="" cy="-51.9514480849" cx="-496.566196517" r="5" id="B.BD2.i" d="M -491.56619,-51.951447 C -491.56619,-49.190023 -493.80477,-46.951447 -496.56619,-46.951447 -499.32762,-46.951447 -501.56619,-49.190023 -501.56619,-51.951447 -501.56619,-54.71287 -499.32762,-56.951447 -496.56619,-56.951447 -493.80477,-56.951447 -491.56619,-54.71287 -491.56619,-51.951447 z" />
      <text style="font-size:30; vertical-align:top; fill-opacity:1.0; fill:darkblue; text-anchor:right; stroke:none; font-weight:normal; font-style:italic; text-align:right; " transform="" id="B.BD2.i.text" y="-58.9514480849" x="-489.566196517">
BD2.i</text>
      <circle style="stroke:red; stroke-width:1; fill:red; " transform="" cy="-36.9713975014" cx="-525.41244758" r="5" id="B.BD2.o" d="M -520.41248,-36.971397 C -520.41248,-34.209974 -522.65105,-31.971397 -525.41248,-31.971397 -528.1739,-31.971397 -530.41248,-34.209974 -530.41248,-36.971397 -530.41248,-39.732821 -528.1739,-41.971397 -525.41248,-41.971397 -522.65105,-41.971397 -520.41248,-39.732821 -520.41248,-36.971397 z" />
      <text style="font-size:30; vertical-align:top; fill-opacity:1.0; fill:darkblue; text-anchor:right; stroke:none; font-weight:normal; font-style:italic; text-align:right; " transform="" id="B.BD2.o.text" y="-43.9713975014" x="-518.41244758">
BD2.o</text>
      <path style="stroke-linejoin:miter; stroke-dashoffset:0; stroke:gray; stroke-miterlimit:4; stroke-dasharray:6,6; stroke-width:2; fill:none; " transform="" d="M 0.0  1346.45669291 L -720.851607312  84.8830892163 L -708.661417323  -141.732283465 L 0.0  -141.732283465 L 0.0  637.795275591 L -962.291338583  637.795275591 L -949.398107518  743.309668882 M -885.826771654  637.795275591 L -826.724693851  1343.98784763 L -875.998808024  1343.98784763 " id="B.gridline" />
    </g>
    <g id="document.bodice.Bodice Sleeve.reference" transform=" translate(835.591339, 2240.279676)">
      <circle style="stroke:gray; stroke-width:1; fill:none; " transform="" cy="0.0" cx="247.893806385" r="5" id="C.SCM.inpoint" d="M 252.8938,0 C 252.8938,2.7614237 250.65522,5 247.8938,5 245.13238,5 242.8938,2.7614237 242.8938,0 242.8938,-2.7614237 245.13238,-5 247.8938,-5 250.65522,-5 252.8938,-2.7614237 252.8938,0 z" />
      <text style="font-size:25; vertical-align:top; fill-opacity:1.0; fill:gray; text-anchor:right; stroke:none; font-weight:normal; font-style:italic; text-align:right; " transform="" id="C.SCM.inpoint.text" y="-7.0" x="254.893806385">
SCM.in</text>
      <circle style="stroke:gray; stroke-width:1; fill:none; " transform="" cy="0.0" cx="-243.295810875" r="5" id="C.SCM.outpoint" d="M -238.29581,0 C -238.29581,2.7614237 -240.53438,5 -243.29581,5 -246.05723,5 -248.29581,2.7614237 -248.29581,0 -248.29581,-2.7614237 -246.05723,-5 -243.29581,-5 -240.53438,-5 -238.29581,-2.7614237 -238.29581,0 z" />
      <text style="font-size:25; vertical-align:top; fill-opacity:1.0; fill:gray; text-anchor:right; stroke:none; font-weight:normal; font-style:italic; text-align:right; " transform="" id="C.SCM.outpoint.text" y="-7.0" x="-236.295810875">
SCM.out</text>
      <circle style="stroke:red; stroke-width:1; fill:red; " transform="" cy="0.0" cx="0.0" r="5" id="C.SCM" d="M 5,0 C 5,2.7614237 2.7614237,5 0,5 -2.7614237,5 -5,2.7614237 -5,0 -5,-2.7614237 -2.7614237,-5 0,-5 2.7614237,-5 5,-2.7614237 5,0 z" />
      <text style="font-size:30; vertical-align:top; fill-opacity:1.0; fill:darkblue; text-anchor:right; stroke:none; font-weight:normal; font-style:italic; text-align:right; " transform="" id="C.SCM.text" y="-7.0" x="7.0">
SCM</text>
      <circle style="stroke:red; stroke-width:1; fill:red; " transform="" cy="449.610373395" cx="0.0" r="5" id="C.SUM" d="M 5,449.61038 C 5,452.37181 2.7614237,454.61038 0,454.61038 -2.7614237,454.61038 -5,452.37181 -5,449.61038 -5,446.84896 -2.7614237,444.61038 0,444.61038 2.7614237,444.61038 5,446.84896 5,449.61038 z" />
      <text style="font-size:30; vertical-align:top; fill-opacity:1.0; fill:darkblue; text-anchor:right; stroke:none; font-weight:normal; font-style:italic; text-align:right; " transform="" id="C.SUM.text" y="442.610373395" x="7.0">
SUM</text>
      <circle style="stroke:gray; stroke-width:1; fill:none; " transform="" cy="449.610373395" cx="695.130967305" r="5" id="C.SUB.outpoint" d="M 700.13098,449.61038 C 700.13098,452.37181 697.89241,454.61038 695.13098,454.61038 692.36956,454.61038 690.13098,452.37181 690.13098,449.61038 690.13098,446.84896 692.36956,444.61038 695.13098,444.61038 697.89241,444.61038 700.13098,446.84896 700.13098,449.61038 z" />
      <text style="font-size:25; vertical-align:top; fill-opacity:1.0; fill:gray; text-anchor:right; stroke:none; font-weight:normal; font-style:italic; text-align:right; " transform="" id="C.SUB.outpoint.text" y="442.610373395" x="702.130967305">
SUB.out</text>
      <circle style="stroke:red; stroke-width:1; fill:red; " transform="" cy="449.610373395" cx="748.415382812" r="5" id="C.SUB" d="M 753.41541,449.61038 C 753.41541,452.37181 751.17683,454.61038 748.41541,454.61038 745.65398,454.61038 743.41541,452.37181 743.41541,449.61038 743.41541,446.84896 745.65398,444.61038 748.41541,444.61038 751.17683,444.61038 753.41541,446.84896 753.41541,449.61038 z" />
      <text style="font-size:30; vertical-align:top; fill-opacity:1.0; fill:darkblue; text-anchor:right; stroke:none; font-weight:normal; font-style:italic; text-align:right; " transform="" id="C.SUB.text" y="442.610373395" x="755.415382812">
SUB</text>
      <circle style="stroke:gray; stroke-width:1; fill:none; " transform="" cy="449.610373395" cx="-689.195080186" r="5" id="C.SUF.inpoint" d="M -684.19507,449.61038 C -684.19507,452.37181 -686.43364,454.61038 -689.19507,454.61038 -691.95649,454.61038 -694.19507,452.37181 -694.19507,449.61038 -694.19507,446.84896 -691.95649,444.61038 -689.19507,444.61038 -686.43364,444.61038 -684.19507,446.84896 -684.19507,449.61038 z" />
      <text style="font-size:25; vertical-align:top; fill-opacity:1.0; fill:gray; text-anchor:right; stroke:none; font-weight:normal; font-style:italic; text-align:right; " transform="" id="C.SUF.inpoint.text" y="442.610373395" x="-682.195080186">
SUF.in</text>
      <circle style="stroke:gray; stroke-width:1; fill:none; " transform="" cy="764.178976048" cx="-661.978748045" r="5" id="C.SUF.outpoint" d="M -656.97876,764.17896 C -656.97876,766.94038 -659.21734,769.17896 -661.97876,769.17896 -664.74018,769.17896 -666.97876,766.94038 -666.97876,764.17896 -666.97876,761.41753 -664.74018,759.17896 -661.97876,759.17896 -659.21734,759.17896 -656.97876,761.41753 -656.97876,764.17896 z" />
      <text style="font-size:25; vertical-align:top; fill-opacity:1.0; fill:gray; text-anchor:right; stroke:none; font-weight:normal; font-style:italic; text-align:right; " transform="" id="C.SUF.outpoint.text" y="757.178976048" x="-654.978748045">
SUF.out</text>
      <circle style="stroke:red; stroke-width:1; fill:red; " transform="" cy="449.610373395" cx="-744.508661838" r="5" id="C.SUF" d="M -739.50867,449.61038 C -739.50867,452.37181 -741.74724,454.61038 -744.50867,454.61038 -747.27009,454.61038 -749.50867,452.37181 -749.50867,449.61038 -749.50867,446.84896 -747.27009,444.61038 -744.50867,444.61038 -741.74724,444.61038 -739.50867,446.84896 -739.50867,449.61038 z" />
      <text style="font-size:30; vertical-align:top; fill-opacity:1.0; fill:darkblue; text-anchor:right; stroke:none; font-weight:normal; font-style:italic; text-align:right; " transform="" id="C.SUF.text" y="442.610373395" x="-737.508661838">
SUF</text>
      <circle style="stroke:gray; stroke-width:1; fill:none; " transform="" cy="189.300922609" cx="398.082344563" r="5" id="C.s1.outpoint" d="M 403.08234,189.30092 C 403.08234,192.06234 400.84376,194.30092 398.08234,194.30092 395.32091,194.30092 393.08234,192.06234 393.08234,189.30092 393.08234,186.53949 395.32091,184.30092 398.08234,184.30092 400.84376,184.30092 403.08234,186.53949 403.08234,189.30092 z" />
      <text style="font-size:25; vertical-align:top; fill-opacity:1.0; fill:gray; text-anchor:right; stroke:none; font-weight:normal; font-style:italic; text-align:right; " transform="" id="C.s1.outpoint.text" y="182.300922609" x="405.082344563">
s1.out</text>
      <circle style="stroke:gray; stroke-width:1; fill:none; " transform="" cy="366.02367162" cx="538.291546774" r="5" id="C.s1.inpoint" d="M 543.29156,366.02368 C 543.29156,368.78511 541.05299,371.02368 538.29156,371.02368 535.53014,371.02368 533.29156,368.78511 533.29156,366.02368 533.29156,363.26226 535.53014,361.02368 538.29156,361.02368 541.05299,361.02368 543.29156,363.26226 543.29156,366.02368 z" />
      <text style="font-size:25; vertical-align:top; fill-opacity:1.0; fill:gray; text-anchor:right; stroke:none; font-weight:normal; font-style:italic; text-align:right; " transform="" id="C.s1.inpoint.text" y="359.02367162" x="545.291546774">
s1.in</text>
      <circle style="stroke:red; stroke-width:1; fill:red; " transform="" cy="282.538690462" cx="472.055803666" r="5" id="C.s1" d="M 477.05582,282.5387 C 477.05582,285.30012 474.81724,287.5387 472.05582,287.5387 469.29439,287.5387 467.05582,285.30012 467.05582,282.5387 467.05582,279.77727 469.29439,277.5387 472.05582,277.5387 474.81724,277.5387 477.05582,279.77727 477.05582,282.5387 z" />
      <text style="font-size:30; vertical-align:top; fill-opacity:1.0; fill:darkblue; text-anchor:right; stroke:none; font-weight:normal; font-style:italic; text-align:right; " transform="" id="C.s1.text" y="275.538690462" x="479.055803666">
s1</text>
      <circle style="stroke:gray; stroke-width:1; fill:none; " transform="" cy="186.461639735" cx="-386.042828744" r="5" id="C.s2.inpoint" d="M -381.04282,186.46164 C -381.04282,189.22306 -383.28139,191.46164 -386.04282,191.46164 -388.80424,191.46164 -391.04282,189.22306 -391.04282,186.46164 -391.04282,183.70022 -388.80424,181.46164 -386.04282,181.46164 -383.28139,181.46164 -381.04282,183.70022 -381.04282,186.46164 z" />
      <text style="font-size:25; vertical-align:top; fill-opacity:1.0; fill:gray; text-anchor:right; stroke:none; font-weight:normal; font-style:italic; text-align:right; " transform="" id="C.s2.inpoint.text" y="179.461639735" x="-379.042828744">
s2.in</text>
      <circle style="stroke:gray; stroke-width:1; fill:none; " transform="" cy="366.142419089" cx="-523.598711326" r="5" id="C.s2.outpoint" d="M -518.59869,366.14243 C -518.59869,368.90385 -520.83727,371.14243 -523.59869,371.14243 -526.36012,371.14243 -528.59869,368.90385 -528.59869,366.14243 -528.59869,363.381 -526.36012,361.14243 -523.59869,361.14243 -520.83727,361.14243 -518.59869,363.381 -518.59869,366.14243 z" />
      <text style="font-size:25; vertical-align:top; fill-opacity:1.0; fill:gray; text-anchor:right; stroke:none; font-weight:normal; font-style:italic; text-align:right; " transform="" id="C.s2.outpoint.text" y="359.142419089" x="-516.598711326">
s2.out</text>
      <circle style="stroke:red; stroke-width:1; fill:red; " transform="" cy="278.300954828" cx="-456.351061426" r="5" id="C.s2" d="M -451.35107,278.30096 C -451.35107,281.06239 -453.58965,283.30096 -456.35107,283.30096 -459.1125,283.30096 -461.35107,281.06239 -461.35107,278.30096 -461.35107,275.53954 -459.1125,273.30096 -456.35107,273.30096 -453.58965,273.30096 -451.35107,275.53954 -451.35107,278.30096 z" />
      <text style="font-size:30; vertical-align:top; fill-opacity:1.0; fill:darkblue; text-anchor:right; stroke:none; font-weight:normal; font-style:italic; text-align:right; " transform="" id="C.s2.text" y="271.300954828" x="-449.351061426">
s2</text>
      <circle style="stroke:red; stroke-width:1; fill:red; " transform="" cy="2374.01574803" cx="0.0" r="5" id="C.SWM" d="M 5,2374.0159 C 5,2376.7773 2.7614237,2379.0159 0,2379.0159 -2.7614237,2379.0159 -5,2376.7773 -5,2374.0159 -5,2371.2544 -2.7614237,2369.0159 0,2369.0159 2.7614237,2369.0159 5,2371.2544 5,2374.0159 z" />
      <text style="font-size:30; vertical-align:top; fill-opacity:1.0; fill:darkblue; text-anchor:right; stroke:none; font-weight:normal; font-style:italic; text-align:right; " transform="" id="C.SWM.text" y="2367.01574803" x="7.0">
SWM</text>
      <circle style="stroke:red; stroke-width:1; fill:red; " transform="" cy="1411.81306071" cx="0.0" r="5" id="C.SEM" d="M 5,1411.8131 C 5,1414.5745 2.7614237,1416.8131 0,1416.8131 -2.7614237,1416.8131 -5,1414.5745 -5,1411.8131 -5,1409.0517 -2.7614237,1406.8131 0,1406.8131 2.7614237,1406.8131 5,1409.0517 5,1411.8131 z" />
      <text style="font-size:30; vertical-align:top; fill-opacity:1.0; fill:darkblue; text-anchor:right; stroke:none; font-weight:normal; font-style:italic; text-align:right; " transform="" id="C.SEM.text" y="1404.81306071" x="7.0">
SEM</text>
      <circle style="stroke:red; stroke-width:1; fill:red; " transform="" cy="1411.81306071" cx="690.94488189" r="5" id="C.SEB" d="M 695.94489,1411.8131 C 695.94489,1414.5745 693.70631,1416.8131 690.94489,1416.8131 688.18346,1416.8131 685.94489,1414.5745 685.94489,1411.8131 685.94489,1409.0517 688.18346,1406.8131 690.94489,1406.8131 693.70631,1406.8131 695.94489,1409.0517 695.94489,1411.8131 z" />
      <text style="font-size:30; vertical-align:top; fill-opacity:1.0; fill:darkblue; text-anchor:right; stroke:none; font-weight:normal; font-style:italic; text-align:right; " transform="" id="C.SEB.text" y="1404.81306071" x="697.94488189">
SEB</text>
      <circle style="stroke:gray; stroke-width:1; fill:none; " transform="" cy="1089.73649842" cx="-576.565791922" r="5" id="C.SEF.inpoint" d="M -571.5658,1089.7365 C -571.5658,1092.4979 -573.80437,1094.7365 -576.5658,1094.7365 -579.32722,1094.7365 -581.5658,1092.4979 -581.5658,1089.7365 -581.5658,1086.975 -579.32722,1084.7365 -576.5658,1084.7365 -573.80437,1084.7365 -571.5658,1086.975 -571.5658,1089.7365 z" />
      <text style="font-size:25; vertical-align:top; fill-opacity:1.0; fill:gray; text-anchor:right; stroke:none; font-weight:normal; font-style:italic; text-align:right; " transform="" id="C.SEF.inpoint.text" y="1082.73649842" x="-569.565791922">
SEF.in</text>
      <circle style="stroke:red; stroke-width:1; fill:red; " transform="" cy="1411.81306071" cx="-531.496062992" r="5" id="C.SEF" d="M -526.49603,1411.8131 C -526.49603,1414.5745 -528.73461,1416.8131 -531.49603,1416.8131 -534.25746,1416.8131 -536.49603,1414.5745 -536.49603,1411.8131 -536.49603,1409.0517 -534.25746,1406.8131 -531.49603,1406.8131 -528.73461,1406.8131 -526.49603,1409.0517 -526.49603,1411.8131 z" />
      <text style="font-size:30; vertical-align:top; fill-opacity:1.0; fill:darkblue; text-anchor:right; stroke:none; font-weight:normal; font-style:italic; text-align:right; " transform="" id="C.SEF.text" y="1404.81306071" x="-524.496062992">
SEF</text>
      <circle style="stroke:red; stroke-width:1; fill:red; " transform="" cy="2374.01574803" cx="396.850393701" r="5" id="C.s3" d="M 401.8504,2374.0159 C 401.8504,2376.7773 399.61183,2379.0159 396.8504,2379.0159 394.08898,2379.0159 391.8504,2376.7773 391.8504,2374.0159 391.8504,2371.2544 394.08898,2369.0159 396.8504,2369.0159 399.61183,2369.0159 401.8504,2371.2544 401.8504,2374.0159 z" />
      <text style="font-size:30; vertical-align:top; fill-opacity:1.0; fill:darkblue; text-anchor:right; stroke:none; font-weight:normal; font-style:italic; text-align:right; " transform="" id="C.s3.text" y="2367.01574803" x="403.850393701">
s3</text>
      <circle style="stroke:red; stroke-width:1; fill:red; " transform="" cy="2374.01574803" cx="130.960629921" r="5" id="C.s4" d="M 135.96063,2374.0159 C 135.96063,2376.7773 133.72206,2379.0159 130.96063,2379.0159 128.19921,2379.0159 125.96063,2376.7773 125.96063,2374.0159 125.96063,2371.2544 128.19921,2369.0159 130.96063,2369.0159 133.72206,2369.0159 135.96063,2371.2544 135.96063,2374.0159 z" />
      <text style="font-size:30; vertical-align:top; fill-opacity:1.0; fill:darkblue; text-anchor:right; stroke:none; font-weight:normal; font-style:italic; text-align:right; " transform="" id="C.s4.text" y="2367.01574803" x="137.960629921">
s4</text>
      <circle style="stroke:red; stroke-width:1; fill:red; " transform="" cy="2374.01574803" cx="-396.850393701" r="5" id="C.s5" d="M -391.8504,2374.0159 C -391.8504,2376.7773 -394.08898,2379.0159 -396.8504,2379.0159 -399.61183,2379.0159 -401.8504,2376.7773 -401.8504,2374.0159 -401.8504,2371.2544 -399.61183,2369.0159 -396.8504,2369.0159 -394.08898,2369.0159 -391.8504,2371.2544 -391.8504,2374.0159 z" />
      <text style="font-size:30; vertical-align:top; fill-opacity:1.0; fill:darkblue; text-anchor:right; stroke:none; font-weight:normal; font-style:italic; text-align:right; " transform="" id="C.s5.text" y="2367.01574803" x="-389.850393701">
s5</text>
      <circle style="stroke:red; stroke-width:1; fill:red; " transform="" cy="2374.01574803" cx="-130.960629921" r="5" id="C.s6" d="M -125.96063,2374.0159 C -125.96063,2376.7773 -128.19921,2379.0159 -130.96063,2379.0159 -133.72206,2379.0159 -135.96063,2376.7773 -135.96063,2374.0159 -135.96063,2371.2544 -133.72206,2369.0159 -130.96063,2369.0159 -128.19921,2369.0159 -125.96063,2371.2544 -125.96063,2374.0159 z" />
      <text style="font-size:30; vertical-align:top; fill-opacity:1.0; fill:darkblue; text-anchor:right; stroke:none; font-weight:normal; font-style:italic; text-align:right; " transform="" id="C.s6.text" y="2367.01574803" x="-123.960629921">
s6</text>
      <circle style="stroke:red; stroke-width:1; fill:red; " transform="" cy="1411.81306071" cx="483.661417323" r="5" id="C.SD1" d="M 488.66141,1411.8131 C 488.66141,1414.5745 486.42283,1416.8131 483.66141,1416.8131 480.89998,1416.8131 478.66141,1414.5745 478.66141,1411.8131 478.66141,1409.0517 480.89998,1406.8131 483.66141,1406.8131 486.42283,1406.8131 488.66141,1409.0517 488.66141,1411.8131 z" />
      <text style="font-size:30; vertical-align:top; fill-opacity:1.0; fill:darkblue; text-anchor:right; stroke:none; font-weight:normal; font-style:italic; text-align:right; " transform="" id="C.SD1.text" y="1404.81306071" x="490.661417323">
SD1</text>
      <circle style="stroke:red; stroke-width:1; fill:red; " transform="" cy="1395.72343783" cx="691.952336127" r="5" id="C.SD1.i" d="M 696.95233,1395.7234 C 696.95233,1398.4848 694.71376,1400.7234 691.95233,1400.7234 689.19091,1400.7234 686.95233,1398.4848 686.95233,1395.7234 686.95233,1392.962 689.19091,1390.7234 691.95233,1390.7234 694.71376,1390.7234 696.95233,1392.962 696.95233,1395.7234 z" />
      <text style="font-size:30; vertical-align:top; fill-opacity:1.0; fill:darkblue; text-anchor:right; stroke:none; font-weight:normal; font-style:italic; text-align:right; " transform="" id="C.SD1.i.text" y="1388.72343783" x="698.952336127">
SD1.i</text>
      <circle style="stroke:red; stroke-width:1; fill:red; " transform="" cy="1453.75948064" cx="688.318400288" r="5" id="C.SD1.o" d="M 693.31842,1453.7595 C 693.31842,1456.5209 691.07984,1458.7595 688.31842,1458.7595 685.557,1458.7595 683.31842,1456.5209 683.31842,1453.7595 683.31842,1450.9981 685.557,1448.7595 688.31842,1448.7595 691.07984,1448.7595 693.31842,1450.9981 693.31842,1453.7595 z" />
      <text style="font-size:30; vertical-align:top; fill-opacity:1.0; fill:darkblue; text-anchor:right; stroke:none; font-weight:normal; font-style:italic; text-align:right; " transform="" id="C.SD1.o.text" y="1446.75948064" x="695.318400288">
SD1.o</text>
      <circle style="stroke:gray; stroke-width:1; fill:none; " transform="" cy="2375.16390228" cx="-139.165551075" r="5" id="C.SWF.outpoint" d="M -134.16556,2375.1638 C -134.16556,2377.9252 -136.40413,2380.1638 -139.16556,2380.1638 -141.92698,2380.1638 -144.16556,2377.9252 -144.16556,2375.1638 -144.16556,2372.4024 -141.92698,2370.1638 -139.16556,2370.1638 -136.40413,2370.1638 -134.16556,2372.4024 -134.16556,2375.1638 z" />
      <text style="font-size:25; vertical-align:top; fill-opacity:1.0; fill:gray; text-anchor:right; stroke:none; font-weight:normal; font-style:italic; text-align:right; " transform="" id="C.SWF.outpoint.text" y="2368.16390228" x="-132.165551075">
SWF.out</text>
      <circle style="stroke:red; stroke-width:1; fill:red; " transform="" cy="2410.50839671" cx="-391.743801119" r="5" id="C.SWF" d="M -386.7438,2410.5083 C -386.7438,2413.2697 -388.98238,2415.5083 -391.7438,2415.5083 -394.50523,2415.5083 -396.7438,2413.2697 -396.7438,2410.5083 -396.7438,2407.7469 -394.50523,2405.5083 -391.7438,2405.5083 -388.98238,2405.5083 -386.7438,2407.7469 -386.7438,2410.5083 z" />
      <text style="font-size:30; vertical-align:top; fill-opacity:1.0; fill:darkblue; text-anchor:right; stroke:none; font-weight:normal; font-style:italic; text-align:right; " transform="" id="C.SWF.text" y="2403.50839671" x="-384.743801119">
SWF</text>
      <circle style="stroke:gray; stroke-width:1; fill:none; " transform="" cy="2374.62296723" cx="129.132427872" r="5" id="C.SWB.inpoint" d="M 134.13243,2374.623 C 134.13243,2377.3845 131.89385,2379.623 129.13243,2379.623 126.37101,2379.623 124.13243,2377.3845 124.13243,2374.623 124.13243,2371.8616 126.37101,2369.623 129.13243,2369.623 131.89385,2369.623 134.13243,2371.8616 134.13243,2374.623 z" />
      <text style="font-size:25; vertical-align:top; fill-opacity:1.0; fill:gray; text-anchor:right; stroke:none; font-weight:normal; font-style:italic; text-align:right; " transform="" id="C.SWB.inpoint.text" y="2367.62296723" x="136.132427872">
SWB.in</text>
      <circle style="stroke:red; stroke-width:1; fill:red; " transform="" cy="2451.63004511" cx="372.268018928" r="5" id="C.SWB" d="M 377.26801,2451.6301 C 377.26801,2454.3916 375.02943,2456.6301 372.26801,2456.6301 369.50658,2456.6301 367.26801,2454.3916 367.26801,2451.6301 367.26801,2448.8687 369.50658,2446.6301 372.26801,2446.6301 375.02943,2446.6301 377.26801,2448.8687 377.26801,2451.6301 z" />
      <text style="font-size:30; vertical-align:top; fill-opacity:1.0; fill:darkblue; text-anchor:right; stroke:none; font-weight:normal; font-style:italic; text-align:right; " transform="" id="C.SWB.text" y="2444.63004511" x="379.268018928">
SWB</text>
      <path style="stroke-linejoin:miter; stroke-dashoffset:0; stroke:gray; stroke-miterlimit:4; stroke-dasharray:6,6; stroke-width:2; fill:none; " transform="" d="M 0.0  0.0 L 0.0  2374.01574803 M 748.415382812  449.610373395 L -744.508661838  449.610373395 M 690.94488189  1411.81306071 L -531.496062992  1411.81306071 M 748.415382812  449.610373395 L 472.055803666  282.538690462 L 0.0  0.0 L -456.351061426  278.300954828 L -744.508661838  449.610373395 M 690.94488189  1411.81306071 L 396.850393701  2374.01574803 M -744.508661838  449.610373395 L -396.850393701  2374.01574803 L 396.850393701  2374.01574803 " id="C.gridline" />
    </g>
  </g>
</svg>
