<?xml version="1.0" encoding="UTF-8" standalone="no"?>
<svg xmlns:dc="http://purl.org/dc/elements/1.1/" xmlns:cc="http://creativecommons.org/ns#" xmlns:rdf="http://www.w3.org/1999/02/22-rdf-syntax-ns#" xmlns:svg="http://www.w3.org/2000/svg" xmlns="http://www.w3.org/2000/svg" xmlns:sodipodi="http://sodipodi.sourceforge.net/DTD/sodipodi-0.dtd" xmlns:inkscape="http://www.inkscape.org/namespaces/inkscape" patternNumber="MR_B1" fitBoxtoViewport="True" companyName="Seamly Patterns" currentscale="0.5:1" margin-right="88.5826771654" client-name="DressFormLg" designerName="S.L.Spencer" height="4961.93518011" width="2508.25820272" margin-top="88.5826771654" version="1.1" margin-bottom="88.5826771654" margin-left="88.5826771654" preserveAspectRatio="xMidYMid meet" id="svg2" inkscape:version="0.48.4 r9939" sodipodi:docname="Susan-spencer_bodice_short-2014-10-28-1423.svg">
  <metadata id="metadata305">
    <rdf:RDF>
      <cc:Work rdf:about="">
        <dc:format>image/svg+xml</dc:format>
        <dc:type rdf:resource="http://purl.org/dc/dcmitype/StillImage" />
      </cc:Work>
    </rdf:RDF>
  </metadata>
  <sodipodi:namedview id="base" pagecolor="#ffffff" bordercolor="#666666" borderopacity="1.0" inkscape:pageopacity="0.0" inkscape:pageshadow="2" inkscape:zoom="0.50054138" inkscape:document-units="pt" showgrid="false" inkscape:window-maximized="1" inkscape:cx="1254.1292" inkscape:cy="3264.677" inkscape:window-width="1855" inkscape:window-height="1056" inkscape:window-x="65" inkscape:window-y="24" inkscape:current-layer="reference" />
  <defs id="defs5">
    <marker style="overflow:visible" id="Arrow1Mstart" refX="0.0" refY="0.0" orient="auto" inkscape:stockid="Arrow1Mstart">
      <path transform="scale(0.4) translate(10,0)" style="fill-rule:evenodd;stroke:#000000;stroke-width:1.0pt;marker-start:none" d="M 0.0,0.0 L 5.0,-5.0 L -12.5,0.0 L 5.0,5.0 L 0.0,0.0 z " id="path8" />
    </marker>
    <marker style="overflow:visible;" id="Arrow1Mend" refX="0.0" refY="0.0" orient="auto" inkscape:stockid="Arrow1Mend">
      <path transform="scale(0.4) rotate(180) translate(10,0)" style="fill-rule:evenodd;stroke:#000000;stroke-width:1.0pt;marker-start:none;" d="M 0.0,0.0 L 5.0,-5.0 L -12.5,0.0 L 5.0,5.0 L 0.0,0.0 z " id="path11" />
    </marker>
  </defs>
  <g inkscape:label="Label-pattern" id="pattern" inkscape:groupmode="layer" transform="translate(88.582678,88.582677)">
    <g id="document.bodice.Bodice Front.pattern" transform=" translate(58.750000, 757.717638)">
      <g id="A.letter" transform="matrix(10.000000, 0, 0, 10.000000, -3228.838583, -1047.169250)">
        <text style="font-size:24; vertical-align:top; fill-opacity:1.0; fill:#000000; text-anchor:start; stroke:none; font-weight:normal; font-style:normal; text-align:right; " transform="" id="A.letter.letterline" y="116.35213892" x="358.75984252">
A</text>
      </g>
      <line style="stroke-linejoin:miter; stroke:green; stroke-width:4; stroke-miterlimit:4; fill:none; " y2="1171.1946586" marker-end="url(#Arrow1Mend)" marker-start="url(#Arrow1Mstart)" transform="" x2="131.246808753" y1="161.35213892" x1="131.246808753" id="A.grainline" />
      <path style="stroke-linejoin:miter; stroke-dashoffset:0; stroke:green; stroke-miterlimit:4; stroke-dasharray:6,6; stroke-width:3; fill:none; " d="M 625.132601301  1264.58380434 L 364.608339346  738.519925096 L 270.868498868  1318.02742152 " id="A.dartline" transform="" />
      <path style="fill:none;stroke:#008000;stroke-width:4;stroke-linejoin:miter;stroke-miterlimit:4;stroke-dasharray:24, 6;stroke-dashoffset:0" d="M 0,0 0,1240.1575 C 93.543307,1240.1575 141.73228,1240.1575 279.85062,1262.4992 L 445.65172,1275.7358 600.16925,1214.1765 C 765.69861,1129.2778 946.59235,1062.7024 1122.1657,998.08499 L 964.6244,322.70428 C 864.90528,345.96505 753.54718,370.14825 704.81752,303.14064 605.92722,167.15768 704.44608,-164.21858 717.51969,-247.26523 L 262.49362,-318.89764 C 212.62823,-167.44676 157.49617,0 0,0" id="A.seamline" inkscape:connector-curvature="0" sodipodi:nodetypes="cccccccsccc" />
      <path style="fill:none;stroke:#008000;stroke-width:4;stroke-linejoin:miter;stroke-miterlimit:4" d="M 209.0625,-336.46875 C 186.88049,-270.26946 166.03168,-202.65199 130.16201,-142.36795 109.20098,-107.81613 80.561662,-74.242291 40.62369,-62.086488 11.681879,-52.8578 -19.067961,-57.310743 -49,-56.25 -57.93514,-59.101807 -56.50284,-51.586173 -56.25,-45.25 -56.25,401.96875 -56.25,849.1875 -56.25,1296.4062 22.020045,1296.6502 100.35964,1294.3739 178.07263,1304.6991 211.69153,1308.4145 244.89503,1314.3567 278.36547,1318.8015 337.00368,1323.4973 395.64517,1328.1526 454.28125,1332.875 511.38039,1309.904 568.77845,1287.5979 625.71875,1264.2812 806.45418,1171.8744 998.05199,1103.9824 1188.2188,1033.7188 1127.7041,774.19403 1067.16,514.6762 1006.625,255.15625 958.59158,265.86227 910.99495,278.37696 863.01942,288.88362 834.49496,294.27346 804.68401,300.5487 775.78125,294.40625 763.96351,292.21237 754.95086,283.33707 749.75,272.84375 730.21145,238.0833 724.94129,197.71375 722.29618,158.56553 718.01494,75.716062 729.49116,-7.13536 743.8125,-88.625 754.83965,-151.33146 769.93282,-213.30307 779.51228,-276.32744 779.79725,-281.98519 783.15164,-289.85048 781.51215,-294.12415 595.67198,-323.36713 409.83868,-352.6538 224,-381.90625 219.02083,-366.76042 214.04167,-351.61458 209.0625,-336.46875 z" id="A.cuttingline" inkscape:connector-curvature="0" />
      <g id="A.info" transform="">
        <text style="font-size:12; vertical-align:top; fill-opacity:1.0; fill:#000000; text-anchor:start; stroke:none; font-weight:normal; font-style:normal; text-align:right; " transform="" id="A.info.lineSeamly Patterns" y="161.35213892" x="358.75984252">
Seamly Patterns</text>
        <text style="font-size:12; vertical-align:top; fill-opacity:1.0; fill:#000000; text-anchor:start; stroke:none; font-weight:normal; font-style:normal; text-align:right; " transform="" id="A.info.lineDesigner:S.L.Spencer" y="175.75213892" x="358.75984252">
Designer:S.L.Spencer</text>
        <text style="font-size:12; vertical-align:top; fill-opacity:1.0; fill:#000000; text-anchor:start; stroke:none; font-weight:normal; font-style:normal; text-align:right; " transform="" id="A.info.lineClient:DressFormLg" y="190.15213892" x="358.75984252">
Client:DressFormLg</text>
        <text style="font-size:12; vertical-align:top; fill-opacity:1.0; fill:#000000; text-anchor:start; stroke:none; font-weight:normal; font-style:normal; text-align:right; " transform="" id="A.info.lineMR_B1" y="204.55213892" x="358.75984252">
MR_B1</text>
        <text style="font-size:12; vertical-align:top; fill-opacity:1.0; fill:#000000; text-anchor:start; stroke:none; font-weight:normal; font-style:normal; text-align:right; " transform="" id="A.info.linePattern Piece A" y="218.95213892" x="358.75984252">
Pattern Piece A</text>
        <text style="font-size:12; vertical-align:top; fill-opacity:1.0; fill:#000000; text-anchor:start; stroke:none; font-weight:normal; font-style:normal; text-align:right; " transform="" id="A.info.lineCut 2 Fabric" y="233.35213892" x="358.75984252">
Cut 2 Fabric</text>
      </g>
    </g>
    <g id="document.bodice.Bodice Back.pattern" transform=" translate(2274.842848, 580.552283)">
      <g id="B.letter" transform="matrix(10.000000, 0, 0, 10.000000, 3188.976378, -2326.409817)">
        <text style="font-size:24; vertical-align:top; fill-opacity:1.0; fill:#000000; text-anchor:start; stroke:none; font-weight:normal; font-style:normal; text-align:right; " transform="" id="B.letter.letterline" y="258.489979663" x="-354.330708661">
B</text>
      </g>
      <line style="stroke-linejoin:miter; stroke:green; stroke-width:4; stroke-miterlimit:4; fill:none; " y2="1212.16917279" marker-end="url(#Arrow1Mend)" marker-start="url(#Arrow1Mstart)" transform="" x2="-123.414435501" y1="202.326653109" x1="-123.414435501" id="B.grainline" />
      <path style="stroke-linejoin:miter; stroke-dashoffset:0; stroke:green; stroke-miterlimit:4; stroke-dasharray:6,6; stroke-width:3; fill:none; " transform="" d="M -457.642348133  1417.65964008 L -412.030363332  681.042333695 L -366.418378532  1417.65964008 M -520.791857053  -126.659644899 L -422.571824682  98.2901217587 L -483.167837744  -139.570542243 " id="B.dartline" />
      <path style="stroke-linejoin:miter; stroke-dashoffset:0; stroke:green; stroke-dasharray:24,6; stroke-miterlimit:4; stroke-width:4; fill:none; " d="M 0.0  0.0 L 0.0  1346.45669291 C -122.244547676  1346.45669291  -248.117140693  1353.97659092  -369.894769292  1361.51716768 L -412.030363332  1365.02208204 L -454.165957372  1361.51716768 C -575.943223082  1353.67872789  -744.063623864  1337.53394037  -792.410701029  1353.1512782 L -922.677165354  671.98388773 C -787.817956698  646.193410178  -662.294196957  636.204513001  -648.070866142  606.979959326 C -562.385909833  430.923827521  -679.774050288  100.92970701  -708.661417323  16.7481953661 L -498.283405682  -75.1093576358 L -484.186952948  -81.2643053137 L -469.281440231  -85.0615479014 L -246.828871003  -141.732283465 C -218.540119765  -76.7572375054  -185.121653252  0.0  0.0  0.0 " id="B.seamline" transform="" />
      <path style="fill:none;stroke:#008000;stroke-width:4;stroke-linejoin:miter;stroke-miterlimit:4" d="M -260.71875,-196.21875 C -341.60972,-175.49951 -422.64819,-155.20282 -503.44897,-134.22778 -595.20746,-94.178841 -686.97029,-54.113879 -778.71875,-14.03125 -749.1035,71.00658 -719.70835,156.39963 -699.92705,244.23044 -682.46606,321.91139 -669.65789,401.52182 -674.75552,481.31018 -677.01114,512.04472 -682.19055,543.20534 -693.96875,571.8125 -731.62355,584.04048 -771.15387,588.83042 -810.08725,595.67889 -869.81189,604.98417 -929.19863,615.67932 -988.53125,627.125 -937.58975,893.52206 -886.62957,1159.9155 -835.6875,1426.3125 -814.20172,1419.6806 -793.02137,1411.8328 -771.375,1405.8438 -735.93012,1400.8584 -699.69496,1403.1698 -664.001,1404.2321 -589.30231,1407.8336 -514.62925,1413.7668 -439.99968,1419.1511 -424.80857,1420.4805 -409.61232,1422.4078 -394.41964,1420.0173 -326.39598,1414.4936 -258.18154,1411.198 -190.03565,1407.6874 -108.02392,1403.6169 -25.907684,1402.1647 56.25,1402.7188 56.25,916.39583 56.25,430.07292 56.25,-56.25 -1.7306639,-56.72239 -61.78466,-52.423142 -116.90625,-73.625 -141.49058,-82.876205 -162.72718,-100.51592 -175.59375,-123.53125 -190.81913,-150.59606 -201.54928,-179.82217 -214.5,-208 -229.90625,-204.07292 -245.3125,-200.14583 -260.71875,-196.21875 z" id="B.cuttingline" inkscape:connector-curvature="0" />
      <g id="B.info" transform="">
        <text style="font-size:12; vertical-align:top; fill-opacity:1.0; fill:#000000; text-anchor:start; stroke:none; font-weight:normal; font-style:normal; text-align:right; " transform="" id="B.info.lineSeamly Patterns" y="303.489979663" x="-354.330708661">
Seamly Patterns</text>
        <text style="font-size:12; vertical-align:top; fill-opacity:1.0; fill:#000000; text-anchor:start; stroke:none; font-weight:normal; font-style:normal; text-align:right; " transform="" id="B.info.lineDesigner:S.L.Spencer" y="317.889979663" x="-354.330708661">
Designer:S.L.Spencer</text>
        <text style="font-size:12; vertical-align:top; fill-opacity:1.0; fill:#000000; text-anchor:start; stroke:none; font-weight:normal; font-style:normal; text-align:right; " transform="" id="B.info.lineClient:DressFormLg" y="332.289979663" x="-354.330708661">
Client:DressFormLg</text>
        <text style="font-size:12; vertical-align:top; fill-opacity:1.0; fill:#000000; text-anchor:start; stroke:none; font-weight:normal; font-style:normal; text-align:right; " transform="" id="B.info.lineMR_B1" y="346.689979663" x="-354.330708661">
MR_B1</text>
        <text style="font-size:12; vertical-align:top; fill-opacity:1.0; fill:#000000; text-anchor:start; stroke:none; font-weight:normal; font-style:normal; text-align:right; " transform="" id="B.info.linePattern Piece B" y="361.089979663" x="-354.330708661">
Pattern Piece B</text>
        <text style="font-size:12; vertical-align:top; fill-opacity:1.0; fill:#000000; text-anchor:start; stroke:none; font-weight:normal; font-style:normal; text-align:right; " transform="" id="B.info.lineCut 2 Fabric" y="375.489979663" x="-354.330708661">
Cut 2 Fabric</text>
      </g>
    </g>
    <g id="document.bodice.Sleeve.pattern" transform=" translate(852.628979, 2252.451707)">
      <line style="stroke-linejoin:miter; stroke:green; stroke-width:4; stroke-miterlimit:4; fill:none; " y2="2090.5511811" marker-end="url(#Arrow1Mend)" marker-start="url(#Arrow1Mstart)" transform="" x2="0.0" y1="487.072363713" x1="0.0" id="C.grainline" />
      <g id="C.letter" transform="matrix(15.000000, 0, 0, 15.000000, -6197.509076, -13423.314937)">
        <text style="font-size:24; vertical-align:top; fill-opacity:1.0; fill:#000000; text-anchor:start; stroke:none; font-weight:normal; font-style:normal; text-align:right; " transform="" id="C.letter.letterline" y="958.808209793" x="442.679219723">
C</text>
      </g>
      <path style="stroke-linejoin:miter; stroke-dashoffset:0; stroke:green; stroke-miterlimit:4; stroke-dasharray:6,6; stroke-width:3; fill:none; " transform="" d="M 747.19488189  1430.54405587 L 345.472440945  1430.54405587 L 719.14841855  1553.16358551 " id="C.dartline" />
      <path style="stroke-linejoin:miter; stroke-dashoffset:0; stroke:green; stroke-dasharray:24,6; stroke-miterlimit:4; stroke-width:4; fill:none; " transform="" d="M 850.128979394  487.072363713 C 777.869602721  449.059697091  705.32809114  410.898610974  637.596734546  365.304272785 C 569.160375892  319.235352305  507.651724664  263.629217404  442.679219723  212.791689714 C 377.706714782  161.954162023  322.115298516  96.0201717681  247.7617049  60.2791066425 C 171.156172615  23.4555560216  84.8210259975  -5.45664784443  0.0  0.0 C -82.3275801242  5.29624120127  -158.56549147  50.011748625  -230.146974874  91.0235987854 C -301.728458279  132.035448946  -360.091984756  192.698654166  -425.064489697  243.536181856 C -490.036994638  294.373709547  -548.400521115  355.036914767  -619.98200452  396.048764928 C -691.563487924  437.060615088  -771.451777488  462.25747866  -850.128979394  487.072363713 C -755.594730227  799.800449979  -660.955182391  1112.87687404  -584.645669291  1430.54405587 C -509.747888111  1742.33437017  -453.266525108  2058.35755024  -396.850393701  2374.01574803 C -145.835612645  2329.15303586  120.497087462  2392.16087113  361.288817062  2476.06811878 L 396.850393701  2374.01574803 C 505.247138468  2062.94560349  614.002090148  1750.84749934  665.702362004  1535.62558279 L 704.855799375  1487.27293984 L 690.94488189  1430.54405587 C 765.439838871  1120.43064951  807.858918493  803.194279078  850.128979394  487.072363713 " id="C.seamline" />
      <path style="fill:none;stroke:#008000;stroke-width:4;stroke-linejoin:miter;stroke-miterlimit:4" d="M 15.46875,-56.875 C -53.080506,-56.661271 -118.90278,-32.552756 -179.11602,-1.4926361 -215.33727,17.604236 -251.30012,37.302683 -285.85657,59.32066 -353.10004,103.51169 -409.7328,161.34153 -473.43236,210.16184 -537.00828,261.31896 -594.85903,321.3846 -668.52551,358.45188 -748.28399,399.35193 -835.13146,422.59652 -920.03125,450.15625 -810.31372,813.53521 -699.14864,1176.2336 -615.34088,1546.4751 -548.09864,1842.2726 -495.75426,2140.8727 -442.28125,2439.4062 -392.43757,2430.157 -342.62728,2420.7427 -292,2417.75 -133.52929,2406.9604 25.298543,2434.6633 177.77927,2477.1134 251.49187,2497.3892 323.71472,2522.3912 395.9375,2547.5312 475.09827,2319.3264 556.32492,2091.7517 630.14966,1861.847 661.81477,1762.4237 692.2743,1662.5346 717.375,1561.1875 733.62605,1541.1259 749.87854,1521.0654 766.125,1501 760.56841,1477.1473 753.79821,1453.2951 749.03901,1429.4322 824.9969,1108.8618 867.43394,781.78601 911.09375,455.59375 807.6508,400.79038 701.78671,348.4041 609.75,275.375 560.8122,237.12336 513.65672,196.70083 464.80296,158.38111 406.88225,109.89942 354.38446,53.260527 287.0547,17.186503 222.17276,-15.859401 152.94098,-42.113014 80.592186,-52.577239 59.029331,-55.625944 37.250884,-57.199254 15.46875,-56.875 z" id="C.cuttingline" inkscape:connector-curvature="0" />
      <g id="C.info" transform="">
        <text style="font-size:12; vertical-align:top; fill-opacity:1.0; fill:#000000; text-anchor:start; stroke:none; font-weight:normal; font-style:normal; text-align:right; " transform="" id="C.info.lineSeamly Patterns" y="1029.67435152" x="442.679219723">
Seamly Patterns</text>
        <text style="font-size:12; vertical-align:top; fill-opacity:1.0; fill:#000000; text-anchor:start; stroke:none; font-weight:normal; font-style:normal; text-align:right; " transform="" id="C.info.lineDesigner:S.L.Spencer" y="1044.07435152" x="442.679219723">
Designer:S.L.Spencer</text>
        <text style="font-size:12; vertical-align:top; fill-opacity:1.0; fill:#000000; text-anchor:start; stroke:none; font-weight:normal; font-style:normal; text-align:right; " transform="" id="C.info.lineClient:DressFormLg" y="1058.47435152" x="442.679219723">
Client:DressFormLg</text>
        <text style="font-size:12; vertical-align:top; fill-opacity:1.0; fill:#000000; text-anchor:start; stroke:none; font-weight:normal; font-style:normal; text-align:right; " transform="" id="C.info.lineMR_B1" y="1072.87435152" x="442.679219723">
MR_B1</text>
        <text style="font-size:12; vertical-align:top; fill-opacity:1.0; fill:#000000; text-anchor:start; stroke:none; font-weight:normal; font-style:normal; text-align:right; " transform="" id="C.info.linePattern Piece C" y="1087.27435152" x="442.679219723">
Pattern Piece C</text>
        <text style="font-size:12; vertical-align:top; fill-opacity:1.0; fill:#000000; text-anchor:start; stroke:none; font-weight:normal; font-style:normal; text-align:right; " transform="" id="C.info.lineCut 2 Fabric" y="1101.67435152" x="442.679219723">
Cut 2 Fabric</text>
      </g>
    </g>
  </g>
  <g inkscape:label="Label-notes" id="notes" inkscape:groupmode="layer" transform="translate(88.582678,88.582677)">
    <g id="document.titleblock">
      <text style="font-size:40; vertical-align:top; fill-opacity:1.0; fill:#000000; text-anchor:right; stroke:none; font-weight:normal; font-style:normal; text-align:right; " transform="" id="company" y="0.0" x="0.0">
Seamly Patterns</text>
      <text style="font-size:40; vertical-align:top; fill-opacity:1.0; fill:#000000; text-anchor:right; stroke:none; font-weight:normal; font-style:normal; text-align:right; " transform="" id="designer" y="44.0" x="0.0">
S.L.Spencer</text>
      <text style="font-size:40; vertical-align:top; fill-opacity:1.0; fill:#000000; text-anchor:right; stroke:none; font-weight:normal; font-style:normal; text-align:right; " transform="" id="pattern_number" y="88.0" x="0.0">
MR_B1</text>
      <text style="font-size:40; vertical-align:top; fill-opacity:1.0; fill:#000000; text-anchor:right; stroke:none; font-weight:normal; font-style:normal; text-align:right; " transform="" id="pattern_name" y="132.0" x="0.0">
Spencer Bodice - Short</text>
      <text style="font-size:40; vertical-align:top; fill-opacity:1.0; fill:#000000; text-anchor:right; stroke:none; font-weight:normal; font-style:normal; text-align:right; " transform="" id="client" y="176.0" x="0.0">
DressFormLg</text>
    </g>
    <g id="document.testgrid">
      <path style="stroke-linejoin:miter; stroke:green; stroke-width:4; stroke-miterlimit:4; fill:none; " d="M 1320.0  0.0 L 1320.0  212.598425197 M 1355.43307087  0.0 L 1355.43307087  212.598425197 M 1390.86614173  0.0 L 1390.86614173  212.598425197 M 1426.2992126  0.0 L 1426.2992126  212.598425197 M 1461.73228346  0.0 L 1461.73228346  212.598425197 M 1497.16535433  0.0 L 1497.16535433  212.598425197 M 1532.5984252  0.0 L 1532.5984252  212.598425197 M 1320.0  0.0 L 1532.5984252  0.0 M 1320.0  35.4330708661 L 1532.5984252  35.4330708661 M 1320.0  70.8661417323 L 1532.5984252  70.8661417323 M 1320.0  106.299212598 L 1532.5984252  106.299212598 M 1320.0  141.732283465 L 1532.5984252  141.732283465 M 1320.0  177.165354331 L 1532.5984252  177.165354331 M 1320.0  212.598425197 L 1532.5984252  212.598425197 M 1709.76377953  0.0 L 1709.76377953  270.0 M 1799.76377953  0.0 L 1799.76377953  270.0 M 1889.76377953  0.0 L 1889.76377953  270.0 M 1979.76377953  0.0 L 1979.76377953  270.0 M 1709.76377953  0.0 L 1979.76377953  0.0 M 1709.76377953  90.0 L 1979.76377953  90.0 M 1709.76377953  180.0 L 1979.76377953  180.0 M 1709.76377953  270.0 L 1979.76377953  270.0 " id="testgrid" />
    </g>
    <g id="document.bodice.Bodice Front.notes" transform=" translate(58.750000, 757.717638)" />
    <g id="document.bodice.Bodice Back.notes" transform=" translate(2274.842848, 580.552283)" />
    <g id="document.bodice.Sleeve.notes" transform=" translate(852.628979, 2252.451707)" />
  </g>
  <g inkscape:label="Label-reference" id="reference" inkscape:groupmode="layer" transform="translate(88.582678,88.582677)">
    <g id="document.bodice.Bodice Front.reference" transform=" translate(58.750000, 757.717638)">
      <circle style="stroke:gray; stroke-width:1; fill:none; " transform="" cy="0.0" cx="157.496170504" r="5" id="A.FNC.inpoint" d="M 162.49617,0 C 162.49617,2.7614237 160.25759,5 157.49617,5 154.73475,5 152.49617,2.7614237 152.49617,0 152.49617,-2.7614237 154.73475,-5 157.49617,-5 160.25759,-5 162.49617,-2.7614237 162.49617,0 z" />
      <text style="font-size:25; vertical-align:top; fill-opacity:1.0; fill:gray; text-anchor:right; stroke:none; font-weight:normal; font-style:italic; text-align:right; " transform="" id="A.FNC.inpoint.text" y="-7.0" x="164.496170504">
FNC.in</text>
      <circle style="stroke:red; stroke-width:1; fill:red; " transform="" cy="0.0" cx="0.0" r="5" id="A.FNC" d="M 5,0 C 5,2.7614237 2.7614237,5 0,5 -2.7614237,5 -5,2.7614237 -5,0 -5,-2.7614237 -2.7614237,-5 0,-5 2.7614237,-5 5,-2.7614237 5,0 z" />
      <text style="font-size:30; vertical-align:top; fill-opacity:1.0; fill:darkblue; text-anchor:right; stroke:none; font-weight:normal; font-style:italic; text-align:right; " transform="" id="A.FNC.text" y="-7.0" x="7.0">
FNC</text>
      <circle style="stroke:gray; stroke-width:1; fill:none; " transform="" cy="1240.15748031" cx="93.5433070866" r="5" id="A.FWC.outpoint" d="M 98.543304,1240.1575 C 98.543304,1242.9189 96.304728,1245.1575 93.543304,1245.1575 90.781881,1245.1575 88.543304,1242.9189 88.543304,1240.1575 88.543304,1237.396 90.781881,1235.1575 93.543304,1235.1575 96.304728,1235.1575 98.543304,1237.396 98.543304,1240.1575 z" />
      <text style="font-size:25; vertical-align:top; fill-opacity:1.0; fill:gray; text-anchor:right; stroke:none; font-weight:normal; font-style:italic; text-align:right; " transform="" id="A.FWC.outpoint.text" y="1233.15748031" x="100.543307087">
FWC.out</text>
      <circle style="stroke:red; stroke-width:1; fill:red; " transform="" cy="1240.15748031" cx="0.0" r="5" id="A.FWC" d="M 5,1240.1575 C 5,1242.9189 2.7614237,1245.1575 0,1245.1575 -2.7614237,1245.1575 -5,1242.9189 -5,1240.1575 -5,1237.396 -2.7614237,1235.1575 0,1235.1575 2.7614237,1235.1575 5,1237.396 5,1240.1575 z" />
      <text style="font-size:30; vertical-align:top; fill-opacity:1.0; fill:darkblue; text-anchor:right; stroke:none; font-weight:normal; font-style:italic; text-align:right; " transform="" id="A.FWC.text" y="1233.15748031" x="7.0">
FWC</text>
      <circle style="stroke:red; stroke-width:1; fill:red; " transform="" cy="1240.15748031" cx="51.0236220472" r="5" id="A.FWO" d="M 56.023621,1240.1575 C 56.023621,1242.9189 53.785044,1245.1575 51.023621,1245.1575 48.262197,1245.1575 46.023621,1242.9189 46.023621,1240.1575 46.023621,1237.396 48.262197,1235.1575 51.023621,1235.1575 53.785044,1235.1575 56.023621,1237.396 56.023621,1240.1575 z" />
      <text style="font-size:30; vertical-align:top; fill-opacity:1.0; fill:darkblue; text-anchor:right; stroke:none; font-weight:normal; font-style:italic; text-align:right; " transform="" id="A.FWO.text" y="1233.15748031" x="58.0236220472">
FWO</text>
      <circle style="stroke:red; stroke-width:1; fill:red; " transform="" cy="-318.897637795" cx="0.0" r="5" id="A.FSH" d="M 5,-318.89764 C 5,-316.13622 2.7614237,-313.89764 0,-313.89764 -2.7614237,-313.89764 -5,-316.13622 -5,-318.89764 -5,-321.65907 -2.7614237,-323.89764 0,-323.89764 2.7614237,-323.89764 5,-321.65907 5,-318.89764 z" />
      <text style="font-size:30; vertical-align:top; fill-opacity:1.0; fill:darkblue; text-anchor:right; stroke:none; font-weight:normal; font-style:italic; text-align:right; " transform="" id="A.FSH.text" y="-325.897637795" x="7.0">
FSH</text>
      <circle style="stroke:red; stroke-width:1; fill:red; " transform="" cy="-318.897637795" cx="717.519685039" r="5" id="A.FSW" d="M 722.51971,-318.89764 C 722.51971,-316.13622 720.28114,-313.89764 717.51971,-313.89764 714.75829,-313.89764 712.51971,-316.13622 712.51971,-318.89764 712.51971,-321.65907 714.75829,-323.89764 717.51971,-323.89764 720.28114,-323.89764 722.51971,-321.65907 722.51971,-318.89764 z" />
      <text style="font-size:30; vertical-align:top; fill-opacity:1.0; fill:darkblue; text-anchor:right; stroke:none; font-weight:normal; font-style:italic; text-align:right; " transform="" id="A.FSW.text" y="-325.897637795" x="724.519685039">
FSW</text>
      <circle style="stroke:gray; stroke-width:1; fill:none; " transform="" cy="-164.218581884" cx="704.446079331" r="5" id="A.FSP.inpoint" d="M 709.44611,-164.21858 C 709.44611,-161.45716 707.20753,-159.21858 704.44611,-159.21858 701.68468,-159.21858 699.44611,-161.45716 699.44611,-164.21858 699.44611,-166.98001 701.68468,-169.21858 704.44611,-169.21858 707.20753,-169.21858 709.44611,-166.98001 709.44611,-164.21858 z" />
      <text style="font-size:25; vertical-align:top; fill-opacity:1.0; fill:gray; text-anchor:right; stroke:none; font-weight:normal; font-style:italic; text-align:right; " transform="" id="A.FSP.inpoint.text" y="-171.218581884" x="711.446079331">
FSP.in</text>
      <circle style="stroke:red; stroke-width:1; fill:red; " transform="" cy="-247.265227358" cx="717.519685039" r="5" id="A.FSP" d="M 722.51971,-247.26523 C 722.51971,-244.5038 720.28114,-242.26523 717.51971,-242.26523 714.75829,-242.26523 712.51971,-244.5038 712.51971,-247.26523 712.51971,-250.02665 714.75829,-252.26523 717.51971,-252.26523 720.28114,-252.26523 722.51971,-250.02665 722.51971,-247.26523 z" />
      <text style="font-size:30; vertical-align:top; fill-opacity:1.0; fill:darkblue; text-anchor:right; stroke:none; font-weight:normal; font-style:italic; text-align:right; " transform="" id="A.FSP.text" y="-254.265227358" x="724.519685039">
FSP</text>
      <circle style="stroke:gray; stroke-width:1; fill:none; " transform="" cy="-167.446759384" cx="212.628225936" r="5" id="A.FNS.outpoint" d="M 217.62822,-167.44676 C 217.62822,-164.68534 215.38964,-162.44676 212.62822,-162.44676 209.8668,-162.44676 207.62822,-164.68534 207.62822,-167.44676 207.62822,-170.20819 209.8668,-172.44676 212.62822,-172.44676 215.38964,-172.44676 217.62822,-170.20819 217.62822,-167.44676 z" />
      <text style="font-size:25; vertical-align:top; fill-opacity:1.0; fill:gray; text-anchor:right; stroke:none; font-weight:normal; font-style:italic; text-align:right; " transform="" id="A.FNS.outpoint.text" y="-174.446759384" x="219.628225936">
FNS.out</text>
      <circle style="stroke:red; stroke-width:1; fill:red; " transform="" cy="-318.897637795" cx="262.493617506" r="5" id="A.FNS" d="M 267.49362,-318.89764 C 267.49362,-316.13622 265.25505,-313.89764 262.49362,-313.89764 259.7322,-313.89764 257.49362,-316.13622 257.49362,-318.89764 257.49362,-321.65907 259.7322,-323.89764 262.49362,-323.89764 265.25505,-323.89764 267.49362,-321.65907 267.49362,-318.89764 z" />
      <text style="font-size:30; vertical-align:top; fill-opacity:1.0; fill:darkblue; text-anchor:right; stroke:none; font-weight:normal; font-style:italic; text-align:right; " transform="" id="A.FNS.text" y="-325.897637795" x="269.493617506">
FNS</text>
      <circle style="stroke:red; stroke-width:1; fill:red; " transform="" cy="322.704277839" cx="673.228346457" r="5" id="A.FAP2" d="M 678.22833,322.70428 C 678.22833,325.46571 675.98976,327.70428 673.22833,327.70428 670.46691,327.70428 668.22833,325.46571 668.22833,322.70428 668.22833,319.94286 670.46691,317.70428 673.22833,317.70428 675.98976,317.70428 678.22833,319.94286 678.22833,322.70428 z" />
      <text style="font-size:30; vertical-align:top; fill-opacity:1.0; fill:darkblue; text-anchor:right; stroke:none; font-weight:normal; font-style:italic; text-align:right; " transform="" id="A.FAP2.text" y="315.704277839" x="680.228346457">
FAP2</text>
      <circle style="stroke:red; stroke-width:1; fill:red; " transform="" cy="322.704277839" cx="0.0" r="5" id="A.FUC" d="M 5,322.70428 C 5,325.46571 2.7614237,327.70428 0,327.70428 -2.7614237,327.70428 -5,325.46571 -5,322.70428 -5,319.94286 -2.7614237,317.70428 0,317.70428 2.7614237,317.70428 5,319.94286 5,322.70428 z" />
      <text style="font-size:30; vertical-align:top; fill-opacity:1.0; fill:darkblue; text-anchor:right; stroke:none; font-weight:normal; font-style:italic; text-align:right; " transform="" id="A.FUC.text" y="315.704277839" x="7.0">
FUC</text>
      <circle style="stroke:red; stroke-width:1; fill:red; " transform="" cy="322.704277839" cx="921.25984252" r="5" id="A.FUS4" d="M 926.25983,322.70428 C 926.25983,325.46571 924.02125,327.70428 921.25983,327.70428 918.4984,327.70428 916.25983,325.46571 916.25983,322.70428 916.25983,319.94286 918.4984,317.70428 921.25983,317.70428 924.02125,317.70428 926.25983,319.94286 926.25983,322.70428 z" />
      <text style="font-size:30px;font-style:italic;font-weight:normal;text-align:right;fill:#00008b;fill-opacity:1;stroke:none" id="A.FUS4.text" y="331.68698" x="1072.1041">FUS4</text>
      <circle style="stroke:red; stroke-width:1; fill:red; " transform="" cy="670.392133578" cx="354.330708661" r="5" id="A.FBP" d="M 359.33072,670.39215 C 359.33072,673.15357 357.09214,675.39215 354.33072,675.39215 351.5693,675.39215 349.33072,673.15357 349.33072,670.39215 349.33072,667.63073 351.5693,665.39215 354.33072,665.39215 357.09214,665.39215 359.33072,667.63073 359.33072,670.39215 z" />
      <text style="font-size:30; vertical-align:top; fill-opacity:1.0; fill:darkblue; text-anchor:right; stroke:none; font-weight:normal; font-style:italic; text-align:right; " transform="" id="A.FBP.text" y="663.392133578" x="361.330708661">
FBP</text>
      <circle style="stroke:red; stroke-width:1; fill:red; " transform="" cy="670.392133578" cx="0.0" r="5" id="A.FBC" d="M 5,670.39215 C 5,673.15357 2.7614237,675.39215 0,675.39215 -2.7614237,675.39215 -5,673.15357 -5,670.39215 -5,667.63073 -2.7614237,665.39215 0,665.39215 2.7614237,665.39215 5,667.63073 5,670.39215 z" />
      <text style="font-size:30; vertical-align:top; fill-opacity:1.0; fill:darkblue; text-anchor:right; stroke:none; font-weight:normal; font-style:italic; text-align:right; " transform="" id="A.FBC.text" y="663.392133578" x="7.0">
FBC</text>
      <circle style="stroke:red; stroke-width:1; fill:red; " transform="" cy="504.680513711" cx="970.2223165" r="5" id="A.FBS" d="M 975.22229,504.68051 C 975.22229,507.44194 972.98371,509.68051 970.22229,509.68051 967.46087,509.68051 965.22229,507.44194 965.22229,504.68051 965.22229,501.91909 967.46087,499.68051 970.22229,499.68051 972.98371,499.68051 975.22229,501.91909 975.22229,504.68051 z" />
      <text style="font-size:30; vertical-align:top; fill-opacity:1.0; fill:darkblue; text-anchor:right; stroke:none; font-weight:normal; font-style:italic; text-align:right; " transform="" id="A.FBS.text" y="497.680513711" x="977.2223165">
FBS</text>
      <circle style="stroke:red; stroke-width:1; fill:red; " transform="" cy="258.260870113" cx="912.741749505" r="5" id="A.FUS3" d="M 917.74176,258.26086 C 917.74176,261.02229 915.50318,263.26086 912.74176,263.26086 909.98034,263.26086 907.74176,261.02229 907.74176,258.26086 907.74176,255.49944 909.98034,253.26086 912.74176,253.26086 915.50318,253.26086 917.74176,255.49944 917.74176,258.26086 z" />
      <text style="font-size:30; vertical-align:top; fill-opacity:1.0; fill:darkblue; text-anchor:right; stroke:none; font-weight:normal; font-style:italic; text-align:right; " transform="" id="A.FUS3.text" y="251.260870113" x="919.741749505">
FUS3</text>
      <circle style="stroke:gray; stroke-width:1; fill:none; " transform="" cy="382.135272689" cx="757.542850243" r="5" id="A.FAP.inpoint" d="M 762.54285,382.13528 C 762.54285,384.89671 760.30427,387.13528 757.54285,387.13528 754.78142,387.13528 752.54285,384.89671 752.54285,382.13528 752.54285,379.37386 754.78142,377.13528 757.54285,377.13528 760.30427,377.13528 762.54285,379.37386 762.54285,382.13528 z" />
      <text style="font-size:25; vertical-align:top; fill-opacity:1.0; fill:gray; text-anchor:right; stroke:none; font-weight:normal; font-style:italic; text-align:right; " transform="" id="A.FAP.inpoint.text" y="375.135272689" x="764.542850243">
FAP.in</text>
      <circle style="stroke:gray; stroke-width:1; fill:none; " transform="" cy="175.784519354" cx="611.823896703" r="5" id="A.FAP.outpoint" d="M 616.82391,175.78452 C 616.82391,178.54594 614.58534,180.78452 611.82391,180.78452 609.06249,180.78452 606.82391,178.54594 606.82391,175.78452 606.82391,173.02309 609.06249,170.78452 611.82391,170.78452 614.58534,170.78452 616.82391,173.02309 616.82391,175.78452 z" />
      <text style="font-size:25; vertical-align:top; fill-opacity:1.0; fill:gray; text-anchor:right; stroke:none; font-weight:normal; font-style:italic; text-align:right; " transform="" id="A.FAP.outpoint.text" y="168.784519354" x="618.823896703">
FAP.out</text>
      <circle style="stroke:red; stroke-width:1; fill:red; " transform="" cy="313.129828691" cx="708.81319491" r="5" id="A.FAP" d="M 713.81317,313.12982 C 713.81317,315.89125 711.5746,318.12982 708.81317,318.12982 706.05175,318.12982 703.81317,315.89125 703.81317,313.12982 703.81317,310.3684 706.05175,308.12982 708.81317,308.12982 711.5746,308.12982 713.81317,310.3684 713.81317,313.12982 z" />
      <text style="font-size:30; vertical-align:top; fill-opacity:1.0; fill:darkblue; text-anchor:right; stroke:none; font-weight:normal; font-style:italic; text-align:right; " transform="" id="A.FAP.text" y="306.129828691" x="715.81319491">
FAP</text>
      <circle style="stroke:red; stroke-width:1; fill:red; " transform="" cy="322.704277839" cx="927.774007328" r="5" id="A.FUS2" d="M 932.77399,322.70428 C 932.77399,325.46571 930.53541,327.70428 927.77399,327.70428 925.01256,327.70428 922.77399,325.46571 922.77399,322.70428 922.77399,319.94286 925.01256,317.70428 927.77399,317.70428 930.53541,317.70428 932.77399,319.94286 932.77399,322.70428 z" />
      <text style="font-size:30px;font-style:italic;font-weight:normal;text-align:right;fill:#00008b;fill-opacity:1;stroke:none" id="A.FUS2.text" y="215.81244" x="1048.6506">FUS2</text>
      <circle style="stroke:gray; stroke-width:1; fill:none; " transform="" cy="345.965051993" cx="864.90527896" r="5" id="A.FUS.outpoint" d="M 869.90527,345.96506 C 869.90527,348.72648 867.6667,350.96506 864.90527,350.96506 862.14385,350.96506 859.90527,348.72648 859.90527,345.96506 859.90527,343.20363 862.14385,340.96506 864.90527,340.96506 867.6667,340.96506 869.90527,343.20363 869.90527,345.96506 z" />
      <text style="font-size:25; vertical-align:top; fill-opacity:1.0; fill:gray; text-anchor:right; stroke:none; font-weight:normal; font-style:italic; text-align:right; " transform="" id="A.FUS.outpoint.text" y="338.965051993" x="871.90527896">
FUS.out</text>
      <circle style="stroke:red; stroke-width:1; fill:red; " transform="" cy="322.704277839" cx="964.624401029" r="5" id="A.FUS" d="M 969.62439,322.70428 C 969.62439,325.46571 967.38581,327.70428 964.62439,327.70428 961.86297,327.70428 959.62439,325.46571 959.62439,322.70428 959.62439,319.94286 961.86297,317.70428 964.62439,317.70428 967.38581,317.70428 969.62439,319.94286 969.62439,322.70428 z" />
      <text style="font-size:30px;font-style:italic;font-weight:normal;text-align:right;fill:#00008b;fill-opacity:1;stroke:none" id="A.FUS.text" y="285.73672" x="1083.5033">FUS</text>
      <circle style="stroke:red; stroke-width:1; fill:red; " transform="" cy="998.084992842" cx="1085.31528882" r="5" id="A.FWS2" d="M 1090.3153,998.08502 C 1090.3153,1000.8464 1088.0767,1003.085 1085.3153,1003.085 1082.5539,1003.085 1080.3153,1000.8464 1080.3153,998.08502 1080.3153,995.3236 1082.5539,993.08502 1085.3153,993.08502 1088.0767,993.08502 1090.3153,995.3236 1090.3153,998.08502 z" />
      <text style="font-size:30; vertical-align:top; fill-opacity:1.0; fill:darkblue; text-anchor:right; stroke:none; font-weight:normal; font-style:italic; text-align:right; " transform="" id="A.FWS2.text" y="991.084992842" x="1092.31528882">
FWS2</text>
      <circle style="stroke:gray; stroke-width:1; fill:none; " transform="" cy="1062.70236848" cx="946.5923475" r="5" id="A.FWS.inpoint" d="M 951.59235,1062.7024 C 951.59235,1065.4638 949.35377,1067.7024 946.59235,1067.7024 943.83092,1067.7024 941.59235,1065.4638 941.59235,1062.7024 941.59235,1059.941 943.83092,1057.7024 946.59235,1057.7024 949.35377,1057.7024 951.59235,1059.941 951.59235,1062.7024 z" />
      <text style="font-size:25; vertical-align:top; fill-opacity:1.0; fill:gray; text-anchor:right; stroke:none; font-weight:normal; font-style:italic; text-align:right; " transform="" id="A.FWS.inpoint.text" y="1055.70236848" x="953.5923475">
FWS.in</text>
      <circle style="stroke:red; stroke-width:1; fill:red; " transform="" cy="998.084992842" cx="1122.16568252" r="5" id="A.FWS" d="M 1127.1656,998.08502 C 1127.1656,1000.8464 1124.9271,1003.085 1122.1656,1003.085 1119.4042,1003.085 1117.1656,1000.8464 1117.1656,998.08502 1117.1656,995.3236 1119.4042,993.08502 1122.1656,993.08502 1124.9271,993.08502 1127.1656,995.3236 1127.1656,998.08502 z" />
      <text style="font-size:30; vertical-align:top; fill-opacity:1.0; fill:darkblue; text-anchor:right; stroke:none; font-weight:normal; font-style:italic; text-align:right; " transform="" id="A.FWS.text" y="991.084992842" x="1129.16568252">
FWS</text>
      <circle style="stroke:red; stroke-width:1; fill:red; " transform="" cy="738.519925096" cx="364.608339346" r="5" id="A.FD1" d="M 369.60834,738.5199 C 369.60834,741.28132 367.36976,743.5199 364.60834,743.5199 361.84691,743.5199 359.60834,741.28132 359.60834,738.5199 359.60834,735.75847 361.84691,733.5199 364.60834,733.5199 367.36976,733.5199 369.60834,735.75847 369.60834,738.5199 z" />
      <text style="font-size:30; vertical-align:top; fill-opacity:1.0; fill:darkblue; text-anchor:right; stroke:none; font-weight:normal; font-style:italic; text-align:right; " transform="" id="A.FD1.text" y="731.519925096" x="371.608339346">
FD1</text>
      <circle style="stroke:gray; stroke-width:1; fill:none; " transform="" cy="1240.15748031" cx="141.732283465" r="5" id="A.FD1.i.inpoint" d="M 146.73228,1240.1575 C 146.73228,1242.9189 144.49371,1245.1575 141.73228,1245.1575 138.97086,1245.1575 136.73228,1242.9189 136.73228,1240.1575 136.73228,1237.396 138.97086,1235.1575 141.73228,1235.1575 144.49371,1235.1575 146.73228,1237.396 146.73228,1240.1575 z" />
      <text style="font-size:25; vertical-align:top; fill-opacity:1.0; fill:gray; text-anchor:right; stroke:none; font-weight:normal; font-style:italic; text-align:right; " transform="" id="A.FD1.i.inpoint.text" y="1233.15748031" x="148.732283465">
FD1.i.in</text>
      <circle style="stroke:red; stroke-width:1; fill:red; " transform="" cy="1262.49919463" cx="279.850621037" r="5" id="A.FD1.i" d="M 284.85062,1262.4991 C 284.85062,1265.2606 282.61204,1267.4991 279.85062,1267.4991 277.08919,1267.4991 274.85062,1265.2606 274.85062,1262.4991 274.85062,1259.7377 277.08919,1257.4991 279.85062,1257.4991 282.61204,1257.4991 284.85062,1259.7377 284.85062,1262.4991 z" />
      <text style="font-size:30; vertical-align:top; fill-opacity:1.0; fill:darkblue; text-anchor:right; stroke:none; font-weight:normal; font-style:italic; text-align:right; " transform="" id="A.FD1.i.text" y="1255.49919463" x="286.850621037">
FD1.i</text>
      <circle style="stroke:gray; stroke-width:1; fill:none; " transform="" cy="1129.27784641" cx="765.698608393" r="5" id="A.FD1.o.outpoint" d="M 770.69861,1129.2778 C 770.69861,1132.0393 768.46003,1134.2778 765.69861,1134.2778 762.93718,1134.2778 760.69861,1132.0393 760.69861,1129.2778 760.69861,1126.5164 762.93718,1124.2778 765.69861,1124.2778 768.46003,1124.2778 770.69861,1126.5164 770.69861,1129.2778 z" />
      <text style="font-size:25; vertical-align:top; fill-opacity:1.0; fill:gray; text-anchor:right; stroke:none; font-weight:normal; font-style:italic; text-align:right; " transform="" id="A.FD1.o.outpoint.text" y="1122.27784641" x="772.698608393">
FD1.o.out</text>
      <circle style="stroke:red; stroke-width:1; fill:red; " transform="" cy="1214.17652811" cx="600.16924808" r="5" id="A.FD1.o" d="M 605.16925,1214.1765 C 605.16925,1216.9379 602.93067,1219.1765 600.16925,1219.1765 597.40783,1219.1765 595.16925,1216.9379 595.16925,1214.1765 595.16925,1211.4151 597.40783,1209.1765 600.16925,1209.1765 602.93067,1209.1765 605.16925,1211.4151 605.16925,1214.1765 z" />
      <text style="font-size:30; vertical-align:top; fill-opacity:1.0; fill:darkblue; text-anchor:right; stroke:none; font-weight:normal; font-style:italic; text-align:right; " transform="" id="A.FD1.o.text" y="1207.17652811" x="607.16924808">
FD1.o</text>
      <path style="stroke-linejoin:miter; stroke-dashoffset:0; stroke:gray; stroke-miterlimit:4; stroke-dasharray:6,6; stroke-width:2; fill:none; " transform="" d="M 51.0236220472  1240.15748031 L 717.519685039  -247.265227358 L 717.519685039  -318.897637795 L 0.0  -318.897637795 L 0.0  1240.15748031 M 673.228346457  322.704277839 L 262.493617506  -318.897637795 L 354.330708661  670.392133578 M 0.0  670.392133578 L 354.330708661  670.392133578 L 970.2223165  504.680513711 M 0.0  322.704277839 L 921.25984252  322.704277839 L 964.624401029  322.704277839 M 673.228346457  322.704277839 L 912.741749505  258.260870113 " id="A.gridline" />
    </g>
    <g id="document.bodice.Bodice Back.reference" transform=" translate(2274.842848, 580.552283)">
      <circle style="stroke:gray; stroke-width:1; fill:none; " transform="" cy="0.0" cx="-185.121653252" r="5" id="B.BNC.inpoint" d="M -180.12166,0 C -180.12166,2.7614237 -182.36023,5 -185.12166,5 -187.88308,5 -190.12166,2.7614237 -190.12166,0 -190.12166,-2.7614237 -187.88308,-5 -185.12166,-5 -182.36023,-5 -180.12166,-2.7614237 -180.12166,0 z" />
      <text style="font-size:25; vertical-align:top; fill-opacity:1.0; fill:gray; text-anchor:right; stroke:none; font-weight:normal; font-style:italic; text-align:right; " transform="" id="B.BNC.inpoint.text" y="-7.0" x="-178.121653252">
BNC.in</text>
      <circle style="stroke:red; stroke-width:1; fill:red; " transform="" cy="0.0" cx="0.0" r="5" id="B.BNC" d="M 5,0 C 5,2.7614237 2.7614237,5 0,5 -2.7614237,5 -5,2.7614237 -5,0 -5,-2.7614237 -2.7614237,-5 0,-5 2.7614237,-5 5,-2.7614237 5,0 z" />
      <text style="font-size:30; vertical-align:top; fill-opacity:1.0; fill:darkblue; text-anchor:right; stroke:none; font-weight:normal; font-style:italic; text-align:right; " transform="" id="B.BNC.text" y="-7.0" x="7.0">
BNC</text>
      <circle style="stroke:gray; stroke-width:1; fill:none; " transform="" cy="1346.45669291" cx="-122.244547676" r="5" id="B.BWC.outpoint" d="M -117.24454,1346.4567 C -117.24454,1349.2181 -119.48312,1351.4567 -122.24454,1351.4567 -125.00597,1351.4567 -127.24454,1349.2181 -127.24454,1346.4567 -127.24454,1343.6952 -125.00597,1341.4567 -122.24454,1341.4567 -119.48312,1341.4567 -117.24454,1343.6952 -117.24454,1346.4567 z" />
      <text style="font-size:25; vertical-align:top; fill-opacity:1.0; fill:gray; text-anchor:right; stroke:none; font-weight:normal; font-style:italic; text-align:right; " transform="" id="B.BWC.outpoint.text" y="1339.45669291" x="-115.244547676">
BWC.out</text>
      <circle style="stroke:red; stroke-width:1; fill:red; " transform="" cy="1346.45669291" cx="0.0" r="5" id="B.BWC" d="M 5,1346.4567 C 5,1349.2181 2.7614237,1351.4567 0,1351.4567 -2.7614237,1351.4567 -5,1349.2181 -5,1346.4567 -5,1343.6952 -2.7614237,1341.4567 0,1341.4567 2.7614237,1341.4567 5,1343.6952 5,1346.4567 z" />
      <text style="font-size:30; vertical-align:top; fill-opacity:1.0; fill:darkblue; text-anchor:right; stroke:none; font-weight:normal; font-style:italic; text-align:right; " transform="" id="B.BWC.text" y="1339.45669291" x="7.0">
BWC</text>
      <circle style="stroke:red; stroke-width:1; fill:red; " transform="" cy="1346.45669291" cx="-40.3937007874" r="5" id="B.BWO" d="M -35.3937,1346.4567 C -35.3937,1349.2181 -37.632276,1351.4567 -40.3937,1351.4567 -43.155123,1351.4567 -45.3937,1349.2181 -45.3937,1346.4567 -45.3937,1343.6952 -43.155123,1341.4567 -40.3937,1341.4567 -37.632276,1341.4567 -35.3937,1343.6952 -35.3937,1346.4567 z" />
      <text style="font-size:30; vertical-align:top; fill-opacity:1.0; fill:darkblue; text-anchor:right; stroke:none; font-weight:normal; font-style:italic; text-align:right; " transform="" id="B.BWO.text" y="1339.45669291" x="-33.3937007874">
BWO</text>
      <circle style="stroke:red; stroke-width:1; fill:red; " transform="" cy="-141.732283465" cx="0.0" r="5" id="B.BSH" d="M 5,-141.73228 C 5,-138.97086 2.7614237,-136.73228 0,-136.73228 -2.7614237,-136.73228 -5,-138.97086 -5,-141.73228 -5,-144.49371 -2.7614237,-146.73228 0,-146.73228 2.7614237,-146.73228 5,-144.49371 5,-141.73228 z" />
      <text style="font-size:30; vertical-align:top; fill-opacity:1.0; fill:darkblue; text-anchor:right; stroke:none; font-weight:normal; font-style:italic; text-align:right; " transform="" id="B.BSH.text" y="-148.732283465" x="7.0">
BSH</text>
      <circle style="stroke:red; stroke-width:1; fill:red; " transform="" cy="-141.732283465" cx="-708.661417323" r="5" id="B.BSW" d="M -703.66144,-141.73228 C -703.66144,-138.97086 -705.90001,-136.73228 -708.66144,-136.73228 -711.42286,-136.73228 -713.66144,-138.97086 -713.66144,-141.73228 -713.66144,-144.49371 -711.42286,-146.73228 -708.66144,-146.73228 -705.90001,-146.73228 -703.66144,-144.49371 -703.66144,-141.73228 z" />
      <text style="font-size:30; vertical-align:top; fill-opacity:1.0; fill:darkblue; text-anchor:right; stroke:none; font-weight:normal; font-style:italic; text-align:right; " transform="" id="B.BSW.text" y="-148.732283465" x="-701.661417323">
BSW</text>
      <circle style="stroke:gray; stroke-width:1; fill:none; " transform="" cy="100.92970701" cx="-679.774050288" r="5" id="B.BSP.inpoint" d="M -674.77405,100.92971 C -674.77405,103.69113 -677.01262,105.92971 -679.77405,105.92971 -682.53547,105.92971 -684.77405,103.69113 -684.77405,100.92971 -684.77405,98.168287 -682.53547,95.92971 -679.77405,95.92971 -677.01262,95.92971 -674.77405,98.168287 -674.77405,100.92971 z" />
      <text style="font-size:25; vertical-align:top; fill-opacity:1.0; fill:gray; text-anchor:right; stroke:none; font-weight:normal; font-style:italic; text-align:right; " transform="" id="B.BSP.inpoint.text" y="93.9297070097" x="-672.774050288">
BSP.in</text>
      <circle style="stroke:red; stroke-width:1; fill:red; " transform="" cy="16.7481953661" cx="-708.661417323" r="5" id="B.BSP" d="M -703.66144,16.748196 C -703.66144,19.509619 -705.90001,21.748196 -708.66144,21.748196 -711.42286,21.748196 -713.66144,19.509619 -713.66144,16.748196 -713.66144,13.986772 -711.42286,11.748196 -708.66144,11.748196 -705.90001,11.748196 -703.66144,13.986772 -703.66144,16.748196 z" />
      <text style="font-size:30; vertical-align:top; fill-opacity:1.0; fill:darkblue; text-anchor:right; stroke:none; font-weight:normal; font-style:italic; text-align:right; " transform="" id="B.BSP.text" y="9.74819536613" x="-701.661417323">
BSP</text>
      <circle style="stroke:gray; stroke-width:1; fill:none; " transform="" cy="-76.7572375054" cx="-218.540119765" r="5" id="B.BNS.outpoint" d="M -213.54012,-76.75724 C -213.54012,-73.995817 -215.77869,-71.75724 -218.54012,-71.75724 -221.30154,-71.75724 -223.54012,-73.995817 -223.54012,-76.75724 -223.54012,-79.518664 -221.30154,-81.75724 -218.54012,-81.75724 -215.77869,-81.75724 -213.54012,-79.518664 -213.54012,-76.75724 z" />
      <text style="font-size:25; vertical-align:top; fill-opacity:1.0; fill:gray; text-anchor:right; stroke:none; font-weight:normal; font-style:italic; text-align:right; " transform="" id="B.BNS.outpoint.text" y="-83.7572375054" x="-211.540119765">
BNS.out</text>
      <circle style="stroke:red; stroke-width:1; fill:red; " transform="" cy="-141.732283465" cx="-246.828871003" r="5" id="B.BNS" d="M -241.82887,-141.73228 C -241.82887,-138.97086 -244.06745,-136.73228 -246.82887,-136.73228 -249.5903,-136.73228 -251.82887,-138.97086 -251.82887,-141.73228 -251.82887,-144.49371 -249.5903,-146.73228 -246.82887,-146.73228 -244.06745,-146.73228 -241.82887,-144.49371 -241.82887,-141.73228 z" />
      <text style="font-size:30; vertical-align:top; fill-opacity:1.0; fill:darkblue; text-anchor:right; stroke:none; font-weight:normal; font-style:italic; text-align:right; " transform="" id="B.BNS.text" y="-148.732283465" x="-239.828871003">
BNS</text>
      <circle style="stroke:red; stroke-width:1; fill:red; " transform="" cy="606.979959326" cx="-611.220472441" r="5" id="B.BAP2" d="M -606.22046,606.97998 C -606.22046,609.7414 -608.45904,611.97998 -611.22046,611.97998 -613.98188,611.97998 -616.22046,609.7414 -616.22046,606.97998 -616.22046,604.21856 -613.98188,601.97998 -611.22046,601.97998 -608.45904,601.97998 -606.22046,604.21856 -606.22046,606.97998 z" />
      <text style="font-size:30; vertical-align:top; fill-opacity:1.0; fill:darkblue; text-anchor:right; stroke:none; font-weight:normal; font-style:italic; text-align:right; " transform="" id="B.BAP2.text" y="599.979959326" x="-604.220472441">
BAP2</text>
      <circle style="stroke:gray; stroke-width:1; fill:none; " transform="" cy="636.204513001" cx="-662.294196957" r="5" id="B.BAP.inpoint" d="M -657.29419,636.20453 C -657.29419,638.96595 -659.53277,641.20453 -662.29419,641.20453 -665.05561,641.20453 -667.29419,638.96595 -667.29419,636.20453 -667.29419,633.44311 -665.05561,631.20453 -662.29419,631.20453 -659.53277,631.20453 -657.29419,633.44311 -657.29419,636.20453 z" />
      <text style="font-size:25; vertical-align:top; fill-opacity:1.0; fill:gray; text-anchor:right; stroke:none; font-weight:normal; font-style:italic; text-align:right; " transform="" id="B.BAP.inpoint.text" y="629.204513001" x="-655.294196957">
BAP.in</text>
      <circle style="stroke:gray; stroke-width:1; fill:none; " transform="" cy="430.923827521" cx="-562.385909833" r="5" id="B.BAP.outpoint" d="M -557.38593,430.92383 C -557.38593,433.68525 -559.6245,435.92383 -562.38593,435.92383 -565.14735,435.92383 -567.38593,433.68525 -567.38593,430.92383 -567.38593,428.1624 -565.14735,425.92383 -562.38593,425.92383 -559.6245,425.92383 -557.38593,428.1624 -557.38593,430.92383 z" />
      <text style="font-size:25; vertical-align:top; fill-opacity:1.0; fill:gray; text-anchor:right; stroke:none; font-weight:normal; font-style:italic; text-align:right; " transform="" id="B.BAP.outpoint.text" y="423.923827521" x="-555.385909833">
BAP.out</text>
      <circle style="stroke:red; stroke-width:1; fill:red; " transform="" cy="606.979959326" cx="-648.070866142" r="5" id="B.BAP" d="M -643.07086,606.97998 C -643.07086,609.7414 -645.30944,611.97998 -648.07086,611.97998 -650.83229,611.97998 -653.07086,609.7414 -653.07086,606.97998 -653.07086,604.21856 -650.83229,601.97998 -648.07086,601.97998 -645.30944,601.97998 -643.07086,604.21856 -643.07086,606.97998 z" />
      <text style="font-size:30; vertical-align:top; fill-opacity:1.0; fill:darkblue; text-anchor:right; stroke:none; font-weight:normal; font-style:italic; text-align:right; " transform="" id="B.BAP.text" y="599.979959326" x="-641.070866142">
BAP</text>
      <circle style="stroke:red; stroke-width:1; fill:red; " transform="" cy="606.979959326" cx="0.0" r="5" id="B.BUC" d="M 5,606.97998 C 5,609.7414 2.7614237,611.97998 0,611.97998 -2.7614237,611.97998 -5,609.7414 -5,606.97998 -5,604.21856 -2.7614237,601.97998 0,601.97998 2.7614237,601.97998 5,604.21856 5,606.97998 z" />
      <text style="font-size:30; vertical-align:top; fill-opacity:1.0; fill:darkblue; text-anchor:right; stroke:none; font-weight:normal; font-style:italic; text-align:right; " transform="" id="B.BUC.text" y="599.979959326" x="7.0">
BUC</text>
      <circle style="stroke:red; stroke-width:1; fill:red; " transform="" cy="606.979959326" cx="-885.826771654" r="5" id="B.BUS3" d="M -880.82678,606.97998 C -880.82678,609.7414 -883.06536,611.97998 -885.82678,611.97998 -888.58821,611.97998 -890.82678,609.7414 -890.82678,606.97998 -890.82678,604.21856 -888.58821,601.97998 -885.82678,601.97998 -883.06536,601.97998 -880.82678,604.21856 -880.82678,606.97998 z" />
      <text style="font-size:30; vertical-align:top; fill-opacity:1.0; fill:darkblue; text-anchor:right; stroke:none; font-weight:normal; font-style:italic; text-align:right; " transform="" id="B.BUS3.text" y="599.979959326" x="-878.826771654">
BUS3</text>
      <circle style="stroke:red; stroke-width:1; fill:red; " transform="" cy="671.98388773" cx="-885.826771654" r="5" id="B.BUS2" d="M -880.82678,671.98389 C -880.82678,674.74531 -883.06536,676.98389 -885.82678,676.98389 -888.58821,676.98389 -890.82678,674.74531 -890.82678,671.98389 -890.82678,669.22246 -888.58821,666.98389 -885.82678,666.98389 -883.06536,666.98389 -880.82678,669.22246 -880.82678,671.98389 z" />
      <text style="font-size:30; vertical-align:top; fill-opacity:1.0; fill:darkblue; text-anchor:right; stroke:none; font-weight:normal; font-style:italic; text-align:right; " transform="" id="B.BUS2.text" y="664.98388773" x="-878.826771654">
BUS2</text>
      <circle style="stroke:gray; stroke-width:1; fill:none; " transform="" cy="646.193410178" cx="-787.817956698" r="5" id="B.BUS.outpoint" d="M -782.81793,646.19342 C -782.81793,648.95484 -785.05651,651.19342 -787.81793,651.19342 -790.57936,651.19342 -792.81793,648.95484 -792.81793,646.19342 -792.81793,643.432 -790.57936,641.19342 -787.81793,641.19342 -785.05651,641.19342 -782.81793,643.432 -782.81793,646.19342 z" />
      <text style="font-size:25; vertical-align:top; fill-opacity:1.0; fill:gray; text-anchor:right; stroke:none; font-weight:normal; font-style:italic; text-align:right; " transform="" id="B.BUS.outpoint.text" y="639.193410178" x="-780.817956698">
BUS.out</text>
      <circle style="stroke:red; stroke-width:1; fill:red; " transform="" cy="671.98388773" cx="-922.677165354" r="5" id="B.BUS" d="M -917.67719,671.98389 C -917.67719,674.74531 -919.91576,676.98389 -922.67719,676.98389 -925.43861,676.98389 -927.67719,674.74531 -927.67719,671.98389 -927.67719,669.22246 -925.43861,666.98389 -922.67719,666.98389 -919.91576,666.98389 -917.67719,669.22246 -917.67719,671.98389 z" />
      <text style="font-size:30; vertical-align:top; fill-opacity:1.0; fill:darkblue; text-anchor:right; stroke:none; font-weight:normal; font-style:italic; text-align:right; " transform="" id="B.BUS.text" y="664.98388773" x="-915.677165354">
BUS</text>
      <circle style="stroke:red; stroke-width:1; fill:red; " transform="" cy="681.042333695" cx="-412.030363332" r="5" id="B.BD1" d="M -407.03036,681.04236 C -407.03036,683.80378 -409.26894,686.04236 -412.03036,686.04236 -414.79179,686.04236 -417.03036,683.80378 -417.03036,681.04236 -417.03036,678.28093 -414.79179,676.04236 -412.03036,676.04236 -409.26894,676.04236 -407.03036,678.28093 -407.03036,681.04236 z" />
      <text style="font-size:30; vertical-align:top; fill-opacity:1.0; fill:darkblue; text-anchor:right; stroke:none; font-weight:normal; font-style:italic; text-align:right; " transform="" id="B.BD1.text" y="674.042333695" x="-405.030363332">
BD1</text>
      <circle style="stroke:gray; stroke-width:1; fill:none; " transform="" cy="1353.97659092" cx="-248.117140693" r="5" id="B.BD1.i.inpoint" d="M -243.11714,1353.9766 C -243.11714,1356.738 -245.35572,1358.9766 -248.11714,1358.9766 -250.87857,1358.9766 -253.11714,1356.738 -253.11714,1353.9766 -253.11714,1351.2151 -250.87857,1348.9766 -248.11714,1348.9766 -245.35572,1348.9766 -243.11714,1351.2151 -243.11714,1353.9766 z" />
      <text style="font-size:25; vertical-align:top; fill-opacity:1.0; fill:gray; text-anchor:right; stroke:none; font-weight:normal; font-style:italic; text-align:right; " transform="" id="B.BD1.i.inpoint.text" y="1346.97659092" x="-241.117140693">
BD1.i.in</text>
      <circle style="stroke:red; stroke-width:1; fill:red; " transform="" cy="1361.51716768" cx="-369.894769292" r="5" id="B.BD1.i" d="M -364.89478,1361.5172 C -364.89478,1364.2786 -367.13335,1366.5172 -369.89478,1366.5172 -372.6562,1366.5172 -374.89478,1364.2786 -374.89478,1361.5172 -374.89478,1358.7558 -372.6562,1356.5172 -369.89478,1356.5172 -367.13335,1356.5172 -364.89478,1358.7558 -364.89478,1361.5172 z" />
      <text style="font-size:30; vertical-align:top; fill-opacity:1.0; fill:darkblue; text-anchor:right; stroke:none; font-weight:normal; font-style:italic; text-align:right; " transform="" id="B.BD1.i.text" y="1354.51716768" x="-362.894769292">
BD1.i</text>
      <circle style="stroke:gray; stroke-width:1; fill:none; " transform="" cy="1353.67872789" cx="-575.943223082" r="5" id="B.BD1.o.outpoint" d="M -570.94324,1353.6787 C -570.94324,1356.4401 -573.18181,1358.6787 -575.94324,1358.6787 -578.70466,1358.6787 -580.94324,1356.4401 -580.94324,1353.6787 -580.94324,1350.9173 -578.70466,1348.6787 -575.94324,1348.6787 -573.18181,1348.6787 -570.94324,1350.9173 -570.94324,1353.6787 z" />
      <text style="font-size:25; vertical-align:top; fill-opacity:1.0; fill:gray; text-anchor:right; stroke:none; font-weight:normal; font-style:italic; text-align:right; " transform="" id="B.BD1.o.outpoint.text" y="1346.67872789" x="-568.943223082">
BD1.o.out</text>
      <circle style="stroke:red; stroke-width:1; fill:red; " transform="" cy="1361.51716768" cx="-454.165957372" r="5" id="B.BD1.o" d="M -449.16595,1361.5172 C -449.16595,1364.2786 -451.40453,1366.5172 -454.16595,1366.5172 -456.92738,1366.5172 -459.16595,1364.2786 -459.16595,1361.5172 -459.16595,1358.7558 -456.92738,1356.5172 -454.16595,1356.5172 -451.40453,1356.5172 -449.16595,1358.7558 -449.16595,1361.5172 z" />
      <text style="font-size:30; vertical-align:top; fill-opacity:1.0; fill:darkblue; text-anchor:right; stroke:none; font-weight:normal; font-style:italic; text-align:right; " transform="" id="B.BD1.o.text" y="1354.51716768" x="-447.165957372">
BD1.o</text>
      <circle style="stroke:red; stroke-width:1; fill:red; " transform="" cy="1353.1512782" cx="-755.560307328" r="5" id="B.BWS2" d="M -750.5603,1353.1512 C -750.5603,1355.9127 -752.79888,1358.1512 -755.5603,1358.1512 -758.32173,1358.1512 -760.5603,1355.9127 -760.5603,1353.1512 -760.5603,1350.3898 -758.32173,1348.1512 -755.5603,1348.1512 -752.79888,1348.1512 -750.5603,1350.3898 -750.5603,1353.1512 z" />
      <text style="font-size:30; vertical-align:top; fill-opacity:1.0; fill:darkblue; text-anchor:right; stroke:none; font-weight:normal; font-style:italic; text-align:right; " transform="" id="B.BWS2.text" y="1346.1512782" x="-748.560307328">
BWS2</text>
      <circle style="stroke:gray; stroke-width:1; fill:none; " transform="" cy="1337.53394037" cx="-744.063623864" r="5" id="B.BWS.inpoint" d="M -739.0636,1337.5339 C -739.0636,1340.2954 -741.30217,1342.5339 -744.0636,1342.5339 -746.82502,1342.5339 -749.0636,1340.2954 -749.0636,1337.5339 -749.0636,1334.7725 -746.82502,1332.5339 -744.0636,1332.5339 -741.30217,1332.5339 -739.0636,1334.7725 -739.0636,1337.5339 z" />
      <text style="font-size:25; vertical-align:top; fill-opacity:1.0; fill:gray; text-anchor:right; stroke:none; font-weight:normal; font-style:italic; text-align:right; " transform="" id="B.BWS.inpoint.text" y="1330.53394037" x="-737.063623864">
BWS.in</text>
      <circle style="stroke:red; stroke-width:1; fill:red; " transform="" cy="1353.1512782" cx="-792.410701029" r="5" id="B.BWS" d="M -787.41071,1353.1512 C -787.41071,1355.9127 -789.64928,1358.1512 -792.41071,1358.1512 -795.17213,1358.1512 -797.41071,1355.9127 -797.41071,1353.1512 -797.41071,1350.3898 -795.17213,1348.1512 -792.41071,1348.1512 -789.64928,1348.1512 -787.41071,1350.3898 -787.41071,1353.1512 z" />
      <text style="font-size:30; vertical-align:top; fill-opacity:1.0; fill:darkblue; text-anchor:right; stroke:none; font-weight:normal; font-style:italic; text-align:right; " transform="" id="B.BWS.text" y="1346.1512782" x="-785.410701029">
BWS</text>
      <circle style="stroke:red; stroke-width:1; fill:red; " transform="" cy="98.2901217587" cx="-422.571824682" r="5" id="B.BD2" d="M -417.57184,98.290123 C -417.57184,101.05155 -419.81041,103.29012 -422.57184,103.29012 -425.33326,103.29012 -427.57184,101.05155 -427.57184,98.290123 -427.57184,95.528699 -425.33326,93.290123 -422.57184,93.290123 -419.81041,93.290123 -417.57184,95.528699 -417.57184,98.290123 z" />
      <text style="font-size:30; vertical-align:top; fill-opacity:1.0; fill:darkblue; text-anchor:right; stroke:none; font-weight:normal; font-style:italic; text-align:right; " transform="" id="B.BD2.text" y="91.2901217587" x="-415.571824682">
BD2</text>
      <circle style="stroke:red; stroke-width:1; fill:red; " transform="" cy="-85.0615479014" cx="-469.281440231" r="5" id="B.BD2.i" d="M -464.28143,-85.061546 C -464.28143,-82.300123 -466.52001,-80.061546 -469.28143,-80.061546 -472.04286,-80.061546 -474.28143,-82.300123 -474.28143,-85.061546 -474.28143,-87.82297 -472.04286,-90.061546 -469.28143,-90.061546 -466.52001,-90.061546 -464.28143,-87.82297 -464.28143,-85.061546 z" />
      <text style="font-size:30; vertical-align:top; fill-opacity:1.0; fill:darkblue; text-anchor:right; stroke:none; font-weight:normal; font-style:italic; text-align:right; " transform="" id="B.BD2.i.text" y="-92.0615479014" x="-462.281440231">
BD2.i</text>
      <circle style="stroke:red; stroke-width:1; fill:red; " transform="" cy="-75.1093576358" cx="-498.283405682" r="5" id="B.BD2.o" d="M -493.28342,-75.10936 C -493.28342,-72.347936 -495.52199,-70.10936 -498.28342,-70.10936 -501.04484,-70.10936 -503.28342,-72.347936 -503.28342,-75.10936 -503.28342,-77.870783 -501.04484,-80.10936 -498.28342,-80.10936 -495.52199,-80.10936 -493.28342,-77.870783 -493.28342,-75.10936 z" />
      <text style="font-size:30; vertical-align:top; fill-opacity:1.0; fill:darkblue; text-anchor:right; stroke:none; font-weight:normal; font-style:italic; text-align:right; " transform="" id="B.BD2.o.text" y="-82.1093576358" x="-491.283405682">
BD2.o</text>
      <path style="stroke-linejoin:miter; stroke-dashoffset:0; stroke:gray; stroke-miterlimit:4; stroke-dasharray:6,6; stroke-width:2; fill:none; " transform="" d="M -708.661417323  16.7481953661 L -708.661417323  -141.732283465 L 0.0  -141.732283465 L 0.0  606.979959326 L -885.826771654  606.979959326 L -885.826771654  671.98388773 M -246.828871003  -141.732283465 L -611.220472441  606.979959326 M -40.3937007874  1346.45669291 L -708.661417323  16.7481953661 " id="B.gridline" />
    </g>
    <g id="document.bodice.Sleeve.reference" transform=" translate(852.628979, 2252.451707)">
      <circle style="stroke:gray; stroke-width:1; fill:none; " transform="" cy="-5.45664784443" cx="84.8210259975" r="5" id="C.SCM.inpoint" d="M 89.82103,-5.4566479 C 89.82103,-2.6952241 87.582453,-0.45664787 84.82103,-0.45664787 82.059606,-0.45664787 79.82103,-2.6952241 79.82103,-5.4566479 79.82103,-8.2180716 82.059606,-10.456648 84.82103,-10.456648 87.582453,-10.456648 89.82103,-8.2180716 89.82103,-5.4566479 z" />
      <text style="font-size:25; vertical-align:top; fill-opacity:1.0; fill:gray; text-anchor:right; stroke:none; font-weight:normal; font-style:italic; text-align:right; " transform="" id="C.SCM.inpoint.text" y="-12.4566478444" x="91.8210259975">
SCM.in</text>
      <circle style="stroke:gray; stroke-width:1; fill:none; " transform="" cy="5.29624120127" cx="-82.3275801242" r="5" id="C.SCM.outpoint" d="M -77.327583,5.2962413 C -77.327583,8.057665 -79.56616,10.296241 -82.327583,10.296241 -85.089007,10.296241 -87.327583,8.057665 -87.327583,5.2962413 -87.327583,2.5348175 -85.089007,0.29624128 -82.327583,0.29624128 -79.56616,0.29624128 -77.327583,2.5348175 -77.327583,5.2962413 z" />
      <text style="font-size:25; vertical-align:top; fill-opacity:1.0; fill:gray; text-anchor:right; stroke:none; font-weight:normal; font-style:italic; text-align:right; " transform="" id="C.SCM.outpoint.text" y="-1.70375879873" x="-75.3275801242">
SCM.out</text>
      <circle style="stroke:red; stroke-width:1; fill:red; " transform="" cy="0.0" cx="0.0" r="5" id="C.SCM" d="M 5,0 C 5,2.7614237 2.7614237,5 0,5 -2.7614237,5 -5,2.7614237 -5,0 -5,-2.7614237 -2.7614237,-5 0,-5 2.7614237,-5 5,-2.7614237 5,0 z" />
      <text style="font-size:30; vertical-align:top; fill-opacity:1.0; fill:darkblue; text-anchor:right; stroke:none; font-weight:normal; font-style:italic; text-align:right; " transform="" id="C.SCM.text" y="-7.0" x="7.0">
SCM</text>
      <circle style="stroke:red; stroke-width:1; fill:red; " transform="" cy="487.072363713" cx="0.0" r="5" id="C.SUM" d="M 5,487.07236 C 5,489.83378 2.7614237,492.07236 0,492.07236 -2.7614237,492.07236 -5,489.83378 -5,487.07236 -5,484.31093 -2.7614237,482.07236 0,482.07236 2.7614237,482.07236 5,484.31093 5,487.07236 z" />
      <text style="font-size:30; vertical-align:top; fill-opacity:1.0; fill:darkblue; text-anchor:right; stroke:none; font-weight:normal; font-style:italic; text-align:right; " transform="" id="C.SUM.text" y="480.072363713" x="7.0">
SUM</text>
      <circle style="stroke:red; stroke-width:1; fill:red; " transform="" cy="2374.01574803" cx="0.0" r="5" id="C.SWM" d="M 5,2374.0159 C 5,2376.7773 2.7614237,2379.0159 0,2379.0159 -2.7614237,2379.0159 -5,2376.7773 -5,2374.0159 -5,2371.2544 -2.7614237,2369.0159 0,2369.0159 2.7614237,2369.0159 5,2371.2544 5,2374.0159 z" />
      <text style="font-size:30; vertical-align:top; fill-opacity:1.0; fill:darkblue; text-anchor:right; stroke:none; font-weight:normal; font-style:italic; text-align:right; " transform="" id="C.SWM.text" y="2367.01574803" x="7.0">
SWM</text>
      <circle style="stroke:red; stroke-width:1; fill:red; " transform="" cy="1430.54405587" cx="0.0" r="5" id="C.SEM" d="M 5,1430.5441 C 5,1433.3055 2.7614237,1435.5441 0,1435.5441 -2.7614237,1435.5441 -5,1433.3055 -5,1430.5441 -5,1427.7826 -2.7614237,1425.5441 0,1425.5441 2.7614237,1425.5441 5,1427.7826 5,1430.5441 z" />
      <text style="font-size:30; vertical-align:top; fill-opacity:1.0; fill:darkblue; text-anchor:right; stroke:none; font-weight:normal; font-style:italic; text-align:right; " transform="" id="C.SEM.text" y="1423.54405587" x="7.0">
SEM</text>
      <circle style="stroke:gray; stroke-width:1; fill:none; " transform="" cy="449.059697091" cx="777.869602721" r="5" id="C.SUB.outpoint" d="M 782.86963,449.05969 C 782.86963,451.82112 780.63105,454.05969 777.86963,454.05969 775.10821,454.05969 772.86963,451.82112 772.86963,449.05969 772.86963,446.29827 775.10821,444.05969 777.86963,444.05969 780.63105,444.05969 782.86963,446.29827 782.86963,449.05969 z" />
      <text style="font-size:25; vertical-align:top; fill-opacity:1.0; fill:gray; text-anchor:right; stroke:none; font-weight:normal; font-style:italic; text-align:right; " transform="" id="C.SUB.outpoint.text" y="442.059697091" x="784.869602721">
SUB.out</text>
      <circle style="stroke:gray; stroke-width:1; fill:none; " transform="" cy="803.194279078" cx="807.858918493" r="5" id="C.SUB.inpoint" d="M 812.85895,803.19427 C 812.85895,805.9557 810.62037,808.19427 807.85895,808.19427 805.09752,808.19427 802.85895,805.9557 802.85895,803.19427 802.85895,800.43285 805.09752,798.19427 807.85895,798.19427 810.62037,798.19427 812.85895,800.43285 812.85895,803.19427 z" />
      <text style="font-size:25; vertical-align:top; fill-opacity:1.0; fill:gray; text-anchor:right; stroke:none; font-weight:normal; font-style:italic; text-align:right; " transform="" id="C.SUB.inpoint.text" y="796.194279078" x="814.858918493">
SUB.in</text>
      <circle style="stroke:red; stroke-width:1; fill:red; " transform="" cy="487.072363713" cx="850.128979394" r="5" id="C.SUB" d="M 855.12897,487.07236 C 855.12897,489.83378 852.89039,492.07236 850.12897,492.07236 847.36754,492.07236 845.12897,489.83378 845.12897,487.07236 845.12897,484.31093 847.36754,482.07236 850.12897,482.07236 852.89039,482.07236 855.12897,484.31093 855.12897,487.07236 z" />
      <text style="font-size:30; vertical-align:top; fill-opacity:1.0; fill:darkblue; text-anchor:right; stroke:none; font-weight:normal; font-style:italic; text-align:right; " transform="" id="C.SUB.text" y="480.072363713" x="857.128979394">
SUB</text>
      <circle style="stroke:red; stroke-width:1; fill:red; " transform="" cy="2374.01574803" cx="850.128979394" r="5" id="C.SWB1" d="M 855.12897,2374.0159 C 855.12897,2376.7773 852.89039,2379.0159 850.12897,2379.0159 847.36754,2379.0159 845.12897,2376.7773 845.12897,2374.0159 845.12897,2371.2544 847.36754,2369.0159 850.12897,2369.0159 852.89039,2369.0159 855.12897,2371.2544 855.12897,2374.0159 z" />
      <text style="font-size:30; vertical-align:top; fill-opacity:1.0; fill:darkblue; text-anchor:right; stroke:none; font-weight:normal; font-style:italic; text-align:right; " transform="" id="C.SWB1.text" y="2367.01574803" x="857.128979394">
SWB1</text>
      <circle style="stroke:gray; stroke-width:1; fill:none; " transform="" cy="462.25747866" cx="-771.451777488" r="5" id="C.SUF.inpoint" d="M -766.45178,462.25748 C -766.45178,465.0189 -768.69036,467.25748 -771.45178,467.25748 -774.21321,467.25748 -776.45178,465.0189 -776.45178,462.25748 -776.45178,459.49605 -774.21321,457.25748 -771.45178,457.25748 -768.69036,457.25748 -766.45178,459.49605 -766.45178,462.25748 z" />
      <text style="font-size:25; vertical-align:top; fill-opacity:1.0; fill:gray; text-anchor:right; stroke:none; font-weight:normal; font-style:italic; text-align:right; " transform="" id="C.SUF.inpoint.text" y="455.25747866" x="-764.451777488">
SUF.in</text>
      <circle style="stroke:gray; stroke-width:1; fill:none; " transform="" cy="799.800449979" cx="-755.594730227" r="5" id="C.SUF.outpoint" d="M -750.59473,799.80048 C -750.59473,802.5619 -752.8333,804.80048 -755.59473,804.80048 -758.35615,804.80048 -760.59473,802.5619 -760.59473,799.80048 -760.59473,797.03905 -758.35615,794.80048 -755.59473,794.80048 -752.8333,794.80048 -750.59473,797.03905 -750.59473,799.80048 z" />
      <text style="font-size:25; vertical-align:top; fill-opacity:1.0; fill:gray; text-anchor:right; stroke:none; font-weight:normal; font-style:italic; text-align:right; " transform="" id="C.SUF.outpoint.text" y="792.800449979" x="-748.594730227">
SUF.out</text>
      <circle style="stroke:red; stroke-width:1; fill:red; " transform="" cy="487.072363713" cx="-850.128979394" r="5" id="C.SUF" d="M -845.12897,487.07236 C -845.12897,489.83378 -847.36754,492.07236 -850.12897,492.07236 -852.89039,492.07236 -855.12897,489.83378 -855.12897,487.07236 -855.12897,484.31093 -852.89039,482.07236 -850.12897,482.07236 -847.36754,482.07236 -845.12897,484.31093 -845.12897,487.07236 z" />
      <text style="font-size:30; vertical-align:top; fill-opacity:1.0; fill:darkblue; text-anchor:right; stroke:none; font-weight:normal; font-style:italic; text-align:right; " transform="" id="C.SUF.text" y="480.072363713" x="-843.128979394">
SUF</text>
      <circle style="stroke:red; stroke-width:1; fill:red; " transform="" cy="2374.01574803" cx="-850.128979394" r="5" id="C.CWF1" d="M -845.12897,2374.0159 C -845.12897,2376.7773 -847.36754,2379.0159 -850.12897,2379.0159 -852.89039,2379.0159 -855.12897,2376.7773 -855.12897,2374.0159 -855.12897,2371.2544 -852.89039,2369.0159 -850.12897,2369.0159 -847.36754,2369.0159 -845.12897,2371.2544 -845.12897,2374.0159 z" />
      <text style="font-size:30; vertical-align:top; fill-opacity:1.0; fill:darkblue; text-anchor:right; stroke:none; font-weight:normal; font-style:italic; text-align:right; " transform="" id="C.CWF1.text" y="2367.01574803" x="-843.128979394">
CWF1</text>
      <circle style="stroke:gray; stroke-width:1; fill:none; " transform="" cy="410.898610974" cx="705.32809114" r="5" id="C.SCB1.inpoint" d="M 710.32806,410.89862 C 710.32806,413.66004 708.08949,415.89862 705.32806,415.89862 702.56664,415.89862 700.32806,413.66004 700.32806,410.89862 700.32806,408.1372 702.56664,405.89862 705.32806,405.89862 708.08949,405.89862 710.32806,408.1372 710.32806,410.89862 z" />
      <text style="font-size:25; vertical-align:top; fill-opacity:1.0; fill:gray; text-anchor:right; stroke:none; font-weight:normal; font-style:italic; text-align:right; " transform="" id="C.SCB1.inpoint.text" y="403.898610974" x="712.32809114">
SCB1.in</text>
      <circle style="stroke:gray; stroke-width:1; fill:none; " transform="" cy="319.235352305" cx="569.160375892" r="5" id="C.SCB1.outpoint" d="M 574.1604,319.23535 C 574.1604,321.99678 571.92182,324.23535 569.1604,324.23535 566.39898,324.23535 564.1604,321.99678 564.1604,319.23535 564.1604,316.47393 566.39898,314.23535 569.1604,314.23535 571.92182,314.23535 574.1604,316.47393 574.1604,319.23535 z" />
      <text style="font-size:25; vertical-align:top; fill-opacity:1.0; fill:gray; text-anchor:right; stroke:none; font-weight:normal; font-style:italic; text-align:right; " transform="" id="C.SCB1.outpoint.text" y="312.235352305" x="576.160375892">
SCB1.out</text>
      <circle style="stroke:red; stroke-width:1; fill:red; " transform="" cy="365.304272785" cx="637.596734546" r="5" id="C.SCB1" d="M 642.59674,365.30426 C 642.59674,368.06568 640.35816,370.30426 637.59674,370.30426 634.83532,370.30426 632.59674,368.06568 632.59674,365.30426 632.59674,362.54284 634.83532,360.30426 637.59674,360.30426 640.35816,360.30426 642.59674,362.54284 642.59674,365.30426 z" />
      <text style="font-size:30; vertical-align:top; fill-opacity:1.0; fill:darkblue; text-anchor:right; stroke:none; font-weight:normal; font-style:italic; text-align:right; " transform="" id="C.SCB1.text" y="358.304272785" x="644.596734546">
SCB1</text>
      <circle style="stroke:gray; stroke-width:1; fill:none; " transform="" cy="263.629217404" cx="507.651724664" r="5" id="C.SCB2.inpoint" d="M 512.65173,263.62921 C 512.65173,266.39064 510.41316,268.62921 507.65173,268.62921 504.89031,268.62921 502.65173,266.39064 502.65173,263.62921 502.65173,260.86779 504.89031,258.62921 507.65173,258.62921 510.41316,258.62921 512.65173,260.86779 512.65173,263.62921 z" />
      <text style="font-size:25; vertical-align:top; fill-opacity:1.0; fill:gray; text-anchor:right; stroke:none; font-weight:normal; font-style:italic; text-align:right; " transform="" id="C.SCB2.inpoint.text" y="256.629217404" x="514.651724664">
SCB2.in</text>
      <circle style="stroke:gray; stroke-width:1; fill:none; " transform="" cy="161.954162023" cx="377.706714782" r="5" id="C.SCB2.outpoint" d="M 382.70673,161.95416 C 382.70673,164.71559 380.46815,166.95416 377.70673,166.95416 374.9453,166.95416 372.70673,164.71559 372.70673,161.95416 372.70673,159.19274 374.9453,156.95416 377.70673,156.95416 380.46815,156.95416 382.70673,159.19274 382.70673,161.95416 z" />
      <text style="font-size:25; vertical-align:top; fill-opacity:1.0; fill:gray; text-anchor:right; stroke:none; font-weight:normal; font-style:italic; text-align:right; " transform="" id="C.SCB2.outpoint.text" y="154.954162023" x="384.706714782">
SCB2.out</text>
      <circle style="stroke:red; stroke-width:1; fill:red; " transform="" cy="212.791689714" cx="442.679219723" r="5" id="C.SCB2" d="M 447.67923,212.79169 C 447.67923,215.55311 445.44065,217.79169 442.67923,217.79169 439.91781,217.79169 437.67923,215.55311 437.67923,212.79169 437.67923,210.03026 439.91781,207.79169 442.67923,207.79169 445.44065,207.79169 447.67923,210.03026 447.67923,212.79169 z" />
      <text style="font-size:30; vertical-align:top; fill-opacity:1.0; fill:darkblue; text-anchor:right; stroke:none; font-weight:normal; font-style:italic; text-align:right; " transform="" id="C.SCB2.text" y="205.791689714" x="449.679219723">
SCB2</text>
      <circle style="stroke:gray; stroke-width:1; fill:none; " transform="" cy="96.0201717681" cx="322.115298516" r="5" id="C.SCB3.inpoint" d="M 327.1153,96.020172 C 327.1153,98.781596 324.87672,101.02017 322.1153,101.02017 319.35387,101.02017 317.1153,98.781596 317.1153,96.020172 317.1153,93.258748 319.35387,91.020172 322.1153,91.020172 324.87672,91.020172 327.1153,93.258748 327.1153,96.020172 z" />
      <text style="font-size:25; vertical-align:top; fill-opacity:1.0; fill:gray; text-anchor:right; stroke:none; font-weight:normal; font-style:italic; text-align:right; " transform="" id="C.SCB3.inpoint.text" y="89.0201717681" x="329.115298516">
SCB3.in</text>
      <circle style="stroke:gray; stroke-width:1; fill:none; " transform="" cy="23.4555560216" cx="171.156172615" r="5" id="C.SCB3.outpoint" d="M 176.15617,23.455557 C 176.15617,26.216981 173.9176,28.455557 171.15617,28.455557 168.39475,28.455557 166.15617,26.216981 166.15617,23.455557 166.15617,20.694133 168.39475,18.455557 171.15617,18.455557 173.9176,18.455557 176.15617,20.694133 176.15617,23.455557 z" />
      <text style="font-size:25; vertical-align:top; fill-opacity:1.0; fill:gray; text-anchor:right; stroke:none; font-weight:normal; font-style:italic; text-align:right; " transform="" id="C.SCB3.outpoint.text" y="16.4555560216" x="178.156172615">
SCB3.out</text>
      <circle style="stroke:red; stroke-width:1; fill:red; " transform="" cy="60.2791066425" cx="247.7617049" r="5" id="C.SCB3" d="M 252.7617,60.279106 C 252.7617,63.04053 250.52313,65.279106 247.7617,65.279106 245.00028,65.279106 242.7617,63.04053 242.7617,60.279106 242.7617,57.517682 245.00028,55.279106 247.7617,55.279106 250.52313,55.279106 252.7617,57.517682 252.7617,60.279106 z" />
      <text style="font-size:30; vertical-align:top; fill-opacity:1.0; fill:darkblue; text-anchor:right; stroke:none; font-weight:normal; font-style:italic; text-align:right; " transform="" id="C.SCB3.text" y="53.2791066425" x="254.7617049">
SCB3</text>
      <circle style="stroke:gray; stroke-width:1; fill:none; " transform="" cy="355.036914767" cx="-548.400521115" r="5" id="C.SCF1.inpoint" d="M -543.40051,355.03693 C -543.40051,357.79835 -545.63909,360.03693 -548.40051,360.03693 -551.16194,360.03693 -553.40051,357.79835 -553.40051,355.03693 -553.40051,352.2755 -551.16194,350.03693 -548.40051,350.03693 -545.63909,350.03693 -543.40051,352.2755 -543.40051,355.03693 z" />
      <text style="font-size:25; vertical-align:top; fill-opacity:1.0; fill:gray; text-anchor:right; stroke:none; font-weight:normal; font-style:italic; text-align:right; " transform="" id="C.SCF1.inpoint.text" y="348.036914767" x="-541.400521115">
SCF1.in</text>
      <circle style="stroke:gray; stroke-width:1; fill:none; " transform="" cy="437.060615088" cx="-691.563487924" r="5" id="C.SCF1.outpoint" d="M -686.56348,437.06061 C -686.56348,439.82203 -688.80205,442.06061 -691.56348,442.06061 -694.3249,442.06061 -696.56348,439.82203 -696.56348,437.06061 -696.56348,434.29918 -694.3249,432.06061 -691.56348,432.06061 -688.80205,432.06061 -686.56348,434.29918 -686.56348,437.06061 z" />
      <text style="font-size:25; vertical-align:top; fill-opacity:1.0; fill:gray; text-anchor:right; stroke:none; font-weight:normal; font-style:italic; text-align:right; " transform="" id="C.SCF1.outpoint.text" y="430.060615088" x="-684.563487924">
SCF1.out</text>
      <circle style="stroke:red; stroke-width:1; fill:red; " transform="" cy="396.048764928" cx="-619.98200452" r="5" id="C.SCF1" d="M -614.98199,396.04877 C -614.98199,398.81019 -617.22057,401.04877 -619.98199,401.04877 -622.74342,401.04877 -624.98199,398.81019 -624.98199,396.04877 -624.98199,393.28734 -622.74342,391.04877 -619.98199,391.04877 -617.22057,391.04877 -614.98199,393.28734 -614.98199,396.04877 z" />
      <text style="font-size:30; vertical-align:top; fill-opacity:1.0; fill:darkblue; text-anchor:right; stroke:none; font-weight:normal; font-style:italic; text-align:right; " transform="" id="C.SCF1.text" y="389.048764928" x="-612.98200452">
SCF1</text>
      <circle style="stroke:gray; stroke-width:1; fill:none; " transform="" cy="192.698654166" cx="-360.091984756" r="5" id="C.SCF2.inpoint" d="M -355.09198,192.69865 C -355.09198,195.46008 -357.33056,197.69865 -360.09198,197.69865 -362.8534,197.69865 -365.09198,195.46008 -365.09198,192.69865 -365.09198,189.93723 -362.8534,187.69865 -360.09198,187.69865 -357.33056,187.69865 -355.09198,189.93723 -355.09198,192.69865 z" />
      <text style="font-size:25; vertical-align:top; fill-opacity:1.0; fill:gray; text-anchor:right; stroke:none; font-weight:normal; font-style:italic; text-align:right; " transform="" id="C.SCF2.inpoint.text" y="185.698654166" x="-353.091984756">
SCF2.in</text>
      <circle style="stroke:gray; stroke-width:1; fill:none; " transform="" cy="294.373709547" cx="-490.036994638" r="5" id="C.SCF2.outpoint" d="M -485.03699,294.37372 C -485.03699,297.13514 -487.27556,299.37372 -490.03699,299.37372 -492.79841,299.37372 -495.03699,297.13514 -495.03699,294.37372 -495.03699,291.61229 -492.79841,289.37372 -490.03699,289.37372 -487.27556,289.37372 -485.03699,291.61229 -485.03699,294.37372 z" />
      <text style="font-size:25; vertical-align:top; fill-opacity:1.0; fill:gray; text-anchor:right; stroke:none; font-weight:normal; font-style:italic; text-align:right; " transform="" id="C.SCF2.outpoint.text" y="287.373709547" x="-483.036994638">
SCF2.out</text>
      <circle style="stroke:red; stroke-width:1; fill:red; " transform="" cy="243.536181856" cx="-425.064489697" r="5" id="C.SCF2" d="M -420.06448,243.53618 C -420.06448,246.2976 -422.30306,248.53618 -425.06448,248.53618 -427.82591,248.53618 -430.06448,246.2976 -430.06448,243.53618 -430.06448,240.77475 -427.82591,238.53618 -425.06448,238.53618 -422.30306,238.53618 -420.06448,240.77475 -420.06448,243.53618 z" />
      <text style="font-size:30; vertical-align:top; fill-opacity:1.0; fill:darkblue; text-anchor:right; stroke:none; font-weight:normal; font-style:italic; text-align:right; " transform="" id="C.SCF2.text" y="236.536181856" x="-418.064489697">
SCF2</text>
      <circle style="stroke:gray; stroke-width:1; fill:none; " transform="" cy="50.011748625" cx="-158.56549147" r="5" id="C.SCF3.inpoint" d="M -153.56549,50.011749 C -153.56549,52.773173 -155.80407,55.011749 -158.56549,55.011749 -161.32691,55.011749 -163.56549,52.773173 -163.56549,50.011749 -163.56549,47.250326 -161.32691,45.011749 -158.56549,45.011749 -155.80407,45.011749 -153.56549,47.250326 -153.56549,50.011749 z" />
      <text style="font-size:25; vertical-align:top; fill-opacity:1.0; fill:gray; text-anchor:right; stroke:none; font-weight:normal; font-style:italic; text-align:right; " transform="" id="C.SCF3.inpoint.text" y="43.011748625" x="-151.56549147">
SCF3.in</text>
      <circle style="stroke:gray; stroke-width:1; fill:none; " transform="" cy="132.035448946" cx="-301.728458279" r="5" id="C.SCF3.outpoint" d="M -296.72845,132.03545 C -296.72845,134.79687 -298.96703,137.03545 -301.72845,137.03545 -304.48988,137.03545 -306.72845,134.79687 -306.72845,132.03545 -306.72845,129.27402 -304.48988,127.03545 -301.72845,127.03545 -298.96703,127.03545 -296.72845,129.27402 -296.72845,132.03545 z" />
      <text style="font-size:25; vertical-align:top; fill-opacity:1.0; fill:gray; text-anchor:right; stroke:none; font-weight:normal; font-style:italic; text-align:right; " transform="" id="C.SCF3.outpoint.text" y="125.035448946" x="-294.728458279">
SCF3.out</text>
      <circle style="stroke:red; stroke-width:1; fill:red; " transform="" cy="91.0235987854" cx="-230.146974874" r="5" id="C.SCF3" d="M -225.14697,91.023598 C -225.14697,93.785021 -227.38555,96.023598 -230.14697,96.023598 -232.9084,96.023598 -235.14697,93.785021 -235.14697,91.023598 -235.14697,88.262174 -232.9084,86.023598 -230.14697,86.023598 -227.38555,86.023598 -225.14697,88.262174 -225.14697,91.023598 z" />
      <text style="font-size:30; vertical-align:top; fill-opacity:1.0; fill:darkblue; text-anchor:right; stroke:none; font-weight:normal; font-style:italic; text-align:right; " transform="" id="C.SCF3.text" y="84.0235987854" x="-223.146974874">
SCF3</text>
      <circle style="stroke:gray; stroke-width:1; fill:none; " transform="" cy="2062.94560349" cx="505.247138468" r="5" id="C.SWB3.outpoint" d="M 510.24713,2062.9456 C 510.24713,2065.707 508.00856,2067.9456 505.24713,2067.9456 502.48571,2067.9456 500.24713,2065.707 500.24713,2062.9456 500.24713,2060.1841 502.48571,2057.9456 505.24713,2057.9456 508.00856,2057.9456 510.24713,2060.1841 510.24713,2062.9456 z" />
      <text style="font-size:25; vertical-align:top; fill-opacity:1.0; fill:gray; text-anchor:right; stroke:none; font-weight:normal; font-style:italic; text-align:right; " transform="" id="C.SWB3.outpoint.text" y="2055.94560349" x="512.247138468">
SWB3.out</text>
      <circle style="stroke:red; stroke-width:1; fill:red; " transform="" cy="2374.01574803" cx="396.850393701" r="5" id="C.SWB3" d="M 401.8504,2374.0159 C 401.8504,2376.7773 399.61183,2379.0159 396.8504,2379.0159 394.08898,2379.0159 391.8504,2376.7773 391.8504,2374.0159 391.8504,2371.2544 394.08898,2369.0159 396.8504,2369.0159 399.61183,2369.0159 401.8504,2371.2544 401.8504,2374.0159 z" />
      <text style="font-size:30; vertical-align:top; fill-opacity:1.0; fill:darkblue; text-anchor:right; stroke:none; font-weight:normal; font-style:italic; text-align:right; " transform="" id="C.SWB3.text" y="2367.01574803" x="403.850393701">
SWB3</text>
      <circle style="stroke:gray; stroke-width:1; fill:none; " transform="" cy="2058.35755024" cx="-453.266525108" r="5" id="C.SWF.inpoint" d="M -448.26651,2058.3577 C -448.26651,2061.1191 -450.50509,2063.3577 -453.26651,2063.3577 -456.02793,2063.3577 -458.26651,2061.1191 -458.26651,2058.3577 -458.26651,2055.5962 -456.02793,2053.3577 -453.26651,2053.3577 -450.50509,2053.3577 -448.26651,2055.5962 -448.26651,2058.3577 z" />
      <text style="font-size:25; vertical-align:top; fill-opacity:1.0; fill:gray; text-anchor:right; stroke:none; font-weight:normal; font-style:italic; text-align:right; " transform="" id="C.SWF.inpoint.text" y="2051.35755024" x="-446.266525108">
SWF.in</text>
      <circle style="stroke:gray; stroke-width:1; fill:none; " transform="" cy="2329.15303586" cx="-145.835612645" r="5" id="C.SWF.outpoint" d="M -140.83562,2329.1531 C -140.83562,2331.9145 -143.07419,2334.1531 -145.83562,2334.1531 -148.59704,2334.1531 -150.83562,2331.9145 -150.83562,2329.1531 -150.83562,2326.3917 -148.59704,2324.1531 -145.83562,2324.1531 -143.07419,2324.1531 -140.83562,2326.3917 -140.83562,2329.1531 z" />
      <text style="font-size:25; vertical-align:top; fill-opacity:1.0; fill:gray; text-anchor:right; stroke:none; font-weight:normal; font-style:italic; text-align:right; " transform="" id="C.SWF.outpoint.text" y="2322.15303586" x="-138.835612645">
SWF.out</text>
      <circle style="stroke:red; stroke-width:1; fill:red; " transform="" cy="2374.01574803" cx="-396.850393701" r="5" id="C.SWF" d="M -391.8504,2374.0159 C -391.8504,2376.7773 -394.08898,2379.0159 -396.8504,2379.0159 -399.61183,2379.0159 -401.8504,2376.7773 -401.8504,2374.0159 -401.8504,2371.2544 -399.61183,2369.0159 -396.8504,2369.0159 -394.08898,2369.0159 -391.8504,2371.2544 -391.8504,2374.0159 z" />
      <text style="font-size:30; vertical-align:top; fill-opacity:1.0; fill:darkblue; text-anchor:right; stroke:none; font-weight:normal; font-style:italic; text-align:right; " transform="" id="C.SWF.text" y="2367.01574803" x="-389.850393701">
SWF</text>
      <circle style="stroke:red; stroke-width:1; fill:red; " transform="" cy="2374.01574803" cx="623.489686548" r="5" id="C.SWB2" d="M 628.48969,2374.0159 C 628.48969,2376.7773 626.25111,2379.0159 623.48969,2379.0159 620.72826,2379.0159 618.48969,2376.7773 618.48969,2374.0159 618.48969,2371.2544 620.72826,2369.0159 623.48969,2369.0159 626.25111,2369.0159 628.48969,2371.2544 628.48969,2374.0159 z" />
      <text style="font-size:30; vertical-align:top; fill-opacity:1.0; fill:darkblue; text-anchor:right; stroke:none; font-weight:normal; font-style:italic; text-align:right; " transform="" id="C.SWB2.text" y="2367.01574803" x="630.489686548">
SWB2</text>
      <circle style="stroke:red; stroke-width:1; fill:red; " transform="" cy="2374.01574803" cx="-623.489686548" r="5" id="C.SWF2" d="M -618.48969,2374.0159 C -618.48969,2376.7773 -620.72826,2379.0159 -623.48969,2379.0159 -626.25111,2379.0159 -628.48969,2376.7773 -628.48969,2374.0159 -628.48969,2371.2544 -626.25111,2369.0159 -623.48969,2369.0159 -620.72826,2369.0159 -618.48969,2371.2544 -618.48969,2374.0159 z" />
      <text style="font-size:30; vertical-align:top; fill-opacity:1.0; fill:darkblue; text-anchor:right; stroke:none; font-weight:normal; font-style:italic; text-align:right; " transform="" id="C.SWF2.text" y="2367.01574803" x="-616.489686548">
SWF2</text>
      <circle style="stroke:gray; stroke-width:1; fill:none; " transform="" cy="1750.84749934" cx="614.002090148" r="5" id="C.SEB.inpoint" d="M 619.00208,1750.8475 C 619.00208,1753.609 616.7635,1755.8475 614.00208,1755.8475 611.24065,1755.8475 609.00208,1753.609 609.00208,1750.8475 609.00208,1748.0861 611.24065,1745.8475 614.00208,1745.8475 616.7635,1745.8475 619.00208,1748.0861 619.00208,1750.8475 z" />
      <text style="font-size:25; vertical-align:top; fill-opacity:1.0; fill:gray; text-anchor:right; stroke:none; font-weight:normal; font-style:italic; text-align:right; " transform="" id="C.SEB.inpoint.text" y="1743.84749934" x="621.002090148">
SEB.in</text>
      <circle style="stroke:gray; stroke-width:1; fill:none; " transform="" cy="1120.43064951" cx="765.439838871" r="5" id="C.SEB.outpoint" d="M 770.43982,1120.4307 C 770.43982,1123.1921 768.20124,1125.4307 765.43982,1125.4307 762.6784,1125.4307 760.43982,1123.1921 760.43982,1120.4307 760.43982,1117.6692 762.6784,1115.4307 765.43982,1115.4307 768.20124,1115.4307 770.43982,1117.6692 770.43982,1120.4307 z" />
      <text style="font-size:25; vertical-align:top; fill-opacity:1.0; fill:gray; text-anchor:right; stroke:none; font-weight:normal; font-style:italic; text-align:right; " transform="" id="C.SEB.outpoint.text" y="1113.43064951" x="772.439838871">
SEB.out</text>
      <circle style="stroke:red; stroke-width:1; fill:red; " transform="" cy="1430.54405587" cx="690.94488189" r="5" id="C.SEB" d="M 695.94489,1430.5441 C 695.94489,1433.3055 693.70631,1435.5441 690.94489,1435.5441 688.18346,1435.5441 685.94489,1433.3055 685.94489,1430.5441 685.94489,1427.7826 688.18346,1425.5441 690.94489,1425.5441 693.70631,1425.5441 695.94489,1427.7826 695.94489,1430.5441 z" />
      <text style="font-size:30; vertical-align:top; fill-opacity:1.0; fill:darkblue; text-anchor:right; stroke:none; font-weight:normal; font-style:italic; text-align:right; " transform="" id="C.SEB.text" y="1423.54405587" x="697.94488189">
SEB</text>
      <circle style="stroke:gray; stroke-width:1; fill:none; " transform="" cy="1112.87687404" cx="-660.955182391" r="5" id="C.SEF.inpoint" d="M -655.9552,1112.8768 C -655.9552,1115.6383 -658.19378,1117.8768 -660.9552,1117.8768 -663.71662,1117.8768 -665.9552,1115.6383 -665.9552,1112.8768 -665.9552,1110.1154 -663.71662,1107.8768 -660.9552,1107.8768 -658.19378,1107.8768 -655.9552,1110.1154 -655.9552,1112.8768 z" />
      <text style="font-size:25; vertical-align:top; fill-opacity:1.0; fill:gray; text-anchor:right; stroke:none; font-weight:normal; font-style:italic; text-align:right; " transform="" id="C.SEF.inpoint.text" y="1105.87687404" x="-653.955182391">
SEF.in</text>
      <circle style="stroke:gray; stroke-width:1; fill:none; " transform="" cy="1742.33437017" cx="-509.747888111" r="5" id="C.SEF.outpoint" d="M -504.74789,1742.3344 C -504.74789,1745.0958 -506.98647,1747.3344 -509.74789,1747.3344 -512.50932,1747.3344 -514.74789,1745.0958 -514.74789,1742.3344 -514.74789,1739.5729 -512.50932,1737.3344 -509.74789,1737.3344 -506.98647,1737.3344 -504.74789,1739.5729 -504.74789,1742.3344 z" />
      <text style="font-size:25; vertical-align:top; fill-opacity:1.0; fill:gray; text-anchor:right; stroke:none; font-weight:normal; font-style:italic; text-align:right; " transform="" id="C.SEF.outpoint.text" y="1735.33437017" x="-502.747888111">
SEF.out</text>
      <circle style="stroke:red; stroke-width:1; fill:red; " transform="" cy="1430.54405587" cx="-584.645669291" r="5" id="C.SEF" d="M -579.64569,1430.5441 C -579.64569,1433.3055 -581.88427,1435.5441 -584.64569,1435.5441 -587.40711,1435.5441 -589.64569,1433.3055 -589.64569,1430.5441 -589.64569,1427.7826 -587.40711,1425.5441 -584.64569,1425.5441 -581.88427,1425.5441 -579.64569,1427.7826 -579.64569,1430.5441 z" />
      <text style="font-size:30; vertical-align:top; fill-opacity:1.0; fill:darkblue; text-anchor:right; stroke:none; font-weight:normal; font-style:italic; text-align:right; " transform="" id="C.SEF.text" y="1423.54405587" x="-577.645669291">
SEF</text>
      <circle style="stroke:red; stroke-width:1; fill:red; " transform="" cy="1430.54405587" cx="345.472440945" r="5" id="C.SD1" d="M 350.47244,1430.5441 C 350.47244,1433.3055 348.23387,1435.5441 345.47244,1435.5441 342.71102,1435.5441 340.47244,1433.3055 340.47244,1430.5441 340.47244,1427.7826 342.71102,1425.5441 345.47244,1425.5441 348.23387,1425.5441 350.47244,1427.7826 350.47244,1430.5441 z" />
      <text style="font-size:30; vertical-align:top; fill-opacity:1.0; fill:darkblue; text-anchor:right; stroke:none; font-weight:normal; font-style:italic; text-align:right; " transform="" id="C.SD1.text" y="1423.54405587" x="352.472440945">
SD1</text>
      <circle style="stroke:gray; stroke-width:1; fill:none; " transform="" cy="1120.43064951" cx="765.439838871" r="5" id="C.SD1.i.outpoint" d="M 770.43982,1120.4307 C 770.43982,1123.1921 768.20124,1125.4307 765.43982,1125.4307 762.6784,1125.4307 760.43982,1123.1921 760.43982,1120.4307 760.43982,1117.6692 762.6784,1115.4307 765.43982,1115.4307 768.20124,1115.4307 770.43982,1117.6692 770.43982,1120.4307 z" />
      <text style="font-size:25; vertical-align:top; fill-opacity:1.0; fill:gray; text-anchor:right; stroke:none; font-weight:normal; font-style:italic; text-align:right; " transform="" id="C.SD1.i.outpoint.text" y="1113.43064951" x="772.439838871">
SD1.i.out</text>
      <circle style="stroke:red; stroke-width:1; fill:red; " transform="" cy="1430.54405587" cx="690.94488189" r="5" id="C.SD1.i" d="M 695.94489,1430.5441 C 695.94489,1433.3055 693.70631,1435.5441 690.94489,1435.5441 688.18346,1435.5441 685.94489,1433.3055 685.94489,1430.5441 685.94489,1427.7826 688.18346,1425.5441 690.94489,1425.5441 693.70631,1425.5441 695.94489,1427.7826 695.94489,1430.5441 z" />
      <text style="font-size:30; vertical-align:top; fill-opacity:1.0; fill:darkblue; text-anchor:right; stroke:none; font-weight:normal; font-style:italic; text-align:right; " transform="" id="C.SD1.i.text" y="1423.54405587" x="697.94488189">
SD1.i</text>
      <circle style="stroke:gray; stroke-width:1; fill:none; " transform="" cy="1750.84749934" cx="614.002090148" r="5" id="C.SD1.o.inpoint" d="M 619.00208,1750.8475 C 619.00208,1753.609 616.7635,1755.8475 614.00208,1755.8475 611.24065,1755.8475 609.00208,1753.609 609.00208,1750.8475 609.00208,1748.0861 611.24065,1745.8475 614.00208,1745.8475 616.7635,1745.8475 619.00208,1748.0861 619.00208,1750.8475 z" />
      <text style="font-size:25; vertical-align:top; fill-opacity:1.0; fill:gray; text-anchor:right; stroke:none; font-weight:normal; font-style:italic; text-align:right; " transform="" id="C.SD1.o.inpoint.text" y="1743.84749934" x="621.002090148">
SD1.o.in</text>
      <circle style="stroke:red; stroke-width:1; fill:red; " transform="" cy="1535.62558279" cx="665.702362004" r="5" id="C.SD1.o" d="M 670.70233,1535.6256 C 670.70233,1538.387 668.46376,1540.6256 665.70233,1540.6256 662.94091,1540.6256 660.70233,1538.387 660.70233,1535.6256 660.70233,1532.8642 662.94091,1530.6256 665.70233,1530.6256 668.46376,1530.6256 670.70233,1532.8642 670.70233,1535.6256 z" />
      <text style="font-size:30; vertical-align:top; fill-opacity:1.0; fill:darkblue; text-anchor:right; stroke:none; font-weight:normal; font-style:italic; text-align:right; " transform="" id="C.SD1.o.text" y="1528.62558279" x="672.702362004">
SD1.o</text>
      <circle style="stroke:gray; stroke-width:1; fill:none; " transform="" cy="2392.16087113" cx="120.497087462" r="5" id="C.SWB.inpoint" d="M 125.49709,2392.1609 C 125.49709,2394.9223 123.25851,2397.1609 120.49709,2397.1609 117.73566,2397.1609 115.49709,2394.9223 115.49709,2392.1609 115.49709,2389.3995 117.73566,2387.1609 120.49709,2387.1609 123.25851,2387.1609 125.49709,2389.3995 125.49709,2392.1609 z" />
      <text style="font-size:25; vertical-align:top; fill-opacity:1.0; fill:gray; text-anchor:right; stroke:none; font-weight:normal; font-style:italic; text-align:right; " transform="" id="C.SWB.inpoint.text" y="2385.16087113" x="127.497087462">
SWB.in</text>
      <circle style="stroke:red; stroke-width:1; fill:red; " transform="" cy="2476.06811878" cx="361.288817062" r="5" id="C.SWB" d="M 366.28882,2476.0681 C 366.28882,2478.8295 364.05024,2481.0681 361.28882,2481.0681 358.52739,2481.0681 356.28882,2478.8295 356.28882,2476.0681 356.28882,2473.3067 358.52739,2471.0681 361.28882,2471.0681 364.05024,2471.0681 366.28882,2473.3067 366.28882,2476.0681 z" />
      <text style="font-size:30; vertical-align:top; fill-opacity:1.0; fill:darkblue; text-anchor:right; stroke:none; font-weight:normal; font-style:italic; text-align:right; " transform="" id="C.SWB.text" y="2469.06811878" x="368.288817062">
SWB</text>
      <path style="stroke-linejoin:miter; stroke-dashoffset:0; stroke:gray; stroke-miterlimit:4; stroke-dasharray:6,6; stroke-width:2; fill:none; " transform="" d="M 0.0  0.0 L 0.0  2374.01574803 M -850.128979394  487.072363713 L -850.128979394  2374.01574803 M 850.128979394  487.072363713 L 850.128979394  2374.01574803 M 850.128979394  487.072363713 L 0.0  0.0 L -850.128979394  487.072363713 M 850.128979394  487.072363713 L 623.489686548  2374.01574803 M 690.94488189  1430.54405587 L 396.850393701  2374.01574803 M -850.128979394  487.072363713 L -623.489686548  2374.01574803 M -584.645669291  1430.54405587 L -396.850393701  2374.01574803 M 850.128979394  487.072363713 L -850.128979394  487.072363713 M 690.94488189  1430.54405587 L -584.645669291  1430.54405587 M 850.128979394  2374.01574803 L -850.128979394  2374.01574803 " id="C.gridline" />
    </g>
  </g>
</svg>
