<?xml version="1.0" encoding="UTF-8" standalone="no"?>
<svg xmlns:dc="http://purl.org/dc/elements/1.1/" xmlns:cc="http://creativecommons.org/ns#" xmlns:rdf="http://www.w3.org/1999/02/22-rdf-syntax-ns#" xmlns:svg="http://www.w3.org/2000/svg" xmlns="http://www.w3.org/2000/svg" xmlns:sodipodi="http://sodipodi.sourceforge.net/DTD/sodipodi-0.dtd" xmlns:inkscape="http://www.inkscape.org/namespaces/inkscape" patternNumber="MR_B1" fitBoxtoViewport="True" companyName="Next Patterns" currentscale="0.5:1" margin-right="88.5826771654" client-name="DressFormLg" designerName="S.L.Spencer" height="4930.02834802" width="3019.57811933" margin-top="88.5826771654" version="1.1" margin-bottom="88.5826771654" margin-left="88.5826771654" preserveAspectRatio="xMidYMid meet" id="svg2" inkscape:version="0.48.4 r9939" sodipodi:docname="Susan-spencer_bodice_short-2014-11-05-0034.svg">
  <metadata id="metadata295">
    <rdf:RDF>
      <cc:Work rdf:about="">
        <dc:format>image/svg+xml</dc:format>
        <dc:type rdf:resource="http://purl.org/dc/dcmitype/StillImage" />
      </cc:Work>
    </rdf:RDF>
  </metadata>
  <sodipodi:namedview id="base" pagecolor="#ffffff" bordercolor="#666666" borderopacity="1.0" inkscape:pageopacity="0.0" inkscape:pageshadow="2" inkscape:zoom="0.17971499" inkscape:document-units="pt" showgrid="false" inkscape:window-maximized="1" inkscape:cx="1509.7891" inkscape:cy="2465.0142" inkscape:window-width="1855" inkscape:window-height="1056" inkscape:window-x="65" inkscape:window-y="24" inkscape:current-layer="pattern" />
  <defs id="defs5">
    <marker style="overflow:visible" id="Arrow1Mstart" refX="0.0" refY="0.0" orient="auto" inkscape:stockid="Arrow1Mstart">
      <path transform="scale(0.4) translate(10,0)" style="fill-rule:evenodd;stroke:#000000;stroke-width:1.0pt;marker-start:none" d="M 0.0,0.0 L 5.0,-5.0 L -12.5,0.0 L 5.0,5.0 L 0.0,0.0 z " id="path8" />
    </marker>
    <marker style="overflow:visible;" id="Arrow1Mend" refX="0.0" refY="0.0" orient="auto" inkscape:stockid="Arrow1Mend">
      <path transform="scale(0.4) rotate(180) translate(10,0)" style="fill-rule:evenodd;stroke:#000000;stroke-width:1.0pt;marker-start:none;" d="M 0.0,0.0 L 5.0,-5.0 L -12.5,0.0 L 5.0,5.0 L 0.0,0.0 z " id="path11" />
    </marker>
  </defs>
  <g inkscape:label="Label-pattern" id="pattern" inkscape:groupmode="layer" transform="translate(88.582677,88.582677)">
    <g id="document.bodice.Bodice Front.pattern" transform=" translate(465.156254, 757.717638)">
      <g id="A.letter" transform="matrix(10.000000, 0, 0, 10.000000, -3228.838583, -1030.039370)">
        <text style="font-size:24; vertical-align:top; fill-opacity:1.0; fill:#000000; text-anchor:start; stroke:none; font-weight:normal; font-style:normal; text-align:right; " transform="" id="A.letter.letterline" y="114.448818898" x="358.75984252">
A</text>
      </g>
      <line style="stroke-linejoin:miter; stroke:green; stroke-width:4; stroke-miterlimit:4; fill:none; " y2="1089.56692913" marker-end="url(#Arrow1Mend)" marker-start="url(#Arrow1Mstart)" transform="" x2="133.455818164" y1="159.448818898" x1="133.455818164" id="A.grainline" />
      <path style="stroke-linejoin:miter; stroke-dashoffset:0; stroke:green; stroke-miterlimit:4; stroke-dasharray:6,6; stroke-width:3; fill:none; " transform="" d="M 259.399057947  1311.31203772 L 354.330708661  710.078740157 L 449.262359376  1311.31203772 M 1153.63978976  637.795275591 L 443.115788594  637.795275591 L 1119.09731643  856.640723921 " id="A.dartline" />
      <path style="stroke-linejoin:miter; stroke-dashoffset:0; stroke:green; stroke-dasharray:24,6; stroke-miterlimit:4; stroke-width:4; fill:none; " transform="" d="M 0.0  0.0 L 0.0  1240.15748031 C 88.6462178188  1240.15748031  169.417059436  1240.15748031  268.171959685  1255.75037202 L 354.330708661  1278.22121965 L 440.489457638  1255.75037202 C 636.519475316  1224.79823872  856.887010583  1200.93493292  1063.28928086  1191.7749495 L 1065.58193781  839.315402822 L 1068.96710355  736.579383367 L 1097.38978976  637.795275591 L 1028.00148428  396.633627576 C 889.860034068  441.600703108  737.624711459  419.980601749  673.228346457  318.897637795 C 576.766193088  167.481010918  700.589615123  -143.504287858  717.519685039  -223.334513127 L 266.911636328  -318.897637795 C 233.832093174  -162.917928626  160.146981797  0.0  0.0  0.0 " id="A.seamline" />
      <path style="fill:none;stroke:#008000;stroke-width:4;stroke-linejoin:miter;stroke-miterlimit:4" d="M 211.90625,-330.65625 C 197.45138,-264.20535 177.34444,-197.87692 139.96875,-140.40625 116.15169,-104.08797 82.171731,-71.60028 38.90625,-60.9375 9.6980416,-53.498727 -20.657228,-57.036286 -50.466985,-55.829847 -59.45958,-58.486119 -55.389515,-48.189039 -56.25,-42.78125 -56.25,403.61458 -56.25,850.01042 -56.25,1296.4062 48.994452,1296.6498 154.70398,1293.8005 258.71648,1311.4111 290.59282,1319.7197 322.46209,1328.0555 354.34375,1336.3438 388.2971,1327.7847 422.02466,1318.1546 456.10763,1310.222 672.56531,1276.5628 890.90361,1254.4505 1109.7679,1245.9872 1117.5459,1247.2896 1121.1403,1244.5668 1119.2454,1236.5627 1120.2573,1101.8258 1120.7343,967.07799 1122.107,832.34808 1123.234,803.07029 1123.7125,773.69028 1125.2449,744.47638 1135.4664,708.91163 1145.6753,673.34327 1155.9062,637.78125 1125.9311,533.52711 1095.9341,429.27922 1065.9375,325.03125 1024.1118,338.45664 982.65383,354.43859 938.71875,359.5 883.87123,366.50646 825.6517,363.03656 775.64977,337.59028 743.73268,321.61044 717.85302,293.48482 706.625,259.40625 689.96164,210.59091 691.45667,158.00497 696.34375,107.375 706.968,9.1880899 736.4176,-85.368133 764.34375,-179.71875 772.60111,-208.29903 778.11185,-237.58398 784.9375,-266.53125 597.84169,-306.25813 410.72586,-345.89065 223.625,-385.59375 219.71875,-367.28125 215.8125,-348.96875 211.90625,-330.65625 z" id="A.cuttingline" inkscape:connector-curvature="0" />
      <g id="A.info" transform="">
        <text style="font-size:12; vertical-align:top; fill-opacity:1.0; fill:#000000; text-anchor:start; stroke:none; font-weight:normal; font-style:normal; text-align:right; " transform="" id="A.info.lineNext Patterns" y="159.448818898" x="358.75984252">
Next Patterns</text>
        <text style="font-size:12; vertical-align:top; fill-opacity:1.0; fill:#000000; text-anchor:start; stroke:none; font-weight:normal; font-style:normal; text-align:right; " transform="" id="A.info.lineDesigner:S.L.Spencer" y="173.848818898" x="358.75984252">
Designer:S.L.Spencer</text>
        <text style="font-size:12; vertical-align:top; fill-opacity:1.0; fill:#000000; text-anchor:start; stroke:none; font-weight:normal; font-style:normal; text-align:right; " transform="" id="A.info.lineClient:DressFormLg" y="188.248818898" x="358.75984252">
Client:DressFormLg</text>
        <text style="font-size:12; vertical-align:top; fill-opacity:1.0; fill:#000000; text-anchor:start; stroke:none; font-weight:normal; font-style:normal; text-align:right; " transform="" id="A.info.lineMR_B1" y="202.648818898" x="358.75984252">
MR_B1</text>
        <text style="font-size:12; vertical-align:top; fill-opacity:1.0; fill:#000000; text-anchor:start; stroke:none; font-weight:normal; font-style:normal; text-align:right; " transform="" id="A.info.linePattern Piece A" y="217.048818898" x="358.75984252">
Pattern Piece A</text>
        <text style="font-size:12; vertical-align:top; fill-opacity:1.0; fill:#000000; text-anchor:start; stroke:none; font-weight:normal; font-style:normal; text-align:right; " transform="" id="A.info.lineCut 2 Fabric" y="231.448818898" x="358.75984252">
Cut 2 Fabric</text>
      </g>
    </g>
    <g id="document.bodice.Bodice Back.pattern" transform=" translate(2786.162765, 580.552283)">
      <g id="B.letter" transform="matrix(10.000000, 0, 0, 10.000000, 3188.976378, -2465.078740)">
        <text style="font-size:24; vertical-align:top; fill-opacity:1.0; fill:#000000; text-anchor:start; stroke:none; font-weight:normal; font-style:normal; text-align:right; " transform="" id="B.letter.letterline" y="273.897637795" x="-354.330708661">
B</text>
      </g>
      <line style="stroke-linejoin:miter; stroke:green; stroke-width:4; stroke-miterlimit:4; fill:none; " y2="1222.44094488" marker-end="url(#Arrow1Mend)" marker-start="url(#Arrow1Mstart)" transform="" x2="-142.235487856" y1="212.598425197" x1="-142.235487856" id="B.grainline" />
      <path style="stroke-linejoin:miter; stroke-dashoffset:0; stroke:green; stroke-miterlimit:4; stroke-dasharray:6,6; stroke-width:3; fill:none; " transform="" d="M -467.420717536  1410.22698347 L -383.761673202  637.795275591 L -300.102628868  1410.22698347 M -561.737868518  -99.7936528683 L -408.90625351  155.133448032 L -524.771526596  -118.582769632 " id="B.dartline" />
      <path style="stroke-linejoin:miter; stroke-dashoffset:0; stroke:green; stroke-dasharray:24,6; stroke-miterlimit:4; stroke-width:4; fill:none; " transform="" d="M 0.0  0.0 L 0.0  1346.45669291 C -101.065792802  1346.45669291  -233.704316826  1346.45669291  -306.159425266  1354.30402112 L -383.761673202  1369.2401569 L -461.363921138  1354.30402112 C -538.074281339  1345.99582331  -739.129368008  1344.80113724  -875.998808024  1343.98784763 L -949.398107518  743.309668882 C -838.62343338  729.773662796  -639.579570369  705.451687019  -611.220472441  637.795275591 C -533.679798926  452.806185913  -673.120157064  121.790863154  -708.661417323  37.8293872947 L -532.814828916  -51.5492720537 L -517.829556513  -59.165931379 L -502.844284109  -66.7825907043 L -284.470975712  -141.732283465 C -252.688753608  -78.3927191927  -213.353231784  0.0  0.0  0.0 " id="B.seamline" />
      <path style="fill:none;stroke:#008000;stroke-width:4;stroke-linejoin:miter;stroke-miterlimit:4" d="M -302.71875,-194.9375 C -377.02939,-169.33762 -451.4857,-144.08557 -525.70534,-118.26838 -610.75152,-75.07373 -695.85109,-31.792352 -780.90625,11.46875 -749.13317,85.474008 -718.15181,159.91946 -694.08598,236.86982 -668.44871,319.00671 -647.62896,403.6347 -644.5625,490 -643.51084,532.4441 -646.73311,575.96328 -662.875,615.4375 -675.69079,628.14892 -693.56694,634.30271 -710.09375,640.8125 -769.70107,661.42537 -832.32683,670.7948 -894.52215,679.63463 -933.68402,684.8999 -972.84426,689.42519 -1012.0625,694.34375 -983.33289,929.5533 -954.56862,1164.7586 -925.84375,1399.9688 -792.21502,1400.9914 -658.45183,1400.6253 -525.00617,1406.2482 -498.70301,1407.6637 -472.20494,1408.2221 -446.43296,1414.4756 -425.2109,1418.3008 -403.99453,1423.1707 -382.76779,1426.3435 -352.74627,1420.9158 -322.82398,1414.1708 -292.75465,1409.4974 -211.86298,1402.719 -130.52745,1403.274 -49.312512,1402.7345 -14.125032,1402.6988 21.062499,1402.7285 56.25,1402.7188 56.25,916.39583 56.25,430.07292 56.25,-56.25 -8.2028894,-56.354282 -74.213712,-53.53629 -136.34375,-73.46875 -166.34681,-82.915222 -194.66624,-100.53616 -212.09375,-127.3125 -229.28847,-153.74651 -241.59842,-182.99175 -256.28125,-210.875 -271.76042,-205.5625 -287.23958,-200.25 -302.71875,-194.9375 z" id="B.cuttingline" inkscape:connector-curvature="0" />
      <g id="B.info" transform="">
        <text style="font-size:12; vertical-align:top; fill-opacity:1.0; fill:#000000; text-anchor:start; stroke:none; font-weight:normal; font-style:normal; text-align:right; " transform="" id="B.info.lineNext Patterns" y="318.897637795" x="-354.330708661">
Next Patterns</text>
        <text style="font-size:12; vertical-align:top; fill-opacity:1.0; fill:#000000; text-anchor:start; stroke:none; font-weight:normal; font-style:normal; text-align:right; " transform="" id="B.info.lineDesigner:S.L.Spencer" y="333.297637795" x="-354.330708661">
Designer:S.L.Spencer</text>
        <text style="font-size:12; vertical-align:top; fill-opacity:1.0; fill:#000000; text-anchor:start; stroke:none; font-weight:normal; font-style:normal; text-align:right; " transform="" id="B.info.lineClient:DressFormLg" y="347.697637795" x="-354.330708661">
Client:DressFormLg</text>
        <text style="font-size:12; vertical-align:top; fill-opacity:1.0; fill:#000000; text-anchor:start; stroke:none; font-weight:normal; font-style:normal; text-align:right; " transform="" id="B.info.lineMR_B1" y="362.097637795" x="-354.330708661">
MR_B1</text>
        <text style="font-size:12; vertical-align:top; fill-opacity:1.0; fill:#000000; text-anchor:start; stroke:none; font-weight:normal; font-style:normal; text-align:right; " transform="" id="B.info.linePattern Piece B" y="376.497637795" x="-354.330708661">
Pattern Piece B</text>
        <text style="font-size:12; vertical-align:top; fill-opacity:1.0; fill:#000000; text-anchor:start; stroke:none; font-weight:normal; font-style:normal; text-align:right; " transform="" id="B.info.lineCut 2 Fabric" y="390.897637795" x="-354.330708661">
Cut 2 Fabric</text>
      </g>
    </g>
    <g id="document.bodice.Bodice Sleeve.pattern" transform=" translate(950.952052, 2240.279676)">
      <line style="stroke-linejoin:miter; stroke:green; stroke-width:4; stroke-miterlimit:4; fill:none; " y2="2090.5511811" marker-end="url(#Arrow1Mend)" marker-start="url(#Arrow1Mstart)" transform="" x2="0.0" y1="644.112391305" x1="0.0" id="C.grainline" />
      <g id="C.letter" transform="matrix(15.000000, 0, 0, 15.000000, -3876.970359, -15072.235227)">
        <text style="font-size:24; vertical-align:top; fill-opacity:1.0; fill:#000000; text-anchor:start; stroke:none; font-weight:normal; font-style:normal; text-align:right; " transform="" id="C.letter.letterline" y="1076.58823049" x="276.926454188">
C</text>
      </g>
      <path style="stroke-linejoin:miter; stroke-dashoffset:0; stroke:green; stroke-miterlimit:4; stroke-dasharray:6,6; stroke-width:3; fill:none; " transform="" d="M 737.655967253  1547.38164916 L 483.661417323  1509.06406967 L 717.254892857  1615.90767725 " id="C.dartline" />
      <path style="stroke-linejoin:miter; stroke-dashoffset:0; stroke:green; stroke-dasharray:24,6; stroke-miterlimit:4; stroke-width:4; fill:none; " transform="" d="M 948.452051524  644.112391305 C 867.28190604  593.719163689  785.700879214  543.070846757  711.339038643  483.084293478 C 561.483227247  362.197914856  436.205114071  210.572280468  276.926454188  102.403018421 C 195.508819726  47.1107059169  97.4336605598  0.0  0.0  0.0 C -94.5855238199  0.0  -203.416444329  88.2494239427  -257.019733535  131.715558123 C -405.072566899  251.769465564  -536.742329396  397.761375425  -691.432317989  512.396833181 C -768.777312286  569.714562059  -859.507283762  607.283075886  -948.452051524  644.112391305 C -772.581867799  907.693105042  -580.235347652  1195.96728542  -531.496062992  1509.06406967 L -396.245841829  2377.89933492 C -143.046282411  2338.48415718  126.216392742  2372.86311411  368.489582017  2456.33331769 L 666.101758795  1592.51068223 L 681.741845769  1568.03514489 L 682.035333013  1538.99072866 L 948.452051524  644.112391305 " id="C.seamline" />
      <path style="fill:none;stroke:#008000;stroke-width:4;stroke-linejoin:miter;stroke-miterlimit:4" d="M -3,-56.21875 C -64.708626,-55.031618 -122.70145,-28.800345 -174.74181,2.4738267 -238.57391,41.547761 -295.95277,90.030682 -352.55166,138.7214 -480.47869,250.01736 -597.44668,374.49749 -735.03125,474.53125 -819.04441,533.40234 -915.86286,569.02173 -1009.7381,608.69108 -1017.5545,611.93989 -1025.371,615.18869 -1033.1875,618.4375 -915.51115,795.53424 -793.80748,971.31096 -702.125,1163.7812 -646.09275,1281.6287 -602.38833,1406.0476 -584.29418,1535.5983 -537.26869,1837.7218 -490.2461,2139.8456 -443.21875,2441.9688 -383.12436,2432.4823 -322.87353,2423.2332 -262.0387,2420.1959 -45.289051,2407.8909 172.51892,2445.461 376.55262,2518.6612 385.483,2521.7533 394.41337,2524.8454 403.34375,2527.9375 507.90813,2224.3268 612.51335,1920.7302 717.09375,1617.125 723.82058,1605.9412 731.99786,1595.1906 737.8534,1583.75 738.52155,1570.7282 737.01992,1557.3766 739.0747,1544.5622 830.91386,1236.0517 922.7573,927.54253 1014.5938,619.03125 910.48873,554.10112 804.32835,491.01029 711.54717,410.06971 585.3897,301.53349 473.95103,175.39101 338.65972,77.09974 261.737,21.058028 176.49652,-26.83477 82.731698,-47.199387 54.570233,-53.204535 25.754523,-56.509887 -3,-56.21875 z" id="C.cuttingline" inkscape:connector-curvature="0" />
      <g id="C.info" transform="">
        <text style="font-size:12; vertical-align:top; fill-opacity:1.0; fill:#000000; text-anchor:start; stroke:none; font-weight:normal; font-style:normal; text-align:right; " transform="" id="C.info.lineNext Patterns" y="1147.45437222" x="276.926454188">
Next Patterns</text>
        <text style="font-size:12; vertical-align:top; fill-opacity:1.0; fill:#000000; text-anchor:start; stroke:none; font-weight:normal; font-style:normal; text-align:right; " transform="" id="C.info.lineDesigner:S.L.Spencer" y="1161.85437222" x="276.926454188">
Designer:S.L.Spencer</text>
        <text style="font-size:12; vertical-align:top; fill-opacity:1.0; fill:#000000; text-anchor:start; stroke:none; font-weight:normal; font-style:normal; text-align:right; " transform="" id="C.info.lineClient:DressFormLg" y="1176.25437222" x="276.926454188">
Client:DressFormLg</text>
        <text style="font-size:12; vertical-align:top; fill-opacity:1.0; fill:#000000; text-anchor:start; stroke:none; font-weight:normal; font-style:normal; text-align:right; " transform="" id="C.info.lineMR_B1" y="1190.65437222" x="276.926454188">
MR_B1</text>
        <text style="font-size:12; vertical-align:top; fill-opacity:1.0; fill:#000000; text-anchor:start; stroke:none; font-weight:normal; font-style:normal; text-align:right; " transform="" id="C.info.linePattern Piece C" y="1205.05437222" x="276.926454188">
Pattern Piece C</text>
        <text style="font-size:12; vertical-align:top; fill-opacity:1.0; fill:#000000; text-anchor:start; stroke:none; font-weight:normal; font-style:normal; text-align:right; " transform="" id="C.info.lineCut 2 Fabric" y="1219.45437222" x="276.926454188">
Cut 2 Fabric</text>
      </g>
    </g>
  </g>
  <g inkscape:label="Label-notes" id="notes" inkscape:groupmode="layer" transform="translate(88.582677,88.582677)">
    <g id="document.titleblock">
      <text style="font-size:40; vertical-align:top; fill-opacity:1.0; fill:#000000; text-anchor:right; stroke:none; font-weight:normal; font-style:normal; text-align:right; " transform="" id="company" y="0.0" x="0.0">
Next Patterns</text>
      <text style="font-size:40; vertical-align:top; fill-opacity:1.0; fill:#000000; text-anchor:right; stroke:none; font-weight:normal; font-style:normal; text-align:right; " transform="" id="designer" y="44.0" x="0.0">
S.L.Spencer</text>
      <text style="font-size:40; vertical-align:top; fill-opacity:1.0; fill:#000000; text-anchor:right; stroke:none; font-weight:normal; font-style:normal; text-align:right; " transform="" id="pattern_number" y="88.0" x="0.0">
MR_B1</text>
      <text style="font-size:40; vertical-align:top; fill-opacity:1.0; fill:#000000; text-anchor:right; stroke:none; font-weight:normal; font-style:normal; text-align:right; " transform="" id="pattern_name" y="132.0" x="0.0">
Spencer Bodice Short</text>
      <text style="font-size:40; vertical-align:top; fill-opacity:1.0; fill:#000000; text-anchor:right; stroke:none; font-weight:normal; font-style:normal; text-align:right; " transform="" id="client" y="176.0" x="0.0">
DressFormLg</text>
    </g>
    <g id="document.testgrid">
      <path style="stroke-linejoin:miter; stroke:green; stroke-width:4; stroke-miterlimit:4; fill:none; " d="M 1320.0  0.0 L 1320.0  212.598425197 M 1355.43307087  0.0 L 1355.43307087  212.598425197 M 1390.86614173  0.0 L 1390.86614173  212.598425197 M 1426.2992126  0.0 L 1426.2992126  212.598425197 M 1461.73228346  0.0 L 1461.73228346  212.598425197 M 1497.16535433  0.0 L 1497.16535433  212.598425197 M 1532.5984252  0.0 L 1532.5984252  212.598425197 M 1320.0  0.0 L 1532.5984252  0.0 M 1320.0  35.4330708661 L 1532.5984252  35.4330708661 M 1320.0  70.8661417323 L 1532.5984252  70.8661417323 M 1320.0  106.299212598 L 1532.5984252  106.299212598 M 1320.0  141.732283465 L 1532.5984252  141.732283465 M 1320.0  177.165354331 L 1532.5984252  177.165354331 M 1320.0  212.598425197 L 1532.5984252  212.598425197 M 1709.76377953  0.0 L 1709.76377953  270.0 M 1799.76377953  0.0 L 1799.76377953  270.0 M 1889.76377953  0.0 L 1889.76377953  270.0 M 1979.76377953  0.0 L 1979.76377953  270.0 M 1709.76377953  0.0 L 1979.76377953  0.0 M 1709.76377953  90.0 L 1979.76377953  90.0 M 1709.76377953  180.0 L 1979.76377953  180.0 M 1709.76377953  270.0 L 1979.76377953  270.0 " id="testgrid" />
    </g>
    <g id="document.bodice.Bodice Front.notes" transform=" translate(465.156254, 757.717638)" />
    <g id="document.bodice.Bodice Back.notes" transform=" translate(2786.162765, 580.552283)" />
    <g id="document.bodice.Bodice Sleeve.notes" transform=" translate(950.952052, 2240.279676)" />
  </g>
  <g inkscape:label="Label-reference" id="reference" inkscape:groupmode="layer" transform="translate(88.582677,88.582677)">
    <g id="document.bodice.Bodice Front.reference" transform=" translate(465.156254, 757.717638)">
      <circle style="stroke:gray; stroke-width:1; fill:none; " transform="" cy="0.0" cx="160.146981797" r="5" id="A.FNC.inpoint" d="M 165.14699,0 C 165.14699,2.7614237 162.90841,5 160.14699,5 157.38556,5 155.14699,2.7614237 155.14699,0 155.14699,-2.7614237 157.38556,-5 160.14699,-5 162.90841,-5 165.14699,-2.7614237 165.14699,0 z" />
      <text style="font-size:25; vertical-align:top; fill-opacity:1.0; fill:gray; text-anchor:right; stroke:none; font-weight:normal; font-style:italic; text-align:right; " transform="" id="A.FNC.inpoint.text" y="-7.0" x="167.146981797">
FNC.in</text>
      <circle style="stroke:red; stroke-width:1; fill:red; " transform="" cy="0.0" cx="0.0" r="5" id="A.FNC" d="M 5,0 C 5,2.7614237 2.7614237,5 0,5 -2.7614237,5 -5,2.7614237 -5,0 -5,-2.7614237 -2.7614237,-5 0,-5 2.7614237,-5 5,-2.7614237 5,0 z" />
      <text style="font-size:30; vertical-align:top; fill-opacity:1.0; fill:darkblue; text-anchor:right; stroke:none; font-weight:normal; font-style:italic; text-align:right; " transform="" id="A.FNC.text" y="-7.0" x="7.0">
FNC</text>
      <circle style="stroke:gray; stroke-width:1; fill:none; " transform="" cy="1240.15748031" cx="88.6462178188" r="5" id="A.FWC.outpoint" d="M 93.646217,1240.1575 C 93.646217,1242.9189 91.407641,1245.1575 88.646217,1245.1575 85.884794,1245.1575 83.646217,1242.9189 83.646217,1240.1575 83.646217,1237.396 85.884794,1235.1575 88.646217,1235.1575 91.407641,1235.1575 93.646217,1237.396 93.646217,1240.1575 z" />
      <text style="font-size:25; vertical-align:top; fill-opacity:1.0; fill:gray; text-anchor:right; stroke:none; font-weight:normal; font-style:italic; text-align:right; " transform="" id="A.FWC.outpoint.text" y="1233.15748031" x="95.6462178188">
FWC.out</text>
      <circle style="stroke:red; stroke-width:1; fill:red; " transform="" cy="1240.15748031" cx="0.0" r="5" id="A.FWC" d="M 5,1240.1575 C 5,1242.9189 2.7614237,1245.1575 0,1245.1575 -2.7614237,1245.1575 -5,1242.9189 -5,1240.1575 -5,1237.396 -2.7614237,1235.1575 0,1235.1575 2.7614237,1235.1575 5,1237.396 5,1240.1575 z" />
      <text style="font-size:30; vertical-align:top; fill-opacity:1.0; fill:darkblue; text-anchor:right; stroke:none; font-weight:normal; font-style:italic; text-align:right; " transform="" id="A.FWC.text" y="1233.15748031" x="7.0">
FWC</text>
      <circle style="stroke:red; stroke-width:1; fill:red; " transform="" cy="-318.897637795" cx="0.0" r="5" id="A.FSH" d="M 5,-318.89764 C 5,-316.13622 2.7614237,-313.89764 0,-313.89764 -2.7614237,-313.89764 -5,-316.13622 -5,-318.89764 -5,-321.65907 -2.7614237,-323.89764 0,-323.89764 2.7614237,-323.89764 5,-321.65907 5,-318.89764 z" />
      <text style="font-size:30; vertical-align:top; fill-opacity:1.0; fill:darkblue; text-anchor:right; stroke:none; font-weight:normal; font-style:italic; text-align:right; " transform="" id="A.FSH.text" y="-325.897637795" x="7.0">
FSH</text>
      <circle style="stroke:red; stroke-width:1; fill:red; " transform="" cy="-318.897637795" cx="717.519685039" r="5" id="A.FSW" d="M 722.51971,-318.89764 C 722.51971,-316.13622 720.28114,-313.89764 717.51971,-313.89764 714.75829,-313.89764 712.51971,-316.13622 712.51971,-318.89764 712.51971,-321.65907 714.75829,-323.89764 717.51971,-323.89764 720.28114,-323.89764 722.51971,-321.65907 722.51971,-318.89764 z" />
      <text style="font-size:30; vertical-align:top; fill-opacity:1.0; fill:darkblue; text-anchor:right; stroke:none; font-weight:normal; font-style:italic; text-align:right; " transform="" id="A.FSW.text" y="-325.897637795" x="724.519685039">
FSW</text>
      <circle style="stroke:gray; stroke-width:1; fill:none; " transform="" cy="-143.504287858" cx="700.589615123" r="5" id="A.FSP.inpoint" d="M 705.5896,-143.50429 C 705.5896,-140.74286 703.35102,-138.50429 700.5896,-138.50429 697.82818,-138.50429 695.5896,-140.74286 695.5896,-143.50429 695.5896,-146.26571 697.82818,-148.50429 700.5896,-148.50429 703.35102,-148.50429 705.5896,-146.26571 705.5896,-143.50429 z" />
      <text style="font-size:25; vertical-align:top; fill-opacity:1.0; fill:gray; text-anchor:right; stroke:none; font-weight:normal; font-style:italic; text-align:right; " transform="" id="A.FSP.inpoint.text" y="-150.504287858" x="707.589615123">
FSP.in</text>
      <circle style="stroke:red; stroke-width:1; fill:red; " transform="" cy="-223.334513127" cx="717.519685039" r="5" id="A.FSP" d="M 722.51971,-223.33452 C 722.51971,-220.57309 720.28114,-218.33452 717.51971,-218.33452 714.75829,-218.33452 712.51971,-220.57309 712.51971,-223.33452 712.51971,-226.09594 714.75829,-228.33452 717.51971,-228.33452 720.28114,-228.33452 722.51971,-226.09594 722.51971,-223.33452 z" />
      <text style="font-size:30; vertical-align:top; fill-opacity:1.0; fill:darkblue; text-anchor:right; stroke:none; font-weight:normal; font-style:italic; text-align:right; " transform="" id="A.FSP.text" y="-230.334513127" x="724.519685039">
FSP</text>
      <circle style="stroke:gray; stroke-width:1; fill:none; " transform="" cy="-162.917928626" cx="233.832093174" r="5" id="A.FNS.outpoint" d="M 238.83209,-162.91792 C 238.83209,-160.1565 236.59352,-157.91792 233.83209,-157.91792 231.07067,-157.91792 228.83209,-160.1565 228.83209,-162.91792 228.83209,-165.67935 231.07067,-167.91792 233.83209,-167.91792 236.59352,-167.91792 238.83209,-165.67935 238.83209,-162.91792 z" />
      <text style="font-size:25; vertical-align:top; fill-opacity:1.0; fill:gray; text-anchor:right; stroke:none; font-weight:normal; font-style:italic; text-align:right; " transform="" id="A.FNS.outpoint.text" y="-169.917928626" x="240.832093174">
FNS.out</text>
      <circle style="stroke:red; stroke-width:1; fill:red; " transform="" cy="-318.897637795" cx="266.911636328" r="5" id="A.FNS" d="M 271.91162,-318.89764 C 271.91162,-316.13622 269.67304,-313.89764 266.91162,-313.89764 264.1502,-313.89764 261.91162,-316.13622 261.91162,-318.89764 261.91162,-321.65907 264.1502,-323.89764 266.91162,-323.89764 269.67304,-323.89764 271.91162,-321.65907 271.91162,-318.89764 z" />
      <text style="font-size:30; vertical-align:top; fill-opacity:1.0; fill:darkblue; text-anchor:right; stroke:none; font-weight:normal; font-style:italic; text-align:right; " transform="" id="A.FNS.text" y="-325.897637795" x="273.911636328">
FNS</text>
      <circle style="stroke:red; stroke-width:1; fill:red; " transform="" cy="318.897637795" cx="0.0" r="5" id="A.FUC" d="M 5,318.89764 C 5,321.65907 2.7614237,323.89764 0,323.89764 -2.7614237,323.89764 -5,321.65907 -5,318.89764 -5,316.13622 -2.7614237,313.89764 0,313.89764 2.7614237,313.89764 5,316.13622 5,318.89764 z" />
      <text style="font-size:30; vertical-align:top; fill-opacity:1.0; fill:darkblue; text-anchor:right; stroke:none; font-weight:normal; font-style:italic; text-align:right; " transform="" id="A.FUC.text" y="311.897637795" x="7.0">
FUC</text>
      <circle style="stroke:red; stroke-width:1; fill:red; " transform="" cy="637.795275591" cx="0.0" r="5" id="A.FBC" d="M 5,637.79529 C 5,640.55671 2.7614237,642.79529 0,642.79529 -2.7614237,642.79529 -5,640.55671 -5,637.79529 -5,635.03386 -2.7614237,632.79529 0,632.79529 2.7614237,632.79529 5,635.03386 5,637.79529 z" />
      <text style="font-size:30; vertical-align:top; fill-opacity:1.0; fill:darkblue; text-anchor:right; stroke:none; font-weight:normal; font-style:italic; text-align:right; " transform="" id="A.FBC.text" y="630.795275591" x="7.0">
FBC</text>
      <circle style="stroke:red; stroke-width:1; fill:red; " transform="" cy="637.795275591" cx="354.330708661" r="5" id="A.FBP" d="M 359.33072,637.79529 C 359.33072,640.55671 357.09214,642.79529 354.33072,642.79529 351.5693,642.79529 349.33072,640.55671 349.33072,637.79529 349.33072,635.03386 351.5693,632.79529 354.33072,632.79529 357.09214,632.79529 359.33072,635.03386 359.33072,637.79529 z" />
      <text style="font-size:30; vertical-align:top; fill-opacity:1.0; fill:darkblue; text-anchor:right; stroke:none; font-weight:normal; font-style:italic; text-align:right; " transform="" id="A.FBP.text" y="630.795275591" x="361.330708661">
FBP</text>
      <circle style="stroke:gray; stroke-width:1; fill:none; " transform="" cy="419.980601749" cx="737.624711459" r="5" id="A.FAP.inpoint" d="M 742.62469,419.98059 C 742.62469,422.74201 740.38612,424.98059 737.62469,424.98059 734.86327,424.98059 732.62469,422.74201 732.62469,419.98059 732.62469,417.21917 734.86327,414.98059 737.62469,414.98059 740.38612,414.98059 742.62469,417.21917 742.62469,419.98059 z" />
      <text style="font-size:25; vertical-align:top; fill-opacity:1.0; fill:gray; text-anchor:right; stroke:none; font-weight:normal; font-style:italic; text-align:right; " transform="" id="A.FAP.inpoint.text" y="412.980601749" x="744.624711459">
FAP.in</text>
      <circle style="stroke:gray; stroke-width:1; fill:none; " transform="" cy="167.481010918" cx="576.766193088" r="5" id="A.FAP.outpoint" d="M 581.76617,167.48102 C 581.76617,170.24244 579.5276,172.48102 576.76617,172.48102 574.00475,172.48102 571.76617,170.24244 571.76617,167.48102 571.76617,164.71959 574.00475,162.48102 576.76617,162.48102 579.5276,162.48102 581.76617,164.71959 581.76617,167.48102 z" />
      <text style="font-size:25; vertical-align:top; fill-opacity:1.0; fill:gray; text-anchor:right; stroke:none; font-weight:normal; font-style:italic; text-align:right; " transform="" id="A.FAP.outpoint.text" y="160.481010918" x="583.766193088">
FAP.out</text>
      <circle style="stroke:red; stroke-width:1; fill:red; " transform="" cy="318.897637795" cx="673.228346457" r="5" id="A.FAP" d="M 678.22833,318.89764 C 678.22833,321.65907 675.98976,323.89764 673.22833,323.89764 670.46691,323.89764 668.22833,321.65907 668.22833,318.89764 668.22833,316.13622 670.46691,313.89764 673.22833,313.89764 675.98976,313.89764 678.22833,316.13622 678.22833,318.89764 z" />
      <text style="font-size:30; vertical-align:top; fill-opacity:1.0; fill:darkblue; text-anchor:right; stroke:none; font-weight:normal; font-style:italic; text-align:right; " transform="" id="A.FAP.text" y="311.897637795" x="680.228346457">
FAP</text>
      <circle style="stroke:red; stroke-width:1; fill:red; " transform="" cy="318.897637795" cx="921.25984252" r="5" id="A.f1" d="M 926.25983,318.89764 C 926.25983,321.65907 924.02125,323.89764 921.25983,323.89764 918.4984,323.89764 916.25983,321.65907 916.25983,318.89764 916.25983,316.13622 918.4984,313.89764 921.25983,313.89764 924.02125,313.89764 926.25983,316.13622 926.25983,318.89764 z" />
      <text style="font-size:30; vertical-align:top; fill-opacity:1.0; fill:darkblue; text-anchor:right; stroke:none; font-weight:normal; font-style:italic; text-align:right; " transform="" id="A.f1.text" y="311.897637795" x="928.25984252">
f1</text>
      <circle style="stroke:red; stroke-width:1; fill:red; " transform="" cy="440.379318512" cx="960.803917844" r="5" id="A.f2" d="M 965.80389,440.37933 C 965.80389,443.14076 963.56532,445.37933 960.80389,445.37933 958.04247,445.37933 955.80389,443.14076 955.80389,440.37933 955.80389,437.61791 958.04247,435.37933 960.80389,435.37933 963.56532,435.37933 965.80389,437.61791 965.80389,440.37933 z" />
      <text style="font-size:30; vertical-align:top; fill-opacity:1.0; fill:darkblue; text-anchor:right; stroke:none; font-weight:normal; font-style:italic; text-align:right; " transform="" id="A.f2.text" y="433.379318512" x="967.803917844">
f2</text>
      <circle style="stroke:red; stroke-width:1; fill:red; " transform="" cy="992.756759109" cx="1140.61090594" r="5" id="A.f3" d="M 1145.611,992.75677 C 1145.611,995.5182 1143.3724,997.75677 1140.611,997.75677 1137.8495,997.75677 1135.611,995.5182 1135.611,992.75677 1135.611,989.99535 1137.8495,987.75677 1140.611,987.75677 1143.3724,987.75677 1145.611,989.99535 1145.611,992.75677 z" />
      <text style="font-size:30; vertical-align:top; fill-opacity:1.0; fill:darkblue; text-anchor:right; stroke:none; font-weight:normal; font-style:italic; text-align:right; " transform="" id="A.f3.text" y="985.756759109" x="1147.61090594">
f3</text>
      <circle style="stroke:red; stroke-width:1; fill:red; " transform="" cy="1240.15748031" cx="354.330708661" r="5" id="A.f4" d="M 359.33072,1240.1575 C 359.33072,1242.9189 357.09214,1245.1575 354.33072,1245.1575 351.5693,1245.1575 349.33072,1242.9189 349.33072,1240.1575 349.33072,1237.396 351.5693,1235.1575 354.33072,1235.1575 357.09214,1235.1575 359.33072,1237.396 359.33072,1240.1575 z" />
      <text style="font-size:30; vertical-align:top; fill-opacity:1.0; fill:darkblue; text-anchor:right; stroke:none; font-weight:normal; font-style:italic; text-align:right; " transform="" id="A.f4.text" y="1233.15748031" x="361.330708661">
f4</text>
      <circle style="stroke:red; stroke-width:1; fill:red; " transform="" cy="1150.61284812" cx="670.334447545" r="5" id="A.f5" d="M 675.33447,1150.6128 C 675.33447,1153.3742 673.0959,1155.6128 670.33447,1155.6128 667.57305,1155.6128 665.33447,1153.3742 665.33447,1150.6128 665.33447,1147.8514 667.57305,1145.6128 670.33447,1145.6128 673.0959,1145.6128 675.33447,1147.8514 675.33447,1150.6128 z" />
      <text style="font-size:30; vertical-align:top; fill-opacity:1.0; fill:darkblue; text-anchor:right; stroke:none; font-weight:normal; font-style:italic; text-align:right; " transform="" id="A.f5.text" y="1143.61284812" x="677.334447545">
f5</text>
      <circle style="stroke:red; stroke-width:1; fill:red; " transform="" cy="416.711338769" cx="1033.51331703" r="5" id="A.FBS" d="M 1038.5133,416.71133 C 1038.5133,419.47276 1036.2747,421.71133 1033.5133,421.71133 1030.7519,421.71133 1028.5133,419.47276 1028.5133,416.71133 1028.5133,413.94991 1030.7519,411.71133 1033.5133,411.71133 1036.2747,411.71133 1038.5133,413.94991 1038.5133,416.71133 z" />
      <text style="font-size:30; vertical-align:top; fill-opacity:1.0; fill:darkblue; text-anchor:right; stroke:none; font-weight:normal; font-style:italic; text-align:right; " transform="" id="A.FBS.text" y="409.711338769" x="1040.51331703">
FBS</text>
      <circle style="stroke:red; stroke-width:1; fill:red; " transform="" cy="977.505005481" cx="1187.46517297" r="5" id="A.f6" d="M 1192.4652,977.505 C 1192.4652,980.26643 1190.2266,982.505 1187.4652,982.505 1184.7038,982.505 1182.4652,980.26643 1182.4652,977.505 1182.4652,974.74358 1184.7038,972.505 1187.4652,972.505 1190.2266,972.505 1192.4652,974.74358 1192.4652,977.505 z" />
      <text style="font-size:30; vertical-align:top; fill-opacity:1.0; fill:darkblue; text-anchor:right; stroke:none; font-weight:normal; font-style:italic; text-align:right; " transform="" id="A.f6.text" y="970.505005481" x="1194.46517297">
f6</text>
      <circle style="stroke:red; stroke-width:1; fill:red; " transform="" cy="294.126913828" cx="999.860833333" r="5" id="A.f7" d="M 1004.8608,294.12692 C 1004.8608,296.88835 1002.6223,299.12692 999.86084,299.12692 997.09942,299.12692 994.86084,296.88835 994.86084,294.12692 994.86084,291.3655 997.09942,289.12692 999.86084,289.12692 1002.6223,289.12692 1004.8608,291.3655 1004.8608,294.12692 z" />
      <text style="font-size:30; vertical-align:top; fill-opacity:1.0; fill:darkblue; text-anchor:right; stroke:none; font-weight:normal; font-style:italic; text-align:right; " transform="" id="A.f7.text" y="287.126913828" x="1006.86083333">
f7</text>
      <circle style="stroke:gray; stroke-width:1; fill:none; " transform="" cy="441.600703108" cx="889.860034068" r="5" id="A.FUS.outpoint" d="M 894.86005,441.60071 C 894.86005,444.36213 892.62147,446.60071 889.86005,446.60071 887.09862,446.60071 884.86005,444.36213 884.86005,441.60071 884.86005,438.83928 887.09862,436.60071 889.86005,436.60071 892.62147,436.60071 894.86005,438.83928 894.86005,441.60071 z" />
      <text style="font-size:25; vertical-align:top; fill-opacity:1.0; fill:gray; text-anchor:right; stroke:none; font-weight:normal; font-style:italic; text-align:right; " transform="" id="A.FUS.outpoint.text" y="434.600703108" x="896.860034068">
FUS.out</text>
      <circle style="stroke:red; stroke-width:1; fill:red; " transform="" cy="396.633627576" cx="1028.00148428" r="5" id="A.FUS" d="M 1033.0015,396.63364 C 1033.0015,399.39506 1030.7629,401.63364 1028.0015,401.63364 1025.24,401.63364 1023.0015,399.39506 1023.0015,396.63364 1023.0015,393.87221 1025.24,391.63364 1028.0015,391.63364 1030.7629,391.63364 1033.0015,393.87221 1033.0015,396.63364 z" />
      <text style="font-size:30; vertical-align:top; fill-opacity:1.0; fill:darkblue; text-anchor:right; stroke:none; font-weight:normal; font-style:italic; text-align:right; " transform="" id="A.FUS.text" y="389.633627576" x="1035.00148428">
FUS</text>
      <circle style="stroke:gray; stroke-width:1; fill:none; " transform="" cy="1200.93493292" cx="856.887010583" r="5" id="A.FWS.inpoint" d="M 861.88702,1200.9349 C 861.88702,1203.6964 859.64845,1205.9349 856.88702,1205.9349 854.1256,1205.9349 851.88702,1203.6964 851.88702,1200.9349 851.88702,1198.1735 854.1256,1195.9349 856.88702,1195.9349 859.64845,1195.9349 861.88702,1198.1735 861.88702,1200.9349 z" />
      <text style="font-size:25; vertical-align:top; fill-opacity:1.0; fill:gray; text-anchor:right; stroke:none; font-weight:normal; font-style:italic; text-align:right; " transform="" id="A.FWS.inpoint.text" y="1193.93493292" x="863.887010583">
FWS.in</text>
      <circle style="stroke:red; stroke-width:1; fill:red; " transform="" cy="1191.7749495" cx="1063.28928086" r="5" id="A.FWS" d="M 1068.2893,1191.7749 C 1068.2893,1194.5363 1066.0507,1196.7749 1063.2893,1196.7749 1060.5279,1196.7749 1058.2893,1194.5363 1058.2893,1191.7749 1058.2893,1189.0135 1060.5279,1186.7749 1063.2893,1186.7749 1066.0507,1186.7749 1068.2893,1189.0135 1068.2893,1191.7749 z" />
      <text style="font-size:30; vertical-align:top; fill-opacity:1.0; fill:darkblue; text-anchor:right; stroke:none; font-weight:normal; font-style:italic; text-align:right; " transform="" id="A.FWS.text" y="1184.7749495" x="1070.28928086">
FWS</text>
      <circle style="stroke:red; stroke-width:1; fill:red; " transform="" cy="637.795275591" cx="443.115788594" r="5" id="A.FD2" d="M 448.11578,637.79529 C 448.11578,640.55671 445.87721,642.79529 443.11578,642.79529 440.35436,642.79529 438.11578,640.55671 438.11578,637.79529 438.11578,635.03386 440.35436,632.79529 443.11578,632.79529 445.87721,632.79529 448.11578,635.03386 448.11578,637.79529 z" />
      <text style="font-size:30; vertical-align:top; fill-opacity:1.0; fill:darkblue; text-anchor:right; stroke:none; font-weight:normal; font-style:italic; text-align:right; " transform="" id="A.FD2.text" y="630.795275591" x="450.115788594">
FD2</text>
      <circle style="stroke:red; stroke-width:1; fill:red; " transform="" cy="637.795275591" cx="1097.38978976" r="5" id="A.FD2.i" d="M 1102.3898,637.79529 C 1102.3898,640.55671 1100.1512,642.79529 1097.3898,642.79529 1094.6283,642.79529 1092.3898,640.55671 1092.3898,637.79529 1092.3898,635.03386 1094.6283,632.79529 1097.3898,632.79529 1100.1512,632.79529 1102.3898,635.03386 1102.3898,637.79529 z" />
      <text style="font-size:30; vertical-align:top; fill-opacity:1.0; fill:darkblue; text-anchor:right; stroke:none; font-weight:normal; font-style:italic; text-align:right; " transform="" id="A.FD2.i.text" y="630.795275591" x="1104.38978976">
FD2.i</text>
      <circle style="stroke:red; stroke-width:1; fill:red; " transform="" cy="839.315402822" cx="1065.58193781" r="5" id="A.FD2.o" d="M 1070.5819,839.31543 C 1070.5819,842.07685 1068.3433,844.31543 1065.5819,844.31543 1062.8205,844.31543 1060.5819,842.07685 1060.5819,839.31543 1060.5819,836.55401 1062.8205,834.31543 1065.5819,834.31543 1068.3433,834.31543 1070.5819,836.55401 1070.5819,839.31543 z" />
      <text style="font-size:30; vertical-align:top; fill-opacity:1.0; fill:darkblue; text-anchor:right; stroke:none; font-weight:normal; font-style:italic; text-align:right; " transform="" id="A.FD2.o.text" y="832.315402822" x="1072.58193781">
FD2.o</text>
      <circle style="stroke:red; stroke-width:1; fill:red; " transform="" cy="1240.15748031" cx="270.633997225" r="5" id="A.f8" d="M 275.634,1240.1575 C 275.634,1242.9189 273.39543,1245.1575 270.634,1245.1575 267.87258,1245.1575 265.634,1242.9189 265.634,1240.1575 265.634,1237.396 267.87258,1235.1575 270.634,1235.1575 273.39543,1235.1575 275.634,1237.396 275.634,1240.1575 z" />
      <text style="font-size:30; vertical-align:top; fill-opacity:1.0; fill:darkblue; text-anchor:right; stroke:none; font-weight:normal; font-style:italic; text-align:right; " transform="" id="A.f8.text" y="1233.15748031" x="277.633997225">
f8</text>
      <circle style="stroke:red; stroke-width:1; fill:red; " transform="" cy="1240.15748031" cx="438.027420098" r="5" id="A.f9" d="M 443.02744,1240.1575 C 443.02744,1242.9189 440.78886,1245.1575 438.02744,1245.1575 435.26601,1245.1575 433.02744,1242.9189 433.02744,1240.1575 433.02744,1237.396 435.26601,1235.1575 438.02744,1235.1575 440.78886,1235.1575 443.02744,1237.396 443.02744,1240.1575 z" />
      <text style="font-size:30; vertical-align:top; fill-opacity:1.0; fill:darkblue; text-anchor:right; stroke:none; font-weight:normal; font-style:italic; text-align:right; " transform="" id="A.f9.text" y="1233.15748031" x="445.027420098">
f9</text>
      <circle style="stroke:red; stroke-width:1; fill:red; " transform="" cy="710.078740157" cx="354.330708661" r="5" id="A.FD1" d="M 359.33072,710.07874 C 359.33072,712.84016 357.09214,715.07874 354.33072,715.07874 351.5693,715.07874 349.33072,712.84016 349.33072,710.07874 349.33072,707.31731 351.5693,705.07874 354.33072,705.07874 357.09214,705.07874 359.33072,707.31731 359.33072,710.07874 z" />
      <text style="font-size:30; vertical-align:top; fill-opacity:1.0; fill:darkblue; text-anchor:right; stroke:none; font-weight:normal; font-style:italic; text-align:right; " transform="" id="A.FD1.text" y="703.078740157" x="361.330708661">
FD1</text>
      <circle style="stroke:gray; stroke-width:1; fill:none; " transform="" cy="1240.15748031" cx="169.417059436" r="5" id="A.FD1.i.inpoint" d="M 174.41705,1240.1575 C 174.41705,1242.9189 172.17848,1245.1575 169.41705,1245.1575 166.65563,1245.1575 164.41705,1242.9189 164.41705,1240.1575 164.41705,1237.396 166.65563,1235.1575 169.41705,1235.1575 172.17848,1235.1575 174.41705,1237.396 174.41705,1240.1575 z" />
      <text style="font-size:25; vertical-align:top; fill-opacity:1.0; fill:gray; text-anchor:right; stroke:none; font-weight:normal; font-style:italic; text-align:right; " transform="" id="A.FD1.i.inpoint.text" y="1233.15748031" x="176.417059436">
FD1.i.in</text>
      <circle style="stroke:red; stroke-width:1; fill:red; " transform="" cy="1255.75037202" cx="268.171959685" r="5" id="A.FD1.i" d="M 273.17197,1255.7504 C 273.17197,1258.5118 270.93339,1260.7504 268.17197,1260.7504 265.41054,1260.7504 263.17197,1258.5118 263.17197,1255.7504 263.17197,1252.9889 265.41054,1250.7504 268.17197,1250.7504 270.93339,1250.7504 273.17197,1252.9889 273.17197,1255.7504 z" />
      <text style="font-size:30; vertical-align:top; fill-opacity:1.0; fill:darkblue; text-anchor:right; stroke:none; font-weight:normal; font-style:italic; text-align:right; " transform="" id="A.FD1.i.text" y="1248.75037202" x="275.171959685">
FD1.i</text>
      <circle style="stroke:gray; stroke-width:1; fill:none; " transform="" cy="1224.79823872" cx="636.519475316" r="5" id="A.FD1.o.outpoint" d="M 641.51947,1224.7982 C 641.51947,1227.5596 639.28089,1229.7982 636.51947,1229.7982 633.75805,1229.7982 631.51947,1227.5596 631.51947,1224.7982 631.51947,1222.0368 633.75805,1219.7982 636.51947,1219.7982 639.28089,1219.7982 641.51947,1222.0368 641.51947,1224.7982 z" />
      <text style="font-size:25; vertical-align:top; fill-opacity:1.0; fill:gray; text-anchor:right; stroke:none; font-weight:normal; font-style:italic; text-align:right; " transform="" id="A.FD1.o.outpoint.text" y="1217.79823872" x="643.519475316">
FD1.o.out</text>
      <circle style="stroke:red; stroke-width:1; fill:red; " transform="" cy="1255.75037202" cx="440.489457638" r="5" id="A.FD1.o" d="M 445.48947,1255.7504 C 445.48947,1258.5118 443.2509,1260.7504 440.48947,1260.7504 437.72805,1260.7504 435.48947,1258.5118 435.48947,1255.7504 435.48947,1252.9889 437.72805,1250.7504 440.48947,1250.7504 443.2509,1250.7504 445.48947,1252.9889 445.48947,1255.7504 z" />
      <text style="font-size:30; vertical-align:top; fill-opacity:1.0; fill:darkblue; text-anchor:right; stroke:none; font-weight:normal; font-style:italic; text-align:right; " transform="" id="A.FD1.o.text" y="1248.75037202" x="447.489457638">
FD1.o</text>
      <path style="stroke-linejoin:miter; stroke-dashoffset:0; stroke:gray; stroke-miterlimit:4; stroke-dasharray:6,6; stroke-width:2; fill:none; " transform="" d="M 0.0  1240.15748031 L 717.519685039  -223.334513127 L 717.519685039  -318.897637795 L 0.0  -318.897637795 L 0.0  0.0 M 0.0  637.795275591 L 354.330708661  637.795275591 L 1033.51331703  416.711338769 M 0.0  318.897637795 L 921.25984252  318.897637795 L 999.860833333  294.126913828 L 1187.46517297  977.505005481 L 1140.61090594  992.756759109 L 921.25984252  318.897637795 M 0.0  1240.15748031 L 354.330708661  1240.15748031 L 354.330708661  637.795275591 L 670.334447545  1150.61284812 L 1140.61090594  992.756759109 M 354.330708661  637.795275591 L -408.90625351  155.133448032 " id="A.gridline" />
    </g>
    <g id="document.bodice.Bodice Back.reference" transform=" translate(2786.162765, 580.552283)">
      <circle style="stroke:gray; stroke-width:1; fill:none; " transform="" cy="0.0" cx="-213.353231784" r="5" id="B.BNC.inpoint" d="M -208.35323,0 C -208.35323,2.7614237 -210.5918,5 -213.35323,5 -216.11465,5 -218.35323,2.7614237 -218.35323,0 -218.35323,-2.7614237 -216.11465,-5 -213.35323,-5 -210.5918,-5 -208.35323,-2.7614237 -208.35323,0 z" />
      <text style="font-size:25; vertical-align:top; fill-opacity:1.0; fill:gray; text-anchor:right; stroke:none; font-weight:normal; font-style:italic; text-align:right; " transform="" id="B.BNC.inpoint.text" y="-7.0" x="-206.353231784">
BNC.in</text>
      <circle style="stroke:red; stroke-width:1; fill:red; " transform="" cy="0.0" cx="0.0" r="5" id="B.BNC" d="M 5,0 C 5,2.7614237 2.7614237,5 0,5 -2.7614237,5 -5,2.7614237 -5,0 -5,-2.7614237 -2.7614237,-5 0,-5 2.7614237,-5 5,-2.7614237 5,0 z" />
      <text style="font-size:30; vertical-align:top; fill-opacity:1.0; fill:darkblue; text-anchor:right; stroke:none; font-weight:normal; font-style:italic; text-align:right; " transform="" id="B.BNC.text" y="-7.0" x="7.0">
BNC</text>
      <circle style="stroke:gray; stroke-width:1; fill:none; " transform="" cy="1346.45669291" cx="-101.065792802" r="5" id="B.BWC.outpoint" d="M -96.065796,1346.4567 C -96.065796,1349.2181 -98.304372,1351.4567 -101.0658,1351.4567 -103.82722,1351.4567 -106.0658,1349.2181 -106.0658,1346.4567 -106.0658,1343.6952 -103.82722,1341.4567 -101.0658,1341.4567 -98.304372,1341.4567 -96.065796,1343.6952 -96.065796,1346.4567 z" />
      <text style="font-size:25; vertical-align:top; fill-opacity:1.0; fill:gray; text-anchor:right; stroke:none; font-weight:normal; font-style:italic; text-align:right; " transform="" id="B.BWC.outpoint.text" y="1339.45669291" x="-94.0657928018">
BWC.out</text>
      <circle style="stroke:red; stroke-width:1; fill:red; " transform="" cy="1346.45669291" cx="0.0" r="5" id="B.BWC" d="M 5,1346.4567 C 5,1349.2181 2.7614237,1351.4567 0,1351.4567 -2.7614237,1351.4567 -5,1349.2181 -5,1346.4567 -5,1343.6952 -2.7614237,1341.4567 0,1341.4567 2.7614237,1341.4567 5,1343.6952 5,1346.4567 z" />
      <text style="font-size:30; vertical-align:top; fill-opacity:1.0; fill:darkblue; text-anchor:right; stroke:none; font-weight:normal; font-style:italic; text-align:right; " transform="" id="B.BWC.text" y="1339.45669291" x="7.0">
BWC</text>
      <circle style="stroke:red; stroke-width:1; fill:red; " transform="" cy="-141.732283465" cx="0.0" r="5" id="B.BSH" d="M 5,-141.73228 C 5,-138.97086 2.7614237,-136.73228 0,-136.73228 -2.7614237,-136.73228 -5,-138.97086 -5,-141.73228 -5,-144.49371 -2.7614237,-146.73228 0,-146.73228 2.7614237,-146.73228 5,-144.49371 5,-141.73228 z" />
      <text style="font-size:30; vertical-align:top; fill-opacity:1.0; fill:darkblue; text-anchor:right; stroke:none; font-weight:normal; font-style:italic; text-align:right; " transform="" id="B.BSH.text" y="-148.732283465" x="7.0">
BSH</text>
      <circle style="stroke:red; stroke-width:1; fill:red; " transform="" cy="-141.732283465" cx="-708.661417323" r="5" id="B.BSW" d="M -703.66144,-141.73228 C -703.66144,-138.97086 -705.90001,-136.73228 -708.66144,-136.73228 -711.42286,-136.73228 -713.66144,-138.97086 -713.66144,-141.73228 -713.66144,-144.49371 -711.42286,-146.73228 -708.66144,-146.73228 -705.90001,-146.73228 -703.66144,-144.49371 -703.66144,-141.73228 z" />
      <text style="font-size:30; vertical-align:top; fill-opacity:1.0; fill:darkblue; text-anchor:right; stroke:none; font-weight:normal; font-style:italic; text-align:right; " transform="" id="B.BSW.text" y="-148.732283465" x="-701.661417323">
BSW</text>
      <circle style="stroke:gray; stroke-width:1; fill:none; " transform="" cy="121.790863154" cx="-673.120157064" r="5" id="B.BSP.inpoint" d="M -668.12018,121.79086 C -668.12018,124.55229 -670.35875,126.79086 -673.12018,126.79086 -675.8816,126.79086 -678.12018,124.55229 -678.12018,121.79086 -678.12018,119.02944 -675.8816,116.79086 -673.12018,116.79086 -670.35875,116.79086 -668.12018,119.02944 -668.12018,121.79086 z" />
      <text style="font-size:25; vertical-align:top; fill-opacity:1.0; fill:gray; text-anchor:right; stroke:none; font-weight:normal; font-style:italic; text-align:right; " transform="" id="B.BSP.inpoint.text" y="114.790863154" x="-666.120157064">
BSP.in</text>
      <circle style="stroke:red; stroke-width:1; fill:red; " transform="" cy="37.8293872947" cx="-708.661417323" r="5" id="B.BSP" d="M -703.66144,37.829388 C -703.66144,40.590811 -705.90001,42.829388 -708.66144,42.829388 -711.42286,42.829388 -713.66144,40.590811 -713.66144,37.829388 -713.66144,35.067964 -711.42286,32.829388 -708.66144,32.829388 -705.90001,32.829388 -703.66144,35.067964 -703.66144,37.829388 z" />
      <text style="font-size:30; vertical-align:top; fill-opacity:1.0; fill:darkblue; text-anchor:right; stroke:none; font-weight:normal; font-style:italic; text-align:right; " transform="" id="B.BSP.text" y="30.8293872947" x="-701.661417323">
BSP</text>
      <circle style="stroke:gray; stroke-width:1; fill:none; " transform="" cy="-78.3927191927" cx="-252.688753608" r="5" id="B.BNS.outpoint" d="M -247.68875,-78.392715 C -247.68875,-75.631292 -249.92733,-73.392715 -252.68875,-73.392715 -255.45017,-73.392715 -257.68875,-75.631292 -257.68875,-78.392715 -257.68875,-81.154139 -255.45017,-83.392715 -252.68875,-83.392715 -249.92733,-83.392715 -247.68875,-81.154139 -247.68875,-78.392715 z" />
      <text style="font-size:25; vertical-align:top; fill-opacity:1.0; fill:gray; text-anchor:right; stroke:none; font-weight:normal; font-style:italic; text-align:right; " transform="" id="B.BNS.outpoint.text" y="-85.3927191927" x="-245.688753608">
BNS.out</text>
      <circle style="stroke:red; stroke-width:1; fill:red; " transform="" cy="-141.732283465" cx="-284.470975712" r="5" id="B.BNS" d="M -279.47098,-141.73228 C -279.47098,-138.97086 -281.70955,-136.73228 -284.47098,-136.73228 -287.2324,-136.73228 -289.47098,-138.97086 -289.47098,-141.73228 -289.47098,-144.49371 -287.2324,-146.73228 -284.47098,-146.73228 -281.70955,-146.73228 -279.47098,-144.49371 -279.47098,-141.73228 z" />
      <text style="font-size:30; vertical-align:top; fill-opacity:1.0; fill:darkblue; text-anchor:right; stroke:none; font-weight:normal; font-style:italic; text-align:right; " transform="" id="B.BNS.text" y="-148.732283465" x="-277.470975712">
BNS</text>
      <circle style="stroke:red; stroke-width:1; fill:red; " transform="" cy="637.795275591" cx="0.0" r="5" id="B.BUC" d="M 5,637.79529 C 5,640.55671 2.7614237,642.79529 0,642.79529 -2.7614237,642.79529 -5,640.55671 -5,637.79529 -5,635.03386 -2.7614237,632.79529 0,632.79529 2.7614237,632.79529 5,635.03386 5,637.79529 z" />
      <text style="font-size:30; vertical-align:top; fill-opacity:1.0; fill:darkblue; text-anchor:right; stroke:none; font-weight:normal; font-style:italic; text-align:right; " transform="" id="B.BUC.text" y="630.795275591" x="7.0">
BUC</text>
      <circle style="stroke:gray; stroke-width:1; fill:none; " transform="" cy="705.451687019" cx="-639.579570369" r="5" id="B.BAP.inpoint" d="M -634.57959,705.45166 C -634.57959,708.21308 -636.81817,710.45166 -639.57959,710.45166 -642.34101,710.45166 -644.57959,708.21308 -644.57959,705.45166 -644.57959,702.69024 -642.34101,700.45166 -639.57959,700.45166 -636.81817,700.45166 -634.57959,702.69024 -634.57959,705.45166 z" />
      <text style="font-size:25; vertical-align:top; fill-opacity:1.0; fill:gray; text-anchor:right; stroke:none; font-weight:normal; font-style:italic; text-align:right; " transform="" id="B.BAP.inpoint.text" y="698.451687019" x="-632.579570369">
BAP.in</text>
      <circle style="stroke:gray; stroke-width:1; fill:none; " transform="" cy="452.806185913" cx="-533.679798926" r="5" id="B.BAP.outpoint" d="M -528.67981,452.80618 C -528.67981,455.56761 -530.91839,457.80618 -533.67981,457.80618 -536.44123,457.80618 -538.67981,455.56761 -538.67981,452.80618 -538.67981,450.04476 -536.44123,447.80618 -533.67981,447.80618 -530.91839,447.80618 -528.67981,450.04476 -528.67981,452.80618 z" />
      <text style="font-size:25; vertical-align:top; fill-opacity:1.0; fill:gray; text-anchor:right; stroke:none; font-weight:normal; font-style:italic; text-align:right; " transform="" id="B.BAP.outpoint.text" y="445.806185913" x="-526.679798926">
BAP.out</text>
      <circle style="stroke:red; stroke-width:1; fill:red; " transform="" cy="637.795275591" cx="-611.220472441" r="5" id="B.BAP" d="M -606.22046,637.79529 C -606.22046,640.55671 -608.45904,642.79529 -611.22046,642.79529 -613.98188,642.79529 -616.22046,640.55671 -616.22046,637.79529 -616.22046,635.03386 -613.98188,632.79529 -611.22046,632.79529 -608.45904,632.79529 -606.22046,635.03386 -606.22046,637.79529 z" />
      <text style="font-size:30; vertical-align:top; fill-opacity:1.0; fill:darkblue; text-anchor:right; stroke:none; font-weight:normal; font-style:italic; text-align:right; " transform="" id="B.BAP.text" y="630.795275591" x="-604.220472441">
BAP</text>
      <circle style="stroke:red; stroke-width:1; fill:red; " transform="" cy="637.795275591" cx="-885.826771654" r="5" id="B.b1" d="M -880.82678,637.79529 C -880.82678,640.55671 -883.06536,642.79529 -885.82678,642.79529 -888.58821,642.79529 -890.82678,640.55671 -890.82678,637.79529 -890.82678,635.03386 -888.58821,632.79529 -885.82678,632.79529 -883.06536,632.79529 -880.82678,635.03386 -880.82678,637.79529 z" />
      <text style="font-size:30; vertical-align:top; fill-opacity:1.0; fill:darkblue; text-anchor:right; stroke:none; font-weight:normal; font-style:italic; text-align:right; " transform="" id="B.b1.text" y="630.795275591" x="-878.826771654">
b1</text>
      <circle style="stroke:red; stroke-width:1; fill:red; " transform="" cy="637.795275591" cx="-383.761673202" r="5" id="B.BD1" d="M -378.76169,637.79529 C -378.76169,640.55671 -381.00026,642.79529 -383.76169,642.79529 -386.52311,642.79529 -388.76169,640.55671 -388.76169,637.79529 -388.76169,635.03386 -386.52311,632.79529 -383.76169,632.79529 -381.00026,632.79529 -378.76169,635.03386 -378.76169,637.79529 z" />
      <text style="font-size:30; vertical-align:top; fill-opacity:1.0; fill:darkblue; text-anchor:right; stroke:none; font-weight:normal; font-style:italic; text-align:right; " transform="" id="B.BD1.text" y="630.795275591" x="-376.761673202">
BD1</text>
      <circle style="stroke:red; stroke-width:1; fill:red; " transform="" cy="1346.45669291" cx="-383.761673202" r="5" id="B.b2" d="M -378.76169,1346.4567 C -378.76169,1349.2181 -381.00026,1351.4567 -383.76169,1351.4567 -386.52311,1351.4567 -388.76169,1349.2181 -388.76169,1346.4567 -388.76169,1343.6952 -386.52311,1341.4567 -383.76169,1341.4567 -381.00026,1341.4567 -378.76169,1343.6952 -378.76169,1346.4567 z" />
      <text style="font-size:30; vertical-align:top; fill-opacity:1.0; fill:darkblue; text-anchor:right; stroke:none; font-weight:normal; font-style:italic; text-align:right; " transform="" id="B.b2.text" y="1339.45669291" x="-376.761673202">
b2</text>
      <circle style="stroke:red; stroke-width:1; fill:red; " transform="" cy="1346.45669291" cx="-307.009338562" r="5" id="B.b3" d="M -302.00934,1346.4567 C -302.00934,1349.2181 -304.24791,1351.4567 -307.00934,1351.4567 -309.77076,1351.4567 -312.00934,1349.2181 -312.00934,1346.4567 -312.00934,1343.6952 -309.77076,1341.4567 -307.00934,1341.4567 -304.24791,1341.4567 -302.00934,1343.6952 -302.00934,1346.4567 z" />
      <text style="font-size:30; vertical-align:top; fill-opacity:1.0; fill:darkblue; text-anchor:right; stroke:none; font-weight:normal; font-style:italic; text-align:right; " transform="" id="B.b3.text" y="1339.45669291" x="-300.009338562">
b3</text>
      <circle style="stroke:red; stroke-width:1; fill:red; " transform="" cy="1346.45669291" cx="-460.514007842" r="5" id="B.b4" d="M -455.51401,1346.4567 C -455.51401,1349.2181 -457.75258,1351.4567 -460.51401,1351.4567 -463.27543,1351.4567 -465.51401,1349.2181 -465.51401,1346.4567 -465.51401,1343.6952 -463.27543,1341.4567 -460.51401,1341.4567 -457.75258,1341.4567 -455.51401,1343.6952 -455.51401,1346.4567 z" />
      <text style="font-size:30; vertical-align:top; fill-opacity:1.0; fill:darkblue; text-anchor:right; stroke:none; font-weight:normal; font-style:italic; text-align:right; " transform="" id="B.b4.text" y="1339.45669291" x="-453.514007842">
b4</text>
      <circle style="stroke:gray; stroke-width:1; fill:none; " transform="" cy="1346.45669291" cx="-233.704316826" r="5" id="B.BD1.i.inpoint" d="M -228.70432,1346.4567 C -228.70432,1349.2181 -230.94289,1351.4567 -233.70432,1351.4567 -236.46574,1351.4567 -238.70432,1349.2181 -238.70432,1346.4567 -238.70432,1343.6952 -236.46574,1341.4567 -233.70432,1341.4567 -230.94289,1341.4567 -228.70432,1343.6952 -228.70432,1346.4567 z" />
      <text style="font-size:25; vertical-align:top; fill-opacity:1.0; fill:gray; text-anchor:right; stroke:none; font-weight:normal; font-style:italic; text-align:right; " transform="" id="B.BD1.i.inpoint.text" y="1339.45669291" x="-226.704316826">
BD1.i.in</text>
      <circle style="stroke:red; stroke-width:1; fill:red; " transform="" cy="1354.30402112" cx="-306.159425266" r="5" id="B.BD1.i" d="M -301.15942,1354.3041 C -301.15942,1357.0655 -303.398,1359.3041 -306.15942,1359.3041 -308.92085,1359.3041 -311.15942,1357.0655 -311.15942,1354.3041 -311.15942,1351.5427 -308.92085,1349.3041 -306.15942,1349.3041 -303.398,1349.3041 -301.15942,1351.5427 -301.15942,1354.3041 z" />
      <text style="font-size:30; vertical-align:top; fill-opacity:1.0; fill:darkblue; text-anchor:right; stroke:none; font-weight:normal; font-style:italic; text-align:right; " transform="" id="B.BD1.i.text" y="1347.30402112" x="-299.159425266">
BD1.i</text>
      <circle style="stroke:gray; stroke-width:1; fill:none; " transform="" cy="1345.99582331" cx="-538.074281339" r="5" id="B.BD1.o.outpoint" d="M -533.07428,1345.9958 C -533.07428,1348.7573 -535.31286,1350.9958 -538.07428,1350.9958 -540.8357,1350.9958 -543.07428,1348.7573 -543.07428,1345.9958 -543.07428,1343.2344 -540.8357,1340.9958 -538.07428,1340.9958 -535.31286,1340.9958 -533.07428,1343.2344 -533.07428,1345.9958 z" />
      <text style="font-size:25; vertical-align:top; fill-opacity:1.0; fill:gray; text-anchor:right; stroke:none; font-weight:normal; font-style:italic; text-align:right; " transform="" id="B.BD1.o.outpoint.text" y="1338.99582331" x="-531.074281339">
BD1.o.out</text>
      <circle style="stroke:red; stroke-width:1; fill:red; " transform="" cy="1354.30402112" cx="-461.363921138" r="5" id="B.BD1.o" d="M -456.36392,1354.3041 C -456.36392,1357.0655 -458.6025,1359.3041 -461.36392,1359.3041 -464.12535,1359.3041 -466.36392,1357.0655 -466.36392,1354.3041 -466.36392,1351.5427 -464.12535,1349.3041 -461.36392,1349.3041 -458.6025,1349.3041 -456.36392,1351.5427 -456.36392,1354.3041 z" />
      <text style="font-size:30; vertical-align:top; fill-opacity:1.0; fill:darkblue; text-anchor:right; stroke:none; font-weight:normal; font-style:italic; text-align:right; " transform="" id="B.BD1.o.text" y="1347.30402112" x="-454.363921138">
BD1.o</text>
      <circle style="stroke:red; stroke-width:1; fill:red; " transform="" cy="1343.98784763" cx="-826.724693851" r="5" id="B.b5" d="M -821.72467,1343.9878 C -821.72467,1346.7492 -823.96325,1348.9878 -826.72467,1348.9878 -829.48609,1348.9878 -831.72467,1346.7492 -831.72467,1343.9878 -831.72467,1341.2264 -829.48609,1338.9878 -826.72467,1338.9878 -823.96325,1338.9878 -821.72467,1341.2264 -821.72467,1343.9878 z" />
      <text style="font-size:30; vertical-align:top; fill-opacity:1.0; fill:darkblue; text-anchor:right; stroke:none; font-weight:normal; font-style:italic; text-align:right; " transform="" id="B.b5.text" y="1336.98784763" x="-819.724693851">
b5</text>
      <circle style="stroke:red; stroke-width:1; fill:red; " transform="" cy="637.795275591" cx="-962.291338583" r="5" id="B.b6" d="M -957.29132,637.79529 C -957.29132,640.55671 -959.5299,642.79529 -962.29132,642.79529 -965.05274,642.79529 -967.29132,640.55671 -967.29132,637.79529 -967.29132,635.03386 -965.05274,632.79529 -962.29132,632.79529 -959.5299,632.79529 -957.29132,635.03386 -957.29132,637.79529 z" />
      <text style="font-size:30; vertical-align:top; fill-opacity:1.0; fill:darkblue; text-anchor:right; stroke:none; font-weight:normal; font-style:italic; text-align:right; " transform="" id="B.b6.text" y="630.795275591" x="-955.291338583">
b6</text>
      <circle style="stroke:gray; stroke-width:1; fill:none; " transform="" cy="1344.80113724" cx="-739.129368008" r="5" id="B.BWS.inpoint" d="M -734.12939,1344.8011 C -734.12939,1347.5626 -736.36797,1349.8011 -739.12939,1349.8011 -741.89082,1349.8011 -744.12939,1347.5626 -744.12939,1344.8011 -744.12939,1342.0397 -741.89082,1339.8011 -739.12939,1339.8011 -736.36797,1339.8011 -734.12939,1342.0397 -734.12939,1344.8011 z" />
      <text style="font-size:25; vertical-align:top; fill-opacity:1.0; fill:gray; text-anchor:right; stroke:none; font-weight:normal; font-style:italic; text-align:right; " transform="" id="B.BWS.inpoint.text" y="1337.80113724" x="-732.129368008">
BWS.in</text>
      <circle style="stroke:red; stroke-width:1; fill:red; " transform="" cy="1343.98784763" cx="-875.998808024" r="5" id="B.BWS" d="M -870.99878,1343.9878 C -870.99878,1346.7492 -873.23736,1348.9878 -875.99878,1348.9878 -878.7602,1348.9878 -880.99878,1346.7492 -880.99878,1343.9878 -880.99878,1341.2264 -878.7602,1338.9878 -875.99878,1338.9878 -873.23736,1338.9878 -870.99878,1341.2264 -870.99878,1343.9878 z" />
      <text style="font-size:30; vertical-align:top; fill-opacity:1.0; fill:darkblue; text-anchor:right; stroke:none; font-weight:normal; font-style:italic; text-align:right; " transform="" id="B.BWS.text" y="1336.98784763" x="-868.998808024">
BWS</text>
      <circle style="stroke:gray; stroke-width:1; fill:none; " transform="" cy="729.773662796" cx="-838.62343338" r="5" id="B.BUS.outpoint" d="M -833.62341,729.77368 C -833.62341,732.53511 -835.86199,734.77368 -838.62341,734.77368 -841.38484,734.77368 -843.62341,732.53511 -843.62341,729.77368 -843.62341,727.01226 -841.38484,724.77368 -838.62341,724.77368 -835.86199,724.77368 -833.62341,727.01226 -833.62341,729.77368 z" />
      <text style="font-size:25; vertical-align:top; fill-opacity:1.0; fill:gray; text-anchor:right; stroke:none; font-weight:normal; font-style:italic; text-align:right; " transform="" id="B.BUS.outpoint.text" y="722.773662796" x="-831.62343338">
BUS.out</text>
      <circle style="stroke:red; stroke-width:1; fill:red; " transform="" cy="743.309668882" cx="-949.398107518" r="5" id="B.BUS" d="M -944.39813,743.30969 C -944.39813,746.07112 -946.63671,748.30969 -949.39813,748.30969 -952.15956,748.30969 -954.39813,746.07112 -954.39813,743.30969 -954.39813,740.54827 -952.15956,738.30969 -949.39813,738.30969 -946.63671,738.30969 -944.39813,740.54827 -944.39813,743.30969 z" />
      <text style="font-size:30; vertical-align:top; fill-opacity:1.0; fill:darkblue; text-anchor:right; stroke:none; font-weight:normal; font-style:italic; text-align:right; " transform="" id="B.BUS.text" y="736.309668882" x="-942.398107518">
BUS</text>
      <circle style="stroke:red; stroke-width:1; fill:red; " transform="" cy="155.133448032" cx="-408.90625351" r="5" id="B.BD2" d="M -403.90625,155.13345 C -403.90625,157.89488 -406.14483,160.13345 -408.90625,160.13345 -411.66767,160.13345 -413.90625,157.89488 -413.90625,155.13345 -413.90625,152.37203 -411.66767,150.13345 -408.90625,150.13345 -406.14483,150.13345 -403.90625,152.37203 -403.90625,155.13345 z" />
      <text style="font-size:30; vertical-align:top; fill-opacity:1.0; fill:darkblue; text-anchor:right; stroke:none; font-weight:normal; font-style:italic; text-align:right; " transform="" id="B.BD2.text" y="148.133448032" x="-401.90625351">
BD2</text>
      <circle style="stroke:red; stroke-width:1; fill:red; " transform="" cy="-66.7825907043" cx="-502.844284109" r="5" id="B.BD2.i" d="M -497.8443,-66.782593 C -497.8443,-64.021169 -500.08288,-61.782593 -502.8443,-61.782593 -505.60572,-61.782593 -507.8443,-64.021169 -507.8443,-66.782593 -507.8443,-69.544017 -505.60572,-71.782593 -502.8443,-71.782593 -500.08288,-71.782593 -497.8443,-69.544017 -497.8443,-66.782593 z" />
      <text style="font-size:30; vertical-align:top; fill-opacity:1.0; fill:darkblue; text-anchor:right; stroke:none; font-weight:normal; font-style:italic; text-align:right; " transform="" id="B.BD2.i.text" y="-73.7825907043" x="-495.844284109">
BD2.i</text>
      <circle style="stroke:red; stroke-width:1; fill:red; " transform="" cy="-51.5492720537" cx="-532.814828916" r="5" id="B.BD2.o" d="M -527.81482,-51.549271 C -527.81482,-48.787847 -530.0534,-46.549271 -532.81482,-46.549271 -535.57624,-46.549271 -537.81482,-48.787847 -537.81482,-51.549271 -537.81482,-54.310694 -535.57624,-56.549271 -532.81482,-56.549271 -530.0534,-56.549271 -527.81482,-54.310694 -527.81482,-51.549271 z" />
      <text style="font-size:30; vertical-align:top; fill-opacity:1.0; fill:darkblue; text-anchor:right; stroke:none; font-weight:normal; font-style:italic; text-align:right; " transform="" id="B.BD2.o.text" y="-58.5492720537" x="-525.814828916">
BD2.o</text>
      <path style="stroke-linejoin:miter; stroke-dashoffset:0; stroke:gray; stroke-miterlimit:4; stroke-dasharray:6,6; stroke-width:2; fill:none; " transform="" d="M 0.0  1346.45669291 L -708.661417323  37.8293872947 L -708.661417323  -141.732283465 L 0.0  -141.732283465 L 0.0  637.795275591 L -962.291338583  637.795275591 L -949.398107518  743.309668882 M -885.826771654  637.795275591 L -826.724693851  1343.98784763 L -875.998808024  1343.98784763 " id="B.gridline" />
    </g>
    <g id="document.bodice.Bodice Sleeve.reference" transform=" translate(950.952052, 2240.279676)">
      <circle style="stroke:gray; stroke-width:1; fill:none; " transform="" cy="0.0" cx="97.4336605598" r="5" id="C.SCM.inpoint" d="M 102.43366,0 C 102.43366,2.7614237 100.19509,5 97.433662,5 94.672239,5 92.433662,2.7614237 92.433662,0 92.433662,-2.7614237 94.672239,-5 97.433662,-5 100.19509,-5 102.43366,-2.7614237 102.43366,0 z" />
      <text style="font-size:25; vertical-align:top; fill-opacity:1.0; fill:gray; text-anchor:right; stroke:none; font-weight:normal; font-style:italic; text-align:right; " transform="" id="C.SCM.inpoint.text" y="-7.0" x="104.43366056">
SCM.in</text>
      <circle style="stroke:gray; stroke-width:1; fill:none; " transform="" cy="0.0" cx="-94.5855238199" r="5" id="C.SCM.outpoint" d="M -89.585526,0 C -89.585526,2.7614237 -91.824102,5 -94.585526,5 -97.346949,5 -99.585526,2.7614237 -99.585526,0 -99.585526,-2.7614237 -97.346949,-5 -94.585526,-5 -91.824102,-5 -89.585526,-2.7614237 -89.585526,0 z" />
      <text style="font-size:25; vertical-align:top; fill-opacity:1.0; fill:gray; text-anchor:right; stroke:none; font-weight:normal; font-style:italic; text-align:right; " transform="" id="C.SCM.outpoint.text" y="-7.0" x="-87.5855238199">
SCM.out</text>
      <circle style="stroke:red; stroke-width:1; fill:red; " transform="" cy="0.0" cx="0.0" r="5" id="C.SCM" d="M 5,0 C 5,2.7614237 2.7614237,5 0,5 -2.7614237,5 -5,2.7614237 -5,0 -5,-2.7614237 -2.7614237,-5 0,-5 2.7614237,-5 5,-2.7614237 5,0 z" />
      <text style="font-size:30; vertical-align:top; fill-opacity:1.0; fill:darkblue; text-anchor:right; stroke:none; font-weight:normal; font-style:italic; text-align:right; " transform="" id="C.SCM.text" y="-7.0" x="7.0">
SCM</text>
      <circle style="stroke:red; stroke-width:1; fill:red; " transform="" cy="644.112391305" cx="0.0" r="5" id="C.SUM" d="M 5,644.11237 C 5,646.87379 2.7614237,649.11237 0,649.11237 -2.7614237,649.11237 -5,646.87379 -5,644.11237 -5,641.35094 -2.7614237,639.11237 0,639.11237 2.7614237,639.11237 5,641.35094 5,644.11237 z" />
      <text style="font-size:30; vertical-align:top; fill-opacity:1.0; fill:darkblue; text-anchor:right; stroke:none; font-weight:normal; font-style:italic; text-align:right; " transform="" id="C.SUM.text" y="637.112391305" x="7.0">
SUM</text>
      <circle style="stroke:red; stroke-width:1; fill:red; " transform="" cy="2374.01574803" cx="0.0" r="5" id="C.SWM" d="M 5,2374.0159 C 5,2376.7773 2.7614237,2379.0159 0,2379.0159 -2.7614237,2379.0159 -5,2376.7773 -5,2374.0159 -5,2371.2544 -2.7614237,2369.0159 0,2369.0159 2.7614237,2369.0159 5,2371.2544 5,2374.0159 z" />
      <text style="font-size:30; vertical-align:top; fill-opacity:1.0; fill:darkblue; text-anchor:right; stroke:none; font-weight:normal; font-style:italic; text-align:right; " transform="" id="C.SWM.text" y="2367.01574803" x="7.0">
SWM</text>
      <circle style="stroke:red; stroke-width:1; fill:red; " transform="" cy="1509.06406967" cx="0.0" r="5" id="C.SEM" d="M 5,1509.0641 C 5,1511.8255 2.7614237,1514.0641 0,1514.0641 -2.7614237,1514.0641 -5,1511.8255 -5,1509.0641 -5,1506.3027 -2.7614237,1504.0641 0,1504.0641 2.7614237,1504.0641 5,1506.3027 5,1509.0641 z" />
      <text style="font-size:30; vertical-align:top; fill-opacity:1.0; fill:darkblue; text-anchor:right; stroke:none; font-weight:normal; font-style:italic; text-align:right; " transform="" id="C.SEM.text" y="1502.06406967" x="7.0">
SEM</text>
      <circle style="stroke:gray; stroke-width:1; fill:none; " transform="" cy="593.719163689" cx="867.28190604" r="5" id="C.SUB.outpoint" d="M 872.28192,593.71918 C 872.28192,596.4806 870.04335,598.71918 867.28192,598.71918 864.5205,598.71918 862.28192,596.4806 862.28192,593.71918 862.28192,590.95775 864.5205,588.71918 867.28192,588.71918 870.04335,588.71918 872.28192,590.95775 872.28192,593.71918 z" />
      <text style="font-size:25; vertical-align:top; fill-opacity:1.0; fill:gray; text-anchor:right; stroke:none; font-weight:normal; font-style:italic; text-align:right; " transform="" id="C.SUB.outpoint.text" y="586.719163689" x="874.28190604">
SUB.out</text>
      <circle style="stroke:red; stroke-width:1; fill:red; " transform="" cy="644.112391305" cx="948.452051524" r="5" id="C.SUB" d="M 953.45203,644.11237 C 953.45203,646.87379 951.21345,649.11237 948.45203,649.11237 945.6906,649.11237 943.45203,646.87379 943.45203,644.11237 943.45203,641.35094 945.6906,639.11237 948.45203,639.11237 951.21345,639.11237 953.45203,641.35094 953.45203,644.11237 z" />
      <text style="font-size:30; vertical-align:top; fill-opacity:1.0; fill:darkblue; text-anchor:right; stroke:none; font-weight:normal; font-style:italic; text-align:right; " transform="" id="C.SUB.text" y="637.112391305" x="955.452051524">
SUB</text>
      <circle style="stroke:gray; stroke-width:1; fill:none; " transform="" cy="607.283075886" cx="-859.507283762" r="5" id="C.SUF.inpoint" d="M -854.50726,607.28308 C -854.50726,610.0445 -856.74584,612.28308 -859.50726,612.28308 -862.26869,612.28308 -864.50726,610.0445 -864.50726,607.28308 -864.50726,604.52166 -862.26869,602.28308 -859.50726,602.28308 -856.74584,602.28308 -854.50726,604.52166 -854.50726,607.28308 z" />
      <text style="font-size:25; vertical-align:top; fill-opacity:1.0; fill:gray; text-anchor:right; stroke:none; font-weight:normal; font-style:italic; text-align:right; " transform="" id="C.SUF.inpoint.text" y="600.283075886" x="-852.507283762">
SUF.in</text>
      <circle style="stroke:gray; stroke-width:1; fill:none; " transform="" cy="907.693105042" cx="-772.581867799" r="5" id="C.SUF.outpoint" d="M -767.58185,907.69312 C -767.58185,910.45454 -769.82042,912.69312 -772.58185,912.69312 -775.34327,912.69312 -777.58185,910.45454 -777.58185,907.69312 -777.58185,904.93169 -775.34327,902.69312 -772.58185,902.69312 -769.82042,902.69312 -767.58185,904.93169 -767.58185,907.69312 z" />
      <text style="font-size:25; vertical-align:top; fill-opacity:1.0; fill:gray; text-anchor:right; stroke:none; font-weight:normal; font-style:italic; text-align:right; " transform="" id="C.SUF.outpoint.text" y="900.693105042" x="-765.581867799">
SUF.out</text>
      <circle style="stroke:red; stroke-width:1; fill:red; " transform="" cy="644.112391305" cx="-948.452051524" r="5" id="C.SUF" d="M -943.45203,644.11237 C -943.45203,646.87379 -945.6906,649.11237 -948.45203,649.11237 -951.21345,649.11237 -953.45203,646.87379 -953.45203,644.11237 -953.45203,641.35094 -951.21345,639.11237 -948.45203,639.11237 -945.6906,639.11237 -943.45203,641.35094 -943.45203,644.11237 z" />
      <text style="font-size:30; vertical-align:top; fill-opacity:1.0; fill:darkblue; text-anchor:right; stroke:none; font-weight:normal; font-style:italic; text-align:right; " transform="" id="C.SUF.text" y="637.112391305" x="-941.452051524">
SUF</text>
      <circle style="stroke:red; stroke-width:1; fill:red; " transform="" cy="1509.06406967" cx="690.94488189" r="5" id="C.SEB" d="M 695.94489,1509.0641 C 695.94489,1511.8255 693.70631,1514.0641 690.94489,1514.0641 688.18346,1514.0641 685.94489,1511.8255 685.94489,1509.0641 685.94489,1506.3027 688.18346,1504.0641 690.94489,1504.0641 693.70631,1504.0641 695.94489,1506.3027 695.94489,1509.0641 z" />
      <text style="font-size:30; vertical-align:top; fill-opacity:1.0; fill:darkblue; text-anchor:right; stroke:none; font-weight:normal; font-style:italic; text-align:right; " transform="" id="C.SEB.text" y="1502.06406967" x="697.94488189">
SEB</text>
      <circle style="stroke:gray; stroke-width:1; fill:none; " transform="" cy="1195.96728542" cx="-580.235347652" r="5" id="C.SEF.inpoint" d="M -575.23535,1195.9673 C -575.23535,1198.7287 -577.47393,1200.9673 -580.23535,1200.9673 -582.99678,1200.9673 -585.23535,1198.7287 -585.23535,1195.9673 -585.23535,1193.2059 -582.99678,1190.9673 -580.23535,1190.9673 -577.47393,1190.9673 -575.23535,1193.2059 -575.23535,1195.9673 z" />
      <text style="font-size:25; vertical-align:top; fill-opacity:1.0; fill:gray; text-anchor:right; stroke:none; font-weight:normal; font-style:italic; text-align:right; " transform="" id="C.SEF.inpoint.text" y="1188.96728542" x="-573.235347652">
SEF.in</text>
      <circle style="stroke:red; stroke-width:1; fill:red; " transform="" cy="1509.06406967" cx="-531.496062992" r="5" id="C.SEF" d="M -526.49603,1509.0641 C -526.49603,1511.8255 -528.73461,1514.0641 -531.49603,1514.0641 -534.25746,1514.0641 -536.49603,1511.8255 -536.49603,1509.0641 -536.49603,1506.3027 -534.25746,1504.0641 -531.49603,1504.0641 -528.73461,1504.0641 -526.49603,1506.3027 -526.49603,1509.0641 z" />
      <text style="font-size:30; vertical-align:top; fill-opacity:1.0; fill:darkblue; text-anchor:right; stroke:none; font-weight:normal; font-style:italic; text-align:right; " transform="" id="C.SEF.text" y="1502.06406967" x="-524.496062992">
SEF</text>
      <circle style="stroke:gray; stroke-width:1; fill:none; " transform="" cy="543.070846757" cx="785.700879214" r="5" id="C.s1.inpoint" d="M 790.70087,543.07086 C 790.70087,545.83229 788.46229,548.07086 785.70087,548.07086 782.93944,548.07086 780.70087,545.83229 780.70087,543.07086 780.70087,540.30944 782.93944,538.07086 785.70087,538.07086 788.46229,538.07086 790.70087,540.30944 790.70087,543.07086 z" />
      <text style="font-size:25; vertical-align:top; fill-opacity:1.0; fill:gray; text-anchor:right; stroke:none; font-weight:normal; font-style:italic; text-align:right; " transform="" id="C.s1.inpoint.text" y="536.070846757" x="792.700879214">
s1.in</text>
      <circle style="stroke:gray; stroke-width:1; fill:none; " transform="" cy="362.197914856" cx="561.483227247" r="5" id="C.s1.outpoint" d="M 566.48322,362.19791 C 566.48322,364.95933 564.24464,367.19791 561.48322,367.19791 558.72179,367.19791 556.48322,364.95933 556.48322,362.19791 556.48322,359.43648 558.72179,357.19791 561.48322,357.19791 564.24464,357.19791 566.48322,359.43648 566.48322,362.19791 z" />
      <text style="font-size:25; vertical-align:top; fill-opacity:1.0; fill:gray; text-anchor:right; stroke:none; font-weight:normal; font-style:italic; text-align:right; " transform="" id="C.s1.outpoint.text" y="355.197914856" x="568.483227247">
s1.out</text>
      <circle style="stroke:red; stroke-width:1; fill:red; " transform="" cy="483.084293478" cx="711.339038643" r="5" id="C.s1" d="M 716.33905,483.08429 C 716.33905,485.84571 714.10047,488.08429 711.33905,488.08429 708.57763,488.08429 706.33905,485.84571 706.33905,483.08429 706.33905,480.32287 708.57763,478.08429 711.33905,478.08429 714.10047,478.08429 716.33905,480.32287 716.33905,483.08429 z" />
      <text style="font-size:30; vertical-align:top; fill-opacity:1.0; fill:darkblue; text-anchor:right; stroke:none; font-weight:normal; font-style:italic; text-align:right; " transform="" id="C.s1.text" y="476.084293478" x="718.339038643">
s1</text>
      <circle style="stroke:red; stroke-width:1; fill:red; " transform="" cy="161.028097826" cx="237.113012881" r="5" id="C.s2" d="M 242.11301,161.02809 C 242.11301,163.78952 239.87443,166.02809 237.11301,166.02809 234.35158,166.02809 232.11301,163.78952 232.11301,161.02809 232.11301,158.26667 234.35158,156.02809 237.11301,156.02809 239.87443,156.02809 242.11301,158.26667 242.11301,161.02809 z" />
      <text style="font-size:30; vertical-align:top; fill-opacity:1.0; fill:darkblue; text-anchor:right; stroke:none; font-weight:normal; font-style:italic; text-align:right; " transform="" id="C.s2.text" y="154.028097826" x="244.113012881">
s2</text>
      <circle style="stroke:gray; stroke-width:1; fill:none; " transform="" cy="210.572280468" cx="436.205114071" r="5" id="C.s3.inpoint" d="M 441.20511,210.57228 C 441.20511,213.3337 438.96653,215.57228 436.20511,215.57228 433.44368,215.57228 431.20511,213.3337 431.20511,210.57228 431.20511,207.81086 433.44368,205.57228 436.20511,205.57228 438.96653,205.57228 441.20511,207.81086 441.20511,210.57228 z" />
      <text style="font-size:25; vertical-align:top; fill-opacity:1.0; fill:gray; text-anchor:right; stroke:none; font-weight:normal; font-style:italic; text-align:right; " transform="" id="C.s3.inpoint.text" y="203.572280468" x="443.205114071">
s3.in</text>
      <circle style="stroke:gray; stroke-width:1; fill:none; " transform="" cy="47.1107059169" cx="195.508819726" r="5" id="C.s3.outpoint" d="M 200.50882,47.110706 C 200.50882,49.87213 198.27024,52.110706 195.50882,52.110706 192.7474,52.110706 190.50882,49.87213 190.50882,47.110706 190.50882,44.349283 192.7474,42.110706 195.50882,42.110706 198.27024,42.110706 200.50882,44.349283 200.50882,47.110706 z" />
      <text style="font-size:25; vertical-align:top; fill-opacity:1.0; fill:gray; text-anchor:right; stroke:none; font-weight:normal; font-style:italic; text-align:right; " transform="" id="C.s3.outpoint.text" y="40.1107059169" x="202.508819726">
s3.out</text>
      <circle style="stroke:red; stroke-width:1; fill:red; " transform="" cy="102.403018421" cx="276.926454188" r="5" id="C.s3" d="M 281.92645,102.40302 C 281.92645,105.16444 279.68788,107.40302 276.92645,107.40302 274.16503,107.40302 271.92645,105.16444 271.92645,102.40302 271.92645,99.641591 274.16503,97.403015 276.92645,97.403015 279.68788,97.403015 281.92645,99.641591 281.92645,102.40302 z" />
      <text style="font-size:30; vertical-align:top; fill-opacity:1.0; fill:darkblue; text-anchor:right; stroke:none; font-weight:normal; font-style:italic; text-align:right; " transform="" id="C.s3.text" y="95.4030184208" x="283.926454188">
s3</text>
      <circle style="stroke:red; stroke-width:1; fill:red; " transform="" cy="161.028097826" cx="-237.113012881" r="5" id="C.s4" d="M -232.11301,161.02809 C -232.11301,163.78952 -234.35158,166.02809 -237.11301,166.02809 -239.87443,166.02809 -242.11301,163.78952 -242.11301,161.02809 -242.11301,158.26667 -239.87443,156.02809 -237.11301,156.02809 -234.35158,156.02809 -232.11301,158.26667 -232.11301,161.02809 z" />
      <text style="font-size:30; vertical-align:top; fill-opacity:1.0; fill:darkblue; text-anchor:right; stroke:none; font-weight:normal; font-style:italic; text-align:right; " transform="" id="C.s4.text" y="154.028097826" x="-230.113012881">
s4</text>
      <circle style="stroke:gray; stroke-width:1; fill:none; " transform="" cy="88.2494239427" cx="-203.416444329" r="5" id="C.s5.inpoint" d="M -198.41644,88.24942 C -198.41644,91.010844 -200.65502,93.24942 -203.41644,93.24942 -206.17787,93.24942 -208.41644,91.010844 -208.41644,88.24942 -208.41644,85.487996 -206.17787,83.24942 -203.41644,83.24942 -200.65502,83.24942 -198.41644,85.487996 -198.41644,88.24942 z" />
      <text style="font-size:25; vertical-align:top; fill-opacity:1.0; fill:gray; text-anchor:right; stroke:none; font-weight:normal; font-style:italic; text-align:right; " transform="" id="C.s5.inpoint.text" y="81.2494239427" x="-196.416444329">
s5.in</text>
      <circle style="stroke:gray; stroke-width:1; fill:none; " transform="" cy="251.769465564" cx="-405.072566899" r="5" id="C.s5.outpoint" d="M -400.07257,251.76947 C -400.07257,254.53089 -402.31115,256.76947 -405.07257,256.76947 -407.83399,256.76947 -410.07257,254.53089 -410.07257,251.76947 -410.07257,249.00805 -407.83399,246.76947 -405.07257,246.76947 -402.31115,246.76947 -400.07257,249.00805 -400.07257,251.76947 z" />
      <text style="font-size:25; vertical-align:top; fill-opacity:1.0; fill:gray; text-anchor:right; stroke:none; font-weight:normal; font-style:italic; text-align:right; " transform="" id="C.s5.outpoint.text" y="244.769465564" x="-398.072566899">
s5.out</text>
      <circle style="stroke:red; stroke-width:1; fill:red; " transform="" cy="131.715558123" cx="-257.019733535" r="5" id="C.s5" d="M -252.01974,131.71556 C -252.01974,134.47698 -254.25832,136.71556 -257.01974,136.71556 -259.78117,136.71556 -262.01974,134.47698 -262.01974,131.71556 -262.01974,128.95414 -259.78117,126.71556 -257.01974,126.71556 -254.25832,126.71556 -252.01974,128.95414 -252.01974,131.71556 z" />
      <text style="font-size:30; vertical-align:top; fill-opacity:1.0; fill:darkblue; text-anchor:right; stroke:none; font-weight:normal; font-style:italic; text-align:right; " transform="" id="C.s5.text" y="124.715558123" x="-250.019733535">
s5</text>
      <circle style="stroke:red; stroke-width:1; fill:red; " transform="" cy="483.084293478" cx="-711.339038643" r="5" id="C.s6" d="M -706.33905,483.08429 C -706.33905,485.84571 -708.57763,488.08429 -711.33905,488.08429 -714.10047,488.08429 -716.33905,485.84571 -716.33905,483.08429 -716.33905,480.32287 -714.10047,478.08429 -711.33905,478.08429 -708.57763,478.08429 -706.33905,480.32287 -706.33905,483.08429 z" />
      <text style="font-size:30; vertical-align:top; fill-opacity:1.0; fill:darkblue; text-anchor:right; stroke:none; font-weight:normal; font-style:italic; text-align:right; " transform="" id="C.s6.text" y="476.084293478" x="-704.339038643">
s6</text>
      <circle style="stroke:gray; stroke-width:1; fill:none; " transform="" cy="397.761375425" cx="-536.742329396" r="5" id="C.s7.inpoint" d="M -531.74231,397.76138 C -531.74231,400.52281 -533.98089,402.76138 -536.74231,402.76138 -539.50373,402.76138 -541.74231,400.52281 -541.74231,397.76138 -541.74231,394.99996 -539.50373,392.76138 -536.74231,392.76138 -533.98089,392.76138 -531.74231,394.99996 -531.74231,397.76138 z" />
      <text style="font-size:25; vertical-align:top; fill-opacity:1.0; fill:gray; text-anchor:right; stroke:none; font-weight:normal; font-style:italic; text-align:right; " transform="" id="C.s7.inpoint.text" y="390.761375425" x="-529.742329396">
s7.in</text>
      <circle style="stroke:gray; stroke-width:1; fill:none; " transform="" cy="569.714562059" cx="-768.777312286" r="5" id="C.s7.outpoint" d="M -763.77728,569.71454 C -763.77728,572.47596 -766.01586,574.71454 -768.77728,574.71454 -771.53871,574.71454 -773.77728,572.47596 -773.77728,569.71454 -773.77728,566.95311 -771.53871,564.71454 -768.77728,564.71454 -766.01586,564.71454 -763.77728,566.95311 -763.77728,569.71454 z" />
      <text style="font-size:25; vertical-align:top; fill-opacity:1.0; fill:gray; text-anchor:right; stroke:none; font-weight:normal; font-style:italic; text-align:right; " transform="" id="C.s7.outpoint.text" y="562.714562059" x="-761.777312286">
s7.out</text>
      <circle style="stroke:red; stroke-width:1; fill:red; " transform="" cy="512.396833181" cx="-691.432317989" r="5" id="C.s7" d="M -686.43231,512.39685 C -686.43231,515.15827 -688.67089,517.39685 -691.43231,517.39685 -694.19374,517.39685 -696.43231,515.15827 -696.43231,512.39685 -696.43231,509.63543 -694.19374,507.39685 -691.43231,507.39685 -688.67089,507.39685 -686.43231,509.63543 -686.43231,512.39685 z" />
      <text style="font-size:30; vertical-align:top; fill-opacity:1.0; fill:darkblue; text-anchor:right; stroke:none; font-weight:normal; font-style:italic; text-align:right; " transform="" id="C.s7.text" y="505.396833181" x="-684.432317989">
s7</text>
      <circle style="stroke:red; stroke-width:1; fill:red; " transform="" cy="2374.01574803" cx="-948.452051524" r="5" id="C.s8" d="M -943.45203,2374.0159 C -943.45203,2376.7773 -945.6906,2379.0159 -948.45203,2379.0159 -951.21345,2379.0159 -953.45203,2376.7773 -953.45203,2374.0159 -953.45203,2371.2544 -951.21345,2369.0159 -948.45203,2369.0159 -945.6906,2369.0159 -943.45203,2371.2544 -943.45203,2374.0159 z" />
      <text style="font-size:30; vertical-align:top; fill-opacity:1.0; fill:darkblue; text-anchor:right; stroke:none; font-weight:normal; font-style:italic; text-align:right; " transform="" id="C.s8.text" y="2367.01574803" x="-941.452051524">
s8</text>
      <circle style="stroke:red; stroke-width:1; fill:red; " transform="" cy="2374.01574803" cx="-396.850393701" r="5" id="C.s9" d="M -391.8504,2374.0159 C -391.8504,2376.7773 -394.08898,2379.0159 -396.8504,2379.0159 -399.61183,2379.0159 -401.8504,2376.7773 -401.8504,2374.0159 -401.8504,2371.2544 -399.61183,2369.0159 -396.8504,2369.0159 -394.08898,2369.0159 -391.8504,2371.2544 -391.8504,2374.0159 z" />
      <text style="font-size:30; vertical-align:top; fill-opacity:1.0; fill:darkblue; text-anchor:right; stroke:none; font-weight:normal; font-style:italic; text-align:right; " transform="" id="C.s9.text" y="2367.01574803" x="-389.850393701">
s9</text>
      <circle style="stroke:red; stroke-width:1; fill:red; " transform="" cy="2374.01574803" cx="948.452051524" r="5" id="C.s10" d="M 953.45203,2374.0159 C 953.45203,2376.7773 951.21345,2379.0159 948.45203,2379.0159 945.6906,2379.0159 943.45203,2376.7773 943.45203,2374.0159 943.45203,2371.2544 945.6906,2369.0159 948.45203,2369.0159 951.21345,2369.0159 953.45203,2371.2544 953.45203,2374.0159 z" />
      <text style="font-size:30; vertical-align:top; fill-opacity:1.0; fill:darkblue; text-anchor:right; stroke:none; font-weight:normal; font-style:italic; text-align:right; " transform="" id="C.s10.text" y="2367.01574803" x="955.452051524">
s10</text>
      <circle style="stroke:red; stroke-width:1; fill:red; " transform="" cy="2374.01574803" cx="396.850393701" r="5" id="C.s11" d="M 401.8504,2374.0159 C 401.8504,2376.7773 399.61183,2379.0159 396.8504,2379.0159 394.08898,2379.0159 391.8504,2376.7773 391.8504,2374.0159 391.8504,2371.2544 394.08898,2369.0159 396.8504,2369.0159 399.61183,2369.0159 401.8504,2371.2544 401.8504,2374.0159 z" />
      <text style="font-size:30; vertical-align:top; fill-opacity:1.0; fill:darkblue; text-anchor:right; stroke:none; font-weight:normal; font-style:italic; text-align:right; " transform="" id="C.s11.text" y="2367.01574803" x="403.850393701">
s11</text>
      <circle style="stroke:red; stroke-width:1; fill:red; " transform="" cy="1509.06406967" cx="483.661417323" r="5" id="C.SD1" d="M 488.66141,1509.0641 C 488.66141,1511.8255 486.42283,1514.0641 483.66141,1514.0641 480.89998,1514.0641 478.66141,1511.8255 478.66141,1509.0641 478.66141,1506.3027 480.89998,1504.0641 483.66141,1504.0641 486.42283,1504.0641 488.66141,1506.3027 488.66141,1509.0641 z" />
      <text style="font-size:30; vertical-align:top; fill-opacity:1.0; fill:darkblue; text-anchor:right; stroke:none; font-weight:normal; font-style:italic; text-align:right; " transform="" id="C.SD1.text" y="1502.06406967" x="490.661417323">
SD1</text>
      <circle style="stroke:red; stroke-width:1; fill:red; " transform="" cy="1538.99072866" cx="682.035333013" r="5" id="C.SD1.i" d="M 687.03534,1538.9907 C 687.03534,1541.7521 684.79676,1543.9907 682.03534,1543.9907 679.27392,1543.9907 677.03534,1541.7521 677.03534,1538.9907 677.03534,1536.2293 679.27392,1533.9907 682.03534,1533.9907 684.79676,1533.9907 687.03534,1536.2293 687.03534,1538.9907 z" />
      <text style="font-size:30; vertical-align:top; fill-opacity:1.0; fill:darkblue; text-anchor:right; stroke:none; font-weight:normal; font-style:italic; text-align:right; " transform="" id="C.SD1.i.text" y="1531.99072866" x="689.035333013">
SD1.i</text>
      <circle style="stroke:red; stroke-width:1; fill:red; " transform="" cy="1592.51068223" cx="666.101758795" r="5" id="C.SD1.o" d="M 671.10175,1592.5107 C 671.10175,1595.2722 668.86317,1597.5107 666.10175,1597.5107 663.34032,1597.5107 661.10175,1595.2722 661.10175,1592.5107 661.10175,1589.7493 663.34032,1587.5107 666.10175,1587.5107 668.86317,1587.5107 671.10175,1589.7493 671.10175,1592.5107 z" />
      <text style="font-size:30; vertical-align:top; fill-opacity:1.0; fill:darkblue; text-anchor:right; stroke:none; font-weight:normal; font-style:italic; text-align:right; " transform="" id="C.SD1.o.text" y="1585.51068223" x="673.101758795">
SD1.o</text>
      <circle style="stroke:gray; stroke-width:1; fill:none; " transform="" cy="2372.86311411" cx="126.216392742" r="5" id="C.SWB.inpoint" d="M 131.21639,2372.863 C 131.21639,2375.6245 128.97782,2377.863 126.21639,2377.863 123.45497,2377.863 121.21639,2375.6245 121.21639,2372.863 121.21639,2370.1016 123.45497,2367.863 126.21639,2367.863 128.97782,2367.863 131.21639,2370.1016 131.21639,2372.863 z" />
      <text style="font-size:25; vertical-align:top; fill-opacity:1.0; fill:gray; text-anchor:right; stroke:none; font-weight:normal; font-style:italic; text-align:right; " transform="" id="C.SWB.inpoint.text" y="2365.86311411" x="133.216392742">
SWB.in</text>
      <circle style="stroke:red; stroke-width:1; fill:red; " transform="" cy="2456.33331769" cx="368.489582017" r="5" id="C.SWB" d="M 373.48959,2456.3333 C 373.48959,2459.0947 371.25102,2461.3333 368.48959,2461.3333 365.72817,2461.3333 363.48959,2459.0947 363.48959,2456.3333 363.48959,2453.5718 365.72817,2451.3333 368.48959,2451.3333 371.25102,2451.3333 373.48959,2453.5718 373.48959,2456.3333 z" />
      <text style="font-size:30; vertical-align:top; fill-opacity:1.0; fill:darkblue; text-anchor:right; stroke:none; font-weight:normal; font-style:italic; text-align:right; " transform="" id="C.SWB.text" y="2449.33331769" x="375.489582017">
SWB</text>
      <circle style="stroke:gray; stroke-width:1; fill:none; " transform="" cy="2338.48415718" cx="-143.046282411" r="5" id="C.SWF.outpoint" d="M -138.04628,2338.4841 C -138.04628,2341.2456 -140.28486,2343.4841 -143.04628,2343.4841 -145.8077,2343.4841 -148.04628,2341.2456 -148.04628,2338.4841 -148.04628,2335.7227 -145.8077,2333.4841 -143.04628,2333.4841 -140.28486,2333.4841 -138.04628,2335.7227 -138.04628,2338.4841 z" />
      <text style="font-size:25; vertical-align:top; fill-opacity:1.0; fill:gray; text-anchor:right; stroke:none; font-weight:normal; font-style:italic; text-align:right; " transform="" id="C.SWF.outpoint.text" y="2331.48415718" x="-136.046282411">
SWF.out</text>
      <circle style="stroke:red; stroke-width:1; fill:red; " transform="" cy="2377.89933492" cx="-396.245841829" r="5" id="C.SWF" d="M -391.24585,2377.8994 C -391.24585,2380.6608 -393.48443,2382.8994 -396.24585,2382.8994 -399.00727,2382.8994 -401.24585,2380.6608 -401.24585,2377.8994 -401.24585,2375.138 -399.00727,2372.8994 -396.24585,2372.8994 -393.48443,2372.8994 -391.24585,2375.138 -391.24585,2377.8994 z" />
      <text style="font-size:30; vertical-align:top; fill-opacity:1.0; fill:darkblue; text-anchor:right; stroke:none; font-weight:normal; font-style:italic; text-align:right; " transform="" id="C.SWF.text" y="2370.89933492" x="-389.245841829">
SWF</text>
      <path style="stroke-linejoin:miter; stroke-dashoffset:0; stroke:gray; stroke-miterlimit:4; stroke-dasharray:6,6; stroke-width:2; fill:none; " transform="" d="M 0.0  0.0 L 0.0  2374.01574803 M 948.452051524  644.112391305 L 0.0  0.0 L -948.452051524  644.112391305 M 948.452051524  644.112391305 L -948.452051524  644.112391305 M 690.94488189  1509.06406967 L -531.496062992  1509.06406967 M -948.452051524  644.112391305 L -948.452051524  2374.01574803 L 948.452051524  2374.01574803 L 948.452051524  644.112391305 M 690.94488189  1509.06406967 L 396.850393701  2374.01574803 M -948.452051524  644.112391305 L -396.850393701  2374.01574803 M 237.113012881  161.028097826 L 276.926454188  102.403018421 M -237.113012881  161.028097826 L -257.019733535  131.715558123 M -711.339038643  483.084293478 L -691.432317989  512.396833181 " id="C.gridline" />
    </g>
  </g>
</svg>
