<?xml version="1.0" encoding="UTF-8" standalone="no"?>
<svg xmlns:dc="http://purl.org/dc/elements/1.1/" xmlns:cc="http://creativecommons.org/ns#" xmlns:rdf="http://www.w3.org/1999/02/22-rdf-syntax-ns#" xmlns:svg="http://www.w3.org/2000/svg" xmlns="http://www.w3.org/2000/svg" xmlns:sodipodi="http://sodipodi.sourceforge.net/DTD/sodipodi-0.dtd" xmlns:inkscape="http://www.inkscape.org/namespaces/inkscape" patternNumber="MR_B1" fitBoxtoViewport="True" companyName="Next Patterns" currentscale="0.5:1" margin-right="88.5826771654" client-name="DressFormLg" designerName="S.L.Spencer" height="4686.46709994" width="2545.52426033" margin-top="88.5826771654" version="1.1" margin-bottom="88.5826771654" margin-left="88.5826771654" preserveAspectRatio="xMidYMid meet" id="svg2" inkscape:version="0.48.4 r9939" sodipodi:docname="Susan-spencer_bodice_short-2014-12-07-1941.svg">
  <metadata id="metadata300">
    <rdf:RDF>
      <cc:Work rdf:about="">
        <dc:format>image/svg+xml</dc:format>
        <dc:type rdf:resource="http://purl.org/dc/dcmitype/StillImage" />
      </cc:Work>
    </rdf:RDF>
  </metadata>
  <sodipodi:namedview id="base" pagecolor="#ffffff" bordercolor="#666666" borderopacity="1.0" inkscape:pageopacity="0.0" inkscape:pageshadow="2" inkscape:zoom="0.74724769" inkscape:document-units="pt" showgrid="false" inkscape:window-maximized="1" inkscape:cx="1272.7621" inkscape:cy="1892.1717" inkscape:window-width="1855" inkscape:window-height="1056" inkscape:window-x="65" inkscape:window-y="24" inkscape:current-layer="pattern" />
  <defs id="defs5">
    <marker style="overflow:visible" id="Arrow1Mstart" refX="0.0" refY="0.0" orient="auto" inkscape:stockid="Arrow1Mstart">
      <path transform="scale(0.4) translate(10,0)" style="fill-rule:evenodd;stroke:#000000;stroke-width:1.0pt;marker-start:none" d="M 0.0,0.0 L 5.0,-5.0 L -12.5,0.0 L 5.0,5.0 L 0.0,0.0 z " id="path8" />
    </marker>
    <marker style="overflow:visible;" id="Arrow1Mend" refX="0.0" refY="0.0" orient="auto" inkscape:stockid="Arrow1Mend">
      <path transform="scale(0.4) rotate(180) translate(10,0)" style="fill-rule:evenodd;stroke:#000000;stroke-width:1.0pt;marker-start:none;" d="M 0.0,0.0 L 5.0,-5.0 L -12.5,0.0 L 5.0,5.0 L 0.0,0.0 z " id="path11" />
    </marker>
  </defs>
  <g inkscape:label="Label-pattern" id="pattern" inkscape:groupmode="layer" transform="translate(88.582677,88.582677)">
    <g id="document.bodice.Bodice Front.pattern" transform=" translate(58.750000, 757.717638)">
      <g id="A.letter" transform="matrix(10.000000, 0, 0, 10.000000, -3228.838583, -1030.039370)">
        <text style="font-size:24; vertical-align:top; fill-opacity:1.0; fill:#000000; text-anchor:start; stroke:none; font-weight:normal; font-style:normal; text-align:right; " transform="" id="A.letter.letterline" y="114.448818898" x="358.75984252">
A</text>
      </g>
      <line style="stroke-linejoin:miter; stroke:green; stroke-width:4; stroke-miterlimit:4; fill:none; " y2="1089.56692913" marker-end="url(#Arrow1Mend)" marker-start="url(#Arrow1Mstart)" transform="" x2="133.455818164" y1="159.448818898" x1="133.455818164" id="A.grainline" />
      <path style="stroke-linejoin:miter; stroke-dashoffset:0; stroke:green; stroke-miterlimit:4; stroke-dasharray:6,6; stroke-width:3; fill:none; " transform="" d="M 259.422273289  1311.16500733 L 354.330708661  710.078740157 L 449.239144033  1311.16500733 M 1114.86823763  636.674759603 L 437.620968391  649.368247433 L 1085.75248476  846.219779863 " id="A.dartline" />
      <path style="stroke-linejoin:miter; stroke-dashoffset:0; stroke:green; stroke-dasharray:24,6; stroke-miterlimit:4; stroke-width:4; fill:none; " transform="" d="M 0.0  0.0 L 0.0  1240.15748031 C 88.6510629953  1240.15748031  170.37146643  1240.15748031  268.195175027  1255.60334164 L 354.330708661  1278.11886836 L 440.466242295  1255.60334164 C 638.608627086  1224.31767642  840.663085938  1206.62791188  1038.67054744  1192.7249741 L 1031.93019923  829.872789912 L 1092.42818165  740.352060735 L 1058.6281151  637.72885512 L 983.736240613  410.343378751 C 821.738234984  463.076114248  639.566929134  372.404562614  639.566929134  159.448818898 C 639.566929134  30.5375758868  705.363247815  -166.013360476  717.519685039  -223.334513127 L 266.911636328  -318.897637795 C 233.832093174  -162.917928626  160.146981797  0.0  0.0  0.0 " id="A.seamline" />
      <path style="fill:none;stroke:#008000;stroke-width:4;stroke-linejoin:miter;stroke-miterlimit:4" d="M 211.90625,-330.65625 C 197.45138,-264.20535 177.34444,-197.87692 139.96875,-140.40625 116.15169,-104.08797 82.171731,-71.60028 38.90625,-60.9375 9.6980416,-53.498727 -20.657228,-57.036286 -50.466985,-55.829847 -59.45958,-58.486119 -55.389515,-48.189039 -56.25,-42.78125 -56.25,403.61458 -56.25,850.01042 -56.25,1296.4062 46.358054,1296.5757 149.38339,1294.0996 251,1309.8438 278.00729,1315.4948 304.50194,1323.6109 331.30863,1330.2263 339.63709,1331.7447 347.95565,1335.9211 356.2779,1335.7723 389.43648,1327.3273 422.39894,1317.9228 455.70196,1310.1632 667.64626,1276.9863 881.79613,1259.7817 1095.875,1245.0625 1093.4582,1112.239 1090.9758,979.41673 1088.5312,846.59375 1110.5207,814.05196 1132.4953,781.50022 1154.5,748.96875 1109.584,612.57272 1064.6504,476.18245 1019.75,339.78125 982.42204,350.98158 945.6588,366.69394 906.25144,368.33494 849.94297,372.13789 790.82506,353.54746 751.15625,312.46875 714.41608,275.2554 697.56763,222.44856 696.05532,171.06324 694.57419,112.85636 706.05956,55.303484 718.18505,-1.2716408 732.98851,-68.950136 753.25297,-135.33813 770.44779,-202.47342 775.33861,-223.81445 779.95787,-245.22649 784.75,-266.59375 597.70798,-306.25877 410.66451,-345.91692 223.625,-385.59375 219.71875,-367.28125 215.8125,-348.96875 211.90625,-330.65625 z" id="A.cuttingline" inkscape:connector-curvature="0" />
      <g id="A.info" transform="">
        <text style="font-size:12; vertical-align:top; fill-opacity:1.0; fill:#000000; text-anchor:start; stroke:none; font-weight:normal; font-style:normal; text-align:right; " transform="" id="A.info.lineNext Patterns" y="159.448818898" x="358.75984252">
Next Patterns</text>
        <text style="font-size:12; vertical-align:top; fill-opacity:1.0; fill:#000000; text-anchor:start; stroke:none; font-weight:normal; font-style:normal; text-align:right; " transform="" id="A.info.lineMR_B1" y="173.848818898" x="358.75984252">
MR_B1</text>
        <text style="font-size:12; vertical-align:top; fill-opacity:1.0; fill:#000000; text-anchor:start; stroke:none; font-weight:normal; font-style:normal; text-align:right; " transform="" id="A.info.lineSpencer Bodice Short" y="188.248818898" x="358.75984252">
Spencer Bodice Short</text>
        <text style="font-size:12; vertical-align:top; fill-opacity:1.0; fill:#000000; text-anchor:start; stroke:none; font-weight:normal; font-style:normal; text-align:right; " transform="" id="A.info.linePattern Piece A" y="202.648818898" x="358.75984252">
Pattern Piece A</text>
        <text style="font-size:12; vertical-align:top; fill-opacity:1.0; fill:#000000; text-anchor:start; stroke:none; font-weight:normal; font-style:normal; text-align:right; " transform="" id="A.info.lineCut 2 Fabric" y="217.048818898" x="358.75984252">
Cut 2 Fabric</text>
        <text style="font-size:12; vertical-align:top; fill-opacity:1.0; fill:#000000; text-anchor:start; stroke:none; font-weight:normal; font-style:normal; text-align:right; " transform="" id="A.info.line " y="231.448818898" x="358.75984252" />
        <text style="font-size:12; vertical-align:top; fill-opacity:1.0; fill:#000000; text-anchor:start; stroke:none; font-weight:normal; font-style:normal; text-align:right; " transform="" id="A.info.lineDressFormLg" y="245.848818898" x="358.75984252">
DressFormLg</text>
        <text style="font-size:12; vertical-align:top; fill-opacity:1.0; fill:#000000; text-anchor:start; stroke:none; font-weight:normal; font-style:normal; text-align:right; " transform="" id="A.info.line2014/12/7 19:41" y="260.248818898" x="358.75984252">
2014/12/7 19:41</text>
      </g>
    </g>
    <g id="document.bodice.Bodice Back.pattern" transform=" translate(2312.108906, 580.552283)">
      <g id="B.letter" transform="matrix(10.000000, 0, 0, 10.000000, 3220.308797, -2465.078740)">
        <text style="font-size:24; vertical-align:top; fill-opacity:1.0; fill:#000000; text-anchor:start; stroke:none; font-weight:normal; font-style:normal; text-align:right; " transform="" id="B.letter.letterline" y="273.897637795" x="-357.812088528">
B</text>
      </g>
      <line style="stroke-linejoin:miter; stroke:green; stroke-width:4; stroke-miterlimit:4; fill:none; " y2="1222.44094488" marker-end="url(#Arrow1Mend)" marker-start="url(#Arrow1Mstart)" transform="" x2="-142.235487856" y1="212.598425197" x1="-142.235487856" id="B.grainline" />
      <path style="stroke-linejoin:miter; stroke-dashoffset:0; stroke:green; stroke-miterlimit:4; stroke-dasharray:6,6; stroke-width:3; fill:none; " transform="" d="M -467.412859897  1410.15443315 L -383.761673202  637.795275591 L -300.110486507  1410.15443315 M -549.94563235  -87.4182932197 L -430.45219408  104.234043908 L -518.493439004  -103.751627012 " id="B.dartline" />
      <path style="stroke-linejoin:miter; stroke-dashoffset:0; stroke:green; stroke-dasharray:24,6; stroke-miterlimit:4; stroke-width:4; fill:none; " transform="" d="M 0.0  0.0 L 0.0  1346.45669291 C -101.067774363  1346.45669291  -234.382038208  1346.45669291  -306.167282905  1354.23147081 L -383.761673202  1369.18520373 L -461.356063499  1354.23147081 C -537.639427833  1345.96951924  -722.618056563  1344.80107546  -851.361750937  1343.98784763 L -908.074019882  743.623370461 C -815.843211147  734.910965532  -627.342519685  637.795275591  -627.342519685  435.978023208 C -627.342519685  315.641150946  -690.415334864  130.711716533  -715.624177057  82.1684498171 L -520.185017325  -39.6860369005 L -508.858261319  -46.7481632481 L -496.566196517  -51.9514480849 L -284.470975712  -141.732283465 C -252.688753608  -78.3927191927  -213.353231784  0.0  0.0  0.0 " id="B.seamline" />
      <path style="fill:none;stroke:#008000;stroke-width:4;stroke-linejoin:miter;stroke-miterlimit:4" d="M -306.40625,-193.53125 C -382.79654,-161.0806 -459.42069,-128.98719 -535.6605,-96.313751 -620.16419,-43.615592 -704.74718,9.1028878 -789.28125,61.8125 -774.47257,90.863412 -758.50939,119.35215 -747.75913,150.18399 -720.91443,223.53391 -699.53857,298.97735 -688.21875,376.34375 -681.80485,421.14333 -680.50927,467.73426 -695.3125,511.09375 -716.96104,577.49787 -770.40593,629.85449 -831.69596,661.031 -861.84585,676.47623 -894.64124,687.45532 -928.67287,689.1754 -942.21942,690.55443 -955.76596,691.93347 -969.3125,693.3125 -947.07183,928.85406 -924.83025,1164.3955 -902.59375,1399.9375 -775.64485,1400.9932 -648.58518,1400.5625 -521.8204,1406.2453 -496.33317,1407.6564 -470.67826,1408.4508 -445.71534,1414.5128 -424.73313,1418.3062 -403.74796,1423.1073 -382.76822,1426.2787 -353.12077,1420.8297 -323.53396,1414.2695 -293.84375,1409.5312 -215.64936,1402.8606 -136.93136,1403.3506 -58.375001,1402.7484 -20.166707,1402.687 18.04167,1402.733 56.25,1402.7188 56.25,916.39583 56.25,430.07292 56.25,-56.25 -8.2028894,-56.354282 -74.213712,-53.53629 -136.34375,-73.46875 -166.34681,-82.915222 -194.66624,-100.53616 -212.09375,-127.3125 -229.87902,-154.77479 -242.63111,-185.13446 -257.875,-214.0625 -274.05208,-207.21875 -290.22917,-200.375 -306.40625,-193.53125 z" id="B.cuttingline" inkscape:connector-curvature="0" />
      <g id="B.info" transform="">
        <text style="font-size:12; vertical-align:top; fill-opacity:1.0; fill:#000000; text-anchor:start; stroke:none; font-weight:normal; font-style:normal; text-align:right; " transform="" id="B.info.lineNext Patterns" y="318.897637795" x="-357.812088528">
Next Patterns</text>
        <text style="font-size:12; vertical-align:top; fill-opacity:1.0; fill:#000000; text-anchor:start; stroke:none; font-weight:normal; font-style:normal; text-align:right; " transform="" id="B.info.lineMR_B1" y="333.297637795" x="-357.812088528">
MR_B1</text>
        <text style="font-size:12; vertical-align:top; fill-opacity:1.0; fill:#000000; text-anchor:start; stroke:none; font-weight:normal; font-style:normal; text-align:right; " transform="" id="B.info.lineSpencer Bodice Short" y="347.697637795" x="-357.812088528">
Spencer Bodice Short</text>
        <text style="font-size:12; vertical-align:top; fill-opacity:1.0; fill:#000000; text-anchor:start; stroke:none; font-weight:normal; font-style:normal; text-align:right; " transform="" id="B.info.linePattern Piece B" y="362.097637795" x="-357.812088528">
Pattern Piece B</text>
        <text style="font-size:12; vertical-align:top; fill-opacity:1.0; fill:#000000; text-anchor:start; stroke:none; font-weight:normal; font-style:normal; text-align:right; " transform="" id="B.info.lineCut 2 Fabric" y="376.497637795" x="-357.812088528">
Cut 2 Fabric</text>
        <text style="font-size:12; vertical-align:top; fill-opacity:1.0; fill:#000000; text-anchor:start; stroke:none; font-weight:normal; font-style:normal; text-align:right; " transform="" id="B.info.line " y="390.897637795" x="-357.812088528" />
        <text style="font-size:12; vertical-align:top; fill-opacity:1.0; fill:#000000; text-anchor:start; stroke:none; font-weight:normal; font-style:normal; text-align:right; " transform="" id="B.info.lineDressFormLg" y="405.297637795" x="-357.812088528">
DressFormLg</text>
        <text style="font-size:12; vertical-align:top; fill-opacity:1.0; fill:#000000; text-anchor:start; stroke:none; font-weight:normal; font-style:normal; text-align:right; " transform="" id="B.info.line2014/12/7 19:41" y="419.697637795" x="-357.812088528">
2014/12/7 19:41</text>
      </g>
    </g>
    <g id="document.bodice.Bodice Sleeve.pattern" transform=" translate(842.071004, 2240.132645)">
      <line style="stroke-linejoin:miter; stroke:green; stroke-width:4; stroke-miterlimit:4; fill:none; " y2="1877.95275591" marker-end="url(#Arrow1Mend)" marker-start="url(#Arrow1Mstart)" transform="" x2="0.0" y1="425.196850394" x1="0.0" id="C.grainline" />
      <g id="C.letter" transform="matrix(15.000000, 0, 0, 15.000000, 4183.371587, -12029.527559)">
        <text style="font-size:24; vertical-align:top; fill-opacity:1.0; fill:#000000; text-anchor:start; stroke:none; font-weight:normal; font-style:normal; text-align:right; " transform="" id="C.letter.letterline" y="859.251968504" x="-298.812256184">
C</text>
      </g>
      <path style="stroke-linejoin:miter; stroke-dashoffset:0; stroke:green; stroke-miterlimit:4; stroke-dasharray:6,6; stroke-width:3; fill:none; " transform="" d="M 614.8277439  1286.99857154 L 390.649606299  1293.30708661 L 607.882325455  1349.0348218 " id="C.dartline" />
      <path style="stroke-linejoin:miter; stroke-dashoffset:0; stroke:green; stroke-dasharray:24,6; stroke-miterlimit:4; stroke-width:4; fill:none; " transform="" d="M 679.843920241  425.196850394 C 606.406337719  425.196850394  398.825963842  301.625148837  300.347413712  192.655936347 C 242.891574939  129.079477353  126.238811368  0.0  0.0  0.0 C -118.021008311  0.0  -239.151144385  157.609947343  -298.812256184  235.238727378 C -397.438875586  363.567950761  -670.063053583  425.196850394  -750.988327183  425.196850394 C -665.462895965  708.040579588  -576.785861223  1001.30707171  -531.496062992  1293.30708661 L -393.680703787  2181.85348149 C -175.933448293  2148.08043778  57.1822148151  2144.49885747  266.64141391  2212.91910061 L 553.396614959  1335.05734521 L 555.998308848  1311.81910054 L 558.600002737  1288.58085586 L 679.843920241  425.196850394 " id="C.seamline" />
      <path style="fill:none;stroke:#008000;stroke-width:4;stroke-linejoin:miter;stroke-miterlimit:4" d="M -3.40625,-56.21875 C -62.174436,-55.107951 -116.61943,-27.134873 -162.6125,7.6 -235.1722,62.690545 -292.37127,134.57874 -347.625,206.21875 -382.75647,247.11006 -430.6608,274.14213 -478.875,296.78125 -549.26037,328.65217 -623.88224,350.75384 -699.96875,363.6875 -724.70815,368.0234 -749.85151,369.76426 -775,368.9375 -792.25,368.9375 -809.5,368.9375 -826.75,368.9375 -740.02213,657.04724 -649.27343,944.9685 -597.02282,1241.7408 -581.8562,1331.4358 -568.84717,1421.538 -554.60075,1511.4326 -516.6132,1756.2666 -478.67877,2001.1089 -440.65625,2245.9375 -362.98031,2233.5758 -285.28532,2222.3564 -206.72349,2217.7686 -51.811728,2208.217 106.27761,2218.9998 254.45448,2268.0399 270.57382,2273.1412 286.69316,2278.2425 302.8125,2283.3438 404.77373,1971.2439 506.73328,1659.1435 608.65625,1347.0312 615.54544,1279.9118 626.37225,1213.2892 635.37402,1146.436 671.7523,887.26879 708.19752,628.11096 744.53125,368.9375 721.57045,368.67666 698.55472,369.43969 675.625,368.59375 644.53512,362.74113 615.84121,348.54983 587.67609,334.69335 517.09131,298.21566 450.45161,253.36825 390.09375,201.5 363.55862,179.11381 340.39725,153.29376 317.125,127.59375 259.11974,65.501811 194.99649,6.2995283 117.02539,-29.316189 79.28995,-46.358867 38.185209,-56.885727 -3.40625,-56.21875 z" id="C.cuttingline" inkscape:connector-curvature="0" />
      <g id="C.info" transform="">
        <text style="font-size:12; vertical-align:top; fill-opacity:1.0; fill:#000000; text-anchor:start; stroke:none; font-weight:normal; font-style:normal; text-align:right; " transform="" id="C.info.lineNext Patterns" y="930.118110236" x="-298.812256184">
Next Patterns</text>
        <text style="font-size:12; vertical-align:top; fill-opacity:1.0; fill:#000000; text-anchor:start; stroke:none; font-weight:normal; font-style:normal; text-align:right; " transform="" id="C.info.lineMR_B1" y="944.518110236" x="-298.812256184">
MR_B1</text>
        <text style="font-size:12; vertical-align:top; fill-opacity:1.0; fill:#000000; text-anchor:start; stroke:none; font-weight:normal; font-style:normal; text-align:right; " transform="" id="C.info.lineSpencer Bodice Short" y="958.918110236" x="-298.812256184">
Spencer Bodice Short</text>
        <text style="font-size:12; vertical-align:top; fill-opacity:1.0; fill:#000000; text-anchor:start; stroke:none; font-weight:normal; font-style:normal; text-align:right; " transform="" id="C.info.linePattern Piece C" y="973.318110236" x="-298.812256184">
Pattern Piece C</text>
        <text style="font-size:12; vertical-align:top; fill-opacity:1.0; fill:#000000; text-anchor:start; stroke:none; font-weight:normal; font-style:normal; text-align:right; " transform="" id="C.info.lineCut 2 Fabric" y="987.718110236" x="-298.812256184">
Cut 2 Fabric</text>
        <text style="font-size:12; vertical-align:top; fill-opacity:1.0; fill:#000000; text-anchor:start; stroke:none; font-weight:normal; font-style:normal; text-align:right; " transform="" id="C.info.line " y="1002.11811024" x="-298.812256184" />
        <text style="font-size:12; vertical-align:top; fill-opacity:1.0; fill:#000000; text-anchor:start; stroke:none; font-weight:normal; font-style:normal; text-align:right; " transform="" id="C.info.lineDressFormLg" y="1016.51811024" x="-298.812256184">
DressFormLg</text>
        <text style="font-size:12; vertical-align:top; fill-opacity:1.0; fill:#000000; text-anchor:start; stroke:none; font-weight:normal; font-style:normal; text-align:right; " transform="" id="C.info.line2014/12/7 19:41" y="1030.91811024" x="-298.812256184">
2014/12/7 19:41</text>
      </g>
    </g>
    <path style="fill:none;stroke:#000000;stroke-width:1px;stroke-linecap:butt;stroke-linejoin:miter;stroke-opacity:1" d="M 623.62187,2329.819 630.31309,2561.3353" id="path3283" inkscape:connector-curvature="0" transform="translate(-88.582677,-88.582677)" />
    <path style="fill:none;stroke:#000000;stroke-width:1px;stroke-linecap:butt;stroke-linejoin:miter;stroke-opacity:1" d="M 1236.5378,2329.819 1231.1848,2521.1879" id="path3285" inkscape:connector-curvature="0" transform="translate(-88.582677,-88.582677)" />
  </g>
  <g inkscape:label="Label-notes" id="notes" inkscape:groupmode="layer" transform="translate(88.582677,88.582677)">
    <g id="document.titleblock">
      <text style="font-size:40; vertical-align:top; fill-opacity:1.0; fill:#000000; text-anchor:right; stroke:none; font-weight:normal; font-style:normal; text-align:right; " transform="" id="company" y="0.0" x="0.0">
Next Patterns</text>
      <text style="font-size:40; vertical-align:top; fill-opacity:1.0; fill:#000000; text-anchor:right; stroke:none; font-weight:normal; font-style:normal; text-align:right; " transform="" id="designer" y="44.0" x="0.0">
S.L.Spencer</text>
      <text style="font-size:40; vertical-align:top; fill-opacity:1.0; fill:#000000; text-anchor:right; stroke:none; font-weight:normal; font-style:normal; text-align:right; " transform="" id="pattern_number" y="88.0" x="0.0">
MR_B1</text>
      <text style="font-size:40; vertical-align:top; fill-opacity:1.0; fill:#000000; text-anchor:right; stroke:none; font-weight:normal; font-style:normal; text-align:right; " transform="" id="pattern_name" y="132.0" x="0.0">
Spencer Bodice Short</text>
      <text style="font-size:40; vertical-align:top; fill-opacity:1.0; fill:#000000; text-anchor:right; stroke:none; font-weight:normal; font-style:normal; text-align:right; " transform="" id="client" y="176.0" x="0.0">
DressFormLg</text>
      <text style="font-size:40; vertical-align:top; fill-opacity:1.0; fill:#000000; text-anchor:right; stroke:none; font-weight:normal; font-style:normal; text-align:right; " transform="" id="date" y="220.0" x="0.0">
2014/12/7 19:41</text>
    </g>
    <g id="document.testgrid">
      <path style="stroke-linejoin:miter; stroke:green; stroke-width:4; stroke-miterlimit:4; fill:none; " d="M 1080.0  0.0 L 1080.0  212.598425197 M 1115.43307087  0.0 L 1115.43307087  212.598425197 M 1150.86614173  0.0 L 1150.86614173  212.598425197 M 1186.2992126  0.0 L 1186.2992126  212.598425197 M 1221.73228346  0.0 L 1221.73228346  212.598425197 M 1257.16535433  0.0 L 1257.16535433  212.598425197 M 1292.5984252  0.0 L 1292.5984252  212.598425197 M 1080.0  0.0 L 1292.5984252  0.0 M 1080.0  35.4330708661 L 1292.5984252  35.4330708661 M 1080.0  70.8661417323 L 1292.5984252  70.8661417323 M 1080.0  106.299212598 L 1292.5984252  106.299212598 M 1080.0  141.732283465 L 1292.5984252  141.732283465 M 1080.0  177.165354331 L 1292.5984252  177.165354331 M 1080.0  212.598425197 L 1292.5984252  212.598425197 M 1469.76377953  0.0 L 1469.76377953  270.0 M 1559.76377953  0.0 L 1559.76377953  270.0 M 1649.76377953  0.0 L 1649.76377953  270.0 M 1739.76377953  0.0 L 1739.76377953  270.0 M 1469.76377953  0.0 L 1739.76377953  0.0 M 1469.76377953  90.0 L 1739.76377953  90.0 M 1469.76377953  180.0 L 1739.76377953  180.0 M 1469.76377953  270.0 L 1739.76377953  270.0 " id="testgrid" />
    </g>
    <g id="document.bodice.Bodice Front.notes" transform=" translate(58.750000, 757.717638)" />
    <g id="document.bodice.Bodice Back.notes" transform=" translate(2312.108906, 580.552283)" />
    <g id="document.bodice.Bodice Sleeve.notes" transform=" translate(842.071004, 2240.132645)" />
  </g>
  <g inkscape:label="Label-reference" id="reference" inkscape:groupmode="layer" transform="translate(88.582677,88.582677)">
    <g id="document.bodice.Bodice Front.reference" transform=" translate(58.750000, 757.717638)">
      <circle style="stroke:gray; stroke-width:1; fill:none; " transform="" cy="0.0" cx="160.146981797" r="5" id="A.FNC.inpoint" d="M 165.14699,0 C 165.14699,2.7614237 162.90841,5 160.14699,5 157.38556,5 155.14699,2.7614237 155.14699,0 155.14699,-2.7614237 157.38556,-5 160.14699,-5 162.90841,-5 165.14699,-2.7614237 165.14699,0 z" />
      <text style="font-size:25; vertical-align:top; fill-opacity:1.0; fill:gray; text-anchor:right; stroke:none; font-weight:normal; font-style:italic; text-align:right; " transform="" id="A.FNC.inpoint.text" y="-7.0" x="167.146981797">
FNC.in</text>
      <circle style="stroke:red; stroke-width:1; fill:red; " transform="" cy="0.0" cx="0.0" r="5" id="A.FNC" d="M 5,0 C 5,2.7614237 2.7614237,5 0,5 -2.7614237,5 -5,2.7614237 -5,0 -5,-2.7614237 -2.7614237,-5 0,-5 2.7614237,-5 5,-2.7614237 5,0 z" />
      <text style="font-size:30; vertical-align:top; fill-opacity:1.0; fill:darkblue; text-anchor:right; stroke:none; font-weight:normal; font-style:italic; text-align:right; " transform="" id="A.FNC.text" y="-7.0" x="7.0">
FNC</text>
      <circle style="stroke:gray; stroke-width:1; fill:none; " transform="" cy="1240.15748031" cx="88.6510629953" r="5" id="A.FWC.outpoint" d="M 93.651062,1240.1575 C 93.651062,1242.9189 91.412486,1245.1575 88.651062,1245.1575 85.889638,1245.1575 83.651062,1242.9189 83.651062,1240.1575 83.651062,1237.396 85.889638,1235.1575 88.651062,1235.1575 91.412486,1235.1575 93.651062,1237.396 93.651062,1240.1575 z" />
      <text style="font-size:25; vertical-align:top; fill-opacity:1.0; fill:gray; text-anchor:right; stroke:none; font-weight:normal; font-style:italic; text-align:right; " transform="" id="A.FWC.outpoint.text" y="1233.15748031" x="95.6510629953">
FWC.out</text>
      <circle style="stroke:red; stroke-width:1; fill:red; " transform="" cy="1240.15748031" cx="0.0" r="5" id="A.FWC" d="M 5,1240.1575 C 5,1242.9189 2.7614237,1245.1575 0,1245.1575 -2.7614237,1245.1575 -5,1242.9189 -5,1240.1575 -5,1237.396 -2.7614237,1235.1575 0,1235.1575 2.7614237,1235.1575 5,1237.396 5,1240.1575 z" />
      <text style="font-size:30; vertical-align:top; fill-opacity:1.0; fill:darkblue; text-anchor:right; stroke:none; font-weight:normal; font-style:italic; text-align:right; " transform="" id="A.FWC.text" y="1233.15748031" x="7.0">
FWC</text>
      <circle style="stroke:red; stroke-width:1; fill:red; " transform="" cy="-318.897637795" cx="0.0" r="5" id="A.FSH" d="M 5,-318.89764 C 5,-316.13622 2.7614237,-313.89764 0,-313.89764 -2.7614237,-313.89764 -5,-316.13622 -5,-318.89764 -5,-321.65907 -2.7614237,-323.89764 0,-323.89764 2.7614237,-323.89764 5,-321.65907 5,-318.89764 z" />
      <text style="font-size:30; vertical-align:top; fill-opacity:1.0; fill:darkblue; text-anchor:right; stroke:none; font-weight:normal; font-style:italic; text-align:right; " transform="" id="A.FSH.text" y="-325.897637795" x="7.0">
FSH</text>
      <circle style="stroke:red; stroke-width:1; fill:red; " transform="" cy="-318.897637795" cx="717.519685039" r="5" id="A.FSW" d="M 722.51971,-318.89764 C 722.51971,-316.13622 720.28114,-313.89764 717.51971,-313.89764 714.75829,-313.89764 712.51971,-316.13622 712.51971,-318.89764 712.51971,-321.65907 714.75829,-323.89764 717.51971,-323.89764 720.28114,-323.89764 722.51971,-321.65907 722.51971,-318.89764 z" />
      <text style="font-size:30; vertical-align:top; fill-opacity:1.0; fill:darkblue; text-anchor:right; stroke:none; font-weight:normal; font-style:italic; text-align:right; " transform="" id="A.FSW.text" y="-325.897637795" x="724.519685039">
FSW</text>
      <circle style="stroke:gray; stroke-width:1; fill:none; " transform="" cy="-166.013360476" cx="705.363247815" r="5" id="A.FSP.inpoint" d="M 710.36322,-166.01337 C 710.36322,-163.25194 708.12464,-161.01337 705.36322,-161.01337 702.6018,-161.01337 700.36322,-163.25194 700.36322,-166.01337 700.36322,-168.77479 702.6018,-171.01337 705.36322,-171.01337 708.12464,-171.01337 710.36322,-168.77479 710.36322,-166.01337 z" />
      <text style="font-size:25; vertical-align:top; fill-opacity:1.0; fill:gray; text-anchor:right; stroke:none; font-weight:normal; font-style:italic; text-align:right; " transform="" id="A.FSP.inpoint.text" y="-173.013360476" x="712.363247815">
FSP.in</text>
      <circle style="stroke:red; stroke-width:1; fill:red; " transform="" cy="-223.334513127" cx="717.519685039" r="5" id="A.FSP" d="M 722.51971,-223.33452 C 722.51971,-220.57309 720.28114,-218.33452 717.51971,-218.33452 714.75829,-218.33452 712.51971,-220.57309 712.51971,-223.33452 712.51971,-226.09594 714.75829,-228.33452 717.51971,-228.33452 720.28114,-228.33452 722.51971,-226.09594 722.51971,-223.33452 z" />
      <text style="font-size:30; vertical-align:top; fill-opacity:1.0; fill:darkblue; text-anchor:right; stroke:none; font-weight:normal; font-style:italic; text-align:right; " transform="" id="A.FSP.text" y="-230.334513127" x="724.519685039">
FSP</text>
      <circle style="stroke:gray; stroke-width:1; fill:none; " transform="" cy="-162.917928626" cx="233.832093174" r="5" id="A.FNS.outpoint" d="M 238.83209,-162.91792 C 238.83209,-160.1565 236.59352,-157.91792 233.83209,-157.91792 231.07067,-157.91792 228.83209,-160.1565 228.83209,-162.91792 228.83209,-165.67935 231.07067,-167.91792 233.83209,-167.91792 236.59352,-167.91792 238.83209,-165.67935 238.83209,-162.91792 z" />
      <text style="font-size:25; vertical-align:top; fill-opacity:1.0; fill:gray; text-anchor:right; stroke:none; font-weight:normal; font-style:italic; text-align:right; " transform="" id="A.FNS.outpoint.text" y="-169.917928626" x="240.832093174">
FNS.out</text>
      <circle style="stroke:red; stroke-width:1; fill:red; " transform="" cy="-318.897637795" cx="266.911636328" r="5" id="A.FNS" d="M 271.91162,-318.89764 C 271.91162,-316.13622 269.67304,-313.89764 266.91162,-313.89764 264.1502,-313.89764 261.91162,-316.13622 261.91162,-318.89764 261.91162,-321.65907 264.1502,-323.89764 266.91162,-323.89764 269.67304,-323.89764 271.91162,-321.65907 271.91162,-318.89764 z" />
      <text style="font-size:30; vertical-align:top; fill-opacity:1.0; fill:darkblue; text-anchor:right; stroke:none; font-weight:normal; font-style:italic; text-align:right; " transform="" id="A.FNS.text" y="-325.897637795" x="273.911636328">
FNS</text>
      <circle style="stroke:red; stroke-width:1; fill:red; " transform="" cy="318.897637795" cx="0.0" r="5" id="A.FUC" d="M 5,318.89764 C 5,321.65907 2.7614237,323.89764 0,323.89764 -2.7614237,323.89764 -5,321.65907 -5,318.89764 -5,316.13622 -2.7614237,313.89764 0,313.89764 2.7614237,313.89764 5,316.13622 5,318.89764 z" />
      <text style="font-size:30; vertical-align:top; fill-opacity:1.0; fill:darkblue; text-anchor:right; stroke:none; font-weight:normal; font-style:italic; text-align:right; " transform="" id="A.FUC.text" y="311.897637795" x="7.0">
FUC</text>
      <circle style="stroke:red; stroke-width:1; fill:red; " transform="" cy="637.795275591" cx="0.0" r="5" id="A.FBC" d="M 5,637.79529 C 5,640.55671 2.7614237,642.79529 0,642.79529 -2.7614237,642.79529 -5,640.55671 -5,637.79529 -5,635.03386 -2.7614237,632.79529 0,632.79529 2.7614237,632.79529 5,635.03386 5,637.79529 z" />
      <text style="font-size:30; vertical-align:top; fill-opacity:1.0; fill:darkblue; text-anchor:right; stroke:none; font-weight:normal; font-style:italic; text-align:right; " transform="" id="A.FBC.text" y="630.795275591" x="7.0">
FBC</text>
      <circle style="stroke:red; stroke-width:1; fill:red; " transform="" cy="637.795275591" cx="354.330708661" r="5" id="A.FBP" d="M 359.33072,637.79529 C 359.33072,640.55671 357.09214,642.79529 354.33072,642.79529 351.5693,642.79529 349.33072,640.55671 349.33072,637.79529 349.33072,635.03386 351.5693,632.79529 354.33072,632.79529 357.09214,632.79529 359.33072,635.03386 359.33072,637.79529 z" />
      <text style="font-size:30; vertical-align:top; fill-opacity:1.0; fill:darkblue; text-anchor:right; stroke:none; font-weight:normal; font-style:italic; text-align:right; " transform="" id="A.FBP.text" y="630.795275591" x="361.330708661">
FBP</text>
      <circle style="stroke:red; stroke-width:1; fill:red; " transform="" cy="318.897637795" cx="673.228346457" r="5" id="A.f10" d="M 678.22833,318.89764 C 678.22833,321.65907 675.98976,323.89764 673.22833,323.89764 670.46691,323.89764 668.22833,321.65907 668.22833,318.89764 668.22833,316.13622 670.46691,313.89764 673.22833,313.89764 675.98976,313.89764 678.22833,316.13622 678.22833,318.89764 z" />
      <text style="font-size:30; vertical-align:top; fill-opacity:1.0; fill:darkblue; text-anchor:right; stroke:none; font-weight:normal; font-style:italic; text-align:right; " transform="" id="A.f10.text" y="311.897637795" x="680.228346457">
f10</text>
      <circle style="stroke:red; stroke-width:1; fill:red; " transform="" cy="159.448818898" cx="0.0" r="5" id="A.FAC" d="M 5,159.44882 C 5,162.21025 2.7614237,164.44882 0,164.44882 -2.7614237,164.44882 -5,162.21025 -5,159.44882 -5,156.6874 -2.7614237,154.44882 0,154.44882 2.7614237,154.44882 5,156.6874 5,159.44882 z" />
      <text style="font-size:30; vertical-align:top; fill-opacity:1.0; fill:darkblue; text-anchor:right; stroke:none; font-weight:normal; font-style:italic; text-align:right; " transform="" id="A.FAC.text" y="152.448818898" x="7.0">
FAC</text>
      <circle style="stroke:gray; stroke-width:1; fill:none; " transform="" cy="372.404562614" cx="639.566929134" r="5" id="A.FAP.inpoint" d="M 644.56696,372.40457 C 644.56696,375.166 642.32838,377.40457 639.56696,377.40457 636.80553,377.40457 634.56696,375.166 634.56696,372.40457 634.56696,369.64315 636.80553,367.40457 639.56696,367.40457 642.32838,367.40457 644.56696,369.64315 644.56696,372.40457 z" />
      <text style="font-size:25; vertical-align:top; fill-opacity:1.0; fill:gray; text-anchor:right; stroke:none; font-weight:normal; font-style:italic; text-align:right; " transform="" id="A.FAP.inpoint.text" y="365.404562614" x="646.566929134">
FAP.in</text>
      <circle style="stroke:gray; stroke-width:1; fill:none; " transform="" cy="30.5375758868" cx="639.566929134" r="5" id="A.FAP.outpoint" d="M 644.56696,30.537577 C 644.56696,33.299 642.32838,35.537577 639.56696,35.537577 636.80553,35.537577 634.56696,33.299 634.56696,30.537577 634.56696,27.776153 636.80553,25.537577 639.56696,25.537577 642.32838,25.537577 644.56696,27.776153 644.56696,30.537577 z" />
      <text style="font-size:25; vertical-align:top; fill-opacity:1.0; fill:gray; text-anchor:right; stroke:none; font-weight:normal; font-style:italic; text-align:right; " transform="" id="A.FAP.outpoint.text" y="23.5375758868" x="646.566929134">
FAP.out</text>
      <circle style="stroke:red; stroke-width:1; fill:red; " transform="" cy="159.448818898" cx="639.566929134" r="5" id="A.FAP" d="M 644.56696,159.44882 C 644.56696,162.21025 642.32838,164.44882 639.56696,164.44882 636.80553,164.44882 634.56696,162.21025 634.56696,159.44882 634.56696,156.6874 636.80553,154.44882 639.56696,154.44882 642.32838,154.44882 644.56696,156.6874 644.56696,159.44882 z" />
      <text style="font-size:30; vertical-align:top; fill-opacity:1.0; fill:darkblue; text-anchor:right; stroke:none; font-weight:normal; font-style:italic; text-align:right; " transform="" id="A.FAP.text" y="152.448818898" x="646.566929134">
FAP</text>
      <circle style="stroke:red; stroke-width:1; fill:red; " transform="" cy="318.897637795" cx="921.25984252" r="5" id="A.f1" d="M 926.25983,318.89764 C 926.25983,321.65907 924.02125,323.89764 921.25983,323.89764 918.4984,323.89764 916.25983,321.65907 916.25983,318.89764 916.25983,316.13622 918.4984,313.89764 921.25983,313.89764 924.02125,313.89764 926.25983,316.13622 926.25983,318.89764 z" />
      <text style="font-size:30; vertical-align:top; fill-opacity:1.0; fill:darkblue; text-anchor:right; stroke:none; font-weight:normal; font-style:italic; text-align:right; " transform="" id="A.f1.text" y="311.897637795" x="928.25984252">
f1</text>
      <circle style="stroke:red; stroke-width:1; fill:red; " transform="" cy="440.379318512" cx="960.803917844" r="5" id="A.f2" d="M 965.80389,440.37933 C 965.80389,443.14076 963.56532,445.37933 960.80389,445.37933 958.04247,445.37933 955.80389,443.14076 955.80389,440.37933 955.80389,437.61791 958.04247,435.37933 960.80389,435.37933 963.56532,435.37933 965.80389,437.61791 965.80389,440.37933 z" />
      <text style="font-size:30; vertical-align:top; fill-opacity:1.0; fill:darkblue; text-anchor:right; stroke:none; font-weight:normal; font-style:italic; text-align:right; " transform="" id="A.f2.text" y="433.379318512" x="967.803917844">
f2</text>
      <circle style="stroke:red; stroke-width:1; fill:red; " transform="" cy="992.756759109" cx="1140.61090594" r="5" id="A.f3" d="M 1145.611,992.75677 C 1145.611,995.5182 1143.3724,997.75677 1140.611,997.75677 1137.8495,997.75677 1135.611,995.5182 1135.611,992.75677 1135.611,989.99535 1137.8495,987.75677 1140.611,987.75677 1143.3724,987.75677 1145.611,989.99535 1145.611,992.75677 z" />
      <text style="font-size:30; vertical-align:top; fill-opacity:1.0; fill:darkblue; text-anchor:right; stroke:none; font-weight:normal; font-style:italic; text-align:right; " transform="" id="A.f3.text" y="985.756759109" x="1147.61090594">
f3</text>
      <circle style="stroke:red; stroke-width:1; fill:red; " transform="" cy="1240.15748031" cx="354.330708661" r="5" id="A.f4" d="M 359.33072,1240.1575 C 359.33072,1242.9189 357.09214,1245.1575 354.33072,1245.1575 351.5693,1245.1575 349.33072,1242.9189 349.33072,1240.1575 349.33072,1237.396 351.5693,1235.1575 354.33072,1235.1575 357.09214,1235.1575 359.33072,1237.396 359.33072,1240.1575 z" />
      <text style="font-size:30; vertical-align:top; fill-opacity:1.0; fill:darkblue; text-anchor:right; stroke:none; font-weight:normal; font-style:italic; text-align:right; " transform="" id="A.f4.text" y="1233.15748031" x="361.330708661">
f4</text>
      <circle style="stroke:red; stroke-width:1; fill:red; " transform="" cy="1150.61284812" cx="670.334447545" r="5" id="A.f5" d="M 675.33447,1150.6128 C 675.33447,1153.3742 673.0959,1155.6128 670.33447,1155.6128 667.57305,1155.6128 665.33447,1153.3742 665.33447,1150.6128 665.33447,1147.8514 667.57305,1145.6128 670.33447,1145.6128 673.0959,1145.6128 675.33447,1147.8514 675.33447,1150.6128 z" />
      <text style="font-size:30; vertical-align:top; fill-opacity:1.0; fill:darkblue; text-anchor:right; stroke:none; font-weight:normal; font-style:italic; text-align:right; " transform="" id="A.f5.text" y="1143.61284812" x="677.334447545">
f5</text>
      <circle style="stroke:red; stroke-width:1; fill:red; " transform="" cy="985.130882295" cx="1164.03803945" r="5" id="A.f6" d="M 1169.0381,985.13086 C 1169.0381,987.89228 1166.7995,990.13086 1164.0381,990.13086 1161.2767,990.13086 1159.0381,987.89228 1159.0381,985.13086 1159.0381,982.36944 1161.2767,980.13086 1164.0381,980.13086 1166.7995,980.13086 1169.0381,982.36944 1169.0381,985.13086 z" />
      <text style="font-size:30; vertical-align:top; fill-opacity:1.0; fill:darkblue; text-anchor:right; stroke:none; font-weight:normal; font-style:italic; text-align:right; " transform="" id="A.f6.text" y="978.130882295" x="1171.03803945">
f6</text>
      <circle style="stroke:red; stroke-width:1; fill:red; " transform="" cy="308.91716441" cx="951.920432539" r="5" id="A.f7" d="M 956.92041,308.91718 C 956.92041,311.6786 954.68183,313.91718 951.92041,313.91718 949.15899,313.91718 946.92041,311.6786 946.92041,308.91718 946.92041,306.15575 949.15899,303.91718 951.92041,303.91718 954.68183,303.91718 956.92041,306.15575 956.92041,308.91718 z" />
      <text style="font-size:30; vertical-align:top; fill-opacity:1.0; fill:darkblue; text-anchor:right; stroke:none; font-weight:normal; font-style:italic; text-align:right; " transform="" id="A.f7.text" y="301.91716441" x="958.920432539">
f7</text>
      <circle style="stroke:red; stroke-width:1; fill:red; " transform="" cy="430.82332606" cx="990.160477948" r="5" id="A.FBS" d="M 995.16046,430.82333 C 995.16046,433.58476 992.92189,435.82333 990.16046,435.82333 987.39904,435.82333 985.16046,433.58476 985.16046,430.82333 985.16046,428.06191 987.39904,425.82333 990.16046,425.82333 992.92189,425.82333 995.16046,428.06191 995.16046,430.82333 z" />
      <text style="font-size:30; vertical-align:top; fill-opacity:1.0; fill:darkblue; text-anchor:right; stroke:none; font-weight:normal; font-style:italic; text-align:right; " transform="" id="A.FBS.text" y="423.82332606" x="997.160477948">
FBS</text>
      <circle style="stroke:gray; stroke-width:1; fill:none; " transform="" cy="463.076114248" cx="821.738234984" r="5" id="A.FUS.outpoint" d="M 826.73822,463.07611 C 826.73822,465.83753 824.49964,468.07611 821.73822,468.07611 818.9768,468.07611 816.73822,465.83753 816.73822,463.07611 816.73822,460.31469 818.9768,458.07611 821.73822,458.07611 824.49964,458.07611 826.73822,460.31469 826.73822,463.07611 z" />
      <text style="font-size:25; vertical-align:top; fill-opacity:1.0; fill:gray; text-anchor:right; stroke:none; font-weight:normal; font-style:italic; text-align:right; " transform="" id="A.FUS.outpoint.text" y="456.076114248" x="828.738234984">
FUS.out</text>
      <circle style="stroke:red; stroke-width:1; fill:red; " transform="" cy="410.343378751" cx="983.736240613" r="5" id="A.FUS" d="M 988.73627,410.34338 C 988.73627,413.10481 986.49769,415.34338 983.73627,415.34338 980.97484,415.34338 978.73627,413.10481 978.73627,410.34338 978.73627,407.58196 980.97484,405.34338 983.73627,405.34338 986.49769,405.34338 988.73627,407.58196 988.73627,410.34338 z" />
      <text style="font-size:30; vertical-align:top; fill-opacity:1.0; fill:darkblue; text-anchor:right; stroke:none; font-weight:normal; font-style:italic; text-align:right; " transform="" id="A.FUS.text" y="403.343378751" x="990.736240613">
FUS</text>
      <circle style="stroke:gray; stroke-width:1; fill:none; " transform="" cy="1206.62791188" cx="840.663085938" r="5" id="A.FWS.inpoint" d="M 845.66309,1206.6279 C 845.66309,1209.3894 843.42451,1211.6279 840.66309,1211.6279 837.90166,1211.6279 835.66309,1209.3894 835.66309,1206.6279 835.66309,1203.8665 837.90166,1201.6279 840.66309,1201.6279 843.42451,1201.6279 845.66309,1203.8665 845.66309,1206.6279 z" />
      <text style="font-size:25; vertical-align:top; fill-opacity:1.0; fill:gray; text-anchor:right; stroke:none; font-weight:normal; font-style:italic; text-align:right; " transform="" id="A.FWS.inpoint.text" y="1199.62791188" x="847.663085938">
FWS.in</text>
      <circle style="stroke:red; stroke-width:1; fill:red; " transform="" cy="1192.7249741" cx="1038.67054744" r="5" id="A.FWS" d="M 1043.6705,1192.725 C 1043.6705,1195.4864 1041.432,1197.725 1038.6705,1197.725 1035.9091,1197.725 1033.6705,1195.4864 1033.6705,1192.725 1033.6705,1189.9636 1035.9091,1187.725 1038.6705,1187.725 1041.432,1187.725 1043.6705,1189.9636 1043.6705,1192.725 z" />
      <text style="font-size:30; vertical-align:top; fill-opacity:1.0; fill:darkblue; text-anchor:right; stroke:none; font-weight:normal; font-style:italic; text-align:right; " transform="" id="A.FWS.text" y="1185.7249741" x="1045.67054744">
FWS</text>
      <circle style="stroke:red; stroke-width:1; fill:red; " transform="" cy="649.368247433" cx="437.620968391" r="5" id="A.FD2" d="M 442.62097,649.36823 C 442.62097,652.12965 440.3824,654.36823 437.62097,654.36823 434.85955,654.36823 432.62097,652.12965 432.62097,649.36823 432.62097,646.6068 434.85955,644.36823 437.62097,644.36823 440.3824,644.36823 442.62097,646.6068 442.62097,649.36823 z" />
      <text style="font-size:30; vertical-align:top; fill-opacity:1.0; fill:darkblue; text-anchor:right; stroke:none; font-weight:normal; font-style:italic; text-align:right; " transform="" id="A.FD2.text" y="642.368247433" x="444.620968391">
FD2</text>
      <circle style="stroke:red; stroke-width:1; fill:red; " transform="" cy="637.72885512" cx="1058.6281151" r="5" id="A.FD2.i" d="M 1063.6282,637.72888 C 1063.6282,640.49031 1061.3896,642.72888 1058.6282,642.72888 1055.8668,642.72888 1053.6282,640.49031 1053.6282,637.72888 1053.6282,634.96746 1055.8668,632.72888 1058.6282,632.72888 1061.3896,632.72888 1063.6282,634.96746 1063.6282,637.72888 z" />
      <text style="font-size:30; vertical-align:top; fill-opacity:1.0; fill:darkblue; text-anchor:right; stroke:none; font-weight:normal; font-style:italic; text-align:right; " transform="" id="A.FD2.i.text" y="630.72885512" x="1065.6281151">
FD2.i</text>
      <circle style="stroke:red; stroke-width:1; fill:red; " transform="" cy="829.872789912" cx="1031.93019923" r="5" id="A.FD2.o" d="M 1036.9302,829.8728 C 1036.9302,832.63423 1034.6916,834.8728 1031.9302,834.8728 1029.1688,834.8728 1026.9302,832.63423 1026.9302,829.8728 1026.9302,827.11138 1029.1688,824.8728 1031.9302,824.8728 1034.6916,824.8728 1036.9302,827.11138 1036.9302,829.8728 z" />
      <text style="font-size:30; vertical-align:top; fill-opacity:1.0; fill:darkblue; text-anchor:right; stroke:none; font-weight:normal; font-style:italic; text-align:right; " transform="" id="A.FD2.o.text" y="822.872789912" x="1038.93019923">
FD2.o</text>
      <circle style="stroke:red; stroke-width:1; fill:red; " transform="" cy="1240.15748031" cx="270.633997225" r="5" id="A.f8" d="M 275.634,1240.1575 C 275.634,1242.9189 273.39543,1245.1575 270.634,1245.1575 267.87258,1245.1575 265.634,1242.9189 265.634,1240.1575 265.634,1237.396 267.87258,1235.1575 270.634,1235.1575 273.39543,1235.1575 275.634,1237.396 275.634,1240.1575 z" />
      <text style="font-size:30; vertical-align:top; fill-opacity:1.0; fill:darkblue; text-anchor:right; stroke:none; font-weight:normal; font-style:italic; text-align:right; " transform="" id="A.f8.text" y="1233.15748031" x="277.633997225">
f8</text>
      <circle style="stroke:red; stroke-width:1; fill:red; " transform="" cy="1240.15748031" cx="438.027420098" r="5" id="A.f9" d="M 443.02744,1240.1575 C 443.02744,1242.9189 440.78886,1245.1575 438.02744,1245.1575 435.26601,1245.1575 433.02744,1242.9189 433.02744,1240.1575 433.02744,1237.396 435.26601,1235.1575 438.02744,1235.1575 440.78886,1235.1575 443.02744,1237.396 443.02744,1240.1575 z" />
      <text style="font-size:30; vertical-align:top; fill-opacity:1.0; fill:darkblue; text-anchor:right; stroke:none; font-weight:normal; font-style:italic; text-align:right; " transform="" id="A.f9.text" y="1233.15748031" x="445.027420098">
f9</text>
      <circle style="stroke:red; stroke-width:1; fill:red; " transform="" cy="710.078740157" cx="354.330708661" r="5" id="A.FD1" d="M 359.33072,710.07874 C 359.33072,712.84016 357.09214,715.07874 354.33072,715.07874 351.5693,715.07874 349.33072,712.84016 349.33072,710.07874 349.33072,707.31731 351.5693,705.07874 354.33072,705.07874 357.09214,705.07874 359.33072,707.31731 359.33072,710.07874 z" />
      <text style="font-size:30; vertical-align:top; fill-opacity:1.0; fill:darkblue; text-anchor:right; stroke:none; font-weight:normal; font-style:italic; text-align:right; " transform="" id="A.FD1.text" y="703.078740157" x="361.330708661">
FD1</text>
      <circle style="stroke:gray; stroke-width:1; fill:none; " transform="" cy="1240.15748031" cx="170.37146643" r="5" id="A.FD1.i.inpoint" d="M 175.37146,1240.1575 C 175.37146,1242.9189 173.13288,1245.1575 170.37146,1245.1575 167.61004,1245.1575 165.37146,1242.9189 165.37146,1240.1575 165.37146,1237.396 167.61004,1235.1575 170.37146,1235.1575 173.13288,1235.1575 175.37146,1237.396 175.37146,1240.1575 z" />
      <text style="font-size:25; vertical-align:top; fill-opacity:1.0; fill:gray; text-anchor:right; stroke:none; font-weight:normal; font-style:italic; text-align:right; " transform="" id="A.FD1.i.inpoint.text" y="1233.15748031" x="177.37146643">
FD1.i.in</text>
      <circle style="stroke:red; stroke-width:1; fill:red; " transform="" cy="1255.60334164" cx="268.195175027" r="5" id="A.FD1.i" d="M 273.19516,1255.6034 C 273.19516,1258.3648 270.95658,1260.6034 268.19516,1260.6034 265.43374,1260.6034 263.19516,1258.3648 263.19516,1255.6034 263.19516,1252.842 265.43374,1250.6034 268.19516,1250.6034 270.95658,1250.6034 273.19516,1252.842 273.19516,1255.6034 z" />
      <text style="font-size:30; vertical-align:top; fill-opacity:1.0; fill:darkblue; text-anchor:right; stroke:none; font-weight:normal; font-style:italic; text-align:right; " transform="" id="A.FD1.i.text" y="1248.60334164" x="275.195175027">
FD1.i</text>
      <circle style="stroke:gray; stroke-width:1; fill:none; " transform="" cy="1224.31767642" cx="638.608627086" r="5" id="A.FD1.o.outpoint" d="M 643.60864,1224.3176 C 643.60864,1227.0791 641.37007,1229.3176 638.60864,1229.3176 635.84722,1229.3176 633.60864,1227.0791 633.60864,1224.3176 633.60864,1221.5562 635.84722,1219.3176 638.60864,1219.3176 641.37007,1219.3176 643.60864,1221.5562 643.60864,1224.3176 z" />
      <text style="font-size:25; vertical-align:top; fill-opacity:1.0; fill:gray; text-anchor:right; stroke:none; font-weight:normal; font-style:italic; text-align:right; " transform="" id="A.FD1.o.outpoint.text" y="1217.31767642" x="645.608627086">
FD1.o.out</text>
      <circle style="stroke:red; stroke-width:1; fill:red; " transform="" cy="1255.60334164" cx="440.466242295" r="5" id="A.FD1.o" d="M 445.46625,1255.6034 C 445.46625,1258.3648 443.22767,1260.6034 440.46625,1260.6034 437.70482,1260.6034 435.46625,1258.3648 435.46625,1255.6034 435.46625,1252.842 437.70482,1250.6034 440.46625,1250.6034 443.22767,1250.6034 445.46625,1252.842 445.46625,1255.6034 z" />
      <text style="font-size:30; vertical-align:top; fill-opacity:1.0; fill:darkblue; text-anchor:right; stroke:none; font-weight:normal; font-style:italic; text-align:right; " transform="" id="A.FD1.o.text" y="1248.60334164" x="447.466242295">
FD1.o</text>
      <path style="stroke-linejoin:miter; stroke-dashoffset:0; stroke:gray; stroke-miterlimit:4; stroke-dasharray:6,6; stroke-width:2; fill:none; " transform="" d="M 0.0  1240.15748031 L 717.519685039  -223.334513127 L 717.519685039  -318.897637795 L 0.0  -318.897637795 L 0.0  0.0 M 0.0  637.795275591 L 354.330708661  637.795275591 L 990.160477948  430.82332606 M 0.0  318.897637795 L 921.25984252  318.897637795 L 951.920432539  308.91716441 L 1164.03803945  985.130882295 L 1140.61090594  992.756759109 L 921.25984252  318.897637795 M 0.0  1240.15748031 L 354.330708661  1240.15748031 L 354.330708661  637.795275591 L 670.334447545  1150.61284812 L 1140.61090594  992.756759109 M 354.330708661  637.795275591 L 437.620968391  649.368247433 " id="A.gridline" />
    </g>
    <g id="document.bodice.Bodice Back.reference" transform=" translate(2312.108906, 580.552283)">
      <circle style="stroke:gray; stroke-width:1; fill:none; " transform="" cy="0.0" cx="-213.353231784" r="5" id="B.BNC.inpoint" d="M -208.35323,0 C -208.35323,2.7614237 -210.5918,5 -213.35323,5 -216.11465,5 -218.35323,2.7614237 -218.35323,0 -218.35323,-2.7614237 -216.11465,-5 -213.35323,-5 -210.5918,-5 -208.35323,-2.7614237 -208.35323,0 z" />
      <text style="font-size:25; vertical-align:top; fill-opacity:1.0; fill:gray; text-anchor:right; stroke:none; font-weight:normal; font-style:italic; text-align:right; " transform="" id="B.BNC.inpoint.text" y="-7.0" x="-206.353231784">
BNC.in</text>
      <circle style="stroke:red; stroke-width:1; fill:red; " transform="" cy="0.0" cx="0.0" r="5" id="B.BNC" d="M 5,0 C 5,2.7614237 2.7614237,5 0,5 -2.7614237,5 -5,2.7614237 -5,0 -5,-2.7614237 -2.7614237,-5 0,-5 2.7614237,-5 5,-2.7614237 5,0 z" />
      <text style="font-size:30; vertical-align:top; fill-opacity:1.0; fill:darkblue; text-anchor:right; stroke:none; font-weight:normal; font-style:italic; text-align:right; " transform="" id="B.BNC.text" y="-7.0" x="7.0">
BNC</text>
      <circle style="stroke:gray; stroke-width:1; fill:none; " transform="" cy="1346.45669291" cx="-101.067774363" r="5" id="B.BWC.outpoint" d="M -96.067772,1346.4567 C -96.067772,1349.2181 -98.306348,1351.4567 -101.06777,1351.4567 -103.8292,1351.4567 -106.06777,1349.2181 -106.06777,1346.4567 -106.06777,1343.6952 -103.8292,1341.4567 -101.06777,1341.4567 -98.306348,1341.4567 -96.067772,1343.6952 -96.067772,1346.4567 z" />
      <text style="font-size:25; vertical-align:top; fill-opacity:1.0; fill:gray; text-anchor:right; stroke:none; font-weight:normal; font-style:italic; text-align:right; " transform="" id="B.BWC.outpoint.text" y="1339.45669291" x="-94.0677743631">
BWC.out</text>
      <circle style="stroke:red; stroke-width:1; fill:red; " transform="" cy="1346.45669291" cx="0.0" r="5" id="B.BWC" d="M 5,1346.4567 C 5,1349.2181 2.7614237,1351.4567 0,1351.4567 -2.7614237,1351.4567 -5,1349.2181 -5,1346.4567 -5,1343.6952 -2.7614237,1341.4567 0,1341.4567 2.7614237,1341.4567 5,1343.6952 5,1346.4567 z" />
      <text style="font-size:30; vertical-align:top; fill-opacity:1.0; fill:darkblue; text-anchor:right; stroke:none; font-weight:normal; font-style:italic; text-align:right; " transform="" id="B.BWC.text" y="1339.45669291" x="7.0">
BWC</text>
      <circle style="stroke:red; stroke-width:1; fill:red; " transform="" cy="-141.732283465" cx="0.0" r="5" id="B.BSH" d="M 5,-141.73228 C 5,-138.97086 2.7614237,-136.73228 0,-136.73228 -2.7614237,-136.73228 -5,-138.97086 -5,-141.73228 -5,-144.49371 -2.7614237,-146.73228 0,-146.73228 2.7614237,-146.73228 5,-144.49371 5,-141.73228 z" />
      <text style="font-size:30; vertical-align:top; fill-opacity:1.0; fill:darkblue; text-anchor:right; stroke:none; font-weight:normal; font-style:italic; text-align:right; " transform="" id="B.BSH.text" y="-148.732283465" x="7.0">
BSH</text>
      <circle style="stroke:red; stroke-width:1; fill:red; " transform="" cy="-141.732283465" cx="-708.661417323" r="5" id="B.BSW" d="M -703.66144,-141.73228 C -703.66144,-138.97086 -705.90001,-136.73228 -708.66144,-136.73228 -711.42286,-136.73228 -713.66144,-138.97086 -713.66144,-141.73228 -713.66144,-144.49371 -711.42286,-146.73228 -708.66144,-146.73228 -705.90001,-146.73228 -703.66144,-144.49371 -703.66144,-141.73228 z" />
      <text style="font-size:30; vertical-align:top; fill-opacity:1.0; fill:darkblue; text-anchor:right; stroke:none; font-weight:normal; font-style:italic; text-align:right; " transform="" id="B.BSW.text" y="-148.732283465" x="-701.661417323">
BSW</text>
      <circle style="stroke:gray; stroke-width:1; fill:none; " transform="" cy="130.711716533" cx="-690.415334864" r="5" id="B.BSP.inpoint" d="M -685.41534,130.71172 C -685.41534,133.47314 -687.65392,135.71172 -690.41534,135.71172 -693.17677,135.71172 -695.41534,133.47314 -695.41534,130.71172 -695.41534,127.95029 -693.17677,125.71172 -690.41534,125.71172 -687.65392,125.71172 -685.41534,127.95029 -685.41534,130.71172 z" />
      <text style="font-size:25; vertical-align:top; fill-opacity:1.0; fill:gray; text-anchor:right; stroke:none; font-weight:normal; font-style:italic; text-align:right; " transform="" id="B.BSP.inpoint.text" y="123.711716533" x="-683.415334864">
BSP.in</text>
      <circle style="stroke:red; stroke-width:1; fill:red; " transform="" cy="82.1684498171" cx="-715.624177057" r="5" id="B.BSP" d="M -710.62421,82.168449 C -710.62421,84.929873 -712.86278,87.168449 -715.62421,87.168449 -718.38563,87.168449 -720.62421,84.929873 -720.62421,82.168449 -720.62421,79.407026 -718.38563,77.168449 -715.62421,77.168449 -712.86278,77.168449 -710.62421,79.407026 -710.62421,82.168449 z" />
      <text style="font-size:30; vertical-align:top; fill-opacity:1.0; fill:darkblue; text-anchor:right; stroke:none; font-weight:normal; font-style:italic; text-align:right; " transform="" id="B.BSP.text" y="75.1684498171" x="-708.624177057">
BSP</text>
      <circle style="stroke:gray; stroke-width:1; fill:none; " transform="" cy="-78.3927191927" cx="-252.688753608" r="5" id="B.BNS.outpoint" d="M -247.68875,-78.392715 C -247.68875,-75.631292 -249.92733,-73.392715 -252.68875,-73.392715 -255.45017,-73.392715 -257.68875,-75.631292 -257.68875,-78.392715 -257.68875,-81.154139 -255.45017,-83.392715 -252.68875,-83.392715 -249.92733,-83.392715 -247.68875,-81.154139 -247.68875,-78.392715 z" />
      <text style="font-size:25; vertical-align:top; fill-opacity:1.0; fill:gray; text-anchor:right; stroke:none; font-weight:normal; font-style:italic; text-align:right; " transform="" id="B.BNS.outpoint.text" y="-85.3927191927" x="-245.688753608">
BNS.out</text>
      <circle style="stroke:red; stroke-width:1; fill:red; " transform="" cy="-141.732283465" cx="-284.470975712" r="5" id="B.BNS" d="M -279.47098,-141.73228 C -279.47098,-138.97086 -281.70955,-136.73228 -284.47098,-136.73228 -287.2324,-136.73228 -289.47098,-138.97086 -289.47098,-141.73228 -289.47098,-144.49371 -287.2324,-146.73228 -284.47098,-146.73228 -281.70955,-146.73228 -279.47098,-144.49371 -279.47098,-141.73228 z" />
      <text style="font-size:30; vertical-align:top; fill-opacity:1.0; fill:darkblue; text-anchor:right; stroke:none; font-weight:normal; font-style:italic; text-align:right; " transform="" id="B.BNS.text" y="-148.732283465" x="-277.470975712">
BNS</text>
      <circle style="stroke:red; stroke-width:1; fill:red; " transform="" cy="637.795275591" cx="0.0" r="5" id="B.BUC" d="M 5,637.79529 C 5,640.55671 2.7614237,642.79529 0,642.79529 -2.7614237,642.79529 -5,640.55671 -5,637.79529 -5,635.03386 -2.7614237,632.79529 0,632.79529 2.7614237,632.79529 5,635.03386 5,637.79529 z" />
      <text style="font-size:30; vertical-align:top; fill-opacity:1.0; fill:darkblue; text-anchor:right; stroke:none; font-weight:normal; font-style:italic; text-align:right; " transform="" id="B.BUC.text" y="630.795275591" x="7.0">
BUC</text>
      <circle style="stroke:red; stroke-width:1; fill:red; " transform="" cy="637.795275591" cx="-627.342519685" r="5" id="B.b7" d="M -622.34253,637.79529 C -622.34253,640.55671 -624.58111,642.79529 -627.34253,642.79529 -630.10395,642.79529 -632.34253,640.55671 -632.34253,637.79529 -632.34253,635.03386 -630.10395,632.79529 -627.34253,632.79529 -624.58111,632.79529 -622.34253,635.03386 -622.34253,637.79529 z" />
      <text style="font-size:30; vertical-align:top; fill-opacity:1.0; fill:darkblue; text-anchor:right; stroke:none; font-weight:normal; font-style:italic; text-align:right; " transform="" id="B.b7.text" y="630.795275591" x="-620.342519685">
b7</text>
      <circle style="stroke:red; stroke-width:1; fill:red; " transform="" cy="425.196850394" cx="0.0" r="5" id="B.BAC" d="M 5,425.19684 C 5,427.95826 2.7614237,430.19684 0,430.19684 -2.7614237,430.19684 -5,427.95826 -5,425.19684 -5,422.43541 -2.7614237,420.19684 0,420.19684 2.7614237,420.19684 5,422.43541 5,425.19684 z" />
      <text style="font-size:30; vertical-align:top; fill-opacity:1.0; fill:darkblue; text-anchor:right; stroke:none; font-weight:normal; font-style:italic; text-align:right; " transform="" id="B.BAC.text" y="418.196850394" x="7.0">
BAC</text>
      <circle style="stroke:gray; stroke-width:1; fill:none; " transform="" cy="637.795275591" cx="-627.342519685" r="5" id="B.BAP.inpoint" d="M -622.34253,637.79529 C -622.34253,640.55671 -624.58111,642.79529 -627.34253,642.79529 -630.10395,642.79529 -632.34253,640.55671 -632.34253,637.79529 -632.34253,635.03386 -630.10395,632.79529 -627.34253,632.79529 -624.58111,632.79529 -622.34253,635.03386 -622.34253,637.79529 z" />
      <text style="font-size:25; vertical-align:top; fill-opacity:1.0; fill:gray; text-anchor:right; stroke:none; font-weight:normal; font-style:italic; text-align:right; " transform="" id="B.BAP.inpoint.text" y="630.795275591" x="-620.342519685">
BAP.in</text>
      <circle style="stroke:gray; stroke-width:1; fill:none; " transform="" cy="315.641150946" cx="-627.342519685" r="5" id="B.BAP.outpoint" d="M -622.34253,315.64114 C -622.34253,318.40257 -624.58111,320.64114 -627.34253,320.64114 -630.10395,320.64114 -632.34253,318.40257 -632.34253,315.64114 -632.34253,312.87972 -630.10395,310.64114 -627.34253,310.64114 -624.58111,310.64114 -622.34253,312.87972 -622.34253,315.64114 z" />
      <text style="font-size:25; vertical-align:top; fill-opacity:1.0; fill:gray; text-anchor:right; stroke:none; font-weight:normal; font-style:italic; text-align:right; " transform="" id="B.BAP.outpoint.text" y="308.641150946" x="-620.342519685">
BAP.out</text>
      <circle style="stroke:red; stroke-width:1; fill:red; " transform="" cy="435.978023208" cx="-627.342519685" r="5" id="B.BAP" d="M -622.34253,435.97803 C -622.34253,438.73945 -624.58111,440.97803 -627.34253,440.97803 -630.10395,440.97803 -632.34253,438.73945 -632.34253,435.97803 -632.34253,433.2166 -630.10395,430.97803 -627.34253,430.97803 -624.58111,430.97803 -622.34253,433.2166 -622.34253,435.97803 z" />
      <text style="font-size:30; vertical-align:top; fill-opacity:1.0; fill:darkblue; text-anchor:right; stroke:none; font-weight:normal; font-style:italic; text-align:right; " transform="" id="B.BAP.text" y="428.978023208" x="-620.342519685">
BAP</text>
      <circle style="stroke:red; stroke-width:1; fill:red; " transform="" cy="637.795275591" cx="-885.826771654" r="5" id="B.b1" d="M -880.82678,637.79529 C -880.82678,640.55671 -883.06536,642.79529 -885.82678,642.79529 -888.58821,642.79529 -890.82678,640.55671 -890.82678,637.79529 -890.82678,635.03386 -888.58821,632.79529 -885.82678,632.79529 -883.06536,632.79529 -880.82678,635.03386 -880.82678,637.79529 z" />
      <text style="font-size:30; vertical-align:top; fill-opacity:1.0; fill:darkblue; text-anchor:right; stroke:none; font-weight:normal; font-style:italic; text-align:right; " transform="" id="B.b1.text" y="630.795275591" x="-878.826771654">
b1</text>
      <circle style="stroke:red; stroke-width:1; fill:red; " transform="" cy="637.795275591" cx="-383.761673202" r="5" id="B.BD1" d="M -378.76169,637.79529 C -378.76169,640.55671 -381.00026,642.79529 -383.76169,642.79529 -386.52311,642.79529 -388.76169,640.55671 -388.76169,637.79529 -388.76169,635.03386 -386.52311,632.79529 -383.76169,632.79529 -381.00026,632.79529 -378.76169,635.03386 -378.76169,637.79529 z" />
      <text style="font-size:30; vertical-align:top; fill-opacity:1.0; fill:darkblue; text-anchor:right; stroke:none; font-weight:normal; font-style:italic; text-align:right; " transform="" id="B.BD1.text" y="630.795275591" x="-376.761673202">
BD1</text>
      <circle style="stroke:red; stroke-width:1; fill:red; " transform="" cy="1346.45669291" cx="-383.761673202" r="5" id="B.b2" d="M -378.76169,1346.4567 C -378.76169,1349.2181 -381.00026,1351.4567 -383.76169,1351.4567 -386.52311,1351.4567 -388.76169,1349.2181 -388.76169,1346.4567 -388.76169,1343.6952 -386.52311,1341.4567 -383.76169,1341.4567 -381.00026,1341.4567 -378.76169,1343.6952 -378.76169,1346.4567 z" />
      <text style="font-size:30; vertical-align:top; fill-opacity:1.0; fill:darkblue; text-anchor:right; stroke:none; font-weight:normal; font-style:italic; text-align:right; " transform="" id="B.b2.text" y="1339.45669291" x="-376.761673202">
b2</text>
      <circle style="stroke:red; stroke-width:1; fill:red; " transform="" cy="1346.45669291" cx="-307.009338562" r="5" id="B.b3" d="M -302.00934,1346.4567 C -302.00934,1349.2181 -304.24791,1351.4567 -307.00934,1351.4567 -309.77076,1351.4567 -312.00934,1349.2181 -312.00934,1346.4567 -312.00934,1343.6952 -309.77076,1341.4567 -307.00934,1341.4567 -304.24791,1341.4567 -302.00934,1343.6952 -302.00934,1346.4567 z" />
      <text style="font-size:30; vertical-align:top; fill-opacity:1.0; fill:darkblue; text-anchor:right; stroke:none; font-weight:normal; font-style:italic; text-align:right; " transform="" id="B.b3.text" y="1339.45669291" x="-300.009338562">
b3</text>
      <circle style="stroke:red; stroke-width:1; fill:red; " transform="" cy="1346.45669291" cx="-460.514007842" r="5" id="B.b4" d="M -455.51401,1346.4567 C -455.51401,1349.2181 -457.75258,1351.4567 -460.51401,1351.4567 -463.27543,1351.4567 -465.51401,1349.2181 -465.51401,1346.4567 -465.51401,1343.6952 -463.27543,1341.4567 -460.51401,1341.4567 -457.75258,1341.4567 -455.51401,1343.6952 -455.51401,1346.4567 z" />
      <text style="font-size:30; vertical-align:top; fill-opacity:1.0; fill:darkblue; text-anchor:right; stroke:none; font-weight:normal; font-style:italic; text-align:right; " transform="" id="B.b4.text" y="1339.45669291" x="-453.514007842">
b4</text>
      <circle style="stroke:gray; stroke-width:1; fill:none; " transform="" cy="1346.45669291" cx="-234.382038208" r="5" id="B.BD1.i.inpoint" d="M -229.38203,1346.4567 C -229.38203,1349.2181 -231.62061,1351.4567 -234.38203,1351.4567 -237.14346,1351.4567 -239.38203,1349.2181 -239.38203,1346.4567 -239.38203,1343.6952 -237.14346,1341.4567 -234.38203,1341.4567 -231.62061,1341.4567 -229.38203,1343.6952 -229.38203,1346.4567 z" />
      <text style="font-size:25; vertical-align:top; fill-opacity:1.0; fill:gray; text-anchor:right; stroke:none; font-weight:normal; font-style:italic; text-align:right; " transform="" id="B.BD1.i.inpoint.text" y="1339.45669291" x="-227.382038208">
BD1.i.in</text>
      <circle style="stroke:red; stroke-width:1; fill:red; " transform="" cy="1354.23147081" cx="-306.167282905" r="5" id="B.BD1.i" d="M -301.1673,1354.2314 C -301.1673,1356.9929 -303.40587,1359.2314 -306.1673,1359.2314 -308.92872,1359.2314 -311.1673,1356.9929 -311.1673,1354.2314 -311.1673,1351.47 -308.92872,1349.2314 -306.1673,1349.2314 -303.40587,1349.2314 -301.1673,1351.47 -301.1673,1354.2314 z" />
      <text style="font-size:30; vertical-align:top; fill-opacity:1.0; fill:darkblue; text-anchor:right; stroke:none; font-weight:normal; font-style:italic; text-align:right; " transform="" id="B.BD1.i.text" y="1347.23147081" x="-299.167282905">
BD1.i</text>
      <circle style="stroke:gray; stroke-width:1; fill:none; " transform="" cy="1345.96951924" cx="-537.639427833" r="5" id="B.BD1.o.outpoint" d="M -532.6394,1345.9695 C -532.6394,1348.7309 -534.87798,1350.9695 -537.6394,1350.9695 -540.40083,1350.9695 -542.6394,1348.7309 -542.6394,1345.9695 -542.6394,1343.2081 -540.40083,1340.9695 -537.6394,1340.9695 -534.87798,1340.9695 -532.6394,1343.2081 -532.6394,1345.9695 z" />
      <text style="font-size:25; vertical-align:top; fill-opacity:1.0; fill:gray; text-anchor:right; stroke:none; font-weight:normal; font-style:italic; text-align:right; " transform="" id="B.BD1.o.outpoint.text" y="1338.96951924" x="-530.639427833">
BD1.o.out</text>
      <circle style="stroke:red; stroke-width:1; fill:red; " transform="" cy="1354.23147081" cx="-461.356063499" r="5" id="B.BD1.o" d="M -456.35605,1354.2314 C -456.35605,1356.9929 -458.59462,1359.2314 -461.35605,1359.2314 -464.11747,1359.2314 -466.35605,1356.9929 -466.35605,1354.2314 -466.35605,1351.47 -464.11747,1349.2314 -461.35605,1349.2314 -458.59462,1349.2314 -456.35605,1351.47 -456.35605,1354.2314 z" />
      <text style="font-size:30; vertical-align:top; fill-opacity:1.0; fill:darkblue; text-anchor:right; stroke:none; font-weight:normal; font-style:italic; text-align:right; " transform="" id="B.BD1.o.text" y="1347.23147081" x="-454.356063499">
BD1.o</text>
      <circle style="stroke:red; stroke-width:1; fill:red; " transform="" cy="1343.98784763" cx="-826.724693851" r="5" id="B.b5" d="M -821.72467,1343.9878 C -821.72467,1346.7492 -823.96325,1348.9878 -826.72467,1348.9878 -829.48609,1348.9878 -831.72467,1346.7492 -831.72467,1343.9878 -831.72467,1341.2264 -829.48609,1338.9878 -826.72467,1338.9878 -823.96325,1338.9878 -821.72467,1341.2264 -821.72467,1343.9878 z" />
      <text style="font-size:30; vertical-align:top; fill-opacity:1.0; fill:darkblue; text-anchor:right; stroke:none; font-weight:normal; font-style:italic; text-align:right; " transform="" id="B.b5.text" y="1336.98784763" x="-819.724693851">
b5</text>
      <circle style="stroke:red; stroke-width:1; fill:red; " transform="" cy="637.795275591" cx="-918.070866142" r="5" id="B.b6" d="M -913.07086,637.79529 C -913.07086,640.55671 -915.30944,642.79529 -918.07086,642.79529 -920.83229,642.79529 -923.07086,640.55671 -923.07086,637.79529 -923.07086,635.03386 -920.83229,632.79529 -918.07086,632.79529 -915.30944,632.79529 -913.07086,635.03386 -913.07086,637.79529 z" />
      <text style="font-size:30; vertical-align:top; fill-opacity:1.0; fill:darkblue; text-anchor:right; stroke:none; font-weight:normal; font-style:italic; text-align:right; " transform="" id="B.b6.text" y="630.795275591" x="-911.070866142">
b6</text>
      <circle style="stroke:gray; stroke-width:1; fill:none; " transform="" cy="1344.80107546" cx="-722.618056563" r="5" id="B.BWS.inpoint" d="M -717.61804,1344.801 C -717.61804,1347.5624 -719.85662,1349.801 -722.61804,1349.801 -725.37947,1349.801 -727.61804,1347.5624 -727.61804,1344.801 -727.61804,1342.0396 -725.37947,1339.801 -722.61804,1339.801 -719.85662,1339.801 -717.61804,1342.0396 -717.61804,1344.801 z" />
      <text style="font-size:25; vertical-align:top; fill-opacity:1.0; fill:gray; text-anchor:right; stroke:none; font-weight:normal; font-style:italic; text-align:right; " transform="" id="B.BWS.inpoint.text" y="1337.80107546" x="-715.618056563">
BWS.in</text>
      <circle style="stroke:red; stroke-width:1; fill:red; " transform="" cy="1343.98784763" cx="-851.361750937" r="5" id="B.BWS" d="M -846.36176,1343.9878 C -846.36176,1346.7492 -848.60033,1348.9878 -851.36176,1348.9878 -854.12318,1348.9878 -856.36176,1346.7492 -856.36176,1343.9878 -856.36176,1341.2264 -854.12318,1338.9878 -851.36176,1338.9878 -848.60033,1338.9878 -846.36176,1341.2264 -846.36176,1343.9878 z" />
      <text style="font-size:30; vertical-align:top; fill-opacity:1.0; fill:darkblue; text-anchor:right; stroke:none; font-weight:normal; font-style:italic; text-align:right; " transform="" id="B.BWS.text" y="1336.98784763" x="-844.361750937">
BWS</text>
      <circle style="stroke:gray; stroke-width:1; fill:none; " transform="" cy="734.910965532" cx="-815.843211147" r="5" id="B.BUS.outpoint" d="M -810.8432,734.91095 C -810.8432,737.67237 -813.08178,739.91095 -815.8432,739.91095 -818.60462,739.91095 -820.8432,737.67237 -820.8432,734.91095 -820.8432,732.14953 -818.60462,729.91095 -815.8432,729.91095 -813.08178,729.91095 -810.8432,732.14953 -810.8432,734.91095 z" />
      <text style="font-size:25; vertical-align:top; fill-opacity:1.0; fill:gray; text-anchor:right; stroke:none; font-weight:normal; font-style:italic; text-align:right; " transform="" id="B.BUS.outpoint.text" y="727.910965532" x="-808.843211147">
BUS.out</text>
      <circle style="stroke:red; stroke-width:1; fill:red; " transform="" cy="743.623370461" cx="-908.074019882" r="5" id="B.BUS" d="M -903.07404,743.62335 C -903.07404,746.38478 -905.31261,748.62335 -908.07404,748.62335 -910.83546,748.62335 -913.07404,746.38478 -913.07404,743.62335 -913.07404,740.86193 -910.83546,738.62335 -908.07404,738.62335 -905.31261,738.62335 -903.07404,740.86193 -903.07404,743.62335 z" />
      <text style="font-size:30; vertical-align:top; fill-opacity:1.0; fill:darkblue; text-anchor:right; stroke:none; font-weight:normal; font-style:italic; text-align:right; " transform="" id="B.BUS.text" y="736.623370461" x="-901.074019882">
BUS</text>
      <circle style="stroke:red; stroke-width:1; fill:red; " transform="" cy="104.234043908" cx="-430.45219408" r="5" id="B.BD2" d="M -425.45218,104.23405 C -425.45218,106.99547 -427.69076,109.23405 -430.45218,109.23405 -433.2136,109.23405 -435.45218,106.99547 -435.45218,104.23405 -435.45218,101.47262 -433.2136,99.234047 -430.45218,99.234047 -427.69076,99.234047 -425.45218,101.47262 -425.45218,104.23405 z" />
      <text style="font-size:30; vertical-align:top; fill-opacity:1.0; fill:darkblue; text-anchor:right; stroke:none; font-weight:normal; font-style:italic; text-align:right; " transform="" id="B.BD2.text" y="97.2340439084" x="-423.45219408">
BD2</text>
      <circle style="stroke:red; stroke-width:1; fill:red; " transform="" cy="-51.9514480849" cx="-496.566196517" r="5" id="B.BD2.i" d="M -491.56619,-51.951447 C -491.56619,-49.190023 -493.80477,-46.951447 -496.56619,-46.951447 -499.32762,-46.951447 -501.56619,-49.190023 -501.56619,-51.951447 -501.56619,-54.71287 -499.32762,-56.951447 -496.56619,-56.951447 -493.80477,-56.951447 -491.56619,-54.71287 -491.56619,-51.951447 z" />
      <text style="font-size:30; vertical-align:top; fill-opacity:1.0; fill:darkblue; text-anchor:right; stroke:none; font-weight:normal; font-style:italic; text-align:right; " transform="" id="B.BD2.i.text" y="-58.9514480849" x="-489.566196517">
BD2.i</text>
      <circle style="stroke:red; stroke-width:1; fill:red; " transform="" cy="-39.6860369005" cx="-520.185017325" r="5" id="B.BD2.o" d="M -515.185,-39.686035 C -515.185,-36.924611 -517.42357,-34.686035 -520.185,-34.686035 -522.94642,-34.686035 -525.185,-36.924611 -525.185,-39.686035 -525.185,-42.447459 -522.94642,-44.686035 -520.185,-44.686035 -517.42357,-44.686035 -515.185,-42.447459 -515.185,-39.686035 z" />
      <text style="font-size:30; vertical-align:top; fill-opacity:1.0; fill:darkblue; text-anchor:right; stroke:none; font-weight:normal; font-style:italic; text-align:right; " transform="" id="B.BD2.o.text" y="-46.6860369005" x="-513.185017325">
BD2.o</text>
      <path style="stroke-linejoin:miter; stroke-dashoffset:0; stroke:gray; stroke-miterlimit:4; stroke-dasharray:6,6; stroke-width:2; fill:none; " transform="" d="M 0.0  1346.45669291 L -715.624177057  82.1684498171 L -708.661417323  -141.732283465 L 0.0  -141.732283465 L 0.0  637.795275591 L -918.070866142  637.795275591 L -908.074019882  743.623370461 M -885.826771654  637.795275591 L -826.724693851  1343.98784763 L -851.361750937  1343.98784763 " id="B.gridline" />
    </g>
    <g id="document.bodice.Bodice Sleeve.reference" transform=" translate(842.071004, 2240.132645)">
      <circle style="stroke:gray; stroke-width:1; fill:none; " transform="" cy="0.0" cx="126.238811368" r="5" id="C.SCM.inpoint" d="M 131.23881,0 C 131.23881,2.7614237 129.00023,5 126.23881,5 123.47738,5 121.23881,2.7614237 121.23881,0 121.23881,-2.7614237 123.47738,-5 126.23881,-5 129.00023,-5 131.23881,-2.7614237 131.23881,0 z" />
      <text style="font-size:25; vertical-align:top; fill-opacity:1.0; fill:gray; text-anchor:right; stroke:none; font-weight:normal; font-style:italic; text-align:right; " transform="" id="C.SCM.inpoint.text" y="-7.0" x="133.238811368">
SCM.in</text>
      <circle style="stroke:gray; stroke-width:1; fill:none; " transform="" cy="0.0" cx="-118.021008311" r="5" id="C.SCM.outpoint" d="M -113.02101,0 C -113.02101,2.7614237 -115.25959,5 -118.02101,5 -120.78244,5 -123.02101,2.7614237 -123.02101,0 -123.02101,-2.7614237 -120.78244,-5 -118.02101,-5 -115.25959,-5 -113.02101,-2.7614237 -113.02101,0 z" />
      <text style="font-size:25; vertical-align:top; fill-opacity:1.0; fill:gray; text-anchor:right; stroke:none; font-weight:normal; font-style:italic; text-align:right; " transform="" id="C.SCM.outpoint.text" y="-7.0" x="-111.021008311">
SCM.out</text>
      <circle style="stroke:red; stroke-width:1; fill:red; " transform="" cy="0.0" cx="0.0" r="5" id="C.SCM" d="M 5,0 C 5,2.7614237 2.7614237,5 0,5 -2.7614237,5 -5,2.7614237 -5,0 -5,-2.7614237 -2.7614237,-5 0,-5 2.7614237,-5 5,-2.7614237 5,0 z" />
      <text style="font-size:30; vertical-align:top; fill-opacity:1.0; fill:darkblue; text-anchor:right; stroke:none; font-weight:normal; font-style:italic; text-align:right; " transform="" id="C.SCM.text" y="-7.0" x="7.0">
SCM</text>
      <circle style="stroke:red; stroke-width:1; fill:red; " transform="" cy="2161.41732283" cx="0.0" r="5" id="C.SWM" d="M 5,2161.4172 C 5,2164.1787 2.7614237,2166.4172 0,2166.4172 -2.7614237,2166.4172 -5,2164.1787 -5,2161.4172 -5,2158.6558 -2.7614237,2156.4172 0,2156.4172 2.7614237,2156.4172 5,2158.6558 5,2161.4172 z" />
      <text style="font-size:30; vertical-align:top; fill-opacity:1.0; fill:darkblue; text-anchor:right; stroke:none; font-weight:normal; font-style:italic; text-align:right; " transform="" id="C.SWM.text" y="2154.41732283" x="7.0">
SWM</text>
      <circle style="stroke:red; stroke-width:1; fill:red; " transform="" cy="425.196850394" cx="0.0" r="5" id="C.SUM" d="M 5,425.19684 C 5,427.95826 2.7614237,430.19684 0,430.19684 -2.7614237,430.19684 -5,427.95826 -5,425.19684 -5,422.43541 -2.7614237,420.19684 0,420.19684 2.7614237,420.19684 5,422.43541 5,425.19684 z" />
      <text style="font-size:30; vertical-align:top; fill-opacity:1.0; fill:darkblue; text-anchor:right; stroke:none; font-weight:normal; font-style:italic; text-align:right; " transform="" id="C.SUM.text" y="418.196850394" x="7.0">
SUM</text>
      <circle style="stroke:red; stroke-width:1; fill:red; " transform="" cy="0.0" cx="-613.877952756" r="5" id="C.SCF" d="M -608.87793,0 C -608.87793,2.7614237 -611.11651,5 -613.87793,5 -616.63935,5 -618.87793,2.7614237 -618.87793,0 -618.87793,-2.7614237 -616.63935,-5 -613.87793,-5 -611.11651,-5 -608.87793,-2.7614237 -608.87793,0 z" />
      <text style="font-size:30; vertical-align:top; fill-opacity:1.0; fill:darkblue; text-anchor:right; stroke:none; font-weight:normal; font-style:italic; text-align:right; " transform="" id="C.SCF.text" y="-7.0" x="-606.877952756">
SCF</text>
      <circle style="stroke:red; stroke-width:1; fill:red; " transform="" cy="0.0" cx="613.877952756" r="5" id="C.SCB" d="M 618.87793,0 C 618.87793,2.7614237 616.63935,5 613.87793,5 611.11651,5 608.87793,2.7614237 608.87793,0 608.87793,-2.7614237 611.11651,-5 613.87793,-5 616.63935,-5 618.87793,-2.7614237 618.87793,0 z" />
      <text style="font-size:30; vertical-align:top; fill-opacity:1.0; fill:darkblue; text-anchor:right; stroke:none; font-weight:normal; font-style:italic; text-align:right; " transform="" id="C.SCB.text" y="-7.0" x="620.877952756">
SCB</text>
      <circle style="stroke:red; stroke-width:1; fill:red; " transform="" cy="0.0" cx="-306.938976378" r="5" id="C.SCF1" d="M -301.93896,0 C -301.93896,2.7614237 -304.17754,5 -306.93896,5 -309.70039,5 -311.93896,2.7614237 -311.93896,0 -311.93896,-2.7614237 -309.70039,-5 -306.93896,-5 -304.17754,-5 -301.93896,-2.7614237 -301.93896,0 z" />
      <text style="font-size:30; vertical-align:top; fill-opacity:1.0; fill:darkblue; text-anchor:right; stroke:none; font-weight:normal; font-style:italic; text-align:right; " transform="" id="C.SCF1.text" y="-7.0" x="-299.938976378">
SCF1</text>
      <circle style="stroke:red; stroke-width:1; fill:red; " transform="" cy="0.0" cx="306.938976378" r="5" id="C.SCB1" d="M 311.93896,0 C 311.93896,2.7614237 309.70039,5 306.93896,5 304.17754,5 301.93896,2.7614237 301.93896,0 301.93896,-2.7614237 304.17754,-5 306.93896,-5 309.70039,-5 311.93896,-2.7614237 311.93896,0 z" />
      <text style="font-size:30; vertical-align:top; fill-opacity:1.0; fill:darkblue; text-anchor:right; stroke:none; font-weight:normal; font-style:italic; text-align:right; " transform="" id="C.SCB1.text" y="-7.0" x="313.938976378">
SCB1</text>
      <circle style="stroke:gray; stroke-width:1; fill:none; " transform="" cy="129.079477353" cx="242.891574939" r="5" id="C.s1.outpoint" d="M 247.89157,129.07948 C 247.89157,131.84091 245.65299,134.07948 242.89157,134.07948 240.13015,134.07948 237.89157,131.84091 237.89157,129.07948 237.89157,126.31806 240.13015,124.07948 242.89157,124.07948 245.65299,124.07948 247.89157,126.31806 247.89157,129.07948 z" />
      <text style="font-size:25; vertical-align:top; fill-opacity:1.0; fill:gray; text-anchor:right; stroke:none; font-weight:normal; font-style:italic; text-align:right; " transform="" id="C.s1.outpoint.text" y="122.079477353" x="249.891574939">
s1.out</text>
      <circle style="stroke:gray; stroke-width:1; fill:none; " transform="" cy="301.625148837" cx="398.825963842" r="5" id="C.s1.inpoint" d="M 403.82596,301.62515 C 403.82596,304.38658 401.58738,306.62515 398.82596,306.62515 396.06453,306.62515 393.82596,304.38658 393.82596,301.62515 393.82596,298.86373 396.06453,296.62515 398.82596,296.62515 401.58738,296.62515 403.82596,298.86373 403.82596,301.62515 z" />
      <text style="font-size:25; vertical-align:top; fill-opacity:1.0; fill:gray; text-anchor:right; stroke:none; font-weight:normal; font-style:italic; text-align:right; " transform="" id="C.s1.inpoint.text" y="294.625148837" x="405.825963842">
s1.in</text>
      <circle style="stroke:red; stroke-width:1; fill:red; " transform="" cy="192.655936347" cx="300.347413712" r="5" id="C.s1" d="M 305.34741,192.65593 C 305.34741,195.41735 303.10884,197.65593 300.34741,197.65593 297.58599,197.65593 295.34741,195.41735 295.34741,192.65593 295.34741,189.89451 297.58599,187.65593 300.34741,187.65593 303.10884,187.65593 305.34741,189.89451 305.34741,192.65593 z" />
      <text style="font-size:30; vertical-align:top; fill-opacity:1.0; fill:darkblue; text-anchor:right; stroke:none; font-weight:normal; font-style:italic; text-align:right; " transform="" id="C.s1.text" y="185.655936347" x="307.347413712">
s1</text>
      <circle style="stroke:gray; stroke-width:1; fill:none; " transform="" cy="157.609947343" cx="-239.151144385" r="5" id="C.s2.inpoint" d="M -234.15114,157.60995 C -234.15114,160.37138 -236.38971,162.60995 -239.15114,162.60995 -241.91256,162.60995 -244.15114,160.37138 -244.15114,157.60995 -244.15114,154.84853 -241.91256,152.60995 -239.15114,152.60995 -236.38971,152.60995 -234.15114,154.84853 -234.15114,157.60995 z" />
      <text style="font-size:25; vertical-align:top; fill-opacity:1.0; fill:gray; text-anchor:right; stroke:none; font-weight:normal; font-style:italic; text-align:right; " transform="" id="C.s2.inpoint.text" y="150.609947343" x="-232.151144385">
s2.in</text>
      <circle style="stroke:gray; stroke-width:1; fill:none; " transform="" cy="363.567950761" cx="-397.438875586" r="5" id="C.s2.outpoint" d="M -392.43887,363.56796 C -392.43887,366.32939 -394.67745,368.56796 -397.43887,368.56796 -400.2003,368.56796 -402.43887,366.32939 -402.43887,363.56796 -402.43887,360.80654 -400.2003,358.56796 -397.43887,358.56796 -394.67745,358.56796 -392.43887,360.80654 -392.43887,363.56796 z" />
      <text style="font-size:25; vertical-align:top; fill-opacity:1.0; fill:gray; text-anchor:right; stroke:none; font-weight:normal; font-style:italic; text-align:right; " transform="" id="C.s2.outpoint.text" y="356.567950761" x="-390.438875586">
s2.out</text>
      <circle style="stroke:red; stroke-width:1; fill:red; " transform="" cy="235.238727378" cx="-298.812256184" r="5" id="C.s2" d="M -293.81226,235.23872 C -293.81226,238.00015 -296.05083,240.23872 -298.81226,240.23872 -301.57368,240.23872 -303.81226,238.00015 -303.81226,235.23872 -303.81226,232.4773 -301.57368,230.23872 -298.81226,230.23872 -296.05083,230.23872 -293.81226,232.4773 -293.81226,235.23872 z" />
      <text style="font-size:30; vertical-align:top; fill-opacity:1.0; fill:darkblue; text-anchor:right; stroke:none; font-weight:normal; font-style:italic; text-align:right; " transform="" id="C.s2.text" y="228.238727378" x="-291.812256184">
s2</text>
      <circle style="stroke:gray; stroke-width:1; fill:none; " transform="" cy="425.196850394" cx="606.406337719" r="5" id="C.SUB.outpoint" d="M 611.40631,425.19684 C 611.40631,427.95826 609.16773,430.19684 606.40631,430.19684 603.64489,430.19684 601.40631,427.95826 601.40631,425.19684 601.40631,422.43541 603.64489,420.19684 606.40631,420.19684 609.16773,420.19684 611.40631,422.43541 611.40631,425.19684 z" />
      <text style="font-size:25; vertical-align:top; fill-opacity:1.0; fill:gray; text-anchor:right; stroke:none; font-weight:normal; font-style:italic; text-align:right; " transform="" id="C.SUB.outpoint.text" y="418.196850394" x="613.406337719">
SUB.out</text>
      <circle style="stroke:red; stroke-width:1; fill:red; " transform="" cy="425.196850394" cx="679.843920241" r="5" id="C.SUB" d="M 684.84393,425.19684 C 684.84393,427.95826 682.60536,430.19684 679.84393,430.19684 677.08251,430.19684 674.84393,427.95826 674.84393,425.19684 674.84393,422.43541 677.08251,420.19684 679.84393,420.19684 682.60536,420.19684 684.84393,422.43541 684.84393,425.19684 z" />
      <text style="font-size:30; vertical-align:top; fill-opacity:1.0; fill:darkblue; text-anchor:right; stroke:none; font-weight:normal; font-style:italic; text-align:right; " transform="" id="C.SUB.text" y="418.196850394" x="686.843920241">
SUB</text>
      <circle style="stroke:gray; stroke-width:1; fill:none; " transform="" cy="425.196850394" cx="-670.063053583" r="5" id="C.SUF.inpoint" d="M -665.06305,425.19684 C -665.06305,427.95826 -667.30163,430.19684 -670.06305,430.19684 -672.82447,430.19684 -675.06305,427.95826 -675.06305,425.19684 -675.06305,422.43541 -672.82447,420.19684 -670.06305,420.19684 -667.30163,420.19684 -665.06305,422.43541 -665.06305,425.19684 z" />
      <text style="font-size:25; vertical-align:top; fill-opacity:1.0; fill:gray; text-anchor:right; stroke:none; font-weight:normal; font-style:italic; text-align:right; " transform="" id="C.SUF.inpoint.text" y="418.196850394" x="-663.063053583">
SUF.in</text>
      <circle style="stroke:gray; stroke-width:1; fill:none; " transform="" cy="708.040579588" cx="-665.462895965" r="5" id="C.SUF.outpoint" d="M -660.46289,708.04059 C -660.46289,710.80201 -662.70147,713.04059 -665.46289,713.04059 -668.22431,713.04059 -670.46289,710.80201 -670.46289,708.04059 -670.46289,705.27916 -668.22431,703.04059 -665.46289,703.04059 -662.70147,703.04059 -660.46289,705.27916 -660.46289,708.04059 z" />
      <text style="font-size:25; vertical-align:top; fill-opacity:1.0; fill:gray; text-anchor:right; stroke:none; font-weight:normal; font-style:italic; text-align:right; " transform="" id="C.SUF.outpoint.text" y="701.040579588" x="-658.462895965">
SUF.out</text>
      <circle style="stroke:red; stroke-width:1; fill:red; " transform="" cy="425.196850394" cx="-750.988327183" r="5" id="C.SUF" d="M -745.98834,425.19684 C -745.98834,427.95826 -748.22692,430.19684 -750.98834,430.19684 -753.74977,430.19684 -755.98834,427.95826 -755.98834,425.19684 -755.98834,422.43541 -753.74977,420.19684 -750.98834,420.19684 -748.22692,420.19684 -745.98834,422.43541 -745.98834,425.19684 z" />
      <text style="font-size:30; vertical-align:top; fill-opacity:1.0; fill:darkblue; text-anchor:right; stroke:none; font-weight:normal; font-style:italic; text-align:right; " transform="" id="C.SUF.text" y="418.196850394" x="-743.988327183">
SUF</text>
      <circle style="stroke:red; stroke-width:1; fill:red; " transform="" cy="1293.30708661" cx="0.0" r="5" id="C.SEM" d="M 5,1293.3071 C 5,1296.0686 2.7614237,1298.3071 0,1298.3071 -2.7614237,1298.3071 -5,1296.0686 -5,1293.3071 -5,1290.5457 -2.7614237,1288.3071 0,1288.3071 2.7614237,1288.3071 5,1290.5457 5,1293.3071 z" />
      <text style="font-size:30; vertical-align:top; fill-opacity:1.0; fill:darkblue; text-anchor:right; stroke:none; font-weight:normal; font-style:italic; text-align:right; " transform="" id="C.SEM.text" y="1286.30708661" x="7.0">
SEM</text>
      <circle style="stroke:red; stroke-width:1; fill:red; " transform="" cy="1293.30708661" cx="558.070866142" r="5" id="C.SEB" d="M 563.07086,1293.3071 C 563.07086,1296.0686 560.83229,1298.3071 558.07086,1298.3071 555.30944,1298.3071 553.07086,1296.0686 553.07086,1293.3071 553.07086,1290.5457 555.30944,1288.3071 558.07086,1288.3071 560.83229,1288.3071 563.07086,1290.5457 563.07086,1293.3071 z" />
      <text style="font-size:30; vertical-align:top; fill-opacity:1.0; fill:darkblue; text-anchor:right; stroke:none; font-weight:normal; font-style:italic; text-align:right; " transform="" id="C.SEB.text" y="1286.30708661" x="565.070866142">
SEB</text>
      <circle style="stroke:gray; stroke-width:1; fill:none; " transform="" cy="1001.30707171" cx="-576.785861223" r="5" id="C.SEF.inpoint" d="M -571.78589,1001.3071 C -571.78589,1004.0685 -574.02446,1006.3071 -576.78589,1006.3071 -579.54731,1006.3071 -581.78589,1004.0685 -581.78589,1001.3071 -581.78589,998.54564 -579.54731,996.30707 -576.78589,996.30707 -574.02446,996.30707 -571.78589,998.54564 -571.78589,1001.3071 z" />
      <text style="font-size:25; vertical-align:top; fill-opacity:1.0; fill:gray; text-anchor:right; stroke:none; font-weight:normal; font-style:italic; text-align:right; " transform="" id="C.SEF.inpoint.text" y="994.307071706" x="-569.785861223">
SEF.in</text>
      <circle style="stroke:red; stroke-width:1; fill:red; " transform="" cy="1293.30708661" cx="-531.496062992" r="5" id="C.SEF" d="M -526.49603,1293.3071 C -526.49603,1296.0686 -528.73461,1298.3071 -531.49603,1298.3071 -534.25746,1298.3071 -536.49603,1296.0686 -536.49603,1293.3071 -536.49603,1290.5457 -534.25746,1288.3071 -531.49603,1288.3071 -528.73461,1288.3071 -526.49603,1290.5457 -526.49603,1293.3071 z" />
      <text style="font-size:30; vertical-align:top; fill-opacity:1.0; fill:darkblue; text-anchor:right; stroke:none; font-weight:normal; font-style:italic; text-align:right; " transform="" id="C.SEF.text" y="1286.30708661" x="-524.496062992">
SEF</text>
      <circle style="stroke:red; stroke-width:1; fill:red; " transform="" cy="2161.41732283" cx="283.464566929" r="5" id="C.s3" d="M 288.46457,2161.4172 C 288.46457,2164.1787 286.22599,2166.4172 283.46457,2166.4172 280.70315,2166.4172 278.46457,2164.1787 278.46457,2161.4172 278.46457,2158.6558 280.70315,2156.4172 283.46457,2156.4172 286.22599,2156.4172 288.46457,2158.6558 288.46457,2161.4172 z" />
      <text style="font-size:30; vertical-align:top; fill-opacity:1.0; fill:darkblue; text-anchor:right; stroke:none; font-weight:normal; font-style:italic; text-align:right; " transform="" id="C.s3.text" y="2154.41732283" x="290.464566929">
s3</text>
      <circle style="stroke:red; stroke-width:1; fill:red; " transform="" cy="2161.41732283" cx="93.5433070866" r="5" id="C.s4" d="M 98.543304,2161.4172 C 98.543304,2164.1787 96.304728,2166.4172 93.543304,2166.4172 90.781881,2166.4172 88.543304,2164.1787 88.543304,2161.4172 88.543304,2158.6558 90.781881,2156.4172 93.543304,2156.4172 96.304728,2156.4172 98.543304,2158.6558 98.543304,2161.4172 z" />
      <text style="font-size:30; vertical-align:top; fill-opacity:1.0; fill:darkblue; text-anchor:right; stroke:none; font-weight:normal; font-style:italic; text-align:right; " transform="" id="C.s4.text" y="2154.41732283" x="100.543307087">
s4</text>
      <circle style="stroke:red; stroke-width:1; fill:red; " transform="" cy="2161.41732283" cx="-396.850393701" r="5" id="C.s5" d="M -391.8504,2161.4172 C -391.8504,2164.1787 -394.08898,2166.4172 -396.8504,2166.4172 -399.61183,2166.4172 -401.8504,2164.1787 -401.8504,2161.4172 -401.8504,2158.6558 -399.61183,2156.4172 -396.8504,2156.4172 -394.08898,2156.4172 -391.8504,2158.6558 -391.8504,2161.4172 z" />
      <text style="font-size:30; vertical-align:top; fill-opacity:1.0; fill:darkblue; text-anchor:right; stroke:none; font-weight:normal; font-style:italic; text-align:right; " transform="" id="C.s5.text" y="2154.41732283" x="-389.850393701">
s5</text>
      <circle style="stroke:red; stroke-width:1; fill:red; " transform="" cy="2161.41732283" cx="-261.921259843" r="5" id="C.s6" d="M -256.92126,2161.4172 C -256.92126,2164.1787 -259.15984,2166.4172 -261.92126,2166.4172 -264.68269,2166.4172 -266.92126,2164.1787 -266.92126,2161.4172 -266.92126,2158.6558 -264.68269,2156.4172 -261.92126,2156.4172 -259.15984,2156.4172 -256.92126,2158.6558 -256.92126,2161.4172 z" />
      <text style="font-size:30; vertical-align:top; fill-opacity:1.0; fill:darkblue; text-anchor:right; stroke:none; font-weight:normal; font-style:italic; text-align:right; " transform="" id="C.s6.text" y="2154.41732283" x="-254.921259843">
s6</text>
      <circle style="stroke:red; stroke-width:1; fill:red; " transform="" cy="1293.30708661" cx="390.649606299" r="5" id="C.SD1" d="M 395.6496,1293.3071 C 395.6496,1296.0686 393.41102,1298.3071 390.6496,1298.3071 387.88817,1298.3071 385.6496,1296.0686 385.6496,1293.3071 385.6496,1290.5457 387.88817,1288.3071 390.6496,1288.3071 393.41102,1288.3071 395.6496,1290.5457 395.6496,1293.3071 z" />
      <text style="font-size:30; vertical-align:top; fill-opacity:1.0; fill:darkblue; text-anchor:right; stroke:none; font-weight:normal; font-style:italic; text-align:right; " transform="" id="C.SD1.text" y="1286.30708661" x="397.649606299">
SD1</text>
      <circle style="stroke:red; stroke-width:1; fill:red; " transform="" cy="1288.58085586" cx="558.600002737" r="5" id="C.SD1.i" d="M 563.59998,1288.5808 C 563.59998,1291.3422 561.3614,1293.5808 558.59998,1293.5808 555.83855,1293.5808 553.59998,1291.3422 553.59998,1288.5808 553.59998,1285.8194 555.83855,1283.5808 558.59998,1283.5808 561.3614,1283.5808 563.59998,1285.8194 563.59998,1288.5808 z" />
      <text style="font-size:30; vertical-align:top; fill-opacity:1.0; fill:darkblue; text-anchor:right; stroke:none; font-weight:normal; font-style:italic; text-align:right; " transform="" id="C.SD1.i.text" y="1281.58085586" x="565.600002737">
SD1.i</text>
      <circle style="stroke:red; stroke-width:1; fill:red; " transform="" cy="1335.05734521" cx="553.396614959" r="5" id="C.SD1.o" d="M 558.39661,1335.0574 C 558.39661,1337.8188 556.15803,1340.0574 553.39661,1340.0574 550.63518,1340.0574 548.39661,1337.8188 548.39661,1335.0574 548.39661,1332.2959 550.63518,1330.0574 553.39661,1330.0574 556.15803,1330.0574 558.39661,1332.2959 558.39661,1335.0574 z" />
      <text style="font-size:30; vertical-align:top; fill-opacity:1.0; fill:darkblue; text-anchor:right; stroke:none; font-weight:normal; font-style:italic; text-align:right; " transform="" id="C.SD1.o.text" y="1328.05734521" x="560.396614959">
SD1.o</text>
      <circle style="stroke:gray; stroke-width:1; fill:none; " transform="" cy="2148.08043778" cx="-175.933448293" r="5" id="C.SWF.outpoint" d="M -170.93344,2148.0803 C -170.93344,2150.8417 -173.17202,2153.0803 -175.93344,2153.0803 -178.69486,2153.0803 -180.93344,2150.8417 -180.93344,2148.0803 -180.93344,2145.3189 -178.69486,2143.0803 -175.93344,2143.0803 -173.17202,2143.0803 -170.93344,2145.3189 -170.93344,2148.0803 z" />
      <text style="font-size:25; vertical-align:top; fill-opacity:1.0; fill:gray; text-anchor:right; stroke:none; font-weight:normal; font-style:italic; text-align:right; " transform="" id="C.SWF.outpoint.text" y="2141.08043778" x="-168.933448293">
SWF.out</text>
      <circle style="stroke:red; stroke-width:1; fill:red; " transform="" cy="2181.85348149" cx="-393.680703787" r="5" id="C.SWF" d="M -388.68069,2181.8535 C -388.68069,2184.6149 -390.91927,2186.8535 -393.68069,2186.8535 -396.44212,2186.8535 -398.68069,2184.6149 -398.68069,2181.8535 -398.68069,2179.0921 -396.44212,2176.8535 -393.68069,2176.8535 -390.91927,2176.8535 -388.68069,2179.0921 -388.68069,2181.8535 z" />
      <text style="font-size:30; vertical-align:top; fill-opacity:1.0; fill:darkblue; text-anchor:right; stroke:none; font-weight:normal; font-style:italic; text-align:right; " transform="" id="C.SWF.text" y="2174.85348149" x="-386.680703787">
SWF</text>
      <circle style="stroke:gray; stroke-width:1; fill:none; " transform="" cy="2144.49885747" cx="57.1822148151" r="5" id="C.SWB.inpoint" d="M 62.182217,2144.4988 C 62.182217,2147.2602 59.94364,2149.4988 57.182217,2149.4988 54.420793,2149.4988 52.182217,2147.2602 52.182217,2144.4988 52.182217,2141.7374 54.420793,2139.4988 57.182217,2139.4988 59.94364,2139.4988 62.182217,2141.7374 62.182217,2144.4988 z" />
      <text style="font-size:25; vertical-align:top; fill-opacity:1.0; fill:gray; text-anchor:right; stroke:none; font-weight:normal; font-style:italic; text-align:right; " transform="" id="C.SWB.inpoint.text" y="2137.49885747" x="64.1822148151">
SWB.in</text>
      <circle style="stroke:red; stroke-width:1; fill:red; " transform="" cy="2212.91910061" cx="266.64141391" r="5" id="C.SWB" d="M 271.64142,2212.9192 C 271.64142,2215.6806 269.40284,2217.9192 266.64142,2217.9192 263.87999,2217.9192 261.64142,2215.6806 261.64142,2212.9192 261.64142,2210.1578 263.87999,2207.9192 266.64142,2207.9192 269.40284,2207.9192 271.64142,2210.1578 271.64142,2212.9192 z" />
      <text style="font-size:30; vertical-align:top; fill-opacity:1.0; fill:darkblue; text-anchor:right; stroke:none; font-weight:normal; font-style:italic; text-align:right; " transform="" id="C.SWB.text" y="2205.91910061" x="273.64141391">
SWB</text>
      <path style="stroke-linejoin:miter; stroke-dashoffset:0; stroke:gray; stroke-miterlimit:4; stroke-dasharray:6,6; stroke-width:2; fill:none; " transform="" d="M 0.0  0.0 L 0.0  2161.41732283 M 679.843920241  425.196850394 L -750.988327183  425.196850394 M 558.070866142  1293.30708661 L -531.496062992  1293.30708661 M 679.843920241  425.196850394 L 300.347413712  192.655936347 L 0.0  0.0 L -298.812256184  235.238727378 L -750.988327183  425.196850394 M 558.070866142  1293.30708661 L 283.464566929  2161.41732283 M -750.988327183  425.196850394 L -396.850393701  2161.41732283 L 283.464566929  2161.41732283 M -750.988327183  425.196850394 L -613.877952756  0.0 L 613.877952756  0.0 L 679.843920241  425.196850394 " id="C.gridline" />
    </g>
  </g>
</svg>
