<?xml version="1.0" encoding="UTF-8" standalone="no"?>
<svg xmlns:dc="http://purl.org/dc/elements/1.1/" xmlns:cc="http://creativecommons.org/ns#" xmlns:rdf="http://www.w3.org/1999/02/22-rdf-syntax-ns#" xmlns:svg="http://www.w3.org/2000/svg" xmlns="http://www.w3.org/2000/svg" xmlns:sodipodi="http://sodipodi.sourceforge.net/DTD/sodipodi-0.dtd" xmlns:inkscape="http://www.inkscape.org/namespaces/inkscape" patternNumber="MR_B1" fitBoxtoViewport="True" companyName="Next Patterns" currentscale="0.5:1" margin-right="88.5826771654" client-name="DressFormLg" designerName="S.L.Spencer" height="4759.82531607" width="2545.52426033" margin-top="88.5826771654" version="1.1" margin-bottom="88.5826771654" margin-left="88.5826771654" preserveAspectRatio="xMidYMid meet" id="svg2" inkscape:version="0.48.4 r9939" sodipodi:docname="Susan-spencer_bodice_short-2014-12-20-1358.svg">
  <metadata id="metadata304">
    <rdf:RDF>
      <cc:Work rdf:about="">
        <dc:format>image/svg+xml</dc:format>
        <dc:type rdf:resource="http://purl.org/dc/dcmitype/StillImage" />
      </cc:Work>
    </rdf:RDF>
  </metadata>
  <sodipodi:namedview id="base" pagecolor="#ffffff" bordercolor="#666666" borderopacity="1.0" inkscape:pageopacity="0.0" inkscape:pageshadow="2" inkscape:zoom="0.18614129" inkscape:document-units="pt" showgrid="false" inkscape:window-maximized="1" inkscape:cx="1272.7621" inkscape:cy="2379.9126" inkscape:window-width="1855" inkscape:window-height="1056" inkscape:window-x="65" inkscape:window-y="24" inkscape:current-layer="pattern" />
  <defs id="defs5">
    <marker style="overflow:visible" id="Arrow1Mstart" refX="0.0" refY="0.0" orient="auto" inkscape:stockid="Arrow1Mstart">
      <path transform="scale(0.4) translate(10,0)" style="fill-rule:evenodd;stroke:#000000;stroke-width:1.0pt;marker-start:none" d="M 0.0,0.0 L 5.0,-5.0 L -12.5,0.0 L 5.0,5.0 L 0.0,0.0 z " id="path8" />
    </marker>
    <marker style="overflow:visible;" id="Arrow1Mend" refX="0.0" refY="0.0" orient="auto" inkscape:stockid="Arrow1Mend">
      <path transform="scale(0.4) rotate(180) translate(10,0)" style="fill-rule:evenodd;stroke:#000000;stroke-width:1.0pt;marker-start:none;" d="M 0.0,0.0 L 5.0,-5.0 L -12.5,0.0 L 5.0,5.0 L 0.0,0.0 z " id="path11" />
    </marker>
  </defs>
  <g inkscape:label="Label-pattern" id="pattern" inkscape:groupmode="layer" transform="translate(88.582677,88.582677)">
    <g id="document.bodice.Bodice Front.pattern" transform=" translate(58.750000, 757.717638)">
      <g id="A.letter" transform="matrix(10.000000, 0, 0, 10.000000, -3228.838583, -1030.039370)">
        <text style="font-size:24; vertical-align:top; fill-opacity:1.0; fill:#000000; text-anchor:start; stroke:none; font-weight:normal; font-style:normal; text-align:right; " transform="" id="A.letter.letterline" y="114.448818898" x="358.75984252">
A</text>
      </g>
      <line style="stroke-linejoin:miter; stroke:green; stroke-width:4; stroke-miterlimit:4; fill:none; " y2="1089.56692913" marker-end="url(#Arrow1Mend)" marker-start="url(#Arrow1Mstart)" transform="" x2="133.455818164" y1="159.448818898" x1="133.455818164" id="A.grainline" />
      <path style="stroke-linejoin:miter; stroke-dashoffset:0; stroke:green; stroke-miterlimit:4; stroke-dasharray:6,6; stroke-width:3; fill:none; " transform="" d="M 258.964351489  1311.54559583 L 354.330708661  728.149606299 L 449.697065834  1311.54559583 M 1114.49940281  636.354691369 L 458.443533323  652.261490393 L 1085.31036128  846.427167483 " id="A.dartline" />
      <path style="stroke-linejoin:miter; stroke-dashoffset:0; stroke:green; stroke-dasharray:24,6; stroke-miterlimit:4; stroke-width:4; fill:none; " transform="" d="M 0.0  0.0 L 0.0  1240.15748031 C 88.6078560484  1240.15748031  170.9253694  1240.15748031  268.038960417  1256.03240845 L 354.330708661  1279.44232068 L 440.622456906  1256.03240845 C 630.920914  1224.92477152  840.699409574  1206.62536145  1038.67054744  1192.7249741 L 1031.57881081  829.784361688 L 1091.88279585  740.276280751 L 1058.26592947  637.718134028 L 983.736240613  410.343378751 C 821.738234984  463.076114248  639.566929134  372.404562614  639.566929134  159.448818898 C 639.566929134  30.5375758868  705.363247815  -166.013360476  717.519685039  -223.334513127 L 266.911636328  -318.897637795 C 233.832093174  -162.917928626  160.146981797  0.0  0.0  0.0 " id="A.seamline" />
      <path style="fill:none;stroke:#008000;stroke-width:4;stroke-linejoin:miter;stroke-miterlimit:4" d="M 211.90625,-330.65625 C 197.45138,-264.20535 177.34444,-197.87692 139.96875,-140.40625 116.15169,-104.08797 82.171731,-71.60028 38.90625,-60.9375 9.6980416,-53.498727 -20.657228,-57.036286 -50.466985,-55.829847 -59.45958,-58.486119 -55.389515,-48.189039 -56.25,-42.78125 -56.25,403.61458 -56.25,850.01042 -56.25,1296.4062 48.738956,1296.7523 154.65416,1293.576 258.30536,1311.6794 290.3177,1320.3609 322.33582,1329.021 354.34375,1337.7188 388.38412,1328.7556 422.1957,1318.7246 456.38688,1310.4594 667.97058,1276.5971 882.11282,1259.9031 1095.9375,1245.0625 1093.3703,1112.1976 1090.7691,979.33337 1088.1875,846.46875 1110.0836,813.94806 1132.0001,781.44117 1153.875,748.90625 1109.2705,612.49357 1064.4531,476.15532 1019.8125,339.75 982.46509,350.96461 945.68246,366.69352 906.25144,368.33494 849.94297,372.13789 790.82506,353.54746 751.15625,312.46875 714.41608,275.2554 697.56763,222.44856 696.05532,171.06324 694.57419,112.85636 706.05956,55.303484 718.18505,-1.2716408 732.98851,-68.950136 753.25297,-135.33813 770.44779,-202.47342 775.33861,-223.81445 779.95787,-245.22649 784.75,-266.59375 597.70798,-306.25877 410.66451,-345.91692 223.625,-385.59375 219.71875,-367.28125 215.8125,-348.96875 211.90625,-330.65625 z" id="A.cuttingline" inkscape:connector-curvature="0" />
      <g id="A.info" transform="">
        <text style="font-size:12; vertical-align:top; fill-opacity:1.0; fill:#000000; text-anchor:start; stroke:none; font-weight:normal; font-style:normal; text-align:right; " transform="" id="A.info.lineNext Patterns" y="159.448818898" x="358.75984252">
Next Patterns</text>
        <text style="font-size:12; vertical-align:top; fill-opacity:1.0; fill:#000000; text-anchor:start; stroke:none; font-weight:normal; font-style:normal; text-align:right; " transform="" id="A.info.lineMR_B1" y="173.848818898" x="358.75984252">
MR_B1</text>
        <text style="font-size:12; vertical-align:top; fill-opacity:1.0; fill:#000000; text-anchor:start; stroke:none; font-weight:normal; font-style:normal; text-align:right; " transform="" id="A.info.lineSpencer Bodice Short" y="188.248818898" x="358.75984252">
Spencer Bodice Short</text>
        <text style="font-size:12; vertical-align:top; fill-opacity:1.0; fill:#000000; text-anchor:start; stroke:none; font-weight:normal; font-style:normal; text-align:right; " transform="" id="A.info.linePattern Piece A" y="202.648818898" x="358.75984252">
Pattern Piece A</text>
        <text style="font-size:12; vertical-align:top; fill-opacity:1.0; fill:#000000; text-anchor:start; stroke:none; font-weight:normal; font-style:normal; text-align:right; " transform="" id="A.info.lineCut 2 Fabric" y="217.048818898" x="358.75984252">
Cut 2 Fabric</text>
        <text style="font-size:12; vertical-align:top; fill-opacity:1.0; fill:#000000; text-anchor:start; stroke:none; font-weight:normal; font-style:normal; text-align:right; " transform="" id="A.info.line " y="231.448818898" x="358.75984252" />
        <text style="font-size:12; vertical-align:top; fill-opacity:1.0; fill:#000000; text-anchor:start; stroke:none; font-weight:normal; font-style:normal; text-align:right; " transform="" id="A.info.lineDressFormLg" y="245.848818898" x="358.75984252">
DressFormLg</text>
        <text style="font-size:12; vertical-align:top; fill-opacity:1.0; fill:#000000; text-anchor:start; stroke:none; font-weight:normal; font-style:normal; text-align:right; " transform="" id="A.info.line2014/12/20 13:58" y="260.248818898" x="358.75984252">
2014/12/20 13:58</text>
      </g>
    </g>
    <g id="document.bodice.Bodice Back.pattern" transform=" translate(2312.108906, 580.552283)">
      <g id="B.letter" transform="matrix(10.000000, 0, 0, 10.000000, 3220.308797, -2465.078740)">
        <text style="font-size:24; vertical-align:top; fill-opacity:1.0; fill:#000000; text-anchor:start; stroke:none; font-weight:normal; font-style:normal; text-align:right; " transform="" id="B.letter.letterline" y="273.897637795" x="-357.812088528">
B</text>
      </g>
      <line style="stroke-linejoin:miter; stroke:green; stroke-width:4; stroke-miterlimit:4; fill:none; " y2="1222.44094488" marker-end="url(#Arrow1Mend)" marker-start="url(#Arrow1Mstart)" transform="" x2="-142.235487856" y1="212.598425197" x1="-142.235487856" id="B.grainline" />
      <path style="stroke-linejoin:miter; stroke-dashoffset:0; stroke:green; stroke-miterlimit:4; stroke-dasharray:6,6; stroke-width:3; fill:none; " transform="" d="M -467.412859897  1410.15443315 L -383.761673202  637.795275591 L -300.110486507  1410.15443315 M -549.94563235  -87.4182932197 L -430.45219408  104.234043908 L -518.493439004  -103.751627012 " id="B.dartline" />
      <path style="stroke-linejoin:miter; stroke-dashoffset:0; stroke:green; stroke-dasharray:24,6; stroke-miterlimit:4; stroke-width:4; fill:none; " transform="" d="M 0.0  0.0 L 0.0  1346.45669291 C -101.067774363  1346.45669291  -234.382038208  1346.45669291  -306.167282905  1354.23147081 L -383.761673202  1369.18520373 L -461.356063499  1354.23147081 C -537.639427833  1345.96951924  -722.618056563  1344.80107546  -851.361750937  1343.98784763 L -908.074019882  743.623370461 C -815.843211147  734.910965532  -627.342519685  637.795275591  -627.342519685  435.978023208 C -627.342519685  314.425626984  -687.614352398  136.105412835  -715.624177057  82.1684498171 L -520.185017325  -39.6860369005 L -508.858261319  -46.7481632481 L -496.566196517  -51.9514480849 L -284.470975712  -141.732283465 C -252.688753608  -78.3927191927  -213.353231784  0.0  0.0  0.0 M 0.0  425.196850394 L -627.342519685  435.978023208 " id="B.seamline" />
      <path style="fill:none;stroke:#008000;stroke-width:4;stroke-linejoin:miter;stroke-miterlimit:4" d="M -306.40625,-193.53125 C -382.79654,-161.0806 -459.42069,-128.98719 -535.6605,-96.313751 -620.15439,-43.626982 -704.71741,9.0963972 -789.25,61.78125 -773.41378,92.737896 -756.58792,123.30286 -745.14581,156.23907 -718.3897,229.42705 -697.31333,305.3623 -687.1875,382.71875 -681.53819,426.73634 -681.27948,472.48783 -696.5625,514.75 -719.46432,580.97255 -773.88019,632.62575 -835.78125,663.09375 -864.79119,677.44541 -896.17687,687.53007 -928.67287,689.1754 -942.21942,690.55443 -955.76596,691.93347 -969.3125,693.3125 -947.07183,928.85406 -924.83025,1164.3955 -902.59375,1399.9375 -775.64485,1400.9932 -648.58518,1400.5625 -521.8204,1406.2453 -496.33317,1407.6564 -470.67826,1408.4508 -445.71534,1414.5128 -424.73313,1418.3062 -403.74796,1423.1073 -382.76822,1426.2787 -353.12077,1420.8297 -323.53396,1414.2695 -293.84375,1409.5312 -215.64936,1402.8606 -136.93136,1403.3506 -58.375001,1402.7484 -20.166707,1402.687 18.04167,1402.733 56.25,1402.7188 56.25,916.39583 56.25,430.07292 56.25,-56.25 -8.2028894,-56.354282 -74.213712,-53.53629 -136.34375,-73.46875 -166.34681,-82.915222 -194.66624,-100.53616 -212.09375,-127.3125 -229.87902,-154.77479 -242.63111,-185.13446 -257.875,-214.0625 -274.05208,-207.21875 -290.22917,-200.375 -306.40625,-193.53125 z" id="B.cuttingline" inkscape:connector-curvature="0" />
      <g id="B.info" transform="">
        <text style="font-size:12; vertical-align:top; fill-opacity:1.0; fill:#000000; text-anchor:start; stroke:none; font-weight:normal; font-style:normal; text-align:right; " transform="" id="B.info.lineNext Patterns" y="318.897637795" x="-357.812088528">
Next Patterns</text>
        <text style="font-size:12; vertical-align:top; fill-opacity:1.0; fill:#000000; text-anchor:start; stroke:none; font-weight:normal; font-style:normal; text-align:right; " transform="" id="B.info.lineMR_B1" y="333.297637795" x="-357.812088528">
MR_B1</text>
        <text style="font-size:12; vertical-align:top; fill-opacity:1.0; fill:#000000; text-anchor:start; stroke:none; font-weight:normal; font-style:normal; text-align:right; " transform="" id="B.info.lineSpencer Bodice Short" y="347.697637795" x="-357.812088528">
Spencer Bodice Short</text>
        <text style="font-size:12; vertical-align:top; fill-opacity:1.0; fill:#000000; text-anchor:start; stroke:none; font-weight:normal; font-style:normal; text-align:right; " transform="" id="B.info.linePattern Piece B" y="362.097637795" x="-357.812088528">
Pattern Piece B</text>
        <text style="font-size:12; vertical-align:top; fill-opacity:1.0; fill:#000000; text-anchor:start; stroke:none; font-weight:normal; font-style:normal; text-align:right; " transform="" id="B.info.lineCut 2 Fabric" y="376.497637795" x="-357.812088528">
Cut 2 Fabric</text>
        <text style="font-size:12; vertical-align:top; fill-opacity:1.0; fill:#000000; text-anchor:start; stroke:none; font-weight:normal; font-style:normal; text-align:right; " transform="" id="B.info.line " y="390.897637795" x="-357.812088528" />
        <text style="font-size:12; vertical-align:top; fill-opacity:1.0; fill:#000000; text-anchor:start; stroke:none; font-weight:normal; font-style:normal; text-align:right; " transform="" id="B.info.lineDressFormLg" y="405.297637795" x="-357.812088528">
DressFormLg</text>
        <text style="font-size:12; vertical-align:top; fill-opacity:1.0; fill:#000000; text-anchor:start; stroke:none; font-weight:normal; font-style:normal; text-align:right; " transform="" id="B.info.line2014/12/20 13:58" y="419.697637795" x="-357.812088528">
2014/12/20 13:58</text>
      </g>
    </g>
    <g id="document.bodice.Bodice Sleeve.pattern" transform=" translate(820.074549, 2328.177392)">
      <line style="stroke-linejoin:miter; stroke:green; stroke-width:4; stroke-miterlimit:4; fill:none; " y2="1877.95275591" marker-end="url(#Arrow1Mend)" marker-start="url(#Arrow1Mstart)" transform="" x2="0.0" y1="425.196850394" x1="0.0" id="C.grainline" />
      <g id="C.letter" transform="matrix(15.000000, 0, 0, 15.000000, 5321.140967, -12394.133858)">
        <text style="font-size:24; vertical-align:top; fill-opacity:1.0; fill:#000000; text-anchor:start; stroke:none; font-weight:normal; font-style:normal; text-align:right; " transform="" id="C.letter.letterline" y="885.295275591" x="-380.081497644">
C</text>
      </g>
      <path style="stroke-linejoin:miter; stroke-dashoffset:0; stroke:green; stroke-miterlimit:4; stroke-dasharray:6,6; stroke-width:3; fill:none; " transform="" d="M 596.849724585  1414.11229282 L 378.42519685  1391.40354331 L 591.563585007  1444.29011168 " id="C.dartline" />
      <path style="stroke-linejoin:miter; stroke-dashoffset:0; stroke:green; stroke-dasharray:24,6; stroke-miterlimit:4; stroke-width:4; fill:none; " transform="" d="M 668.410714081  425.196850394 C 523.219065515  425.196850394  418.774704332  263.861558812  334.231006009  145.823523047 C 262.024608197  45.010552519  165.991034361  -73.5570006223  42.5196850394  -85.0393700787 C 14.2950132909  -87.6641580201  -14.2950132909  -87.6641580201  -42.5196850394  -85.0393700787 C -168.755721013  -73.2998951987  -300.856890331  -8.76928421399  -380.081497644  90.2095703204 C -480.833041561  216.082992072  -567.762247229  425.196850394  -728.991872005  425.196850394 L -449.757370232  2185.28101977 C -187.572097467  2143.68575104  88.8791526048  2134.30097558  346.530146982  2198.23256974 L 536.969164746  1430.74345983 L 539.720079691  1419.65698561 L 540.901283924  1408.29555082 L 668.410714081  425.196850394 " id="C.seamline" />
      <path style="fill:none;stroke:#008000;stroke-width:4;stroke-linejoin:miter;stroke-miterlimit:4" d="M -5.96875,-143.21875 C -115.09892,-141.68837 -222.79951,-106.08405 -313.375,-45.625 -363.58831,-12.067532 -407.76955,30.442439 -442.84861,79.636955 -495.64034,150.86966 -538.62436,229.45248 -597.89998,295.79457 -625.90425,326.27756 -658.98664,355.61141 -700.21875,365.59375 -725.00181,371.45977 -750.749,367.99968 -776,368.9375 -782.29167,368.9375 -788.58333,368.9375 -794.875,368.9375 -695.43393,995.82565 -595.9689,1622.71 -496.5,2249.5938 -402.5882,2234.1832 -308.30712,2220.8236 -213.41214,2214.2216 -25.741191,2200.664 165.01309,2209.3194 347.79278,2256.4243 361.07018,2259.6579 374.34759,2262.8914 387.625,2266.125 456.85542,1987.2141 526.07366,1708.2977 595.25,1429.375 604.16841,1354.4782 614.53253,1279.7485 624.01356,1204.9166 660.12325,926.45479 696.23623,647.99337 732.34375,369.53125 705.76524,368.82307 679.09386,369.98271 652.57519,368.02502 605.20081,362.43134 564.80749,333.69343 530.75163,302.047 455.68301,230.77633 403.31968,140.42816 340.03288,59.358881 290.86976,-3.5912822 235.07269,-64.006687 164.78125,-103.46875 122.68572,-127.32886 74.984303,-141.20694 26.5625,-142.5625 15.730918,-143.15209 4.8784899,-143.34214 -5.96875,-143.21875 z" id="C.cuttingline" inkscape:connector-curvature="0" />
      <g id="C.info" transform="">
        <text style="font-size:12; vertical-align:top; fill-opacity:1.0; fill:#000000; text-anchor:start; stroke:none; font-weight:normal; font-style:normal; text-align:right; " transform="" id="C.info.lineNext Patterns" y="956.161417323" x="-380.081497644">
Next Patterns</text>
        <text style="font-size:12; vertical-align:top; fill-opacity:1.0; fill:#000000; text-anchor:start; stroke:none; font-weight:normal; font-style:normal; text-align:right; " transform="" id="C.info.lineMR_B1" y="970.561417323" x="-380.081497644">
MR_B1</text>
        <text style="font-size:12; vertical-align:top; fill-opacity:1.0; fill:#000000; text-anchor:start; stroke:none; font-weight:normal; font-style:normal; text-align:right; " transform="" id="C.info.lineSpencer Bodice Short" y="984.961417323" x="-380.081497644">
Spencer Bodice Short</text>
        <text style="font-size:12; vertical-align:top; fill-opacity:1.0; fill:#000000; text-anchor:start; stroke:none; font-weight:normal; font-style:normal; text-align:right; " transform="" id="C.info.linePattern Piece C" y="999.361417323" x="-380.081497644">
Pattern Piece C</text>
        <text style="font-size:12; vertical-align:top; fill-opacity:1.0; fill:#000000; text-anchor:start; stroke:none; font-weight:normal; font-style:normal; text-align:right; " transform="" id="C.info.lineCut 2 Fabric" y="1013.76141732" x="-380.081497644">
Cut 2 Fabric</text>
        <text style="font-size:12; vertical-align:top; fill-opacity:1.0; fill:#000000; text-anchor:start; stroke:none; font-weight:normal; font-style:normal; text-align:right; " transform="" id="C.info.line " y="1028.16141732" x="-380.081497644" />
        <text style="font-size:12; vertical-align:top; fill-opacity:1.0; fill:#000000; text-anchor:start; stroke:none; font-weight:normal; font-style:normal; text-align:right; " transform="" id="C.info.lineDressFormLg" y="1042.56141732" x="-380.081497644">
DressFormLg</text>
        <text style="font-size:12; vertical-align:top; fill-opacity:1.0; fill:#000000; text-anchor:start; stroke:none; font-weight:normal; font-style:normal; text-align:right; " transform="" id="C.info.line2014/12/20 13:58" y="1056.96141732" x="-380.081497644">
2014/12/20 13:58</text>
      </g>
    </g>
  </g>
  <g inkscape:label="Label-notes" id="notes" inkscape:groupmode="layer" transform="translate(88.582677,88.582677)">
    <g id="document.titleblock">
      <text style="font-size:40; vertical-align:top; fill-opacity:1.0; fill:#000000; text-anchor:right; stroke:none; font-weight:normal; font-style:normal; text-align:right; " transform="" id="company" y="0.0" x="0.0">
Next Patterns</text>
      <text style="font-size:40; vertical-align:top; fill-opacity:1.0; fill:#000000; text-anchor:right; stroke:none; font-weight:normal; font-style:normal; text-align:right; " transform="" id="designer" y="44.0" x="0.0">
S.L.Spencer</text>
      <text style="font-size:40; vertical-align:top; fill-opacity:1.0; fill:#000000; text-anchor:right; stroke:none; font-weight:normal; font-style:normal; text-align:right; " transform="" id="pattern_number" y="88.0" x="0.0">
MR_B1</text>
      <text style="font-size:40; vertical-align:top; fill-opacity:1.0; fill:#000000; text-anchor:right; stroke:none; font-weight:normal; font-style:normal; text-align:right; " transform="" id="pattern_name" y="132.0" x="0.0">
Spencer Bodice Short</text>
      <text style="font-size:40; vertical-align:top; fill-opacity:1.0; fill:#000000; text-anchor:right; stroke:none; font-weight:normal; font-style:normal; text-align:right; " transform="" id="client" y="176.0" x="0.0">
DressFormLg</text>
      <text style="font-size:40; vertical-align:top; fill-opacity:1.0; fill:#000000; text-anchor:right; stroke:none; font-weight:normal; font-style:normal; text-align:right; " transform="" id="date" y="220.0" x="0.0">
2014/12/20 13:58</text>
    </g>
    <g id="document.testgrid">
      <path style="stroke-linejoin:miter; stroke:green; stroke-width:4; stroke-miterlimit:4; fill:none; " d="M 1080.0  0.0 L 1080.0  212.598425197 M 1115.43307087  0.0 L 1115.43307087  212.598425197 M 1150.86614173  0.0 L 1150.86614173  212.598425197 M 1186.2992126  0.0 L 1186.2992126  212.598425197 M 1221.73228346  0.0 L 1221.73228346  212.598425197 M 1257.16535433  0.0 L 1257.16535433  212.598425197 M 1292.5984252  0.0 L 1292.5984252  212.598425197 M 1080.0  0.0 L 1292.5984252  0.0 M 1080.0  35.4330708661 L 1292.5984252  35.4330708661 M 1080.0  70.8661417323 L 1292.5984252  70.8661417323 M 1080.0  106.299212598 L 1292.5984252  106.299212598 M 1080.0  141.732283465 L 1292.5984252  141.732283465 M 1080.0  177.165354331 L 1292.5984252  177.165354331 M 1080.0  212.598425197 L 1292.5984252  212.598425197 M 1469.76377953  0.0 L 1469.76377953  270.0 M 1559.76377953  0.0 L 1559.76377953  270.0 M 1649.76377953  0.0 L 1649.76377953  270.0 M 1739.76377953  0.0 L 1739.76377953  270.0 M 1469.76377953  0.0 L 1739.76377953  0.0 M 1469.76377953  90.0 L 1739.76377953  90.0 M 1469.76377953  180.0 L 1739.76377953  180.0 M 1469.76377953  270.0 L 1739.76377953  270.0 " id="testgrid" />
    </g>
    <g id="document.bodice.Bodice Front.notes" transform=" translate(58.750000, 757.717638)" />
    <g id="document.bodice.Bodice Back.notes" transform=" translate(2312.108906, 580.552283)" />
    <g id="document.bodice.Bodice Sleeve.notes" transform=" translate(820.074549, 2328.177392)" />
  </g>
  <g inkscape:label="Label-reference" id="reference" inkscape:groupmode="layer" transform="translate(88.582677,88.582677)">
    <g id="document.bodice.Bodice Front.reference" transform=" translate(58.750000, 757.717638)">
      <circle style="stroke:gray; stroke-width:1; fill:none; " transform="" cy="0.0" cx="160.146981797" r="5" id="A.FNC.inpoint" d="M 165.14699,0 C 165.14699,2.7614237 162.90841,5 160.14699,5 157.38556,5 155.14699,2.7614237 155.14699,0 155.14699,-2.7614237 157.38556,-5 160.14699,-5 162.90841,-5 165.14699,-2.7614237 165.14699,0 z" />
      <text style="font-size:25; vertical-align:top; fill-opacity:1.0; fill:gray; text-anchor:right; stroke:none; font-weight:normal; font-style:italic; text-align:right; " transform="" id="A.FNC.inpoint.text" y="-7.0" x="167.146981797">
FNC.in</text>
      <circle style="stroke:red; stroke-width:1; fill:red; " transform="" cy="0.0" cx="0.0" r="5" id="A.FNC" d="M 5,0 C 5,2.7614237 2.7614237,5 0,5 -2.7614237,5 -5,2.7614237 -5,0 -5,-2.7614237 -2.7614237,-5 0,-5 2.7614237,-5 5,-2.7614237 5,0 z" />
      <text style="font-size:30; vertical-align:top; fill-opacity:1.0; fill:darkblue; text-anchor:right; stroke:none; font-weight:normal; font-style:italic; text-align:right; " transform="" id="A.FNC.text" y="-7.0" x="7.0">
FNC</text>
      <circle style="stroke:gray; stroke-width:1; fill:none; " transform="" cy="1240.15748031" cx="88.6078560484" r="5" id="A.FWC.outpoint" d="M 93.607857,1240.1575 C 93.607857,1242.9189 91.36928,1245.1575 88.607857,1245.1575 85.846433,1245.1575 83.607857,1242.9189 83.607857,1240.1575 83.607857,1237.396 85.846433,1235.1575 88.607857,1235.1575 91.36928,1235.1575 93.607857,1237.396 93.607857,1240.1575 z" />
      <text style="font-size:25; vertical-align:top; fill-opacity:1.0; fill:gray; text-anchor:right; stroke:none; font-weight:normal; font-style:italic; text-align:right; " transform="" id="A.FWC.outpoint.text" y="1233.15748031" x="95.6078560484">
FWC.out</text>
      <circle style="stroke:red; stroke-width:1; fill:red; " transform="" cy="1240.15748031" cx="0.0" r="5" id="A.FWC" d="M 5,1240.1575 C 5,1242.9189 2.7614237,1245.1575 0,1245.1575 -2.7614237,1245.1575 -5,1242.9189 -5,1240.1575 -5,1237.396 -2.7614237,1235.1575 0,1235.1575 2.7614237,1235.1575 5,1237.396 5,1240.1575 z" />
      <text style="font-size:30; vertical-align:top; fill-opacity:1.0; fill:darkblue; text-anchor:right; stroke:none; font-weight:normal; font-style:italic; text-align:right; " transform="" id="A.FWC.text" y="1233.15748031" x="7.0">
FWC</text>
      <circle style="stroke:red; stroke-width:1; fill:red; " transform="" cy="-318.897637795" cx="0.0" r="5" id="A.FSH" d="M 5,-318.89764 C 5,-316.13622 2.7614237,-313.89764 0,-313.89764 -2.7614237,-313.89764 -5,-316.13622 -5,-318.89764 -5,-321.65907 -2.7614237,-323.89764 0,-323.89764 2.7614237,-323.89764 5,-321.65907 5,-318.89764 z" />
      <text style="font-size:30; vertical-align:top; fill-opacity:1.0; fill:darkblue; text-anchor:right; stroke:none; font-weight:normal; font-style:italic; text-align:right; " transform="" id="A.FSH.text" y="-325.897637795" x="7.0">
FSH</text>
      <circle style="stroke:red; stroke-width:1; fill:red; " transform="" cy="-318.897637795" cx="717.519685039" r="5" id="A.FSW" d="M 722.51971,-318.89764 C 722.51971,-316.13622 720.28114,-313.89764 717.51971,-313.89764 714.75829,-313.89764 712.51971,-316.13622 712.51971,-318.89764 712.51971,-321.65907 714.75829,-323.89764 717.51971,-323.89764 720.28114,-323.89764 722.51971,-321.65907 722.51971,-318.89764 z" />
      <text style="font-size:30; vertical-align:top; fill-opacity:1.0; fill:darkblue; text-anchor:right; stroke:none; font-weight:normal; font-style:italic; text-align:right; " transform="" id="A.FSW.text" y="-325.897637795" x="724.519685039">
FSW</text>
      <circle style="stroke:gray; stroke-width:1; fill:none; " transform="" cy="-166.013360476" cx="705.363247815" r="5" id="A.FSP.inpoint" d="M 710.36322,-166.01337 C 710.36322,-163.25194 708.12464,-161.01337 705.36322,-161.01337 702.6018,-161.01337 700.36322,-163.25194 700.36322,-166.01337 700.36322,-168.77479 702.6018,-171.01337 705.36322,-171.01337 708.12464,-171.01337 710.36322,-168.77479 710.36322,-166.01337 z" />
      <text style="font-size:25; vertical-align:top; fill-opacity:1.0; fill:gray; text-anchor:right; stroke:none; font-weight:normal; font-style:italic; text-align:right; " transform="" id="A.FSP.inpoint.text" y="-173.013360476" x="712.363247815">
FSP.in</text>
      <circle style="stroke:red; stroke-width:1; fill:red; " transform="" cy="-223.334513127" cx="717.519685039" r="5" id="A.FSP" d="M 722.51971,-223.33452 C 722.51971,-220.57309 720.28114,-218.33452 717.51971,-218.33452 714.75829,-218.33452 712.51971,-220.57309 712.51971,-223.33452 712.51971,-226.09594 714.75829,-228.33452 717.51971,-228.33452 720.28114,-228.33452 722.51971,-226.09594 722.51971,-223.33452 z" />
      <text style="font-size:30; vertical-align:top; fill-opacity:1.0; fill:darkblue; text-anchor:right; stroke:none; font-weight:normal; font-style:italic; text-align:right; " transform="" id="A.FSP.text" y="-230.334513127" x="724.519685039">
FSP</text>
      <circle style="stroke:gray; stroke-width:1; fill:none; " transform="" cy="-162.917928626" cx="233.832093174" r="5" id="A.FNS.outpoint" d="M 238.83209,-162.91792 C 238.83209,-160.1565 236.59352,-157.91792 233.83209,-157.91792 231.07067,-157.91792 228.83209,-160.1565 228.83209,-162.91792 228.83209,-165.67935 231.07067,-167.91792 233.83209,-167.91792 236.59352,-167.91792 238.83209,-165.67935 238.83209,-162.91792 z" />
      <text style="font-size:25; vertical-align:top; fill-opacity:1.0; fill:gray; text-anchor:right; stroke:none; font-weight:normal; font-style:italic; text-align:right; " transform="" id="A.FNS.outpoint.text" y="-169.917928626" x="240.832093174">
FNS.out</text>
      <circle style="stroke:red; stroke-width:1; fill:red; " transform="" cy="-318.897637795" cx="266.911636328" r="5" id="A.FNS" d="M 271.91162,-318.89764 C 271.91162,-316.13622 269.67304,-313.89764 266.91162,-313.89764 264.1502,-313.89764 261.91162,-316.13622 261.91162,-318.89764 261.91162,-321.65907 264.1502,-323.89764 266.91162,-323.89764 269.67304,-323.89764 271.91162,-321.65907 271.91162,-318.89764 z" />
      <text style="font-size:30; vertical-align:top; fill-opacity:1.0; fill:darkblue; text-anchor:right; stroke:none; font-weight:normal; font-style:italic; text-align:right; " transform="" id="A.FNS.text" y="-325.897637795" x="273.911636328">
FNS</text>
      <circle style="stroke:red; stroke-width:1; fill:red; " transform="" cy="318.897637795" cx="0.0" r="5" id="A.FUC" d="M 5,318.89764 C 5,321.65907 2.7614237,323.89764 0,323.89764 -2.7614237,323.89764 -5,321.65907 -5,318.89764 -5,316.13622 -2.7614237,313.89764 0,313.89764 2.7614237,313.89764 5,316.13622 5,318.89764 z" />
      <text style="font-size:30; vertical-align:top; fill-opacity:1.0; fill:darkblue; text-anchor:right; stroke:none; font-weight:normal; font-style:italic; text-align:right; " transform="" id="A.FUC.text" y="311.897637795" x="7.0">
FUC</text>
      <circle style="stroke:red; stroke-width:1; fill:red; " transform="" cy="637.795275591" cx="0.0" r="5" id="A.FBC" d="M 5,637.79529 C 5,640.55671 2.7614237,642.79529 0,642.79529 -2.7614237,642.79529 -5,640.55671 -5,637.79529 -5,635.03386 -2.7614237,632.79529 0,632.79529 2.7614237,632.79529 5,635.03386 5,637.79529 z" />
      <text style="font-size:30; vertical-align:top; fill-opacity:1.0; fill:darkblue; text-anchor:right; stroke:none; font-weight:normal; font-style:italic; text-align:right; " transform="" id="A.FBC.text" y="630.795275591" x="7.0">
FBC</text>
      <circle style="stroke:red; stroke-width:1; fill:red; " transform="" cy="637.795275591" cx="354.330708661" r="5" id="A.FBP" d="M 359.33072,637.79529 C 359.33072,640.55671 357.09214,642.79529 354.33072,642.79529 351.5693,642.79529 349.33072,640.55671 349.33072,637.79529 349.33072,635.03386 351.5693,632.79529 354.33072,632.79529 357.09214,632.79529 359.33072,635.03386 359.33072,637.79529 z" />
      <text style="font-size:30; vertical-align:top; fill-opacity:1.0; fill:darkblue; text-anchor:right; stroke:none; font-weight:normal; font-style:italic; text-align:right; " transform="" id="A.FBP.text" y="630.795275591" x="361.330708661">
FBP</text>
      <circle style="stroke:red; stroke-width:1; fill:red; " transform="" cy="318.897637795" cx="673.228346457" r="5" id="A.f10" d="M 678.22833,318.89764 C 678.22833,321.65907 675.98976,323.89764 673.22833,323.89764 670.46691,323.89764 668.22833,321.65907 668.22833,318.89764 668.22833,316.13622 670.46691,313.89764 673.22833,313.89764 675.98976,313.89764 678.22833,316.13622 678.22833,318.89764 z" />
      <text style="font-size:30; vertical-align:top; fill-opacity:1.0; fill:darkblue; text-anchor:right; stroke:none; font-weight:normal; font-style:italic; text-align:right; " transform="" id="A.f10.text" y="311.897637795" x="680.228346457">
f10</text>
      <circle style="stroke:red; stroke-width:1; fill:red; " transform="" cy="159.448818898" cx="0.0" r="5" id="A.FAC" d="M 5,159.44882 C 5,162.21025 2.7614237,164.44882 0,164.44882 -2.7614237,164.44882 -5,162.21025 -5,159.44882 -5,156.6874 -2.7614237,154.44882 0,154.44882 2.7614237,154.44882 5,156.6874 5,159.44882 z" />
      <text style="font-size:30; vertical-align:top; fill-opacity:1.0; fill:darkblue; text-anchor:right; stroke:none; font-weight:normal; font-style:italic; text-align:right; " transform="" id="A.FAC.text" y="152.448818898" x="7.0">
FAC</text>
      <circle style="stroke:gray; stroke-width:1; fill:none; " transform="" cy="372.404562614" cx="639.566929134" r="5" id="A.FAS.inpoint" d="M 644.56696,372.40457 C 644.56696,375.166 642.32838,377.40457 639.56696,377.40457 636.80553,377.40457 634.56696,375.166 634.56696,372.40457 634.56696,369.64315 636.80553,367.40457 639.56696,367.40457 642.32838,367.40457 644.56696,369.64315 644.56696,372.40457 z" />
      <text style="font-size:25; vertical-align:top; fill-opacity:1.0; fill:gray; text-anchor:right; stroke:none; font-weight:normal; font-style:italic; text-align:right; " transform="" id="A.FAS.inpoint.text" y="365.404562614" x="646.566929134">
FAS.in</text>
      <circle style="stroke:gray; stroke-width:1; fill:none; " transform="" cy="30.5375758868" cx="639.566929134" r="5" id="A.FAS.outpoint" d="M 644.56696,30.537577 C 644.56696,33.299 642.32838,35.537577 639.56696,35.537577 636.80553,35.537577 634.56696,33.299 634.56696,30.537577 634.56696,27.776153 636.80553,25.537577 639.56696,25.537577 642.32838,25.537577 644.56696,27.776153 644.56696,30.537577 z" />
      <text style="font-size:25; vertical-align:top; fill-opacity:1.0; fill:gray; text-anchor:right; stroke:none; font-weight:normal; font-style:italic; text-align:right; " transform="" id="A.FAS.outpoint.text" y="23.5375758868" x="646.566929134">
FAS.out</text>
      <circle style="stroke:red; stroke-width:1; fill:red; " transform="" cy="159.448818898" cx="639.566929134" r="5" id="A.FAS" d="M 644.56696,159.44882 C 644.56696,162.21025 642.32838,164.44882 639.56696,164.44882 636.80553,164.44882 634.56696,162.21025 634.56696,159.44882 634.56696,156.6874 636.80553,154.44882 639.56696,154.44882 642.32838,154.44882 644.56696,156.6874 644.56696,159.44882 z" />
      <text style="font-size:30; vertical-align:top; fill-opacity:1.0; fill:darkblue; text-anchor:right; stroke:none; font-weight:normal; font-style:italic; text-align:right; " transform="" id="A.FAS.text" y="152.448818898" x="646.566929134">
FAS</text>
      <circle style="stroke:red; stroke-width:1; fill:red; " transform="" cy="318.897637795" cx="921.25984252" r="5" id="A.f1" d="M 926.25983,318.89764 C 926.25983,321.65907 924.02125,323.89764 921.25983,323.89764 918.4984,323.89764 916.25983,321.65907 916.25983,318.89764 916.25983,316.13622 918.4984,313.89764 921.25983,313.89764 924.02125,313.89764 926.25983,316.13622 926.25983,318.89764 z" />
      <text style="font-size:30; vertical-align:top; fill-opacity:1.0; fill:darkblue; text-anchor:right; stroke:none; font-weight:normal; font-style:italic; text-align:right; " transform="" id="A.f1.text" y="311.897637795" x="928.25984252">
f1</text>
      <circle style="stroke:red; stroke-width:1; fill:red; " transform="" cy="440.379318512" cx="960.803917844" r="5" id="A.f2" d="M 965.80389,440.37933 C 965.80389,443.14076 963.56532,445.37933 960.80389,445.37933 958.04247,445.37933 955.80389,443.14076 955.80389,440.37933 955.80389,437.61791 958.04247,435.37933 960.80389,435.37933 963.56532,435.37933 965.80389,437.61791 965.80389,440.37933 z" />
      <text style="font-size:30; vertical-align:top; fill-opacity:1.0; fill:darkblue; text-anchor:right; stroke:none; font-weight:normal; font-style:italic; text-align:right; " transform="" id="A.f2.text" y="433.379318512" x="967.803917844">
f2</text>
      <circle style="stroke:red; stroke-width:1; fill:red; " transform="" cy="992.756759109" cx="1140.61090594" r="5" id="A.f3" d="M 1145.611,992.75677 C 1145.611,995.5182 1143.3724,997.75677 1140.611,997.75677 1137.8495,997.75677 1135.611,995.5182 1135.611,992.75677 1135.611,989.99535 1137.8495,987.75677 1140.611,987.75677 1143.3724,987.75677 1145.611,989.99535 1145.611,992.75677 z" />
      <text style="font-size:30; vertical-align:top; fill-opacity:1.0; fill:darkblue; text-anchor:right; stroke:none; font-weight:normal; font-style:italic; text-align:right; " transform="" id="A.f3.text" y="985.756759109" x="1147.61090594">
f3</text>
      <circle style="stroke:red; stroke-width:1; fill:red; " transform="" cy="1240.15748031" cx="354.330708661" r="5" id="A.f4" d="M 359.33072,1240.1575 C 359.33072,1242.9189 357.09214,1245.1575 354.33072,1245.1575 351.5693,1245.1575 349.33072,1242.9189 349.33072,1240.1575 349.33072,1237.396 351.5693,1235.1575 354.33072,1235.1575 357.09214,1235.1575 359.33072,1237.396 359.33072,1240.1575 z" />
      <text style="font-size:30; vertical-align:top; fill-opacity:1.0; fill:darkblue; text-anchor:right; stroke:none; font-weight:normal; font-style:italic; text-align:right; " transform="" id="A.f4.text" y="1233.15748031" x="361.330708661">
f4</text>
      <circle style="stroke:red; stroke-width:1; fill:red; " transform="" cy="1150.61284812" cx="670.334447545" r="5" id="A.f5" d="M 675.33447,1150.6128 C 675.33447,1153.3742 673.0959,1155.6128 670.33447,1155.6128 667.57305,1155.6128 665.33447,1153.3742 665.33447,1150.6128 665.33447,1147.8514 667.57305,1145.6128 670.33447,1145.6128 673.0959,1145.6128 675.33447,1147.8514 675.33447,1150.6128 z" />
      <text style="font-size:30; vertical-align:top; fill-opacity:1.0; fill:darkblue; text-anchor:right; stroke:none; font-weight:normal; font-style:italic; text-align:right; " transform="" id="A.f5.text" y="1143.61284812" x="677.334447545">
f5</text>
      <circle style="stroke:red; stroke-width:1; fill:red; " transform="" cy="985.130882295" cx="1164.03803945" r="5" id="A.f6" d="M 1169.0381,985.13086 C 1169.0381,987.89228 1166.7995,990.13086 1164.0381,990.13086 1161.2767,990.13086 1159.0381,987.89228 1159.0381,985.13086 1159.0381,982.36944 1161.2767,980.13086 1164.0381,980.13086 1166.7995,980.13086 1169.0381,982.36944 1169.0381,985.13086 z" />
      <text style="font-size:30; vertical-align:top; fill-opacity:1.0; fill:darkblue; text-anchor:right; stroke:none; font-weight:normal; font-style:italic; text-align:right; " transform="" id="A.f6.text" y="978.130882295" x="1171.03803945">
f6</text>
      <circle style="stroke:red; stroke-width:1; fill:red; " transform="" cy="308.91716441" cx="951.920432539" r="5" id="A.f7" d="M 956.92041,308.91718 C 956.92041,311.6786 954.68183,313.91718 951.92041,313.91718 949.15899,313.91718 946.92041,311.6786 946.92041,308.91718 946.92041,306.15575 949.15899,303.91718 951.92041,303.91718 954.68183,303.91718 956.92041,306.15575 956.92041,308.91718 z" />
      <text style="font-size:30; vertical-align:top; fill-opacity:1.0; fill:darkblue; text-anchor:right; stroke:none; font-weight:normal; font-style:italic; text-align:right; " transform="" id="A.f7.text" y="301.91716441" x="958.920432539">
f7</text>
      <circle style="stroke:red; stroke-width:1; fill:red; " transform="" cy="430.82332606" cx="990.160477948" r="5" id="A.FBS" d="M 995.16046,430.82333 C 995.16046,433.58476 992.92189,435.82333 990.16046,435.82333 987.39904,435.82333 985.16046,433.58476 985.16046,430.82333 985.16046,428.06191 987.39904,425.82333 990.16046,425.82333 992.92189,425.82333 995.16046,428.06191 995.16046,430.82333 z" />
      <text style="font-size:30; vertical-align:top; fill-opacity:1.0; fill:darkblue; text-anchor:right; stroke:none; font-weight:normal; font-style:italic; text-align:right; " transform="" id="A.FBS.text" y="423.82332606" x="997.160477948">
FBS</text>
      <circle style="stroke:gray; stroke-width:1; fill:none; " transform="" cy="463.076114248" cx="821.738234984" r="5" id="A.FUS.outpoint" d="M 826.73822,463.07611 C 826.73822,465.83753 824.49964,468.07611 821.73822,468.07611 818.9768,468.07611 816.73822,465.83753 816.73822,463.07611 816.73822,460.31469 818.9768,458.07611 821.73822,458.07611 824.49964,458.07611 826.73822,460.31469 826.73822,463.07611 z" />
      <text style="font-size:25; vertical-align:top; fill-opacity:1.0; fill:gray; text-anchor:right; stroke:none; font-weight:normal; font-style:italic; text-align:right; " transform="" id="A.FUS.outpoint.text" y="456.076114248" x="828.738234984">
FUS.out</text>
      <circle style="stroke:red; stroke-width:1; fill:red; " transform="" cy="410.343378751" cx="983.736240613" r="5" id="A.FUS" d="M 988.73627,410.34338 C 988.73627,413.10481 986.49769,415.34338 983.73627,415.34338 980.97484,415.34338 978.73627,413.10481 978.73627,410.34338 978.73627,407.58196 980.97484,405.34338 983.73627,405.34338 986.49769,405.34338 988.73627,407.58196 988.73627,410.34338 z" />
      <text style="font-size:30; vertical-align:top; fill-opacity:1.0; fill:darkblue; text-anchor:right; stroke:none; font-weight:normal; font-style:italic; text-align:right; " transform="" id="A.FUS.text" y="403.343378751" x="990.736240613">
FUS</text>
      <circle style="stroke:gray; stroke-width:1; fill:none; " transform="" cy="1206.62536145" cx="840.699409574" r="5" id="A.FWS.inpoint" d="M 845.6994,1206.6254 C 845.6994,1209.3868 843.46083,1211.6254 840.6994,1211.6254 837.93798,1211.6254 835.6994,1209.3868 835.6994,1206.6254 835.6994,1203.8639 837.93798,1201.6254 840.6994,1201.6254 843.46083,1201.6254 845.6994,1203.8639 845.6994,1206.6254 z" />
      <text style="font-size:25; vertical-align:top; fill-opacity:1.0; fill:gray; text-anchor:right; stroke:none; font-weight:normal; font-style:italic; text-align:right; " transform="" id="A.FWS.inpoint.text" y="1199.62536145" x="847.699409574">
FWS.in</text>
      <circle style="stroke:red; stroke-width:1; fill:red; " transform="" cy="1192.7249741" cx="1038.67054744" r="5" id="A.FWS" d="M 1043.6705,1192.725 C 1043.6705,1195.4864 1041.432,1197.725 1038.6705,1197.725 1035.9091,1197.725 1033.6705,1195.4864 1033.6705,1192.725 1033.6705,1189.9636 1035.9091,1187.725 1038.6705,1187.725 1041.432,1187.725 1043.6705,1189.9636 1043.6705,1192.725 z" />
      <text style="font-size:30; vertical-align:top; fill-opacity:1.0; fill:darkblue; text-anchor:right; stroke:none; font-weight:normal; font-style:italic; text-align:right; " transform="" id="A.FWS.text" y="1185.7249741" x="1045.67054744">
FWS</text>
      <circle style="stroke:red; stroke-width:1; fill:red; " transform="" cy="652.261490393" cx="458.443533323" r="5" id="A.FD2" d="M 463.44354,652.26147 C 463.44354,655.0229 461.20497,657.26147 458.44354,657.26147 455.68212,657.26147 453.44354,655.0229 453.44354,652.26147 453.44354,649.50005 455.68212,647.26147 458.44354,647.26147 461.20497,647.26147 463.44354,649.50005 463.44354,652.26147 z" />
      <text style="font-size:30; vertical-align:top; fill-opacity:1.0; fill:darkblue; text-anchor:right; stroke:none; font-weight:normal; font-style:italic; text-align:right; " transform="" id="A.FD2.text" y="645.261490393" x="465.443533323">
FD2</text>
      <circle style="stroke:red; stroke-width:1; fill:red; " transform="" cy="637.718134028" cx="1058.26592947" r="5" id="A.FD2.i" d="M 1063.2659,637.71814 C 1063.2659,640.47956 1061.0273,642.71814 1058.2659,642.71814 1055.5044,642.71814 1053.2659,640.47956 1053.2659,637.71814 1053.2659,634.95672 1055.5044,632.71814 1058.2659,632.71814 1061.0273,632.71814 1063.2659,634.95672 1063.2659,637.71814 z" />
      <text style="font-size:30; vertical-align:top; fill-opacity:1.0; fill:darkblue; text-anchor:right; stroke:none; font-weight:normal; font-style:italic; text-align:right; " transform="" id="A.FD2.i.text" y="630.718134028" x="1065.26592947">
FD2.i</text>
      <circle style="stroke:red; stroke-width:1; fill:red; " transform="" cy="829.784361688" cx="1031.57881081" r="5" id="A.FD2.o" d="M 1036.5789,829.78436 C 1036.5789,832.54579 1034.3403,834.78436 1031.5789,834.78436 1028.8174,834.78436 1026.5789,832.54579 1026.5789,829.78436 1026.5789,827.02294 1028.8174,824.78436 1031.5789,824.78436 1034.3403,824.78436 1036.5789,827.02294 1036.5789,829.78436 z" />
      <text style="font-size:30; vertical-align:top; fill-opacity:1.0; fill:darkblue; text-anchor:right; stroke:none; font-weight:normal; font-style:italic; text-align:right; " transform="" id="A.FD2.o.text" y="822.784361688" x="1038.57881081">
FD2.o</text>
      <circle style="stroke:red; stroke-width:1; fill:red; " transform="" cy="1240.15748031" cx="270.633997225" r="5" id="A.f8" d="M 275.634,1240.1575 C 275.634,1242.9189 273.39543,1245.1575 270.634,1245.1575 267.87258,1245.1575 265.634,1242.9189 265.634,1240.1575 265.634,1237.396 267.87258,1235.1575 270.634,1235.1575 273.39543,1235.1575 275.634,1237.396 275.634,1240.1575 z" />
      <text style="font-size:30; vertical-align:top; fill-opacity:1.0; fill:darkblue; text-anchor:right; stroke:none; font-weight:normal; font-style:italic; text-align:right; " transform="" id="A.f8.text" y="1233.15748031" x="277.633997225">
f8</text>
      <circle style="stroke:red; stroke-width:1; fill:red; " transform="" cy="1240.15748031" cx="438.027420098" r="5" id="A.f9" d="M 443.02744,1240.1575 C 443.02744,1242.9189 440.78886,1245.1575 438.02744,1245.1575 435.26601,1245.1575 433.02744,1242.9189 433.02744,1240.1575 433.02744,1237.396 435.26601,1235.1575 438.02744,1235.1575 440.78886,1235.1575 443.02744,1237.396 443.02744,1240.1575 z" />
      <text style="font-size:30; vertical-align:top; fill-opacity:1.0; fill:darkblue; text-anchor:right; stroke:none; font-weight:normal; font-style:italic; text-align:right; " transform="" id="A.f9.text" y="1233.15748031" x="445.027420098">
f9</text>
      <circle style="stroke:red; stroke-width:1; fill:red; " transform="" cy="728.149606299" cx="354.330708661" r="5" id="A.FD1" d="M 359.33072,728.1496 C 359.33072,730.91102 357.09214,733.1496 354.33072,733.1496 351.5693,733.1496 349.33072,730.91102 349.33072,728.1496 349.33072,725.38817 351.5693,723.1496 354.33072,723.1496 357.09214,723.1496 359.33072,725.38817 359.33072,728.1496 z" />
      <text style="font-size:30; vertical-align:top; fill-opacity:1.0; fill:darkblue; text-anchor:right; stroke:none; font-weight:normal; font-style:italic; text-align:right; " transform="" id="A.FD1.text" y="721.149606299" x="361.330708661">
FD1</text>
      <circle style="stroke:gray; stroke-width:1; fill:none; " transform="" cy="1240.15748031" cx="170.9253694" r="5" id="A.FD1.i.inpoint" d="M 175.92537,1240.1575 C 175.92537,1242.9189 173.68679,1245.1575 170.92537,1245.1575 168.16395,1245.1575 165.92537,1242.9189 165.92537,1240.1575 165.92537,1237.396 168.16395,1235.1575 170.92537,1235.1575 173.68679,1235.1575 175.92537,1237.396 175.92537,1240.1575 z" />
      <text style="font-size:25; vertical-align:top; fill-opacity:1.0; fill:gray; text-anchor:right; stroke:none; font-weight:normal; font-style:italic; text-align:right; " transform="" id="A.FD1.i.inpoint.text" y="1233.15748031" x="177.9253694">
FD1.i.in</text>
      <circle style="stroke:red; stroke-width:1; fill:red; " transform="" cy="1256.03240845" cx="268.038960417" r="5" id="A.FD1.i" d="M 273.03897,1256.0323 C 273.03897,1258.7938 270.80039,1261.0323 268.03897,1261.0323 265.27755,1261.0323 263.03897,1258.7938 263.03897,1256.0323 263.03897,1253.2709 265.27755,1251.0323 268.03897,1251.0323 270.80039,1251.0323 273.03897,1253.2709 273.03897,1256.0323 z" />
      <text style="font-size:30; vertical-align:top; fill-opacity:1.0; fill:darkblue; text-anchor:right; stroke:none; font-weight:normal; font-style:italic; text-align:right; " transform="" id="A.FD1.i.text" y="1249.03240845" x="275.038960417">
FD1.i</text>
      <circle style="stroke:gray; stroke-width:1; fill:none; " transform="" cy="1224.92477152" cx="630.920914" r="5" id="A.FD1.o.outpoint" d="M 635.9209,1224.9248 C 635.9209,1227.6862 633.68232,1229.9248 630.9209,1229.9248 628.15947,1229.9248 625.9209,1227.6862 625.9209,1224.9248 625.9209,1222.1634 628.15947,1219.9248 630.9209,1219.9248 633.68232,1219.9248 635.9209,1222.1634 635.9209,1224.9248 z" />
      <text style="font-size:25; vertical-align:top; fill-opacity:1.0; fill:gray; text-anchor:right; stroke:none; font-weight:normal; font-style:italic; text-align:right; " transform="" id="A.FD1.o.outpoint.text" y="1217.92477152" x="637.920914">
FD1.o.out</text>
      <circle style="stroke:red; stroke-width:1; fill:red; " transform="" cy="1256.03240845" cx="440.622456906" r="5" id="A.FD1.o" d="M 445.62247,1256.0323 C 445.62247,1258.7938 443.38389,1261.0323 440.62247,1261.0323 437.86104,1261.0323 435.62247,1258.7938 435.62247,1256.0323 435.62247,1253.2709 437.86104,1251.0323 440.62247,1251.0323 443.38389,1251.0323 445.62247,1253.2709 445.62247,1256.0323 z" />
      <text style="font-size:30; vertical-align:top; fill-opacity:1.0; fill:darkblue; text-anchor:right; stroke:none; font-weight:normal; font-style:italic; text-align:right; " transform="" id="A.FD1.o.text" y="1249.03240845" x="447.622456906">
FD1.o</text>
      <path style="stroke-linejoin:miter; stroke-dashoffset:0; stroke:gray; stroke-miterlimit:4; stroke-dasharray:6,6; stroke-width:2; fill:none; " transform="" d="M 0.0  1240.15748031 L 717.519685039  -223.334513127 L 717.519685039  -318.897637795 L 0.0  -318.897637795 L 0.0  0.0 M 0.0  637.795275591 L 354.330708661  637.795275591 L 990.160477948  430.82332606 M 0.0  318.897637795 L 921.25984252  318.897637795 L 951.920432539  308.91716441 L 1164.03803945  985.130882295 L 1140.61090594  992.756759109 L 921.25984252  318.897637795 M 0.0  1240.15748031 L 354.330708661  1240.15748031 L 354.330708661  637.795275591 L 670.334447545  1150.61284812 L 1140.61090594  992.756759109 M 354.330708661  637.795275591 L 458.443533323  652.261490393 M 0.0  159.448818898 L 639.566929134  159.448818898 " id="A.gridline" />
    </g>
    <g id="document.bodice.Bodice Back.reference" transform=" translate(2312.108906, 580.552283)">
      <circle style="stroke:gray; stroke-width:1; fill:none; " transform="" cy="0.0" cx="-213.353231784" r="5" id="B.BNC.inpoint" d="M -208.35323,0 C -208.35323,2.7614237 -210.5918,5 -213.35323,5 -216.11465,5 -218.35323,2.7614237 -218.35323,0 -218.35323,-2.7614237 -216.11465,-5 -213.35323,-5 -210.5918,-5 -208.35323,-2.7614237 -208.35323,0 z" />
      <text style="font-size:25; vertical-align:top; fill-opacity:1.0; fill:gray; text-anchor:right; stroke:none; font-weight:normal; font-style:italic; text-align:right; " transform="" id="B.BNC.inpoint.text" y="-7.0" x="-206.353231784">
BNC.in</text>
      <circle style="stroke:red; stroke-width:1; fill:red; " transform="" cy="0.0" cx="0.0" r="5" id="B.BNC" d="M 5,0 C 5,2.7614237 2.7614237,5 0,5 -2.7614237,5 -5,2.7614237 -5,0 -5,-2.7614237 -2.7614237,-5 0,-5 2.7614237,-5 5,-2.7614237 5,0 z" />
      <text style="font-size:30; vertical-align:top; fill-opacity:1.0; fill:darkblue; text-anchor:right; stroke:none; font-weight:normal; font-style:italic; text-align:right; " transform="" id="B.BNC.text" y="-7.0" x="7.0">
BNC</text>
      <circle style="stroke:gray; stroke-width:1; fill:none; " transform="" cy="1346.45669291" cx="-101.067774363" r="5" id="B.BWC.outpoint" d="M -96.067772,1346.4567 C -96.067772,1349.2181 -98.306348,1351.4567 -101.06777,1351.4567 -103.8292,1351.4567 -106.06777,1349.2181 -106.06777,1346.4567 -106.06777,1343.6952 -103.8292,1341.4567 -101.06777,1341.4567 -98.306348,1341.4567 -96.067772,1343.6952 -96.067772,1346.4567 z" />
      <text style="font-size:25; vertical-align:top; fill-opacity:1.0; fill:gray; text-anchor:right; stroke:none; font-weight:normal; font-style:italic; text-align:right; " transform="" id="B.BWC.outpoint.text" y="1339.45669291" x="-94.0677743631">
BWC.out</text>
      <circle style="stroke:red; stroke-width:1; fill:red; " transform="" cy="1346.45669291" cx="0.0" r="5" id="B.BWC" d="M 5,1346.4567 C 5,1349.2181 2.7614237,1351.4567 0,1351.4567 -2.7614237,1351.4567 -5,1349.2181 -5,1346.4567 -5,1343.6952 -2.7614237,1341.4567 0,1341.4567 2.7614237,1341.4567 5,1343.6952 5,1346.4567 z" />
      <text style="font-size:30; vertical-align:top; fill-opacity:1.0; fill:darkblue; text-anchor:right; stroke:none; font-weight:normal; font-style:italic; text-align:right; " transform="" id="B.BWC.text" y="1339.45669291" x="7.0">
BWC</text>
      <circle style="stroke:red; stroke-width:1; fill:red; " transform="" cy="-141.732283465" cx="0.0" r="5" id="B.BSH" d="M 5,-141.73228 C 5,-138.97086 2.7614237,-136.73228 0,-136.73228 -2.7614237,-136.73228 -5,-138.97086 -5,-141.73228 -5,-144.49371 -2.7614237,-146.73228 0,-146.73228 2.7614237,-146.73228 5,-144.49371 5,-141.73228 z" />
      <text style="font-size:30; vertical-align:top; fill-opacity:1.0; fill:darkblue; text-anchor:right; stroke:none; font-weight:normal; font-style:italic; text-align:right; " transform="" id="B.BSH.text" y="-148.732283465" x="7.0">
BSH</text>
      <circle style="stroke:red; stroke-width:1; fill:red; " transform="" cy="-141.732283465" cx="-708.661417323" r="5" id="B.BSW" d="M -703.66144,-141.73228 C -703.66144,-138.97086 -705.90001,-136.73228 -708.66144,-136.73228 -711.42286,-136.73228 -713.66144,-138.97086 -713.66144,-141.73228 -713.66144,-144.49371 -711.42286,-146.73228 -708.66144,-146.73228 -705.90001,-146.73228 -703.66144,-144.49371 -703.66144,-141.73228 z" />
      <text style="font-size:30; vertical-align:top; fill-opacity:1.0; fill:darkblue; text-anchor:right; stroke:none; font-weight:normal; font-style:italic; text-align:right; " transform="" id="B.BSW.text" y="-148.732283465" x="-701.661417323">
BSW</text>
      <circle style="stroke:gray; stroke-width:1; fill:none; " transform="" cy="136.105412835" cx="-687.614352398" r="5" id="B.BSP.inpoint" d="M -682.61438,136.10541 C -682.61438,138.86683 -684.85296,141.10541 -687.61438,141.10541 -690.3758,141.10541 -692.61438,138.86683 -692.61438,136.10541 -692.61438,133.34398 -690.3758,131.10541 -687.61438,131.10541 -684.85296,131.10541 -682.61438,133.34398 -682.61438,136.10541 z" />
      <text style="font-size:25; vertical-align:top; fill-opacity:1.0; fill:gray; text-anchor:right; stroke:none; font-weight:normal; font-style:italic; text-align:right; " transform="" id="B.BSP.inpoint.text" y="129.105412835" x="-680.614352398">
BSP.in</text>
      <circle style="stroke:red; stroke-width:1; fill:red; " transform="" cy="82.1684498171" cx="-715.624177057" r="5" id="B.BSP" d="M -710.62421,82.168449 C -710.62421,84.929873 -712.86278,87.168449 -715.62421,87.168449 -718.38563,87.168449 -720.62421,84.929873 -720.62421,82.168449 -720.62421,79.407026 -718.38563,77.168449 -715.62421,77.168449 -712.86278,77.168449 -710.62421,79.407026 -710.62421,82.168449 z" />
      <text style="font-size:30; vertical-align:top; fill-opacity:1.0; fill:darkblue; text-anchor:right; stroke:none; font-weight:normal; font-style:italic; text-align:right; " transform="" id="B.BSP.text" y="75.1684498171" x="-708.624177057">
BSP</text>
      <circle style="stroke:gray; stroke-width:1; fill:none; " transform="" cy="-78.3927191927" cx="-252.688753608" r="5" id="B.BNS.outpoint" d="M -247.68875,-78.392715 C -247.68875,-75.631292 -249.92733,-73.392715 -252.68875,-73.392715 -255.45017,-73.392715 -257.68875,-75.631292 -257.68875,-78.392715 -257.68875,-81.154139 -255.45017,-83.392715 -252.68875,-83.392715 -249.92733,-83.392715 -247.68875,-81.154139 -247.68875,-78.392715 z" />
      <text style="font-size:25; vertical-align:top; fill-opacity:1.0; fill:gray; text-anchor:right; stroke:none; font-weight:normal; font-style:italic; text-align:right; " transform="" id="B.BNS.outpoint.text" y="-85.3927191927" x="-245.688753608">
BNS.out</text>
      <circle style="stroke:red; stroke-width:1; fill:red; " transform="" cy="-141.732283465" cx="-284.470975712" r="5" id="B.BNS" d="M -279.47098,-141.73228 C -279.47098,-138.97086 -281.70955,-136.73228 -284.47098,-136.73228 -287.2324,-136.73228 -289.47098,-138.97086 -289.47098,-141.73228 -289.47098,-144.49371 -287.2324,-146.73228 -284.47098,-146.73228 -281.70955,-146.73228 -279.47098,-144.49371 -279.47098,-141.73228 z" />
      <text style="font-size:30; vertical-align:top; fill-opacity:1.0; fill:darkblue; text-anchor:right; stroke:none; font-weight:normal; font-style:italic; text-align:right; " transform="" id="B.BNS.text" y="-148.732283465" x="-277.470975712">
BNS</text>
      <circle style="stroke:red; stroke-width:1; fill:red; " transform="" cy="637.795275591" cx="0.0" r="5" id="B.BUC" d="M 5,637.79529 C 5,640.55671 2.7614237,642.79529 0,642.79529 -2.7614237,642.79529 -5,640.55671 -5,637.79529 -5,635.03386 -2.7614237,632.79529 0,632.79529 2.7614237,632.79529 5,635.03386 5,637.79529 z" />
      <text style="font-size:30; vertical-align:top; fill-opacity:1.0; fill:darkblue; text-anchor:right; stroke:none; font-weight:normal; font-style:italic; text-align:right; " transform="" id="B.BUC.text" y="630.795275591" x="7.0">
BUC</text>
      <circle style="stroke:red; stroke-width:1; fill:red; " transform="" cy="637.795275591" cx="-627.342519685" r="5" id="B.b7" d="M -622.34253,637.79529 C -622.34253,640.55671 -624.58111,642.79529 -627.34253,642.79529 -630.10395,642.79529 -632.34253,640.55671 -632.34253,637.79529 -632.34253,635.03386 -630.10395,632.79529 -627.34253,632.79529 -624.58111,632.79529 -622.34253,635.03386 -622.34253,637.79529 z" />
      <text style="font-size:30; vertical-align:top; fill-opacity:1.0; fill:darkblue; text-anchor:right; stroke:none; font-weight:normal; font-style:italic; text-align:right; " transform="" id="B.b7.text" y="630.795275591" x="-620.342519685">
b7</text>
      <circle style="stroke:red; stroke-width:1; fill:red; " transform="" cy="425.196850394" cx="0.0" r="5" id="B.BAC" d="M 5,425.19684 C 5,427.95826 2.7614237,430.19684 0,430.19684 -2.7614237,430.19684 -5,427.95826 -5,425.19684 -5,422.43541 -2.7614237,420.19684 0,420.19684 2.7614237,420.19684 5,422.43541 5,425.19684 z" />
      <text style="font-size:30; vertical-align:top; fill-opacity:1.0; fill:darkblue; text-anchor:right; stroke:none; font-weight:normal; font-style:italic; text-align:right; " transform="" id="B.BAC.text" y="418.196850394" x="7.0">
BAC</text>
      <circle style="stroke:gray; stroke-width:1; fill:none; " transform="" cy="637.795275591" cx="-627.342519685" r="5" id="B.BAS.inpoint" d="M -622.34253,637.79529 C -622.34253,640.55671 -624.58111,642.79529 -627.34253,642.79529 -630.10395,642.79529 -632.34253,640.55671 -632.34253,637.79529 -632.34253,635.03386 -630.10395,632.79529 -627.34253,632.79529 -624.58111,632.79529 -622.34253,635.03386 -622.34253,637.79529 z" />
      <text style="font-size:25; vertical-align:top; fill-opacity:1.0; fill:gray; text-anchor:right; stroke:none; font-weight:normal; font-style:italic; text-align:right; " transform="" id="B.BAS.inpoint.text" y="630.795275591" x="-620.342519685">
BAS.in</text>
      <circle style="stroke:gray; stroke-width:1; fill:none; " transform="" cy="314.425626984" cx="-627.342519685" r="5" id="B.BAS.outpoint" d="M -622.34253,314.42563 C -622.34253,317.18705 -624.58111,319.42563 -627.34253,319.42563 -630.10395,319.42563 -632.34253,317.18705 -632.34253,314.42563 -632.34253,311.6642 -630.10395,309.42563 -627.34253,309.42563 -624.58111,309.42563 -622.34253,311.6642 -622.34253,314.42563 z" />
      <text style="font-size:25; vertical-align:top; fill-opacity:1.0; fill:gray; text-anchor:right; stroke:none; font-weight:normal; font-style:italic; text-align:right; " transform="" id="B.BAS.outpoint.text" y="307.425626984" x="-620.342519685">
BAS.out</text>
      <circle style="stroke:red; stroke-width:1; fill:red; " transform="" cy="435.978023208" cx="-627.342519685" r="5" id="B.BAS" d="M -622.34253,435.97803 C -622.34253,438.73945 -624.58111,440.97803 -627.34253,440.97803 -630.10395,440.97803 -632.34253,438.73945 -632.34253,435.97803 -632.34253,433.2166 -630.10395,430.97803 -627.34253,430.97803 -624.58111,430.97803 -622.34253,433.2166 -622.34253,435.97803 z" />
      <text style="font-size:30; vertical-align:top; fill-opacity:1.0; fill:darkblue; text-anchor:right; stroke:none; font-weight:normal; font-style:italic; text-align:right; " transform="" id="B.BAS.text" y="428.978023208" x="-620.342519685">
BAS</text>
      <circle style="stroke:red; stroke-width:1; fill:red; " transform="" cy="637.795275591" cx="-885.826771654" r="5" id="B.b1" d="M -880.82678,637.79529 C -880.82678,640.55671 -883.06536,642.79529 -885.82678,642.79529 -888.58821,642.79529 -890.82678,640.55671 -890.82678,637.79529 -890.82678,635.03386 -888.58821,632.79529 -885.82678,632.79529 -883.06536,632.79529 -880.82678,635.03386 -880.82678,637.79529 z" />
      <text style="font-size:30; vertical-align:top; fill-opacity:1.0; fill:darkblue; text-anchor:right; stroke:none; font-weight:normal; font-style:italic; text-align:right; " transform="" id="B.b1.text" y="630.795275591" x="-878.826771654">
b1</text>
      <circle style="stroke:red; stroke-width:1; fill:red; " transform="" cy="637.795275591" cx="-383.761673202" r="5" id="B.BD1" d="M -378.76169,637.79529 C -378.76169,640.55671 -381.00026,642.79529 -383.76169,642.79529 -386.52311,642.79529 -388.76169,640.55671 -388.76169,637.79529 -388.76169,635.03386 -386.52311,632.79529 -383.76169,632.79529 -381.00026,632.79529 -378.76169,635.03386 -378.76169,637.79529 z" />
      <text style="font-size:30; vertical-align:top; fill-opacity:1.0; fill:darkblue; text-anchor:right; stroke:none; font-weight:normal; font-style:italic; text-align:right; " transform="" id="B.BD1.text" y="630.795275591" x="-376.761673202">
BD1</text>
      <circle style="stroke:red; stroke-width:1; fill:red; " transform="" cy="1346.45669291" cx="-383.761673202" r="5" id="B.b2" d="M -378.76169,1346.4567 C -378.76169,1349.2181 -381.00026,1351.4567 -383.76169,1351.4567 -386.52311,1351.4567 -388.76169,1349.2181 -388.76169,1346.4567 -388.76169,1343.6952 -386.52311,1341.4567 -383.76169,1341.4567 -381.00026,1341.4567 -378.76169,1343.6952 -378.76169,1346.4567 z" />
      <text style="font-size:30; vertical-align:top; fill-opacity:1.0; fill:darkblue; text-anchor:right; stroke:none; font-weight:normal; font-style:italic; text-align:right; " transform="" id="B.b2.text" y="1339.45669291" x="-376.761673202">
b2</text>
      <circle style="stroke:red; stroke-width:1; fill:red; " transform="" cy="1346.45669291" cx="-307.009338562" r="5" id="B.b3" d="M -302.00934,1346.4567 C -302.00934,1349.2181 -304.24791,1351.4567 -307.00934,1351.4567 -309.77076,1351.4567 -312.00934,1349.2181 -312.00934,1346.4567 -312.00934,1343.6952 -309.77076,1341.4567 -307.00934,1341.4567 -304.24791,1341.4567 -302.00934,1343.6952 -302.00934,1346.4567 z" />
      <text style="font-size:30; vertical-align:top; fill-opacity:1.0; fill:darkblue; text-anchor:right; stroke:none; font-weight:normal; font-style:italic; text-align:right; " transform="" id="B.b3.text" y="1339.45669291" x="-300.009338562">
b3</text>
      <circle style="stroke:red; stroke-width:1; fill:red; " transform="" cy="1346.45669291" cx="-460.514007842" r="5" id="B.b4" d="M -455.51401,1346.4567 C -455.51401,1349.2181 -457.75258,1351.4567 -460.51401,1351.4567 -463.27543,1351.4567 -465.51401,1349.2181 -465.51401,1346.4567 -465.51401,1343.6952 -463.27543,1341.4567 -460.51401,1341.4567 -457.75258,1341.4567 -455.51401,1343.6952 -455.51401,1346.4567 z" />
      <text style="font-size:30; vertical-align:top; fill-opacity:1.0; fill:darkblue; text-anchor:right; stroke:none; font-weight:normal; font-style:italic; text-align:right; " transform="" id="B.b4.text" y="1339.45669291" x="-453.514007842">
b4</text>
      <circle style="stroke:gray; stroke-width:1; fill:none; " transform="" cy="1346.45669291" cx="-234.382038208" r="5" id="B.BD1.i.inpoint" d="M -229.38203,1346.4567 C -229.38203,1349.2181 -231.62061,1351.4567 -234.38203,1351.4567 -237.14346,1351.4567 -239.38203,1349.2181 -239.38203,1346.4567 -239.38203,1343.6952 -237.14346,1341.4567 -234.38203,1341.4567 -231.62061,1341.4567 -229.38203,1343.6952 -229.38203,1346.4567 z" />
      <text style="font-size:25; vertical-align:top; fill-opacity:1.0; fill:gray; text-anchor:right; stroke:none; font-weight:normal; font-style:italic; text-align:right; " transform="" id="B.BD1.i.inpoint.text" y="1339.45669291" x="-227.382038208">
BD1.i.in</text>
      <circle style="stroke:red; stroke-width:1; fill:red; " transform="" cy="1354.23147081" cx="-306.167282905" r="5" id="B.BD1.i" d="M -301.1673,1354.2314 C -301.1673,1356.9929 -303.40587,1359.2314 -306.1673,1359.2314 -308.92872,1359.2314 -311.1673,1356.9929 -311.1673,1354.2314 -311.1673,1351.47 -308.92872,1349.2314 -306.1673,1349.2314 -303.40587,1349.2314 -301.1673,1351.47 -301.1673,1354.2314 z" />
      <text style="font-size:30; vertical-align:top; fill-opacity:1.0; fill:darkblue; text-anchor:right; stroke:none; font-weight:normal; font-style:italic; text-align:right; " transform="" id="B.BD1.i.text" y="1347.23147081" x="-299.167282905">
BD1.i</text>
      <circle style="stroke:gray; stroke-width:1; fill:none; " transform="" cy="1345.96951924" cx="-537.639427833" r="5" id="B.BD1.o.outpoint" d="M -532.6394,1345.9695 C -532.6394,1348.7309 -534.87798,1350.9695 -537.6394,1350.9695 -540.40083,1350.9695 -542.6394,1348.7309 -542.6394,1345.9695 -542.6394,1343.2081 -540.40083,1340.9695 -537.6394,1340.9695 -534.87798,1340.9695 -532.6394,1343.2081 -532.6394,1345.9695 z" />
      <text style="font-size:25; vertical-align:top; fill-opacity:1.0; fill:gray; text-anchor:right; stroke:none; font-weight:normal; font-style:italic; text-align:right; " transform="" id="B.BD1.o.outpoint.text" y="1338.96951924" x="-530.639427833">
BD1.o.out</text>
      <circle style="stroke:red; stroke-width:1; fill:red; " transform="" cy="1354.23147081" cx="-461.356063499" r="5" id="B.BD1.o" d="M -456.35605,1354.2314 C -456.35605,1356.9929 -458.59462,1359.2314 -461.35605,1359.2314 -464.11747,1359.2314 -466.35605,1356.9929 -466.35605,1354.2314 -466.35605,1351.47 -464.11747,1349.2314 -461.35605,1349.2314 -458.59462,1349.2314 -456.35605,1351.47 -456.35605,1354.2314 z" />
      <text style="font-size:30; vertical-align:top; fill-opacity:1.0; fill:darkblue; text-anchor:right; stroke:none; font-weight:normal; font-style:italic; text-align:right; " transform="" id="B.BD1.o.text" y="1347.23147081" x="-454.356063499">
BD1.o</text>
      <circle style="stroke:red; stroke-width:1; fill:red; " transform="" cy="1343.98784763" cx="-826.724693851" r="5" id="B.b5" d="M -821.72467,1343.9878 C -821.72467,1346.7492 -823.96325,1348.9878 -826.72467,1348.9878 -829.48609,1348.9878 -831.72467,1346.7492 -831.72467,1343.9878 -831.72467,1341.2264 -829.48609,1338.9878 -826.72467,1338.9878 -823.96325,1338.9878 -821.72467,1341.2264 -821.72467,1343.9878 z" />
      <text style="font-size:30; vertical-align:top; fill-opacity:1.0; fill:darkblue; text-anchor:right; stroke:none; font-weight:normal; font-style:italic; text-align:right; " transform="" id="B.b5.text" y="1336.98784763" x="-819.724693851">
b5</text>
      <circle style="stroke:red; stroke-width:1; fill:red; " transform="" cy="637.795275591" cx="-918.070866142" r="5" id="B.b6" d="M -913.07086,637.79529 C -913.07086,640.55671 -915.30944,642.79529 -918.07086,642.79529 -920.83229,642.79529 -923.07086,640.55671 -923.07086,637.79529 -923.07086,635.03386 -920.83229,632.79529 -918.07086,632.79529 -915.30944,632.79529 -913.07086,635.03386 -913.07086,637.79529 z" />
      <text style="font-size:30; vertical-align:top; fill-opacity:1.0; fill:darkblue; text-anchor:right; stroke:none; font-weight:normal; font-style:italic; text-align:right; " transform="" id="B.b6.text" y="630.795275591" x="-911.070866142">
b6</text>
      <circle style="stroke:gray; stroke-width:1; fill:none; " transform="" cy="1344.80107546" cx="-722.618056563" r="5" id="B.BWS.inpoint" d="M -717.61804,1344.801 C -717.61804,1347.5624 -719.85662,1349.801 -722.61804,1349.801 -725.37947,1349.801 -727.61804,1347.5624 -727.61804,1344.801 -727.61804,1342.0396 -725.37947,1339.801 -722.61804,1339.801 -719.85662,1339.801 -717.61804,1342.0396 -717.61804,1344.801 z" />
      <text style="font-size:25; vertical-align:top; fill-opacity:1.0; fill:gray; text-anchor:right; stroke:none; font-weight:normal; font-style:italic; text-align:right; " transform="" id="B.BWS.inpoint.text" y="1337.80107546" x="-715.618056563">
BWS.in</text>
      <circle style="stroke:red; stroke-width:1; fill:red; " transform="" cy="1343.98784763" cx="-851.361750937" r="5" id="B.BWS" d="M -846.36176,1343.9878 C -846.36176,1346.7492 -848.60033,1348.9878 -851.36176,1348.9878 -854.12318,1348.9878 -856.36176,1346.7492 -856.36176,1343.9878 -856.36176,1341.2264 -854.12318,1338.9878 -851.36176,1338.9878 -848.60033,1338.9878 -846.36176,1341.2264 -846.36176,1343.9878 z" />
      <text style="font-size:30; vertical-align:top; fill-opacity:1.0; fill:darkblue; text-anchor:right; stroke:none; font-weight:normal; font-style:italic; text-align:right; " transform="" id="B.BWS.text" y="1336.98784763" x="-844.361750937">
BWS</text>
      <circle style="stroke:gray; stroke-width:1; fill:none; " transform="" cy="734.910965532" cx="-815.843211147" r="5" id="B.BUS.outpoint" d="M -810.8432,734.91095 C -810.8432,737.67237 -813.08178,739.91095 -815.8432,739.91095 -818.60462,739.91095 -820.8432,737.67237 -820.8432,734.91095 -820.8432,732.14953 -818.60462,729.91095 -815.8432,729.91095 -813.08178,729.91095 -810.8432,732.14953 -810.8432,734.91095 z" />
      <text style="font-size:25; vertical-align:top; fill-opacity:1.0; fill:gray; text-anchor:right; stroke:none; font-weight:normal; font-style:italic; text-align:right; " transform="" id="B.BUS.outpoint.text" y="727.910965532" x="-808.843211147">
BUS.out</text>
      <circle style="stroke:red; stroke-width:1; fill:red; " transform="" cy="743.623370461" cx="-908.074019882" r="5" id="B.BUS" d="M -903.07404,743.62335 C -903.07404,746.38478 -905.31261,748.62335 -908.07404,748.62335 -910.83546,748.62335 -913.07404,746.38478 -913.07404,743.62335 -913.07404,740.86193 -910.83546,738.62335 -908.07404,738.62335 -905.31261,738.62335 -903.07404,740.86193 -903.07404,743.62335 z" />
      <text style="font-size:30; vertical-align:top; fill-opacity:1.0; fill:darkblue; text-anchor:right; stroke:none; font-weight:normal; font-style:italic; text-align:right; " transform="" id="B.BUS.text" y="736.623370461" x="-901.074019882">
BUS</text>
      <circle style="stroke:red; stroke-width:1; fill:red; " transform="" cy="104.234043908" cx="-430.45219408" r="5" id="B.BD2" d="M -425.45218,104.23405 C -425.45218,106.99547 -427.69076,109.23405 -430.45218,109.23405 -433.2136,109.23405 -435.45218,106.99547 -435.45218,104.23405 -435.45218,101.47262 -433.2136,99.234047 -430.45218,99.234047 -427.69076,99.234047 -425.45218,101.47262 -425.45218,104.23405 z" />
      <text style="font-size:30; vertical-align:top; fill-opacity:1.0; fill:darkblue; text-anchor:right; stroke:none; font-weight:normal; font-style:italic; text-align:right; " transform="" id="B.BD2.text" y="97.2340439084" x="-423.45219408">
BD2</text>
      <circle style="stroke:red; stroke-width:1; fill:red; " transform="" cy="-51.9514480849" cx="-496.566196517" r="5" id="B.BD2.i" d="M -491.56619,-51.951447 C -491.56619,-49.190023 -493.80477,-46.951447 -496.56619,-46.951447 -499.32762,-46.951447 -501.56619,-49.190023 -501.56619,-51.951447 -501.56619,-54.71287 -499.32762,-56.951447 -496.56619,-56.951447 -493.80477,-56.951447 -491.56619,-54.71287 -491.56619,-51.951447 z" />
      <text style="font-size:30; vertical-align:top; fill-opacity:1.0; fill:darkblue; text-anchor:right; stroke:none; font-weight:normal; font-style:italic; text-align:right; " transform="" id="B.BD2.i.text" y="-58.9514480849" x="-489.566196517">
BD2.i</text>
      <circle style="stroke:red; stroke-width:1; fill:red; " transform="" cy="-39.6860369005" cx="-520.185017325" r="5" id="B.BD2.o" d="M -515.185,-39.686035 C -515.185,-36.924611 -517.42357,-34.686035 -520.185,-34.686035 -522.94642,-34.686035 -525.185,-36.924611 -525.185,-39.686035 -525.185,-42.447459 -522.94642,-44.686035 -520.185,-44.686035 -517.42357,-44.686035 -515.185,-42.447459 -515.185,-39.686035 z" />
      <text style="font-size:30; vertical-align:top; fill-opacity:1.0; fill:darkblue; text-anchor:right; stroke:none; font-weight:normal; font-style:italic; text-align:right; " transform="" id="B.BD2.o.text" y="-46.6860369005" x="-513.185017325">
BD2.o</text>
      <path style="stroke-linejoin:miter; stroke-dashoffset:0; stroke:gray; stroke-miterlimit:4; stroke-dasharray:6,6; stroke-width:2; fill:none; " transform="" d="M 0.0  1346.45669291 L -715.624177057  82.1684498171 L -708.661417323  -141.732283465 L 0.0  -141.732283465 L 0.0  637.795275591 L -918.070866142  637.795275591 L -908.074019882  743.623370461 M -885.826771654  637.795275591 L -826.724693851  1343.98784763 L -851.361750937  1343.98784763 " id="B.gridline" />
    </g>
    <g id="document.bodice.Bodice Sleeve.reference" transform=" translate(820.074549, 2328.177392)">
      <circle style="stroke:red; stroke-width:1; fill:red; " transform="" cy="0.0" cx="0.0" r="5" id="C.SCM" d="M 5,0 C 5,2.7614237 2.7614237,5 0,5 -2.7614237,5 -5,2.7614237 -5,0 -5,-2.7614237 -2.7614237,-5 0,-5 2.7614237,-5 5,-2.7614237 5,0 z" />
      <text style="font-size:30; vertical-align:top; fill-opacity:1.0; fill:darkblue; text-anchor:right; stroke:none; font-weight:normal; font-style:italic; text-align:right; " transform="" id="C.SCM.text" y="-7.0" x="7.0">
SCM</text>
      <circle style="stroke:red; stroke-width:1; fill:red; " transform="" cy="0.0" cx="-613.877952756" r="5" id="C.SCF" d="M -608.87793,0 C -608.87793,2.7614237 -611.11651,5 -613.87793,5 -616.63935,5 -618.87793,2.7614237 -618.87793,0 -618.87793,-2.7614237 -616.63935,-5 -613.87793,-5 -611.11651,-5 -608.87793,-2.7614237 -608.87793,0 z" />
      <text style="font-size:30; vertical-align:top; fill-opacity:1.0; fill:darkblue; text-anchor:right; stroke:none; font-weight:normal; font-style:italic; text-align:right; " transform="" id="C.SCF.text" y="-7.0" x="-606.877952756">
SCF</text>
      <circle style="stroke:red; stroke-width:1; fill:red; " transform="" cy="0.0" cx="-306.938976378" r="5" id="C.SCF1" d="M -301.93896,0 C -301.93896,2.7614237 -304.17754,5 -306.93896,5 -309.70039,5 -311.93896,2.7614237 -311.93896,0 -311.93896,-2.7614237 -309.70039,-5 -306.93896,-5 -304.17754,-5 -301.93896,-2.7614237 -301.93896,0 z" />
      <text style="font-size:30; vertical-align:top; fill-opacity:1.0; fill:darkblue; text-anchor:right; stroke:none; font-weight:normal; font-style:italic; text-align:right; " transform="" id="C.SCF1.text" y="-7.0" x="-299.938976378">
SCF1</text>
      <circle style="stroke:red; stroke-width:1; fill:red; " transform="" cy="0.0" cx="613.877952756" r="5" id="C.SCB" d="M 618.87793,0 C 618.87793,2.7614237 616.63935,5 613.87793,5 611.11651,5 608.87793,2.7614237 608.87793,0 608.87793,-2.7614237 611.11651,-5 613.87793,-5 616.63935,-5 618.87793,-2.7614237 618.87793,0 z" />
      <text style="font-size:30; vertical-align:top; fill-opacity:1.0; fill:darkblue; text-anchor:right; stroke:none; font-weight:normal; font-style:italic; text-align:right; " transform="" id="C.SCB.text" y="-7.0" x="620.877952756">
SCB</text>
      <circle style="stroke:red; stroke-width:1; fill:red; " transform="" cy="0.0" cx="306.938976378" r="5" id="C.SCB1" d="M 311.93896,0 C 311.93896,2.7614237 309.70039,5 306.93896,5 304.17754,5 301.93896,2.7614237 301.93896,0 301.93896,-2.7614237 304.17754,-5 306.93896,-5 309.70039,-5 311.93896,-2.7614237 311.93896,0 z" />
      <text style="font-size:30; vertical-align:top; fill-opacity:1.0; fill:darkblue; text-anchor:right; stroke:none; font-weight:normal; font-style:italic; text-align:right; " transform="" id="C.SCB1.text" y="-7.0" x="313.938976378">
SCB1</text>
      <circle style="stroke:red; stroke-width:1; fill:red; " transform="" cy="2161.41732283" cx="0.0" r="5" id="C.SWM" d="M 5,2161.4172 C 5,2164.1787 2.7614237,2166.4172 0,2166.4172 -2.7614237,2166.4172 -5,2164.1787 -5,2161.4172 -5,2158.6558 -2.7614237,2156.4172 0,2156.4172 2.7614237,2156.4172 5,2158.6558 5,2161.4172 z" />
      <text style="font-size:30; vertical-align:top; fill-opacity:1.0; fill:darkblue; text-anchor:right; stroke:none; font-weight:normal; font-style:italic; text-align:right; " transform="" id="C.SWM.text" y="2154.41732283" x="7.0">
SWM</text>
      <circle style="stroke:red; stroke-width:1; fill:red; " transform="" cy="425.196850394" cx="0.0" r="5" id="C.SUM" d="M 5,425.19684 C 5,427.95826 2.7614237,430.19684 0,430.19684 -2.7614237,430.19684 -5,427.95826 -5,425.19684 -5,422.43541 -2.7614237,420.19684 0,420.19684 2.7614237,420.19684 5,422.43541 5,425.19684 z" />
      <text style="font-size:30; vertical-align:top; fill-opacity:1.0; fill:darkblue; text-anchor:right; stroke:none; font-weight:normal; font-style:italic; text-align:right; " transform="" id="C.SUM.text" y="418.196850394" x="7.0">
SUM</text>
      <circle style="stroke:gray; stroke-width:1; fill:none; " transform="" cy="425.196850394" cx="523.219065515" r="5" id="C.SUB.outpoint" d="M 528.21906,425.19684 C 528.21906,427.95826 525.98048,430.19684 523.21906,430.19684 520.45763,430.19684 518.21906,427.95826 518.21906,425.19684 518.21906,422.43541 520.45763,420.19684 523.21906,420.19684 525.98048,420.19684 528.21906,422.43541 528.21906,425.19684 z" />
      <text style="font-size:25; vertical-align:top; fill-opacity:1.0; fill:gray; text-anchor:right; stroke:none; font-weight:normal; font-style:italic; text-align:right; " transform="" id="C.SUB.outpoint.text" y="418.196850394" x="530.219065515">
SUB.out</text>
      <circle style="stroke:red; stroke-width:1; fill:red; " transform="" cy="425.196850394" cx="668.410714081" r="5" id="C.SUB" d="M 673.41071,425.19684 C 673.41071,427.95826 671.17213,430.19684 668.41071,430.19684 665.64928,430.19684 663.41071,427.95826 663.41071,425.19684 663.41071,422.43541 665.64928,420.19684 668.41071,420.19684 671.17213,420.19684 673.41071,422.43541 673.41071,425.19684 z" />
      <text style="font-size:30; vertical-align:top; fill-opacity:1.0; fill:darkblue; text-anchor:right; stroke:none; font-weight:normal; font-style:italic; text-align:right; " transform="" id="C.SUB.text" y="418.196850394" x="675.410714081">
SUB</text>
      <circle style="stroke:gray; stroke-width:1; fill:none; " transform="" cy="425.196850394" cx="-567.762247229" r="5" id="C.SUF.inpoint" d="M -562.76227,425.19684 C -562.76227,427.95826 -565.00084,430.19684 -567.76227,430.19684 -570.52369,430.19684 -572.76227,427.95826 -572.76227,425.19684 -572.76227,422.43541 -570.52369,420.19684 -567.76227,420.19684 -565.00084,420.19684 -562.76227,422.43541 -562.76227,425.19684 z" />
      <text style="font-size:25; vertical-align:top; fill-opacity:1.0; fill:gray; text-anchor:right; stroke:none; font-weight:normal; font-style:italic; text-align:right; " transform="" id="C.SUF.inpoint.text" y="418.196850394" x="-560.762247229">
SUF.in</text>
      <circle style="stroke:red; stroke-width:1; fill:red; " transform="" cy="425.196850394" cx="-728.991872005" r="5" id="C.SUF" d="M -723.99188,425.19684 C -723.99188,427.95826 -726.23046,430.19684 -728.99188,430.19684 -731.75331,430.19684 -733.99188,427.95826 -733.99188,425.19684 -733.99188,422.43541 -731.75331,420.19684 -728.99188,420.19684 -726.23046,420.19684 -723.99188,422.43541 -723.99188,425.19684 z" />
      <text style="font-size:30; vertical-align:top; fill-opacity:1.0; fill:darkblue; text-anchor:right; stroke:none; font-weight:normal; font-style:italic; text-align:right; " transform="" id="C.SUF.text" y="418.196850394" x="-721.991872005">
SUF</text>
      <circle style="stroke:red; stroke-width:1; fill:red; " transform="" cy="1345.39370079" cx="0.0" r="5" id="C.SEM" d="M 5,1345.3937 C 5,1348.1551 2.7614237,1350.3937 0,1350.3937 -2.7614237,1350.3937 -5,1348.1551 -5,1345.3937 -5,1342.6323 -2.7614237,1340.3937 0,1340.3937 2.7614237,1340.3937 5,1342.6323 5,1345.3937 z" />
      <text style="font-size:30; vertical-align:top; fill-opacity:1.0; fill:darkblue; text-anchor:right; stroke:none; font-weight:normal; font-style:italic; text-align:right; " transform="" id="C.SEM.text" y="1338.39370079" x="7.0">
SEM</text>
      <circle style="stroke:red; stroke-width:1; fill:red; " transform="" cy="1345.39370079" cx="547.440944882" r="5" id="C.SEB" d="M 552.44092,1345.3937 C 552.44092,1348.1551 550.20234,1350.3937 547.44092,1350.3937 544.67949,1350.3937 542.44092,1348.1551 542.44092,1345.3937 542.44092,1342.6323 544.67949,1340.3937 547.44092,1340.3937 550.20234,1340.3937 552.44092,1342.6323 552.44092,1345.3937 z" />
      <text style="font-size:30; vertical-align:top; fill-opacity:1.0; fill:darkblue; text-anchor:right; stroke:none; font-weight:normal; font-style:italic; text-align:right; " transform="" id="C.SEB.text" y="1338.39370079" x="554.440944882">
SEB</text>
      <circle style="stroke:gray; stroke-width:1; fill:none; " transform="" cy="263.861558812" cx="418.774704332" r="5" id="C.s1.inpoint" d="M 423.77472,263.86157 C 423.77472,266.623 421.53614,268.86157 418.77472,268.86157 416.0133,268.86157 413.77472,266.623 413.77472,263.86157 413.77472,261.10015 416.0133,258.86157 418.77472,258.86157 421.53614,258.86157 423.77472,261.10015 423.77472,263.86157 z" />
      <text style="font-size:25; vertical-align:top; fill-opacity:1.0; fill:gray; text-anchor:right; stroke:none; font-weight:normal; font-style:italic; text-align:right; " transform="" id="C.s1.inpoint.text" y="256.861558812" x="425.774704332">
s1.in</text>
      <circle style="stroke:gray; stroke-width:1; fill:none; " transform="" cy="45.010552519" cx="262.024608197" r="5" id="C.s1.outpoint" d="M 267.0246,45.010551 C 267.0246,47.771975 264.78602,50.010551 262.0246,50.010551 259.26317,50.010551 257.0246,47.771975 257.0246,45.010551 257.0246,42.249128 259.26317,40.010551 262.0246,40.010551 264.78602,40.010551 267.0246,42.249128 267.0246,45.010551 z" />
      <text style="font-size:25; vertical-align:top; fill-opacity:1.0; fill:gray; text-anchor:right; stroke:none; font-weight:normal; font-style:italic; text-align:right; " transform="" id="C.s1.outpoint.text" y="38.010552519" x="269.024608197">
s1.out</text>
      <circle style="stroke:red; stroke-width:1; fill:red; " transform="" cy="145.823523047" cx="334.231006009" r="5" id="C.s1" d="M 339.23102,145.82352 C 339.23102,148.58494 336.99244,150.82352 334.23102,150.82352 331.46959,150.82352 329.23102,148.58494 329.23102,145.82352 329.23102,143.06209 331.46959,140.82352 334.23102,140.82352 336.99244,140.82352 339.23102,143.06209 339.23102,145.82352 z" />
      <text style="font-size:30; vertical-align:top; fill-opacity:1.0; fill:darkblue; text-anchor:right; stroke:none; font-weight:normal; font-style:italic; text-align:right; " transform="" id="C.s1.text" y="138.823523047" x="341.231006009">
s1</text>
      <circle style="stroke:gray; stroke-width:1; fill:none; " transform="" cy="-8.76928421399" cx="-300.856890331" r="5" id="C.s2.inpoint" d="M -295.8569,-8.7692842 C -295.8569,-6.0078605 -298.09548,-3.7692842 -300.8569,-3.7692842 -303.61833,-3.7692842 -305.8569,-6.0078605 -305.8569,-8.7692842 -305.8569,-11.530708 -303.61833,-13.769284 -300.8569,-13.769284 -298.09548,-13.769284 -295.8569,-11.530708 -295.8569,-8.7692842 z" />
      <text style="font-size:25; vertical-align:top; fill-opacity:1.0; fill:gray; text-anchor:right; stroke:none; font-weight:normal; font-style:italic; text-align:right; " transform="" id="C.s2.inpoint.text" y="-15.769284214" x="-293.856890331">
s2.in</text>
      <circle style="stroke:gray; stroke-width:1; fill:none; " transform="" cy="216.082992072" cx="-480.833041561" r="5" id="C.s2.outpoint" d="M -475.83304,216.08299 C -475.83304,218.84442 -478.07161,221.08299 -480.83304,221.08299 -483.59446,221.08299 -485.83304,218.84442 -485.83304,216.08299 -485.83304,213.32157 -483.59446,211.08299 -480.83304,211.08299 -478.07161,211.08299 -475.83304,213.32157 -475.83304,216.08299 z" />
      <text style="font-size:25; vertical-align:top; fill-opacity:1.0; fill:gray; text-anchor:right; stroke:none; font-weight:normal; font-style:italic; text-align:right; " transform="" id="C.s2.outpoint.text" y="209.082992072" x="-473.833041561">
s2.out</text>
      <circle style="stroke:red; stroke-width:1; fill:red; " transform="" cy="90.2095703204" cx="-380.081497644" r="5" id="C.s2" d="M -375.08151,90.209572 C -375.08151,92.970996 -377.32009,95.209572 -380.08151,95.209572 -382.84294,95.209572 -385.08151,92.970996 -385.08151,90.209572 -385.08151,87.448148 -382.84294,85.209572 -380.08151,85.209572 -377.32009,85.209572 -375.08151,87.448148 -375.08151,90.209572 z" />
      <text style="font-size:30; vertical-align:top; fill-opacity:1.0; fill:darkblue; text-anchor:right; stroke:none; font-weight:normal; font-style:italic; text-align:right; " transform="" id="C.s2.text" y="83.2095703204" x="-373.081497644">
s2</text>
      <circle style="stroke:red; stroke-width:1; fill:red; " transform="" cy="1391.40354331" cx="378.42519685" r="5" id="C.SD1" d="M 383.4252,1391.4036 C 383.4252,1394.165 381.18663,1396.4036 378.4252,1396.4036 375.66378,1396.4036 373.4252,1394.165 373.4252,1391.4036 373.4252,1388.6421 375.66378,1386.4036 378.4252,1386.4036 381.18663,1386.4036 383.4252,1388.6421 383.4252,1391.4036 z" />
      <text style="font-size:30; vertical-align:top; fill-opacity:1.0; fill:darkblue; text-anchor:right; stroke:none; font-weight:normal; font-style:italic; text-align:right; " transform="" id="C.SD1.text" y="1384.40354331" x="385.42519685">
SD1</text>
      <circle style="stroke:red; stroke-width:1; fill:red; " transform="" cy="1408.29555082" cx="540.901283924" r="5" id="C.SD1.i" d="M 545.90131,1408.2955 C 545.90131,1411.057 543.66273,1413.2955 540.90131,1413.2955 538.13988,1413.2955 535.90131,1411.057 535.90131,1408.2955 535.90131,1405.5341 538.13988,1403.2955 540.90131,1403.2955 543.66273,1403.2955 545.90131,1405.5341 545.90131,1408.2955 z" />
      <text style="font-size:30; vertical-align:top; fill-opacity:1.0; fill:darkblue; text-anchor:right; stroke:none; font-weight:normal; font-style:italic; text-align:right; " transform="" id="C.SD1.i.text" y="1401.29555082" x="547.901283924">
SD1.i</text>
      <circle style="stroke:red; stroke-width:1; fill:red; " transform="" cy="1430.74345983" cx="536.969164746" r="5" id="C.SD1.o" d="M 541.96918,1430.7434 C 541.96918,1433.5048 539.7306,1435.7434 536.96918,1435.7434 534.20775,1435.7434 531.96918,1433.5048 531.96918,1430.7434 531.96918,1427.982 534.20775,1425.7434 536.96918,1425.7434 539.7306,1425.7434 541.96918,1427.982 541.96918,1430.7434 z" />
      <text style="font-size:30; vertical-align:top; fill-opacity:1.0; fill:darkblue; text-anchor:right; stroke:none; font-weight:normal; font-style:italic; text-align:right; " transform="" id="C.SD1.o.text" y="1423.74345983" x="543.969164746">
SD1.o</text>
      <circle style="stroke:red; stroke-width:1; fill:red; " transform="" cy="2161.41732283" cx="355.665207491" r="5" id="C.s3" d="M 360.66522,2161.4172 C 360.66522,2164.1787 358.42665,2166.4172 355.66522,2166.4172 352.9038,2166.4172 350.66522,2164.1787 350.66522,2161.4172 350.66522,2158.6558 352.9038,2156.4172 355.66522,2156.4172 358.42665,2156.4172 360.66522,2158.6558 360.66522,2161.4172 z" />
      <text style="font-size:30; vertical-align:top; fill-opacity:1.0; fill:darkblue; text-anchor:right; stroke:none; font-weight:normal; font-style:italic; text-align:right; " transform="" id="C.s3.text" y="2154.41732283" x="362.665207491">
s3</text>
      <circle style="stroke:red; stroke-width:1; fill:red; " transform="" cy="2161.41732283" cx="117.369518472" r="5" id="C.s4" d="M 122.36952,2161.4172 C 122.36952,2164.1787 120.13095,2166.4172 117.36952,2166.4172 114.6081,2166.4172 112.36952,2164.1787 112.36952,2161.4172 112.36952,2158.6558 114.6081,2156.4172 117.36952,2156.4172 120.13095,2156.4172 122.36952,2158.6558 122.36952,2161.4172 z" />
      <text style="font-size:30; vertical-align:top; fill-opacity:1.0; fill:darkblue; text-anchor:right; stroke:none; font-weight:normal; font-style:italic; text-align:right; " transform="" id="C.s4.text" y="2154.41732283" x="124.369518472">
s4</text>
      <circle style="stroke:red; stroke-width:1; fill:red; " transform="" cy="2161.41732283" cx="-453.543307087" r="5" id="C.s5" d="M -448.5433,2161.4172 C -448.5433,2164.1787 -450.78188,2166.4172 -453.5433,2166.4172 -456.30473,2166.4172 -458.5433,2164.1787 -458.5433,2161.4172 -458.5433,2158.6558 -456.30473,2156.4172 -453.5433,2156.4172 -450.78188,2156.4172 -448.5433,2158.6558 -448.5433,2161.4172 z" />
      <text style="font-size:30; vertical-align:top; fill-opacity:1.0; fill:darkblue; text-anchor:right; stroke:none; font-weight:normal; font-style:italic; text-align:right; " transform="" id="C.s5.text" y="2154.41732283" x="-446.543307087">
s5</text>
      <circle style="stroke:red; stroke-width:1; fill:red; " transform="" cy="2161.41732283" cx="-299.338582677" r="5" id="C.s6" d="M -294.33859,2161.4172 C -294.33859,2164.1787 -296.57717,2166.4172 -299.33859,2166.4172 -302.10002,2166.4172 -304.33859,2164.1787 -304.33859,2161.4172 -304.33859,2158.6558 -302.10002,2156.4172 -299.33859,2156.4172 -296.57717,2156.4172 -294.33859,2158.6558 -294.33859,2161.4172 z" />
      <text style="font-size:30; vertical-align:top; fill-opacity:1.0; fill:darkblue; text-anchor:right; stroke:none; font-weight:normal; font-style:italic; text-align:right; " transform="" id="C.s6.text" y="2154.41732283" x="-292.338582677">
s6</text>
      <circle style="stroke:gray; stroke-width:1; fill:none; " transform="" cy="-73.5570006223" cx="165.991034361" r="5" id="C.SCM1.inpoint" d="M 170.99103,-73.556999 C 170.99103,-70.795575 168.75245,-68.556999 165.99103,-68.556999 163.2296,-68.556999 160.99103,-70.795575 160.99103,-73.556999 160.99103,-76.318423 163.2296,-78.556999 165.99103,-78.556999 168.75245,-78.556999 170.99103,-76.318423 170.99103,-73.556999 z" />
      <text style="font-size:25; vertical-align:top; fill-opacity:1.0; fill:gray; text-anchor:right; stroke:none; font-weight:normal; font-style:italic; text-align:right; " transform="" id="C.SCM1.inpoint.text" y="-80.5570006223" x="172.991034361">
SCM1.in</text>
      <circle style="stroke:gray; stroke-width:1; fill:none; " transform="" cy="-87.6641580201" cx="14.2950132909" r="5" id="C.SCM1.outpoint" d="M 19.295013,-87.664162 C 19.295013,-84.902738 17.056437,-82.664162 14.295013,-82.664162 11.53359,-82.664162 9.2950134,-84.902738 9.2950134,-87.664162 9.2950134,-90.425585 11.53359,-92.664162 14.295013,-92.664162 17.056437,-92.664162 19.295013,-90.425585 19.295013,-87.664162 z" />
      <text style="font-size:25; vertical-align:top; fill-opacity:1.0; fill:gray; text-anchor:right; stroke:none; font-weight:normal; font-style:italic; text-align:right; " transform="" id="C.SCM1.outpoint.text" y="-94.6641580201" x="21.2950132909">
SCM1.out</text>
      <circle style="stroke:red; stroke-width:1; fill:red; " transform="" cy="-85.0393700787" cx="42.5196850394" r="5" id="C.SCM1" d="M 47.519684,-85.039368 C 47.519684,-82.277944 45.281108,-80.039368 42.519684,-80.039368 39.75826,-80.039368 37.519684,-82.277944 37.519684,-85.039368 37.519684,-87.800791 39.75826,-90.039368 42.519684,-90.039368 45.281108,-90.039368 47.519684,-87.800791 47.519684,-85.039368 z" />
      <text style="font-size:30; vertical-align:top; fill-opacity:1.0; fill:darkblue; text-anchor:right; stroke:none; font-weight:normal; font-style:italic; text-align:right; " transform="" id="C.SCM1.text" y="-92.0393700787" x="49.5196850394">
SCM1</text>
      <circle style="stroke:gray; stroke-width:1; fill:none; " transform="" cy="-87.6641580201" cx="-14.2950132909" r="5" id="C.SCM2.inpoint" d="M -9.2950134,-87.664162 C -9.2950134,-84.902738 -11.53359,-82.664162 -14.295013,-82.664162 -17.056437,-82.664162 -19.295013,-84.902738 -19.295013,-87.664162 -19.295013,-90.425585 -17.056437,-92.664162 -14.295013,-92.664162 -11.53359,-92.664162 -9.2950134,-90.425585 -9.2950134,-87.664162 z" />
      <text style="font-size:25; vertical-align:top; fill-opacity:1.0; fill:gray; text-anchor:right; stroke:none; font-weight:normal; font-style:italic; text-align:right; " transform="" id="C.SCM2.inpoint.text" y="-94.6641580201" x="-7.29501329095">
SCM2.in</text>
      <circle style="stroke:gray; stroke-width:1; fill:none; " transform="" cy="-73.2998951987" cx="-168.755721013" r="5" id="C.SCM2.outpoint" d="M -163.75572,-73.299896 C -163.75572,-70.538472 -165.9943,-68.299896 -168.75572,-68.299896 -171.51715,-68.299896 -173.75572,-70.538472 -173.75572,-73.299896 -173.75572,-76.06132 -171.51715,-78.299896 -168.75572,-78.299896 -165.9943,-78.299896 -163.75572,-76.06132 -163.75572,-73.299896 z" />
      <text style="font-size:25; vertical-align:top; fill-opacity:1.0; fill:gray; text-anchor:right; stroke:none; font-weight:normal; font-style:italic; text-align:right; " transform="" id="C.SCM2.outpoint.text" y="-80.2998951987" x="-161.755721013">
SCM2.out</text>
      <circle style="stroke:red; stroke-width:1; fill:red; " transform="" cy="-85.0393700787" cx="-42.5196850394" r="5" id="C.SCM2" d="M -37.519684,-85.039368 C -37.519684,-82.277944 -39.75826,-80.039368 -42.519684,-80.039368 -45.281108,-80.039368 -47.519684,-82.277944 -47.519684,-85.039368 -47.519684,-87.800791 -45.281108,-90.039368 -42.519684,-90.039368 -39.75826,-90.039368 -37.519684,-87.800791 -37.519684,-85.039368 z" />
      <text style="font-size:30; vertical-align:top; fill-opacity:1.0; fill:darkblue; text-anchor:right; stroke:none; font-weight:normal; font-style:italic; text-align:right; " transform="" id="C.SCM2.text" y="-92.0393700787" x="-35.5196850394">
SCM2</text>
      <circle style="stroke:gray; stroke-width:1; fill:none; " transform="" cy="2143.68575104" cx="-187.572097467" r="5" id="C.SWF.outpoint" d="M -182.5721,2143.6858 C -182.5721,2146.4472 -184.81067,2148.6858 -187.5721,2148.6858 -190.33352,2148.6858 -192.5721,2146.4472 -192.5721,2143.6858 -192.5721,2140.9244 -190.33352,2138.6858 -187.5721,2138.6858 -184.81067,2138.6858 -182.5721,2140.9244 -182.5721,2143.6858 z" />
      <text style="font-size:25; vertical-align:top; fill-opacity:1.0; fill:gray; text-anchor:right; stroke:none; font-weight:normal; font-style:italic; text-align:right; " transform="" id="C.SWF.outpoint.text" y="2136.68575104" x="-180.572097467">
SWF.out</text>
      <circle style="stroke:red; stroke-width:1; fill:red; " transform="" cy="2185.28101977" cx="-449.757370232" r="5" id="C.SWF" d="M -444.75739,2185.281 C -444.75739,2188.0424 -446.99596,2190.281 -449.75739,2190.281 -452.51881,2190.281 -454.75739,2188.0424 -454.75739,2185.281 -454.75739,2182.5196 -452.51881,2180.281 -449.75739,2180.281 -446.99596,2180.281 -444.75739,2182.5196 -444.75739,2185.281 z" />
      <text style="font-size:30; vertical-align:top; fill-opacity:1.0; fill:darkblue; text-anchor:right; stroke:none; font-weight:normal; font-style:italic; text-align:right; " transform="" id="C.SWF.text" y="2178.28101977" x="-442.757370232">
SWF</text>
      <circle style="stroke:red; stroke-width:1; fill:red; " transform="" cy="1345.39370079" cx="-583.004132598" r="5" id="C.SEF" d="M -578.00415,1345.3937 C -578.00415,1348.1551 -580.24273,1350.3937 -583.00415,1350.3937 -585.76557,1350.3937 -588.00415,1348.1551 -588.00415,1345.3937 -588.00415,1342.6323 -585.76557,1340.3937 -583.00415,1340.3937 -580.24273,1340.3937 -578.00415,1342.6323 -578.00415,1345.3937 z" />
      <text style="font-size:30; vertical-align:top; fill-opacity:1.0; fill:darkblue; text-anchor:right; stroke:none; font-weight:normal; font-style:italic; text-align:right; " transform="" id="C.SEF.text" y="1338.39370079" x="-576.004132598">
SEF</text>
      <circle style="stroke:gray; stroke-width:1; fill:none; " transform="" cy="2134.30097558" cx="88.8791526048" r="5" id="C.SWB.inpoint" d="M 93.87915,2134.301 C 93.87915,2137.0624 91.640574,2139.301 88.87915,2139.301 86.117727,2139.301 83.87915,2137.0624 83.87915,2134.301 83.87915,2131.5396 86.117727,2129.301 88.87915,2129.301 91.640574,2129.301 93.87915,2131.5396 93.87915,2134.301 z" />
      <text style="font-size:25; vertical-align:top; fill-opacity:1.0; fill:gray; text-anchor:right; stroke:none; font-weight:normal; font-style:italic; text-align:right; " transform="" id="C.SWB.inpoint.text" y="2127.30097558" x="95.8791526048">
SWB.in</text>
      <circle style="stroke:red; stroke-width:1; fill:red; " transform="" cy="2198.23256974" cx="346.530146982" r="5" id="C.SWB" d="M 351.53015,2198.2327 C 351.53015,2200.9941 349.29158,2203.2327 346.53015,2203.2327 343.76873,2203.2327 341.53015,2200.9941 341.53015,2198.2327 341.53015,2195.4712 343.76873,2193.2327 346.53015,2193.2327 349.29158,2193.2327 351.53015,2195.4712 351.53015,2198.2327 z" />
      <text style="font-size:30; vertical-align:top; fill-opacity:1.0; fill:darkblue; text-anchor:right; stroke:none; font-weight:normal; font-style:italic; text-align:right; " transform="" id="C.SWB.text" y="2191.23256974" x="353.530146982">
SWB</text>
      <path style="stroke-linejoin:miter; stroke-dashoffset:0; stroke:gray; stroke-miterlimit:4; stroke-dasharray:6,6; stroke-width:2; fill:none; " transform="" d="M 0.0  0.0 L 0.0  2161.41732283 M 668.410714081  425.196850394 L -728.991872005  425.196850394 M 547.440944882  1345.39370079 L -583.004132598  1345.39370079 M 668.410714081  425.196850394 L 334.231006009  145.823523047 L 0.0  0.0 L -380.081497644  90.2095703204 L -728.991872005  425.196850394 M 547.440944882  1345.39370079 L 355.665207491  2161.41732283 M -728.991872005  425.196850394 L -453.543307087  2161.41732283 L 355.665207491  2161.41732283 M -728.991872005  425.196850394 L -613.877952756  0.0 L 613.877952756  0.0 L 668.410714081  425.196850394 " id="C.gridline" />
    </g>
  </g>
</svg>
