<?xml version="1.0" encoding="UTF-8" standalone="no"?>
<svg xmlns:dc="http://purl.org/dc/elements/1.1/" xmlns:cc="http://creativecommons.org/ns#" xmlns:rdf="http://www.w3.org/1999/02/22-rdf-syntax-ns#" xmlns:svg="http://www.w3.org/2000/svg" xmlns="http://www.w3.org/2000/svg" xmlns:sodipodi="http://sodipodi.sourceforge.net/DTD/sodipodi-0.dtd" xmlns:inkscape="http://www.inkscape.org/namespaces/inkscape" patternNumber="MR_B1" fitBoxtoViewport="True" companyName="Next Patterns" currentscale="0.5:1" margin-right="88.5826771654" client-name="DressFormLg" designerName="S.L.Spencer" height="4926.04504488" width="2610.97514333" margin-top="88.5826771654" version="1.1" margin-bottom="88.5826771654" margin-left="88.5826771654" preserveAspectRatio="xMidYMid meet" id="svg2" inkscape:version="0.48.4 r9939" sodipodi:docname="Susan-spencer_bodice_short-2014-11-05-0002.svg">
  <metadata id="metadata291">
    <rdf:RDF>
      <cc:Work rdf:about="">
        <dc:format>image/svg+xml</dc:format>
        <dc:type rdf:resource="http://purl.org/dc/dcmitype/StillImage" />
      </cc:Work>
    </rdf:RDF>
  </metadata>
  <sodipodi:namedview id="base" pagecolor="#ffffff" bordercolor="#666666" borderopacity="1.0" inkscape:pageopacity="0.0" inkscape:pageshadow="2" inkscape:zoom="0.17986032" inkscape:document-units="pt" showgrid="false" inkscape:window-maximized="1" inkscape:cx="1305.4875" inkscape:cy="2463.0225" inkscape:window-width="1855" inkscape:window-height="1056" inkscape:window-x="65" inkscape:window-y="24" inkscape:current-layer="pattern" />
  <defs id="defs5">
    <marker style="overflow:visible" id="Arrow1Mstart" refX="0.0" refY="0.0" orient="auto" inkscape:stockid="Arrow1Mstart">
      <path transform="scale(0.4) translate(10,0)" style="fill-rule:evenodd;stroke:#000000;stroke-width:1.0pt;marker-start:none" d="M 0.0,0.0 L 5.0,-5.0 L -12.5,0.0 L 5.0,5.0 L 0.0,0.0 z " id="path8" />
    </marker>
    <marker style="overflow:visible;" id="Arrow1Mend" refX="0.0" refY="0.0" orient="auto" inkscape:stockid="Arrow1Mend">
      <path transform="scale(0.4) rotate(180) translate(10,0)" style="fill-rule:evenodd;stroke:#000000;stroke-width:1.0pt;marker-start:none;" d="M 0.0,0.0 L 5.0,-5.0 L -12.5,0.0 L 5.0,5.0 L 0.0,0.0 z " id="path11" />
    </marker>
  </defs>
  <g inkscape:label="Label-pattern" id="pattern" inkscape:groupmode="layer" transform="translate(88.582677,88.582677)">
    <g id="document.bodice.Bodice Front.pattern" transform=" translate(58.750000, 757.717638)">
      <g id="A.letter" transform="matrix(10.000000, 0, 0, 10.000000, -3228.838583, -1030.039370)">
        <text style="font-size:24; vertical-align:top; fill-opacity:1.0; fill:#000000; text-anchor:start; stroke:none; font-weight:normal; font-style:normal; text-align:right; " transform="" id="A.letter.letterline" y="114.448818898" x="358.75984252">
A</text>
      </g>
      <line style="stroke-linejoin:miter; stroke:green; stroke-width:4; stroke-miterlimit:4; fill:none; " y2="1089.56692913" marker-end="url(#Arrow1Mend)" marker-start="url(#Arrow1Mstart)" transform="" x2="133.455818164" y1="159.448818898" x1="133.455818164" id="A.grainline" />
      <path style="stroke-linejoin:miter; stroke-dashoffset:0; stroke:green; stroke-miterlimit:4; stroke-dasharray:6,6; stroke-width:3; fill:none; " transform="" d="M 259.395490383  1311.33463227 L 354.330708661  710.078740157 L 449.265926939  1311.33463227 M 1158.82680674  637.795275591 L 443.747905788  637.795275591 L 1124.06289472  858.043659058 " id="A.dartline" />
      <path style="stroke-linejoin:miter; stroke-dashoffset:0; stroke:green; stroke-dasharray:24,6; stroke-miterlimit:4; stroke-width:4; fill:none; " transform="" d="M 0.0  0.0 L 0.0  1240.15748031 C 88.645475637  1240.15748031  169.270393162  1240.15748031  268.168392122  1255.77296657 L 354.330708661  1278.23694662 L 440.493025201  1255.77296657 C 636.21935046  1224.86878475  859.463764467  1200.35137293  1067.16189061  1191.62550743 L 1070.5475161  840.718337959 L 1074.34934934  737.329141664 L 1102.57680674  637.795275591 L 1033.68915656  394.888022168 C 893.572200606  440.498153899  738.545618172  421.42614887  673.228346457  318.897637795 C 576.766193088  167.481010918  700.589615123  -143.504287858  717.519685039  -223.334513127 L 266.911636328  -318.897637795 C 233.832093174  -162.917928626  160.146981797  0.0  0.0  0.0 " id="A.seamline" />
      <path style="fill:none;stroke:#008000;stroke-width:4;stroke-linejoin:miter;stroke-miterlimit:4" d="M 211.90625,-330.65625 C 197.45138,-264.20535 177.34444,-197.87692 139.96875,-140.40625 116.15169,-104.08797 82.171731,-71.60028 38.90625,-60.9375 9.6980416,-53.498727 -20.657228,-57.036286 -50.466985,-55.829847 -59.45958,-58.486119 -55.389515,-48.189039 -56.25,-42.78125 -56.25,403.61458 -56.25,850.01042 -56.25,1296.4062 46.185893,1296.5579 149.06128,1294.1252 250.33425,1309.9445 275.61881,1314.9795 300.37501,1322.7461 325.45247,1328.8532 335.4038,1331.1047 345.35695,1334.7182 355.31159,1336.1234 388.94232,1327.6491 422.34664,1318.098 456.10811,1310.2563 665.61128,1277.7645 876.70764,1255.4514 1088.4836,1247.0234 1099.9474,1246.5468 1111.4112,1246.0703 1122.875,1245.5938 1124.3548,1108.7844 1125.2942,971.9632 1127.0676,835.1609 1128.3203,805.19503 1128.9383,775.12915 1130.5852,745.22539 1140.7331,709.41045 1150.8906,673.59823 1161.0312,637.78125 1131.3237,532.976 1101.6145,428.17121 1071.875,323.375 1029.0655,337.0081 986.62384,353.10525 941.79102,358.51447 886.05465,365.74414 826.78676,362.9867 775.75,337.40625 743.96283,321.73608 718.17742,293.87286 706.875,260.125 689.94226,211.12386 691.43565,158.24857 696.34375,107.375 706.968,9.1880899 736.4176,-85.368133 764.34375,-179.71875 772.60111,-208.29903 778.11185,-237.58398 784.9375,-266.53125 597.84169,-306.25813 410.72586,-345.89065 223.625,-385.59375 219.71875,-367.28125 215.8125,-348.96875 211.90625,-330.65625 z" id="A.cuttingline" inkscape:connector-curvature="0" />
      <g id="A.info" transform="">
        <text style="font-size:12; vertical-align:top; fill-opacity:1.0; fill:#000000; text-anchor:start; stroke:none; font-weight:normal; font-style:normal; text-align:right; " transform="" id="A.info.lineNext Patterns" y="159.448818898" x="358.75984252">
Next Patterns</text>
        <text style="font-size:12; vertical-align:top; fill-opacity:1.0; fill:#000000; text-anchor:start; stroke:none; font-weight:normal; font-style:normal; text-align:right; " transform="" id="A.info.lineDesigner:S.L.Spencer" y="173.848818898" x="358.75984252">
Designer:S.L.Spencer</text>
        <text style="font-size:12; vertical-align:top; fill-opacity:1.0; fill:#000000; text-anchor:start; stroke:none; font-weight:normal; font-style:normal; text-align:right; " transform="" id="A.info.lineClient:DressFormLg" y="188.248818898" x="358.75984252">
Client:DressFormLg</text>
        <text style="font-size:12; vertical-align:top; fill-opacity:1.0; fill:#000000; text-anchor:start; stroke:none; font-weight:normal; font-style:normal; text-align:right; " transform="" id="A.info.lineMR_B1" y="202.648818898" x="358.75984252">
MR_B1</text>
        <text style="font-size:12; vertical-align:top; fill-opacity:1.0; fill:#000000; text-anchor:start; stroke:none; font-weight:normal; font-style:normal; text-align:right; " transform="" id="A.info.linePattern Piece A" y="217.048818898" x="358.75984252">
Pattern Piece A</text>
        <text style="font-size:12; vertical-align:top; fill-opacity:1.0; fill:#000000; text-anchor:start; stroke:none; font-weight:normal; font-style:normal; text-align:right; " transform="" id="A.info.lineCut 2 Fabric" y="231.448818898" x="358.75984252">
Cut 2 Fabric</text>
      </g>
    </g>
    <g id="document.bodice.Bodice Back.pattern" transform=" translate(2377.559789, 580.552283)">
      <g id="B.letter" transform="matrix(10.000000, 0, 0, 10.000000, 3188.976378, -2465.078740)">
        <text style="font-size:24; vertical-align:top; fill-opacity:1.0; fill:#000000; text-anchor:start; stroke:none; font-weight:normal; font-style:normal; text-align:right; " transform="" id="B.letter.letterline" y="273.897637795" x="-354.330708661">
B</text>
      </g>
      <line style="stroke-linejoin:miter; stroke:green; stroke-width:4; stroke-miterlimit:4; fill:none; " y2="1222.44094488" marker-end="url(#Arrow1Mend)" marker-start="url(#Arrow1Mstart)" transform="" x2="-142.235487856" y1="212.598425197" x1="-142.235487856" id="B.grainline" />
      <path style="stroke-linejoin:miter; stroke-dashoffset:0; stroke:green; stroke-miterlimit:4; stroke-dasharray:6,6; stroke-width:3; fill:none; " transform="" d="M -467.408773421  1410.11670235 L -383.761673202  637.795275591 L -300.114572983  1410.11670235 M -559.69322976  -100.832894361 L -415.314857008  139.993979033 L -524.771526596  -118.582769632 " id="B.dartline" />
      <path style="stroke-linejoin:miter; stroke-dashoffset:0; stroke:green; stroke-dasharray:24,6; stroke-miterlimit:4; stroke-width:4; fill:none; " transform="" d="M 0.0  0.0 L 0.0  1346.45669291 C -101.068807154  1346.45669291  -234.734496712  1346.45669291  -306.171369381  1354.19374 L -383.761673202  1369.15662344 L -461.351977023  1354.19374 C -542.927348657  1345.35863191  -734.266073545  1342.80926806  -868.773550997  1341.01711386 L -943.264064146  743.278551331 C -846.087503167  731.168354085  -680.281055407  710.50546206  -646.511811024  637.795275591 C -562.668021212  457.267173678  -673.392103074  121.148427062  -708.661417323  37.8293872947 L -530.770190158  -52.5885135469 L -516.807237133  -59.6855521256 L -502.844284109  -66.7825907043 L -284.470975712  -141.732283465 C -252.688753608  -78.3927191927  -213.353231784  0.0  0.0  0.0 " id="B.seamline" />
      <path style="fill:none;stroke:#008000;stroke-width:4;stroke-linejoin:miter;stroke-miterlimit:4" d="M -302.71875,-194.9375 C -377.02831,-169.33548 -451.48786,-144.08984 -525.70372,-118.26518 -610.68316,-75.115796 -695.63896,-31.896833 -780.59375,11.3125 -762.92195,53.089899 -745.41509,95.128026 -732.1218,138.44623 -703.17342,230.09113 -681.21981,324.47243 -673.91795,420.43035 -670.07749,480.27842 -670.84409,542.0014 -691.28125,599.09375 -694.86023,609.18138 -698.90358,619.83638 -708.34375,625.875 -735.02664,645.21246 -767.54629,654.11116 -798.94613,662.36579 -866.99817,678.95325 -936.71784,685.40416 -1006.0312,694.40625 -976.84003,928.46569 -947.71759,1162.5337 -918.53125,1396.5938 -783.10559,1398.8094 -647.69015,1399.1053 -512.50622,1406.5056 -490.19412,1407.8743 -467.88669,1409.146 -446.02797,1414.4197 -424.94154,1418.2347 -403.85229,1423.0545 -382.76822,1426.2475 -353.14205,1420.7896 -323.49458,1414.2847 -293.875,1409.5 -219.26883,1403.1099 -144.09803,1403.4083 -69.093801,1402.779 -27.312651,1402.6628 14.468742,1402.7422 56.25,1402.7188 56.25,916.39583 56.25,430.07292 56.25,-56.25 -8.2028894,-56.354282 -74.213712,-53.53629 -136.34375,-73.46875 -166.34681,-82.915222 -194.66624,-100.53616 -212.09375,-127.3125 -229.28847,-153.74651 -241.59842,-182.99175 -256.28125,-210.875 -271.76042,-205.5625 -287.23958,-200.25 -302.71875,-194.9375 z" id="B.cuttingline" inkscape:connector-curvature="0" />
      <g id="B.info" transform="">
        <text style="font-size:12; vertical-align:top; fill-opacity:1.0; fill:#000000; text-anchor:start; stroke:none; font-weight:normal; font-style:normal; text-align:right; " transform="" id="B.info.lineNext Patterns" y="318.897637795" x="-354.330708661">
Next Patterns</text>
        <text style="font-size:12; vertical-align:top; fill-opacity:1.0; fill:#000000; text-anchor:start; stroke:none; font-weight:normal; font-style:normal; text-align:right; " transform="" id="B.info.lineDesigner:S.L.Spencer" y="333.297637795" x="-354.330708661">
Designer:S.L.Spencer</text>
        <text style="font-size:12; vertical-align:top; fill-opacity:1.0; fill:#000000; text-anchor:start; stroke:none; font-weight:normal; font-style:normal; text-align:right; " transform="" id="B.info.lineClient:DressFormLg" y="347.697637795" x="-354.330708661">
Client:DressFormLg</text>
        <text style="font-size:12; vertical-align:top; fill-opacity:1.0; fill:#000000; text-anchor:start; stroke:none; font-weight:normal; font-style:normal; text-align:right; " transform="" id="B.info.lineMR_B1" y="362.097637795" x="-354.330708661">
MR_B1</text>
        <text style="font-size:12; vertical-align:top; fill-opacity:1.0; fill:#000000; text-anchor:start; stroke:none; font-weight:normal; font-style:normal; text-align:right; " transform="" id="B.info.linePattern Piece B" y="376.497637795" x="-354.330708661">
Pattern Piece B</text>
        <text style="font-size:12; vertical-align:top; fill-opacity:1.0; fill:#000000; text-anchor:start; stroke:none; font-weight:normal; font-style:normal; text-align:right; " transform="" id="B.info.lineCut 2 Fabric" y="390.897637795" x="-354.330708661">
Cut 2 Fabric</text>
      </g>
    </g>
    <g id="document.bodice.Bodice Sleeve.pattern" transform=" translate(931.900535, 2240.302270)">
      <line style="stroke-linejoin:miter; stroke:green; stroke-width:4; stroke-miterlimit:4; fill:none; " y2="2090.5511811" marker-end="url(#Arrow1Mend)" marker-start="url(#Arrow1Mstart)" transform="" x2="0.0" y1="631.411380192" x1="0.0" id="C.grainline" />
      <g id="C.letter" transform="matrix(15.000000, 0, 0, 15.000000, -3810.433408, -14938.874610)">
        <text style="font-size:24; vertical-align:top; fill-opacity:1.0; fill:#000000; text-anchor:start; stroke:none; font-weight:normal; font-style:normal; text-align:right; " transform="" id="C.letter.letterline" y="1067.06247215" x="272.173814887">
C</text>
      </g>
      <path style="stroke-linejoin:miter; stroke-dashoffset:0; stroke:green; stroke-miterlimit:4; stroke-dasharray:6,6; stroke-width:3; fill:none; " transform="" d="M 739.71182479  1535.5405964 L 483.661417323  1502.71356411 L 720.744509872  1604.84599011 " id="C.dartline" />
      <path style="stroke-linejoin:miter; stroke-dashoffset:0; stroke:green; stroke-dasharray:24,6; stroke-miterlimit:4; stroke-width:4; fill:none; " transform="" d="M 929.400534855  631.411380192 C 849.819294955  582.076310819  769.818740726  532.481294483  697.050401141  473.558535144 C 550.360419898  354.779152358  428.301406231  205.30388524  272.173814887  99.2347210432 C 192.297056274  44.9684574576  95.6010144499  0.0  0.0  0.0 C -92.6965860756  0.0  -199.605396186  86.1243346406  -252.2619743  128.543783046 C -397.779506613  245.770797695  -525.604781938  390.333129936  -677.138560555  502.867597147 C -752.905449863  559.134830752  -842.064967384  595.646568608  -929.400534855  631.411380192 C -761.765164739  899.392048828  -579.77023238  1190.32780796  -531.496062992  1502.71356411 L -396.336847757  2377.3389422 C -142.710621644  2338.14510842  127.2319798  2368.85020424  369.912785665  2452.32742055 L 669.08414263  1582.59135112 L 684.272651668  1557.61631055 L 683.918482717  1528.38759141 L 929.400534855  631.411380192 " id="C.seamline" />
      <path style="fill:none;stroke:#008000;stroke-width:4;stroke-linejoin:miter;stroke-miterlimit:4" d="M -3,-56.21875 C -64.399386,-55.002708 -121.903,-28.870021 -173.67319,2.3192423 -234.68111,39.628347 -289.72519,85.648619 -343.9392,132.03451 -469.80924,241.29784 -583.35131,364.3604 -718.00301,463.0475 -799.00422,520.61097 -892.92226,555.13832 -984.02877,592.99816 -993.50876,596.88419 -1002.9888,600.77022 -1012.4688,604.65625 -899.00975,786.81314 -781.62493,967.74326 -694.13146,1164.2679 -641.93393,1281.5028 -601.36474,1404.8637 -583.85548,1532.2537 -537.02987,1835.2943 -490.19392,2138.3333 -443.375,2441.375 -382.16109,2431.7964 -320.79736,2422.4279 -258.84769,2419.2808 -55.6967,2407.4412 149.0898,2437.5639 341.69701,2502.1337 362.75163,2509.2911 383.79405,2516.4844 404.84375,2523.6562 510.01242,2217.9834 615.15432,1912.3014 720.3125,1606.625 726.92396,1595.0538 734.98254,1583.8787 740.70715,1572.0626 741.10425,1558.9543 739.29478,1545.5693 741.042,1532.6377 825.6113,1223.6647 910.18087,914.69178 994.75,605.71875 891.87369,541.80081 786.98552,479.52782 695.87842,399.16214 571.98628,291.65467 462.87112,166.9665 329.34097,70.608426 252.54675,15.048796 166.65418,-31.299102 72.78125,-49.25 47.810679,-53.932039 22.414882,-56.479428 -3,-56.21875 z" id="C.cuttingline" inkscape:connector-curvature="0" />
      <g id="C.info" transform="">
        <text style="font-size:12; vertical-align:top; fill-opacity:1.0; fill:#000000; text-anchor:start; stroke:none; font-weight:normal; font-style:normal; text-align:right; " transform="" id="C.info.lineNext Patterns" y="1137.92861388" x="272.173814887">
Next Patterns</text>
        <text style="font-size:12; vertical-align:top; fill-opacity:1.0; fill:#000000; text-anchor:start; stroke:none; font-weight:normal; font-style:normal; text-align:right; " transform="" id="C.info.lineDesigner:S.L.Spencer" y="1152.32861388" x="272.173814887">
Designer:S.L.Spencer</text>
        <text style="font-size:12; vertical-align:top; fill-opacity:1.0; fill:#000000; text-anchor:start; stroke:none; font-weight:normal; font-style:normal; text-align:right; " transform="" id="C.info.lineClient:DressFormLg" y="1166.72861388" x="272.173814887">
Client:DressFormLg</text>
        <text style="font-size:12; vertical-align:top; fill-opacity:1.0; fill:#000000; text-anchor:start; stroke:none; font-weight:normal; font-style:normal; text-align:right; " transform="" id="C.info.lineMR_B1" y="1181.12861388" x="272.173814887">
MR_B1</text>
        <text style="font-size:12; vertical-align:top; fill-opacity:1.0; fill:#000000; text-anchor:start; stroke:none; font-weight:normal; font-style:normal; text-align:right; " transform="" id="C.info.linePattern Piece C" y="1195.52861388" x="272.173814887">
Pattern Piece C</text>
        <text style="font-size:12; vertical-align:top; fill-opacity:1.0; fill:#000000; text-anchor:start; stroke:none; font-weight:normal; font-style:normal; text-align:right; " transform="" id="C.info.lineCut 2 Fabric" y="1209.92861388" x="272.173814887">
Cut 2 Fabric</text>
      </g>
    </g>
  </g>
  <g inkscape:label="Label-notes" id="notes" inkscape:groupmode="layer" transform="translate(88.582677,88.582677)">
    <g id="document.titleblock">
      <text style="font-size:40; vertical-align:top; fill-opacity:1.0; fill:#000000; text-anchor:right; stroke:none; font-weight:normal; font-style:normal; text-align:right; " transform="" id="company" y="0.0" x="0.0">
Next Patterns</text>
      <text style="font-size:40; vertical-align:top; fill-opacity:1.0; fill:#000000; text-anchor:right; stroke:none; font-weight:normal; font-style:normal; text-align:right; " transform="" id="designer" y="44.0" x="0.0">
S.L.Spencer</text>
      <text style="font-size:40; vertical-align:top; fill-opacity:1.0; fill:#000000; text-anchor:right; stroke:none; font-weight:normal; font-style:normal; text-align:right; " transform="" id="pattern_number" y="88.0" x="0.0">
MR_B1</text>
      <text style="font-size:40; vertical-align:top; fill-opacity:1.0; fill:#000000; text-anchor:right; stroke:none; font-weight:normal; font-style:normal; text-align:right; " transform="" id="pattern_name" y="132.0" x="0.0">
Spencer Bodice Short</text>
      <text style="font-size:40; vertical-align:top; fill-opacity:1.0; fill:#000000; text-anchor:right; stroke:none; font-weight:normal; font-style:normal; text-align:right; " transform="" id="client" y="176.0" x="0.0">
DressFormLg</text>
    </g>
    <g id="document.testgrid">
      <path style="stroke-linejoin:miter; stroke:green; stroke-width:4; stroke-miterlimit:4; fill:none; " d="M 1320.0  0.0 L 1320.0  212.598425197 M 1355.43307087  0.0 L 1355.43307087  212.598425197 M 1390.86614173  0.0 L 1390.86614173  212.598425197 M 1426.2992126  0.0 L 1426.2992126  212.598425197 M 1461.73228346  0.0 L 1461.73228346  212.598425197 M 1497.16535433  0.0 L 1497.16535433  212.598425197 M 1532.5984252  0.0 L 1532.5984252  212.598425197 M 1320.0  0.0 L 1532.5984252  0.0 M 1320.0  35.4330708661 L 1532.5984252  35.4330708661 M 1320.0  70.8661417323 L 1532.5984252  70.8661417323 M 1320.0  106.299212598 L 1532.5984252  106.299212598 M 1320.0  141.732283465 L 1532.5984252  141.732283465 M 1320.0  177.165354331 L 1532.5984252  177.165354331 M 1320.0  212.598425197 L 1532.5984252  212.598425197 M 1709.76377953  0.0 L 1709.76377953  270.0 M 1799.76377953  0.0 L 1799.76377953  270.0 M 1889.76377953  0.0 L 1889.76377953  270.0 M 1979.76377953  0.0 L 1979.76377953  270.0 M 1709.76377953  0.0 L 1979.76377953  0.0 M 1709.76377953  90.0 L 1979.76377953  90.0 M 1709.76377953  180.0 L 1979.76377953  180.0 M 1709.76377953  270.0 L 1979.76377953  270.0 " id="testgrid" />
    </g>
    <g id="document.bodice.Bodice Front.notes" transform=" translate(58.750000, 757.717638)" />
    <g id="document.bodice.Bodice Back.notes" transform=" translate(2377.559789, 580.552283)" />
    <g id="document.bodice.Bodice Sleeve.notes" transform=" translate(931.900535, 2240.302270)" />
  </g>
  <g inkscape:label="Label-reference" id="reference" inkscape:groupmode="layer" transform="translate(88.582677,88.582677)">
    <g id="document.bodice.Bodice Front.reference" transform=" translate(58.750000, 757.717638)">
      <circle style="stroke:gray; stroke-width:1; fill:none; " transform="" cy="0.0" cx="160.146981797" r="5" id="A.FNC.inpoint" d="M 165.14699,0 C 165.14699,2.7614237 162.90841,5 160.14699,5 157.38556,5 155.14699,2.7614237 155.14699,0 155.14699,-2.7614237 157.38556,-5 160.14699,-5 162.90841,-5 165.14699,-2.7614237 165.14699,0 z" />
      <text style="font-size:25; vertical-align:top; fill-opacity:1.0; fill:gray; text-anchor:right; stroke:none; font-weight:normal; font-style:italic; text-align:right; " transform="" id="A.FNC.inpoint.text" y="-7.0" x="167.146981797">
FNC.in</text>
      <circle style="stroke:red; stroke-width:1; fill:red; " transform="" cy="0.0" cx="0.0" r="5" id="A.FNC" d="M 5,0 C 5,2.7614237 2.7614237,5 0,5 -2.7614237,5 -5,2.7614237 -5,0 -5,-2.7614237 -2.7614237,-5 0,-5 2.7614237,-5 5,-2.7614237 5,0 z" />
      <text style="font-size:30; vertical-align:top; fill-opacity:1.0; fill:darkblue; text-anchor:right; stroke:none; font-weight:normal; font-style:italic; text-align:right; " transform="" id="A.FNC.text" y="-7.0" x="7.0">
FNC</text>
      <circle style="stroke:gray; stroke-width:1; fill:none; " transform="" cy="1240.15748031" cx="88.645475637" r="5" id="A.FWC.outpoint" d="M 93.645477,1240.1575 C 93.645477,1242.9189 91.406901,1245.1575 88.645477,1245.1575 85.884054,1245.1575 83.645477,1242.9189 83.645477,1240.1575 83.645477,1237.396 85.884054,1235.1575 88.645477,1235.1575 91.406901,1235.1575 93.645477,1237.396 93.645477,1240.1575 z" />
      <text style="font-size:25; vertical-align:top; fill-opacity:1.0; fill:gray; text-anchor:right; stroke:none; font-weight:normal; font-style:italic; text-align:right; " transform="" id="A.FWC.outpoint.text" y="1233.15748031" x="95.645475637">
FWC.out</text>
      <circle style="stroke:red; stroke-width:1; fill:red; " transform="" cy="1240.15748031" cx="0.0" r="5" id="A.FWC" d="M 5,1240.1575 C 5,1242.9189 2.7614237,1245.1575 0,1245.1575 -2.7614237,1245.1575 -5,1242.9189 -5,1240.1575 -5,1237.396 -2.7614237,1235.1575 0,1235.1575 2.7614237,1235.1575 5,1237.396 5,1240.1575 z" />
      <text style="font-size:30; vertical-align:top; fill-opacity:1.0; fill:darkblue; text-anchor:right; stroke:none; font-weight:normal; font-style:italic; text-align:right; " transform="" id="A.FWC.text" y="1233.15748031" x="7.0">
FWC</text>
      <circle style="stroke:red; stroke-width:1; fill:red; " transform="" cy="-318.897637795" cx="0.0" r="5" id="A.FSH" d="M 5,-318.89764 C 5,-316.13622 2.7614237,-313.89764 0,-313.89764 -2.7614237,-313.89764 -5,-316.13622 -5,-318.89764 -5,-321.65907 -2.7614237,-323.89764 0,-323.89764 2.7614237,-323.89764 5,-321.65907 5,-318.89764 z" />
      <text style="font-size:30; vertical-align:top; fill-opacity:1.0; fill:darkblue; text-anchor:right; stroke:none; font-weight:normal; font-style:italic; text-align:right; " transform="" id="A.FSH.text" y="-325.897637795" x="7.0">
FSH</text>
      <circle style="stroke:red; stroke-width:1; fill:red; " transform="" cy="-318.897637795" cx="717.519685039" r="5" id="A.FSW" d="M 722.51971,-318.89764 C 722.51971,-316.13622 720.28114,-313.89764 717.51971,-313.89764 714.75829,-313.89764 712.51971,-316.13622 712.51971,-318.89764 712.51971,-321.65907 714.75829,-323.89764 717.51971,-323.89764 720.28114,-323.89764 722.51971,-321.65907 722.51971,-318.89764 z" />
      <text style="font-size:30; vertical-align:top; fill-opacity:1.0; fill:darkblue; text-anchor:right; stroke:none; font-weight:normal; font-style:italic; text-align:right; " transform="" id="A.FSW.text" y="-325.897637795" x="724.519685039">
FSW</text>
      <circle style="stroke:gray; stroke-width:1; fill:none; " transform="" cy="-143.504287858" cx="700.589615123" r="5" id="A.FSP.inpoint" d="M 705.5896,-143.50429 C 705.5896,-140.74286 703.35102,-138.50429 700.5896,-138.50429 697.82818,-138.50429 695.5896,-140.74286 695.5896,-143.50429 695.5896,-146.26571 697.82818,-148.50429 700.5896,-148.50429 703.35102,-148.50429 705.5896,-146.26571 705.5896,-143.50429 z" />
      <text style="font-size:25; vertical-align:top; fill-opacity:1.0; fill:gray; text-anchor:right; stroke:none; font-weight:normal; font-style:italic; text-align:right; " transform="" id="A.FSP.inpoint.text" y="-150.504287858" x="707.589615123">
FSP.in</text>
      <circle style="stroke:red; stroke-width:1; fill:red; " transform="" cy="-223.334513127" cx="717.519685039" r="5" id="A.FSP" d="M 722.51971,-223.33452 C 722.51971,-220.57309 720.28114,-218.33452 717.51971,-218.33452 714.75829,-218.33452 712.51971,-220.57309 712.51971,-223.33452 712.51971,-226.09594 714.75829,-228.33452 717.51971,-228.33452 720.28114,-228.33452 722.51971,-226.09594 722.51971,-223.33452 z" />
      <text style="font-size:30; vertical-align:top; fill-opacity:1.0; fill:darkblue; text-anchor:right; stroke:none; font-weight:normal; font-style:italic; text-align:right; " transform="" id="A.FSP.text" y="-230.334513127" x="724.519685039">
FSP</text>
      <circle style="stroke:gray; stroke-width:1; fill:none; " transform="" cy="-162.917928626" cx="233.832093174" r="5" id="A.FNS.outpoint" d="M 238.83209,-162.91792 C 238.83209,-160.1565 236.59352,-157.91792 233.83209,-157.91792 231.07067,-157.91792 228.83209,-160.1565 228.83209,-162.91792 228.83209,-165.67935 231.07067,-167.91792 233.83209,-167.91792 236.59352,-167.91792 238.83209,-165.67935 238.83209,-162.91792 z" />
      <text style="font-size:25; vertical-align:top; fill-opacity:1.0; fill:gray; text-anchor:right; stroke:none; font-weight:normal; font-style:italic; text-align:right; " transform="" id="A.FNS.outpoint.text" y="-169.917928626" x="240.832093174">
FNS.out</text>
      <circle style="stroke:red; stroke-width:1; fill:red; " transform="" cy="-318.897637795" cx="266.911636328" r="5" id="A.FNS" d="M 271.91162,-318.89764 C 271.91162,-316.13622 269.67304,-313.89764 266.91162,-313.89764 264.1502,-313.89764 261.91162,-316.13622 261.91162,-318.89764 261.91162,-321.65907 264.1502,-323.89764 266.91162,-323.89764 269.67304,-323.89764 271.91162,-321.65907 271.91162,-318.89764 z" />
      <text style="font-size:30; vertical-align:top; fill-opacity:1.0; fill:darkblue; text-anchor:right; stroke:none; font-weight:normal; font-style:italic; text-align:right; " transform="" id="A.FNS.text" y="-325.897637795" x="273.911636328">
FNS</text>
      <circle style="stroke:red; stroke-width:1; fill:red; " transform="" cy="318.897637795" cx="0.0" r="5" id="A.FUC" d="M 5,318.89764 C 5,321.65907 2.7614237,323.89764 0,323.89764 -2.7614237,323.89764 -5,321.65907 -5,318.89764 -5,316.13622 -2.7614237,313.89764 0,313.89764 2.7614237,313.89764 5,316.13622 5,318.89764 z" />
      <text style="font-size:30; vertical-align:top; fill-opacity:1.0; fill:darkblue; text-anchor:right; stroke:none; font-weight:normal; font-style:italic; text-align:right; " transform="" id="A.FUC.text" y="311.897637795" x="7.0">
FUC</text>
      <circle style="stroke:red; stroke-width:1; fill:red; " transform="" cy="637.795275591" cx="0.0" r="5" id="A.FBC" d="M 5,637.79529 C 5,640.55671 2.7614237,642.79529 0,642.79529 -2.7614237,642.79529 -5,640.55671 -5,637.79529 -5,635.03386 -2.7614237,632.79529 0,632.79529 2.7614237,632.79529 5,635.03386 5,637.79529 z" />
      <text style="font-size:30; vertical-align:top; fill-opacity:1.0; fill:darkblue; text-anchor:right; stroke:none; font-weight:normal; font-style:italic; text-align:right; " transform="" id="A.FBC.text" y="630.795275591" x="7.0">
FBC</text>
      <circle style="stroke:red; stroke-width:1; fill:red; " transform="" cy="637.795275591" cx="354.330708661" r="5" id="A.FBP" d="M 359.33072,637.79529 C 359.33072,640.55671 357.09214,642.79529 354.33072,642.79529 351.5693,642.79529 349.33072,640.55671 349.33072,637.79529 349.33072,635.03386 351.5693,632.79529 354.33072,632.79529 357.09214,632.79529 359.33072,635.03386 359.33072,637.79529 z" />
      <text style="font-size:30; vertical-align:top; fill-opacity:1.0; fill:darkblue; text-anchor:right; stroke:none; font-weight:normal; font-style:italic; text-align:right; " transform="" id="A.FBP.text" y="630.795275591" x="361.330708661">
FBP</text>
      <circle style="stroke:gray; stroke-width:1; fill:none; " transform="" cy="421.42614887" cx="738.545618172" r="5" id="A.FAP.inpoint" d="M 743.54559,421.42615 C 743.54559,424.18757 741.30702,426.42615 738.54559,426.42615 735.78417,426.42615 733.54559,424.18757 733.54559,421.42615 733.54559,418.66472 735.78417,416.42615 738.54559,416.42615 741.30702,416.42615 743.54559,418.66472 743.54559,421.42615 z" />
      <text style="font-size:25; vertical-align:top; fill-opacity:1.0; fill:gray; text-anchor:right; stroke:none; font-weight:normal; font-style:italic; text-align:right; " transform="" id="A.FAP.inpoint.text" y="414.42614887" x="745.545618172">
FAP.in</text>
      <circle style="stroke:gray; stroke-width:1; fill:none; " transform="" cy="167.481010918" cx="576.766193088" r="5" id="A.FAP.outpoint" d="M 581.76617,167.48102 C 581.76617,170.24244 579.5276,172.48102 576.76617,172.48102 574.00475,172.48102 571.76617,170.24244 571.76617,167.48102 571.76617,164.71959 574.00475,162.48102 576.76617,162.48102 579.5276,162.48102 581.76617,164.71959 581.76617,167.48102 z" />
      <text style="font-size:25; vertical-align:top; fill-opacity:1.0; fill:gray; text-anchor:right; stroke:none; font-weight:normal; font-style:italic; text-align:right; " transform="" id="A.FAP.outpoint.text" y="160.481010918" x="583.766193088">
FAP.out</text>
      <circle style="stroke:red; stroke-width:1; fill:red; " transform="" cy="318.897637795" cx="673.228346457" r="5" id="A.FAP" d="M 678.22833,318.89764 C 678.22833,321.65907 675.98976,323.89764 673.22833,323.89764 670.46691,323.89764 668.22833,321.65907 668.22833,318.89764 668.22833,316.13622 670.46691,313.89764 673.22833,313.89764 675.98976,313.89764 678.22833,316.13622 678.22833,318.89764 z" />
      <text style="font-size:30; vertical-align:top; fill-opacity:1.0; fill:darkblue; text-anchor:right; stroke:none; font-weight:normal; font-style:italic; text-align:right; " transform="" id="A.FAP.text" y="311.897637795" x="680.228346457">
FAP</text>
      <circle style="stroke:red; stroke-width:1; fill:red; " transform="" cy="318.897637795" cx="921.25984252" r="5" id="A.f1" d="M 926.25983,318.89764 C 926.25983,321.65907 924.02125,323.89764 921.25983,323.89764 918.4984,323.89764 916.25983,321.65907 916.25983,318.89764 916.25983,316.13622 918.4984,313.89764 921.25983,313.89764 924.02125,313.89764 926.25983,316.13622 926.25983,318.89764 z" />
      <text style="font-size:30; vertical-align:top; fill-opacity:1.0; fill:darkblue; text-anchor:right; stroke:none; font-weight:normal; font-style:italic; text-align:right; " transform="" id="A.f1.text" y="311.897637795" x="928.25984252">
f1</text>
      <circle style="stroke:red; stroke-width:1; fill:red; " transform="" cy="440.379318512" cx="960.803917844" r="5" id="A.f2" d="M 965.80389,440.37933 C 965.80389,443.14076 963.56532,445.37933 960.80389,445.37933 958.04247,445.37933 955.80389,443.14076 955.80389,440.37933 955.80389,437.61791 958.04247,435.37933 960.80389,435.37933 963.56532,435.37933 965.80389,437.61791 965.80389,440.37933 z" />
      <text style="font-size:30; vertical-align:top; fill-opacity:1.0; fill:darkblue; text-anchor:right; stroke:none; font-weight:normal; font-style:italic; text-align:right; " transform="" id="A.f2.text" y="433.379318512" x="967.803917844">
f2</text>
      <circle style="stroke:red; stroke-width:1; fill:red; " transform="" cy="992.756759109" cx="1140.61090594" r="5" id="A.f3" d="M 1145.611,992.75677 C 1145.611,995.5182 1143.3724,997.75677 1140.611,997.75677 1137.8495,997.75677 1135.611,995.5182 1135.611,992.75677 1135.611,989.99535 1137.8495,987.75677 1140.611,987.75677 1143.3724,987.75677 1145.611,989.99535 1145.611,992.75677 z" />
      <text style="font-size:30; vertical-align:top; fill-opacity:1.0; fill:darkblue; text-anchor:right; stroke:none; font-weight:normal; font-style:italic; text-align:right; " transform="" id="A.f3.text" y="985.756759109" x="1147.61090594">
f3</text>
      <circle style="stroke:red; stroke-width:1; fill:red; " transform="" cy="1240.15748031" cx="354.330708661" r="5" id="A.f4" d="M 359.33072,1240.1575 C 359.33072,1242.9189 357.09214,1245.1575 354.33072,1245.1575 351.5693,1245.1575 349.33072,1242.9189 349.33072,1240.1575 349.33072,1237.396 351.5693,1235.1575 354.33072,1235.1575 357.09214,1235.1575 359.33072,1237.396 359.33072,1240.1575 z" />
      <text style="font-size:30; vertical-align:top; fill-opacity:1.0; fill:darkblue; text-anchor:right; stroke:none; font-weight:normal; font-style:italic; text-align:right; " transform="" id="A.f4.text" y="1233.15748031" x="361.330708661">
f4</text>
      <circle style="stroke:red; stroke-width:1; fill:red; " transform="" cy="1150.61284812" cx="670.334447545" r="5" id="A.f5" d="M 675.33447,1150.6128 C 675.33447,1153.3742 673.0959,1155.6128 670.33447,1155.6128 667.57305,1155.6128 665.33447,1153.3742 665.33447,1150.6128 665.33447,1147.8514 667.57305,1145.6128 670.33447,1145.6128 673.0959,1145.6128 675.33447,1147.8514 675.33447,1150.6128 z" />
      <text style="font-size:30; vertical-align:top; fill-opacity:1.0; fill:darkblue; text-anchor:right; stroke:none; font-weight:normal; font-style:italic; text-align:right; " transform="" id="A.f5.text" y="1143.61284812" x="677.334447545">
f5</text>
      <circle style="stroke:red; stroke-width:1; fill:red; " transform="" cy="414.890724943" cx="1039.10634774" r="5" id="A.FBS" d="M 1044.1063,414.89072 C 1044.1063,417.65214 1041.8677,419.89072 1039.1063,419.89072 1036.3449,419.89072 1034.1063,417.65214 1034.1063,414.89072 1034.1063,412.12929 1036.3449,409.89072 1039.1063,409.89072 1041.8677,409.89072 1044.1063,412.12929 1044.1063,414.89072 z" />
      <text style="font-size:30; vertical-align:top; fill-opacity:1.0; fill:darkblue; text-anchor:right; stroke:none; font-weight:normal; font-style:italic; text-align:right; " transform="" id="A.FBS.text" y="407.890724943" x="1046.10634774">
FBS</text>
      <circle style="stroke:red; stroke-width:1; fill:red; " transform="" cy="976.305429353" cx="1191.15034004" r="5" id="A.f6" d="M 1196.1504,976.30542 C 1196.1504,979.06684 1193.9118,981.30542 1191.1504,981.30542 1188.389,981.30542 1186.1504,979.06684 1186.1504,976.30542 1186.1504,973.544 1188.389,971.30542 1191.1504,971.30542 1193.9118,971.30542 1196.1504,973.544 1196.1504,976.30542 z" />
      <text style="font-size:30; vertical-align:top; fill-opacity:1.0; fill:darkblue; text-anchor:right; stroke:none; font-weight:normal; font-style:italic; text-align:right; " transform="" id="A.f6.text" y="969.305429353" x="1198.15034004">
f6</text>
      <circle style="stroke:red; stroke-width:1; fill:red; " transform="" cy="292.284950312" cx="1005.90188889" r="5" id="A.f7" d="M 1010.9019,292.28494 C 1010.9019,295.04637 1008.6633,297.28494 1005.9019,297.28494 1003.1405,297.28494 1000.9019,295.04637 1000.9019,292.28494 1000.9019,289.52352 1003.1405,287.28494 1005.9019,287.28494 1008.6633,287.28494 1010.9019,289.52352 1010.9019,292.28494 z" />
      <text style="font-size:30; vertical-align:top; fill-opacity:1.0; fill:darkblue; text-anchor:right; stroke:none; font-weight:normal; font-style:italic; text-align:right; " transform="" id="A.f7.text" y="285.284950312" x="1012.90188889">
f7</text>
      <circle style="stroke:gray; stroke-width:1; fill:none; " transform="" cy="440.498153899" cx="893.572200606" r="5" id="A.FUS.outpoint" d="M 898.5722,440.49817 C 898.5722,443.25959 896.33363,445.49817 893.5722,445.49817 890.81078,445.49817 888.5722,443.25959 888.5722,440.49817 888.5722,437.73675 890.81078,435.49817 893.5722,435.49817 896.33363,435.49817 898.5722,437.73675 898.5722,440.49817 z" />
      <text style="font-size:25; vertical-align:top; fill-opacity:1.0; fill:gray; text-anchor:right; stroke:none; font-weight:normal; font-style:italic; text-align:right; " transform="" id="A.FUS.outpoint.text" y="433.498153899" x="900.572200606">
FUS.out</text>
      <circle style="stroke:red; stroke-width:1; fill:red; " transform="" cy="394.888022168" cx="1033.68915656" r="5" id="A.FUS" d="M 1038.6892,394.88803 C 1038.6892,397.64945 1036.4506,399.88803 1033.6892,399.88803 1030.9278,399.88803 1028.6892,397.64945 1028.6892,394.88803 1028.6892,392.12661 1030.9278,389.88803 1033.6892,389.88803 1036.4506,389.88803 1038.6892,392.12661 1038.6892,394.88803 z" />
      <text style="font-size:30; vertical-align:top; fill-opacity:1.0; fill:darkblue; text-anchor:right; stroke:none; font-weight:normal; font-style:italic; text-align:right; " transform="" id="A.FUS.text" y="387.888022168" x="1040.68915656">
FUS</text>
      <circle style="stroke:gray; stroke-width:1; fill:none; " transform="" cy="1200.35137293" cx="859.463764467" r="5" id="A.FWS.inpoint" d="M 864.46375,1200.3513 C 864.46375,1203.1127 862.22517,1205.3513 859.46375,1205.3513 856.70232,1205.3513 854.46375,1203.1127 854.46375,1200.3513 854.46375,1197.5899 856.70232,1195.3513 859.46375,1195.3513 862.22517,1195.3513 864.46375,1197.5899 864.46375,1200.3513 z" />
      <text style="font-size:25; vertical-align:top; fill-opacity:1.0; fill:gray; text-anchor:right; stroke:none; font-weight:normal; font-style:italic; text-align:right; " transform="" id="A.FWS.inpoint.text" y="1193.35137293" x="866.463764467">
FWS.in</text>
      <circle style="stroke:red; stroke-width:1; fill:red; " transform="" cy="1191.62550743" cx="1067.16189061" r="5" id="A.FWS" d="M 1072.1619,1191.6255 C 1072.1619,1194.3869 1069.9233,1196.6255 1067.1619,1196.6255 1064.4004,1196.6255 1062.1619,1194.3869 1062.1619,1191.6255 1062.1619,1188.8641 1064.4004,1186.6255 1067.1619,1186.6255 1069.9233,1186.6255 1072.1619,1188.8641 1072.1619,1191.6255 z" />
      <text style="font-size:30; vertical-align:top; fill-opacity:1.0; fill:darkblue; text-anchor:right; stroke:none; font-weight:normal; font-style:italic; text-align:right; " transform="" id="A.FWS.text" y="1184.62550743" x="1074.16189061">
FWS</text>
      <circle style="stroke:red; stroke-width:1; fill:red; " transform="" cy="637.795275591" cx="443.747905788" r="5" id="A.FD2" d="M 448.74789,637.79529 C 448.74789,640.55671 446.50932,642.79529 443.74789,642.79529 440.98647,642.79529 438.74789,640.55671 438.74789,637.79529 438.74789,635.03386 440.98647,632.79529 443.74789,632.79529 446.50932,632.79529 448.74789,635.03386 448.74789,637.79529 z" />
      <text style="font-size:30; vertical-align:top; fill-opacity:1.0; fill:darkblue; text-anchor:right; stroke:none; font-weight:normal; font-style:italic; text-align:right; " transform="" id="A.FD2.text" y="630.795275591" x="450.747905788">
FD2</text>
      <circle style="stroke:red; stroke-width:1; fill:red; " transform="" cy="637.795275591" cx="1102.57680674" r="5" id="A.FD2.i" d="M 1107.5768,637.79529 C 1107.5768,640.55671 1105.3382,642.79529 1102.5768,642.79529 1099.8154,642.79529 1097.5768,640.55671 1097.5768,637.79529 1097.5768,635.03386 1099.8154,632.79529 1102.5768,632.79529 1105.3382,632.79529 1107.5768,635.03386 1107.5768,637.79529 z" />
      <text style="font-size:30; vertical-align:top; fill-opacity:1.0; fill:darkblue; text-anchor:right; stroke:none; font-weight:normal; font-style:italic; text-align:right; " transform="" id="A.FD2.i.text" y="630.795275591" x="1109.57680674">
FD2.i</text>
      <circle style="stroke:red; stroke-width:1; fill:red; " transform="" cy="840.718337959" cx="1070.5475161" r="5" id="A.FD2.o" d="M 1075.5475,840.71832 C 1075.5475,843.47975 1073.3089,845.71832 1070.5475,845.71832 1067.7861,845.71832 1065.5475,843.47975 1065.5475,840.71832 1065.5475,837.9569 1067.7861,835.71832 1070.5475,835.71832 1073.3089,835.71832 1075.5475,837.9569 1075.5475,840.71832 z" />
      <text style="font-size:30; vertical-align:top; fill-opacity:1.0; fill:darkblue; text-anchor:right; stroke:none; font-weight:normal; font-style:italic; text-align:right; " transform="" id="A.FD2.o.text" y="833.718337959" x="1077.5475161">
FD2.o</text>
      <circle style="stroke:red; stroke-width:1; fill:red; " transform="" cy="1240.15748031" cx="270.633997225" r="5" id="A.f8" d="M 275.634,1240.1575 C 275.634,1242.9189 273.39543,1245.1575 270.634,1245.1575 267.87258,1245.1575 265.634,1242.9189 265.634,1240.1575 265.634,1237.396 267.87258,1235.1575 270.634,1235.1575 273.39543,1235.1575 275.634,1237.396 275.634,1240.1575 z" />
      <text style="font-size:30; vertical-align:top; fill-opacity:1.0; fill:darkblue; text-anchor:right; stroke:none; font-weight:normal; font-style:italic; text-align:right; " transform="" id="A.f8.text" y="1233.15748031" x="277.633997225">
f8</text>
      <circle style="stroke:red; stroke-width:1; fill:red; " transform="" cy="1240.15748031" cx="438.027420098" r="5" id="A.f9" d="M 443.02744,1240.1575 C 443.02744,1242.9189 440.78886,1245.1575 438.02744,1245.1575 435.26601,1245.1575 433.02744,1242.9189 433.02744,1240.1575 433.02744,1237.396 435.26601,1235.1575 438.02744,1235.1575 440.78886,1235.1575 443.02744,1237.396 443.02744,1240.1575 z" />
      <text style="font-size:30; vertical-align:top; fill-opacity:1.0; fill:darkblue; text-anchor:right; stroke:none; font-weight:normal; font-style:italic; text-align:right; " transform="" id="A.f9.text" y="1233.15748031" x="445.027420098">
f9</text>
      <circle style="stroke:red; stroke-width:1; fill:red; " transform="" cy="710.078740157" cx="354.330708661" r="5" id="A.FD1" d="M 359.33072,710.07874 C 359.33072,712.84016 357.09214,715.07874 354.33072,715.07874 351.5693,715.07874 349.33072,712.84016 349.33072,710.07874 349.33072,707.31731 351.5693,705.07874 354.33072,705.07874 357.09214,705.07874 359.33072,707.31731 359.33072,710.07874 z" />
      <text style="font-size:30; vertical-align:top; fill-opacity:1.0; fill:darkblue; text-anchor:right; stroke:none; font-weight:normal; font-style:italic; text-align:right; " transform="" id="A.FD1.text" y="703.078740157" x="361.330708661">
FD1</text>
      <circle style="stroke:gray; stroke-width:1; fill:none; " transform="" cy="1240.15748031" cx="169.270393162" r="5" id="A.FD1.i.inpoint" d="M 174.27039,1240.1575 C 174.27039,1242.9189 172.03181,1245.1575 169.27039,1245.1575 166.50896,1245.1575 164.27039,1242.9189 164.27039,1240.1575 164.27039,1237.396 166.50896,1235.1575 169.27039,1235.1575 172.03181,1235.1575 174.27039,1237.396 174.27039,1240.1575 z" />
      <text style="font-size:25; vertical-align:top; fill-opacity:1.0; fill:gray; text-anchor:right; stroke:none; font-weight:normal; font-style:italic; text-align:right; " transform="" id="A.FD1.i.inpoint.text" y="1233.15748031" x="176.270393162">
FD1.i.in</text>
      <circle style="stroke:red; stroke-width:1; fill:red; " transform="" cy="1255.77296657" cx="268.168392122" r="5" id="A.FD1.i" d="M 273.1684,1255.7729 C 273.1684,1258.5344 270.92982,1260.7729 268.1684,1260.7729 265.40697,1260.7729 263.1684,1258.5344 263.1684,1255.7729 263.1684,1253.0115 265.40697,1250.7729 268.1684,1250.7729 270.92982,1250.7729 273.1684,1253.0115 273.1684,1255.7729 z" />
      <text style="font-size:30; vertical-align:top; fill-opacity:1.0; fill:darkblue; text-anchor:right; stroke:none; font-weight:normal; font-style:italic; text-align:right; " transform="" id="A.FD1.i.text" y="1248.77296657" x="275.168392122">
FD1.i</text>
      <circle style="stroke:gray; stroke-width:1; fill:none; " transform="" cy="1224.86878475" cx="636.21935046" r="5" id="A.FD1.o.outpoint" d="M 641.21936,1224.8688 C 641.21936,1227.6302 638.98078,1229.8688 636.21936,1229.8688 633.45794,1229.8688 631.21936,1227.6302 631.21936,1224.8688 631.21936,1222.1074 633.45794,1219.8688 636.21936,1219.8688 638.98078,1219.8688 641.21936,1222.1074 641.21936,1224.8688 z" />
      <text style="font-size:25; vertical-align:top; fill-opacity:1.0; fill:gray; text-anchor:right; stroke:none; font-weight:normal; font-style:italic; text-align:right; " transform="" id="A.FD1.o.outpoint.text" y="1217.86878475" x="643.21935046">
FD1.o.out</text>
      <circle style="stroke:red; stroke-width:1; fill:red; " transform="" cy="1255.77296657" cx="440.493025201" r="5" id="A.FD1.o" d="M 445.49301,1255.7729 C 445.49301,1258.5344 443.25444,1260.7729 440.49301,1260.7729 437.73159,1260.7729 435.49301,1258.5344 435.49301,1255.7729 435.49301,1253.0115 437.73159,1250.7729 440.49301,1250.7729 443.25444,1250.7729 445.49301,1253.0115 445.49301,1255.7729 z" />
      <text style="font-size:30; vertical-align:top; fill-opacity:1.0; fill:darkblue; text-anchor:right; stroke:none; font-weight:normal; font-style:italic; text-align:right; " transform="" id="A.FD1.o.text" y="1248.77296657" x="447.493025201">
FD1.o</text>
      <path style="stroke-linejoin:miter; stroke-dashoffset:0; stroke:gray; stroke-miterlimit:4; stroke-dasharray:6,6; stroke-width:2; fill:none; " transform="" d="M 0.0  1240.15748031 L 717.519685039  -223.334513127 L 717.519685039  -318.897637795 L 0.0  -318.897637795 L 0.0  0.0 M 0.0  637.795275591 L 354.330708661  637.795275591 L 1039.10634774  414.890724943 M 0.0  318.897637795 L 921.25984252  318.897637795 L 1005.90188889  292.284950312 L 1191.15034004  976.305429353 L 1140.61090594  992.756759109 L 921.25984252  318.897637795 " id="A.gridline" />
    </g>
    <g id="document.bodice.Bodice Back.reference" transform=" translate(2377.559789, 580.552283)">
      <circle style="stroke:gray; stroke-width:1; fill:none; " transform="" cy="0.0" cx="-213.353231784" r="5" id="B.BNC.inpoint" d="M -208.35323,0 C -208.35323,2.7614237 -210.5918,5 -213.35323,5 -216.11465,5 -218.35323,2.7614237 -218.35323,0 -218.35323,-2.7614237 -216.11465,-5 -213.35323,-5 -210.5918,-5 -208.35323,-2.7614237 -208.35323,0 z" />
      <text style="font-size:25; vertical-align:top; fill-opacity:1.0; fill:gray; text-anchor:right; stroke:none; font-weight:normal; font-style:italic; text-align:right; " transform="" id="B.BNC.inpoint.text" y="-7.0" x="-206.353231784">
BNC.in</text>
      <circle style="stroke:red; stroke-width:1; fill:red; " transform="" cy="0.0" cx="0.0" r="5" id="B.BNC" d="M 5,0 C 5,2.7614237 2.7614237,5 0,5 -2.7614237,5 -5,2.7614237 -5,0 -5,-2.7614237 -2.7614237,-5 0,-5 2.7614237,-5 5,-2.7614237 5,0 z" />
      <text style="font-size:30; vertical-align:top; fill-opacity:1.0; fill:darkblue; text-anchor:right; stroke:none; font-weight:normal; font-style:italic; text-align:right; " transform="" id="B.BNC.text" y="-7.0" x="7.0">
BNC</text>
      <circle style="stroke:gray; stroke-width:1; fill:none; " transform="" cy="1346.45669291" cx="-101.068807154" r="5" id="B.BWC.outpoint" d="M -96.06881,1346.4567 C -96.06881,1349.2181 -98.307386,1351.4567 -101.06881,1351.4567 -103.83023,1351.4567 -106.06881,1349.2181 -106.06881,1346.4567 -106.06881,1343.6952 -103.83023,1341.4567 -101.06881,1341.4567 -98.307386,1341.4567 -96.06881,1343.6952 -96.06881,1346.4567 z" />
      <text style="font-size:25; vertical-align:top; fill-opacity:1.0; fill:gray; text-anchor:right; stroke:none; font-weight:normal; font-style:italic; text-align:right; " transform="" id="B.BWC.outpoint.text" y="1339.45669291" x="-94.0688071544">
BWC.out</text>
      <circle style="stroke:red; stroke-width:1; fill:red; " transform="" cy="1346.45669291" cx="0.0" r="5" id="B.BWC" d="M 5,1346.4567 C 5,1349.2181 2.7614237,1351.4567 0,1351.4567 -2.7614237,1351.4567 -5,1349.2181 -5,1346.4567 -5,1343.6952 -2.7614237,1341.4567 0,1341.4567 2.7614237,1341.4567 5,1343.6952 5,1346.4567 z" />
      <text style="font-size:30; vertical-align:top; fill-opacity:1.0; fill:darkblue; text-anchor:right; stroke:none; font-weight:normal; font-style:italic; text-align:right; " transform="" id="B.BWC.text" y="1339.45669291" x="7.0">
BWC</text>
      <circle style="stroke:red; stroke-width:1; fill:red; " transform="" cy="-141.732283465" cx="0.0" r="5" id="B.BSH" d="M 5,-141.73228 C 5,-138.97086 2.7614237,-136.73228 0,-136.73228 -2.7614237,-136.73228 -5,-138.97086 -5,-141.73228 -5,-144.49371 -2.7614237,-146.73228 0,-146.73228 2.7614237,-146.73228 5,-144.49371 5,-141.73228 z" />
      <text style="font-size:30; vertical-align:top; fill-opacity:1.0; fill:darkblue; text-anchor:right; stroke:none; font-weight:normal; font-style:italic; text-align:right; " transform="" id="B.BSH.text" y="-148.732283465" x="7.0">
BSH</text>
      <circle style="stroke:red; stroke-width:1; fill:red; " transform="" cy="-141.732283465" cx="-708.661417323" r="5" id="B.BSW" d="M -703.66144,-141.73228 C -703.66144,-138.97086 -705.90001,-136.73228 -708.66144,-136.73228 -711.42286,-136.73228 -713.66144,-138.97086 -713.66144,-141.73228 -713.66144,-144.49371 -711.42286,-146.73228 -708.66144,-146.73228 -705.90001,-146.73228 -703.66144,-144.49371 -703.66144,-141.73228 z" />
      <text style="font-size:30; vertical-align:top; fill-opacity:1.0; fill:darkblue; text-anchor:right; stroke:none; font-weight:normal; font-style:italic; text-align:right; " transform="" id="B.BSW.text" y="-148.732283465" x="-701.661417323">
BSW</text>
      <circle style="stroke:gray; stroke-width:1; fill:none; " transform="" cy="121.148427062" cx="-673.392103074" r="5" id="B.BSP.inpoint" d="M -668.39209,121.14843 C -668.39209,123.90985 -670.63067,126.14843 -673.39209,126.14843 -676.15351,126.14843 -678.39209,123.90985 -678.39209,121.14843 -678.39209,118.38701 -676.15351,116.14843 -673.39209,116.14843 -670.63067,116.14843 -668.39209,118.38701 -668.39209,121.14843 z" />
      <text style="font-size:25; vertical-align:top; fill-opacity:1.0; fill:gray; text-anchor:right; stroke:none; font-weight:normal; font-style:italic; text-align:right; " transform="" id="B.BSP.inpoint.text" y="114.148427062" x="-666.392103074">
BSP.in</text>
      <circle style="stroke:red; stroke-width:1; fill:red; " transform="" cy="37.8293872947" cx="-708.661417323" r="5" id="B.BSP" d="M -703.66144,37.829388 C -703.66144,40.590811 -705.90001,42.829388 -708.66144,42.829388 -711.42286,42.829388 -713.66144,40.590811 -713.66144,37.829388 -713.66144,35.067964 -711.42286,32.829388 -708.66144,32.829388 -705.90001,32.829388 -703.66144,35.067964 -703.66144,37.829388 z" />
      <text style="font-size:30; vertical-align:top; fill-opacity:1.0; fill:darkblue; text-anchor:right; stroke:none; font-weight:normal; font-style:italic; text-align:right; " transform="" id="B.BSP.text" y="30.8293872947" x="-701.661417323">
BSP</text>
      <circle style="stroke:gray; stroke-width:1; fill:none; " transform="" cy="-78.3927191927" cx="-252.688753608" r="5" id="B.BNS.outpoint" d="M -247.68875,-78.392715 C -247.68875,-75.631292 -249.92733,-73.392715 -252.68875,-73.392715 -255.45017,-73.392715 -257.68875,-75.631292 -257.68875,-78.392715 -257.68875,-81.154139 -255.45017,-83.392715 -252.68875,-83.392715 -249.92733,-83.392715 -247.68875,-81.154139 -247.68875,-78.392715 z" />
      <text style="font-size:25; vertical-align:top; fill-opacity:1.0; fill:gray; text-anchor:right; stroke:none; font-weight:normal; font-style:italic; text-align:right; " transform="" id="B.BNS.outpoint.text" y="-85.3927191927" x="-245.688753608">
BNS.out</text>
      <circle style="stroke:red; stroke-width:1; fill:red; " transform="" cy="-141.732283465" cx="-284.470975712" r="5" id="B.BNS" d="M -279.47098,-141.73228 C -279.47098,-138.97086 -281.70955,-136.73228 -284.47098,-136.73228 -287.2324,-136.73228 -289.47098,-138.97086 -289.47098,-141.73228 -289.47098,-144.49371 -287.2324,-146.73228 -284.47098,-146.73228 -281.70955,-146.73228 -279.47098,-144.49371 -279.47098,-141.73228 z" />
      <text style="font-size:30; vertical-align:top; fill-opacity:1.0; fill:darkblue; text-anchor:right; stroke:none; font-weight:normal; font-style:italic; text-align:right; " transform="" id="B.BNS.text" y="-148.732283465" x="-277.470975712">
BNS</text>
      <circle style="stroke:red; stroke-width:1; fill:red; " transform="" cy="637.795275591" cx="0.0" r="5" id="B.BUC" d="M 5,637.79529 C 5,640.55671 2.7614237,642.79529 0,642.79529 -2.7614237,642.79529 -5,640.55671 -5,637.79529 -5,635.03386 -2.7614237,632.79529 0,632.79529 2.7614237,632.79529 5,635.03386 5,637.79529 z" />
      <text style="font-size:30; vertical-align:top; fill-opacity:1.0; fill:darkblue; text-anchor:right; stroke:none; font-weight:normal; font-style:italic; text-align:right; " transform="" id="B.BUC.text" y="630.795275591" x="7.0">
BUC</text>
      <circle style="stroke:gray; stroke-width:1; fill:none; " transform="" cy="710.50546206" cx="-680.281055407" r="5" id="B.BAP.inpoint" d="M -675.28107,710.50543 C -675.28107,713.26686 -677.51964,715.50543 -680.28107,715.50543 -683.04249,715.50543 -685.28107,713.26686 -685.28107,710.50543 -685.28107,707.74401 -683.04249,705.50543 -680.28107,705.50543 -677.51964,705.50543 -675.28107,707.74401 -675.28107,710.50543 z" />
      <text style="font-size:25; vertical-align:top; fill-opacity:1.0; fill:gray; text-anchor:right; stroke:none; font-weight:normal; font-style:italic; text-align:right; " transform="" id="B.BAP.inpoint.text" y="703.50546206" x="-673.281055407">
BAP.in</text>
      <circle style="stroke:gray; stroke-width:1; fill:none; " transform="" cy="457.267173678" cx="-562.668021212" r="5" id="B.BAP.outpoint" d="M -557.66803,457.26718 C -557.66803,460.02861 -559.90661,462.26718 -562.66803,462.26718 -565.42945,462.26718 -567.66803,460.02861 -567.66803,457.26718 -567.66803,454.50576 -565.42945,452.26718 -562.66803,452.26718 -559.90661,452.26718 -557.66803,454.50576 -557.66803,457.26718 z" />
      <text style="font-size:25; vertical-align:top; fill-opacity:1.0; fill:gray; text-anchor:right; stroke:none; font-weight:normal; font-style:italic; text-align:right; " transform="" id="B.BAP.outpoint.text" y="450.267173678" x="-555.668021212">
BAP.out</text>
      <circle style="stroke:red; stroke-width:1; fill:red; " transform="" cy="637.795275591" cx="-646.511811024" r="5" id="B.BAP" d="M -641.51184,637.79529 C -641.51184,640.55671 -643.75042,642.79529 -646.51184,642.79529 -649.27326,642.79529 -651.51184,640.55671 -651.51184,637.79529 -651.51184,635.03386 -649.27326,632.79529 -646.51184,632.79529 -643.75042,632.79529 -641.51184,635.03386 -641.51184,637.79529 z" />
      <text style="font-size:30; vertical-align:top; fill-opacity:1.0; fill:darkblue; text-anchor:right; stroke:none; font-weight:normal; font-style:italic; text-align:right; " transform="" id="B.BAP.text" y="630.795275591" x="-639.511811024">
BAP</text>
      <circle style="stroke:red; stroke-width:1; fill:red; " transform="" cy="637.795275591" cx="-956.409448819" r="5" id="B.b1" d="M -951.40942,637.79529 C -951.40942,640.55671 -953.648,642.79529 -956.40942,642.79529 -959.17085,642.79529 -961.40942,640.55671 -961.40942,637.79529 -961.40942,635.03386 -959.17085,632.79529 -956.40942,632.79529 -953.648,632.79529 -951.40942,635.03386 -951.40942,637.79529 z" />
      <text style="font-size:30; vertical-align:top; fill-opacity:1.0; fill:darkblue; text-anchor:right; stroke:none; font-weight:normal; font-style:italic; text-align:right; " transform="" id="B.b1.text" y="630.795275591" x="-949.409448819">
b1</text>
      <circle style="stroke:red; stroke-width:1; fill:red; " transform="" cy="637.795275591" cx="-383.761673202" r="5" id="B.BD1" d="M -378.76169,637.79529 C -378.76169,640.55671 -381.00026,642.79529 -383.76169,642.79529 -386.52311,642.79529 -388.76169,640.55671 -388.76169,637.79529 -388.76169,635.03386 -386.52311,632.79529 -383.76169,632.79529 -381.00026,632.79529 -378.76169,635.03386 -378.76169,637.79529 z" />
      <text style="font-size:30; vertical-align:top; fill-opacity:1.0; fill:darkblue; text-anchor:right; stroke:none; font-weight:normal; font-style:italic; text-align:right; " transform="" id="B.BD1.text" y="630.795275591" x="-376.761673202">
BD1</text>
      <circle style="stroke:red; stroke-width:1; fill:red; " transform="" cy="1346.45669291" cx="-383.761673202" r="5" id="B.b2" d="M -378.76169,1346.4567 C -378.76169,1349.2181 -381.00026,1351.4567 -383.76169,1351.4567 -386.52311,1351.4567 -388.76169,1349.2181 -388.76169,1346.4567 -388.76169,1343.6952 -386.52311,1341.4567 -383.76169,1341.4567 -381.00026,1341.4567 -378.76169,1343.6952 -378.76169,1346.4567 z" />
      <text style="font-size:30; vertical-align:top; fill-opacity:1.0; fill:darkblue; text-anchor:right; stroke:none; font-weight:normal; font-style:italic; text-align:right; " transform="" id="B.b2.text" y="1339.45669291" x="-376.761673202">
b2</text>
      <circle style="stroke:red; stroke-width:1; fill:red; " transform="" cy="1346.45669291" cx="-307.009338562" r="5" id="B.b3" d="M -302.00934,1346.4567 C -302.00934,1349.2181 -304.24791,1351.4567 -307.00934,1351.4567 -309.77076,1351.4567 -312.00934,1349.2181 -312.00934,1346.4567 -312.00934,1343.6952 -309.77076,1341.4567 -307.00934,1341.4567 -304.24791,1341.4567 -302.00934,1343.6952 -302.00934,1346.4567 z" />
      <text style="font-size:30; vertical-align:top; fill-opacity:1.0; fill:darkblue; text-anchor:right; stroke:none; font-weight:normal; font-style:italic; text-align:right; " transform="" id="B.b3.text" y="1339.45669291" x="-300.009338562">
b3</text>
      <circle style="stroke:red; stroke-width:1; fill:red; " transform="" cy="1346.45669291" cx="-460.514007842" r="5" id="B.b4" d="M -455.51401,1346.4567 C -455.51401,1349.2181 -457.75258,1351.4567 -460.51401,1351.4567 -463.27543,1351.4567 -465.51401,1349.2181 -465.51401,1346.4567 -465.51401,1343.6952 -463.27543,1341.4567 -460.51401,1341.4567 -457.75258,1341.4567 -455.51401,1343.6952 -455.51401,1346.4567 z" />
      <text style="font-size:30; vertical-align:top; fill-opacity:1.0; fill:darkblue; text-anchor:right; stroke:none; font-weight:normal; font-style:italic; text-align:right; " transform="" id="B.b4.text" y="1339.45669291" x="-453.514007842">
b4</text>
      <circle style="stroke:gray; stroke-width:1; fill:none; " transform="" cy="1346.45669291" cx="-234.734496712" r="5" id="B.BD1.i.inpoint" d="M -229.7345,1346.4567 C -229.7345,1349.2181 -231.97307,1351.4567 -234.7345,1351.4567 -237.49592,1351.4567 -239.7345,1349.2181 -239.7345,1346.4567 -239.7345,1343.6952 -237.49592,1341.4567 -234.7345,1341.4567 -231.97307,1341.4567 -229.7345,1343.6952 -229.7345,1346.4567 z" />
      <text style="font-size:25; vertical-align:top; fill-opacity:1.0; fill:gray; text-anchor:right; stroke:none; font-weight:normal; font-style:italic; text-align:right; " transform="" id="B.BD1.i.inpoint.text" y="1339.45669291" x="-227.734496712">
BD1.i.in</text>
      <circle style="stroke:red; stroke-width:1; fill:red; " transform="" cy="1354.19374" cx="-306.171369381" r="5" id="B.BD1.i" d="M -301.17136,1354.1937 C -301.17136,1356.9551 -303.40993,1359.1937 -306.17136,1359.1937 -308.93278,1359.1937 -311.17136,1356.9551 -311.17136,1354.1937 -311.17136,1351.4323 -308.93278,1349.1937 -306.17136,1349.1937 -303.40993,1349.1937 -301.17136,1351.4323 -301.17136,1354.1937 z" />
      <text style="font-size:30; vertical-align:top; fill-opacity:1.0; fill:darkblue; text-anchor:right; stroke:none; font-weight:normal; font-style:italic; text-align:right; " transform="" id="B.BD1.i.text" y="1347.19374" x="-299.171369381">
BD1.i</text>
      <circle style="stroke:gray; stroke-width:1; fill:none; " transform="" cy="1345.35863191" cx="-542.927348657" r="5" id="B.BD1.o.outpoint" d="M -537.92737,1345.3586 C -537.92737,1348.1201 -540.16594,1350.3586 -542.92737,1350.3586 -545.68879,1350.3586 -547.92737,1348.1201 -547.92737,1345.3586 -547.92737,1342.5972 -545.68879,1340.3586 -542.92737,1340.3586 -540.16594,1340.3586 -537.92737,1342.5972 -537.92737,1345.3586 z" />
      <text style="font-size:25; vertical-align:top; fill-opacity:1.0; fill:gray; text-anchor:right; stroke:none; font-weight:normal; font-style:italic; text-align:right; " transform="" id="B.BD1.o.outpoint.text" y="1338.35863191" x="-535.927348657">
BD1.o.out</text>
      <circle style="stroke:red; stroke-width:1; fill:red; " transform="" cy="1354.19374" cx="-461.351977023" r="5" id="B.BD1.o" d="M -456.35199,1354.1937 C -456.35199,1356.9551 -458.59057,1359.1937 -461.35199,1359.1937 -464.11341,1359.1937 -466.35199,1356.9551 -466.35199,1354.1937 -466.35199,1351.4323 -464.11341,1349.1937 -461.35199,1349.1937 -458.59057,1349.1937 -456.35199,1351.4323 -456.35199,1354.1937 z" />
      <text style="font-size:30; vertical-align:top; fill-opacity:1.0; fill:darkblue; text-anchor:right; stroke:none; font-weight:normal; font-style:italic; text-align:right; " transform="" id="B.BD1.o.text" y="1347.19374" x="-454.351977023">
BD1.o</text>
      <circle style="stroke:gray; stroke-width:1; fill:none; " transform="" cy="1342.80926806" cx="-734.266073545" r="5" id="B.BWS.inpoint" d="M -729.26605,1342.8093 C -729.26605,1345.5707 -731.50463,1347.8093 -734.26605,1347.8093 -737.02748,1347.8093 -739.26605,1345.5707 -739.26605,1342.8093 -739.26605,1340.0479 -737.02748,1337.8093 -734.26605,1337.8093 -731.50463,1337.8093 -729.26605,1340.0479 -729.26605,1342.8093 z" />
      <text style="font-size:25; vertical-align:top; fill-opacity:1.0; fill:gray; text-anchor:right; stroke:none; font-weight:normal; font-style:italic; text-align:right; " transform="" id="B.BWS.inpoint.text" y="1335.80926806" x="-727.266073545">
BWS.in</text>
      <circle style="stroke:red; stroke-width:1; fill:red; " transform="" cy="1341.01711386" cx="-868.773550997" r="5" id="B.BWS" d="M -863.77356,1341.0171 C -863.77356,1343.7785 -866.01214,1346.0171 -868.77356,1346.0171 -871.53498,1346.0171 -873.77356,1343.7785 -873.77356,1341.0171 -873.77356,1338.2557 -871.53498,1336.0171 -868.77356,1336.0171 -866.01214,1336.0171 -863.77356,1338.2557 -863.77356,1341.0171 z" />
      <text style="font-size:30; vertical-align:top; fill-opacity:1.0; fill:darkblue; text-anchor:right; stroke:none; font-weight:normal; font-style:italic; text-align:right; " transform="" id="B.BWS.text" y="1334.01711386" x="-861.773550997">
BWS</text>
      <circle style="stroke:gray; stroke-width:1; fill:none; " transform="" cy="731.168354085" cx="-846.087503167" r="5" id="B.BUS.outpoint" d="M -841.08752,731.16833 C -841.08752,733.92976 -843.3261,736.16833 -846.08752,736.16833 -848.84895,736.16833 -851.08752,733.92976 -851.08752,731.16833 -851.08752,728.40691 -848.84895,726.16833 -846.08752,726.16833 -843.3261,726.16833 -841.08752,728.40691 -841.08752,731.16833 z" />
      <text style="font-size:25; vertical-align:top; fill-opacity:1.0; fill:gray; text-anchor:right; stroke:none; font-weight:normal; font-style:italic; text-align:right; " transform="" id="B.BUS.outpoint.text" y="724.168354085" x="-839.087503167">
BUS.out</text>
      <circle style="stroke:red; stroke-width:1; fill:red; " transform="" cy="743.278551331" cx="-943.264064146" r="5" id="B.BUS" d="M -938.26404,743.27856 C -938.26404,746.03999 -940.50261,748.27856 -943.26404,748.27856 -946.02546,748.27856 -948.26404,746.03999 -948.26404,743.27856 -948.26404,740.51714 -946.02546,738.27856 -943.26404,738.27856 -940.50261,738.27856 -938.26404,740.51714 -938.26404,743.27856 z" />
      <text style="font-size:30; vertical-align:top; fill-opacity:1.0; fill:darkblue; text-anchor:right; stroke:none; font-weight:normal; font-style:italic; text-align:right; " transform="" id="B.BUS.text" y="736.278551331" x="-936.264064146">
BUS</text>
      <circle style="stroke:red; stroke-width:1; fill:red; " transform="" cy="139.993979033" cx="-415.314857008" r="5" id="B.BD2" d="M -410.31485,139.99397 C -410.31485,142.7554 -412.55343,144.99397 -415.31485,144.99397 -418.07627,144.99397 -420.31485,142.7554 -420.31485,139.99397 -420.31485,137.23255 -418.07627,134.99397 -415.31485,134.99397 -412.55343,134.99397 -410.31485,137.23255 -410.31485,139.99397 z" />
      <text style="font-size:30; vertical-align:top; fill-opacity:1.0; fill:darkblue; text-anchor:right; stroke:none; font-weight:normal; font-style:italic; text-align:right; " transform="" id="B.BD2.text" y="132.993979033" x="-408.314857008">
BD2</text>
      <circle style="stroke:red; stroke-width:1; fill:red; " transform="" cy="-66.7825907043" cx="-502.844284109" r="5" id="B.BD2.i" d="M -497.8443,-66.782593 C -497.8443,-64.021169 -500.08288,-61.782593 -502.8443,-61.782593 -505.60572,-61.782593 -507.8443,-64.021169 -507.8443,-66.782593 -507.8443,-69.544017 -505.60572,-71.782593 -502.8443,-71.782593 -500.08288,-71.782593 -497.8443,-69.544017 -497.8443,-66.782593 z" />
      <text style="font-size:30; vertical-align:top; fill-opacity:1.0; fill:darkblue; text-anchor:right; stroke:none; font-weight:normal; font-style:italic; text-align:right; " transform="" id="B.BD2.i.text" y="-73.7825907043" x="-495.844284109">
BD2.i</text>
      <circle style="stroke:red; stroke-width:1; fill:red; " transform="" cy="-52.5885135469" cx="-530.770190158" r="5" id="B.BD2.o" d="M -525.7702,-52.588512 C -525.7702,-49.827089 -528.00878,-47.588512 -530.7702,-47.588512 -533.53163,-47.588512 -535.7702,-49.827089 -535.7702,-52.588512 -535.7702,-55.349936 -533.53163,-57.588512 -530.7702,-57.588512 -528.00878,-57.588512 -525.7702,-55.349936 -525.7702,-52.588512 z" />
      <text style="font-size:30; vertical-align:top; fill-opacity:1.0; fill:darkblue; text-anchor:right; stroke:none; font-weight:normal; font-style:italic; text-align:right; " transform="" id="B.BD2.o.text" y="-59.5885135469" x="-523.770190158">
BD2.o</text>
      <path style="stroke-linejoin:miter; stroke-dashoffset:0; stroke:gray; stroke-miterlimit:4; stroke-dasharray:6,6; stroke-width:2; fill:none; " transform="" d="M 0.0  1346.45669291 L -708.661417323  37.8293872947 L -708.661417323  -141.732283465 L 0.0  -141.732283465 L 0.0  637.795275591 L -956.409448819  637.795275591 L -943.264064146  743.278551331 " id="B.gridline" />
    </g>
    <g id="document.bodice.Bodice Sleeve.reference" transform=" translate(931.900535, 2240.302270)">
      <circle style="stroke:gray; stroke-width:1; fill:none; " transform="" cy="0.0" cx="95.6010144499" r="5" id="C.SCM.inpoint" d="M 100.60101,0 C 100.60101,2.7614237 98.362437,5 95.601013,5 92.839589,5 90.601013,2.7614237 90.601013,0 90.601013,-2.7614237 92.839589,-5 95.601013,-5 98.362437,-5 100.60101,-2.7614237 100.60101,0 z" />
      <text style="font-size:25; vertical-align:top; fill-opacity:1.0; fill:gray; text-anchor:right; stroke:none; font-weight:normal; font-style:italic; text-align:right; " transform="" id="C.SCM.inpoint.text" y="-7.0" x="102.60101445">
SCM.in</text>
      <circle style="stroke:gray; stroke-width:1; fill:none; " transform="" cy="0.0" cx="-92.6965860756" r="5" id="C.SCM.outpoint" d="M -87.696587,0 C -87.696587,2.7614237 -89.935163,5 -92.696587,5 -95.45801,5 -97.696587,2.7614237 -97.696587,0 -97.696587,-2.7614237 -95.45801,-5 -92.696587,-5 -89.935163,-5 -87.696587,-2.7614237 -87.696587,0 z" />
      <text style="font-size:25; vertical-align:top; fill-opacity:1.0; fill:gray; text-anchor:right; stroke:none; font-weight:normal; font-style:italic; text-align:right; " transform="" id="C.SCM.outpoint.text" y="-7.0" x="-85.6965860756">
SCM.out</text>
      <circle style="stroke:red; stroke-width:1; fill:red; " transform="" cy="0.0" cx="0.0" r="5" id="C.SCM" d="M 5,0 C 5,2.7614237 2.7614237,5 0,5 -2.7614237,5 -5,2.7614237 -5,0 -5,-2.7614237 -2.7614237,-5 0,-5 2.7614237,-5 5,-2.7614237 5,0 z" />
      <text style="font-size:30; vertical-align:top; fill-opacity:1.0; fill:darkblue; text-anchor:right; stroke:none; font-weight:normal; font-style:italic; text-align:right; " transform="" id="C.SCM.text" y="-7.0" x="7.0">
SCM</text>
      <circle style="stroke:red; stroke-width:1; fill:red; " transform="" cy="631.411380192" cx="0.0" r="5" id="C.SUM" d="M 5,631.41138 C 5,634.1728 2.7614237,636.41138 0,636.41138 -2.7614237,636.41138 -5,634.1728 -5,631.41138 -5,628.64995 -2.7614237,626.41138 0,626.41138 2.7614237,626.41138 5,628.64995 5,631.41138 z" />
      <text style="font-size:30; vertical-align:top; fill-opacity:1.0; fill:darkblue; text-anchor:right; stroke:none; font-weight:normal; font-style:italic; text-align:right; " transform="" id="C.SUM.text" y="624.411380192" x="7.0">
SUM</text>
      <circle style="stroke:red; stroke-width:1; fill:red; " transform="" cy="2374.01574803" cx="0.0" r="5" id="C.SWM" d="M 5,2374.0159 C 5,2376.7773 2.7614237,2379.0159 0,2379.0159 -2.7614237,2379.0159 -5,2376.7773 -5,2374.0159 -5,2371.2544 -2.7614237,2369.0159 0,2369.0159 2.7614237,2369.0159 5,2371.2544 5,2374.0159 z" />
      <text style="font-size:30; vertical-align:top; fill-opacity:1.0; fill:darkblue; text-anchor:right; stroke:none; font-weight:normal; font-style:italic; text-align:right; " transform="" id="C.SWM.text" y="2367.01574803" x="7.0">
SWM</text>
      <circle style="stroke:red; stroke-width:1; fill:red; " transform="" cy="1502.71356411" cx="0.0" r="5" id="C.SEM" d="M 5,1502.7136 C 5,1505.475 2.7614237,1507.7136 0,1507.7136 -2.7614237,1507.7136 -5,1505.475 -5,1502.7136 -5,1499.9522 -2.7614237,1497.7136 0,1497.7136 2.7614237,1497.7136 5,1499.9522 5,1502.7136 z" />
      <text style="font-size:30; vertical-align:top; fill-opacity:1.0; fill:darkblue; text-anchor:right; stroke:none; font-weight:normal; font-style:italic; text-align:right; " transform="" id="C.SEM.text" y="1495.71356411" x="7.0">
SEM</text>
      <circle style="stroke:gray; stroke-width:1; fill:none; " transform="" cy="582.076310819" cx="849.819294955" r="5" id="C.SUB.outpoint" d="M 854.81927,582.07629 C 854.81927,584.83772 852.5807,587.07629 849.81927,587.07629 847.05785,587.07629 844.81927,584.83772 844.81927,582.07629 844.81927,579.31487 847.05785,577.07629 849.81927,577.07629 852.5807,577.07629 854.81927,579.31487 854.81927,582.07629 z" />
      <text style="font-size:25; vertical-align:top; fill-opacity:1.0; fill:gray; text-anchor:right; stroke:none; font-weight:normal; font-style:italic; text-align:right; " transform="" id="C.SUB.outpoint.text" y="575.076310819" x="856.819294955">
SUB.out</text>
      <circle style="stroke:red; stroke-width:1; fill:red; " transform="" cy="631.411380192" cx="929.400534855" r="5" id="C.SUB" d="M 934.40051,631.41138 C 934.40051,634.1728 932.16194,636.41138 929.40051,636.41138 926.63909,636.41138 924.40051,634.1728 924.40051,631.41138 924.40051,628.64995 926.63909,626.41138 929.40051,626.41138 932.16194,626.41138 934.40051,628.64995 934.40051,631.41138 z" />
      <text style="font-size:30; vertical-align:top; fill-opacity:1.0; fill:darkblue; text-anchor:right; stroke:none; font-weight:normal; font-style:italic; text-align:right; " transform="" id="C.SUB.text" y="624.411380192" x="936.400534855">
SUB</text>
      <circle style="stroke:gray; stroke-width:1; fill:none; " transform="" cy="595.646568608" cx="-842.064967384" r="5" id="C.SUF.inpoint" d="M -837.06494,595.64655 C -837.06494,598.40797 -839.30352,600.64655 -842.06494,600.64655 -844.82637,600.64655 -847.06494,598.40797 -847.06494,595.64655 -847.06494,592.88512 -844.82637,590.64655 -842.06494,590.64655 -839.30352,590.64655 -837.06494,592.88512 -837.06494,595.64655 z" />
      <text style="font-size:25; vertical-align:top; fill-opacity:1.0; fill:gray; text-anchor:right; stroke:none; font-weight:normal; font-style:italic; text-align:right; " transform="" id="C.SUF.inpoint.text" y="588.646568608" x="-835.064967384">
SUF.in</text>
      <circle style="stroke:gray; stroke-width:1; fill:none; " transform="" cy="899.392048828" cx="-761.765164739" r="5" id="C.SUF.outpoint" d="M -756.76514,899.39203 C -756.76514,902.15345 -759.00371,904.39203 -761.76514,904.39203 -764.52656,904.39203 -766.76514,902.15345 -766.76514,899.39203 -766.76514,896.63061 -764.52656,894.39203 -761.76514,894.39203 -759.00371,894.39203 -756.76514,896.63061 -756.76514,899.39203 z" />
      <text style="font-size:25; vertical-align:top; fill-opacity:1.0; fill:gray; text-anchor:right; stroke:none; font-weight:normal; font-style:italic; text-align:right; " transform="" id="C.SUF.outpoint.text" y="892.392048828" x="-754.765164739">
SUF.out</text>
      <circle style="stroke:red; stroke-width:1; fill:red; " transform="" cy="631.411380192" cx="-929.400534855" r="5" id="C.SUF" d="M -924.40051,631.41138 C -924.40051,634.1728 -926.63909,636.41138 -929.40051,636.41138 -932.16194,636.41138 -934.40051,634.1728 -934.40051,631.41138 -934.40051,628.64995 -932.16194,626.41138 -929.40051,626.41138 -926.63909,626.41138 -924.40051,628.64995 -924.40051,631.41138 z" />
      <text style="font-size:30; vertical-align:top; fill-opacity:1.0; fill:darkblue; text-anchor:right; stroke:none; font-weight:normal; font-style:italic; text-align:right; " transform="" id="C.SUF.text" y="624.411380192" x="-922.400534855">
SUF</text>
      <circle style="stroke:red; stroke-width:1; fill:red; " transform="" cy="1502.71356411" cx="690.94488189" r="5" id="C.SEB" d="M 695.94489,1502.7136 C 695.94489,1505.475 693.70631,1507.7136 690.94489,1507.7136 688.18346,1507.7136 685.94489,1505.475 685.94489,1502.7136 685.94489,1499.9522 688.18346,1497.7136 690.94489,1497.7136 693.70631,1497.7136 695.94489,1499.9522 695.94489,1502.7136 z" />
      <text style="font-size:30; vertical-align:top; fill-opacity:1.0; fill:darkblue; text-anchor:right; stroke:none; font-weight:normal; font-style:italic; text-align:right; " transform="" id="C.SEB.text" y="1495.71356411" x="697.94488189">
SEB</text>
      <circle style="stroke:gray; stroke-width:1; fill:none; " transform="" cy="1190.32780796" cx="-579.77023238" r="5" id="C.SEF.inpoint" d="M -574.7702,1190.3278 C -574.7702,1193.0892 -577.00878,1195.3278 -579.7702,1195.3278 -582.53163,1195.3278 -584.7702,1193.0892 -584.7702,1190.3278 -584.7702,1187.5663 -582.53163,1185.3278 -579.7702,1185.3278 -577.00878,1185.3278 -574.7702,1187.5663 -574.7702,1190.3278 z" />
      <text style="font-size:25; vertical-align:top; fill-opacity:1.0; fill:gray; text-anchor:right; stroke:none; font-weight:normal; font-style:italic; text-align:right; " transform="" id="C.SEF.inpoint.text" y="1183.32780796" x="-572.77023238">
SEF.in</text>
      <circle style="stroke:red; stroke-width:1; fill:red; " transform="" cy="1502.71356411" cx="-531.496062992" r="5" id="C.SEF" d="M -526.49603,1502.7136 C -526.49603,1505.475 -528.73461,1507.7136 -531.49603,1507.7136 -534.25746,1507.7136 -536.49603,1505.475 -536.49603,1502.7136 -536.49603,1499.9522 -534.25746,1497.7136 -531.49603,1497.7136 -528.73461,1497.7136 -526.49603,1499.9522 -526.49603,1502.7136 z" />
      <text style="font-size:30; vertical-align:top; fill-opacity:1.0; fill:darkblue; text-anchor:right; stroke:none; font-weight:normal; font-style:italic; text-align:right; " transform="" id="C.SEF.text" y="1495.71356411" x="-524.496062992">
SEF</text>
      <circle style="stroke:gray; stroke-width:1; fill:none; " transform="" cy="532.481294483" cx="769.818740726" r="5" id="C.s1.inpoint" d="M 774.81873,532.48132 C 774.81873,535.24275 772.58015,537.48132 769.81873,537.48132 767.0573,537.48132 764.81873,535.24275 764.81873,532.48132 764.81873,529.7199 767.0573,527.48132 769.81873,527.48132 772.58015,527.48132 774.81873,529.7199 774.81873,532.48132 z" />
      <text style="font-size:25; vertical-align:top; fill-opacity:1.0; fill:gray; text-anchor:right; stroke:none; font-weight:normal; font-style:italic; text-align:right; " transform="" id="C.s1.inpoint.text" y="525.481294483" x="776.818740726">
s1.in</text>
      <circle style="stroke:gray; stroke-width:1; fill:none; " transform="" cy="354.779152358" cx="550.360419898" r="5" id="C.s1.outpoint" d="M 555.36041,354.77914 C 555.36041,357.54057 553.12184,359.77914 550.36041,359.77914 547.59899,359.77914 545.36041,357.54057 545.36041,354.77914 545.36041,352.01772 547.59899,349.77914 550.36041,349.77914 553.12184,349.77914 555.36041,352.01772 555.36041,354.77914 z" />
      <text style="font-size:25; vertical-align:top; fill-opacity:1.0; fill:gray; text-anchor:right; stroke:none; font-weight:normal; font-style:italic; text-align:right; " transform="" id="C.s1.outpoint.text" y="347.779152358" x="557.360419898">
s1.out</text>
      <circle style="stroke:red; stroke-width:1; fill:red; " transform="" cy="473.558535144" cx="697.050401141" r="5" id="C.s1" d="M 702.05042,473.55853 C 702.05042,476.31996 699.81184,478.55853 697.05042,478.55853 694.28899,478.55853 692.05042,476.31996 692.05042,473.55853 692.05042,470.79711 694.28899,468.55853 697.05042,468.55853 699.81184,468.55853 702.05042,470.79711 702.05042,473.55853 z" />
      <text style="font-size:30; vertical-align:top; fill-opacity:1.0; fill:darkblue; text-anchor:right; stroke:none; font-weight:normal; font-style:italic; text-align:right; " transform="" id="C.s1.text" y="466.558535144" x="704.050401141">
s1</text>
      <circle style="stroke:red; stroke-width:1; fill:red; " transform="" cy="157.852845048" cx="232.350133714" r="5" id="C.s2" d="M 237.35013,157.85284 C 237.35013,160.61427 235.11155,162.85284 232.35013,162.85284 229.5887,162.85284 227.35013,160.61427 227.35013,157.85284 227.35013,155.09142 229.5887,152.85284 232.35013,152.85284 235.11155,152.85284 237.35013,155.09142 237.35013,157.85284 z" />
      <text style="font-size:30; vertical-align:top; fill-opacity:1.0; fill:darkblue; text-anchor:right; stroke:none; font-weight:normal; font-style:italic; text-align:right; " transform="" id="C.s2.text" y="150.852845048" x="239.350133714">
s2</text>
      <circle style="stroke:gray; stroke-width:1; fill:none; " transform="" cy="205.30388524" cx="428.301406231" r="5" id="C.s3.inpoint" d="M 433.30139,205.30388 C 433.30139,208.0653 431.06282,210.30388 428.30139,210.30388 425.53997,210.30388 423.30139,208.0653 423.30139,205.30388 423.30139,202.54246 425.53997,200.30388 428.30139,200.30388 431.06282,200.30388 433.30139,202.54246 433.30139,205.30388 z" />
      <text style="font-size:25; vertical-align:top; fill-opacity:1.0; fill:gray; text-anchor:right; stroke:none; font-weight:normal; font-style:italic; text-align:right; " transform="" id="C.s3.inpoint.text" y="198.30388524" x="435.301406231">
s3.in</text>
      <circle style="stroke:gray; stroke-width:1; fill:none; " transform="" cy="44.9684574576" cx="192.297056274" r="5" id="C.s3.outpoint" d="M 197.29706,44.968456 C 197.29706,47.72988 195.05848,49.968456 192.29706,49.968456 189.53563,49.968456 187.29706,47.72988 187.29706,44.968456 187.29706,42.207033 189.53563,39.968456 192.29706,39.968456 195.05848,39.968456 197.29706,42.207033 197.29706,44.968456 z" />
      <text style="font-size:25; vertical-align:top; fill-opacity:1.0; fill:gray; text-anchor:right; stroke:none; font-weight:normal; font-style:italic; text-align:right; " transform="" id="C.s3.outpoint.text" y="37.9684574576" x="199.297056274">
s3.out</text>
      <circle style="stroke:red; stroke-width:1; fill:red; " transform="" cy="99.2347210432" cx="272.173814887" r="5" id="C.s3" d="M 277.17383,99.234718 C 277.17383,101.99614 274.93525,104.23472 272.17383,104.23472 269.4124,104.23472 267.17383,101.99614 267.17383,99.234718 267.17383,96.473295 269.4124,94.234718 272.17383,94.234718 274.93525,94.234718 277.17383,96.473295 277.17383,99.234718 z" />
      <text style="font-size:30; vertical-align:top; fill-opacity:1.0; fill:darkblue; text-anchor:right; stroke:none; font-weight:normal; font-style:italic; text-align:right; " transform="" id="C.s3.text" y="92.2347210432" x="279.173814887">
s3</text>
      <circle style="stroke:red; stroke-width:1; fill:red; " transform="" cy="157.852845048" cx="-232.350133714" r="5" id="C.s4" d="M -227.35013,157.85284 C -227.35013,160.61427 -229.5887,162.85284 -232.35013,162.85284 -235.11155,162.85284 -237.35013,160.61427 -237.35013,157.85284 -237.35013,155.09142 -235.11155,152.85284 -232.35013,152.85284 -229.5887,152.85284 -227.35013,155.09142 -227.35013,157.85284 z" />
      <text style="font-size:30; vertical-align:top; fill-opacity:1.0; fill:darkblue; text-anchor:right; stroke:none; font-weight:normal; font-style:italic; text-align:right; " transform="" id="C.s4.text" y="150.852845048" x="-225.350133714">
s4</text>
      <circle style="stroke:gray; stroke-width:1; fill:none; " transform="" cy="86.1243346406" cx="-199.605396186" r="5" id="C.s5.inpoint" d="M -194.60539,86.124336 C -194.60539,88.88576 -196.84397,91.124336 -199.60539,91.124336 -202.36682,91.124336 -204.60539,88.88576 -204.60539,86.124336 -204.60539,83.362912 -202.36682,81.124336 -199.60539,81.124336 -196.84397,81.124336 -194.60539,83.362912 -194.60539,86.124336 z" />
      <text style="font-size:25; vertical-align:top; fill-opacity:1.0; fill:gray; text-anchor:right; stroke:none; font-weight:normal; font-style:italic; text-align:right; " transform="" id="C.s5.inpoint.text" y="79.1243346406" x="-192.605396186">
s5.in</text>
      <circle style="stroke:gray; stroke-width:1; fill:none; " transform="" cy="245.770797695" cx="-397.779506613" r="5" id="C.s5.outpoint" d="M -392.77951,245.7708 C -392.77951,248.53222 -395.01809,250.7708 -397.77951,250.7708 -400.54093,250.7708 -402.77951,248.53222 -402.77951,245.7708 -402.77951,243.00937 -400.54093,240.7708 -397.77951,240.7708 -395.01809,240.7708 -392.77951,243.00937 -392.77951,245.7708 z" />
      <text style="font-size:25; vertical-align:top; fill-opacity:1.0; fill:gray; text-anchor:right; stroke:none; font-weight:normal; font-style:italic; text-align:right; " transform="" id="C.s5.outpoint.text" y="238.770797695" x="-390.779506613">
s5.out</text>
      <circle style="stroke:red; stroke-width:1; fill:red; " transform="" cy="128.543783046" cx="-252.2619743" r="5" id="C.s5" d="M -247.26198,128.54378 C -247.26198,131.3052 -249.50055,133.54378 -252.26198,133.54378 -255.0234,133.54378 -257.26198,131.3052 -257.26198,128.54378 -257.26198,125.78235 -255.0234,123.54378 -252.26198,123.54378 -249.50055,123.54378 -247.26198,125.78235 -247.26198,128.54378 z" />
      <text style="font-size:30; vertical-align:top; fill-opacity:1.0; fill:darkblue; text-anchor:right; stroke:none; font-weight:normal; font-style:italic; text-align:right; " transform="" id="C.s5.text" y="121.543783046" x="-245.2619743">
s5</text>
      <circle style="stroke:red; stroke-width:1; fill:red; " transform="" cy="473.558535144" cx="-697.050401141" r="5" id="C.s6" d="M -692.05042,473.55853 C -692.05042,476.31996 -694.28899,478.55853 -697.05042,478.55853 -699.81184,478.55853 -702.05042,476.31996 -702.05042,473.55853 -702.05042,470.79711 -699.81184,468.55853 -697.05042,468.55853 -694.28899,468.55853 -692.05042,470.79711 -692.05042,473.55853 z" />
      <text style="font-size:30; vertical-align:top; fill-opacity:1.0; fill:darkblue; text-anchor:right; stroke:none; font-weight:normal; font-style:italic; text-align:right; " transform="" id="C.s6.text" y="466.558535144" x="-690.050401141">
s6</text>
      <circle style="stroke:gray; stroke-width:1; fill:none; " transform="" cy="390.333129936" cx="-525.604781938" r="5" id="C.s7.inpoint" d="M -520.6048,390.33313 C -520.6048,393.09455 -522.84337,395.33313 -525.6048,395.33313 -528.36622,395.33313 -530.6048,393.09455 -530.6048,390.33313 -530.6048,387.57171 -528.36622,385.33313 -525.6048,385.33313 -522.84337,385.33313 -520.6048,387.57171 -520.6048,390.33313 z" />
      <text style="font-size:25; vertical-align:top; fill-opacity:1.0; fill:gray; text-anchor:right; stroke:none; font-weight:normal; font-style:italic; text-align:right; " transform="" id="C.s7.inpoint.text" y="383.333129936" x="-518.604781938">
s7.in</text>
      <circle style="stroke:gray; stroke-width:1; fill:none; " transform="" cy="559.134830752" cx="-752.905449863" r="5" id="C.s7.outpoint" d="M -747.90546,559.13483 C -747.90546,561.89625 -750.14403,564.13483 -752.90546,564.13483 -755.66688,564.13483 -757.90546,561.89625 -757.90546,559.13483 -757.90546,556.3734 -755.66688,554.13483 -752.90546,554.13483 -750.14403,554.13483 -747.90546,556.3734 -747.90546,559.13483 z" />
      <text style="font-size:25; vertical-align:top; fill-opacity:1.0; fill:gray; text-anchor:right; stroke:none; font-weight:normal; font-style:italic; text-align:right; " transform="" id="C.s7.outpoint.text" y="552.134830752" x="-745.905449863">
s7.out</text>
      <circle style="stroke:red; stroke-width:1; fill:red; " transform="" cy="502.867597147" cx="-677.138560555" r="5" id="C.s7" d="M -672.13855,502.86758 C -672.13855,505.62901 -674.37713,507.86758 -677.13855,507.86758 -679.89997,507.86758 -682.13855,505.62901 -682.13855,502.86758 -682.13855,500.10616 -679.89997,497.86758 -677.13855,497.86758 -674.37713,497.86758 -672.13855,500.10616 -672.13855,502.86758 z" />
      <text style="font-size:30; vertical-align:top; fill-opacity:1.0; fill:darkblue; text-anchor:right; stroke:none; font-weight:normal; font-style:italic; text-align:right; " transform="" id="C.s7.text" y="495.867597147" x="-670.138560555">
s7</text>
      <circle style="stroke:red; stroke-width:1; fill:red; " transform="" cy="2374.01574803" cx="-929.400534855" r="5" id="C.s8" d="M -924.40051,2374.0159 C -924.40051,2376.7773 -926.63909,2379.0159 -929.40051,2379.0159 -932.16194,2379.0159 -934.40051,2376.7773 -934.40051,2374.0159 -934.40051,2371.2544 -932.16194,2369.0159 -929.40051,2369.0159 -926.63909,2369.0159 -924.40051,2371.2544 -924.40051,2374.0159 z" />
      <text style="font-size:30; vertical-align:top; fill-opacity:1.0; fill:darkblue; text-anchor:right; stroke:none; font-weight:normal; font-style:italic; text-align:right; " transform="" id="C.s8.text" y="2367.01574803" x="-922.400534855">
s8</text>
      <circle style="stroke:red; stroke-width:1; fill:red; " transform="" cy="2374.01574803" cx="-396.850393701" r="5" id="C.s9" d="M -391.8504,2374.0159 C -391.8504,2376.7773 -394.08898,2379.0159 -396.8504,2379.0159 -399.61183,2379.0159 -401.8504,2376.7773 -401.8504,2374.0159 -401.8504,2371.2544 -399.61183,2369.0159 -396.8504,2369.0159 -394.08898,2369.0159 -391.8504,2371.2544 -391.8504,2374.0159 z" />
      <text style="font-size:30; vertical-align:top; fill-opacity:1.0; fill:darkblue; text-anchor:right; stroke:none; font-weight:normal; font-style:italic; text-align:right; " transform="" id="C.s9.text" y="2367.01574803" x="-389.850393701">
s9</text>
      <circle style="stroke:red; stroke-width:1; fill:red; " transform="" cy="2374.01574803" cx="929.400534855" r="5" id="C.s10" d="M 934.40051,2374.0159 C 934.40051,2376.7773 932.16194,2379.0159 929.40051,2379.0159 926.63909,2379.0159 924.40051,2376.7773 924.40051,2374.0159 924.40051,2371.2544 926.63909,2369.0159 929.40051,2369.0159 932.16194,2369.0159 934.40051,2371.2544 934.40051,2374.0159 z" />
      <text style="font-size:30; vertical-align:top; fill-opacity:1.0; fill:darkblue; text-anchor:right; stroke:none; font-weight:normal; font-style:italic; text-align:right; " transform="" id="C.s10.text" y="2367.01574803" x="936.400534855">
s10</text>
      <circle style="stroke:red; stroke-width:1; fill:red; " transform="" cy="2374.01574803" cx="396.850393701" r="5" id="C.s11" d="M 401.8504,2374.0159 C 401.8504,2376.7773 399.61183,2379.0159 396.8504,2379.0159 394.08898,2379.0159 391.8504,2376.7773 391.8504,2374.0159 391.8504,2371.2544 394.08898,2369.0159 396.8504,2369.0159 399.61183,2369.0159 401.8504,2371.2544 401.8504,2374.0159 z" />
      <text style="font-size:30; vertical-align:top; fill-opacity:1.0; fill:darkblue; text-anchor:right; stroke:none; font-weight:normal; font-style:italic; text-align:right; " transform="" id="C.s11.text" y="2367.01574803" x="403.850393701">
s11</text>
      <circle style="stroke:red; stroke-width:1; fill:red; " transform="" cy="1502.71356411" cx="483.661417323" r="5" id="C.SD1" d="M 488.66141,1502.7136 C 488.66141,1505.475 486.42283,1507.7136 483.66141,1507.7136 480.89998,1507.7136 478.66141,1505.475 478.66141,1502.7136 478.66141,1499.9522 480.89998,1497.7136 483.66141,1497.7136 486.42283,1497.7136 488.66141,1499.9522 488.66141,1502.7136 z" />
      <text style="font-size:30; vertical-align:top; fill-opacity:1.0; fill:darkblue; text-anchor:right; stroke:none; font-weight:normal; font-style:italic; text-align:right; " transform="" id="C.SD1.text" y="1495.71356411" x="490.661417323">
SD1</text>
      <circle style="stroke:red; stroke-width:1; fill:red; " transform="" cy="1528.38759141" cx="683.918482717" r="5" id="C.SD1.i" d="M 688.91846,1528.3876 C 688.91846,1531.149 686.67988,1533.3876 683.91846,1533.3876 681.15703,1533.3876 678.91846,1531.149 678.91846,1528.3876 678.91846,1525.6261 681.15703,1523.3876 683.91846,1523.3876 686.67988,1523.3876 688.91846,1525.6261 688.91846,1528.3876 z" />
      <text style="font-size:30; vertical-align:top; fill-opacity:1.0; fill:darkblue; text-anchor:right; stroke:none; font-weight:normal; font-style:italic; text-align:right; " transform="" id="C.SD1.i.text" y="1521.38759141" x="690.918482717">
SD1.i</text>
      <circle style="stroke:red; stroke-width:1; fill:red; " transform="" cy="1582.59135112" cx="669.08414263" r="5" id="C.SD1.o" d="M 674.08417,1582.5913 C 674.08417,1585.3527 671.84559,1587.5913 669.08417,1587.5913 666.32274,1587.5913 664.08417,1585.3527 664.08417,1582.5913 664.08417,1579.8299 666.32274,1577.5913 669.08417,1577.5913 671.84559,1577.5913 674.08417,1579.8299 674.08417,1582.5913 z" />
      <text style="font-size:30; vertical-align:top; fill-opacity:1.0; fill:darkblue; text-anchor:right; stroke:none; font-weight:normal; font-style:italic; text-align:right; " transform="" id="C.SD1.o.text" y="1575.59135112" x="676.08414263">
SD1.o</text>
      <circle style="stroke:gray; stroke-width:1; fill:none; " transform="" cy="2368.85020424" cx="127.2319798" r="5" id="C.SWB.inpoint" d="M 132.23198,2368.8501 C 132.23198,2371.6115 129.9934,2373.8501 127.23198,2373.8501 124.47056,2373.8501 122.23198,2371.6115 122.23198,2368.8501 122.23198,2366.0887 124.47056,2363.8501 127.23198,2363.8501 129.9934,2363.8501 132.23198,2366.0887 132.23198,2368.8501 z" />
      <text style="font-size:25; vertical-align:top; fill-opacity:1.0; fill:gray; text-anchor:right; stroke:none; font-weight:normal; font-style:italic; text-align:right; " transform="" id="C.SWB.inpoint.text" y="2361.85020424" x="134.2319798">
SWB.in</text>
      <circle style="stroke:red; stroke-width:1; fill:red; " transform="" cy="2452.32742055" cx="369.912785665" r="5" id="C.SWB" d="M 374.91278,2452.3274 C 374.91278,2455.0888 372.6742,2457.3274 369.91278,2457.3274 367.15136,2457.3274 364.91278,2455.0888 364.91278,2452.3274 364.91278,2449.566 367.15136,2447.3274 369.91278,2447.3274 372.6742,2447.3274 374.91278,2449.566 374.91278,2452.3274 z" />
      <text style="font-size:30; vertical-align:top; fill-opacity:1.0; fill:darkblue; text-anchor:right; stroke:none; font-weight:normal; font-style:italic; text-align:right; " transform="" id="C.SWB.text" y="2445.32742055" x="376.912785665">
SWB</text>
      <circle style="stroke:gray; stroke-width:1; fill:none; " transform="" cy="2338.14510842" cx="-142.710621644" r="5" id="C.SWF.outpoint" d="M -137.71062,2338.145 C -137.71062,2340.9064 -139.94919,2343.145 -142.71062,2343.145 -145.47204,2343.145 -147.71062,2340.9064 -147.71062,2338.145 -147.71062,2335.3836 -145.47204,2333.145 -142.71062,2333.145 -139.94919,2333.145 -137.71062,2335.3836 -137.71062,2338.145 z" />
      <text style="font-size:25; vertical-align:top; fill-opacity:1.0; fill:gray; text-anchor:right; stroke:none; font-weight:normal; font-style:italic; text-align:right; " transform="" id="C.SWF.outpoint.text" y="2331.14510842" x="-135.710621644">
SWF.out</text>
      <circle style="stroke:red; stroke-width:1; fill:red; " transform="" cy="2377.3389422" cx="-396.336847757" r="5" id="C.SWF" d="M -391.33685,2377.3389 C -391.33685,2380.1003 -393.57543,2382.3389 -396.33685,2382.3389 -399.09828,2382.3389 -401.33685,2380.1003 -401.33685,2377.3389 -401.33685,2374.5774 -399.09828,2372.3389 -396.33685,2372.3389 -393.57543,2372.3389 -391.33685,2374.5774 -391.33685,2377.3389 z" />
      <text style="font-size:30; vertical-align:top; fill-opacity:1.0; fill:darkblue; text-anchor:right; stroke:none; font-weight:normal; font-style:italic; text-align:right; " transform="" id="C.SWF.text" y="2370.3389422" x="-389.336847757">
SWF</text>
      <path style="stroke-linejoin:miter; stroke-dashoffset:0; stroke:gray; stroke-miterlimit:4; stroke-dasharray:6,6; stroke-width:2; fill:none; " transform="" d="M 0.0  0.0 L 0.0  2374.01574803 M 929.400534855  631.411380192 L 0.0  0.0 L -929.400534855  631.411380192 M 929.400534855  631.411380192 L -929.400534855  631.411380192 M 690.94488189  1502.71356411 L -531.496062992  1502.71356411 M -929.400534855  631.411380192 L -929.400534855  2374.01574803 L 929.400534855  2374.01574803 L 929.400534855  631.411380192 M 690.94488189  1502.71356411 L 396.850393701  2374.01574803 M -929.400534855  631.411380192 L -396.850393701  2374.01574803 M 232.350133714  157.852845048 L 272.173814887  99.2347210432 M -232.350133714  157.852845048 L -252.2619743  128.543783046 M -697.050401141  473.558535144 L -677.138560555  502.867597147 " id="C.gridline" />
    </g>
  </g>
</svg>
