<?xml version="1.0" encoding="UTF-8" standalone="no"?>
<svg xmlns:dc="http://purl.org/dc/elements/1.1/" xmlns:cc="http://creativecommons.org/ns#" xmlns:rdf="http://www.w3.org/1999/02/22-rdf-syntax-ns#" xmlns:svg="http://www.w3.org/2000/svg" xmlns="http://www.w3.org/2000/svg" xmlns:sodipodi="http://sodipodi.sourceforge.net/DTD/sodipodi-0.dtd" xmlns:inkscape="http://www.inkscape.org/namespaces/inkscape" patternNumber="pyjama_pants_tie_waist_aldrich" fitBoxtoViewport="True" companyName="Seamly Patterns" currentscale="0.5:1" margin-right="88.5826771654" client-name="DressFormLg" designerName="Winifred. P. Aldrich" height="4941.9203938" width="3838.86811033" margin-top="88.5826771654" version="1.1" margin-bottom="88.5826771654" margin-left="88.5826771654" preserveAspectRatio="xMidYMid meet" id="svg2" inkscape:version="0.48.4 r9939" sodipodi:docname="Susan-pyjama_pants_tie_string_aldrich-2014-07-04-1220.svg">
  <metadata id="metadata122">
    <rdf:RDF>
      <cc:Work rdf:about="">
        <dc:format>image/svg+xml</dc:format>
        <dc:type rdf:resource="http://purl.org/dc/dcmitype/StillImage" />
      </cc:Work>
    </rdf:RDF>
  </metadata>
  <sodipodi:namedview id="base" pagecolor="#ffffff" bordercolor="#666666" borderopacity="1.0" inkscape:pageopacity="0.0" inkscape:pageshadow="2" inkscape:zoom="0.17928253" inkscape:document-units="pt" showgrid="false" inkscape:window-maximized="1" inkscape:cx="1919.4341" inkscape:cy="2470.9602" inkscape:window-width="1855" inkscape:window-height="1056" inkscape:window-x="65" inkscape:window-y="24" inkscape:current-layer="pattern" />
  <defs id="defs5">
    <marker style="overflow:visible" id="Arrow1Mstart" refX="0.0" refY="0.0" orient="auto" inkscape:stockid="Arrow1Mstart">
      <path transform="scale(0.4) translate(10,0)" style="fill-rule:evenodd;stroke:#000000;stroke-width:1.0pt;marker-start:none" d="M 0.0,0.0 L 5.0,-5.0 L -12.5,0.0 L 5.0,5.0 L 0.0,0.0 z " id="path8" />
    </marker>
    <marker style="overflow:visible;" id="Arrow1Mend" refX="0.0" refY="0.0" orient="auto" inkscape:stockid="Arrow1Mend">
      <path transform="scale(0.4) rotate(180) translate(10,0)" style="fill-rule:evenodd;stroke:#000000;stroke-width:1.0pt;marker-start:none;" d="M 0.0,0.0 L 5.0,-5.0 L -12.5,0.0 L 5.0,5.0 L 0.0,0.0 z " id="path11" />
    </marker>
  </defs>
  <g inkscape:label="Label-pattern" id="pattern" inkscape:groupmode="layer" transform="translate(88.582677,88.582677)">
    <g id="document.pants.Front.pattern" transform=" translate(1747.726378, 598.268819)">
      <g id="A.letter" transform="matrix(10.000000, 0, 0, 10.000000, 4783.464567, -8131.889764)">
        <text style="font-size:24; vertical-align:top; fill-opacity:1.0; fill:#000000; text-anchor:start; stroke:none; font-weight:normal; font-style:normal; text-align:right; " transform="" id="A.letter.letterline" y="903.543307087" x="-531.496062992">
A</text>
      </g>
      <line style="stroke-linejoin:miter; stroke:green; stroke-width:4; stroke-miterlimit:4; fill:none; " y2="3613.66220146" marker-end="url(#Arrow1Mend)" marker-start="url(#Arrow1Mstart)" transform="" x2="-578.107317928" y1="1488.18897638" x1="-531.496062992" id="A.grainline" />
      <path style="stroke-linejoin:miter; stroke:darkgreen; stroke-width:6; stroke-miterlimit:4; fill:none; " transform="" d="M -921.25984252  4039.37007874 L -88.5826771654  4039.37007874 M -921.25984252  4110.23622047 L -88.5826771654  4110.23622047 " id="A.foldline" />
      <path style="stroke-linejoin:miter; stroke-dashoffset:0; stroke:green; stroke-dasharray:24,6; stroke-miterlimit:4; stroke-width:4; fill:none; " transform="" d="M -1275.59055118  -159.448818898 L -779.527559055  -159.448818898 L -779.527559055  0 L 0  0 L -88.5826771654  4039.37007874 L -88.5826771654  4110.23622047 L -921.25984252  4110.23622047 L -921.25984252  4039.37007874 C -921.25984252  3494.01276942  -980.995215063  2948.60658934  -1062.99212598  2409.4488189 C -1125.08801665  2001.14707203  -1239.03015841  1601.86678116  -1352.36220472  1204.72440945 C -1207.67716535  1204.72440945  -1062.99212598  1054.13385827  -1062.99212598  903.543307087 L -1275.59055118  903.543307087 L -1275.59055118  -159.448818898 " id="A.seamline" />
      <path style="fill:none;stroke:#008000;stroke-width:4;stroke-linejoin:miter;stroke-miterlimit:4" d="M -1331.8438,-159.4375 C -1331.8438,213.63542 -1331.8437,586.70833 -1331.8438,959.78125 -1263.7604,959.78125 -1195.6771,959.78125 -1127.5938,959.78125 -1148.1756,1028.0989 -1197.2047,1087.3079 -1259.316,1122.3528 -1290.7398,1139.9919 -1326.7023,1150.0645 -1362.9058,1148.5619 -1384.1768,1148.76 -1405.4478,1148.9581 -1426.7188,1149.1562 -1317.6451,1532.0733 -1205.4151,1914.9364 -1136.6422,2307.6119 -1116.9185,2421.336 -1101.0297,2535.6825 -1084.8231,2650.0477 -1019.8654,3119.8724 -975.86039,3592.925 -977.5,4067.5 -977.5,4100.5 -977.5,4133.5 -977.5,4166.5 -662.44792,4166.5 -347.39583,4166.5 -32.34375,4166.5 -32.29597,4100.8651 -32.877285,4035.2233 -30.786914,3969.6108 -1.3614001,2627.6571 28.091864,1285.7041 57.5,-56.25 -202.76042,-56.25 -463.02083,-56.25 -723.28125,-56.25 -723.28125,-109.39583 -723.28125,-162.54167 -723.28125,-215.6875 -926.13542,-215.6875 -1128.9896,-215.6875 -1331.8438,-215.6875 -1331.8437,-196.9375 -1331.8438,-178.1875 -1331.8438,-159.4375 z" id="A.cuttingline" inkscape:connector-curvature="0" />
      <g id="A.info" transform="">
        <text style="font-size:12; vertical-align:top; fill-opacity:1.0; fill:#000000; text-anchor:start; stroke:none; font-weight:normal; font-style:normal; text-align:right; " transform="" id="A.info.lineSeamly Patterns" y="1204.72440945" x="-531.496062992">
Seamly Patterns</text>
        <text style="font-size:12; vertical-align:top; fill-opacity:1.0; fill:#000000; text-anchor:start; stroke:none; font-weight:normal; font-style:normal; text-align:right; " transform="" id="A.info.lineDesigner:Winifred. P. Aldrich" y="1219.12440945" x="-531.496062992">
Designer:Winifred. P. Aldrich</text>
        <text style="font-size:12; vertical-align:top; fill-opacity:1.0; fill:#000000; text-anchor:start; stroke:none; font-weight:normal; font-style:normal; text-align:right; " transform="" id="A.info.lineClient:DressFormLg" y="1233.52440945" x="-531.496062992">
Client:DressFormLg</text>
        <text style="font-size:12; vertical-align:top; fill-opacity:1.0; fill:#000000; text-anchor:start; stroke:none; font-weight:normal; font-style:normal; text-align:right; " transform="" id="A.info.linepyjama_pants_tie_waist_aldrich" y="1247.92440945" x="-531.496062992">
pyjama_pants_tie_waist_aldrich</text>
        <text style="font-size:12; vertical-align:top; fill-opacity:1.0; fill:#000000; text-anchor:start; stroke:none; font-weight:normal; font-style:normal; text-align:right; " transform="" id="A.info.linePattern Piece A" y="1262.32440945" x="-531.496062992">
Pattern Piece A</text>
        <text style="font-size:12; vertical-align:top; fill-opacity:1.0; fill:#000000; text-anchor:start; stroke:none; font-weight:normal; font-style:normal; text-align:right; " transform="" id="A.info.lineCut 2 Fabric" y="1276.72440945" x="-531.496062992">
Cut 2 Fabric</text>
      </g>
    </g>
    <g id="document.pants.Back.pattern" transform=" translate(3605.452756, 578.052283)">
      <g id="B.letter" transform="matrix(10.000000, 0, 0, 10.000000, 4783.464567, -8131.889764)">
        <text style="font-size:24; vertical-align:top; fill-opacity:1.0; fill:#000000; text-anchor:start; stroke:none; font-weight:normal; font-style:normal; text-align:right; " transform="" id="B.letter.letterline" y="903.543307087" x="-531.496062992">
B</text>
      </g>
      <line style="stroke-linejoin:miter; stroke:green; stroke-width:4; stroke-miterlimit:4; fill:none; " y2="3613.66220146" marker-end="url(#Arrow1Mend)" marker-start="url(#Arrow1Mstart)" transform="" x2="-578.107317928" y1="1488.18897638" x1="-531.496062992" id="B.grainline" />
      <path style="stroke-linejoin:miter; stroke:darkgreen; stroke-width:6; stroke-miterlimit:4; fill:none; " transform="" d="M -1098.42519685  4039.37007874 L -88.5826771654  4039.37007874 " id="B.foldline" />
      <path style="stroke-linejoin:miter; stroke-dashoffset:0; stroke:green; stroke-dasharray:24,6; stroke-miterlimit:4; stroke-width:4; fill:none; " transform="" d="M -974.409448819  -141.732283465 L 0  0 L -88.5826771654  4039.37007874 L -1098.42519685  4039.37007874 L -1204.72440945  2409.4488189 L -1688.97637795  1240.15748031 L -1062.99212598  602.362204724 L -974.409448819  -141.732283465 " id="B.seamline" />
      <path style="fill:none;stroke:#008000;stroke-width:4;stroke-linejoin:miter;stroke-miterlimit:4" d="M -1030.25,-148.375 C -1059.0208,93.291667 -1087.7917,334.95833 -1116.5625,576.625 -1329.4362,793.52209 -1542.3205,1010.4088 -1755.1875,1227.3125 -1590.184,1625.667 -1425.2332,2024.0433 -1260.25,2422.4062 -1223.8725,2980.1457 -1187.5151,3537.8864 -1151.125,4095.625 -778.60417,4095.625 -406.08333,4095.625 -33.5625,4095.625 -3.2565977,2714.2503 27.07277,1332.8761 57.3125,-48.5 -302.93793,-100.89288 -663.18857,-153.2843 -1023.4375,-205.6875 -1025.7083,-186.58333 -1027.9792,-167.47917 -1030.25,-148.375 z" id="B.cuttingline" inkscape:connector-curvature="0" />
      <g id="B.info" transform="">
        <text style="font-size:12; vertical-align:top; fill-opacity:1.0; fill:#000000; text-anchor:start; stroke:none; font-weight:normal; font-style:normal; text-align:right; " transform="" id="B.info.lineSeamly Patterns" y="1204.72440945" x="-531.496062992">
Seamly Patterns</text>
        <text style="font-size:12; vertical-align:top; fill-opacity:1.0; fill:#000000; text-anchor:start; stroke:none; font-weight:normal; font-style:normal; text-align:right; " transform="" id="B.info.lineDesigner:Winifred. P. Aldrich" y="1219.12440945" x="-531.496062992">
Designer:Winifred. P. Aldrich</text>
        <text style="font-size:12; vertical-align:top; fill-opacity:1.0; fill:#000000; text-anchor:start; stroke:none; font-weight:normal; font-style:normal; text-align:right; " transform="" id="B.info.lineClient:DressFormLg" y="1233.52440945" x="-531.496062992">
Client:DressFormLg</text>
        <text style="font-size:12; vertical-align:top; fill-opacity:1.0; fill:#000000; text-anchor:start; stroke:none; font-weight:normal; font-style:normal; text-align:right; " transform="" id="B.info.linepyjama_pants_tie_waist_aldrich" y="1247.92440945" x="-531.496062992">
pyjama_pants_tie_waist_aldrich</text>
        <text style="font-size:12; vertical-align:top; fill-opacity:1.0; fill:#000000; text-anchor:start; stroke:none; font-weight:normal; font-style:normal; text-align:right; " transform="" id="B.info.linePattern Piece B" y="1262.32440945" x="-531.496062992">
Pattern Piece B</text>
        <text style="font-size:12; vertical-align:top; fill-opacity:1.0; fill:#000000; text-anchor:start; stroke:none; font-weight:normal; font-style:normal; text-align:right; " transform="" id="B.info.lineCut 2 Fabric" y="1276.72440945" x="-531.496062992">
Cut 2 Fabric</text>
      </g>
    </g>
  </g>
  <g inkscape:label="Label-notes" id="notes" inkscape:groupmode="layer" transform="translate(88.582677,88.582677)">
    <g id="document.titleblock">
      <text style="font-size:40; vertical-align:top; fill-opacity:1.0; fill:#000000; text-anchor:right; stroke:none; font-weight:normal; font-style:normal; text-align:right; " transform="" id="company" y="0.0" x="0.0">
Seamly Patterns</text>
      <text style="font-size:40; vertical-align:top; fill-opacity:1.0; fill:#000000; text-anchor:right; stroke:none; font-weight:normal; font-style:normal; text-align:right; " transform="" id="designer" y="44.0" x="0.0">
Winifred. P. Aldrich</text>
      <text style="font-size:40; vertical-align:top; fill-opacity:1.0; fill:#000000; text-anchor:right; stroke:none; font-weight:normal; font-style:normal; text-align:right; " transform="" id="pattern_number" y="88.0" x="0.0">
pyjama_pants_tie_waist_aldrich</text>
      <text style="font-size:40; vertical-align:top; fill-opacity:1.0; fill:#000000; text-anchor:right; stroke:none; font-weight:normal; font-style:normal; text-align:right; " transform="" id="pattern_name" y="132.0" x="0.0">
pyjama_pants_tie_waist</text>
      <text style="font-size:40; vertical-align:top; fill-opacity:1.0; fill:#000000; text-anchor:right; stroke:none; font-weight:normal; font-style:normal; text-align:right; " transform="" id="client" y="176.0" x="0.0">
DressFormLg</text>
    </g>
    <g id="document.testgrid">
      <path style="stroke-linejoin:miter; stroke:green; stroke-width:4; stroke-miterlimit:4; fill:none; " d="M 1320.0  0.0 L 1320.0  212.598425197 M 1355.43307087  0.0 L 1355.43307087  212.598425197 M 1390.86614173  0.0 L 1390.86614173  212.598425197 M 1426.2992126  0.0 L 1426.2992126  212.598425197 M 1461.73228346  0.0 L 1461.73228346  212.598425197 M 1497.16535433  0.0 L 1497.16535433  212.598425197 M 1532.5984252  0.0 L 1532.5984252  212.598425197 M 1320.0  0.0 L 1532.5984252  0.0 M 1320.0  35.4330708661 L 1532.5984252  35.4330708661 M 1320.0  70.8661417323 L 1532.5984252  70.8661417323 M 1320.0  106.299212598 L 1532.5984252  106.299212598 M 1320.0  141.732283465 L 1532.5984252  141.732283465 M 1320.0  177.165354331 L 1532.5984252  177.165354331 M 1320.0  212.598425197 L 1532.5984252  212.598425197 M 1709.76377953  0.0 L 1709.76377953  270.0 M 1799.76377953  0.0 L 1799.76377953  270.0 M 1889.76377953  0.0 L 1889.76377953  270.0 M 1979.76377953  0.0 L 1979.76377953  270.0 M 1709.76377953  0.0 L 1979.76377953  0.0 M 1709.76377953  90.0 L 1979.76377953  90.0 M 1709.76377953  180.0 L 1979.76377953  180.0 M 1709.76377953  270.0 L 1979.76377953  270.0 " id="testgrid" />
    </g>
    <g id="document.pants.Front.notes" transform=" translate(1747.726378, 598.268819)" />
    <g id="document.pants.Back.notes" transform=" translate(3605.452756, 578.052283)" />
  </g>
  <g inkscape:label="Label-reference" id="reference" inkscape:groupmode="layer" transform="translate(88.582677,88.582677)">
    <g id="document.pants.Front.reference" transform=" translate(1747.726378, 598.268819)">
      <circle style="stroke:red; stroke-width:1; fill:red; " transform="" cy="0" cx="0" r="5" id="A.p0" d="M 5,0 C 5,2.7614237 2.7614237,5 0,5 -2.7614237,5 -5,2.7614237 -5,0 -5,-2.7614237 -2.7614237,-5 0,-5 2.7614237,-5 5,-2.7614237 5,0 z" />
      <text style="font-size:30; vertical-align:top; fill-opacity:1.0; fill:darkblue; text-anchor:right; stroke:none; font-weight:normal; font-style:italic; text-align:right; " transform="" id="A.p0.text" y="-7" x="7">
p0</text>
      <circle style="stroke:red; stroke-width:1; fill:red; " transform="" cy="1204.72440945" cx="0" r="5" id="A.p1" d="M 5,1204.7244 C 5,1207.4858 2.7614237,1209.7244 0,1209.7244 -2.7614237,1209.7244 -5,1207.4858 -5,1204.7244 -5,1201.9629 -2.7614237,1199.7244 0,1199.7244 2.7614237,1199.7244 5,1201.9629 5,1204.7244 z" />
      <text style="font-size:30; vertical-align:top; fill-opacity:1.0; fill:darkblue; text-anchor:right; stroke:none; font-weight:normal; font-style:italic; text-align:right; " transform="" id="A.p1.text" y="1197.72440945" x="7">
p1</text>
      <circle style="stroke:red; stroke-width:1; fill:red; " transform="" cy="4039.37007874" cx="0" r="5" id="A.p2" d="M 5,4039.3701 C 5,4042.1315 2.7614237,4044.3701 0,4044.3701 -2.7614237,4044.3701 -5,4042.1315 -5,4039.3701 -5,4036.6087 -2.7614237,4034.3701 0,4034.3701 2.7614237,4034.3701 5,4036.6087 5,4039.3701 z" />
      <text style="font-size:30; vertical-align:top; fill-opacity:1.0; fill:darkblue; text-anchor:right; stroke:none; font-weight:normal; font-style:italic; text-align:right; " transform="" id="A.p2.text" y="4032.37007874" x="7">
p2</text>
      <circle style="stroke:red; stroke-width:1; fill:red; " transform="" cy="2409.4488189" cx="0" r="5" id="A.p3" d="M 5,2409.4487 C 5,2412.2102 2.7614237,2414.4487 0,2414.4487 -2.7614237,2414.4487 -5,2412.2102 -5,2409.4487 -5,2406.6873 -2.7614237,2404.4487 0,2404.4487 2.7614237,2404.4487 5,2406.6873 5,2409.4487 z" />
      <text style="font-size:30; vertical-align:top; fill-opacity:1.0; fill:darkblue; text-anchor:right; stroke:none; font-weight:normal; font-style:italic; text-align:right; " transform="" id="A.p3.text" y="2402.4488189" x="7">
p3</text>
      <circle style="stroke:red; stroke-width:1; fill:red; " transform="" cy="1204.72440945" cx="-1062.99212598" r="5" id="A.p4" d="M -1057.9921,1204.7244 C -1057.9921,1207.4858 -1060.2306,1209.7244 -1062.9921,1209.7244 -1065.7535,1209.7244 -1067.9921,1207.4858 -1067.9921,1204.7244 -1067.9921,1201.9629 -1065.7535,1199.7244 -1062.9921,1199.7244 -1060.2306,1199.7244 -1057.9921,1201.9629 -1057.9921,1204.7244 z" />
      <text style="font-size:30; vertical-align:top; fill-opacity:1.0; fill:darkblue; text-anchor:right; stroke:none; font-weight:normal; font-style:italic; text-align:right; " transform="" id="A.p4.text" y="1197.72440945" x="-1055.99212598">
p4</text>
      <circle style="stroke:red; stroke-width:1; fill:red; " transform="" cy="0" cx="-1062.99212598" r="5" id="A.p5" d="M -1057.9921,0 C -1057.9921,2.7614237 -1060.2306,5 -1062.9921,5 -1065.7535,5 -1067.9921,2.7614237 -1067.9921,0 -1067.9921,-2.7614237 -1065.7535,-5 -1062.9921,-5 -1060.2306,-5 -1057.9921,-2.7614237 -1057.9921,0 z" />
      <text style="font-size:30; vertical-align:top; fill-opacity:1.0; fill:darkblue; text-anchor:right; stroke:none; font-weight:normal; font-style:italic; text-align:right; " transform="" id="A.p5.text" y="-7" x="-1055.99212598">
p5</text>
      <circle style="stroke:gray; stroke-width:1; fill:none; " transform="" cy="2948.60658934" cx="-980.995215063" r="5" id="A.p6.inpoint" d="M -975.99524,2948.6067 C -975.99524,2951.3681 -978.23382,2953.6067 -980.99524,2953.6067 -983.75666,2953.6067 -985.99524,2951.3681 -985.99524,2948.6067 -985.99524,2945.8453 -983.75666,2943.6067 -980.99524,2943.6067 -978.23382,2943.6067 -975.99524,2945.8453 -975.99524,2948.6067 z" />
      <text style="font-size:25; vertical-align:top; fill-opacity:1.0; fill:gray; text-anchor:right; stroke:none; font-weight:normal; font-style:italic; text-align:right; " transform="" id="A.p6.inpoint.text" y="2941.60658934" x="-973.995215063">
p6.in</text>
      <circle style="stroke:gray; stroke-width:1; fill:none; " transform="" cy="2001.14707203" cx="-1125.08801665" r="5" id="A.p6.outpoint" d="M -1120.088,2001.1471 C -1120.088,2003.9085 -1122.3266,2006.1471 -1125.088,2006.1471 -1127.8494,2006.1471 -1130.088,2003.9085 -1130.088,2001.1471 -1130.088,1998.3857 -1127.8494,1996.1471 -1125.088,1996.1471 -1122.3266,1996.1471 -1120.088,1998.3857 -1120.088,2001.1471 z" />
      <text style="font-size:25; vertical-align:top; fill-opacity:1.0; fill:gray; text-anchor:right; stroke:none; font-weight:normal; font-style:italic; text-align:right; " transform="" id="A.p6.outpoint.text" y="1994.14707203" x="-1118.08801665">
p6.out</text>
      <circle style="stroke:red; stroke-width:1; fill:red; " transform="" cy="2409.4488189" cx="-1062.99212598" r="5" id="A.p6" d="M -1057.9921,2409.4487 C -1057.9921,2412.2102 -1060.2306,2414.4487 -1062.9921,2414.4487 -1065.7535,2414.4487 -1067.9921,2412.2102 -1067.9921,2409.4487 -1067.9921,2406.6873 -1065.7535,2404.4487 -1062.9921,2404.4487 -1060.2306,2404.4487 -1057.9921,2406.6873 -1057.9921,2409.4487 z" />
      <text style="font-size:30; vertical-align:top; fill-opacity:1.0; fill:darkblue; text-anchor:right; stroke:none; font-weight:normal; font-style:italic; text-align:right; " transform="" id="A.p6.text" y="2402.4488189" x="-1055.99212598">
p6</text>
      <circle style="stroke:red; stroke-width:1; fill:red; " transform="" cy="4039.37007874" cx="-1062.99212598" r="5" id="A.p7" d="M -1057.9921,4039.3701 C -1057.9921,4042.1315 -1060.2306,4044.3701 -1062.9921,4044.3701 -1065.7535,4044.3701 -1067.9921,4042.1315 -1067.9921,4039.3701 -1067.9921,4036.6087 -1065.7535,4034.3701 -1062.9921,4034.3701 -1060.2306,4034.3701 -1057.9921,4036.6087 -1057.9921,4039.3701 z" />
      <text style="font-size:30; vertical-align:top; fill-opacity:1.0; fill:darkblue; text-anchor:right; stroke:none; font-weight:normal; font-style:italic; text-align:right; " transform="" id="A.p7.text" y="4032.37007874" x="-1055.99212598">
p7</text>
      <circle style="stroke:gray; stroke-width:1; fill:none; " transform="" cy="1054.13385827" cx="-1062.99212598" r="5" id="A.p8.inpoint" d="M -1057.9921,1054.1339 C -1057.9921,1056.8953 -1060.2306,1059.1339 -1062.9921,1059.1339 -1065.7535,1059.1339 -1067.9921,1056.8953 -1067.9921,1054.1339 -1067.9921,1051.3725 -1065.7535,1049.1339 -1062.9921,1049.1339 -1060.2306,1049.1339 -1057.9921,1051.3725 -1057.9921,1054.1339 z" />
      <text style="font-size:25; vertical-align:top; fill-opacity:1.0; fill:gray; text-anchor:right; stroke:none; font-weight:normal; font-style:italic; text-align:right; " transform="" id="A.p8.inpoint.text" y="1047.13385827" x="-1055.99212598">
p8.in</text>
      <circle style="stroke:red; stroke-width:1; fill:red; " transform="" cy="903.543307087" cx="-1062.99212598" r="5" id="A.p8" d="M -1057.9921,903.54333 C -1057.9921,906.30476 -1060.2306,908.54333 -1062.9921,908.54333 -1065.7535,908.54333 -1067.9921,906.30476 -1067.9921,903.54333 -1067.9921,900.78191 -1065.7535,898.54333 -1062.9921,898.54333 -1060.2306,898.54333 -1057.9921,900.78191 -1057.9921,903.54333 z" />
      <text style="font-size:30; vertical-align:top; fill-opacity:1.0; fill:darkblue; text-anchor:right; stroke:none; font-weight:normal; font-style:italic; text-align:right; " transform="" id="A.p8.text" y="896.543307087" x="-1055.99212598">
p8</text>
      <circle style="stroke:gray; stroke-width:1; fill:none; " transform="" cy="1601.86678116" cx="-1239.03015841" r="5" id="A.p9.inpoint" d="M -1234.0302,1601.8668 C -1234.0302,1604.6282 -1236.2687,1606.8668 -1239.0302,1606.8668 -1241.7916,1606.8668 -1244.0302,1604.6282 -1244.0302,1601.8668 -1244.0302,1599.1054 -1241.7916,1596.8668 -1239.0302,1596.8668 -1236.2687,1596.8668 -1234.0302,1599.1054 -1234.0302,1601.8668 z" />
      <text style="font-size:25; vertical-align:top; fill-opacity:1.0; fill:gray; text-anchor:right; stroke:none; font-weight:normal; font-style:italic; text-align:right; " transform="" id="A.p9.inpoint.text" y="1594.86678116" x="-1232.03015841">
p9.in</text>
      <circle style="stroke:gray; stroke-width:1; fill:none; " transform="" cy="1204.72440945" cx="-1207.67716535" r="5" id="A.p9.outpoint" d="M -1202.6771,1204.7244 C -1202.6771,1207.4858 -1204.9157,1209.7244 -1207.6771,1209.7244 -1210.4385,1209.7244 -1212.6771,1207.4858 -1212.6771,1204.7244 -1212.6771,1201.9629 -1210.4385,1199.7244 -1207.6771,1199.7244 -1204.9157,1199.7244 -1202.6771,1201.9629 -1202.6771,1204.7244 z" />
      <text style="font-size:25; vertical-align:top; fill-opacity:1.0; fill:gray; text-anchor:right; stroke:none; font-weight:normal; font-style:italic; text-align:right; " transform="" id="A.p9.outpoint.text" y="1197.72440945" x="-1200.67716535">
p9.out</text>
      <circle style="stroke:red; stroke-width:1; fill:red; " transform="" cy="1204.72440945" cx="-1352.36220472" r="5" id="A.p9" d="M -1347.3622,1204.7244 C -1347.3622,1207.4858 -1349.6008,1209.7244 -1352.3622,1209.7244 -1355.1236,1209.7244 -1357.3622,1207.4858 -1357.3622,1204.7244 -1357.3622,1201.9629 -1355.1236,1199.7244 -1352.3622,1199.7244 -1349.6008,1199.7244 -1347.3622,1201.9629 -1347.3622,1204.7244 z" />
      <text style="font-size:30; vertical-align:top; fill-opacity:1.0; fill:darkblue; text-anchor:right; stroke:none; font-weight:normal; font-style:italic; text-align:right; " transform="" id="A.p9.text" y="1197.72440945" x="-1345.36220472">
p9</text>
      <circle style="stroke:gray; stroke-width:1; fill:none; " transform="" cy="3494.01276942" cx="-921.25984252" r="5" id="A.p10.outpoint" d="M -916.25983,3494.0127 C -916.25983,3496.7741 -918.4984,3499.0127 -921.25983,3499.0127 -924.02125,3499.0127 -926.25983,3496.7741 -926.25983,3494.0127 -926.25983,3491.2513 -924.02125,3489.0127 -921.25983,3489.0127 -918.4984,3489.0127 -916.25983,3491.2513 -916.25983,3494.0127 z" />
      <text style="font-size:25; vertical-align:top; fill-opacity:1.0; fill:gray; text-anchor:right; stroke:none; font-weight:normal; font-style:italic; text-align:right; " transform="" id="A.p10.outpoint.text" y="3487.01276942" x="-914.25984252">
p10.out</text>
      <circle style="stroke:red; stroke-width:1; fill:red; " transform="" cy="4039.37007874" cx="-921.25984252" r="5" id="A.p10" d="M -916.25983,4039.3701 C -916.25983,4042.1315 -918.4984,4044.3701 -921.25983,4044.3701 -924.02125,4044.3701 -926.25983,4042.1315 -926.25983,4039.3701 -926.25983,4036.6087 -924.02125,4034.3701 -921.25983,4034.3701 -918.4984,4034.3701 -916.25983,4036.6087 -916.25983,4039.3701 z" />
      <text style="font-size:30; vertical-align:top; fill-opacity:1.0; fill:darkblue; text-anchor:right; stroke:none; font-weight:normal; font-style:italic; text-align:right; " transform="" id="A.p10.text" y="4032.37007874" x="-914.25984252">
p10</text>
      <circle style="stroke:red; stroke-width:1; fill:red; " transform="" cy="4039.37007874" cx="-88.5826771654" r="5" id="A.p11" d="M -83.58268,4039.3701 C -83.58268,4042.1315 -85.821256,4044.3701 -88.58268,4044.3701 -91.344103,4044.3701 -93.58268,4042.1315 -93.58268,4039.3701 -93.58268,4036.6087 -91.344103,4034.3701 -88.58268,4034.3701 -85.821256,4034.3701 -83.58268,4036.6087 -83.58268,4039.3701 z" />
      <text style="font-size:30; vertical-align:top; fill-opacity:1.0; fill:darkblue; text-anchor:right; stroke:none; font-weight:normal; font-style:italic; text-align:right; " transform="" id="A.p11.text" y="4032.37007874" x="-81.5826771654">
p11</text>
      <circle style="stroke:red; stroke-width:1; fill:red; " transform="" cy="0" cx="-779.527559055" r="5" id="A.p12" d="M -774.52759,0 C -774.52759,2.7614237 -776.76616,5 -779.52759,5 -782.28901,5 -784.52759,2.7614237 -784.52759,0 -784.52759,-2.7614237 -782.28901,-5 -779.52759,-5 -776.76616,-5 -774.52759,-2.7614237 -774.52759,0 z" />
      <text style="font-size:30; vertical-align:top; fill-opacity:1.0; fill:darkblue; text-anchor:right; stroke:none; font-weight:normal; font-style:italic; text-align:right; " transform="" id="A.p12.text" y="-7" x="-772.527559055">
p12</text>
      <circle style="stroke:red; stroke-width:1; fill:red; " transform="" cy="903.543307087" cx="-1275.59055118" r="5" id="A.p13" d="M -1270.5906,903.54333 C -1270.5906,906.30476 -1272.8292,908.54333 -1275.5906,908.54333 -1278.352,908.54333 -1280.5906,906.30476 -1280.5906,903.54333 -1280.5906,900.78191 -1278.352,898.54333 -1275.5906,898.54333 -1272.8292,898.54333 -1270.5906,900.78191 -1270.5906,903.54333 z" />
      <text style="font-size:30; vertical-align:top; fill-opacity:1.0; fill:darkblue; text-anchor:right; stroke:none; font-weight:normal; font-style:italic; text-align:right; " transform="" id="A.p13.text" y="896.543307087" x="-1268.59055118">
p13</text>
      <circle style="stroke:red; stroke-width:1; fill:red; " transform="" cy="-159.448818898" cx="-779.527559055" r="5" id="A.p14" d="M -774.52759,-159.44882 C -774.52759,-156.6874 -776.76616,-154.44882 -779.52759,-154.44882 -782.28901,-154.44882 -784.52759,-156.6874 -784.52759,-159.44882 -784.52759,-162.21025 -782.28901,-164.44882 -779.52759,-164.44882 -776.76616,-164.44882 -774.52759,-162.21025 -774.52759,-159.44882 z" />
      <text style="font-size:30; vertical-align:top; fill-opacity:1.0; fill:darkblue; text-anchor:right; stroke:none; font-weight:normal; font-style:italic; text-align:right; " transform="" id="A.p14.text" y="-166.448818898" x="-772.527559055">
p14</text>
      <circle style="stroke:red; stroke-width:1; fill:red; " transform="" cy="-159.448818898" cx="-1275.59055118" r="5" id="A.p15" d="M -1270.5906,-159.44882 C -1270.5906,-156.6874 -1272.8292,-154.44882 -1275.5906,-154.44882 -1278.352,-154.44882 -1280.5906,-156.6874 -1280.5906,-159.44882 -1280.5906,-162.21025 -1278.352,-164.44882 -1275.5906,-164.44882 -1272.8292,-164.44882 -1270.5906,-162.21025 -1270.5906,-159.44882 z" />
      <text style="font-size:30; vertical-align:top; fill-opacity:1.0; fill:darkblue; text-anchor:right; stroke:none; font-weight:normal; font-style:italic; text-align:right; " transform="" id="A.p15.text" y="-166.448818898" x="-1268.59055118">
p15</text>
      <circle style="stroke:red; stroke-width:1; fill:red; " transform="" cy="4110.23622047" cx="-921.25984252" r="5" id="A.p16" d="M -916.25983,4110.2363 C -916.25983,4112.9978 -918.4984,4115.2363 -921.25983,4115.2363 -924.02125,4115.2363 -926.25983,4112.9978 -926.25983,4110.2363 -926.25983,4107.4749 -924.02125,4105.2363 -921.25983,4105.2363 -918.4984,4105.2363 -916.25983,4107.4749 -916.25983,4110.2363 z" />
      <text style="font-size:30; vertical-align:top; fill-opacity:1.0; fill:darkblue; text-anchor:right; stroke:none; font-weight:normal; font-style:italic; text-align:right; " transform="" id="A.p16.text" y="4103.23622047" x="-914.25984252">
p16</text>
      <circle style="stroke:red; stroke-width:1; fill:red; " transform="" cy="4110.23622047" cx="-88.5826771654" r="5" id="A.p17" d="M -83.58268,4110.2363 C -83.58268,4112.9978 -85.821256,4115.2363 -88.58268,4115.2363 -91.344103,4115.2363 -93.58268,4112.9978 -93.58268,4110.2363 -93.58268,4107.4749 -91.344103,4105.2363 -88.58268,4105.2363 -85.821256,4105.2363 -83.58268,4107.4749 -83.58268,4110.2363 z" />
      <text style="font-size:30; vertical-align:top; fill-opacity:1.0; fill:darkblue; text-anchor:right; stroke:none; font-weight:normal; font-style:italic; text-align:right; " transform="" id="A.p17.text" y="4103.23622047" x="-81.5826771654">
p17</text>
      <circle style="stroke:red; stroke-width:1; fill:red; " transform="" cy="0" cx="-974.409448819" r="5" id="A.p18" d="M -969.40942,0 C -969.40942,2.7614237 -971.648,5 -974.40942,5 -977.17085,5 -979.40942,2.7614237 -979.40942,0 -979.40942,-2.7614237 -977.17085,-5 -974.40942,-5 -971.648,-5 -969.40942,-2.7614237 -969.40942,0 z" />
      <text style="font-size:30; vertical-align:top; fill-opacity:1.0; fill:darkblue; text-anchor:right; stroke:none; font-weight:normal; font-style:italic; text-align:right; " transform="" id="A.p18.text" y="-7" x="-967.409448819">
p18</text>
      <circle style="stroke:red; stroke-width:1; fill:red; " transform="" cy="-141.732283465" cx="-974.409448819" r="5" id="A.p19" d="M -969.40942,-141.73228 C -969.40942,-138.97086 -971.648,-136.73228 -974.40942,-136.73228 -977.17085,-136.73228 -979.40942,-138.97086 -979.40942,-141.73228 -979.40942,-144.49371 -977.17085,-146.73228 -974.40942,-146.73228 -971.648,-146.73228 -969.40942,-144.49371 -969.40942,-141.73228 z" />
      <text style="font-size:30; vertical-align:top; fill-opacity:1.0; fill:darkblue; text-anchor:right; stroke:none; font-weight:normal; font-style:italic; text-align:right; " transform="" id="A.p19.text" y="-148.732283465" x="-967.409448819">
p19</text>
      <circle style="stroke:red; stroke-width:1; fill:red; " transform="" cy="602.362204724" cx="-1062.99212598" r="5" id="A.p20" d="M -1057.9921,602.36218 C -1057.9921,605.12361 -1060.2306,607.36218 -1062.9921,607.36218 -1065.7535,607.36218 -1067.9921,605.12361 -1067.9921,602.36218 -1067.9921,599.60076 -1065.7535,597.36218 -1062.9921,597.36218 -1060.2306,597.36218 -1057.9921,599.60076 -1057.9921,602.36218 z" />
      <text style="font-size:30; vertical-align:top; fill-opacity:1.0; fill:darkblue; text-anchor:right; stroke:none; font-weight:normal; font-style:italic; text-align:right; " transform="" id="A.p20.text" y="595.362204724" x="-1055.99212598">
p20</text>
      <circle style="stroke:red; stroke-width:1; fill:red; " transform="" cy="1204.72440945" cx="-1688.97637795" r="5" id="A.p21" d="M -1683.9763,1204.7244 C -1683.9763,1207.4858 -1686.2149,1209.7244 -1688.9763,1209.7244 -1691.7377,1209.7244 -1693.9763,1207.4858 -1693.9763,1204.7244 -1693.9763,1201.9629 -1691.7377,1199.7244 -1688.9763,1199.7244 -1686.2149,1199.7244 -1683.9763,1201.9629 -1683.9763,1204.7244 z" />
      <text style="font-size:30; vertical-align:top; fill-opacity:1.0; fill:darkblue; text-anchor:right; stroke:none; font-weight:normal; font-style:italic; text-align:right; " transform="" id="A.p21.text" y="1197.72440945" x="-1681.97637795">
p21</text>
      <circle style="stroke:red; stroke-width:1; fill:red; " transform="" cy="1240.15748031" cx="-1688.97637795" r="5" id="A.p22" d="M -1683.9763,1240.1575 C -1683.9763,1242.9189 -1686.2149,1245.1575 -1688.9763,1245.1575 -1691.7377,1245.1575 -1693.9763,1242.9189 -1693.9763,1240.1575 -1693.9763,1237.396 -1691.7377,1235.1575 -1688.9763,1235.1575 -1686.2149,1235.1575 -1683.9763,1237.396 -1683.9763,1240.1575 z" />
      <text style="font-size:30; vertical-align:top; fill-opacity:1.0; fill:darkblue; text-anchor:right; stroke:none; font-weight:normal; font-style:italic; text-align:right; " transform="" id="A.p22.text" y="1233.15748031" x="-1681.97637795">
p22</text>
      <circle style="stroke:red; stroke-width:1; fill:red; " transform="" cy="2409.4488189" cx="-1204.72440945" r="5" id="A.p23" d="M -1199.7244,2409.4487 C -1199.7244,2412.2102 -1201.9629,2414.4487 -1204.7244,2414.4487 -1207.4858,2414.4487 -1209.7244,2412.2102 -1209.7244,2409.4487 -1209.7244,2406.6873 -1207.4858,2404.4487 -1204.7244,2404.4487 -1201.9629,2404.4487 -1199.7244,2406.6873 -1199.7244,2409.4487 z" />
      <text style="font-size:30; vertical-align:top; fill-opacity:1.0; fill:darkblue; text-anchor:right; stroke:none; font-weight:normal; font-style:italic; text-align:right; " transform="" id="A.p23.text" y="2402.4488189" x="-1197.72440945">
p23</text>
      <circle style="stroke:red; stroke-width:1; fill:red; " transform="" cy="4039.37007874" cx="-1098.42519685" r="5" id="A.p24" d="M -1093.4252,4039.3701 C -1093.4252,4042.1315 -1095.6637,4044.3701 -1098.4252,4044.3701 -1101.1866,4044.3701 -1103.4252,4042.1315 -1103.4252,4039.3701 -1103.4252,4036.6087 -1101.1866,4034.3701 -1098.4252,4034.3701 -1095.6637,4034.3701 -1093.4252,4036.6087 -1093.4252,4039.3701 z" />
      <text style="font-size:30; vertical-align:top; fill-opacity:1.0; fill:darkblue; text-anchor:right; stroke:none; font-weight:normal; font-style:italic; text-align:right; " transform="" id="A.p24.text" y="4032.37007874" x="-1091.42519685">
p24</text>
      <circle style="stroke:red; stroke-width:1; fill:red; " transform="" cy="4110.23622047" cx="-1098.42519685" r="5" id="A.p25" d="M -1093.4252,4110.2363 C -1093.4252,4112.9978 -1095.6637,4115.2363 -1098.4252,4115.2363 -1101.1866,4115.2363 -1103.4252,4112.9978 -1103.4252,4110.2363 -1103.4252,4107.4749 -1101.1866,4105.2363 -1098.4252,4105.2363 -1095.6637,4105.2363 -1093.4252,4107.4749 -1093.4252,4110.2363 z" />
      <text style="font-size:30; vertical-align:top; fill-opacity:1.0; fill:darkblue; text-anchor:right; stroke:none; font-weight:normal; font-style:italic; text-align:right; " transform="" id="A.p25.text" y="4103.23622047" x="-1091.42519685">
p25</text>
      <path style="stroke-linejoin:miter; stroke-dashoffset:0; stroke:gray; stroke-miterlimit:4; stroke-dasharray:6,6; stroke-width:2; fill:none; " transform="" d="M -1062.99212598  0 L 0  0 L 0  4039.37007874 L -1062.99212598  4039.37007874 L -1062.99212598  0 M -1352.36220472  1204.72440945 L 0  1204.72440945 M -1062.99212598  2409.4488189 L 0  2409.4488189 M -1062.99212598  903.543307087 L -1062.99212598  0 L -779.527559055  0 " id="A.gridline" />
    </g>
    <g id="document.pants.Back.reference" transform=" translate(3605.452756, 578.052283)">
      <path style="stroke-linejoin:miter; stroke-dashoffset:0; stroke:gray; stroke-miterlimit:4; stroke-dasharray:6,6; stroke-width:2; fill:none; " transform="" d="M -1062.99212598  0 L 0  0 L 0  4039.37007874 L -1062.99212598  4039.37007874 L -1062.99212598  0 M -1688.97637795  1204.72440945 L 0  1204.72440945 M -1204.72440945  2409.4488189 L 0  2409.4488189 " id="B.gridline" />
    </g>
  </g>
</svg>
