<?xml version="1.0" encoding="UTF-8" standalone="no"?>
<svg xmlns:dc="http://purl.org/dc/elements/1.1/" xmlns:cc="http://creativecommons.org/ns#" xmlns:rdf="http://www.w3.org/1999/02/22-rdf-syntax-ns#" xmlns:svg="http://www.w3.org/2000/svg" xmlns="http://www.w3.org/2000/svg" xmlns:sodipodi="http://sodipodi.sourceforge.net/DTD/sodipodi-0.dtd" xmlns:inkscape="http://www.inkscape.org/namespaces/inkscape" patternNumber="MR_B1" fitBoxtoViewport="True" companyName="Next Patterns" currentscale="0.5:1" margin-right="88.5826771654" client-name="DressFormLg" designerName="S.L.Spencer" height="4897.51803176" width="2613.17186633" margin-top="88.5826771654" version="1.1" margin-bottom="88.5826771654" margin-left="88.5826771654" preserveAspectRatio="xMidYMid meet" id="svg2" inkscape:version="0.48.4 r9939" sodipodi:docname="Susan-spencer_bodice_short-2014-11-11-1333.svg">
  <metadata id="metadata314">
    <rdf:RDF>
      <cc:Work rdf:about="">
        <dc:format>image/svg+xml</dc:format>
        <dc:type rdf:resource="http://purl.org/dc/dcmitype/StillImage" />
      </cc:Work>
    </rdf:RDF>
  </metadata>
  <sodipodi:namedview id="base" pagecolor="#ffffff" bordercolor="#666666" borderopacity="1.0" inkscape:pageopacity="0.0" inkscape:pageshadow="2" inkscape:zoom="0.50712499" inkscape:document-units="pt" showgrid="false" inkscape:window-maximized="1" inkscape:cx="1306.5859" inkscape:cy="2781.77" inkscape:window-width="1855" inkscape:window-height="1056" inkscape:window-x="65" inkscape:window-y="24" inkscape:current-layer="pattern" />
  <defs id="defs5">
    <marker style="overflow:visible" id="Arrow1Mstart" refX="0.0" refY="0.0" orient="auto" inkscape:stockid="Arrow1Mstart">
      <path transform="scale(0.4) translate(10,0)" style="fill-rule:evenodd;stroke:#000000;stroke-width:1.0pt;marker-start:none" d="M 0.0,0.0 L 5.0,-5.0 L -12.5,0.0 L 5.0,5.0 L 0.0,0.0 z " id="path8" />
    </marker>
    <marker style="overflow:visible;" id="Arrow1Mend" refX="0.0" refY="0.0" orient="auto" inkscape:stockid="Arrow1Mend">
      <path transform="scale(0.4) rotate(180) translate(10,0)" style="fill-rule:evenodd;stroke:#000000;stroke-width:1.0pt;marker-start:none;" d="M 0.0,0.0 L 5.0,-5.0 L -12.5,0.0 L 5.0,5.0 L 0.0,0.0 z " id="path11" />
    </marker>
  </defs>
  <g inkscape:label="Label-pattern" id="pattern" inkscape:groupmode="layer" transform="translate(88.582677,88.582677)">
    <g id="document.bodice.Bodice Front.pattern" transform=" translate(58.750000, 757.717638)">
      <g id="A.letter" transform="matrix(10.000000, 0, 0, 10.000000, -3228.838583, -1030.039370)">
        <text style="font-size:24; vertical-align:top; fill-opacity:1.0; fill:#000000; text-anchor:start; stroke:none; font-weight:normal; font-style:normal; text-align:right; " transform="" id="A.letter.letterline" y="114.448818898" x="358.75984252">
A</text>
      </g>
      <line style="stroke-linejoin:miter; stroke:green; stroke-width:4; stroke-miterlimit:4; fill:none; " y2="1089.56692913" marker-end="url(#Arrow1Mend)" marker-start="url(#Arrow1Mstart)" transform="" x2="133.455818164" y1="159.448818898" x1="133.455818164" id="A.grainline" />
      <path style="stroke-linejoin:miter; stroke-dashoffset:0; stroke:green; stroke-miterlimit:4; stroke-dasharray:6,6; stroke-width:3; fill:none; " transform="" d="M 259.399057947  1311.31203772 L 354.330708661  710.078740157 L 449.262359376  1311.31203772 M 1150.79185159  637.795275591 L 442.745684951  637.795275591 L 1116.3698394  855.877536743 " id="A.dartline" />
      <path style="stroke-linejoin:miter; stroke-dashoffset:0; stroke:green; stroke-dasharray:24,6; stroke-miterlimit:4; stroke-width:4; fill:none; " transform="" d="M 0.0  0.0 L 0.0  1240.15748031 C 88.6462178188  1240.15748031  169.417059436  1240.15748031  268.171959685  1255.75037202 L 354.330708661  1278.22121965 L 440.489457638  1255.75037202 C 636.519475316  1224.79823872  856.949499848  1202.2485947  1063.28928086  1191.7749495 L 1062.85446078  838.552215645 L 1065.27660358  736.055293411 L 1094.54185159  637.795275591 L 1022.97229067  397.495711804 C 900.773673277  437.27316057  772.084679423  405.875075416  711.460629921  318.897637795 C 682.935421414  277.972467604  668.093612079  209.229473702  664.861974276  159.448818898 C 657.345250276  43.6600252751  693.447366389  -109.826498683  717.519685039  -223.334513127 L 266.911636328  -318.897637795 C 233.832093174  -162.917928626  160.146981797  0.0  0.0  0.0 " id="A.seamline" />
      <path style="fill:none;stroke:#008000;stroke-width:4;stroke-linejoin:miter;stroke-miterlimit:4" d="M 211.90625,-330.65625 C 197.45138,-264.20535 177.34444,-197.87692 139.96875,-140.40625 116.15169,-104.08797 82.171731,-71.60028 38.90625,-60.9375 9.6980416,-53.498727 -20.657228,-57.036286 -50.466985,-55.829847 -59.45958,-58.486119 -55.389515,-48.189039 -56.25,-42.78125 -56.25,403.61458 -56.25,850.01042 -56.25,1296.4062 48.994452,1296.6498 154.70398,1293.8005 258.71648,1311.4111 290.59282,1319.7197 322.46209,1328.0555 354.34375,1336.3438 388.2971,1327.7847 422.02466,1318.1546 456.10763,1310.222 673.07085,1276.5587 891.83475,1255.8107 1111.1266,1245.6284 1119.604,1247.5138 1120.7833,1242.4792 1119.5821,1235.1875 1119.5547,1100.2932 1118.9829,965.39285 1119.2834,830.50225 1120.1429,801.67507 1120.3021,772.7374 1121.5978,743.97906 1132.1396,708.58022 1142.6633,673.17603 1153.2188,637.78125 1122.3383,534.07142 1091.4427,430.36614 1060.5625,326.65625 1021.2354,338.4153 982.37166,354.28051 941.15625,357.21875 887.36768,361.89276 830.13479,351.18119 786.78125,317.4375 764.99134,300.84079 749.09291,277.60952 740.46875,251.75 721.63346,199.15071 717.35647,142.48361 721.4326,87.09541 728.93284,-20.135379 754.43703,-125.06257 776.52021,-230.07655 779.13847,-242.26978 781.75674,-254.46302 784.375,-266.65625 597.46452,-306.33122 410.53864,-345.93364 223.625,-385.59375 219.71875,-367.28125 215.8125,-348.96875 211.90625,-330.65625 z" id="A.cuttingline" inkscape:connector-curvature="0" />
      <g id="A.info" transform="">
        <text style="font-size:12; vertical-align:top; fill-opacity:1.0; fill:#000000; text-anchor:start; stroke:none; font-weight:normal; font-style:normal; text-align:right; " transform="" id="A.info.lineNext Patterns" y="159.448818898" x="358.75984252">
Next Patterns</text>
        <text style="font-size:12; vertical-align:top; fill-opacity:1.0; fill:#000000; text-anchor:start; stroke:none; font-weight:normal; font-style:normal; text-align:right; " transform="" id="A.info.lineMR_B1" y="173.848818898" x="358.75984252">
MR_B1</text>
        <text style="font-size:12; vertical-align:top; fill-opacity:1.0; fill:#000000; text-anchor:start; stroke:none; font-weight:normal; font-style:normal; text-align:right; " transform="" id="A.info.lineSpencer Bodice Short" y="188.248818898" x="358.75984252">
Spencer Bodice Short</text>
        <text style="font-size:12; vertical-align:top; fill-opacity:1.0; fill:#000000; text-anchor:start; stroke:none; font-weight:normal; font-style:normal; text-align:right; " transform="" id="A.info.linePattern Piece A" y="202.648818898" x="358.75984252">
Pattern Piece A</text>
        <text style="font-size:12; vertical-align:top; fill-opacity:1.0; fill:#000000; text-anchor:start; stroke:none; font-weight:normal; font-style:normal; text-align:right; " transform="" id="A.info.lineCut 2 Fabric" y="217.048818898" x="358.75984252">
Cut 2 Fabric</text>
        <text style="font-size:12; vertical-align:top; fill-opacity:1.0; fill:#000000; text-anchor:start; stroke:none; font-weight:normal; font-style:normal; text-align:right; " transform="" id="A.info.line " y="231.448818898" x="358.75984252" />
        <text style="font-size:12; vertical-align:top; fill-opacity:1.0; fill:#000000; text-anchor:start; stroke:none; font-weight:normal; font-style:normal; text-align:right; " transform="" id="A.info.lineDressFormLg" y="245.848818898" x="358.75984252">
DressFormLg</text>
        <text style="font-size:12; vertical-align:top; fill-opacity:1.0; fill:#000000; text-anchor:start; stroke:none; font-weight:normal; font-style:normal; text-align:right; " transform="" id="A.info.line2014/11/11 13:33" y="260.248818898" x="358.75984252">
2014/11/11 13:33</text>
      </g>
    </g>
    <g id="document.bodice.Bodice Back.pattern" transform=" translate(2379.756512, 580.552283)">
      <g id="B.letter" transform="matrix(10.000000, 0, 0, 10.000000, 3188.976378, -2465.078740)">
        <text style="font-size:24; vertical-align:top; fill-opacity:1.0; fill:#000000; text-anchor:start; stroke:none; font-weight:normal; font-style:normal; text-align:right; " transform="" id="B.letter.letterline" y="273.897637795" x="-354.330708661">
B</text>
      </g>
      <line style="stroke-linejoin:miter; stroke:green; stroke-width:4; stroke-miterlimit:4; fill:none; " y2="1222.44094488" marker-end="url(#Arrow1Mend)" marker-start="url(#Arrow1Mstart)" transform="" x2="-142.235487856" y1="212.598425197" x1="-142.235487856" id="B.grainline" />
      <path style="stroke-linejoin:miter; stroke-dashoffset:0; stroke:green; stroke-miterlimit:4; stroke-dasharray:6,6; stroke-width:3; fill:none; " transform="" d="M -467.420717536  1410.22698347 L -383.761673202  637.795275591 L -300.102628868  1410.22698347 M -559.532216793  -100.914733442 L -415.819527212  138.801763145 L -524.771526596  -118.582769632 " id="B.dartline" />
      <path style="stroke-linejoin:miter; stroke-dashoffset:0; stroke:green; stroke-dasharray:24,6; stroke-miterlimit:4; stroke-width:4; fill:none; " transform="" d="M 0.0  0.0 L 0.0  1346.45669291 C -101.065792802  1346.45669291  -233.704316826  1346.45669291  -306.159425266  1354.30402112 L -383.761673202  1369.2401569 L -461.363921138  1354.30402112 C -538.074281339  1345.99582331  -739.129368008  1344.80113724  -875.998808024  1343.98784763 L -949.398107518  743.309668882 C -851.14693672  731.303960391  -683.651555005  710.837021319  -649.452755906  637.795275591 C -565.091348135  457.616302704  -673.409406866  121.107549166  -708.661417323  37.8293872947 L -530.609177191  -52.6703526272 L -516.72673065  -59.7264716658 L -502.844284109  -66.7825907043 L -284.470975712  -141.732283465 C -252.688753608  -78.3927191927  -213.353231784  0.0  0.0  0.0 " id="B.seamline" />
      <path style="fill:none;stroke:#008000;stroke-width:4;stroke-linejoin:miter;stroke-miterlimit:4" d="M -302.71875,-194.9375 C -377.03877,-169.3366 -451.50422,-144.07479 -525.7334,-118.26211 -610.65551,-75.016418 -695.6617,-31.921082 -780.59375,11.3125 -763.45497,51.898491 -746.44194,92.450557 -733.63331,134.60886 -704.55118,227.48903 -682.74268,322.9749 -675.87419,420.27533 -672.30449,480.70775 -673.4821,543.23845 -694.71875,600.65625 -698.13302,610.0247 -702.03181,619.7368 -710.8125,625.375 -737.05379,644.68213 -769.26918,653.53992 -800.3125,661.78125 -869.81685,678.86973 -941.17884,685.18775 -1012.0625,694.34375 -983.33289,929.5533 -954.56862,1164.7586 -925.84375,1399.9688 -792.21502,1400.9914 -658.45183,1400.6253 -525.00617,1406.2482 -498.70301,1407.6637 -472.20494,1408.2221 -446.43296,1414.4756 -425.2109,1418.3008 -403.99453,1423.1707 -382.76779,1426.3435 -352.74627,1420.9158 -322.82398,1414.1708 -292.75465,1409.4974 -211.86298,1402.719 -130.52745,1403.274 -49.312512,1402.7345 -14.125032,1402.6988 21.062499,1402.7285 56.25,1402.7188 56.25,916.39583 56.25,430.07292 56.25,-56.25 -8.2028894,-56.354282 -74.213712,-53.53629 -136.34375,-73.46875 -166.34681,-82.915222 -194.66624,-100.53616 -212.09375,-127.3125 -229.28847,-153.74651 -241.59842,-182.99175 -256.28125,-210.875 -271.76042,-205.5625 -287.23958,-200.25 -302.71875,-194.9375 z" id="B.cuttingline" inkscape:connector-curvature="0" />
      <g id="B.info" transform="">
        <text style="font-size:12; vertical-align:top; fill-opacity:1.0; fill:#000000; text-anchor:start; stroke:none; font-weight:normal; font-style:normal; text-align:right; " transform="" id="B.info.lineNext Patterns" y="318.897637795" x="-354.330708661">
Next Patterns</text>
        <text style="font-size:12; vertical-align:top; fill-opacity:1.0; fill:#000000; text-anchor:start; stroke:none; font-weight:normal; font-style:normal; text-align:right; " transform="" id="B.info.lineMR_B1" y="333.297637795" x="-354.330708661">
MR_B1</text>
        <text style="font-size:12; vertical-align:top; fill-opacity:1.0; fill:#000000; text-anchor:start; stroke:none; font-weight:normal; font-style:normal; text-align:right; " transform="" id="B.info.lineSpencer Bodice Short" y="347.697637795" x="-354.330708661">
Spencer Bodice Short</text>
        <text style="font-size:12; vertical-align:top; fill-opacity:1.0; fill:#000000; text-anchor:start; stroke:none; font-weight:normal; font-style:normal; text-align:right; " transform="" id="B.info.linePattern Piece B" y="362.097637795" x="-354.330708661">
Pattern Piece B</text>
        <text style="font-size:12; vertical-align:top; fill-opacity:1.0; fill:#000000; text-anchor:start; stroke:none; font-weight:normal; font-style:normal; text-align:right; " transform="" id="B.info.lineCut 2 Fabric" y="376.497637795" x="-354.330708661">
Cut 2 Fabric</text>
        <text style="font-size:12; vertical-align:top; fill-opacity:1.0; fill:#000000; text-anchor:start; stroke:none; font-weight:normal; font-style:normal; text-align:right; " transform="" id="B.info.line " y="390.897637795" x="-354.330708661" />
        <text style="font-size:12; vertical-align:top; fill-opacity:1.0; fill:#000000; text-anchor:start; stroke:none; font-weight:normal; font-style:normal; text-align:right; " transform="" id="B.info.lineDressFormLg" y="405.297637795" x="-354.330708661">
DressFormLg</text>
        <text style="font-size:12; vertical-align:top; fill-opacity:1.0; fill:#000000; text-anchor:start; stroke:none; font-weight:normal; font-style:normal; text-align:right; " transform="" id="B.info.line2014/11/11 13:33" y="419.697637795" x="-354.330708661">
2014/11/11 13:33</text>
      </g>
    </g>
    <g id="document.bodice.Bodice Sleeve.pattern" transform=" translate(666.609535, 2240.279676)">
      <line style="stroke-linejoin:miter; stroke:green; stroke-width:4; stroke-miterlimit:4; fill:none; " y2="2090.5511811" marker-end="url(#Arrow1Mend)" marker-start="url(#Arrow1Mstart)" transform="" x2="0.0" y1="458.097346369" x1="0.0" id="C.grainline" />
      <g id="C.letter" transform="matrix(15.000000, 0, 0, 15.000000, -3291.202050, -13119.077255)">
        <text style="font-size:24; vertical-align:top; fill-opacity:1.0; fill:#000000; text-anchor:start; stroke:none; font-weight:normal; font-style:normal; text-align:right; " transform="" id="C.letter.letterline" y="937.076946785" x="235.0858607">
C</text>
      </g>
      <path style="stroke-linejoin:miter; stroke-dashoffset:0; stroke:green; stroke-miterlimit:4; stroke-dasharray:6,6; stroke-width:3; fill:none; " transform="" d="M 747.807610046  1408.95304049 L 483.661417323  1416.0565472 L 739.533026321  1482.03677641 " id="C.dartline" />
      <path style="fill:none;stroke:#008000;stroke-width:4;stroke-linejoin:miter;stroke-miterlimit:4;stroke-dasharray:24, 6;stroke-dashoffset:0" d="M 799.40559,458.09735 C 799.40559,458.09735 586.14656,402.67315 489.02965,352.58295 310.42636,260.46436 214.76099,10.841437 0,0 -128.6323,-6.4935396 -246.37029,135.21167 -311.1794,229.04867 -407.19309,368.06675 -567.01094,458.09735 -567.01094,458.09735 -571.18923,774.41346 -575.52686,1102.7921 -531.49606,1416.0565 L -392.0474,2408.1874 C -136.81891,2372.3139 135.39661,2345.6924 381.00626,2423.823 L 685.06479,1467.9913 688.32137,1439.2283 691.57794,1410.4652 799.40559,458.09735" id="C.seamline" inkscape:connector-curvature="0" sodipodi:nodetypes="casscscccccc" />
      <path style="fill:none;stroke:#008000;stroke-width:4;stroke-linejoin:miter;stroke-miterlimit:4" d="M -33.34375,-45.3125 C -138.24846,32.066993 -243.47768,109.04544 -348.17978,186.67533 -439.7543,268.67004 -531.34741,350.64403 -622.90625,432.65625 -627.08075,751.4222 -632.5277,1071.7141 -591.95828,1388.5767 -569.09789,1554.5016 -545.37921,1720.4303 -522.1921,1886.3612 -494.77744,2081.4809 -467.32957,2276.5959 -439.9375,2471.7188 -265.74218,2446.8352 -90.069162,2423.1657 86.277344,2430.9163 185.16052,2435.3099 284.19926,2450.5579 378.4014,2481.9733 391.46552,2486.0864 404.52963,2490.1994 417.59375,2494.3125 525.18021,2156.1364 632.74678,1817.954 740.34375,1479.7812 780.34547,1126.3211 820.39884,772.86605 860.40625,419.40625 745.30986,380.33012 630.2411,341.17263 515.15625,302.0625 343.32243,178.17777 171.49281,54.287195 -0.34375,-69.59375 -11.34375,-61.5 -22.34375,-53.40625 -33.34375,-45.3125 z" id="C.cuttingline" inkscape:connector-curvature="0" />
      <g id="C.info" transform="">
        <text style="font-size:12; vertical-align:top; fill-opacity:1.0; fill:#000000; text-anchor:start; stroke:none; font-weight:normal; font-style:normal; text-align:right; " transform="" id="C.info.lineNext Patterns" y="1007.94308852" x="235.0858607">
Next Patterns</text>
        <text style="font-size:12; vertical-align:top; fill-opacity:1.0; fill:#000000; text-anchor:start; stroke:none; font-weight:normal; font-style:normal; text-align:right; " transform="" id="C.info.lineMR_B1" y="1022.34308852" x="235.0858607">
MR_B1</text>
        <text style="font-size:12; vertical-align:top; fill-opacity:1.0; fill:#000000; text-anchor:start; stroke:none; font-weight:normal; font-style:normal; text-align:right; " transform="" id="C.info.lineSpencer Bodice Short" y="1036.74308852" x="235.0858607">
Spencer Bodice Short</text>
        <text style="font-size:12; vertical-align:top; fill-opacity:1.0; fill:#000000; text-anchor:start; stroke:none; font-weight:normal; font-style:normal; text-align:right; " transform="" id="C.info.linePattern Piece C" y="1051.14308852" x="235.0858607">
Pattern Piece C</text>
        <text style="font-size:12; vertical-align:top; fill-opacity:1.0; fill:#000000; text-anchor:start; stroke:none; font-weight:normal; font-style:normal; text-align:right; " transform="" id="C.info.lineCut 2 Fabric" y="1065.54308852" x="235.0858607">
Cut 2 Fabric</text>
        <text style="font-size:12; vertical-align:top; fill-opacity:1.0; fill:#000000; text-anchor:start; stroke:none; font-weight:normal; font-style:normal; text-align:right; " transform="" id="C.info.line " y="1079.94308852" x="235.0858607" />
        <text style="font-size:12; vertical-align:top; fill-opacity:1.0; fill:#000000; text-anchor:start; stroke:none; font-weight:normal; font-style:normal; text-align:right; " transform="" id="C.info.lineDressFormLg" y="1094.34308852" x="235.0858607">
DressFormLg</text>
        <text style="font-size:12; vertical-align:top; fill-opacity:1.0; fill:#000000; text-anchor:start; stroke:none; font-weight:normal; font-style:normal; text-align:right; " transform="" id="C.info.line2014/11/11 13:33" y="1108.74308852" x="235.0858607">
2014/11/11 13:33</text>
      </g>
    </g>
  </g>
  <g inkscape:label="Label-notes" id="notes" inkscape:groupmode="layer" transform="translate(88.582677,88.582677)">
    <g id="document.titleblock">
      <text style="font-size:40; vertical-align:top; fill-opacity:1.0; fill:#000000; text-anchor:right; stroke:none; font-weight:normal; font-style:normal; text-align:right; " transform="" id="company" y="0.0" x="0.0">
Next Patterns</text>
      <text style="font-size:40; vertical-align:top; fill-opacity:1.0; fill:#000000; text-anchor:right; stroke:none; font-weight:normal; font-style:normal; text-align:right; " transform="" id="designer" y="44.0" x="0.0">
S.L.Spencer</text>
      <text style="font-size:40; vertical-align:top; fill-opacity:1.0; fill:#000000; text-anchor:right; stroke:none; font-weight:normal; font-style:normal; text-align:right; " transform="" id="pattern_number" y="88.0" x="0.0">
MR_B1</text>
      <text style="font-size:40; vertical-align:top; fill-opacity:1.0; fill:#000000; text-anchor:right; stroke:none; font-weight:normal; font-style:normal; text-align:right; " transform="" id="pattern_name" y="132.0" x="0.0">
Spencer Bodice Short</text>
      <text style="font-size:40; vertical-align:top; fill-opacity:1.0; fill:#000000; text-anchor:right; stroke:none; font-weight:normal; font-style:normal; text-align:right; " transform="" id="client" y="176.0" x="0.0">
DressFormLg</text>
      <text style="font-size:40; vertical-align:top; fill-opacity:1.0; fill:#000000; text-anchor:right; stroke:none; font-weight:normal; font-style:normal; text-align:right; " transform="" id="date" y="220.0" x="0.0">
2014/11/11 13:33</text>
    </g>
    <g id="document.testgrid">
      <path style="stroke-linejoin:miter; stroke:green; stroke-width:4; stroke-miterlimit:4; fill:none; " d="M 1080.0  0.0 L 1080.0  212.598425197 M 1115.43307087  0.0 L 1115.43307087  212.598425197 M 1150.86614173  0.0 L 1150.86614173  212.598425197 M 1186.2992126  0.0 L 1186.2992126  212.598425197 M 1221.73228346  0.0 L 1221.73228346  212.598425197 M 1257.16535433  0.0 L 1257.16535433  212.598425197 M 1292.5984252  0.0 L 1292.5984252  212.598425197 M 1080.0  0.0 L 1292.5984252  0.0 M 1080.0  35.4330708661 L 1292.5984252  35.4330708661 M 1080.0  70.8661417323 L 1292.5984252  70.8661417323 M 1080.0  106.299212598 L 1292.5984252  106.299212598 M 1080.0  141.732283465 L 1292.5984252  141.732283465 M 1080.0  177.165354331 L 1292.5984252  177.165354331 M 1080.0  212.598425197 L 1292.5984252  212.598425197 M 1469.76377953  0.0 L 1469.76377953  270.0 M 1559.76377953  0.0 L 1559.76377953  270.0 M 1649.76377953  0.0 L 1649.76377953  270.0 M 1739.76377953  0.0 L 1739.76377953  270.0 M 1469.76377953  0.0 L 1739.76377953  0.0 M 1469.76377953  90.0 L 1739.76377953  90.0 M 1469.76377953  180.0 L 1739.76377953  180.0 M 1469.76377953  270.0 L 1739.76377953  270.0 " id="testgrid" />
    </g>
    <g id="document.bodice.Bodice Front.notes" transform=" translate(58.750000, 757.717638)" />
    <g id="document.bodice.Bodice Back.notes" transform=" translate(2379.756512, 580.552283)" />
    <g id="document.bodice.Bodice Sleeve.notes" transform=" translate(666.609535, 2240.279676)" />
  </g>
  <g inkscape:label="Label-reference" id="reference" inkscape:groupmode="layer" transform="translate(88.582677,88.582677)">
    <g id="document.bodice.Bodice Front.reference" transform=" translate(58.750000, 757.717638)">
      <circle style="stroke:gray; stroke-width:1; fill:none; " transform="" cy="0.0" cx="160.146981797" r="5" id="A.FNC.inpoint" d="M 165.14699,0 C 165.14699,2.7614237 162.90841,5 160.14699,5 157.38556,5 155.14699,2.7614237 155.14699,0 155.14699,-2.7614237 157.38556,-5 160.14699,-5 162.90841,-5 165.14699,-2.7614237 165.14699,0 z" />
      <text style="font-size:25; vertical-align:top; fill-opacity:1.0; fill:gray; text-anchor:right; stroke:none; font-weight:normal; font-style:italic; text-align:right; " transform="" id="A.FNC.inpoint.text" y="-7.0" x="167.146981797">
FNC.in</text>
      <circle style="stroke:red; stroke-width:1; fill:red; " transform="" cy="0.0" cx="0.0" r="5" id="A.FNC" d="M 5,0 C 5,2.7614237 2.7614237,5 0,5 -2.7614237,5 -5,2.7614237 -5,0 -5,-2.7614237 -2.7614237,-5 0,-5 2.7614237,-5 5,-2.7614237 5,0 z" />
      <text style="font-size:30; vertical-align:top; fill-opacity:1.0; fill:darkblue; text-anchor:right; stroke:none; font-weight:normal; font-style:italic; text-align:right; " transform="" id="A.FNC.text" y="-7.0" x="7.0">
FNC</text>
      <circle style="stroke:gray; stroke-width:1; fill:none; " transform="" cy="1240.15748031" cx="88.6462178188" r="5" id="A.FWC.outpoint" d="M 93.646217,1240.1575 C 93.646217,1242.9189 91.407641,1245.1575 88.646217,1245.1575 85.884794,1245.1575 83.646217,1242.9189 83.646217,1240.1575 83.646217,1237.396 85.884794,1235.1575 88.646217,1235.1575 91.407641,1235.1575 93.646217,1237.396 93.646217,1240.1575 z" />
      <text style="font-size:25; vertical-align:top; fill-opacity:1.0; fill:gray; text-anchor:right; stroke:none; font-weight:normal; font-style:italic; text-align:right; " transform="" id="A.FWC.outpoint.text" y="1233.15748031" x="95.6462178188">
FWC.out</text>
      <circle style="stroke:red; stroke-width:1; fill:red; " transform="" cy="1240.15748031" cx="0.0" r="5" id="A.FWC" d="M 5,1240.1575 C 5,1242.9189 2.7614237,1245.1575 0,1245.1575 -2.7614237,1245.1575 -5,1242.9189 -5,1240.1575 -5,1237.396 -2.7614237,1235.1575 0,1235.1575 2.7614237,1235.1575 5,1237.396 5,1240.1575 z" />
      <text style="font-size:30; vertical-align:top; fill-opacity:1.0; fill:darkblue; text-anchor:right; stroke:none; font-weight:normal; font-style:italic; text-align:right; " transform="" id="A.FWC.text" y="1233.15748031" x="7.0">
FWC</text>
      <circle style="stroke:red; stroke-width:1; fill:red; " transform="" cy="-318.897637795" cx="0.0" r="5" id="A.FSH" d="M 5,-318.89764 C 5,-316.13622 2.7614237,-313.89764 0,-313.89764 -2.7614237,-313.89764 -5,-316.13622 -5,-318.89764 -5,-321.65907 -2.7614237,-323.89764 0,-323.89764 2.7614237,-323.89764 5,-321.65907 5,-318.89764 z" />
      <text style="font-size:30; vertical-align:top; fill-opacity:1.0; fill:darkblue; text-anchor:right; stroke:none; font-weight:normal; font-style:italic; text-align:right; " transform="" id="A.FSH.text" y="-325.897637795" x="7.0">
FSH</text>
      <circle style="stroke:red; stroke-width:1; fill:red; " transform="" cy="-318.897637795" cx="717.519685039" r="5" id="A.FSW" d="M 722.51971,-318.89764 C 722.51971,-316.13622 720.28114,-313.89764 717.51971,-313.89764 714.75829,-313.89764 712.51971,-316.13622 712.51971,-318.89764 712.51971,-321.65907 714.75829,-323.89764 717.51971,-323.89764 720.28114,-323.89764 722.51971,-321.65907 722.51971,-318.89764 z" />
      <text style="font-size:30; vertical-align:top; fill-opacity:1.0; fill:darkblue; text-anchor:right; stroke:none; font-weight:normal; font-style:italic; text-align:right; " transform="" id="A.FSW.text" y="-325.897637795" x="724.519685039">
FSW</text>
      <circle style="stroke:gray; stroke-width:1; fill:none; " transform="" cy="-109.826498683" cx="693.447366389" r="5" id="A.FSP.inpoint" d="M 698.44739,-109.8265 C 698.44739,-107.06508 696.20881,-104.8265 693.44739,-104.8265 690.68596,-104.8265 688.44739,-107.06508 688.44739,-109.8265 688.44739,-112.58792 690.68596,-114.8265 693.44739,-114.8265 696.20881,-114.8265 698.44739,-112.58792 698.44739,-109.8265 z" />
      <text style="font-size:25; vertical-align:top; fill-opacity:1.0; fill:gray; text-anchor:right; stroke:none; font-weight:normal; font-style:italic; text-align:right; " transform="" id="A.FSP.inpoint.text" y="-116.826498683" x="700.447366389">
FSP.in</text>
      <circle style="stroke:red; stroke-width:1; fill:red; " transform="" cy="-223.334513127" cx="717.519685039" r="5" id="A.FSP" d="M 722.51971,-223.33452 C 722.51971,-220.57309 720.28114,-218.33452 717.51971,-218.33452 714.75829,-218.33452 712.51971,-220.57309 712.51971,-223.33452 712.51971,-226.09594 714.75829,-228.33452 717.51971,-228.33452 720.28114,-228.33452 722.51971,-226.09594 722.51971,-223.33452 z" />
      <text style="font-size:30; vertical-align:top; fill-opacity:1.0; fill:darkblue; text-anchor:right; stroke:none; font-weight:normal; font-style:italic; text-align:right; " transform="" id="A.FSP.text" y="-230.334513127" x="724.519685039">
FSP</text>
      <circle style="stroke:gray; stroke-width:1; fill:none; " transform="" cy="-162.917928626" cx="233.832093174" r="5" id="A.FNS.outpoint" d="M 238.83209,-162.91792 C 238.83209,-160.1565 236.59352,-157.91792 233.83209,-157.91792 231.07067,-157.91792 228.83209,-160.1565 228.83209,-162.91792 228.83209,-165.67935 231.07067,-167.91792 233.83209,-167.91792 236.59352,-167.91792 238.83209,-165.67935 238.83209,-162.91792 z" />
      <text style="font-size:25; vertical-align:top; fill-opacity:1.0; fill:gray; text-anchor:right; stroke:none; font-weight:normal; font-style:italic; text-align:right; " transform="" id="A.FNS.outpoint.text" y="-169.917928626" x="240.832093174">
FNS.out</text>
      <circle style="stroke:red; stroke-width:1; fill:red; " transform="" cy="-318.897637795" cx="266.911636328" r="5" id="A.FNS" d="M 271.91162,-318.89764 C 271.91162,-316.13622 269.67304,-313.89764 266.91162,-313.89764 264.1502,-313.89764 261.91162,-316.13622 261.91162,-318.89764 261.91162,-321.65907 264.1502,-323.89764 266.91162,-323.89764 269.67304,-323.89764 271.91162,-321.65907 271.91162,-318.89764 z" />
      <text style="font-size:30; vertical-align:top; fill-opacity:1.0; fill:darkblue; text-anchor:right; stroke:none; font-weight:normal; font-style:italic; text-align:right; " transform="" id="A.FNS.text" y="-325.897637795" x="273.911636328">
FNS</text>
      <circle style="stroke:red; stroke-width:1; fill:red; " transform="" cy="318.897637795" cx="0.0" r="5" id="A.FUC" d="M 5,318.89764 C 5,321.65907 2.7614237,323.89764 0,323.89764 -2.7614237,323.89764 -5,321.65907 -5,318.89764 -5,316.13622 -2.7614237,313.89764 0,313.89764 2.7614237,313.89764 5,316.13622 5,318.89764 z" />
      <text style="font-size:30; vertical-align:top; fill-opacity:1.0; fill:darkblue; text-anchor:right; stroke:none; font-weight:normal; font-style:italic; text-align:right; " transform="" id="A.FUC.text" y="311.897637795" x="7.0">
FUC</text>
      <circle style="stroke:red; stroke-width:1; fill:red; " transform="" cy="637.795275591" cx="0.0" r="5" id="A.FBC" d="M 5,637.79529 C 5,640.55671 2.7614237,642.79529 0,642.79529 -2.7614237,642.79529 -5,640.55671 -5,637.79529 -5,635.03386 -2.7614237,632.79529 0,632.79529 2.7614237,632.79529 5,635.03386 5,637.79529 z" />
      <text style="font-size:30; vertical-align:top; fill-opacity:1.0; fill:darkblue; text-anchor:right; stroke:none; font-weight:normal; font-style:italic; text-align:right; " transform="" id="A.FBC.text" y="630.795275591" x="7.0">
FBC</text>
      <circle style="stroke:red; stroke-width:1; fill:red; " transform="" cy="637.795275591" cx="354.330708661" r="5" id="A.FBP" d="M 359.33072,637.79529 C 359.33072,640.55671 357.09214,642.79529 354.33072,642.79529 351.5693,642.79529 349.33072,640.55671 349.33072,637.79529 349.33072,635.03386 351.5693,632.79529 354.33072,632.79529 357.09214,632.79529 359.33072,635.03386 359.33072,637.79529 z" />
      <text style="font-size:30; vertical-align:top; fill-opacity:1.0; fill:darkblue; text-anchor:right; stroke:none; font-weight:normal; font-style:italic; text-align:right; " transform="" id="A.FBP.text" y="630.795275591" x="361.330708661">
FBP</text>
      <circle style="stroke:gray; stroke-width:1; fill:none; " transform="" cy="405.875075416" cx="772.084679423" r="5" id="A.FAP.inpoint" d="M 777.08466,405.87506 C 777.08466,408.63648 774.84608,410.87506 772.08466,410.87506 769.32323,410.87506 767.08466,408.63648 767.08466,405.87506 767.08466,403.11364 769.32323,400.87506 772.08466,400.87506 774.84608,400.87506 777.08466,403.11364 777.08466,405.87506 z" />
      <text style="font-size:25; vertical-align:top; fill-opacity:1.0; fill:gray; text-anchor:right; stroke:none; font-weight:normal; font-style:italic; text-align:right; " transform="" id="A.FAP.inpoint.text" y="398.875075416" x="779.084679423">
FAP.in</text>
      <circle style="stroke:gray; stroke-width:1; fill:none; " transform="" cy="277.972467604" cx="682.935421414" r="5" id="A.FAP.outpoint" d="M 687.93542,277.97247 C 687.93542,280.7339 685.69685,282.97247 682.93542,282.97247 680.174,282.97247 677.93542,280.7339 677.93542,277.97247 677.93542,275.21105 680.174,272.97247 682.93542,272.97247 685.69685,272.97247 687.93542,275.21105 687.93542,277.97247 z" />
      <text style="font-size:25; vertical-align:top; fill-opacity:1.0; fill:gray; text-anchor:right; stroke:none; font-weight:normal; font-style:italic; text-align:right; " transform="" id="A.FAP.outpoint.text" y="270.972467604" x="689.935421414">
FAP.out</text>
      <circle style="stroke:red; stroke-width:1; fill:red; " transform="" cy="318.897637795" cx="711.460629921" r="5" id="A.FAP" d="M 716.46063,318.89764 C 716.46063,321.65907 714.22206,323.89764 711.46063,323.89764 708.69921,323.89764 706.46063,321.65907 706.46063,318.89764 706.46063,316.13622 708.69921,313.89764 711.46063,313.89764 714.22206,313.89764 716.46063,316.13622 716.46063,318.89764 z" />
      <text style="font-size:30; vertical-align:top; fill-opacity:1.0; fill:darkblue; text-anchor:right; stroke:none; font-weight:normal; font-style:italic; text-align:right; " transform="" id="A.FAP.text" y="311.897637795" x="718.460629921">
FAP</text>
      <circle style="stroke:red; stroke-width:1; fill:red; " transform="" cy="318.897637795" cx="921.25984252" r="5" id="A.f1" d="M 926.25983,318.89764 C 926.25983,321.65907 924.02125,323.89764 921.25983,323.89764 918.4984,323.89764 916.25983,321.65907 916.25983,318.89764 916.25983,316.13622 918.4984,313.89764 921.25983,313.89764 924.02125,313.89764 926.25983,316.13622 926.25983,318.89764 z" />
      <text style="font-size:30; vertical-align:top; fill-opacity:1.0; fill:darkblue; text-anchor:right; stroke:none; font-weight:normal; font-style:italic; text-align:right; " transform="" id="A.f1.text" y="311.897637795" x="928.25984252">
f1</text>
      <circle style="stroke:red; stroke-width:1; fill:red; " transform="" cy="440.379318512" cx="960.803917844" r="5" id="A.f2" d="M 965.80389,440.37933 C 965.80389,443.14076 963.56532,445.37933 960.80389,445.37933 958.04247,445.37933 955.80389,443.14076 955.80389,440.37933 955.80389,437.61791 958.04247,435.37933 960.80389,435.37933 963.56532,435.37933 965.80389,437.61791 965.80389,440.37933 z" />
      <text style="font-size:30; vertical-align:top; fill-opacity:1.0; fill:darkblue; text-anchor:right; stroke:none; font-weight:normal; font-style:italic; text-align:right; " transform="" id="A.f2.text" y="433.379318512" x="967.803917844">
f2</text>
      <circle style="stroke:red; stroke-width:1; fill:red; " transform="" cy="992.756759109" cx="1140.61090594" r="5" id="A.f3" d="M 1145.611,992.75677 C 1145.611,995.5182 1143.3724,997.75677 1140.611,997.75677 1137.8495,997.75677 1135.611,995.5182 1135.611,992.75677 1135.611,989.99535 1137.8495,987.75677 1140.611,987.75677 1143.3724,987.75677 1145.611,989.99535 1145.611,992.75677 z" />
      <text style="font-size:30; vertical-align:top; fill-opacity:1.0; fill:darkblue; text-anchor:right; stroke:none; font-weight:normal; font-style:italic; text-align:right; " transform="" id="A.f3.text" y="985.756759109" x="1147.61090594">
f3</text>
      <circle style="stroke:red; stroke-width:1; fill:red; " transform="" cy="1240.15748031" cx="354.330708661" r="5" id="A.f4" d="M 359.33072,1240.1575 C 359.33072,1242.9189 357.09214,1245.1575 354.33072,1245.1575 351.5693,1245.1575 349.33072,1242.9189 349.33072,1240.1575 349.33072,1237.396 351.5693,1235.1575 354.33072,1235.1575 357.09214,1235.1575 359.33072,1237.396 359.33072,1240.1575 z" />
      <text style="font-size:30; vertical-align:top; fill-opacity:1.0; fill:darkblue; text-anchor:right; stroke:none; font-weight:normal; font-style:italic; text-align:right; " transform="" id="A.f4.text" y="1233.15748031" x="361.330708661">
f4</text>
      <circle style="stroke:red; stroke-width:1; fill:red; " transform="" cy="1150.61284812" cx="670.334447545" r="5" id="A.f5" d="M 675.33447,1150.6128 C 675.33447,1153.3742 673.0959,1155.6128 670.33447,1155.6128 667.57305,1155.6128 665.33447,1153.3742 665.33447,1150.6128 665.33447,1147.8514 667.57305,1145.6128 670.33447,1145.6128 673.0959,1145.6128 675.33447,1147.8514 675.33447,1150.6128 z" />
      <text style="font-size:30; vertical-align:top; fill-opacity:1.0; fill:darkblue; text-anchor:right; stroke:none; font-weight:normal; font-style:italic; text-align:right; " transform="" id="A.f5.text" y="1143.61284812" x="677.334447545">
f5</text>
      <circle style="stroke:red; stroke-width:1; fill:red; " transform="" cy="977.505005481" cx="1187.46517297" r="5" id="A.f6" d="M 1192.4652,977.505 C 1192.4652,980.26643 1190.2266,982.505 1187.4652,982.505 1184.7038,982.505 1182.4652,980.26643 1182.4652,977.505 1182.4652,974.74358 1184.7038,972.505 1187.4652,972.505 1190.2266,972.505 1192.4652,974.74358 1192.4652,977.505 z" />
      <text style="font-size:30; vertical-align:top; fill-opacity:1.0; fill:darkblue; text-anchor:right; stroke:none; font-weight:normal; font-style:italic; text-align:right; " transform="" id="A.f6.text" y="970.505005481" x="1194.46517297">
f6</text>
      <circle style="stroke:red; stroke-width:1; fill:red; " transform="" cy="295.229658052" cx="993.969241709" r="5" id="A.f7" d="M 998.96924,295.22964 C 998.96924,297.99107 996.73066,300.22964 993.96924,300.22964 991.20781,300.22964 988.96924,297.99107 988.96924,295.22964 988.96924,292.46822 991.20781,290.22964 993.96924,290.22964 996.73066,290.22964 998.96924,292.46822 998.96924,295.22964 z" />
      <text style="font-size:30; vertical-align:top; fill-opacity:1.0; fill:darkblue; text-anchor:right; stroke:none; font-weight:normal; font-style:italic; text-align:right; " transform="" id="A.f7.text" y="288.229658052" x="1000.96924171">
f7</text>
      <circle style="stroke:red; stroke-width:1; fill:red; " transform="" cy="418.228595509" cx="1028.8522168" r="5" id="A.FBS" d="M 1033.8522,418.22861 C 1033.8522,420.99003 1031.6136,423.22861 1028.8522,423.22861 1026.0907,423.22861 1023.8522,420.99003 1023.8522,418.22861 1023.8522,415.46718 1026.0907,413.22861 1028.8522,413.22861 1031.6136,413.22861 1033.8522,415.46718 1033.8522,418.22861 z" />
      <text style="font-size:30; vertical-align:top; fill-opacity:1.0; fill:darkblue; text-anchor:right; stroke:none; font-weight:normal; font-style:italic; text-align:right; " transform="" id="A.FBS.text" y="411.228595509" x="1035.8522168">
FBS</text>
      <circle style="stroke:gray; stroke-width:1; fill:none; " transform="" cy="437.27316057" cx="900.773673277" r="5" id="A.FUS.outpoint" d="M 905.77368,437.27316 C 905.77368,440.03459 903.53511,442.27316 900.77368,442.27316 898.01226,442.27316 895.77368,440.03459 895.77368,437.27316 895.77368,434.51174 898.01226,432.27316 900.77368,432.27316 903.53511,432.27316 905.77368,434.51174 905.77368,437.27316 z" />
      <text style="font-size:25; vertical-align:top; fill-opacity:1.0; fill:gray; text-anchor:right; stroke:none; font-weight:normal; font-style:italic; text-align:right; " transform="" id="A.FUS.outpoint.text" y="430.27316057" x="907.773673277">
FUS.out</text>
      <circle style="stroke:red; stroke-width:1; fill:red; " transform="" cy="397.495711804" cx="1022.97229067" r="5" id="A.FUS" d="M 1027.9723,397.4957 C 1027.9723,400.25712 1025.7337,402.4957 1022.9723,402.4957 1020.2109,402.4957 1017.9723,400.25712 1017.9723,397.4957 1017.9723,394.73427 1020.2109,392.4957 1022.9723,392.4957 1025.7337,392.4957 1027.9723,394.73427 1027.9723,397.4957 z" />
      <text style="font-size:30; vertical-align:top; fill-opacity:1.0; fill:darkblue; text-anchor:right; stroke:none; font-weight:normal; font-style:italic; text-align:right; " transform="" id="A.FUS.text" y="390.495711804" x="1029.97229067">
FUS</text>
      <circle style="stroke:gray; stroke-width:1; fill:none; " transform="" cy="1202.2485947" cx="856.949499848" r="5" id="A.FWS.inpoint" d="M 861.94952,1202.2485 C 861.94952,1205.01 859.71095,1207.2485 856.94952,1207.2485 854.1881,1207.2485 851.94952,1205.01 851.94952,1202.2485 851.94952,1199.4871 854.1881,1197.2485 856.94952,1197.2485 859.71095,1197.2485 861.94952,1199.4871 861.94952,1202.2485 z" />
      <text style="font-size:25; vertical-align:top; fill-opacity:1.0; fill:gray; text-anchor:right; stroke:none; font-weight:normal; font-style:italic; text-align:right; " transform="" id="A.FWS.inpoint.text" y="1195.2485947" x="863.949499848">
FWS.in</text>
      <circle style="stroke:red; stroke-width:1; fill:red; " transform="" cy="1191.7749495" cx="1063.28928086" r="5" id="A.FWS" d="M 1068.2893,1191.7749 C 1068.2893,1194.5363 1066.0507,1196.7749 1063.2893,1196.7749 1060.5279,1196.7749 1058.2893,1194.5363 1058.2893,1191.7749 1058.2893,1189.0135 1060.5279,1186.7749 1063.2893,1186.7749 1066.0507,1186.7749 1068.2893,1189.0135 1068.2893,1191.7749 z" />
      <text style="font-size:30; vertical-align:top; fill-opacity:1.0; fill:darkblue; text-anchor:right; stroke:none; font-weight:normal; font-style:italic; text-align:right; " transform="" id="A.FWS.text" y="1184.7749495" x="1070.28928086">
FWS</text>
      <circle style="stroke:red; stroke-width:1; fill:red; " transform="" cy="637.795275591" cx="442.745684951" r="5" id="A.FD2" d="M 447.7457,637.79529 C 447.7457,640.55671 445.50712,642.79529 442.7457,642.79529 439.98427,642.79529 437.7457,640.55671 437.7457,637.79529 437.7457,635.03386 439.98427,632.79529 442.7457,632.79529 445.50712,632.79529 447.7457,635.03386 447.7457,637.79529 z" />
      <text style="font-size:30; vertical-align:top; fill-opacity:1.0; fill:darkblue; text-anchor:right; stroke:none; font-weight:normal; font-style:italic; text-align:right; " transform="" id="A.FD2.text" y="630.795275591" x="449.745684951">
FD2</text>
      <circle style="stroke:red; stroke-width:1; fill:red; " transform="" cy="637.795275591" cx="1094.54185159" r="5" id="A.FD2.i" d="M 1099.5419,637.79529 C 1099.5419,640.55671 1097.3033,642.79529 1094.5419,642.79529 1091.7804,642.79529 1089.5419,640.55671 1089.5419,637.79529 1089.5419,635.03386 1091.7804,632.79529 1094.5419,632.79529 1097.3033,632.79529 1099.5419,635.03386 1099.5419,637.79529 z" />
      <text style="font-size:30; vertical-align:top; fill-opacity:1.0; fill:darkblue; text-anchor:right; stroke:none; font-weight:normal; font-style:italic; text-align:right; " transform="" id="A.FD2.i.text" y="630.795275591" x="1101.54185159">
FD2.i</text>
      <circle style="stroke:red; stroke-width:1; fill:red; " transform="" cy="838.552215645" cx="1062.85446078" r="5" id="A.FD2.o" d="M 1067.8545,838.55225 C 1067.8545,841.31367 1065.6159,843.55225 1062.8545,843.55225 1060.0931,843.55225 1057.8545,841.31367 1057.8545,838.55225 1057.8545,835.79082 1060.0931,833.55225 1062.8545,833.55225 1065.6159,833.55225 1067.8545,835.79082 1067.8545,838.55225 z" />
      <text style="font-size:30; vertical-align:top; fill-opacity:1.0; fill:darkblue; text-anchor:right; stroke:none; font-weight:normal; font-style:italic; text-align:right; " transform="" id="A.FD2.o.text" y="831.552215645" x="1069.85446078">
FD2.o</text>
      <circle style="stroke:red; stroke-width:1; fill:red; " transform="" cy="1240.15748031" cx="270.633997225" r="5" id="A.f8" d="M 275.634,1240.1575 C 275.634,1242.9189 273.39543,1245.1575 270.634,1245.1575 267.87258,1245.1575 265.634,1242.9189 265.634,1240.1575 265.634,1237.396 267.87258,1235.1575 270.634,1235.1575 273.39543,1235.1575 275.634,1237.396 275.634,1240.1575 z" />
      <text style="font-size:30; vertical-align:top; fill-opacity:1.0; fill:darkblue; text-anchor:right; stroke:none; font-weight:normal; font-style:italic; text-align:right; " transform="" id="A.f8.text" y="1233.15748031" x="277.633997225">
f8</text>
      <circle style="stroke:red; stroke-width:1; fill:red; " transform="" cy="1240.15748031" cx="438.027420098" r="5" id="A.f9" d="M 443.02744,1240.1575 C 443.02744,1242.9189 440.78886,1245.1575 438.02744,1245.1575 435.26601,1245.1575 433.02744,1242.9189 433.02744,1240.1575 433.02744,1237.396 435.26601,1235.1575 438.02744,1235.1575 440.78886,1235.1575 443.02744,1237.396 443.02744,1240.1575 z" />
      <text style="font-size:30; vertical-align:top; fill-opacity:1.0; fill:darkblue; text-anchor:right; stroke:none; font-weight:normal; font-style:italic; text-align:right; " transform="" id="A.f9.text" y="1233.15748031" x="445.027420098">
f9</text>
      <circle style="stroke:red; stroke-width:1; fill:red; " transform="" cy="710.078740157" cx="354.330708661" r="5" id="A.FD1" d="M 359.33072,710.07874 C 359.33072,712.84016 357.09214,715.07874 354.33072,715.07874 351.5693,715.07874 349.33072,712.84016 349.33072,710.07874 349.33072,707.31731 351.5693,705.07874 354.33072,705.07874 357.09214,705.07874 359.33072,707.31731 359.33072,710.07874 z" />
      <text style="font-size:30; vertical-align:top; fill-opacity:1.0; fill:darkblue; text-anchor:right; stroke:none; font-weight:normal; font-style:italic; text-align:right; " transform="" id="A.FD1.text" y="703.078740157" x="361.330708661">
FD1</text>
      <circle style="stroke:gray; stroke-width:1; fill:none; " transform="" cy="1240.15748031" cx="169.417059436" r="5" id="A.FD1.i.inpoint" d="M 174.41705,1240.1575 C 174.41705,1242.9189 172.17848,1245.1575 169.41705,1245.1575 166.65563,1245.1575 164.41705,1242.9189 164.41705,1240.1575 164.41705,1237.396 166.65563,1235.1575 169.41705,1235.1575 172.17848,1235.1575 174.41705,1237.396 174.41705,1240.1575 z" />
      <text style="font-size:25; vertical-align:top; fill-opacity:1.0; fill:gray; text-anchor:right; stroke:none; font-weight:normal; font-style:italic; text-align:right; " transform="" id="A.FD1.i.inpoint.text" y="1233.15748031" x="176.417059436">
FD1.i.in</text>
      <circle style="stroke:red; stroke-width:1; fill:red; " transform="" cy="1255.75037202" cx="268.171959685" r="5" id="A.FD1.i" d="M 273.17197,1255.7504 C 273.17197,1258.5118 270.93339,1260.7504 268.17197,1260.7504 265.41054,1260.7504 263.17197,1258.5118 263.17197,1255.7504 263.17197,1252.9889 265.41054,1250.7504 268.17197,1250.7504 270.93339,1250.7504 273.17197,1252.9889 273.17197,1255.7504 z" />
      <text style="font-size:30; vertical-align:top; fill-opacity:1.0; fill:darkblue; text-anchor:right; stroke:none; font-weight:normal; font-style:italic; text-align:right; " transform="" id="A.FD1.i.text" y="1248.75037202" x="275.171959685">
FD1.i</text>
      <circle style="stroke:gray; stroke-width:1; fill:none; " transform="" cy="1224.79823872" cx="636.519475316" r="5" id="A.FD1.o.outpoint" d="M 641.51947,1224.7982 C 641.51947,1227.5596 639.28089,1229.7982 636.51947,1229.7982 633.75805,1229.7982 631.51947,1227.5596 631.51947,1224.7982 631.51947,1222.0368 633.75805,1219.7982 636.51947,1219.7982 639.28089,1219.7982 641.51947,1222.0368 641.51947,1224.7982 z" />
      <text style="font-size:25; vertical-align:top; fill-opacity:1.0; fill:gray; text-anchor:right; stroke:none; font-weight:normal; font-style:italic; text-align:right; " transform="" id="A.FD1.o.outpoint.text" y="1217.79823872" x="643.519475316">
FD1.o.out</text>
      <circle style="stroke:red; stroke-width:1; fill:red; " transform="" cy="1255.75037202" cx="440.489457638" r="5" id="A.FD1.o" d="M 445.48947,1255.7504 C 445.48947,1258.5118 443.2509,1260.7504 440.48947,1260.7504 437.72805,1260.7504 435.48947,1258.5118 435.48947,1255.7504 435.48947,1252.9889 437.72805,1250.7504 440.48947,1250.7504 443.2509,1250.7504 445.48947,1252.9889 445.48947,1255.7504 z" />
      <text style="font-size:30; vertical-align:top; fill-opacity:1.0; fill:darkblue; text-anchor:right; stroke:none; font-weight:normal; font-style:italic; text-align:right; " transform="" id="A.FD1.o.text" y="1248.75037202" x="447.489457638">
FD1.o</text>
      <circle style="stroke:gray; stroke-width:1; fill:none; " transform="" cy="209.229473702" cx="668.093612079" r="5" id="A.FIP.inpoint" d="M 673.09363,209.22948 C 673.09363,211.9909 670.85505,214.22948 668.09363,214.22948 665.3322,214.22948 663.09363,211.9909 663.09363,209.22948 663.09363,206.46805 665.3322,204.22948 668.09363,204.22948 670.85505,204.22948 673.09363,206.46805 673.09363,209.22948 z" />
      <text style="font-size:25; vertical-align:top; fill-opacity:1.0; fill:gray; text-anchor:right; stroke:none; font-weight:normal; font-style:italic; text-align:right; " transform="" id="A.FIP.inpoint.text" y="202.229473702" x="675.093612079">
FIP.in</text>
      <circle style="stroke:gray; stroke-width:1; fill:none; " transform="" cy="43.6600252751" cx="657.345250276" r="5" id="A.FIP.outpoint" d="M 662.34528,43.660027 C 662.34528,46.42145 660.1067,48.660027 657.34528,48.660027 654.58385,48.660027 652.34528,46.42145 652.34528,43.660027 652.34528,40.898603 654.58385,38.660027 657.34528,38.660027 660.1067,38.660027 662.34528,40.898603 662.34528,43.660027 z" />
      <text style="font-size:25; vertical-align:top; fill-opacity:1.0; fill:gray; text-anchor:right; stroke:none; font-weight:normal; font-style:italic; text-align:right; " transform="" id="A.FIP.outpoint.text" y="36.6600252751" x="664.345250276">
FIP.out</text>
      <circle style="stroke:red; stroke-width:1; fill:red; " transform="" cy="159.448818898" cx="664.861974276" r="5" id="A.FIP" d="M 669.862,159.44882 C 669.862,162.21025 667.62342,164.44882 664.862,164.44882 662.10058,164.44882 659.862,162.21025 659.862,159.44882 659.862,156.6874 662.10058,154.44882 664.862,154.44882 667.62342,154.44882 669.862,156.6874 669.862,159.44882 z" />
      <text style="font-size:30; vertical-align:top; fill-opacity:1.0; fill:darkblue; text-anchor:right; stroke:none; font-weight:normal; font-style:italic; text-align:right; " transform="" id="A.FIP.text" y="152.448818898" x="671.861974276">
FIP</text>
      <path style="stroke-linejoin:miter; stroke-dashoffset:0; stroke:gray; stroke-miterlimit:4; stroke-dasharray:6,6; stroke-width:2; fill:none; " transform="" d="M 0.0  1240.15748031 L 717.519685039  -223.334513127 L 717.519685039  -318.897637795 L 0.0  -318.897637795 L 0.0  0.0 M 0.0  637.795275591 L 354.330708661  637.795275591 L 1028.8522168  418.228595509 M 0.0  318.897637795 L 921.25984252  318.897637795 L 993.969241709  295.229658052 L 1187.46517297  977.505005481 L 1140.61090594  992.756759109 L 921.25984252  318.897637795 M 0.0  1240.15748031 L 354.330708661  1240.15748031 L 354.330708661  637.795275591 L 670.334447545  1150.61284812 L 1140.61090594  992.756759109 M 354.330708661  637.795275591 L 442.745684951  637.795275591 " id="A.gridline" />
    </g>
    <g id="document.bodice.Bodice Back.reference" transform=" translate(2379.756512, 580.552283)">
      <circle style="stroke:gray; stroke-width:1; fill:none; " transform="" cy="0.0" cx="-213.353231784" r="5" id="B.BNC.inpoint" d="M -208.35323,0 C -208.35323,2.7614237 -210.5918,5 -213.35323,5 -216.11465,5 -218.35323,2.7614237 -218.35323,0 -218.35323,-2.7614237 -216.11465,-5 -213.35323,-5 -210.5918,-5 -208.35323,-2.7614237 -208.35323,0 z" />
      <text style="font-size:25; vertical-align:top; fill-opacity:1.0; fill:gray; text-anchor:right; stroke:none; font-weight:normal; font-style:italic; text-align:right; " transform="" id="B.BNC.inpoint.text" y="-7.0" x="-206.353231784">
BNC.in</text>
      <circle style="stroke:red; stroke-width:1; fill:red; " transform="" cy="0.0" cx="0.0" r="5" id="B.BNC" d="M 5,0 C 5,2.7614237 2.7614237,5 0,5 -2.7614237,5 -5,2.7614237 -5,0 -5,-2.7614237 -2.7614237,-5 0,-5 2.7614237,-5 5,-2.7614237 5,0 z" />
      <text style="font-size:30; vertical-align:top; fill-opacity:1.0; fill:darkblue; text-anchor:right; stroke:none; font-weight:normal; font-style:italic; text-align:right; " transform="" id="B.BNC.text" y="-7.0" x="7.0">
BNC</text>
      <circle style="stroke:gray; stroke-width:1; fill:none; " transform="" cy="1346.45669291" cx="-101.065792802" r="5" id="B.BWC.outpoint" d="M -96.065796,1346.4567 C -96.065796,1349.2181 -98.304372,1351.4567 -101.0658,1351.4567 -103.82722,1351.4567 -106.0658,1349.2181 -106.0658,1346.4567 -106.0658,1343.6952 -103.82722,1341.4567 -101.0658,1341.4567 -98.304372,1341.4567 -96.065796,1343.6952 -96.065796,1346.4567 z" />
      <text style="font-size:25; vertical-align:top; fill-opacity:1.0; fill:gray; text-anchor:right; stroke:none; font-weight:normal; font-style:italic; text-align:right; " transform="" id="B.BWC.outpoint.text" y="1339.45669291" x="-94.0657928018">
BWC.out</text>
      <circle style="stroke:red; stroke-width:1; fill:red; " transform="" cy="1346.45669291" cx="0.0" r="5" id="B.BWC" d="M 5,1346.4567 C 5,1349.2181 2.7614237,1351.4567 0,1351.4567 -2.7614237,1351.4567 -5,1349.2181 -5,1346.4567 -5,1343.6952 -2.7614237,1341.4567 0,1341.4567 2.7614237,1341.4567 5,1343.6952 5,1346.4567 z" />
      <text style="font-size:30; vertical-align:top; fill-opacity:1.0; fill:darkblue; text-anchor:right; stroke:none; font-weight:normal; font-style:italic; text-align:right; " transform="" id="B.BWC.text" y="1339.45669291" x="7.0">
BWC</text>
      <circle style="stroke:red; stroke-width:1; fill:red; " transform="" cy="-141.732283465" cx="0.0" r="5" id="B.BSH" d="M 5,-141.73228 C 5,-138.97086 2.7614237,-136.73228 0,-136.73228 -2.7614237,-136.73228 -5,-138.97086 -5,-141.73228 -5,-144.49371 -2.7614237,-146.73228 0,-146.73228 2.7614237,-146.73228 5,-144.49371 5,-141.73228 z" />
      <text style="font-size:30; vertical-align:top; fill-opacity:1.0; fill:darkblue; text-anchor:right; stroke:none; font-weight:normal; font-style:italic; text-align:right; " transform="" id="B.BSH.text" y="-148.732283465" x="7.0">
BSH</text>
      <circle style="stroke:red; stroke-width:1; fill:red; " transform="" cy="-141.732283465" cx="-708.661417323" r="5" id="B.BSW" d="M -703.66144,-141.73228 C -703.66144,-138.97086 -705.90001,-136.73228 -708.66144,-136.73228 -711.42286,-136.73228 -713.66144,-138.97086 -713.66144,-141.73228 -713.66144,-144.49371 -711.42286,-146.73228 -708.66144,-146.73228 -705.90001,-146.73228 -703.66144,-144.49371 -703.66144,-141.73228 z" />
      <text style="font-size:30; vertical-align:top; fill-opacity:1.0; fill:darkblue; text-anchor:right; stroke:none; font-weight:normal; font-style:italic; text-align:right; " transform="" id="B.BSW.text" y="-148.732283465" x="-701.661417323">
BSW</text>
      <circle style="stroke:gray; stroke-width:1; fill:none; " transform="" cy="121.107549166" cx="-673.409406866" r="5" id="B.BSP.inpoint" d="M -668.40942,121.10755 C -668.40942,123.86898 -670.648,126.10755 -673.40942,126.10755 -676.17085,126.10755 -678.40942,123.86898 -678.40942,121.10755 -678.40942,118.34613 -676.17085,116.10755 -673.40942,116.10755 -670.648,116.10755 -668.40942,118.34613 -668.40942,121.10755 z" />
      <text style="font-size:25; vertical-align:top; fill-opacity:1.0; fill:gray; text-anchor:right; stroke:none; font-weight:normal; font-style:italic; text-align:right; " transform="" id="B.BSP.inpoint.text" y="114.107549166" x="-666.409406866">
BSP.in</text>
      <circle style="stroke:red; stroke-width:1; fill:red; " transform="" cy="37.8293872947" cx="-708.661417323" r="5" id="B.BSP" d="M -703.66144,37.829388 C -703.66144,40.590811 -705.90001,42.829388 -708.66144,42.829388 -711.42286,42.829388 -713.66144,40.590811 -713.66144,37.829388 -713.66144,35.067964 -711.42286,32.829388 -708.66144,32.829388 -705.90001,32.829388 -703.66144,35.067964 -703.66144,37.829388 z" />
      <text style="font-size:30; vertical-align:top; fill-opacity:1.0; fill:darkblue; text-anchor:right; stroke:none; font-weight:normal; font-style:italic; text-align:right; " transform="" id="B.BSP.text" y="30.8293872947" x="-701.661417323">
BSP</text>
      <circle style="stroke:gray; stroke-width:1; fill:none; " transform="" cy="-78.3927191927" cx="-252.688753608" r="5" id="B.BNS.outpoint" d="M -247.68875,-78.392715 C -247.68875,-75.631292 -249.92733,-73.392715 -252.68875,-73.392715 -255.45017,-73.392715 -257.68875,-75.631292 -257.68875,-78.392715 -257.68875,-81.154139 -255.45017,-83.392715 -252.68875,-83.392715 -249.92733,-83.392715 -247.68875,-81.154139 -247.68875,-78.392715 z" />
      <text style="font-size:25; vertical-align:top; fill-opacity:1.0; fill:gray; text-anchor:right; stroke:none; font-weight:normal; font-style:italic; text-align:right; " transform="" id="B.BNS.outpoint.text" y="-85.3927191927" x="-245.688753608">
BNS.out</text>
      <circle style="stroke:red; stroke-width:1; fill:red; " transform="" cy="-141.732283465" cx="-284.470975712" r="5" id="B.BNS" d="M -279.47098,-141.73228 C -279.47098,-138.97086 -281.70955,-136.73228 -284.47098,-136.73228 -287.2324,-136.73228 -289.47098,-138.97086 -289.47098,-141.73228 -289.47098,-144.49371 -287.2324,-146.73228 -284.47098,-146.73228 -281.70955,-146.73228 -279.47098,-144.49371 -279.47098,-141.73228 z" />
      <text style="font-size:30; vertical-align:top; fill-opacity:1.0; fill:darkblue; text-anchor:right; stroke:none; font-weight:normal; font-style:italic; text-align:right; " transform="" id="B.BNS.text" y="-148.732283465" x="-277.470975712">
BNS</text>
      <circle style="stroke:red; stroke-width:1; fill:red; " transform="" cy="637.795275591" cx="0.0" r="5" id="B.BUC" d="M 5,637.79529 C 5,640.55671 2.7614237,642.79529 0,642.79529 -2.7614237,642.79529 -5,640.55671 -5,637.79529 -5,635.03386 -2.7614237,632.79529 0,632.79529 2.7614237,632.79529 5,635.03386 5,637.79529 z" />
      <text style="font-size:30; vertical-align:top; fill-opacity:1.0; fill:darkblue; text-anchor:right; stroke:none; font-weight:normal; font-style:italic; text-align:right; " transform="" id="B.BUC.text" y="630.795275591" x="7.0">
BUC</text>
      <circle style="stroke:gray; stroke-width:1; fill:none; " transform="" cy="710.837021319" cx="-683.651555005" r="5" id="B.BAP.inpoint" d="M -678.65155,710.83704 C -678.65155,713.59846 -680.89013,715.83704 -683.65155,715.83704 -686.41297,715.83704 -688.65155,713.59846 -688.65155,710.83704 -688.65155,708.07561 -686.41297,705.83704 -683.65155,705.83704 -680.89013,705.83704 -678.65155,708.07561 -678.65155,710.83704 z" />
      <text style="font-size:25; vertical-align:top; fill-opacity:1.0; fill:gray; text-anchor:right; stroke:none; font-weight:normal; font-style:italic; text-align:right; " transform="" id="B.BAP.inpoint.text" y="703.837021319" x="-676.651555005">
BAP.in</text>
      <circle style="stroke:gray; stroke-width:1; fill:none; " transform="" cy="457.616302704" cx="-565.091348135" r="5" id="B.BAP.outpoint" d="M -560.09137,457.6163 C -560.09137,460.37773 -562.32995,462.6163 -565.09137,462.6163 -567.85279,462.6163 -570.09137,460.37773 -570.09137,457.6163 -570.09137,454.85488 -567.85279,452.6163 -565.09137,452.6163 -562.32995,452.6163 -560.09137,454.85488 -560.09137,457.6163 z" />
      <text style="font-size:25; vertical-align:top; fill-opacity:1.0; fill:gray; text-anchor:right; stroke:none; font-weight:normal; font-style:italic; text-align:right; " transform="" id="B.BAP.outpoint.text" y="450.616302704" x="-558.091348135">
BAP.out</text>
      <circle style="stroke:red; stroke-width:1; fill:red; " transform="" cy="637.795275591" cx="-649.452755906" r="5" id="B.BAP" d="M -644.45276,637.79529 C -644.45276,640.55671 -646.69134,642.79529 -649.45276,642.79529 -652.21418,642.79529 -654.45276,640.55671 -654.45276,637.79529 -654.45276,635.03386 -652.21418,632.79529 -649.45276,632.79529 -646.69134,632.79529 -644.45276,635.03386 -644.45276,637.79529 z" />
      <text style="font-size:30; vertical-align:top; fill-opacity:1.0; fill:darkblue; text-anchor:right; stroke:none; font-weight:normal; font-style:italic; text-align:right; " transform="" id="B.BAP.text" y="630.795275591" x="-642.452755906">
BAP</text>
      <circle style="stroke:red; stroke-width:1; fill:red; " transform="" cy="637.795275591" cx="-885.826771654" r="5" id="B.b1" d="M -880.82678,637.79529 C -880.82678,640.55671 -883.06536,642.79529 -885.82678,642.79529 -888.58821,642.79529 -890.82678,640.55671 -890.82678,637.79529 -890.82678,635.03386 -888.58821,632.79529 -885.82678,632.79529 -883.06536,632.79529 -880.82678,635.03386 -880.82678,637.79529 z" />
      <text style="font-size:30; vertical-align:top; fill-opacity:1.0; fill:darkblue; text-anchor:right; stroke:none; font-weight:normal; font-style:italic; text-align:right; " transform="" id="B.b1.text" y="630.795275591" x="-878.826771654">
b1</text>
      <circle style="stroke:red; stroke-width:1; fill:red; " transform="" cy="637.795275591" cx="-383.761673202" r="5" id="B.BD1" d="M -378.76169,637.79529 C -378.76169,640.55671 -381.00026,642.79529 -383.76169,642.79529 -386.52311,642.79529 -388.76169,640.55671 -388.76169,637.79529 -388.76169,635.03386 -386.52311,632.79529 -383.76169,632.79529 -381.00026,632.79529 -378.76169,635.03386 -378.76169,637.79529 z" />
      <text style="font-size:30; vertical-align:top; fill-opacity:1.0; fill:darkblue; text-anchor:right; stroke:none; font-weight:normal; font-style:italic; text-align:right; " transform="" id="B.BD1.text" y="630.795275591" x="-376.761673202">
BD1</text>
      <circle style="stroke:red; stroke-width:1; fill:red; " transform="" cy="1346.45669291" cx="-383.761673202" r="5" id="B.b2" d="M -378.76169,1346.4567 C -378.76169,1349.2181 -381.00026,1351.4567 -383.76169,1351.4567 -386.52311,1351.4567 -388.76169,1349.2181 -388.76169,1346.4567 -388.76169,1343.6952 -386.52311,1341.4567 -383.76169,1341.4567 -381.00026,1341.4567 -378.76169,1343.6952 -378.76169,1346.4567 z" />
      <text style="font-size:30; vertical-align:top; fill-opacity:1.0; fill:darkblue; text-anchor:right; stroke:none; font-weight:normal; font-style:italic; text-align:right; " transform="" id="B.b2.text" y="1339.45669291" x="-376.761673202">
b2</text>
      <circle style="stroke:red; stroke-width:1; fill:red; " transform="" cy="1346.45669291" cx="-307.009338562" r="5" id="B.b3" d="M -302.00934,1346.4567 C -302.00934,1349.2181 -304.24791,1351.4567 -307.00934,1351.4567 -309.77076,1351.4567 -312.00934,1349.2181 -312.00934,1346.4567 -312.00934,1343.6952 -309.77076,1341.4567 -307.00934,1341.4567 -304.24791,1341.4567 -302.00934,1343.6952 -302.00934,1346.4567 z" />
      <text style="font-size:30; vertical-align:top; fill-opacity:1.0; fill:darkblue; text-anchor:right; stroke:none; font-weight:normal; font-style:italic; text-align:right; " transform="" id="B.b3.text" y="1339.45669291" x="-300.009338562">
b3</text>
      <circle style="stroke:red; stroke-width:1; fill:red; " transform="" cy="1346.45669291" cx="-460.514007842" r="5" id="B.b4" d="M -455.51401,1346.4567 C -455.51401,1349.2181 -457.75258,1351.4567 -460.51401,1351.4567 -463.27543,1351.4567 -465.51401,1349.2181 -465.51401,1346.4567 -465.51401,1343.6952 -463.27543,1341.4567 -460.51401,1341.4567 -457.75258,1341.4567 -455.51401,1343.6952 -455.51401,1346.4567 z" />
      <text style="font-size:30; vertical-align:top; fill-opacity:1.0; fill:darkblue; text-anchor:right; stroke:none; font-weight:normal; font-style:italic; text-align:right; " transform="" id="B.b4.text" y="1339.45669291" x="-453.514007842">
b4</text>
      <circle style="stroke:gray; stroke-width:1; fill:none; " transform="" cy="1346.45669291" cx="-233.704316826" r="5" id="B.BD1.i.inpoint" d="M -228.70432,1346.4567 C -228.70432,1349.2181 -230.94289,1351.4567 -233.70432,1351.4567 -236.46574,1351.4567 -238.70432,1349.2181 -238.70432,1346.4567 -238.70432,1343.6952 -236.46574,1341.4567 -233.70432,1341.4567 -230.94289,1341.4567 -228.70432,1343.6952 -228.70432,1346.4567 z" />
      <text style="font-size:25; vertical-align:top; fill-opacity:1.0; fill:gray; text-anchor:right; stroke:none; font-weight:normal; font-style:italic; text-align:right; " transform="" id="B.BD1.i.inpoint.text" y="1339.45669291" x="-226.704316826">
BD1.i.in</text>
      <circle style="stroke:red; stroke-width:1; fill:red; " transform="" cy="1354.30402112" cx="-306.159425266" r="5" id="B.BD1.i" d="M -301.15942,1354.3041 C -301.15942,1357.0655 -303.398,1359.3041 -306.15942,1359.3041 -308.92085,1359.3041 -311.15942,1357.0655 -311.15942,1354.3041 -311.15942,1351.5427 -308.92085,1349.3041 -306.15942,1349.3041 -303.398,1349.3041 -301.15942,1351.5427 -301.15942,1354.3041 z" />
      <text style="font-size:30; vertical-align:top; fill-opacity:1.0; fill:darkblue; text-anchor:right; stroke:none; font-weight:normal; font-style:italic; text-align:right; " transform="" id="B.BD1.i.text" y="1347.30402112" x="-299.159425266">
BD1.i</text>
      <circle style="stroke:gray; stroke-width:1; fill:none; " transform="" cy="1345.99582331" cx="-538.074281339" r="5" id="B.BD1.o.outpoint" d="M -533.07428,1345.9958 C -533.07428,1348.7573 -535.31286,1350.9958 -538.07428,1350.9958 -540.8357,1350.9958 -543.07428,1348.7573 -543.07428,1345.9958 -543.07428,1343.2344 -540.8357,1340.9958 -538.07428,1340.9958 -535.31286,1340.9958 -533.07428,1343.2344 -533.07428,1345.9958 z" />
      <text style="font-size:25; vertical-align:top; fill-opacity:1.0; fill:gray; text-anchor:right; stroke:none; font-weight:normal; font-style:italic; text-align:right; " transform="" id="B.BD1.o.outpoint.text" y="1338.99582331" x="-531.074281339">
BD1.o.out</text>
      <circle style="stroke:red; stroke-width:1; fill:red; " transform="" cy="1354.30402112" cx="-461.363921138" r="5" id="B.BD1.o" d="M -456.36392,1354.3041 C -456.36392,1357.0655 -458.6025,1359.3041 -461.36392,1359.3041 -464.12535,1359.3041 -466.36392,1357.0655 -466.36392,1354.3041 -466.36392,1351.5427 -464.12535,1349.3041 -461.36392,1349.3041 -458.6025,1349.3041 -456.36392,1351.5427 -456.36392,1354.3041 z" />
      <text style="font-size:30; vertical-align:top; fill-opacity:1.0; fill:darkblue; text-anchor:right; stroke:none; font-weight:normal; font-style:italic; text-align:right; " transform="" id="B.BD1.o.text" y="1347.30402112" x="-454.363921138">
BD1.o</text>
      <circle style="stroke:red; stroke-width:1; fill:red; " transform="" cy="1343.98784763" cx="-826.724693851" r="5" id="B.b5" d="M -821.72467,1343.9878 C -821.72467,1346.7492 -823.96325,1348.9878 -826.72467,1348.9878 -829.48609,1348.9878 -831.72467,1346.7492 -831.72467,1343.9878 -831.72467,1341.2264 -829.48609,1338.9878 -826.72467,1338.9878 -823.96325,1338.9878 -821.72467,1341.2264 -821.72467,1343.9878 z" />
      <text style="font-size:30; vertical-align:top; fill-opacity:1.0; fill:darkblue; text-anchor:right; stroke:none; font-weight:normal; font-style:italic; text-align:right; " transform="" id="B.b5.text" y="1336.98784763" x="-819.724693851">
b5</text>
      <circle style="stroke:red; stroke-width:1; fill:red; " transform="" cy="637.795275591" cx="-962.291338583" r="5" id="B.b6" d="M -957.29132,637.79529 C -957.29132,640.55671 -959.5299,642.79529 -962.29132,642.79529 -965.05274,642.79529 -967.29132,640.55671 -967.29132,637.79529 -967.29132,635.03386 -965.05274,632.79529 -962.29132,632.79529 -959.5299,632.79529 -957.29132,635.03386 -957.29132,637.79529 z" />
      <text style="font-size:30; vertical-align:top; fill-opacity:1.0; fill:darkblue; text-anchor:right; stroke:none; font-weight:normal; font-style:italic; text-align:right; " transform="" id="B.b6.text" y="630.795275591" x="-955.291338583">
b6</text>
      <circle style="stroke:gray; stroke-width:1; fill:none; " transform="" cy="1344.80113724" cx="-739.129368008" r="5" id="B.BWS.inpoint" d="M -734.12939,1344.8011 C -734.12939,1347.5626 -736.36797,1349.8011 -739.12939,1349.8011 -741.89082,1349.8011 -744.12939,1347.5626 -744.12939,1344.8011 -744.12939,1342.0397 -741.89082,1339.8011 -739.12939,1339.8011 -736.36797,1339.8011 -734.12939,1342.0397 -734.12939,1344.8011 z" />
      <text style="font-size:25; vertical-align:top; fill-opacity:1.0; fill:gray; text-anchor:right; stroke:none; font-weight:normal; font-style:italic; text-align:right; " transform="" id="B.BWS.inpoint.text" y="1337.80113724" x="-732.129368008">
BWS.in</text>
      <circle style="stroke:red; stroke-width:1; fill:red; " transform="" cy="1343.98784763" cx="-875.998808024" r="5" id="B.BWS" d="M -870.99878,1343.9878 C -870.99878,1346.7492 -873.23736,1348.9878 -875.99878,1348.9878 -878.7602,1348.9878 -880.99878,1346.7492 -880.99878,1343.9878 -880.99878,1341.2264 -878.7602,1338.9878 -875.99878,1338.9878 -873.23736,1338.9878 -870.99878,1341.2264 -870.99878,1343.9878 z" />
      <text style="font-size:30; vertical-align:top; fill-opacity:1.0; fill:darkblue; text-anchor:right; stroke:none; font-weight:normal; font-style:italic; text-align:right; " transform="" id="B.BWS.text" y="1336.98784763" x="-868.998808024">
BWS</text>
      <circle style="stroke:gray; stroke-width:1; fill:none; " transform="" cy="731.303960391" cx="-851.14693672" r="5" id="B.BUS.outpoint" d="M -846.14691,731.30396 C -846.14691,734.06538 -848.38549,736.30396 -851.14691,736.30396 -853.90834,736.30396 -856.14691,734.06538 -856.14691,731.30396 -856.14691,728.54253 -853.90834,726.30396 -851.14691,726.30396 -848.38549,726.30396 -846.14691,728.54253 -846.14691,731.30396 z" />
      <text style="font-size:25; vertical-align:top; fill-opacity:1.0; fill:gray; text-anchor:right; stroke:none; font-weight:normal; font-style:italic; text-align:right; " transform="" id="B.BUS.outpoint.text" y="724.303960391" x="-844.14693672">
BUS.out</text>
      <circle style="stroke:red; stroke-width:1; fill:red; " transform="" cy="743.309668882" cx="-949.398107518" r="5" id="B.BUS" d="M -944.39813,743.30969 C -944.39813,746.07112 -946.63671,748.30969 -949.39813,748.30969 -952.15956,748.30969 -954.39813,746.07112 -954.39813,743.30969 -954.39813,740.54827 -952.15956,738.30969 -949.39813,738.30969 -946.63671,738.30969 -944.39813,740.54827 -944.39813,743.30969 z" />
      <text style="font-size:30; vertical-align:top; fill-opacity:1.0; fill:darkblue; text-anchor:right; stroke:none; font-weight:normal; font-style:italic; text-align:right; " transform="" id="B.BUS.text" y="736.309668882" x="-942.398107518">
BUS</text>
      <circle style="stroke:red; stroke-width:1; fill:red; " transform="" cy="138.801763145" cx="-415.819527212" r="5" id="B.BD2" d="M -410.81952,138.80176 C -410.81952,141.56318 -413.0581,143.80176 -415.81952,143.80176 -418.58094,143.80176 -420.81952,141.56318 -420.81952,138.80176 -420.81952,136.04033 -418.58094,133.80176 -415.81952,133.80176 -413.0581,133.80176 -410.81952,136.04033 -410.81952,138.80176 z" />
      <text style="font-size:30; vertical-align:top; fill-opacity:1.0; fill:darkblue; text-anchor:right; stroke:none; font-weight:normal; font-style:italic; text-align:right; " transform="" id="B.BD2.text" y="131.801763145" x="-408.819527212">
BD2</text>
      <circle style="stroke:red; stroke-width:1; fill:red; " transform="" cy="-66.7825907043" cx="-502.844284109" r="5" id="B.BD2.i" d="M -497.8443,-66.782593 C -497.8443,-64.021169 -500.08288,-61.782593 -502.8443,-61.782593 -505.60572,-61.782593 -507.8443,-64.021169 -507.8443,-66.782593 -507.8443,-69.544017 -505.60572,-71.782593 -502.8443,-71.782593 -500.08288,-71.782593 -497.8443,-69.544017 -497.8443,-66.782593 z" />
      <text style="font-size:30; vertical-align:top; fill-opacity:1.0; fill:darkblue; text-anchor:right; stroke:none; font-weight:normal; font-style:italic; text-align:right; " transform="" id="B.BD2.i.text" y="-73.7825907043" x="-495.844284109">
BD2.i</text>
      <circle style="stroke:red; stroke-width:1; fill:red; " transform="" cy="-52.6703526272" cx="-530.609177191" r="5" id="B.BD2.o" d="M -525.60919,-52.670353 C -525.60919,-49.908929 -527.84777,-47.670353 -530.60919,-47.670353 -533.37062,-47.670353 -535.60919,-49.908929 -535.60919,-52.670353 -535.60919,-55.431777 -533.37062,-57.670353 -530.60919,-57.670353 -527.84777,-57.670353 -525.60919,-55.431777 -525.60919,-52.670353 z" />
      <text style="font-size:30; vertical-align:top; fill-opacity:1.0; fill:darkblue; text-anchor:right; stroke:none; font-weight:normal; font-style:italic; text-align:right; " transform="" id="B.BD2.o.text" y="-59.6703526272" x="-523.609177191">
BD2.o</text>
      <path style="stroke-linejoin:miter; stroke-dashoffset:0; stroke:gray; stroke-miterlimit:4; stroke-dasharray:6,6; stroke-width:2; fill:none; " transform="" d="M 0.0  1346.45669291 L -708.661417323  37.8293872947 L -708.661417323  -141.732283465 L 0.0  -141.732283465 L 0.0  637.795275591 L -962.291338583  637.795275591 L -949.398107518  743.309668882 M -885.826771654  637.795275591 L -826.724693851  1343.98784763 L -875.998808024  1343.98784763 " id="B.gridline" />
    </g>
    <g id="document.bodice.Bodice Sleeve.reference" transform=" translate(666.609535, 2240.279676)">
      <circle style="stroke:gray; stroke-width:1; fill:none; " transform="" cy="0.0" cx="79.5282299015" r="5" id="C.SCM.inpoint" d="M 84.528229,0 C 84.528229,2.7614237 82.289653,5 79.528229,5 76.766805,5 74.528229,2.7614237 74.528229,0 74.528229,-2.7614237 76.766805,-5 79.528229,-5 82.289653,-5 84.528229,-2.7614237 84.528229,0 z" />
      <text style="font-size:25; vertical-align:top; fill-opacity:1.0; fill:gray; text-anchor:right; stroke:none; font-weight:normal; font-style:italic; text-align:right; " transform="" id="C.SCM.inpoint.text" y="-7.0" x="86.5282299015">
SCM.in</text>
      <circle style="stroke:gray; stroke-width:1; fill:none; " transform="" cy="0.0" cx="-60.1376099919" r="5" id="C.SCM.outpoint" d="M -55.137611,0 C -55.137611,2.7614237 -57.376188,5 -60.137611,5 -62.899035,5 -65.137611,2.7614237 -65.137611,0 -65.137611,-2.7614237 -62.899035,-5 -60.137611,-5 -57.376188,-5 -55.137611,-2.7614237 -55.137611,0 z" />
      <text style="font-size:25; vertical-align:top; fill-opacity:1.0; fill:gray; text-anchor:right; stroke:none; font-weight:normal; font-style:italic; text-align:right; " transform="" id="C.SCM.outpoint.text" y="-7.0" x="-53.1376099919">
SCM.out</text>
      <circle style="stroke:red; stroke-width:1; fill:red; " transform="" cy="0.0" cx="0.0" r="5" id="C.SCM" d="M 5,0 C 5,2.7614237 2.7614237,5 0,5 -2.7614237,5 -5,2.7614237 -5,0 -5,-2.7614237 -2.7614237,-5 0,-5 2.7614237,-5 5,-2.7614237 5,0 z" />
      <text style="font-size:30; vertical-align:top; fill-opacity:1.0; fill:darkblue; text-anchor:right; stroke:none; font-weight:normal; font-style:italic; text-align:right; " transform="" id="C.SCM.text" y="-7.0" x="7.0">
SCM</text>
      <circle style="stroke:red; stroke-width:1; fill:red; " transform="" cy="458.097346369" cx="0.0" r="5" id="C.SUM" d="M 5,458.09735 C 5,460.85877 2.7614237,463.09735 0,463.09735 -2.7614237,463.09735 -5,460.85877 -5,458.09735 -5,455.33593 -2.7614237,453.09735 0,453.09735 2.7614237,453.09735 5,455.33593 5,458.09735 z" />
      <text style="font-size:30; vertical-align:top; fill-opacity:1.0; fill:darkblue; text-anchor:right; stroke:none; font-weight:normal; font-style:italic; text-align:right; " transform="" id="C.SUM.text" y="451.097346369" x="7.0">
SUM</text>
      <circle style="stroke:red; stroke-width:1; fill:red; " transform="" cy="229.048673185" cx="0.0" r="5" id="C.S1" d="M 5,229.04868 C 5,231.8101 2.7614237,234.04868 0,234.04868 -2.7614237,234.04868 -5,231.8101 -5,229.04868 -5,226.28725 -2.7614237,224.04868 0,224.04868 2.7614237,224.04868 5,226.28725 5,229.04868 z" />
      <text style="font-size:30; vertical-align:top; fill-opacity:1.0; fill:darkblue; text-anchor:right; stroke:none; font-weight:normal; font-style:italic; text-align:right; " transform="" id="C.S1.text" y="222.048673185" x="7.0">
S1</text>
      <circle style="stroke:red; stroke-width:1; fill:red; " transform="" cy="352.582953077" cx="489.029645221" r="5" id="C.S2" d="M 494.02963,352.58295 C 494.02963,355.34437 491.79106,357.58295 489.02963,357.58295 486.26821,357.58295 484.02963,355.34437 484.02963,352.58295 484.02963,349.82152 486.26821,347.58295 489.02963,347.58295 491.79106,347.58295 494.02963,349.82152 494.02963,352.58295 z" />
      <text style="font-size:30; vertical-align:top; fill-opacity:1.0; fill:darkblue; text-anchor:right; stroke:none; font-weight:normal; font-style:italic; text-align:right; " transform="" id="C.S2.text" y="345.582953077" x="496.029645221">
S2</text>
      <circle style="stroke:red; stroke-width:1; fill:red; " transform="" cy="229.048673185" cx="-311.179400171" r="5" id="C.S3" d="M -306.17941,229.04868 C -306.17941,231.8101 -308.41799,234.04868 -311.17941,234.04868 -313.94084,234.04868 -316.17941,231.8101 -316.17941,229.04868 -316.17941,226.28725 -313.94084,224.04868 -311.17941,224.04868 -308.41799,224.04868 -306.17941,226.28725 -306.17941,229.04868 z" />
      <text style="font-size:30; vertical-align:top; fill-opacity:1.0; fill:darkblue; text-anchor:right; stroke:none; font-weight:normal; font-style:italic; text-align:right; " transform="" id="C.S3.text" y="222.048673185" x="-304.179400171">
S3</text>
      <circle style="stroke:gray; stroke-width:1; fill:none; " transform="" cy="423.356731256" cx="730.93482266" r="5" id="C.S4.outpoint" d="M 735.93481,423.35672 C 735.93481,426.11814 733.69624,428.35672 730.93481,428.35672 728.17339,428.35672 725.93481,426.11814 725.93481,423.35672 725.93481,420.5953 728.17339,418.35672 730.93481,418.35672 733.69624,418.35672 735.93481,420.5953 735.93481,423.35672 z" />
      <text style="font-size:25; vertical-align:top; fill-opacity:1.0; fill:gray; text-anchor:right; stroke:none; font-weight:normal; font-style:italic; text-align:right; " transform="" id="C.S4.outpoint.text" y="416.356731256" x="737.93482266">
S4.out</text>
      <circle style="stroke:red; stroke-width:1; fill:red; " transform="" cy="458.097346369" cx="799.405588134" r="5" id="C.S4" d="M 804.40558,458.09735 C 804.40558,460.85877 802.167,463.09735 799.40558,463.09735 796.64415,463.09735 794.40558,460.85877 794.40558,458.09735 794.40558,455.33593 796.64415,453.09735 799.40558,453.09735 802.167,453.09735 804.40558,455.33593 804.40558,458.09735 z" />
      <text style="font-size:30; vertical-align:top; fill-opacity:1.0; fill:darkblue; text-anchor:right; stroke:none; font-weight:normal; font-style:italic; text-align:right; " transform="" id="C.S4.text" y="451.097346369" x="806.405588134">
S4</text>
      <circle style="stroke:gray; stroke-width:1; fill:none; " transform="" cy="436.110937221" cx="-509.16579681" r="5" id="C.S5.inpoint" d="M -504.1658,436.11093 C -504.1658,438.87236 -506.40438,441.11093 -509.1658,441.11093 -511.92723,441.11093 -514.1658,438.87236 -514.1658,436.11093 -514.1658,433.34951 -511.92723,431.11093 -509.1658,431.11093 -506.40438,431.11093 -504.1658,433.34951 -504.1658,436.11093 z" />
      <text style="font-size:25; vertical-align:top; fill-opacity:1.0; fill:gray; text-anchor:right; stroke:none; font-weight:normal; font-style:italic; text-align:right; " transform="" id="C.S5.inpoint.text" y="429.110937221" x="-502.16579681">
S5.in</text>
      <circle style="stroke:gray; stroke-width:1; fill:none; " transform="" cy="774.413462126" cx="-571.189230374" r="5" id="C.S5.outpoint" d="M -566.18921,774.41345 C -566.18921,777.17488 -568.42779,779.41345 -571.18921,779.41345 -573.95063,779.41345 -576.18921,777.17488 -576.18921,774.41345 -576.18921,771.65203 -573.95063,769.41345 -571.18921,769.41345 -568.42779,769.41345 -566.18921,771.65203 -566.18921,774.41345 z" />
      <text style="font-size:25; vertical-align:top; fill-opacity:1.0; fill:gray; text-anchor:right; stroke:none; font-weight:normal; font-style:italic; text-align:right; " transform="" id="C.S5.outpoint.text" y="767.413462126" x="-564.189230374">
S5.out</text>
      <circle style="stroke:red; stroke-width:1; fill:red; " transform="" cy="458.097346369" cx="-567.010939033" r="5" id="C.S5" d="M -562.01093,458.09735 C -562.01093,460.85877 -564.2495,463.09735 -567.01093,463.09735 -569.77235,463.09735 -572.01093,460.85877 -572.01093,458.09735 -572.01093,455.33593 -569.77235,453.09735 -567.01093,453.09735 -564.2495,453.09735 -562.01093,455.33593 -562.01093,458.09735 z" />
      <text style="font-size:30; vertical-align:top; fill-opacity:1.0; fill:darkblue; text-anchor:right; stroke:none; font-weight:normal; font-style:italic; text-align:right; " transform="" id="C.S5.text" y="451.097346369" x="-560.010939033">
S5</text>
      <circle style="stroke:red; stroke-width:1; fill:red; " transform="" cy="2374.01574803" cx="0.0" r="5" id="C.SWM" d="M 5,2374.0159 C 5,2376.7773 2.7614237,2379.0159 0,2379.0159 -2.7614237,2379.0159 -5,2376.7773 -5,2374.0159 -5,2371.2544 -2.7614237,2369.0159 0,2369.0159 2.7614237,2369.0159 5,2371.2544 5,2374.0159 z" />
      <text style="font-size:30; vertical-align:top; fill-opacity:1.0; fill:darkblue; text-anchor:right; stroke:none; font-weight:normal; font-style:italic; text-align:right; " transform="" id="C.SWM.text" y="2367.01574803" x="7.0">
SWM</text>
      <circle style="stroke:red; stroke-width:1; fill:red; " transform="" cy="1416.0565472" cx="0.0" r="5" id="C.SEM" d="M 5,1416.0565 C 5,1418.8179 2.7614237,1421.0565 0,1421.0565 -2.7614237,1421.0565 -5,1418.8179 -5,1416.0565 -5,1413.2951 -2.7614237,1411.0565 0,1411.0565 2.7614237,1411.0565 5,1413.2951 5,1416.0565 z" />
      <text style="font-size:30; vertical-align:top; fill-opacity:1.0; fill:darkblue; text-anchor:right; stroke:none; font-weight:normal; font-style:italic; text-align:right; " transform="" id="C.SEM.text" y="1409.0565472" x="7.0">
SEM</text>
      <circle style="stroke:red; stroke-width:1; fill:red; " transform="" cy="1416.0565472" cx="690.94488189" r="5" id="C.SEB" d="M 695.94489,1416.0565 C 695.94489,1418.8179 693.70631,1421.0565 690.94489,1421.0565 688.18346,1421.0565 685.94489,1418.8179 685.94489,1416.0565 685.94489,1413.2951 688.18346,1411.0565 690.94489,1411.0565 693.70631,1411.0565 695.94489,1413.2951 695.94489,1416.0565 z" />
      <text style="font-size:30; vertical-align:top; fill-opacity:1.0; fill:darkblue; text-anchor:right; stroke:none; font-weight:normal; font-style:italic; text-align:right; " transform="" id="C.SEB.text" y="1409.0565472" x="697.94488189">
SEB</text>
      <circle style="stroke:gray; stroke-width:1; fill:none; " transform="" cy="1102.79207059" cx="-575.526857917" r="5" id="C.SEF.inpoint" d="M -570.52686,1102.7921 C -570.52686,1105.5535 -572.76543,1107.7921 -575.52686,1107.7921 -578.28828,1107.7921 -580.52686,1105.5535 -580.52686,1102.7921 -580.52686,1100.0307 -578.28828,1097.7921 -575.52686,1097.7921 -572.76543,1097.7921 -570.52686,1100.0307 -570.52686,1102.7921 z" />
      <text style="font-size:25; vertical-align:top; fill-opacity:1.0; fill:gray; text-anchor:right; stroke:none; font-weight:normal; font-style:italic; text-align:right; " transform="" id="C.SEF.inpoint.text" y="1095.79207059" x="-568.526857917">
SEF.in</text>
      <circle style="stroke:red; stroke-width:1; fill:red; " transform="" cy="1416.0565472" cx="-531.496062992" r="5" id="C.SEF" d="M -526.49603,1416.0565 C -526.49603,1418.8179 -528.73461,1421.0565 -531.49603,1421.0565 -534.25746,1421.0565 -536.49603,1418.8179 -536.49603,1416.0565 -536.49603,1413.2951 -534.25746,1411.0565 -531.49603,1411.0565 -528.73461,1411.0565 -526.49603,1413.2951 -526.49603,1416.0565 z" />
      <text style="font-size:30; vertical-align:top; fill-opacity:1.0; fill:darkblue; text-anchor:right; stroke:none; font-weight:normal; font-style:italic; text-align:right; " transform="" id="C.SEF.text" y="1409.0565472" x="-524.496062992">
SEF</text>
      <circle style="stroke:gray; stroke-width:1; fill:none; " transform="" cy="388.344760074" cx="661.929237702" r="5" id="C.s1.inpoint" d="M 666.92926,388.34476 C 666.92926,391.10618 664.69068,393.34476 661.92926,393.34476 659.16784,393.34476 656.92926,391.10618 656.92926,388.34476 656.92926,385.58333 659.16784,383.34476 661.92926,383.34476 664.69068,383.34476 666.92926,385.58333 666.92926,388.34476 z" />
      <text style="font-size:25; vertical-align:top; fill-opacity:1.0; fill:gray; text-anchor:right; stroke:none; font-weight:normal; font-style:italic; text-align:right; " transform="" id="C.s1.inpoint.text" y="381.344760074" x="668.929237702">
s1.in</text>
      <circle style="stroke:gray; stroke-width:1; fill:none; " transform="" cy="252.9762455" cx="473.336713424" r="5" id="C.s1.outpoint" d="M 478.3367,252.97624 C 478.3367,255.73767 476.09812,257.97624 473.3367,257.97624 470.57528,257.97624 468.3367,255.73767 468.3367,252.97624 468.3367,250.21482 470.57528,247.97624 473.3367,247.97624 476.09812,247.97624 478.3367,250.21482 478.3367,252.97624 z" />
      <text style="font-size:25; vertical-align:top; fill-opacity:1.0; fill:gray; text-anchor:right; stroke:none; font-weight:normal; font-style:italic; text-align:right; " transform="" id="C.s1.outpoint.text" y="245.9762455" x="480.336713424">
s1.out</text>
      <circle style="stroke:red; stroke-width:1; fill:red; " transform="" cy="343.573009777" cx="599.554191101" r="5" id="C.s1" d="M 604.5542,343.573 C 604.5542,346.33442 602.31562,348.573 599.5542,348.573 596.79278,348.573 594.5542,346.33442 594.5542,343.573 594.5542,340.81157 596.79278,338.573 599.5542,338.573 602.31562,338.573 604.5542,340.81157 604.5542,343.573 z" />
      <text style="font-size:30; vertical-align:top; fill-opacity:1.0; fill:darkblue; text-anchor:right; stroke:none; font-weight:normal; font-style:italic; text-align:right; " transform="" id="C.s1.text" y="336.573009777" x="606.554191101">
s1</text>
      <circle style="stroke:red; stroke-width:1; fill:red; " transform="" cy="114.524336592" cx="199.851397034" r="5" id="C.s2" d="M 204.85139,114.52434 C 204.85139,117.28576 202.61282,119.52434 199.85139,119.52434 197.08997,119.52434 194.85139,117.28576 194.85139,114.52434 194.85139,111.76291 197.08997,109.52434 199.85139,109.52434 202.61282,109.52434 204.85139,111.76291 204.85139,114.52434 z" />
      <text style="font-size:30; vertical-align:top; fill-opacity:1.0; fill:darkblue; text-anchor:right; stroke:none; font-weight:normal; font-style:italic; text-align:right; " transform="" id="C.s2.text" y="107.524336592" x="206.851397034">
s2</text>
      <circle style="stroke:gray; stroke-width:1; fill:none; " transform="" cy="130.285845786" cx="369.887305713" r="5" id="C.s3.inpoint" d="M 374.8873,130.28584 C 374.8873,133.04727 372.64872,135.28584 369.8873,135.28584 367.12587,135.28584 364.8873,133.04727 364.8873,130.28584 364.8873,127.52442 367.12587,125.28584 369.8873,125.28584 372.64872,125.28584 374.8873,127.52442 374.8873,130.28584 z" />
      <text style="font-size:25; vertical-align:top; fill-opacity:1.0; fill:gray; text-anchor:right; stroke:none; font-weight:normal; font-style:italic; text-align:right; " transform="" id="C.s3.inpoint.text" y="123.285845786" x="376.887305713">
s3.in</text>
      <circle style="stroke:gray; stroke-width:1; fill:none; " transform="" cy="13.097581307" cx="165.387204958" r="5" id="C.s3.outpoint" d="M 170.38721,13.097581 C 170.38721,15.859005 168.14863,18.097581 165.38721,18.097581 162.62578,18.097581 160.38721,15.859005 160.38721,13.097581 160.38721,10.336157 162.62578,8.0975809 165.38721,8.0975809 168.14863,8.0975809 170.38721,10.336157 170.38721,13.097581 z" />
      <text style="font-size:25; vertical-align:top; fill-opacity:1.0; fill:gray; text-anchor:right; stroke:none; font-weight:normal; font-style:italic; text-align:right; " transform="" id="C.s3.outpoint.text" y="6.09758130705" x="172.387204958">
s3.out</text>
      <circle style="stroke:red; stroke-width:1; fill:red; " transform="" cy="53.0382193448" cx="235.0858607" r="5" id="C.s3" d="M 240.08586,53.038219 C 240.08586,55.799643 237.84728,58.038219 235.08586,58.038219 232.32444,58.038219 230.08586,55.799643 230.08586,53.038219 230.08586,50.276796 232.32444,48.038219 235.08586,48.038219 237.84728,48.038219 240.08586,50.276796 240.08586,53.038219 z" />
      <text style="font-size:30; vertical-align:top; fill-opacity:1.0; fill:darkblue; text-anchor:right; stroke:none; font-weight:normal; font-style:italic; text-align:right; " transform="" id="C.s3.text" y="46.0382193448" x="242.0858607">
s3</text>
      <circle style="stroke:red; stroke-width:1; fill:red; " transform="" cy="114.524336592" cx="-141.752734758" r="5" id="C.s4" d="M -136.75273,114.52434 C -136.75273,117.28576 -138.99131,119.52434 -141.75273,119.52434 -144.51416,119.52434 -146.75273,117.28576 -146.75273,114.52434 -146.75273,111.76291 -144.51416,109.52434 -141.75273,109.52434 -138.99131,109.52434 -136.75273,111.76291 -136.75273,114.52434 z" />
      <text style="font-size:30; vertical-align:top; fill-opacity:1.0; fill:darkblue; text-anchor:right; stroke:none; font-weight:normal; font-style:italic; text-align:right; " transform="" id="C.s4.text" y="107.524336592" x="-134.752734758">
s4</text>
      <circle style="stroke:gray; stroke-width:1; fill:none; " transform="" cy="58.2648809039" cx="-129.73906794" r="5" id="C.s5.inpoint" d="M -124.73907,58.264881 C -124.73907,61.026305 -126.97765,63.264881 -129.73907,63.264881 -132.5005,63.264881 -134.73907,61.026305 -134.73907,58.264881 -134.73907,55.503457 -132.5005,53.264881 -129.73907,53.264881 -126.97765,53.264881 -124.73907,55.503457 -124.73907,58.264881 z" />
      <text style="font-size:25; vertical-align:top; fill-opacity:1.0; fill:gray; text-anchor:right; stroke:none; font-weight:normal; font-style:italic; text-align:right; " transform="" id="C.s5.inpoint.text" y="51.2648809039" x="-122.73906794">
s5.in</text>
      <circle style="stroke:gray; stroke-width:1; fill:none; " transform="" cy="165.612653064" cx="-257.973457746" r="5" id="C.s5.outpoint" d="M -252.97345,165.61266 C -252.97345,168.37408 -255.21203,170.61266 -257.97345,170.61266 -260.73487,170.61266 -262.97345,168.37408 -262.97345,165.61266 -262.97345,162.85123 -260.73487,160.61266 -257.97345,160.61266 -255.21203,160.61266 -252.97345,162.85123 -252.97345,165.61266 z" />
      <text style="font-size:25; vertical-align:top; fill-opacity:1.0; fill:gray; text-anchor:right; stroke:none; font-weight:normal; font-style:italic; text-align:right; " transform="" id="C.s5.outpoint.text" y="158.612653064" x="-250.973457746">
s5.out</text>
      <circle style="stroke:red; stroke-width:1; fill:red; " transform="" cy="86.9625088117" cx="-164.020383049" r="5" id="C.s5" d="M -159.02039,86.962509 C -159.02039,89.723933 -161.25896,91.962509 -164.02039,91.962509 -166.78181,91.962509 -169.02039,89.723933 -169.02039,86.962509 -169.02039,84.201085 -166.78181,81.962509 -164.02039,81.962509 -161.25896,81.962509 -159.02039,84.201085 -159.02039,86.962509 z" />
      <text style="font-size:30; vertical-align:top; fill-opacity:1.0; fill:darkblue; text-anchor:right; stroke:none; font-weight:normal; font-style:italic; text-align:right; " transform="" id="C.s5.text" y="79.9625088117" x="-157.020383049">
s5</text>
      <circle style="stroke:red; stroke-width:1; fill:red; " transform="" cy="343.573009777" cx="-425.258204275" r="5" id="C.s6" d="M -420.25821,343.573 C -420.25821,346.33442 -422.49679,348.573 -425.25821,348.573 -428.01963,348.573 -430.25821,346.33442 -430.25821,343.573 -430.25821,340.81157 -428.01963,338.573 -425.25821,338.573 -422.49679,338.573 -420.25821,340.81157 -420.25821,343.573 z" />
      <text style="font-size:30; vertical-align:top; fill-opacity:1.0; fill:darkblue; text-anchor:right; stroke:none; font-weight:normal; font-style:italic; text-align:right; " transform="" id="C.s6.text" y="336.573009777" x="-418.258204275">
s6</text>
      <circle style="stroke:gray; stroke-width:1; fill:none; " transform="" cy="287.291815797" cx="-311.951013113" r="5" id="C.s7.inpoint" d="M -306.95102,287.29181 C -306.95102,290.05323 -309.1896,292.29181 -311.95102,292.29181 -314.71244,292.29181 -316.95102,290.05323 -316.95102,287.29181 -316.95102,284.53039 -314.71244,282.29181 -311.95102,282.29181 -309.1896,282.29181 -306.95102,284.53039 -306.95102,287.29181 z" />
      <text style="font-size:25; vertical-align:top; fill-opacity:1.0; fill:gray; text-anchor:right; stroke:none; font-weight:normal; font-style:italic; text-align:right; " transform="" id="C.s7.inpoint.text" y="280.291815797" x="-304.951013113">
s7.in</text>
      <circle style="stroke:gray; stroke-width:1; fill:none; " transform="" cy="413.056348438" cx="-448.51032742" r="5" id="C.s7.outpoint" d="M -443.51031,413.05634 C -443.51031,415.81776 -445.74889,418.05634 -448.51031,418.05634 -451.27174,418.05634 -453.51031,415.81776 -453.51031,413.05634 -453.51031,410.29491 -451.27174,408.05634 -448.51031,408.05634 -445.74889,408.05634 -443.51031,410.29491 -443.51031,413.05634 z" />
      <text style="font-size:25; vertical-align:top; fill-opacity:1.0; fill:gray; text-anchor:right; stroke:none; font-weight:normal; font-style:italic; text-align:right; " transform="" id="C.s7.outpoint.text" y="406.056348438" x="-441.51032742">
s7.out</text>
      <circle style="stroke:red; stroke-width:1; fill:red; " transform="" cy="371.134837558" cx="-402.990555984" r="5" id="C.s7" d="M -397.99057,371.13483 C -397.99057,373.89625 -400.22915,376.13483 -402.99057,376.13483 -405.75199,376.13483 -407.99057,373.89625 -407.99057,371.13483 -407.99057,368.3734 -405.75199,366.13483 -402.99057,366.13483 -400.22915,366.13483 -397.99057,368.3734 -397.99057,371.13483 z" />
      <text style="font-size:30; vertical-align:top; fill-opacity:1.0; fill:darkblue; text-anchor:right; stroke:none; font-weight:normal; font-style:italic; text-align:right; " transform="" id="C.s7.text" y="364.134837558" x="-395.990555984">
s7</text>
      <circle style="stroke:red; stroke-width:1; fill:red; " transform="" cy="2374.01574803" cx="-567.010939033" r="5" id="C.s8" d="M -562.01093,2374.0159 C -562.01093,2376.7773 -564.2495,2379.0159 -567.01093,2379.0159 -569.77235,2379.0159 -572.01093,2376.7773 -572.01093,2374.0159 -572.01093,2371.2544 -569.77235,2369.0159 -567.01093,2369.0159 -564.2495,2369.0159 -562.01093,2371.2544 -562.01093,2374.0159 z" />
      <text style="font-size:30; vertical-align:top; fill-opacity:1.0; fill:darkblue; text-anchor:right; stroke:none; font-weight:normal; font-style:italic; text-align:right; " transform="" id="C.s8.text" y="2367.01574803" x="-560.010939033">
s8</text>
      <circle style="stroke:red; stroke-width:1; fill:red; " transform="" cy="2374.01574803" cx="-396.850393701" r="5" id="C.s9" d="M -391.8504,2374.0159 C -391.8504,2376.7773 -394.08898,2379.0159 -396.8504,2379.0159 -399.61183,2379.0159 -401.8504,2376.7773 -401.8504,2374.0159 -401.8504,2371.2544 -399.61183,2369.0159 -396.8504,2369.0159 -394.08898,2369.0159 -391.8504,2371.2544 -391.8504,2374.0159 z" />
      <text style="font-size:30; vertical-align:top; fill-opacity:1.0; fill:darkblue; text-anchor:right; stroke:none; font-weight:normal; font-style:italic; text-align:right; " transform="" id="C.s9.text" y="2367.01574803" x="-389.850393701">
s9</text>
      <circle style="stroke:red; stroke-width:1; fill:red; " transform="" cy="2374.01574803" cx="799.405588134" r="5" id="C.s10" d="M 804.40558,2374.0159 C 804.40558,2376.7773 802.167,2379.0159 799.40558,2379.0159 796.64415,2379.0159 794.40558,2376.7773 794.40558,2374.0159 794.40558,2371.2544 796.64415,2369.0159 799.40558,2369.0159 802.167,2369.0159 804.40558,2371.2544 804.40558,2374.0159 z" />
      <text style="font-size:30; vertical-align:top; fill-opacity:1.0; fill:darkblue; text-anchor:right; stroke:none; font-weight:normal; font-style:italic; text-align:right; " transform="" id="C.s10.text" y="2367.01574803" x="806.405588134">
s10</text>
      <circle style="stroke:red; stroke-width:1; fill:red; " transform="" cy="2374.01574803" cx="396.850393701" r="5" id="C.s11" d="M 401.8504,2374.0159 C 401.8504,2376.7773 399.61183,2379.0159 396.8504,2379.0159 394.08898,2379.0159 391.8504,2376.7773 391.8504,2374.0159 391.8504,2371.2544 394.08898,2369.0159 396.8504,2369.0159 399.61183,2369.0159 401.8504,2371.2544 401.8504,2374.0159 z" />
      <text style="font-size:30; vertical-align:top; fill-opacity:1.0; fill:darkblue; text-anchor:right; stroke:none; font-weight:normal; font-style:italic; text-align:right; " transform="" id="C.s11.text" y="2367.01574803" x="403.850393701">
s11</text>
      <circle style="stroke:red; stroke-width:1; fill:red; " transform="" cy="1416.0565472" cx="483.661417323" r="5" id="C.SD1" d="M 488.66141,1416.0565 C 488.66141,1418.8179 486.42283,1421.0565 483.66141,1421.0565 480.89998,1421.0565 478.66141,1418.8179 478.66141,1416.0565 478.66141,1413.2951 480.89998,1411.0565 483.66141,1411.0565 486.42283,1411.0565 488.66141,1413.2951 488.66141,1416.0565 z" />
      <text style="font-size:30; vertical-align:top; fill-opacity:1.0; fill:darkblue; text-anchor:right; stroke:none; font-weight:normal; font-style:italic; text-align:right; " transform="" id="C.SD1.text" y="1409.0565472" x="490.661417323">
SD1</text>
      <circle style="stroke:red; stroke-width:1; fill:red; " transform="" cy="1410.46518739" cx="691.577938948" r="5" id="C.SD1.i" d="M 696.57794,1410.4652 C 696.57794,1413.2266 694.33937,1415.4652 691.57794,1415.4652 688.81652,1415.4652 686.57794,1413.2266 686.57794,1410.4652 686.57794,1407.7038 688.81652,1405.4652 691.57794,1405.4652 694.33937,1405.4652 696.57794,1407.7038 696.57794,1410.4652 z" />
      <text style="font-size:30; vertical-align:top; fill-opacity:1.0; fill:darkblue; text-anchor:right; stroke:none; font-weight:normal; font-style:italic; text-align:right; " transform="" id="C.SD1.i.text" y="1403.46518739" x="698.577938948">
SD1.i</text>
      <circle style="stroke:red; stroke-width:1; fill:red; " transform="" cy="1467.99134744" cx="685.064793147" r="5" id="C.SD1.o" d="M 690.06482,1467.9913 C 690.06482,1470.7528 687.82624,1472.9913 685.06482,1472.9913 682.3034,1472.9913 680.06482,1470.7528 680.06482,1467.9913 680.06482,1465.2299 682.3034,1462.9913 685.06482,1462.9913 687.82624,1462.9913 690.06482,1465.2299 690.06482,1467.9913 z" />
      <text style="font-size:30; vertical-align:top; fill-opacity:1.0; fill:darkblue; text-anchor:right; stroke:none; font-weight:normal; font-style:italic; text-align:right; " transform="" id="C.SD1.o.text" y="1460.99134744" x="692.064793147">
SD1.o</text>
      <circle style="stroke:gray; stroke-width:1; fill:none; " transform="" cy="2345.69239206" cx="135.396611967" r="5" id="C.SWB.inpoint" d="M 140.39661,2345.6924 C 140.39661,2348.4538 138.15803,2350.6924 135.39661,2350.6924 132.63518,2350.6924 130.39661,2348.4538 130.39661,2345.6924 130.39661,2342.931 132.63518,2340.6924 135.39661,2340.6924 138.15803,2340.6924 140.39661,2342.931 140.39661,2345.6924 z" />
      <text style="font-size:25; vertical-align:top; fill-opacity:1.0; fill:gray; text-anchor:right; stroke:none; font-weight:normal; font-style:italic; text-align:right; " transform="" id="C.SWB.inpoint.text" y="2338.69239206" x="142.396611967">
SWB.in</text>
      <circle style="stroke:red; stroke-width:1; fill:red; " transform="" cy="2423.82300143" cx="381.006264541" r="5" id="C.SWB" d="M 386.00626,2423.823 C 386.00626,2426.5844 383.76768,2428.823 381.00626,2428.823 378.24483,2428.823 376.00626,2426.5844 376.00626,2423.823 376.00626,2421.0616 378.24483,2418.823 381.00626,2418.823 383.76768,2418.823 386.00626,2421.0616 386.00626,2423.823 z" />
      <text style="font-size:30; vertical-align:top; fill-opacity:1.0; fill:darkblue; text-anchor:right; stroke:none; font-weight:normal; font-style:italic; text-align:right; " transform="" id="C.SWB.text" y="2416.82300143" x="388.006264541">
SWB</text>
      <circle style="stroke:gray; stroke-width:1; fill:none; " transform="" cy="2372.31387506" cx="-136.81891412" r="5" id="C.SWF.outpoint" d="M -131.81891,2372.314 C -131.81891,2375.0754 -134.05748,2377.314 -136.81891,2377.314 -139.58033,2377.314 -141.81891,2375.0754 -141.81891,2372.314 -141.81891,2369.5525 -139.58033,2367.314 -136.81891,2367.314 -134.05748,2367.314 -131.81891,2369.5525 -131.81891,2372.314 z" />
      <text style="font-size:25; vertical-align:top; fill-opacity:1.0; fill:gray; text-anchor:right; stroke:none; font-weight:normal; font-style:italic; text-align:right; " transform="" id="C.SWF.outpoint.text" y="2365.31387506" x="-129.81891412">
SWF.out</text>
      <circle style="stroke:red; stroke-width:1; fill:red; " transform="" cy="2408.18743891" cx="-392.047401897" r="5" id="C.SWF" d="M -387.04739,2408.1875 C -387.04739,2410.9489 -389.28597,2413.1875 -392.04739,2413.1875 -394.80882,2413.1875 -397.04739,2410.9489 -397.04739,2408.1875 -397.04739,2405.4261 -394.80882,2403.1875 -392.04739,2403.1875 -389.28597,2403.1875 -387.04739,2405.4261 -387.04739,2408.1875 z" />
      <text style="font-size:30; vertical-align:top; fill-opacity:1.0; fill:darkblue; text-anchor:right; stroke:none; font-weight:normal; font-style:italic; text-align:right; " transform="" id="C.SWF.text" y="2401.18743891" x="-385.047401897">
SWF</text>
      <path style="fill:none;stroke:#808080;stroke-width:2;stroke-linejoin:miter;stroke-miterlimit:4;stroke-dasharray:6, 6;stroke-dashoffset:0" d="M 0,0 0,2374.0157 M 799.40559,458.09735 C 799.40559,458.09735 586.14656,402.67315 489.02965,352.58295 310.42636,260.46436 200.95768,-0.98996589 0,0 -128.79454,0.63447286 -211.22336,147.82536 -311.1794,229.04867 -400.0107,301.23213 -567.01094,458.09735 -567.01094,458.09735 M 799.40559,458.09735 -567.01094,458.09735 M 690.94488,1416.0565 -531.49606,1416.0565 M -567.01094,458.09735 -567.01094,2374.0157 799.40559,2374.0157 799.40559,458.09735 M 690.94488,1416.0565 396.85039,2374.0157 M -567.01094,458.09735 -396.85039,2374.0157" id="C.gridline" inkscape:connector-curvature="0" sodipodi:nodetypes="cccaaaccccccccccccc" />
    </g>
  </g>
</svg>
