<?xml version="1.0" encoding="UTF-8" standalone="no"?>
<svg xmlns:dc="http://purl.org/dc/elements/1.1/" xmlns:cc="http://creativecommons.org/ns#" xmlns:rdf="http://www.w3.org/1999/02/22-rdf-syntax-ns#" xmlns:svg="http://www.w3.org/2000/svg" xmlns="http://www.w3.org/2000/svg" xmlns:sodipodi="http://sodipodi.sourceforge.net/DTD/sodipodi-0.dtd" xmlns:inkscape="http://www.inkscape.org/namespaces/inkscape" patternNumber="BL_W_Bodice_Short_Fitted_1_Pivnick_Spencer" fitBoxtoViewport="True" companyName="Seamly Patterns" currentscale="0.5:1" margin-right="88.5826771654" client-name="DressFormLg" designerName="Ester Pivnick" height="4780.78770708" width="2597.00835533" margin-top="88.5826771654" version="1.1" margin-bottom="88.5826771654" margin-left="88.5826771654" preserveAspectRatio="xMidYMid meet" id="svg2" inkscape:version="0.48.4 r9939" sodipodi:docname="Susan-Foundation_Bodice_Short_Fitted_WaistDart_NeckDart_Pivnick_Spencer-2014-11-23-1555.svg">
  <metadata id="metadata284">
    <rdf:RDF>
      <cc:Work rdf:about="">
        <dc:format>image/svg+xml</dc:format>
        <dc:type rdf:resource="http://purl.org/dc/dcmitype/StillImage" />
      </cc:Work>
    </rdf:RDF>
  </metadata>
  <sodipodi:namedview id="base" pagecolor="#ffffff" bordercolor="#666666" borderopacity="1.0" inkscape:pageopacity="0.0" inkscape:pageshadow="2" inkscape:zoom="0.18532511" inkscape:document-units="pt" showgrid="false" inkscape:window-maximized="1" inkscape:cx="1298.5042" inkscape:cy="2390.3938" inkscape:window-width="1855" inkscape:window-height="1056" inkscape:window-x="65" inkscape:window-y="24" inkscape:current-layer="pattern" />
  <defs id="defs5">
    <marker style="overflow:visible" id="Arrow1Mstart" refX="0.0" refY="0.0" orient="auto" inkscape:stockid="Arrow1Mstart">
      <path transform="scale(0.4) translate(10,0)" style="fill-rule:evenodd;stroke:#000000;stroke-width:1.0pt;marker-start:none" d="M 0.0,0.0 L 5.0,-5.0 L -12.5,0.0 L 5.0,5.0 L 0.0,0.0 z " id="path8" />
    </marker>
    <marker style="overflow:visible;" id="Arrow1Mend" refX="0.0" refY="0.0" orient="auto" inkscape:stockid="Arrow1Mend">
      <path transform="scale(0.4) rotate(180) translate(10,0)" style="fill-rule:evenodd;stroke:#000000;stroke-width:1.0pt;marker-start:none;" d="M 0.0,0.0 L 5.0,-5.0 L -12.5,0.0 L 5.0,5.0 L 0.0,0.0 z " id="path11" />
    </marker>
  </defs>
  <g inkscape:label="Label-pattern" id="pattern" inkscape:groupmode="layer" transform="translate(88.582677,88.582677)">
    <g id="document.bodice.Front.pattern" transform=" translate(172.746323, 1447.765981)">
      <g id="A.letter" transform="matrix(10.000000, 0, 0, 10.000000, -4580.367761, 3275.078740)">
        <text style="font-size:24; vertical-align:top; fill-opacity:1.0; fill:#000000; text-anchor:start; stroke:none; font-weight:normal; font-style:normal; text-align:right; " transform="" id="A.letter.letterline" y="-363.897637795" x="508.929751246">
A</text>
      </g>
      <path style="stroke-linejoin:miter; stroke-dashoffset:0; stroke:green; stroke-miterlimit:4; stroke-dasharray:6,6; stroke-width:3; fill:none; " transform="" d="M 149.712671639  638.238051022 L 354.330708661  0.0 L 556.099380439  639.144548546 " id="A.dartline" />
      <path style="stroke-linejoin:miter; stroke-dashoffset:0; stroke:green; stroke-dasharray:24,6; stroke-miterlimit:4; stroke-width:4; fill:none; " transform="" d="M 155.031607418  -697.642233383 L -113.996322554  512.983451491 L 166.885374801  584.673503361 L 352.865330164  656.935434302 L 539.165812128  585.503922485 L 1098.33683553  530.769724945 L 1031.74894345  -174.756360349 C 943.094730204  -166.38913296  825.748353204  -229.928143141  805.381849674  -316.616005932 C 772.734702245  -455.575127348  832.381988475  -612.739515102  899.215897119  -738.869219435 L 508.929751246  -945.67497353 C 450.863736573  -836.092137345  327.767001732  -659.256590202  155.031607418  -697.642233383 " id="A.seamline" />
      <path style="fill:none;stroke:#008000;stroke-width:4;stroke-linejoin:miter;stroke-miterlimit:4" d="M 459.375,-972.28125 C 425.08465,-908.45293 383.90003,-846.97551 328.09375,-800.03125 291.92537,-769.81774 246.5615,-746.82105 198.37513,-748.60988 169.94038,-749.4834 142.78275,-759.13333 115.07038,-764.61116 109.32907,-765.48475 111.40305,-753.9646 108.96475,-749.60017 12.376597,-315.08088 -84.131332,119.45625 -180.75,553.96875 -70.340829,582.25743 40.174489,610.20857 150.52587,638.67465 217.93596,664.85073 285.32679,691.07647 352.75,717.21875 419.28805,691.76372 485.78939,666.2128 552.3125,640.71875 754.75062,620.923 957.18304,601.06891 1159.625,581.3125 1133.8947,308.94999 1108.1888,36.585175 1082.5,-235.78125 1058.5745,-234.21524 1034.7489,-230.2849 1010.75,-230.34375 966.78716,-232.79031 923.95291,-251.51721 891.3125,-281 874.14319,-296.69021 860.63787,-317.26153 857.75,-340.71875 844.07757,-413.95287 858.54415,-489.2082 881.59375,-558.9375 903.44798,-625.24026 935.10571,-687.59499 968.09937,-748.96716 968.77926,-753.64327 978.34145,-761.06281 972.47388,-763.71662 810.24392,-849.65773 648.03047,-935.63001 485.8125,-1021.5938 477,-1005.1562 468.1875,-988.71875 459.375,-972.28125 z" id="A.cuttingline" inkscape:connector-curvature="0" />
      <g id="A.info" transform="">
        <text style="font-size:12; vertical-align:top; fill-opacity:1.0; fill:#000000; text-anchor:start; stroke:none; font-weight:normal; font-style:normal; text-align:right; " transform="" id="A.info.lineSeamly Patterns" y="-318.897637795" x="508.929751246">
Seamly Patterns</text>
        <text style="font-size:12; vertical-align:top; fill-opacity:1.0; fill:#000000; text-anchor:start; stroke:none; font-weight:normal; font-style:normal; text-align:right; " transform="" id="A.info.lineBL_W_Bodice_Short_Fitted_1_Pivnick_Spencer" y="-304.497637795" x="508.929751246">
BL_W_Bodice_Short_Fitted_1_Pivnick_Spencer</text>
        <text style="font-size:12; vertical-align:top; fill-opacity:1.0; fill:#000000; text-anchor:start; stroke:none; font-weight:normal; font-style:normal; text-align:right; " transform="" id="A.info.lineBlock_Women_Bodice_Short_Fitted_WaistDart_NeckDart_Pivnick_Spencer" y="-290.097637795" x="508.929751246">
Block_Women_Bodice_Short_Fitted_WaistDart_NeckDart_Pivnick_Spencer</text>
        <text style="font-size:12; vertical-align:top; fill-opacity:1.0; fill:#000000; text-anchor:start; stroke:none; font-weight:normal; font-style:normal; text-align:right; " transform="" id="A.info.linePattern Piece A" y="-275.697637795" x="508.929751246">
Pattern Piece A</text>
        <text style="font-size:12; vertical-align:top; fill-opacity:1.0; fill:#000000; text-anchor:start; stroke:none; font-weight:normal; font-style:normal; text-align:right; " transform="" id="A.info.lineCut 2 Fabric" y="-261.297637795" x="508.929751246">
Cut 2 Fabric</text>
        <text style="font-size:12; vertical-align:top; fill-opacity:1.0; fill:#000000; text-anchor:start; stroke:none; font-weight:normal; font-style:normal; text-align:right; " transform="" id="A.info.line " y="-246.897637795" x="508.929751246" />
        <text style="font-size:12; vertical-align:top; fill-opacity:1.0; fill:#000000; text-anchor:start; stroke:none; font-weight:normal; font-style:normal; text-align:right; " transform="" id="A.info.lineDressFormLg" y="-232.497637795" x="508.929751246">
DressFormLg</text>
        <text style="font-size:12; vertical-align:top; fill-opacity:1.0; fill:#000000; text-anchor:start; stroke:none; font-weight:normal; font-style:normal; text-align:right; " transform="" id="A.info.line2014/11/23 15:55" y="-218.097637795" x="508.929751246">
2014/11/23 15:55</text>
      </g>
    </g>
    <g id="document.bodice.Back.pattern" transform=" translate(2363.593001, 438.820000)">
      <g id="B.letter" transform="matrix(10.000000, 0, 0, 10.000000, 3322.596367, -4059.566929)">
        <text style="font-size:24; vertical-align:top; fill-opacity:1.0; fill:#000000; text-anchor:start; stroke:none; font-weight:normal; font-style:normal; text-align:right; " transform="" id="B.letter.letterline" y="451.062992126" x="-369.177374118">
B</text>
      </g>
      <path style="stroke-linejoin:miter; stroke-dashoffset:0; stroke:green; stroke-miterlimit:4; stroke-dasharray:6,6; stroke-width:3; fill:none; " transform="" d="M -331.831347468  1541.85958457 L -389.717966732  782.6894069 L -447.810132598  1541.84388369 M -515.629383321  34.3217293866 L -420.938074864  309.800082849 L -552.807357533  50.0593286113 " id="B.dartline" />
      <path style="stroke-linejoin:miter; stroke-dashoffset:0; stroke:green; stroke-dasharray:24,6; stroke-miterlimit:4; stroke-width:4; fill:none; " transform="" d="M 0.0  141.732283465 L 0.0  1488.18897638 L -336.107987793  1485.77239488 L -389.814316982  1494.40615644 L -443.518306572  1485.75785397 L -763.70656118  1561.93025223 L -912.991151965  869.17119213 C -813.118863548  847.649432884  -735.361458929  758.882834138  -708.661417323  655.370615374 C -670.40158396  507.042747599  -678.641388743  333.195816447  -738.354748236  192.130987712 L -527.343274159  100.215514251 L -513.163129456  91.9307209234 L -497.344401977  87.5168603411 L -284.470975712  0.0 C -256.846103288  65.2600679401  -142.235487856  141.732283465  0.0  141.732283465 " id="B.seamline" />
      <path style="fill:none;stroke:#008000;stroke-width:4;stroke-linejoin:miter;stroke-miterlimit:4" d="M -305.875,-52.03125 C -376.50152,-23.157346 -446.92153,6.3186088 -517.67717,34.816041 -527.53564,37.369671 -537.4872,39.695055 -545.81847,45.863841 -564.79266,56.421896 -585.48068,63.602095 -605.16375,72.762998 -673.94221,102.71767 -742.71247,132.69116 -811.5,162.625 -793.69408,205.59885 -774.48369,248.14361 -763.33164,293.49629 -736.49245,398.05895 -734.66903,509.26869 -756.96875,615.125 -764.69098,654.98096 -778.83457,693.82343 -802.375,727.125 -832.5627,771.05364 -878.39818,806.26442 -931.5962,815.61553 -947.68914,819.04577 -963.78207,822.47601 -979.875,825.90625 -922.10348,1093.9247 -864.38786,1361.9552 -806.59375,1629.9688 -684.86836,1600.9841 -563.13508,1572.0327 -441.40625,1543.0625 -423.88965,1545.6677 -406.37262,1549.1406 -388.85644,1551.2162 -368.51504,1548.3657 -348.30093,1543.8368 -327.8751,1542.0912 -199.8334,1543.0087 -71.791697,1543.9257 56.25,1544.8438 56.25,1058.3854 56.25,571.92708 56.25,85.46875 14.598885,85.156141 -27.615281,87.711694 -68.5,78.5 -120.08418,67.641437 -170.77827,45.61908 -209.40625,9.125 -221.85454,-2.6500976 -231.93745,-16.90061 -237.50501,-33.18739 -243.20126,-46.48951 -248.8975,-59.79163 -254.59375,-73.09375 -271.6875,-66.072917 -288.78125,-59.052083 -305.875,-52.03125 z" id="B.cuttingline" inkscape:connector-curvature="0" />
      <g id="B.info" transform="">
        <text style="font-size:12; vertical-align:top; fill-opacity:1.0; fill:#000000; text-anchor:start; stroke:none; font-weight:normal; font-style:normal; text-align:right; " transform="" id="B.info.lineSeamly Patterns" y="496.062992126" x="-369.177374118">
Seamly Patterns</text>
        <text style="font-size:12; vertical-align:top; fill-opacity:1.0; fill:#000000; text-anchor:start; stroke:none; font-weight:normal; font-style:normal; text-align:right; " transform="" id="B.info.lineBL_W_Bodice_Short_Fitted_1_Pivnick_Spencer" y="510.462992126" x="-369.177374118">
BL_W_Bodice_Short_Fitted_1_Pivnick_Spencer</text>
        <text style="font-size:12; vertical-align:top; fill-opacity:1.0; fill:#000000; text-anchor:start; stroke:none; font-weight:normal; font-style:normal; text-align:right; " transform="" id="B.info.lineBlock_Women_Bodice_Short_Fitted_WaistDart_NeckDart_Pivnick_Spencer" y="524.862992126" x="-369.177374118">
Block_Women_Bodice_Short_Fitted_WaistDart_NeckDart_Pivnick_Spencer</text>
        <text style="font-size:12; vertical-align:top; fill-opacity:1.0; fill:#000000; text-anchor:start; stroke:none; font-weight:normal; font-style:normal; text-align:right; " transform="" id="B.info.linePattern Piece B" y="539.262992126" x="-369.177374118">
Pattern Piece B</text>
        <text style="font-size:12; vertical-align:top; fill-opacity:1.0; fill:#000000; text-anchor:start; stroke:none; font-weight:normal; font-style:normal; text-align:right; " transform="" id="B.info.lineCut 2 Fabric" y="553.662992126" x="-369.177374118">
Cut 2 Fabric</text>
        <text style="font-size:12; vertical-align:top; fill-opacity:1.0; fill:#000000; text-anchor:start; stroke:none; font-weight:normal; font-style:normal; text-align:right; " transform="" id="B.info.line " y="568.062992126" x="-369.177374118" />
        <text style="font-size:12; vertical-align:top; fill-opacity:1.0; fill:#000000; text-anchor:start; stroke:none; font-weight:normal; font-style:normal; text-align:right; " transform="" id="B.info.lineDressFormLg" y="582.462992126" x="-369.177374118">
DressFormLg</text>
        <text style="font-size:12; vertical-align:top; fill-opacity:1.0; fill:#000000; text-anchor:start; stroke:none; font-weight:normal; font-style:normal; text-align:right; " transform="" id="B.info.line2014/11/23 15:55" y="596.862992126" x="-369.177374118">
2014/11/23 15:55</text>
      </g>
    </g>
    <g id="document.bodice.Sleeve.pattern" transform=" translate(717.166089, 2275.951415)">
      <g id="C.letter" transform="matrix(10.000000, 0, 0, 10.000000, 3303.784509, -6650.610236)">
        <text style="font-size:24; vertical-align:top; fill-opacity:1.0; fill:#000000; text-anchor:start; stroke:none; font-weight:normal; font-style:normal; text-align:right; " transform="" id="C.letter.letterline" y="738.956692913" x="-367.087167684">
C</text>
      </g>
      <line style="stroke-linejoin:miter; stroke:green; stroke-width:4; stroke-miterlimit:4; fill:none; " y2="1727.36220472" marker-end="url(#Arrow1Mend)" marker-start="url(#Arrow1Mstart)" transform="" x2="0" y1="425.196850394" x1="0" id="C.grainline" />
      <path style="stroke-linejoin:miter; stroke-dashoffset:0; stroke:green; stroke-miterlimit:4; stroke-dasharray:6,6; stroke-width:3; fill:none; " transform="" d="M 600.855946042  1112.96826223 L 328.073923674  1112.65094589 L 594.175994095  1172.64945032 M 580.991171601  1243.43416511 L 316.024065106  1175.07295366 L 559.611559228  1299.75637462 M 545.11766399  1330.85252311 L 282.600576849  1263.12341386 L 523.935738284  1386.65394909 " id="C.dartline" />
      <path style="stroke-linejoin:miter; stroke-dashoffset:0; stroke:green; stroke-dasharray:24,6; stroke-miterlimit:4; stroke-width:4; fill:none; " transform="" d="M -626.083412143  361.417322835 C -375.650047286  361.417322835  -313.041706072  0  0  0 C 174.402738815  0  382.402492039  170.433722968  496.585289914  302.261656184 C 547.822985625  361.417322835  547.822985625  361.417322835  626.083412143  361.417322835 L 544.6059841  1112.90282891 L 547.180492023  1137.17494406 L 539.303494786  1160.27725086 L 526.524707016  1229.38187933 L 518.942478131  1252.09970832 L 509.539873737  1274.12653241 L 490.651199405  1316.80023733 L 488.484919699  1341.27601976 L 473.864052793  1361.02410687 L 127.256221794  2271.42093775 L -146.557637355  2198.08519447 C -234.72154237  2174.47219868  -332.207591488  2174.47219868  -420.371496504  2198.08519447 L -531.496062992  1206.49606299 L -626.083412143  361.417322835 " id="C.seamline" />
      <path style="fill:none;stroke:#008000;stroke-width:4;stroke-linejoin:miter;stroke-miterlimit:4" d="M -4.125,-56.21875 C -79.725138,-56.080719 -154.9443,-34.429905 -219.125,5.46875 -293.33572,50.541692 -352.09416,115.4768 -411.35511,177.79274 -451.44624,219.11624 -492.69613,261.95185 -545.28368,287.07375 -574.66344,301.30171 -607.61402,306.56756 -640.09375,305.15625 -656.39583,305.15625 -672.69792,305.15625 -689,305.15625 -615.74708,959.79951 -542.40729,1614.433 -469.03125,2269.0625 -422.96783,2257.3701 -377.42261,2242.597 -329.875,2238.8438 -267.33384,2232.7099 -203.85626,2239.2324 -143.58137,2257.1248 -41.803779,2284.3731 59.967149,2311.6463 161.75,2338.875 282.36586,2022.0238 403.02392,1705.1887 523.65625,1388.3438 530.01438,1379.1658 537.73187,1370.5026 543.24305,1361.0038 544.80433,1350.1727 543.9314,1338.7112 547.08759,1328.2872 559.83419,1298.5131 574.85563,1269.319 582.20793,1237.6272 586.71024,1215.4122 589.72811,1192.8094 595.16382,1170.8383 597.90023,1161.053 602.91459,1151.52 604.22603,1141.5737 602.91473,1127.0774 599.79322,1112.5792 602.80459,1098.0874 631.46153,833.77682 660.13575,569.46809 688.78125,305.15625 653.41288,304.72765 617.88968,306.09746 582.65625,304.28125 577.02881,304.29559 571.97743,302.3753 568.375,297.8125 545.46845,274.23869 525.2474,248.24229 502.15445,224.83803 426.96811,146.55906 342.71067,76.250399 248.71875,21.625 171.8222,-22.286381 85.771341,-56.986969 -4.125,-56.21875 z" id="C.cuttingline" inkscape:connector-curvature="0" />
      <g id="C.info" transform="">
        <text style="font-size:12; vertical-align:top; fill-opacity:1.0; fill:#000000; text-anchor:start; stroke:none; font-weight:normal; font-style:normal; text-align:right; " transform="" id="C.info.lineSeamly Patterns" y="783.956692913" x="-367.087167684">
Seamly Patterns</text>
        <text style="font-size:12; vertical-align:top; fill-opacity:1.0; fill:#000000; text-anchor:start; stroke:none; font-weight:normal; font-style:normal; text-align:right; " transform="" id="C.info.lineBL_W_Bodice_Short_Fitted_1_Pivnick_Spencer" y="798.356692913" x="-367.087167684">
BL_W_Bodice_Short_Fitted_1_Pivnick_Spencer</text>
        <text style="font-size:12; vertical-align:top; fill-opacity:1.0; fill:#000000; text-anchor:start; stroke:none; font-weight:normal; font-style:normal; text-align:right; " transform="" id="C.info.lineBlock_Women_Bodice_Short_Fitted_WaistDart_NeckDart_Pivnick_Spencer" y="812.756692913" x="-367.087167684">
Block_Women_Bodice_Short_Fitted_WaistDart_NeckDart_Pivnick_Spencer</text>
        <text style="font-size:12; vertical-align:top; fill-opacity:1.0; fill:#000000; text-anchor:start; stroke:none; font-weight:normal; font-style:normal; text-align:right; " transform="" id="C.info.linePattern Piece C" y="827.156692913" x="-367.087167684">
Pattern Piece C</text>
        <text style="font-size:12; vertical-align:top; fill-opacity:1.0; fill:#000000; text-anchor:start; stroke:none; font-weight:normal; font-style:normal; text-align:right; " transform="" id="C.info.lineCut 2 Fabric" y="841.556692913" x="-367.087167684">
Cut 2 Fabric</text>
        <text style="font-size:12; vertical-align:top; fill-opacity:1.0; fill:#000000; text-anchor:start; stroke:none; font-weight:normal; font-style:normal; text-align:right; " transform="" id="C.info.line " y="855.956692913" x="-367.087167684" />
        <text style="font-size:12; vertical-align:top; fill-opacity:1.0; fill:#000000; text-anchor:start; stroke:none; font-weight:normal; font-style:normal; text-align:right; " transform="" id="C.info.lineDressFormLg" y="870.356692913" x="-367.087167684">
DressFormLg</text>
        <text style="font-size:12; vertical-align:top; fill-opacity:1.0; fill:#000000; text-anchor:start; stroke:none; font-weight:normal; font-style:normal; text-align:right; " transform="" id="C.info.line2014/11/23 15:55" y="884.756692913" x="-367.087167684">
2014/11/23 15:55</text>
      </g>
    </g>
  </g>
  <g inkscape:label="Label-notes" id="notes" inkscape:groupmode="layer" transform="translate(88.582677,88.582677)">
    <g id="document.titleblock">
      <text style="font-size:40; vertical-align:top; fill-opacity:1.0; fill:#000000; text-anchor:right; stroke:none; font-weight:normal; font-style:normal; text-align:right; " transform="" id="company" y="0.0" x="0.0">
Seamly Patterns</text>
      <text style="font-size:40; vertical-align:top; fill-opacity:1.0; fill:#000000; text-anchor:right; stroke:none; font-weight:normal; font-style:normal; text-align:right; " transform="" id="designer" y="44.0" x="0.0">
Ester Pivnick</text>
      <text style="font-size:40; vertical-align:top; fill-opacity:1.0; fill:#000000; text-anchor:right; stroke:none; font-weight:normal; font-style:normal; text-align:right; " transform="" id="pattern_number" y="88.0" x="0.0">
BL_W_Bodice_Short_Fitted_1_Pivnick_Spencer</text>
      <text style="font-size:40; vertical-align:top; fill-opacity:1.0; fill:#000000; text-anchor:right; stroke:none; font-weight:normal; font-style:normal; text-align:right; " transform="" id="pattern_name" y="132.0" x="0.0">
Block_Women_Bodice_Short_Fitted_WaistDart_NeckDart_Pivnick_Spencer</text>
      <text style="font-size:40; vertical-align:top; fill-opacity:1.0; fill:#000000; text-anchor:right; stroke:none; font-weight:normal; font-style:normal; text-align:right; " transform="" id="client" y="176.0" x="0.0">
DressFormLg</text>
      <text style="font-size:40; vertical-align:top; fill-opacity:1.0; fill:#000000; text-anchor:right; stroke:none; font-weight:normal; font-style:normal; text-align:right; " transform="" id="date" y="220.0" x="0.0">
2014/11/23 15:55</text>
    </g>
    <g id="document.testgrid">
      <path style="stroke-linejoin:miter; stroke:green; stroke-width:4; stroke-miterlimit:4; fill:none; " d="M 1080.0  0.0 L 1080.0  212.598425197 M 1115.43307087  0.0 L 1115.43307087  212.598425197 M 1150.86614173  0.0 L 1150.86614173  212.598425197 M 1186.2992126  0.0 L 1186.2992126  212.598425197 M 1221.73228346  0.0 L 1221.73228346  212.598425197 M 1257.16535433  0.0 L 1257.16535433  212.598425197 M 1292.5984252  0.0 L 1292.5984252  212.598425197 M 1080.0  0.0 L 1292.5984252  0.0 M 1080.0  35.4330708661 L 1292.5984252  35.4330708661 M 1080.0  70.8661417323 L 1292.5984252  70.8661417323 M 1080.0  106.299212598 L 1292.5984252  106.299212598 M 1080.0  141.732283465 L 1292.5984252  141.732283465 M 1080.0  177.165354331 L 1292.5984252  177.165354331 M 1080.0  212.598425197 L 1292.5984252  212.598425197 M 1469.76377953  0.0 L 1469.76377953  270.0 M 1559.76377953  0.0 L 1559.76377953  270.0 M 1649.76377953  0.0 L 1649.76377953  270.0 M 1739.76377953  0.0 L 1739.76377953  270.0 M 1469.76377953  0.0 L 1739.76377953  0.0 M 1469.76377953  90.0 L 1739.76377953  90.0 M 1469.76377953  180.0 L 1739.76377953  180.0 M 1469.76377953  270.0 L 1739.76377953  270.0 " id="testgrid" />
    </g>
    <g id="document.bodice.Front.notes" transform=" translate(172.746323, 1447.765981)" />
    <g id="document.bodice.Back.notes" transform=" translate(2363.593001, 438.820000)" />
    <g id="document.bodice.Sleeve.notes" transform=" translate(717.166089, 2275.951415)" />
  </g>
  <g inkscape:label="Label-reference" id="reference" inkscape:groupmode="layer" transform="translate(88.582677,88.582677)">
    <g id="document.bodice.Front.reference" transform=" translate(172.746323, 1447.765981)">
      <circle style="stroke:red; stroke-width:1; fill:red; " transform="" cy="0.0" cx="0.0" r="5" id="A.FBC1" d="M 5,0 C 5,2.7614237 2.7614237,5 0,5 -2.7614237,5 -5,2.7614237 -5,0 -5,-2.7614237 -2.7614237,-5 0,-5 2.7614237,-5 5,-2.7614237 5,0 z" />
      <text style="font-size:30; vertical-align:top; fill-opacity:1.0; fill:darkblue; text-anchor:right; stroke:none; font-weight:normal; font-style:italic; text-align:right; " transform="" id="A.FBC1.text" y="-7.0" x="7.0">
FBC1</text>
      <circle style="stroke:red; stroke-width:1; fill:red; " transform="" cy="0.0" cx="992.125984252" r="5" id="A.FBS" d="M 997.12598,0 C 997.12598,2.7614237 994.8874,5 992.12598,5 989.36455,5 987.12598,2.7614237 987.12598,0 987.12598,-2.7614237 989.36455,-5 992.12598,-5 994.8874,-5 997.12598,-2.7614237 997.12598,0 z" />
      <text style="font-size:30; vertical-align:top; fill-opacity:1.0; fill:darkblue; text-anchor:right; stroke:none; font-weight:normal; font-style:italic; text-align:right; " transform="" id="A.FBS.text" y="-7.0" x="999.125984252">
FBS</text>
      <circle style="stroke:red; stroke-width:1; fill:red; " transform="" cy="-318.897637795" cx="0.0" r="5" id="A.FUC1" d="M 5,-318.89764 C 5,-316.13622 2.7614237,-313.89764 0,-313.89764 -2.7614237,-313.89764 -5,-316.13622 -5,-318.89764 -5,-321.65907 -2.7614237,-323.89764 0,-323.89764 2.7614237,-323.89764 5,-321.65907 5,-318.89764 z" />
      <text style="font-size:30; vertical-align:top; fill-opacity:1.0; fill:darkblue; text-anchor:right; stroke:none; font-weight:normal; font-style:italic; text-align:right; " transform="" id="A.FUC1.text" y="-325.897637795" x="7.0">
FUC1</text>
      <circle style="stroke:red; stroke-width:1; fill:red; " transform="" cy="-318.897637795" cx="70.8661417323" r="5" id="A.FUC" d="M 75.866142,-318.89764 C 75.866142,-316.13622 73.627566,-313.89764 70.866142,-313.89764 68.104719,-313.89764 65.866142,-316.13622 65.866142,-318.89764 65.866142,-321.65907 68.104719,-323.89764 70.866142,-323.89764 73.627566,-323.89764 75.866142,-321.65907 75.866142,-318.89764 z" />
      <text style="font-size:30; vertical-align:top; fill-opacity:1.0; fill:darkblue; text-anchor:right; stroke:none; font-weight:normal; font-style:italic; text-align:right; " transform="" id="A.FUC.text" y="-325.897637795" x="77.8661417323">
FUC</text>
      <circle style="stroke:red; stroke-width:1; fill:red; " transform="" cy="0.0" cx="354.330708661" r="5" id="A.FBP" d="M 359.33072,0 C 359.33072,2.7614237 357.09214,5 354.33072,5 351.5693,5 349.33072,2.7614237 349.33072,0 349.33072,-2.7614237 351.5693,-5 354.33072,-5 357.09214,-5 359.33072,-2.7614237 359.33072,0 z" />
      <text style="font-size:30; vertical-align:top; fill-opacity:1.0; fill:darkblue; text-anchor:right; stroke:none; font-weight:normal; font-style:italic; text-align:right; " transform="" id="A.FBP.text" y="-7.0" x="361.330708661">
FBP</text>
      <circle style="stroke:red; stroke-width:1; fill:red; " transform="" cy="-75.0347383048" cx="16.6743862899" r="5" id="A.FBC" d="M 21.674387,-75.034737 C 21.674387,-72.273313 19.435811,-70.034737 16.674387,-70.034737 13.912963,-70.034737 11.674387,-72.273313 11.674387,-75.034737 11.674387,-77.79616 13.912963,-80.034737 16.674387,-80.034737 19.435811,-80.034737 21.674387,-77.79616 21.674387,-75.034737 z" />
      <text style="font-size:30; vertical-align:top; fill-opacity:1.0; fill:darkblue; text-anchor:right; stroke:none; font-weight:normal; font-style:italic; text-align:right; " transform="" id="A.FBC.text" y="-82.0347383048" x="23.6743862899">
FBC</text>
      <circle style="stroke:red; stroke-width:1; fill:red; " transform="" cy="-1008.94598092" cx="224.210217983" r="5" id="A.FSH" d="M 229.21022,-1008.946 C 229.21022,-1006.1846 226.97164,-1003.946 224.21022,-1003.946 221.4488,-1003.946 219.21022,-1006.1846 219.21022,-1008.946 219.21022,-1011.7074 221.4488,-1013.946 224.21022,-1013.946 226.97164,-1013.946 229.21022,-1011.7074 229.21022,-1008.946 z" />
      <text style="font-size:30; vertical-align:top; fill-opacity:1.0; fill:darkblue; text-anchor:right; stroke:none; font-weight:normal; font-style:italic; text-align:right; " transform="" id="A.FSH.text" y="-1015.94598092" x="231.210217983">
FSH</text>
      <circle style="stroke:red; stroke-width:1; fill:red; " transform="" cy="512.983451491" cx="-113.996322554" r="5" id="A.FWC" d="M -108.99632,512.98346 C -108.99632,515.74488 -111.2349,517.98346 -113.99632,517.98346 -116.75775,517.98346 -118.99632,515.74488 -118.99632,512.98346 -118.99632,510.22204 -116.75775,507.98346 -113.99632,507.98346 -111.2349,507.98346 -108.99632,510.22204 -108.99632,512.98346 z" />
      <text style="font-size:30; vertical-align:top; fill-opacity:1.0; fill:darkblue; text-anchor:right; stroke:none; font-weight:normal; font-style:italic; text-align:right; " transform="" id="A.FWC.text" y="505.983451491" x="-106.996322554">
FWC</text>
      <circle style="stroke:gray; stroke-width:1; fill:none; " transform="" cy="-659.256590202" cx="327.767001732" r="5" id="A.FNC.inpoint" d="M 332.767,-659.25659 C 332.767,-656.49517 330.52842,-654.25659 327.767,-654.25659 325.00557,-654.25659 322.767,-656.49517 322.767,-659.25659 322.767,-662.01802 325.00557,-664.25659 327.767,-664.25659 330.52842,-664.25659 332.767,-662.01802 332.767,-659.25659 z" />
      <text style="font-size:25; vertical-align:top; fill-opacity:1.0; fill:gray; text-anchor:right; stroke:none; font-weight:normal; font-style:italic; text-align:right; " transform="" id="A.FNC.inpoint.text" y="-666.256590202" x="334.767001732">
FNC.in</text>
      <circle style="stroke:red; stroke-width:1; fill:red; " transform="" cy="-697.642233383" cx="155.031607418" r="5" id="A.FNC" d="M 160.0316,-697.64221 C 160.0316,-694.88079 157.79302,-692.64221 155.0316,-692.64221 152.27018,-692.64221 150.0316,-694.88079 150.0316,-697.64221 150.0316,-700.40364 152.27018,-702.64221 155.0316,-702.64221 157.79302,-702.64221 160.0316,-700.40364 160.0316,-697.64221 z" />
      <text style="font-size:30; vertical-align:top; fill-opacity:1.0; fill:darkblue; text-anchor:right; stroke:none; font-weight:normal; font-style:italic; text-align:right; " transform="" id="A.FNC.text" y="-704.642233383" x="162.031607418">
FNC</text>
      <circle style="stroke:red; stroke-width:1; fill:red; " transform="" cy="-853.294107152" cx="924.643649945" r="5" id="A.FSW" d="M 929.64368,-853.29413 C 929.64368,-850.5327 927.4051,-848.29413 924.64368,-848.29413 921.88225,-848.29413 919.64368,-850.5327 919.64368,-853.29413 919.64368,-856.05555 921.88225,-858.29413 924.64368,-858.29413 927.4051,-858.29413 929.64368,-856.05555 929.64368,-853.29413 z" />
      <text style="font-size:30; vertical-align:top; fill-opacity:1.0; fill:darkblue; text-anchor:right; stroke:none; font-weight:normal; font-style:italic; text-align:right; " transform="" id="A.FSW.text" y="-860.294107152" x="931.643649945">
FSW</text>
      <circle style="stroke:red; stroke-width:1; fill:red; " transform="" cy="0.0" cx="735.022737245" r="5" id="A.FAP1" d="M 740.02277,0 C 740.02277,2.7614237 737.78419,5 735.02277,5 732.26134,5 730.02277,2.7614237 730.02277,0 730.02277,-2.7614237 732.26134,-5 735.02277,-5 737.78419,-5 740.02277,-2.7614237 740.02277,0 z" />
      <text style="font-size:30; vertical-align:top; fill-opacity:1.0; fill:darkblue; text-anchor:right; stroke:none; font-weight:normal; font-style:italic; text-align:right; " transform="" id="A.FAP1.text" y="-7.0" x="742.022737245">
FAP1</text>
      <circle style="stroke:gray; stroke-width:1; fill:none; " transform="" cy="-612.739515102" cx="832.381988475" r="5" id="A.FSP.inpoint" d="M 837.38196,-612.7395 C 837.38196,-609.97808 835.14338,-607.7395 832.38196,-607.7395 829.62053,-607.7395 827.38196,-609.97808 827.38196,-612.7395 827.38196,-615.50093 829.62053,-617.7395 832.38196,-617.7395 835.14338,-617.7395 837.38196,-615.50093 837.38196,-612.7395 z" />
      <text style="font-size:25; vertical-align:top; fill-opacity:1.0; fill:gray; text-anchor:right; stroke:none; font-weight:normal; font-style:italic; text-align:right; " transform="" id="A.FSP.inpoint.text" y="-619.739515102" x="839.381988475">
FSP.in</text>
      <circle style="stroke:red; stroke-width:1; fill:red; " transform="" cy="-738.869219435" cx="899.215897119" r="5" id="A.FSP" d="M 904.21588,-738.8692 C 904.21588,-736.10778 901.97731,-733.8692 899.21588,-733.8692 896.45446,-733.8692 894.21588,-736.10778 894.21588,-738.8692 894.21588,-741.63063 896.45446,-743.8692 899.21588,-743.8692 901.97731,-743.8692 904.21588,-741.63063 904.21588,-738.8692 z" />
      <text style="font-size:30; vertical-align:top; fill-opacity:1.0; fill:darkblue; text-anchor:right; stroke:none; font-weight:normal; font-style:italic; text-align:right; " transform="" id="A.FSP.text" y="-745.869219435" x="906.215897119">
FSP</text>
      <circle style="stroke:gray; stroke-width:1; fill:none; " transform="" cy="-836.092137345" cx="450.863736573" r="5" id="A.FNS.outpoint" d="M 455.86374,-836.09216 C 455.86374,-833.33074 453.62516,-831.09216 450.86374,-831.09216 448.10232,-831.09216 445.86374,-833.33074 445.86374,-836.09216 445.86374,-838.85359 448.10232,-841.09216 450.86374,-841.09216 453.62516,-841.09216 455.86374,-838.85359 455.86374,-836.09216 z" />
      <text style="font-size:25; vertical-align:top; fill-opacity:1.0; fill:gray; text-anchor:right; stroke:none; font-weight:normal; font-style:italic; text-align:right; " transform="" id="A.FNS.outpoint.text" y="-843.092137345" x="457.863736573">
FNS.out</text>
      <circle style="stroke:red; stroke-width:1; fill:red; " transform="" cy="-945.67497353" cx="508.929751246" r="5" id="A.FNS" d="M 513.92975,-945.67499 C 513.92975,-942.91356 511.69117,-940.67499 508.92975,-940.67499 506.16832,-940.67499 503.92975,-942.91356 503.92975,-945.67499 503.92975,-948.43641 506.16832,-950.67499 508.92975,-950.67499 511.69117,-950.67499 513.92975,-948.43641 513.92975,-945.67499 z" />
      <text style="font-size:30; vertical-align:top; fill-opacity:1.0; fill:darkblue; text-anchor:right; stroke:none; font-weight:normal; font-style:italic; text-align:right; " transform="" id="A.FNS.text" y="-952.67497353" x="515.929751246">
FNS</text>
      <circle style="stroke:red; stroke-width:1; fill:red; " transform="" cy="532.796482558" cx="992.125984252" r="5" id="A.FWS1" d="M 997.12598,532.79651 C 997.12598,535.55793 994.8874,537.79651 992.12598,537.79651 989.36455,537.79651 987.12598,535.55793 987.12598,532.79651 987.12598,530.03509 989.36455,527.79651 992.12598,527.79651 994.8874,527.79651 997.12598,530.03509 997.12598,532.79651 z" />
      <text style="font-size:30; vertical-align:top; fill-opacity:1.0; fill:darkblue; text-anchor:right; stroke:none; font-weight:normal; font-style:italic; text-align:right; " transform="" id="A.FWS1.text" y="525.796482558" x="999.125984252">
FWS1</text>
      <circle style="stroke:red; stroke-width:1; fill:red; " transform="" cy="-175.864934765" cx="992.125984252" r="5" id="A.FUS1" d="M 997.12598,-175.86493 C 997.12598,-173.10351 994.8874,-170.86493 992.12598,-170.86493 989.36455,-170.86493 987.12598,-173.10351 987.12598,-175.86493 987.12598,-178.62635 989.36455,-180.86493 992.12598,-180.86493 994.8874,-180.86493 997.12598,-178.62635 997.12598,-175.86493 z" />
      <text style="font-size:30; vertical-align:top; fill-opacity:1.0; fill:darkblue; text-anchor:right; stroke:none; font-weight:normal; font-style:italic; text-align:right; " transform="" id="A.FUS1.text" y="-182.864934765" x="999.125984252">
FUS1</text>
      <circle style="stroke:red; stroke-width:1; fill:red; " transform="" cy="-175.864934765" cx="774.103833859" r="5" id="A.FAP2" d="M 779.10382,-175.86493 C 779.10382,-173.10351 776.86524,-170.86493 774.10382,-170.86493 771.3424,-170.86493 769.10382,-173.10351 769.10382,-175.86493 769.10382,-178.62635 771.3424,-180.86493 774.10382,-180.86493 776.86524,-180.86493 779.10382,-178.62635 779.10382,-175.86493 z" />
      <text style="font-size:30; vertical-align:top; fill-opacity:1.0; fill:darkblue; text-anchor:right; stroke:none; font-weight:normal; font-style:italic; text-align:right; " transform="" id="A.FAP2.text" y="-182.864934765" x="781.103833859">
FAP2</text>
      <circle style="stroke:gray; stroke-width:1; fill:none; " transform="" cy="-229.928143141" cx="825.748353204" r="5" id="A.FAP.inpoint" d="M 830.74835,-229.92815 C 830.74835,-227.16672 828.50978,-224.92815 825.74835,-224.92815 822.98693,-224.92815 820.74835,-227.16672 820.74835,-229.92815 820.74835,-232.68957 822.98693,-234.92815 825.74835,-234.92815 828.50978,-234.92815 830.74835,-232.68957 830.74835,-229.92815 z" />
      <text style="font-size:25; vertical-align:top; fill-opacity:1.0; fill:gray; text-anchor:right; stroke:none; font-weight:normal; font-style:italic; text-align:right; " transform="" id="A.FAP.inpoint.text" y="-236.928143141" x="832.748353204">
FAP.in</text>
      <circle style="stroke:gray; stroke-width:1; fill:none; " transform="" cy="-455.575127348" cx="772.734702245" r="5" id="A.FAP.outpoint" d="M 777.73468,-455.57513 C 777.73468,-452.81371 775.4961,-450.57513 772.73468,-450.57513 769.97326,-450.57513 767.73468,-452.81371 767.73468,-455.57513 767.73468,-458.33656 769.97326,-460.57513 772.73468,-460.57513 775.4961,-460.57513 777.73468,-458.33656 777.73468,-455.57513 z" />
      <text style="font-size:25; vertical-align:top; fill-opacity:1.0; fill:gray; text-anchor:right; stroke:none; font-weight:normal; font-style:italic; text-align:right; " transform="" id="A.FAP.outpoint.text" y="-462.575127348" x="779.734702245">
FAP.out</text>
      <circle style="stroke:red; stroke-width:1; fill:red; " transform="" cy="-316.616005932" cx="805.381849674" r="5" id="A.FAP" d="M 810.38184,-316.616 C 810.38184,-313.85457 808.14326,-311.616 805.38184,-311.616 802.62041,-311.616 800.38184,-313.85457 800.38184,-316.616 800.38184,-319.37742 802.62041,-321.616 805.38184,-321.616 808.14326,-321.616 810.38184,-319.37742 810.38184,-316.616 z" />
      <text style="font-size:30; vertical-align:top; fill-opacity:1.0; fill:darkblue; text-anchor:right; stroke:none; font-weight:normal; font-style:italic; text-align:right; " transform="" id="A.FAP.text" y="-323.616005932" x="812.381849674">
FAP</text>
      <circle style="stroke:red; stroke-width:1; fill:red; " transform="" cy="-175.864934765" cx="1031.81102362" r="5" id="A.FUS2" d="M 1036.811,-175.86493 C 1036.811,-173.10351 1034.5725,-170.86493 1031.811,-170.86493 1029.0496,-170.86493 1026.811,-173.10351 1026.811,-175.86493 1026.811,-178.62635 1029.0496,-180.86493 1031.811,-180.86493 1034.5725,-180.86493 1036.811,-178.62635 1036.811,-175.86493 z" />
      <text style="font-size:30; vertical-align:top; fill-opacity:1.0; fill:darkblue; text-anchor:right; stroke:none; font-weight:normal; font-style:italic; text-align:right; " transform="" id="A.FUS2.text" y="-182.864934765" x="1038.81102362">
FUS2</text>
      <circle style="stroke:gray; stroke-width:1; fill:none; " transform="" cy="-166.38913296" cx="943.094730204" r="5" id="A.FUS.outpoint" d="M 948.09473,-166.38913 C 948.09473,-163.62771 945.85615,-161.38913 943.09473,-161.38913 940.3333,-161.38913 938.09473,-163.62771 938.09473,-166.38913 938.09473,-169.15055 940.3333,-171.38913 943.09473,-171.38913 945.85615,-171.38913 948.09473,-169.15055 948.09473,-166.38913 z" />
      <text style="font-size:25; vertical-align:top; fill-opacity:1.0; fill:gray; text-anchor:right; stroke:none; font-weight:normal; font-style:italic; text-align:right; " transform="" id="A.FUS.outpoint.text" y="-173.38913296" x="950.094730204">
FUS.out</text>
      <circle style="stroke:red; stroke-width:1; fill:red; " transform="" cy="-174.756360349" cx="1031.74894345" r="5" id="A.FUS" d="M 1036.7489,-174.75636 C 1036.7489,-171.99494 1034.5103,-169.75636 1031.7489,-169.75636 1028.9875,-169.75636 1026.7489,-171.99494 1026.7489,-174.75636 1026.7489,-177.51779 1028.9875,-179.75636 1031.7489,-179.75636 1034.5103,-179.75636 1036.7489,-177.51779 1036.7489,-174.75636 z" />
      <text style="font-size:30; vertical-align:top; fill-opacity:1.0; fill:darkblue; text-anchor:right; stroke:none; font-weight:normal; font-style:italic; text-align:right; " transform="" id="A.FUS.text" y="-181.756360349" x="1038.74894345">
FUS</text>
      <circle style="stroke:red; stroke-width:1; fill:red; " transform="" cy="394.987065498" cx="1085.52160267" r="5" id="A.FWS2" d="M 1090.5216,394.98706 C 1090.5216,397.74848 1088.283,399.98706 1085.5216,399.98706 1082.7602,399.98706 1080.5216,397.74848 1080.5216,394.98706 1080.5216,392.22564 1082.7602,389.98706 1085.5216,389.98706 1088.283,389.98706 1090.5216,392.22564 1090.5216,394.98706 z" />
      <text style="font-size:30; vertical-align:top; fill-opacity:1.0; fill:darkblue; text-anchor:right; stroke:none; font-weight:normal; font-style:italic; text-align:right; " transform="" id="A.FWS2.text" y="387.987065498" x="1092.52160267">
FWS2</text>
      <circle style="stroke:red; stroke-width:1; fill:red; " transform="" cy="530.769724945" cx="1098.33683553" r="5" id="A.FWS" d="M 1103.3368,530.76971 C 1103.3368,533.53114 1101.0982,535.76971 1098.3368,535.76971 1095.5754,535.76971 1093.3368,533.53114 1093.3368,530.76971 1093.3368,528.00829 1095.5754,525.76971 1098.3368,525.76971 1101.0982,525.76971 1103.3368,528.00829 1103.3368,530.76971 z" />
      <text style="font-size:30; vertical-align:top; fill-opacity:1.0; fill:darkblue; text-anchor:right; stroke:none; font-weight:normal; font-style:italic; text-align:right; " transform="" id="A.FWS.text" y="523.769724945" x="1105.33683553">
FWS</text>
      <circle style="stroke:red; stroke-width:1; fill:red; " transform="" cy="0.0" cx="354.330708661" r="5" id="A.FD1" d="M 359.33072,0 C 359.33072,2.7614237 357.09214,5 354.33072,5 351.5693,5 349.33072,2.7614237 349.33072,0 349.33072,-2.7614237 351.5693,-5 354.33072,-5 357.09214,-5 359.33072,-2.7614237 359.33072,0 z" />
      <text style="font-size:30; vertical-align:top; fill-opacity:1.0; fill:darkblue; text-anchor:right; stroke:none; font-weight:normal; font-style:italic; text-align:right; " transform="" id="A.FD1.text" y="-7.0" x="361.330708661">
FD1</text>
      <circle style="stroke:red; stroke-width:1; fill:red; " transform="" cy="584.673503361" cx="166.885374801" r="5" id="A.FD1.i" d="M 171.88538,584.67352 C 171.88538,587.43495 169.6468,589.67352 166.88538,589.67352 164.12395,589.67352 161.88538,587.43495 161.88538,584.67352 161.88538,581.9121 164.12395,579.67352 166.88538,579.67352 169.6468,579.67352 171.88538,581.9121 171.88538,584.67352 z" />
      <text style="font-size:30; vertical-align:top; fill-opacity:1.0; fill:darkblue; text-anchor:right; stroke:none; font-weight:normal; font-style:italic; text-align:right; " transform="" id="A.FD1.i.text" y="577.673503361" x="173.885374801">
FD1.i</text>
      <circle style="stroke:red; stroke-width:1; fill:red; " transform="" cy="585.503922485" cx="539.165812128" r="5" id="A.FD1.o" d="M 544.16583,585.50391 C 544.16583,588.26533 541.92726,590.50391 539.16583,590.50391 536.40441,590.50391 534.16583,588.26533 534.16583,585.50391 534.16583,582.74248 536.40441,580.50391 539.16583,580.50391 541.92726,580.50391 544.16583,582.74248 544.16583,585.50391 z" />
      <text style="font-size:30; vertical-align:top; fill-opacity:1.0; fill:darkblue; text-anchor:right; stroke:none; font-weight:normal; font-style:italic; text-align:right; " transform="" id="A.FD1.o.text" y="578.503922485" x="546.165812128">
FD1.o</text>
      <path style="stroke-linejoin:miter; stroke-dashoffset:0; stroke:gray; stroke-miterlimit:4; stroke-dasharray:6,6; stroke-width:2; fill:none; " transform="" d="M 735.022737245  0.0 L 924.643649945  -853.294107152 L 224.210217983  -1008.94598092 L -113.996322554  512.983451491 M 0.0  0.0 L 0.0  -318.897637795 L 70.8661417323  -318.897637795 M 16.6743862899  -75.0347383048 L 354.330708661  0.0 M 0.0  0.0 L 992.125984252  0.0 M -113.996322554  512.983451491 L 899.215897119  -738.869219435 M 155.031607418  -697.642233383 L 992.125984252  532.796482558 M 774.103833859  -175.864934765 L 992.125984252  -175.864934765 M 354.330708661  0.0 L 352.865330164  656.935434302 M 1098.33683553  530.769724945 L 992.125984252  -175.864934765 M 70.8661417323  -318.897637795 L 774.103833859  -175.864934765 L 1031.74894345  -174.756360349 " id="A.gridline" />
    </g>
    <g id="document.bodice.Back.reference" transform=" translate(2363.593001, 438.820000)">
      <circle style="stroke:red; stroke-width:1; fill:red; " transform="" cy="0.0" cx="0.0" r="5" id="B.BSH" d="M 5,0 C 5,2.7614237 2.7614237,5 0,5 -2.7614237,5 -5,2.7614237 -5,0 -5,-2.7614237 -2.7614237,-5 0,-5 2.7614237,-5 5,-2.7614237 5,0 z" />
      <text style="font-size:30; vertical-align:top; fill-opacity:1.0; fill:darkblue; text-anchor:right; stroke:none; font-weight:normal; font-style:italic; text-align:right; " transform="" id="B.BSH.text" y="-7.0" x="7.0">
BSH</text>
      <circle style="stroke:red; stroke-width:1; fill:red; " transform="" cy="0.0" cx="-708.661417323" r="5" id="B.BSW" d="M -703.66144,0 C -703.66144,2.7614237 -705.90001,5 -708.66144,5 -711.42286,5 -713.66144,2.7614237 -713.66144,0 -713.66144,-2.7614237 -711.42286,-5 -708.66144,-5 -705.90001,-5 -703.66144,-2.7614237 -703.66144,0 z" />
      <text style="font-size:30; vertical-align:top; fill-opacity:1.0; fill:darkblue; text-anchor:right; stroke:none; font-weight:normal; font-style:italic; text-align:right; " transform="" id="B.BSW.text" y="-7.0" x="-701.661417323">
BSW</text>
      <circle style="stroke:red; stroke-width:1; fill:red; " transform="" cy="0.0" cx="-885.826771654" r="5" id="B.BUW" d="M -880.82678,0 C -880.82678,2.7614237 -883.06536,5 -885.82678,5 -888.58821,5 -890.82678,2.7614237 -890.82678,0 -890.82678,-2.7614237 -888.58821,-5 -885.82678,-5 -883.06536,-5 -880.82678,-2.7614237 -880.82678,0 z" />
      <text style="font-size:30; vertical-align:top; fill-opacity:1.0; fill:darkblue; text-anchor:right; stroke:none; font-weight:normal; font-style:italic; text-align:right; " transform="" id="B.BUW.text" y="-7.0" x="-878.826771654">
BUW</text>
      <circle style="stroke:red; stroke-width:1; fill:red; " transform="" cy="1488.18897638" cx="0.0" r="5" id="B.BWC" d="M 5,1488.189 C 5,1490.9504 2.7614237,1493.189 0,1493.189 -2.7614237,1493.189 -5,1490.9504 -5,1488.189 -5,1485.4275 -2.7614237,1483.189 0,1483.189 2.7614237,1483.189 5,1485.4275 5,1488.189 z" />
      <text style="font-size:30; vertical-align:top; fill-opacity:1.0; fill:darkblue; text-anchor:right; stroke:none; font-weight:normal; font-style:italic; text-align:right; " transform="" id="B.BWC.text" y="1481.18897638" x="7.0">
BWC</text>
      <circle style="stroke:gray; stroke-width:1; fill:none; " transform="" cy="141.732283465" cx="-142.235487856" r="5" id="B.BNC.inpoint" d="M -137.23549,141.73228 C -137.23549,144.49371 -139.47407,146.73228 -142.23549,146.73228 -144.99691,146.73228 -147.23549,144.49371 -147.23549,141.73228 -147.23549,138.97086 -144.99691,136.73228 -142.23549,136.73228 -139.47407,136.73228 -137.23549,138.97086 -137.23549,141.73228 z" />
      <text style="font-size:25; vertical-align:top; fill-opacity:1.0; fill:gray; text-anchor:right; stroke:none; font-weight:normal; font-style:italic; text-align:right; " transform="" id="B.BNC.inpoint.text" y="134.732283465" x="-135.235487856">
BNC.in</text>
      <circle style="stroke:red; stroke-width:1; fill:red; " transform="" cy="141.732283465" cx="0.0" r="5" id="B.BNC" d="M 5,141.73228 C 5,144.49371 2.7614237,146.73228 0,146.73228 -2.7614237,146.73228 -5,144.49371 -5,141.73228 -5,138.97086 -2.7614237,136.73228 0,136.73228 2.7614237,136.73228 5,138.97086 5,141.73228 z" />
      <text style="font-size:30; vertical-align:top; fill-opacity:1.0; fill:darkblue; text-anchor:right; stroke:none; font-weight:normal; font-style:italic; text-align:right; " transform="" id="B.BNC.text" y="134.732283465" x="7.0">
BNC</text>
      <circle style="stroke:red; stroke-width:1; fill:red; " transform="" cy="179.561670759" cx="-708.661417323" r="5" id="B.BSP1" d="M -703.66144,179.56168 C -703.66144,182.3231 -705.90001,184.56168 -708.66144,184.56168 -711.42286,184.56168 -713.66144,182.3231 -713.66144,179.56168 -713.66144,176.80025 -711.42286,174.56168 -708.66144,174.56168 -705.90001,174.56168 -703.66144,176.80025 -703.66144,179.56168 z" />
      <text style="font-size:30; vertical-align:top; fill-opacity:1.0; fill:darkblue; text-anchor:right; stroke:none; font-weight:normal; font-style:italic; text-align:right; " transform="" id="B.BSP1.text" y="172.561670759" x="-701.661417323">
BSP1</text>
      <circle style="stroke:gray; stroke-width:1; fill:none; " transform="" cy="65.2600679401" cx="-256.846103288" r="5" id="B.BNS.outpoint" d="M -251.8461,65.260071 C -251.8461,68.021495 -254.08468,70.260071 -256.8461,70.260071 -259.60752,70.260071 -261.8461,68.021495 -261.8461,65.260071 -261.8461,62.498647 -259.60752,60.260071 -256.8461,60.260071 -254.08468,60.260071 -251.8461,62.498647 -251.8461,65.260071 z" />
      <text style="font-size:25; vertical-align:top; fill-opacity:1.0; fill:gray; text-anchor:right; stroke:none; font-weight:normal; font-style:italic; text-align:right; " transform="" id="B.BNS.outpoint.text" y="58.2600679401" x="-249.846103288">
BNS.out</text>
      <circle style="stroke:red; stroke-width:1; fill:red; " transform="" cy="0.0" cx="-284.470975712" r="5" id="B.BNS" d="M -279.47098,0 C -279.47098,2.7614237 -281.70955,5 -284.47098,5 -287.2324,5 -289.47098,2.7614237 -289.47098,0 -289.47098,-2.7614237 -287.2324,-5 -284.47098,-5 -281.70955,-5 -279.47098,-2.7614237 -279.47098,0 z" />
      <text style="font-size:30; vertical-align:top; fill-opacity:1.0; fill:darkblue; text-anchor:right; stroke:none; font-weight:normal; font-style:italic; text-align:right; " transform="" id="B.BNS.text" y="-7.0" x="-277.470975712">
BNS</text>
      <circle style="stroke:gray; stroke-width:1; fill:none; " transform="" cy="333.195816447" cx="-678.641388743" r="5" id="B.BSP.inpoint" d="M -673.64142,333.19583 C -673.64142,335.95726 -675.87999,338.19583 -678.64142,338.19583 -681.40284,338.19583 -683.64142,335.95726 -683.64142,333.19583 -683.64142,330.43441 -681.40284,328.19583 -678.64142,328.19583 -675.87999,328.19583 -673.64142,330.43441 -673.64142,333.19583 z" />
      <text style="font-size:25; vertical-align:top; fill-opacity:1.0; fill:gray; text-anchor:right; stroke:none; font-weight:normal; font-style:italic; text-align:right; " transform="" id="B.BSP.inpoint.text" y="326.195816447" x="-671.641388743">
BSP.in</text>
      <circle style="stroke:red; stroke-width:1; fill:red; " transform="" cy="192.130987712" cx="-738.354748236" r="5" id="B.BSP" d="M -733.35474,192.13098 C -733.35474,194.89241 -735.59331,197.13098 -738.35474,197.13098 -741.11616,197.13098 -743.35474,194.89241 -743.35474,192.13098 -743.35474,189.36956 -741.11616,187.13098 -738.35474,187.13098 -735.59331,187.13098 -733.35474,189.36956 -733.35474,192.13098 z" />
      <text style="font-size:30; vertical-align:top; fill-opacity:1.0; fill:darkblue; text-anchor:right; stroke:none; font-weight:normal; font-style:italic; text-align:right; " transform="" id="B.BSP.text" y="185.130987712" x="-731.354748236">
BSP</text>
      <circle style="stroke:gray; stroke-width:1; fill:none; " transform="" cy="758.882834138" cx="-735.361458929" r="5" id="B.BAP.inpoint" d="M -730.36145,758.88281 C -730.36145,761.64424 -732.60003,763.88281 -735.36145,763.88281 -738.12287,763.88281 -740.36145,761.64424 -740.36145,758.88281 -740.36145,756.12139 -738.12287,753.88281 -735.36145,753.88281 -732.60003,753.88281 -730.36145,756.12139 -730.36145,758.88281 z" />
      <text style="font-size:25; vertical-align:top; fill-opacity:1.0; fill:gray; text-anchor:right; stroke:none; font-weight:normal; font-style:italic; text-align:right; " transform="" id="B.BAP.inpoint.text" y="751.882834138" x="-728.361458929">
BAP.in</text>
      <circle style="stroke:gray; stroke-width:1; fill:none; " transform="" cy="507.042747599" cx="-670.40158396" r="5" id="B.BAP.outpoint" d="M -665.40161,507.04276 C -665.40161,509.80418 -667.64019,512.04276 -670.40161,512.04276 -673.16304,512.04276 -675.40161,509.80418 -675.40161,507.04276 -675.40161,504.28133 -673.16304,502.04276 -670.40161,502.04276 -667.64019,502.04276 -665.40161,504.28133 -665.40161,507.04276 z" />
      <text style="font-size:25; vertical-align:top; fill-opacity:1.0; fill:gray; text-anchor:right; stroke:none; font-weight:normal; font-style:italic; text-align:right; " transform="" id="B.BAP.outpoint.text" y="500.042747599" x="-663.40158396">
BAP.out</text>
      <circle style="stroke:red; stroke-width:1; fill:red; " transform="" cy="655.370615374" cx="-708.661417323" r="5" id="B.BAP" d="M -703.66144,655.37061 C -703.66144,658.13203 -705.90001,660.37061 -708.66144,660.37061 -711.42286,660.37061 -713.66144,658.13203 -713.66144,655.37061 -713.66144,652.60918 -711.42286,650.37061 -708.66144,650.37061 -705.90001,650.37061 -703.66144,652.60918 -703.66144,655.37061 z" />
      <text style="font-size:30; vertical-align:top; fill-opacity:1.0; fill:darkblue; text-anchor:right; stroke:none; font-weight:normal; font-style:italic; text-align:right; " transform="" id="B.BAP.text" y="648.370615374" x="-701.661417323">
BAP</text>
      <circle style="stroke:red; stroke-width:1; fill:red; " transform="" cy="1467.51639689" cx="-885.826771654" r="5" id="B.BWS1" d="M -880.82678,1467.5164 C -880.82678,1470.2778 -883.06536,1472.5164 -885.82678,1472.5164 -888.58821,1472.5164 -890.82678,1470.2778 -890.82678,1467.5164 -890.82678,1464.7549 -888.58821,1462.5164 -885.82678,1462.5164 -883.06536,1462.5164 -880.82678,1464.7549 -880.82678,1467.5164 z" />
      <text style="font-size:30; vertical-align:top; fill-opacity:1.0; fill:darkblue; text-anchor:right; stroke:none; font-weight:normal; font-style:italic; text-align:right; " transform="" id="B.BWS1.text" y="1460.51639689" x="-878.826771654">
BWS1</text>
      <circle style="stroke:red; stroke-width:1; fill:red; " transform="" cy="1469.9992447" cx="-779.435933464" r="5" id="B.BWS2" d="M -774.43591,1469.9993 C -774.43591,1472.7607 -776.67449,1474.9993 -779.43591,1474.9993 -782.19734,1474.9993 -784.43591,1472.7607 -784.43591,1469.9993 -784.43591,1467.2378 -782.19734,1464.9993 -779.43591,1464.9993 -776.67449,1464.9993 -774.43591,1467.2378 -774.43591,1469.9993 z" />
      <text style="font-size:30; vertical-align:top; fill-opacity:1.0; fill:darkblue; text-anchor:right; stroke:none; font-weight:normal; font-style:italic; text-align:right; " transform="" id="B.BWS2.text" y="1462.9992447" x="-772.435933464">
BWS2</text>
      <circle style="stroke:red; stroke-width:1; fill:red; " transform="" cy="782.6894069" cx="-389.717966732" r="5" id="B.BD1" d="M -384.71796,782.68939 C -384.71796,785.45082 -386.95653,787.68939 -389.71796,787.68939 -392.47938,787.68939 -394.71796,785.45082 -394.71796,782.68939 -394.71796,779.92797 -392.47938,777.68939 -389.71796,777.68939 -386.95653,777.68939 -384.71796,779.92797 -384.71796,782.68939 z" />
      <text style="font-size:30; vertical-align:top; fill-opacity:1.0; fill:darkblue; text-anchor:right; stroke:none; font-weight:normal; font-style:italic; text-align:right; " transform="" id="B.BD1.text" y="775.6894069" x="-382.717966732">
BD1</text>
      <circle style="stroke:red; stroke-width:1; fill:red; " transform="" cy="1485.77239488" cx="-336.107987793" r="5" id="B.BD1.i" d="M -331.108,1485.7723 C -331.108,1488.5338 -333.34658,1490.7723 -336.108,1490.7723 -338.86943,1490.7723 -341.108,1488.5338 -341.108,1485.7723 -341.108,1483.0109 -338.86943,1480.7723 -336.108,1480.7723 -333.34658,1480.7723 -331.108,1483.0109 -331.108,1485.7723 z" />
      <text style="font-size:30; vertical-align:top; fill-opacity:1.0; fill:darkblue; text-anchor:right; stroke:none; font-weight:normal; font-style:italic; text-align:right; " transform="" id="B.BD1.i.text" y="1478.77239488" x="-329.107987793">
BD1.i</text>
      <circle style="stroke:red; stroke-width:1; fill:red; " transform="" cy="1485.75785397" cx="-443.518306572" r="5" id="B.BD1.o" d="M -438.51831,1485.7578 C -438.51831,1488.5192 -440.75689,1490.7578 -443.51831,1490.7578 -446.27973,1490.7578 -448.51831,1488.5192 -448.51831,1485.7578 -448.51831,1482.9964 -446.27973,1480.7578 -443.51831,1480.7578 -440.75689,1480.7578 -438.51831,1482.9964 -438.51831,1485.7578 z" />
      <text style="font-size:30; vertical-align:top; fill-opacity:1.0; fill:darkblue; text-anchor:right; stroke:none; font-weight:normal; font-style:italic; text-align:right; " transform="" id="B.BD1.o.text" y="1478.75785397" x="-436.518306572">
BD1.o</text>
      <circle style="stroke:red; stroke-width:1; fill:red; " transform="" cy="1483.49617636" cx="-780.608539941" r="5" id="B.BWS3" d="M -775.60852,1483.4962 C -775.60852,1486.2576 -777.8471,1488.4962 -780.60852,1488.4962 -783.36994,1488.4962 -785.60852,1486.2576 -785.60852,1483.4962 -785.60852,1480.7348 -783.36994,1478.4962 -780.60852,1478.4962 -777.8471,1478.4962 -775.60852,1480.7348 -775.60852,1483.4962 z" />
      <text style="font-size:30; vertical-align:top; fill-opacity:1.0; fill:darkblue; text-anchor:right; stroke:none; font-weight:normal; font-style:italic; text-align:right; " transform="" id="B.BWS3.text" y="1476.49617636" x="-773.608539941">
BWS3</text>
      <circle style="stroke:red; stroke-width:1; fill:red; " transform="" cy="782.6894069" cx="-885.826771654" r="5" id="B.BUS1" d="M -880.82678,782.68939 C -880.82678,785.45082 -883.06536,787.68939 -885.82678,787.68939 -888.58821,787.68939 -890.82678,785.45082 -890.82678,782.68939 -890.82678,779.92797 -888.58821,777.68939 -885.82678,777.68939 -883.06536,777.68939 -880.82678,779.92797 -880.82678,782.68939 z" />
      <text style="font-size:30; vertical-align:top; fill-opacity:1.0; fill:darkblue; text-anchor:right; stroke:none; font-weight:normal; font-style:italic; text-align:right; " transform="" id="B.BUS1.text" y="775.6894069" x="-878.826771654">
BUS1</text>
      <circle style="stroke:red; stroke-width:1; fill:red; " transform="" cy="782.6894069" cx="0.0" r="5" id="B.BUC" d="M 5,782.68939 C 5,785.45082 2.7614237,787.68939 0,787.68939 -2.7614237,787.68939 -5,785.45082 -5,782.68939 -5,779.92797 -2.7614237,777.68939 0,777.68939 2.7614237,777.68939 5,779.92797 5,782.68939 z" />
      <text style="font-size:30; vertical-align:top; fill-opacity:1.0; fill:darkblue; text-anchor:right; stroke:none; font-weight:normal; font-style:italic; text-align:right; " transform="" id="B.BUC.text" y="775.6894069" x="7.0">
BUC</text>
      <circle style="stroke:red; stroke-width:1; fill:red; " transform="" cy="782.6894069" cx="-921.25984252" r="5" id="B.BUS2" d="M -916.25983,782.68939 C -916.25983,785.45082 -918.4984,787.68939 -921.25983,787.68939 -924.02125,787.68939 -926.25983,785.45082 -926.25983,782.68939 -926.25983,779.92797 -924.02125,777.68939 -921.25983,777.68939 -918.4984,777.68939 -916.25983,779.92797 -916.25983,782.68939 z" />
      <text style="font-size:30; vertical-align:top; fill-opacity:1.0; fill:darkblue; text-anchor:right; stroke:none; font-weight:normal; font-style:italic; text-align:right; " transform="" id="B.BUS2.text" y="775.6894069" x="-914.25984252">
BUS2</text>
      <circle style="stroke:red; stroke-width:1; fill:red; " transform="" cy="788.690056027" cx="-920.055517515" r="5" id="B.BUS3" d="M -915.05554,788.69006 C -915.05554,791.45149 -917.29412,793.69006 -920.05554,793.69006 -922.81697,793.69006 -925.05554,791.45149 -925.05554,788.69006 -925.05554,785.92864 -922.81697,783.69006 -920.05554,783.69006 -917.29412,783.69006 -915.05554,785.92864 -915.05554,788.69006 z" />
      <text style="font-size:30; vertical-align:top; fill-opacity:1.0; fill:darkblue; text-anchor:right; stroke:none; font-weight:normal; font-style:italic; text-align:right; " transform="" id="B.BUS3.text" y="781.690056027" x="-913.055517515">
BUS3</text>
      <circle style="stroke:gray; stroke-width:1; fill:none; " transform="" cy="847.649432884" cx="-813.118863548" r="5" id="B.BUS.outpoint" d="M -808.11884,847.64941 C -808.11884,850.41084 -810.35741,852.64941 -813.11884,852.64941 -815.88026,852.64941 -818.11884,850.41084 -818.11884,847.64941 -818.11884,844.88799 -815.88026,842.64941 -813.11884,842.64941 -810.35741,842.64941 -808.11884,844.88799 -808.11884,847.64941 z" />
      <text style="font-size:25; vertical-align:top; fill-opacity:1.0; fill:gray; text-anchor:right; stroke:none; font-weight:normal; font-style:italic; text-align:right; " transform="" id="B.BUS.outpoint.text" y="840.649432884" x="-806.118863548">
BUS.out</text>
      <circle style="stroke:red; stroke-width:1; fill:red; " transform="" cy="869.17119213" cx="-912.991151965" r="5" id="B.BUS" d="M -907.99115,869.1712 C -907.99115,871.93263 -910.22973,874.1712 -912.99115,874.1712 -915.75257,874.1712 -917.99115,871.93263 -917.99115,869.1712 -917.99115,866.40978 -915.75257,864.1712 -912.99115,864.1712 -910.22973,864.1712 -907.99115,866.40978 -907.99115,869.1712 z" />
      <text style="font-size:30; vertical-align:top; fill-opacity:1.0; fill:darkblue; text-anchor:right; stroke:none; font-weight:normal; font-style:italic; text-align:right; " transform="" id="B.BUS.text" y="862.17119213" x="-905.991151965">
BUS</text>
      <circle style="stroke:red; stroke-width:1; fill:red; " transform="" cy="1561.93025223" cx="-763.70656118" r="5" id="B.BWS" d="M -758.70654,1561.9303 C -758.70654,1564.6917 -760.94512,1566.9303 -763.70654,1566.9303 -766.46797,1566.9303 -768.70654,1564.6917 -768.70654,1561.9303 -768.70654,1559.1689 -766.46797,1556.9303 -763.70654,1556.9303 -760.94512,1556.9303 -758.70654,1559.1689 -758.70654,1561.9303 z" />
      <text style="font-size:30; vertical-align:top; fill-opacity:1.0; fill:darkblue; text-anchor:right; stroke:none; font-weight:normal; font-style:italic; text-align:right; " transform="" id="B.BWS.text" y="1554.93025223" x="-756.70656118">
BWS</text>
      <circle style="stroke:red; stroke-width:1; fill:red; " transform="" cy="309.800082849" cx="-420.938074864" r="5" id="B.BD2" d="M -415.93808,309.80008 C -415.93808,312.5615 -418.17666,314.80008 -420.93808,314.80008 -423.6995,314.80008 -425.93808,312.5615 -425.93808,309.80008 -425.93808,307.03866 -423.6995,304.80008 -420.93808,304.80008 -418.17666,304.80008 -415.93808,307.03866 -415.93808,309.80008 z" />
      <text style="font-size:30; vertical-align:top; fill-opacity:1.0; fill:darkblue; text-anchor:right; stroke:none; font-weight:normal; font-style:italic; text-align:right; " transform="" id="B.BD2.text" y="302.800082849" x="-413.938074864">
BD2</text>
      <circle style="stroke:red; stroke-width:1; fill:red; " transform="" cy="87.5168603411" cx="-497.344401977" r="5" id="B.BD2.i" d="M -492.34439,87.516861 C -492.34439,90.278285 -494.58297,92.516861 -497.34439,92.516861 -500.10581,92.516861 -502.34439,90.278285 -502.34439,87.516861 -502.34439,84.755437 -500.10581,82.516861 -497.34439,82.516861 -494.58297,82.516861 -492.34439,84.755437 -492.34439,87.516861 z" />
      <text style="font-size:30; vertical-align:top; fill-opacity:1.0; fill:darkblue; text-anchor:right; stroke:none; font-weight:normal; font-style:italic; text-align:right; " transform="" id="B.BD2.i.text" y="80.5168603411" x="-490.344401977">
BD2.i</text>
      <circle style="stroke:red; stroke-width:1; fill:red; " transform="" cy="100.215514251" cx="-527.343274159" r="5" id="B.BD2.o" d="M -522.34326,100.21552 C -522.34326,102.97694 -524.58184,105.21552 -527.34326,105.21552 -530.10469,105.21552 -532.34326,102.97694 -532.34326,100.21552 -532.34326,97.454091 -530.10469,95.215515 -527.34326,95.215515 -524.58184,95.215515 -522.34326,97.454091 -522.34326,100.21552 z" />
      <text style="font-size:30; vertical-align:top; fill-opacity:1.0; fill:darkblue; text-anchor:right; stroke:none; font-weight:normal; font-style:italic; text-align:right; " transform="" id="B.BD2.o.text" y="93.2155142507" x="-520.343274159">
BD2.o</text>
      <path style="stroke-linejoin:miter; stroke-dashoffset:0; stroke:gray; stroke-miterlimit:4; stroke-dasharray:6,6; stroke-width:2; fill:none; " transform="" d="M -885.826771654  0.0 L 0.0  0.0 L 0.0  1488.18897638 L -708.661417323  179.561670759 L -708.661417323  0.0 M -708.661417323  179.561670759 L -708.661417323  655.370615374 L -763.70656118  1561.93025223 M -708.661417323  655.370615374 L -885.826771654  1467.51639689 M -921.25984252  782.6894069 L 0.0  782.6894069 M -885.826771654  0.0 L -885.826771654  1467.51639689 M 0.0  141.732283465 L -885.826771654  1467.51639689 " id="B.gridline" />
    </g>
    <g id="document.bodice.Sleeve.reference" transform=" translate(717.166089, 2275.951415)">
      <circle style="stroke:gray; stroke-width:1; fill:none; " transform="" cy="0" cx="-313.041706072" r="5" id="C.SCM.inpoint" d="M -308.04172,0 C -308.04172,2.7614237 -310.28029,5 -313.04172,5 -315.80314,5 -318.04172,2.7614237 -318.04172,0 -318.04172,-2.7614237 -315.80314,-5 -313.04172,-5 -310.28029,-5 -308.04172,-2.7614237 -308.04172,0 z" />
      <text style="font-size:25; vertical-align:top; fill-opacity:1.0; fill:gray; text-anchor:right; stroke:none; font-weight:normal; font-style:italic; text-align:right; " transform="" id="C.SCM.inpoint.text" y="-7" x="-306.041706072">
SCM.in</text>
      <circle style="stroke:gray; stroke-width:1; fill:none; " transform="" cy="0" cx="174.402738815" r="5" id="C.SCM.outpoint" d="M 179.40274,0 C 179.40274,2.7614237 177.16416,5 174.40274,5 171.64132,5 169.40274,2.7614237 169.40274,0 169.40274,-2.7614237 171.64132,-5 174.40274,-5 177.16416,-5 179.40274,-2.7614237 179.40274,0 z" />
      <text style="font-size:25; vertical-align:top; fill-opacity:1.0; fill:gray; text-anchor:right; stroke:none; font-weight:normal; font-style:italic; text-align:right; " transform="" id="C.SCM.outpoint.text" y="-7" x="181.402738815">
SCM.out</text>
      <circle style="stroke:red; stroke-width:1; fill:red; " transform="" cy="0" cx="0" r="5" id="C.SCM" d="M 5,0 C 5,2.7614237 2.7614237,5 0,5 -2.7614237,5 -5,2.7614237 -5,0 -5,-2.7614237 -2.7614237,-5 0,-5 2.7614237,-5 5,-2.7614237 5,0 z" />
      <text style="font-size:30; vertical-align:top; fill-opacity:1.0; fill:darkblue; text-anchor:right; stroke:none; font-weight:normal; font-style:italic; text-align:right; " transform="" id="C.SCM.text" y="-7" x="7">
SCM</text>
      <circle style="stroke:red; stroke-width:1; fill:red; " transform="" cy="2161.41732283" cx="0" r="5" id="C.SWM" d="M 5,2161.4172 C 5,2164.1787 2.7614237,2166.4172 0,2166.4172 -2.7614237,2166.4172 -5,2164.1787 -5,2161.4172 -5,2158.6558 -2.7614237,2156.4172 0,2156.4172 2.7614237,2156.4172 5,2158.6558 5,2161.4172 z" />
      <text style="font-size:30; vertical-align:top; fill-opacity:1.0; fill:darkblue; text-anchor:right; stroke:none; font-weight:normal; font-style:italic; text-align:right; " transform="" id="C.SWM.text" y="2154.41732283" x="7">
SWM</text>
      <circle style="stroke:red; stroke-width:1; fill:red; " transform="" cy="425.196850394" cx="0" r="5" id="C.SBM1" d="M 5,425.19684 C 5,427.95826 2.7614237,430.19684 0,430.19684 -2.7614237,430.19684 -5,427.95826 -5,425.19684 -5,422.43541 -2.7614237,420.19684 0,420.19684 2.7614237,420.19684 5,422.43541 5,425.19684 z" />
      <text style="font-size:30; vertical-align:top; fill-opacity:1.0; fill:darkblue; text-anchor:right; stroke:none; font-weight:normal; font-style:italic; text-align:right; " transform="" id="C.SBM1.text" y="418.196850394" x="7">
SBM1</text>
      <circle style="stroke:red; stroke-width:1; fill:red; " transform="" cy="1206.49606299" cx="0" r="5" id="C.SEM" d="M 5,1206.4961 C 5,1209.2575 2.7614237,1211.4961 0,1211.4961 -2.7614237,1211.4961 -5,1209.2575 -5,1206.4961 -5,1203.7347 -2.7614237,1201.4961 0,1201.4961 2.7614237,1201.4961 5,1203.7347 5,1206.4961 z" />
      <text style="font-size:30; vertical-align:top; fill-opacity:1.0; fill:darkblue; text-anchor:right; stroke:none; font-weight:normal; font-style:italic; text-align:right; " transform="" id="C.SEM.text" y="1199.49606299" x="7">
SEM</text>
      <circle style="stroke:red; stroke-width:1; fill:red; " transform="" cy="425.196850394" cx="-584.645669291" r="5" id="C.SBF1" d="M -579.64569,425.19684 C -579.64569,427.95826 -581.88427,430.19684 -584.64569,430.19684 -587.40711,430.19684 -589.64569,427.95826 -589.64569,425.19684 -589.64569,422.43541 -587.40711,420.19684 -584.64569,420.19684 -581.88427,420.19684 -579.64569,422.43541 -579.64569,425.19684 z" />
      <text style="font-size:30; vertical-align:top; fill-opacity:1.0; fill:darkblue; text-anchor:right; stroke:none; font-weight:normal; font-style:italic; text-align:right; " transform="" id="C.SBF1.text" y="418.196850394" x="-577.645669291">
SBF1</text>
      <circle style="stroke:red; stroke-width:1; fill:red; " transform="" cy="425.196850394" cx="584.645669291" r="5" id="C.SBB1" d="M 589.64569,425.19684 C 589.64569,427.95826 587.40711,430.19684 584.64569,430.19684 581.88427,430.19684 579.64569,427.95826 579.64569,425.19684 579.64569,422.43541 581.88427,420.19684 584.64569,420.19684 587.40711,420.19684 589.64569,422.43541 589.64569,425.19684 z" />
      <text style="font-size:30; vertical-align:top; fill-opacity:1.0; fill:darkblue; text-anchor:right; stroke:none; font-weight:normal; font-style:italic; text-align:right; " transform="" id="C.SBB1.text" y="418.196850394" x="591.645669291">
SBB1</text>
      <circle style="stroke:red; stroke-width:1; fill:red; " transform="" cy="361.417322835" cx="0" r="5" id="C.SBM" d="M 5,361.41733 C 5,364.17875 2.7614237,366.41733 0,366.41733 -2.7614237,366.41733 -5,364.17875 -5,361.41733 -5,358.6559 -2.7614237,356.41733 0,356.41733 2.7614237,356.41733 5,358.6559 5,361.41733 z" />
      <text style="font-size:30; vertical-align:top; fill-opacity:1.0; fill:darkblue; text-anchor:right; stroke:none; font-weight:normal; font-style:italic; text-align:right; " transform="" id="C.SBM.text" y="354.417322835" x="7">
SBM</text>
      <circle style="stroke:gray; stroke-width:1; fill:none; " transform="" cy="361.417322835" cx="-375.650047286" r="5" id="C.SBF.outpoint" d="M -370.65005,361.41733 C -370.65005,364.17875 -372.88863,366.41733 -375.65005,366.41733 -378.41148,366.41733 -380.65005,364.17875 -380.65005,361.41733 -380.65005,358.6559 -378.41148,356.41733 -375.65005,356.41733 -372.88863,356.41733 -370.65005,358.6559 -370.65005,361.41733 z" />
      <text style="font-size:25; vertical-align:top; fill-opacity:1.0; fill:gray; text-anchor:right; stroke:none; font-weight:normal; font-style:italic; text-align:right; " transform="" id="C.SBF.outpoint.text" y="354.417322835" x="-368.650047286">
SBF.out</text>
      <circle style="stroke:red; stroke-width:1; fill:red; " transform="" cy="361.417322835" cx="-626.083412143" r="5" id="C.SBF" d="M -621.08344,361.41733 C -621.08344,364.17875 -623.32201,366.41733 -626.08344,366.41733 -628.84486,366.41733 -631.08344,364.17875 -631.08344,361.41733 -631.08344,358.6559 -628.84486,356.41733 -626.08344,356.41733 -623.32201,356.41733 -621.08344,358.6559 -621.08344,361.41733 z" />
      <text style="font-size:30; vertical-align:top; fill-opacity:1.0; fill:darkblue; text-anchor:right; stroke:none; font-weight:normal; font-style:italic; text-align:right; " transform="" id="C.SBF.text" y="354.417322835" x="-619.083412143">
SBF</text>
      <circle style="stroke:gray; stroke-width:1; fill:none; " transform="" cy="361.417322835" cx="547.822985625" r="5" id="C.SBB.inpoint" d="M 552.823,361.41733 C 552.823,364.17875 550.58442,366.41733 547.823,366.41733 545.06157,366.41733 542.823,364.17875 542.823,361.41733 542.823,358.6559 545.06157,356.41733 547.823,356.41733 550.58442,356.41733 552.823,358.6559 552.823,361.41733 z" />
      <text style="font-size:25; vertical-align:top; fill-opacity:1.0; fill:gray; text-anchor:right; stroke:none; font-weight:normal; font-style:italic; text-align:right; " transform="" id="C.SBB.inpoint.text" y="354.417322835" x="554.822985625">
SBB.in</text>
      <circle style="stroke:red; stroke-width:1; fill:red; " transform="" cy="361.417322835" cx="626.083412143" r="5" id="C.SBB" d="M 631.08344,361.41733 C 631.08344,364.17875 628.84486,366.41733 626.08344,366.41733 623.32201,366.41733 621.08344,364.17875 621.08344,361.41733 621.08344,358.6559 623.32201,356.41733 626.08344,356.41733 628.84486,356.41733 631.08344,358.6559 631.08344,361.41733 z" />
      <text style="font-size:30; vertical-align:top; fill-opacity:1.0; fill:darkblue; text-anchor:right; stroke:none; font-weight:normal; font-style:italic; text-align:right; " transform="" id="C.SBB.text" y="354.417322835" x="633.083412143">
SBB</text>
      <circle style="stroke:red; stroke-width:1; fill:red; " transform="" cy="361.417322835" cx="-469.562559107" r="5" id="C.SCF1" d="M -464.56256,361.41733 C -464.56256,364.17875 -466.80114,366.41733 -469.56256,366.41733 -472.32398,366.41733 -474.56256,364.17875 -474.56256,361.41733 -474.56256,358.6559 -472.32398,356.41733 -469.56256,356.41733 -466.80114,356.41733 -464.56256,358.6559 -464.56256,361.41733 z" />
      <text style="font-size:30; vertical-align:top; fill-opacity:1.0; fill:darkblue; text-anchor:right; stroke:none; font-weight:normal; font-style:italic; text-align:right; " transform="" id="C.SCF1.text" y="354.417322835" x="-462.562559107">
SCF1</text>
      <circle style="stroke:red; stroke-width:1; fill:red; " transform="" cy="0" cx="-156.520853036" r="5" id="C.SCF4" d="M -151.52086,0 C -151.52086,2.7614237 -153.75944,5 -156.52086,5 -159.28228,5 -161.52086,2.7614237 -161.52086,0 -161.52086,-2.7614237 -159.28228,-5 -156.52086,-5 -153.75944,-5 -151.52086,-2.7614237 -151.52086,0 z" />
      <text style="font-size:30; vertical-align:top; fill-opacity:1.0; fill:darkblue; text-anchor:right; stroke:none; font-weight:normal; font-style:italic; text-align:right; " transform="" id="C.SCF4.text" y="-7" x="-149.520853036">
SCF4</text>
      <circle style="stroke:red; stroke-width:1; fill:red; " transform="" cy="243.105989532" cx="-367.087167684" r="5" id="C.SCF2" d="M -362.08716,243.10599 C -362.08716,245.86741 -364.32573,248.10599 -367.08716,248.10599 -369.84858,248.10599 -372.08716,245.86741 -372.08716,243.10599 -372.08716,240.34456 -369.84858,238.10599 -367.08716,238.10599 -364.32573,238.10599 -362.08716,240.34456 -362.08716,243.10599 z" />
      <text style="font-size:30; vertical-align:top; fill-opacity:1.0; fill:darkblue; text-anchor:right; stroke:none; font-weight:normal; font-style:italic; text-align:right; " transform="" id="C.SCF2.text" y="236.105989532" x="-360.087167684">
SCF2</text>
      <circle style="stroke:red; stroke-width:1; fill:red; " transform="" cy="118.311333302" cx="-258.996244459" r="5" id="C.SCF3" d="M -253.99625,118.31133 C -253.99625,121.07276 -256.23482,123.31133 -258.99625,123.31133 -261.75767,123.31133 -263.99625,121.07276 -263.99625,118.31133 -263.99625,115.54991 -261.75767,113.31133 -258.99625,113.31133 -256.23482,113.31133 -253.99625,115.54991 -253.99625,118.31133 z" />
      <text style="font-size:30; vertical-align:top; fill-opacity:1.0; fill:darkblue; text-anchor:right; stroke:none; font-weight:normal; font-style:italic; text-align:right; " transform="" id="C.SCF3.text" y="111.311333302" x="-251.996244459">
SCF3</text>
      <circle style="stroke:red; stroke-width:1; fill:red; " transform="" cy="361.417322835" cx="547.822985625" r="5" id="C.SCB4" d="M 552.823,361.41733 C 552.823,364.17875 550.58442,366.41733 547.823,366.41733 545.06157,366.41733 542.823,364.17875 542.823,361.41733 542.823,358.6559 545.06157,356.41733 547.823,356.41733 550.58442,356.41733 552.823,358.6559 552.823,361.41733 z" />
      <text style="font-size:30; vertical-align:top; fill-opacity:1.0; fill:darkblue; text-anchor:right; stroke:none; font-weight:normal; font-style:italic; text-align:right; " transform="" id="C.SCB4.text" y="354.417322835" x="554.822985625">
SCB4</text>
      <circle style="stroke:red; stroke-width:1; fill:red; " transform="" cy="0" cx="234.781279554" r="5" id="C.SCB1" d="M 239.78128,0 C 239.78128,2.7614237 237.5427,5 234.78128,5 232.01986,5 229.78128,2.7614237 229.78128,0 229.78128,-2.7614237 232.01986,-5 234.78128,-5 237.5427,-5 239.78128,-2.7614237 239.78128,0 z" />
      <text style="font-size:30; vertical-align:top; fill-opacity:1.0; fill:darkblue; text-anchor:right; stroke:none; font-weight:normal; font-style:italic; text-align:right; " transform="" id="C.SCB1.text" y="-7" x="241.781279554">
SCB1</text>
      <circle style="stroke:red; stroke-width:1; fill:red; " transform="" cy="177.466999953" cx="388.494366688" r="5" id="C.SCB2" d="M 393.49435,177.467 C 393.49435,180.22842 391.25578,182.467 388.49435,182.467 385.73293,182.467 383.49435,180.22842 383.49435,177.467 383.49435,174.70557 385.73293,172.467 388.49435,172.467 391.25578,172.467 393.49435,174.70557 393.49435,177.467 z" />
      <text style="font-size:30; vertical-align:top; fill-opacity:1.0; fill:darkblue; text-anchor:right; stroke:none; font-weight:normal; font-style:italic; text-align:right; " transform="" id="C.SCB2.text" y="170.466999953" x="395.494366688">
SCB2</text>
      <circle style="stroke:gray; stroke-width:1; fill:none; " transform="" cy="170.433722968" cx="382.402492039" r="5" id="C.SCB3.inpoint" d="M 387.4025,170.43372 C 387.4025,173.19514 385.16392,175.43372 382.4025,175.43372 379.64107,175.43372 377.4025,173.19514 377.4025,170.43372 377.4025,167.67229 379.64107,165.43372 382.4025,165.43372 385.16392,165.43372 387.4025,167.67229 387.4025,170.43372 z" />
      <text style="font-size:25; vertical-align:top; fill-opacity:1.0; fill:gray; text-anchor:right; stroke:none; font-weight:normal; font-style:italic; text-align:right; " transform="" id="C.SCB3.inpoint.text" y="163.433722968" x="389.402492039">
SCB3.in</text>
      <circle style="stroke:gray; stroke-width:1; fill:none; " transform="" cy="361.417322835" cx="547.822985625" r="5" id="C.SCB3.outpoint" d="M 552.823,361.41733 C 552.823,364.17875 550.58442,366.41733 547.823,366.41733 545.06157,366.41733 542.823,364.17875 542.823,361.41733 542.823,358.6559 545.06157,356.41733 547.823,356.41733 550.58442,356.41733 552.823,358.6559 552.823,361.41733 z" />
      <text style="font-size:25; vertical-align:top; fill-opacity:1.0; fill:gray; text-anchor:right; stroke:none; font-weight:normal; font-style:italic; text-align:right; " transform="" id="C.SCB3.outpoint.text" y="354.417322835" x="554.822985625">
SCB3.out</text>
      <circle style="stroke:red; stroke-width:1; fill:red; " transform="" cy="302.261656184" cx="496.585289914" r="5" id="C.SCB3" d="M 501.5853,302.26166 C 501.5853,305.02308 499.34672,307.26166 496.5853,307.26166 493.82387,307.26166 491.5853,305.02308 491.5853,302.26166 491.5853,299.50023 493.82387,297.26166 496.5853,297.26166 499.34672,297.26166 501.5853,299.50023 501.5853,302.26166 z" />
      <text style="font-size:30; vertical-align:top; fill-opacity:1.0; fill:darkblue; text-anchor:right; stroke:none; font-weight:normal; font-style:italic; text-align:right; " transform="" id="C.SCB3.text" y="295.261656184" x="503.585289914">
SCB3</text>
      <circle style="stroke:red; stroke-width:1; fill:red; " transform="" cy="1206.49606299" cx="-531.496062992" r="5" id="C.SEF" d="M -526.49603,1206.4961 C -526.49603,1209.2575 -528.73461,1211.4961 -531.49603,1211.4961 -534.25746,1211.4961 -536.49603,1209.2575 -536.49603,1206.4961 -536.49603,1203.7347 -534.25746,1201.4961 -531.49603,1201.4961 -528.73461,1201.4961 -526.49603,1203.7347 -526.49603,1206.4961 z" />
      <text style="font-size:30; vertical-align:top; fill-opacity:1.0; fill:darkblue; text-anchor:right; stroke:none; font-weight:normal; font-style:italic; text-align:right; " transform="" id="C.SEF.text" y="1199.49606299" x="-524.496062992">
SEF</text>
      <circle style="stroke:red; stroke-width:1; fill:red; " transform="" cy="1206.49606299" cx="531.496062992" r="5" id="C.SEB" d="M 536.49603,1206.4961 C 536.49603,1209.2575 534.25746,1211.4961 531.49603,1211.4961 528.73461,1211.4961 526.49603,1209.2575 526.49603,1206.4961 526.49603,1203.7347 528.73461,1201.4961 531.49603,1201.4961 534.25746,1201.4961 536.49603,1203.7347 536.49603,1206.4961 z" />
      <text style="font-size:30; vertical-align:top; fill-opacity:1.0; fill:darkblue; text-anchor:right; stroke:none; font-weight:normal; font-style:italic; text-align:right; " transform="" id="C.SEB.text" y="1199.49606299" x="538.496062992">
SEB</text>
      <circle style="stroke:red; stroke-width:1; fill:red; " transform="" cy="1206.49606299" cx="265.748031496" r="5" id="C.SEB1" d="M 270.74802,1206.4961 C 270.74802,1209.2575 268.50944,1211.4961 265.74802,1211.4961 262.98659,1211.4961 260.74802,1209.2575 260.74802,1206.4961 260.74802,1203.7347 262.98659,1201.4961 265.74802,1201.4961 268.50944,1201.4961 270.74802,1203.7347 270.74802,1206.4961 z" />
      <text style="font-size:30; vertical-align:top; fill-opacity:1.0; fill:darkblue; text-anchor:right; stroke:none; font-weight:normal; font-style:italic; text-align:right; " transform="" id="C.SEB1.text" y="1199.49606299" x="272.748031496">
SEB1</text>
      <circle style="stroke:red; stroke-width:1; fill:red; " transform="" cy="2161.41732283" cx="-283.464566929" r="5" id="C.SWF1" d="M -278.46457,2161.4172 C -278.46457,2164.1787 -280.70315,2166.4172 -283.46457,2166.4172 -286.22599,2166.4172 -288.46457,2164.1787 -288.46457,2161.4172 -288.46457,2158.6558 -286.22599,2156.4172 -283.46457,2156.4172 -280.70315,2156.4172 -278.46457,2158.6558 -278.46457,2161.4172 z" />
      <text style="font-size:30; vertical-align:top; fill-opacity:1.0; fill:darkblue; text-anchor:right; stroke:none; font-weight:normal; font-style:italic; text-align:right; " transform="" id="C.SWF1.text" y="2154.41732283" x="-276.464566929">
SWF1</text>
      <circle style="stroke:red; stroke-width:1; fill:red; " transform="" cy="2234.75306611" cx="-9.65070778025" r="5" id="C.SWM1" d="M -4.6507082,2234.7532 C -4.6507082,2237.5146 -6.8892844,2239.7532 -9.6507082,2239.7532 -12.412132,2239.7532 -14.650708,2237.5146 -14.650708,2234.7532 -14.650708,2231.9918 -12.412132,2229.7532 -9.6507082,2229.7532 -6.8892844,2229.7532 -4.6507082,2231.9918 -4.6507082,2234.7532 z" />
      <text style="font-size:30; vertical-align:top; fill-opacity:1.0; fill:darkblue; text-anchor:right; stroke:none; font-weight:normal; font-style:italic; text-align:right; " transform="" id="C.SWM1.text" y="2227.75306611" x="-2.65070778025">
SWM1</text>
      <circle style="stroke:red; stroke-width:1; fill:red; " transform="" cy="2271.42093775" cx="127.256221794" r="5" id="C.SWB" d="M 132.25623,2271.4209 C 132.25623,2274.1823 130.01765,2276.4209 127.25623,2276.4209 124.4948,2276.4209 122.25623,2274.1823 122.25623,2271.4209 122.25623,2268.6595 124.4948,2266.4209 127.25623,2266.4209 130.01765,2266.4209 132.25623,2268.6595 132.25623,2271.4209 z" />
      <text style="font-size:30; vertical-align:top; fill-opacity:1.0; fill:darkblue; text-anchor:right; stroke:none; font-weight:normal; font-style:italic; text-align:right; " transform="" id="C.SWB.text" y="2264.42093775" x="134.256221794">
SWB</text>
      <circle style="stroke:gray; stroke-width:1; fill:none; " transform="" cy="2174.47219868" cx="-234.72154237" r="5" id="C.SWF2.outpoint" d="M -229.72154,2174.4722 C -229.72154,2177.2336 -231.96012,2179.4722 -234.72154,2179.4722 -237.48297,2179.4722 -239.72154,2177.2336 -239.72154,2174.4722 -239.72154,2171.7107 -237.48297,2169.4722 -234.72154,2169.4722 -231.96012,2169.4722 -229.72154,2171.7107 -229.72154,2174.4722 z" />
      <text style="font-size:25; vertical-align:top; fill-opacity:1.0; fill:gray; text-anchor:right; stroke:none; font-weight:normal; font-style:italic; text-align:right; " transform="" id="C.SWF2.outpoint.text" y="2167.47219868" x="-227.72154237">
SWF2.out</text>
      <circle style="stroke:red; stroke-width:1; fill:red; " transform="" cy="2198.08519447" cx="-146.557637355" r="5" id="C.SWF2" d="M -141.55763,2198.0852 C -141.55763,2200.8466 -143.79621,2203.0852 -146.55763,2203.0852 -149.31906,2203.0852 -151.55763,2200.8466 -151.55763,2198.0852 -151.55763,2195.3238 -149.31906,2193.0852 -146.55763,2193.0852 -143.79621,2193.0852 -141.55763,2195.3238 -141.55763,2198.0852 z" />
      <text style="font-size:30; vertical-align:top; fill-opacity:1.0; fill:darkblue; text-anchor:right; stroke:none; font-weight:normal; font-style:italic; text-align:right; " transform="" id="C.SWF2.text" y="2191.08519447" x="-139.557637355">
SWF2</text>
      <circle style="stroke:gray; stroke-width:1; fill:none; " transform="" cy="2174.47219868" cx="-332.207591488" r="5" id="C.SWF.inpoint" d="M -327.20758,2174.4722 C -327.20758,2177.2336 -329.44616,2179.4722 -332.20758,2179.4722 -334.969,2179.4722 -337.20758,2177.2336 -337.20758,2174.4722 -337.20758,2171.7107 -334.969,2169.4722 -332.20758,2169.4722 -329.44616,2169.4722 -327.20758,2171.7107 -327.20758,2174.4722 z" />
      <text style="font-size:25; vertical-align:top; fill-opacity:1.0; fill:gray; text-anchor:right; stroke:none; font-weight:normal; font-style:italic; text-align:right; " transform="" id="C.SWF.inpoint.text" y="2167.47219868" x="-325.207591488">
SWF.in</text>
      <circle style="stroke:red; stroke-width:1; fill:red; " transform="" cy="2198.08519447" cx="-420.371496504" r="5" id="C.SWF" d="M -415.37149,2198.0852 C -415.37149,2200.8466 -417.61007,2203.0852 -420.37149,2203.0852 -423.13291,2203.0852 -425.37149,2200.8466 -425.37149,2198.0852 -425.37149,2195.3238 -423.13291,2193.0852 -420.37149,2193.0852 -417.61007,2193.0852 -415.37149,2195.3238 -415.37149,2198.0852 z" />
      <text style="font-size:30; vertical-align:top; fill-opacity:1.0; fill:darkblue; text-anchor:right; stroke:none; font-weight:normal; font-style:italic; text-align:right; " transform="" id="C.SWF.text" y="2191.08519447" x="-413.371496504">
SWF</text>
      <circle style="stroke:red; stroke-width:1; fill:red; " transform="" cy="1112.65094589" cx="328.073923674" r="5" id="C.SD1" d="M 333.07391,1112.651 C 333.07391,1115.4124 330.83534,1117.651 328.07391,1117.651 325.31249,1117.651 323.07391,1115.4124 323.07391,1112.651 323.07391,1109.8896 325.31249,1107.651 328.07391,1107.651 330.83534,1107.651 333.07391,1109.8896 333.07391,1112.651 z" />
      <text style="font-size:30; vertical-align:top; fill-opacity:1.0; fill:darkblue; text-anchor:right; stroke:none; font-weight:normal; font-style:italic; text-align:right; " transform="" id="C.SD1.text" y="1105.65094589" x="335.073923674">
SD1</text>
      <circle style="stroke:red; stroke-width:1; fill:red; " transform="" cy="1175.07295366" cx="316.024065106" r="5" id="C.SD2" d="M 321.02408,1175.073 C 321.02408,1177.8344 318.7855,1180.073 316.02408,1180.073 313.26265,1180.073 311.02408,1177.8344 311.02408,1175.073 311.02408,1172.3116 313.26265,1170.073 316.02408,1170.073 318.7855,1170.073 321.02408,1172.3116 321.02408,1175.073 z" />
      <text style="font-size:30; vertical-align:top; fill-opacity:1.0; fill:darkblue; text-anchor:right; stroke:none; font-weight:normal; font-style:italic; text-align:right; " transform="" id="C.SD2.text" y="1168.07295366" x="323.024065106">
SD2</text>
      <circle style="stroke:red; stroke-width:1; fill:red; " transform="" cy="1263.12341386" cx="282.600576849" r="5" id="C.SD3" d="M 287.60059,1263.1234 C 287.60059,1265.8848 285.36201,1268.1234 282.60059,1268.1234 279.83916,1268.1234 277.60059,1265.8848 277.60059,1263.1234 277.60059,1260.362 279.83916,1258.1234 282.60059,1258.1234 285.36201,1258.1234 287.60059,1260.362 287.60059,1263.1234 z" />
      <text style="font-size:30; vertical-align:top; fill-opacity:1.0; fill:darkblue; text-anchor:right; stroke:none; font-weight:normal; font-style:italic; text-align:right; " transform="" id="C.SD3.text" y="1256.12341386" x="289.600576849">
SD3</text>
      <circle style="stroke:red; stroke-width:1; fill:red; " transform="" cy="1112.90282891" cx="544.6059841" r="5" id="C.SD1.i" d="M 549.60596,1112.9028 C 549.60596,1115.6643 547.36738,1117.9028 544.60596,1117.9028 541.84453,1117.9028 539.60596,1115.6643 539.60596,1112.9028 539.60596,1110.1414 541.84453,1107.9028 544.60596,1107.9028 547.36738,1107.9028 549.60596,1110.1414 549.60596,1112.9028 z" />
      <text style="font-size:30; vertical-align:top; fill-opacity:1.0; fill:darkblue; text-anchor:right; stroke:none; font-weight:normal; font-style:italic; text-align:right; " transform="" id="C.SD1.i.text" y="1105.90282891" x="551.6059841">
SD1.i</text>
      <circle style="stroke:red; stroke-width:1; fill:red; " transform="" cy="1160.27725086" cx="539.303494786" r="5" id="C.SD1.o" d="M 544.30347,1160.2772 C 544.30347,1163.0386 542.06489,1165.2772 539.30347,1165.2772 536.54204,1165.2772 534.30347,1163.0386 534.30347,1160.2772 534.30347,1157.5158 536.54204,1155.2772 539.30347,1155.2772 542.06489,1155.2772 544.30347,1157.5158 544.30347,1160.2772 z" />
      <text style="font-size:30; vertical-align:top; fill-opacity:1.0; fill:darkblue; text-anchor:right; stroke:none; font-weight:normal; font-style:italic; text-align:right; " transform="" id="C.SD1.o.text" y="1153.27725086" x="546.303494786">
SD1.o</text>
      <circle style="stroke:red; stroke-width:1; fill:red; " transform="" cy="1229.38187933" cx="526.524707016" r="5" id="C.SD2.i" d="M 531.52472,1229.3818 C 531.52472,1232.1433 529.28614,1234.3818 526.52472,1234.3818 523.7633,1234.3818 521.52472,1232.1433 521.52472,1229.3818 521.52472,1226.6204 523.7633,1224.3818 526.52472,1224.3818 529.28614,1224.3818 531.52472,1226.6204 531.52472,1229.3818 z" />
      <text style="font-size:30; vertical-align:top; fill-opacity:1.0; fill:darkblue; text-anchor:right; stroke:none; font-weight:normal; font-style:italic; text-align:right; " transform="" id="C.SD2.i.text" y="1222.38187933" x="533.524707016">
SD2.i</text>
      <circle style="stroke:red; stroke-width:1; fill:red; " transform="" cy="1274.12653241" cx="509.539873737" r="5" id="C.SD2.o" d="M 514.53989,1274.1266 C 514.53989,1276.888 512.30131,1279.1266 509.53989,1279.1266 506.77846,1279.1266 504.53989,1276.888 504.53989,1274.1266 504.53989,1271.3652 506.77846,1269.1266 509.53989,1269.1266 512.30131,1269.1266 514.53989,1271.3652 514.53989,1274.1266 z" />
      <text style="font-size:30; vertical-align:top; fill-opacity:1.0; fill:darkblue; text-anchor:right; stroke:none; font-weight:normal; font-style:italic; text-align:right; " transform="" id="C.SD2.o.text" y="1267.12653241" x="516.539873737">
SD2.o</text>
      <circle style="stroke:red; stroke-width:1; fill:red; " transform="" cy="1316.80023733" cx="490.651199405" r="5" id="C.SD3.i" d="M 495.65121,1316.8003 C 495.65121,1319.5617 493.41264,1321.8003 490.65121,1321.8003 487.88979,1321.8003 485.65121,1319.5617 485.65121,1316.8003 485.65121,1314.0389 487.88979,1311.8003 490.65121,1311.8003 493.41264,1311.8003 495.65121,1314.0389 495.65121,1316.8003 z" />
      <text style="font-size:30; vertical-align:top; fill-opacity:1.0; fill:darkblue; text-anchor:right; stroke:none; font-weight:normal; font-style:italic; text-align:right; " transform="" id="C.SD3.i.text" y="1309.80023733" x="497.651199405">
SD3.i</text>
      <circle style="stroke:red; stroke-width:1; fill:red; " transform="" cy="1361.02410687" cx="473.864052793" r="5" id="C.SD3.o" d="M 478.86404,1361.024 C 478.86404,1363.7855 476.62547,1366.024 473.86404,1366.024 471.10262,1366.024 468.86404,1363.7855 468.86404,1361.024 468.86404,1358.2626 471.10262,1356.024 473.86404,1356.024 476.62547,1356.024 478.86404,1358.2626 478.86404,1361.024 z" />
      <text style="font-size:30; vertical-align:top; fill-opacity:1.0; fill:darkblue; text-anchor:right; stroke:none; font-weight:normal; font-style:italic; text-align:right; " transform="" id="C.SD3.o.text" y="1354.02410687" x="480.864052793">
SD3.o</text>
      <path style="stroke-linejoin:miter; stroke-dashoffset:0; stroke:gray; stroke-miterlimit:4; stroke-dasharray:6,6; stroke-width:2; fill:none; " transform="" d="M 0  0 L 0  2161.41732283 M -626.083412143  361.417322835 L 626.083412143  361.417322835 M -531.496062992  1206.49606299 L 531.496062992  1206.49606299 M -283.464566929  2161.41732283 L 127.256221794  2271.42093775 M 265.748031496  1206.49606299 L -9.65070778025  2234.75306611 M -469.562559107  361.417322835 L -156.520853036  0 L 234.781279554  0 L 547.822985625  361.417322835 " id="C.gridline" />
    </g>
  </g>
</svg>
