<?xml version="1.0" encoding="UTF-8" standalone="no"?>
<svg xmlns:dc="http://purl.org/dc/elements/1.1/" xmlns:cc="http://creativecommons.org/ns#" xmlns:rdf="http://www.w3.org/1999/02/22-rdf-syntax-ns#" xmlns:svg="http://www.w3.org/2000/svg" xmlns="http://www.w3.org/2000/svg" xmlns:sodipodi="http://sodipodi.sourceforge.net/DTD/sodipodi-0.dtd" xmlns:inkscape="http://www.inkscape.org/namespaces/inkscape" patternNumber="pyjama_pants_tie_waist" fitBoxtoViewport="True" companyName="Seamly Patterns" currentscale="0.5:1" margin-right="88.5826771654" client-name="DressFormLg" designerName="S. L. Spencer" height="5719.76488227" width="3599.24212633" margin-top="88.5826771654" version="1.1" margin-bottom="88.5826771654" margin-left="88.5826771654" preserveAspectRatio="xMidYMid meet" id="svg2" inkscape:version="0.48.4 r9939" sodipodi:docname="Susan-pyjama_pants_tie_waist-2014-07-09-1740.svg">
  <metadata id="metadata199">
    <rdf:RDF>
      <cc:Work rdf:about="">
        <dc:format>image/svg+xml</dc:format>
        <dc:type rdf:resource="http://purl.org/dc/dcmitype/StillImage" />
      </cc:Work>
    </rdf:RDF>
  </metadata>
  <sodipodi:namedview id="base" pagecolor="#ffffff" bordercolor="#666666" borderopacity="1.0" inkscape:pageopacity="0.0" inkscape:pageshadow="2" inkscape:zoom="0.15490148" inkscape:document-units="pt" showgrid="false" inkscape:window-maximized="1" inkscape:cx="1799.6211" inkscape:cy="2859.8823" inkscape:window-width="1855" inkscape:window-height="1056" inkscape:window-x="65" inkscape:window-y="24" inkscape:current-layer="pattern" />
  <defs id="defs5">
    <marker style="overflow:visible" id="Arrow1Mstart" refX="0.0" refY="0.0" orient="auto" inkscape:stockid="Arrow1Mstart">
      <path transform="scale(0.4) translate(10,0)" style="fill-rule:evenodd;stroke:#000000;stroke-width:1.0pt;marker-start:none" d="M 0.0,0.0 L 5.0,-5.0 L -12.5,0.0 L 5.0,5.0 L 0.0,0.0 z " id="path8" />
    </marker>
    <marker style="overflow:visible;" id="Arrow1Mend" refX="0.0" refY="0.0" orient="auto" inkscape:stockid="Arrow1Mend">
      <path transform="scale(0.4) rotate(180) translate(10,0)" style="fill-rule:evenodd;stroke:#000000;stroke-width:1.0pt;marker-start:none;" d="M 0.0,0.0 L 5.0,-5.0 L -12.5,0.0 L 5.0,5.0 L 0.0,0.0 z " id="path11" />
    </marker>
  </defs>
  <g inkscape:label="Label-pattern" id="pattern" inkscape:groupmode="layer" transform="translate(88.582677,88.582677)">
    <g id="document.pants.Front Pants.pattern" transform=" translate(1470.167323, 438.820000)">
      <g id="A.letter" transform="matrix(10.000000, 0, 0, 10.000000, 4942.913386, -7892.716535)">
        <text style="font-size:24; vertical-align:top; fill-opacity:1.0; fill:#000000; text-anchor:start; stroke:none; font-weight:normal; font-style:normal; text-align:right; " transform="" id="A.letter.letterline" y="876.968503937" x="-549.212598425">
A</text>
      </g>
      <line style="stroke-linejoin:miter; stroke:green; stroke-width:4; stroke-miterlimit:4; fill:none; " y2="3578.22004918" marker-end="url(#Arrow1Mend)" marker-start="url(#Arrow1Mstart)" transform="" x2="-596.236141427" y1="1452.75590551" x1="-549.212598425" id="A.grainline" />
      <path style="stroke-linejoin:miter; stroke:darkgreen; stroke-width:6; stroke-miterlimit:4; fill:none; " transform="" d="M -956.692913386  4003.93700787 L -88.5826771654  4003.93700787 M -1098.42519685  876.968503937 L -1098.42519685  233.858267717 " id="A.foldline" />
      <path style="stroke-linejoin:miter; stroke-dashoffset:0; stroke:green; stroke-dasharray:24,6; stroke-miterlimit:4; stroke-width:4; fill:none; " transform="" d="M -1311.02362205  233.858267717 L 0  233.858267717 L 0  368.858267717 L -88.5826771654  4003.93700787 L -88.5826771654  4093.93700787 L -956.692913386  4093.93700787 L -956.692913386  4003.93700787 C -956.692913386  3458.57969855  -1012.045166  2912.48866759  -1098.42519685  2374.01574803 C -1164.14287672  1964.3470943  -1288.19718145  1565.47818346  -1411.41732283  1169.29133858 C -1254.92125984  1169.29133858  -1098.42519685  1023.12992126  -1098.42519685  876.968503937 L -1311.02362205  876.968503937 L -1311.02362205  233.858267717 " id="A.seamline" />
      <path style="fill:none;stroke:#008000;stroke-width:4;stroke-linejoin:miter;stroke-miterlimit:4" d="M -1367.2812,233.84375 C -1367.2812,466.96875 -1367.2813,700.09375 -1367.2812,933.21875 -1299.7396,933.21875 -1232.1979,933.21875 -1164.6562,933.21875 -1187.1341,995.87109 -1235.6489,1046.8856 -1292.9056,1079.5945 -1331.8699,1101.8038 -1376.7616,1114.7103 -1421.8746,1113.1179 -1443.781,1113.3078 -1465.6874,1113.4976 -1487.5938,1113.6875 -1370.3168,1491.7201 -1249.2619,1869.8784 -1175.6052,2259.2801 -1154.1133,2373.2997 -1137.2783,2488.4018 -1120.5005,2603.184 -1052.5305,3077.2377 -1011.2579,3555.6547 -1012.9375,4034.9375 -1012.9375,4073.3542 -1012.9375,4111.7708 -1012.9375,4150.1875 -686.07292,4150.1875 -359.20833,4150.1875 -32.34375,4150.1875 -32.122598,4079.4402 -33.202996,4008.677 -30.735648,3937.9571 -1.7574326,2747.5859 27.356784,1557.2154 56.25,366.84375 56.25,303.76042 56.25,240.67708 56.25,177.59375 -418.26042,177.59375 -892.77083,177.59375 -1367.2812,177.59375 -1367.2813,196.34375 -1367.2812,215.09375 -1367.2812,233.84375 z" id="A.cuttingline" inkscape:connector-curvature="0" />
      <g id="A.info" transform="">
        <text style="font-size:12; vertical-align:top; fill-opacity:1.0; fill:#000000; text-anchor:start; stroke:none; font-weight:normal; font-style:normal; text-align:right; " transform="" id="A.info.lineSeamly Patterns" y="1169.29133858" x="-549.212598425">
Seamly Patterns</text>
        <text style="font-size:12; vertical-align:top; fill-opacity:1.0; fill:#000000; text-anchor:start; stroke:none; font-weight:normal; font-style:normal; text-align:right; " transform="" id="A.info.lineDesigner:S. L. Spencer" y="1183.69133858" x="-549.212598425">
Designer:S. L. Spencer</text>
        <text style="font-size:12; vertical-align:top; fill-opacity:1.0; fill:#000000; text-anchor:start; stroke:none; font-weight:normal; font-style:normal; text-align:right; " transform="" id="A.info.lineClient:DressFormLg" y="1198.09133858" x="-549.212598425">
Client:DressFormLg</text>
        <text style="font-size:12; vertical-align:top; fill-opacity:1.0; fill:#000000; text-anchor:start; stroke:none; font-weight:normal; font-style:normal; text-align:right; " transform="" id="A.info.linepyjama_pants_tie_waist" y="1212.49133858" x="-549.212598425">
pyjama_pants_tie_waist</text>
        <text style="font-size:12; vertical-align:top; fill-opacity:1.0; fill:#000000; text-anchor:start; stroke:none; font-weight:normal; font-style:normal; text-align:right; " transform="" id="A.info.linePattern Piece A" y="1226.89133858" x="-549.212598425">
Pattern Piece A</text>
        <text style="font-size:12; vertical-align:top; fill-opacity:1.0; fill:#000000; text-anchor:start; stroke:none; font-weight:normal; font-style:normal; text-align:right; " transform="" id="A.info.lineCut 2 Fabric" y="1241.29133858" x="-549.212598425">
Cut 2 Fabric</text>
      </g>
    </g>
    <g id="document.pants.Back Pants.pattern" transform=" translate(3365.826772, 580.552283)">
      <g id="B.letter" transform="matrix(10.000000, 0, 0, 10.000000, 4942.913386, -7892.716535)">
        <text style="font-size:24; vertical-align:top; fill-opacity:1.0; fill:#000000; text-anchor:start; stroke:none; font-weight:normal; font-style:normal; text-align:right; " transform="" id="B.letter.letterline" y="876.968503937" x="-549.212598425">
B</text>
      </g>
      <line style="stroke-linejoin:miter; stroke:green; stroke-width:4; stroke-miterlimit:4; fill:none; " y2="3578.22004918" marker-end="url(#Arrow1Mend)" marker-start="url(#Arrow1Mstart)" transform="" x2="-596.236141427" y1="1452.75590551" x1="-549.212598425" id="B.grainline" />
      <path style="stroke-linejoin:miter; stroke:darkgreen; stroke-width:6; stroke-miterlimit:4; fill:none; " transform="" d="M -1062.99212598  4003.93700787 L -88.5826771654  4003.93700787 " id="B.foldline" />
      <path style="stroke-linejoin:miter; stroke-dashoffset:0; stroke:green; stroke-dasharray:24,6; stroke-miterlimit:4; stroke-width:4; fill:none; " transform="" d="M -1037.8818997  88.1906326707 C -691.099626662  130.481153773  -349.351446354  233.858267717  0  233.858267717 L 0  368.858267717 L -88.5826771654  4093.93700787 L -1062.99212598  4093.93700787 L -1062.99212598  4003.93700787 C -1062.99212598  3457.42982829  -1117.49884224  2906.58025666  -1240.15748031  2374.01574803 C -1333.27947552  1969.69469577  -1520.49625264  1591.03566562  -1704.38597048  1219.10584567 C -1400.38352629  1219.10584567  -1133.82720746  874.942156312  -1098.42519685  584.645669291 L -1037.8818997  88.1906326707 " id="B.seamline" />
      <path style="fill:none;stroke:#008000;stroke-width:4;stroke-linejoin:miter;stroke-miterlimit:4" d="M -1093.7188,81.375 C -1114.5467,251.30155 -1134.9862,421.28554 -1156.0536,591.17659 -1171.8429,694.34842 -1213.98,792.0548 -1270.7188,879.28125 -1328.8336,967.4865 -1403.3219,1046.178 -1494.3638,1100.6601 -1560.5419,1140.2633 -1636.9155,1164.9695 -1714.375,1162.8438 -1741.2187,1162.8438 -1768.0625,1162.8437 -1794.9062,1162.8438 -1646.5821,1464.0255 -1493.2052,1764.096 -1383.3306,2081.957 -1342.6965,2198.8191 -1309.0583,2318.2029 -1283.0743,2439.2737 -1167.5529,2961.8185 -1117.6329,3497.0904 -1119.25,4031.9375 -1119.25,4071.3542 -1119.25,4110.7708 -1119.25,4150.1875 -757.38542,4150.1875 -395.52083,4150.1875 -33.65625,4150.1875 -3.752662,2889.0717 26.385928,1627.959 56.25,366.84375 56.25,303.76042 56.25,240.67708 56.25,177.59375 -11.265818,178.0494 -78.722506,177.34941 -145.86616,171.86366 -416.52934,151.04995 -680.27763,82.714565 -948.35276,43.526188 -994.41891,36.612005 -1040.6771,31.157285 -1086.9062,25.46875 -1089.1771,44.104167 -1091.4479,62.739583 -1093.7188,81.375 z" id="B.cuttingline" inkscape:connector-curvature="0" />
      <g id="B.info" transform="">
        <text style="font-size:12; vertical-align:top; fill-opacity:1.0; fill:#000000; text-anchor:start; stroke:none; font-weight:normal; font-style:normal; text-align:right; " transform="" id="B.info.lineSeamly Patterns" y="1169.29133858" x="-549.212598425">
Seamly Patterns</text>
        <text style="font-size:12; vertical-align:top; fill-opacity:1.0; fill:#000000; text-anchor:start; stroke:none; font-weight:normal; font-style:normal; text-align:right; " transform="" id="B.info.lineDesigner:S. L. Spencer" y="1183.69133858" x="-549.212598425">
Designer:S. L. Spencer</text>
        <text style="font-size:12; vertical-align:top; fill-opacity:1.0; fill:#000000; text-anchor:start; stroke:none; font-weight:normal; font-style:normal; text-align:right; " transform="" id="B.info.lineClient:DressFormLg" y="1198.09133858" x="-549.212598425">
Client:DressFormLg</text>
        <text style="font-size:12; vertical-align:top; fill-opacity:1.0; fill:#000000; text-anchor:start; stroke:none; font-weight:normal; font-style:normal; text-align:right; " transform="" id="B.info.linepyjama_pants_tie_waist" y="1212.49133858" x="-549.212598425">
pyjama_pants_tie_waist</text>
        <text style="font-size:12; vertical-align:top; fill-opacity:1.0; fill:#000000; text-anchor:start; stroke:none; font-weight:normal; font-style:normal; text-align:right; " transform="" id="B.info.linePattern Piece B" y="1226.89133858" x="-549.212598425">
Pattern Piece B</text>
        <text style="font-size:12; vertical-align:top; fill-opacity:1.0; fill:#000000; text-anchor:start; stroke:none; font-weight:normal; font-style:normal; text-align:right; " transform="" id="B.info.lineCut 2 Fabric" y="1241.29133858" x="-549.212598425">
Cut 2 Fabric</text>
      </g>
    </g>
    <g id="document.pants.Front Waist Facing.pattern" transform=" translate(1098.425197, 4609.381024)">
      <g id="C.letter" transform="matrix(5.000000, 0, 0, 5.000000, 3954.330709, -1340.433071)">
        <text style="font-size:24; vertical-align:top; fill-opacity:1.0; fill:#000000; text-anchor:start; stroke:none; font-weight:normal; font-style:normal; text-align:right; " transform="" id="C.letter.letterline" y="335.108267717" x="-988.582677165">
C</text>
      </g>
      <line style="stroke-linejoin:miter; stroke:green; stroke-width:4; stroke-miterlimit:4; fill:none; " y2="287.858267717" marker-end="url(#Arrow1Mend)" marker-start="url(#Arrow1Mstart)" transform="" x2="-109.842519685" y1="287.858267717" x1="-659.05511811" id="C.grainline" />
      <path style="stroke-linejoin:miter; stroke-dashoffset:0; stroke:green; stroke-dasharray:24,6; stroke-miterlimit:4; stroke-width:4; fill:none; " transform="" d="M 0  233.858267717 L 0  368.858267717 L -1098.42519685  368.858267717 L -1098.42519685  233.858267717 L 0  233.858267717 " id="C.seamline" />
      <path style="fill:none;stroke:#008000;stroke-width:4;stroke-linejoin:miter;stroke-miterlimit:4" d="M -1154.6875,233.84375 C -1154.6875,297.59375 -1154.6875,361.34375 -1154.6875,425.09375 -751.04167,425.09375 -347.39583,425.09375 56.25,425.09375 56.25,342.59375 56.25,260.09375 56.25,177.59375 -347.39583,177.59375 -751.04167,177.59375 -1154.6875,177.59375 -1154.6875,196.34375 -1154.6875,215.09375 -1154.6875,233.84375 z" id="C.cuttingline" inkscape:connector-curvature="0" />
      <g id="C.info" transform="">
        <text style="font-size:12; vertical-align:top; fill-opacity:1.0; fill:#000000; text-anchor:start; stroke:none; font-weight:normal; font-style:normal; text-align:right; " transform="" id="C.info.lineSeamly Patterns" y="260.858267717" x="-878.74015748">
Seamly Patterns</text>
        <text style="font-size:12; vertical-align:top; fill-opacity:1.0; fill:#000000; text-anchor:start; stroke:none; font-weight:normal; font-style:normal; text-align:right; " transform="" id="C.info.lineDesigner:S. L. Spencer" y="275.258267717" x="-878.74015748">
Designer:S. L. Spencer</text>
        <text style="font-size:12; vertical-align:top; fill-opacity:1.0; fill:#000000; text-anchor:start; stroke:none; font-weight:normal; font-style:normal; text-align:right; " transform="" id="C.info.lineClient:DressFormLg" y="289.658267717" x="-878.74015748">
Client:DressFormLg</text>
        <text style="font-size:12; vertical-align:top; fill-opacity:1.0; fill:#000000; text-anchor:start; stroke:none; font-weight:normal; font-style:normal; text-align:right; " transform="" id="C.info.linepyjama_pants_tie_waist" y="304.058267717" x="-878.74015748">
pyjama_pants_tie_waist</text>
        <text style="font-size:12; vertical-align:top; fill-opacity:1.0; fill:#000000; text-anchor:start; stroke:none; font-weight:normal; font-style:normal; text-align:right; " transform="" id="C.info.linePattern Piece C" y="318.458267717" x="-878.74015748">
Pattern Piece C</text>
        <text style="font-size:12; vertical-align:top; fill-opacity:1.0; fill:#000000; text-anchor:start; stroke:none; font-weight:normal; font-style:normal; text-align:right; " transform="" id="C.info.lineCut 2 Fabric" y="332.858267717" x="-878.74015748">
Cut 2 Fabric</text>
      </g>
    </g>
    <g id="document.pants.Back Waist Facing.pattern" transform=" translate(2321.243466, 4755.048659)">
      <g id="D.letter" transform="matrix(5.000000, 0, 0, 5.000000, 3732.305863, -807.381835)">
        <text style="font-size:24; vertical-align:top; fill-opacity:1.0; fill:#000000; text-anchor:start; stroke:none; font-weight:normal; font-style:normal; text-align:right; " transform="" id="D.letter.letterline" y="201.845458709" x="-933.076465795">
D</text>
      </g>
      <line style="stroke-linejoin:miter; stroke:green; stroke-width:4; stroke-miterlimit:4; fill:none; " y2="301.358267717" marker-end="url(#Arrow1Mend)" marker-start="url(#Arrow1Mstart)" transform="" x2="-94.6329945452" y1="301.358267717" x1="-409.049296264" id="D.grainline" />
      <path style="stroke-linejoin:miter; stroke-dashoffset:0; stroke:green; stroke-dasharray:24,6; stroke-miterlimit:4; stroke-width:4; fill:none; " transform="" d="M -1037.8818997  88.1906326707 C -691.099626662  130.481153773  -349.351446354  233.858267717  0  233.858267717 L 0  368.858267717 C -354.799784507  368.858267717  -701.877725628  263.868927805  -1054.06826907  220.918861531 L -1037.8818997  88.1906326707 " id="D.seamline" />
      <path style="fill:none;stroke:#008000;stroke-width:4;stroke-linejoin:miter;stroke-miterlimit:4" d="M -1093.7188,81.375 C -1101.3767,144.17687 -1109.0447,206.97753 -1116.6875,269.78125 -1031.465,279.86265 -946.43172,291.75498 -861.96485,306.65092 -606.93833,350.73999 -353.38928,410.50877 -94.0625,422.8125 -44.008056,425.4374 6.1369247,425.1693 56.25,425.09375 56.25,342.59375 56.25,260.09375 56.25,177.59375 -11.265818,178.0494 -78.722506,177.34941 -145.86616,171.86366 -416.52934,151.04995 -680.27763,82.714565 -948.35276,43.526188 -994.41891,36.612005 -1040.6771,31.157285 -1086.9062,25.46875 -1089.1771,44.104167 -1091.4479,62.739583 -1093.7188,81.375 z" id="D.cuttingline" inkscape:connector-curvature="0" />
      <g id="D.info" transform="">
        <text style="font-size:12; vertical-align:top; fill-opacity:1.0; fill:#000000; text-anchor:start; stroke:none; font-weight:normal; font-style:normal; text-align:right; " transform="" id="D.info.lineSeamly Patterns" y="155.046412693" x="-828.271031889">
Seamly Patterns</text>
        <text style="font-size:12; vertical-align:top; fill-opacity:1.0; fill:#000000; text-anchor:start; stroke:none; font-weight:normal; font-style:normal; text-align:right; " transform="" id="D.info.lineDesigner:S. L. Spencer" y="169.446412693" x="-828.271031889">
Designer:S. L. Spencer</text>
        <text style="font-size:12; vertical-align:top; fill-opacity:1.0; fill:#000000; text-anchor:start; stroke:none; font-weight:normal; font-style:normal; text-align:right; " transform="" id="D.info.lineClient:DressFormLg" y="183.846412693" x="-828.271031889">
Client:DressFormLg</text>
        <text style="font-size:12; vertical-align:top; fill-opacity:1.0; fill:#000000; text-anchor:start; stroke:none; font-weight:normal; font-style:normal; text-align:right; " transform="" id="D.info.linepyjama_pants_tie_waist" y="198.246412693" x="-828.271031889">
pyjama_pants_tie_waist</text>
        <text style="font-size:12; vertical-align:top; fill-opacity:1.0; fill:#000000; text-anchor:start; stroke:none; font-weight:normal; font-style:normal; text-align:right; " transform="" id="D.info.linePattern Piece D" y="212.646412693" x="-828.271031889">
Pattern Piece D</text>
        <text style="font-size:12; vertical-align:top; fill-opacity:1.0; fill:#000000; text-anchor:start; stroke:none; font-weight:normal; font-style:normal; text-align:right; " transform="" id="D.info.lineCut 2 Fabric" y="227.046412693" x="-828.271031889">
Cut 2 Fabric</text>
      </g>
    </g>
    <g id="document.pants.Fly Facing.pattern" transform=" translate(3801.017088, 4609.381024)">
      <g id="E.letter" transform="matrix(3.000000, 0, 0, 3.000000, 2558.267717, -724.960630)">
        <text style="font-size:24; vertical-align:top; fill-opacity:1.0; fill:#000000; text-anchor:start; stroke:none; font-weight:normal; font-style:normal; text-align:right; " transform="" id="E.letter.letterline" y="362.480314961" x="-1279.13385827">
E</text>
      </g>
      <line style="stroke-linejoin:miter; stroke:green; stroke-width:4; stroke-miterlimit:4; fill:none; " y2="780.501968504" marker-end="url(#Arrow1Mend)" marker-start="url(#Arrow1Mstart)" transform="" x2="-1279.13385827" y1="587.568897638" x1="-1279.13385827" id="E.grainline" />
      <path style="stroke-linejoin:miter; stroke-dashoffset:0; stroke:green; stroke-dasharray:24,6; stroke-miterlimit:4; stroke-width:4; fill:none; " transform="" d="M -1311.02362205  233.858267717 L -1098.42519685  233.858267717 L -1098.42519685  876.968503937 L -1311.02362205  876.968503937 L -1311.02362205  233.858267717 " id="E.seamline" />
      <path style="fill:none;stroke:#008000;stroke-width:4;stroke-linejoin:miter;stroke-miterlimit:4" d="M -1367.2812,233.84375 C -1367.2812,466.96875 -1367.2813,700.09375 -1367.2812,933.21875 -1258.9167,933.21875 -1150.5521,933.21875 -1042.1875,933.21875 -1042.1875,681.34375 -1042.1875,429.46875 -1042.1875,177.59375 -1150.5521,177.59375 -1258.9167,177.59375 -1367.2812,177.59375 -1367.2813,196.34375 -1367.2812,215.09375 -1367.2812,233.84375 z" id="E.cuttingline" inkscape:connector-curvature="0" />
      <g id="E.info" transform="">
        <text style="font-size:12; vertical-align:top; fill-opacity:1.0; fill:#000000; text-anchor:start; stroke:none; font-weight:normal; font-style:normal; text-align:right; " transform="" id="E.info.lineSeamly Patterns" y="394.635826772" x="-1279.13385827">
Seamly Patterns</text>
        <text style="font-size:12; vertical-align:top; fill-opacity:1.0; fill:#000000; text-anchor:start; stroke:none; font-weight:normal; font-style:normal; text-align:right; " transform="" id="E.info.lineDesigner:S. L. Spencer" y="409.035826772" x="-1279.13385827">
Designer:S. L. Spencer</text>
        <text style="font-size:12; vertical-align:top; fill-opacity:1.0; fill:#000000; text-anchor:start; stroke:none; font-weight:normal; font-style:normal; text-align:right; " transform="" id="E.info.lineClient:DressFormLg" y="423.435826772" x="-1279.13385827">
Client:DressFormLg</text>
        <text style="font-size:12; vertical-align:top; fill-opacity:1.0; fill:#000000; text-anchor:start; stroke:none; font-weight:normal; font-style:normal; text-align:right; " transform="" id="E.info.linepyjama_pants_tie_waist" y="437.835826772" x="-1279.13385827">
pyjama_pants_tie_waist</text>
        <text style="font-size:12; vertical-align:top; fill-opacity:1.0; fill:#000000; text-anchor:start; stroke:none; font-weight:normal; font-style:normal; text-align:right; " transform="" id="E.info.linePattern Piece E" y="452.235826772" x="-1279.13385827">
Pattern Piece E</text>
        <text style="font-size:12; vertical-align:top; fill-opacity:1.0; fill:#000000; text-anchor:start; stroke:none; font-weight:normal; font-style:normal; text-align:right; " transform="" id="E.info.lineCut 2 Fabric" y="466.635826772" x="-1279.13385827">
Cut 2 Fabric</text>
      </g>
    </g>
  </g>
  <g inkscape:label="Label-notes" id="notes" inkscape:groupmode="layer" transform="translate(88.582677,88.582677)">
    <g id="document.titleblock">
      <text style="font-size:40; vertical-align:top; fill-opacity:1.0; fill:#000000; text-anchor:right; stroke:none; font-weight:normal; font-style:normal; text-align:right; " transform="" id="company" y="0.0" x="0.0">
Seamly Patterns</text>
      <text style="font-size:40; vertical-align:top; fill-opacity:1.0; fill:#000000; text-anchor:right; stroke:none; font-weight:normal; font-style:normal; text-align:right; " transform="" id="designer" y="44.0" x="0.0">
S. L. Spencer</text>
      <text style="font-size:40; vertical-align:top; fill-opacity:1.0; fill:#000000; text-anchor:right; stroke:none; font-weight:normal; font-style:normal; text-align:right; " transform="" id="pattern_number" y="88.0" x="0.0">
pyjama_pants_tie_waist</text>
      <text style="font-size:40; vertical-align:top; fill-opacity:1.0; fill:#000000; text-anchor:right; stroke:none; font-weight:normal; font-style:normal; text-align:right; " transform="" id="pattern_name" y="132.0" x="0.0">
Pyjama Pants with Tie Waist</text>
      <text style="font-size:40; vertical-align:top; fill-opacity:1.0; fill:#000000; text-anchor:right; stroke:none; font-weight:normal; font-style:normal; text-align:right; " transform="" id="client" y="176.0" x="0.0">
DressFormLg</text>
    </g>
    <g id="document.testgrid">
      <path style="stroke-linejoin:miter; stroke:green; stroke-width:4; stroke-miterlimit:4; fill:none; " d="M 1320.0  0.0 L 1320.0  212.598425197 M 1355.43307087  0.0 L 1355.43307087  212.598425197 M 1390.86614173  0.0 L 1390.86614173  212.598425197 M 1426.2992126  0.0 L 1426.2992126  212.598425197 M 1461.73228346  0.0 L 1461.73228346  212.598425197 M 1497.16535433  0.0 L 1497.16535433  212.598425197 M 1532.5984252  0.0 L 1532.5984252  212.598425197 M 1320.0  0.0 L 1532.5984252  0.0 M 1320.0  35.4330708661 L 1532.5984252  35.4330708661 M 1320.0  70.8661417323 L 1532.5984252  70.8661417323 M 1320.0  106.299212598 L 1532.5984252  106.299212598 M 1320.0  141.732283465 L 1532.5984252  141.732283465 M 1320.0  177.165354331 L 1532.5984252  177.165354331 M 1320.0  212.598425197 L 1532.5984252  212.598425197 M 1709.76377953  0.0 L 1709.76377953  270.0 M 1799.76377953  0.0 L 1799.76377953  270.0 M 1889.76377953  0.0 L 1889.76377953  270.0 M 1979.76377953  0.0 L 1979.76377953  270.0 M 1709.76377953  0.0 L 1979.76377953  0.0 M 1709.76377953  90.0 L 1979.76377953  90.0 M 1709.76377953  180.0 L 1979.76377953  180.0 M 1709.76377953  270.0 L 1979.76377953  270.0 " id="testgrid" />
    </g>
    <g id="document.pants.Front Pants.notes" transform=" translate(1470.167323, 438.820000)" />
    <g id="document.pants.Back Pants.notes" transform=" translate(3365.826772, 580.552283)" />
    <g id="document.pants.Front Waist Facing.notes" transform=" translate(1098.425197, 4609.381024)" />
    <g id="document.pants.Back Waist Facing.notes" transform=" translate(2321.243466, 4755.048659)" />
    <g id="document.pants.Fly Facing.notes" transform=" translate(3801.017088, 4609.381024)" />
  </g>
  <g inkscape:label="Label-reference" id="reference" inkscape:groupmode="layer" transform="translate(88.582677,88.582677)">
    <g id="document.pants.Front Pants.reference" transform=" translate(1470.167323, 438.820000)">
      <circle style="stroke:red; stroke-width:1; fill:red; " transform="" cy="0" cx="0" r="5" id="A.p0" d="M 5,0 C 5,2.7614237 2.7614237,5 0,5 -2.7614237,5 -5,2.7614237 -5,0 -5,-2.7614237 -2.7614237,-5 0,-5 2.7614237,-5 5,-2.7614237 5,0 z" />
      <text style="font-size:30; vertical-align:top; fill-opacity:1.0; fill:darkblue; text-anchor:right; stroke:none; font-weight:normal; font-style:italic; text-align:right; " transform="" id="A.p0.text" y="-7" x="7">
p0</text>
      <circle style="stroke:red; stroke-width:1; fill:red; " transform="" cy="1169.29133858" cx="0" r="5" id="A.p1" d="M 5,1169.2914 C 5,1172.0528 2.7614237,1174.2914 0,1174.2914 -2.7614237,1174.2914 -5,1172.0528 -5,1169.2914 -5,1166.53 -2.7614237,1164.2914 0,1164.2914 2.7614237,1164.2914 5,1166.53 5,1169.2914 z" />
      <text style="font-size:30; vertical-align:top; fill-opacity:1.0; fill:darkblue; text-anchor:right; stroke:none; font-weight:normal; font-style:italic; text-align:right; " transform="" id="A.p1.text" y="1162.29133858" x="7">
p1</text>
      <circle style="stroke:red; stroke-width:1; fill:red; " transform="" cy="4003.93700787" cx="0" r="5" id="A.p2" d="M 5,4003.937 C 5,4006.6984 2.7614237,4008.937 0,4008.937 -2.7614237,4008.937 -5,4006.6984 -5,4003.937 -5,4001.1756 -2.7614237,3998.937 0,3998.937 2.7614237,3998.937 5,4001.1756 5,4003.937 z" />
      <text style="font-size:30; vertical-align:top; fill-opacity:1.0; fill:darkblue; text-anchor:right; stroke:none; font-weight:normal; font-style:italic; text-align:right; " transform="" id="A.p2.text" y="3996.93700787" x="7">
p2</text>
      <circle style="stroke:red; stroke-width:1; fill:red; " transform="" cy="2374.01574803" cx="0" r="5" id="A.p3" d="M 5,2374.0159 C 5,2376.7773 2.7614237,2379.0159 0,2379.0159 -2.7614237,2379.0159 -5,2376.7773 -5,2374.0159 -5,2371.2544 -2.7614237,2369.0159 0,2369.0159 2.7614237,2369.0159 5,2371.2544 5,2374.0159 z" />
      <text style="font-size:30; vertical-align:top; fill-opacity:1.0; fill:darkblue; text-anchor:right; stroke:none; font-weight:normal; font-style:italic; text-align:right; " transform="" id="A.p3.text" y="2367.01574803" x="7">
p3</text>
      <circle style="stroke:red; stroke-width:1; fill:red; " transform="" cy="1169.29133858" cx="-1098.42519685" r="5" id="A.p4" d="M -1093.4252,1169.2914 C -1093.4252,1172.0528 -1095.6637,1174.2914 -1098.4252,1174.2914 -1101.1866,1174.2914 -1103.4252,1172.0528 -1103.4252,1169.2914 -1103.4252,1166.53 -1101.1866,1164.2914 -1098.4252,1164.2914 -1095.6637,1164.2914 -1093.4252,1166.53 -1093.4252,1169.2914 z" />
      <text style="font-size:30; vertical-align:top; fill-opacity:1.0; fill:darkblue; text-anchor:right; stroke:none; font-weight:normal; font-style:italic; text-align:right; " transform="" id="A.p4.text" y="1162.29133858" x="-1091.42519685">
p4</text>
      <circle style="stroke:red; stroke-width:1; fill:red; " transform="" cy="0" cx="-1098.42519685" r="5" id="A.p5" d="M -1093.4252,0 C -1093.4252,2.7614237 -1095.6637,5 -1098.4252,5 -1101.1866,5 -1103.4252,2.7614237 -1103.4252,0 -1103.4252,-2.7614237 -1101.1866,-5 -1098.4252,-5 -1095.6637,-5 -1093.4252,-2.7614237 -1093.4252,0 z" />
      <text style="font-size:30; vertical-align:top; fill-opacity:1.0; fill:darkblue; text-anchor:right; stroke:none; font-weight:normal; font-style:italic; text-align:right; " transform="" id="A.p5.text" y="-7" x="-1091.42519685">
p5</text>
      <circle style="stroke:gray; stroke-width:1; fill:none; " transform="" cy="2912.48866759" cx="-1012.045166" r="5" id="A.p6.inpoint" d="M -1007.0452,2912.4888 C -1007.0452,2915.2502 -1009.2837,2917.4888 -1012.0452,2917.4888 -1014.8066,2917.4888 -1017.0452,2915.2502 -1017.0452,2912.4888 -1017.0452,2909.7273 -1014.8066,2907.4888 -1012.0452,2907.4888 -1009.2837,2907.4888 -1007.0452,2909.7273 -1007.0452,2912.4888 z" />
      <text style="font-size:25; vertical-align:top; fill-opacity:1.0; fill:gray; text-anchor:right; stroke:none; font-weight:normal; font-style:italic; text-align:right; " transform="" id="A.p6.inpoint.text" y="2905.48866759" x="-1005.045166">
p6.in</text>
      <circle style="stroke:gray; stroke-width:1; fill:none; " transform="" cy="1964.3470943" cx="-1164.14287672" r="5" id="A.p6.outpoint" d="M -1159.1428,1964.347 C -1159.1428,1967.1085 -1161.3814,1969.347 -1164.1428,1969.347 -1166.9042,1969.347 -1169.1428,1967.1085 -1169.1428,1964.347 -1169.1428,1961.5856 -1166.9042,1959.347 -1164.1428,1959.347 -1161.3814,1959.347 -1159.1428,1961.5856 -1159.1428,1964.347 z" />
      <text style="font-size:25; vertical-align:top; fill-opacity:1.0; fill:gray; text-anchor:right; stroke:none; font-weight:normal; font-style:italic; text-align:right; " transform="" id="A.p6.outpoint.text" y="1957.3470943" x="-1157.14287672">
p6.out</text>
      <circle style="stroke:red; stroke-width:1; fill:red; " transform="" cy="2374.01574803" cx="-1098.42519685" r="5" id="A.p6" d="M -1093.4252,2374.0159 C -1093.4252,2376.7773 -1095.6637,2379.0159 -1098.4252,2379.0159 -1101.1866,2379.0159 -1103.4252,2376.7773 -1103.4252,2374.0159 -1103.4252,2371.2544 -1101.1866,2369.0159 -1098.4252,2369.0159 -1095.6637,2369.0159 -1093.4252,2371.2544 -1093.4252,2374.0159 z" />
      <text style="font-size:30; vertical-align:top; fill-opacity:1.0; fill:darkblue; text-anchor:right; stroke:none; font-weight:normal; font-style:italic; text-align:right; " transform="" id="A.p6.text" y="2367.01574803" x="-1091.42519685">
p6</text>
      <circle style="stroke:red; stroke-width:1; fill:red; " transform="" cy="4003.93700787" cx="-1098.42519685" r="5" id="A.p7" d="M -1093.4252,4003.937 C -1093.4252,4006.6984 -1095.6637,4008.937 -1098.4252,4008.937 -1101.1866,4008.937 -1103.4252,4006.6984 -1103.4252,4003.937 -1103.4252,4001.1756 -1101.1866,3998.937 -1098.4252,3998.937 -1095.6637,3998.937 -1093.4252,4001.1756 -1093.4252,4003.937 z" />
      <text style="font-size:30; vertical-align:top; fill-opacity:1.0; fill:darkblue; text-anchor:right; stroke:none; font-weight:normal; font-style:italic; text-align:right; " transform="" id="A.p7.text" y="3996.93700787" x="-1091.42519685">
p7</text>
      <circle style="stroke:gray; stroke-width:1; fill:none; " transform="" cy="1565.47818346" cx="-1288.19718145" r="5" id="A.p9.inpoint" d="M -1283.1971,1565.4781 C -1283.1971,1568.2396 -1285.4357,1570.4781 -1288.1971,1570.4781 -1290.9586,1570.4781 -1293.1971,1568.2396 -1293.1971,1565.4781 -1293.1971,1562.7167 -1290.9586,1560.4781 -1288.1971,1560.4781 -1285.4357,1560.4781 -1283.1971,1562.7167 -1283.1971,1565.4781 z" />
      <text style="font-size:25; vertical-align:top; fill-opacity:1.0; fill:gray; text-anchor:right; stroke:none; font-weight:normal; font-style:italic; text-align:right; " transform="" id="A.p9.inpoint.text" y="1558.47818346" x="-1281.19718145">
p9.in</text>
      <circle style="stroke:gray; stroke-width:1; fill:none; " transform="" cy="1169.29133858" cx="-1254.92125984" r="5" id="A.p9.outpoint" d="M -1249.9213,1169.2914 C -1249.9213,1172.0528 -1252.1598,1174.2914 -1254.9213,1174.2914 -1257.6827,1174.2914 -1259.9213,1172.0528 -1259.9213,1169.2914 -1259.9213,1166.53 -1257.6827,1164.2914 -1254.9213,1164.2914 -1252.1598,1164.2914 -1249.9213,1166.53 -1249.9213,1169.2914 z" />
      <text style="font-size:25; vertical-align:top; fill-opacity:1.0; fill:gray; text-anchor:right; stroke:none; font-weight:normal; font-style:italic; text-align:right; " transform="" id="A.p9.outpoint.text" y="1162.29133858" x="-1247.92125984">
p9.out</text>
      <circle style="stroke:red; stroke-width:1; fill:red; " transform="" cy="1169.29133858" cx="-1411.41732283" r="5" id="A.p9" d="M -1406.4174,1169.2914 C -1406.4174,1172.0528 -1408.6559,1174.2914 -1411.4174,1174.2914 -1414.1788,1174.2914 -1416.4174,1172.0528 -1416.4174,1169.2914 -1416.4174,1166.53 -1414.1788,1164.2914 -1411.4174,1164.2914 -1408.6559,1164.2914 -1406.4174,1166.53 -1406.4174,1169.2914 z" />
      <text style="font-size:30; vertical-align:top; fill-opacity:1.0; fill:darkblue; text-anchor:right; stroke:none; font-weight:normal; font-style:italic; text-align:right; " transform="" id="A.p9.text" y="1162.29133858" x="-1404.41732283">
p9</text>
      <circle style="stroke:red; stroke-width:1; fill:red; " transform="" cy="4003.93700787" cx="-88.5826771654" r="5" id="A.p11" d="M -83.58268,4003.937 C -83.58268,4006.6984 -85.821256,4008.937 -88.58268,4008.937 -91.344103,4008.937 -93.58268,4006.6984 -93.58268,4003.937 -93.58268,4001.1756 -91.344103,3998.937 -88.58268,3998.937 -85.821256,3998.937 -83.58268,4001.1756 -83.58268,4003.937 z" />
      <text style="font-size:30; vertical-align:top; fill-opacity:1.0; fill:darkblue; text-anchor:right; stroke:none; font-weight:normal; font-style:italic; text-align:right; " transform="" id="A.p11.text" y="3996.93700787" x="-81.5826771654">
p11</text>
      <circle style="stroke:red; stroke-width:1; fill:red; " transform="" cy="4093.93700787" cx="-88.5826771654" r="5" id="A.p17" d="M -83.58268,4093.937 C -83.58268,4096.6984 -85.821256,4098.937 -88.58268,4098.937 -91.344103,4098.937 -93.58268,4096.6984 -93.58268,4093.937 -93.58268,4091.1756 -91.344103,4088.937 -88.58268,4088.937 -85.821256,4088.937 -83.58268,4091.1756 -83.58268,4093.937 z" />
      <text style="font-size:30; vertical-align:top; fill-opacity:1.0; fill:darkblue; text-anchor:right; stroke:none; font-weight:normal; font-style:italic; text-align:right; " transform="" id="A.p17.text" y="4086.93700787" x="-81.5826771654">
p17</text>
      <circle style="stroke:gray; stroke-width:1; fill:none; " transform="" cy="3458.57969855" cx="-956.692913386" r="5" id="A.p10.outpoint" d="M -951.69293,3458.5796 C -951.69293,3461.341 -953.93151,3463.5796 -956.69293,3463.5796 -959.45436,3463.5796 -961.69293,3461.341 -961.69293,3458.5796 -961.69293,3455.8182 -959.45436,3453.5796 -956.69293,3453.5796 -953.93151,3453.5796 -951.69293,3455.8182 -951.69293,3458.5796 z" />
      <text style="font-size:25; vertical-align:top; fill-opacity:1.0; fill:gray; text-anchor:right; stroke:none; font-weight:normal; font-style:italic; text-align:right; " transform="" id="A.p10.outpoint.text" y="3451.57969855" x="-949.692913386">
p10.out</text>
      <circle style="stroke:red; stroke-width:1; fill:red; " transform="" cy="4003.93700787" cx="-956.692913386" r="5" id="A.p10" d="M -951.69293,4003.937 C -951.69293,4006.6984 -953.93151,4008.937 -956.69293,4008.937 -959.45436,4008.937 -961.69293,4006.6984 -961.69293,4003.937 -961.69293,4001.1756 -959.45436,3998.937 -956.69293,3998.937 -953.93151,3998.937 -951.69293,4001.1756 -951.69293,4003.937 z" />
      <text style="font-size:30; vertical-align:top; fill-opacity:1.0; fill:darkblue; text-anchor:right; stroke:none; font-weight:normal; font-style:italic; text-align:right; " transform="" id="A.p10.text" y="3996.93700787" x="-949.692913386">
p10</text>
      <circle style="stroke:red; stroke-width:1; fill:red; " transform="" cy="4093.93700787" cx="-956.692913386" r="5" id="A.p16" d="M -951.69293,4093.937 C -951.69293,4096.6984 -953.93151,4098.937 -956.69293,4098.937 -959.45436,4098.937 -961.69293,4096.6984 -961.69293,4093.937 -961.69293,4091.1756 -959.45436,4088.937 -956.69293,4088.937 -953.93151,4088.937 -951.69293,4091.1756 -951.69293,4093.937 z" />
      <text style="font-size:30; vertical-align:top; fill-opacity:1.0; fill:darkblue; text-anchor:right; stroke:none; font-weight:normal; font-style:italic; text-align:right; " transform="" id="A.p16.text" y="4086.93700787" x="-949.692913386">
p16</text>
      <circle style="stroke:gray; stroke-width:1; fill:none; " transform="" cy="233.858267717" cx="-349.351446354" r="5" id="A.w0.inpoint" d="M -344.35144,233.85826 C -344.35144,236.61968 -346.59002,238.85826 -349.35144,238.85826 -352.11286,238.85826 -354.35144,236.61968 -354.35144,233.85826 -354.35144,231.09684 -352.11286,228.85826 -349.35144,228.85826 -346.59002,228.85826 -344.35144,231.09684 -344.35144,233.85826 z" />
      <text style="font-size:25; vertical-align:top; fill-opacity:1.0; fill:gray; text-anchor:right; stroke:none; font-weight:normal; font-style:italic; text-align:right; " transform="" id="A.w0.inpoint.text" y="226.858267717" x="-342.351446354">
w0.in</text>
      <circle style="stroke:red; stroke-width:1; fill:red; " transform="" cy="233.858267717" cx="0" r="5" id="A.w0" d="M 5,233.85826 C 5,236.61968 2.7614237,238.85826 0,238.85826 -2.7614237,238.85826 -5,236.61968 -5,233.85826 -5,231.09684 -2.7614237,228.85826 0,228.85826 2.7614237,228.85826 5,231.09684 5,233.85826 z" />
      <text style="font-size:30; vertical-align:top; fill-opacity:1.0; fill:darkblue; text-anchor:right; stroke:none; font-weight:normal; font-style:italic; text-align:right; " transform="" id="A.w0.text" y="226.858267717" x="7">
w0</text>
      <circle style="stroke:gray; stroke-width:1; fill:none; " transform="" cy="368.858267717" cx="-354.799784507" r="5" id="A.w1.outpoint" d="M -349.79977,368.85828 C -349.79977,371.6197 -352.03835,373.85828 -354.79977,373.85828 -357.5612,373.85828 -359.79977,371.6197 -359.79977,368.85828 -359.79977,366.09685 -357.5612,363.85828 -354.79977,363.85828 -352.03835,363.85828 -349.79977,366.09685 -349.79977,368.85828 z" />
      <text style="font-size:25; vertical-align:top; fill-opacity:1.0; fill:gray; text-anchor:right; stroke:none; font-weight:normal; font-style:italic; text-align:right; " transform="" id="A.w1.outpoint.text" y="361.858267717" x="-347.799784507">
w1.out</text>
      <circle style="stroke:red; stroke-width:1; fill:red; " transform="" cy="368.858267717" cx="0" r="5" id="A.w1" d="M 5,368.85828 C 5,371.6197 2.7614237,373.85828 0,373.85828 -2.7614237,373.85828 -5,371.6197 -5,368.85828 -5,366.09685 -2.7614237,363.85828 0,363.85828 2.7614237,363.85828 5,366.09685 5,368.85828 z" />
      <text style="font-size:30; vertical-align:top; fill-opacity:1.0; fill:darkblue; text-anchor:right; stroke:none; font-weight:normal; font-style:italic; text-align:right; " transform="" id="A.w1.text" y="361.858267717" x="7">
w1</text>
      <circle style="stroke:red; stroke-width:1; fill:red; " transform="" cy="233.858267717" cx="-1098.42519685" r="5" id="A.w2" d="M -1093.4252,233.85826 C -1093.4252,236.61968 -1095.6637,238.85826 -1098.4252,238.85826 -1101.1866,238.85826 -1103.4252,236.61968 -1103.4252,233.85826 -1103.4252,231.09684 -1101.1866,228.85826 -1098.4252,228.85826 -1095.6637,228.85826 -1093.4252,231.09684 -1093.4252,233.85826 z" />
      <text style="font-size:30; vertical-align:top; fill-opacity:1.0; fill:darkblue; text-anchor:right; stroke:none; font-weight:normal; font-style:italic; text-align:right; " transform="" id="A.w2.text" y="226.858267717" x="-1091.42519685">
w2</text>
      <circle style="stroke:red; stroke-width:1; fill:red; " transform="" cy="368.858267717" cx="-1098.42519685" r="5" id="A.w3" d="M -1093.4252,368.85828 C -1093.4252,371.6197 -1095.6637,373.85828 -1098.4252,373.85828 -1101.1866,373.85828 -1103.4252,371.6197 -1103.4252,368.85828 -1103.4252,366.09685 -1101.1866,363.85828 -1098.4252,363.85828 -1095.6637,363.85828 -1093.4252,366.09685 -1093.4252,368.85828 z" />
      <text style="font-size:30; vertical-align:top; fill-opacity:1.0; fill:darkblue; text-anchor:right; stroke:none; font-weight:normal; font-style:italic; text-align:right; " transform="" id="A.w3.text" y="361.858267717" x="-1091.42519685">
w3</text>
      <circle style="stroke:red; stroke-width:1; fill:red; " transform="" cy="233.858267717" cx="-1311.02362205" r="5" id="A.f1" d="M -1306.0237,233.85826 C -1306.0237,236.61968 -1308.2623,238.85826 -1311.0237,238.85826 -1313.7851,238.85826 -1316.0237,236.61968 -1316.0237,233.85826 -1316.0237,231.09684 -1313.7851,228.85826 -1311.0237,228.85826 -1308.2623,228.85826 -1306.0237,231.09684 -1306.0237,233.85826 z" />
      <text style="font-size:30; vertical-align:top; fill-opacity:1.0; fill:darkblue; text-anchor:right; stroke:none; font-weight:normal; font-style:italic; text-align:right; " transform="" id="A.f1.text" y="226.858267717" x="-1304.02362205">
f1</text>
      <circle style="stroke:gray; stroke-width:1; fill:none; " transform="" cy="1023.12992126" cx="-1098.42519685" r="5" id="A.f3.inpoint" d="M -1093.4252,1023.1299 C -1093.4252,1025.8914 -1095.6637,1028.1299 -1098.4252,1028.1299 -1101.1866,1028.1299 -1103.4252,1025.8914 -1103.4252,1023.1299 -1103.4252,1020.3685 -1101.1866,1018.1299 -1098.4252,1018.1299 -1095.6637,1018.1299 -1093.4252,1020.3685 -1093.4252,1023.1299 z" />
      <text style="font-size:25; vertical-align:top; fill-opacity:1.0; fill:gray; text-anchor:right; stroke:none; font-weight:normal; font-style:italic; text-align:right; " transform="" id="A.f3.inpoint.text" y="1016.12992126" x="-1091.42519685">
f3.in</text>
      <circle style="stroke:red; stroke-width:1; fill:red; " transform="" cy="876.968503937" cx="-1098.42519685" r="5" id="A.f3" d="M -1093.4252,876.96851 C -1093.4252,879.72993 -1095.6637,881.96851 -1098.4252,881.96851 -1101.1866,881.96851 -1103.4252,879.72993 -1103.4252,876.96851 -1103.4252,874.20708 -1101.1866,871.96851 -1098.4252,871.96851 -1095.6637,871.96851 -1093.4252,874.20708 -1093.4252,876.96851 z" />
      <text style="font-size:30; vertical-align:top; fill-opacity:1.0; fill:darkblue; text-anchor:right; stroke:none; font-weight:normal; font-style:italic; text-align:right; " transform="" id="A.f3.text" y="869.968503937" x="-1091.42519685">
f3</text>
      <circle style="stroke:red; stroke-width:1; fill:red; " transform="" cy="876.968503937" cx="-1311.02362205" r="5" id="A.f2" d="M -1306.0237,876.96851 C -1306.0237,879.72993 -1308.2623,881.96851 -1311.0237,881.96851 -1313.7851,881.96851 -1316.0237,879.72993 -1316.0237,876.96851 -1316.0237,874.20708 -1313.7851,871.96851 -1311.0237,871.96851 -1308.2623,871.96851 -1306.0237,874.20708 -1306.0237,876.96851 z" />
      <text style="font-size:30; vertical-align:top; fill-opacity:1.0; fill:darkblue; text-anchor:right; stroke:none; font-weight:normal; font-style:italic; text-align:right; " transform="" id="A.f2.text" y="869.968503937" x="-1304.02362205">
f2</text>
      <path style="stroke-linejoin:miter; stroke-dashoffset:0; stroke:gray; stroke-miterlimit:4; stroke-dasharray:6,6; stroke-width:2; fill:none; " transform="" d="M -1098.42519685  0 L 0  0 L 0  4003.93700787 L -1098.42519685  4003.93700787 L -1098.42519685  0 M -1411.41732283  1169.29133858 L 0  1169.29133858 M -1098.42519685  2374.01574803 L 0  2374.01574803 M 0  368.858267717 L -1098.42519685  368.858267717 " id="A.gridline" />
    </g>
    <g id="document.pants.Back Pants.reference" transform=" translate(3365.826772, 580.552283)">
      <circle style="stroke:red; stroke-width:1; fill:red; " transform="" cy="0" cx="-1009.84251969" r="5" id="B.p18" d="M -1004.8425,0 C -1004.8425,2.7614237 -1007.0811,5 -1009.8425,5 -1012.604,5 -1014.8425,2.7614237 -1014.8425,0 -1014.8425,-2.7614237 -1012.604,-5 -1009.8425,-5 -1007.0811,-5 -1004.8425,-2.7614237 -1004.8425,0 z" />
      <text style="font-size:30; vertical-align:top; fill-opacity:1.0; fill:darkblue; text-anchor:right; stroke:none; font-weight:normal; font-style:italic; text-align:right; " transform="" id="B.p18.text" y="-7" x="-1002.84251969">
p18</text>
      <circle style="stroke:red; stroke-width:1; fill:red; " transform="" cy="-141.732283465" cx="-1009.84251969" r="5" id="B.p19" d="M -1004.8425,-141.73228 C -1004.8425,-138.97086 -1007.0811,-136.73228 -1009.8425,-136.73228 -1012.604,-136.73228 -1014.8425,-138.97086 -1014.8425,-141.73228 -1014.8425,-144.49371 -1012.604,-146.73228 -1009.8425,-146.73228 -1007.0811,-146.73228 -1004.8425,-144.49371 -1004.8425,-141.73228 z" />
      <text style="font-size:30; vertical-align:top; fill-opacity:1.0; fill:darkblue; text-anchor:right; stroke:none; font-weight:normal; font-style:italic; text-align:right; " transform="" id="B.p19.text" y="-148.732283465" x="-1002.84251969">
p19</text>
      <circle style="stroke:gray; stroke-width:1; fill:none; " transform="" cy="2906.58025666" cx="-1117.49884224" r="5" id="B.p20.inpoint" d="M -1112.4989,2906.5803 C -1112.4989,2909.3417 -1114.7375,2911.5803 -1117.4989,2911.5803 -1120.2603,2911.5803 -1122.4989,2909.3417 -1122.4989,2906.5803 -1122.4989,2903.8189 -1120.2603,2901.5803 -1117.4989,2901.5803 -1114.7375,2901.5803 -1112.4989,2903.8189 -1112.4989,2906.5803 z" />
      <text style="font-size:25; vertical-align:top; fill-opacity:1.0; fill:gray; text-anchor:right; stroke:none; font-weight:normal; font-style:italic; text-align:right; " transform="" id="B.p20.inpoint.text" y="2899.58025666" x="-1110.49884224">
p20.in</text>
      <circle style="stroke:gray; stroke-width:1; fill:none; " transform="" cy="1969.69469577" cx="-1333.27947552" r="5" id="B.p20.outpoint" d="M -1328.2794,1969.6947 C -1328.2794,1972.4561 -1330.518,1974.6947 -1333.2794,1974.6947 -1336.0408,1974.6947 -1338.2794,1972.4561 -1338.2794,1969.6947 -1338.2794,1966.9333 -1336.0408,1964.6947 -1333.2794,1964.6947 -1330.518,1964.6947 -1328.2794,1966.9333 -1328.2794,1969.6947 z" />
      <text style="font-size:25; vertical-align:top; fill-opacity:1.0; fill:gray; text-anchor:right; stroke:none; font-weight:normal; font-style:italic; text-align:right; " transform="" id="B.p20.outpoint.text" y="1962.69469577" x="-1326.27947552">
p20.out</text>
      <circle style="stroke:red; stroke-width:1; fill:red; " transform="" cy="2374.01574803" cx="-1240.15748031" r="5" id="B.p20" d="M -1235.1575,2374.0159 C -1235.1575,2376.7773 -1237.396,2379.0159 -1240.1575,2379.0159 -1242.9189,2379.0159 -1245.1575,2376.7773 -1245.1575,2374.0159 -1245.1575,2371.2544 -1242.9189,2369.0159 -1240.1575,2369.0159 -1237.396,2369.0159 -1235.1575,2371.2544 -1235.1575,2374.0159 z" />
      <text style="font-size:30; vertical-align:top; fill-opacity:1.0; fill:darkblue; text-anchor:right; stroke:none; font-weight:normal; font-style:italic; text-align:right; " transform="" id="B.p20.text" y="2367.01574803" x="-1233.15748031">
p20</text>
      <circle style="stroke:gray; stroke-width:1; fill:none; " transform="" cy="3457.42982829" cx="-1062.99212598" r="5" id="B.p21.outpoint" d="M -1057.9921,3457.4299 C -1057.9921,3460.1914 -1060.2306,3462.4299 -1062.9921,3462.4299 -1065.7535,3462.4299 -1067.9921,3460.1914 -1067.9921,3457.4299 -1067.9921,3454.6685 -1065.7535,3452.4299 -1062.9921,3452.4299 -1060.2306,3452.4299 -1057.9921,3454.6685 -1057.9921,3457.4299 z" />
      <text style="font-size:25; vertical-align:top; fill-opacity:1.0; fill:gray; text-anchor:right; stroke:none; font-weight:normal; font-style:italic; text-align:right; " transform="" id="B.p21.outpoint.text" y="3450.42982829" x="-1055.99212598">
p21.out</text>
      <circle style="stroke:red; stroke-width:1; fill:red; " transform="" cy="4003.93700787" cx="-1062.99212598" r="5" id="B.p21" d="M -1057.9921,4003.937 C -1057.9921,4006.6984 -1060.2306,4008.937 -1062.9921,4008.937 -1065.7535,4008.937 -1067.9921,4006.6984 -1067.9921,4003.937 -1067.9921,4001.1756 -1065.7535,3998.937 -1062.9921,3998.937 -1060.2306,3998.937 -1057.9921,4001.1756 -1057.9921,4003.937 z" />
      <text style="font-size:30; vertical-align:top; fill-opacity:1.0; fill:darkblue; text-anchor:right; stroke:none; font-weight:normal; font-style:italic; text-align:right; " transform="" id="B.p21.text" y="3996.93700787" x="-1055.99212598">
p21</text>
      <circle style="stroke:gray; stroke-width:1; fill:none; " transform="" cy="874.942156312" cx="-1133.82720746" r="5" id="B.p22.inpoint" d="M -1128.8271,874.94214 C -1128.8271,877.70356 -1131.0657,879.94214 -1133.8271,879.94214 -1136.5886,879.94214 -1138.8271,877.70356 -1138.8271,874.94214 -1138.8271,872.18071 -1136.5886,869.94214 -1133.8271,869.94214 -1131.0657,869.94214 -1128.8271,872.18071 -1128.8271,874.94214 z" />
      <text style="font-size:25; vertical-align:top; fill-opacity:1.0; fill:gray; text-anchor:right; stroke:none; font-weight:normal; font-style:italic; text-align:right; " transform="" id="B.p22.inpoint.text" y="867.942156312" x="-1126.82720746">
p22.in</text>
      <circle style="stroke:red; stroke-width:1; fill:red; " transform="" cy="584.645669291" cx="-1098.42519685" r="5" id="B.p22" d="M -1093.4252,584.64569 C -1093.4252,587.40711 -1095.6637,589.64569 -1098.4252,589.64569 -1101.1866,589.64569 -1103.4252,587.40711 -1103.4252,584.64569 -1103.4252,581.88427 -1101.1866,579.64569 -1098.4252,579.64569 -1095.6637,579.64569 -1093.4252,581.88427 -1093.4252,584.64569 z" />
      <text style="font-size:30; vertical-align:top; fill-opacity:1.0; fill:darkblue; text-anchor:right; stroke:none; font-weight:normal; font-style:italic; text-align:right; " transform="" id="B.p22.text" y="577.645669291" x="-1091.42519685">
p22</text>
      <circle style="stroke:red; stroke-width:1; fill:red; " transform="" cy="1169.29133858" cx="-1724.40944882" r="5" id="B.p23" d="M -1719.4094,1169.2914 C -1719.4094,1172.0528 -1721.648,1174.2914 -1724.4094,1174.2914 -1727.1708,1174.2914 -1729.4094,1172.0528 -1729.4094,1169.2914 -1729.4094,1166.53 -1727.1708,1164.2914 -1724.4094,1164.2914 -1721.648,1164.2914 -1719.4094,1166.53 -1719.4094,1169.2914 z" />
      <text style="font-size:30; vertical-align:top; fill-opacity:1.0; fill:darkblue; text-anchor:right; stroke:none; font-weight:normal; font-style:italic; text-align:right; " transform="" id="B.p23.text" y="1162.29133858" x="-1717.40944882">
p23</text>
      <circle style="stroke:gray; stroke-width:1; fill:none; " transform="" cy="1591.03566562" cx="-1520.49625264" r="5" id="B.p24.inpoint" d="M -1515.4962,1591.0356 C -1515.4962,1593.7971 -1517.7348,1596.0356 -1520.4962,1596.0356 -1523.2576,1596.0356 -1525.4962,1593.7971 -1525.4962,1591.0356 -1525.4962,1588.2742 -1523.2576,1586.0356 -1520.4962,1586.0356 -1517.7348,1586.0356 -1515.4962,1588.2742 -1515.4962,1591.0356 z" />
      <text style="font-size:25; vertical-align:top; fill-opacity:1.0; fill:gray; text-anchor:right; stroke:none; font-weight:normal; font-style:italic; text-align:right; " transform="" id="B.p24.inpoint.text" y="1584.03566562" x="-1513.49625264">
p24.in</text>
      <circle style="stroke:gray; stroke-width:1; fill:none; " transform="" cy="1219.10584567" cx="-1400.38352629" r="5" id="B.p24.outpoint" d="M -1395.3835,1219.1058 C -1395.3835,1221.8673 -1397.6221,1224.1058 -1400.3835,1224.1058 -1403.145,1224.1058 -1405.3835,1221.8673 -1405.3835,1219.1058 -1405.3835,1216.3444 -1403.145,1214.1058 -1400.3835,1214.1058 -1397.6221,1214.1058 -1395.3835,1216.3444 -1395.3835,1219.1058 z" />
      <text style="font-size:25; vertical-align:top; fill-opacity:1.0; fill:gray; text-anchor:right; stroke:none; font-weight:normal; font-style:italic; text-align:right; " transform="" id="B.p24.outpoint.text" y="1212.10584567" x="-1393.38352629">
p24.out</text>
      <circle style="stroke:red; stroke-width:1; fill:red; " transform="" cy="1219.10584567" cx="-1704.38597048" r="5" id="B.p24" d="M -1699.386,1219.1058 C -1699.386,1221.8673 -1701.6246,1224.1058 -1704.386,1224.1058 -1707.1474,1224.1058 -1709.386,1221.8673 -1709.386,1219.1058 -1709.386,1216.3444 -1707.1474,1214.1058 -1704.386,1214.1058 -1701.6246,1214.1058 -1699.386,1216.3444 -1699.386,1219.1058 z" />
      <text style="font-size:30; vertical-align:top; fill-opacity:1.0; fill:darkblue; text-anchor:right; stroke:none; font-weight:normal; font-style:italic; text-align:right; " transform="" id="B.p24.text" y="1212.10584567" x="-1697.38597048">
p24</text>
      <circle style="stroke:red; stroke-width:1; fill:red; " transform="" cy="4093.93700787" cx="-1062.99212598" r="5" id="B.p25" d="M -1057.9921,4093.937 C -1057.9921,4096.6984 -1060.2306,4098.937 -1062.9921,4098.937 -1065.7535,4098.937 -1067.9921,4096.6984 -1067.9921,4093.937 -1067.9921,4091.1756 -1065.7535,4088.937 -1062.9921,4088.937 -1060.2306,4088.937 -1057.9921,4091.1756 -1057.9921,4093.937 z" />
      <text style="font-size:30; vertical-align:top; fill-opacity:1.0; fill:darkblue; text-anchor:right; stroke:none; font-weight:normal; font-style:italic; text-align:right; " transform="" id="B.p25.text" y="4086.93700787" x="-1055.99212598">
p25</text>
      <circle style="stroke:red; stroke-width:1; fill:red; " transform="" cy="92.125984252" cx="-1009.84251969" r="5" id="B.w5" d="M -1004.8425,92.125984 C -1004.8425,94.887408 -1007.0811,97.125984 -1009.8425,97.125984 -1012.604,97.125984 -1014.8425,94.887408 -1014.8425,92.125984 -1014.8425,89.36456 -1012.604,87.125984 -1009.8425,87.125984 -1007.0811,87.125984 -1004.8425,89.36456 -1004.8425,92.125984 z" />
      <text style="font-size:30; vertical-align:top; fill-opacity:1.0; fill:darkblue; text-anchor:right; stroke:none; font-weight:normal; font-style:italic; text-align:right; " transform="" id="B.w5.text" y="85.125984252" x="-1002.84251969">
w5</text>
      <circle style="stroke:red; stroke-width:1; fill:red; " transform="" cy="227.125984252" cx="-1009.84251969" r="5" id="B.w6" d="M -1004.8425,227.12599 C -1004.8425,229.88742 -1007.0811,232.12599 -1009.8425,232.12599 -1012.604,232.12599 -1014.8425,229.88742 -1014.8425,227.12599 -1014.8425,224.36457 -1012.604,222.12599 -1009.8425,222.12599 -1007.0811,222.12599 -1004.8425,224.36457 -1004.8425,227.12599 z" />
      <text style="font-size:30; vertical-align:top; fill-opacity:1.0; fill:darkblue; text-anchor:right; stroke:none; font-weight:normal; font-style:italic; text-align:right; " transform="" id="B.w6.text" y="220.125984252" x="-1002.84251969">
w6</text>
      <circle style="stroke:gray; stroke-width:1; fill:none; " transform="" cy="130.481153773" cx="-691.099626662" r="5" id="B.w8.outpoint" d="M -686.09961,130.48116 C -686.09961,133.24258 -688.33819,135.48116 -691.09961,135.48116 -693.86103,135.48116 -696.09961,133.24258 -696.09961,130.48116 -696.09961,127.71973 -693.86103,125.48116 -691.09961,125.48116 -688.33819,125.48116 -686.09961,127.71973 -686.09961,130.48116 z" />
      <text style="font-size:25; vertical-align:top; fill-opacity:1.0; fill:gray; text-anchor:right; stroke:none; font-weight:normal; font-style:italic; text-align:right; " transform="" id="B.w8.outpoint.text" y="123.481153773" x="-684.099626662">
w8.out</text>
      <circle style="stroke:red; stroke-width:1; fill:red; " transform="" cy="88.1906326707" cx="-1037.8818997" r="5" id="B.w8" d="M -1032.882,88.190636 C -1032.882,90.952059 -1035.1205,93.190636 -1037.882,93.190636 -1040.6434,93.190636 -1042.882,90.952059 -1042.882,88.190636 -1042.882,85.429212 -1040.6434,83.190636 -1037.882,83.190636 -1035.1205,83.190636 -1032.882,85.429212 -1032.882,88.190636 z" />
      <text style="font-size:30; vertical-align:top; fill-opacity:1.0; fill:darkblue; text-anchor:right; stroke:none; font-weight:normal; font-style:italic; text-align:right; " transform="" id="B.w8.text" y="81.1906326707" x="-1030.8818997">
w8</text>
      <circle style="stroke:gray; stroke-width:1; fill:none; " transform="" cy="263.868927805" cx="-701.877725628" r="5" id="B.w9.inpoint" d="M -696.87775,263.86893 C -696.87775,266.63035 -699.11632,268.86893 -701.87775,268.86893 -704.63917,268.86893 -706.87775,266.63035 -706.87775,263.86893 -706.87775,261.1075 -704.63917,258.86893 -701.87775,258.86893 -699.11632,258.86893 -696.87775,261.1075 -696.87775,263.86893 z" />
      <text style="font-size:25; vertical-align:top; fill-opacity:1.0; fill:gray; text-anchor:right; stroke:none; font-weight:normal; font-style:italic; text-align:right; " transform="" id="B.w9.inpoint.text" y="256.868927805" x="-694.877725628">
w9.in</text>
      <circle style="stroke:red; stroke-width:1; fill:red; " transform="" cy="220.918861531" cx="-1054.06826907" r="5" id="B.w9" d="M -1049.0682,220.91887 C -1049.0682,223.68029 -1051.3068,225.91887 -1054.0682,225.91887 -1056.8297,225.91887 -1059.0682,223.68029 -1059.0682,220.91887 -1059.0682,218.15745 -1056.8297,215.91887 -1054.0682,215.91887 -1051.3068,215.91887 -1049.0682,218.15745 -1049.0682,220.91887 z" />
      <text style="font-size:30; vertical-align:top; fill-opacity:1.0; fill:darkblue; text-anchor:right; stroke:none; font-weight:normal; font-style:italic; text-align:right; " transform="" id="B.w9.text" y="213.918861531" x="-1047.06826907">
w9</text>
      <path style="stroke-linejoin:miter; stroke-dashoffset:0; stroke:gray; stroke-miterlimit:4; stroke-dasharray:6,6; stroke-width:2; fill:none; " transform="" d="M -1098.42519685  0 L 0  0 L 0  4003.93700787 L -1098.42519685  4003.93700787 L -1098.42519685  0 M -1724.40944882  1169.29133858 L 0  1169.29133858 M -1240.15748031  2374.01574803 L 0  2374.01574803 M 0  368.858267717 C -354.799784507  368.858267717  -701.877725628  263.868927805  -1054.06826907  220.918861531 M -1098.42519685  584.645669291 L -1009.84251969  -141.732283465 L 0  0 " id="B.gridline" />
    </g>
    <g id="document.pants.Front Waist Facing.reference" transform=" translate(1098.425197, 4609.381024)" />
    <g id="document.pants.Back Waist Facing.reference" transform=" translate(2321.243466, 4755.048659)" />
    <g id="document.pants.Fly Facing.reference" transform=" translate(3801.017088, 4609.381024)" />
  </g>
</svg>
