<?xml version="1.0" encoding="UTF-8" standalone="no"?>
<svg xmlns:dc="http://purl.org/dc/elements/1.1/" xmlns:cc="http://creativecommons.org/ns#" xmlns:rdf="http://www.w3.org/1999/02/22-rdf-syntax-ns#" xmlns:svg="http://www.w3.org/2000/svg" xmlns="http://www.w3.org/2000/svg" xmlns:sodipodi="http://sodipodi.sourceforge.net/DTD/sodipodi-0.dtd" xmlns:inkscape="http://www.inkscape.org/namespaces/inkscape" patternNumber="MR_B1" fitBoxtoViewport="True" companyName="Next Patterns" currentscale="0.5:1" margin-right="88.5826771654" client-name="DressFormLg" designerName="S.L.Spencer" height="4685.8633549" width="2545.52426033" margin-top="88.5826771654" version="1.1" margin-bottom="88.5826771654" margin-left="88.5826771654" preserveAspectRatio="xMidYMid meet" id="svg2" inkscape:version="0.48.4 r9939" sodipodi:docname="Susan-spencer_bodice_short-2014-11-23-1830.svg">
  <metadata id="metadata286">
    <rdf:RDF>
      <cc:Work rdf:about="">
        <dc:format>image/svg+xml</dc:format>
        <dc:type rdf:resource="http://purl.org/dc/dcmitype/StillImage" />
      </cc:Work>
    </rdf:RDF>
  </metadata>
  <sodipodi:namedview id="base" pagecolor="#ffffff" bordercolor="#666666" borderopacity="1.0" inkscape:pageopacity="0.0" inkscape:pageshadow="2" inkscape:zoom="0.18907935" inkscape:document-units="pt" showgrid="false" inkscape:window-maximized="1" inkscape:cx="1272.7621" inkscape:cy="2342.9316" inkscape:window-width="1855" inkscape:window-height="1056" inkscape:window-x="65" inkscape:window-y="24" inkscape:current-layer="pattern" />
  <defs id="defs5">
    <marker style="overflow:visible" id="Arrow1Mstart" refX="0.0" refY="0.0" orient="auto" inkscape:stockid="Arrow1Mstart">
      <path transform="scale(0.4) translate(10,0)" style="fill-rule:evenodd;stroke:#000000;stroke-width:1.0pt;marker-start:none" d="M 0.0,0.0 L 5.0,-5.0 L -12.5,0.0 L 5.0,5.0 L 0.0,0.0 z " id="path8" />
    </marker>
    <marker style="overflow:visible;" id="Arrow1Mend" refX="0.0" refY="0.0" orient="auto" inkscape:stockid="Arrow1Mend">
      <path transform="scale(0.4) rotate(180) translate(10,0)" style="fill-rule:evenodd;stroke:#000000;stroke-width:1.0pt;marker-start:none;" d="M 0.0,0.0 L 5.0,-5.0 L -12.5,0.0 L 5.0,5.0 L 0.0,0.0 z " id="path11" />
    </marker>
  </defs>
  <g inkscape:label="Label-pattern" id="pattern" inkscape:groupmode="layer" transform="translate(88.582677,88.582677)">
    <g id="document.bodice.Bodice Front.pattern" transform=" translate(58.750000, 757.717638)">
      <g id="A.letter" transform="matrix(10.000000, 0, 0, 10.000000, -3228.838583, -1030.039370)">
        <text style="font-size:24; vertical-align:top; fill-opacity:1.0; fill:#000000; text-anchor:start; stroke:none; font-weight:normal; font-style:normal; text-align:right; " transform="" id="A.letter.letterline" y="114.448818898" x="358.75984252">
A</text>
      </g>
      <line style="stroke-linejoin:miter; stroke:green; stroke-width:4; stroke-miterlimit:4; fill:none; " y2="1089.56692913" marker-end="url(#Arrow1Mend)" marker-start="url(#Arrow1Mstart)" transform="" x2="133.455818164" y1="159.448818898" x1="133.455818164" id="A.grainline" />
      <path style="stroke-linejoin:miter; stroke-dashoffset:0; stroke:green; stroke-miterlimit:4; stroke-dasharray:6,6; stroke-width:3; fill:none; " transform="" d="M 259.422273289  1311.16500733 L 354.330708661  710.078740157 L 449.239144033  1311.16500733 M 1115.36754711  637.795275591 L 438.42114238  637.795275591 L 1082.45746513  846.298632545 " id="A.dartline" />
      <path style="stroke-linejoin:miter; stroke-dashoffset:0; stroke:green; stroke-dasharray:24,6; stroke-miterlimit:4; stroke-width:4; fill:none; " transform="" d="M 0.0  0.0 L 0.0  1240.15748031 C 88.6510629953  1240.15748031  170.37146643  1240.15748031  268.195175027  1255.60334164 L 354.330708661  1278.11886836 L 440.466242295  1255.60334164 C 638.608627086  1224.31767642  840.663085938  1206.62791188  1038.67054744  1192.7249741 L 1028.94208651  828.973311446 L 1028.2625664  730.895597359 L 1059.11754711  637.795275591 L 983.736240613  410.343378751 C 866.486995836  448.509733875  745.523886777  403.708010594  689.350393701  318.897637795 C 590.408044493  169.515125469  700.623059386  -143.661987328  717.519685039  -223.334513127 L 266.911636328  -318.897637795 C 233.832093174  -162.917928626  160.146981797  0.0  0.0  0.0 " id="A.seamline" />
      <path style="fill:none;stroke:#008000;stroke-width:4;stroke-linejoin:miter;stroke-miterlimit:4" d="M 211.90625,-330.65625 C 197.45138,-264.20535 177.34444,-197.87692 139.96875,-140.40625 116.15169,-104.08797 82.171731,-71.60028 38.90625,-60.9375 9.6980416,-53.498727 -20.657228,-57.036286 -50.466985,-55.829847 -59.45958,-58.486119 -55.389515,-48.189039 -56.25,-42.78125 -56.25,403.61458 -56.25,850.01042 -56.25,1296.4062 46.358054,1296.5757 149.38339,1294.0996 251,1309.8438 278.00729,1315.4948 304.50194,1323.6109 331.30863,1330.2263 339.63709,1331.7447 347.95565,1335.9211 356.2779,1335.7723 389.43648,1327.3273 422.39894,1317.9228 455.70196,1310.1632 667.79065,1276.9628 882.08778,1259.76 1096.3125,1245.0312 1092.6452,1102.874 1088.457,960.72553 1085.1171,818.56275 1085.145,792.0133 1084.3128,765.32807 1084.8773,738.86333 1096.041,705.16858 1107.2418,671.48609 1118.375,637.78125 1085.4999,538.46886 1052.5693,439.17481 1019.6562,339.875 983.50933,350.61777 947.83618,366.01948 909.8125,367.5 848.87911,371.0631 785.04751,347.94405 745.5625,300.46875 716.21972,265.1272 707.96154,217.73535 705.45047,173.25123 702.05697,95.046921 716.02614,17.150529 733.42252,-58.84383 745.12702,-111.35292 761.24214,-162.54959 773.28095,-214.96569 777.13522,-232.16463 780.98948,-249.36356 784.84375,-266.5625 597.77484,-306.25846 410.69518,-345.90378 223.625,-385.59375 219.71875,-367.28125 215.8125,-348.96875 211.90625,-330.65625 z" id="A.cuttingline" inkscape:connector-curvature="0" />
      <g id="A.info" transform="">
        <text style="font-size:12; vertical-align:top; fill-opacity:1.0; fill:#000000; text-anchor:start; stroke:none; font-weight:normal; font-style:normal; text-align:right; " transform="" id="A.info.lineNext Patterns" y="159.448818898" x="358.75984252">
Next Patterns</text>
        <text style="font-size:12; vertical-align:top; fill-opacity:1.0; fill:#000000; text-anchor:start; stroke:none; font-weight:normal; font-style:normal; text-align:right; " transform="" id="A.info.lineMR_B1" y="173.848818898" x="358.75984252">
MR_B1</text>
        <text style="font-size:12; vertical-align:top; fill-opacity:1.0; fill:#000000; text-anchor:start; stroke:none; font-weight:normal; font-style:normal; text-align:right; " transform="" id="A.info.lineSpencer Bodice Short" y="188.248818898" x="358.75984252">
Spencer Bodice Short</text>
        <text style="font-size:12; vertical-align:top; fill-opacity:1.0; fill:#000000; text-anchor:start; stroke:none; font-weight:normal; font-style:normal; text-align:right; " transform="" id="A.info.linePattern Piece A" y="202.648818898" x="358.75984252">
Pattern Piece A</text>
        <text style="font-size:12; vertical-align:top; fill-opacity:1.0; fill:#000000; text-anchor:start; stroke:none; font-weight:normal; font-style:normal; text-align:right; " transform="" id="A.info.lineCut 2 Fabric" y="217.048818898" x="358.75984252">
Cut 2 Fabric</text>
        <text style="font-size:12; vertical-align:top; fill-opacity:1.0; fill:#000000; text-anchor:start; stroke:none; font-weight:normal; font-style:normal; text-align:right; " transform="" id="A.info.line " y="231.448818898" x="358.75984252" />
        <text style="font-size:12; vertical-align:top; fill-opacity:1.0; fill:#000000; text-anchor:start; stroke:none; font-weight:normal; font-style:normal; text-align:right; " transform="" id="A.info.lineDressFormLg" y="245.848818898" x="358.75984252">
DressFormLg</text>
        <text style="font-size:12; vertical-align:top; fill-opacity:1.0; fill:#000000; text-anchor:start; stroke:none; font-weight:normal; font-style:normal; text-align:right; " transform="" id="A.info.line2014/11/23 18:30" y="260.248818898" x="358.75984252">
2014/11/23 18:30</text>
      </g>
    </g>
    <g id="document.bodice.Bodice Back.pattern" transform=" translate(2312.108906, 580.552283)">
      <g id="B.letter" transform="matrix(10.000000, 0, 0, 10.000000, 3220.308797, -2465.078740)">
        <text style="font-size:24; vertical-align:top; fill-opacity:1.0; fill:#000000; text-anchor:start; stroke:none; font-weight:normal; font-style:normal; text-align:right; " transform="" id="B.letter.letterline" y="273.897637795" x="-357.812088528">
B</text>
      </g>
      <line style="stroke-linejoin:miter; stroke:green; stroke-width:4; stroke-miterlimit:4; fill:none; " y2="1222.44094488" marker-end="url(#Arrow1Mend)" marker-start="url(#Arrow1Mstart)" transform="" x2="-142.235487856" y1="212.598425197" x1="-142.235487856" id="B.grainline" />
      <path style="stroke-linejoin:miter; stroke-dashoffset:0; stroke:green; stroke-miterlimit:4; stroke-dasharray:6,6; stroke-width:3; fill:none; " transform="" d="M -467.412859897  1410.15443315 L -383.761673202  637.795275591 L -300.110486507  1410.15443315 M -549.94563235  -87.4182932197 L -430.45219408  104.234043908 L -518.493439004  -103.751627012 " id="B.dartline" />
      <path style="stroke-linejoin:miter; stroke-dashoffset:0; stroke:green; stroke-dasharray:24,6; stroke-miterlimit:4; stroke-width:4; fill:none; " transform="" d="M 0.0  0.0 L 0.0  1346.45669291 C -101.067774363  1346.45669291  -234.382038208  1346.45669291  -306.167282905  1354.23147081 L -383.761673202  1369.18520373 L -461.356063499  1354.23147081 C -537.639427833  1345.96951924  -722.618056563  1344.80107546  -851.361750937  1343.98784763 L -908.074019882  743.623370461 C -815.843211147  734.910965532  -627.342519685  637.795275591  -627.342519685  435.978023208 C -627.342519685  315.641150946  -690.415334864  130.711716533  -715.624177057  82.1684498171 L -520.185017325  -39.6860369005 L -508.858261319  -46.7481632481 L -496.566196517  -51.9514480849 L -284.470975712  -141.732283465 C -252.688753608  -78.3927191927  -213.353231784  0.0  0.0  0.0 " id="B.seamline" />
      <path style="fill:none;stroke:#008000;stroke-width:4;stroke-linejoin:miter;stroke-miterlimit:4" d="M -306.40625,-193.53125 C -382.79654,-161.0806 -459.42069,-128.98719 -535.6605,-96.313751 -620.16419,-43.615592 -704.74718,9.1028878 -789.28125,61.8125 -774.47257,90.863412 -758.50939,119.35215 -747.75913,150.18399 -720.91443,223.53391 -699.53857,298.97735 -688.21875,376.34375 -681.80485,421.14333 -680.50927,467.73426 -695.3125,511.09375 -716.96104,577.49787 -770.40593,629.85449 -831.69596,661.031 -861.84585,676.47623 -894.64124,687.45532 -928.67287,689.1754 -942.21942,690.55443 -955.76596,691.93347 -969.3125,693.3125 -947.07183,928.85406 -924.83025,1164.3955 -902.59375,1399.9375 -775.64485,1400.9932 -648.58518,1400.5625 -521.8204,1406.2453 -496.33317,1407.6564 -470.67826,1408.4508 -445.71534,1414.5128 -424.73313,1418.3062 -403.74796,1423.1073 -382.76822,1426.2787 -353.12077,1420.8297 -323.53396,1414.2695 -293.84375,1409.5312 -215.64936,1402.8606 -136.93136,1403.3506 -58.375001,1402.7484 -20.166707,1402.687 18.04167,1402.733 56.25,1402.7188 56.25,916.39583 56.25,430.07292 56.25,-56.25 -8.2028894,-56.354282 -74.213712,-53.53629 -136.34375,-73.46875 -166.34681,-82.915222 -194.66624,-100.53616 -212.09375,-127.3125 -229.87902,-154.77479 -242.63111,-185.13446 -257.875,-214.0625 -274.05208,-207.21875 -290.22917,-200.375 -306.40625,-193.53125 z" id="B.cuttingline" inkscape:connector-curvature="0" />
      <g id="B.info" transform="">
        <text style="font-size:12; vertical-align:top; fill-opacity:1.0; fill:#000000; text-anchor:start; stroke:none; font-weight:normal; font-style:normal; text-align:right; " transform="" id="B.info.lineNext Patterns" y="318.897637795" x="-357.812088528">
Next Patterns</text>
        <text style="font-size:12; vertical-align:top; fill-opacity:1.0; fill:#000000; text-anchor:start; stroke:none; font-weight:normal; font-style:normal; text-align:right; " transform="" id="B.info.lineMR_B1" y="333.297637795" x="-357.812088528">
MR_B1</text>
        <text style="font-size:12; vertical-align:top; fill-opacity:1.0; fill:#000000; text-anchor:start; stroke:none; font-weight:normal; font-style:normal; text-align:right; " transform="" id="B.info.lineSpencer Bodice Short" y="347.697637795" x="-357.812088528">
Spencer Bodice Short</text>
        <text style="font-size:12; vertical-align:top; fill-opacity:1.0; fill:#000000; text-anchor:start; stroke:none; font-weight:normal; font-style:normal; text-align:right; " transform="" id="B.info.linePattern Piece B" y="362.097637795" x="-357.812088528">
Pattern Piece B</text>
        <text style="font-size:12; vertical-align:top; fill-opacity:1.0; fill:#000000; text-anchor:start; stroke:none; font-weight:normal; font-style:normal; text-align:right; " transform="" id="B.info.lineCut 2 Fabric" y="376.497637795" x="-357.812088528">
Cut 2 Fabric</text>
        <text style="font-size:12; vertical-align:top; fill-opacity:1.0; fill:#000000; text-anchor:start; stroke:none; font-weight:normal; font-style:normal; text-align:right; " transform="" id="B.info.line " y="390.897637795" x="-357.812088528" />
        <text style="font-size:12; vertical-align:top; fill-opacity:1.0; fill:#000000; text-anchor:start; stroke:none; font-weight:normal; font-style:normal; text-align:right; " transform="" id="B.info.lineDressFormLg" y="405.297637795" x="-357.812088528">
DressFormLg</text>
        <text style="font-size:12; vertical-align:top; fill-opacity:1.0; fill:#000000; text-anchor:start; stroke:none; font-weight:normal; font-style:normal; text-align:right; " transform="" id="B.info.line2014/11/23 18:30" y="419.697637795" x="-357.812088528">
2014/11/23 18:30</text>
      </g>
    </g>
    <g id="document.bodice.Bodice Sleeve.pattern" transform=" translate(838.764800, 2240.132645)">
      <line style="stroke-linejoin:miter; stroke:green; stroke-width:4; stroke-miterlimit:4; fill:none; " y2="1877.95275591" marker-end="url(#Arrow1Mend)" marker-start="url(#Arrow1Mstart)" transform="" x2="0.0" y1="426.94435453" x1="0.0" id="C.grainline" />
      <g id="C.letter" transform="matrix(15.000000, 0, 0, 15.000000, 6505.000928, -12047.876352)">
        <text style="font-size:24; vertical-align:top; fill-opacity:1.0; fill:#000000; text-anchor:start; stroke:none; font-weight:normal; font-style:normal; text-align:right; " transform="" id="C.letter.letterline" y="860.562596606" x="-464.642923442">
C</text>
      </g>
      <path style="stroke-linejoin:miter; stroke-dashoffset:0; stroke:green; stroke-miterlimit:4; stroke-dasharray:6,6; stroke-width:3; fill:none; " transform="" d="M 694.074057151  1264.12583953 L 446.456692913  1294.18083868 L 692.766060901  1333.54271476 " id="C.dartline" />
      <path style="stroke-linejoin:miter; stroke-dashoffset:0; stroke:green; stroke-dasharray:24,6; stroke-miterlimit:4; stroke-width:4; fill:none; " transform="" d="M 651.073219837  426.94435453 C 578.78032323  426.94435453  335.499920826  321.58401794  285.086946867  186.071717185 C 262.243696243  124.668050514  215.864975277  0.0  0.0  0.0 C -243.016004813  0.0  -391.506040295  180.486394063  -464.642923442  269.382677706 C -532.560323887  351.934794153  -694.232087695  426.94435453  -747.682123273  426.94435453 C -630.663372322  702.824758518  -506.383762907  995.823176072  -478.346456693  1294.18083868 L -394.522937703  2186.18483531 C -176.487195277  2165.69555133  60.2358191582  2127.03752047  261.946221899  2212.31535557 L 637.220850927  1324.66622058 L 637.727365976  1297.78488053 L 638.233881026  1270.90354048 L 651.073219837  426.94435453 " id="C.seamline" />
      <path style="fill:none;stroke:#008000;stroke-width:4;stroke-linejoin:miter;stroke-miterlimit:4" d="M -6.3125,-56.21875 C -100.75317,-55.510545 -194.27514,-27.942249 -275.28125,20.3125 -362.56435,71.569484 -434.939,144.11598 -498.46312,222.02253 -529.10326,262.05646 -571.1801,291.22693 -614.18174,316.36938 -653.07969,338.27748 -693.7268,358.34045 -737.25,369.125 -752.81218,372.49435 -768.96696,369.85787 -784.78125,370.6875 -800.75,370.6875 -816.71875,370.6875 -832.6875,370.6875 -747.87313,571.5819 -659.00844,771.63249 -597.83615,981.25164 -565.15288,1093.1943 -541.28188,1207.995 -531.97401,1324.5779 -503.08066,1632.2086 -474.15127,1939.8359 -445.28125,2247.4688 -343.68031,2238.6581 -242.47421,2225.779 -140.6875,2219.0938 -26.035667,2212.0583 92.170923,2213.2034 202.26118,2249.8787 232.84359,2260.0457 262.09381,2273.7027 291.9375,2285.7812 425.72749,1969.3831 559.49109,1652.9738 693.25,1336.5625 697.41474,1097.3245 700.62272,858.07014 704.40513,618.8256 705.66586,536.1129 706.9175,453.40006 708.1875,370.6875 686.98169,370.2686 665.6903,371.48839 644.53125,370.15625 607.02359,364.06466 571.45344,349.39661 536.96875,333.8125 478.8318,306.32298 422.71467,272.23206 377.75,225.90625 358.40232,205.80159 342.09701,182.26126 333.69266,155.48233 314.3017,102.65732 283.95325,52.647907 239.72807,17.020543 184.72517,-28.529625 113.43019,-49.487058 43.15625,-54.65625 26.698493,-55.87262 10.192569,-56.405649 -6.3125,-56.21875 z" id="C.cuttingline" inkscape:connector-curvature="0" />
      <g id="C.info" transform="">
        <text style="font-size:12; vertical-align:top; fill-opacity:1.0; fill:#000000; text-anchor:start; stroke:none; font-weight:normal; font-style:normal; text-align:right; " transform="" id="C.info.lineNext Patterns" y="931.428738339" x="-464.642923442">
Next Patterns</text>
        <text style="font-size:12; vertical-align:top; fill-opacity:1.0; fill:#000000; text-anchor:start; stroke:none; font-weight:normal; font-style:normal; text-align:right; " transform="" id="C.info.lineMR_B1" y="945.828738339" x="-464.642923442">
MR_B1</text>
        <text style="font-size:12; vertical-align:top; fill-opacity:1.0; fill:#000000; text-anchor:start; stroke:none; font-weight:normal; font-style:normal; text-align:right; " transform="" id="C.info.lineSpencer Bodice Short" y="960.228738339" x="-464.642923442">
Spencer Bodice Short</text>
        <text style="font-size:12; vertical-align:top; fill-opacity:1.0; fill:#000000; text-anchor:start; stroke:none; font-weight:normal; font-style:normal; text-align:right; " transform="" id="C.info.linePattern Piece C" y="974.628738339" x="-464.642923442">
Pattern Piece C</text>
        <text style="font-size:12; vertical-align:top; fill-opacity:1.0; fill:#000000; text-anchor:start; stroke:none; font-weight:normal; font-style:normal; text-align:right; " transform="" id="C.info.lineCut 2 Fabric" y="989.028738339" x="-464.642923442">
Cut 2 Fabric</text>
        <text style="font-size:12; vertical-align:top; fill-opacity:1.0; fill:#000000; text-anchor:start; stroke:none; font-weight:normal; font-style:normal; text-align:right; " transform="" id="C.info.line " y="1003.42873834" x="-464.642923442" />
        <text style="font-size:12; vertical-align:top; fill-opacity:1.0; fill:#000000; text-anchor:start; stroke:none; font-weight:normal; font-style:normal; text-align:right; " transform="" id="C.info.lineDressFormLg" y="1017.82873834" x="-464.642923442">
DressFormLg</text>
        <text style="font-size:12; vertical-align:top; fill-opacity:1.0; fill:#000000; text-anchor:start; stroke:none; font-weight:normal; font-style:normal; text-align:right; " transform="" id="C.info.line2014/11/23 18:30" y="1032.22873834" x="-464.642923442">
2014/11/23 18:30</text>
      </g>
    </g>
  </g>
  <g inkscape:label="Label-notes" id="notes" inkscape:groupmode="layer" transform="translate(88.582677,88.582677)">
    <g id="document.titleblock">
      <text style="font-size:40; vertical-align:top; fill-opacity:1.0; fill:#000000; text-anchor:right; stroke:none; font-weight:normal; font-style:normal; text-align:right; " transform="" id="company" y="0.0" x="0.0">
Next Patterns</text>
      <text style="font-size:40; vertical-align:top; fill-opacity:1.0; fill:#000000; text-anchor:right; stroke:none; font-weight:normal; font-style:normal; text-align:right; " transform="" id="designer" y="44.0" x="0.0">
S.L.Spencer</text>
      <text style="font-size:40; vertical-align:top; fill-opacity:1.0; fill:#000000; text-anchor:right; stroke:none; font-weight:normal; font-style:normal; text-align:right; " transform="" id="pattern_number" y="88.0" x="0.0">
MR_B1</text>
      <text style="font-size:40; vertical-align:top; fill-opacity:1.0; fill:#000000; text-anchor:right; stroke:none; font-weight:normal; font-style:normal; text-align:right; " transform="" id="pattern_name" y="132.0" x="0.0">
Spencer Bodice Short</text>
      <text style="font-size:40; vertical-align:top; fill-opacity:1.0; fill:#000000; text-anchor:right; stroke:none; font-weight:normal; font-style:normal; text-align:right; " transform="" id="client" y="176.0" x="0.0">
DressFormLg</text>
      <text style="font-size:40; vertical-align:top; fill-opacity:1.0; fill:#000000; text-anchor:right; stroke:none; font-weight:normal; font-style:normal; text-align:right; " transform="" id="date" y="220.0" x="0.0">
2014/11/23 18:30</text>
    </g>
    <g id="document.testgrid">
      <path style="stroke-linejoin:miter; stroke:green; stroke-width:4; stroke-miterlimit:4; fill:none; " d="M 1080.0  0.0 L 1080.0  212.598425197 M 1115.43307087  0.0 L 1115.43307087  212.598425197 M 1150.86614173  0.0 L 1150.86614173  212.598425197 M 1186.2992126  0.0 L 1186.2992126  212.598425197 M 1221.73228346  0.0 L 1221.73228346  212.598425197 M 1257.16535433  0.0 L 1257.16535433  212.598425197 M 1292.5984252  0.0 L 1292.5984252  212.598425197 M 1080.0  0.0 L 1292.5984252  0.0 M 1080.0  35.4330708661 L 1292.5984252  35.4330708661 M 1080.0  70.8661417323 L 1292.5984252  70.8661417323 M 1080.0  106.299212598 L 1292.5984252  106.299212598 M 1080.0  141.732283465 L 1292.5984252  141.732283465 M 1080.0  177.165354331 L 1292.5984252  177.165354331 M 1080.0  212.598425197 L 1292.5984252  212.598425197 M 1469.76377953  0.0 L 1469.76377953  270.0 M 1559.76377953  0.0 L 1559.76377953  270.0 M 1649.76377953  0.0 L 1649.76377953  270.0 M 1739.76377953  0.0 L 1739.76377953  270.0 M 1469.76377953  0.0 L 1739.76377953  0.0 M 1469.76377953  90.0 L 1739.76377953  90.0 M 1469.76377953  180.0 L 1739.76377953  180.0 M 1469.76377953  270.0 L 1739.76377953  270.0 " id="testgrid" />
    </g>
    <g id="document.bodice.Bodice Front.notes" transform=" translate(58.750000, 757.717638)" />
    <g id="document.bodice.Bodice Back.notes" transform=" translate(2312.108906, 580.552283)" />
    <g id="document.bodice.Bodice Sleeve.notes" transform=" translate(838.764800, 2240.132645)" />
  </g>
  <g inkscape:label="Label-reference" id="reference" inkscape:groupmode="layer" transform="translate(88.582677,88.582677)">
    <g id="document.bodice.Bodice Front.reference" transform=" translate(58.750000, 757.717638)">
      <circle style="stroke:gray; stroke-width:1; fill:none; " transform="" cy="0.0" cx="160.146981797" r="5" id="A.FNC.inpoint" d="M 165.14699,0 C 165.14699,2.7614237 162.90841,5 160.14699,5 157.38556,5 155.14699,2.7614237 155.14699,0 155.14699,-2.7614237 157.38556,-5 160.14699,-5 162.90841,-5 165.14699,-2.7614237 165.14699,0 z" />
      <text style="font-size:25; vertical-align:top; fill-opacity:1.0; fill:gray; text-anchor:right; stroke:none; font-weight:normal; font-style:italic; text-align:right; " transform="" id="A.FNC.inpoint.text" y="-7.0" x="167.146981797">
FNC.in</text>
      <circle style="stroke:red; stroke-width:1; fill:red; " transform="" cy="0.0" cx="0.0" r="5" id="A.FNC" d="M 5,0 C 5,2.7614237 2.7614237,5 0,5 -2.7614237,5 -5,2.7614237 -5,0 -5,-2.7614237 -2.7614237,-5 0,-5 2.7614237,-5 5,-2.7614237 5,0 z" />
      <text style="font-size:30; vertical-align:top; fill-opacity:1.0; fill:darkblue; text-anchor:right; stroke:none; font-weight:normal; font-style:italic; text-align:right; " transform="" id="A.FNC.text" y="-7.0" x="7.0">
FNC</text>
      <circle style="stroke:gray; stroke-width:1; fill:none; " transform="" cy="1240.15748031" cx="88.6510629953" r="5" id="A.FWC.outpoint" d="M 93.651062,1240.1575 C 93.651062,1242.9189 91.412486,1245.1575 88.651062,1245.1575 85.889638,1245.1575 83.651062,1242.9189 83.651062,1240.1575 83.651062,1237.396 85.889638,1235.1575 88.651062,1235.1575 91.412486,1235.1575 93.651062,1237.396 93.651062,1240.1575 z" />
      <text style="font-size:25; vertical-align:top; fill-opacity:1.0; fill:gray; text-anchor:right; stroke:none; font-weight:normal; font-style:italic; text-align:right; " transform="" id="A.FWC.outpoint.text" y="1233.15748031" x="95.6510629953">
FWC.out</text>
      <circle style="stroke:red; stroke-width:1; fill:red; " transform="" cy="1240.15748031" cx="0.0" r="5" id="A.FWC" d="M 5,1240.1575 C 5,1242.9189 2.7614237,1245.1575 0,1245.1575 -2.7614237,1245.1575 -5,1242.9189 -5,1240.1575 -5,1237.396 -2.7614237,1235.1575 0,1235.1575 2.7614237,1235.1575 5,1237.396 5,1240.1575 z" />
      <text style="font-size:30; vertical-align:top; fill-opacity:1.0; fill:darkblue; text-anchor:right; stroke:none; font-weight:normal; font-style:italic; text-align:right; " transform="" id="A.FWC.text" y="1233.15748031" x="7.0">
FWC</text>
      <circle style="stroke:red; stroke-width:1; fill:red; " transform="" cy="-318.897637795" cx="0.0" r="5" id="A.FSH" d="M 5,-318.89764 C 5,-316.13622 2.7614237,-313.89764 0,-313.89764 -2.7614237,-313.89764 -5,-316.13622 -5,-318.89764 -5,-321.65907 -2.7614237,-323.89764 0,-323.89764 2.7614237,-323.89764 5,-321.65907 5,-318.89764 z" />
      <text style="font-size:30; vertical-align:top; fill-opacity:1.0; fill:darkblue; text-anchor:right; stroke:none; font-weight:normal; font-style:italic; text-align:right; " transform="" id="A.FSH.text" y="-325.897637795" x="7.0">
FSH</text>
      <circle style="stroke:red; stroke-width:1; fill:red; " transform="" cy="-318.897637795" cx="717.519685039" r="5" id="A.FSW" d="M 722.51971,-318.89764 C 722.51971,-316.13622 720.28114,-313.89764 717.51971,-313.89764 714.75829,-313.89764 712.51971,-316.13622 712.51971,-318.89764 712.51971,-321.65907 714.75829,-323.89764 717.51971,-323.89764 720.28114,-323.89764 722.51971,-321.65907 722.51971,-318.89764 z" />
      <text style="font-size:30; vertical-align:top; fill-opacity:1.0; fill:darkblue; text-anchor:right; stroke:none; font-weight:normal; font-style:italic; text-align:right; " transform="" id="A.FSW.text" y="-325.897637795" x="724.519685039">
FSW</text>
      <circle style="stroke:gray; stroke-width:1; fill:none; " transform="" cy="-143.661987328" cx="700.623059386" r="5" id="A.FSP.inpoint" d="M 705.62305,-143.66199 C 705.62305,-140.90056 703.38447,-138.66199 700.62305,-138.66199 697.86162,-138.66199 695.62305,-140.90056 695.62305,-143.66199 695.62305,-146.42341 697.86162,-148.66199 700.62305,-148.66199 703.38447,-148.66199 705.62305,-146.42341 705.62305,-143.66199 z" />
      <text style="font-size:25; vertical-align:top; fill-opacity:1.0; fill:gray; text-anchor:right; stroke:none; font-weight:normal; font-style:italic; text-align:right; " transform="" id="A.FSP.inpoint.text" y="-150.661987328" x="707.623059386">
FSP.in</text>
      <circle style="stroke:red; stroke-width:1; fill:red; " transform="" cy="-223.334513127" cx="717.519685039" r="5" id="A.FSP" d="M 722.51971,-223.33452 C 722.51971,-220.57309 720.28114,-218.33452 717.51971,-218.33452 714.75829,-218.33452 712.51971,-220.57309 712.51971,-223.33452 712.51971,-226.09594 714.75829,-228.33452 717.51971,-228.33452 720.28114,-228.33452 722.51971,-226.09594 722.51971,-223.33452 z" />
      <text style="font-size:30; vertical-align:top; fill-opacity:1.0; fill:darkblue; text-anchor:right; stroke:none; font-weight:normal; font-style:italic; text-align:right; " transform="" id="A.FSP.text" y="-230.334513127" x="724.519685039">
FSP</text>
      <circle style="stroke:gray; stroke-width:1; fill:none; " transform="" cy="-162.917928626" cx="233.832093174" r="5" id="A.FNS.outpoint" d="M 238.83209,-162.91792 C 238.83209,-160.1565 236.59352,-157.91792 233.83209,-157.91792 231.07067,-157.91792 228.83209,-160.1565 228.83209,-162.91792 228.83209,-165.67935 231.07067,-167.91792 233.83209,-167.91792 236.59352,-167.91792 238.83209,-165.67935 238.83209,-162.91792 z" />
      <text style="font-size:25; vertical-align:top; fill-opacity:1.0; fill:gray; text-anchor:right; stroke:none; font-weight:normal; font-style:italic; text-align:right; " transform="" id="A.FNS.outpoint.text" y="-169.917928626" x="240.832093174">
FNS.out</text>
      <circle style="stroke:red; stroke-width:1; fill:red; " transform="" cy="-318.897637795" cx="266.911636328" r="5" id="A.FNS" d="M 271.91162,-318.89764 C 271.91162,-316.13622 269.67304,-313.89764 266.91162,-313.89764 264.1502,-313.89764 261.91162,-316.13622 261.91162,-318.89764 261.91162,-321.65907 264.1502,-323.89764 266.91162,-323.89764 269.67304,-323.89764 271.91162,-321.65907 271.91162,-318.89764 z" />
      <text style="font-size:30; vertical-align:top; fill-opacity:1.0; fill:darkblue; text-anchor:right; stroke:none; font-weight:normal; font-style:italic; text-align:right; " transform="" id="A.FNS.text" y="-325.897637795" x="273.911636328">
FNS</text>
      <circle style="stroke:red; stroke-width:1; fill:red; " transform="" cy="318.897637795" cx="0.0" r="5" id="A.FUC" d="M 5,318.89764 C 5,321.65907 2.7614237,323.89764 0,323.89764 -2.7614237,323.89764 -5,321.65907 -5,318.89764 -5,316.13622 -2.7614237,313.89764 0,313.89764 2.7614237,313.89764 5,316.13622 5,318.89764 z" />
      <text style="font-size:30; vertical-align:top; fill-opacity:1.0; fill:darkblue; text-anchor:right; stroke:none; font-weight:normal; font-style:italic; text-align:right; " transform="" id="A.FUC.text" y="311.897637795" x="7.0">
FUC</text>
      <circle style="stroke:red; stroke-width:1; fill:red; " transform="" cy="637.795275591" cx="0.0" r="5" id="A.FBC" d="M 5,637.79529 C 5,640.55671 2.7614237,642.79529 0,642.79529 -2.7614237,642.79529 -5,640.55671 -5,637.79529 -5,635.03386 -2.7614237,632.79529 0,632.79529 2.7614237,632.79529 5,635.03386 5,637.79529 z" />
      <text style="font-size:30; vertical-align:top; fill-opacity:1.0; fill:darkblue; text-anchor:right; stroke:none; font-weight:normal; font-style:italic; text-align:right; " transform="" id="A.FBC.text" y="630.795275591" x="7.0">
FBC</text>
      <circle style="stroke:red; stroke-width:1; fill:red; " transform="" cy="637.795275591" cx="354.330708661" r="5" id="A.FBP" d="M 359.33072,637.79529 C 359.33072,640.55671 357.09214,642.79529 354.33072,642.79529 351.5693,642.79529 349.33072,640.55671 349.33072,637.79529 349.33072,635.03386 351.5693,632.79529 354.33072,632.79529 357.09214,632.79529 359.33072,635.03386 359.33072,637.79529 z" />
      <text style="font-size:30; vertical-align:top; fill-opacity:1.0; fill:darkblue; text-anchor:right; stroke:none; font-weight:normal; font-style:italic; text-align:right; " transform="" id="A.FBP.text" y="630.795275591" x="361.330708661">
FBP</text>
      <circle style="stroke:gray; stroke-width:1; fill:none; " transform="" cy="403.708010594" cx="745.523886777" r="5" id="A.FAP.inpoint" d="M 750.52386,403.70801 C 750.52386,406.46943 748.28529,408.70801 745.52386,408.70801 742.76244,408.70801 740.52386,406.46943 740.52386,403.70801 740.52386,400.94658 742.76244,398.70801 745.52386,398.70801 748.28529,398.70801 750.52386,400.94658 750.52386,403.70801 z" />
      <text style="font-size:25; vertical-align:top; fill-opacity:1.0; fill:gray; text-anchor:right; stroke:none; font-weight:normal; font-style:italic; text-align:right; " transform="" id="A.FAP.inpoint.text" y="396.708010594" x="752.523886777">
FAP.in</text>
      <circle style="stroke:gray; stroke-width:1; fill:none; " transform="" cy="169.515125469" cx="590.408044493" r="5" id="A.FAP.outpoint" d="M 595.40802,169.51512 C 595.40802,172.27655 593.16944,174.51512 590.40802,174.51512 587.6466,174.51512 585.40802,172.27655 585.40802,169.51512 585.40802,166.7537 587.6466,164.51512 590.40802,164.51512 593.16944,164.51512 595.40802,166.7537 595.40802,169.51512 z" />
      <text style="font-size:25; vertical-align:top; fill-opacity:1.0; fill:gray; text-anchor:right; stroke:none; font-weight:normal; font-style:italic; text-align:right; " transform="" id="A.FAP.outpoint.text" y="162.515125469" x="597.408044493">
FAP.out</text>
      <circle style="stroke:red; stroke-width:1; fill:red; " transform="" cy="318.897637795" cx="689.350393701" r="5" id="A.FAP" d="M 694.3504,318.89764 C 694.3504,321.65907 692.11183,323.89764 689.3504,323.89764 686.58898,323.89764 684.3504,321.65907 684.3504,318.89764 684.3504,316.13622 686.58898,313.89764 689.3504,313.89764 692.11183,313.89764 694.3504,316.13622 694.3504,318.89764 z" />
      <text style="font-size:30; vertical-align:top; fill-opacity:1.0; fill:darkblue; text-anchor:right; stroke:none; font-weight:normal; font-style:italic; text-align:right; " transform="" id="A.FAP.text" y="311.897637795" x="696.350393701">
FAP</text>
      <circle style="stroke:red; stroke-width:1; fill:red; " transform="" cy="318.897637795" cx="921.25984252" r="5" id="A.f1" d="M 926.25983,318.89764 C 926.25983,321.65907 924.02125,323.89764 921.25983,323.89764 918.4984,323.89764 916.25983,321.65907 916.25983,318.89764 916.25983,316.13622 918.4984,313.89764 921.25983,313.89764 924.02125,313.89764 926.25983,316.13622 926.25983,318.89764 z" />
      <text style="font-size:30; vertical-align:top; fill-opacity:1.0; fill:darkblue; text-anchor:right; stroke:none; font-weight:normal; font-style:italic; text-align:right; " transform="" id="A.f1.text" y="311.897637795" x="928.25984252">
f1</text>
      <circle style="stroke:red; stroke-width:1; fill:red; " transform="" cy="440.379318512" cx="960.803917844" r="5" id="A.f2" d="M 965.80389,440.37933 C 965.80389,443.14076 963.56532,445.37933 960.80389,445.37933 958.04247,445.37933 955.80389,443.14076 955.80389,440.37933 955.80389,437.61791 958.04247,435.37933 960.80389,435.37933 963.56532,435.37933 965.80389,437.61791 965.80389,440.37933 z" />
      <text style="font-size:30; vertical-align:top; fill-opacity:1.0; fill:darkblue; text-anchor:right; stroke:none; font-weight:normal; font-style:italic; text-align:right; " transform="" id="A.f2.text" y="433.379318512" x="967.803917844">
f2</text>
      <circle style="stroke:red; stroke-width:1; fill:red; " transform="" cy="992.756759109" cx="1140.61090594" r="5" id="A.f3" d="M 1145.611,992.75677 C 1145.611,995.5182 1143.3724,997.75677 1140.611,997.75677 1137.8495,997.75677 1135.611,995.5182 1135.611,992.75677 1135.611,989.99535 1137.8495,987.75677 1140.611,987.75677 1143.3724,987.75677 1145.611,989.99535 1145.611,992.75677 z" />
      <text style="font-size:30; vertical-align:top; fill-opacity:1.0; fill:darkblue; text-anchor:right; stroke:none; font-weight:normal; font-style:italic; text-align:right; " transform="" id="A.f3.text" y="985.756759109" x="1147.61090594">
f3</text>
      <circle style="stroke:red; stroke-width:1; fill:red; " transform="" cy="1240.15748031" cx="354.330708661" r="5" id="A.f4" d="M 359.33072,1240.1575 C 359.33072,1242.9189 357.09214,1245.1575 354.33072,1245.1575 351.5693,1245.1575 349.33072,1242.9189 349.33072,1240.1575 349.33072,1237.396 351.5693,1235.1575 354.33072,1235.1575 357.09214,1235.1575 359.33072,1237.396 359.33072,1240.1575 z" />
      <text style="font-size:30; vertical-align:top; fill-opacity:1.0; fill:darkblue; text-anchor:right; stroke:none; font-weight:normal; font-style:italic; text-align:right; " transform="" id="A.f4.text" y="1233.15748031" x="361.330708661">
f4</text>
      <circle style="stroke:red; stroke-width:1; fill:red; " transform="" cy="1150.61284812" cx="670.334447545" r="5" id="A.f5" d="M 675.33447,1150.6128 C 675.33447,1153.3742 673.0959,1155.6128 670.33447,1155.6128 667.57305,1155.6128 665.33447,1153.3742 665.33447,1150.6128 665.33447,1147.8514 667.57305,1145.6128 670.33447,1145.6128 673.0959,1145.6128 675.33447,1147.8514 675.33447,1150.6128 z" />
      <text style="font-size:30; vertical-align:top; fill-opacity:1.0; fill:darkblue; text-anchor:right; stroke:none; font-weight:normal; font-style:italic; text-align:right; " transform="" id="A.f5.text" y="1143.61284812" x="677.334447545">
f5</text>
      <circle style="stroke:red; stroke-width:1; fill:red; " transform="" cy="985.130882295" cx="1164.03803945" r="5" id="A.f6" d="M 1169.0381,985.13086 C 1169.0381,987.89228 1166.7995,990.13086 1164.0381,990.13086 1161.2767,990.13086 1159.0381,987.89228 1159.0381,985.13086 1159.0381,982.36944 1161.2767,980.13086 1164.0381,980.13086 1166.7995,980.13086 1169.0381,982.36944 1169.0381,985.13086 z" />
      <text style="font-size:30; vertical-align:top; fill-opacity:1.0; fill:darkblue; text-anchor:right; stroke:none; font-weight:normal; font-style:italic; text-align:right; " transform="" id="A.f6.text" y="978.130882295" x="1171.03803945">
f6</text>
      <circle style="stroke:red; stroke-width:1; fill:red; " transform="" cy="308.91716441" cx="951.920432539" r="5" id="A.f7" d="M 956.92041,308.91718 C 956.92041,311.6786 954.68183,313.91718 951.92041,313.91718 949.15899,313.91718 946.92041,311.6786 946.92041,308.91718 946.92041,306.15575 949.15899,303.91718 951.92041,303.91718 954.68183,303.91718 956.92041,306.15575 956.92041,308.91718 z" />
      <text style="font-size:30; vertical-align:top; fill-opacity:1.0; fill:darkblue; text-anchor:right; stroke:none; font-weight:normal; font-style:italic; text-align:right; " transform="" id="A.f7.text" y="301.91716441" x="958.920432539">
f7</text>
      <circle style="stroke:red; stroke-width:1; fill:red; " transform="" cy="430.82332606" cx="990.160477948" r="5" id="A.FBS" d="M 995.16046,430.82333 C 995.16046,433.58476 992.92189,435.82333 990.16046,435.82333 987.39904,435.82333 985.16046,433.58476 985.16046,430.82333 985.16046,428.06191 987.39904,425.82333 990.16046,425.82333 992.92189,425.82333 995.16046,428.06191 995.16046,430.82333 z" />
      <text style="font-size:30; vertical-align:top; fill-opacity:1.0; fill:darkblue; text-anchor:right; stroke:none; font-weight:normal; font-style:italic; text-align:right; " transform="" id="A.FBS.text" y="423.82332606" x="997.160477948">
FBS</text>
      <circle style="stroke:gray; stroke-width:1; fill:none; " transform="" cy="448.509733875" cx="866.486995836" r="5" id="A.FUS.outpoint" d="M 871.487,448.50974 C 871.487,451.27116 869.24842,453.50974 866.487,453.50974 863.72558,453.50974 861.487,451.27116 861.487,448.50974 861.487,445.74831 863.72558,443.50974 866.487,443.50974 869.24842,443.50974 871.487,445.74831 871.487,448.50974 z" />
      <text style="font-size:25; vertical-align:top; fill-opacity:1.0; fill:gray; text-anchor:right; stroke:none; font-weight:normal; font-style:italic; text-align:right; " transform="" id="A.FUS.outpoint.text" y="441.509733875" x="873.486995836">
FUS.out</text>
      <circle style="stroke:red; stroke-width:1; fill:red; " transform="" cy="410.343378751" cx="983.736240613" r="5" id="A.FUS" d="M 988.73627,410.34338 C 988.73627,413.10481 986.49769,415.34338 983.73627,415.34338 980.97484,415.34338 978.73627,413.10481 978.73627,410.34338 978.73627,407.58196 980.97484,405.34338 983.73627,405.34338 986.49769,405.34338 988.73627,407.58196 988.73627,410.34338 z" />
      <text style="font-size:30; vertical-align:top; fill-opacity:1.0; fill:darkblue; text-anchor:right; stroke:none; font-weight:normal; font-style:italic; text-align:right; " transform="" id="A.FUS.text" y="403.343378751" x="990.736240613">
FUS</text>
      <circle style="stroke:gray; stroke-width:1; fill:none; " transform="" cy="1206.62791188" cx="840.663085938" r="5" id="A.FWS.inpoint" d="M 845.66309,1206.6279 C 845.66309,1209.3894 843.42451,1211.6279 840.66309,1211.6279 837.90166,1211.6279 835.66309,1209.3894 835.66309,1206.6279 835.66309,1203.8665 837.90166,1201.6279 840.66309,1201.6279 843.42451,1201.6279 845.66309,1203.8665 845.66309,1206.6279 z" />
      <text style="font-size:25; vertical-align:top; fill-opacity:1.0; fill:gray; text-anchor:right; stroke:none; font-weight:normal; font-style:italic; text-align:right; " transform="" id="A.FWS.inpoint.text" y="1199.62791188" x="847.663085938">
FWS.in</text>
      <circle style="stroke:red; stroke-width:1; fill:red; " transform="" cy="1192.7249741" cx="1038.67054744" r="5" id="A.FWS" d="M 1043.6705,1192.725 C 1043.6705,1195.4864 1041.432,1197.725 1038.6705,1197.725 1035.9091,1197.725 1033.6705,1195.4864 1033.6705,1192.725 1033.6705,1189.9636 1035.9091,1187.725 1038.6705,1187.725 1041.432,1187.725 1043.6705,1189.9636 1043.6705,1192.725 z" />
      <text style="font-size:30; vertical-align:top; fill-opacity:1.0; fill:darkblue; text-anchor:right; stroke:none; font-weight:normal; font-style:italic; text-align:right; " transform="" id="A.FWS.text" y="1185.7249741" x="1045.67054744">
FWS</text>
      <circle style="stroke:red; stroke-width:1; fill:red; " transform="" cy="637.795275591" cx="438.42114238" r="5" id="A.FD2" d="M 443.42114,637.79529 C 443.42114,640.55671 441.18257,642.79529 438.42114,642.79529 435.65972,642.79529 433.42114,640.55671 433.42114,637.79529 433.42114,635.03386 435.65972,632.79529 438.42114,632.79529 441.18257,632.79529 443.42114,635.03386 443.42114,637.79529 z" />
      <text style="font-size:30; vertical-align:top; fill-opacity:1.0; fill:darkblue; text-anchor:right; stroke:none; font-weight:normal; font-style:italic; text-align:right; " transform="" id="A.FD2.text" y="630.795275591" x="445.42114238">
FD2</text>
      <circle style="stroke:red; stroke-width:1; fill:red; " transform="" cy="637.795275591" cx="1059.11754711" r="5" id="A.FD2.i" d="M 1064.1176,637.79529 C 1064.1176,640.55671 1061.879,642.79529 1059.1176,642.79529 1056.3561,642.79529 1054.1176,640.55671 1054.1176,637.79529 1054.1176,635.03386 1056.3561,632.79529 1059.1176,632.79529 1061.879,632.79529 1064.1176,635.03386 1064.1176,637.79529 z" />
      <text style="font-size:30; vertical-align:top; fill-opacity:1.0; fill:darkblue; text-anchor:right; stroke:none; font-weight:normal; font-style:italic; text-align:right; " transform="" id="A.FD2.i.text" y="630.795275591" x="1066.11754711">
FD2.i</text>
      <circle style="stroke:red; stroke-width:1; fill:red; " transform="" cy="828.973311446" cx="1028.94208651" r="5" id="A.FD2.o" d="M 1033.9421,828.97333 C 1033.9421,831.73475 1031.7036,833.97333 1028.9421,833.97333 1026.1807,833.97333 1023.9421,831.73475 1023.9421,828.97333 1023.9421,826.2119 1026.1807,823.97333 1028.9421,823.97333 1031.7036,823.97333 1033.9421,826.2119 1033.9421,828.97333 z" />
      <text style="font-size:30; vertical-align:top; fill-opacity:1.0; fill:darkblue; text-anchor:right; stroke:none; font-weight:normal; font-style:italic; text-align:right; " transform="" id="A.FD2.o.text" y="821.973311446" x="1035.94208651">
FD2.o</text>
      <circle style="stroke:red; stroke-width:1; fill:red; " transform="" cy="1240.15748031" cx="270.633997225" r="5" id="A.f8" d="M 275.634,1240.1575 C 275.634,1242.9189 273.39543,1245.1575 270.634,1245.1575 267.87258,1245.1575 265.634,1242.9189 265.634,1240.1575 265.634,1237.396 267.87258,1235.1575 270.634,1235.1575 273.39543,1235.1575 275.634,1237.396 275.634,1240.1575 z" />
      <text style="font-size:30; vertical-align:top; fill-opacity:1.0; fill:darkblue; text-anchor:right; stroke:none; font-weight:normal; font-style:italic; text-align:right; " transform="" id="A.f8.text" y="1233.15748031" x="277.633997225">
f8</text>
      <circle style="stroke:red; stroke-width:1; fill:red; " transform="" cy="1240.15748031" cx="438.027420098" r="5" id="A.f9" d="M 443.02744,1240.1575 C 443.02744,1242.9189 440.78886,1245.1575 438.02744,1245.1575 435.26601,1245.1575 433.02744,1242.9189 433.02744,1240.1575 433.02744,1237.396 435.26601,1235.1575 438.02744,1235.1575 440.78886,1235.1575 443.02744,1237.396 443.02744,1240.1575 z" />
      <text style="font-size:30; vertical-align:top; fill-opacity:1.0; fill:darkblue; text-anchor:right; stroke:none; font-weight:normal; font-style:italic; text-align:right; " transform="" id="A.f9.text" y="1233.15748031" x="445.027420098">
f9</text>
      <circle style="stroke:red; stroke-width:1; fill:red; " transform="" cy="710.078740157" cx="354.330708661" r="5" id="A.FD1" d="M 359.33072,710.07874 C 359.33072,712.84016 357.09214,715.07874 354.33072,715.07874 351.5693,715.07874 349.33072,712.84016 349.33072,710.07874 349.33072,707.31731 351.5693,705.07874 354.33072,705.07874 357.09214,705.07874 359.33072,707.31731 359.33072,710.07874 z" />
      <text style="font-size:30; vertical-align:top; fill-opacity:1.0; fill:darkblue; text-anchor:right; stroke:none; font-weight:normal; font-style:italic; text-align:right; " transform="" id="A.FD1.text" y="703.078740157" x="361.330708661">
FD1</text>
      <circle style="stroke:gray; stroke-width:1; fill:none; " transform="" cy="1240.15748031" cx="170.37146643" r="5" id="A.FD1.i.inpoint" d="M 175.37146,1240.1575 C 175.37146,1242.9189 173.13288,1245.1575 170.37146,1245.1575 167.61004,1245.1575 165.37146,1242.9189 165.37146,1240.1575 165.37146,1237.396 167.61004,1235.1575 170.37146,1235.1575 173.13288,1235.1575 175.37146,1237.396 175.37146,1240.1575 z" />
      <text style="font-size:25; vertical-align:top; fill-opacity:1.0; fill:gray; text-anchor:right; stroke:none; font-weight:normal; font-style:italic; text-align:right; " transform="" id="A.FD1.i.inpoint.text" y="1233.15748031" x="177.37146643">
FD1.i.in</text>
      <circle style="stroke:red; stroke-width:1; fill:red; " transform="" cy="1255.60334164" cx="268.195175027" r="5" id="A.FD1.i" d="M 273.19516,1255.6034 C 273.19516,1258.3648 270.95658,1260.6034 268.19516,1260.6034 265.43374,1260.6034 263.19516,1258.3648 263.19516,1255.6034 263.19516,1252.842 265.43374,1250.6034 268.19516,1250.6034 270.95658,1250.6034 273.19516,1252.842 273.19516,1255.6034 z" />
      <text style="font-size:30; vertical-align:top; fill-opacity:1.0; fill:darkblue; text-anchor:right; stroke:none; font-weight:normal; font-style:italic; text-align:right; " transform="" id="A.FD1.i.text" y="1248.60334164" x="275.195175027">
FD1.i</text>
      <circle style="stroke:gray; stroke-width:1; fill:none; " transform="" cy="1224.31767642" cx="638.608627086" r="5" id="A.FD1.o.outpoint" d="M 643.60864,1224.3176 C 643.60864,1227.0791 641.37007,1229.3176 638.60864,1229.3176 635.84722,1229.3176 633.60864,1227.0791 633.60864,1224.3176 633.60864,1221.5562 635.84722,1219.3176 638.60864,1219.3176 641.37007,1219.3176 643.60864,1221.5562 643.60864,1224.3176 z" />
      <text style="font-size:25; vertical-align:top; fill-opacity:1.0; fill:gray; text-anchor:right; stroke:none; font-weight:normal; font-style:italic; text-align:right; " transform="" id="A.FD1.o.outpoint.text" y="1217.31767642" x="645.608627086">
FD1.o.out</text>
      <circle style="stroke:red; stroke-width:1; fill:red; " transform="" cy="1255.60334164" cx="440.466242295" r="5" id="A.FD1.o" d="M 445.46625,1255.6034 C 445.46625,1258.3648 443.22767,1260.6034 440.46625,1260.6034 437.70482,1260.6034 435.46625,1258.3648 435.46625,1255.6034 435.46625,1252.842 437.70482,1250.6034 440.46625,1250.6034 443.22767,1250.6034 445.46625,1252.842 445.46625,1255.6034 z" />
      <text style="font-size:30; vertical-align:top; fill-opacity:1.0; fill:darkblue; text-anchor:right; stroke:none; font-weight:normal; font-style:italic; text-align:right; " transform="" id="A.FD1.o.text" y="1248.60334164" x="447.466242295">
FD1.o</text>
      <path style="stroke-linejoin:miter; stroke-dashoffset:0; stroke:gray; stroke-miterlimit:4; stroke-dasharray:6,6; stroke-width:2; fill:none; " transform="" d="M 0.0  1240.15748031 L 717.519685039  -223.334513127 L 717.519685039  -318.897637795 L 0.0  -318.897637795 L 0.0  0.0 M 0.0  637.795275591 L 354.330708661  637.795275591 L 990.160477948  430.82332606 M 0.0  318.897637795 L 921.25984252  318.897637795 L 951.920432539  308.91716441 L 1164.03803945  985.130882295 L 1140.61090594  992.756759109 L 921.25984252  318.897637795 M 0.0  1240.15748031 L 354.330708661  1240.15748031 L 354.330708661  637.795275591 L 670.334447545  1150.61284812 L 1140.61090594  992.756759109 M 354.330708661  637.795275591 L 438.42114238  637.795275591 " id="A.gridline" />
    </g>
    <g id="document.bodice.Bodice Back.reference" transform=" translate(2312.108906, 580.552283)">
      <circle style="stroke:gray; stroke-width:1; fill:none; " transform="" cy="0.0" cx="-213.353231784" r="5" id="B.BNC.inpoint" d="M -208.35323,0 C -208.35323,2.7614237 -210.5918,5 -213.35323,5 -216.11465,5 -218.35323,2.7614237 -218.35323,0 -218.35323,-2.7614237 -216.11465,-5 -213.35323,-5 -210.5918,-5 -208.35323,-2.7614237 -208.35323,0 z" />
      <text style="font-size:25; vertical-align:top; fill-opacity:1.0; fill:gray; text-anchor:right; stroke:none; font-weight:normal; font-style:italic; text-align:right; " transform="" id="B.BNC.inpoint.text" y="-7.0" x="-206.353231784">
BNC.in</text>
      <circle style="stroke:red; stroke-width:1; fill:red; " transform="" cy="0.0" cx="0.0" r="5" id="B.BNC" d="M 5,0 C 5,2.7614237 2.7614237,5 0,5 -2.7614237,5 -5,2.7614237 -5,0 -5,-2.7614237 -2.7614237,-5 0,-5 2.7614237,-5 5,-2.7614237 5,0 z" />
      <text style="font-size:30; vertical-align:top; fill-opacity:1.0; fill:darkblue; text-anchor:right; stroke:none; font-weight:normal; font-style:italic; text-align:right; " transform="" id="B.BNC.text" y="-7.0" x="7.0">
BNC</text>
      <circle style="stroke:gray; stroke-width:1; fill:none; " transform="" cy="1346.45669291" cx="-101.067774363" r="5" id="B.BWC.outpoint" d="M -96.067772,1346.4567 C -96.067772,1349.2181 -98.306348,1351.4567 -101.06777,1351.4567 -103.8292,1351.4567 -106.06777,1349.2181 -106.06777,1346.4567 -106.06777,1343.6952 -103.8292,1341.4567 -101.06777,1341.4567 -98.306348,1341.4567 -96.067772,1343.6952 -96.067772,1346.4567 z" />
      <text style="font-size:25; vertical-align:top; fill-opacity:1.0; fill:gray; text-anchor:right; stroke:none; font-weight:normal; font-style:italic; text-align:right; " transform="" id="B.BWC.outpoint.text" y="1339.45669291" x="-94.0677743631">
BWC.out</text>
      <circle style="stroke:red; stroke-width:1; fill:red; " transform="" cy="1346.45669291" cx="0.0" r="5" id="B.BWC" d="M 5,1346.4567 C 5,1349.2181 2.7614237,1351.4567 0,1351.4567 -2.7614237,1351.4567 -5,1349.2181 -5,1346.4567 -5,1343.6952 -2.7614237,1341.4567 0,1341.4567 2.7614237,1341.4567 5,1343.6952 5,1346.4567 z" />
      <text style="font-size:30; vertical-align:top; fill-opacity:1.0; fill:darkblue; text-anchor:right; stroke:none; font-weight:normal; font-style:italic; text-align:right; " transform="" id="B.BWC.text" y="1339.45669291" x="7.0">
BWC</text>
      <circle style="stroke:red; stroke-width:1; fill:red; " transform="" cy="-141.732283465" cx="0.0" r="5" id="B.BSH" d="M 5,-141.73228 C 5,-138.97086 2.7614237,-136.73228 0,-136.73228 -2.7614237,-136.73228 -5,-138.97086 -5,-141.73228 -5,-144.49371 -2.7614237,-146.73228 0,-146.73228 2.7614237,-146.73228 5,-144.49371 5,-141.73228 z" />
      <text style="font-size:30; vertical-align:top; fill-opacity:1.0; fill:darkblue; text-anchor:right; stroke:none; font-weight:normal; font-style:italic; text-align:right; " transform="" id="B.BSH.text" y="-148.732283465" x="7.0">
BSH</text>
      <circle style="stroke:red; stroke-width:1; fill:red; " transform="" cy="-141.732283465" cx="-708.661417323" r="5" id="B.BSW" d="M -703.66144,-141.73228 C -703.66144,-138.97086 -705.90001,-136.73228 -708.66144,-136.73228 -711.42286,-136.73228 -713.66144,-138.97086 -713.66144,-141.73228 -713.66144,-144.49371 -711.42286,-146.73228 -708.66144,-146.73228 -705.90001,-146.73228 -703.66144,-144.49371 -703.66144,-141.73228 z" />
      <text style="font-size:30; vertical-align:top; fill-opacity:1.0; fill:darkblue; text-anchor:right; stroke:none; font-weight:normal; font-style:italic; text-align:right; " transform="" id="B.BSW.text" y="-148.732283465" x="-701.661417323">
BSW</text>
      <circle style="stroke:gray; stroke-width:1; fill:none; " transform="" cy="130.711716533" cx="-690.415334864" r="5" id="B.BSP.inpoint" d="M -685.41534,130.71172 C -685.41534,133.47314 -687.65392,135.71172 -690.41534,135.71172 -693.17677,135.71172 -695.41534,133.47314 -695.41534,130.71172 -695.41534,127.95029 -693.17677,125.71172 -690.41534,125.71172 -687.65392,125.71172 -685.41534,127.95029 -685.41534,130.71172 z" />
      <text style="font-size:25; vertical-align:top; fill-opacity:1.0; fill:gray; text-anchor:right; stroke:none; font-weight:normal; font-style:italic; text-align:right; " transform="" id="B.BSP.inpoint.text" y="123.711716533" x="-683.415334864">
BSP.in</text>
      <circle style="stroke:red; stroke-width:1; fill:red; " transform="" cy="82.1684498171" cx="-715.624177057" r="5" id="B.BSP" d="M -710.62421,82.168449 C -710.62421,84.929873 -712.86278,87.168449 -715.62421,87.168449 -718.38563,87.168449 -720.62421,84.929873 -720.62421,82.168449 -720.62421,79.407026 -718.38563,77.168449 -715.62421,77.168449 -712.86278,77.168449 -710.62421,79.407026 -710.62421,82.168449 z" />
      <text style="font-size:30; vertical-align:top; fill-opacity:1.0; fill:darkblue; text-anchor:right; stroke:none; font-weight:normal; font-style:italic; text-align:right; " transform="" id="B.BSP.text" y="75.1684498171" x="-708.624177057">
BSP</text>
      <circle style="stroke:gray; stroke-width:1; fill:none; " transform="" cy="-78.3927191927" cx="-252.688753608" r="5" id="B.BNS.outpoint" d="M -247.68875,-78.392715 C -247.68875,-75.631292 -249.92733,-73.392715 -252.68875,-73.392715 -255.45017,-73.392715 -257.68875,-75.631292 -257.68875,-78.392715 -257.68875,-81.154139 -255.45017,-83.392715 -252.68875,-83.392715 -249.92733,-83.392715 -247.68875,-81.154139 -247.68875,-78.392715 z" />
      <text style="font-size:25; vertical-align:top; fill-opacity:1.0; fill:gray; text-anchor:right; stroke:none; font-weight:normal; font-style:italic; text-align:right; " transform="" id="B.BNS.outpoint.text" y="-85.3927191927" x="-245.688753608">
BNS.out</text>
      <circle style="stroke:red; stroke-width:1; fill:red; " transform="" cy="-141.732283465" cx="-284.470975712" r="5" id="B.BNS" d="M -279.47098,-141.73228 C -279.47098,-138.97086 -281.70955,-136.73228 -284.47098,-136.73228 -287.2324,-136.73228 -289.47098,-138.97086 -289.47098,-141.73228 -289.47098,-144.49371 -287.2324,-146.73228 -284.47098,-146.73228 -281.70955,-146.73228 -279.47098,-144.49371 -279.47098,-141.73228 z" />
      <text style="font-size:30; vertical-align:top; fill-opacity:1.0; fill:darkblue; text-anchor:right; stroke:none; font-weight:normal; font-style:italic; text-align:right; " transform="" id="B.BNS.text" y="-148.732283465" x="-277.470975712">
BNS</text>
      <circle style="stroke:red; stroke-width:1; fill:red; " transform="" cy="637.795275591" cx="0.0" r="5" id="B.BUC" d="M 5,637.79529 C 5,640.55671 2.7614237,642.79529 0,642.79529 -2.7614237,642.79529 -5,640.55671 -5,637.79529 -5,635.03386 -2.7614237,632.79529 0,632.79529 2.7614237,632.79529 5,635.03386 5,637.79529 z" />
      <text style="font-size:30; vertical-align:top; fill-opacity:1.0; fill:darkblue; text-anchor:right; stroke:none; font-weight:normal; font-style:italic; text-align:right; " transform="" id="B.BUC.text" y="630.795275591" x="7.0">
BUC</text>
      <circle style="stroke:red; stroke-width:1; fill:red; " transform="" cy="637.795275591" cx="-627.342519685" r="5" id="B.b7" d="M -622.34253,637.79529 C -622.34253,640.55671 -624.58111,642.79529 -627.34253,642.79529 -630.10395,642.79529 -632.34253,640.55671 -632.34253,637.79529 -632.34253,635.03386 -630.10395,632.79529 -627.34253,632.79529 -624.58111,632.79529 -622.34253,635.03386 -622.34253,637.79529 z" />
      <text style="font-size:30; vertical-align:top; fill-opacity:1.0; fill:darkblue; text-anchor:right; stroke:none; font-weight:normal; font-style:italic; text-align:right; " transform="" id="B.b7.text" y="630.795275591" x="-620.342519685">
b7</text>
      <circle style="stroke:gray; stroke-width:1; fill:none; " transform="" cy="637.795275591" cx="-627.342519685" r="5" id="B.BAP.inpoint" d="M -622.34253,637.79529 C -622.34253,640.55671 -624.58111,642.79529 -627.34253,642.79529 -630.10395,642.79529 -632.34253,640.55671 -632.34253,637.79529 -632.34253,635.03386 -630.10395,632.79529 -627.34253,632.79529 -624.58111,632.79529 -622.34253,635.03386 -622.34253,637.79529 z" />
      <text style="font-size:25; vertical-align:top; fill-opacity:1.0; fill:gray; text-anchor:right; stroke:none; font-weight:normal; font-style:italic; text-align:right; " transform="" id="B.BAP.inpoint.text" y="630.795275591" x="-620.342519685">
BAP.in</text>
      <circle style="stroke:gray; stroke-width:1; fill:none; " transform="" cy="315.641150946" cx="-627.342519685" r="5" id="B.BAP.outpoint" d="M -622.34253,315.64114 C -622.34253,318.40257 -624.58111,320.64114 -627.34253,320.64114 -630.10395,320.64114 -632.34253,318.40257 -632.34253,315.64114 -632.34253,312.87972 -630.10395,310.64114 -627.34253,310.64114 -624.58111,310.64114 -622.34253,312.87972 -622.34253,315.64114 z" />
      <text style="font-size:25; vertical-align:top; fill-opacity:1.0; fill:gray; text-anchor:right; stroke:none; font-weight:normal; font-style:italic; text-align:right; " transform="" id="B.BAP.outpoint.text" y="308.641150946" x="-620.342519685">
BAP.out</text>
      <circle style="stroke:red; stroke-width:1; fill:red; " transform="" cy="435.978023208" cx="-627.342519685" r="5" id="B.BAP" d="M -622.34253,435.97803 C -622.34253,438.73945 -624.58111,440.97803 -627.34253,440.97803 -630.10395,440.97803 -632.34253,438.73945 -632.34253,435.97803 -632.34253,433.2166 -630.10395,430.97803 -627.34253,430.97803 -624.58111,430.97803 -622.34253,433.2166 -622.34253,435.97803 z" />
      <text style="font-size:30; vertical-align:top; fill-opacity:1.0; fill:darkblue; text-anchor:right; stroke:none; font-weight:normal; font-style:italic; text-align:right; " transform="" id="B.BAP.text" y="428.978023208" x="-620.342519685">
BAP</text>
      <circle style="stroke:red; stroke-width:1; fill:red; " transform="" cy="637.795275591" cx="-885.826771654" r="5" id="B.b1" d="M -880.82678,637.79529 C -880.82678,640.55671 -883.06536,642.79529 -885.82678,642.79529 -888.58821,642.79529 -890.82678,640.55671 -890.82678,637.79529 -890.82678,635.03386 -888.58821,632.79529 -885.82678,632.79529 -883.06536,632.79529 -880.82678,635.03386 -880.82678,637.79529 z" />
      <text style="font-size:30; vertical-align:top; fill-opacity:1.0; fill:darkblue; text-anchor:right; stroke:none; font-weight:normal; font-style:italic; text-align:right; " transform="" id="B.b1.text" y="630.795275591" x="-878.826771654">
b1</text>
      <circle style="stroke:red; stroke-width:1; fill:red; " transform="" cy="637.795275591" cx="-383.761673202" r="5" id="B.BD1" d="M -378.76169,637.79529 C -378.76169,640.55671 -381.00026,642.79529 -383.76169,642.79529 -386.52311,642.79529 -388.76169,640.55671 -388.76169,637.79529 -388.76169,635.03386 -386.52311,632.79529 -383.76169,632.79529 -381.00026,632.79529 -378.76169,635.03386 -378.76169,637.79529 z" />
      <text style="font-size:30; vertical-align:top; fill-opacity:1.0; fill:darkblue; text-anchor:right; stroke:none; font-weight:normal; font-style:italic; text-align:right; " transform="" id="B.BD1.text" y="630.795275591" x="-376.761673202">
BD1</text>
      <circle style="stroke:red; stroke-width:1; fill:red; " transform="" cy="1346.45669291" cx="-383.761673202" r="5" id="B.b2" d="M -378.76169,1346.4567 C -378.76169,1349.2181 -381.00026,1351.4567 -383.76169,1351.4567 -386.52311,1351.4567 -388.76169,1349.2181 -388.76169,1346.4567 -388.76169,1343.6952 -386.52311,1341.4567 -383.76169,1341.4567 -381.00026,1341.4567 -378.76169,1343.6952 -378.76169,1346.4567 z" />
      <text style="font-size:30; vertical-align:top; fill-opacity:1.0; fill:darkblue; text-anchor:right; stroke:none; font-weight:normal; font-style:italic; text-align:right; " transform="" id="B.b2.text" y="1339.45669291" x="-376.761673202">
b2</text>
      <circle style="stroke:red; stroke-width:1; fill:red; " transform="" cy="1346.45669291" cx="-307.009338562" r="5" id="B.b3" d="M -302.00934,1346.4567 C -302.00934,1349.2181 -304.24791,1351.4567 -307.00934,1351.4567 -309.77076,1351.4567 -312.00934,1349.2181 -312.00934,1346.4567 -312.00934,1343.6952 -309.77076,1341.4567 -307.00934,1341.4567 -304.24791,1341.4567 -302.00934,1343.6952 -302.00934,1346.4567 z" />
      <text style="font-size:30; vertical-align:top; fill-opacity:1.0; fill:darkblue; text-anchor:right; stroke:none; font-weight:normal; font-style:italic; text-align:right; " transform="" id="B.b3.text" y="1339.45669291" x="-300.009338562">
b3</text>
      <circle style="stroke:red; stroke-width:1; fill:red; " transform="" cy="1346.45669291" cx="-460.514007842" r="5" id="B.b4" d="M -455.51401,1346.4567 C -455.51401,1349.2181 -457.75258,1351.4567 -460.51401,1351.4567 -463.27543,1351.4567 -465.51401,1349.2181 -465.51401,1346.4567 -465.51401,1343.6952 -463.27543,1341.4567 -460.51401,1341.4567 -457.75258,1341.4567 -455.51401,1343.6952 -455.51401,1346.4567 z" />
      <text style="font-size:30; vertical-align:top; fill-opacity:1.0; fill:darkblue; text-anchor:right; stroke:none; font-weight:normal; font-style:italic; text-align:right; " transform="" id="B.b4.text" y="1339.45669291" x="-453.514007842">
b4</text>
      <circle style="stroke:gray; stroke-width:1; fill:none; " transform="" cy="1346.45669291" cx="-234.382038208" r="5" id="B.BD1.i.inpoint" d="M -229.38203,1346.4567 C -229.38203,1349.2181 -231.62061,1351.4567 -234.38203,1351.4567 -237.14346,1351.4567 -239.38203,1349.2181 -239.38203,1346.4567 -239.38203,1343.6952 -237.14346,1341.4567 -234.38203,1341.4567 -231.62061,1341.4567 -229.38203,1343.6952 -229.38203,1346.4567 z" />
      <text style="font-size:25; vertical-align:top; fill-opacity:1.0; fill:gray; text-anchor:right; stroke:none; font-weight:normal; font-style:italic; text-align:right; " transform="" id="B.BD1.i.inpoint.text" y="1339.45669291" x="-227.382038208">
BD1.i.in</text>
      <circle style="stroke:red; stroke-width:1; fill:red; " transform="" cy="1354.23147081" cx="-306.167282905" r="5" id="B.BD1.i" d="M -301.1673,1354.2314 C -301.1673,1356.9929 -303.40587,1359.2314 -306.1673,1359.2314 -308.92872,1359.2314 -311.1673,1356.9929 -311.1673,1354.2314 -311.1673,1351.47 -308.92872,1349.2314 -306.1673,1349.2314 -303.40587,1349.2314 -301.1673,1351.47 -301.1673,1354.2314 z" />
      <text style="font-size:30; vertical-align:top; fill-opacity:1.0; fill:darkblue; text-anchor:right; stroke:none; font-weight:normal; font-style:italic; text-align:right; " transform="" id="B.BD1.i.text" y="1347.23147081" x="-299.167282905">
BD1.i</text>
      <circle style="stroke:gray; stroke-width:1; fill:none; " transform="" cy="1345.96951924" cx="-537.639427833" r="5" id="B.BD1.o.outpoint" d="M -532.6394,1345.9695 C -532.6394,1348.7309 -534.87798,1350.9695 -537.6394,1350.9695 -540.40083,1350.9695 -542.6394,1348.7309 -542.6394,1345.9695 -542.6394,1343.2081 -540.40083,1340.9695 -537.6394,1340.9695 -534.87798,1340.9695 -532.6394,1343.2081 -532.6394,1345.9695 z" />
      <text style="font-size:25; vertical-align:top; fill-opacity:1.0; fill:gray; text-anchor:right; stroke:none; font-weight:normal; font-style:italic; text-align:right; " transform="" id="B.BD1.o.outpoint.text" y="1338.96951924" x="-530.639427833">
BD1.o.out</text>
      <circle style="stroke:red; stroke-width:1; fill:red; " transform="" cy="1354.23147081" cx="-461.356063499" r="5" id="B.BD1.o" d="M -456.35605,1354.2314 C -456.35605,1356.9929 -458.59462,1359.2314 -461.35605,1359.2314 -464.11747,1359.2314 -466.35605,1356.9929 -466.35605,1354.2314 -466.35605,1351.47 -464.11747,1349.2314 -461.35605,1349.2314 -458.59462,1349.2314 -456.35605,1351.47 -456.35605,1354.2314 z" />
      <text style="font-size:30; vertical-align:top; fill-opacity:1.0; fill:darkblue; text-anchor:right; stroke:none; font-weight:normal; font-style:italic; text-align:right; " transform="" id="B.BD1.o.text" y="1347.23147081" x="-454.356063499">
BD1.o</text>
      <circle style="stroke:red; stroke-width:1; fill:red; " transform="" cy="1343.98784763" cx="-826.724693851" r="5" id="B.b5" d="M -821.72467,1343.9878 C -821.72467,1346.7492 -823.96325,1348.9878 -826.72467,1348.9878 -829.48609,1348.9878 -831.72467,1346.7492 -831.72467,1343.9878 -831.72467,1341.2264 -829.48609,1338.9878 -826.72467,1338.9878 -823.96325,1338.9878 -821.72467,1341.2264 -821.72467,1343.9878 z" />
      <text style="font-size:30; vertical-align:top; fill-opacity:1.0; fill:darkblue; text-anchor:right; stroke:none; font-weight:normal; font-style:italic; text-align:right; " transform="" id="B.b5.text" y="1336.98784763" x="-819.724693851">
b5</text>
      <circle style="stroke:red; stroke-width:1; fill:red; " transform="" cy="637.795275591" cx="-918.070866142" r="5" id="B.b6" d="M -913.07086,637.79529 C -913.07086,640.55671 -915.30944,642.79529 -918.07086,642.79529 -920.83229,642.79529 -923.07086,640.55671 -923.07086,637.79529 -923.07086,635.03386 -920.83229,632.79529 -918.07086,632.79529 -915.30944,632.79529 -913.07086,635.03386 -913.07086,637.79529 z" />
      <text style="font-size:30; vertical-align:top; fill-opacity:1.0; fill:darkblue; text-anchor:right; stroke:none; font-weight:normal; font-style:italic; text-align:right; " transform="" id="B.b6.text" y="630.795275591" x="-911.070866142">
b6</text>
      <circle style="stroke:gray; stroke-width:1; fill:none; " transform="" cy="1344.80107546" cx="-722.618056563" r="5" id="B.BWS.inpoint" d="M -717.61804,1344.801 C -717.61804,1347.5624 -719.85662,1349.801 -722.61804,1349.801 -725.37947,1349.801 -727.61804,1347.5624 -727.61804,1344.801 -727.61804,1342.0396 -725.37947,1339.801 -722.61804,1339.801 -719.85662,1339.801 -717.61804,1342.0396 -717.61804,1344.801 z" />
      <text style="font-size:25; vertical-align:top; fill-opacity:1.0; fill:gray; text-anchor:right; stroke:none; font-weight:normal; font-style:italic; text-align:right; " transform="" id="B.BWS.inpoint.text" y="1337.80107546" x="-715.618056563">
BWS.in</text>
      <circle style="stroke:red; stroke-width:1; fill:red; " transform="" cy="1343.98784763" cx="-851.361750937" r="5" id="B.BWS" d="M -846.36176,1343.9878 C -846.36176,1346.7492 -848.60033,1348.9878 -851.36176,1348.9878 -854.12318,1348.9878 -856.36176,1346.7492 -856.36176,1343.9878 -856.36176,1341.2264 -854.12318,1338.9878 -851.36176,1338.9878 -848.60033,1338.9878 -846.36176,1341.2264 -846.36176,1343.9878 z" />
      <text style="font-size:30; vertical-align:top; fill-opacity:1.0; fill:darkblue; text-anchor:right; stroke:none; font-weight:normal; font-style:italic; text-align:right; " transform="" id="B.BWS.text" y="1336.98784763" x="-844.361750937">
BWS</text>
      <circle style="stroke:gray; stroke-width:1; fill:none; " transform="" cy="734.910965532" cx="-815.843211147" r="5" id="B.BUS.outpoint" d="M -810.8432,734.91095 C -810.8432,737.67237 -813.08178,739.91095 -815.8432,739.91095 -818.60462,739.91095 -820.8432,737.67237 -820.8432,734.91095 -820.8432,732.14953 -818.60462,729.91095 -815.8432,729.91095 -813.08178,729.91095 -810.8432,732.14953 -810.8432,734.91095 z" />
      <text style="font-size:25; vertical-align:top; fill-opacity:1.0; fill:gray; text-anchor:right; stroke:none; font-weight:normal; font-style:italic; text-align:right; " transform="" id="B.BUS.outpoint.text" y="727.910965532" x="-808.843211147">
BUS.out</text>
      <circle style="stroke:red; stroke-width:1; fill:red; " transform="" cy="743.623370461" cx="-908.074019882" r="5" id="B.BUS" d="M -903.07404,743.62335 C -903.07404,746.38478 -905.31261,748.62335 -908.07404,748.62335 -910.83546,748.62335 -913.07404,746.38478 -913.07404,743.62335 -913.07404,740.86193 -910.83546,738.62335 -908.07404,738.62335 -905.31261,738.62335 -903.07404,740.86193 -903.07404,743.62335 z" />
      <text style="font-size:30; vertical-align:top; fill-opacity:1.0; fill:darkblue; text-anchor:right; stroke:none; font-weight:normal; font-style:italic; text-align:right; " transform="" id="B.BUS.text" y="736.623370461" x="-901.074019882">
BUS</text>
      <circle style="stroke:red; stroke-width:1; fill:red; " transform="" cy="104.234043908" cx="-430.45219408" r="5" id="B.BD2" d="M -425.45218,104.23405 C -425.45218,106.99547 -427.69076,109.23405 -430.45218,109.23405 -433.2136,109.23405 -435.45218,106.99547 -435.45218,104.23405 -435.45218,101.47262 -433.2136,99.234047 -430.45218,99.234047 -427.69076,99.234047 -425.45218,101.47262 -425.45218,104.23405 z" />
      <text style="font-size:30; vertical-align:top; fill-opacity:1.0; fill:darkblue; text-anchor:right; stroke:none; font-weight:normal; font-style:italic; text-align:right; " transform="" id="B.BD2.text" y="97.2340439084" x="-423.45219408">
BD2</text>
      <circle style="stroke:red; stroke-width:1; fill:red; " transform="" cy="-51.9514480849" cx="-496.566196517" r="5" id="B.BD2.i" d="M -491.56619,-51.951447 C -491.56619,-49.190023 -493.80477,-46.951447 -496.56619,-46.951447 -499.32762,-46.951447 -501.56619,-49.190023 -501.56619,-51.951447 -501.56619,-54.71287 -499.32762,-56.951447 -496.56619,-56.951447 -493.80477,-56.951447 -491.56619,-54.71287 -491.56619,-51.951447 z" />
      <text style="font-size:30; vertical-align:top; fill-opacity:1.0; fill:darkblue; text-anchor:right; stroke:none; font-weight:normal; font-style:italic; text-align:right; " transform="" id="B.BD2.i.text" y="-58.9514480849" x="-489.566196517">
BD2.i</text>
      <circle style="stroke:red; stroke-width:1; fill:red; " transform="" cy="-39.6860369005" cx="-520.185017325" r="5" id="B.BD2.o" d="M -515.185,-39.686035 C -515.185,-36.924611 -517.42357,-34.686035 -520.185,-34.686035 -522.94642,-34.686035 -525.185,-36.924611 -525.185,-39.686035 -525.185,-42.447459 -522.94642,-44.686035 -520.185,-44.686035 -517.42357,-44.686035 -515.185,-42.447459 -515.185,-39.686035 z" />
      <text style="font-size:30; vertical-align:top; fill-opacity:1.0; fill:darkblue; text-anchor:right; stroke:none; font-weight:normal; font-style:italic; text-align:right; " transform="" id="B.BD2.o.text" y="-46.6860369005" x="-513.185017325">
BD2.o</text>
      <path style="stroke-linejoin:miter; stroke-dashoffset:0; stroke:gray; stroke-miterlimit:4; stroke-dasharray:6,6; stroke-width:2; fill:none; " transform="" d="M 0.0  1346.45669291 L -715.624177057  82.1684498171 L -708.661417323  -141.732283465 L 0.0  -141.732283465 L 0.0  637.795275591 L -918.070866142  637.795275591 L -908.074019882  743.623370461 M -885.826771654  637.795275591 L -826.724693851  1343.98784763 L -851.361750937  1343.98784763 " id="B.gridline" />
    </g>
    <g id="document.bodice.Bodice Sleeve.reference" transform=" translate(838.764800, 2240.132645)">
      <circle style="stroke:gray; stroke-width:1; fill:none; " transform="" cy="0.0" cx="215.864975277" r="5" id="C.SCM.inpoint" d="M 220.86497,0 C 220.86497,2.7614237 218.6264,5 215.86497,5 213.10355,5 210.86497,2.7614237 210.86497,0 210.86497,-2.7614237 213.10355,-5 215.86497,-5 218.6264,-5 220.86497,-2.7614237 220.86497,0 z" />
      <text style="font-size:25; vertical-align:top; fill-opacity:1.0; fill:gray; text-anchor:right; stroke:none; font-weight:normal; font-style:italic; text-align:right; " transform="" id="C.SCM.inpoint.text" y="-7.0" x="222.864975277">
SCM.in</text>
      <circle style="stroke:gray; stroke-width:1; fill:none; " transform="" cy="0.0" cx="-243.016004813" r="5" id="C.SCM.outpoint" d="M -238.01601,0 C -238.01601,2.7614237 -240.25458,5 -243.01601,5 -245.77743,5 -248.01601,2.7614237 -248.01601,0 -248.01601,-2.7614237 -245.77743,-5 -243.01601,-5 -240.25458,-5 -238.01601,-2.7614237 -238.01601,0 z" />
      <text style="font-size:25; vertical-align:top; fill-opacity:1.0; fill:gray; text-anchor:right; stroke:none; font-weight:normal; font-style:italic; text-align:right; " transform="" id="C.SCM.outpoint.text" y="-7.0" x="-236.016004813">
SCM.out</text>
      <circle style="stroke:red; stroke-width:1; fill:red; " transform="" cy="0.0" cx="0.0" r="5" id="C.SCM" d="M 5,0 C 5,2.7614237 2.7614237,5 0,5 -2.7614237,5 -5,2.7614237 -5,0 -5,-2.7614237 -2.7614237,-5 0,-5 2.7614237,-5 5,-2.7614237 5,0 z" />
      <text style="font-size:30; vertical-align:top; fill-opacity:1.0; fill:darkblue; text-anchor:right; stroke:none; font-weight:normal; font-style:italic; text-align:right; " transform="" id="C.SCM.text" y="-7.0" x="7.0">
SCM</text>
      <circle style="stroke:red; stroke-width:1; fill:red; " transform="" cy="426.94435453" cx="0.0" r="5" id="C.SUM" d="M 5,426.94437 C 5,429.70579 2.7614237,431.94437 0,431.94437 -2.7614237,431.94437 -5,429.70579 -5,426.94437 -5,424.18294 -2.7614237,421.94437 0,421.94437 2.7614237,421.94437 5,424.18294 5,426.94437 z" />
      <text style="font-size:30; vertical-align:top; fill-opacity:1.0; fill:darkblue; text-anchor:right; stroke:none; font-weight:normal; font-style:italic; text-align:right; " transform="" id="C.SUM.text" y="419.94435453" x="7.0">
SUM</text>
      <circle style="stroke:gray; stroke-width:1; fill:none; " transform="" cy="426.94435453" cx="578.78032323" r="5" id="C.SUB.outpoint" d="M 583.78033,426.94437 C 583.78033,429.70579 581.54176,431.94437 578.78033,431.94437 576.01891,431.94437 573.78033,429.70579 573.78033,426.94437 573.78033,424.18294 576.01891,421.94437 578.78033,421.94437 581.54176,421.94437 583.78033,424.18294 583.78033,426.94437 z" />
      <text style="font-size:25; vertical-align:top; fill-opacity:1.0; fill:gray; text-anchor:right; stroke:none; font-weight:normal; font-style:italic; text-align:right; " transform="" id="C.SUB.outpoint.text" y="419.94435453" x="585.78032323">
SUB.out</text>
      <circle style="stroke:red; stroke-width:1; fill:red; " transform="" cy="426.94435453" cx="651.073219837" r="5" id="C.SUB" d="M 656.07324,426.94437 C 656.07324,429.70579 653.83467,431.94437 651.07324,431.94437 648.31182,431.94437 646.07324,429.70579 646.07324,426.94437 646.07324,424.18294 648.31182,421.94437 651.07324,421.94437 653.83467,421.94437 656.07324,424.18294 656.07324,426.94437 z" />
      <text style="font-size:30; vertical-align:top; fill-opacity:1.0; fill:darkblue; text-anchor:right; stroke:none; font-weight:normal; font-style:italic; text-align:right; " transform="" id="C.SUB.text" y="419.94435453" x="658.073219837">
SUB</text>
      <circle style="stroke:gray; stroke-width:1; fill:none; " transform="" cy="426.94435453" cx="-694.232087695" r="5" id="C.SUF.inpoint" d="M -689.23212,426.94437 C -689.23212,429.70579 -691.47069,431.94437 -694.23212,431.94437 -696.99354,431.94437 -699.23212,429.70579 -699.23212,426.94437 -699.23212,424.18294 -696.99354,421.94437 -694.23212,421.94437 -691.47069,421.94437 -689.23212,424.18294 -689.23212,426.94437 z" />
      <text style="font-size:25; vertical-align:top; fill-opacity:1.0; fill:gray; text-anchor:right; stroke:none; font-weight:normal; font-style:italic; text-align:right; " transform="" id="C.SUF.inpoint.text" y="419.94435453" x="-687.232087695">
SUF.in</text>
      <circle style="stroke:gray; stroke-width:1; fill:none; " transform="" cy="702.824758518" cx="-630.663372322" r="5" id="C.SUF.outpoint" d="M -625.66339,702.82477 C -625.66339,705.58619 -627.90197,707.82477 -630.66339,707.82477 -633.42481,707.82477 -635.66339,705.58619 -635.66339,702.82477 -635.66339,700.06334 -633.42481,697.82477 -630.66339,697.82477 -627.90197,697.82477 -625.66339,700.06334 -625.66339,702.82477 z" />
      <text style="font-size:25; vertical-align:top; fill-opacity:1.0; fill:gray; text-anchor:right; stroke:none; font-weight:normal; font-style:italic; text-align:right; " transform="" id="C.SUF.outpoint.text" y="695.824758518" x="-623.663372322">
SUF.out</text>
      <circle style="stroke:red; stroke-width:1; fill:red; " transform="" cy="426.94435453" cx="-747.682123273" r="5" id="C.SUF" d="M -742.68213,426.94437 C -742.68213,429.70579 -744.92071,431.94437 -747.68213,431.94437 -750.44355,431.94437 -752.68213,429.70579 -752.68213,426.94437 -752.68213,424.18294 -750.44355,421.94437 -747.68213,421.94437 -744.92071,421.94437 -742.68213,424.18294 -742.68213,426.94437 z" />
      <text style="font-size:30; vertical-align:top; fill-opacity:1.0; fill:darkblue; text-anchor:right; stroke:none; font-weight:normal; font-style:italic; text-align:right; " transform="" id="C.SUF.text" y="419.94435453" x="-740.682123273">
SUF</text>
      <circle style="stroke:gray; stroke-width:1; fill:none; " transform="" cy="124.668050514" cx="262.243696243" r="5" id="C.s1.outpoint" d="M 267.24368,124.66805 C 267.24368,127.42948 265.00511,129.66805 262.24368,129.66805 259.48226,129.66805 257.24368,127.42948 257.24368,124.66805 257.24368,121.90663 259.48226,119.66805 262.24368,119.66805 265.00511,119.66805 267.24368,121.90663 267.24368,124.66805 z" />
      <text style="font-size:25; vertical-align:top; fill-opacity:1.0; fill:gray; text-anchor:right; stroke:none; font-weight:normal; font-style:italic; text-align:right; " transform="" id="C.s1.outpoint.text" y="117.668050514" x="269.243696243">
s1.out</text>
      <circle style="stroke:gray; stroke-width:1; fill:none; " transform="" cy="321.58401794" cx="335.499920826" r="5" id="C.s1.inpoint" d="M 340.49991,321.58401 C 340.49991,324.34544 338.26133,326.58401 335.49991,326.58401 332.73848,326.58401 330.49991,324.34544 330.49991,321.58401 330.49991,318.82259 332.73848,316.58401 335.49991,316.58401 338.26133,316.58401 340.49991,318.82259 340.49991,321.58401 z" />
      <text style="font-size:25; vertical-align:top; fill-opacity:1.0; fill:gray; text-anchor:right; stroke:none; font-weight:normal; font-style:italic; text-align:right; " transform="" id="C.s1.inpoint.text" y="314.58401794" x="342.499920826">
s1.in</text>
      <circle style="stroke:red; stroke-width:1; fill:red; " transform="" cy="186.071717185" cx="285.086946867" r="5" id="C.s1" d="M 290.08694,186.07172 C 290.08694,188.83314 287.84837,191.07172 285.08694,191.07172 282.32552,191.07172 280.08694,188.83314 280.08694,186.07172 280.08694,183.31029 282.32552,181.07172 285.08694,181.07172 287.84837,181.07172 290.08694,183.31029 290.08694,186.07172 z" />
      <text style="font-size:30; vertical-align:top; fill-opacity:1.0; fill:darkblue; text-anchor:right; stroke:none; font-weight:normal; font-style:italic; text-align:right; " transform="" id="C.s1.text" y="179.071717185" x="292.086946867">
s1</text>
      <circle style="stroke:gray; stroke-width:1; fill:none; " transform="" cy="180.486394063" cx="-391.506040295" r="5" id="C.s2.inpoint" d="M -386.50604,180.48639 C -386.50604,183.24781 -388.74462,185.48639 -391.50604,185.48639 -394.26747,185.48639 -396.50604,183.24781 -396.50604,180.48639 -396.50604,177.72497 -394.26747,175.48639 -391.50604,175.48639 -388.74462,175.48639 -386.50604,177.72497 -386.50604,180.48639 z" />
      <text style="font-size:25; vertical-align:top; fill-opacity:1.0; fill:gray; text-anchor:right; stroke:none; font-weight:normal; font-style:italic; text-align:right; " transform="" id="C.s2.inpoint.text" y="173.486394063" x="-384.506040295">
s2.in</text>
      <circle style="stroke:gray; stroke-width:1; fill:none; " transform="" cy="351.934794153" cx="-532.560323887" r="5" id="C.s2.outpoint" d="M -527.5603,351.93478 C -527.5603,354.69621 -529.79888,356.93478 -532.5603,356.93478 -535.32173,356.93478 -537.5603,354.69621 -537.5603,351.93478 -537.5603,349.17336 -535.32173,346.93478 -532.5603,346.93478 -529.79888,346.93478 -527.5603,349.17336 -527.5603,351.93478 z" />
      <text style="font-size:25; vertical-align:top; fill-opacity:1.0; fill:gray; text-anchor:right; stroke:none; font-weight:normal; font-style:italic; text-align:right; " transform="" id="C.s2.outpoint.text" y="344.934794153" x="-525.560323887">
s2.out</text>
      <circle style="stroke:red; stroke-width:1; fill:red; " transform="" cy="269.382677706" cx="-464.642923442" r="5" id="C.s2" d="M -459.64291,269.38269 C -459.64291,272.14411 -461.88149,274.38269 -464.64291,274.38269 -467.40434,274.38269 -469.64291,272.14411 -469.64291,269.38269 -469.64291,266.62127 -467.40434,264.38269 -464.64291,264.38269 -461.88149,264.38269 -459.64291,266.62127 -459.64291,269.38269 z" />
      <text style="font-size:30; vertical-align:top; fill-opacity:1.0; fill:darkblue; text-anchor:right; stroke:none; font-weight:normal; font-style:italic; text-align:right; " transform="" id="C.s2.text" y="262.382677706" x="-457.642923442">
s2</text>
      <circle style="stroke:red; stroke-width:1; fill:red; " transform="" cy="2161.41732283" cx="0.0" r="5" id="C.SWM" d="M 5,2161.4172 C 5,2164.1787 2.7614237,2166.4172 0,2166.4172 -2.7614237,2166.4172 -5,2164.1787 -5,2161.4172 -5,2158.6558 -2.7614237,2156.4172 0,2156.4172 2.7614237,2156.4172 5,2158.6558 5,2161.4172 z" />
      <text style="font-size:30; vertical-align:top; fill-opacity:1.0; fill:darkblue; text-anchor:right; stroke:none; font-weight:normal; font-style:italic; text-align:right; " transform="" id="C.SWM.text" y="2154.41732283" x="7.0">
SWM</text>
      <circle style="stroke:red; stroke-width:1; fill:red; " transform="" cy="1294.18083868" cx="0.0" r="5" id="C.SEM" d="M 5,1294.1808 C 5,1296.9422 2.7614237,1299.1808 0,1299.1808 -2.7614237,1299.1808 -5,1296.9422 -5,1294.1808 -5,1291.4194 -2.7614237,1289.1808 0,1289.1808 2.7614237,1289.1808 5,1291.4194 5,1294.1808 z" />
      <text style="font-size:30; vertical-align:top; fill-opacity:1.0; fill:darkblue; text-anchor:right; stroke:none; font-weight:normal; font-style:italic; text-align:right; " transform="" id="C.SEM.text" y="1287.18083868" x="7.0">
SEM</text>
      <circle style="stroke:red; stroke-width:1; fill:red; " transform="" cy="1294.18083868" cx="637.795275591" r="5" id="C.SEB" d="M 642.79529,1294.1808 C 642.79529,1296.9422 640.55671,1299.1808 637.79529,1299.1808 635.03386,1299.1808 632.79529,1296.9422 632.79529,1294.1808 632.79529,1291.4194 635.03386,1289.1808 637.79529,1289.1808 640.55671,1289.1808 642.79529,1291.4194 642.79529,1294.1808 z" />
      <text style="font-size:30; vertical-align:top; fill-opacity:1.0; fill:darkblue; text-anchor:right; stroke:none; font-weight:normal; font-style:italic; text-align:right; " transform="" id="C.SEB.text" y="1287.18083868" x="644.795275591">
SEB</text>
      <circle style="stroke:gray; stroke-width:1; fill:none; " transform="" cy="995.823176072" cx="-506.383762907" r="5" id="C.SEF.inpoint" d="M -501.38376,995.82318 C -501.38376,998.5846 -503.62233,1000.8232 -506.38376,1000.8232 -509.14518,1000.8232 -511.38376,998.5846 -511.38376,995.82318 -511.38376,993.06176 -509.14518,990.82318 -506.38376,990.82318 -503.62233,990.82318 -501.38376,993.06176 -501.38376,995.82318 z" />
      <text style="font-size:25; vertical-align:top; fill-opacity:1.0; fill:gray; text-anchor:right; stroke:none; font-weight:normal; font-style:italic; text-align:right; " transform="" id="C.SEF.inpoint.text" y="988.823176072" x="-499.383762907">
SEF.in</text>
      <circle style="stroke:red; stroke-width:1; fill:red; " transform="" cy="1294.18083868" cx="-478.346456693" r="5" id="C.SEF" d="M -473.34647,1294.1808 C -473.34647,1296.9422 -475.58504,1299.1808 -478.34647,1299.1808 -481.10789,1299.1808 -483.34647,1296.9422 -483.34647,1294.1808 -483.34647,1291.4194 -481.10789,1289.1808 -478.34647,1289.1808 -475.58504,1289.1808 -473.34647,1291.4194 -473.34647,1294.1808 z" />
      <text style="font-size:30; vertical-align:top; fill-opacity:1.0; fill:darkblue; text-anchor:right; stroke:none; font-weight:normal; font-style:italic; text-align:right; " transform="" id="C.SEF.text" y="1287.18083868" x="-471.346456693">
SEF</text>
      <circle style="stroke:red; stroke-width:1; fill:red; " transform="" cy="2161.41732283" cx="283.464566929" r="5" id="C.s3" d="M 288.46457,2161.4172 C 288.46457,2164.1787 286.22599,2166.4172 283.46457,2166.4172 280.70315,2166.4172 278.46457,2164.1787 278.46457,2161.4172 278.46457,2158.6558 280.70315,2156.4172 283.46457,2156.4172 286.22599,2156.4172 288.46457,2158.6558 288.46457,2161.4172 z" />
      <text style="font-size:30; vertical-align:top; fill-opacity:1.0; fill:darkblue; text-anchor:right; stroke:none; font-weight:normal; font-style:italic; text-align:right; " transform="" id="C.s3.text" y="2154.41732283" x="290.464566929">
s3</text>
      <circle style="stroke:red; stroke-width:1; fill:red; " transform="" cy="2161.41732283" cx="93.5433070866" r="5" id="C.s4" d="M 98.543304,2161.4172 C 98.543304,2164.1787 96.304728,2166.4172 93.543304,2166.4172 90.781881,2166.4172 88.543304,2164.1787 88.543304,2161.4172 88.543304,2158.6558 90.781881,2156.4172 93.543304,2156.4172 96.304728,2156.4172 98.543304,2158.6558 98.543304,2161.4172 z" />
      <text style="font-size:30; vertical-align:top; fill-opacity:1.0; fill:darkblue; text-anchor:right; stroke:none; font-weight:normal; font-style:italic; text-align:right; " transform="" id="C.s4.text" y="2154.41732283" x="100.543307087">
s4</text>
      <circle style="stroke:red; stroke-width:1; fill:red; " transform="" cy="2161.41732283" cx="-396.850393701" r="5" id="C.s5" d="M -391.8504,2161.4172 C -391.8504,2164.1787 -394.08898,2166.4172 -396.8504,2166.4172 -399.61183,2166.4172 -401.8504,2164.1787 -401.8504,2161.4172 -401.8504,2158.6558 -399.61183,2156.4172 -396.8504,2156.4172 -394.08898,2156.4172 -391.8504,2158.6558 -391.8504,2161.4172 z" />
      <text style="font-size:30; vertical-align:top; fill-opacity:1.0; fill:darkblue; text-anchor:right; stroke:none; font-weight:normal; font-style:italic; text-align:right; " transform="" id="C.s5.text" y="2154.41732283" x="-389.850393701">
s5</text>
      <circle style="stroke:red; stroke-width:1; fill:red; " transform="" cy="2161.41732283" cx="-130.960629921" r="5" id="C.s6" d="M -125.96063,2161.4172 C -125.96063,2164.1787 -128.19921,2166.4172 -130.96063,2166.4172 -133.72206,2166.4172 -135.96063,2164.1787 -135.96063,2161.4172 -135.96063,2158.6558 -133.72206,2156.4172 -130.96063,2156.4172 -128.19921,2156.4172 -125.96063,2158.6558 -125.96063,2161.4172 z" />
      <text style="font-size:30; vertical-align:top; fill-opacity:1.0; fill:darkblue; text-anchor:right; stroke:none; font-weight:normal; font-style:italic; text-align:right; " transform="" id="C.s6.text" y="2154.41732283" x="-123.960629921">
s6</text>
      <circle style="stroke:red; stroke-width:1; fill:red; " transform="" cy="1294.18083868" cx="446.456692913" r="5" id="C.SD1" d="M 451.4567,1294.1808 C 451.4567,1296.9422 449.21812,1299.1808 446.4567,1299.1808 443.69527,1299.1808 441.4567,1296.9422 441.4567,1294.1808 441.4567,1291.4194 443.69527,1289.1808 446.4567,1289.1808 449.21812,1289.1808 451.4567,1291.4194 451.4567,1294.1808 z" />
      <text style="font-size:30; vertical-align:top; fill-opacity:1.0; fill:darkblue; text-anchor:right; stroke:none; font-weight:normal; font-style:italic; text-align:right; " transform="" id="C.SD1.text" y="1287.18083868" x="453.456692913">
SD1</text>
      <circle style="stroke:red; stroke-width:1; fill:red; " transform="" cy="1270.90354048" cx="638.233881026" r="5" id="C.SD1.i" d="M 643.23389,1270.9036 C 643.23389,1273.665 640.99531,1275.9036 638.23389,1275.9036 635.47246,1275.9036 633.23389,1273.665 633.23389,1270.9036 633.23389,1268.1421 635.47246,1265.9036 638.23389,1265.9036 640.99531,1265.9036 643.23389,1268.1421 643.23389,1270.9036 z" />
      <text style="font-size:30; vertical-align:top; fill-opacity:1.0; fill:darkblue; text-anchor:right; stroke:none; font-weight:normal; font-style:italic; text-align:right; " transform="" id="C.SD1.i.text" y="1263.90354048" x="645.233881026">
SD1.i</text>
      <circle style="stroke:red; stroke-width:1; fill:red; " transform="" cy="1324.66622058" cx="637.220850927" r="5" id="C.SD1.o" d="M 642.22083,1324.6663 C 642.22083,1327.4277 639.98225,1329.6663 637.22083,1329.6663 634.4594,1329.6663 632.22083,1327.4277 632.22083,1324.6663 632.22083,1321.9048 634.4594,1319.6663 637.22083,1319.6663 639.98225,1319.6663 642.22083,1321.9048 642.22083,1324.6663 z" />
      <text style="font-size:30; vertical-align:top; fill-opacity:1.0; fill:darkblue; text-anchor:right; stroke:none; font-weight:normal; font-style:italic; text-align:right; " transform="" id="C.SD1.o.text" y="1317.66622058" x="644.220850927">
SD1.o</text>
      <circle style="stroke:gray; stroke-width:1; fill:none; " transform="" cy="2165.69555133" cx="-176.487195277" r="5" id="C.SWF.outpoint" d="M -171.4872,2165.6956 C -171.4872,2168.457 -173.72577,2170.6956 -176.4872,2170.6956 -179.24862,2170.6956 -181.4872,2168.457 -181.4872,2165.6956 -181.4872,2162.9341 -179.24862,2160.6956 -176.4872,2160.6956 -173.72577,2160.6956 -171.4872,2162.9341 -171.4872,2165.6956 z" />
      <text style="font-size:25; vertical-align:top; fill-opacity:1.0; fill:gray; text-anchor:right; stroke:none; font-weight:normal; font-style:italic; text-align:right; " transform="" id="C.SWF.outpoint.text" y="2158.69555133" x="-169.487195277">
SWF.out</text>
      <circle style="stroke:red; stroke-width:1; fill:red; " transform="" cy="2186.18483531" cx="-394.522937703" r="5" id="C.SWF" d="M -389.52295,2186.1848 C -389.52295,2188.9462 -391.76153,2191.1848 -394.52295,2191.1848 -397.28437,2191.1848 -399.52295,2188.9462 -399.52295,2186.1848 -399.52295,2183.4234 -397.28437,2181.1848 -394.52295,2181.1848 -391.76153,2181.1848 -389.52295,2183.4234 -389.52295,2186.1848 z" />
      <text style="font-size:30; vertical-align:top; fill-opacity:1.0; fill:darkblue; text-anchor:right; stroke:none; font-weight:normal; font-style:italic; text-align:right; " transform="" id="C.SWF.text" y="2179.18483531" x="-387.522937703">
SWF</text>
      <circle style="stroke:gray; stroke-width:1; fill:none; " transform="" cy="2127.03752047" cx="60.2358191582" r="5" id="C.SWB.inpoint" d="M 65.235821,2127.0376 C 65.235821,2129.799 62.997245,2132.0376 60.235821,2132.0376 57.474397,2132.0376 55.235821,2129.799 55.235821,2127.0376 55.235821,2124.2762 57.474397,2122.0376 60.235821,2122.0376 62.997245,2122.0376 65.235821,2124.2762 65.235821,2127.0376 z" />
      <text style="font-size:25; vertical-align:top; fill-opacity:1.0; fill:gray; text-anchor:right; stroke:none; font-weight:normal; font-style:italic; text-align:right; " transform="" id="C.SWB.inpoint.text" y="2120.03752047" x="67.2358191582">
SWB.in</text>
      <circle style="stroke:red; stroke-width:1; fill:red; " transform="" cy="2212.31535557" cx="261.946221899" r="5" id="C.SWB" d="M 266.94623,2212.3154 C 266.94623,2215.0769 264.70765,2217.3154 261.94623,2217.3154 259.1848,2217.3154 256.94623,2215.0769 256.94623,2212.3154 256.94623,2209.554 259.1848,2207.3154 261.94623,2207.3154 264.70765,2207.3154 266.94623,2209.554 266.94623,2212.3154 z" />
      <text style="font-size:30; vertical-align:top; fill-opacity:1.0; fill:darkblue; text-anchor:right; stroke:none; font-weight:normal; font-style:italic; text-align:right; " transform="" id="C.SWB.text" y="2205.31535557" x="268.946221899">
SWB</text>
      <path style="stroke-linejoin:miter; stroke-dashoffset:0; stroke:gray; stroke-miterlimit:4; stroke-dasharray:6,6; stroke-width:2; fill:none; " transform="" d="M 0.0  0.0 L 0.0  2161.41732283 M 651.073219837  426.94435453 L -747.682123273  426.94435453 M 637.795275591  1294.18083868 L -478.346456693  1294.18083868 M 651.073219837  426.94435453 L 285.086946867  186.071717185 L 0.0  0.0 L -464.642923442  269.382677706 L -747.682123273  426.94435453 M 637.795275591  1294.18083868 L 283.464566929  2161.41732283 M -747.682123273  426.94435453 L -396.850393701  2161.41732283 L 283.464566929  2161.41732283 " id="C.gridline" />
    </g>
  </g>
</svg>
