<?xml version="1.0" encoding="UTF-8" standalone="no"?>
<svg xmlns:dc="http://purl.org/dc/elements/1.1/" xmlns:cc="http://creativecommons.org/ns#" xmlns:rdf="http://www.w3.org/1999/02/22-rdf-syntax-ns#" xmlns:svg="http://www.w3.org/2000/svg" xmlns="http://www.w3.org/2000/svg" xmlns:sodipodi="http://sodipodi.sourceforge.net/DTD/sodipodi-0.dtd" xmlns:inkscape="http://www.inkscape.org/namespaces/inkscape" patternNumber="MR_B1" fitBoxtoViewport="True" companyName="Epic Patterns" currentscale="0.5:1" margin-right="88.5826771654" client-name="DressFormLg" designerName="S.L.Spencer" height="4960.8377844" width="2610.97514333" margin-top="88.5826771654" version="1.1" margin-bottom="88.5826771654" margin-left="88.5826771654" preserveAspectRatio="xMidYMid meet" id="svg2" inkscape:version="0.48.4 r9939" sodipodi:docname="Susan-spencer_bodice_short-2014-11-04-2226.svg">
  <metadata id="metadata291">
    <rdf:RDF>
      <cc:Work rdf:about="">
        <dc:format>image/svg+xml</dc:format>
        <dc:type rdf:resource="http://purl.org/dc/dcmitype/StillImage" />
      </cc:Work>
    </rdf:RDF>
  </metadata>
  <sodipodi:namedview id="base" pagecolor="#ffffff" bordercolor="#666666" borderopacity="1.0" inkscape:pageopacity="0.0" inkscape:pageshadow="2" inkscape:zoom="0.17859886" inkscape:document-units="pt" showgrid="false" inkscape:window-maximized="1" inkscape:cx="1305.4875" inkscape:cy="2480.4189" inkscape:window-width="1855" inkscape:window-height="1056" inkscape:window-x="65" inkscape:window-y="24" inkscape:current-layer="pattern" />
  <defs id="defs5">
    <marker style="overflow:visible" id="Arrow1Mstart" refX="0.0" refY="0.0" orient="auto" inkscape:stockid="Arrow1Mstart">
      <path transform="scale(0.4) translate(10,0)" style="fill-rule:evenodd;stroke:#000000;stroke-width:1.0pt;marker-start:none" d="M 0.0,0.0 L 5.0,-5.0 L -12.5,0.0 L 5.0,5.0 L 0.0,0.0 z " id="path8" />
    </marker>
    <marker style="overflow:visible;" id="Arrow1Mend" refX="0.0" refY="0.0" orient="auto" inkscape:stockid="Arrow1Mend">
      <path transform="scale(0.4) rotate(180) translate(10,0)" style="fill-rule:evenodd;stroke:#000000;stroke-width:1.0pt;marker-start:none;" d="M 0.0,0.0 L 5.0,-5.0 L -12.5,0.0 L 5.0,5.0 L 0.0,0.0 z " id="path11" />
    </marker>
  </defs>
  <g inkscape:label="Label-pattern" id="pattern" inkscape:groupmode="layer" transform="translate(88.582677,88.582677)">
    <g id="document.bodice.Bodice Front.pattern" transform=" translate(58.750000, 757.717638)">
      <g id="A.letter" transform="matrix(10.000000, 0, 0, 10.000000, -3228.838583, -1030.039370)">
        <text style="font-size:24; vertical-align:top; fill-opacity:1.0; fill:#000000; text-anchor:start; stroke:none; font-weight:normal; font-style:normal; text-align:right; " transform="" id="A.letter.letterline" y="114.448818898" x="358.75984252">
A</text>
      </g>
      <line style="stroke-linejoin:miter; stroke:green; stroke-width:4; stroke-miterlimit:4; fill:none; " y2="1089.56692913" marker-end="url(#Arrow1Mend)" marker-start="url(#Arrow1Mstart)" transform="" x2="133.455818164" y1="159.448818898" x1="133.455818164" id="A.grainline" />
      <path style="stroke-linejoin:miter; stroke-dashoffset:0; stroke:green; stroke-miterlimit:4; stroke-dasharray:6,6; stroke-width:3; fill:none; " transform="" d="M 257.751753648  1321.74495644 L 354.330708661  710.078740157 L 450.909663675  1321.74495644 M 1160.89533254  637.795275591 L 443.747905788  637.795275591 L 1126.03085812  858.680776811 " id="A.dartline" />
      <path style="stroke-linejoin:miter; stroke-dashoffset:0; stroke:green; stroke-dasharray:24,6; stroke-miterlimit:4; stroke-width:4; fill:none; " transform="" d="M 0.0  0.0 L 0.0  1240.15748031 C 133.896167549  1240.15748031  226.847353522  1259.91844849  266.524655386  1266.18329074 L 354.330708661  1285.43743703 L 442.136761937  1266.18329074 C 647.315463535  1233.78662722  859.624375018  1200.34462532  1067.16189061  1191.62550743 L 1072.5154795  841.355455712 L 1075.51646246  737.513358306 L 1104.64533254  637.795275591 L 1033.68915656  394.888022168 C 893.572200606  440.498153899  738.545618172  421.42614887  673.228346457  318.897637795 C 576.766193088  167.481010918  700.589615123  -143.504287858  717.519685039  -223.334513127 L 266.911636328  -318.897637795 C 233.832093174  -162.917928626  160.146981797  0.0  0.0  0.0 " id="A.seamline" />
      <path style="fill:none;stroke:#008000;stroke-width:4;stroke-linejoin:miter;stroke-miterlimit:4" d="M 211.90625,-330.65625 C 197.45138,-264.20535 177.34444,-197.87692 139.96875,-140.40625 116.15169,-104.08797 82.171731,-71.60028 38.90625,-60.9375 9.6980416,-53.498727 -20.657228,-57.036286 -50.466985,-55.829847 -59.45958,-58.486119 -55.389515,-48.189039 -56.25,-42.78125 -56.25,403.61458 -56.25,850.01042 -56.25,1296.4062 5.0648952,1296.0655 66.276443,1296.1626 127.28125,1302.75 174.37771,1307.4975 221.37076,1314.829 267.94036,1324.0698 296.74072,1330.3938 325.54967,1336.6787 354.34375,1343.0312 390.02931,1335.5183 425.47502,1326.7271 461.32712,1320.0948 669.72565,1287.2276 878.67277,1254.6496 1089.6674,1246.9156 1100.6428,1246.4229 1111.6183,1245.9302 1122.5938,1245.4375 1124.8797,1105.6914 1126.5692,965.93229 1129.2144,826.19424 1130.1643,799.29157 1130.4427,772.28286 1131.8117,745.44638 1142.2885,709.55722 1152.7981,673.67766 1163.25,637.78125 1132.675,533.02274 1102.0625,428.27515 1071.4375,323.53125 1028.7736,337.11491 986.4689,353.12384 941.79102,358.51447 886.05465,365.74414 826.78676,362.9867 775.75,337.40625 743.96283,321.73608 718.17742,293.87286 706.875,260.125 689.94226,211.12386 691.43565,158.24857 696.34375,107.375 706.968,9.1880899 736.4176,-85.368133 764.34375,-179.71875 772.60111,-208.29903 778.11185,-237.58398 784.9375,-266.53125 597.84169,-306.25813 410.72586,-345.89065 223.625,-385.59375 219.71875,-367.28125 215.8125,-348.96875 211.90625,-330.65625 z" id="A.cuttingline" inkscape:connector-curvature="0" />
      <g id="A.info" transform="">
        <text style="font-size:12; vertical-align:top; fill-opacity:1.0; fill:#000000; text-anchor:start; stroke:none; font-weight:normal; font-style:normal; text-align:right; " transform="" id="A.info.lineEpic Patterns" y="159.448818898" x="358.75984252">
Epic Patterns</text>
        <text style="font-size:12; vertical-align:top; fill-opacity:1.0; fill:#000000; text-anchor:start; stroke:none; font-weight:normal; font-style:normal; text-align:right; " transform="" id="A.info.lineDesigner:S.L.Spencer" y="173.848818898" x="358.75984252">
Designer:S.L.Spencer</text>
        <text style="font-size:12; vertical-align:top; fill-opacity:1.0; fill:#000000; text-anchor:start; stroke:none; font-weight:normal; font-style:normal; text-align:right; " transform="" id="A.info.lineClient:DressFormLg" y="188.248818898" x="358.75984252">
Client:DressFormLg</text>
        <text style="font-size:12; vertical-align:top; fill-opacity:1.0; fill:#000000; text-anchor:start; stroke:none; font-weight:normal; font-style:normal; text-align:right; " transform="" id="A.info.lineMR_B1" y="202.648818898" x="358.75984252">
MR_B1</text>
        <text style="font-size:12; vertical-align:top; fill-opacity:1.0; fill:#000000; text-anchor:start; stroke:none; font-weight:normal; font-style:normal; text-align:right; " transform="" id="A.info.linePattern Piece A" y="217.048818898" x="358.75984252">
Pattern Piece A</text>
        <text style="font-size:12; vertical-align:top; fill-opacity:1.0; fill:#000000; text-anchor:start; stroke:none; font-weight:normal; font-style:normal; text-align:right; " transform="" id="A.info.lineCut 2 Fabric" y="231.448818898" x="358.75984252">
Cut 2 Fabric</text>
      </g>
    </g>
    <g id="document.bodice.Bodice Back.pattern" transform=" translate(2377.559789, 580.552283)">
      <g id="B.letter" transform="matrix(10.000000, 0, 0, 10.000000, 3188.976378, -2465.078740)">
        <text style="font-size:24; vertical-align:top; fill-opacity:1.0; fill:#000000; text-anchor:start; stroke:none; font-weight:normal; font-style:normal; text-align:right; " transform="" id="B.letter.letterline" y="273.897637795" x="-354.330708661">
B</text>
      </g>
      <line style="stroke-linejoin:miter; stroke:green; stroke-width:4; stroke-miterlimit:4; fill:none; " y2="1222.44094488" marker-end="url(#Arrow1Mend)" marker-start="url(#Arrow1Mstart)" transform="" x2="-142.235487856" y1="212.598425197" x1="-142.235487856" id="B.grainline" />
      <path style="stroke-linejoin:miter; stroke-dashoffset:0; stroke:green; stroke-miterlimit:4; stroke-dasharray:6,6; stroke-width:3; fill:none; " transform="" d="M -297.415684426  1435.03579046 L -383.761673202  637.795275591 L -470.107661978  1435.03579046 M -559.69322976  -100.832894361 L -415.314857008  139.993979033 L -524.771526596  -118.582769632 " id="B.dartline" />
      <path style="stroke-linejoin:miter; stroke-dashoffset:0; stroke:green; stroke-dasharray:24,6; stroke-miterlimit:4; stroke-width:4; fill:none; " transform="" d="M 0.0  0.0 L 0.0  1346.45669291 L -464.050865579  1379.11282811 L -383.761673202  1387.86467309 L -303.472480825  1379.11282811 C -368.124636854  1313.20662554  -154.693922736  1478.72574468  -499.388105156  1179.39706274 L -887.856247269  719.035543662 C -795.631261689  641.21307736  -663.621970161  674.635983285  -646.511811024  637.795275591 C -562.668021212  457.267173678  -673.392103074  121.148427062  -708.661417323  37.8293872947 L -530.770190158  -52.5885135469 L -516.807237133  -59.6855521256 L -502.844284109  -66.7825907043 L -284.470975712  -141.732283465 C -252.688753608  -78.3927191927  -213.353231784  0.0  0.0  0.0 " id="B.seamline" />
      <path style="fill:none;stroke:#008000;stroke-width:4;stroke-linejoin:miter;stroke-miterlimit:4" d="M -302.71875,-194.9375 C -377.02831,-169.33548 -451.48786,-144.08984 -525.70372,-118.26518 -610.68316,-75.115796 -695.63896,-31.896833 -780.59375,11.3125 -762.92195,53.089899 -745.41509,95.128026 -732.1218,138.44623 -703.17342,230.09113 -681.21981,324.47243 -673.91795,420.43035 -670.07749,480.27842 -670.84409,542.0014 -691.28125,599.09375 -693.74109,602.34943 -699.97548,600.97113 -703.96048,602.22209 -755.50632,607.99405 -808.0716,613.76766 -856.13601,634.58578 -886.68222,647.16659 -914.07246,666.2033 -938.57466,688.19533 -948.11227,696.21355 -957.64989,704.23178 -967.1875,712.25 -824.63439,881.157 -682.12559,1050.1015 -539.5625,1219 -501.06626,1252.4097 -462.63044,1286.0232 -424.5,1319.9375 -439.57416,1321.4035 -455.01191,1321.2756 -469.85859,1323.7387 -514.08281,1341.3154 -558.30703,1358.8921 -602.53125,1376.4688 -558.04829,1395.9267 -513.7778,1416.1754 -469.16213,1435.1396 -440.36103,1438.1425 -411.55245,1441.6836 -382.7563,1444.3566 -316.20751,1437.0536 -249.64785,1429.8487 -183.09375,1422.5938 -191.13029,1416.6749 -187.99895,1415.0237 -179.33715,1415.4858 -100.8081,1409.9592 -22.278226,1404.4445 56.25,1398.9062 56.25,913.85417 56.25,428.80208 56.25,-56.25 -8.2028894,-56.354282 -74.213712,-53.53629 -136.34375,-73.46875 -166.34681,-82.915222 -194.66624,-100.53616 -212.09375,-127.3125 -229.28847,-153.74651 -241.59842,-182.99175 -256.28125,-210.875 -271.76042,-205.5625 -287.23958,-200.25 -302.71875,-194.9375 z" id="B.cuttingline" inkscape:connector-curvature="0" />
      <g id="B.info" transform="">
        <text style="font-size:12; vertical-align:top; fill-opacity:1.0; fill:#000000; text-anchor:start; stroke:none; font-weight:normal; font-style:normal; text-align:right; " transform="" id="B.info.lineEpic Patterns" y="318.897637795" x="-354.330708661">
Epic Patterns</text>
        <text style="font-size:12; vertical-align:top; fill-opacity:1.0; fill:#000000; text-anchor:start; stroke:none; font-weight:normal; font-style:normal; text-align:right; " transform="" id="B.info.lineDesigner:S.L.Spencer" y="333.297637795" x="-354.330708661">
Designer:S.L.Spencer</text>
        <text style="font-size:12; vertical-align:top; fill-opacity:1.0; fill:#000000; text-anchor:start; stroke:none; font-weight:normal; font-style:normal; text-align:right; " transform="" id="B.info.lineClient:DressFormLg" y="347.697637795" x="-354.330708661">
Client:DressFormLg</text>
        <text style="font-size:12; vertical-align:top; fill-opacity:1.0; fill:#000000; text-anchor:start; stroke:none; font-weight:normal; font-style:normal; text-align:right; " transform="" id="B.info.lineMR_B1" y="362.097637795" x="-354.330708661">
MR_B1</text>
        <text style="font-size:12; vertical-align:top; fill-opacity:1.0; fill:#000000; text-anchor:start; stroke:none; font-weight:normal; font-style:normal; text-align:right; " transform="" id="B.info.linePattern Piece B" y="376.497637795" x="-354.330708661">
Pattern Piece B</text>
        <text style="font-size:12; vertical-align:top; fill-opacity:1.0; fill:#000000; text-anchor:start; stroke:none; font-weight:normal; font-style:normal; text-align:right; " transform="" id="B.info.lineCut 2 Fabric" y="390.897637795" x="-354.330708661">
Cut 2 Fabric</text>
      </g>
    </g>
    <g id="document.bodice.Bodice Sleeve.pattern" transform=" translate(899.564887, 2256.089830)">
      <line style="stroke-linejoin:miter; stroke:green; stroke-width:4; stroke-miterlimit:4; fill:none; " y2="2090.5511811" marker-end="url(#Arrow1Mend)" marker-start="url(#Arrow1Mstart)" transform="" x2="0.0" y1="609.854281368" x1="0.0" id="C.grainline" />
      <g id="C.letter" transform="matrix(15.000000, 0, 0, 15.000000, -3697.515768, -14712.525072)">
        <text style="font-size:24; vertical-align:top; fill-opacity:1.0; fill:#000000; text-anchor:start; stroke:none; font-weight:normal; font-style:normal; text-align:right; " transform="" id="C.letter.letterline" y="1050.89464803" x="264.108269133">
C</text>
      </g>
      <path style="stroke-linejoin:miter; stroke-dashoffset:0; stroke:green; stroke-miterlimit:4; stroke-dasharray:6,6; stroke-width:3; fill:none; " transform="" d="M 742.690030921  1515.29229376 L 483.661417323  1491.9350147 L 726.217563088  1585.78543451 " id="C.dartline" />
      <path style="stroke-linejoin:miter; stroke-dashoffset:0; stroke:green; stroke-dasharray:24,6; stroke-miterlimit:4; stroke-width:4; fill:none; " transform="" d="M 897.064886619  609.854281368 C 820.180600137  562.315131553  742.861871973  514.507357432  672.798664964  457.390711026 C 531.48117541  342.186434395  414.889926578  196.364269348  264.108269133  93.8579281495 C 186.842523185  41.3301270146  93.2751345727  -5.37723529522  0.0  0.0 C -91.0117362924  5.24675223373  -171.09796742  68.6756870977  -244.187245394  123.160749246 C -390.365801341  232.130873542  -506.699085278  377.723407826  -652.877641225  486.693532122 C -725.966919199  541.17859427  -812.462693365  575.896462702  -897.064886619  609.854281368 C -743.663454045  885.086712492  -579.043160239  1180.44799378  -531.496062992  1491.9350147 L -392.366966954  2403.38724118 C -142.285192207  2365.21337946  124.189552754  2389.36565293  363.521032828  2471.33260007 L 673.757529585  1565.48746947 L 688.133326135  1539.71493917 L 686.667332734  1510.24058238 L 897.064886619  609.854281368 " id="C.seamline" />
      <path style="fill:none;stroke:#008000;stroke-width:4;stroke-linejoin:miter;stroke-miterlimit:4" d="M 13.125,-56.65625 C -51.494982,-57.026629 -113.57542,-32.37543 -168.00622,0.95597658 -215.05952,29.658976 -258.6394,63.586079 -302.42754,96.938737 -432.18982,198.73684 -538.96229,326.43038 -668.79996,428.09966 -727.58784,475.61472 -796.51663,507.90235 -865.86399,536.49517 -902.87959,551.75223 -940.12134,566.45139 -977.25,581.4375 -865.26152,783.29769 -748.92287,984.4188 -667.69157,1201.154 -628.55478,1305.4891 -598.63624,1413.6343 -583.47201,1524.2252 -535.49781,1838.5781 -487.47231,2152.9232 -439.53125,2467.2812 -374.01649,2457.1248 -308.27239,2447.5421 -242.03878,2444.3507 -46.542991,2433.674 150.85556,2459.5363 336.39402,2521.5487 357.12634,2528.5768 377.86063,2535.5992 398.59375,2542.625 507.48146,2224.5734 616.43161,1906.5432 725.34375,1588.5 731.72378,1576.3011 739.5617,1564.4431 745.04536,1552.0324 744.94109,1538.8516 742.67781,1525.4782 743.93262,1512.4224 816.29266,1202.6969 888.70356,892.98314 961.03125,583.25 863.24177,522.60861 763.41778,463.66653 676.78125,387.21875 555.39924,281.54748 449.3582,157.2505 317.96875,62.9375 247.99212,12.77027 171.05275,-31.053284 86.05425,-49.103862 62.094716,-54.067086 37.642917,-56.803134 13.125,-56.65625 z" id="C.cuttingline" inkscape:connector-curvature="0" />
      <g id="C.info" transform="">
        <text style="font-size:12; vertical-align:top; fill-opacity:1.0; fill:#000000; text-anchor:start; stroke:none; font-weight:normal; font-style:normal; text-align:right; " transform="" id="C.info.lineEpic Patterns" y="1121.76078977" x="264.108269133">
Epic Patterns</text>
        <text style="font-size:12; vertical-align:top; fill-opacity:1.0; fill:#000000; text-anchor:start; stroke:none; font-weight:normal; font-style:normal; text-align:right; " transform="" id="C.info.lineDesigner:S.L.Spencer" y="1136.16078977" x="264.108269133">
Designer:S.L.Spencer</text>
        <text style="font-size:12; vertical-align:top; fill-opacity:1.0; fill:#000000; text-anchor:start; stroke:none; font-weight:normal; font-style:normal; text-align:right; " transform="" id="C.info.lineClient:DressFormLg" y="1150.56078977" x="264.108269133">
Client:DressFormLg</text>
        <text style="font-size:12; vertical-align:top; fill-opacity:1.0; fill:#000000; text-anchor:start; stroke:none; font-weight:normal; font-style:normal; text-align:right; " transform="" id="C.info.lineMR_B1" y="1164.96078977" x="264.108269133">
MR_B1</text>
        <text style="font-size:12; vertical-align:top; fill-opacity:1.0; fill:#000000; text-anchor:start; stroke:none; font-weight:normal; font-style:normal; text-align:right; " transform="" id="C.info.linePattern Piece C" y="1179.36078977" x="264.108269133">
Pattern Piece C</text>
        <text style="font-size:12; vertical-align:top; fill-opacity:1.0; fill:#000000; text-anchor:start; stroke:none; font-weight:normal; font-style:normal; text-align:right; " transform="" id="C.info.lineCut 2 Fabric" y="1193.76078977" x="264.108269133">
Cut 2 Fabric</text>
      </g>
    </g>
  </g>
  <g inkscape:label="Label-notes" id="notes" inkscape:groupmode="layer" transform="translate(88.582677,88.582677)">
    <g id="document.titleblock">
      <text style="font-size:40; vertical-align:top; fill-opacity:1.0; fill:#000000; text-anchor:right; stroke:none; font-weight:normal; font-style:normal; text-align:right; " transform="" id="company" y="0.0" x="0.0">
Epic Patterns</text>
      <text style="font-size:40; vertical-align:top; fill-opacity:1.0; fill:#000000; text-anchor:right; stroke:none; font-weight:normal; font-style:normal; text-align:right; " transform="" id="designer" y="44.0" x="0.0">
S.L.Spencer</text>
      <text style="font-size:40; vertical-align:top; fill-opacity:1.0; fill:#000000; text-anchor:right; stroke:none; font-weight:normal; font-style:normal; text-align:right; " transform="" id="pattern_number" y="88.0" x="0.0">
MR_B1</text>
      <text style="font-size:40; vertical-align:top; fill-opacity:1.0; fill:#000000; text-anchor:right; stroke:none; font-weight:normal; font-style:normal; text-align:right; " transform="" id="pattern_name" y="132.0" x="0.0">
New Bodice - Short</text>
      <text style="font-size:40; vertical-align:top; fill-opacity:1.0; fill:#000000; text-anchor:right; stroke:none; font-weight:normal; font-style:normal; text-align:right; " transform="" id="client" y="176.0" x="0.0">
DressFormLg</text>
    </g>
    <g id="document.testgrid">
      <path style="stroke-linejoin:miter; stroke:green; stroke-width:4; stroke-miterlimit:4; fill:none; " d="M 1320.0  0.0 L 1320.0  212.598425197 M 1355.43307087  0.0 L 1355.43307087  212.598425197 M 1390.86614173  0.0 L 1390.86614173  212.598425197 M 1426.2992126  0.0 L 1426.2992126  212.598425197 M 1461.73228346  0.0 L 1461.73228346  212.598425197 M 1497.16535433  0.0 L 1497.16535433  212.598425197 M 1532.5984252  0.0 L 1532.5984252  212.598425197 M 1320.0  0.0 L 1532.5984252  0.0 M 1320.0  35.4330708661 L 1532.5984252  35.4330708661 M 1320.0  70.8661417323 L 1532.5984252  70.8661417323 M 1320.0  106.299212598 L 1532.5984252  106.299212598 M 1320.0  141.732283465 L 1532.5984252  141.732283465 M 1320.0  177.165354331 L 1532.5984252  177.165354331 M 1320.0  212.598425197 L 1532.5984252  212.598425197 M 1709.76377953  0.0 L 1709.76377953  270.0 M 1799.76377953  0.0 L 1799.76377953  270.0 M 1889.76377953  0.0 L 1889.76377953  270.0 M 1979.76377953  0.0 L 1979.76377953  270.0 M 1709.76377953  0.0 L 1979.76377953  0.0 M 1709.76377953  90.0 L 1979.76377953  90.0 M 1709.76377953  180.0 L 1979.76377953  180.0 M 1709.76377953  270.0 L 1979.76377953  270.0 " id="testgrid" />
    </g>
    <g id="document.bodice.Bodice Front.notes" transform=" translate(58.750000, 757.717638)" />
    <g id="document.bodice.Bodice Back.notes" transform=" translate(2377.559789, 580.552283)" />
    <g id="document.bodice.Bodice Sleeve.notes" transform=" translate(899.564887, 2256.089830)" />
  </g>
  <g inkscape:label="Label-reference" id="reference" inkscape:groupmode="layer" transform="translate(88.582677,88.582677)">
    <g id="document.bodice.Bodice Front.reference" transform=" translate(58.750000, 757.717638)">
      <circle style="stroke:gray; stroke-width:1; fill:none; " transform="" cy="0.0" cx="160.146981797" r="5" id="A.FNC.inpoint" d="M 165.14699,0 C 165.14699,2.7614237 162.90841,5 160.14699,5 157.38556,5 155.14699,2.7614237 155.14699,0 155.14699,-2.7614237 157.38556,-5 160.14699,-5 162.90841,-5 165.14699,-2.7614237 165.14699,0 z" />
      <text style="font-size:25; vertical-align:top; fill-opacity:1.0; fill:gray; text-anchor:right; stroke:none; font-weight:normal; font-style:italic; text-align:right; " transform="" id="A.FNC.inpoint.text" y="-7.0" x="167.146981797">
FNC.in</text>
      <circle style="stroke:red; stroke-width:1; fill:red; " transform="" cy="0.0" cx="0.0" r="5" id="A.FNC" d="M 5,0 C 5,2.7614237 2.7614237,5 0,5 -2.7614237,5 -5,2.7614237 -5,0 -5,-2.7614237 -2.7614237,-5 0,-5 2.7614237,-5 5,-2.7614237 5,0 z" />
      <text style="font-size:30; vertical-align:top; fill-opacity:1.0; fill:darkblue; text-anchor:right; stroke:none; font-weight:normal; font-style:italic; text-align:right; " transform="" id="A.FNC.text" y="-7.0" x="7.0">
FNC</text>
      <circle style="stroke:gray; stroke-width:1; fill:none; " transform="" cy="1240.15748031" cx="133.896167549" r="5" id="A.FWC.outpoint" d="M 138.89616,1240.1575 C 138.89616,1242.9189 136.65759,1245.1575 133.89616,1245.1575 131.13474,1245.1575 128.89616,1242.9189 128.89616,1240.1575 128.89616,1237.396 131.13474,1235.1575 133.89616,1235.1575 136.65759,1235.1575 138.89616,1237.396 138.89616,1240.1575 z" />
      <text style="font-size:25; vertical-align:top; fill-opacity:1.0; fill:gray; text-anchor:right; stroke:none; font-weight:normal; font-style:italic; text-align:right; " transform="" id="A.FWC.outpoint.text" y="1233.15748031" x="140.896167549">
FWC.out</text>
      <circle style="stroke:red; stroke-width:1; fill:red; " transform="" cy="1240.15748031" cx="0.0" r="5" id="A.FWC" d="M 5,1240.1575 C 5,1242.9189 2.7614237,1245.1575 0,1245.1575 -2.7614237,1245.1575 -5,1242.9189 -5,1240.1575 -5,1237.396 -2.7614237,1235.1575 0,1235.1575 2.7614237,1235.1575 5,1237.396 5,1240.1575 z" />
      <text style="font-size:30; vertical-align:top; fill-opacity:1.0; fill:darkblue; text-anchor:right; stroke:none; font-weight:normal; font-style:italic; text-align:right; " transform="" id="A.FWC.text" y="1233.15748031" x="7.0">
FWC</text>
      <circle style="stroke:red; stroke-width:1; fill:red; " transform="" cy="-318.897637795" cx="0.0" r="5" id="A.FSH" d="M 5,-318.89764 C 5,-316.13622 2.7614237,-313.89764 0,-313.89764 -2.7614237,-313.89764 -5,-316.13622 -5,-318.89764 -5,-321.65907 -2.7614237,-323.89764 0,-323.89764 2.7614237,-323.89764 5,-321.65907 5,-318.89764 z" />
      <text style="font-size:30; vertical-align:top; fill-opacity:1.0; fill:darkblue; text-anchor:right; stroke:none; font-weight:normal; font-style:italic; text-align:right; " transform="" id="A.FSH.text" y="-325.897637795" x="7.0">
FSH</text>
      <circle style="stroke:red; stroke-width:1; fill:red; " transform="" cy="-318.897637795" cx="717.519685039" r="5" id="A.FSW" d="M 722.51971,-318.89764 C 722.51971,-316.13622 720.28114,-313.89764 717.51971,-313.89764 714.75829,-313.89764 712.51971,-316.13622 712.51971,-318.89764 712.51971,-321.65907 714.75829,-323.89764 717.51971,-323.89764 720.28114,-323.89764 722.51971,-321.65907 722.51971,-318.89764 z" />
      <text style="font-size:30; vertical-align:top; fill-opacity:1.0; fill:darkblue; text-anchor:right; stroke:none; font-weight:normal; font-style:italic; text-align:right; " transform="" id="A.FSW.text" y="-325.897637795" x="724.519685039">
FSW</text>
      <circle style="stroke:gray; stroke-width:1; fill:none; " transform="" cy="-143.504287858" cx="700.589615123" r="5" id="A.FSP.inpoint" d="M 705.5896,-143.50429 C 705.5896,-140.74286 703.35102,-138.50429 700.5896,-138.50429 697.82818,-138.50429 695.5896,-140.74286 695.5896,-143.50429 695.5896,-146.26571 697.82818,-148.50429 700.5896,-148.50429 703.35102,-148.50429 705.5896,-146.26571 705.5896,-143.50429 z" />
      <text style="font-size:25; vertical-align:top; fill-opacity:1.0; fill:gray; text-anchor:right; stroke:none; font-weight:normal; font-style:italic; text-align:right; " transform="" id="A.FSP.inpoint.text" y="-150.504287858" x="707.589615123">
FSP.in</text>
      <circle style="stroke:red; stroke-width:1; fill:red; " transform="" cy="-223.334513127" cx="717.519685039" r="5" id="A.FSP" d="M 722.51971,-223.33452 C 722.51971,-220.57309 720.28114,-218.33452 717.51971,-218.33452 714.75829,-218.33452 712.51971,-220.57309 712.51971,-223.33452 712.51971,-226.09594 714.75829,-228.33452 717.51971,-228.33452 720.28114,-228.33452 722.51971,-226.09594 722.51971,-223.33452 z" />
      <text style="font-size:30; vertical-align:top; fill-opacity:1.0; fill:darkblue; text-anchor:right; stroke:none; font-weight:normal; font-style:italic; text-align:right; " transform="" id="A.FSP.text" y="-230.334513127" x="724.519685039">
FSP</text>
      <circle style="stroke:gray; stroke-width:1; fill:none; " transform="" cy="-162.917928626" cx="233.832093174" r="5" id="A.FNS.outpoint" d="M 238.83209,-162.91792 C 238.83209,-160.1565 236.59352,-157.91792 233.83209,-157.91792 231.07067,-157.91792 228.83209,-160.1565 228.83209,-162.91792 228.83209,-165.67935 231.07067,-167.91792 233.83209,-167.91792 236.59352,-167.91792 238.83209,-165.67935 238.83209,-162.91792 z" />
      <text style="font-size:25; vertical-align:top; fill-opacity:1.0; fill:gray; text-anchor:right; stroke:none; font-weight:normal; font-style:italic; text-align:right; " transform="" id="A.FNS.outpoint.text" y="-169.917928626" x="240.832093174">
FNS.out</text>
      <circle style="stroke:red; stroke-width:1; fill:red; " transform="" cy="-318.897637795" cx="266.911636328" r="5" id="A.FNS" d="M 271.91162,-318.89764 C 271.91162,-316.13622 269.67304,-313.89764 266.91162,-313.89764 264.1502,-313.89764 261.91162,-316.13622 261.91162,-318.89764 261.91162,-321.65907 264.1502,-323.89764 266.91162,-323.89764 269.67304,-323.89764 271.91162,-321.65907 271.91162,-318.89764 z" />
      <text style="font-size:30; vertical-align:top; fill-opacity:1.0; fill:darkblue; text-anchor:right; stroke:none; font-weight:normal; font-style:italic; text-align:right; " transform="" id="A.FNS.text" y="-325.897637795" x="273.911636328">
FNS</text>
      <circle style="stroke:red; stroke-width:1; fill:red; " transform="" cy="318.897637795" cx="0.0" r="5" id="A.FUC" d="M 5,318.89764 C 5,321.65907 2.7614237,323.89764 0,323.89764 -2.7614237,323.89764 -5,321.65907 -5,318.89764 -5,316.13622 -2.7614237,313.89764 0,313.89764 2.7614237,313.89764 5,316.13622 5,318.89764 z" />
      <text style="font-size:30; vertical-align:top; fill-opacity:1.0; fill:darkblue; text-anchor:right; stroke:none; font-weight:normal; font-style:italic; text-align:right; " transform="" id="A.FUC.text" y="311.897637795" x="7.0">
FUC</text>
      <circle style="stroke:red; stroke-width:1; fill:red; " transform="" cy="637.795275591" cx="0.0" r="5" id="A.FBC" d="M 5,637.79529 C 5,640.55671 2.7614237,642.79529 0,642.79529 -2.7614237,642.79529 -5,640.55671 -5,637.79529 -5,635.03386 -2.7614237,632.79529 0,632.79529 2.7614237,632.79529 5,635.03386 5,637.79529 z" />
      <text style="font-size:30; vertical-align:top; fill-opacity:1.0; fill:darkblue; text-anchor:right; stroke:none; font-weight:normal; font-style:italic; text-align:right; " transform="" id="A.FBC.text" y="630.795275591" x="7.0">
FBC</text>
      <circle style="stroke:red; stroke-width:1; fill:red; " transform="" cy="637.795275591" cx="354.330708661" r="5" id="A.FBP" d="M 359.33072,637.79529 C 359.33072,640.55671 357.09214,642.79529 354.33072,642.79529 351.5693,642.79529 349.33072,640.55671 349.33072,637.79529 349.33072,635.03386 351.5693,632.79529 354.33072,632.79529 357.09214,632.79529 359.33072,635.03386 359.33072,637.79529 z" />
      <text style="font-size:30; vertical-align:top; fill-opacity:1.0; fill:darkblue; text-anchor:right; stroke:none; font-weight:normal; font-style:italic; text-align:right; " transform="" id="A.FBP.text" y="630.795275591" x="361.330708661">
FBP</text>
      <circle style="stroke:gray; stroke-width:1; fill:none; " transform="" cy="421.42614887" cx="738.545618172" r="5" id="A.FAP.inpoint" d="M 743.54559,421.42615 C 743.54559,424.18757 741.30702,426.42615 738.54559,426.42615 735.78417,426.42615 733.54559,424.18757 733.54559,421.42615 733.54559,418.66472 735.78417,416.42615 738.54559,416.42615 741.30702,416.42615 743.54559,418.66472 743.54559,421.42615 z" />
      <text style="font-size:25; vertical-align:top; fill-opacity:1.0; fill:gray; text-anchor:right; stroke:none; font-weight:normal; font-style:italic; text-align:right; " transform="" id="A.FAP.inpoint.text" y="414.42614887" x="745.545618172">
FAP.in</text>
      <circle style="stroke:gray; stroke-width:1; fill:none; " transform="" cy="167.481010918" cx="576.766193088" r="5" id="A.FAP.outpoint" d="M 581.76617,167.48102 C 581.76617,170.24244 579.5276,172.48102 576.76617,172.48102 574.00475,172.48102 571.76617,170.24244 571.76617,167.48102 571.76617,164.71959 574.00475,162.48102 576.76617,162.48102 579.5276,162.48102 581.76617,164.71959 581.76617,167.48102 z" />
      <text style="font-size:25; vertical-align:top; fill-opacity:1.0; fill:gray; text-anchor:right; stroke:none; font-weight:normal; font-style:italic; text-align:right; " transform="" id="A.FAP.outpoint.text" y="160.481010918" x="583.766193088">
FAP.out</text>
      <circle style="stroke:red; stroke-width:1; fill:red; " transform="" cy="318.897637795" cx="673.228346457" r="5" id="A.FAP" d="M 678.22833,318.89764 C 678.22833,321.65907 675.98976,323.89764 673.22833,323.89764 670.46691,323.89764 668.22833,321.65907 668.22833,318.89764 668.22833,316.13622 670.46691,313.89764 673.22833,313.89764 675.98976,313.89764 678.22833,316.13622 678.22833,318.89764 z" />
      <text style="font-size:30; vertical-align:top; fill-opacity:1.0; fill:darkblue; text-anchor:right; stroke:none; font-weight:normal; font-style:italic; text-align:right; " transform="" id="A.FAP.text" y="311.897637795" x="680.228346457">
FAP</text>
      <circle style="stroke:red; stroke-width:1; fill:red; " transform="" cy="318.897637795" cx="921.25984252" r="5" id="A.f1" d="M 926.25983,318.89764 C 926.25983,321.65907 924.02125,323.89764 921.25983,323.89764 918.4984,323.89764 916.25983,321.65907 916.25983,318.89764 916.25983,316.13622 918.4984,313.89764 921.25983,313.89764 924.02125,313.89764 926.25983,316.13622 926.25983,318.89764 z" />
      <text style="font-size:30; vertical-align:top; fill-opacity:1.0; fill:darkblue; text-anchor:right; stroke:none; font-weight:normal; font-style:italic; text-align:right; " transform="" id="A.f1.text" y="311.897637795" x="928.25984252">
f1</text>
      <circle style="stroke:red; stroke-width:1; fill:red; " transform="" cy="440.379318512" cx="960.803917844" r="5" id="A.f2" d="M 965.80389,440.37933 C 965.80389,443.14076 963.56532,445.37933 960.80389,445.37933 958.04247,445.37933 955.80389,443.14076 955.80389,440.37933 955.80389,437.61791 958.04247,435.37933 960.80389,435.37933 963.56532,435.37933 965.80389,437.61791 965.80389,440.37933 z" />
      <text style="font-size:30; vertical-align:top; fill-opacity:1.0; fill:darkblue; text-anchor:right; stroke:none; font-weight:normal; font-style:italic; text-align:right; " transform="" id="A.f2.text" y="433.379318512" x="967.803917844">
f2</text>
      <circle style="stroke:red; stroke-width:1; fill:red; " transform="" cy="992.756759109" cx="1140.61090594" r="5" id="A.f3" d="M 1145.611,992.75677 C 1145.611,995.5182 1143.3724,997.75677 1140.611,997.75677 1137.8495,997.75677 1135.611,995.5182 1135.611,992.75677 1135.611,989.99535 1137.8495,987.75677 1140.611,987.75677 1143.3724,987.75677 1145.611,989.99535 1145.611,992.75677 z" />
      <text style="font-size:30; vertical-align:top; fill-opacity:1.0; fill:darkblue; text-anchor:right; stroke:none; font-weight:normal; font-style:italic; text-align:right; " transform="" id="A.f3.text" y="985.756759109" x="1147.61090594">
f3</text>
      <circle style="stroke:red; stroke-width:1; fill:red; " transform="" cy="1240.15748031" cx="354.330708661" r="5" id="A.f4" d="M 359.33072,1240.1575 C 359.33072,1242.9189 357.09214,1245.1575 354.33072,1245.1575 351.5693,1245.1575 349.33072,1242.9189 349.33072,1240.1575 349.33072,1237.396 351.5693,1235.1575 354.33072,1235.1575 357.09214,1235.1575 359.33072,1237.396 359.33072,1240.1575 z" />
      <text style="font-size:30; vertical-align:top; fill-opacity:1.0; fill:darkblue; text-anchor:right; stroke:none; font-weight:normal; font-style:italic; text-align:right; " transform="" id="A.f4.text" y="1233.15748031" x="361.330708661">
f4</text>
      <circle style="stroke:red; stroke-width:1; fill:red; " transform="" cy="1150.61284812" cx="670.334447545" r="5" id="A.f5" d="M 675.33447,1150.6128 C 675.33447,1153.3742 673.0959,1155.6128 670.33447,1155.6128 667.57305,1155.6128 665.33447,1153.3742 665.33447,1150.6128 665.33447,1147.8514 667.57305,1145.6128 670.33447,1145.6128 673.0959,1145.6128 675.33447,1147.8514 675.33447,1150.6128 z" />
      <text style="font-size:30; vertical-align:top; fill-opacity:1.0; fill:darkblue; text-anchor:right; stroke:none; font-weight:normal; font-style:italic; text-align:right; " transform="" id="A.f5.text" y="1143.61284812" x="677.334447545">
f5</text>
      <circle style="stroke:red; stroke-width:1; fill:red; " transform="" cy="414.890724943" cx="1039.10634774" r="5" id="A.FBS" d="M 1044.1063,414.89072 C 1044.1063,417.65214 1041.8677,419.89072 1039.1063,419.89072 1036.3449,419.89072 1034.1063,417.65214 1034.1063,414.89072 1034.1063,412.12929 1036.3449,409.89072 1039.1063,409.89072 1041.8677,409.89072 1044.1063,412.12929 1044.1063,414.89072 z" />
      <text style="font-size:30; vertical-align:top; fill-opacity:1.0; fill:darkblue; text-anchor:right; stroke:none; font-weight:normal; font-style:italic; text-align:right; " transform="" id="A.FBS.text" y="407.890724943" x="1046.10634774">
FBS</text>
      <circle style="stroke:red; stroke-width:1; fill:red; " transform="" cy="976.305429353" cx="1191.15034004" r="5" id="A.f6" d="M 1196.1504,976.30542 C 1196.1504,979.06684 1193.9118,981.30542 1191.1504,981.30542 1188.389,981.30542 1186.1504,979.06684 1186.1504,976.30542 1186.1504,973.544 1188.389,971.30542 1191.1504,971.30542 1193.9118,971.30542 1196.1504,973.544 1196.1504,976.30542 z" />
      <text style="font-size:30; vertical-align:top; fill-opacity:1.0; fill:darkblue; text-anchor:right; stroke:none; font-weight:normal; font-style:italic; text-align:right; " transform="" id="A.f6.text" y="969.305429353" x="1198.15034004">
f6</text>
      <circle style="stroke:red; stroke-width:1; fill:red; " transform="" cy="292.284950312" cx="1005.90188889" r="5" id="A.f7" d="M 1010.9019,292.28494 C 1010.9019,295.04637 1008.6633,297.28494 1005.9019,297.28494 1003.1405,297.28494 1000.9019,295.04637 1000.9019,292.28494 1000.9019,289.52352 1003.1405,287.28494 1005.9019,287.28494 1008.6633,287.28494 1010.9019,289.52352 1010.9019,292.28494 z" />
      <text style="font-size:30; vertical-align:top; fill-opacity:1.0; fill:darkblue; text-anchor:right; stroke:none; font-weight:normal; font-style:italic; text-align:right; " transform="" id="A.f7.text" y="285.284950312" x="1012.90188889">
f7</text>
      <circle style="stroke:gray; stroke-width:1; fill:none; " transform="" cy="440.498153899" cx="893.572200606" r="5" id="A.FUS.outpoint" d="M 898.5722,440.49817 C 898.5722,443.25959 896.33363,445.49817 893.5722,445.49817 890.81078,445.49817 888.5722,443.25959 888.5722,440.49817 888.5722,437.73675 890.81078,435.49817 893.5722,435.49817 896.33363,435.49817 898.5722,437.73675 898.5722,440.49817 z" />
      <text style="font-size:25; vertical-align:top; fill-opacity:1.0; fill:gray; text-anchor:right; stroke:none; font-weight:normal; font-style:italic; text-align:right; " transform="" id="A.FUS.outpoint.text" y="433.498153899" x="900.572200606">
FUS.out</text>
      <circle style="stroke:red; stroke-width:1; fill:red; " transform="" cy="394.888022168" cx="1033.68915656" r="5" id="A.FUS" d="M 1038.6892,394.88803 C 1038.6892,397.64945 1036.4506,399.88803 1033.6892,399.88803 1030.9278,399.88803 1028.6892,397.64945 1028.6892,394.88803 1028.6892,392.12661 1030.9278,389.88803 1033.6892,389.88803 1036.4506,389.88803 1038.6892,392.12661 1038.6892,394.88803 z" />
      <text style="font-size:30; vertical-align:top; fill-opacity:1.0; fill:darkblue; text-anchor:right; stroke:none; font-weight:normal; font-style:italic; text-align:right; " transform="" id="A.FUS.text" y="387.888022168" x="1040.68915656">
FUS</text>
      <circle style="stroke:gray; stroke-width:1; fill:none; " transform="" cy="1200.34462532" cx="859.624375018" r="5" id="A.FWS.inpoint" d="M 864.62439,1200.3446 C 864.62439,1203.106 862.38581,1205.3446 859.62439,1205.3446 856.86297,1205.3446 854.62439,1203.106 854.62439,1200.3446 854.62439,1197.5832 856.86297,1195.3446 859.62439,1195.3446 862.38581,1195.3446 864.62439,1197.5832 864.62439,1200.3446 z" />
      <text style="font-size:25; vertical-align:top; fill-opacity:1.0; fill:gray; text-anchor:right; stroke:none; font-weight:normal; font-style:italic; text-align:right; " transform="" id="A.FWS.inpoint.text" y="1193.34462532" x="866.624375018">
FWS.in</text>
      <circle style="stroke:red; stroke-width:1; fill:red; " transform="" cy="1191.62550743" cx="1067.16189061" r="5" id="A.FWS" d="M 1072.1619,1191.6255 C 1072.1619,1194.3869 1069.9233,1196.6255 1067.1619,1196.6255 1064.4004,1196.6255 1062.1619,1194.3869 1062.1619,1191.6255 1062.1619,1188.8641 1064.4004,1186.6255 1067.1619,1186.6255 1069.9233,1186.6255 1072.1619,1188.8641 1072.1619,1191.6255 z" />
      <text style="font-size:30; vertical-align:top; fill-opacity:1.0; fill:darkblue; text-anchor:right; stroke:none; font-weight:normal; font-style:italic; text-align:right; " transform="" id="A.FWS.text" y="1184.62550743" x="1074.16189061">
FWS</text>
      <circle style="stroke:red; stroke-width:1; fill:red; " transform="" cy="637.795275591" cx="443.747905788" r="5" id="A.FD2" d="M 448.74789,637.79529 C 448.74789,640.55671 446.50932,642.79529 443.74789,642.79529 440.98647,642.79529 438.74789,640.55671 438.74789,637.79529 438.74789,635.03386 440.98647,632.79529 443.74789,632.79529 446.50932,632.79529 448.74789,635.03386 448.74789,637.79529 z" />
      <text style="font-size:30; vertical-align:top; fill-opacity:1.0; fill:darkblue; text-anchor:right; stroke:none; font-weight:normal; font-style:italic; text-align:right; " transform="" id="A.FD2.text" y="630.795275591" x="450.747905788">
FD2</text>
      <circle style="stroke:red; stroke-width:1; fill:red; " transform="" cy="637.795275591" cx="1104.64533254" r="5" id="A.FD2.i" d="M 1109.6454,637.79529 C 1109.6454,640.55671 1107.4068,642.79529 1104.6454,642.79529 1101.884,642.79529 1099.6454,640.55671 1099.6454,637.79529 1099.6454,635.03386 1101.884,632.79529 1104.6454,632.79529 1107.4068,632.79529 1109.6454,635.03386 1109.6454,637.79529 z" />
      <text style="font-size:30; vertical-align:top; fill-opacity:1.0; fill:darkblue; text-anchor:right; stroke:none; font-weight:normal; font-style:italic; text-align:right; " transform="" id="A.FD2.i.text" y="630.795275591" x="1111.64533254">
FD2.i</text>
      <circle style="stroke:red; stroke-width:1; fill:red; " transform="" cy="841.355455712" cx="1072.5154795" r="5" id="A.FD2.o" d="M 1077.5155,841.35547 C 1077.5155,844.11689 1075.2769,846.35547 1072.5155,846.35547 1069.7541,846.35547 1067.5155,844.11689 1067.5155,841.35547 1067.5155,838.59405 1069.7541,836.35547 1072.5155,836.35547 1075.2769,836.35547 1077.5155,838.59405 1077.5155,841.35547 z" />
      <text style="font-size:30; vertical-align:top; fill-opacity:1.0; fill:darkblue; text-anchor:right; stroke:none; font-weight:normal; font-style:italic; text-align:right; " transform="" id="A.FD2.o.text" y="834.355455712" x="1079.5154795">
FD2.o</text>
      <circle style="stroke:red; stroke-width:1; fill:red; " transform="" cy="1240.15748031" cx="270.633997225" r="5" id="A.f8" d="M 275.634,1240.1575 C 275.634,1242.9189 273.39543,1245.1575 270.634,1245.1575 267.87258,1245.1575 265.634,1242.9189 265.634,1240.1575 265.634,1237.396 267.87258,1235.1575 270.634,1235.1575 273.39543,1235.1575 275.634,1237.396 275.634,1240.1575 z" />
      <text style="font-size:30; vertical-align:top; fill-opacity:1.0; fill:darkblue; text-anchor:right; stroke:none; font-weight:normal; font-style:italic; text-align:right; " transform="" id="A.f8.text" y="1233.15748031" x="277.633997225">
f8</text>
      <circle style="stroke:red; stroke-width:1; fill:red; " transform="" cy="1240.15748031" cx="438.027420098" r="5" id="A.f9" d="M 443.02744,1240.1575 C 443.02744,1242.9189 440.78886,1245.1575 438.02744,1245.1575 435.26601,1245.1575 433.02744,1242.9189 433.02744,1240.1575 433.02744,1237.396 435.26601,1235.1575 438.02744,1235.1575 440.78886,1235.1575 443.02744,1237.396 443.02744,1240.1575 z" />
      <text style="font-size:30; vertical-align:top; fill-opacity:1.0; fill:darkblue; text-anchor:right; stroke:none; font-weight:normal; font-style:italic; text-align:right; " transform="" id="A.f9.text" y="1233.15748031" x="445.027420098">
f9</text>
      <circle style="stroke:red; stroke-width:1; fill:red; " transform="" cy="710.078740157" cx="354.330708661" r="5" id="A.FD1" d="M 359.33072,710.07874 C 359.33072,712.84016 357.09214,715.07874 354.33072,715.07874 351.5693,715.07874 349.33072,712.84016 349.33072,710.07874 349.33072,707.31731 351.5693,705.07874 354.33072,705.07874 357.09214,705.07874 359.33072,707.31731 359.33072,710.07874 z" />
      <text style="font-size:30; vertical-align:top; fill-opacity:1.0; fill:darkblue; text-anchor:right; stroke:none; font-weight:normal; font-style:italic; text-align:right; " transform="" id="A.FD1.text" y="703.078740157" x="361.330708661">
FD1</text>
      <circle style="stroke:gray; stroke-width:1; fill:none; " transform="" cy="1259.91844849" cx="226.847353522" r="5" id="A.FD1.i.inpoint" d="M 231.84735,1259.9185 C 231.84735,1262.6799 229.60877,1264.9185 226.84735,1264.9185 224.08593,1264.9185 221.84735,1262.6799 221.84735,1259.9185 221.84735,1257.157 224.08593,1254.9185 226.84735,1254.9185 229.60877,1254.9185 231.84735,1257.157 231.84735,1259.9185 z" />
      <text style="font-size:25; vertical-align:top; fill-opacity:1.0; fill:gray; text-anchor:right; stroke:none; font-weight:normal; font-style:italic; text-align:right; " transform="" id="A.FD1.i.inpoint.text" y="1252.91844849" x="233.847353522">
FD1.i.in</text>
      <circle style="stroke:red; stroke-width:1; fill:red; " transform="" cy="1266.18329074" cx="266.524655386" r="5" id="A.FD1.i" d="M 271.52466,1266.1833 C 271.52466,1268.9448 269.28608,1271.1833 266.52466,1271.1833 263.76323,1271.1833 261.52466,1268.9448 261.52466,1266.1833 261.52466,1263.4219 263.76323,1261.1833 266.52466,1261.1833 269.28608,1261.1833 271.52466,1263.4219 271.52466,1266.1833 z" />
      <text style="font-size:30; vertical-align:top; fill-opacity:1.0; fill:darkblue; text-anchor:right; stroke:none; font-weight:normal; font-style:italic; text-align:right; " transform="" id="A.FD1.i.text" y="1259.18329074" x="273.524655386">
FD1.i</text>
      <circle style="stroke:gray; stroke-width:1; fill:none; " transform="" cy="1233.78662722" cx="647.315463535" r="5" id="A.FD1.o.outpoint" d="M 652.31549,1233.7866 C 652.31549,1236.548 650.07691,1238.7866 647.31549,1238.7866 644.55407,1238.7866 642.31549,1236.548 642.31549,1233.7866 642.31549,1231.0252 644.55407,1228.7866 647.31549,1228.7866 650.07691,1228.7866 652.31549,1231.0252 652.31549,1233.7866 z" />
      <text style="font-size:25; vertical-align:top; fill-opacity:1.0; fill:gray; text-anchor:right; stroke:none; font-weight:normal; font-style:italic; text-align:right; " transform="" id="A.FD1.o.outpoint.text" y="1226.78662722" x="654.315463535">
FD1.o.out</text>
      <circle style="stroke:red; stroke-width:1; fill:red; " transform="" cy="1266.18329074" cx="442.136761937" r="5" id="A.FD1.o" d="M 447.13675,1266.1833 C 447.13675,1268.9448 444.89817,1271.1833 442.13675,1271.1833 439.37533,1271.1833 437.13675,1268.9448 437.13675,1266.1833 437.13675,1263.4219 439.37533,1261.1833 442.13675,1261.1833 444.89817,1261.1833 447.13675,1263.4219 447.13675,1266.1833 z" />
      <text style="font-size:30; vertical-align:top; fill-opacity:1.0; fill:darkblue; text-anchor:right; stroke:none; font-weight:normal; font-style:italic; text-align:right; " transform="" id="A.FD1.o.text" y="1259.18329074" x="449.136761937">
FD1.o</text>
      <path style="stroke-linejoin:miter; stroke-dashoffset:0; stroke:gray; stroke-miterlimit:4; stroke-dasharray:6,6; stroke-width:2; fill:none; " transform="" d="M 0.0  1240.15748031 L 717.519685039  -223.334513127 L 717.519685039  -318.897637795 L 0.0  -318.897637795 L 0.0  0.0 M 0.0  637.795275591 L 354.330708661  637.795275591 L 1039.10634774  414.890724943 M 0.0  318.897637795 L 921.25984252  318.897637795 L 1005.90188889  292.284950312 L 1191.15034004  976.305429353 L 1140.61090594  992.756759109 L 921.25984252  318.897637795 " id="A.gridline" />
    </g>
    <g id="document.bodice.Bodice Back.reference" transform=" translate(2377.559789, 580.552283)">
      <circle style="stroke:gray; stroke-width:1; fill:none; " transform="" cy="0.0" cx="-213.353231784" r="5" id="B.BNC.inpoint" d="M -208.35323,0 C -208.35323,2.7614237 -210.5918,5 -213.35323,5 -216.11465,5 -218.35323,2.7614237 -218.35323,0 -218.35323,-2.7614237 -216.11465,-5 -213.35323,-5 -210.5918,-5 -208.35323,-2.7614237 -208.35323,0 z" />
      <text style="font-size:25; vertical-align:top; fill-opacity:1.0; fill:gray; text-anchor:right; stroke:none; font-weight:normal; font-style:italic; text-align:right; " transform="" id="B.BNC.inpoint.text" y="-7.0" x="-206.353231784">
BNC.in</text>
      <circle style="stroke:red; stroke-width:1; fill:red; " transform="" cy="0.0" cx="0.0" r="5" id="B.BNC" d="M 5,0 C 5,2.7614237 2.7614237,5 0,5 -2.7614237,5 -5,2.7614237 -5,0 -5,-2.7614237 -2.7614237,-5 0,-5 2.7614237,-5 5,-2.7614237 5,0 z" />
      <text style="font-size:30; vertical-align:top; fill-opacity:1.0; fill:darkblue; text-anchor:right; stroke:none; font-weight:normal; font-style:italic; text-align:right; " transform="" id="B.BNC.text" y="-7.0" x="7.0">
BNC</text>
      <circle style="stroke:gray; stroke-width:1; fill:none; " transform="" cy="1346.45669291" cx="-232.599241729" r="5" id="B.BWC.outpoint" d="M -227.59924,1346.4567 C -227.59924,1349.2181 -229.83782,1351.4567 -232.59924,1351.4567 -235.36067,1351.4567 -237.59924,1349.2181 -237.59924,1346.4567 -237.59924,1343.6952 -235.36067,1341.4567 -232.59924,1341.4567 -229.83782,1341.4567 -227.59924,1343.6952 -227.59924,1346.4567 z" />
      <text style="font-size:25; vertical-align:top; fill-opacity:1.0; fill:gray; text-anchor:right; stroke:none; font-weight:normal; font-style:italic; text-align:right; " transform="" id="B.BWC.outpoint.text" y="1339.45669291" x="-225.599241729">
BWC.out</text>
      <circle style="stroke:red; stroke-width:1; fill:red; " transform="" cy="1346.45669291" cx="0.0" r="5" id="B.BWC" d="M 5,1346.4567 C 5,1349.2181 2.7614237,1351.4567 0,1351.4567 -2.7614237,1351.4567 -5,1349.2181 -5,1346.4567 -5,1343.6952 -2.7614237,1341.4567 0,1341.4567 2.7614237,1341.4567 5,1343.6952 5,1346.4567 z" />
      <text style="font-size:30; vertical-align:top; fill-opacity:1.0; fill:darkblue; text-anchor:right; stroke:none; font-weight:normal; font-style:italic; text-align:right; " transform="" id="B.BWC.text" y="1339.45669291" x="7.0">
BWC</text>
      <circle style="stroke:red; stroke-width:1; fill:red; " transform="" cy="-141.732283465" cx="0.0" r="5" id="B.BSH" d="M 5,-141.73228 C 5,-138.97086 2.7614237,-136.73228 0,-136.73228 -2.7614237,-136.73228 -5,-138.97086 -5,-141.73228 -5,-144.49371 -2.7614237,-146.73228 0,-146.73228 2.7614237,-146.73228 5,-144.49371 5,-141.73228 z" />
      <text style="font-size:30; vertical-align:top; fill-opacity:1.0; fill:darkblue; text-anchor:right; stroke:none; font-weight:normal; font-style:italic; text-align:right; " transform="" id="B.BSH.text" y="-148.732283465" x="7.0">
BSH</text>
      <circle style="stroke:red; stroke-width:1; fill:red; " transform="" cy="-141.732283465" cx="-708.661417323" r="5" id="B.BSW" d="M -703.66144,-141.73228 C -703.66144,-138.97086 -705.90001,-136.73228 -708.66144,-136.73228 -711.42286,-136.73228 -713.66144,-138.97086 -713.66144,-141.73228 -713.66144,-144.49371 -711.42286,-146.73228 -708.66144,-146.73228 -705.90001,-146.73228 -703.66144,-144.49371 -703.66144,-141.73228 z" />
      <text style="font-size:30; vertical-align:top; fill-opacity:1.0; fill:darkblue; text-anchor:right; stroke:none; font-weight:normal; font-style:italic; text-align:right; " transform="" id="B.BSW.text" y="-148.732283465" x="-701.661417323">
BSW</text>
      <circle style="stroke:gray; stroke-width:1; fill:none; " transform="" cy="121.148427062" cx="-673.392103074" r="5" id="B.BSP.inpoint" d="M -668.39209,121.14843 C -668.39209,123.90985 -670.63067,126.14843 -673.39209,126.14843 -676.15351,126.14843 -678.39209,123.90985 -678.39209,121.14843 -678.39209,118.38701 -676.15351,116.14843 -673.39209,116.14843 -670.63067,116.14843 -668.39209,118.38701 -668.39209,121.14843 z" />
      <text style="font-size:25; vertical-align:top; fill-opacity:1.0; fill:gray; text-anchor:right; stroke:none; font-weight:normal; font-style:italic; text-align:right; " transform="" id="B.BSP.inpoint.text" y="114.148427062" x="-666.392103074">
BSP.in</text>
      <circle style="stroke:red; stroke-width:1; fill:red; " transform="" cy="37.8293872947" cx="-708.661417323" r="5" id="B.BSP" d="M -703.66144,37.829388 C -703.66144,40.590811 -705.90001,42.829388 -708.66144,42.829388 -711.42286,42.829388 -713.66144,40.590811 -713.66144,37.829388 -713.66144,35.067964 -711.42286,32.829388 -708.66144,32.829388 -705.90001,32.829388 -703.66144,35.067964 -703.66144,37.829388 z" />
      <text style="font-size:30; vertical-align:top; fill-opacity:1.0; fill:darkblue; text-anchor:right; stroke:none; font-weight:normal; font-style:italic; text-align:right; " transform="" id="B.BSP.text" y="30.8293872947" x="-701.661417323">
BSP</text>
      <circle style="stroke:gray; stroke-width:1; fill:none; " transform="" cy="-78.3927191927" cx="-252.688753608" r="5" id="B.BNS.outpoint" d="M -247.68875,-78.392715 C -247.68875,-75.631292 -249.92733,-73.392715 -252.68875,-73.392715 -255.45017,-73.392715 -257.68875,-75.631292 -257.68875,-78.392715 -257.68875,-81.154139 -255.45017,-83.392715 -252.68875,-83.392715 -249.92733,-83.392715 -247.68875,-81.154139 -247.68875,-78.392715 z" />
      <text style="font-size:25; vertical-align:top; fill-opacity:1.0; fill:gray; text-anchor:right; stroke:none; font-weight:normal; font-style:italic; text-align:right; " transform="" id="B.BNS.outpoint.text" y="-85.3927191927" x="-245.688753608">
BNS.out</text>
      <circle style="stroke:red; stroke-width:1; fill:red; " transform="" cy="-141.732283465" cx="-284.470975712" r="5" id="B.BNS" d="M -279.47098,-141.73228 C -279.47098,-138.97086 -281.70955,-136.73228 -284.47098,-136.73228 -287.2324,-136.73228 -289.47098,-138.97086 -289.47098,-141.73228 -289.47098,-144.49371 -287.2324,-146.73228 -284.47098,-146.73228 -281.70955,-146.73228 -279.47098,-144.49371 -279.47098,-141.73228 z" />
      <text style="font-size:30; vertical-align:top; fill-opacity:1.0; fill:darkblue; text-anchor:right; stroke:none; font-weight:normal; font-style:italic; text-align:right; " transform="" id="B.BNS.text" y="-148.732283465" x="-277.470975712">
BNS</text>
      <circle style="stroke:red; stroke-width:1; fill:red; " transform="" cy="637.795275591" cx="0.0" r="5" id="B.BUC" d="M 5,637.79529 C 5,640.55671 2.7614237,642.79529 0,642.79529 -2.7614237,642.79529 -5,640.55671 -5,637.79529 -5,635.03386 -2.7614237,632.79529 0,632.79529 2.7614237,632.79529 5,635.03386 5,637.79529 z" />
      <text style="font-size:30; vertical-align:top; fill-opacity:1.0; fill:darkblue; text-anchor:right; stroke:none; font-weight:normal; font-style:italic; text-align:right; " transform="" id="B.BUC.text" y="630.795275591" x="7.0">
BUC</text>
      <circle style="stroke:gray; stroke-width:1; fill:none; " transform="" cy="674.635983285" cx="-663.621970161" r="5" id="B.BAP.inpoint" d="M -658.62195,674.63599 C -658.62195,677.39741 -660.86052,679.63599 -663.62195,679.63599 -666.38337,679.63599 -668.62195,677.39741 -668.62195,674.63599 -668.62195,671.87456 -666.38337,669.63599 -663.62195,669.63599 -660.86052,669.63599 -658.62195,671.87456 -658.62195,674.63599 z" />
      <text style="font-size:25; vertical-align:top; fill-opacity:1.0; fill:gray; text-anchor:right; stroke:none; font-weight:normal; font-style:italic; text-align:right; " transform="" id="B.BAP.inpoint.text" y="667.635983285" x="-656.621970161">
BAP.in</text>
      <circle style="stroke:gray; stroke-width:1; fill:none; " transform="" cy="457.267173678" cx="-562.668021212" r="5" id="B.BAP.outpoint" d="M -557.66803,457.26718 C -557.66803,460.02861 -559.90661,462.26718 -562.66803,462.26718 -565.42945,462.26718 -567.66803,460.02861 -567.66803,457.26718 -567.66803,454.50576 -565.42945,452.26718 -562.66803,452.26718 -559.90661,452.26718 -557.66803,454.50576 -557.66803,457.26718 z" />
      <text style="font-size:25; vertical-align:top; fill-opacity:1.0; fill:gray; text-anchor:right; stroke:none; font-weight:normal; font-style:italic; text-align:right; " transform="" id="B.BAP.outpoint.text" y="450.267173678" x="-555.668021212">
BAP.out</text>
      <circle style="stroke:red; stroke-width:1; fill:red; " transform="" cy="637.795275591" cx="-646.511811024" r="5" id="B.BAP" d="M -641.51184,637.79529 C -641.51184,640.55671 -643.75042,642.79529 -646.51184,642.79529 -649.27326,642.79529 -651.51184,640.55671 -651.51184,637.79529 -651.51184,635.03386 -649.27326,632.79529 -646.51184,632.79529 -643.75042,632.79529 -641.51184,635.03386 -641.51184,637.79529 z" />
      <text style="font-size:30; vertical-align:top; fill-opacity:1.0; fill:darkblue; text-anchor:right; stroke:none; font-weight:normal; font-style:italic; text-align:right; " transform="" id="B.BAP.text" y="630.795275591" x="-639.511811024">
BAP</text>
      <circle style="stroke:red; stroke-width:1; fill:red; " transform="" cy="637.795275591" cx="-956.409448819" r="5" id="B.b1" d="M -951.40942,637.79529 C -951.40942,640.55671 -953.648,642.79529 -956.40942,642.79529 -959.17085,642.79529 -961.40942,640.55671 -961.40942,637.79529 -961.40942,635.03386 -959.17085,632.79529 -956.40942,632.79529 -953.648,632.79529 -951.40942,635.03386 -951.40942,637.79529 z" />
      <text style="font-size:30; vertical-align:top; fill-opacity:1.0; fill:darkblue; text-anchor:right; stroke:none; font-weight:normal; font-style:italic; text-align:right; " transform="" id="B.b1.text" y="630.795275591" x="-949.409448819">
b1</text>
      <circle style="stroke:red; stroke-width:1; fill:red; " transform="" cy="637.795275591" cx="-383.761673202" r="5" id="B.BD1" d="M -378.76169,637.79529 C -378.76169,640.55671 -381.00026,642.79529 -383.76169,642.79529 -386.52311,642.79529 -388.76169,640.55671 -388.76169,637.79529 -388.76169,635.03386 -386.52311,632.79529 -383.76169,632.79529 -381.00026,632.79529 -378.76169,635.03386 -378.76169,637.79529 z" />
      <text style="font-size:30; vertical-align:top; fill-opacity:1.0; fill:darkblue; text-anchor:right; stroke:none; font-weight:normal; font-style:italic; text-align:right; " transform="" id="B.BD1.text" y="630.795275591" x="-376.761673202">
BD1</text>
      <circle style="stroke:red; stroke-width:1; fill:red; " transform="" cy="1346.45669291" cx="-383.761673202" r="5" id="B.b2" d="M -378.76169,1346.4567 C -378.76169,1349.2181 -381.00026,1351.4567 -383.76169,1351.4567 -386.52311,1351.4567 -388.76169,1349.2181 -388.76169,1346.4567 -388.76169,1343.6952 -386.52311,1341.4567 -383.76169,1341.4567 -381.00026,1341.4567 -378.76169,1343.6952 -378.76169,1346.4567 z" />
      <text style="font-size:30; vertical-align:top; fill-opacity:1.0; fill:darkblue; text-anchor:right; stroke:none; font-weight:normal; font-style:italic; text-align:right; " transform="" id="B.b2.text" y="1339.45669291" x="-376.761673202">
b2</text>
      <circle style="stroke:red; stroke-width:1; fill:red; " transform="" cy="1346.45669291" cx="-307.009338562" r="5" id="B.b3" d="M -302.00934,1346.4567 C -302.00934,1349.2181 -304.24791,1351.4567 -307.00934,1351.4567 -309.77076,1351.4567 -312.00934,1349.2181 -312.00934,1346.4567 -312.00934,1343.6952 -309.77076,1341.4567 -307.00934,1341.4567 -304.24791,1341.4567 -302.00934,1343.6952 -302.00934,1346.4567 z" />
      <text style="font-size:30; vertical-align:top; fill-opacity:1.0; fill:darkblue; text-anchor:right; stroke:none; font-weight:normal; font-style:italic; text-align:right; " transform="" id="B.b3.text" y="1339.45669291" x="-300.009338562">
b3</text>
      <circle style="stroke:red; stroke-width:1; fill:red; " transform="" cy="1346.45669291" cx="-460.514007842" r="5" id="B.b4" d="M -455.51401,1346.4567 C -455.51401,1349.2181 -457.75258,1351.4567 -460.51401,1351.4567 -463.27543,1351.4567 -465.51401,1349.2181 -465.51401,1346.4567 -465.51401,1343.6952 -463.27543,1341.4567 -460.51401,1341.4567 -457.75258,1341.4567 -455.51401,1343.6952 -455.51401,1346.4567 z" />
      <text style="font-size:30; vertical-align:top; fill-opacity:1.0; fill:darkblue; text-anchor:right; stroke:none; font-weight:normal; font-style:italic; text-align:right; " transform="" id="B.b4.text" y="1339.45669291" x="-453.514007842">
b4</text>
      <circle style="stroke:gray; stroke-width:1; fill:none; " transform="" cy="1386.62646144" cx="-394.676792851" r="5" id="B.BD1.i.inpoint" d="M -389.67679,1386.6265 C -389.67679,1389.3879 -391.91536,1391.6265 -394.67679,1391.6265 -397.43821,1391.6265 -399.67679,1389.3879 -399.67679,1386.6265 -399.67679,1383.865 -397.43821,1381.6265 -394.67679,1381.6265 -391.91536,1381.6265 -389.67679,1383.865 -389.67679,1386.6265 z" />
      <text style="font-size:25; vertical-align:top; fill-opacity:1.0; fill:gray; text-anchor:right; stroke:none; font-weight:normal; font-style:italic; text-align:right; " transform="" id="B.BD1.i.inpoint.text" y="1379.62646144" x="-387.676792851">
BD1.i.in</text>
      <circle style="stroke:red; stroke-width:1; fill:red; " transform="" cy="1379.11282811" cx="-464.050865579" r="5" id="B.BD1.i" d="M -459.05087,1379.1128 C -459.05087,1381.8742 -461.28945,1384.1128 -464.05087,1384.1128 -466.8123,1384.1128 -469.05087,1381.8742 -469.05087,1379.1128 -469.05087,1376.3514 -466.8123,1374.1128 -464.05087,1374.1128 -461.28945,1374.1128 -459.05087,1376.3514 -459.05087,1379.1128 z" />
      <text style="font-size:30; vertical-align:top; fill-opacity:1.0; fill:darkblue; text-anchor:right; stroke:none; font-weight:normal; font-style:italic; text-align:right; " transform="" id="B.BD1.i.text" y="1372.11282811" x="-457.050865579">
BD1.i</text>
      <circle style="stroke:gray; stroke-width:1; fill:none; " transform="" cy="1313.20662554" cx="-368.124636854" r="5" id="B.BD1.o.outpoint" d="M -363.12463,1313.2067 C -363.12463,1315.9681 -365.36321,1318.2067 -368.12463,1318.2067 -370.88606,1318.2067 -373.12463,1315.9681 -373.12463,1313.2067 -373.12463,1310.4452 -370.88606,1308.2067 -368.12463,1308.2067 -365.36321,1308.2067 -363.12463,1310.4452 -363.12463,1313.2067 z" />
      <text style="font-size:25; vertical-align:top; fill-opacity:1.0; fill:gray; text-anchor:right; stroke:none; font-weight:normal; font-style:italic; text-align:right; " transform="" id="B.BD1.o.outpoint.text" y="1306.20662554" x="-361.124636854">
BD1.o.out</text>
      <circle style="stroke:red; stroke-width:1; fill:red; " transform="" cy="1379.11282811" cx="-303.472480825" r="5" id="B.BD1.o" d="M -298.47247,1379.1128 C -298.47247,1381.8742 -300.71105,1384.1128 -303.47247,1384.1128 -306.2339,1384.1128 -308.47247,1381.8742 -308.47247,1379.1128 -308.47247,1376.3514 -306.2339,1374.1128 -303.47247,1374.1128 -300.71105,1374.1128 -298.47247,1376.3514 -298.47247,1379.1128 z" />
      <text style="font-size:30; vertical-align:top; fill-opacity:1.0; fill:darkblue; text-anchor:right; stroke:none; font-weight:normal; font-style:italic; text-align:right; " transform="" id="B.BD1.o.text" y="1372.11282811" x="-296.472480825">
BD1.o</text>
      <circle style="stroke:gray; stroke-width:1; fill:none; " transform="" cy="1478.72574468" cx="-154.693922736" r="5" id="B.BWS.inpoint" d="M -149.69392,1478.7257 C -149.69392,1481.4871 -151.9325,1483.7257 -154.69392,1483.7257 -157.45535,1483.7257 -159.69392,1481.4871 -159.69392,1478.7257 -159.69392,1475.9643 -157.45535,1473.7257 -154.69392,1473.7257 -151.9325,1473.7257 -149.69392,1475.9643 -149.69392,1478.7257 z" />
      <text style="font-size:25; vertical-align:top; fill-opacity:1.0; fill:gray; text-anchor:right; stroke:none; font-weight:normal; font-style:italic; text-align:right; " transform="" id="B.BWS.inpoint.text" y="1471.72574468" x="-147.693922736">
BWS.in</text>
      <circle style="stroke:red; stroke-width:1; fill:red; " transform="" cy="1179.39706274" cx="-499.388105156" r="5" id="B.BWS" d="M -494.38809,1179.3971 C -494.38809,1182.1585 -496.62667,1184.3971 -499.38809,1184.3971 -502.14952,1184.3971 -504.38809,1182.1585 -504.38809,1179.3971 -504.38809,1176.6357 -502.14952,1174.3971 -499.38809,1174.3971 -496.62667,1174.3971 -494.38809,1176.6357 -494.38809,1179.3971 z" />
      <text style="font-size:30; vertical-align:top; fill-opacity:1.0; fill:darkblue; text-anchor:right; stroke:none; font-weight:normal; font-style:italic; text-align:right; " transform="" id="B.BWS.text" y="1172.39706274" x="-492.388105156">
BWS</text>
      <circle style="stroke:gray; stroke-width:1; fill:none; " transform="" cy="641.21307736" cx="-795.631261689" r="5" id="B.BUS.outpoint" d="M -790.63129,641.21307 C -790.63129,643.9745 -792.86986,646.21307 -795.63129,646.21307 -798.39271,646.21307 -800.63129,643.9745 -800.63129,641.21307 -800.63129,638.45165 -798.39271,636.21307 -795.63129,636.21307 -792.86986,636.21307 -790.63129,638.45165 -790.63129,641.21307 z" />
      <text style="font-size:25; vertical-align:top; fill-opacity:1.0; fill:gray; text-anchor:right; stroke:none; font-weight:normal; font-style:italic; text-align:right; " transform="" id="B.BUS.outpoint.text" y="634.21307736" x="-788.631261689">
BUS.out</text>
      <circle style="stroke:red; stroke-width:1; fill:red; " transform="" cy="719.035543662" cx="-887.856247269" r="5" id="B.BUS" d="M -882.85626,719.03552 C -882.85626,721.79695 -885.09484,724.03552 -887.85626,724.03552 -890.61769,724.03552 -892.85626,721.79695 -892.85626,719.03552 -892.85626,716.2741 -890.61769,714.03552 -887.85626,714.03552 -885.09484,714.03552 -882.85626,716.2741 -882.85626,719.03552 z" />
      <text style="font-size:30; vertical-align:top; fill-opacity:1.0; fill:darkblue; text-anchor:right; stroke:none; font-weight:normal; font-style:italic; text-align:right; " transform="" id="B.BUS.text" y="712.035543662" x="-880.856247269">
BUS</text>
      <circle style="stroke:red; stroke-width:1; fill:red; " transform="" cy="139.993979033" cx="-415.314857008" r="5" id="B.BD2" d="M -410.31485,139.99397 C -410.31485,142.7554 -412.55343,144.99397 -415.31485,144.99397 -418.07627,144.99397 -420.31485,142.7554 -420.31485,139.99397 -420.31485,137.23255 -418.07627,134.99397 -415.31485,134.99397 -412.55343,134.99397 -410.31485,137.23255 -410.31485,139.99397 z" />
      <text style="font-size:30; vertical-align:top; fill-opacity:1.0; fill:darkblue; text-anchor:right; stroke:none; font-weight:normal; font-style:italic; text-align:right; " transform="" id="B.BD2.text" y="132.993979033" x="-408.314857008">
BD2</text>
      <circle style="stroke:red; stroke-width:1; fill:red; " transform="" cy="-66.7825907043" cx="-502.844284109" r="5" id="B.BD2.i" d="M -497.8443,-66.782593 C -497.8443,-64.021169 -500.08288,-61.782593 -502.8443,-61.782593 -505.60572,-61.782593 -507.8443,-64.021169 -507.8443,-66.782593 -507.8443,-69.544017 -505.60572,-71.782593 -502.8443,-71.782593 -500.08288,-71.782593 -497.8443,-69.544017 -497.8443,-66.782593 z" />
      <text style="font-size:30; vertical-align:top; fill-opacity:1.0; fill:darkblue; text-anchor:right; stroke:none; font-weight:normal; font-style:italic; text-align:right; " transform="" id="B.BD2.i.text" y="-73.7825907043" x="-495.844284109">
BD2.i</text>
      <circle style="stroke:red; stroke-width:1; fill:red; " transform="" cy="-52.5885135469" cx="-530.770190158" r="5" id="B.BD2.o" d="M -525.7702,-52.588512 C -525.7702,-49.827089 -528.00878,-47.588512 -530.7702,-47.588512 -533.53163,-47.588512 -535.7702,-49.827089 -535.7702,-52.588512 -535.7702,-55.349936 -533.53163,-57.588512 -530.7702,-57.588512 -528.00878,-57.588512 -525.7702,-55.349936 -525.7702,-52.588512 z" />
      <text style="font-size:30; vertical-align:top; fill-opacity:1.0; fill:darkblue; text-anchor:right; stroke:none; font-weight:normal; font-style:italic; text-align:right; " transform="" id="B.BD2.o.text" y="-59.5885135469" x="-523.770190158">
BD2.o</text>
      <path style="stroke-linejoin:miter; stroke-dashoffset:0; stroke:gray; stroke-miterlimit:4; stroke-dasharray:6,6; stroke-width:2; fill:none; " transform="" d="M 0.0  1346.45669291 L -708.661417323  37.8293872947 L -708.661417323  -141.732283465 L 0.0  -141.732283465 L 0.0  637.795275591 L -956.409448819  637.795275591 L -887.856247269  719.035543662 " id="B.gridline" />
    </g>
    <g id="document.bodice.Bodice Sleeve.reference" transform=" translate(899.564887, 2256.089830)">
      <circle style="stroke:gray; stroke-width:1; fill:none; " transform="" cy="-5.37723529522" cx="93.2751345727" r="5" id="C.SCM.inpoint" d="M 98.275131,-5.3772354 C 98.275131,-2.6158117 96.036555,-0.37723541 93.275131,-0.37723541 90.513707,-0.37723541 88.275131,-2.6158117 88.275131,-5.3772354 88.275131,-8.1386592 90.513707,-10.377235 93.275131,-10.377235 96.036555,-10.377235 98.275131,-8.1386592 98.275131,-5.3772354 z" />
      <text style="font-size:25; vertical-align:top; fill-opacity:1.0; fill:gray; text-anchor:right; stroke:none; font-weight:normal; font-style:italic; text-align:right; " transform="" id="C.SCM.inpoint.text" y="-12.3772352952" x="100.275134573">
SCM.in</text>
      <circle style="stroke:gray; stroke-width:1; fill:none; " transform="" cy="5.24675223373" cx="-91.0117362924" r="5" id="C.SCM.outpoint" d="M -86.011734,5.2467523 C -86.011734,8.008176 -88.25031,10.246752 -91.011734,10.246752 -93.773158,10.246752 -96.011734,8.008176 -96.011734,5.2467523 -96.011734,2.4853285 -93.773158,0.24675226 -91.011734,0.24675226 -88.25031,0.24675226 -86.011734,2.4853285 -86.011734,5.2467523 z" />
      <text style="font-size:25; vertical-align:top; fill-opacity:1.0; fill:gray; text-anchor:right; stroke:none; font-weight:normal; font-style:italic; text-align:right; " transform="" id="C.SCM.outpoint.text" y="-1.75324776627" x="-84.0117362924">
SCM.out</text>
      <circle style="stroke:red; stroke-width:1; fill:red; " transform="" cy="0.0" cx="0.0" r="5" id="C.SCM" d="M 5,0 C 5,2.7614237 2.7614237,5 0,5 -2.7614237,5 -5,2.7614237 -5,0 -5,-2.7614237 -2.7614237,-5 0,-5 2.7614237,-5 5,-2.7614237 5,0 z" />
      <text style="font-size:30; vertical-align:top; fill-opacity:1.0; fill:darkblue; text-anchor:right; stroke:none; font-weight:normal; font-style:italic; text-align:right; " transform="" id="C.SCM.text" y="-7.0" x="7.0">
SCM</text>
      <circle style="stroke:red; stroke-width:1; fill:red; " transform="" cy="609.854281368" cx="0.0" r="5" id="C.SUM" d="M 5,609.85431 C 5,612.61573 2.7614237,614.85431 0,614.85431 -2.7614237,614.85431 -5,612.61573 -5,609.85431 -5,607.09289 -2.7614237,604.85431 0,604.85431 2.7614237,604.85431 5,607.09289 5,609.85431 z" />
      <text style="font-size:30; vertical-align:top; fill-opacity:1.0; fill:darkblue; text-anchor:right; stroke:none; font-weight:normal; font-style:italic; text-align:right; " transform="" id="C.SUM.text" y="602.854281368" x="7.0">
SUM</text>
      <circle style="stroke:red; stroke-width:1; fill:red; " transform="" cy="2374.01574803" cx="0.0" r="5" id="C.SWM" d="M 5,2374.0159 C 5,2376.7773 2.7614237,2379.0159 0,2379.0159 -2.7614237,2379.0159 -5,2376.7773 -5,2374.0159 -5,2371.2544 -2.7614237,2369.0159 0,2369.0159 2.7614237,2369.0159 5,2371.2544 5,2374.0159 z" />
      <text style="font-size:30; vertical-align:top; fill-opacity:1.0; fill:darkblue; text-anchor:right; stroke:none; font-weight:normal; font-style:italic; text-align:right; " transform="" id="C.SWM.text" y="2367.01574803" x="7.0">
SWM</text>
      <circle style="stroke:red; stroke-width:1; fill:red; " transform="" cy="1491.9350147" cx="0.0" r="5" id="C.SEM" d="M 5,1491.9351 C 5,1494.6965 2.7614237,1496.9351 0,1496.9351 -2.7614237,1496.9351 -5,1494.6965 -5,1491.9351 -5,1489.1736 -2.7614237,1486.9351 0,1486.9351 2.7614237,1486.9351 5,1489.1736 5,1491.9351 z" />
      <text style="font-size:30; vertical-align:top; fill-opacity:1.0; fill:darkblue; text-anchor:right; stroke:none; font-weight:normal; font-style:italic; text-align:right; " transform="" id="C.SEM.text" y="1484.9350147" x="7.0">
SEM</text>
      <circle style="stroke:gray; stroke-width:1; fill:none; " transform="" cy="562.315131553" cx="820.180600137" r="5" id="C.SUB.outpoint" d="M 825.1806,562.31512 C 825.1806,565.07655 822.94203,567.31512 820.1806,567.31512 817.41918,567.31512 815.1806,565.07655 815.1806,562.31512 815.1806,559.5537 817.41918,557.31512 820.1806,557.31512 822.94203,557.31512 825.1806,559.5537 825.1806,562.31512 z" />
      <text style="font-size:25; vertical-align:top; fill-opacity:1.0; fill:gray; text-anchor:right; stroke:none; font-weight:normal; font-style:italic; text-align:right; " transform="" id="C.SUB.outpoint.text" y="555.315131553" x="827.180600137">
SUB.out</text>
      <circle style="stroke:red; stroke-width:1; fill:red; " transform="" cy="609.854281368" cx="897.064886619" r="5" id="C.SUB" d="M 902.06488,609.85431 C 902.06488,612.61573 899.8263,614.85431 897.06488,614.85431 894.30346,614.85431 892.06488,612.61573 892.06488,609.85431 892.06488,607.09289 894.30346,604.85431 897.06488,604.85431 899.8263,604.85431 902.06488,607.09289 902.06488,609.85431 z" />
      <text style="font-size:30; vertical-align:top; fill-opacity:1.0; fill:darkblue; text-anchor:right; stroke:none; font-weight:normal; font-style:italic; text-align:right; " transform="" id="C.SUB.text" y="602.854281368" x="904.064886619">
SUB</text>
      <circle style="stroke:red; stroke-width:1; fill:red; " transform="" cy="2374.01574803" cx="897.064886619" r="5" id="C.SWB1" d="M 902.06488,2374.0159 C 902.06488,2376.7773 899.8263,2379.0159 897.06488,2379.0159 894.30346,2379.0159 892.06488,2376.7773 892.06488,2374.0159 892.06488,2371.2544 894.30346,2369.0159 897.06488,2369.0159 899.8263,2369.0159 902.06488,2371.2544 902.06488,2374.0159 z" />
      <text style="font-size:30; vertical-align:top; fill-opacity:1.0; fill:darkblue; text-anchor:right; stroke:none; font-weight:normal; font-style:italic; text-align:right; " transform="" id="C.SWB1.text" y="2367.01574803" x="904.064886619">
SWB1</text>
      <circle style="stroke:gray; stroke-width:1; fill:none; " transform="" cy="575.896462702" cx="-812.462693365" r="5" id="C.SUF.inpoint" d="M -807.46271,575.89648 C -807.46271,578.65791 -809.70128,580.89648 -812.46271,580.89648 -815.22413,580.89648 -817.46271,578.65791 -817.46271,575.89648 -817.46271,573.13506 -815.22413,570.89648 -812.46271,570.89648 -809.70128,570.89648 -807.46271,573.13506 -807.46271,575.89648 z" />
      <text style="font-size:25; vertical-align:top; fill-opacity:1.0; fill:gray; text-anchor:right; stroke:none; font-weight:normal; font-style:italic; text-align:right; " transform="" id="C.SUF.inpoint.text" y="568.896462702" x="-805.462693365">
SUF.in</text>
      <circle style="stroke:gray; stroke-width:1; fill:none; " transform="" cy="885.086712492" cx="-743.663454045" r="5" id="C.SUF.outpoint" d="M -738.66345,885.08673 C -738.66345,887.84815 -740.90203,890.08673 -743.66345,890.08673 -746.42488,890.08673 -748.66345,887.84815 -748.66345,885.08673 -748.66345,882.32531 -746.42488,880.08673 -743.66345,880.08673 -740.90203,880.08673 -738.66345,882.32531 -738.66345,885.08673 z" />
      <text style="font-size:25; vertical-align:top; fill-opacity:1.0; fill:gray; text-anchor:right; stroke:none; font-weight:normal; font-style:italic; text-align:right; " transform="" id="C.SUF.outpoint.text" y="878.086712492" x="-736.663454045">
SUF.out</text>
      <circle style="stroke:red; stroke-width:1; fill:red; " transform="" cy="609.854281368" cx="-897.064886619" r="5" id="C.SUF" d="M -892.06488,609.85431 C -892.06488,612.61573 -894.30346,614.85431 -897.06488,614.85431 -899.8263,614.85431 -902.06488,612.61573 -902.06488,609.85431 -902.06488,607.09289 -899.8263,604.85431 -897.06488,604.85431 -894.30346,604.85431 -892.06488,607.09289 -892.06488,609.85431 z" />
      <text style="font-size:30; vertical-align:top; fill-opacity:1.0; fill:darkblue; text-anchor:right; stroke:none; font-weight:normal; font-style:italic; text-align:right; " transform="" id="C.SUF.text" y="602.854281368" x="-890.064886619">
SUF</text>
      <circle style="stroke:red; stroke-width:1; fill:red; " transform="" cy="2374.01574803" cx="-897.064886619" r="5" id="C.SWF1" d="M -892.06488,2374.0159 C -892.06488,2376.7773 -894.30346,2379.0159 -897.06488,2379.0159 -899.8263,2379.0159 -902.06488,2376.7773 -902.06488,2374.0159 -902.06488,2371.2544 -899.8263,2369.0159 -897.06488,2369.0159 -894.30346,2369.0159 -892.06488,2371.2544 -892.06488,2374.0159 z" />
      <text style="font-size:30; vertical-align:top; fill-opacity:1.0; fill:darkblue; text-anchor:right; stroke:none; font-weight:normal; font-style:italic; text-align:right; " transform="" id="C.SWF1.text" y="2367.01574803" x="-890.064886619">
SWF1</text>
      <circle style="stroke:gray; stroke-width:1; fill:none; " transform="" cy="514.507357432" cx="742.861871973" r="5" id="C.s1.inpoint" d="M 747.86188,514.50739 C 747.86188,517.26881 745.6233,519.50739 742.86188,519.50739 740.10045,519.50739 737.86188,517.26881 737.86188,514.50739 737.86188,511.74596 740.10045,509.50739 742.86188,509.50739 745.6233,509.50739 747.86188,511.74596 747.86188,514.50739 z" />
      <text style="font-size:25; vertical-align:top; fill-opacity:1.0; fill:gray; text-anchor:right; stroke:none; font-weight:normal; font-style:italic; text-align:right; " transform="" id="C.s1.inpoint.text" y="507.507357432" x="749.861871973">
s1.in</text>
      <circle style="stroke:gray; stroke-width:1; fill:none; " transform="" cy="342.186434395" cx="531.48117541" r="5" id="C.s1.outpoint" d="M 536.4812,342.18643 C 536.4812,344.94786 534.24262,347.18643 531.4812,347.18643 528.71978,347.18643 526.4812,344.94786 526.4812,342.18643 526.4812,339.42501 528.71978,337.18643 531.4812,337.18643 534.24262,337.18643 536.4812,339.42501 536.4812,342.18643 z" />
      <text style="font-size:25; vertical-align:top; fill-opacity:1.0; fill:gray; text-anchor:right; stroke:none; font-weight:normal; font-style:italic; text-align:right; " transform="" id="C.s1.outpoint.text" y="335.186434395" x="538.48117541">
s1.out</text>
      <circle style="stroke:red; stroke-width:1; fill:red; " transform="" cy="457.390711026" cx="672.798664964" r="5" id="C.s1" d="M 677.79865,457.39072 C 677.79865,460.15214 675.56007,462.39072 672.79865,462.39072 670.03722,462.39072 667.79865,460.15214 667.79865,457.39072 667.79865,454.62929 670.03722,452.39072 672.79865,452.39072 675.56007,452.39072 677.79865,454.62929 677.79865,457.39072 z" />
      <text style="font-size:30; vertical-align:top; fill-opacity:1.0; fill:darkblue; text-anchor:right; stroke:none; font-weight:normal; font-style:italic; text-align:right; " transform="" id="C.s1.text" y="450.390711026" x="679.798664964">
s1</text>
      <circle style="stroke:gray; stroke-width:1; fill:none; " transform="" cy="196.364269348" cx="414.889926578" r="5" id="C.s2.inpoint" d="M 419.88992,196.36427 C 419.88992,199.1257 417.65135,201.36427 414.88992,201.36427 412.1285,201.36427 409.88992,199.1257 409.88992,196.36427 409.88992,193.60285 412.1285,191.36427 414.88992,191.36427 417.65135,191.36427 419.88992,193.60285 419.88992,196.36427 z" />
      <text style="font-size:25; vertical-align:top; fill-opacity:1.0; fill:gray; text-anchor:right; stroke:none; font-weight:normal; font-style:italic; text-align:right; " transform="" id="C.s2.inpoint.text" y="189.364269348" x="421.889926578">
s2.in</text>
      <circle style="stroke:gray; stroke-width:1; fill:none; " transform="" cy="41.3301270146" cx="186.842523185" r="5" id="C.s2.outpoint" d="M 191.84253,41.330128 C 191.84253,44.091551 189.60395,46.330128 186.84253,46.330128 184.08111,46.330128 181.84253,44.091551 181.84253,41.330128 181.84253,38.568704 184.08111,36.330128 186.84253,36.330128 189.60395,36.330128 191.84253,38.568704 191.84253,41.330128 z" />
      <text style="font-size:25; vertical-align:top; fill-opacity:1.0; fill:gray; text-anchor:right; stroke:none; font-weight:normal; font-style:italic; text-align:right; " transform="" id="C.s2.outpoint.text" y="34.3301270146" x="193.842523185">
s2.out</text>
      <circle style="stroke:red; stroke-width:1; fill:red; " transform="" cy="93.8579281495" cx="264.108269133" r="5" id="C.s2" d="M 269.10828,93.857925 C 269.10828,96.619349 266.8697,98.857925 264.10828,98.857925 261.34685,98.857925 259.10828,96.619349 259.10828,93.857925 259.10828,91.096502 261.34685,88.857925 264.10828,88.857925 266.8697,88.857925 269.10828,91.096502 269.10828,93.857925 z" />
      <text style="font-size:30; vertical-align:top; fill-opacity:1.0; fill:darkblue; text-anchor:right; stroke:none; font-weight:normal; font-style:italic; text-align:right; " transform="" id="C.s2.text" y="86.8579281495" x="271.108269133">
s2</text>
      <circle style="stroke:gray; stroke-width:1; fill:none; " transform="" cy="68.6756870977" cx="-171.09796742" r="5" id="C.s3.inpoint" d="M -166.09796,68.67569 C -166.09796,71.437113 -168.33654,73.67569 -171.09796,73.67569 -173.85939,73.67569 -176.09796,71.437113 -176.09796,68.67569 -176.09796,65.914266 -173.85939,63.67569 -171.09796,63.67569 -168.33654,63.67569 -166.09796,65.914266 -166.09796,68.67569 z" />
      <text style="font-size:25; vertical-align:top; fill-opacity:1.0; fill:gray; text-anchor:right; stroke:none; font-weight:normal; font-style:italic; text-align:right; " transform="" id="C.s3.inpoint.text" y="61.6756870977" x="-164.09796742">
s3.in</text>
      <circle style="stroke:gray; stroke-width:1; fill:none; " transform="" cy="232.130873542" cx="-390.365801341" r="5" id="C.s3.outpoint" d="M -385.36581,232.13087 C -385.36581,234.8923 -387.60439,237.13087 -390.36581,237.13087 -393.12724,237.13087 -395.36581,234.8923 -395.36581,232.13087 -395.36581,229.36945 -393.12724,227.13087 -390.36581,227.13087 -387.60439,227.13087 -385.36581,229.36945 -385.36581,232.13087 z" />
      <text style="font-size:25; vertical-align:top; fill-opacity:1.0; fill:gray; text-anchor:right; stroke:none; font-weight:normal; font-style:italic; text-align:right; " transform="" id="C.s3.outpoint.text" y="225.130873542" x="-383.365801341">
s3.out</text>
      <circle style="stroke:red; stroke-width:1; fill:red; " transform="" cy="123.160749246" cx="-244.187245394" r="5" id="C.s3" d="M -239.18724,123.16075 C -239.18724,125.92218 -241.42582,128.16075 -244.18724,128.16075 -246.94866,128.16075 -249.18724,125.92218 -249.18724,123.16075 -249.18724,120.39933 -246.94866,118.16075 -244.18724,118.16075 -241.42582,118.16075 -239.18724,120.39933 -239.18724,123.16075 z" />
      <text style="font-size:30; vertical-align:top; fill-opacity:1.0; fill:darkblue; text-anchor:right; stroke:none; font-weight:normal; font-style:italic; text-align:right; " transform="" id="C.s3.text" y="116.160749246" x="-237.187245394">
s3</text>
      <circle style="stroke:gray; stroke-width:1; fill:none; " transform="" cy="377.723407826" cx="-506.699085278" r="5" id="C.s4.inpoint" d="M -501.6991,377.72342 C -501.6991,380.48484 -503.93767,382.72342 -506.6991,382.72342 -509.46052,382.72342 -511.6991,380.48484 -511.6991,377.72342 -511.6991,374.962 -509.46052,372.72342 -506.6991,372.72342 -503.93767,372.72342 -501.6991,374.962 -501.6991,377.72342 z" />
      <text style="font-size:25; vertical-align:top; fill-opacity:1.0; fill:gray; text-anchor:right; stroke:none; font-weight:normal; font-style:italic; text-align:right; " transform="" id="C.s4.inpoint.text" y="370.723407826" x="-499.699085278">
s4.in</text>
      <circle style="stroke:gray; stroke-width:1; fill:none; " transform="" cy="541.17859427" cx="-725.966919199" r="5" id="C.s4.outpoint" d="M -720.96692,541.17859 C -720.96692,543.94001 -723.2055,546.17859 -725.96692,546.17859 -728.72834,546.17859 -730.96692,543.94001 -730.96692,541.17859 -730.96692,538.41717 -728.72834,536.17859 -725.96692,536.17859 -723.2055,536.17859 -720.96692,538.41717 -720.96692,541.17859 z" />
      <text style="font-size:25; vertical-align:top; fill-opacity:1.0; fill:gray; text-anchor:right; stroke:none; font-weight:normal; font-style:italic; text-align:right; " transform="" id="C.s4.outpoint.text" y="534.17859427" x="-718.966919199">
s4.out</text>
      <circle style="stroke:red; stroke-width:1; fill:red; " transform="" cy="486.693532122" cx="-652.877641225" r="5" id="C.s4" d="M -647.87762,486.69354 C -647.87762,489.45497 -650.1162,491.69354 -652.87762,491.69354 -655.63905,491.69354 -657.87762,489.45497 -657.87762,486.69354 -657.87762,483.93212 -655.63905,481.69354 -652.87762,481.69354 -650.1162,481.69354 -647.87762,483.93212 -647.87762,486.69354 z" />
      <text style="font-size:30; vertical-align:top; fill-opacity:1.0; fill:darkblue; text-anchor:right; stroke:none; font-weight:normal; font-style:italic; text-align:right; " transform="" id="C.s4.text" y="479.693532122" x="-645.877641225">
s4</text>
      <circle style="stroke:red; stroke-width:1; fill:red; " transform="" cy="2374.01574803" cx="396.850393701" r="5" id="C.SWb3" d="M 401.8504,2374.0159 C 401.8504,2376.7773 399.61183,2379.0159 396.8504,2379.0159 394.08898,2379.0159 391.8504,2376.7773 391.8504,2374.0159 391.8504,2371.2544 394.08898,2369.0159 396.8504,2369.0159 399.61183,2369.0159 401.8504,2371.2544 401.8504,2374.0159 z" />
      <text style="font-size:30; vertical-align:top; fill-opacity:1.0; fill:darkblue; text-anchor:right; stroke:none; font-weight:normal; font-style:italic; text-align:right; " transform="" id="C.SWb3.text" y="2367.01574803" x="403.850393701">
SWb3</text>
      <circle style="stroke:red; stroke-width:1; fill:red; " transform="" cy="2374.01574803" cx="-396.850393701" r="5" id="C.SWF3" d="M -391.8504,2374.0159 C -391.8504,2376.7773 -394.08898,2379.0159 -396.8504,2379.0159 -399.61183,2379.0159 -401.8504,2376.7773 -401.8504,2374.0159 -401.8504,2371.2544 -399.61183,2369.0159 -396.8504,2369.0159 -394.08898,2369.0159 -391.8504,2371.2544 -391.8504,2374.0159 z" />
      <text style="font-size:30; vertical-align:top; fill-opacity:1.0; fill:darkblue; text-anchor:right; stroke:none; font-weight:normal; font-style:italic; text-align:right; " transform="" id="C.SWF3.text" y="2367.01574803" x="-389.850393701">
SWF3</text>
      <circle style="stroke:red; stroke-width:1; fill:red; " transform="" cy="2374.01574803" cx="646.95764016" r="5" id="C.SWB2" d="M 651.95764,2374.0159 C 651.95764,2376.7773 649.71907,2379.0159 646.95764,2379.0159 644.19622,2379.0159 641.95764,2376.7773 641.95764,2374.0159 641.95764,2371.2544 644.19622,2369.0159 646.95764,2369.0159 649.71907,2369.0159 651.95764,2371.2544 651.95764,2374.0159 z" />
      <text style="font-size:30; vertical-align:top; fill-opacity:1.0; fill:darkblue; text-anchor:right; stroke:none; font-weight:normal; font-style:italic; text-align:right; " transform="" id="C.SWB2.text" y="2367.01574803" x="653.95764016">
SWB2</text>
      <circle style="stroke:red; stroke-width:1; fill:red; " transform="" cy="2374.01574803" cx="-646.95764016" r="5" id="C.SWF2" d="M -641.95764,2374.0159 C -641.95764,2376.7773 -644.19622,2379.0159 -646.95764,2379.0159 -649.71907,2379.0159 -651.95764,2376.7773 -651.95764,2374.0159 -651.95764,2371.2544 -649.71907,2369.0159 -646.95764,2369.0159 -644.19622,2369.0159 -641.95764,2371.2544 -641.95764,2374.0159 z" />
      <text style="font-size:30; vertical-align:top; fill-opacity:1.0; fill:darkblue; text-anchor:right; stroke:none; font-weight:normal; font-style:italic; text-align:right; " transform="" id="C.SWF2.text" y="2367.01574803" x="-639.95764016">
SWF2</text>
      <circle style="stroke:red; stroke-width:1; fill:red; " transform="" cy="1491.9350147" cx="690.94488189" r="5" id="C.SEB" d="M 695.94489,1491.9351 C 695.94489,1494.6965 693.70631,1496.9351 690.94489,1496.9351 688.18346,1496.9351 685.94489,1494.6965 685.94489,1491.9351 685.94489,1489.1736 688.18346,1486.9351 690.94489,1486.9351 693.70631,1486.9351 695.94489,1489.1736 695.94489,1491.9351 z" />
      <text style="font-size:30; vertical-align:top; fill-opacity:1.0; fill:darkblue; text-anchor:right; stroke:none; font-weight:normal; font-style:italic; text-align:right; " transform="" id="C.SEB.text" y="1484.9350147" x="697.94488189">
SEB</text>
      <circle style="stroke:gray; stroke-width:1; fill:none; " transform="" cy="1180.44799378" cx="-579.043160239" r="5" id="C.SEF.inpoint" d="M -574.04315,1180.448 C -574.04315,1183.2094 -576.28173,1185.448 -579.04315,1185.448 -581.80458,1185.448 -584.04315,1183.2094 -584.04315,1180.448 -584.04315,1177.6866 -581.80458,1175.448 -579.04315,1175.448 -576.28173,1175.448 -574.04315,1177.6866 -574.04315,1180.448 z" />
      <text style="font-size:25; vertical-align:top; fill-opacity:1.0; fill:gray; text-anchor:right; stroke:none; font-weight:normal; font-style:italic; text-align:right; " transform="" id="C.SEF.inpoint.text" y="1173.44799378" x="-572.043160239">
SEF.in</text>
      <circle style="stroke:red; stroke-width:1; fill:red; " transform="" cy="1491.9350147" cx="-531.496062992" r="5" id="C.SEF" d="M -526.49603,1491.9351 C -526.49603,1494.6965 -528.73461,1496.9351 -531.49603,1496.9351 -534.25746,1496.9351 -536.49603,1494.6965 -536.49603,1491.9351 -536.49603,1489.1736 -534.25746,1486.9351 -531.49603,1486.9351 -528.73461,1486.9351 -526.49603,1489.1736 -526.49603,1491.9351 z" />
      <text style="font-size:30; vertical-align:top; fill-opacity:1.0; fill:darkblue; text-anchor:right; stroke:none; font-weight:normal; font-style:italic; text-align:right; " transform="" id="C.SEF.text" y="1484.9350147" x="-524.496062992">
SEF</text>
      <circle style="stroke:red; stroke-width:1; fill:red; " transform="" cy="1491.9350147" cx="483.661417323" r="5" id="C.SD1" d="M 488.66141,1491.9351 C 488.66141,1494.6965 486.42283,1496.9351 483.66141,1496.9351 480.89998,1496.9351 478.66141,1494.6965 478.66141,1491.9351 478.66141,1489.1736 480.89998,1486.9351 483.66141,1486.9351 486.42283,1486.9351 488.66141,1489.1736 488.66141,1491.9351 z" />
      <text style="font-size:30; vertical-align:top; fill-opacity:1.0; fill:darkblue; text-anchor:right; stroke:none; font-weight:normal; font-style:italic; text-align:right; " transform="" id="C.SD1.text" y="1484.9350147" x="490.661417323">
SD1</text>
      <circle style="stroke:red; stroke-width:1; fill:red; " transform="" cy="1510.24058238" cx="686.667332734" r="5" id="C.SD1.i" d="M 691.66736,1510.2406 C 691.66736,1513.002 689.42878,1515.2406 686.66736,1515.2406 683.90593,1515.2406 681.66736,1513.002 681.66736,1510.2406 681.66736,1507.4792 683.90593,1505.2406 686.66736,1505.2406 689.42878,1505.2406 691.66736,1507.4792 691.66736,1510.2406 z" />
      <text style="font-size:30; vertical-align:top; fill-opacity:1.0; fill:darkblue; text-anchor:right; stroke:none; font-weight:normal; font-style:italic; text-align:right; " transform="" id="C.SD1.i.text" y="1503.24058238" x="693.667332734">
SD1.i</text>
      <circle style="stroke:red; stroke-width:1; fill:red; " transform="" cy="1565.48746947" cx="673.757529585" r="5" id="C.SD1.o" d="M 678.75751,1565.4874 C 678.75751,1568.2489 676.51893,1570.4874 673.75751,1570.4874 670.99608,1570.4874 668.75751,1568.2489 668.75751,1565.4874 668.75751,1562.726 670.99608,1560.4874 673.75751,1560.4874 676.51893,1560.4874 678.75751,1562.726 678.75751,1565.4874 z" />
      <text style="font-size:30; vertical-align:top; fill-opacity:1.0; fill:darkblue; text-anchor:right; stroke:none; font-weight:normal; font-style:italic; text-align:right; " transform="" id="C.SD1.o.text" y="1558.48746947" x="680.757529585">
SD1.o</text>
      <circle style="stroke:red; stroke-width:1; fill:red; " transform="" cy="2495.66181308" cx="355.18869261" r="5" id="C.SWb4" d="M 360.18869,2495.6619 C 360.18869,2498.4233 357.95011,2500.6619 355.18869,2500.6619 352.42727,2500.6619 350.18869,2498.4233 350.18869,2495.6619 350.18869,2492.9004 352.42727,2490.6619 355.18869,2490.6619 357.95011,2490.6619 360.18869,2492.9004 360.18869,2495.6619 z" />
      <text style="font-size:30; vertical-align:top; fill-opacity:1.0; fill:darkblue; text-anchor:right; stroke:none; font-weight:normal; font-style:italic; text-align:right; " transform="" id="C.SWb4.text" y="2488.66181308" x="362.18869261">
SWb4</text>
      <circle style="stroke:gray; stroke-width:1; fill:none; " transform="" cy="2389.36565293" cx="124.189552754" r="5" id="C.SWB.inpoint" d="M 129.18955,2389.3657 C 129.18955,2392.1271 126.95098,2394.3657 124.18955,2394.3657 121.42813,2394.3657 119.18955,2392.1271 119.18955,2389.3657 119.18955,2386.6043 121.42813,2384.3657 124.18955,2384.3657 126.95098,2384.3657 129.18955,2386.6043 129.18955,2389.3657 z" />
      <text style="font-size:25; vertical-align:top; fill-opacity:1.0; fill:gray; text-anchor:right; stroke:none; font-weight:normal; font-style:italic; text-align:right; " transform="" id="C.SWB.inpoint.text" y="2382.36565293" x="131.189552754">
SWB.in</text>
      <circle style="stroke:red; stroke-width:1; fill:red; " transform="" cy="2471.33260007" cx="363.521032828" r="5" id="C.SWB" d="M 368.52103,2471.3325 C 368.52103,2474.0939 366.28245,2476.3325 363.52103,2476.3325 360.7596,2476.3325 358.52103,2474.0939 358.52103,2471.3325 358.52103,2468.5711 360.7596,2466.3325 363.52103,2466.3325 366.28245,2466.3325 368.52103,2468.5711 368.52103,2471.3325 z" />
      <text style="font-size:30; vertical-align:top; fill-opacity:1.0; fill:darkblue; text-anchor:right; stroke:none; font-weight:normal; font-style:italic; text-align:right; " transform="" id="C.SWB.text" y="2464.33260007" x="370.521032828">
SWB</text>
      <circle style="stroke:gray; stroke-width:1; fill:none; " transform="" cy="2365.21337946" cx="-142.285192207" r="5" id="C.SWF.outpoint" d="M -137.28519,2365.2134 C -137.28519,2367.9748 -139.52376,2370.2134 -142.28519,2370.2134 -145.04661,2370.2134 -147.28519,2367.9748 -147.28519,2365.2134 -147.28519,2362.452 -145.04661,2360.2134 -142.28519,2360.2134 -139.52376,2360.2134 -137.28519,2362.452 -137.28519,2365.2134 z" />
      <text style="font-size:25; vertical-align:top; fill-opacity:1.0; fill:gray; text-anchor:right; stroke:none; font-weight:normal; font-style:italic; text-align:right; " transform="" id="C.SWF.outpoint.text" y="2358.21337946" x="-135.285192207">
SWF.out</text>
      <circle style="stroke:red; stroke-width:1; fill:red; " transform="" cy="2403.38724118" cx="-392.366966954" r="5" id="C.SWF" d="M -387.36697,2403.3872 C -387.36697,2406.1486 -389.60555,2408.3872 -392.36697,2408.3872 -395.1284,2408.3872 -397.36697,2406.1486 -397.36697,2403.3872 -397.36697,2400.6258 -395.1284,2398.3872 -392.36697,2398.3872 -389.60555,2398.3872 -387.36697,2400.6258 -387.36697,2403.3872 z" />
      <text style="font-size:30; vertical-align:top; fill-opacity:1.0; fill:darkblue; text-anchor:right; stroke:none; font-weight:normal; font-style:italic; text-align:right; " transform="" id="C.SWF.text" y="2396.38724118" x="-385.366966954">
SWF</text>
      <path style="stroke-linejoin:miter; stroke-dashoffset:0; stroke:gray; stroke-miterlimit:4; stroke-dasharray:6,6; stroke-width:2; fill:none; " transform="" d="M 0.0  0.0 L 0.0  2374.01574803 M -897.064886619  609.854281368 L -897.064886619  2374.01574803 M 897.064886619  609.854281368 L 897.064886619  2374.01574803 M 897.064886619  609.854281368 L 0.0  0.0 L -897.064886619  609.854281368 M 897.064886619  609.854281368 L 646.95764016  2374.01574803 M 690.94488189  1491.9350147 L 396.850393701  2374.01574803 M -897.064886619  609.854281368 L -646.95764016  2374.01574803 M -531.496062992  1491.9350147 L -396.850393701  2374.01574803 M 897.064886619  609.854281368 L -897.064886619  609.854281368 M 690.94488189  1491.9350147 L -531.496062992  1491.9350147 M 897.064886619  2374.01574803 L -897.064886619  2374.01574803 " id="C.gridline" />
    </g>
  </g>
</svg>
