<?xml version="1.0" encoding="UTF-8" standalone="no"?>
<svg xmlns:dc="http://purl.org/dc/elements/1.1/" xmlns:cc="http://creativecommons.org/ns#" xmlns:rdf="http://www.w3.org/1999/02/22-rdf-syntax-ns#" xmlns:svg="http://www.w3.org/2000/svg" xmlns="http://www.w3.org/2000/svg" xmlns:sodipodi="http://sodipodi.sourceforge.net/DTD/sodipodi-0.dtd" xmlns:inkscape="http://www.inkscape.org/namespaces/inkscape" patternNumber="MR_B1" fitBoxtoViewport="True" companyName="Next Patterns" currentscale="0.5:1" margin-right="88.5826771654" client-name="DressFormLg" designerName="S.L.Spencer" height="4918.73545562" width="2613.17186633" margin-top="88.5826771654" version="1.1" margin-bottom="88.5826771654" margin-left="88.5826771654" preserveAspectRatio="xMidYMid meet" id="svg2" inkscape:version="0.48.4 r9939" sodipodi:docname="Susan-spencer_bodice_short-2014-11-11-1214.svg">
  <metadata id="metadata302">
    <rdf:RDF>
      <cc:Work rdf:about="">
        <dc:format>image/svg+xml</dc:format>
        <dc:type rdf:resource="http://purl.org/dc/dcmitype/StillImage" />
      </cc:Work>
    </rdf:RDF>
  </metadata>
  <sodipodi:namedview id="base" pagecolor="#ffffff" bordercolor="#666666" borderopacity="1.0" inkscape:pageopacity="0.0" inkscape:pageshadow="2" inkscape:zoom="0.1801276" inkscape:document-units="pt" showgrid="false" inkscape:window-maximized="1" inkscape:cx="1306.5859" inkscape:cy="2459.3677" inkscape:window-width="1855" inkscape:window-height="1056" inkscape:window-x="65" inkscape:window-y="24" inkscape:current-layer="pattern" />
  <defs id="defs5">
    <marker style="overflow:visible" id="Arrow1Mstart" refX="0.0" refY="0.0" orient="auto" inkscape:stockid="Arrow1Mstart">
      <path transform="scale(0.4) translate(10,0)" style="fill-rule:evenodd;stroke:#000000;stroke-width:1.0pt;marker-start:none" d="M 0.0,0.0 L 5.0,-5.0 L -12.5,0.0 L 5.0,5.0 L 0.0,0.0 z " id="path8" />
    </marker>
    <marker style="overflow:visible;" id="Arrow1Mend" refX="0.0" refY="0.0" orient="auto" inkscape:stockid="Arrow1Mend">
      <path transform="scale(0.4) rotate(180) translate(10,0)" style="fill-rule:evenodd;stroke:#000000;stroke-width:1.0pt;marker-start:none;" d="M 0.0,0.0 L 5.0,-5.0 L -12.5,0.0 L 5.0,5.0 L 0.0,0.0 z " id="path11" />
    </marker>
  </defs>
  <g inkscape:label="Label-pattern" id="pattern" inkscape:groupmode="layer" transform="translate(88.582677,88.582677)">
    <g id="document.bodice.Bodice Front.pattern" transform=" translate(58.750000, 757.717638)">
      <g id="A.letter" transform="matrix(10.000000, 0, 0, 10.000000, -3228.838583, -1030.039370)">
        <text style="font-size:24; vertical-align:top; fill-opacity:1.0; fill:#000000; text-anchor:start; stroke:none; font-weight:normal; font-style:normal; text-align:right; " transform="" id="A.letter.letterline" y="114.448818898" x="358.75984252">
A</text>
      </g>
      <line style="stroke-linejoin:miter; stroke:green; stroke-width:4; stroke-miterlimit:4; fill:none; " y2="1089.56692913" marker-end="url(#Arrow1Mend)" marker-start="url(#Arrow1Mstart)" transform="" x2="133.455818164" y1="159.448818898" x1="133.455818164" id="A.grainline" />
      <path style="stroke-linejoin:miter; stroke-dashoffset:0; stroke:green; stroke-miterlimit:4; stroke-dasharray:6,6; stroke-width:3; fill:none; " transform="" d="M 259.399057947  1311.31203772 L 354.330708661  710.078740157 L 449.262359376  1311.31203772 M 1150.79185159  637.795275591 L 442.745684951  637.795275591 L 1116.3698394  855.877536743 " id="A.dartline" />
      <path style="stroke-linejoin:miter; stroke-dashoffset:0; stroke:green; stroke-dasharray:24,6; stroke-miterlimit:4; stroke-width:4; fill:none; " transform="" d="M 0.0  0.0 L 0.0  1240.15748031 C 88.6462178188  1240.15748031  169.417059436  1240.15748031  268.171959685  1255.75037202 L 354.330708661  1278.22121965 L 440.489457638  1255.75037202 C 636.519475316  1224.79823872  856.949499848  1202.2485947  1063.28928086  1191.7749495 L 1062.85446078  838.552215645 L 1065.27660358  736.055293411 L 1094.54185159  637.795275591 L 1022.97229067  397.495711804 C 900.773673277  437.27316057  772.084679423  405.875075416  711.460629921  318.897637795 C 609.135726881  172.091907325  700.644760759  -143.764315644  717.519685039  -223.334513127 L 266.911636328  -318.897637795 C 233.832093174  -162.917928626  160.146981797  0.0  0.0  0.0 " id="A.seamline" />
      <path style="fill:none;stroke:#008000;stroke-width:4;stroke-linejoin:miter;stroke-miterlimit:4" d="M 211.90625,-330.65625 C 197.45138,-264.20535 177.34444,-197.87692 139.96875,-140.40625 116.15169,-104.08797 82.171731,-71.60028 38.90625,-60.9375 9.6980416,-53.498727 -20.657228,-57.036286 -50.466985,-55.829847 -59.45958,-58.486119 -55.389515,-48.189039 -56.25,-42.78125 -56.25,403.61458 -56.25,850.01042 -56.25,1296.4062 48.994452,1296.6498 154.70398,1293.8005 258.71648,1311.4111 290.59282,1319.7197 322.46209,1328.0555 354.34375,1336.3438 388.2971,1327.7847 422.02466,1318.1546 456.10763,1310.222 673.07085,1276.5587 891.83475,1255.8107 1111.1266,1245.6284 1119.604,1247.5138 1120.7833,1242.4792 1119.5821,1235.1875 1119.5547,1100.2932 1118.9829,965.39285 1119.2834,830.50225 1120.1429,801.67507 1120.3021,772.7374 1121.5978,743.97906 1132.1396,708.58022 1142.6633,673.17603 1153.2188,637.78125 1122.3383,534.07142 1091.4427,430.36614 1060.5625,326.65625 1021.2354,338.4153 982.37166,354.28051 941.15625,357.21875 887.36768,361.89276 830.13479,351.18119 786.78125,317.4375 758.00537,295.68969 740.5313,262.40934 731.86828,227.97101 716.35851,167.02501 718.43703,103.33716 724.35658,41.197558 732.72009,-42.856815 752.22985,-125.57322 771.65625,-207.5625 775.91443,-227.2609 780.17742,-246.95826 784.4375,-266.65625 597.50109,-306.30724 410.56015,-345.93685 223.625,-385.59375 219.71875,-367.28125 215.8125,-348.96875 211.90625,-330.65625 z" id="A.cuttingline" inkscape:connector-curvature="0" />
      <g id="A.info" transform="">
        <text style="font-size:12; vertical-align:top; fill-opacity:1.0; fill:#000000; text-anchor:start; stroke:none; font-weight:normal; font-style:normal; text-align:right; " transform="" id="A.info.lineNext Patterns" y="159.448818898" x="358.75984252">
Next Patterns</text>
        <text style="font-size:12; vertical-align:top; fill-opacity:1.0; fill:#000000; text-anchor:start; stroke:none; font-weight:normal; font-style:normal; text-align:right; " transform="" id="A.info.lineMR_B1" y="173.848818898" x="358.75984252">
MR_B1</text>
        <text style="font-size:12; vertical-align:top; fill-opacity:1.0; fill:#000000; text-anchor:start; stroke:none; font-weight:normal; font-style:normal; text-align:right; " transform="" id="A.info.lineSpencer Bodice Short" y="188.248818898" x="358.75984252">
Spencer Bodice Short</text>
        <text style="font-size:12; vertical-align:top; fill-opacity:1.0; fill:#000000; text-anchor:start; stroke:none; font-weight:normal; font-style:normal; text-align:right; " transform="" id="A.info.linePattern Piece A" y="202.648818898" x="358.75984252">
Pattern Piece A</text>
        <text style="font-size:12; vertical-align:top; fill-opacity:1.0; fill:#000000; text-anchor:start; stroke:none; font-weight:normal; font-style:normal; text-align:right; " transform="" id="A.info.lineCut 2 Fabric" y="217.048818898" x="358.75984252">
Cut 2 Fabric</text>
        <text style="font-size:12; vertical-align:top; fill-opacity:1.0; fill:#000000; text-anchor:start; stroke:none; font-weight:normal; font-style:normal; text-align:right; " transform="" id="A.info.line " y="231.448818898" x="358.75984252" />
        <text style="font-size:12; vertical-align:top; fill-opacity:1.0; fill:#000000; text-anchor:start; stroke:none; font-weight:normal; font-style:normal; text-align:right; " transform="" id="A.info.lineDressFormLg" y="245.848818898" x="358.75984252">
DressFormLg</text>
        <text style="font-size:12; vertical-align:top; fill-opacity:1.0; fill:#000000; text-anchor:start; stroke:none; font-weight:normal; font-style:normal; text-align:right; " transform="" id="A.info.line2014/11/11 12:14" y="260.248818898" x="358.75984252">
2014/11/11 12:14</text>
      </g>
    </g>
    <g id="document.bodice.Bodice Back.pattern" transform=" translate(2379.756512, 580.552283)">
      <g id="B.letter" transform="matrix(10.000000, 0, 0, 10.000000, 3188.976378, -2465.078740)">
        <text style="font-size:24; vertical-align:top; fill-opacity:1.0; fill:#000000; text-anchor:start; stroke:none; font-weight:normal; font-style:normal; text-align:right; " transform="" id="B.letter.letterline" y="273.897637795" x="-354.330708661">
B</text>
      </g>
      <line style="stroke-linejoin:miter; stroke:green; stroke-width:4; stroke-miterlimit:4; fill:none; " y2="1222.44094488" marker-end="url(#Arrow1Mend)" marker-start="url(#Arrow1Mstart)" transform="" x2="-142.235487856" y1="212.598425197" x1="-142.235487856" id="B.grainline" />
      <path style="stroke-linejoin:miter; stroke-dashoffset:0; stroke:green; stroke-miterlimit:4; stroke-dasharray:6,6; stroke-width:3; fill:none; " transform="" d="M -467.420717536  1410.22698347 L -383.761673202  637.795275591 L -300.102628868  1410.22698347 M -559.532216793  -100.914733442 L -415.819527212  138.801763145 L -524.771526596  -118.582769632 " id="B.dartline" />
      <path style="stroke-linejoin:miter; stroke-dashoffset:0; stroke:green; stroke-dasharray:24,6; stroke-miterlimit:4; stroke-width:4; fill:none; " transform="" d="M 0.0  0.0 L 0.0  1346.45669291 C -101.065792802  1346.45669291  -233.704316826  1346.45669291  -306.159425266  1354.30402112 L -383.761673202  1369.2401569 L -461.363921138  1354.30402112 C -538.074281339  1345.99582331  -739.129368008  1344.80113724  -875.998808024  1343.98784763 L -949.398107518  743.309668882 C -851.14693672  731.303960391  -683.651555005  710.837021319  -649.452755906  637.795275591 C -565.091348135  457.616302704  -673.409406866  121.107549166  -708.661417323  37.8293872947 L -530.609177191  -52.6703526272 L -516.72673065  -59.7264716658 L -502.844284109  -66.7825907043 L -284.470975712  -141.732283465 C -252.688753608  -78.3927191927  -213.353231784  0.0  0.0  0.0 " id="B.seamline" />
      <path style="fill:none;stroke:#008000;stroke-width:4;stroke-linejoin:miter;stroke-miterlimit:4" d="M -302.71875,-194.9375 C -377.03877,-169.3366 -451.50422,-144.07479 -525.7334,-118.26211 -610.65551,-75.016418 -695.6617,-31.921082 -780.59375,11.3125 -763.45497,51.898491 -746.44194,92.450557 -733.63331,134.60886 -704.55118,227.48903 -682.74268,322.9749 -675.87419,420.27533 -672.30449,480.70775 -673.4821,543.23845 -694.71875,600.65625 -698.13302,610.0247 -702.03181,619.7368 -710.8125,625.375 -737.05379,644.68213 -769.26918,653.53992 -800.3125,661.78125 -869.81685,678.86973 -941.17884,685.18775 -1012.0625,694.34375 -983.33289,929.5533 -954.56862,1164.7586 -925.84375,1399.9688 -792.21502,1400.9914 -658.45183,1400.6253 -525.00617,1406.2482 -498.70301,1407.6637 -472.20494,1408.2221 -446.43296,1414.4756 -425.2109,1418.3008 -403.99453,1423.1707 -382.76779,1426.3435 -352.74627,1420.9158 -322.82398,1414.1708 -292.75465,1409.4974 -211.86298,1402.719 -130.52745,1403.274 -49.312512,1402.7345 -14.125032,1402.6988 21.062499,1402.7285 56.25,1402.7188 56.25,916.39583 56.25,430.07292 56.25,-56.25 -8.2028894,-56.354282 -74.213712,-53.53629 -136.34375,-73.46875 -166.34681,-82.915222 -194.66624,-100.53616 -212.09375,-127.3125 -229.28847,-153.74651 -241.59842,-182.99175 -256.28125,-210.875 -271.76042,-205.5625 -287.23958,-200.25 -302.71875,-194.9375 z" id="B.cuttingline" inkscape:connector-curvature="0" />
      <g id="B.info" transform="">
        <text style="font-size:12; vertical-align:top; fill-opacity:1.0; fill:#000000; text-anchor:start; stroke:none; font-weight:normal; font-style:normal; text-align:right; " transform="" id="B.info.lineNext Patterns" y="318.897637795" x="-354.330708661">
Next Patterns</text>
        <text style="font-size:12; vertical-align:top; fill-opacity:1.0; fill:#000000; text-anchor:start; stroke:none; font-weight:normal; font-style:normal; text-align:right; " transform="" id="B.info.lineMR_B1" y="333.297637795" x="-354.330708661">
MR_B1</text>
        <text style="font-size:12; vertical-align:top; fill-opacity:1.0; fill:#000000; text-anchor:start; stroke:none; font-weight:normal; font-style:normal; text-align:right; " transform="" id="B.info.lineSpencer Bodice Short" y="347.697637795" x="-354.330708661">
Spencer Bodice Short</text>
        <text style="font-size:12; vertical-align:top; fill-opacity:1.0; fill:#000000; text-anchor:start; stroke:none; font-weight:normal; font-style:normal; text-align:right; " transform="" id="B.info.linePattern Piece B" y="362.097637795" x="-354.330708661">
Pattern Piece B</text>
        <text style="font-size:12; vertical-align:top; fill-opacity:1.0; fill:#000000; text-anchor:start; stroke:none; font-weight:normal; font-style:normal; text-align:right; " transform="" id="B.info.lineCut 2 Fabric" y="376.497637795" x="-354.330708661">
Cut 2 Fabric</text>
        <text style="font-size:12; vertical-align:top; fill-opacity:1.0; fill:#000000; text-anchor:start; stroke:none; font-weight:normal; font-style:normal; text-align:right; " transform="" id="B.info.line " y="390.897637795" x="-354.330708661" />
        <text style="font-size:12; vertical-align:top; fill-opacity:1.0; fill:#000000; text-anchor:start; stroke:none; font-weight:normal; font-style:normal; text-align:right; " transform="" id="B.info.lineDressFormLg" y="405.297637795" x="-354.330708661">
DressFormLg</text>
        <text style="font-size:12; vertical-align:top; fill-opacity:1.0; fill:#000000; text-anchor:start; stroke:none; font-weight:normal; font-style:normal; text-align:right; " transform="" id="B.info.line2014/11/11 12:14" y="419.697637795" x="-354.330708661">
2014/11/11 12:14</text>
      </g>
    </g>
    <g id="document.bodice.Bodice Sleeve.pattern" transform=" translate(994.929739, 2240.279676)">
      <line style="stroke-linejoin:miter; stroke:green; stroke-width:4; stroke-miterlimit:4; fill:none; " y2="2090.5511811" marker-end="url(#Arrow1Mend)" marker-start="url(#Arrow1Mstart)" transform="" x2="0.0" y1="513.931405017" x1="0.0" id="C.grainline" />
      <g id="C.letter" transform="matrix(15.000000, 0, 0, 15.000000, -3653.859767, -13705.334871)">
        <text style="font-size:24; vertical-align:top; fill-opacity:1.0; fill:#000000; text-anchor:start; stroke:none; font-weight:normal; font-style:normal; text-align:right; " transform="" id="C.letter.letterline" y="978.952490771" x="260.989983343">
C</text>
      </g>
      <path style="stroke-linejoin:miter; stroke-dashoffset:0; stroke:green; stroke-miterlimit:4; stroke-dasharray:6,6; stroke-width:3; fill:none; " transform="" d="M 743.005141492  1466.17890815 L 483.661417323  1443.97357652 L 726.837986555  1536.80352964 " id="C.dartline" />
      <path style="stroke-linejoin:miter; stroke-dashoffset:0; stroke:green; stroke-dasharray:24,6; stroke-miterlimit:4; stroke-width:4; fill:none; " transform="" d="M 903.847062003  513.931405017 C 826.671070324  474.545339644  749.020727389  434.917193422  677.885296502  385.448553763 C 534.298700544  285.596293268  413.024303982  153.326385736  260.989983343  66.8790039812 C 182.920389413  22.4882903482  88.9094795498  0.0  0.0  0.0 C -85.7787774454  0.0  -191.435832419  65.4462215039  -243.475874422  97.6809276177 C -390.6696817  188.855894756  -512.417541321  322.991145304  -660.371187581  416.250477399 C -734.348010712  462.880143447  -820.115926473  488.712502204  -903.847062003  513.931405017 C -746.973089277  804.93858431  -578.864046938  1116.78724457  -531.496062992  1443.97357652 L -396.74359173  2374.75346456 C -141.469158373  2337.79643403  128.460336118  2365.62095912  373.864913957  2445.04042529 L 674.286813864  1516.74270341 L 688.560967515  1490.87850436 L 686.960199012  1461.3802706 L 903.847062003  513.931405017 " id="C.seamline" />
      <path style="fill:none;stroke:#008000;stroke-width:4;stroke-linejoin:miter;stroke-miterlimit:4" d="M -3.71875,-56.21875 C -64.660898,-54.775623 -122.76254,-31.983809 -176.73677,-5.206226 -227.53082,20.634883 -276.19829,50.508699 -323.09375,82.875 -448.98551,170.70927 -556.5138,282.59671 -685.65459,365.66982 -760.00589,413.50094 -845.95791,437.46404 -929.69749,462.98639 -948.465,468.65759 -967.2325,474.3288 -986,480 -874.59375,687.62561 -759.03013,894.32816 -676.5172,1115.5042 -633.22802,1231.4356 -600.08305,1351.2265 -583.9732,1473.9293 -537.45833,1795.3706 -490.88064,2116.8028 -444.40625,2438.25 -383.35135,2429.4079 -322.21263,2420.653 -260.5625,2417.5312 -47.878848,2405.3224 166.83369,2435.8941 369.16814,2502.5702 382.83084,2506.9218 396.49355,2511.2734 410.15625,2515.625 515.50244,2190.15 620.8209,1864.666 726.15625,1539.1875 732.43149,1527.0635 740.16654,1515.2731 745.53946,1502.939 745.34994,1489.7779 743.03301,1476.4318 744.23189,1463.3881 818.96069,1136.8615 893.74225,810.34685 968.4375,483.8125 867.86376,432.09155 765.09573,382.81008 674.8625,313.88125 557.59448,225.77109 453.18773,120.96691 328.87509,42.119375 285.30164,13.951776 238.78138,-9.986497 189.28125,-25.875 127.14621,-46.272573 61.675693,-56.609929 -3.71875,-56.21875 z" id="C.cuttingline" inkscape:connector-curvature="0" />
      <g id="C.info" transform="">
        <text style="font-size:12; vertical-align:top; fill-opacity:1.0; fill:#000000; text-anchor:start; stroke:none; font-weight:normal; font-style:normal; text-align:right; " transform="" id="C.info.lineNext Patterns" y="1049.8186325" x="260.989983343">
Next Patterns</text>
        <text style="font-size:12; vertical-align:top; fill-opacity:1.0; fill:#000000; text-anchor:start; stroke:none; font-weight:normal; font-style:normal; text-align:right; " transform="" id="C.info.lineMR_B1" y="1064.2186325" x="260.989983343">
MR_B1</text>
        <text style="font-size:12; vertical-align:top; fill-opacity:1.0; fill:#000000; text-anchor:start; stroke:none; font-weight:normal; font-style:normal; text-align:right; " transform="" id="C.info.lineSpencer Bodice Short" y="1078.6186325" x="260.989983343">
Spencer Bodice Short</text>
        <text style="font-size:12; vertical-align:top; fill-opacity:1.0; fill:#000000; text-anchor:start; stroke:none; font-weight:normal; font-style:normal; text-align:right; " transform="" id="C.info.linePattern Piece C" y="1093.0186325" x="260.989983343">
Pattern Piece C</text>
        <text style="font-size:12; vertical-align:top; fill-opacity:1.0; fill:#000000; text-anchor:start; stroke:none; font-weight:normal; font-style:normal; text-align:right; " transform="" id="C.info.lineCut 2 Fabric" y="1107.4186325" x="260.989983343">
Cut 2 Fabric</text>
        <text style="font-size:12; vertical-align:top; fill-opacity:1.0; fill:#000000; text-anchor:start; stroke:none; font-weight:normal; font-style:normal; text-align:right; " transform="" id="C.info.line " y="1121.8186325" x="260.989983343" />
        <text style="font-size:12; vertical-align:top; fill-opacity:1.0; fill:#000000; text-anchor:start; stroke:none; font-weight:normal; font-style:normal; text-align:right; " transform="" id="C.info.lineDressFormLg" y="1136.2186325" x="260.989983343">
DressFormLg</text>
        <text style="font-size:12; vertical-align:top; fill-opacity:1.0; fill:#000000; text-anchor:start; stroke:none; font-weight:normal; font-style:normal; text-align:right; " transform="" id="C.info.line2014/11/11 12:14" y="1150.6186325" x="260.989983343">
2014/11/11 12:14</text>
      </g>
    </g>
  </g>
  <g inkscape:label="Label-notes" id="notes" inkscape:groupmode="layer" transform="translate(88.582677,88.582677)">
    <g id="document.titleblock">
      <text style="font-size:40; vertical-align:top; fill-opacity:1.0; fill:#000000; text-anchor:right; stroke:none; font-weight:normal; font-style:normal; text-align:right; " transform="" id="company" y="0.0" x="0.0">
Next Patterns</text>
      <text style="font-size:40; vertical-align:top; fill-opacity:1.0; fill:#000000; text-anchor:right; stroke:none; font-weight:normal; font-style:normal; text-align:right; " transform="" id="designer" y="44.0" x="0.0">
S.L.Spencer</text>
      <text style="font-size:40; vertical-align:top; fill-opacity:1.0; fill:#000000; text-anchor:right; stroke:none; font-weight:normal; font-style:normal; text-align:right; " transform="" id="pattern_number" y="88.0" x="0.0">
MR_B1</text>
      <text style="font-size:40; vertical-align:top; fill-opacity:1.0; fill:#000000; text-anchor:right; stroke:none; font-weight:normal; font-style:normal; text-align:right; " transform="" id="pattern_name" y="132.0" x="0.0">
Spencer Bodice Short</text>
      <text style="font-size:40; vertical-align:top; fill-opacity:1.0; fill:#000000; text-anchor:right; stroke:none; font-weight:normal; font-style:normal; text-align:right; " transform="" id="client" y="176.0" x="0.0">
DressFormLg</text>
      <text style="font-size:40; vertical-align:top; fill-opacity:1.0; fill:#000000; text-anchor:right; stroke:none; font-weight:normal; font-style:normal; text-align:right; " transform="" id="date" y="220.0" x="0.0">
2014/11/11 12:14</text>
    </g>
    <g id="document.testgrid">
      <path style="stroke-linejoin:miter; stroke:green; stroke-width:4; stroke-miterlimit:4; fill:none; " d="M 1080.0  0.0 L 1080.0  212.598425197 M 1115.43307087  0.0 L 1115.43307087  212.598425197 M 1150.86614173  0.0 L 1150.86614173  212.598425197 M 1186.2992126  0.0 L 1186.2992126  212.598425197 M 1221.73228346  0.0 L 1221.73228346  212.598425197 M 1257.16535433  0.0 L 1257.16535433  212.598425197 M 1292.5984252  0.0 L 1292.5984252  212.598425197 M 1080.0  0.0 L 1292.5984252  0.0 M 1080.0  35.4330708661 L 1292.5984252  35.4330708661 M 1080.0  70.8661417323 L 1292.5984252  70.8661417323 M 1080.0  106.299212598 L 1292.5984252  106.299212598 M 1080.0  141.732283465 L 1292.5984252  141.732283465 M 1080.0  177.165354331 L 1292.5984252  177.165354331 M 1080.0  212.598425197 L 1292.5984252  212.598425197 M 1469.76377953  0.0 L 1469.76377953  270.0 M 1559.76377953  0.0 L 1559.76377953  270.0 M 1649.76377953  0.0 L 1649.76377953  270.0 M 1739.76377953  0.0 L 1739.76377953  270.0 M 1469.76377953  0.0 L 1739.76377953  0.0 M 1469.76377953  90.0 L 1739.76377953  90.0 M 1469.76377953  180.0 L 1739.76377953  180.0 M 1469.76377953  270.0 L 1739.76377953  270.0 " id="testgrid" />
    </g>
    <g id="document.bodice.Bodice Front.notes" transform=" translate(58.750000, 757.717638)" />
    <g id="document.bodice.Bodice Back.notes" transform=" translate(2379.756512, 580.552283)" />
    <g id="document.bodice.Bodice Sleeve.notes" transform=" translate(994.929739, 2240.279676)" />
  </g>
  <g inkscape:label="Label-reference" id="reference" inkscape:groupmode="layer" transform="translate(88.582677,88.582677)">
    <g id="document.bodice.Bodice Front.reference" transform=" translate(58.750000, 757.717638)">
      <circle style="stroke:gray; stroke-width:1; fill:none; " transform="" cy="0.0" cx="160.146981797" r="5" id="A.FNC.inpoint" d="M 165.14699,0 C 165.14699,2.7614237 162.90841,5 160.14699,5 157.38556,5 155.14699,2.7614237 155.14699,0 155.14699,-2.7614237 157.38556,-5 160.14699,-5 162.90841,-5 165.14699,-2.7614237 165.14699,0 z" />
      <text style="font-size:25; vertical-align:top; fill-opacity:1.0; fill:gray; text-anchor:right; stroke:none; font-weight:normal; font-style:italic; text-align:right; " transform="" id="A.FNC.inpoint.text" y="-7.0" x="167.146981797">
FNC.in</text>
      <circle style="stroke:red; stroke-width:1; fill:red; " transform="" cy="0.0" cx="0.0" r="5" id="A.FNC" d="M 5,0 C 5,2.7614237 2.7614237,5 0,5 -2.7614237,5 -5,2.7614237 -5,0 -5,-2.7614237 -2.7614237,-5 0,-5 2.7614237,-5 5,-2.7614237 5,0 z" />
      <text style="font-size:30; vertical-align:top; fill-opacity:1.0; fill:darkblue; text-anchor:right; stroke:none; font-weight:normal; font-style:italic; text-align:right; " transform="" id="A.FNC.text" y="-7.0" x="7.0">
FNC</text>
      <circle style="stroke:gray; stroke-width:1; fill:none; " transform="" cy="1240.15748031" cx="88.6462178188" r="5" id="A.FWC.outpoint" d="M 93.646217,1240.1575 C 93.646217,1242.9189 91.407641,1245.1575 88.646217,1245.1575 85.884794,1245.1575 83.646217,1242.9189 83.646217,1240.1575 83.646217,1237.396 85.884794,1235.1575 88.646217,1235.1575 91.407641,1235.1575 93.646217,1237.396 93.646217,1240.1575 z" />
      <text style="font-size:25; vertical-align:top; fill-opacity:1.0; fill:gray; text-anchor:right; stroke:none; font-weight:normal; font-style:italic; text-align:right; " transform="" id="A.FWC.outpoint.text" y="1233.15748031" x="95.6462178188">
FWC.out</text>
      <circle style="stroke:red; stroke-width:1; fill:red; " transform="" cy="1240.15748031" cx="0.0" r="5" id="A.FWC" d="M 5,1240.1575 C 5,1242.9189 2.7614237,1245.1575 0,1245.1575 -2.7614237,1245.1575 -5,1242.9189 -5,1240.1575 -5,1237.396 -2.7614237,1235.1575 0,1235.1575 2.7614237,1235.1575 5,1237.396 5,1240.1575 z" />
      <text style="font-size:30; vertical-align:top; fill-opacity:1.0; fill:darkblue; text-anchor:right; stroke:none; font-weight:normal; font-style:italic; text-align:right; " transform="" id="A.FWC.text" y="1233.15748031" x="7.0">
FWC</text>
      <circle style="stroke:red; stroke-width:1; fill:red; " transform="" cy="-318.897637795" cx="0.0" r="5" id="A.FSH" d="M 5,-318.89764 C 5,-316.13622 2.7614237,-313.89764 0,-313.89764 -2.7614237,-313.89764 -5,-316.13622 -5,-318.89764 -5,-321.65907 -2.7614237,-323.89764 0,-323.89764 2.7614237,-323.89764 5,-321.65907 5,-318.89764 z" />
      <text style="font-size:30; vertical-align:top; fill-opacity:1.0; fill:darkblue; text-anchor:right; stroke:none; font-weight:normal; font-style:italic; text-align:right; " transform="" id="A.FSH.text" y="-325.897637795" x="7.0">
FSH</text>
      <circle style="stroke:red; stroke-width:1; fill:red; " transform="" cy="-318.897637795" cx="717.519685039" r="5" id="A.FSW" d="M 722.51971,-318.89764 C 722.51971,-316.13622 720.28114,-313.89764 717.51971,-313.89764 714.75829,-313.89764 712.51971,-316.13622 712.51971,-318.89764 712.51971,-321.65907 714.75829,-323.89764 717.51971,-323.89764 720.28114,-323.89764 722.51971,-321.65907 722.51971,-318.89764 z" />
      <text style="font-size:30; vertical-align:top; fill-opacity:1.0; fill:darkblue; text-anchor:right; stroke:none; font-weight:normal; font-style:italic; text-align:right; " transform="" id="A.FSW.text" y="-325.897637795" x="724.519685039">
FSW</text>
      <circle style="stroke:gray; stroke-width:1; fill:none; " transform="" cy="-143.764315644" cx="700.644760759" r="5" id="A.FSP.inpoint" d="M 705.64478,-143.76431 C 705.64478,-141.00289 703.4062,-138.76431 700.64478,-138.76431 697.88335,-138.76431 695.64478,-141.00289 695.64478,-143.76431 695.64478,-146.52574 697.88335,-148.76431 700.64478,-148.76431 703.4062,-148.76431 705.64478,-146.52574 705.64478,-143.76431 z" />
      <text style="font-size:25; vertical-align:top; fill-opacity:1.0; fill:gray; text-anchor:right; stroke:none; font-weight:normal; font-style:italic; text-align:right; " transform="" id="A.FSP.inpoint.text" y="-150.764315644" x="707.644760759">
FSP.in</text>
      <circle style="stroke:red; stroke-width:1; fill:red; " transform="" cy="-223.334513127" cx="717.519685039" r="5" id="A.FSP" d="M 722.51971,-223.33452 C 722.51971,-220.57309 720.28114,-218.33452 717.51971,-218.33452 714.75829,-218.33452 712.51971,-220.57309 712.51971,-223.33452 712.51971,-226.09594 714.75829,-228.33452 717.51971,-228.33452 720.28114,-228.33452 722.51971,-226.09594 722.51971,-223.33452 z" />
      <text style="font-size:30; vertical-align:top; fill-opacity:1.0; fill:darkblue; text-anchor:right; stroke:none; font-weight:normal; font-style:italic; text-align:right; " transform="" id="A.FSP.text" y="-230.334513127" x="724.519685039">
FSP</text>
      <circle style="stroke:gray; stroke-width:1; fill:none; " transform="" cy="-162.917928626" cx="233.832093174" r="5" id="A.FNS.outpoint" d="M 238.83209,-162.91792 C 238.83209,-160.1565 236.59352,-157.91792 233.83209,-157.91792 231.07067,-157.91792 228.83209,-160.1565 228.83209,-162.91792 228.83209,-165.67935 231.07067,-167.91792 233.83209,-167.91792 236.59352,-167.91792 238.83209,-165.67935 238.83209,-162.91792 z" />
      <text style="font-size:25; vertical-align:top; fill-opacity:1.0; fill:gray; text-anchor:right; stroke:none; font-weight:normal; font-style:italic; text-align:right; " transform="" id="A.FNS.outpoint.text" y="-169.917928626" x="240.832093174">
FNS.out</text>
      <circle style="stroke:red; stroke-width:1; fill:red; " transform="" cy="-318.897637795" cx="266.911636328" r="5" id="A.FNS" d="M 271.91162,-318.89764 C 271.91162,-316.13622 269.67304,-313.89764 266.91162,-313.89764 264.1502,-313.89764 261.91162,-316.13622 261.91162,-318.89764 261.91162,-321.65907 264.1502,-323.89764 266.91162,-323.89764 269.67304,-323.89764 271.91162,-321.65907 271.91162,-318.89764 z" />
      <text style="font-size:30; vertical-align:top; fill-opacity:1.0; fill:darkblue; text-anchor:right; stroke:none; font-weight:normal; font-style:italic; text-align:right; " transform="" id="A.FNS.text" y="-325.897637795" x="273.911636328">
FNS</text>
      <circle style="stroke:red; stroke-width:1; fill:red; " transform="" cy="318.897637795" cx="0.0" r="5" id="A.FUC" d="M 5,318.89764 C 5,321.65907 2.7614237,323.89764 0,323.89764 -2.7614237,323.89764 -5,321.65907 -5,318.89764 -5,316.13622 -2.7614237,313.89764 0,313.89764 2.7614237,313.89764 5,316.13622 5,318.89764 z" />
      <text style="font-size:30; vertical-align:top; fill-opacity:1.0; fill:darkblue; text-anchor:right; stroke:none; font-weight:normal; font-style:italic; text-align:right; " transform="" id="A.FUC.text" y="311.897637795" x="7.0">
FUC</text>
      <circle style="stroke:red; stroke-width:1; fill:red; " transform="" cy="637.795275591" cx="0.0" r="5" id="A.FBC" d="M 5,637.79529 C 5,640.55671 2.7614237,642.79529 0,642.79529 -2.7614237,642.79529 -5,640.55671 -5,637.79529 -5,635.03386 -2.7614237,632.79529 0,632.79529 2.7614237,632.79529 5,635.03386 5,637.79529 z" />
      <text style="font-size:30; vertical-align:top; fill-opacity:1.0; fill:darkblue; text-anchor:right; stroke:none; font-weight:normal; font-style:italic; text-align:right; " transform="" id="A.FBC.text" y="630.795275591" x="7.0">
FBC</text>
      <circle style="stroke:red; stroke-width:1; fill:red; " transform="" cy="637.795275591" cx="354.330708661" r="5" id="A.FBP" d="M 359.33072,637.79529 C 359.33072,640.55671 357.09214,642.79529 354.33072,642.79529 351.5693,642.79529 349.33072,640.55671 349.33072,637.79529 349.33072,635.03386 351.5693,632.79529 354.33072,632.79529 357.09214,632.79529 359.33072,635.03386 359.33072,637.79529 z" />
      <text style="font-size:30; vertical-align:top; fill-opacity:1.0; fill:darkblue; text-anchor:right; stroke:none; font-weight:normal; font-style:italic; text-align:right; " transform="" id="A.FBP.text" y="630.795275591" x="361.330708661">
FBP</text>
      <circle style="stroke:gray; stroke-width:1; fill:none; " transform="" cy="405.875075416" cx="772.084679423" r="5" id="A.FAP.inpoint" d="M 777.08466,405.87506 C 777.08466,408.63648 774.84608,410.87506 772.08466,410.87506 769.32323,410.87506 767.08466,408.63648 767.08466,405.87506 767.08466,403.11364 769.32323,400.87506 772.08466,400.87506 774.84608,400.87506 777.08466,403.11364 777.08466,405.87506 z" />
      <text style="font-size:25; vertical-align:top; fill-opacity:1.0; fill:gray; text-anchor:right; stroke:none; font-weight:normal; font-style:italic; text-align:right; " transform="" id="A.FAP.inpoint.text" y="398.875075416" x="779.084679423">
FAP.in</text>
      <circle style="stroke:gray; stroke-width:1; fill:none; " transform="" cy="172.091907325" cx="609.135726881" r="5" id="A.FAP.outpoint" d="M 614.13574,172.0919 C 614.13574,174.85333 611.89717,177.0919 609.13574,177.0919 606.37432,177.0919 604.13574,174.85333 604.13574,172.0919 604.13574,169.33048 606.37432,167.0919 609.13574,167.0919 611.89717,167.0919 614.13574,169.33048 614.13574,172.0919 z" />
      <text style="font-size:25; vertical-align:top; fill-opacity:1.0; fill:gray; text-anchor:right; stroke:none; font-weight:normal; font-style:italic; text-align:right; " transform="" id="A.FAP.outpoint.text" y="165.091907325" x="616.135726881">
FAP.out</text>
      <circle style="stroke:red; stroke-width:1; fill:red; " transform="" cy="318.897637795" cx="711.460629921" r="5" id="A.FAP" d="M 716.46063,318.89764 C 716.46063,321.65907 714.22206,323.89764 711.46063,323.89764 708.69921,323.89764 706.46063,321.65907 706.46063,318.89764 706.46063,316.13622 708.69921,313.89764 711.46063,313.89764 714.22206,313.89764 716.46063,316.13622 716.46063,318.89764 z" />
      <text style="font-size:30; vertical-align:top; fill-opacity:1.0; fill:darkblue; text-anchor:right; stroke:none; font-weight:normal; font-style:italic; text-align:right; " transform="" id="A.FAP.text" y="311.897637795" x="718.460629921">
FAP</text>
      <circle style="stroke:red; stroke-width:1; fill:red; " transform="" cy="318.897637795" cx="921.25984252" r="5" id="A.f1" d="M 926.25983,318.89764 C 926.25983,321.65907 924.02125,323.89764 921.25983,323.89764 918.4984,323.89764 916.25983,321.65907 916.25983,318.89764 916.25983,316.13622 918.4984,313.89764 921.25983,313.89764 924.02125,313.89764 926.25983,316.13622 926.25983,318.89764 z" />
      <text style="font-size:30; vertical-align:top; fill-opacity:1.0; fill:darkblue; text-anchor:right; stroke:none; font-weight:normal; font-style:italic; text-align:right; " transform="" id="A.f1.text" y="311.897637795" x="928.25984252">
f1</text>
      <circle style="stroke:red; stroke-width:1; fill:red; " transform="" cy="440.379318512" cx="960.803917844" r="5" id="A.f2" d="M 965.80389,440.37933 C 965.80389,443.14076 963.56532,445.37933 960.80389,445.37933 958.04247,445.37933 955.80389,443.14076 955.80389,440.37933 955.80389,437.61791 958.04247,435.37933 960.80389,435.37933 963.56532,435.37933 965.80389,437.61791 965.80389,440.37933 z" />
      <text style="font-size:30; vertical-align:top; fill-opacity:1.0; fill:darkblue; text-anchor:right; stroke:none; font-weight:normal; font-style:italic; text-align:right; " transform="" id="A.f2.text" y="433.379318512" x="967.803917844">
f2</text>
      <circle style="stroke:red; stroke-width:1; fill:red; " transform="" cy="992.756759109" cx="1140.61090594" r="5" id="A.f3" d="M 1145.611,992.75677 C 1145.611,995.5182 1143.3724,997.75677 1140.611,997.75677 1137.8495,997.75677 1135.611,995.5182 1135.611,992.75677 1135.611,989.99535 1137.8495,987.75677 1140.611,987.75677 1143.3724,987.75677 1145.611,989.99535 1145.611,992.75677 z" />
      <text style="font-size:30; vertical-align:top; fill-opacity:1.0; fill:darkblue; text-anchor:right; stroke:none; font-weight:normal; font-style:italic; text-align:right; " transform="" id="A.f3.text" y="985.756759109" x="1147.61090594">
f3</text>
      <circle style="stroke:red; stroke-width:1; fill:red; " transform="" cy="1240.15748031" cx="354.330708661" r="5" id="A.f4" d="M 359.33072,1240.1575 C 359.33072,1242.9189 357.09214,1245.1575 354.33072,1245.1575 351.5693,1245.1575 349.33072,1242.9189 349.33072,1240.1575 349.33072,1237.396 351.5693,1235.1575 354.33072,1235.1575 357.09214,1235.1575 359.33072,1237.396 359.33072,1240.1575 z" />
      <text style="font-size:30; vertical-align:top; fill-opacity:1.0; fill:darkblue; text-anchor:right; stroke:none; font-weight:normal; font-style:italic; text-align:right; " transform="" id="A.f4.text" y="1233.15748031" x="361.330708661">
f4</text>
      <circle style="stroke:red; stroke-width:1; fill:red; " transform="" cy="1150.61284812" cx="670.334447545" r="5" id="A.f5" d="M 675.33447,1150.6128 C 675.33447,1153.3742 673.0959,1155.6128 670.33447,1155.6128 667.57305,1155.6128 665.33447,1153.3742 665.33447,1150.6128 665.33447,1147.8514 667.57305,1145.6128 670.33447,1145.6128 673.0959,1145.6128 675.33447,1147.8514 675.33447,1150.6128 z" />
      <text style="font-size:30; vertical-align:top; fill-opacity:1.0; fill:darkblue; text-anchor:right; stroke:none; font-weight:normal; font-style:italic; text-align:right; " transform="" id="A.f5.text" y="1143.61284812" x="677.334447545">
f5</text>
      <circle style="stroke:red; stroke-width:1; fill:red; " transform="" cy="977.505005481" cx="1187.46517297" r="5" id="A.f6" d="M 1192.4652,977.505 C 1192.4652,980.26643 1190.2266,982.505 1187.4652,982.505 1184.7038,982.505 1182.4652,980.26643 1182.4652,977.505 1182.4652,974.74358 1184.7038,972.505 1187.4652,972.505 1190.2266,972.505 1192.4652,974.74358 1192.4652,977.505 z" />
      <text style="font-size:30; vertical-align:top; fill-opacity:1.0; fill:darkblue; text-anchor:right; stroke:none; font-weight:normal; font-style:italic; text-align:right; " transform="" id="A.f6.text" y="970.505005481" x="1194.46517297">
f6</text>
      <circle style="stroke:red; stroke-width:1; fill:red; " transform="" cy="295.229658052" cx="993.969241709" r="5" id="A.f7" d="M 998.96924,295.22964 C 998.96924,297.99107 996.73066,300.22964 993.96924,300.22964 991.20781,300.22964 988.96924,297.99107 988.96924,295.22964 988.96924,292.46822 991.20781,290.22964 993.96924,290.22964 996.73066,290.22964 998.96924,292.46822 998.96924,295.22964 z" />
      <text style="font-size:30; vertical-align:top; fill-opacity:1.0; fill:darkblue; text-anchor:right; stroke:none; font-weight:normal; font-style:italic; text-align:right; " transform="" id="A.f7.text" y="288.229658052" x="1000.96924171">
f7</text>
      <circle style="stroke:red; stroke-width:1; fill:red; " transform="" cy="418.228595509" cx="1028.8522168" r="5" id="A.FBS" d="M 1033.8522,418.22861 C 1033.8522,420.99003 1031.6136,423.22861 1028.8522,423.22861 1026.0907,423.22861 1023.8522,420.99003 1023.8522,418.22861 1023.8522,415.46718 1026.0907,413.22861 1028.8522,413.22861 1031.6136,413.22861 1033.8522,415.46718 1033.8522,418.22861 z" />
      <text style="font-size:30; vertical-align:top; fill-opacity:1.0; fill:darkblue; text-anchor:right; stroke:none; font-weight:normal; font-style:italic; text-align:right; " transform="" id="A.FBS.text" y="411.228595509" x="1035.8522168">
FBS</text>
      <circle style="stroke:gray; stroke-width:1; fill:none; " transform="" cy="437.27316057" cx="900.773673277" r="5" id="A.FUS.outpoint" d="M 905.77368,437.27316 C 905.77368,440.03459 903.53511,442.27316 900.77368,442.27316 898.01226,442.27316 895.77368,440.03459 895.77368,437.27316 895.77368,434.51174 898.01226,432.27316 900.77368,432.27316 903.53511,432.27316 905.77368,434.51174 905.77368,437.27316 z" />
      <text style="font-size:25; vertical-align:top; fill-opacity:1.0; fill:gray; text-anchor:right; stroke:none; font-weight:normal; font-style:italic; text-align:right; " transform="" id="A.FUS.outpoint.text" y="430.27316057" x="907.773673277">
FUS.out</text>
      <circle style="stroke:red; stroke-width:1; fill:red; " transform="" cy="397.495711804" cx="1022.97229067" r="5" id="A.FUS" d="M 1027.9723,397.4957 C 1027.9723,400.25712 1025.7337,402.4957 1022.9723,402.4957 1020.2109,402.4957 1017.9723,400.25712 1017.9723,397.4957 1017.9723,394.73427 1020.2109,392.4957 1022.9723,392.4957 1025.7337,392.4957 1027.9723,394.73427 1027.9723,397.4957 z" />
      <text style="font-size:30; vertical-align:top; fill-opacity:1.0; fill:darkblue; text-anchor:right; stroke:none; font-weight:normal; font-style:italic; text-align:right; " transform="" id="A.FUS.text" y="390.495711804" x="1029.97229067">
FUS</text>
      <circle style="stroke:gray; stroke-width:1; fill:none; " transform="" cy="1202.2485947" cx="856.949499848" r="5" id="A.FWS.inpoint" d="M 861.94952,1202.2485 C 861.94952,1205.01 859.71095,1207.2485 856.94952,1207.2485 854.1881,1207.2485 851.94952,1205.01 851.94952,1202.2485 851.94952,1199.4871 854.1881,1197.2485 856.94952,1197.2485 859.71095,1197.2485 861.94952,1199.4871 861.94952,1202.2485 z" />
      <text style="font-size:25; vertical-align:top; fill-opacity:1.0; fill:gray; text-anchor:right; stroke:none; font-weight:normal; font-style:italic; text-align:right; " transform="" id="A.FWS.inpoint.text" y="1195.2485947" x="863.949499848">
FWS.in</text>
      <circle style="stroke:red; stroke-width:1; fill:red; " transform="" cy="1191.7749495" cx="1063.28928086" r="5" id="A.FWS" d="M 1068.2893,1191.7749 C 1068.2893,1194.5363 1066.0507,1196.7749 1063.2893,1196.7749 1060.5279,1196.7749 1058.2893,1194.5363 1058.2893,1191.7749 1058.2893,1189.0135 1060.5279,1186.7749 1063.2893,1186.7749 1066.0507,1186.7749 1068.2893,1189.0135 1068.2893,1191.7749 z" />
      <text style="font-size:30; vertical-align:top; fill-opacity:1.0; fill:darkblue; text-anchor:right; stroke:none; font-weight:normal; font-style:italic; text-align:right; " transform="" id="A.FWS.text" y="1184.7749495" x="1070.28928086">
FWS</text>
      <circle style="stroke:red; stroke-width:1; fill:red; " transform="" cy="637.795275591" cx="442.745684951" r="5" id="A.FD2" d="M 447.7457,637.79529 C 447.7457,640.55671 445.50712,642.79529 442.7457,642.79529 439.98427,642.79529 437.7457,640.55671 437.7457,637.79529 437.7457,635.03386 439.98427,632.79529 442.7457,632.79529 445.50712,632.79529 447.7457,635.03386 447.7457,637.79529 z" />
      <text style="font-size:30; vertical-align:top; fill-opacity:1.0; fill:darkblue; text-anchor:right; stroke:none; font-weight:normal; font-style:italic; text-align:right; " transform="" id="A.FD2.text" y="630.795275591" x="449.745684951">
FD2</text>
      <circle style="stroke:red; stroke-width:1; fill:red; " transform="" cy="637.795275591" cx="1094.54185159" r="5" id="A.FD2.i" d="M 1099.5419,637.79529 C 1099.5419,640.55671 1097.3033,642.79529 1094.5419,642.79529 1091.7804,642.79529 1089.5419,640.55671 1089.5419,637.79529 1089.5419,635.03386 1091.7804,632.79529 1094.5419,632.79529 1097.3033,632.79529 1099.5419,635.03386 1099.5419,637.79529 z" />
      <text style="font-size:30; vertical-align:top; fill-opacity:1.0; fill:darkblue; text-anchor:right; stroke:none; font-weight:normal; font-style:italic; text-align:right; " transform="" id="A.FD2.i.text" y="630.795275591" x="1101.54185159">
FD2.i</text>
      <circle style="stroke:red; stroke-width:1; fill:red; " transform="" cy="838.552215645" cx="1062.85446078" r="5" id="A.FD2.o" d="M 1067.8545,838.55225 C 1067.8545,841.31367 1065.6159,843.55225 1062.8545,843.55225 1060.0931,843.55225 1057.8545,841.31367 1057.8545,838.55225 1057.8545,835.79082 1060.0931,833.55225 1062.8545,833.55225 1065.6159,833.55225 1067.8545,835.79082 1067.8545,838.55225 z" />
      <text style="font-size:30; vertical-align:top; fill-opacity:1.0; fill:darkblue; text-anchor:right; stroke:none; font-weight:normal; font-style:italic; text-align:right; " transform="" id="A.FD2.o.text" y="831.552215645" x="1069.85446078">
FD2.o</text>
      <circle style="stroke:red; stroke-width:1; fill:red; " transform="" cy="1240.15748031" cx="270.633997225" r="5" id="A.f8" d="M 275.634,1240.1575 C 275.634,1242.9189 273.39543,1245.1575 270.634,1245.1575 267.87258,1245.1575 265.634,1242.9189 265.634,1240.1575 265.634,1237.396 267.87258,1235.1575 270.634,1235.1575 273.39543,1235.1575 275.634,1237.396 275.634,1240.1575 z" />
      <text style="font-size:30; vertical-align:top; fill-opacity:1.0; fill:darkblue; text-anchor:right; stroke:none; font-weight:normal; font-style:italic; text-align:right; " transform="" id="A.f8.text" y="1233.15748031" x="277.633997225">
f8</text>
      <circle style="stroke:red; stroke-width:1; fill:red; " transform="" cy="1240.15748031" cx="438.027420098" r="5" id="A.f9" d="M 443.02744,1240.1575 C 443.02744,1242.9189 440.78886,1245.1575 438.02744,1245.1575 435.26601,1245.1575 433.02744,1242.9189 433.02744,1240.1575 433.02744,1237.396 435.26601,1235.1575 438.02744,1235.1575 440.78886,1235.1575 443.02744,1237.396 443.02744,1240.1575 z" />
      <text style="font-size:30; vertical-align:top; fill-opacity:1.0; fill:darkblue; text-anchor:right; stroke:none; font-weight:normal; font-style:italic; text-align:right; " transform="" id="A.f9.text" y="1233.15748031" x="445.027420098">
f9</text>
      <circle style="stroke:red; stroke-width:1; fill:red; " transform="" cy="710.078740157" cx="354.330708661" r="5" id="A.FD1" d="M 359.33072,710.07874 C 359.33072,712.84016 357.09214,715.07874 354.33072,715.07874 351.5693,715.07874 349.33072,712.84016 349.33072,710.07874 349.33072,707.31731 351.5693,705.07874 354.33072,705.07874 357.09214,705.07874 359.33072,707.31731 359.33072,710.07874 z" />
      <text style="font-size:30; vertical-align:top; fill-opacity:1.0; fill:darkblue; text-anchor:right; stroke:none; font-weight:normal; font-style:italic; text-align:right; " transform="" id="A.FD1.text" y="703.078740157" x="361.330708661">
FD1</text>
      <circle style="stroke:gray; stroke-width:1; fill:none; " transform="" cy="1240.15748031" cx="169.417059436" r="5" id="A.FD1.i.inpoint" d="M 174.41705,1240.1575 C 174.41705,1242.9189 172.17848,1245.1575 169.41705,1245.1575 166.65563,1245.1575 164.41705,1242.9189 164.41705,1240.1575 164.41705,1237.396 166.65563,1235.1575 169.41705,1235.1575 172.17848,1235.1575 174.41705,1237.396 174.41705,1240.1575 z" />
      <text style="font-size:25; vertical-align:top; fill-opacity:1.0; fill:gray; text-anchor:right; stroke:none; font-weight:normal; font-style:italic; text-align:right; " transform="" id="A.FD1.i.inpoint.text" y="1233.15748031" x="176.417059436">
FD1.i.in</text>
      <circle style="stroke:red; stroke-width:1; fill:red; " transform="" cy="1255.75037202" cx="268.171959685" r="5" id="A.FD1.i" d="M 273.17197,1255.7504 C 273.17197,1258.5118 270.93339,1260.7504 268.17197,1260.7504 265.41054,1260.7504 263.17197,1258.5118 263.17197,1255.7504 263.17197,1252.9889 265.41054,1250.7504 268.17197,1250.7504 270.93339,1250.7504 273.17197,1252.9889 273.17197,1255.7504 z" />
      <text style="font-size:30; vertical-align:top; fill-opacity:1.0; fill:darkblue; text-anchor:right; stroke:none; font-weight:normal; font-style:italic; text-align:right; " transform="" id="A.FD1.i.text" y="1248.75037202" x="275.171959685">
FD1.i</text>
      <circle style="stroke:gray; stroke-width:1; fill:none; " transform="" cy="1224.79823872" cx="636.519475316" r="5" id="A.FD1.o.outpoint" d="M 641.51947,1224.7982 C 641.51947,1227.5596 639.28089,1229.7982 636.51947,1229.7982 633.75805,1229.7982 631.51947,1227.5596 631.51947,1224.7982 631.51947,1222.0368 633.75805,1219.7982 636.51947,1219.7982 639.28089,1219.7982 641.51947,1222.0368 641.51947,1224.7982 z" />
      <text style="font-size:25; vertical-align:top; fill-opacity:1.0; fill:gray; text-anchor:right; stroke:none; font-weight:normal; font-style:italic; text-align:right; " transform="" id="A.FD1.o.outpoint.text" y="1217.79823872" x="643.519475316">
FD1.o.out</text>
      <circle style="stroke:red; stroke-width:1; fill:red; " transform="" cy="1255.75037202" cx="440.489457638" r="5" id="A.FD1.o" d="M 445.48947,1255.7504 C 445.48947,1258.5118 443.2509,1260.7504 440.48947,1260.7504 437.72805,1260.7504 435.48947,1258.5118 435.48947,1255.7504 435.48947,1252.9889 437.72805,1250.7504 440.48947,1250.7504 443.2509,1250.7504 445.48947,1252.9889 445.48947,1255.7504 z" />
      <text style="font-size:30; vertical-align:top; fill-opacity:1.0; fill:darkblue; text-anchor:right; stroke:none; font-weight:normal; font-style:italic; text-align:right; " transform="" id="A.FD1.o.text" y="1248.75037202" x="447.489457638">
FD1.o</text>
      <path style="stroke-linejoin:miter; stroke-dashoffset:0; stroke:gray; stroke-miterlimit:4; stroke-dasharray:6,6; stroke-width:2; fill:none; " transform="" d="M 0.0  1240.15748031 L 717.519685039  -223.334513127 L 717.519685039  -318.897637795 L 0.0  -318.897637795 L 0.0  0.0 M 0.0  637.795275591 L 354.330708661  637.795275591 L 1028.8522168  418.228595509 M 0.0  318.897637795 L 921.25984252  318.897637795 L 993.969241709  295.229658052 L 1187.46517297  977.505005481 L 1140.61090594  992.756759109 L 921.25984252  318.897637795 M 0.0  1240.15748031 L 354.330708661  1240.15748031 L 354.330708661  637.795275591 L 670.334447545  1150.61284812 L 1140.61090594  992.756759109 M 354.330708661  637.795275591 L 442.745684951  637.795275591 " id="A.gridline" />
    </g>
    <g id="document.bodice.Bodice Back.reference" transform=" translate(2379.756512, 580.552283)">
      <circle style="stroke:gray; stroke-width:1; fill:none; " transform="" cy="0.0" cx="-213.353231784" r="5" id="B.BNC.inpoint" d="M -208.35323,0 C -208.35323,2.7614237 -210.5918,5 -213.35323,5 -216.11465,5 -218.35323,2.7614237 -218.35323,0 -218.35323,-2.7614237 -216.11465,-5 -213.35323,-5 -210.5918,-5 -208.35323,-2.7614237 -208.35323,0 z" />
      <text style="font-size:25; vertical-align:top; fill-opacity:1.0; fill:gray; text-anchor:right; stroke:none; font-weight:normal; font-style:italic; text-align:right; " transform="" id="B.BNC.inpoint.text" y="-7.0" x="-206.353231784">
BNC.in</text>
      <circle style="stroke:red; stroke-width:1; fill:red; " transform="" cy="0.0" cx="0.0" r="5" id="B.BNC" d="M 5,0 C 5,2.7614237 2.7614237,5 0,5 -2.7614237,5 -5,2.7614237 -5,0 -5,-2.7614237 -2.7614237,-5 0,-5 2.7614237,-5 5,-2.7614237 5,0 z" />
      <text style="font-size:30; vertical-align:top; fill-opacity:1.0; fill:darkblue; text-anchor:right; stroke:none; font-weight:normal; font-style:italic; text-align:right; " transform="" id="B.BNC.text" y="-7.0" x="7.0">
BNC</text>
      <circle style="stroke:gray; stroke-width:1; fill:none; " transform="" cy="1346.45669291" cx="-101.065792802" r="5" id="B.BWC.outpoint" d="M -96.065796,1346.4567 C -96.065796,1349.2181 -98.304372,1351.4567 -101.0658,1351.4567 -103.82722,1351.4567 -106.0658,1349.2181 -106.0658,1346.4567 -106.0658,1343.6952 -103.82722,1341.4567 -101.0658,1341.4567 -98.304372,1341.4567 -96.065796,1343.6952 -96.065796,1346.4567 z" />
      <text style="font-size:25; vertical-align:top; fill-opacity:1.0; fill:gray; text-anchor:right; stroke:none; font-weight:normal; font-style:italic; text-align:right; " transform="" id="B.BWC.outpoint.text" y="1339.45669291" x="-94.0657928018">
BWC.out</text>
      <circle style="stroke:red; stroke-width:1; fill:red; " transform="" cy="1346.45669291" cx="0.0" r="5" id="B.BWC" d="M 5,1346.4567 C 5,1349.2181 2.7614237,1351.4567 0,1351.4567 -2.7614237,1351.4567 -5,1349.2181 -5,1346.4567 -5,1343.6952 -2.7614237,1341.4567 0,1341.4567 2.7614237,1341.4567 5,1343.6952 5,1346.4567 z" />
      <text style="font-size:30; vertical-align:top; fill-opacity:1.0; fill:darkblue; text-anchor:right; stroke:none; font-weight:normal; font-style:italic; text-align:right; " transform="" id="B.BWC.text" y="1339.45669291" x="7.0">
BWC</text>
      <circle style="stroke:red; stroke-width:1; fill:red; " transform="" cy="-141.732283465" cx="0.0" r="5" id="B.BSH" d="M 5,-141.73228 C 5,-138.97086 2.7614237,-136.73228 0,-136.73228 -2.7614237,-136.73228 -5,-138.97086 -5,-141.73228 -5,-144.49371 -2.7614237,-146.73228 0,-146.73228 2.7614237,-146.73228 5,-144.49371 5,-141.73228 z" />
      <text style="font-size:30; vertical-align:top; fill-opacity:1.0; fill:darkblue; text-anchor:right; stroke:none; font-weight:normal; font-style:italic; text-align:right; " transform="" id="B.BSH.text" y="-148.732283465" x="7.0">
BSH</text>
      <circle style="stroke:red; stroke-width:1; fill:red; " transform="" cy="-141.732283465" cx="-708.661417323" r="5" id="B.BSW" d="M -703.66144,-141.73228 C -703.66144,-138.97086 -705.90001,-136.73228 -708.66144,-136.73228 -711.42286,-136.73228 -713.66144,-138.97086 -713.66144,-141.73228 -713.66144,-144.49371 -711.42286,-146.73228 -708.66144,-146.73228 -705.90001,-146.73228 -703.66144,-144.49371 -703.66144,-141.73228 z" />
      <text style="font-size:30; vertical-align:top; fill-opacity:1.0; fill:darkblue; text-anchor:right; stroke:none; font-weight:normal; font-style:italic; text-align:right; " transform="" id="B.BSW.text" y="-148.732283465" x="-701.661417323">
BSW</text>
      <circle style="stroke:gray; stroke-width:1; fill:none; " transform="" cy="121.107549166" cx="-673.409406866" r="5" id="B.BSP.inpoint" d="M -668.40942,121.10755 C -668.40942,123.86898 -670.648,126.10755 -673.40942,126.10755 -676.17085,126.10755 -678.40942,123.86898 -678.40942,121.10755 -678.40942,118.34613 -676.17085,116.10755 -673.40942,116.10755 -670.648,116.10755 -668.40942,118.34613 -668.40942,121.10755 z" />
      <text style="font-size:25; vertical-align:top; fill-opacity:1.0; fill:gray; text-anchor:right; stroke:none; font-weight:normal; font-style:italic; text-align:right; " transform="" id="B.BSP.inpoint.text" y="114.107549166" x="-666.409406866">
BSP.in</text>
      <circle style="stroke:red; stroke-width:1; fill:red; " transform="" cy="37.8293872947" cx="-708.661417323" r="5" id="B.BSP" d="M -703.66144,37.829388 C -703.66144,40.590811 -705.90001,42.829388 -708.66144,42.829388 -711.42286,42.829388 -713.66144,40.590811 -713.66144,37.829388 -713.66144,35.067964 -711.42286,32.829388 -708.66144,32.829388 -705.90001,32.829388 -703.66144,35.067964 -703.66144,37.829388 z" />
      <text style="font-size:30; vertical-align:top; fill-opacity:1.0; fill:darkblue; text-anchor:right; stroke:none; font-weight:normal; font-style:italic; text-align:right; " transform="" id="B.BSP.text" y="30.8293872947" x="-701.661417323">
BSP</text>
      <circle style="stroke:gray; stroke-width:1; fill:none; " transform="" cy="-78.3927191927" cx="-252.688753608" r="5" id="B.BNS.outpoint" d="M -247.68875,-78.392715 C -247.68875,-75.631292 -249.92733,-73.392715 -252.68875,-73.392715 -255.45017,-73.392715 -257.68875,-75.631292 -257.68875,-78.392715 -257.68875,-81.154139 -255.45017,-83.392715 -252.68875,-83.392715 -249.92733,-83.392715 -247.68875,-81.154139 -247.68875,-78.392715 z" />
      <text style="font-size:25; vertical-align:top; fill-opacity:1.0; fill:gray; text-anchor:right; stroke:none; font-weight:normal; font-style:italic; text-align:right; " transform="" id="B.BNS.outpoint.text" y="-85.3927191927" x="-245.688753608">
BNS.out</text>
      <circle style="stroke:red; stroke-width:1; fill:red; " transform="" cy="-141.732283465" cx="-284.470975712" r="5" id="B.BNS" d="M -279.47098,-141.73228 C -279.47098,-138.97086 -281.70955,-136.73228 -284.47098,-136.73228 -287.2324,-136.73228 -289.47098,-138.97086 -289.47098,-141.73228 -289.47098,-144.49371 -287.2324,-146.73228 -284.47098,-146.73228 -281.70955,-146.73228 -279.47098,-144.49371 -279.47098,-141.73228 z" />
      <text style="font-size:30; vertical-align:top; fill-opacity:1.0; fill:darkblue; text-anchor:right; stroke:none; font-weight:normal; font-style:italic; text-align:right; " transform="" id="B.BNS.text" y="-148.732283465" x="-277.470975712">
BNS</text>
      <circle style="stroke:red; stroke-width:1; fill:red; " transform="" cy="637.795275591" cx="0.0" r="5" id="B.BUC" d="M 5,637.79529 C 5,640.55671 2.7614237,642.79529 0,642.79529 -2.7614237,642.79529 -5,640.55671 -5,637.79529 -5,635.03386 -2.7614237,632.79529 0,632.79529 2.7614237,632.79529 5,635.03386 5,637.79529 z" />
      <text style="font-size:30; vertical-align:top; fill-opacity:1.0; fill:darkblue; text-anchor:right; stroke:none; font-weight:normal; font-style:italic; text-align:right; " transform="" id="B.BUC.text" y="630.795275591" x="7.0">
BUC</text>
      <circle style="stroke:gray; stroke-width:1; fill:none; " transform="" cy="710.837021319" cx="-683.651555005" r="5" id="B.BAP.inpoint" d="M -678.65155,710.83704 C -678.65155,713.59846 -680.89013,715.83704 -683.65155,715.83704 -686.41297,715.83704 -688.65155,713.59846 -688.65155,710.83704 -688.65155,708.07561 -686.41297,705.83704 -683.65155,705.83704 -680.89013,705.83704 -678.65155,708.07561 -678.65155,710.83704 z" />
      <text style="font-size:25; vertical-align:top; fill-opacity:1.0; fill:gray; text-anchor:right; stroke:none; font-weight:normal; font-style:italic; text-align:right; " transform="" id="B.BAP.inpoint.text" y="703.837021319" x="-676.651555005">
BAP.in</text>
      <circle style="stroke:gray; stroke-width:1; fill:none; " transform="" cy="457.616302704" cx="-565.091348135" r="5" id="B.BAP.outpoint" d="M -560.09137,457.6163 C -560.09137,460.37773 -562.32995,462.6163 -565.09137,462.6163 -567.85279,462.6163 -570.09137,460.37773 -570.09137,457.6163 -570.09137,454.85488 -567.85279,452.6163 -565.09137,452.6163 -562.32995,452.6163 -560.09137,454.85488 -560.09137,457.6163 z" />
      <text style="font-size:25; vertical-align:top; fill-opacity:1.0; fill:gray; text-anchor:right; stroke:none; font-weight:normal; font-style:italic; text-align:right; " transform="" id="B.BAP.outpoint.text" y="450.616302704" x="-558.091348135">
BAP.out</text>
      <circle style="stroke:red; stroke-width:1; fill:red; " transform="" cy="637.795275591" cx="-649.452755906" r="5" id="B.BAP" d="M -644.45276,637.79529 C -644.45276,640.55671 -646.69134,642.79529 -649.45276,642.79529 -652.21418,642.79529 -654.45276,640.55671 -654.45276,637.79529 -654.45276,635.03386 -652.21418,632.79529 -649.45276,632.79529 -646.69134,632.79529 -644.45276,635.03386 -644.45276,637.79529 z" />
      <text style="font-size:30; vertical-align:top; fill-opacity:1.0; fill:darkblue; text-anchor:right; stroke:none; font-weight:normal; font-style:italic; text-align:right; " transform="" id="B.BAP.text" y="630.795275591" x="-642.452755906">
BAP</text>
      <circle style="stroke:red; stroke-width:1; fill:red; " transform="" cy="637.795275591" cx="-885.826771654" r="5" id="B.b1" d="M -880.82678,637.79529 C -880.82678,640.55671 -883.06536,642.79529 -885.82678,642.79529 -888.58821,642.79529 -890.82678,640.55671 -890.82678,637.79529 -890.82678,635.03386 -888.58821,632.79529 -885.82678,632.79529 -883.06536,632.79529 -880.82678,635.03386 -880.82678,637.79529 z" />
      <text style="font-size:30; vertical-align:top; fill-opacity:1.0; fill:darkblue; text-anchor:right; stroke:none; font-weight:normal; font-style:italic; text-align:right; " transform="" id="B.b1.text" y="630.795275591" x="-878.826771654">
b1</text>
      <circle style="stroke:red; stroke-width:1; fill:red; " transform="" cy="637.795275591" cx="-383.761673202" r="5" id="B.BD1" d="M -378.76169,637.79529 C -378.76169,640.55671 -381.00026,642.79529 -383.76169,642.79529 -386.52311,642.79529 -388.76169,640.55671 -388.76169,637.79529 -388.76169,635.03386 -386.52311,632.79529 -383.76169,632.79529 -381.00026,632.79529 -378.76169,635.03386 -378.76169,637.79529 z" />
      <text style="font-size:30; vertical-align:top; fill-opacity:1.0; fill:darkblue; text-anchor:right; stroke:none; font-weight:normal; font-style:italic; text-align:right; " transform="" id="B.BD1.text" y="630.795275591" x="-376.761673202">
BD1</text>
      <circle style="stroke:red; stroke-width:1; fill:red; " transform="" cy="1346.45669291" cx="-383.761673202" r="5" id="B.b2" d="M -378.76169,1346.4567 C -378.76169,1349.2181 -381.00026,1351.4567 -383.76169,1351.4567 -386.52311,1351.4567 -388.76169,1349.2181 -388.76169,1346.4567 -388.76169,1343.6952 -386.52311,1341.4567 -383.76169,1341.4567 -381.00026,1341.4567 -378.76169,1343.6952 -378.76169,1346.4567 z" />
      <text style="font-size:30; vertical-align:top; fill-opacity:1.0; fill:darkblue; text-anchor:right; stroke:none; font-weight:normal; font-style:italic; text-align:right; " transform="" id="B.b2.text" y="1339.45669291" x="-376.761673202">
b2</text>
      <circle style="stroke:red; stroke-width:1; fill:red; " transform="" cy="1346.45669291" cx="-307.009338562" r="5" id="B.b3" d="M -302.00934,1346.4567 C -302.00934,1349.2181 -304.24791,1351.4567 -307.00934,1351.4567 -309.77076,1351.4567 -312.00934,1349.2181 -312.00934,1346.4567 -312.00934,1343.6952 -309.77076,1341.4567 -307.00934,1341.4567 -304.24791,1341.4567 -302.00934,1343.6952 -302.00934,1346.4567 z" />
      <text style="font-size:30; vertical-align:top; fill-opacity:1.0; fill:darkblue; text-anchor:right; stroke:none; font-weight:normal; font-style:italic; text-align:right; " transform="" id="B.b3.text" y="1339.45669291" x="-300.009338562">
b3</text>
      <circle style="stroke:red; stroke-width:1; fill:red; " transform="" cy="1346.45669291" cx="-460.514007842" r="5" id="B.b4" d="M -455.51401,1346.4567 C -455.51401,1349.2181 -457.75258,1351.4567 -460.51401,1351.4567 -463.27543,1351.4567 -465.51401,1349.2181 -465.51401,1346.4567 -465.51401,1343.6952 -463.27543,1341.4567 -460.51401,1341.4567 -457.75258,1341.4567 -455.51401,1343.6952 -455.51401,1346.4567 z" />
      <text style="font-size:30; vertical-align:top; fill-opacity:1.0; fill:darkblue; text-anchor:right; stroke:none; font-weight:normal; font-style:italic; text-align:right; " transform="" id="B.b4.text" y="1339.45669291" x="-453.514007842">
b4</text>
      <circle style="stroke:gray; stroke-width:1; fill:none; " transform="" cy="1346.45669291" cx="-233.704316826" r="5" id="B.BD1.i.inpoint" d="M -228.70432,1346.4567 C -228.70432,1349.2181 -230.94289,1351.4567 -233.70432,1351.4567 -236.46574,1351.4567 -238.70432,1349.2181 -238.70432,1346.4567 -238.70432,1343.6952 -236.46574,1341.4567 -233.70432,1341.4567 -230.94289,1341.4567 -228.70432,1343.6952 -228.70432,1346.4567 z" />
      <text style="font-size:25; vertical-align:top; fill-opacity:1.0; fill:gray; text-anchor:right; stroke:none; font-weight:normal; font-style:italic; text-align:right; " transform="" id="B.BD1.i.inpoint.text" y="1339.45669291" x="-226.704316826">
BD1.i.in</text>
      <circle style="stroke:red; stroke-width:1; fill:red; " transform="" cy="1354.30402112" cx="-306.159425266" r="5" id="B.BD1.i" d="M -301.15942,1354.3041 C -301.15942,1357.0655 -303.398,1359.3041 -306.15942,1359.3041 -308.92085,1359.3041 -311.15942,1357.0655 -311.15942,1354.3041 -311.15942,1351.5427 -308.92085,1349.3041 -306.15942,1349.3041 -303.398,1349.3041 -301.15942,1351.5427 -301.15942,1354.3041 z" />
      <text style="font-size:30; vertical-align:top; fill-opacity:1.0; fill:darkblue; text-anchor:right; stroke:none; font-weight:normal; font-style:italic; text-align:right; " transform="" id="B.BD1.i.text" y="1347.30402112" x="-299.159425266">
BD1.i</text>
      <circle style="stroke:gray; stroke-width:1; fill:none; " transform="" cy="1345.99582331" cx="-538.074281339" r="5" id="B.BD1.o.outpoint" d="M -533.07428,1345.9958 C -533.07428,1348.7573 -535.31286,1350.9958 -538.07428,1350.9958 -540.8357,1350.9958 -543.07428,1348.7573 -543.07428,1345.9958 -543.07428,1343.2344 -540.8357,1340.9958 -538.07428,1340.9958 -535.31286,1340.9958 -533.07428,1343.2344 -533.07428,1345.9958 z" />
      <text style="font-size:25; vertical-align:top; fill-opacity:1.0; fill:gray; text-anchor:right; stroke:none; font-weight:normal; font-style:italic; text-align:right; " transform="" id="B.BD1.o.outpoint.text" y="1338.99582331" x="-531.074281339">
BD1.o.out</text>
      <circle style="stroke:red; stroke-width:1; fill:red; " transform="" cy="1354.30402112" cx="-461.363921138" r="5" id="B.BD1.o" d="M -456.36392,1354.3041 C -456.36392,1357.0655 -458.6025,1359.3041 -461.36392,1359.3041 -464.12535,1359.3041 -466.36392,1357.0655 -466.36392,1354.3041 -466.36392,1351.5427 -464.12535,1349.3041 -461.36392,1349.3041 -458.6025,1349.3041 -456.36392,1351.5427 -456.36392,1354.3041 z" />
      <text style="font-size:30; vertical-align:top; fill-opacity:1.0; fill:darkblue; text-anchor:right; stroke:none; font-weight:normal; font-style:italic; text-align:right; " transform="" id="B.BD1.o.text" y="1347.30402112" x="-454.363921138">
BD1.o</text>
      <circle style="stroke:red; stroke-width:1; fill:red; " transform="" cy="1343.98784763" cx="-826.724693851" r="5" id="B.b5" d="M -821.72467,1343.9878 C -821.72467,1346.7492 -823.96325,1348.9878 -826.72467,1348.9878 -829.48609,1348.9878 -831.72467,1346.7492 -831.72467,1343.9878 -831.72467,1341.2264 -829.48609,1338.9878 -826.72467,1338.9878 -823.96325,1338.9878 -821.72467,1341.2264 -821.72467,1343.9878 z" />
      <text style="font-size:30; vertical-align:top; fill-opacity:1.0; fill:darkblue; text-anchor:right; stroke:none; font-weight:normal; font-style:italic; text-align:right; " transform="" id="B.b5.text" y="1336.98784763" x="-819.724693851">
b5</text>
      <circle style="stroke:red; stroke-width:1; fill:red; " transform="" cy="637.795275591" cx="-962.291338583" r="5" id="B.b6" d="M -957.29132,637.79529 C -957.29132,640.55671 -959.5299,642.79529 -962.29132,642.79529 -965.05274,642.79529 -967.29132,640.55671 -967.29132,637.79529 -967.29132,635.03386 -965.05274,632.79529 -962.29132,632.79529 -959.5299,632.79529 -957.29132,635.03386 -957.29132,637.79529 z" />
      <text style="font-size:30; vertical-align:top; fill-opacity:1.0; fill:darkblue; text-anchor:right; stroke:none; font-weight:normal; font-style:italic; text-align:right; " transform="" id="B.b6.text" y="630.795275591" x="-955.291338583">
b6</text>
      <circle style="stroke:gray; stroke-width:1; fill:none; " transform="" cy="1344.80113724" cx="-739.129368008" r="5" id="B.BWS.inpoint" d="M -734.12939,1344.8011 C -734.12939,1347.5626 -736.36797,1349.8011 -739.12939,1349.8011 -741.89082,1349.8011 -744.12939,1347.5626 -744.12939,1344.8011 -744.12939,1342.0397 -741.89082,1339.8011 -739.12939,1339.8011 -736.36797,1339.8011 -734.12939,1342.0397 -734.12939,1344.8011 z" />
      <text style="font-size:25; vertical-align:top; fill-opacity:1.0; fill:gray; text-anchor:right; stroke:none; font-weight:normal; font-style:italic; text-align:right; " transform="" id="B.BWS.inpoint.text" y="1337.80113724" x="-732.129368008">
BWS.in</text>
      <circle style="stroke:red; stroke-width:1; fill:red; " transform="" cy="1343.98784763" cx="-875.998808024" r="5" id="B.BWS" d="M -870.99878,1343.9878 C -870.99878,1346.7492 -873.23736,1348.9878 -875.99878,1348.9878 -878.7602,1348.9878 -880.99878,1346.7492 -880.99878,1343.9878 -880.99878,1341.2264 -878.7602,1338.9878 -875.99878,1338.9878 -873.23736,1338.9878 -870.99878,1341.2264 -870.99878,1343.9878 z" />
      <text style="font-size:30; vertical-align:top; fill-opacity:1.0; fill:darkblue; text-anchor:right; stroke:none; font-weight:normal; font-style:italic; text-align:right; " transform="" id="B.BWS.text" y="1336.98784763" x="-868.998808024">
BWS</text>
      <circle style="stroke:gray; stroke-width:1; fill:none; " transform="" cy="731.303960391" cx="-851.14693672" r="5" id="B.BUS.outpoint" d="M -846.14691,731.30396 C -846.14691,734.06538 -848.38549,736.30396 -851.14691,736.30396 -853.90834,736.30396 -856.14691,734.06538 -856.14691,731.30396 -856.14691,728.54253 -853.90834,726.30396 -851.14691,726.30396 -848.38549,726.30396 -846.14691,728.54253 -846.14691,731.30396 z" />
      <text style="font-size:25; vertical-align:top; fill-opacity:1.0; fill:gray; text-anchor:right; stroke:none; font-weight:normal; font-style:italic; text-align:right; " transform="" id="B.BUS.outpoint.text" y="724.303960391" x="-844.14693672">
BUS.out</text>
      <circle style="stroke:red; stroke-width:1; fill:red; " transform="" cy="743.309668882" cx="-949.398107518" r="5" id="B.BUS" d="M -944.39813,743.30969 C -944.39813,746.07112 -946.63671,748.30969 -949.39813,748.30969 -952.15956,748.30969 -954.39813,746.07112 -954.39813,743.30969 -954.39813,740.54827 -952.15956,738.30969 -949.39813,738.30969 -946.63671,738.30969 -944.39813,740.54827 -944.39813,743.30969 z" />
      <text style="font-size:30; vertical-align:top; fill-opacity:1.0; fill:darkblue; text-anchor:right; stroke:none; font-weight:normal; font-style:italic; text-align:right; " transform="" id="B.BUS.text" y="736.309668882" x="-942.398107518">
BUS</text>
      <circle style="stroke:red; stroke-width:1; fill:red; " transform="" cy="138.801763145" cx="-415.819527212" r="5" id="B.BD2" d="M -410.81952,138.80176 C -410.81952,141.56318 -413.0581,143.80176 -415.81952,143.80176 -418.58094,143.80176 -420.81952,141.56318 -420.81952,138.80176 -420.81952,136.04033 -418.58094,133.80176 -415.81952,133.80176 -413.0581,133.80176 -410.81952,136.04033 -410.81952,138.80176 z" />
      <text style="font-size:30; vertical-align:top; fill-opacity:1.0; fill:darkblue; text-anchor:right; stroke:none; font-weight:normal; font-style:italic; text-align:right; " transform="" id="B.BD2.text" y="131.801763145" x="-408.819527212">
BD2</text>
      <circle style="stroke:red; stroke-width:1; fill:red; " transform="" cy="-66.7825907043" cx="-502.844284109" r="5" id="B.BD2.i" d="M -497.8443,-66.782593 C -497.8443,-64.021169 -500.08288,-61.782593 -502.8443,-61.782593 -505.60572,-61.782593 -507.8443,-64.021169 -507.8443,-66.782593 -507.8443,-69.544017 -505.60572,-71.782593 -502.8443,-71.782593 -500.08288,-71.782593 -497.8443,-69.544017 -497.8443,-66.782593 z" />
      <text style="font-size:30; vertical-align:top; fill-opacity:1.0; fill:darkblue; text-anchor:right; stroke:none; font-weight:normal; font-style:italic; text-align:right; " transform="" id="B.BD2.i.text" y="-73.7825907043" x="-495.844284109">
BD2.i</text>
      <circle style="stroke:red; stroke-width:1; fill:red; " transform="" cy="-52.6703526272" cx="-530.609177191" r="5" id="B.BD2.o" d="M -525.60919,-52.670353 C -525.60919,-49.908929 -527.84777,-47.670353 -530.60919,-47.670353 -533.37062,-47.670353 -535.60919,-49.908929 -535.60919,-52.670353 -535.60919,-55.431777 -533.37062,-57.670353 -530.60919,-57.670353 -527.84777,-57.670353 -525.60919,-55.431777 -525.60919,-52.670353 z" />
      <text style="font-size:30; vertical-align:top; fill-opacity:1.0; fill:darkblue; text-anchor:right; stroke:none; font-weight:normal; font-style:italic; text-align:right; " transform="" id="B.BD2.o.text" y="-59.6703526272" x="-523.609177191">
BD2.o</text>
      <path style="stroke-linejoin:miter; stroke-dashoffset:0; stroke:gray; stroke-miterlimit:4; stroke-dasharray:6,6; stroke-width:2; fill:none; " transform="" d="M 0.0  1346.45669291 L -708.661417323  37.8293872947 L -708.661417323  -141.732283465 L 0.0  -141.732283465 L 0.0  637.795275591 L -962.291338583  637.795275591 L -949.398107518  743.309668882 M -885.826771654  637.795275591 L -826.724693851  1343.98784763 L -875.998808024  1343.98784763 " id="B.gridline" />
    </g>
    <g id="document.bodice.Bodice Sleeve.reference" transform=" translate(994.929739, 2240.279676)">
      <circle style="stroke:gray; stroke-width:1; fill:none; " transform="" cy="0.0" cx="88.9094795498" r="5" id="C.SCM.inpoint" d="M 93.909477,0 C 93.909477,2.7614237 91.670901,5 88.909477,5 86.148053,5 83.909477,2.7614237 83.909477,0 83.909477,-2.7614237 86.148053,-5 88.909477,-5 91.670901,-5 93.909477,-2.7614237 93.909477,0 z" />
      <text style="font-size:25; vertical-align:top; fill-opacity:1.0; fill:gray; text-anchor:right; stroke:none; font-weight:normal; font-style:italic; text-align:right; " transform="" id="C.SCM.inpoint.text" y="-7.0" x="95.9094795498">
SCM.in</text>
      <circle style="stroke:gray; stroke-width:1; fill:none; " transform="" cy="0.0" cx="-85.7787774454" r="5" id="C.SCM.outpoint" d="M -80.778778,0 C -80.778778,2.7614237 -83.017354,5 -85.778778,5 -88.540202,5 -90.778778,2.7614237 -90.778778,0 -90.778778,-2.7614237 -88.540202,-5 -85.778778,-5 -83.017354,-5 -80.778778,-2.7614237 -80.778778,0 z" />
      <text style="font-size:25; vertical-align:top; fill-opacity:1.0; fill:gray; text-anchor:right; stroke:none; font-weight:normal; font-style:italic; text-align:right; " transform="" id="C.SCM.outpoint.text" y="-7.0" x="-78.7787774454">
SCM.out</text>
      <circle style="stroke:red; stroke-width:1; fill:red; " transform="" cy="0.0" cx="0.0" r="5" id="C.SCM" d="M 5,0 C 5,2.7614237 2.7614237,5 0,5 -2.7614237,5 -5,2.7614237 -5,0 -5,-2.7614237 -2.7614237,-5 0,-5 2.7614237,-5 5,-2.7614237 5,0 z" />
      <text style="font-size:30; vertical-align:top; fill-opacity:1.0; fill:darkblue; text-anchor:right; stroke:none; font-weight:normal; font-style:italic; text-align:right; " transform="" id="C.SCM.text" y="-7.0" x="7.0">
SCM</text>
      <circle style="stroke:red; stroke-width:1; fill:red; " transform="" cy="513.931405017" cx="0.0" r="5" id="C.SUM" d="M 5,513.9314 C 5,516.69282 2.7614237,518.9314 0,518.9314 -2.7614237,518.9314 -5,516.69282 -5,513.9314 -5,511.16997 -2.7614237,508.9314 0,508.9314 2.7614237,508.9314 5,511.16997 5,513.9314 z" />
      <text style="font-size:30; vertical-align:top; fill-opacity:1.0; fill:darkblue; text-anchor:right; stroke:none; font-weight:normal; font-style:italic; text-align:right; " transform="" id="C.SUM.text" y="506.931405017" x="7.0">
SUM</text>
      <circle style="stroke:red; stroke-width:1; fill:red; " transform="" cy="2374.01574803" cx="0.0" r="5" id="C.SWM" d="M 5,2374.0159 C 5,2376.7773 2.7614237,2379.0159 0,2379.0159 -2.7614237,2379.0159 -5,2376.7773 -5,2374.0159 -5,2371.2544 -2.7614237,2369.0159 0,2369.0159 2.7614237,2369.0159 5,2371.2544 5,2374.0159 z" />
      <text style="font-size:30; vertical-align:top; fill-opacity:1.0; fill:darkblue; text-anchor:right; stroke:none; font-weight:normal; font-style:italic; text-align:right; " transform="" id="C.SWM.text" y="2367.01574803" x="7.0">
SWM</text>
      <circle style="stroke:red; stroke-width:1; fill:red; " transform="" cy="1443.97357652" cx="0.0" r="5" id="C.SEM" d="M 5,1443.9736 C 5,1446.7351 2.7614237,1448.9736 0,1448.9736 -2.7614237,1448.9736 -5,1446.7351 -5,1443.9736 -5,1441.2122 -2.7614237,1438.9736 0,1438.9736 2.7614237,1438.9736 5,1441.2122 5,1443.9736 z" />
      <text style="font-size:30; vertical-align:top; fill-opacity:1.0; fill:darkblue; text-anchor:right; stroke:none; font-weight:normal; font-style:italic; text-align:right; " transform="" id="C.SEM.text" y="1436.97357652" x="7.0">
SEM</text>
      <circle style="stroke:gray; stroke-width:1; fill:none; " transform="" cy="474.545339644" cx="826.671070324" r="5" id="C.SUB.outpoint" d="M 831.67108,474.54535 C 831.67108,477.30677 829.43251,479.54535 826.67108,479.54535 823.90966,479.54535 821.67108,477.30677 821.67108,474.54535 821.67108,471.78393 823.90966,469.54535 826.67108,469.54535 829.43251,469.54535 831.67108,471.78393 831.67108,474.54535 z" />
      <text style="font-size:25; vertical-align:top; fill-opacity:1.0; fill:gray; text-anchor:right; stroke:none; font-weight:normal; font-style:italic; text-align:right; " transform="" id="C.SUB.outpoint.text" y="467.545339644" x="833.671070324">
SUB.out</text>
      <circle style="stroke:red; stroke-width:1; fill:red; " transform="" cy="513.931405017" cx="903.847062003" r="5" id="C.SUB" d="M 908.84705,513.9314 C 908.84705,516.69282 906.60847,518.9314 903.84705,518.9314 901.08562,518.9314 898.84705,516.69282 898.84705,513.9314 898.84705,511.16997 901.08562,508.9314 903.84705,508.9314 906.60847,508.9314 908.84705,511.16997 908.84705,513.9314 z" />
      <text style="font-size:30; vertical-align:top; fill-opacity:1.0; fill:darkblue; text-anchor:right; stroke:none; font-weight:normal; font-style:italic; text-align:right; " transform="" id="C.SUB.text" y="506.931405017" x="910.847062003">
SUB</text>
      <circle style="stroke:gray; stroke-width:1; fill:none; " transform="" cy="488.712502204" cx="-820.115926473" r="5" id="C.SUF.inpoint" d="M -815.11591,488.71249 C -815.11591,491.47392 -817.35448,493.71249 -820.11591,493.71249 -822.87733,493.71249 -825.11591,491.47392 -825.11591,488.71249 -825.11591,485.95107 -822.87733,483.71249 -820.11591,483.71249 -817.35448,483.71249 -815.11591,485.95107 -815.11591,488.71249 z" />
      <text style="font-size:25; vertical-align:top; fill-opacity:1.0; fill:gray; text-anchor:right; stroke:none; font-weight:normal; font-style:italic; text-align:right; " transform="" id="C.SUF.inpoint.text" y="481.712502204" x="-813.115926473">
SUF.in</text>
      <circle style="stroke:gray; stroke-width:1; fill:none; " transform="" cy="804.93858431" cx="-746.973089277" r="5" id="C.SUF.outpoint" d="M -741.97308,804.9386 C -741.97308,807.70002 -744.21166,809.9386 -746.97308,809.9386 -749.73451,809.9386 -751.97308,807.70002 -751.97308,804.9386 -751.97308,802.17717 -749.73451,799.9386 -746.97308,799.9386 -744.21166,799.9386 -741.97308,802.17717 -741.97308,804.9386 z" />
      <text style="font-size:25; vertical-align:top; fill-opacity:1.0; fill:gray; text-anchor:right; stroke:none; font-weight:normal; font-style:italic; text-align:right; " transform="" id="C.SUF.outpoint.text" y="797.93858431" x="-739.973089277">
SUF.out</text>
      <circle style="stroke:red; stroke-width:1; fill:red; " transform="" cy="513.931405017" cx="-903.847062003" r="5" id="C.SUF" d="M -898.84705,513.9314 C -898.84705,516.69282 -901.08562,518.9314 -903.84705,518.9314 -906.60847,518.9314 -908.84705,516.69282 -908.84705,513.9314 -908.84705,511.16997 -906.60847,508.9314 -903.84705,508.9314 -901.08562,508.9314 -898.84705,511.16997 -898.84705,513.9314 z" />
      <text style="font-size:30; vertical-align:top; fill-opacity:1.0; fill:darkblue; text-anchor:right; stroke:none; font-weight:normal; font-style:italic; text-align:right; " transform="" id="C.SUF.text" y="506.931405017" x="-896.847062003">
SUF</text>
      <circle style="stroke:red; stroke-width:1; fill:red; " transform="" cy="1443.97357652" cx="690.94488189" r="5" id="C.SEB" d="M 695.94489,1443.9736 C 695.94489,1446.7351 693.70631,1448.9736 690.94489,1448.9736 688.18346,1448.9736 685.94489,1446.7351 685.94489,1443.9736 685.94489,1441.2122 688.18346,1438.9736 690.94489,1438.9736 693.70631,1438.9736 695.94489,1441.2122 695.94489,1443.9736 z" />
      <text style="font-size:30; vertical-align:top; fill-opacity:1.0; fill:darkblue; text-anchor:right; stroke:none; font-weight:normal; font-style:italic; text-align:right; " transform="" id="C.SEB.text" y="1436.97357652" x="697.94488189">
SEB</text>
      <circle style="stroke:gray; stroke-width:1; fill:none; " transform="" cy="1116.78724457" cx="-578.864046938" r="5" id="C.SEF.inpoint" d="M -573.86407,1116.7872 C -573.86407,1119.5487 -576.10265,1121.7872 -578.86407,1121.7872 -581.6255,1121.7872 -583.86407,1119.5487 -583.86407,1116.7872 -583.86407,1114.0258 -581.6255,1111.7872 -578.86407,1111.7872 -576.10265,1111.7872 -573.86407,1114.0258 -573.86407,1116.7872 z" />
      <text style="font-size:25; vertical-align:top; fill-opacity:1.0; fill:gray; text-anchor:right; stroke:none; font-weight:normal; font-style:italic; text-align:right; " transform="" id="C.SEF.inpoint.text" y="1109.78724457" x="-571.864046938">
SEF.in</text>
      <circle style="stroke:red; stroke-width:1; fill:red; " transform="" cy="1443.97357652" cx="-531.496062992" r="5" id="C.SEF" d="M -526.49603,1443.9736 C -526.49603,1446.7351 -528.73461,1448.9736 -531.49603,1448.9736 -534.25746,1448.9736 -536.49603,1446.7351 -536.49603,1443.9736 -536.49603,1441.2122 -534.25746,1438.9736 -531.49603,1438.9736 -528.73461,1438.9736 -526.49603,1441.2122 -526.49603,1443.9736 z" />
      <text style="font-size:30; vertical-align:top; fill-opacity:1.0; fill:darkblue; text-anchor:right; stroke:none; font-weight:normal; font-style:italic; text-align:right; " transform="" id="C.SEF.text" y="1436.97357652" x="-524.496062992">
SEF</text>
      <circle style="stroke:gray; stroke-width:1; fill:none; " transform="" cy="434.917193422" cx="749.020727389" r="5" id="C.s1.inpoint" d="M 754.02075,434.91721 C 754.02075,437.67863 751.78218,439.91721 749.02075,439.91721 746.25933,439.91721 744.02075,437.67863 744.02075,434.91721 744.02075,432.15578 746.25933,429.91721 749.02075,429.91721 751.78218,429.91721 754.02075,432.15578 754.02075,434.91721 z" />
      <text style="font-size:25; vertical-align:top; fill-opacity:1.0; fill:gray; text-anchor:right; stroke:none; font-weight:normal; font-style:italic; text-align:right; " transform="" id="C.s1.inpoint.text" y="427.917193422" x="756.020727389">
s1.in</text>
      <circle style="stroke:gray; stroke-width:1; fill:none; " transform="" cy="285.596293268" cx="534.298700544" r="5" id="C.s1.outpoint" d="M 539.29871,285.59628 C 539.29871,288.35771 537.06013,290.59628 534.29871,290.59628 531.53728,290.59628 529.29871,288.35771 529.29871,285.59628 529.29871,282.83486 531.53728,280.59628 534.29871,280.59628 537.06013,280.59628 539.29871,282.83486 539.29871,285.59628 z" />
      <text style="font-size:25; vertical-align:top; fill-opacity:1.0; fill:gray; text-anchor:right; stroke:none; font-weight:normal; font-style:italic; text-align:right; " transform="" id="C.s1.outpoint.text" y="278.596293268" x="541.298700544">
s1.out</text>
      <circle style="stroke:red; stroke-width:1; fill:red; " transform="" cy="385.448553763" cx="677.885296502" r="5" id="C.s1" d="M 682.88531,385.44855 C 682.88531,388.20997 680.64674,390.44855 677.88531,390.44855 675.12389,390.44855 672.88531,388.20997 672.88531,385.44855 672.88531,382.68712 675.12389,380.44855 677.88531,380.44855 680.64674,380.44855 682.88531,382.68712 682.88531,385.44855 z" />
      <text style="font-size:30; vertical-align:top; fill-opacity:1.0; fill:darkblue; text-anchor:right; stroke:none; font-weight:normal; font-style:italic; text-align:right; " transform="" id="C.s1.text" y="378.448553763" x="684.885296502">
s1</text>
      <circle style="stroke:red; stroke-width:1; fill:red; " transform="" cy="128.482851254" cx="225.961765501" r="5" id="C.s2" d="M 230.96176,128.48285 C 230.96176,131.24427 228.72319,133.48285 225.96176,133.48285 223.20034,133.48285 220.96176,131.24427 220.96176,128.48285 220.96176,125.72143 223.20034,123.48285 225.96176,123.48285 228.72319,123.48285 230.96176,125.72143 230.96176,128.48285 z" />
      <text style="font-size:30; vertical-align:top; fill-opacity:1.0; fill:darkblue; text-anchor:right; stroke:none; font-weight:normal; font-style:italic; text-align:right; " transform="" id="C.s2.text" y="121.482851254" x="232.961765501">
s2</text>
      <circle style="stroke:gray; stroke-width:1; fill:none; " transform="" cy="153.326385736" cx="413.024303982" r="5" id="C.s3.inpoint" d="M 418.02429,153.32639 C 418.02429,156.08781 415.78572,158.32639 413.02429,158.32639 410.26287,158.32639 408.02429,156.08781 408.02429,153.32639 408.02429,150.56496 410.26287,148.32639 413.02429,148.32639 415.78572,148.32639 418.02429,150.56496 418.02429,153.32639 z" />
      <text style="font-size:25; vertical-align:top; fill-opacity:1.0; fill:gray; text-anchor:right; stroke:none; font-weight:normal; font-style:italic; text-align:right; " transform="" id="C.s3.inpoint.text" y="146.326385736" x="420.024303982">
s3.in</text>
      <circle style="stroke:gray; stroke-width:1; fill:none; " transform="" cy="22.4882903482" cx="182.920389413" r="5" id="C.s3.outpoint" d="M 187.92039,22.488291 C 187.92039,25.249715 185.68182,27.488291 182.92039,27.488291 180.15897,27.488291 177.92039,25.249715 177.92039,22.488291 177.92039,19.726867 180.15897,17.488291 182.92039,17.488291 185.68182,17.488291 187.92039,19.726867 187.92039,22.488291 z" />
      <text style="font-size:25; vertical-align:top; fill-opacity:1.0; fill:gray; text-anchor:right; stroke:none; font-weight:normal; font-style:italic; text-align:right; " transform="" id="C.s3.outpoint.text" y="15.4882903482" x="189.920389413">
s3.out</text>
      <circle style="stroke:red; stroke-width:1; fill:red; " transform="" cy="66.8790039812" cx="260.989983343" r="5" id="C.s3" d="M 265.98999,66.879005 C 265.98999,69.640429 263.75141,71.879005 260.98999,71.879005 258.22857,71.879005 255.98999,69.640429 255.98999,66.879005 255.98999,64.117582 258.22857,61.879005 260.98999,61.879005 263.75141,61.879005 265.98999,64.117582 265.98999,66.879005 z" />
      <text style="font-size:30; vertical-align:top; fill-opacity:1.0; fill:darkblue; text-anchor:right; stroke:none; font-weight:normal; font-style:italic; text-align:right; " transform="" id="C.s3.text" y="59.8790039812" x="267.989983343">
s3</text>
      <circle style="stroke:red; stroke-width:1; fill:red; " transform="" cy="128.482851254" cx="-225.961765501" r="5" id="C.s4" d="M -220.96176,128.48285 C -220.96176,131.24427 -223.20034,133.48285 -225.96176,133.48285 -228.72319,133.48285 -230.96176,131.24427 -230.96176,128.48285 -230.96176,125.72143 -228.72319,123.48285 -225.96176,123.48285 -223.20034,123.48285 -220.96176,125.72143 -220.96176,128.48285 z" />
      <text style="font-size:30; vertical-align:top; fill-opacity:1.0; fill:darkblue; text-anchor:right; stroke:none; font-weight:normal; font-style:italic; text-align:right; " transform="" id="C.s4.text" y="121.482851254" x="-218.961765501">
s4</text>
      <circle style="stroke:gray; stroke-width:1; fill:none; " transform="" cy="65.4462215039" cx="-191.435832419" r="5" id="C.s5.inpoint" d="M -186.43584,65.44622 C -186.43584,68.207644 -188.67441,70.44622 -191.43584,70.44622 -194.19726,70.44622 -196.43584,68.207644 -196.43584,65.44622 -196.43584,62.684797 -194.19726,60.44622 -191.43584,60.44622 -188.67441,60.44622 -186.43584,62.684797 -186.43584,65.44622 z" />
      <text style="font-size:25; vertical-align:top; fill-opacity:1.0; fill:gray; text-anchor:right; stroke:none; font-weight:normal; font-style:italic; text-align:right; " transform="" id="C.s5.inpoint.text" y="58.4462215039" x="-184.435832419">
s5.in</text>
      <circle style="stroke:gray; stroke-width:1; fill:none; " transform="" cy="188.855894756" cx="-390.6696817" r="5" id="C.s5.outpoint" d="M -385.66968,188.8559 C -385.66968,191.61732 -387.90825,193.8559 -390.66968,193.8559 -393.4311,193.8559 -395.66968,191.61732 -395.66968,188.8559 -395.66968,186.09447 -393.4311,183.8559 -390.66968,183.8559 -387.90825,183.8559 -385.66968,186.09447 -385.66968,188.8559 z" />
      <text style="font-size:25; vertical-align:top; fill-opacity:1.0; fill:gray; text-anchor:right; stroke:none; font-weight:normal; font-style:italic; text-align:right; " transform="" id="C.s5.outpoint.text" y="181.855894756" x="-383.6696817">
s5.out</text>
      <circle style="stroke:red; stroke-width:1; fill:red; " transform="" cy="97.6809276177" cx="-243.475874422" r="5" id="C.s5" d="M -238.47588,97.680931 C -238.47588,100.44235 -240.71445,102.68093 -243.47588,102.68093 -246.2373,102.68093 -248.47588,100.44235 -248.47588,97.680931 -248.47588,94.919507 -246.2373,92.680931 -243.47588,92.680931 -240.71445,92.680931 -238.47588,94.919507 -238.47588,97.680931 z" />
      <text style="font-size:30; vertical-align:top; fill-opacity:1.0; fill:darkblue; text-anchor:right; stroke:none; font-weight:normal; font-style:italic; text-align:right; " transform="" id="C.s5.text" y="90.6809276177" x="-236.475874422">
s5</text>
      <circle style="stroke:red; stroke-width:1; fill:red; " transform="" cy="385.448553763" cx="-677.885296502" r="5" id="C.s6" d="M -672.88531,385.44855 C -672.88531,388.20997 -675.12389,390.44855 -677.88531,390.44855 -680.64674,390.44855 -682.88531,388.20997 -682.88531,385.44855 -682.88531,382.68712 -680.64674,380.44855 -677.88531,380.44855 -675.12389,380.44855 -672.88531,382.68712 -672.88531,385.44855 z" />
      <text style="font-size:30; vertical-align:top; fill-opacity:1.0; fill:darkblue; text-anchor:right; stroke:none; font-weight:normal; font-style:italic; text-align:right; " transform="" id="C.s6.text" y="378.448553763" x="-670.885296502">
s6</text>
      <circle style="stroke:gray; stroke-width:1; fill:none; " transform="" cy="322.991145304" cx="-512.417541321" r="5" id="C.s7.inpoint" d="M -507.41754,322.99115 C -507.41754,325.75257 -509.65612,327.99115 -512.41754,327.99115 -515.17897,327.99115 -517.41754,325.75257 -517.41754,322.99115 -517.41754,320.22973 -515.17897,317.99115 -512.41754,317.99115 -509.65612,317.99115 -507.41754,320.22973 -507.41754,322.99115 z" />
      <text style="font-size:25; vertical-align:top; fill-opacity:1.0; fill:gray; text-anchor:right; stroke:none; font-weight:normal; font-style:italic; text-align:right; " transform="" id="C.s7.inpoint.text" y="315.991145304" x="-505.417541321">
s7.in</text>
      <circle style="stroke:gray; stroke-width:1; fill:none; " transform="" cy="462.880143447" cx="-734.348010712" r="5" id="C.s7.outpoint" d="M -729.34802,462.88016 C -729.34802,465.64158 -731.5866,467.88016 -734.34802,467.88016 -737.10945,467.88016 -739.34802,465.64158 -739.34802,462.88016 -739.34802,460.11873 -737.10945,457.88016 -734.34802,457.88016 -731.5866,457.88016 -729.34802,460.11873 -729.34802,462.88016 z" />
      <text style="font-size:25; vertical-align:top; fill-opacity:1.0; fill:gray; text-anchor:right; stroke:none; font-weight:normal; font-style:italic; text-align:right; " transform="" id="C.s7.outpoint.text" y="455.880143447" x="-727.348010712">
s7.out</text>
      <circle style="stroke:red; stroke-width:1; fill:red; " transform="" cy="416.250477399" cx="-660.371187581" r="5" id="C.s7" d="M -655.37122,416.25049 C -655.37122,419.01191 -657.60979,421.25049 -660.37122,421.25049 -663.13264,421.25049 -665.37122,419.01191 -665.37122,416.25049 -665.37122,413.48906 -663.13264,411.25049 -660.37122,411.25049 -657.60979,411.25049 -655.37122,413.48906 -655.37122,416.25049 z" />
      <text style="font-size:30; vertical-align:top; fill-opacity:1.0; fill:darkblue; text-anchor:right; stroke:none; font-weight:normal; font-style:italic; text-align:right; " transform="" id="C.s7.text" y="409.250477399" x="-653.371187581">
s7</text>
      <circle style="stroke:red; stroke-width:1; fill:red; " transform="" cy="2374.01574803" cx="-903.847062003" r="5" id="C.s8" d="M -898.84705,2374.0159 C -898.84705,2376.7773 -901.08562,2379.0159 -903.84705,2379.0159 -906.60847,2379.0159 -908.84705,2376.7773 -908.84705,2374.0159 -908.84705,2371.2544 -906.60847,2369.0159 -903.84705,2369.0159 -901.08562,2369.0159 -898.84705,2371.2544 -898.84705,2374.0159 z" />
      <text style="font-size:30; vertical-align:top; fill-opacity:1.0; fill:darkblue; text-anchor:right; stroke:none; font-weight:normal; font-style:italic; text-align:right; " transform="" id="C.s8.text" y="2367.01574803" x="-896.847062003">
s8</text>
      <circle style="stroke:red; stroke-width:1; fill:red; " transform="" cy="2374.01574803" cx="-396.850393701" r="5" id="C.s9" d="M -391.8504,2374.0159 C -391.8504,2376.7773 -394.08898,2379.0159 -396.8504,2379.0159 -399.61183,2379.0159 -401.8504,2376.7773 -401.8504,2374.0159 -401.8504,2371.2544 -399.61183,2369.0159 -396.8504,2369.0159 -394.08898,2369.0159 -391.8504,2371.2544 -391.8504,2374.0159 z" />
      <text style="font-size:30; vertical-align:top; fill-opacity:1.0; fill:darkblue; text-anchor:right; stroke:none; font-weight:normal; font-style:italic; text-align:right; " transform="" id="C.s9.text" y="2367.01574803" x="-389.850393701">
s9</text>
      <circle style="stroke:red; stroke-width:1; fill:red; " transform="" cy="2374.01574803" cx="903.847062003" r="5" id="C.s10" d="M 908.84705,2374.0159 C 908.84705,2376.7773 906.60847,2379.0159 903.84705,2379.0159 901.08562,2379.0159 898.84705,2376.7773 898.84705,2374.0159 898.84705,2371.2544 901.08562,2369.0159 903.84705,2369.0159 906.60847,2369.0159 908.84705,2371.2544 908.84705,2374.0159 z" />
      <text style="font-size:30; vertical-align:top; fill-opacity:1.0; fill:darkblue; text-anchor:right; stroke:none; font-weight:normal; font-style:italic; text-align:right; " transform="" id="C.s10.text" y="2367.01574803" x="910.847062003">
s10</text>
      <circle style="stroke:red; stroke-width:1; fill:red; " transform="" cy="2374.01574803" cx="396.850393701" r="5" id="C.s11" d="M 401.8504,2374.0159 C 401.8504,2376.7773 399.61183,2379.0159 396.8504,2379.0159 394.08898,2379.0159 391.8504,2376.7773 391.8504,2374.0159 391.8504,2371.2544 394.08898,2369.0159 396.8504,2369.0159 399.61183,2369.0159 401.8504,2371.2544 401.8504,2374.0159 z" />
      <text style="font-size:30; vertical-align:top; fill-opacity:1.0; fill:darkblue; text-anchor:right; stroke:none; font-weight:normal; font-style:italic; text-align:right; " transform="" id="C.s11.text" y="2367.01574803" x="403.850393701">
s11</text>
      <circle style="stroke:red; stroke-width:1; fill:red; " transform="" cy="1443.97357652" cx="483.661417323" r="5" id="C.SD1" d="M 488.66141,1443.9736 C 488.66141,1446.7351 486.42283,1448.9736 483.66141,1448.9736 480.89998,1448.9736 478.66141,1446.7351 478.66141,1443.9736 478.66141,1441.2122 480.89998,1438.9736 483.66141,1438.9736 486.42283,1438.9736 488.66141,1441.2122 488.66141,1443.9736 z" />
      <text style="font-size:30; vertical-align:top; fill-opacity:1.0; fill:darkblue; text-anchor:right; stroke:none; font-weight:normal; font-style:italic; text-align:right; " transform="" id="C.SD1.text" y="1436.97357652" x="490.661417323">
SD1</text>
      <circle style="stroke:red; stroke-width:1; fill:red; " transform="" cy="1461.3802706" cx="686.960199012" r="5" id="C.SD1.i" d="M 691.96021,1461.3802 C 691.96021,1464.1417 689.72163,1466.3802 686.96021,1466.3802 684.19878,1466.3802 681.96021,1464.1417 681.96021,1461.3802 681.96021,1458.6188 684.19878,1456.3802 686.96021,1456.3802 689.72163,1456.3802 691.96021,1458.6188 691.96021,1461.3802 z" />
      <text style="font-size:30; vertical-align:top; fill-opacity:1.0; fill:darkblue; text-anchor:right; stroke:none; font-weight:normal; font-style:italic; text-align:right; " transform="" id="C.SD1.i.text" y="1454.3802706" x="693.960199012">
SD1.i</text>
      <circle style="stroke:red; stroke-width:1; fill:red; " transform="" cy="1516.74270341" cx="674.286813864" r="5" id="C.SD1.o" d="M 679.2868,1516.7427 C 679.2868,1519.5041 677.04823,1521.7427 674.2868,1521.7427 671.52538,1521.7427 669.2868,1519.5041 669.2868,1516.7427 669.2868,1513.9813 671.52538,1511.7427 674.2868,1511.7427 677.04823,1511.7427 679.2868,1513.9813 679.2868,1516.7427 z" />
      <text style="font-size:30; vertical-align:top; fill-opacity:1.0; fill:darkblue; text-anchor:right; stroke:none; font-weight:normal; font-style:italic; text-align:right; " transform="" id="C.SD1.o.text" y="1509.74270341" x="681.286813864">
SD1.o</text>
      <circle style="stroke:gray; stroke-width:1; fill:none; " transform="" cy="2365.62095912" cx="128.460336118" r="5" id="C.SWB.inpoint" d="M 133.46034,2365.6208 C 133.46034,2368.3823 131.22177,2370.6208 128.46034,2370.6208 125.69892,2370.6208 123.46034,2368.3823 123.46034,2365.6208 123.46034,2362.8594 125.69892,2360.6208 128.46034,2360.6208 131.22177,2360.6208 133.46034,2362.8594 133.46034,2365.6208 z" />
      <text style="font-size:25; vertical-align:top; fill-opacity:1.0; fill:gray; text-anchor:right; stroke:none; font-weight:normal; font-style:italic; text-align:right; " transform="" id="C.SWB.inpoint.text" y="2358.62095912" x="135.460336118">
SWB.in</text>
      <circle style="stroke:red; stroke-width:1; fill:red; " transform="" cy="2445.04042529" cx="373.864913957" r="5" id="C.SWB" d="M 378.86493,2445.0405 C 378.86493,2447.802 376.62635,2450.0405 373.86493,2450.0405 371.10351,2450.0405 368.86493,2447.802 368.86493,2445.0405 368.86493,2442.2791 371.10351,2440.0405 373.86493,2440.0405 376.62635,2440.0405 378.86493,2442.2791 378.86493,2445.0405 z" />
      <text style="font-size:30; vertical-align:top; fill-opacity:1.0; fill:darkblue; text-anchor:right; stroke:none; font-weight:normal; font-style:italic; text-align:right; " transform="" id="C.SWB.text" y="2438.04042529" x="380.864913957">
SWB</text>
      <circle style="stroke:gray; stroke-width:1; fill:none; " transform="" cy="2337.79643403" cx="-141.469158373" r="5" id="C.SWF.outpoint" d="M -136.46916,2337.7964 C -136.46916,2340.5578 -138.70774,2342.7964 -141.46916,2342.7964 -144.23059,2342.7964 -146.46916,2340.5578 -146.46916,2337.7964 -146.46916,2335.035 -144.23059,2332.7964 -141.46916,2332.7964 -138.70774,2332.7964 -136.46916,2335.035 -136.46916,2337.7964 z" />
      <text style="font-size:25; vertical-align:top; fill-opacity:1.0; fill:gray; text-anchor:right; stroke:none; font-weight:normal; font-style:italic; text-align:right; " transform="" id="C.SWF.outpoint.text" y="2330.79643403" x="-134.469158373">
SWF.out</text>
      <circle style="stroke:red; stroke-width:1; fill:red; " transform="" cy="2374.75346456" cx="-396.74359173" r="5" id="C.SWF" d="M -391.74359,2374.7534 C -391.74359,2377.5148 -393.98217,2379.7534 -396.74359,2379.7534 -399.50502,2379.7534 -401.74359,2377.5148 -401.74359,2374.7534 -401.74359,2371.992 -399.50502,2369.7534 -396.74359,2369.7534 -393.98217,2369.7534 -391.74359,2371.992 -391.74359,2374.7534 z" />
      <text style="font-size:30; vertical-align:top; fill-opacity:1.0; fill:darkblue; text-anchor:right; stroke:none; font-weight:normal; font-style:italic; text-align:right; " transform="" id="C.SWF.text" y="2367.75346456" x="-389.74359173">
SWF</text>
      <path style="stroke-linejoin:miter; stroke-dashoffset:0; stroke:gray; stroke-miterlimit:4; stroke-dasharray:6,6; stroke-width:2; fill:none; " transform="" d="M 0.0  0.0 L 0.0  2374.01574803 M 903.847062003  513.931405017 L 0.0  0.0 L -903.847062003  513.931405017 M 903.847062003  513.931405017 L -903.847062003  513.931405017 M 690.94488189  1443.97357652 L -531.496062992  1443.97357652 M -903.847062003  513.931405017 L -903.847062003  2374.01574803 L 903.847062003  2374.01574803 L 903.847062003  513.931405017 M 690.94488189  1443.97357652 L 396.850393701  2374.01574803 M -903.847062003  513.931405017 L -396.850393701  2374.01574803 M 225.961765501  128.482851254 L 260.989983343  66.8790039812 M -225.961765501  128.482851254 L -243.475874422  97.6809276177 M -677.885296502  385.448553763 L -660.371187581  416.250477399 " id="C.gridline" />
    </g>
  </g>
</svg>
