<?xml version="1.0" encoding="UTF-8" standalone="no"?>
<svg xmlns:dc="http://purl.org/dc/elements/1.1/" xmlns:cc="http://creativecommons.org/ns#" xmlns:rdf="http://www.w3.org/1999/02/22-rdf-syntax-ns#" xmlns:svg="http://www.w3.org/2000/svg" xmlns="http://www.w3.org/2000/svg" xmlns:sodipodi="http://sodipodi.sourceforge.net/DTD/sodipodi-0.dtd" xmlns:inkscape="http://www.inkscape.org/namespaces/inkscape" patternNumber="topper_coat" fitBoxtoViewport="True" companyName="Epic Mode" currentscale="0.5:1" margin-right="88.5826771654" client-name="DressFormLg" designerName="S.L.Spencer" height="5313" width="2236" margin-top="88.5826771654" version="1.1" margin-bottom="88.5826771654" margin-left="88.5826771654" preserveAspectRatio="xMidYMid meet" id="svg2" inkscape:version="0.48.4 r9939" sodipodi:docname="swing_coat_p3.svg">
  <metadata id="metadata524">
    <rdf:RDF>
      <cc:Work rdf:about="">
        <dc:format>image/svg+xml</dc:format>
        <dc:type rdf:resource="http://purl.org/dc/dcmitype/StillImage" />
        <dc:title />
      </cc:Work>
    </rdf:RDF>
  </metadata>
  <sodipodi:namedview id="base" pagecolor="#ffffff" bordercolor="#666666" borderopacity="1.0" inkscape:pageopacity="0.0" inkscape:pageshadow="2" inkscape:zoom="0.1407" inkscape:document-units="pt" showgrid="false" inkscape:window-maximized="1" inkscape:cx="-2323" inkscape:cy="2760" inkscape:window-width="1855" inkscape:window-height="1056" inkscape:window-x="65" inkscape:window-y="24" inkscape:current-layer="pattern" units="in" fit-margin-top="0" fit-margin-left="0" fit-margin-bottom="0" fit-margin-right="0" />
  <defs id="defs5">
    <marker style="overflow:visible" id="Arrow1Mstart" refX="0" refY="0" orient="auto" inkscape:stockid="Arrow1Mstart">
      <path transform="matrix(0.4,0,0,0.4,4,0)" style="fill-rule:evenodd;stroke:#000000;stroke-width:1pt;marker-start:none" d="M 0,0 L 5,-5 L -12.5,0 L 5,5 L 0,0 z" id="path8" inkscape:connector-curvature="0" />
    </marker>
    <marker style="overflow:visible" id="Arrow1Mend" refX="0" refY="0" orient="auto" inkscape:stockid="Arrow1Mend">
      <path transform="matrix(-0.4,0,0,-0.4,-4,0)" style="fill-rule:evenodd;stroke:#000000;stroke-width:1pt;marker-start:none" d="M 0,0 L 5,-5 L -12.5,0 L 5,5 L 0,0 z" id="path11" inkscape:connector-curvature="0" />
    </marker>
  </defs>
  <g inkscape:label="Label-pattern" id="pattern" inkscape:groupmode="layer" transform="translate(64.2,-12270)">
    <rect style="color:#000000;fill:#ffffff;fill-opacity:1;stroke:#000000;stroke-width:3.714;stroke-linecap:butt;stroke-linejoin:round;stroke-miterlimit:4;stroke-opacity:1;stroke-dasharray:none;stroke-dashoffset:0;marker:none;visibility:visible;display:inline;overflow:visible;enable-background:accumulate" id="rect8507" width="2232" height="5309" x="-62.34" y="12270" />
    <g id="document.coat.Sleeve Front.pattern" transform="translate(-583.8,12500)">
      <g id="H.letter" transform="matrix(15,0,0,15,-14480,-10010)">
        <text style="font-size:24px;font-style:normal;font-weight:normal;text-align:right;text-anchor:start;fill:#000000;fill-opacity:1;stroke:none" id="H.letter.letterline" y="714.80957" x="1034.6039">H</text>
      </g>
      <line style="fill:none;stroke:#008000;stroke-width:4;stroke-linejoin:miter;stroke-miterlimit:4;marker-start:url(#Arrow1Mstart);marker-end:url(#Arrow1Mend)" y2="1728" x2="840.4" y1="425.2" x1="840.4" id="H.grainline" />
      <path style="fill:none;stroke:#008000;stroke-width:4;stroke-linejoin:miter;stroke-miterlimit:4;stroke-dasharray:24, 6;stroke-dashoffset:0" d="M 738.8,-79.76 C 901.2,-36.26 956,90.85 1035,212.6 c 114,176.5 383,209.1 593,212.3 C 1457,976.5 1345,1279 1345,2161 l -672.7,2 l 0,-1950.4 c 0,-159.45 52.8,-241.02 66.5,-292.36" id="H.seamline" inkscape:connector-curvature="0" />
      <path style="fill:none;stroke:#008000;stroke-width:4;stroke-linejoin:miter;stroke-miterlimit:4" d="M 684.5,-94.56 C 674.6,-62.7 660,-32.48 649.9,-0.625 C 624.8,72.93 614.7,151 616.1,228.6 c 0,663.5 0,1327.4 0,1990.4 c 261.6,0 522.9,-1 784.9,-1 c -1,-278 6,-556 43,-831 c 22,-171 58,-340 105,-505.8 c 46,-168.1 101,-333.9 152,-500.7 c 2,-5.9 6,-13.4 -4,-10.7 c -80,-1 -160,-2 -240,-11.8 c -88,-10.9 -177,-29.7 -256,-71.2 c -50,-26.4 -96,-64.3 -125,-113.6 C 1030,99.77 987.8,21.5 924,-38.88 C 875.5,-85.81 814.2,-118.9 748.8,-135.3 c -16.5,-4.5 -33,-9 -49.5,-13.5 c -4.9,18.1 -9.8,36.2 -14.8,54.24 z" id="H.cuttingline" inkscape:connector-curvature="0" />
      <g id="H.info">
        <text style="font-size:12px;font-style:normal;font-weight:normal;text-align:right;text-anchor:start;fill:#000000;fill-opacity:1;stroke:none" id="H.info.linePattern Piece H" y="1047.6223" x="1034.6039">Pattern Piece H</text>
        <text style="font-size:12px;font-style:normal;font-weight:normal;text-align:right;text-anchor:start;fill:#000000;fill-opacity:1;stroke:none" id="H.info.lineCut 2 Fabric" y="1062.0223" x="1034.6039">Cut 2 Fabric</text>
        <text style="font-size:12px;font-style:normal;font-weight:normal;text-align:right;text-anchor:start;fill:#000000;fill-opacity:1;stroke:none" id="H.info.lineCut 2 Lining" y="1076.4224" x="1034.6039">Cut 2 Lining</text>
        <text style="font-size:12px;font-style:normal;font-weight:normal;text-align:right;text-anchor:start;fill:#000000;fill-opacity:1;stroke:none" id="H.info.line " y="1090.8223" x="1034.6039" />
      </g>
    </g>
    <g id="document.coat.Sleeve Cuff.pattern" transform="matrix(0.0028,1,-1,0.0028,3733,13220)">
      <g id="I.letter" transform="matrix(8,0,0,8,-2353,-13630)">
        <text style="font-size:24px;font-style:normal;font-weight:normal;text-align:right;text-anchor:start;fill:#000000;fill-opacity:1;stroke:none" id="I.letter.letterline" y="1947.1196" x="336.17206">I</text>
      </g>
      <line style="fill:none;stroke:#008000;stroke-width:4;stroke-linejoin:miter;stroke-miterlimit:4;marker-start:url(#Arrow1Mstart);marker-end:url(#Arrow1Mend)" y2="2490" x2="1009" y1="1839" x1="1009" id="I.grainline" />
      <path style="fill:none;stroke:#006400;stroke-width:6;stroke-linejoin:miter;stroke-miterlimit:4" d="M 1345,2161 L 0,2164" id="I.foldline" inkscape:connector-curvature="0" />
      <path style="fill:none;stroke:#008000;stroke-width:4;stroke-linejoin:miter;stroke-miterlimit:4;stroke-dasharray:24, 6;stroke-dashoffset:0" d="m 0,1730 l 1345,-3 l 0,869 L 0,2599 l 0,-869" id="I.seamline" inkscape:connector-curvature="0" />
      <path style="fill:none;stroke:#008000;stroke-width:4;stroke-linejoin:miter;stroke-miterlimit:4" d="m 1345,1671 c -467.4,1 -934.3,2 -1401.25,3 c 0,327 0,654 0,981 c 485.75,-1 971.45,-2 1457.25,-3 c 0,-327 0,-654 0,-981 c -19,0 -38,0 -56,0 z" id="I.cuttingline" inkscape:connector-curvature="0" />
      <g id="I.info">
        <text style="font-size:12px;font-style:normal;font-weight:normal;text-align:right;text-anchor:start;fill:#000000;fill-opacity:1;stroke:none" id="I.info.linePattern Piece I" y="1990.3197" x="560.28674">Pattern Piece I</text>
        <text style="font-size:12px;font-style:normal;font-weight:normal;text-align:right;text-anchor:start;fill:#000000;fill-opacity:1;stroke:none" id="I.info.lineCut 2 Fabric" y="2004.7196" x="560.28674">Cut 2 Fabric</text>
        <text style="font-size:12px;font-style:normal;font-weight:normal;text-align:right;text-anchor:start;fill:#000000;fill-opacity:1;stroke:none" id="I.info.line " y="2019.1196" x="560.28674" />
      </g>
    </g>
    <g id="document.coat.Front Lining.pattern" transform="translate(1601,15140)">
      <g id="J.letter" transform="matrix(10,0,0,10,3940,-2962)">
        <text style="font-size:24px;font-style:normal;font-weight:normal;text-align:right;text-anchor:start;fill:#000000;fill-opacity:1;stroke:none" id="J.letter.letterline" y="329.05737" x="-437.82257">J</text>
      </g>
      <line style="fill:none;stroke:#008000;stroke-width:4;stroke-linejoin:miter;stroke-miterlimit:4;marker-start:url(#Arrow1Mstart);marker-end:url(#Arrow1Mend)" y2="1669" x2="-302.5" y1="419" x1="-302.5" id="J.grainline" />
      <path style="fill:none;stroke:#008000;stroke-width:3;stroke-linejoin:miter;stroke-miterlimit:4;stroke-dasharray:6, 6;stroke-dashoffset:0" d="M -821.6,392.9 L -437.8,594 l -313,-304.1" id="J.dartline" inkscape:connector-curvature="0" />
      <path style="fill:none;stroke:#008000;stroke-width:4;stroke-linejoin:miter;stroke-miterlimit:4;stroke-dasharray:24, 6;stroke-dashoffset:0" d="m -220.7,-38.25 l 0,2311.25 C -610.4,2260 -1129,2210 -1512,2140 l 289,-1464.9 c 173,-8.8 393.8,-93 451.2,-256.1 l -38.8,-95.4 l 100.2,5.5 c 99.6,-155.6 -27.3,-460.9 -44.3,-552.4 l 452.2,-84.1 c 17.1,92.2 81.8,175.4 81.8,269.15" id="J.seamline" inkscape:connector-curvature="0" />
      <path style="fill:none;stroke:#008000;stroke-width:4;stroke-linejoin:miter;stroke-miterlimit:4" d="m -312.8,-362.8 c -169.2,31.5 -338.3,63 -507.5,94.4 c 6.6,35.2 12.1,70.6 22.6,104.9 c 29.4,101.99 61.9,204.72 68.2,311.4 c 1.9,41.3 0.1,83.9 -14.5,123 c -50.7,-2.7 -101.4,-5.4 -152.1,-8.2 c 21.1,52.2 42.7,104.3 63.5,156.5 c -24.5,51.4 -69.3,90.4 -117.4,119.3 c -74,43.8 -159,68.5 -244,77.9 c -25,2.7 -50,3.4 -76,4.9 C -1373,1143 -1476,1664 -1578,2185 c 122,23 244,43 367,59 c 265.6,36 532.6,62 800.2,77 c 82,5 164.2,8 246.4,10 c -0.1,-791 0,-1583.3 -0.1,-2375.22 c -1.2,-62.18 -25.6,-120.58 -49.7,-176.78 c -15.5,-36.3 -30.3,-73.3 -36,-112.6 c -2.5,-13.1 -5,-26.3 -7.5,-39.4 c -18.3,3.4 -36.7,6.8 -55.1,10.2 z" id="J.cuttingline" inkscape:connector-curvature="0" />
      <g id="J.info">
        <text style="font-size:12px;font-style:normal;font-weight:normal;text-align:right;text-anchor:start;fill:#000000;fill-opacity:1;stroke:none" id="J.info.linePattern Piece J" y="472.25735" x="-437.82257">Pattern Piece J</text>
        <text style="font-size:12px;font-style:normal;font-weight:normal;text-align:right;text-anchor:start;fill:#000000;fill-opacity:1;stroke:none" id="J.info.lineCut 2 Lining" y="486.65735" x="-437.82257">Cut 2 Lining</text>
        <text style="font-size:12px;font-style:normal;font-weight:normal;text-align:right;text-anchor:start;fill:#000000;fill-opacity:1;stroke:none" id="J.info.line " y="501.05737" x="-437.82257" />
      </g>
    </g>
  </g>
  <g inkscape:label="Label-notes" id="notes" inkscape:groupmode="layer" transform="translate(64.2,-12270)">
    <g id="document.coat.Front Lower.notes" transform="translate(1610,1158)" />
    <g id="document.coat.Back.notes" transform="translate(336,3748)" />
    <g id="document.coat.Sleeve Back.notes" transform="translate(361.5,6489)" />
    <g id="document.coat.Welt.notes" transform="translate(3426,5335)" />
    <g id="document.coat.Pocket.notes" transform="translate(1563,7933)" />
    <g id="document.coat.Front Facing.notes" transform="translate(1544,9976)" />
    <g id="document.coat.Front Upper.notes" transform="translate(3311,9551)" />
    <g id="document.coat.Sleeve Front.notes" transform="translate(-583.8,12500)" />
    <g id="document.coat.Sleeve Cuff.notes" transform="translate(1213,10700)" />
    <g id="document.coat.Front Lining.notes" transform="translate(1601,15140)" />
  </g>
  <g inkscape:label="Label-reference" id="reference" inkscape:groupmode="layer" transform="translate(64.2,-12270)">
    <g id="document.coat.Welt.reference" transform="translate(3426,5335)" />
    <g id="document.coat.Pocket.reference" transform="translate(1563,7933)" />
    <g id="document.coat.Front Facing.reference" transform="translate(1544,9976)" />
    <g id="document.coat.Front Upper.reference" transform="translate(3311,9551)" />
    <g id="document.coat.Sleeve Front.reference" transform="translate(-583.8,12500)" />
    <g id="document.coat.Sleeve Cuff.reference" transform="translate(1213,10700)" />
    <g id="document.coat.Front Lining.reference" transform="translate(1601,15140)">
      <circle style="fill:#ff0000;stroke:#ff0000;stroke-width:1" cy="594" cx="-437.8" r="5" id="J.jD1" d="m -432.8,594 c 0,2.8 -2.2,5 -5,5 c -2.8,0 -5,-2.2 -5,-5 c 0,-2.8 2.2,-5 5,-5 c 2.8,0 5,2.2 5,5 z" sodipodi:cx="-437.8" sodipodi:cy="594" sodipodi:rx="5" sodipodi:ry="5" />
      <text style="font-size:30px;font-style:italic;font-weight:normal;text-align:right;fill:#00008b;fill-opacity:1;stroke:none" id="J.jD1.text" y="587.0434" x="-430.82257">jD1</text>
      <circle style="fill:none;stroke:#808080;stroke-width:1" cy="173.5" cx="-610.8" r="5" id="J.jD1.i.outpoint" d="m -605.8,173.5 c 0,2.8 -2.2,5 -5,5 c -2.8,0 -5,-2.2 -5,-5 c 0,-2.8 2.2,-5 5,-5 c 2.8,0 5,2.2 5,5 z" sodipodi:cx="-610.8" sodipodi:cy="173.5" sodipodi:rx="5" sodipodi:ry="5" />
      <text style="font-size:25px;font-style:italic;font-weight:normal;text-align:right;fill:#808080;fill-opacity:1;stroke:none" id="J.jD1.i.outpoint.text" y="166.53307" x="-603.76239">jD1.i.out</text>
      <circle style="fill:#ff0000;stroke:#ff0000;stroke-width:1" cy="329.1" cx="-710.4" r="5" id="J.jD1.i" d="m -705.4,329.1 c 0,2.8 -2.2,5 -5,5 c -2.8,0 -5,-2.2 -5,-5 c 0,-2.8 2.2,-5 5,-5 c 2.8,0 5,2.2 5,5 z" sodipodi:cx="-710.4" sodipodi:cy="329.1" sodipodi:rx="5" sodipodi:ry="5" />
      <text style="font-size:30px;font-style:italic;font-weight:normal;text-align:right;fill:#00008b;fill-opacity:1;stroke:none" id="J.jD1.i.text" y="322.05737" x="-703.43304">jD1.i</text>
      <circle style="fill:none;stroke:#808080;stroke-width:1" cy="582.1" cx="-829.2" r="5" id="J.jD1.o.inpoint" d="m -824.2,582.1 c 0,2.8 -2.2,5 -5,5 c -2.8,0 -5,-2.2 -5,-5 c 0,-2.8 2.2,-5 5,-5 c 2.8,0 5,2.2 5,5 z" sodipodi:cx="-829.2" sodipodi:cy="582.1" sodipodi:rx="5" sodipodi:ry="5" />
      <text style="font-size:25px;font-style:italic;font-weight:normal;text-align:right;fill:#808080;fill-opacity:1;stroke:none" id="J.jD1.o.inpoint.text" y="575.12469" x="-822.17548">jD1.o.in</text>
      <circle style="fill:#ff0000;stroke:#ff0000;stroke-width:1" cy="419" cx="-771.8" r="5" id="J.jD1.o" d="m -766.8,419 c 0,2.8 -2.2,5 -5,5 c -2.8,0 -5,-2.2 -5,-5 c 0,-2.8 2.2,-5 5,-5 c 2.8,0 5,2.2 5,5 z" sodipodi:cx="-771.8" sodipodi:cy="419" sodipodi:rx="5" sodipodi:ry="5" />
      <text style="font-size:30px;font-style:italic;font-weight:normal;text-align:right;fill:#00008b;fill-opacity:1;stroke:none" id="J.jD1.o.text" y="412.03574" x="-764.78998">jD1.o</text>
      <circle style="fill:none;stroke:#808080;stroke-width:1" cy="-131.8" cx="-737.7" r="5" id="J.j5.inpoint" d="m -732.7,-131.8 c 0,2.8 -2.2,5 -5,5 c -2.8,0 -5,-2.2 -5,-5 c 0,-2.8 2.2,-5 5,-5 c 2.8,0 5,2.2 5,5 z" sodipodi:cx="-737.7" sodipodi:cy="-131.8" sodipodi:rx="5" sodipodi:ry="5" />
      <text style="font-size:25px;font-style:italic;font-weight:normal;text-align:right;fill:#808080;fill-opacity:1;stroke:none" id="J.j5.inpoint.text" y="-138.84129" x="-730.70959">j5.in</text>
      <circle style="fill:#ff0000;stroke:#ff0000;stroke-width:1" cy="-223.3" cx="-754.7" r="5" id="J.j5" d="m -749.7,-223.3 c 0,2.8 -2.2,5 -5,5 c -2.8,0 -5,-2.2 -5,-5 c 0,-2.8 2.2,-5 5,-5 c 2.8,0 5,2.2 5,5 z" sodipodi:cx="-754.7" sodipodi:cy="-223.3" sodipodi:rx="5" sodipodi:ry="5" />
      <text style="font-size:30px;font-style:italic;font-weight:normal;text-align:right;fill:#00008b;fill-opacity:1;stroke:none" id="J.j5.text" y="-230.33452" x="-747.72443">j5</text>
      <circle style="fill:none;stroke:#808080;stroke-width:1" cy="-215.2" cx="-285.4" r="5" id="J.j6.outpoint" d="m -280.4,-215.2 c 0,2.8 -2.2,5 -5,5 c -2.8,0 -5,-2.2 -5,-5 c 0,-2.8 2.2,-5 5,-5 c 2.8,0 5,2.2 5,5 z" sodipodi:cx="-285.4" sodipodi:cy="-215.2" sodipodi:rx="5" sodipodi:ry="5" />
      <text style="font-size:25px;font-style:italic;font-weight:normal;text-align:right;fill:#808080;fill-opacity:1;stroke:none" id="J.j6.outpoint.text" y="-222.2267" x="-278.38263">j6.out</text>
      <circle style="fill:#ff0000;stroke:#ff0000;stroke-width:1" cy="-307.4" cx="-302.5" r="5" id="J.j6" d="m -297.5,-307.4 c 0,2.8 -2.2,5 -5,5 c -2.8,0 -5,-2.2 -5,-5 c 0,-2.8 2.2,-5 5,-5 c 2.8,0 5,2.2 5,5 z" sodipodi:cx="-302.5" sodipodi:cy="-307.4" sodipodi:rx="5" sodipodi:ry="5" />
      <text style="font-size:30px;font-style:italic;font-weight:normal;text-align:right;fill:#00008b;fill-opacity:1;stroke:none" id="J.j6.text" y="-314.42825" x="-295.52914">j6</text>
      <circle style="fill:none;stroke:#808080;stroke-width:1" cy="-132" cx="-220.7" r="5" id="J.j7.inpoint" d="m -215.7,-132 c 0,2.8 -2.2,5 -5,5 c -2.8,0 -5,-2.2 -5,-5 c 0,-2.8 2.2,-5 5,-5 c 2.8,0 5,2.2 5,5 z" sodipodi:cx="-220.7" sodipodi:cy="-132" sodipodi:rx="5" sodipodi:ry="5" />
      <text style="font-size:25px;font-style:italic;font-weight:normal;text-align:right;fill:#808080;fill-opacity:1;stroke:none" id="J.j7.inpoint.text" y="-139.03264" x="-213.67938">j7.in</text>
      <circle style="fill:#ff0000;stroke:#ff0000;stroke-width:1" cy="-38.25" cx="-220.7" r="5" id="J.j7" d="m -215.7,-38.25 c 0,2.76 -2.2,5 -5,5 c -2.8,0 -5,-2.24 -5,-5 c 0,-2.76 2.2,-5 5,-5 c 2.8,0 5,2.24 5,5 z" sodipodi:cx="-220.7" sodipodi:cy="-38.25" sodipodi:rx="5" sodipodi:ry="5" />
      <text style="font-size:30px;font-style:italic;font-weight:normal;text-align:right;fill:#00008b;fill-opacity:1;stroke:none" id="J.j7.text" y="-45.250294" x="-213.67938">j7</text>
    </g>
  </g>
</svg>
