<?xml version="1.0" encoding="UTF-8" standalone="no"?>
<svg xmlns:dc="http://purl.org/dc/elements/1.1/" xmlns:cc="http://creativecommons.org/ns#" xmlns:rdf="http://www.w3.org/1999/02/22-rdf-syntax-ns#" xmlns:svg="http://www.w3.org/2000/svg" xmlns="http://www.w3.org/2000/svg" xmlns:sodipodi="http://sodipodi.sourceforge.net/DTD/sodipodi-0.dtd" xmlns:inkscape="http://www.inkscape.org/namespaces/inkscape" patternNumber="M-S-S-1" fitBoxtoViewport="True" companyName="Seamly Patterns" currentscale="0.5:1" margin-right="88.5826771654" client-name="DressFormLg" designerName="Winifred Aldrich" height="3062.35346457" width="2506.09999985" margin-top="88.5826771654" version="1.1" margin-bottom="88.5826771654" margin-left="88.5826771654" preserveAspectRatio="xMidYMid meet" id="svg2" inkscape:version="0.48.4 r9939" sodipodi:docname="DressFormLg-mens_shirt_classic_2-2015-11-09-2116.svg">
  <metadata id="metadata146">
    <rdf:RDF>
      <cc:Work rdf:about="">
        <dc:format>image/svg+xml</dc:format>
        <dc:type rdf:resource="http://purl.org/dc/dcmitype/StillImage" />
      </cc:Work>
    </rdf:RDF>
  </metadata>
  <sodipodi:namedview id="base" pagecolor="#ffffff" bordercolor="#666666" borderopacity="1.0" inkscape:pageopacity="0.0" inkscape:pageshadow="2" inkscape:zoom="0.216" inkscape:document-units="pt" showgrid="false" inkscape:window-maximized="1" inkscape:cx="1692" inkscape:cy="1560" inkscape:current-layer="pattern" />
  <defs id="defs5">
    <marker style="overflow:visible" id="Arrow1Mstart" refX="0.0" refY="0.0" orient="auto" inkscape:stockid="Arrow1Mstart">
      <path transform="scale(0.4) translate(10,0)" style="fill-rule:evenodd;stroke:#000000;stroke-width:1.0pt;marker-start:none" d="M 0.0,0.0 L 5.0,-5.0 L -12.5,0.0 L 5.0,5.0 L 0.0,0.0 z " id="path8" />
    </marker>
    <marker style="overflow:visible;" id="Arrow1Mend" refX="0.0" refY="0.0" orient="auto" inkscape:stockid="Arrow1Mend">
      <path transform="scale(0.4) rotate(180) translate(10,0)" style="fill-rule:evenodd;stroke:#000000;stroke-width:1.0pt;marker-start:none;" d="M 0.0,0.0 L 5.0,-5.0 L -12.5,0.0 L 5.0,5.0 L 0.0,0.0 z " id="path11" />
    </marker>
  </defs>
  <g inkscape:label="Label-pattern" id="pattern" inkscape:groupmode="layer" transform="translate(88.582677,88.582677)">
    <g id="document.shirt.yoke.pattern" transform="translate(1172,420.2)">
      <line style="fill:none;stroke:#008000;stroke-width:4;stroke-linejoin:miter;stroke-miterlimit:4;marker-start:url(#Arrow1Mstart);marker-end:url(#Arrow1Mend)" y2="106.3" x2="857.5" y1="0" x1="857.5" id="A.grainline" />
      <g id="A.letter">
        <text style="font-size:24px;font-style:normal;font-weight:normal;text-align:right;text-anchor:start;fill:#000000;fill-opacity:1;stroke:none" id="A.letter.letterline" y="0" x="928.34644">A</text>
      </g>
      <path style="fill:none;stroke:#008000;stroke-width:4;stroke-linejoin:miter;stroke-miterlimit:4;stroke-dasharray:24, 6;stroke-dashoffset:0" d="M 0,141.7 C 66.32,141.7 274.8,66.34 299.8,0 l 451.4,169.6 c -17.9,47.5 -51.7,145.7 -51.7,196.5 L 0,366.1 L 0,141.7" id="A.seamline" inkscape:connector-curvature="0" />
      <path style="fill:none;stroke:#008000;stroke-width:4;stroke-linejoin:miter;stroke-miterlimit:4" d="M 290.5,-3.719 C 281.4,17.04 261.9,30.73 243.9,43.34 C 195.1,75.03 140.5,96.96 85.22,114.4 c -31.05,9 -62.64,18.3 -95.22,17.3 c 0,81.5 0,162.9 0,244.4 c 239.8,0 479.6,0 719.4,0 c -0.6,-41.2 11.5,-81.1 22.9,-120.3 c 9.5,-31.1 20.3,-61.7 31.8,-92 C 607.4,104.9 450.8,46.02 294.2,-12.81 c -1.3,3.029 -2.5,6.06 -3.7,9.091 z" id="A.cuttingline" inkscape:connector-curvature="0" />
      <g id="A.info">
        <text style="font-size:12px;font-style:normal;font-weight:normal;text-align:right;text-anchor:start;fill:#000000;fill-opacity:1;stroke:none" id="A.info.lineSeamly Patterns" y="26.574802" x="928.34644">Seamly Patterns</text>
        <text style="font-size:12px;font-style:normal;font-weight:normal;text-align:right;text-anchor:start;fill:#000000;fill-opacity:1;stroke:none" id="A.info.lineM-S-S-1" y="40.974804" x="928.34644">M-S-S-1</text>
        <text style="font-size:12px;font-style:normal;font-weight:normal;text-align:right;text-anchor:start;fill:#000000;fill-opacity:1;stroke:none" id="A.info.lineMens Shirt Classic" y="55.374802" x="928.34644">Mens Shirt Classic</text>
        <text style="font-size:12px;font-style:normal;font-weight:normal;text-align:right;text-anchor:start;fill:#000000;fill-opacity:1;stroke:none" id="A.info.linePattern Piece A" y="69.774803" x="928.34644">Pattern Piece A</text>
        <text style="font-size:12px;font-style:normal;font-weight:normal;text-align:right;text-anchor:start;fill:#000000;fill-opacity:1;stroke:none" id="A.info.lineCut 2 Fabric" y="84.174805" x="928.34644">Cut 2 Fabric</text>
        <text style="font-size:12px;font-style:normal;font-weight:normal;text-align:right;text-anchor:start;fill:#000000;fill-opacity:1;stroke:none" id="A.info.line " y="98.574806" x="928.34644" />
        <text style="font-size:12px;font-style:normal;font-weight:normal;text-align:right;text-anchor:start;fill:#000000;fill-opacity:1;stroke:none" id="A.info.lineDressFormLg" y="112.9748" x="928.34644">DressFormLg</text>
        <text style="font-size:12px;font-style:normal;font-weight:normal;text-align:right;text-anchor:start;fill:#000000;fill-opacity:1;stroke:none" id="A.info.line2015/11/9 21:16" y="127.3748" x="928.34644">2015/11/9 21:16</text>
      </g>
    </g>
    <g id="document.shirt.back.pattern" transform=" translate(1171.424803, 436.320000)">
      <line style="stroke-linejoin:miter; stroke:green; stroke-width:4; stroke-miterlimit:4; fill:none; " y2="1094.88188976" marker-end="url(#Arrow1Mend)" marker-start="url(#Arrow1Mstart)" transform="" x2="1101.25984252" y1="988.582677165" x1="1101.25984252" id="B.grainline" />
      <g id="B.letter" transform="matrix(1.000000, 0, 0, 1.000000, 0.000000, 0.000000)">
        <text style="font-size:24; vertical-align:top; fill-opacity:1.0; fill:#000000; text-anchor:start; stroke:none; font-weight:normal; font-style:normal; text-align:right; " transform="" id="B.letter.letterline" y="988.582677165" x="1172.12598425">
B</text>
      </g>
      <path style="stroke-linejoin:miter; stroke:darkgreen; stroke-width:6; stroke-miterlimit:4; fill:none; " transform="" d="M 0.0  366.141732283 L 0.0  2392.61811024 " id="B.foldline" />
      <path style="stroke-linejoin:miter; stroke-dashoffset:0; stroke:green; stroke-dasharray:24,6; stroke-miterlimit:4; stroke-width:4; fill:none; " transform="" d="M -83.944488189  366.141732283 L 0.0  366.141732283 L 307.796456693  366.141732283 C 438.376771654  366.141732283  568.371340426  387.463411897  697.229851599  408.598755601 C 662.056190996  623.046441019  697.229851599  988.582677165  994.960629921  988.582677165 C 985.751675497  1177.4344377  976.535433071  1366.43565626  976.535433071  1555.51181102 C 976.535433071  1698.57522365  1024.87444576  1838.81125518  1071.49606299  1974.06496063 C 964.371201194  2010.99063513  762.368784762  2392.61811024  535.748031496  2392.61811024 L -83.944488189  2392.61811024 L -83.944488189  366.141732283 " id="B.seamline" />
      <path style="fill:none;stroke:#008000;stroke-width:4;stroke-linejoin:miter;stroke-miterlimit:4" d="m -93.94,366.1 c 0,678.9 0,1357.9 0,2036.9 c 212.44,0 424.84,0 637.24,0 c 62.4,-2 120.1,-32 169.9,-67 c 80.1,-59 145.4,-134 210.2,-208 c 36.4,-41 71.2,-84 112.6,-120 c 14,-12 30,-23 48,-28 c -41,-121 -84.9,-243 -95.3,-371 c -4,-50 -1.6,-100 -1.4,-150 c 2.4,-160 10.4,-320 18.7,-480.4 c -54.4,1.5 -109.7,-9.5 -155.6,-39 C 798.4,906.8 762,854 739.1,797.8 c -32.9,-81.3 -43.4,-169.8 -43,-257 c 0.5,-47.1 4.6,-94 12.6,-140.5 c -138.6,-22.7 -278,-46 -418.9,-44.2 c -127.9,0 -255.82,0 -383.74,0 c 0,3.3 0,6.7 0,10 z" id="B.cuttingline" inkscape:connector-curvature="0" />
      <g id="B.info" transform="">
        <text style="font-size:12; vertical-align:top; fill-opacity:1.0; fill:#000000; text-anchor:start; stroke:none; font-weight:normal; font-style:normal; text-align:right; " transform="" id="B.info.lineSeamly Patterns" y="1015.15748031" x="1172.12598425">
Seamly Patterns</text>
        <text style="font-size:12; vertical-align:top; fill-opacity:1.0; fill:#000000; text-anchor:start; stroke:none; font-weight:normal; font-style:normal; text-align:right; " transform="" id="B.info.lineM-S-S-1" y="1029.55748031" x="1172.12598425">
M-S-S-1</text>
        <text style="font-size:12; vertical-align:top; fill-opacity:1.0; fill:#000000; text-anchor:start; stroke:none; font-weight:normal; font-style:normal; text-align:right; " transform="" id="B.info.lineMens Shirt Classic" y="1043.95748031" x="1172.12598425">
Mens Shirt Classic</text>
        <text style="font-size:12; vertical-align:top; fill-opacity:1.0; fill:#000000; text-anchor:start; stroke:none; font-weight:normal; font-style:normal; text-align:right; " transform="" id="B.info.linePattern Piece B" y="1058.35748031" x="1172.12598425">
Pattern Piece B</text>
        <text style="font-size:12; vertical-align:top; fill-opacity:1.0; fill:#000000; text-anchor:start; stroke:none; font-weight:normal; font-style:normal; text-align:right; " transform="" id="B.info.lineCut 2 Fabric" y="1072.75748031" x="1172.12598425">
Cut 2 Fabric</text>
        <text style="font-size:12; vertical-align:top; fill-opacity:1.0; fill:#000000; text-anchor:start; stroke:none; font-weight:normal; font-style:normal; text-align:right; " transform="" id="B.info.line " y="1087.15748031" x="1172.12598425" />
        <text style="font-size:12; vertical-align:top; fill-opacity:1.0; fill:#000000; text-anchor:start; stroke:none; font-weight:normal; font-style:normal; text-align:right; " transform="" id="B.info.lineDressFormLg" y="1101.55748031" x="1172.12598425">
DressFormLg</text>
        <text style="font-size:12; vertical-align:top; fill-opacity:1.0; fill:#000000; text-anchor:start; stroke:none; font-weight:normal; font-style:normal; text-align:right; " transform="" id="B.info.line2015/11/9 21:16" y="1115.95748031" x="1172.12598425">
2015/11/9 21:16</text>
      </g>
    </g>
  </g>
  <g inkscape:label="Label-notes" id="notes" inkscape:groupmode="layer" transform="translate(88.582677,88.582677)">
    <g id="document.titleblock">
      <text style="font-size:40; vertical-align:top; fill-opacity:1.0; fill:#000000; text-anchor:right; stroke:none; font-weight:normal; font-style:normal; text-align:right; " transform="" id="company" y="0.0" x="0.0">
Seamly Patterns</text>
      <text style="font-size:40; vertical-align:top; fill-opacity:1.0; fill:#000000; text-anchor:right; stroke:none; font-weight:normal; font-style:normal; text-align:right; " transform="" id="designer" y="44.0" x="0.0">
Winifred Aldrich</text>
      <text style="font-size:40; vertical-align:top; fill-opacity:1.0; fill:#000000; text-anchor:right; stroke:none; font-weight:normal; font-style:normal; text-align:right; " transform="" id="pattern_number" y="88.0" x="0.0">
M-S-S-1</text>
      <text style="font-size:40; vertical-align:top; fill-opacity:1.0; fill:#000000; text-anchor:right; stroke:none; font-weight:normal; font-style:normal; text-align:right; " transform="" id="pattern_name" y="132.0" x="0.0">
Mens Shirt Classic</text>
      <text style="font-size:40; vertical-align:top; fill-opacity:1.0; fill:#000000; text-anchor:right; stroke:none; font-weight:normal; font-style:normal; text-align:right; " transform="" id="client" y="176.0" x="0.0">
DressFormLg</text>
      <text style="font-size:40; vertical-align:top; fill-opacity:1.0; fill:#000000; text-anchor:right; stroke:none; font-weight:normal; font-style:normal; text-align:right; " transform="" id="date" y="220.0" x="0.0">
2015/11/9 21:16</text>
    </g>
    <g id="document.testgrid">
      <path style="stroke-linejoin:miter; stroke:green; stroke-width:4; stroke-miterlimit:4; fill:none; " d="M 1080.0  0.0 L 1080.0  212.598425197 M 1115.43307087  0.0 L 1115.43307087  212.598425197 M 1150.86614173  0.0 L 1150.86614173  212.598425197 M 1186.2992126  0.0 L 1186.2992126  212.598425197 M 1221.73228346  0.0 L 1221.73228346  212.598425197 M 1257.16535433  0.0 L 1257.16535433  212.598425197 M 1292.5984252  0.0 L 1292.5984252  212.598425197 M 1080.0  0.0 L 1292.5984252  0.0 M 1080.0  35.4330708661 L 1292.5984252  35.4330708661 M 1080.0  70.8661417323 L 1292.5984252  70.8661417323 M 1080.0  106.299212598 L 1292.5984252  106.299212598 M 1080.0  141.732283465 L 1292.5984252  141.732283465 M 1080.0  177.165354331 L 1292.5984252  177.165354331 M 1080.0  212.598425197 L 1292.5984252  212.598425197 M 1469.76377953  0.0 L 1469.76377953  270.0 M 1559.76377953  0.0 L 1559.76377953  270.0 M 1649.76377953  0.0 L 1649.76377953  270.0 M 1739.76377953  0.0 L 1739.76377953  270.0 M 1469.76377953  0.0 L 1739.76377953  0.0 M 1469.76377953  90.0 L 1739.76377953  90.0 M 1469.76377953  180.0 L 1739.76377953  180.0 M 1469.76377953  270.0 L 1739.76377953  270.0 " id="testgrid" />
    </g>
    <g id="document.shirt.yoke.notes" transform=" translate(58.750000, 438.820000)" />
    <g id="document.shirt.back.notes" transform=" translate(1171.424803, 436.320000)" />
  </g>
  <g inkscape:label="Label-reference" id="reference" inkscape:groupmode="layer" transform="translate(88.582677,88.582677)">
    <g id="document.shirt.yoke.reference" transform=" translate(58.750000, 438.820000)">
      <circle style="stroke:red; stroke-width:1; fill:red; " transform="" cy="0.0" cx="0.0" r="5" id="A.A1" d="M 5,0 C 5,2.761 2.761,5 0,5 C -2.761,5 -5,2.761 -5,0 c 0,-2.761 2.239,-5 5,-5 c 2.761,0 5,2.239 5,5 z" />
      <text style="font-size:30; vertical-align:top; fill-opacity:1.0; fill:darkblue; text-anchor:right; stroke:none; font-weight:normal; font-style:italic; text-align:right; " transform="" id="A.A1.text" y="-7.0" x="7.0">
A1</text>
      <circle style="stroke:gray; stroke-width:1; fill:none; " transform="" cy="66.3400168312" cx="274.843662938" r="5" id="A.A2.inpoint" d="m 279.8,66.34 c 0,2.76 -2.2,5 -5,5 c -2.7,0 -5,-2.24 -5,-5 c 0,-2.76 2.3,-5 5,-5 c 2.8,0 5,2.24 5,5 z" />
      <text style="font-size:25; vertical-align:top; fill-opacity:1.0; fill:gray; text-anchor:right; stroke:none; font-weight:normal; font-style:italic; text-align:right; " transform="" id="A.A2.inpoint.text" y="59.3400168312" x="281.843662938">
A2.in</text>
      <circle style="stroke:red; stroke-width:1; fill:red; " transform="" cy="0.0" cx="299.763779528" r="5" id="A.A2" d="m 304.8,0 c 0,2.761 -2.3,5 -5,5 c -2.8,0 -5,-2.239 -5,-5 c 0,-2.761 2.2,-5 5,-5 c 2.7,0 5,2.239 5,5 z" />
      <text style="font-size:30; vertical-align:top; fill-opacity:1.0; fill:darkblue; text-anchor:right; stroke:none; font-weight:normal; font-style:italic; text-align:right; " transform="" id="A.A2.text" y="-7.0" x="306.763779528">
A2</text>
      <circle style="stroke:red; stroke-width:1; fill:red; " transform="" cy="0.0" cx="611.220472441" r="5" id="A.A3" d="m 616.2,0 c 0,2.761 -2.2,5 -5,5 c -2.7,0 -5,-2.239 -5,-5 c 0,-2.761 2.3,-5 5,-5 c 2.8,0 5,2.239 5,5 z" />
      <text style="font-size:30; vertical-align:top; fill-opacity:1.0; fill:darkblue; text-anchor:right; stroke:none; font-weight:normal; font-style:italic; text-align:right; " transform="" id="A.A3.text" y="-7.0" x="618.220472441">
A3</text>
      <circle style="stroke:red; stroke-width:1; fill:red; " transform="" cy="0.0" cx="647.893700787" r="5" id="A.A4" d="m 652.9,0 c 0,2.761 -2.2,5 -5,5 c -2.8,0 -5,-2.239 -5,-5 c 0,-2.761 2.2,-5 5,-5 c 2.8,0 5,2.239 5,5 z" />
      <text style="font-size:30; vertical-align:top; fill-opacity:1.0; fill:darkblue; text-anchor:right; stroke:none; font-weight:normal; font-style:italic; text-align:right; " transform="" id="A.A4.text" y="-7.0" x="654.893700787">
A4</text>
      <circle style="stroke:red; stroke-width:1; fill:red; " transform="" cy="0.0" cx="708.661417323" r="5" id="A.A5" d="m 713.7,0 c 0,2.761 -2.3,5 -5,5 c -2.8,0 -5,-2.239 -5,-5 c 0,-2.761 2.2,-5 5,-5 c 2.7,0 5,2.239 5,5 z" />
      <text style="font-size:30; vertical-align:top; fill-opacity:1.0; fill:darkblue; text-anchor:right; stroke:none; font-weight:normal; font-style:italic; text-align:right; " transform="" id="A.A5.text" y="-7.0" x="715.661417323">
A5</text>
      <circle style="stroke:red; stroke-width:1; fill:red; " transform="" cy="0.0" cx="751.181102362" r="5" id="A.A6" d="m 756.2,0 c 0,2.761 -2.3,5 -5,5 c -2.8,0 -5,-2.239 -5,-5 c 0,-2.761 2.2,-5 5,-5 c 2.7,0 5,2.239 5,5 z" />
      <text style="font-size:30; vertical-align:top; fill-opacity:1.0; fill:darkblue; text-anchor:right; stroke:none; font-weight:normal; font-style:italic; text-align:right; " transform="" id="A.A6.text" y="-7.0" x="758.181102362">
A6</text>
      <circle style="stroke:gray; stroke-width:1; fill:none; " transform="" cy="141.732283465" cx="66.3163218801" r="5" id="A.a1.outpoint" d="m 71.32,141.7 c 0,2.8 -2.24,5 -5,5 c -2.77,0 -5,-2.2 -5,-5 c 0,-2.7 2.23,-5 5,-5 c 2.76,0 5,2.3 5,5 z" />
      <text style="font-size:25; vertical-align:top; fill-opacity:1.0; fill:gray; text-anchor:right; stroke:none; font-weight:normal; font-style:italic; text-align:right; " transform="" id="A.a1.outpoint.text" y="134.732283465" x="73.3163218801">
a1.out</text>
      <circle style="stroke:red; stroke-width:1; fill:red; " transform="" cy="141.732283465" cx="0.0" r="5" id="A.a1" d="m 5,141.7 c 0,2.8 -2.239,5 -5,5 c -2.761,0 -5,-2.2 -5,-5 c 0,-2.7 2.239,-5 5,-5 c 2.761,0 5,2.3 5,5 z" />
      <text style="font-size:30; vertical-align:top; fill-opacity:1.0; fill:darkblue; text-anchor:right; stroke:none; font-weight:normal; font-style:italic; text-align:right; " transform="" id="A.a1.text" y="134.732283465" x="7.0">
a1</text>
      <circle style="stroke:red; stroke-width:1; fill:red; " transform="" cy="366.141732283" cx="0.0" r="5" id="A.a2" d="m 5,366.1 c 0,2.8 -2.239,5 -5,5 c -2.761,0 -5,-2.2 -5,-5 c 0,-2.7 2.239,-5 5,-5 c 2.761,0 5,2.3 5,5 z" />
      <text style="font-size:30; vertical-align:top; fill-opacity:1.0; fill:darkblue; text-anchor:right; stroke:none; font-weight:normal; font-style:italic; text-align:right; " transform="" id="A.a2.text" y="359.141732283" x="7.0">
a2</text>
      <circle style="stroke:red; stroke-width:1; fill:red; " transform="" cy="366.141732283" cx="647.893700787" r="5" id="A.a3" d="m 652.9,366.1 c 0,2.8 -2.2,5 -5,5 c -2.8,0 -5,-2.2 -5,-5 c 0,-2.7 2.2,-5 5,-5 c 2.8,0 5,2.3 5,5 z" />
      <text style="font-size:30; vertical-align:top; fill-opacity:1.0; fill:darkblue; text-anchor:right; stroke:none; font-weight:normal; font-style:italic; text-align:right; " transform="" id="A.a3.text" y="359.141732283" x="654.893700787">
a3</text>
      <circle style="stroke:gray; stroke-width:1; fill:none; " transform="" cy="315.331453515" cx="699.537401575" r="5" id="A.a4.inpoint" d="m 704.5,315.3 c 0,2.8 -2.2,5 -5,5 c -2.7,0 -5,-2.2 -5,-5 c 0,-2.7 2.3,-5 5,-5 c 2.8,0 5,2.3 5,5 z" />
      <text style="font-size:25; vertical-align:top; fill-opacity:1.0; fill:gray; text-anchor:right; stroke:none; font-weight:normal; font-style:italic; text-align:right; " transform="" id="A.a4.inpoint.text" y="308.331453515" x="706.537401575">
a4.in</text>
      <circle style="stroke:red; stroke-width:1; fill:red; " transform="" cy="366.141732283" cx="699.537401575" r="5" id="A.a4" d="m 704.5,366.1 c 0,2.8 -2.2,5 -5,5 c -2.7,0 -5,-2.2 -5,-5 c 0,-2.7 2.3,-5 5,-5 c 2.8,0 5,2.3 5,5 z" />
      <text style="font-size:30; vertical-align:top; fill-opacity:1.0; fill:darkblue; text-anchor:right; stroke:none; font-weight:normal; font-style:italic; text-align:right; " transform="" id="A.a4.text" y="359.141732283" x="706.537401575">
a4</text>
      <circle style="stroke:red; stroke-width:1; fill:red; " transform="" cy="212.091127031" cx="708.661417323" r="5" id="A.a5" d="m 713.7,212.1 c 0,2.8 -2.3,5 -5,5 c -2.8,0 -5,-2.2 -5,-5 c 0,-2.8 2.2,-5 5,-5 c 2.7,0 5,2.2 5,5 z" />
      <text style="font-size:30; vertical-align:top; fill-opacity:1.0; fill:darkblue; text-anchor:right; stroke:none; font-weight:normal; font-style:italic; text-align:right; " transform="" id="A.a5.text" y="205.091127031" x="715.661417323">
a5</text>
      <circle style="stroke:red; stroke-width:1; fill:red; " transform="" cy="212.091127031" cx="751.181102362" r="5" id="A.a6" d="m 756.2,212.1 c 0,2.8 -2.3,5 -5,5 c -2.8,0 -5,-2.2 -5,-5 c 0,-2.8 2.2,-5 5,-5 c 2.7,0 5,2.2 5,5 z" />
      <text style="font-size:30; vertical-align:top; fill-opacity:1.0; fill:darkblue; text-anchor:right; stroke:none; font-weight:normal; font-style:italic; text-align:right; " transform="" id="A.a6.text" y="205.091127031" x="758.181102362">
a6</text>
      <circle style="stroke:gray; stroke-width:1; fill:none; " transform="" cy="217.136536779" cx="733.313640695" r="5" id="A.a7.outpoint" d="m 738.3,217.1 c 0,2.8 -2.2,5 -5,5 c -2.7,0 -5,-2.2 -5,-5 c 0,-2.7 2.3,-5 5,-5 c 2.8,0 5,2.3 5,5 z" />
      <text style="font-size:25; vertical-align:top; fill-opacity:1.0; fill:gray; text-anchor:right; stroke:none; font-weight:normal; font-style:italic; text-align:right; " transform="" id="A.a7.outpoint.text" y="210.136536779" x="740.313640695">
a7.out</text>
      <circle style="stroke:red; stroke-width:1; fill:red; " transform="" cy="169.571441992" cx="751.181102362" r="5" id="A.a7" d="m 756.2,169.6 c 0,2.7 -2.3,5 -5,5 c -2.8,0 -5,-2.3 -5,-5 c 0,-2.8 2.2,-5 5,-5 c 2.7,0 5,2.2 5,5 z" />
      <text style="font-size:30; vertical-align:top; fill-opacity:1.0; fill:darkblue; text-anchor:right; stroke:none; font-weight:normal; font-style:italic; text-align:right; " transform="" id="A.a7.text" y="162.571441992" x="758.181102362">
a7</text>
      <circle style="stroke:red; stroke-width:1; fill:red; " transform="" cy="141.732283465" cx="299.763779528" r="5" id="A.a8" d="m 304.8,141.7 c 0,2.8 -2.3,5 -5,5 c -2.8,0 -5,-2.2 -5,-5 c 0,-2.7 2.2,-5 5,-5 c 2.7,0 5,2.3 5,5 z" />
      <text style="font-size:30; vertical-align:top; fill-opacity:1.0; fill:darkblue; text-anchor:right; stroke:none; font-weight:normal; font-style:italic; text-align:right; " transform="" id="A.a8.text" y="134.732283465" x="306.763779528">
a8</text>
      <path style="stroke-linejoin:miter; stroke-dashoffset:0; stroke:gray; stroke-miterlimit:4; stroke-dasharray:6,6; stroke-width:2; fill:none; " transform="" d="M 0.0  0.0 L 751.181102362  0.0 L 751.181102362  169.571441992 L 699.537401575  366.141732283 L 0.0  366.141732283 L 0.0  0.0 M 0.0  141.732283465 L 299.763779528  141.732283465 L 299.763779528  0.0 M 299.763779528  141.732283465 L 708.661417323  212.091127031 L 647.893700787  366.141732283 " id="A.gridline" />
    </g>
    <g id="document.shirt.back.reference" transform=" translate(1171.424803, 436.320000)">
      <circle style="stroke:red; stroke-width:1; fill:red; " transform="" cy="366.141732283" cx="0.0" r="5" id="B.b1" d="m 5,366.1 c 0,2.8 -2.239,5 -5,5 c -2.761,0 -5,-2.2 -5,-5 c 0,-2.7 2.239,-5 5,-5 c 2.761,0 5,2.3 5,5 z" />
      <text style="font-size:30; vertical-align:top; fill-opacity:1.0; fill:darkblue; text-anchor:right; stroke:none; font-weight:normal; font-style:italic; text-align:right; " transform="" id="B.b1.text" y="359.141732283" x="7.0">
b1</text>
      <circle style="stroke:red; stroke-width:1; fill:red; " transform="" cy="1555.51181102" cx="0.0" r="5" id="B.b2" d="m 5,1556 c 0,2 -2.239,5 -5,5 c -2.761,0 -5,-3 -5,-5 c 0,-3 2.239,-5 5,-5 c 2.761,0 5,2 5,5 z" />
      <text style="font-size:30; vertical-align:top; fill-opacity:1.0; fill:darkblue; text-anchor:right; stroke:none; font-weight:normal; font-style:italic; text-align:right; " transform="" id="B.b2.text" y="1548.51181102" x="7.0">
b2</text>
      <circle style="stroke:red; stroke-width:1; fill:red; " transform="" cy="988.582677165" cx="0.0" r="5" id="B.b3" d="m 5,988.6 c 0,2.7 -2.239,5 -5,5 c -2.761,0 -5,-2.3 -5,-5 c 0,-2.8 2.239,-5 5,-5 c 2.761,0 5,2.2 5,5 z" />
      <text style="font-size:30; vertical-align:top; fill-opacity:1.0; fill:darkblue; text-anchor:right; stroke:none; font-weight:normal; font-style:italic; text-align:right; " transform="" id="B.b3.text" y="981.582677165" x="7.0">
b3</text>
      <circle style="stroke:red; stroke-width:1; fill:red; " transform="" cy="2392.61811024" cx="0.0" r="5" id="B.b4" d="m 5,2393 c 0,2 -2.239,5 -5,5 c -2.761,0 -5,-3 -5,-5 c 0,-3 2.239,-5 5,-5 c 2.761,0 5,2 5,5 z" />
      <text style="font-size:30; vertical-align:top; fill-opacity:1.0; fill:darkblue; text-anchor:right; stroke:none; font-weight:normal; font-style:italic; text-align:right; " transform="" id="B.b4.text" y="2385.61811024" x="7.0">
b4</text>
      <circle style="stroke:red; stroke-width:1; fill:red; " transform="" cy="366.141732283" cx="699.537401575" r="5" id="B.b10" d="m 704.5,366.1 c 0,2.8 -2.2,5 -5,5 c -2.7,0 -5,-2.2 -5,-5 c 0,-2.7 2.3,-5 5,-5 c 2.8,0 5,2.3 5,5 z" />
      <text style="font-size:30; vertical-align:top; fill-opacity:1.0; fill:darkblue; text-anchor:right; stroke:none; font-weight:normal; font-style:italic; text-align:right; " transform="" id="B.b10.text" y="359.141732283" x="706.537401575">
b10</text>
      <circle style="stroke:gray; stroke-width:1; fill:none; " transform="" cy="1366.43565626" cx="976.535433071" r="5" id="B.b5.inpoint" d="m 981.5,1366 c 0,3 -2.2,5 -5,5 c -2.7,0 -5,-2 -5,-5 c 0,-2 2.3,-5 5,-5 c 2.8,0 5,3 5,5 z" />
      <text style="font-size:25; vertical-align:top; fill-opacity:1.0; fill:gray; text-anchor:right; stroke:none; font-weight:normal; font-style:italic; text-align:right; " transform="" id="B.b5.inpoint.text" y="1359.43565626" x="983.535433071">
b5.in</text>
      <circle style="stroke:gray; stroke-width:1; fill:none; " transform="" cy="1698.57522365" cx="976.535433071" r="5" id="B.b5.outpoint" d="m 981.5,1699 c 0,2 -2.2,5 -5,5 c -2.7,0 -5,-3 -5,-5 c 0,-3 2.3,-5 5,-5 c 2.8,0 5,2 5,5 z" />
      <text style="font-size:25; vertical-align:top; fill-opacity:1.0; fill:gray; text-anchor:right; stroke:none; font-weight:normal; font-style:italic; text-align:right; " transform="" id="B.b5.outpoint.text" y="1691.57522365" x="983.535433071">
b5.out</text>
      <circle style="stroke:red; stroke-width:1; fill:red; " transform="" cy="1555.51181102" cx="976.535433071" r="5" id="B.b5" d="m 981.5,1556 c 0,2 -2.2,5 -5,5 c -2.7,0 -5,-3 -5,-5 c 0,-3 2.3,-5 5,-5 c 2.8,0 5,2 5,5 z" />
      <text style="font-size:30; vertical-align:top; fill-opacity:1.0; fill:darkblue; text-anchor:right; stroke:none; font-weight:normal; font-style:italic; text-align:right; " transform="" id="B.b5.text" y="1548.51181102" x="983.535433071">
b5</text>
      <circle style="stroke:gray; stroke-width:1; fill:none; " transform="" cy="988.582677165" cx="697.229851599" r="5" id="B.b6.inpoint" d="m 702.2,988.6 c 0,2.7 -2.2,5 -5,5 c -2.7,0 -5,-2.3 -5,-5 c 0,-2.8 2.3,-5 5,-5 c 2.8,0 5,2.2 5,5 z" />
      <text style="font-size:25; vertical-align:top; fill-opacity:1.0; fill:gray; text-anchor:right; stroke:none; font-weight:normal; font-style:italic; text-align:right; " transform="" id="B.b6.inpoint.text" y="981.582677165" x="704.229851599">
b6.in</text>
      <circle style="stroke:gray; stroke-width:1; fill:none; " transform="" cy="1177.4344377" cx="985.751675497" r="5" id="B.b6.outpoint" d="m 990.8,1177 c 0,3 -2.3,5 -5,5 c -2.8,0 -5,-2 -5,-5 c 0,-2 2.2,-5 5,-5 c 2.7,0 5,3 5,5 z" />
      <text style="font-size:25; vertical-align:top; fill-opacity:1.0; fill:gray; text-anchor:right; stroke:none; font-weight:normal; font-style:italic; text-align:right; " transform="" id="B.b6.outpoint.text" y="1170.4344377" x="992.751675497">
b6.out</text>
      <circle style="stroke:red; stroke-width:1; fill:red; " transform="" cy="988.582677165" cx="994.960629921" r="5" id="B.b6" d="m 1000,988.6 c 0,2.7 -2.3,5 -5,5 c -2.8,0 -5,-2.3 -5,-5 c 0,-2.8 2.2,-5 5,-5 c 2.7,0 5,2.2 5,5 z" />
      <text style="font-size:30; vertical-align:top; fill-opacity:1.0; fill:darkblue; text-anchor:right; stroke:none; font-weight:normal; font-style:italic; text-align:right; " transform="" id="B.b6.text" y="981.582677165" x="1001.96062992">
b6</text>
      <circle style="stroke:red; stroke-width:1; fill:red; " transform="" cy="2392.61811024" cx="1071.49606299" r="5" id="B.b7" d="m 1076,2393 c 0,2 -2,5 -5,5 c -2,0 -5,-3 -5,-5 c 0,-3 3,-5 5,-5 c 3,0 5,2 5,5 z" />
      <text style="font-size:30; vertical-align:top; fill-opacity:1.0; fill:darkblue; text-anchor:right; stroke:none; font-weight:normal; font-style:italic; text-align:right; " transform="" id="B.b7.text" y="2385.61811024" x="1078.49606299">
b7</text>
      <circle style="stroke:gray; stroke-width:1; fill:none; " transform="" cy="1838.81125518" cx="1024.87444576" r="5" id="B.b8.inpoint" d="m 1030,1839 c 0,3 -2,5 -5,5 c -3,0 -5,-2 -5,-5 c 0,-3 2,-5 5,-5 c 3,0 5,2 5,5 z" />
      <text style="font-size:25; vertical-align:top; fill-opacity:1.0; fill:gray; text-anchor:right; stroke:none; font-weight:normal; font-style:italic; text-align:right; " transform="" id="B.b8.inpoint.text" y="1831.81125518" x="1031.87444576">
b8.in</text>
      <circle style="stroke:gray; stroke-width:1; fill:none; " transform="" cy="2010.99063513" cx="964.371201194" r="5" id="B.b8.outpoint" d="m 969.4,2011 c 0,3 -2.3,5 -5,5 c -2.8,0 -5,-2 -5,-5 c 0,-3 2.2,-5 5,-5 c 2.7,0 5,2 5,5 z" />
      <text style="font-size:25; vertical-align:top; fill-opacity:1.0; fill:gray; text-anchor:right; stroke:none; font-weight:normal; font-style:italic; text-align:right; " transform="" id="B.b8.outpoint.text" y="2003.99063513" x="971.371201194">
b8.out</text>
      <circle style="stroke:red; stroke-width:1; fill:red; " transform="" cy="1974.06496063" cx="1071.49606299" r="5" id="B.b8" d="m 1076,1974 c 0,3 -2,5 -5,5 c -2,0 -5,-2 -5,-5 c 0,-3 3,-5 5,-5 c 3,0 5,2 5,5 z" />
      <text style="font-size:30; vertical-align:top; fill-opacity:1.0; fill:darkblue; text-anchor:right; stroke:none; font-weight:normal; font-style:italic; text-align:right; " transform="" id="B.b8.text" y="1967.06496063" x="1078.49606299">
b8</text>
      <circle style="stroke:gray; stroke-width:1; fill:none; " transform="" cy="2392.61811024" cx="762.368784762" r="5" id="B.b9.inpoint" d="m 767.4,2393 c 0,2 -2.3,5 -5,5 c -2.8,0 -5,-3 -5,-5 c 0,-3 2.2,-5 5,-5 c 2.7,0 5,2 5,5 z" />
      <text style="font-size:25; vertical-align:top; fill-opacity:1.0; fill:gray; text-anchor:right; stroke:none; font-weight:normal; font-style:italic; text-align:right; " transform="" id="B.b9.inpoint.text" y="2385.61811024" x="769.368784762">
b9.in</text>
      <circle style="stroke:red; stroke-width:1; fill:red; " transform="" cy="2392.61811024" cx="535.748031496" r="5" id="B.b9" d="m 540.7,2393 c 0,2 -2.2,5 -5,5 c -2.7,0 -5,-3 -5,-5 c 0,-3 2.3,-5 5,-5 c 2.8,0 5,2 5,5 z" />
      <text style="font-size:30; vertical-align:top; fill-opacity:1.0; fill:darkblue; text-anchor:right; stroke:none; font-weight:normal; font-style:italic; text-align:right; " transform="" id="B.b9.text" y="2385.61811024" x="542.748031496">
b9</text>
      <circle style="stroke:red; stroke-width:1; fill:red; " transform="" cy="366.141732283" cx="-83.944488189" r="5" id="B.b11" d="m -78.94,366.1 c 0,2.8 -2.24,5 -5,5 c -2.77,0 -5,-2.2 -5,-5 c 0,-2.7 2.23,-5 5,-5 c 2.76,0 5,2.3 5,5 z" />
      <text style="font-size:30; vertical-align:top; fill-opacity:1.0; fill:darkblue; text-anchor:right; stroke:none; font-weight:normal; font-style:italic; text-align:right; " transform="" id="B.b11.text" y="359.141732283" x="-76.944488189">
b11</text>
      <circle style="stroke:gray; stroke-width:1; fill:none; " transform="" cy="366.141732283" cx="438.376771654" r="5" id="B.b13.outpoint" d="m 443.4,366.1 c 0,2.8 -2.3,5 -5,5 c -2.8,0 -5,-2.2 -5,-5 c 0,-2.7 2.2,-5 5,-5 c 2.7,0 5,2.3 5,5 z" />
      <text style="font-size:25; vertical-align:top; fill-opacity:1.0; fill:gray; text-anchor:right; stroke:none; font-weight:normal; font-style:italic; text-align:right; " transform="" id="B.b13.outpoint.text" y="359.141732283" x="445.376771654">
b13.out</text>
      <circle style="stroke:red; stroke-width:1; fill:red; " transform="" cy="366.141732283" cx="307.796456693" r="5" id="B.b13" d="m 312.8,366.1 c 0,2.8 -2.2,5 -5,5 c -2.8,0 -5,-2.2 -5,-5 c 0,-2.7 2.2,-5 5,-5 c 2.8,0 5,2.3 5,5 z" />
      <text style="font-size:30; vertical-align:top; fill-opacity:1.0; fill:darkblue; text-anchor:right; stroke:none; font-weight:normal; font-style:italic; text-align:right; " transform="" id="B.b13.text" y="359.141732283" x="314.796456693">
b13</text>
      <circle style="stroke:gray; stroke-width:1; fill:none; " transform="" cy="387.463411897" cx="568.371340426" r="5" id="B.b15.inpoint" d="m 573.4,387.5 c 0,2.7 -2.3,5 -5,5 c -2.8,0 -5,-2.3 -5,-5 c 0,-2.8 2.2,-5 5,-5 c 2.7,0 5,2.2 5,5 z" />
      <text style="font-size:25; vertical-align:top; fill-opacity:1.0; fill:gray; text-anchor:right; stroke:none; font-weight:normal; font-style:italic; text-align:right; " transform="" id="B.b15.inpoint.text" y="380.463411897" x="575.371340426">
b15.in</text>
      <circle style="stroke:gray; stroke-width:1; fill:none; " transform="" cy="623.046441019" cx="662.056190996" r="5" id="B.b15.outpoint" d="m 667.1,623 c 0,2.8 -2.3,5 -5,5 c -2.8,0 -5,-2.2 -5,-5 c 0,-2.7 2.2,-5 5,-5 c 2.7,0 5,2.3 5,5 z" />
      <text style="font-size:25; vertical-align:top; fill-opacity:1.0; fill:gray; text-anchor:right; stroke:none; font-weight:normal; font-style:italic; text-align:right; " transform="" id="B.b15.outpoint.text" y="616.046441019" x="669.056190996">
b15.out</text>
      <circle style="stroke:red; stroke-width:1; fill:red; " transform="" cy="408.598755601" cx="697.229851599" r="5" id="B.b15" d="m 702.2,408.6 c 0,2.8 -2.2,5 -5,5 c -2.7,0 -5,-2.2 -5,-5 c 0,-2.8 2.3,-5 5,-5 c 2.8,0 5,2.2 5,5 z" />
      <text style="font-size:30; vertical-align:top; fill-opacity:1.0; fill:darkblue; text-anchor:right; stroke:none; font-weight:normal; font-style:italic; text-align:right; " transform="" id="B.b15.text" y="401.598755601" x="704.229851599">
b15</text>
      <circle style="stroke:red; stroke-width:1; fill:red; " transform="" cy="2392.61811024" cx="-83.944488189" r="5" id="B.b12" d="m -78.94,2393 c 0,2 -2.24,5 -5,5 c -2.77,0 -5,-3 -5,-5 c 0,-3 2.23,-5 5,-5 c 2.76,0 5,2 5,5 z" />
      <text style="font-size:30; vertical-align:top; fill-opacity:1.0; fill:darkblue; text-anchor:right; stroke:none; font-weight:normal; font-style:italic; text-align:right; " transform="" id="B.b12.text" y="2385.61811024" x="-76.944488189">
b12</text>
      <path style="stroke-linejoin:miter; stroke-dashoffset:0; stroke:gray; stroke-miterlimit:4; stroke-dasharray:6,6; stroke-width:2; fill:none; " transform="" d="M 0.0  366.141732283 L 699.537401575  366.141732283 M 0.0  988.582677165 L 994.960629921  988.582677165 M 0.0  1555.51181102 L 976.535433071  1555.51181102 M 1071.49606299  1974.06496063 L 1071.49606299  2392.61811024 L 0.0  2392.61811024 M 0.0  366.141732283 " id="B.gridline" />
    </g>
  </g>
</svg>
