<?xml version="1.0" encoding="UTF-8" standalone="no"?>
<svg xmlns:dc="http://purl.org/dc/elements/1.1/" xmlns:cc="http://creativecommons.org/ns#" xmlns:rdf="http://www.w3.org/1999/02/22-rdf-syntax-ns#" xmlns:svg="http://www.w3.org/2000/svg" xmlns="http://www.w3.org/2000/svg" xmlns:sodipodi="http://sodipodi.sourceforge.net/DTD/sodipodi-0.dtd" xmlns:inkscape="http://www.inkscape.org/namespaces/inkscape" patternNumber="M-S-S-1" fitBoxtoViewport="True" companyName="Seamly Patterns" currentscale="0.5:1" margin-right="88.5826771654" client-name="DressFormLg" designerName="Winifred Aldrich" height="1215.54244094" width="1040.24606299" margin-top="88.5826771654" version="1.1" margin-bottom="88.5826771654" margin-left="88.5826771654" preserveAspectRatio="xMidYMid meet" id="svg2" inkscape:version="0.48.4 r9939" sodipodi:docname="DressFormLg-mens_shirt_classic_2-2015-11-09-1857.svg">
  <metadata id="metadata79">
    <rdf:RDF>
      <cc:Work rdf:about="">
        <dc:format>image/svg+xml</dc:format>
        <dc:type rdf:resource="http://purl.org/dc/dcmitype/StillImage" />
      </cc:Work>
    </rdf:RDF>
  </metadata>
  <sodipodi:namedview id="base" pagecolor="#ffffff" bordercolor="#666666" borderopacity="1.0" inkscape:pageopacity="0.0" inkscape:pageshadow="2" inkscape:zoom="0.1942" inkscape:document-units="pt" showgrid="false" inkscape:window-maximized="1" inkscape:cx="520.1" inkscape:cy="607.8" inkscape:current-layer="pattern" />
  <defs id="defs5">
    <marker style="overflow:visible" id="Arrow1Mstart" refX="0.0" refY="0.0" orient="auto" inkscape:stockid="Arrow1Mstart">
      <path transform="scale(0.4) translate(10,0)" style="fill-rule:evenodd;stroke:#000000;stroke-width:1.0pt;marker-start:none" d="M 0.0,0.0 L 5.0,-5.0 L -12.5,0.0 L 5.0,5.0 L 0.0,0.0 z " id="path8" />
    </marker>
    <marker style="overflow:visible;" id="Arrow1Mend" refX="0.0" refY="0.0" orient="auto" inkscape:stockid="Arrow1Mend">
      <path transform="scale(0.4) rotate(180) translate(10,0)" style="fill-rule:evenodd;stroke:#000000;stroke-width:1.0pt;marker-start:none;" d="M 0.0,0.0 L 5.0,-5.0 L -12.5,0.0 L 5.0,5.0 L 0.0,0.0 z " id="path11" />
    </marker>
  </defs>
  <g inkscape:label="Label-pattern" id="pattern" inkscape:groupmode="layer" transform="translate(88.582677,88.582677)">
    <g id="document.shirt.yoke.pattern" transform=" translate(58.750000, 438.820000)">
      <line style="stroke-linejoin:miter; stroke:green; stroke-width:4; stroke-miterlimit:4; fill:none; " y2="543.307086614" marker-end="url(#Arrow1Mend)" marker-start="url(#Arrow1Mstart)" transform="" x2="748.080708661" y1="366.141732283" x1="748.080708661" id="A.grainline" />
      <g id="A.letter" transform="matrix(1.000000, 0, 0, 1.000000, 0.000000, 0.000000)">
        <text style="font-size:24; vertical-align:top; fill-opacity:1.0; fill:#000000; text-anchor:start; stroke:none; font-weight:normal; font-style:normal; text-align:right; " transform="" id="A.letter.letterline" y="472.440944882" x="748.080708661">
A</text>
      </g>
      <path style="stroke-linejoin:miter; stroke-dashoffset:0; stroke:green; stroke-dasharray:24,6; stroke-miterlimit:4; stroke-width:4; fill:none; " transform="" d="M 0.0  141.732283465 C 66.3163218801  141.732283465  273.582059496  65.8523164375  299.763779528  0.0 L 744.094488189  176.658056165 C 725.966548135  222.253488526  692.937992126  317.074781463  692.937992126  366.141732283 L 0.0  366.141732283 L 0.0  141.732283465 " id="A.seamline" />
      <path style="fill:none;stroke:#008000;stroke-width:4;stroke-linejoin:miter;stroke-miterlimit:4" d="M 290.6,-3.938 C 281.2,16.85 261.4,30.56 243.3,43.22 C 194.4,74.79 140.2,96.79 84.91,114.4 c -30.94,9 -62.48,18.3 -94.91,17.3 c 0,81.5 0,162.9 0,244.4 c 237.6,0 475.2,0 712.8,0 c -0.7,-39.9 11.3,-78.5 22.5,-116.3 c 9.4,-30 20.2,-59.5 31.7,-88.7 C 602.8,109.7 448.6,48.47 294.5,-12.91 c -1.3,2.993 -2.6,5.983 -3.9,8.972 z" id="A.cuttingline" inkscape:connector-curvature="0" />
      <g id="A.info" transform="">
        <text style="font-size:12; vertical-align:top; fill-opacity:1.0; fill:#000000; text-anchor:start; stroke:none; font-weight:normal; font-style:normal; text-align:right; " transform="" id="A.info.lineSeamly Patterns" y="366.141732283" x="854.37992126">
Seamly Patterns</text>
        <text style="font-size:12; vertical-align:top; fill-opacity:1.0; fill:#000000; text-anchor:start; stroke:none; font-weight:normal; font-style:normal; text-align:right; " transform="" id="A.info.lineM-S-S-1" y="380.541732283" x="854.37992126">
M-S-S-1</text>
        <text style="font-size:12; vertical-align:top; fill-opacity:1.0; fill:#000000; text-anchor:start; stroke:none; font-weight:normal; font-style:normal; text-align:right; " transform="" id="A.info.lineMens Shirt Classic" y="394.941732283" x="854.37992126">
Mens Shirt Classic</text>
        <text style="font-size:12; vertical-align:top; fill-opacity:1.0; fill:#000000; text-anchor:start; stroke:none; font-weight:normal; font-style:normal; text-align:right; " transform="" id="A.info.linePattern Piece A" y="409.341732283" x="854.37992126">
Pattern Piece A</text>
        <text style="font-size:12; vertical-align:top; fill-opacity:1.0; fill:#000000; text-anchor:start; stroke:none; font-weight:normal; font-style:normal; text-align:right; " transform="" id="A.info.lineCut 2 Fabric" y="423.741732283" x="854.37992126">
Cut 2 Fabric</text>
        <text style="font-size:12; vertical-align:top; fill-opacity:1.0; fill:#000000; text-anchor:start; stroke:none; font-weight:normal; font-style:normal; text-align:right; " transform="" id="A.info.line " y="438.141732283" x="854.37992126" />
        <text style="font-size:12; vertical-align:top; fill-opacity:1.0; fill:#000000; text-anchor:start; stroke:none; font-weight:normal; font-style:normal; text-align:right; " transform="" id="A.info.lineDressFormLg" y="452.541732283" x="854.37992126">
DressFormLg</text>
        <text style="font-size:12; vertical-align:top; fill-opacity:1.0; fill:#000000; text-anchor:start; stroke:none; font-weight:normal; font-style:normal; text-align:right; " transform="" id="A.info.line2015/11/9 18:57" y="466.941732283" x="854.37992126">
2015/11/9 18:57</text>
      </g>
    </g>
  </g>
  <g inkscape:label="Label-notes" id="notes" inkscape:groupmode="layer" transform="translate(88.582677,88.582677)">
    <g id="document.titleblock">
      <text style="font-size:40; vertical-align:top; fill-opacity:1.0; fill:#000000; text-anchor:right; stroke:none; font-weight:normal; font-style:normal; text-align:right; " transform="" id="company" y="0.0" x="0.0">
Seamly Patterns</text>
      <text style="font-size:40; vertical-align:top; fill-opacity:1.0; fill:#000000; text-anchor:right; stroke:none; font-weight:normal; font-style:normal; text-align:right; " transform="" id="designer" y="44.0" x="0.0">
Winifred Aldrich</text>
      <text style="font-size:40; vertical-align:top; fill-opacity:1.0; fill:#000000; text-anchor:right; stroke:none; font-weight:normal; font-style:normal; text-align:right; " transform="" id="pattern_number" y="88.0" x="0.0">
M-S-S-1</text>
      <text style="font-size:40; vertical-align:top; fill-opacity:1.0; fill:#000000; text-anchor:right; stroke:none; font-weight:normal; font-style:normal; text-align:right; " transform="" id="pattern_name" y="132.0" x="0.0">
Mens Shirt Classic</text>
      <text style="font-size:40; vertical-align:top; fill-opacity:1.0; fill:#000000; text-anchor:right; stroke:none; font-weight:normal; font-style:normal; text-align:right; " transform="" id="client" y="176.0" x="0.0">
DressFormLg</text>
      <text style="font-size:40; vertical-align:top; fill-opacity:1.0; fill:#000000; text-anchor:right; stroke:none; font-weight:normal; font-style:normal; text-align:right; " transform="" id="date" y="220.0" x="0.0">
2015/11/9 18:57</text>
    </g>
    <g id="document.testgrid">
      <path style="stroke-linejoin:miter; stroke:green; stroke-width:4; stroke-miterlimit:4; fill:none; " d="M 1080.0  0.0 L 1080.0  212.598425197 M 1115.43307087  0.0 L 1115.43307087  212.598425197 M 1150.86614173  0.0 L 1150.86614173  212.598425197 M 1186.2992126  0.0 L 1186.2992126  212.598425197 M 1221.73228346  0.0 L 1221.73228346  212.598425197 M 1257.16535433  0.0 L 1257.16535433  212.598425197 M 1292.5984252  0.0 L 1292.5984252  212.598425197 M 1080.0  0.0 L 1292.5984252  0.0 M 1080.0  35.4330708661 L 1292.5984252  35.4330708661 M 1080.0  70.8661417323 L 1292.5984252  70.8661417323 M 1080.0  106.299212598 L 1292.5984252  106.299212598 M 1080.0  141.732283465 L 1292.5984252  141.732283465 M 1080.0  177.165354331 L 1292.5984252  177.165354331 M 1080.0  212.598425197 L 1292.5984252  212.598425197 M 1469.76377953  0.0 L 1469.76377953  270.0 M 1559.76377953  0.0 L 1559.76377953  270.0 M 1649.76377953  0.0 L 1649.76377953  270.0 M 1739.76377953  0.0 L 1739.76377953  270.0 M 1469.76377953  0.0 L 1739.76377953  0.0 M 1469.76377953  90.0 L 1739.76377953  90.0 M 1469.76377953  180.0 L 1739.76377953  180.0 M 1469.76377953  270.0 L 1739.76377953  270.0 " id="testgrid" />
    </g>
    <g id="document.shirt.yoke.notes" transform=" translate(58.750000, 438.820000)" />
  </g>
  <g inkscape:label="Label-reference" id="reference" inkscape:groupmode="layer" transform="translate(88.582677,88.582677)">
    <g id="document.shirt.yoke.reference" transform=" translate(58.750000, 438.820000)">
      <circle style="stroke:red; stroke-width:1; fill:red; " transform="" cy="0.0" cx="0.0" r="5" id="A.A1" d="M 5,0 C 5,2.761 2.761,5 0,5 C -2.761,5 -5,2.761 -5,0 c 0,-2.761 2.239,-5 5,-5 c 2.761,0 5,2.239 5,5 z" />
      <text style="font-size:30; vertical-align:top; fill-opacity:1.0; fill:darkblue; text-anchor:right; stroke:none; font-weight:normal; font-style:italic; text-align:right; " transform="" id="A.A1.text" y="-7.0" x="7.0">
A1</text>
      <circle style="stroke:gray; stroke-width:1; fill:none; " transform="" cy="65.8523164375" cx="273.582059496" r="5" id="A.A2.inpoint" d="m 278.6,65.85 c 0,2.76 -2.3,5 -5,5 c -2.8,0 -5,-2.24 -5,-5 c 0,-2.76 2.2,-5 5,-5 c 2.7,0 5,2.24 5,5 z" />
      <text style="font-size:25; vertical-align:top; fill-opacity:1.0; fill:gray; text-anchor:right; stroke:none; font-weight:normal; font-style:italic; text-align:right; " transform="" id="A.A2.inpoint.text" y="58.8523164375" x="280.582059496">
A2.in</text>
      <circle style="stroke:red; stroke-width:1; fill:red; " transform="" cy="0.0" cx="299.763779528" r="5" id="A.A2" d="m 304.8,0 c 0,2.761 -2.3,5 -5,5 c -2.8,0 -5,-2.239 -5,-5 c 0,-2.761 2.2,-5 5,-5 c 2.7,0 5,2.239 5,5 z" />
      <text style="font-size:30; vertical-align:top; fill-opacity:1.0; fill:darkblue; text-anchor:right; stroke:none; font-weight:normal; font-style:italic; text-align:right; " transform="" id="A.A2.text" y="-7.0" x="306.763779528">
A2</text>
      <circle style="stroke:red; stroke-width:1; fill:red; " transform="" cy="0.0" cx="611.220472441" r="5" id="A.A3" d="m 616.2,0 c 0,2.761 -2.2,5 -5,5 c -2.7,0 -5,-2.239 -5,-5 c 0,-2.761 2.3,-5 5,-5 c 2.8,0 5,2.239 5,5 z" />
      <text style="font-size:30; vertical-align:top; fill-opacity:1.0; fill:darkblue; text-anchor:right; stroke:none; font-weight:normal; font-style:italic; text-align:right; " transform="" id="A.A3.text" y="-7.0" x="618.220472441">
A3</text>
      <circle style="stroke:red; stroke-width:1; fill:red; " transform="" cy="0.0" cx="641.781496063" r="5" id="A.A4" d="m 646.8,0 c 0,2.761 -2.3,5 -5,5 c -2.8,0 -5,-2.239 -5,-5 c 0,-2.761 2.2,-5 5,-5 c 2.7,0 5,2.239 5,5 z" />
      <text style="font-size:30; vertical-align:top; fill-opacity:1.0; fill:darkblue; text-anchor:right; stroke:none; font-weight:normal; font-style:italic; text-align:right; " transform="" id="A.A4.text" y="-7.0" x="648.781496063">
A4</text>
      <circle style="stroke:red; stroke-width:1; fill:red; " transform="" cy="0.0" cx="708.661417323" r="5" id="A.A5" d="m 713.7,0 c 0,2.761 -2.3,5 -5,5 c -2.8,0 -5,-2.239 -5,-5 c 0,-2.761 2.2,-5 5,-5 c 2.7,0 5,2.239 5,5 z" />
      <text style="font-size:30; vertical-align:top; fill-opacity:1.0; fill:darkblue; text-anchor:right; stroke:none; font-weight:normal; font-style:italic; text-align:right; " transform="" id="A.A5.text" y="-7.0" x="715.661417323">
A5</text>
      <circle style="stroke:red; stroke-width:1; fill:red; " transform="" cy="0.0" cx="744.094488189" r="5" id="A.A6" d="m 749.1,0 c 0,2.761 -2.2,5 -5,5 c -2.8,0 -5,-2.239 -5,-5 c 0,-2.761 2.2,-5 5,-5 c 2.8,0 5,2.239 5,5 z" />
      <text style="font-size:30; vertical-align:top; fill-opacity:1.0; fill:darkblue; text-anchor:right; stroke:none; font-weight:normal; font-style:italic; text-align:right; " transform="" id="A.A6.text" y="-7.0" x="751.094488189">
A6</text>
      <circle style="stroke:gray; stroke-width:1; fill:none; " transform="" cy="141.732283465" cx="66.3163218801" r="5" id="A.a1.outpoint" d="m 71.32,141.7 c 0,2.8 -2.24,5 -5,5 c -2.77,0 -5,-2.2 -5,-5 c 0,-2.7 2.23,-5 5,-5 c 2.76,0 5,2.3 5,5 z" />
      <text style="font-size:25; vertical-align:top; fill-opacity:1.0; fill:gray; text-anchor:right; stroke:none; font-weight:normal; font-style:italic; text-align:right; " transform="" id="A.a1.outpoint.text" y="134.732283465" x="73.3163218801">
a1.out</text>
      <circle style="stroke:red; stroke-width:1; fill:red; " transform="" cy="141.732283465" cx="0.0" r="5" id="A.a1" d="m 5,141.7 c 0,2.8 -2.239,5 -5,5 c -2.761,0 -5,-2.2 -5,-5 c 0,-2.7 2.239,-5 5,-5 c 2.761,0 5,2.3 5,5 z" />
      <text style="font-size:30; vertical-align:top; fill-opacity:1.0; fill:darkblue; text-anchor:right; stroke:none; font-weight:normal; font-style:italic; text-align:right; " transform="" id="A.a1.text" y="134.732283465" x="7.0">
a1</text>
      <circle style="stroke:red; stroke-width:1; fill:red; " transform="" cy="366.141732283" cx="0.0" r="5" id="A.a2" d="m 5,366.1 c 0,2.8 -2.239,5 -5,5 c -2.761,0 -5,-2.2 -5,-5 c 0,-2.7 2.239,-5 5,-5 c 2.761,0 5,2.3 5,5 z" />
      <text style="font-size:30; vertical-align:top; fill-opacity:1.0; fill:darkblue; text-anchor:right; stroke:none; font-weight:normal; font-style:italic; text-align:right; " transform="" id="A.a2.text" y="359.141732283" x="7.0">
a2</text>
      <circle style="stroke:red; stroke-width:1; fill:red; " transform="" cy="366.141732283" cx="641.781496063" r="5" id="A.a3" d="m 646.8,366.1 c 0,2.8 -2.3,5 -5,5 c -2.8,0 -5,-2.2 -5,-5 c 0,-2.7 2.2,-5 5,-5 c 2.7,0 5,2.3 5,5 z" />
      <text style="font-size:30; vertical-align:top; fill-opacity:1.0; fill:darkblue; text-anchor:right; stroke:none; font-weight:normal; font-style:italic; text-align:right; " transform="" id="A.a3.text" y="359.141732283" x="648.781496063">
a3</text>
      <circle style="stroke:gray; stroke-width:1; fill:none; " transform="" cy="317.074781463" cx="692.937992126" r="5" id="A.a4.inpoint" d="m 697.9,317.1 c 0,2.7 -2.2,5 -5,5 c -2.7,0 -5,-2.3 -5,-5 c 0,-2.8 2.3,-5 5,-5 c 2.8,0 5,2.2 5,5 z" />
      <text style="font-size:25; vertical-align:top; fill-opacity:1.0; fill:gray; text-anchor:right; stroke:none; font-weight:normal; font-style:italic; text-align:right; " transform="" id="A.a4.inpoint.text" y="310.074781463" x="699.937992126">
a4.in</text>
      <circle style="stroke:red; stroke-width:1; fill:red; " transform="" cy="366.141732283" cx="692.937992126" r="5" id="A.a4" d="m 697.9,366.1 c 0,2.8 -2.2,5 -5,5 c -2.7,0 -5,-2.2 -5,-5 c 0,-2.7 2.3,-5 5,-5 c 2.8,0 5,2.3 5,5 z" />
      <text style="font-size:30; vertical-align:top; fill-opacity:1.0; fill:darkblue; text-anchor:right; stroke:none; font-weight:normal; font-style:italic; text-align:right; " transform="" id="A.a4.text" y="359.141732283" x="699.937992126">
a4</text>
      <circle style="stroke:red; stroke-width:1; fill:red; " transform="" cy="212.091127031" cx="708.661417323" r="5" id="A.a5" d="m 713.7,212.1 c 0,2.8 -2.3,5 -5,5 c -2.8,0 -5,-2.2 -5,-5 c 0,-2.8 2.2,-5 5,-5 c 2.7,0 5,2.2 5,5 z" />
      <text style="font-size:30; vertical-align:top; fill-opacity:1.0; fill:darkblue; text-anchor:right; stroke:none; font-weight:normal; font-style:italic; text-align:right; " transform="" id="A.a5.text" y="205.091127031" x="715.661417323">
a5</text>
      <circle style="stroke:red; stroke-width:1; fill:red; " transform="" cy="212.091127031" cx="744.094488189" r="5" id="A.a6" d="m 749.1,212.1 c 0,2.8 -2.2,5 -5,5 c -2.8,0 -5,-2.2 -5,-5 c 0,-2.8 2.2,-5 5,-5 c 2.8,0 5,2.2 5,5 z" />
      <text style="font-size:30; vertical-align:top; fill-opacity:1.0; fill:darkblue; text-anchor:right; stroke:none; font-weight:normal; font-style:italic; text-align:right; " transform="" id="A.a6.text" y="205.091127031" x="751.094488189">
a6</text>
      <circle style="stroke:gray; stroke-width:1; fill:none; " transform="" cy="222.253488526" cx="725.966548135" r="5" id="A.a7.outpoint" d="m 731,222.3 c 0,2.7 -2.3,5 -5,5 c -2.8,0 -5,-2.3 -5,-5 c 0,-2.8 2.2,-5 5,-5 c 2.7,0 5,2.2 5,5 z" />
      <text style="font-size:25; vertical-align:top; fill-opacity:1.0; fill:gray; text-anchor:right; stroke:none; font-weight:normal; font-style:italic; text-align:right; " transform="" id="A.a7.outpoint.text" y="215.253488526" x="732.966548135">
a7.out</text>
      <circle style="stroke:red; stroke-width:1; fill:red; " transform="" cy="176.658056165" cx="744.094488189" r="5" id="A.a7" d="m 749.1,176.7 c 0,2.7 -2.2,5 -5,5 c -2.8,0 -5,-2.3 -5,-5 c 0,-2.8 2.2,-5 5,-5 c 2.8,0 5,2.2 5,5 z" />
      <text style="font-size:30; vertical-align:top; fill-opacity:1.0; fill:darkblue; text-anchor:right; stroke:none; font-weight:normal; font-style:italic; text-align:right; " transform="" id="A.a7.text" y="169.658056165" x="751.094488189">
a7</text>
      <circle style="stroke:red; stroke-width:1; fill:red; " transform="" cy="141.732283465" cx="299.763779528" r="5" id="A.a8" d="m 304.8,141.7 c 0,2.8 -2.3,5 -5,5 c -2.8,0 -5,-2.2 -5,-5 c 0,-2.7 2.2,-5 5,-5 c 2.7,0 5,2.3 5,5 z" />
      <text style="font-size:30; vertical-align:top; fill-opacity:1.0; fill:darkblue; text-anchor:right; stroke:none; font-weight:normal; font-style:italic; text-align:right; " transform="" id="A.a8.text" y="134.732283465" x="306.763779528">
a8</text>
      <path style="stroke-linejoin:miter; stroke-dashoffset:0; stroke:gray; stroke-miterlimit:4; stroke-dasharray:6,6; stroke-width:2; fill:none; " transform="" d="M 0.0  0.0 L 744.094488189  0.0 L 744.094488189  176.658056165 L 692.937992126  366.141732283 L 0.0  366.141732283 L 0.0  0.0 M 0.0  141.732283465 L 708.661417323  212.091127031 M 299.763779528  141.732283465 L 299.763779528  0.0 " id="A.gridline" />
    </g>
  </g>
</svg>
