<?xml version="1.0" encoding="UTF-8" standalone="no"?>
<svg xmlns:dc="http://purl.org/dc/elements/1.1/" xmlns:cc="http://creativecommons.org/ns#" xmlns:rdf="http://www.w3.org/1999/02/22-rdf-syntax-ns#" xmlns:svg="http://www.w3.org/2000/svg" xmlns="http://www.w3.org/2000/svg" xmlns:sodipodi="http://sodipodi.sourceforge.net/DTD/sodipodi-0.dtd" xmlns:inkscape="http://www.inkscape.org/namespaces/inkscape" patternNumber="M-S-S-1" fitBoxtoViewport="True" companyName="Seamly Patterns" currentscale="0.5:1" margin-right="88.5826771654" client-name="DressFormLg" designerName="Winifred Aldrich" height="1262.78653505" width="1040.24606299" margin-top="88.5826771654" version="1.1" margin-bottom="88.5826771654" margin-left="88.5826771654" preserveAspectRatio="xMidYMid meet" id="svg2" inkscape:version="0.48.4 r9939" sodipodi:docname="DressFormLg-mens_shirt_classic_2-2015-11-09-1651.svg">
  <metadata id="metadata65">
    <rdf:RDF>
      <cc:Work rdf:about="">
        <dc:format>image/svg+xml</dc:format>
        <dc:type rdf:resource="http://purl.org/dc/dcmitype/StillImage" />
      </cc:Work>
    </rdf:RDF>
  </metadata>
  <sodipodi:namedview id="base" pagecolor="#ffffff" bordercolor="#666666" borderopacity="1.0" inkscape:pageopacity="0.0" inkscape:pageshadow="2" inkscape:zoom="0.1869" inkscape:document-units="pt" showgrid="false" inkscape:window-maximized="1" inkscape:cx="520.1" inkscape:cy="631.4" inkscape:current-layer="pattern" />
  <defs id="defs5">
    <marker style="overflow:visible" id="Arrow1Mstart" refX="0.0" refY="0.0" orient="auto" inkscape:stockid="Arrow1Mstart">
      <path transform="scale(0.4) translate(10,0)" style="fill-rule:evenodd;stroke:#000000;stroke-width:1.0pt;marker-start:none" d="M 0.0,0.0 L 5.0,-5.0 L -12.5,0.0 L 5.0,5.0 L 0.0,0.0 z " id="path8" />
    </marker>
    <marker style="overflow:visible;" id="Arrow1Mend" refX="0.0" refY="0.0" orient="auto" inkscape:stockid="Arrow1Mend">
      <path transform="scale(0.4) rotate(180) translate(10,0)" style="fill-rule:evenodd;stroke:#000000;stroke-width:1.0pt;marker-start:none;" d="M 0.0,0.0 L 5.0,-5.0 L -12.5,0.0 L 5.0,5.0 L 0.0,0.0 z " id="path11" />
    </marker>
  </defs>
  <g inkscape:label="Label-pattern" id="pattern" inkscape:groupmode="layer" transform="translate(88.582677,88.582677)">
    <g id="document.shirt.yoke.pattern" transform=" translate(58.750000, 645.512913)">
      <line style="stroke-linejoin:miter; stroke:green; stroke-width:4; stroke-miterlimit:4; fill:none; " y2="383.858267717" marker-end="url(#Arrow1Mend)" marker-start="url(#Arrow1Mstart)" transform="" x2="748.080708661" y1="206.692913386" x1="748.080708661" id="A.grainline" />
      <g id="A.letter" transform="matrix(1.000000, 0, 0, 1.000000, 0.000000, 0.000000)">
        <text style="font-size:24; vertical-align:top; fill-opacity:1.0; fill:#000000; text-anchor:start; stroke:none; font-weight:normal; font-style:normal; text-align:right; " transform="" id="A.letter.letterline" y="312.992125984" x="748.080708661">
A</text>
      </g>
      <path style="stroke-linejoin:miter; stroke-dashoffset:0; stroke:green; stroke-dasharray:24,6; stroke-miterlimit:4; stroke-width:4; fill:none; " transform="" d="M 0.0  0.0 C 125.981428364  0.0  231.201507102  -113.905063741  316.417322835  -206.692913386 L 654.005905512  103.346456693 C 641.781496063  116.657092238  641.781496063  172.003936114  641.781496063  206.692913386 L 0.0  206.692913386 L 0.0  0.0 " id="A.seamline" />
      <path style="fill:none;stroke:#008000;stroke-width:4;stroke-linejoin:miter;stroke-miterlimit:4" d="M 309.1,-213.5 C 255.1,-155 200.7,-95.39 132.9,-52.59 C 91.64,-26.57 43.42,-8.52 -6.093,-9.943 C -13.61,-11.12 -8.517,0.1979 -10,5 c 0,70.56 0,141.1 0,211.7 c 220.6,0 441.2,0 661.8,0 c 0.5,-32.3 -1.4,-65.1 5.5,-96.8 c 1.1,-7 5.8,-12.4 10.6,-17.4 C 550.5,-5.281 433.2,-113 315.8,-220.8 c -2.2,2.4 -4.5,4.9 -6.7,7.3 z" id="A.cuttingline" inkscape:connector-curvature="0" />
      <g id="A.info" transform="">
        <text style="font-size:12; vertical-align:top; fill-opacity:1.0; fill:#000000; text-anchor:start; stroke:none; font-weight:normal; font-style:normal; text-align:right; " transform="" id="A.info.lineSeamly Patterns" y="206.692913386" x="854.37992126">
Seamly Patterns</text>
        <text style="font-size:12; vertical-align:top; fill-opacity:1.0; fill:#000000; text-anchor:start; stroke:none; font-weight:normal; font-style:normal; text-align:right; " transform="" id="A.info.lineM-S-S-1" y="221.092913386" x="854.37992126">
M-S-S-1</text>
        <text style="font-size:12; vertical-align:top; fill-opacity:1.0; fill:#000000; text-anchor:start; stroke:none; font-weight:normal; font-style:normal; text-align:right; " transform="" id="A.info.lineMens Shirt Classic" y="235.492913386" x="854.37992126">
Mens Shirt Classic</text>
        <text style="font-size:12; vertical-align:top; fill-opacity:1.0; fill:#000000; text-anchor:start; stroke:none; font-weight:normal; font-style:normal; text-align:right; " transform="" id="A.info.linePattern Piece A" y="249.892913386" x="854.37992126">
Pattern Piece A</text>
        <text style="font-size:12; vertical-align:top; fill-opacity:1.0; fill:#000000; text-anchor:start; stroke:none; font-weight:normal; font-style:normal; text-align:right; " transform="" id="A.info.lineCut 2 Fabric" y="264.292913386" x="854.37992126">
Cut 2 Fabric</text>
        <text style="font-size:12; vertical-align:top; fill-opacity:1.0; fill:#000000; text-anchor:start; stroke:none; font-weight:normal; font-style:normal; text-align:right; " transform="" id="A.info.line " y="278.692913386" x="854.37992126" />
        <text style="font-size:12; vertical-align:top; fill-opacity:1.0; fill:#000000; text-anchor:start; stroke:none; font-weight:normal; font-style:normal; text-align:right; " transform="" id="A.info.lineDressFormLg" y="293.092913386" x="854.37992126">
DressFormLg</text>
        <text style="font-size:12; vertical-align:top; fill-opacity:1.0; fill:#000000; text-anchor:start; stroke:none; font-weight:normal; font-style:normal; text-align:right; " transform="" id="A.info.line2015/11/9 16:51" y="307.492913386" x="854.37992126">
2015/11/9 16:51</text>
      </g>
    </g>
  </g>
  <g inkscape:label="Label-notes" id="notes" inkscape:groupmode="layer" transform="translate(88.582677,88.582677)">
    <g id="document.titleblock">
      <text style="font-size:40; vertical-align:top; fill-opacity:1.0; fill:#000000; text-anchor:right; stroke:none; font-weight:normal; font-style:normal; text-align:right; " transform="" id="company" y="0.0" x="0.0">
Seamly Patterns</text>
      <text style="font-size:40; vertical-align:top; fill-opacity:1.0; fill:#000000; text-anchor:right; stroke:none; font-weight:normal; font-style:normal; text-align:right; " transform="" id="designer" y="44.0" x="0.0">
Winifred Aldrich</text>
      <text style="font-size:40; vertical-align:top; fill-opacity:1.0; fill:#000000; text-anchor:right; stroke:none; font-weight:normal; font-style:normal; text-align:right; " transform="" id="pattern_number" y="88.0" x="0.0">
M-S-S-1</text>
      <text style="font-size:40; vertical-align:top; fill-opacity:1.0; fill:#000000; text-anchor:right; stroke:none; font-weight:normal; font-style:normal; text-align:right; " transform="" id="pattern_name" y="132.0" x="0.0">
Mens Shirt Classic</text>
      <text style="font-size:40; vertical-align:top; fill-opacity:1.0; fill:#000000; text-anchor:right; stroke:none; font-weight:normal; font-style:normal; text-align:right; " transform="" id="client" y="176.0" x="0.0">
DressFormLg</text>
      <text style="font-size:40; vertical-align:top; fill-opacity:1.0; fill:#000000; text-anchor:right; stroke:none; font-weight:normal; font-style:normal; text-align:right; " transform="" id="date" y="220.0" x="0.0">
2015/11/9 16:51</text>
    </g>
    <g id="document.testgrid">
      <path style="stroke-linejoin:miter; stroke:green; stroke-width:4; stroke-miterlimit:4; fill:none; " d="M 1080.0  0.0 L 1080.0  212.598425197 M 1115.43307087  0.0 L 1115.43307087  212.598425197 M 1150.86614173  0.0 L 1150.86614173  212.598425197 M 1186.2992126  0.0 L 1186.2992126  212.598425197 M 1221.73228346  0.0 L 1221.73228346  212.598425197 M 1257.16535433  0.0 L 1257.16535433  212.598425197 M 1292.5984252  0.0 L 1292.5984252  212.598425197 M 1080.0  0.0 L 1292.5984252  0.0 M 1080.0  35.4330708661 L 1292.5984252  35.4330708661 M 1080.0  70.8661417323 L 1292.5984252  70.8661417323 M 1080.0  106.299212598 L 1292.5984252  106.299212598 M 1080.0  141.732283465 L 1292.5984252  141.732283465 M 1080.0  177.165354331 L 1292.5984252  177.165354331 M 1080.0  212.598425197 L 1292.5984252  212.598425197 M 1469.76377953  0.0 L 1469.76377953  270.0 M 1559.76377953  0.0 L 1559.76377953  270.0 M 1649.76377953  0.0 L 1649.76377953  270.0 M 1739.76377953  0.0 L 1739.76377953  270.0 M 1469.76377953  0.0 L 1739.76377953  0.0 M 1469.76377953  90.0 L 1739.76377953  90.0 M 1469.76377953  180.0 L 1739.76377953  180.0 M 1469.76377953  270.0 L 1739.76377953  270.0 " id="testgrid" />
    </g>
    <g id="document.shirt.yoke.notes" transform=" translate(58.750000, 645.512913)" />
  </g>
  <g inkscape:label="Label-reference" id="reference" inkscape:groupmode="layer" transform="translate(88.582677,88.582677)">
    <g id="document.shirt.yoke.reference" transform=" translate(58.750000, 645.512913)">
      <circle style="stroke:gray; stroke-width:1; fill:none; " transform="" cy="0.0" cx="125.981428364" r="5" id="A.a1.outpoint" d="m 131,0 c 0,2.761 -2.3,5 -5,5 c -2.8,0 -5,-2.239 -5,-5 c 0,-2.761 2.2,-5 5,-5 c 2.7,0 5,2.239 5,5 z" />
      <text style="font-size:25; vertical-align:top; fill-opacity:1.0; fill:gray; text-anchor:right; stroke:none; font-weight:normal; font-style:italic; text-align:right; " transform="" id="A.a1.outpoint.text" y="-7.0" x="132.981428364">
a1.out</text>
      <circle style="stroke:red; stroke-width:1; fill:red; " transform="" cy="0.0" cx="0.0" r="5" id="A.a1" d="M 5,0 C 5,2.761 2.761,5 0,5 C -2.761,5 -5,2.761 -5,0 c 0,-2.761 2.239,-5 5,-5 c 2.761,0 5,2.239 5,5 z" />
      <text style="font-size:30; vertical-align:top; fill-opacity:1.0; fill:darkblue; text-anchor:right; stroke:none; font-weight:normal; font-style:italic; text-align:right; " transform="" id="A.a1.text" y="-7.0" x="7.0">
a1</text>
      <circle style="stroke:red; stroke-width:1; fill:red; " transform="" cy="206.692913386" cx="0.0" r="5" id="A.a2" d="m 5,206.7 c 0,2.8 -2.239,5 -5,5 c -2.761,0 -5,-2.2 -5,-5 c 0,-2.8 2.239,-5 5,-5 c 2.761,0 5,2.2 5,5 z" />
      <text style="font-size:30; vertical-align:top; fill-opacity:1.0; fill:darkblue; text-anchor:right; stroke:none; font-weight:normal; font-style:italic; text-align:right; " transform="" id="A.a2.text" y="199.692913386" x="7.0">
a2</text>
      <circle style="stroke:gray; stroke-width:1; fill:none; " transform="" cy="172.003936114" cx="641.781496063" r="5" id="A.a3.inpoint" d="m 646.8,172 c 0,2.8 -2.3,5 -5,5 c -2.8,0 -5,-2.2 -5,-5 c 0,-2.8 2.2,-5 5,-5 c 2.7,0 5,2.2 5,5 z" />
      <text style="font-size:25; vertical-align:top; fill-opacity:1.0; fill:gray; text-anchor:right; stroke:none; font-weight:normal; font-style:italic; text-align:right; " transform="" id="A.a3.inpoint.text" y="165.003936114" x="648.781496063">
a3.in</text>
      <circle style="stroke:red; stroke-width:1; fill:red; " transform="" cy="206.692913386" cx="641.781496063" r="5" id="A.a3" d="m 646.8,206.7 c 0,2.8 -2.3,5 -5,5 c -2.8,0 -5,-2.2 -5,-5 c 0,-2.8 2.2,-5 5,-5 c 2.7,0 5,2.2 5,5 z" />
      <text style="font-size:30; vertical-align:top; fill-opacity:1.0; fill:darkblue; text-anchor:right; stroke:none; font-weight:normal; font-style:italic; text-align:right; " transform="" id="A.a3.text" y="199.692913386" x="648.781496063">
a3</text>
      <circle style="stroke:red; stroke-width:1; fill:red; " transform="" cy="0.0" cx="641.781496063" r="5" id="A.a4" d="m 646.8,0 c 0,2.761 -2.3,5 -5,5 c -2.8,0 -5,-2.239 -5,-5 c 0,-2.761 2.2,-5 5,-5 c 2.7,0 5,2.239 5,5 z" />
      <text style="font-size:30; vertical-align:top; fill-opacity:1.0; fill:darkblue; text-anchor:right; stroke:none; font-weight:normal; font-style:italic; text-align:right; " transform="" id="A.a4.text" y="-7.0" x="648.781496063">
a4</text>
      <circle style="stroke:gray; stroke-width:1; fill:none; " transform="" cy="116.657092238" cx="641.781496063" r="5" id="A.a5.outpoint" d="m 646.8,116.7 c 0,2.7 -2.3,5 -5,5 c -2.8,0 -5,-2.3 -5,-5 c 0,-2.8 2.2,-5 5,-5 c 2.7,0 5,2.2 5,5 z" />
      <text style="font-size:25; vertical-align:top; fill-opacity:1.0; fill:gray; text-anchor:right; stroke:none; font-weight:normal; font-style:italic; text-align:right; " transform="" id="A.a5.outpoint.text" y="109.657092238" x="648.781496063">
a5.out</text>
      <circle style="stroke:red; stroke-width:1; fill:red; " transform="" cy="103.346456693" cx="654.005905512" r="5" id="A.a5" d="m 659,103.3 c 0,2.8 -2.2,5 -5,5 c -2.8,0 -5,-2.2 -5,-5 c 0,-2.7 2.2,-4.95 5,-4.95 c 2.8,0 5,2.25 5,4.95 z" />
      <text style="font-size:30; vertical-align:top; fill-opacity:1.0; fill:darkblue; text-anchor:right; stroke:none; font-weight:normal; font-style:italic; text-align:right; " transform="" id="A.a5.text" y="96.3464566929" x="661.005905512">
a5</text>
      <circle style="stroke:red; stroke-width:1; fill:red; " transform="" cy="0.0" cx="316.417322835" r="5" id="A.a6" d="m 321.4,0 c 0,2.761 -2.2,5 -5,5 c -2.7,0 -5,-2.239 -5,-5 c 0,-2.761 2.3,-5 5,-5 c 2.8,0 5,2.239 5,5 z" />
      <text style="font-size:30; vertical-align:top; fill-opacity:1.0; fill:darkblue; text-anchor:right; stroke:none; font-weight:normal; font-style:italic; text-align:right; " transform="" id="A.a6.text" y="-7.0" x="323.417322835">
a6</text>
      <circle style="stroke:gray; stroke-width:1; fill:none; " transform="" cy="-113.905063741" cx="231.201507102" r="5" id="A.a7.inpoint" d="m 236.2,-113.9 c 0,2.8 -2.2,5 -5,5 c -2.8,0 -5,-2.2 -5,-5 c 0,-2.8 2.2,-5 5,-5 c 2.8,0 5,2.2 5,5 z" />
      <text style="font-size:25; vertical-align:top; fill-opacity:1.0; fill:gray; text-anchor:right; stroke:none; font-weight:normal; font-style:italic; text-align:right; " transform="" id="A.a7.inpoint.text" y="-120.905063741" x="238.201507102">
a7.in</text>
      <circle style="stroke:red; stroke-width:1; fill:red; " transform="" cy="-206.692913386" cx="316.417322835" r="5" id="A.a7" d="m 321.4,-206.7 c 0,2.8 -2.2,5 -5,5 c -2.7,0 -5,-2.2 -5,-5 c 0,-2.8 2.3,-5 5,-5 c 2.8,0 5,2.2 5,5 z" />
      <text style="font-size:30; vertical-align:top; fill-opacity:1.0; fill:darkblue; text-anchor:right; stroke:none; font-weight:normal; font-style:italic; text-align:right; " transform="" id="A.a7.text" y="-213.692913386" x="323.417322835">
a7</text>
      <path style="stroke-linejoin:miter; stroke-dashoffset:0; stroke:gray; stroke-miterlimit:4; stroke-dasharray:6,6; stroke-width:2; fill:none; " transform="" d="M 0.0  0.0 L 0.0  206.692913386 L 641.781496063  206.692913386 L 641.781496063  0.0 L 0.0  0.0 M 316.417322835  -206.692913386 L 316.417322835  0.0 " id="A.gridline" />
    </g>
  </g>
</svg>
