<?xml version="1.0" encoding="UTF-8" standalone="no"?>
<svg xmlns:dc="http://purl.org/dc/elements/1.1/" xmlns:cc="http://creativecommons.org/ns#" xmlns:rdf="http://www.w3.org/1999/02/22-rdf-syntax-ns#" xmlns:svg="http://www.w3.org/2000/svg" xmlns="http://www.w3.org/2000/svg" xmlns:sodipodi="http://sodipodi.sourceforge.net/DTD/sodipodi-0.dtd" xmlns:inkscape="http://www.inkscape.org/namespaces/inkscape" patternNumber="M-S-S-1" fitBoxtoViewport="True" companyName="Seamly Patterns" currentscale="0.5:1" margin-right="88.5826771654" client-name="DressFormLg" designerName="Winifred Aldrich" height="1215.54244094" width="1040.24606299" margin-top="88.5826771654" version="1.1" margin-bottom="88.5826771654" margin-left="88.5826771654" preserveAspectRatio="xMidYMid meet" id="svg2" inkscape:version="0.48.4 r9939" sodipodi:docname="DressFormLg-mens_shirt_classic_2-2015-11-09-1806.svg">
  <metadata id="metadata75">
    <rdf:RDF>
      <cc:Work rdf:about="">
        <dc:format>image/svg+xml</dc:format>
        <dc:type rdf:resource="http://purl.org/dc/dcmitype/StillImage" />
      </cc:Work>
    </rdf:RDF>
  </metadata>
  <sodipodi:namedview id="base" pagecolor="#ffffff" bordercolor="#666666" borderopacity="1.0" inkscape:pageopacity="0.0" inkscape:pageshadow="2" inkscape:zoom="1.082" inkscape:document-units="pt" showgrid="false" inkscape:window-maximized="1" inkscape:cx="520.1" inkscape:cy="607.8" inkscape:current-layer="pattern" />
  <defs id="defs5">
    <marker style="overflow:visible" id="Arrow1Mstart" refX="0.0" refY="0.0" orient="auto" inkscape:stockid="Arrow1Mstart">
      <path transform="scale(0.4) translate(10,0)" style="fill-rule:evenodd;stroke:#000000;stroke-width:1.0pt;marker-start:none" d="M 0.0,0.0 L 5.0,-5.0 L -12.5,0.0 L 5.0,5.0 L 0.0,0.0 z " id="path8" />
    </marker>
    <marker style="overflow:visible;" id="Arrow1Mend" refX="0.0" refY="0.0" orient="auto" inkscape:stockid="Arrow1Mend">
      <path transform="scale(0.4) rotate(180) translate(10,0)" style="fill-rule:evenodd;stroke:#000000;stroke-width:1.0pt;marker-start:none;" d="M 0.0,0.0 L 5.0,-5.0 L -12.5,0.0 L 5.0,5.0 L 0.0,0.0 z " id="path11" />
    </marker>
  </defs>
  <g inkscape:label="Label-pattern" id="pattern" inkscape:groupmode="layer" transform="translate(88.582677,88.582677)">
    <g id="document.shirt.yoke.pattern" transform=" translate(58.750000, 438.820000)">
      <line style="stroke-linejoin:miter; stroke:green; stroke-width:4; stroke-miterlimit:4; fill:none; " y2="543.307086614" marker-end="url(#Arrow1Mend)" marker-start="url(#Arrow1Mstart)" transform="" x2="748.080708661" y1="366.141732283" x1="748.080708661" id="A.grainline" />
      <g id="A.letter" transform="matrix(1.000000, 0, 0, 1.000000, 0.000000, 0.000000)">
        <text style="font-size:24; vertical-align:top; fill-opacity:1.0; fill:#000000; text-anchor:start; stroke:none; font-weight:normal; font-style:normal; text-align:right; " transform="" id="A.letter.letterline" y="472.440944882" x="748.080708661">
A</text>
      </g>
      <path style="fill:none;stroke:#008000;stroke-width:4;stroke-linejoin:miter;stroke-miterlimit:4;stroke-dasharray:24, 6;stroke-dashoffset:0" d="M 0,141.7 C 110.5,141.7 269.2,63.95 299.8,0 l 441.5,210.3 c -20,36.8 -62.5,95.1 -64.4,152.1 c -358.1,0.5 -461.4,4.9 -694.46,4.6 L 0,141.7" id="A.seamline" inkscape:connector-curvature="0" sodipodi:nodetypes="cccccc" />
      <path style="fill:none;stroke:#008000;stroke-width:4;stroke-linejoin:miter;stroke-miterlimit:4" d="M 290.9,-4.469 C 277,21.83 252.2,40.05 228.1,56.45 C 176.1,89.78 118,113.4 57.52,125.6 c -22.24,4.5 -44.83,6.6 -67.52,6.1 c 0,81.5 0,162.9 0,244.4 c 220.6,0 441.2,0 661.8,0 c 0.5,-6.2 -0.9,-13.9 0.6,-19.1 c 16.4,-2.5 27.4,-16.6 37.1,-28.6 c 27.7,-37.2 47.8,-79.4 67.9,-121 C 603.4,133.8 449.3,60.26 295.2,-13.25 c -1.4,2.93 -2.9,5.854 -4.3,8.781 z" id="A.cuttingline" inkscape:connector-curvature="0" />
      <g id="A.info" transform="">
        <text style="font-size:12; vertical-align:top; fill-opacity:1.0; fill:#000000; text-anchor:start; stroke:none; font-weight:normal; font-style:normal; text-align:right; " transform="" id="A.info.lineSeamly Patterns" y="366.141732283" x="854.37992126">
Seamly Patterns</text>
        <text style="font-size:12; vertical-align:top; fill-opacity:1.0; fill:#000000; text-anchor:start; stroke:none; font-weight:normal; font-style:normal; text-align:right; " transform="" id="A.info.lineM-S-S-1" y="380.541732283" x="854.37992126">
M-S-S-1</text>
        <text style="font-size:12; vertical-align:top; fill-opacity:1.0; fill:#000000; text-anchor:start; stroke:none; font-weight:normal; font-style:normal; text-align:right; " transform="" id="A.info.lineMens Shirt Classic" y="394.941732283" x="854.37992126">
Mens Shirt Classic</text>
        <text style="font-size:12; vertical-align:top; fill-opacity:1.0; fill:#000000; text-anchor:start; stroke:none; font-weight:normal; font-style:normal; text-align:right; " transform="" id="A.info.linePattern Piece A" y="409.341732283" x="854.37992126">
Pattern Piece A</text>
        <text style="font-size:12; vertical-align:top; fill-opacity:1.0; fill:#000000; text-anchor:start; stroke:none; font-weight:normal; font-style:normal; text-align:right; " transform="" id="A.info.lineCut 2 Fabric" y="423.741732283" x="854.37992126">
Cut 2 Fabric</text>
        <text style="font-size:12; vertical-align:top; fill-opacity:1.0; fill:#000000; text-anchor:start; stroke:none; font-weight:normal; font-style:normal; text-align:right; " transform="" id="A.info.line " y="438.141732283" x="854.37992126" />
        <text style="font-size:12; vertical-align:top; fill-opacity:1.0; fill:#000000; text-anchor:start; stroke:none; font-weight:normal; font-style:normal; text-align:right; " transform="" id="A.info.lineDressFormLg" y="452.541732283" x="854.37992126">
DressFormLg</text>
        <text style="font-size:12; vertical-align:top; fill-opacity:1.0; fill:#000000; text-anchor:start; stroke:none; font-weight:normal; font-style:normal; text-align:right; " transform="" id="A.info.line2015/11/9 18:6" y="466.941732283" x="854.37992126">
2015/11/9 18:6</text>
      </g>
    </g>
  </g>
  <g inkscape:label="Label-notes" id="notes" inkscape:groupmode="layer" transform="translate(88.582677,88.582677)">
    <g id="document.titleblock">
      <text style="font-size:40; vertical-align:top; fill-opacity:1.0; fill:#000000; text-anchor:right; stroke:none; font-weight:normal; font-style:normal; text-align:right; " transform="" id="company" y="0.0" x="0.0">
Seamly Patterns</text>
      <text style="font-size:40; vertical-align:top; fill-opacity:1.0; fill:#000000; text-anchor:right; stroke:none; font-weight:normal; font-style:normal; text-align:right; " transform="" id="designer" y="44.0" x="0.0">
Winifred Aldrich</text>
      <text style="font-size:40; vertical-align:top; fill-opacity:1.0; fill:#000000; text-anchor:right; stroke:none; font-weight:normal; font-style:normal; text-align:right; " transform="" id="pattern_number" y="88.0" x="0.0">
M-S-S-1</text>
      <text style="font-size:40; vertical-align:top; fill-opacity:1.0; fill:#000000; text-anchor:right; stroke:none; font-weight:normal; font-style:normal; text-align:right; " transform="" id="pattern_name" y="132.0" x="0.0">
Mens Shirt Classic</text>
      <text style="font-size:40; vertical-align:top; fill-opacity:1.0; fill:#000000; text-anchor:right; stroke:none; font-weight:normal; font-style:normal; text-align:right; " transform="" id="client" y="176.0" x="0.0">
DressFormLg</text>
      <text style="font-size:40; vertical-align:top; fill-opacity:1.0; fill:#000000; text-anchor:right; stroke:none; font-weight:normal; font-style:normal; text-align:right; " transform="" id="date" y="220.0" x="0.0">
2015/11/9 18:6</text>
    </g>
    <g id="document.testgrid">
      <path style="stroke-linejoin:miter; stroke:green; stroke-width:4; stroke-miterlimit:4; fill:none; " d="M 1080.0  0.0 L 1080.0  212.598425197 M 1115.43307087  0.0 L 1115.43307087  212.598425197 M 1150.86614173  0.0 L 1150.86614173  212.598425197 M 1186.2992126  0.0 L 1186.2992126  212.598425197 M 1221.73228346  0.0 L 1221.73228346  212.598425197 M 1257.16535433  0.0 L 1257.16535433  212.598425197 M 1292.5984252  0.0 L 1292.5984252  212.598425197 M 1080.0  0.0 L 1292.5984252  0.0 M 1080.0  35.4330708661 L 1292.5984252  35.4330708661 M 1080.0  70.8661417323 L 1292.5984252  70.8661417323 M 1080.0  106.299212598 L 1292.5984252  106.299212598 M 1080.0  141.732283465 L 1292.5984252  141.732283465 M 1080.0  177.165354331 L 1292.5984252  177.165354331 M 1080.0  212.598425197 L 1292.5984252  212.598425197 M 1469.76377953  0.0 L 1469.76377953  270.0 M 1559.76377953  0.0 L 1559.76377953  270.0 M 1649.76377953  0.0 L 1649.76377953  270.0 M 1739.76377953  0.0 L 1739.76377953  270.0 M 1469.76377953  0.0 L 1739.76377953  0.0 M 1469.76377953  90.0 L 1739.76377953  90.0 M 1469.76377953  180.0 L 1739.76377953  180.0 M 1469.76377953  270.0 L 1739.76377953  270.0 " id="testgrid" />
    </g>
    <g id="document.shirt.yoke.notes" transform=" translate(58.750000, 438.820000)" />
  </g>
  <g inkscape:label="Label-reference" id="reference" inkscape:groupmode="layer" transform="translate(88.582677,88.582677)">
    <g id="document.shirt.yoke.reference" transform=" translate(58.750000, 438.820000)">
      <circle style="stroke:red; stroke-width:1; fill:red; " transform="" cy="0.0" cx="0.0" r="5" id="A.A1" d="M 5,0 C 5,2.761 2.761,5 0,5 C -2.761,5 -5,2.761 -5,0 c 0,-2.761 2.239,-5 5,-5 c 2.761,0 5,2.239 5,5 z" />
      <text style="font-size:30; vertical-align:top; fill-opacity:1.0; fill:darkblue; text-anchor:right; stroke:none; font-weight:normal; font-style:italic; text-align:right; " transform="" id="A.A1.text" y="-7.0" x="7.0">
A1</text>
      <circle style="stroke:gray; stroke-width:1; fill:none; " transform="" cy="63.9539951864" cx="269.236798941" r="5" id="A.A2.inpoint" d="m 274.2,63.95 c 0,2.77 -2.2,5 -5,5 c -2.7,0 -5,-2.23 -5,-5 c 0,-2.76 2.3,-5 5,-5 c 2.8,0 5,2.24 5,5 z" />
      <text style="font-size:25; vertical-align:top; fill-opacity:1.0; fill:gray; text-anchor:right; stroke:none; font-weight:normal; font-style:italic; text-align:right; " transform="" id="A.A2.inpoint.text" y="56.9539951864" x="276.236798941">
A2.in</text>
      <circle style="stroke:red; stroke-width:1; fill:red; " transform="" cy="0.0" cx="299.763779528" r="5" id="A.A2" d="m 304.8,0 c 0,2.761 -2.3,5 -5,5 c -2.8,0 -5,-2.239 -5,-5 c 0,-2.761 2.2,-5 5,-5 c 2.7,0 5,2.239 5,5 z" />
      <text style="font-size:30; vertical-align:top; fill-opacity:1.0; fill:darkblue; text-anchor:right; stroke:none; font-weight:normal; font-style:italic; text-align:right; " transform="" id="A.A2.text" y="-7.0" x="306.763779528">
A2</text>
      <circle style="stroke:red; stroke-width:1; fill:red; " transform="" cy="0.0" cx="611.220472441" r="5" id="A.A3" d="m 616.2,0 c 0,2.761 -2.2,5 -5,5 c -2.7,0 -5,-2.239 -5,-5 c 0,-2.761 2.3,-5 5,-5 c 2.8,0 5,2.239 5,5 z" />
      <text style="font-size:30; vertical-align:top; fill-opacity:1.0; fill:darkblue; text-anchor:right; stroke:none; font-weight:normal; font-style:italic; text-align:right; " transform="" id="A.A3.text" y="-7.0" x="618.220472441">
A3</text>
      <circle style="stroke:red; stroke-width:1; fill:red; " transform="" cy="0.0" cx="641.781496063" r="5" id="A.A4" d="m 646.8,0 c 0,2.761 -2.3,5 -5,5 c -2.8,0 -5,-2.239 -5,-5 c 0,-2.761 2.2,-5 5,-5 c 2.7,0 5,2.239 5,5 z" />
      <text style="font-size:30; vertical-align:top; fill-opacity:1.0; fill:darkblue; text-anchor:right; stroke:none; font-weight:normal; font-style:italic; text-align:right; " transform="" id="A.A4.text" y="-7.0" x="648.781496063">
A4</text>
      <circle style="stroke:red; stroke-width:1; fill:red; " transform="" cy="0.0" cx="708.661417323" r="5" id="A.A5" d="m 713.7,0 c 0,2.761 -2.3,5 -5,5 c -2.8,0 -5,-2.239 -5,-5 c 0,-2.761 2.2,-5 5,-5 c 2.7,0 5,2.239 5,5 z" />
      <text style="font-size:30; vertical-align:top; fill-opacity:1.0; fill:darkblue; text-anchor:right; stroke:none; font-weight:normal; font-style:italic; text-align:right; " transform="" id="A.A5.text" y="-7.0" x="715.661417323">
A5</text>
      <circle style="stroke:red; stroke-width:1; fill:red; " transform="" cy="0.0" cx="744.094488189" r="5" id="A.A6" d="m 749.1,0 c 0,2.761 -2.2,5 -5,5 c -2.8,0 -5,-2.239 -5,-5 c 0,-2.761 2.2,-5 5,-5 c 2.8,0 5,2.239 5,5 z" />
      <text style="font-size:30; vertical-align:top; fill-opacity:1.0; fill:darkblue; text-anchor:right; stroke:none; font-weight:normal; font-style:italic; text-align:right; " transform="" id="A.A6.text" y="-7.0" x="751.094488189">
A6</text>
      <circle style="stroke:gray; stroke-width:1; fill:none; " transform="" cy="141.732283465" cx="110.527203134" r="5" id="A.a1.outpoint" d="m 115.5,141.7 c 0,2.8 -2.2,5 -5,5 c -2.7,0 -5,-2.2 -5,-5 c 0,-2.7 2.3,-5 5,-5 c 2.8,0 5,2.3 5,5 z" />
      <text style="font-size:25; vertical-align:top; fill-opacity:1.0; fill:gray; text-anchor:right; stroke:none; font-weight:normal; font-style:italic; text-align:right; " transform="" id="A.a1.outpoint.text" y="134.732283465" x="117.527203134">
a1.out</text>
      <circle style="stroke:red; stroke-width:1; fill:red; " transform="" cy="141.732283465" cx="0.0" r="5" id="A.a1" d="m 5,141.7 c 0,2.8 -2.239,5 -5,5 c -2.761,0 -5,-2.2 -5,-5 c 0,-2.7 2.239,-5 5,-5 c 2.761,0 5,2.3 5,5 z" />
      <text style="font-size:30; vertical-align:top; fill-opacity:1.0; fill:darkblue; text-anchor:right; stroke:none; font-weight:normal; font-style:italic; text-align:right; " transform="" id="A.a1.text" y="134.732283465" x="7.0">
a1</text>
      <circle style="stroke:red; stroke-width:1; fill:red; " transform="" cy="366.141732283" cx="0.0" r="5" id="A.a2" d="m 5,366.1 c 0,2.8 -2.239,5 -5,5 c -2.761,0 -5,-2.2 -5,-5 c 0,-2.7 2.239,-5 5,-5 c 2.761,0 5,2.3 5,5 z" />
      <text style="font-size:30; vertical-align:top; fill-opacity:1.0; fill:darkblue; text-anchor:right; stroke:none; font-weight:normal; font-style:italic; text-align:right; " transform="" id="A.a2.text" y="359.141732283" x="7.0">
a2</text>
      <circle style="stroke:gray; stroke-width:1; fill:none; " transform="" cy="304.498009222" cx="641.781496063" r="5" id="A.a3.inpoint" d="m 646.8,304.5 c 0,2.8 -2.3,5 -5,5 c -2.8,0 -5,-2.2 -5,-5 c 0,-2.8 2.2,-5 5,-5 c 2.7,0 5,2.2 5,5 z" />
      <text style="font-size:25; vertical-align:top; fill-opacity:1.0; fill:gray; text-anchor:right; stroke:none; font-weight:normal; font-style:italic; text-align:right; " transform="" id="A.a3.inpoint.text" y="297.498009222" x="648.781496063">
a3.in</text>
      <circle style="stroke:red; stroke-width:1; fill:red; " transform="" cy="366.141732283" cx="641.781496063" r="5" id="A.a3" d="m 646.8,366.1 c 0,2.8 -2.3,5 -5,5 c -2.8,0 -5,-2.2 -5,-5 c 0,-2.7 2.2,-5 5,-5 c 2.7,0 5,2.3 5,5 z" />
      <text style="font-size:30; vertical-align:top; fill-opacity:1.0; fill:darkblue; text-anchor:right; stroke:none; font-weight:normal; font-style:italic; text-align:right; " transform="" id="A.a3.text" y="359.141732283" x="648.781496063">
a3</text>
      <circle style="stroke:red; stroke-width:1; fill:red; " transform="" cy="212.091127031" cx="708.661417323" r="5" id="A.a4" d="m 713.7,212.1 c 0,2.8 -2.3,5 -5,5 c -2.8,0 -5,-2.2 -5,-5 c 0,-2.8 2.2,-5 5,-5 c 2.7,0 5,2.2 5,5 z" />
      <text style="font-size:30; vertical-align:top; fill-opacity:1.0; fill:darkblue; text-anchor:right; stroke:none; font-weight:normal; font-style:italic; text-align:right; " transform="" id="A.a4.text" y="205.091127031" x="715.661417323">
a4</text>
      <circle style="stroke:gray; stroke-width:1; fill:none; " transform="" cy="426.436747864" cx="641.781496063" r="5" id="A.a5.outpoint" d="m 646.8,426.4 c 0,2.8 -2.3,5 -5,5 c -2.8,0 -5,-2.2 -5,-5 c 0,-2.7 2.2,-5 5,-5 c 2.7,0 5,2.3 5,5 z" />
      <text style="font-size:25; vertical-align:top; fill-opacity:1.0; fill:gray; text-anchor:right; stroke:none; font-weight:normal; font-style:italic; text-align:right; " transform="" id="A.a5.outpoint.text" y="419.436747864" x="648.781496063">
a5.out</text>
      <circle style="stroke:red; stroke-width:1; fill:red; " transform="" cy="212.091127031" cx="744.094488189" r="5" id="A.a5" d="m 749.1,212.1 c 0,2.8 -2.2,5 -5,5 c -2.8,0 -5,-2.2 -5,-5 c 0,-2.8 2.2,-5 5,-5 c 2.8,0 5,2.2 5,5 z" />
      <text style="font-size:30; vertical-align:top; fill-opacity:1.0; fill:darkblue; text-anchor:right; stroke:none; font-weight:normal; font-style:italic; text-align:right; " transform="" id="A.a5.text" y="205.091127031" x="751.094488189">
a5</text>
      <circle style="stroke:red; stroke-width:1; fill:red; " transform="" cy="141.732283465" cx="299.763779528" r="5" id="A.a6" d="m 304.8,141.7 c 0,2.8 -2.3,5 -5,5 c -2.8,0 -5,-2.2 -5,-5 c 0,-2.7 2.2,-5 5,-5 c 2.7,0 5,2.3 5,5 z" />
      <text style="font-size:30; vertical-align:top; fill-opacity:1.0; fill:darkblue; text-anchor:right; stroke:none; font-weight:normal; font-style:italic; text-align:right; " transform="" id="A.a6.text" y="134.732283465" x="306.763779528">
a6</text>
      <path style="fill:none;stroke:#808080;stroke-width:2;stroke-linejoin:miter;stroke-miterlimit:4;stroke-dasharray:6, 6;stroke-dashoffset:0" d="m 0,141.7 l 0,224.4 l 613.1,0 l 95.6,-154 l 35.4,0" id="A.gridline" inkscape:connector-curvature="0" sodipodi:nodetypes="ccccc" />
    </g>
  </g>
</svg>
