<?xml version="1.0" encoding="UTF-8" standalone="no"?>
<svg xmlns:dc="http://purl.org/dc/elements/1.1/" xmlns:cc="http://creativecommons.org/ns#" xmlns:rdf="http://www.w3.org/1999/02/22-rdf-syntax-ns#" xmlns:svg="http://www.w3.org/2000/svg" xmlns="http://www.w3.org/2000/svg" xmlns:sodipodi="http://sodipodi.sourceforge.net/DTD/sodipodi-0.dtd" xmlns:inkscape="http://www.inkscape.org/namespaces/inkscape" patternNumber="BL_W_Skirt_A-line_Pivnick_Spencer" fitBoxtoViewport="True" companyName="Seamly Patterns" currentscale="0.5:1" margin-right="88.5826771654" client-name="DressFormLg" designerName="Ester Pivnick" height="3225.00473566" width="3544.07260683" margin-top="88.5826771654" version="1.1" margin-bottom="88.5826771654" margin-left="88.5826771654" preserveAspectRatio="xMidYMid meet" id="svg2" inkscape:version="0.48.4 r9939" sodipodi:docname="Block_Skirt_Short_Aline_Pivnick_Spencer.svg">
  <metadata id="metadata178">
    <rdf:RDF>
      <cc:Work rdf:about="">
        <dc:format>image/svg+xml</dc:format>
        <dc:type rdf:resource="http://purl.org/dc/dcmitype/StillImage" />
      </cc:Work>
    </rdf:RDF>
  </metadata>
  <sodipodi:namedview id="base" pagecolor="#ffffff" bordercolor="#666666" borderopacity="1.0" inkscape:pageopacity="0.0" inkscape:pageshadow="2" inkscape:zoom="0.28186006" inkscape:document-units="pt" showgrid="false" inkscape:window-maximized="1" inkscape:cx="1772.0363" inkscape:cy="1612.5023" inkscape:window-width="1855" inkscape:window-height="1056" inkscape:window-x="65" inkscape:window-y="24" inkscape:current-layer="pattern" />
  <defs id="defs5">
    <marker style="overflow:visible" id="Arrow1Mstart" refX="0.0" refY="0.0" orient="auto" inkscape:stockid="Arrow1Mstart">
      <path transform="scale(0.4) translate(10,0)" style="fill-rule:evenodd;stroke:#000000;stroke-width:1.0pt;marker-start:none" d="M 0.0,0.0 L 5.0,-5.0 L -12.5,0.0 L 5.0,5.0 L 0.0,0.0 z " id="path8" />
    </marker>
    <marker style="overflow:visible;" id="Arrow1Mend" refX="0.0" refY="0.0" orient="auto" inkscape:stockid="Arrow1Mend">
      <path transform="scale(0.4) rotate(180) translate(10,0)" style="fill-rule:evenodd;stroke:#000000;stroke-width:1.0pt;marker-start:none;" d="M 0.0,0.0 L 5.0,-5.0 L -12.5,0.0 L 5.0,5.0 L 0.0,0.0 z " id="path11" />
    </marker>
  </defs>
  <g inkscape:label="Label-pattern" id="pattern" inkscape:groupmode="layer" transform="translate(88.582677,88.582677)">
    <g id="document.bodice.Front.pattern" transform=" translate(58.750000, 500.968809)">
      <g id="A.letter" transform="matrix(10.000000, 0, 0, 10.000000, -2161.802869, -9720.000000)">
        <text style="font-size:24; vertical-align:top; fill-opacity:1.0; fill:#000000; text-anchor:start; stroke:none; font-weight:normal; font-style:normal; text-align:right; " transform="" id="A.letter.letterline" y="1080.0" x="240.200318764">
A</text>
      </g>
      <line style="stroke-linejoin:miter; stroke:green; stroke-width:4; stroke-miterlimit:4; fill:none; " y2="2079.92125984" marker-end="url(#Arrow1Mend)" marker-start="url(#Arrow1Mstart)" transform="" x2="540.0" y1="690.94488189" x1="540.0" id="A.grainline" />
      <path style="stroke-linejoin:miter; stroke-dashoffset:0; stroke:green; stroke-miterlimit:4; stroke-dasharray:6,6; stroke-width:3; fill:none; " transform="" d="M 478.421150616  -64.6488085379 L 540.0  566.929133858 L 601.578849384  -64.6488085379 " id="A.dartline" />
      <path style="stroke-linejoin:miter; stroke-dashoffset:0; stroke:green; stroke-dasharray:24,6; stroke-miterlimit:4; stroke-width:4; fill:none; " transform="" d="M 0  0 L 0  2427.16535433 L 921.25984252  2427.16535433 C 950.906339248  2427.16535433  1069.41437763  2421.08669036  1098.90528393  2418.05334 C 1069.29771036  2130.20193031  937.985565086  979.831179029  921.25984252  690.94488189 C 916.624704932  610.88689162  966.729028686  292.458758925  971.203533447  212.391630128 C 973.335367039  174.24443755  963.305019775  21.5120670968  960.801275056  -16.6125217991 C 900.137365929  -12.6285590469  656.628024849  -2.76478305195  596.120357908  -8.66428057873 L 540.0  -18.6726160433 L 483.879642092  -8.66428057873 C 403.600780575  -0.837091580775  80.6595344281  0  0  0 " id="A.seamline" />
      <path style="fill:none;stroke:#008000;stroke-width:4;stroke-linejoin:miter;stroke-miterlimit:4" d="M 957.15625,-72.75 C 860.06099,-67.373463 762.89131,-63.890351 665.65625,-63.09375 643.23211,-63.492833 620.60622,-62.297528 598.45309,-65.380247 578.64085,-68.686008 558.82515,-72.937489 539.01578,-75.666777 515.14503,-71.860763 491.51808,-66.161488 467.46875,-63.71875 378.21443,-58.640481 288.39559,-58.380017 198.81276,-57.199155 113.79436,-56.413648 28.7718,-56.167443 -56.25,-56.25 -56.25,790.30208 -56.25,1636.8542 -56.25,2483.4062 272.55083,2483.3273 601.36085,2483.5641 930.15595,2483.2879 990.12212,2481.4191 1050.2412,2478.6576 1110.0682,2473.5089 1126.9621,2471.9434 1143.8561,2470.378 1160.75,2468.8125 1134.0958,2212.0872 1104.9885,1955.6205 1077.3609,1698.9865 1047.4076,1420.1093 1016.9501,1141.0902 991.23323,861.84748 985.99411,801.45204 980.20056,741.04436 977.21875,680.5 978.22278,624.71277 985.68583,569.24858 991.84375,513.84375 1002.6725,420.92038 1016.4961,328.21162 1025.875,235.125 1030.0767,192.15514 1026.0835,148.95539 1024.4991,105.94599 1021.3413,45.119818 1017.2252,-15.650154 1013.2812,-76.4375 994.57292,-75.208333 975.86458,-73.979167 957.15625,-72.75 z" id="A.cuttingline" inkscape:connector-curvature="0" />
      <g id="A.info" transform="">
        <text style="font-size:12; vertical-align:top; fill-opacity:1.0; fill:#000000; text-anchor:start; stroke:none; font-weight:normal; font-style:normal; text-align:right; " transform="" id="A.info.lineSeamly Patterns" y="1125.0" x="240.200318764">
Seamly Patterns</text>
        <text style="font-size:12; vertical-align:top; fill-opacity:1.0; fill:#000000; text-anchor:start; stroke:none; font-weight:normal; font-style:normal; text-align:right; " transform="" id="A.info.lineDesigner:Ester Pivnick" y="1139.4" x="240.200318764">
Designer:Ester Pivnick</text>
        <text style="font-size:12; vertical-align:top; fill-opacity:1.0; fill:#000000; text-anchor:start; stroke:none; font-weight:normal; font-style:normal; text-align:right; " transform="" id="A.info.lineClient:DressFormLg" y="1153.8" x="240.200318764">
Client:DressFormLg</text>
        <text style="font-size:12; vertical-align:top; fill-opacity:1.0; fill:#000000; text-anchor:start; stroke:none; font-weight:normal; font-style:normal; text-align:right; " transform="" id="A.info.lineBL_W_Skirt_A-line_Pivnick_Spencer" y="1168.2" x="240.200318764">
BL_W_Skirt_A-line_Pivnick_Spencer</text>
        <text style="font-size:12; vertical-align:top; fill-opacity:1.0; fill:#000000; text-anchor:start; stroke:none; font-weight:normal; font-style:normal; text-align:right; " transform="" id="A.info.linePattern Piece A" y="1182.6" x="240.200318764">
Pattern Piece A</text>
        <text style="font-size:12; vertical-align:top; fill-opacity:1.0; fill:#000000; text-anchor:start; stroke:none; font-weight:normal; font-style:normal; text-align:right; " transform="" id="A.info.lineCut 2 Fabric" y="1197.0" x="240.200318764">
Cut 2 Fabric</text>
      </g>
    </g>
    <g id="document.bodice.Back.pattern" transform=" translate(1326.405284, 564.424027)">
      <g id="B.letter" transform="matrix(10.000000, 0, 0, 10.000000, -10766.074123, -9720.000000)">
        <text style="font-size:24; vertical-align:top; fill-opacity:1.0; fill:#000000; text-anchor:start; stroke:none; font-weight:normal; font-style:normal; text-align:right; " transform="" id="B.letter.letterline" y="1080.0" x="1196.23045807">
B</text>
      </g>
      <line style="stroke-linejoin:miter; stroke:green; stroke-width:4; stroke-miterlimit:4; fill:none; " y2="2079.92125984" marker-end="url(#Arrow1Mend)" marker-start="url(#Arrow1Mstart)" transform="" x2="1451.78899687" y1="690.94488189" x1="1451.78899687" id="B.grainline" />
      <path style="stroke-linejoin:miter; stroke-dashoffset:0; stroke:green; stroke-miterlimit:4; stroke-dasharray:6,6; stroke-width:3; fill:none; " transform="" d="M 1591.73247111  -128.104026755 L 1451.78899687  644.765615091 L 1311.84552262  -128.104026755 " id="B.dartline" />
      <path style="stroke-linejoin:miter; stroke-dashoffset:0; stroke:green; stroke-dasharray:24,6; stroke-miterlimit:4; stroke-width:4; fill:none; " transform="" d="M 1984.2519685  -106.299212598 L 1984.2519685  2427.16535433 L 921.25984252  2427.16535433 C 861.966849063  2427.16535433  802.596213696  2424.12004072  743.614401114  2418.05334 C 802.829548249  1842.35052063  851.206282325  1265.42958019  921.25984252  690.94488189 C 938.204223328  551.989952698  976.69754222  416.520030604  1004.41639207  279.307604962 C 1023.47252431  184.976918742  1042.52865654  90.6462325219  1061.58478878  -3.68445369799 C 1105.57798003  5.20279289849  1277.70399196  -64.7573424476  1321.86773702  -72.7540699488 L 1451.78899687  -61.9272982953 L 1581.71025671  -72.7540699488 C 1647.9558743  -60.758978697  1916.92913386  -106.299212598  1984.2519685  -106.299212598 " id="B.seamline" />
      <path style="fill:none;stroke:#008000;stroke-width:4;stroke-linejoin:miter;stroke-miterlimit:4" d="M 1983.1562,-162.5625 C 1931.1821,-160.90766 1879.7044,-152.94847 1828.0737,-147.16324 1759.0805,-139.11601 1690.2901,-129.5625 1620.9071,-127.08596 1608.3305,-126.69233 1595.6666,-127.07088 1583.3158,-129.32463 1538.8052,-125.85783 1494.2976,-121.46882 1449.7882,-118.54109 1405.8482,-122.01837 1361.8727,-126.2354 1317.9548,-129.25247 1279.3321,-122.06315 1242.6876,-107.3068 1205.3231,-95.570633 1164.0073,-82.205582 1122.9145,-67.623977 1080.1875,-60.0625 1067.4574,-57.438004 1054.9472,-63.045906 1042.342,-64.370778 1034.0196,-65.882602 1025.6973,-67.394426 1017.375,-68.90625 991.83975,56.748398 966.93489,182.65791 940.92402,308.11171 912.3566,439.88151 877.40115,570.68593 862.89085,705.03631 792.58306,1286.304 743.84425,1869.8409 683.61231,2452.1701 684.40707,2457.0747 679.51766,2466.6148 683.9585,2468.5459 753.92901,2476.1479 824.10924,2482.5026 894.53097,2483.2212 1079.1019,2483.6533 1263.6773,2483.2827 1448.25,2483.4062 1645.6667,2483.4062 1843.0833,2483.4063 2040.5,2483.4062 2040.5,1601.0521 2040.5,718.69792 2040.5,-163.65625 2021.3854,-163.29167 2002.2708,-162.92708 1983.1562,-162.5625 z" id="B.cuttingline" inkscape:connector-curvature="0" />
      <g id="B.info" transform="">
        <text style="font-size:12; vertical-align:top; fill-opacity:1.0; fill:#000000; text-anchor:start; stroke:none; font-weight:normal; font-style:normal; text-align:right; " transform="" id="B.info.lineSeamly Patterns" y="1125.0" x="1196.23045807">
Seamly Patterns</text>
        <text style="font-size:12; vertical-align:top; fill-opacity:1.0; fill:#000000; text-anchor:start; stroke:none; font-weight:normal; font-style:normal; text-align:right; " transform="" id="B.info.lineDesigner:Ester Pivnick" y="1139.4" x="1196.23045807">
Designer:Ester Pivnick</text>
        <text style="font-size:12; vertical-align:top; fill-opacity:1.0; fill:#000000; text-anchor:start; stroke:none; font-weight:normal; font-style:normal; text-align:right; " transform="" id="B.info.lineClient:DressFormLg" y="1153.8" x="1196.23045807">
Client:DressFormLg</text>
        <text style="font-size:12; vertical-align:top; fill-opacity:1.0; fill:#000000; text-anchor:start; stroke:none; font-weight:normal; font-style:normal; text-align:right; " transform="" id="B.info.lineBL_W_Skirt_A-line_Pivnick_Spencer" y="1168.2" x="1196.23045807">
BL_W_Skirt_A-line_Pivnick_Spencer</text>
        <text style="font-size:12; vertical-align:top; fill-opacity:1.0; fill:#000000; text-anchor:start; stroke:none; font-weight:normal; font-style:normal; text-align:right; " transform="" id="B.info.linePattern Piece B" y="1182.6" x="1196.23045807">
Pattern Piece B</text>
        <text style="font-size:12; vertical-align:top; fill-opacity:1.0; fill:#000000; text-anchor:start; stroke:none; font-weight:normal; font-style:normal; text-align:right; " transform="" id="B.info.lineCut 2 Fabric" y="1197.0" x="1196.23045807">
Cut 2 Fabric</text>
      </g>
    </g>
  </g>
  <g inkscape:label="Label-notes" id="notes" inkscape:groupmode="layer" transform="translate(88.582677,88.582677)">
    <g id="document.titleblock">
      <text style="font-size:40; vertical-align:top; fill-opacity:1.0; fill:#000000; text-anchor:right; stroke:none; font-weight:normal; font-style:normal; text-align:right; " transform="" id="company" y="0.0" x="0.0">
Seamly Patterns</text>
      <text style="font-size:40; vertical-align:top; fill-opacity:1.0; fill:#000000; text-anchor:right; stroke:none; font-weight:normal; font-style:normal; text-align:right; " transform="" id="designer" y="44.0" x="0.0">
Ester Pivnick</text>
      <text style="font-size:40; vertical-align:top; fill-opacity:1.0; fill:#000000; text-anchor:right; stroke:none; font-weight:normal; font-style:normal; text-align:right; " transform="" id="pattern_number" y="88.0" x="0.0">
BL_W_Skirt_A-line_Pivnick_Spencer</text>
      <text style="font-size:40; vertical-align:top; fill-opacity:1.0; fill:#000000; text-anchor:right; stroke:none; font-weight:normal; font-style:normal; text-align:right; " transform="" id="pattern_name" y="132.0" x="0.0">
Block/Women/Skirt - Short A-line - Pivnick and Spencer</text>
      <text style="font-size:40; vertical-align:top; fill-opacity:1.0; fill:#000000; text-anchor:right; stroke:none; font-weight:normal; font-style:normal; text-align:right; " transform="" id="client" y="176.0" x="0.0">
DressFormLg</text>
    </g>
    <g id="document.testgrid">
      <path style="stroke-linejoin:miter; stroke:green; stroke-width:4; stroke-miterlimit:4; fill:none; " d="M 1320.0  0.0 L 1320.0  212.598425197 M 1355.43307087  0.0 L 1355.43307087  212.598425197 M 1390.86614173  0.0 L 1390.86614173  212.598425197 M 1426.2992126  0.0 L 1426.2992126  212.598425197 M 1461.73228346  0.0 L 1461.73228346  212.598425197 M 1497.16535433  0.0 L 1497.16535433  212.598425197 M 1532.5984252  0.0 L 1532.5984252  212.598425197 M 1320.0  0.0 L 1532.5984252  0.0 M 1320.0  35.4330708661 L 1532.5984252  35.4330708661 M 1320.0  70.8661417323 L 1532.5984252  70.8661417323 M 1320.0  106.299212598 L 1532.5984252  106.299212598 M 1320.0  141.732283465 L 1532.5984252  141.732283465 M 1320.0  177.165354331 L 1532.5984252  177.165354331 M 1320.0  212.598425197 L 1532.5984252  212.598425197 M 1709.76377953  0.0 L 1709.76377953  270.0 M 1799.76377953  0.0 L 1799.76377953  270.0 M 1889.76377953  0.0 L 1889.76377953  270.0 M 1979.76377953  0.0 L 1979.76377953  270.0 M 1709.76377953  0.0 L 1979.76377953  0.0 M 1709.76377953  90.0 L 1979.76377953  90.0 M 1709.76377953  180.0 L 1979.76377953  180.0 M 1709.76377953  270.0 L 1979.76377953  270.0 " id="testgrid" />
    </g>
    <g id="document.bodice.Front.notes" transform=" translate(58.750000, 500.968809)" />
    <g id="document.bodice.Back.notes" transform=" translate(1326.405284, 564.424027)" />
  </g>
  <g inkscape:label="Label-reference" id="reference" inkscape:groupmode="layer" transform="translate(88.582677,88.582677)">
    <g id="document.bodice.Front.reference" transform=" translate(58.750000, 500.968809)">
      <circle style="stroke:gray; stroke-width:1; fill:none; " transform="" cy="0" cx="80.6595344281" r="5" id="A.FWC.inpoint" d="M 85.659531,0 C 85.659531,2.7614237 83.420954,5 80.659531,5 77.898107,5 75.659531,2.7614237 75.659531,0 75.659531,-2.7614237 77.898107,-5 80.659531,-5 83.420954,-5 85.659531,-2.7614237 85.659531,0 z" />
      <text style="font-size:25; vertical-align:top; fill-opacity:1.0; fill:gray; text-anchor:right; stroke:none; font-weight:normal; font-style:italic; text-align:right; " transform="" id="A.FWC.inpoint.text" y="-7" x="87.6595344281">
FWC.in</text>
      <circle style="stroke:red; stroke-width:1; fill:red; " transform="" cy="0" cx="0" r="5" id="A.FWC" d="M 5,0 C 5,2.7614237 2.7614237,5 0,5 -2.7614237,5 -5,2.7614237 -5,0 -5,-2.7614237 -2.7614237,-5 0,-5 2.7614237,-5 5,-2.7614237 5,0 z" />
      <text style="font-size:30; vertical-align:top; fill-opacity:1.0; fill:darkblue; text-anchor:right; stroke:none; font-weight:normal; font-style:italic; text-align:right; " transform="" id="A.FWC.text" y="-7" x="7">
FWC</text>
      <circle style="stroke:red; stroke-width:1; fill:red; " transform="" cy="690.94488189" cx="0" r="5" id="A.FHC" d="M 5,690.94489 C 5,693.70631 2.7614237,695.94489 0,695.94489 -2.7614237,695.94489 -5,693.70631 -5,690.94489 -5,688.18346 -2.7614237,685.94489 0,685.94489 2.7614237,685.94489 5,688.18346 5,690.94489 z" />
      <text style="font-size:30; vertical-align:top; fill-opacity:1.0; fill:darkblue; text-anchor:right; stroke:none; font-weight:normal; font-style:italic; text-align:right; " transform="" id="A.FHC.text" y="683.94488189" x="7">
FHC</text>
      <circle style="stroke:red; stroke-width:1; fill:red; " transform="" cy="2427.16535433" cx="0" r="5" id="A.FHEMC" d="M 5,2427.1653 C 5,2429.9267 2.7614237,2432.1653 0,2432.1653 -2.7614237,2432.1653 -5,2429.9267 -5,2427.1653 -5,2424.4039 -2.7614237,2422.1653 0,2422.1653 2.7614237,2422.1653 5,2424.4039 5,2427.1653 z" />
      <text style="font-size:30; vertical-align:top; fill-opacity:1.0; fill:darkblue; text-anchor:right; stroke:none; font-weight:normal; font-style:italic; text-align:right; " transform="" id="A.FHEMC.text" y="2420.16535433" x="7">
FHEMC</text>
      <circle style="stroke:gray; stroke-width:1; fill:none; " transform="" cy="2427.16535433" cx="950.906339248" r="5" id="A.FHEMS1.outpoint" d="M 955.90631,2427.1653 C 955.90631,2429.9267 953.66773,2432.1653 950.90631,2432.1653 948.14489,2432.1653 945.90631,2429.9267 945.90631,2427.1653 945.90631,2424.4039 948.14489,2422.1653 950.90631,2422.1653 953.66773,2422.1653 955.90631,2424.4039 955.90631,2427.1653 z" />
      <text style="font-size:25; vertical-align:top; fill-opacity:1.0; fill:gray; text-anchor:right; stroke:none; font-weight:normal; font-style:italic; text-align:right; " transform="" id="A.FHEMS1.outpoint.text" y="2420.16535433" x="957.906339248">
FHEMS1.out</text>
      <circle style="stroke:red; stroke-width:1; fill:red; " transform="" cy="2427.16535433" cx="921.25984252" r="5" id="A.FHEMS1" d="M 926.25983,2427.1653 C 926.25983,2429.9267 924.02125,2432.1653 921.25983,2432.1653 918.4984,2432.1653 916.25983,2429.9267 916.25983,2427.1653 916.25983,2424.4039 918.4984,2422.1653 921.25983,2422.1653 924.02125,2422.1653 926.25983,2424.4039 926.25983,2427.1653 z" />
      <text style="font-size:30; vertical-align:top; fill-opacity:1.0; fill:darkblue; text-anchor:right; stroke:none; font-weight:normal; font-style:italic; text-align:right; " transform="" id="A.FHEMS1.text" y="2420.16535433" x="928.25984252">
FHEMS1</text>
      <circle style="stroke:red; stroke-width:1; fill:red; " transform="" cy="2427.16535433" cx="1099.84251969" r="5" id="A.FHEMS2" d="M 1104.8425,2427.1653 C 1104.8425,2429.9267 1102.604,2432.1653 1099.8425,2432.1653 1097.0811,2432.1653 1094.8425,2429.9267 1094.8425,2427.1653 1094.8425,2424.4039 1097.0811,2422.1653 1099.8425,2422.1653 1102.604,2422.1653 1104.8425,2424.4039 1104.8425,2427.1653 z" />
      <text style="font-size:30; vertical-align:top; fill-opacity:1.0; fill:darkblue; text-anchor:right; stroke:none; font-weight:normal; font-style:italic; text-align:right; " transform="" id="A.FHEMS2.text" y="2420.16535433" x="1106.84251969">
FHEMS2</text>
      <circle style="stroke:gray; stroke-width:1; fill:none; " transform="" cy="979.831179029" cx="937.985565086" r="5" id="A.FHS.inpoint" d="M 942.98553,979.83118 C 942.98553,982.5926 940.74696,984.83118 937.98553,984.83118 935.22411,984.83118 932.98553,982.5926 932.98553,979.83118 932.98553,977.06975 935.22411,974.83118 937.98553,974.83118 940.74696,974.83118 942.98553,977.06975 942.98553,979.83118 z" />
      <text style="font-size:25; vertical-align:top; fill-opacity:1.0; fill:gray; text-anchor:right; stroke:none; font-weight:normal; font-style:italic; text-align:right; " transform="" id="A.FHS.inpoint.text" y="972.831179029" x="944.985565086">
FHS.in</text>
      <circle style="stroke:gray; stroke-width:1; fill:none; " transform="" cy="610.88689162" cx="916.624704932" r="5" id="A.FHS.outpoint" d="M 921.62469,610.8869 C 921.62469,613.64833 919.38612,615.8869 916.62469,615.8869 913.86327,615.8869 911.62469,613.64833 911.62469,610.8869 911.62469,608.12548 913.86327,605.8869 916.62469,605.8869 919.38612,605.8869 921.62469,608.12548 921.62469,610.8869 z" />
      <text style="font-size:25; vertical-align:top; fill-opacity:1.0; fill:gray; text-anchor:right; stroke:none; font-weight:normal; font-style:italic; text-align:right; " transform="" id="A.FHS.outpoint.text" y="603.88689162" x="923.624704932">
FHS.out</text>
      <circle style="stroke:red; stroke-width:1; fill:red; " transform="" cy="690.94488189" cx="921.25984252" r="5" id="A.FHS" d="M 926.25983,690.94489 C 926.25983,693.70631 924.02125,695.94489 921.25983,695.94489 918.4984,695.94489 916.25983,693.70631 916.25983,690.94489 916.25983,688.18346 918.4984,685.94489 921.25983,685.94489 924.02125,685.94489 926.25983,688.18346 926.25983,690.94489 z" />
      <text style="font-size:30; vertical-align:top; fill-opacity:1.0; fill:darkblue; text-anchor:right; stroke:none; font-weight:normal; font-style:italic; text-align:right; " transform="" id="A.FHS.text" y="683.94488189" x="928.25984252">
FHS</text>
      <circle style="stroke:gray; stroke-width:1; fill:none; " transform="" cy="2421.08669036" cx="1069.41437763" r="5" id="A.FHEMS.inpoint" d="M 1074.4144,2421.0867 C 1074.4144,2423.8481 1072.1759,2426.0867 1069.4144,2426.0867 1066.653,2426.0867 1064.4144,2423.8481 1064.4144,2421.0867 1064.4144,2418.3252 1066.653,2416.0867 1069.4144,2416.0867 1072.1759,2416.0867 1074.4144,2418.3252 1074.4144,2421.0867 z" />
      <text style="font-size:25; vertical-align:top; fill-opacity:1.0; fill:gray; text-anchor:right; stroke:none; font-weight:normal; font-style:italic; text-align:right; " transform="" id="A.FHEMS.inpoint.text" y="2414.08669036" x="1076.41437763">
FHEMS.in</text>
      <circle style="stroke:gray; stroke-width:1; fill:none; " transform="" cy="2130.20193031" cx="1069.29771036" r="5" id="A.FHEMS.outpoint" d="M 1074.2977,2130.2019 C 1074.2977,2132.9633 1072.0592,2135.2019 1069.2977,2135.2019 1066.5363,2135.2019 1064.2977,2132.9633 1064.2977,2130.2019 1064.2977,2127.4405 1066.5363,2125.2019 1069.2977,2125.2019 1072.0592,2125.2019 1074.2977,2127.4405 1074.2977,2130.2019 z" />
      <text style="font-size:25; vertical-align:top; fill-opacity:1.0; fill:gray; text-anchor:right; stroke:none; font-weight:normal; font-style:italic; text-align:right; " transform="" id="A.FHEMS.outpoint.text" y="2123.20193031" x="1076.29771036">
FHEMS.out</text>
      <circle style="stroke:red; stroke-width:1; fill:red; " transform="" cy="2418.05334" cx="1098.90528393" r="5" id="A.FHEMS" d="M 1103.9053,2418.0532 C 1103.9053,2420.8146 1101.6667,2423.0532 1098.9053,2423.0532 1096.1438,2423.0532 1093.9053,2420.8146 1093.9053,2418.0532 1093.9053,2415.2918 1096.1438,2413.0532 1098.9053,2413.0532 1101.6667,2413.0532 1103.9053,2415.2918 1103.9053,2418.0532 z" />
      <text style="font-size:30; vertical-align:top; fill-opacity:1.0; fill:darkblue; text-anchor:right; stroke:none; font-weight:normal; font-style:italic; text-align:right; " transform="" id="A.FHEMS.text" y="2411.05334" x="1105.90528393">
FHEMS</text>
      <circle style="stroke:red; stroke-width:1; fill:red; " transform="" cy="-17.7165354331" cx="921.25984252" r="5" id="A.FWS1" d="M 926.25983,-17.716536 C 926.25983,-14.955112 924.02125,-12.716536 921.25983,-12.716536 918.4984,-12.716536 916.25983,-14.955112 916.25983,-17.716536 916.25983,-20.477959 918.4984,-22.716536 921.25983,-22.716536 924.02125,-22.716536 926.25983,-20.477959 926.25983,-17.716536 z" />
      <text style="font-size:30; vertical-align:top; fill-opacity:1.0; fill:darkblue; text-anchor:right; stroke:none; font-weight:normal; font-style:italic; text-align:right; " transform="" id="A.FWS1.text" y="-24.7165354331" x="928.25984252">
FWS1</text>
      <circle style="stroke:gray; stroke-width:1; fill:none; " transform="" cy="21.5120670968" cx="963.305019775" r="5" id="A.FWS.inpoint" d="M 968.30499,21.512068 C 968.30499,24.273492 966.06642,26.512068 963.30499,26.512068 960.54357,26.512068 958.30499,24.273492 958.30499,21.512068 958.30499,18.750644 960.54357,16.512068 963.30499,16.512068 966.06642,16.512068 968.30499,18.750644 968.30499,21.512068 z" />
      <text style="font-size:25; vertical-align:top; fill-opacity:1.0; fill:gray; text-anchor:right; stroke:none; font-weight:normal; font-style:italic; text-align:right; " transform="" id="A.FWS.inpoint.text" y="14.5120670968" x="970.305019775">
FWS.in</text>
      <circle style="stroke:gray; stroke-width:1; fill:none; " transform="" cy="-12.6285590469" cx="900.137365929" r="5" id="A.FWS.outpoint" d="M 905.13739,-12.628559 C 905.13739,-9.8671354 902.89881,-7.6285591 900.13739,-7.6285591 897.37597,-7.6285591 895.13739,-9.8671354 895.13739,-12.628559 895.13739,-15.389983 897.37597,-17.628559 900.13739,-17.628559 902.89881,-17.628559 905.13739,-15.389983 905.13739,-12.628559 z" />
      <text style="font-size:25; vertical-align:top; fill-opacity:1.0; fill:gray; text-anchor:right; stroke:none; font-weight:normal; font-style:italic; text-align:right; " transform="" id="A.FWS.outpoint.text" y="-19.6285590469" x="907.137365929">
FWS.out</text>
      <circle style="stroke:red; stroke-width:1; fill:red; " transform="" cy="-16.6125217991" cx="960.801275056" r="5" id="A.FWS" d="M 965.80127,-16.612522 C 965.80127,-13.851098 963.56269,-11.612522 960.80127,-11.612522 958.03985,-11.612522 955.80127,-13.851098 955.80127,-16.612522 955.80127,-19.373946 958.03985,-21.612522 960.80127,-21.612522 963.56269,-21.612522 965.80127,-19.373946 965.80127,-16.612522 z" />
      <text style="font-size:30; vertical-align:top; fill-opacity:1.0; fill:darkblue; text-anchor:right; stroke:none; font-weight:normal; font-style:italic; text-align:right; " transform="" id="A.FWS.text" y="-23.6125217991" x="967.801275056">
FWS</text>
      <circle style="stroke:red; stroke-width:1; fill:red; " transform="" cy="566.929133858" cx="540.0" r="5" id="A.FD1" d="M 545,566.92914 C 545,569.69056 542.76142,571.92914 540,571.92914 537.23858,571.92914 535,569.69056 535,566.92914 535,564.16771 537.23858,561.92914 540,561.92914 542.76142,561.92914 545,564.16771 545,566.92914 z" />
      <text style="font-size:30; vertical-align:top; fill-opacity:1.0; fill:darkblue; text-anchor:right; stroke:none; font-weight:normal; font-style:italic; text-align:right; " transform="" id="A.FD1.text" y="559.929133858" x="547.0">
FD1</text>
      <circle style="stroke:gray; stroke-width:1; fill:none; " transform="" cy="-2.76478305195" cx="656.628024849" r="5" id="A.FD1.o.inpoint" d="M 661.62805,-2.7647831 C 661.62805,-0.00335939 659.38948,2.2352169 656.62805,2.2352169 653.86663,2.2352169 651.62805,-0.00335939 651.62805,-2.7647831 651.62805,-5.5262069 653.86663,-7.7647831 656.62805,-7.7647831 659.38948,-7.7647831 661.62805,-5.5262069 661.62805,-2.7647831 z" />
      <text style="font-size:25; vertical-align:top; fill-opacity:1.0; fill:gray; text-anchor:right; stroke:none; font-weight:normal; font-style:italic; text-align:right; " transform="" id="A.FD1.o.inpoint.text" y="-9.76478305195" x="663.628024849">
FD1.o.in</text>
      <circle style="stroke:red; stroke-width:1; fill:red; " transform="" cy="-8.66428057873" cx="596.120357908" r="5" id="A.FD1.o" d="M 601.12036,-8.6642809 C 601.12036,-5.9028571 598.88179,-3.6642809 596.12036,-3.6642809 593.35894,-3.6642809 591.12036,-5.9028571 591.12036,-8.6642809 591.12036,-11.425705 593.35894,-13.664281 596.12036,-13.664281 598.88179,-13.664281 601.12036,-11.425705 601.12036,-8.6642809 z" />
      <text style="font-size:30; vertical-align:top; fill-opacity:1.0; fill:darkblue; text-anchor:right; stroke:none; font-weight:normal; font-style:italic; text-align:right; " transform="" id="A.FD1.o.text" y="-15.6642805787" x="603.120357908">
FD1.o</text>
      <circle style="stroke:gray; stroke-width:1; fill:none; " transform="" cy="-0.837091580775" cx="403.600780575" r="5" id="A.FD1.i.outpoint" d="M 408.60077,-0.83709157 C 408.60077,1.9243322 406.36219,4.1629084 403.60077,4.1629084 400.83935,4.1629084 398.60077,1.9243322 398.60077,-0.83709157 398.60077,-3.5985153 400.83935,-5.8370916 403.60077,-5.8370916 406.36219,-5.8370916 408.60077,-3.5985153 408.60077,-0.83709157 z" />
      <text style="font-size:25; vertical-align:top; fill-opacity:1.0; fill:gray; text-anchor:right; stroke:none; font-weight:normal; font-style:italic; text-align:right; " transform="" id="A.FD1.i.outpoint.text" y="-7.83709158077" x="410.600780575">
FD1.i.out</text>
      <circle style="stroke:red; stroke-width:1; fill:red; " transform="" cy="-8.66428057873" cx="483.879642092" r="5" id="A.FD1.i" d="M 488.87964,-8.6642809 C 488.87964,-5.9028571 486.64106,-3.6642809 483.87964,-3.6642809 481.11821,-3.6642809 478.87964,-5.9028571 478.87964,-8.6642809 478.87964,-11.425705 481.11821,-13.664281 483.87964,-13.664281 486.64106,-13.664281 488.87964,-11.425705 488.87964,-8.6642809 z" />
      <text style="font-size:30; vertical-align:top; fill-opacity:1.0; fill:darkblue; text-anchor:right; stroke:none; font-weight:normal; font-style:italic; text-align:right; " transform="" id="A.FD1.i.text" y="-15.6642805787" x="490.879642092">
FD1.i</text>
      <circle style="stroke:red; stroke-width:1; fill:red; " transform="" cy="228.011811024" cx="0" r="5" id="A.FABC" d="M 5,228.01181 C 5,230.77323 2.7614237,233.01181 0,233.01181 -2.7614237,233.01181 -5,230.77323 -5,228.01181 -5,225.25039 -2.7614237,223.01181 0,223.01181 2.7614237,223.01181 5,225.25039 5,228.01181 z" />
      <text style="font-size:30; vertical-align:top; fill-opacity:1.0; fill:darkblue; text-anchor:right; stroke:none; font-weight:normal; font-style:italic; text-align:right; " transform="" id="A.FABC.text" y="221.011811024" x="7">
FABC</text>
      <circle style="stroke:red; stroke-width:1; fill:red; " transform="" cy="219.261159963" cx="506.102372545" r="5" id="A.FABC1" d="M 511.10239,219.26115 C 511.10239,222.02258 508.86381,224.26115 506.10239,224.26115 503.34096,224.26115 501.10239,222.02258 501.10239,219.26115 501.10239,216.49973 503.34096,214.26115 506.10239,214.26115 508.86381,214.26115 511.10239,216.49973 511.10239,219.26115 z" />
      <text style="font-size:30; vertical-align:top; fill-opacity:1.0; fill:darkblue; text-anchor:right; stroke:none; font-weight:normal; font-style:italic; text-align:right; " transform="" id="A.FABC1.text" y="212.261159963" x="513.102372545">
FABC1</text>
      <circle style="stroke:red; stroke-width:1; fill:red; " transform="" cy="219.261159963" cx="573.897627455" r="5" id="A.FABS1" d="M 578.89764,219.26115 C 578.89764,222.02258 576.65907,224.26115 573.89764,224.26115 571.13622,224.26115 568.89764,222.02258 568.89764,219.26115 568.89764,216.49973 571.13622,214.26115 573.89764,214.26115 576.65907,214.26115 578.89764,216.49973 578.89764,219.26115 z" />
      <text style="font-size:30; vertical-align:top; fill-opacity:1.0; fill:darkblue; text-anchor:right; stroke:none; font-weight:normal; font-style:italic; text-align:right; " transform="" id="A.FABS1.text" y="212.261159963" x="580.897627455">
FABS1</text>
      <circle style="stroke:red; stroke-width:1; fill:red; " transform="" cy="212.391630128" cx="971.203533447" r="5" id="A.FABS2" d="M 976.20355,212.39163 C 976.20355,215.15306 973.96498,217.39163 971.20355,217.39163 968.44213,217.39163 966.20355,215.15306 966.20355,212.39163 966.20355,209.63021 968.44213,207.39163 971.20355,207.39163 973.96498,207.39163 976.20355,209.63021 976.20355,212.39163 z" />
      <text style="font-size:30; vertical-align:top; fill-opacity:1.0; fill:darkblue; text-anchor:right; stroke:none; font-weight:normal; font-style:italic; text-align:right; " transform="" id="A.FABS2.text" y="205.391630128" x="978.203533447">
FABS2</text>
      <circle style="stroke:red; stroke-width:1; fill:red; " transform="" cy="212.793152944" cx="947.981072817" r="5" id="A.FABS3" d="M 952.98108,212.79315 C 952.98108,215.55458 950.7425,217.79315 947.98108,217.79315 945.21966,217.79315 942.98108,215.55458 942.98108,212.79315 942.98108,210.03173 945.21966,207.79315 947.98108,207.79315 950.7425,207.79315 952.98108,210.03173 952.98108,212.79315 z" />
      <text style="font-size:30; vertical-align:top; fill-opacity:1.0; fill:darkblue; text-anchor:right; stroke:none; font-weight:normal; font-style:italic; text-align:right; " transform="" id="A.FABS3.text" y="205.793152944" x="954.981072817">
FABS3</text>
      <circle style="stroke:gray; stroke-width:1; fill:none; " transform="" cy="292.458758925" cx="966.729028686" r="5" id="A.FABS.inpoint" d="M 971.729,292.45877 C 971.729,295.22019 969.49043,297.45877 966.729,297.45877 963.96758,297.45877 961.729,295.22019 961.729,292.45877 961.729,289.69735 963.96758,287.45877 966.729,287.45877 969.49043,287.45877 971.729,289.69735 971.729,292.45877 z" />
      <text style="font-size:25; vertical-align:top; fill-opacity:1.0; fill:gray; text-anchor:right; stroke:none; font-weight:normal; font-style:italic; text-align:right; " transform="" id="A.FABS.inpoint.text" y="285.458758925" x="973.729028686">
FABS.in</text>
      <circle style="stroke:gray; stroke-width:1; fill:none; " transform="" cy="174.24443755" cx="973.335367039" r="5" id="A.FABS.outpoint" d="M 978.33539,174.24443 C 978.33539,177.00585 976.09681,179.24443 973.33539,179.24443 970.57396,179.24443 968.33539,177.00585 968.33539,174.24443 968.33539,171.48301 970.57396,169.24443 973.33539,169.24443 976.09681,169.24443 978.33539,171.48301 978.33539,174.24443 z" />
      <text style="font-size:25; vertical-align:top; fill-opacity:1.0; fill:gray; text-anchor:right; stroke:none; font-weight:normal; font-style:italic; text-align:right; " transform="" id="A.FABS.outpoint.text" y="167.24443755" x="980.335367039">
FABS.out</text>
      <circle style="stroke:red; stroke-width:1; fill:red; " transform="" cy="212.391630128" cx="971.203533447" r="5" id="A.FABS" d="M 976.20355,212.39163 C 976.20355,215.15306 973.96498,217.39163 971.20355,217.39163 968.44213,217.39163 966.20355,215.15306 966.20355,212.39163 966.20355,209.63021 968.44213,207.39163 971.20355,207.39163 973.96498,207.39163 976.20355,209.63021 976.20355,212.39163 z" />
      <text style="font-size:30; vertical-align:top; fill-opacity:1.0; fill:darkblue; text-anchor:right; stroke:none; font-weight:normal; font-style:italic; text-align:right; " transform="" id="A.FABS.text" y="205.391630128" x="978.203533447">
FABS</text>
      <path style="stroke-linejoin:miter; stroke-dashoffset:0; stroke:gray; stroke-miterlimit:4; stroke-dasharray:6,6; stroke-width:2; fill:none; " transform="" d="M 0  0 L 0  2427.16535433 L 921.25984252  2427.16535433 L 921.25984252  -17.7165354331 M 921.25984252  690.94488189 L 960.801275056  -16.6125217991 L 0  0 M 0  690.94488189 L 921.25984252  690.94488189 M 0  228.011811024 L 506.102372545  219.261159963 L 573.897627455  219.261159963 L 971.203533447  212.391630128 " id="A.gridline" />
    </g>
    <g id="document.bodice.Back.reference" transform=" translate(1326.405284, 564.424027)">
      <circle style="stroke:red; stroke-width:1; fill:red; " transform="" cy="-17.7165354331" cx="921.25984252" r="5" id="B.BWS1" d="M 926.25983,-17.716536 C 926.25983,-14.955112 924.02125,-12.716536 921.25983,-12.716536 918.4984,-12.716536 916.25983,-14.955112 916.25983,-17.716536 916.25983,-20.477959 918.4984,-22.716536 921.25983,-22.716536 924.02125,-22.716536 926.25983,-20.477959 926.25983,-17.716536 z" />
      <text style="font-size:30; vertical-align:top; fill-opacity:1.0; fill:darkblue; text-anchor:right; stroke:none; font-weight:normal; font-style:italic; text-align:right; " transform="" id="B.BWS1.text" y="-24.7165354331" x="928.25984252">
BWS1</text>
      <circle style="stroke:gray; stroke-width:1; fill:none; " transform="" cy="1265.42958019" cx="851.206282325" r="5" id="B.BHS.inpoint" d="M 856.2063,1265.4296 C 856.2063,1268.191 853.96772,1270.4296 851.2063,1270.4296 848.44488,1270.4296 846.2063,1268.191 846.2063,1265.4296 846.2063,1262.6681 848.44488,1260.4296 851.2063,1260.4296 853.96772,1260.4296 856.2063,1262.6681 856.2063,1265.4296 z" />
      <text style="font-size:25; vertical-align:top; fill-opacity:1.0; fill:gray; text-anchor:right; stroke:none; font-weight:normal; font-style:italic; text-align:right; " transform="" id="B.BHS.inpoint.text" y="1258.42958019" x="858.206282325">
BHS.in</text>
      <circle style="stroke:gray; stroke-width:1; fill:none; " transform="" cy="551.989952698" cx="938.204223328" r="5" id="B.BHS.outpoint" d="M 943.20422,551.98993 C 943.20422,554.75135 940.96565,556.98993 938.20422,556.98993 935.4428,556.98993 933.20422,554.75135 933.20422,551.98993 933.20422,549.22851 935.4428,546.98993 938.20422,546.98993 940.96565,546.98993 943.20422,549.22851 943.20422,551.98993 z" />
      <text style="font-size:25; vertical-align:top; fill-opacity:1.0; fill:gray; text-anchor:right; stroke:none; font-weight:normal; font-style:italic; text-align:right; " transform="" id="B.BHS.outpoint.text" y="544.989952698" x="945.204223328">
BHS.out</text>
      <circle style="stroke:red; stroke-width:1; fill:red; " transform="" cy="690.94488189" cx="921.25984252" r="5" id="B.BHS" d="M 926.25983,690.94489 C 926.25983,693.70631 924.02125,695.94489 921.25983,695.94489 918.4984,695.94489 916.25983,693.70631 916.25983,690.94489 916.25983,688.18346 918.4984,685.94489 921.25983,685.94489 924.02125,685.94489 926.25983,688.18346 926.25983,690.94489 z" />
      <text style="font-size:30; vertical-align:top; fill-opacity:1.0; fill:darkblue; text-anchor:right; stroke:none; font-weight:normal; font-style:italic; text-align:right; " transform="" id="B.BHS.text" y="683.94488189" x="928.25984252">
BHS</text>
      <circle style="stroke:gray; stroke-width:1; fill:none; " transform="" cy="2427.16535433" cx="861.966849063" r="5" id="B.BHEMS1.outpoint" d="M 866.96686,2427.1653 C 866.96686,2429.9267 864.72828,2432.1653 861.96686,2432.1653 859.20543,2432.1653 856.96686,2429.9267 856.96686,2427.1653 856.96686,2424.4039 859.20543,2422.1653 861.96686,2422.1653 864.72828,2422.1653 866.96686,2424.4039 866.96686,2427.1653 z" />
      <text style="font-size:25; vertical-align:top; fill-opacity:1.0; fill:gray; text-anchor:right; stroke:none; font-weight:normal; font-style:italic; text-align:right; " transform="" id="B.BHEMS1.outpoint.text" y="2420.16535433" x="868.966849063">
BHEMS1.out</text>
      <circle style="stroke:red; stroke-width:1; fill:red; " transform="" cy="2427.16535433" cx="921.25984252" r="5" id="B.BHEMS1" d="M 926.25983,2427.1653 C 926.25983,2429.9267 924.02125,2432.1653 921.25983,2432.1653 918.4984,2432.1653 916.25983,2429.9267 916.25983,2427.1653 916.25983,2424.4039 918.4984,2422.1653 921.25983,2422.1653 924.02125,2422.1653 926.25983,2424.4039 926.25983,2427.1653 z" />
      <text style="font-size:30; vertical-align:top; fill-opacity:1.0; fill:darkblue; text-anchor:right; stroke:none; font-weight:normal; font-style:italic; text-align:right; " transform="" id="B.BHEMS1.text" y="2420.16535433" x="928.25984252">
BHEMS1</text>
      <circle style="stroke:red; stroke-width:1; fill:red; " transform="" cy="2427.16535433" cx="742.677165354" r="5" id="B.BHEMS2" d="M 747.67719,2427.1653 C 747.67719,2429.9267 745.43861,2432.1653 742.67719,2432.1653 739.91576,2432.1653 737.67719,2429.9267 737.67719,2427.1653 737.67719,2424.4039 739.91576,2422.1653 742.67719,2422.1653 745.43861,2422.1653 747.67719,2424.4039 747.67719,2427.1653 z" />
      <text style="font-size:30; vertical-align:top; fill-opacity:1.0; fill:darkblue; text-anchor:right; stroke:none; font-weight:normal; font-style:italic; text-align:right; " transform="" id="B.BHEMS2.text" y="2420.16535433" x="749.677165354">
BHEMS2</text>
      <circle style="stroke:gray; stroke-width:1; fill:none; " transform="" cy="2424.12004072" cx="802.596213696" r="5" id="B.BHEMS.inpoint" d="M 807.59619,2424.1201 C 807.59619,2426.8815 805.35762,2429.1201 802.59619,2429.1201 799.83477,2429.1201 797.59619,2426.8815 797.59619,2424.1201 797.59619,2421.3587 799.83477,2419.1201 802.59619,2419.1201 805.35762,2419.1201 807.59619,2421.3587 807.59619,2424.1201 z" />
      <text style="font-size:25; vertical-align:top; fill-opacity:1.0; fill:gray; text-anchor:right; stroke:none; font-weight:normal; font-style:italic; text-align:right; " transform="" id="B.BHEMS.inpoint.text" y="2417.12004072" x="809.596213696">
BHEMS.in</text>
      <circle style="stroke:gray; stroke-width:1; fill:none; " transform="" cy="1842.35052063" cx="802.829548249" r="5" id="B.BHEMS.outpoint" d="M 807.82953,1842.3505 C 807.82953,1845.1119 805.59095,1847.3505 802.82953,1847.3505 800.06811,1847.3505 797.82953,1845.1119 797.82953,1842.3505 797.82953,1839.589 800.06811,1837.3505 802.82953,1837.3505 805.59095,1837.3505 807.82953,1839.589 807.82953,1842.3505 z" />
      <text style="font-size:25; vertical-align:top; fill-opacity:1.0; fill:gray; text-anchor:right; stroke:none; font-weight:normal; font-style:italic; text-align:right; " transform="" id="B.BHEMS.outpoint.text" y="1835.35052063" x="809.829548249">
BHEMS.out</text>
      <circle style="stroke:red; stroke-width:1; fill:red; " transform="" cy="2418.05334" cx="743.614401114" r="5" id="B.BHEMS" d="M 748.61438,2418.0532 C 748.61438,2420.8146 746.3758,2423.0532 743.61438,2423.0532 740.85296,2423.0532 738.61438,2420.8146 738.61438,2418.0532 738.61438,2415.2918 740.85296,2413.0532 743.61438,2413.0532 746.3758,2413.0532 748.61438,2415.2918 748.61438,2418.0532 z" />
      <text style="font-size:30; vertical-align:top; fill-opacity:1.0; fill:darkblue; text-anchor:right; stroke:none; font-weight:normal; font-style:italic; text-align:right; " transform="" id="B.BHEMS.text" y="2411.05334" x="750.614401114">
BHEMS</text>
      <circle style="stroke:red; stroke-width:1; fill:red; " transform="" cy="2427.16535433" cx="1984.2519685" r="5" id="B.BHEMC" d="M 1989.252,2427.1653 C 1989.252,2429.9267 1987.0134,2432.1653 1984.252,2432.1653 1981.4905,2432.1653 1979.252,2429.9267 1979.252,2427.1653 1979.252,2424.4039 1981.4905,2422.1653 1984.252,2422.1653 1987.0134,2422.1653 1989.252,2424.4039 1989.252,2427.1653 z" />
      <text style="font-size:30; vertical-align:top; fill-opacity:1.0; fill:darkblue; text-anchor:right; stroke:none; font-weight:normal; font-style:italic; text-align:right; " transform="" id="B.BHEMC.text" y="2420.16535433" x="1991.2519685">
BHEMC</text>
      <circle style="stroke:red; stroke-width:1; fill:red; " transform="" cy="690.94488189" cx="1984.2519685" r="5" id="B.BHC" d="M 1989.252,690.94489 C 1989.252,693.70631 1987.0134,695.94489 1984.252,695.94489 1981.4905,695.94489 1979.252,693.70631 1979.252,690.94489 1979.252,688.18346 1981.4905,685.94489 1984.252,685.94489 1987.0134,685.94489 1989.252,688.18346 1989.252,690.94489 z" />
      <text style="font-size:30; vertical-align:top; fill-opacity:1.0; fill:darkblue; text-anchor:right; stroke:none; font-weight:normal; font-style:italic; text-align:right; " transform="" id="B.BHC.text" y="683.94488189" x="1991.2519685">
BHC</text>
      <circle style="stroke:gray; stroke-width:1; fill:none; " transform="" cy="-106.299212598" cx="1916.92913386" r="5" id="B.BWC.inpoint" d="M 1921.9291,-106.29921 C 1921.9291,-103.53779 1919.6905,-101.29921 1916.9291,-101.29921 1914.1677,-101.29921 1911.9291,-103.53779 1911.9291,-106.29921 1911.9291,-109.06063 1914.1677,-111.29921 1916.9291,-111.29921 1919.6905,-111.29921 1921.9291,-109.06063 1921.9291,-106.29921 z" />
      <text style="font-size:25; vertical-align:top; fill-opacity:1.0; fill:gray; text-anchor:right; stroke:none; font-weight:normal; font-style:italic; text-align:right; " transform="" id="B.BWC.inpoint.text" y="-113.299212598" x="1923.92913386">
BWC.in</text>
      <circle style="stroke:red; stroke-width:1; fill:red; " transform="" cy="-106.299212598" cx="1984.2519685" r="5" id="B.BWC" d="M 1989.252,-106.29921 C 1989.252,-103.53779 1987.0134,-101.29921 1984.252,-101.29921 1981.4905,-101.29921 1979.252,-103.53779 1979.252,-106.29921 1979.252,-109.06063 1981.4905,-111.29921 1984.252,-111.29921 1987.0134,-111.29921 1989.252,-109.06063 1989.252,-106.29921 z" />
      <text style="font-size:30; vertical-align:top; fill-opacity:1.0; fill:darkblue; text-anchor:right; stroke:none; font-weight:normal; font-style:italic; text-align:right; " transform="" id="B.BWC.text" y="-113.299212598" x="1991.2519685">
BWC</text>
      <circle style="stroke:red; stroke-width:1; fill:red; " transform="" cy="644.765615091" cx="1451.78899687" r="5" id="B.BD1" d="M 1456.7889,644.76562 C 1456.7889,647.52705 1454.5504,649.76562 1451.7889,649.76562 1449.0275,649.76562 1446.7889,647.52705 1446.7889,644.76562 1446.7889,642.0042 1449.0275,639.76562 1451.7889,639.76562 1454.5504,639.76562 1456.7889,642.0042 1456.7889,644.76562 z" />
      <text style="font-size:30; vertical-align:top; fill-opacity:1.0; fill:darkblue; text-anchor:right; stroke:none; font-weight:normal; font-style:italic; text-align:right; " transform="" id="B.BD1.text" y="637.765615091" x="1458.78899687">
BD1</text>
      <circle style="stroke:gray; stroke-width:1; fill:none; " transform="" cy="-60.758978697" cx="1647.9558743" r="5" id="B.BD1.i.outpoint" d="M 1652.9559,-60.75898 C 1652.9559,-57.997556 1650.7174,-55.75898 1647.9559,-55.75898 1645.1945,-55.75898 1642.9559,-57.997556 1642.9559,-60.75898 1642.9559,-63.520404 1645.1945,-65.75898 1647.9559,-65.75898 1650.7174,-65.75898 1652.9559,-63.520404 1652.9559,-60.75898 z" />
      <text style="font-size:25; vertical-align:top; fill-opacity:1.0; fill:gray; text-anchor:right; stroke:none; font-weight:normal; font-style:italic; text-align:right; " transform="" id="B.BD1.i.outpoint.text" y="-67.758978697" x="1654.9558743">
BD1.i.out</text>
      <circle style="stroke:red; stroke-width:1; fill:red; " transform="" cy="-72.7540699488" cx="1581.71025671" r="5" id="B.BD1.i" d="M 1586.7102,-72.754066 C 1586.7102,-69.992643 1584.4716,-67.754066 1581.7102,-67.754066 1578.9488,-67.754066 1576.7102,-69.992643 1576.7102,-72.754066 1576.7102,-75.51549 1578.9488,-77.754066 1581.7102,-77.754066 1584.4716,-77.754066 1586.7102,-75.51549 1586.7102,-72.754066 z" />
      <text style="font-size:30; vertical-align:top; fill-opacity:1.0; fill:darkblue; text-anchor:right; stroke:none; font-weight:normal; font-style:italic; text-align:right; " transform="" id="B.BD1.i.text" y="-79.7540699488" x="1588.71025671">
BD1.i</text>
      <circle style="stroke:gray; stroke-width:1; fill:none; " transform="" cy="-64.7573424476" cx="1277.70399196" r="5" id="B.BD1.o.inpoint" d="M 1282.704,-64.757339 C 1282.704,-61.995916 1280.4654,-59.757339 1277.704,-59.757339 1274.9426,-59.757339 1272.704,-61.995916 1272.704,-64.757339 1272.704,-67.518763 1274.9426,-69.757339 1277.704,-69.757339 1280.4654,-69.757339 1282.704,-67.518763 1282.704,-64.757339 z" />
      <text style="font-size:25; vertical-align:top; fill-opacity:1.0; fill:gray; text-anchor:right; stroke:none; font-weight:normal; font-style:italic; text-align:right; " transform="" id="B.BD1.o.inpoint.text" y="-71.7573424476" x="1284.70399196">
BD1.o.in</text>
      <circle style="stroke:red; stroke-width:1; fill:red; " transform="" cy="-72.7540699488" cx="1321.86773702" r="5" id="B.BD1.o" d="M 1326.8678,-72.754066 C 1326.8678,-69.992643 1324.6292,-67.754066 1321.8678,-67.754066 1319.1064,-67.754066 1316.8678,-69.992643 1316.8678,-72.754066 1316.8678,-75.51549 1319.1064,-77.754066 1321.8678,-77.754066 1324.6292,-77.754066 1326.8678,-75.51549 1326.8678,-72.754066 z" />
      <text style="font-size:30; vertical-align:top; fill-opacity:1.0; fill:darkblue; text-anchor:right; stroke:none; font-weight:normal; font-style:italic; text-align:right; " transform="" id="B.BD1.o.text" y="-79.7540699488" x="1328.86773702">
BD1.o</text>
      <circle style="stroke:gray; stroke-width:1; fill:none; " transform="" cy="90.6462325219" cx="1042.52865654" r="5" id="B.BWS.inpoint" d="M 1047.5287,90.646233 C 1047.5287,93.407656 1045.2901,95.646233 1042.5287,95.646233 1039.7673,95.646233 1037.5287,93.407656 1037.5287,90.646233 1037.5287,87.884809 1039.7673,85.646233 1042.5287,85.646233 1045.2901,85.646233 1047.5287,87.884809 1047.5287,90.646233 z" />
      <text style="font-size:25; vertical-align:top; fill-opacity:1.0; fill:gray; text-anchor:right; stroke:none; font-weight:normal; font-style:italic; text-align:right; " transform="" id="B.BWS.inpoint.text" y="83.6462325219" x="1049.52865654">
BWS.in</text>
      <circle style="stroke:gray; stroke-width:1; fill:none; " transform="" cy="5.20279289849" cx="1105.57798003" r="5" id="B.BWS.outpoint" d="M 1110.578,5.2027931 C 1110.578,7.9642169 1108.3394,10.202793 1105.578,10.202793 1102.8166,10.202793 1100.578,7.9642169 1100.578,5.2027931 1100.578,2.4413694 1102.8166,0.20279312 1105.578,0.20279312 1108.3394,0.20279312 1110.578,2.4413694 1110.578,5.2027931 z" />
      <text style="font-size:25; vertical-align:top; fill-opacity:1.0; fill:gray; text-anchor:right; stroke:none; font-weight:normal; font-style:italic; text-align:right; " transform="" id="B.BWS.outpoint.text" y="-1.79720710151" x="1112.57798003">
BWS.out</text>
      <circle style="stroke:red; stroke-width:1; fill:red; " transform="" cy="-3.68445369799" cx="1061.58478878" r="5" id="B.BWS" d="M 1066.5848,-3.6844537 C 1066.5848,-0.92302998 1064.3463,1.3155463 1061.5848,1.3155463 1058.8234,1.3155463 1056.5848,-0.92302998 1056.5848,-3.6844537 1056.5848,-6.4458775 1058.8234,-8.6844537 1061.5848,-8.6844537 1064.3463,-8.6844537 1066.5848,-6.4458775 1066.5848,-3.6844537 z" />
      <text style="font-size:30; vertical-align:top; fill-opacity:1.0; fill:darkblue; text-anchor:right; stroke:none; font-weight:normal; font-style:italic; text-align:right; " transform="" id="B.BWS.text" y="-10.684453698" x="1068.58478878">
BWS</text>
      <circle style="stroke:red; stroke-width:1; fill:red; " transform="" cy="132.874015748" cx="1984.2519685" r="5" id="B.BABC" d="M 1989.252,132.87401 C 1989.252,135.63543 1987.0134,137.87401 1984.252,137.87401 1981.4905,137.87401 1979.252,135.63543 1979.252,132.87401 1979.252,130.11258 1981.4905,127.87401 1984.252,127.87401 1987.0134,127.87401 1989.252,130.11258 1989.252,132.87401 z" />
      <text style="font-size:30; vertical-align:top; fill-opacity:1.0; fill:darkblue; text-anchor:right; stroke:none; font-weight:normal; font-style:italic; text-align:right; " transform="" id="B.BABC.text" y="125.874015748" x="1991.2519685">
BABC</text>
      <circle style="stroke:red; stroke-width:1; fill:red; " transform="" cy="182.7888985" cx="1535.43910193" r="5" id="B.BABC1" d="M 1540.4391,182.78889 C 1540.4391,185.55032 1538.2005,187.78889 1535.4391,187.78889 1532.6777,187.78889 1530.4391,185.55032 1530.4391,182.78889 1530.4391,180.02747 1532.6777,177.78889 1535.4391,177.78889 1538.2005,177.78889 1540.4391,180.02747 1540.4391,182.78889 z" />
      <text style="font-size:30; vertical-align:top; fill-opacity:1.0; fill:darkblue; text-anchor:right; stroke:none; font-weight:normal; font-style:italic; text-align:right; " transform="" id="B.BABC1.text" y="175.7888985" x="1542.43910193">
BABC1</text>
      <circle style="stroke:red; stroke-width:1; fill:red; " transform="" cy="182.7888985" cx="1368.1388918" r="5" id="B.BABS1" d="M 1373.1389,182.78889 C 1373.1389,185.55032 1370.9003,187.78889 1368.1389,187.78889 1365.3775,187.78889 1363.1389,185.55032 1363.1389,182.78889 1363.1389,180.02747 1365.3775,177.78889 1368.1389,177.78889 1370.9003,177.78889 1373.1389,180.02747 1373.1389,182.78889 z" />
      <text style="font-size:30; vertical-align:top; fill-opacity:1.0; fill:darkblue; text-anchor:right; stroke:none; font-weight:normal; font-style:italic; text-align:right; " transform="" id="B.BABS1.text" y="175.7888985" x="1375.1388918">
BABS1</text>
      <circle style="stroke:red; stroke-width:1; fill:red; " transform="" cy="275.991159244" cx="1016.91413443" r="5" id="B.BABS2" d="M 1021.9141,275.99115 C 1021.9141,278.75257 1019.6755,280.99115 1016.9141,280.99115 1014.1527,280.99115 1011.9141,278.75257 1011.9141,275.99115 1011.9141,273.22973 1014.1527,270.99115 1016.9141,270.99115 1019.6755,270.99115 1021.9141,273.22973 1021.9141,275.99115 z" />
      <text style="font-size:30; vertical-align:top; fill-opacity:1.0; fill:darkblue; text-anchor:right; stroke:none; font-weight:normal; font-style:italic; text-align:right; " transform="" id="B.BABS2.text" y="268.991159244" x="1023.91413443">
BABS2</text>
      <circle style="stroke:red; stroke-width:1; fill:red; " transform="" cy="279.307604962" cx="1004.41639207" r="5" id="B.BABS3" d="M 1009.4164,279.30762 C 1009.4164,282.06904 1007.1778,284.30762 1004.4164,284.30762 1001.655,284.30762 999.41638,282.06904 999.41638,279.30762 999.41638,276.54619 1001.655,274.30762 1004.4164,274.30762 1007.1778,274.30762 1009.4164,276.54619 1009.4164,279.30762 z" />
      <text style="font-size:30; vertical-align:top; fill-opacity:1.0; fill:darkblue; text-anchor:right; stroke:none; font-weight:normal; font-style:italic; text-align:right; " transform="" id="B.BABS3.text" y="272.307604962" x="1011.41639207">
BABS3</text>
      <circle style="stroke:gray; stroke-width:1; fill:none; " transform="" cy="416.520030604" cx="976.69754222" r="5" id="B.BABS.inpoint" d="M 981.69757,416.52002 C 981.69757,419.28144 979.45899,421.52002 976.69757,421.52002 973.93615,421.52002 971.69757,419.28144 971.69757,416.52002 971.69757,413.7586 973.93615,411.52002 976.69757,411.52002 979.45899,411.52002 981.69757,413.7586 981.69757,416.52002 z" />
      <text style="font-size:25; vertical-align:top; fill-opacity:1.0; fill:gray; text-anchor:right; stroke:none; font-weight:normal; font-style:italic; text-align:right; " transform="" id="B.BABS.inpoint.text" y="409.520030604" x="983.69754222">
BABS.in</text>
      <circle style="stroke:gray; stroke-width:1; fill:none; " transform="" cy="184.976918742" cx="1023.47252431" r="5" id="B.BABS.outpoint" d="M 1028.4725,184.97691 C 1028.4725,187.73834 1026.234,189.97691 1023.4725,189.97691 1020.7111,189.97691 1018.4725,187.73834 1018.4725,184.97691 1018.4725,182.21549 1020.7111,179.97691 1023.4725,179.97691 1026.234,179.97691 1028.4725,182.21549 1028.4725,184.97691 z" />
      <text style="font-size:25; vertical-align:top; fill-opacity:1.0; fill:gray; text-anchor:right; stroke:none; font-weight:normal; font-style:italic; text-align:right; " transform="" id="B.BABS.outpoint.text" y="177.976918742" x="1030.47252431">
BABS.out</text>
      <circle style="stroke:red; stroke-width:1; fill:red; " transform="" cy="279.307604962" cx="1004.41639207" r="5" id="B.BABS" d="M 1009.4164,279.30762 C 1009.4164,282.06904 1007.1778,284.30762 1004.4164,284.30762 1001.655,284.30762 999.41638,282.06904 999.41638,279.30762 999.41638,276.54619 1001.655,274.30762 1004.4164,274.30762 1007.1778,274.30762 1009.4164,276.54619 1009.4164,279.30762 z" />
      <text style="font-size:30; vertical-align:top; fill-opacity:1.0; fill:darkblue; text-anchor:right; stroke:none; font-weight:normal; font-style:italic; text-align:right; " transform="" id="B.BABS.text" y="272.307604962" x="1011.41639207">
BABS</text>
      <path style="stroke-linejoin:miter; stroke-dashoffset:0; stroke:gray; stroke-miterlimit:4; stroke-dasharray:6,6; stroke-width:2; fill:none; " transform="" d="M 1984.2519685  -106.299212598 L 1984.2519685  2427.16535433 L 921.25984252  2427.16535433 L 921.25984252  -17.7165354331 M 921.25984252  690.94488189 L 1061.58478878  -3.68445369799 L 1984.2519685  -106.299212598 M 1984.2519685  690.94488189 L 921.25984252  690.94488189 M 1984.2519685  132.874015748 L 1535.43910193  182.7888985 L 1368.1388918  182.7888985 L 1004.41639207  279.307604962 " id="B.gridline" />
    </g>
  </g>
</svg>
