<?xml version="1.0" encoding="UTF-8" standalone="no"?>
<svg
   xmlns:dc="http://purl.org/dc/elements/1.1/"
   xmlns:cc="http://creativecommons.org/ns#"
   xmlns:rdf="http://www.w3.org/1999/02/22-rdf-syntax-ns#"
   xmlns:svg="http://www.w3.org/2000/svg"
   xmlns="http://www.w3.org/2000/svg"
   xmlns:sodipodi="http://sodipodi.sourceforge.net/DTD/sodipodi-0.dtd"
   xmlns:inkscape="http://www.inkscape.org/namespaces/inkscape"
   patternNumber="BL_W_Skirt_A-line_Pivnick_Spencer"
   fitBoxtoViewport="True"
   companyName="Seamly Patterns"
   currentscale="0.5:1"
   margin-right="88.5826771654"
   client-name="DressFormLg"
   designerName="Ester Pivnick"
   height="3237.05546066"
   width="3403.60089483"
   margin-top="88.5826771654"
   version="1.1"
   margin-bottom="88.5826771654"
   margin-left="88.5826771654"
   preserveAspectRatio="xMidYMid meet"
   id="svg2"
   inkscape:version="0.48.4 r9939"
   sodipodi:docname="Block_Skirt_Short_Aline_Pivnick_Spencer.svg">
  <metadata
     id="metadata130">
    <rdf:RDF>
      <cc:Work
         rdf:about="">
        <dc:format>image/svg+xml</dc:format>
        <dc:type
           rdf:resource="http://purl.org/dc/dcmitype/StillImage" />
        <dc:title></dc:title>
      </cc:Work>
    </rdf:RDF>
  </metadata>
  <sodipodi:namedview
     id="base"
     pagecolor="#ffffff"
     bordercolor="#666666"
     borderopacity="1.0"
     inkscape:pageopacity="0.0"
     inkscape:pageshadow="2"
     inkscape:zoom="0.28081076"
     inkscape:document-units="pt"
     showgrid="false"
     inkscape:window-maximized="1"
     inkscape:cx="1701.8004"
     inkscape:cy="1648.5043"
     inkscape:window-width="1855"
     inkscape:window-height="1056"
     inkscape:window-x="65"
     inkscape:window-y="24"
     inkscape:current-layer="pattern" />
  <defs
     id="defs5">
    <marker
       style="overflow:visible"
       id="Arrow1Mstart"
       refX="0.0"
       refY="0.0"
       orient="auto"
       inkscape:stockid="Arrow1Mstart">
      <path
         transform="scale(0.4) translate(10,0)"
         style="fill-rule:evenodd;stroke:#000000;stroke-width:1.0pt;marker-start:none"
         d="M 0.0,0.0 L 5.0,-5.0 L -12.5,0.0 L 5.0,5.0 L 0.0,0.0 z "
         id="path8" />
    </marker>
    <marker
       style="overflow:visible;"
       id="Arrow1Mend"
       refX="0.0"
       refY="0.0"
       orient="auto"
       inkscape:stockid="Arrow1Mend">
      <path
         transform="scale(0.4) rotate(180) translate(10,0)"
         style="fill-rule:evenodd;stroke:#000000;stroke-width:1.0pt;marker-start:none;"
         d="M 0.0,0.0 L 5.0,-5.0 L -12.5,0.0 L 5.0,5.0 L 0.0,0.0 z "
         id="path11" />
    </marker>
  </defs>
  <g
     inkscape:label="Label-pattern"
     id="pattern"
     inkscape:groupmode="layer"
     transform="translate(88.582677,88.582677)">
    <g
       id="document.bodice.Front.pattern"
       transform=" translate(58.750000, 521.997529)">
      <g
         id="A.letter"
         transform="matrix(10.000000, 0, 0, 10.000000, -2139.257821, -9720.000000)">
        <text
           style="font-size:24; vertical-align:top; fill-opacity:1.0; fill:#000000; text-anchor:start; stroke:none; font-weight:normal; font-style:normal; text-align:right; "
           transform=""
           id="A.letter.letterline"
           y="1080.0"
           x="237.69531342">
A</text>
      </g>
      <line
         style="stroke-linejoin:miter; stroke:green; stroke-width:4; stroke-miterlimit:4; fill:none; "
         y2="2079.92125984"
         marker-end="url(#Arrow1Mend)"
         marker-start="url(#Arrow1Mstart)"
         transform=""
         x2="618.374757615"
         y1="690.94488189"
         x1="618.374757615"
         id="A.grainline" />
      <path
         style="stroke-linejoin:miter; stroke-dashoffset:0; stroke:green; stroke-miterlimit:4; stroke-dasharray:6,6; stroke-width:3; fill:none; "
         transform=""
         d="M 556.617324497  -85.6775287253 L 618.374757615  514.394695909 L 680.132190734  -85.6775287253 "
         id="A.dartline" />
      <path
         style="stroke-linejoin:miter; stroke-dashoffset:0; stroke:green; stroke-dasharray:24,6; stroke-miterlimit:4; stroke-width:4; fill:none; "
         transform=""
         d="M 0  0 L 0  2427.16535433 L 921.25984252  2427.16535433 L 921.25984252  690.94488189 C 921.25984252  546.910583644  948.583412141  404.038132456  954.583591684  260.128866193 C 958.433571965  167.790323089  954.603020303  75.2383480483  950.781253678  -17.1013670836 L 674.37354523  -29.7230784827 L 618.374757615  -38.3186910202 L 562.375970001  -29.7230784827 L 0  0 "
         id="A.seamline" />
      <path
         style="fill:none;stroke:#008000;stroke-width:4;stroke-linejoin:miter;stroke-miterlimit:4"
         d="m 609.84375,-93.90625 c -26.37525,3.77532 -52.56909,9.313473 -79.30753,9.559434 -195.59545,10.333589 -391.19052,20.67422 -586.78622,31.003066 0,845.58333 0,1691.16665 0,2536.74995 344.58333,0 689.16667,1e-4 1033.75,0 0.061,-601.656 -0.12205,-1203.313 0.0915,-1804.9684 2.00534,-150.56115 31.74195,-299.2462 34.27275,-449.87307 2.3614,-99.8876 -3.1105,-199.717658 -6.9581,-299.50223 -108.97596,-5.095431 -218.00559,-9.676841 -326.94563,-15.146639 -20.19117,-2.890732 -40.38421,-6.590603 -60.57394,-8.982554 -2.51429,0.386814 -5.02859,0.773629 -7.54288,1.160443 z"
         id="A.cuttingline"
         inkscape:connector-curvature="0" />
      <g
         id="A.info"
         transform="">
        <text
           style="font-size:12; vertical-align:top; fill-opacity:1.0; fill:#000000; text-anchor:start; stroke:none; font-weight:normal; font-style:normal; text-align:right; "
           transform=""
           id="A.info.lineSeamly Patterns"
           y="1125.0"
           x="237.69531342">
Seamly Patterns</text>
        <text
           style="font-size:12; vertical-align:top; fill-opacity:1.0; fill:#000000; text-anchor:start; stroke:none; font-weight:normal; font-style:normal; text-align:right; "
           transform=""
           id="A.info.lineDesigner:Ester Pivnick"
           y="1139.4"
           x="237.69531342">
Designer:Ester Pivnick</text>
        <text
           style="font-size:12; vertical-align:top; fill-opacity:1.0; fill:#000000; text-anchor:start; stroke:none; font-weight:normal; font-style:normal; text-align:right; "
           transform=""
           id="A.info.lineClient:DressFormLg"
           y="1153.8"
           x="237.69531342">
Client:DressFormLg</text>
        <text
           style="font-size:12; vertical-align:top; fill-opacity:1.0; fill:#000000; text-anchor:start; stroke:none; font-weight:normal; font-style:normal; text-align:right; "
           transform=""
           id="A.info.lineBL_W_Skirt_A-line_Pivnick_Spencer"
           y="1168.2"
           x="237.69531342">
BL_W_Skirt_A-line_Pivnick_Spencer</text>
        <text
           style="font-size:12; vertical-align:top; fill-opacity:1.0; fill:#000000; text-anchor:start; stroke:none; font-weight:normal; font-style:normal; text-align:right; "
           transform=""
           id="A.info.linePattern Piece A"
           y="1182.6"
           x="237.69531342">
Pattern Piece A</text>
        <text
           style="font-size:12; vertical-align:top; fill-opacity:1.0; fill:#000000; text-anchor:start; stroke:none; font-weight:normal; font-style:normal; text-align:right; "
           transform=""
           id="A.info.lineCut 2 Fabric"
           y="1197.0"
           x="237.69531342">
Cut 2 Fabric</text>
      </g>
    </g>
    <g
       id="document.bodice.Back.pattern"
       transform=" translate(1185.933572, 576.474752)">
      <g
         id="B.letter"
         transform="matrix(10.000000, 0, 0, 10.000000, -10990.221903, -9720.000000)">
        <text
           style="font-size:24; vertical-align:top; fill-opacity:1.0; fill:#000000; text-anchor:start; stroke:none; font-weight:normal; font-style:normal; text-align:right; "
           transform=""
           id="B.letter.letterline"
           y="1080.0"
           x="1221.13576695">
B</text>
      </g>
      <line
         style="stroke-linejoin:miter; stroke:green; stroke-width:4; stroke-miterlimit:4; fill:none; "
         y2="2079.92125984"
         marker-end="url(#Arrow1Mend)"
         marker-start="url(#Arrow1Mstart)"
         transform=""
         x2="1507.19065294"
         y1="690.94488189"
         x1="1507.19065294"
         id="B.grainline" />
      <path
         style="stroke-linejoin:miter; stroke-dashoffset:0; stroke:green; stroke-miterlimit:4; stroke-dasharray:6,6; stroke-width:3; fill:none; "
         transform=""
         d="M 1623.08281092  -140.154752004 L 1507.19065294  642.117314355 L 1391.29849496  -140.154752004 "
         id="B.dartline" />
      <path
         style="stroke-linejoin:miter; stroke-dashoffset:0; stroke:green; stroke-dasharray:24,6; stroke-miterlimit:4; stroke-width:4; fill:none; "
         transform=""
         d="M 1984.2519685  -106.299212598 L 1984.2519685  2427.16535433 L 921.25984252  2427.16535433 L 921.25984252  690.94488189 C 921.25984252  562.50307465  932.784588317  433.740257967  953.381478898  306.960662032 C 970.800140623  199.743949564  1002.95107782  95.2719532022  1034.9005798  -8.54549490833 L 1399.54185714  -84.5120572468 L 1507.19065294  -78.163162957 L 1614.83944873  -84.5120572468 L 1984.2519685  -106.299212598 "
         id="B.seamline" />
      <path
         style="fill:none;stroke:#008000;stroke-width:4;stroke-linejoin:miter;stroke-miterlimit:4"
         d="m 1980.9375,-162.46875 c -158.2494,9.26395 -316.4984,18.84987 -474.7483,27.90985 -37.2577,-2.01841 -74.5675,-4.75748 -111.793,-6.32989 -134.483,28.04087 -268.9767,56.030367 -403.4587,84.07629 C 951.96326,69.446551 911.64078,196.11584 893.2602,327.38247 873.36192,457.96321 863.66424,589.83975 865,721.9375 c 0,587.1562 0,1174.3125 0,1761.4687 391.8333,0 783.6667,1e-4 1175.5,0 0,-883.125 0,-1766.24995 0,-2649.37495 -19.8542,1.16667 -39.7083,2.33333 -59.5625,3.5 z"
         id="B.cuttingline"
         inkscape:connector-curvature="0" />
      <g
         id="B.info"
         transform="">
        <text
           style="font-size:12; vertical-align:top; fill-opacity:1.0; fill:#000000; text-anchor:start; stroke:none; font-weight:normal; font-style:normal; text-align:right; "
           transform=""
           id="B.info.lineSeamly Patterns"
           y="1125.0"
           x="1221.13576695">
Seamly Patterns</text>
        <text
           style="font-size:12; vertical-align:top; fill-opacity:1.0; fill:#000000; text-anchor:start; stroke:none; font-weight:normal; font-style:normal; text-align:right; "
           transform=""
           id="B.info.lineDesigner:Ester Pivnick"
           y="1139.4"
           x="1221.13576695">
Designer:Ester Pivnick</text>
        <text
           style="font-size:12; vertical-align:top; fill-opacity:1.0; fill:#000000; text-anchor:start; stroke:none; font-weight:normal; font-style:normal; text-align:right; "
           transform=""
           id="B.info.lineClient:DressFormLg"
           y="1153.8"
           x="1221.13576695">
Client:DressFormLg</text>
        <text
           style="font-size:12; vertical-align:top; fill-opacity:1.0; fill:#000000; text-anchor:start; stroke:none; font-weight:normal; font-style:normal; text-align:right; "
           transform=""
           id="B.info.lineBL_W_Skirt_A-line_Pivnick_Spencer"
           y="1168.2"
           x="1221.13576695">
BL_W_Skirt_A-line_Pivnick_Spencer</text>
        <text
           style="font-size:12; vertical-align:top; fill-opacity:1.0; fill:#000000; text-anchor:start; stroke:none; font-weight:normal; font-style:normal; text-align:right; "
           transform=""
           id="B.info.linePattern Piece B"
           y="1182.6"
           x="1221.13576695">
Pattern Piece B</text>
        <text
           style="font-size:12; vertical-align:top; fill-opacity:1.0; fill:#000000; text-anchor:start; stroke:none; font-weight:normal; font-style:normal; text-align:right; "
           transform=""
           id="B.info.lineCut 2 Fabric"
           y="1197.0"
           x="1221.13576695">
Cut 2 Fabric</text>
      </g>
    </g>
  </g>
  <g
     inkscape:label="Label-notes"
     id="notes"
     inkscape:groupmode="layer"
     transform="translate(88.582677,88.582677)">
    <g
       id="document.titleblock">
      <text
         style="font-size:40; vertical-align:top; fill-opacity:1.0; fill:#000000; text-anchor:right; stroke:none; font-weight:normal; font-style:normal; text-align:right; "
         transform=""
         id="company"
         y="0.0"
         x="0.0">
Seamly Patterns</text>
      <text
         style="font-size:40; vertical-align:top; fill-opacity:1.0; fill:#000000; text-anchor:right; stroke:none; font-weight:normal; font-style:normal; text-align:right; "
         transform=""
         id="designer"
         y="44.0"
         x="0.0">
Ester Pivnick</text>
      <text
         style="font-size:40; vertical-align:top; fill-opacity:1.0; fill:#000000; text-anchor:right; stroke:none; font-weight:normal; font-style:normal; text-align:right; "
         transform=""
         id="pattern_number"
         y="88.0"
         x="0.0">
BL_W_Skirt_A-line_Pivnick_Spencer</text>
      <text
         style="font-size:40; vertical-align:top; fill-opacity:1.0; fill:#000000; text-anchor:right; stroke:none; font-weight:normal; font-style:normal; text-align:right; "
         transform=""
         id="pattern_name"
         y="132.0"
         x="0.0">
Block_Women_Skirt_Short_Aline_Pivnick_Spencer</text>
      <text
         style="font-size:40; vertical-align:top; fill-opacity:1.0; fill:#000000; text-anchor:right; stroke:none; font-weight:normal; font-style:normal; text-align:right; "
         transform=""
         id="client"
         y="176.0"
         x="0.0">
DressFormLg</text>
    </g>
    <g
       id="document.testgrid">
      <path
         style="stroke-linejoin:miter; stroke:green; stroke-width:4; stroke-miterlimit:4; fill:none; "
         d="M 1320.0  0.0 L 1320.0  212.598425197 M 1355.43307087  0.0 L 1355.43307087  212.598425197 M 1390.86614173  0.0 L 1390.86614173  212.598425197 M 1426.2992126  0.0 L 1426.2992126  212.598425197 M 1461.73228346  0.0 L 1461.73228346  212.598425197 M 1497.16535433  0.0 L 1497.16535433  212.598425197 M 1532.5984252  0.0 L 1532.5984252  212.598425197 M 1320.0  0.0 L 1532.5984252  0.0 M 1320.0  35.4330708661 L 1532.5984252  35.4330708661 M 1320.0  70.8661417323 L 1532.5984252  70.8661417323 M 1320.0  106.299212598 L 1532.5984252  106.299212598 M 1320.0  141.732283465 L 1532.5984252  141.732283465 M 1320.0  177.165354331 L 1532.5984252  177.165354331 M 1320.0  212.598425197 L 1532.5984252  212.598425197 M 1709.76377953  0.0 L 1709.76377953  270.0 M 1799.76377953  0.0 L 1799.76377953  270.0 M 1889.76377953  0.0 L 1889.76377953  270.0 M 1979.76377953  0.0 L 1979.76377953  270.0 M 1709.76377953  0.0 L 1979.76377953  0.0 M 1709.76377953  90.0 L 1979.76377953  90.0 M 1709.76377953  180.0 L 1979.76377953  180.0 M 1709.76377953  270.0 L 1979.76377953  270.0 "
         id="testgrid" />
    </g>
    <g
       id="document.bodice.Front.notes"
       transform=" translate(58.750000, 521.997529)" />
    <g
       id="document.bodice.Back.notes"
       transform=" translate(1185.933572, 576.474752)" />
  </g>
  <g
     inkscape:label="Label-reference"
     id="reference"
     inkscape:groupmode="layer"
     transform="translate(88.582677,88.582677)">
    <g
       id="document.bodice.Front.reference"
       transform=" translate(58.750000, 521.997529)">
      <circle
         style="stroke:red; stroke-width:1; fill:red; "
         transform=""
         cy="0"
         cx="0"
         r="5"
         id="A.FWC"
         d="M 5,0 C 5,2.7614237 2.7614237,5 0,5 -2.7614237,5 -5,2.7614237 -5,0 c 0,-2.7614237 2.2385763,-5 5,-5 2.7614237,0 5,2.2385763 5,5 z" />
      <text
         style="font-size:30; vertical-align:top; fill-opacity:1.0; fill:darkblue; text-anchor:right; stroke:none; font-weight:normal; font-style:italic; text-align:right; "
         transform=""
         id="A.FWC.text"
         y="-7"
         x="7">
FWC</text>
      <circle
         style="stroke:red; stroke-width:1; fill:red; "
         transform=""
         cy="690.94488189"
         cx="0"
         r="5"
         id="A.FHC"
         d="m 5,690.94489 c 0,2.76142 -2.2385763,5 -5,5 -2.7614237,0 -5,-2.23858 -5,-5 0,-2.76143 2.2385763,-5 5,-5 2.7614237,0 5,2.23857 5,5 z" />
      <text
         style="font-size:30; vertical-align:top; fill-opacity:1.0; fill:darkblue; text-anchor:right; stroke:none; font-weight:normal; font-style:italic; text-align:right; "
         transform=""
         id="A.FHC.text"
         y="683.94488189"
         x="7">
FHC</text>
      <circle
         style="stroke:red; stroke-width:1; fill:red; "
         transform=""
         cy="2427.16535433"
         cx="0"
         r="5"
         id="A.FHEMC"
         d="m 5,2427.1653 c 0,2.7614 -2.2385763,5 -5,5 -2.7614237,0 -5,-2.2386 -5,-5 0,-2.7614 2.2385763,-5 5,-5 2.7614237,0 5,2.2386 5,5 z" />
      <text
         style="font-size:30; vertical-align:top; fill-opacity:1.0; fill:darkblue; text-anchor:right; stroke:none; font-weight:normal; font-style:italic; text-align:right; "
         transform=""
         id="A.FHEMC.text"
         y="2420.16535433"
         x="7">
FHEMC</text>
      <circle
         style="stroke:red; stroke-width:1; fill:red; "
         transform=""
         cy="2427.16535433"
         cx="921.25984252"
         r="5"
         id="A.FHEMS"
         d="m 926.25983,2427.1653 c 0,2.7614 -2.23858,5 -5,5 -2.76143,0 -5,-2.2386 -5,-5 0,-2.7614 2.23857,-5 5,-5 2.76142,0 5,2.2386 5,5 z" />
      <text
         style="font-size:30; vertical-align:top; fill-opacity:1.0; fill:darkblue; text-anchor:right; stroke:none; font-weight:normal; font-style:italic; text-align:right; "
         transform=""
         id="A.FHEMS.text"
         y="2420.16535433"
         x="928.25984252">
FHEMS</text>
      <circle
         style="stroke:gray; stroke-width:1; fill:none; "
         transform=""
         cy="546.910583644"
         cx="921.25984252"
         r="5"
         id="A.FHS.outpoint"
         d="m 926.25983,546.91058 c 0,2.76143 -2.23858,5 -5,5 -2.76143,0 -5,-2.23857 -5,-5 0,-2.76142 2.23857,-5 5,-5 2.76142,0 5,2.23858 5,5 z" />
      <text
         style="font-size:25; vertical-align:top; fill-opacity:1.0; fill:gray; text-anchor:right; stroke:none; font-weight:normal; font-style:italic; text-align:right; "
         transform=""
         id="A.FHS.outpoint.text"
         y="539.910583644"
         x="928.25984252">
FHS.out</text>
      <circle
         style="stroke:red; stroke-width:1; fill:red; "
         transform=""
         cy="690.94488189"
         cx="921.25984252"
         r="5"
         id="A.FHS"
         d="m 926.25983,690.94489 c 0,2.76142 -2.23858,5 -5,5 -2.76143,0 -5,-2.23858 -5,-5 0,-2.76143 2.23857,-5 5,-5 2.76142,0 5,2.23857 5,5 z" />
      <text
         style="font-size:30; vertical-align:top; fill-opacity:1.0; fill:darkblue; text-anchor:right; stroke:none; font-weight:normal; font-style:italic; text-align:right; "
         transform=""
         id="A.FHS.text"
         y="683.94488189"
         x="928.25984252">
FHS</text>
      <circle
         style="stroke:red; stroke-width:1; fill:red; "
         transform=""
         cy="-17.7165354331"
         cx="921.25984252"
         r="5"
         id="A.FWS1"
         d="m 926.25983,-17.716536 c 0,2.761424 -2.23858,5 -5,5 -2.76143,0 -5,-2.238576 -5,-5 0,-2.761423 2.23857,-5 5,-5 2.76142,0 5,2.238577 5,5 z" />
      <text
         style="font-size:30; vertical-align:top; fill-opacity:1.0; fill:darkblue; text-anchor:right; stroke:none; font-weight:normal; font-style:italic; text-align:right; "
         transform=""
         id="A.FWS1.text"
         y="-24.7165354331"
         x="928.25984252">
FWS1</text>
      <circle
         style="stroke:gray; stroke-width:1; fill:none; "
         transform=""
         cy="75.2383480483"
         cx="954.603020303"
         r="5"
         id="A.FWS.inpoint"
         d="m 959.60303,75.23835 c 0,2.761424 -2.23858,5 -5,5 -2.76143,0 -5,-2.238576 -5,-5 0,-2.761424 2.23857,-5 5,-5 2.76142,0 5,2.238576 5,5 z" />
      <text
         style="font-size:25; vertical-align:top; fill-opacity:1.0; fill:gray; text-anchor:right; stroke:none; font-weight:normal; font-style:italic; text-align:right; "
         transform=""
         id="A.FWS.inpoint.text"
         y="68.2383480483"
         x="961.603020303">
FWS.in</text>
      <circle
         style="stroke:red; stroke-width:1; fill:red; "
         transform=""
         cy="-17.1013670836"
         cx="950.781253678"
         r="5"
         id="A.FWS"
         d="m 955.78125,-17.101368 c 0,2.761424 -2.23858,5 -5,5 -2.76142,0 -5,-2.238576 -5,-5 0,-2.761424 2.23858,-5 5,-5 2.76142,0 5,2.238576 5,5 z" />
      <text
         style="font-size:30; vertical-align:top; fill-opacity:1.0; fill:darkblue; text-anchor:right; stroke:none; font-weight:normal; font-style:italic; text-align:right; "
         transform=""
         id="A.FWS.text"
         y="-24.1013670836"
         x="957.781253678">
FWS</text>
      <circle
         style="stroke:red; stroke-width:1; fill:red; "
         transform=""
         cy="514.394695909"
         cx="618.374757615"
         r="5"
         id="A.FD1"
         d="m 623.37476,514.39471 c 0,2.76143 -2.23858,5 -5,5 -2.76143,0 -5,-2.23857 -5,-5 0,-2.76142 2.23857,-5 5,-5 2.76142,0 5,2.23858 5,5 z" />
      <text
         style="font-size:30; vertical-align:top; fill-opacity:1.0; fill:darkblue; text-anchor:right; stroke:none; font-weight:normal; font-style:italic; text-align:right; "
         transform=""
         id="A.FD1.text"
         y="507.394695909"
         x="625.374757615">
FD1</text>
      <circle
         style="stroke:red; stroke-width:1; fill:red; "
         transform=""
         cy="-29.7230784827"
         cx="674.37354523"
         r="5"
         id="A.FD1.o"
         d="m 679.37354,-29.723078 c 0,2.761424 -2.23858,5 -5,5 -2.76143,0 -5,-2.238576 -5,-5 0,-2.761424 2.23857,-5 5,-5 2.76142,0 5,2.238576 5,5 z" />
      <text
         style="font-size:30; vertical-align:top; fill-opacity:1.0; fill:darkblue; text-anchor:right; stroke:none; font-weight:normal; font-style:italic; text-align:right; "
         transform=""
         id="A.FD1.o.text"
         y="-36.7230784827"
         x="681.37354523">
FD1.o</text>
      <circle
         style="stroke:red; stroke-width:1; fill:red; "
         transform=""
         cy="-29.7230784827"
         cx="562.375970001"
         r="5"
         id="A.FD1.i"
         d="m 567.37598,-29.723078 c 0,2.761424 -2.23858,5 -5,5 -2.76143,0 -5,-2.238576 -5,-5 0,-2.761424 2.23857,-5 5,-5 2.76142,0 5,2.238576 5,5 z" />
      <text
         style="font-size:30; vertical-align:top; fill-opacity:1.0; fill:darkblue; text-anchor:right; stroke:none; font-weight:normal; font-style:italic; text-align:right; "
         transform=""
         id="A.FD1.i.text"
         y="-36.7230784827"
         x="569.375970001">
FD1.i</text>
      <circle
         style="stroke:red; stroke-width:1; fill:red; "
         transform=""
         cy="276.377952756"
         cx="0"
         r="5"
         id="A.FABC"
         d="m 5,276.37796 c 0,2.76142 -2.2385763,5 -5,5 -2.7614237,0 -5,-2.23858 -5,-5 0,-2.76142 2.2385763,-5 5,-5 2.7614237,0 5,2.23858 5,5 z" />
      <text
         style="font-size:30; vertical-align:top; fill-opacity:1.0; fill:darkblue; text-anchor:right; stroke:none; font-weight:normal; font-style:italic; text-align:right; "
         transform=""
         id="A.FABC.text"
         y="269.377952756"
         x="7">
FABC</text>
      <circle
         style="stroke:red; stroke-width:1; fill:red; "
         transform=""
         cy="265.715799999"
         cx="592.781554578"
         r="5"
         id="A.FABC1"
         d="m 597.78156,265.71579 c 0,2.76142 -2.23858,5 -5,5 -2.76143,0 -5,-2.23858 -5,-5 0,-2.76142 2.23857,-5 5,-5 2.76142,0 5,2.23858 5,5 z" />
      <text
         style="font-size:30; vertical-align:top; fill-opacity:1.0; fill:darkblue; text-anchor:right; stroke:none; font-weight:normal; font-style:italic; text-align:right; "
         transform=""
         id="A.FABC1.text"
         y="258.715799999"
         x="599.781554578">
FABC1</text>
      <circle
         style="stroke:red; stroke-width:1; fill:red; "
         transform=""
         cy="265.715799999"
         cx="643.967960652"
         r="5"
         id="A.FABS1"
         d="m 648.96796,265.71579 c 0,2.76142 -2.23858,5 -5,5 -2.76143,0 -5,-2.23858 -5,-5 0,-2.76142 2.23857,-5 5,-5 2.76142,0 5,2.23858 5,5 z" />
      <text
         style="font-size:30; vertical-align:top; fill-opacity:1.0; fill:darkblue; text-anchor:right; stroke:none; font-weight:normal; font-style:italic; text-align:right; "
         transform=""
         id="A.FABS1.text"
         y="258.715799999"
         x="650.967960652">
FABS1</text>
      <circle
         style="stroke:gray; stroke-width:1; fill:none; "
         transform=""
         cy="404.038132456"
         cx="948.583412141"
         r="5"
         id="A.FABS.inpoint"
         d="m 953.58344,404.03815 c 0,2.76142 -2.23858,5 -5,5 -2.76143,0 -5,-2.23858 -5,-5 0,-2.76143 2.23857,-5 5,-5 2.76142,0 5,2.23857 5,5 z" />
      <text
         style="font-size:25; vertical-align:top; fill-opacity:1.0; fill:gray; text-anchor:right; stroke:none; font-weight:normal; font-style:italic; text-align:right; "
         transform=""
         id="A.FABS.inpoint.text"
         y="397.038132456"
         x="955.583412141">
FABS.in</text>
      <circle
         style="stroke:gray; stroke-width:1; fill:none; "
         transform=""
         cy="167.790323089"
         cx="958.433571965"
         r="5"
         id="A.FABS.outpoint"
         d="m 963.43359,167.79033 c 0,2.76142 -2.23857,5 -5,5 -2.76142,0 -5,-2.23858 -5,-5 0,-2.76142 2.23858,-5 5,-5 2.76143,0 5,2.23858 5,5 z" />
      <text
         style="font-size:25; vertical-align:top; fill-opacity:1.0; fill:gray; text-anchor:right; stroke:none; font-weight:normal; font-style:italic; text-align:right; "
         transform=""
         id="A.FABS.outpoint.text"
         y="160.790323089"
         x="965.433571965">
FABS.out</text>
      <circle
         style="stroke:red; stroke-width:1; fill:red; "
         transform=""
         cy="260.128866193"
         cx="954.583591684"
         r="5"
         id="A.FABS"
         d="m 959.58362,260.12888 c 0,2.76142 -2.23858,5 -5,5 -2.76143,0 -5,-2.23858 -5,-5 0,-2.76143 2.23857,-5 5,-5 2.76142,0 5,2.23857 5,5 z" />
      <text
         style="font-size:30; vertical-align:top; fill-opacity:1.0; fill:darkblue; text-anchor:right; stroke:none; font-weight:normal; font-style:italic; text-align:right; "
         transform=""
         id="A.FABS.text"
         y="253.128866193"
         x="961.583591684">
FABS</text>
      <path
         style="stroke-linejoin:miter; stroke-dashoffset:0; stroke:gray; stroke-miterlimit:4; stroke-dasharray:6,6; stroke-width:2; fill:none; "
         transform=""
         d="M 0  0 L 0  2427.16535433 L 921.25984252  2427.16535433 L 921.25984252  -17.7165354331 M 921.25984252  690.94488189 L 950.781253678  -17.1013670836 L 0  0 M 0  690.94488189 L 921.25984252  690.94488189 M 0  276.377952756 L 592.781554578  265.715799999 L 643.967960652  265.715799999 L 954.583591684  260.128866193 "
         id="A.gridline" />
    </g>
    <g
       id="document.bodice.Back.reference"
       transform=" translate(1185.933572, 576.474752)">
      <circle
         style="stroke:red; stroke-width:1; fill:red; "
         transform=""
         cy="-17.7165354331"
         cx="921.25984252"
         r="5"
         id="B.BWS1"
         d="m 926.25983,-17.716536 c 0,2.761424 -2.23858,5 -5,5 -2.76143,0 -5,-2.238576 -5,-5 0,-2.761423 2.23857,-5 5,-5 2.76142,0 5,2.238577 5,5 z" />
      <text
         style="font-size:30; vertical-align:top; fill-opacity:1.0; fill:darkblue; text-anchor:right; stroke:none; font-weight:normal; font-style:italic; text-align:right; "
         transform=""
         id="B.BWS1.text"
         y="-24.7165354331"
         x="928.25984252">
BWS1</text>
      <circle
         style="stroke:gray; stroke-width:1; fill:none; "
         transform=""
         cy="562.50307465"
         cx="921.25984252"
         r="5"
         id="B.BHS.outpoint"
         d="m 926.25983,562.50305 c 0,2.76143 -2.23858,5 -5,5 -2.76143,0 -5,-2.23857 -5,-5 0,-2.76142 2.23857,-5 5,-5 2.76142,0 5,2.23858 5,5 z" />
      <text
         style="font-size:25; vertical-align:top; fill-opacity:1.0; fill:gray; text-anchor:right; stroke:none; font-weight:normal; font-style:italic; text-align:right; "
         transform=""
         id="B.BHS.outpoint.text"
         y="555.50307465"
         x="928.25984252">
BHS.out</text>
      <circle
         style="stroke:red; stroke-width:1; fill:red; "
         transform=""
         cy="690.94488189"
         cx="921.25984252"
         r="5"
         id="B.BHS"
         d="m 926.25983,690.94489 c 0,2.76142 -2.23858,5 -5,5 -2.76143,0 -5,-2.23858 -5,-5 0,-2.76143 2.23857,-5 5,-5 2.76142,0 5,2.23857 5,5 z" />
      <text
         style="font-size:30; vertical-align:top; fill-opacity:1.0; fill:darkblue; text-anchor:right; stroke:none; font-weight:normal; font-style:italic; text-align:right; "
         transform=""
         id="B.BHS.text"
         y="683.94488189"
         x="928.25984252">
BHS</text>
      <circle
         style="stroke:red; stroke-width:1; fill:red; "
         transform=""
         cy="2427.16535433"
         cx="921.25984252"
         r="5"
         id="B.BHEMS"
         d="m 926.25983,2427.1653 c 0,2.7614 -2.23858,5 -5,5 -2.76143,0 -5,-2.2386 -5,-5 0,-2.7614 2.23857,-5 5,-5 2.76142,0 5,2.2386 5,5 z" />
      <text
         style="font-size:30; vertical-align:top; fill-opacity:1.0; fill:darkblue; text-anchor:right; stroke:none; font-weight:normal; font-style:italic; text-align:right; "
         transform=""
         id="B.BHEMS.text"
         y="2420.16535433"
         x="928.25984252">
BHEMS</text>
      <circle
         style="stroke:red; stroke-width:1; fill:red; "
         transform=""
         cy="2427.16535433"
         cx="1984.2519685"
         r="5"
         id="B.BHEMC"
         d="m 1989.252,2427.1653 c 0,2.7614 -2.2386,5 -5,5 -2.7615,0 -5,-2.2386 -5,-5 0,-2.7614 2.2385,-5 5,-5 2.7614,0 5,2.2386 5,5 z" />
      <text
         style="font-size:30; vertical-align:top; fill-opacity:1.0; fill:darkblue; text-anchor:right; stroke:none; font-weight:normal; font-style:italic; text-align:right; "
         transform=""
         id="B.BHEMC.text"
         y="2420.16535433"
         x="1991.2519685">
BHEMC</text>
      <circle
         style="stroke:red; stroke-width:1; fill:red; "
         transform=""
         cy="690.94488189"
         cx="1984.2519685"
         r="5"
         id="B.BHC"
         d="m 1989.252,690.94489 c 0,2.76142 -2.2386,5 -5,5 -2.7615,0 -5,-2.23858 -5,-5 0,-2.76143 2.2385,-5 5,-5 2.7614,0 5,2.23857 5,5 z" />
      <text
         style="font-size:30; vertical-align:top; fill-opacity:1.0; fill:darkblue; text-anchor:right; stroke:none; font-weight:normal; font-style:italic; text-align:right; "
         transform=""
         id="B.BHC.text"
         y="683.94488189"
         x="1991.2519685">
BHC</text>
      <circle
         style="stroke:red; stroke-width:1; fill:red; "
         transform=""
         cy="-106.299212598"
         cx="1984.2519685"
         r="5"
         id="B.BWC"
         d="m 1989.252,-106.29921 c 0,2.76142 -2.2386,5 -5,5 -2.7615,0 -5,-2.23858 -5,-5 0,-2.76142 2.2385,-5 5,-5 2.7614,0 5,2.23858 5,5 z" />
      <text
         style="font-size:30; vertical-align:top; fill-opacity:1.0; fill:darkblue; text-anchor:right; stroke:none; font-weight:normal; font-style:italic; text-align:right; "
         transform=""
         id="B.BWC.text"
         y="-113.299212598"
         x="1991.2519685">
BWC</text>
      <circle
         style="stroke:red; stroke-width:1; fill:red; "
         transform=""
         cy="642.117314355"
         cx="1507.19065294"
         r="5"
         id="B.BD1"
         d="m 1512.1907,642.11731 c 0,2.76142 -2.2386,5 -5,5 -2.7614,0 -5,-2.23858 -5,-5 0,-2.76142 2.2386,-5 5,-5 2.7614,0 5,2.23858 5,5 z" />
      <text
         style="font-size:30; vertical-align:top; fill-opacity:1.0; fill:darkblue; text-anchor:right; stroke:none; font-weight:normal; font-style:italic; text-align:right; "
         transform=""
         id="B.BD1.text"
         y="635.117314355"
         x="1514.19065294">
BD1</text>
      <circle
         style="stroke:red; stroke-width:1; fill:red; "
         transform=""
         cy="-84.5120572468"
         cx="1614.83944873"
         r="5"
         id="B.BD1.i"
         d="m 1619.8395,-84.512054 c 0,2.761423 -2.2386,5 -5,5 -2.7614,0 -5,-2.238577 -5,-5 0,-2.761424 2.2386,-5 5,-5 2.7614,0 5,2.238576 5,5 z" />
      <text
         style="font-size:30; vertical-align:top; fill-opacity:1.0; fill:darkblue; text-anchor:right; stroke:none; font-weight:normal; font-style:italic; text-align:right; "
         transform=""
         id="B.BD1.i.text"
         y="-91.5120572468"
         x="1621.83944873">
BD1.i</text>
      <circle
         style="stroke:red; stroke-width:1; fill:red; "
         transform=""
         cy="-84.5120572468"
         cx="1399.54185714"
         r="5"
         id="B.BD1.o"
         d="m 1404.5419,-84.512054 c 0,2.761423 -2.2386,5 -5,5 -2.7615,0 -5,-2.238577 -5,-5 0,-2.761424 2.2385,-5 5,-5 2.7614,0 5,2.238576 5,5 z" />
      <text
         style="font-size:30; vertical-align:top; fill-opacity:1.0; fill:darkblue; text-anchor:right; stroke:none; font-weight:normal; font-style:italic; text-align:right; "
         transform=""
         id="B.BD1.o.text"
         y="-91.5120572468"
         x="1406.54185714">
BD1.o</text>
      <circle
         style="stroke:gray; stroke-width:1; fill:none; "
         transform=""
         cy="95.2719532022"
         cx="1002.95107782"
         r="5"
         id="B.BWS.inpoint"
         d="m 1007.951,95.27195 c 0,2.761424 -2.2385,5 -5,5 -2.7614,0 -4.99995,-2.238576 -4.99995,-5 0,-2.761424 2.23855,-5 4.99995,-5 2.7615,0 5,2.238576 5,5 z" />
      <text
         style="font-size:25; vertical-align:top; fill-opacity:1.0; fill:gray; text-anchor:right; stroke:none; font-weight:normal; font-style:italic; text-align:right; "
         transform=""
         id="B.BWS.inpoint.text"
         y="88.2719532022"
         x="1009.95107782">
BWS.in</text>
      <circle
         style="stroke:red; stroke-width:1; fill:red; "
         transform=""
         cy="-8.54549490833"
         cx="1034.9005798"
         r="5"
         id="B.BWS"
         d="m 1039.9006,-8.545495 c 0,2.7614237 -2.2385,5 -5,5 -2.7614,0 -5,-2.2385763 -5,-5 0,-2.761424 2.2386,-5 5,-5 2.7615,0 5,2.238576 5,5 z" />
      <text
         style="font-size:30; vertical-align:top; fill-opacity:1.0; fill:darkblue; text-anchor:right; stroke:none; font-weight:normal; font-style:italic; text-align:right; "
         transform=""
         id="B.BWS.text"
         y="-15.5454949083"
         x="1041.9005798">
BWS</text>
      <circle
         style="stroke:red; stroke-width:1; fill:red; "
         transform=""
         cy="212.598425197"
         cx="1984.2519685"
         r="5"
         id="B.BABC"
         d="m 1989.252,212.59842 c 0,2.76142 -2.2386,5 -5,5 -2.7615,0 -5,-2.23858 -5,-5 0,-2.76142 2.2385,-5 5,-5 2.7614,0 5,2.23858 5,5 z" />
      <text
         style="font-size:30; vertical-align:top; fill-opacity:1.0; fill:darkblue; text-anchor:right; stroke:none; font-weight:normal; font-style:italic; text-align:right; "
         transform=""
         id="B.BABC.text"
         y="205.598425197"
         x="1991.2519685">
BABC</text>
      <circle
         style="stroke:red; stroke-width:1; fill:red; "
         transform=""
         cy="255.828220332"
         cx="1564.41866687"
         r="5"
         id="B.BABC1"
         d="m 1569.4187,255.82822 c 0,2.76142 -2.2386,5 -5,5 -2.7614,0 -5,-2.23858 -5,-5 0,-2.76143 2.2386,-5 5,-5 2.7614,0 5,2.23857 5,5 z" />
      <text
         style="font-size:30; vertical-align:top; fill-opacity:1.0; fill:darkblue; text-anchor:right; stroke:none; font-weight:normal; font-style:italic; text-align:right; "
         transform=""
         id="B.BABC1.text"
         y="248.828220332"
         x="1571.41866687">
BABC1</text>
      <circle
         style="stroke:red; stroke-width:1; fill:red; "
         transform=""
         cy="255.828220332"
         cx="1449.96263901"
         r="5"
         id="B.BABS1"
         d="m 1454.9626,255.82822 c 0,2.76142 -2.2385,5 -5,5 -2.7614,0 -5,-2.23858 -5,-5 0,-2.76143 2.2386,-5 5,-5 2.7615,0 5,2.23857 5,5 z" />
      <text
         style="font-size:30; vertical-align:top; fill-opacity:1.0; fill:darkblue; text-anchor:right; stroke:none; font-weight:normal; font-style:italic; text-align:right; "
         transform=""
         id="B.BABS1.text"
         y="248.828220332"
         x="1456.96263901">
BABS1</text>
      <circle
         style="stroke:gray; stroke-width:1; fill:none; "
         transform=""
         cy="433.740257967"
         cx="932.784588317"
         r="5"
         id="B.BABS.inpoint"
         d="m 937.78461,433.74026 c 0,2.76143 -2.23858,5 -5,5 -2.76143,0 -5,-2.23857 -5,-5 0,-2.76142 2.23857,-5 5,-5 2.76142,0 5,2.23858 5,5 z" />
      <text
         style="font-size:25; vertical-align:top; fill-opacity:1.0; fill:gray; text-anchor:right; stroke:none; font-weight:normal; font-style:italic; text-align:right; "
         transform=""
         id="B.BABS.inpoint.text"
         y="426.740257967"
         x="939.784588317">
BABS.in</text>
      <circle
         style="stroke:gray; stroke-width:1; fill:none; "
         transform=""
         cy="199.743949564"
         cx="970.800140623"
         r="5"
         id="B.BABS.outpoint"
         d="m 975.80017,199.74394 c 0,2.76143 -2.23858,5 -5,5 -2.76142,0 -5,-2.23857 -5,-5 0,-2.76142 2.23858,-5 5,-5 2.76142,0 5,2.23858 5,5 z" />
      <text
         style="font-size:25; vertical-align:top; fill-opacity:1.0; fill:gray; text-anchor:right; stroke:none; font-weight:normal; font-style:italic; text-align:right; "
         transform=""
         id="B.BABS.outpoint.text"
         y="192.743949564"
         x="977.800140623">
BABS.out</text>
      <circle
         style="stroke:red; stroke-width:1; fill:red; "
         transform=""
         cy="306.960662032"
         cx="953.381478898"
         r="5"
         id="B.BABS"
         d="m 958.38147,306.96066 c 0,2.76143 -2.23858,5 -5,5 -2.76142,0 -5,-2.23857 -5,-5 0,-2.76142 2.23858,-5 5,-5 2.76142,0 5,2.23858 5,5 z" />
      <text
         style="font-size:30; vertical-align:top; fill-opacity:1.0; fill:darkblue; text-anchor:right; stroke:none; font-weight:normal; font-style:italic; text-align:right; "
         transform=""
         id="B.BABS.text"
         y="299.960662032"
         x="960.381478898">
BABS</text>
      <path
         style="stroke-linejoin:miter; stroke-dashoffset:0; stroke:gray; stroke-miterlimit:4; stroke-dasharray:6,6; stroke-width:2; fill:none; "
         transform=""
         d="M 1984.2519685  -106.299212598 L 1984.2519685  2427.16535433 L 921.25984252  2427.16535433 L 921.25984252  -17.7165354331 M 921.25984252  690.94488189 L 1034.9005798  -8.54549490833 L 1984.2519685  -106.299212598 M 1984.2519685  690.94488189 L 921.25984252  690.94488189 M 1984.2519685  212.598425197 L 1564.41866687  255.828220332 L 1449.96263901  255.828220332 L 953.381478898  306.960662032 "
         id="B.gridline" />
    </g>
  </g>
</svg>
