<?xml version="1.0" encoding="UTF-8" standalone="no"?>
<svg xmlns:dc="http://purl.org/dc/elements/1.1/" xmlns:cc="http://creativecommons.org/ns#" xmlns:rdf="http://www.w3.org/1999/02/22-rdf-syntax-ns#" xmlns:svg="http://www.w3.org/2000/svg" xmlns="http://www.w3.org/2000/svg" xmlns:sodipodi="http://sodipodi.sourceforge.net/DTD/sodipodi-0.dtd" xmlns:inkscape="http://www.inkscape.org/namespaces/inkscape" patternNumber="Block_W_Bodice-Long_Spencer" fitBoxtoViewport="True" companyName="Seamly Patterns" currentscale="0.5:1" margin-right="88.5826771654" client-name="DressFormLg" designerName="S.L.Spencer" height="5400.33936308" width="2686.38034845" margin-top="88.5826771654" version="1.1" margin-bottom="88.5826771654" margin-left="88.5826771654" preserveAspectRatio="xMidYMid meet" id="svg2" inkscape:version="0.48.4 r9939" sodipodi:docname="block_women_bodice-long_spencer.svg">
  <metadata id="metadata289">
    <rdf:RDF>
      <cc:Work rdf:about="">
        <dc:format>image/svg+xml</dc:format>
        <dc:type rdf:resource="http://purl.org/dc/dcmitype/StillImage" />
      </cc:Work>
    </rdf:RDF>
  </metadata>
  <sodipodi:namedview id="base" pagecolor="#ffffff" bordercolor="#666666" borderopacity="1.0" inkscape:pageopacity="0.0" inkscape:pageshadow="2" inkscape:zoom="0.16832276" inkscape:document-units="pt" showgrid="false" inkscape:window-maximized="1" inkscape:cx="1343.1902" inkscape:cy="2700.1697" inkscape:window-width="1855" inkscape:window-height="1056" inkscape:window-x="65" inkscape:window-y="24" inkscape:current-layer="pattern" />
  <defs id="defs5">
    <marker style="overflow:visible" id="Arrow1Mstart" refX="0.0" refY="0.0" orient="auto" inkscape:stockid="Arrow1Mstart">
      <path transform="scale(0.4) translate(10,0)" style="fill-rule:evenodd;stroke:#000000;stroke-width:1.0pt;marker-start:none" d="M 0.0,0.0 L 5.0,-5.0 L -12.5,0.0 L 5.0,5.0 L 0.0,0.0 z " id="path8" />
    </marker>
    <marker style="overflow:visible;" id="Arrow1Mend" refX="0.0" refY="0.0" orient="auto" inkscape:stockid="Arrow1Mend">
      <path transform="scale(0.4) rotate(180) translate(10,0)" style="fill-rule:evenodd;stroke:#000000;stroke-width:1.0pt;marker-start:none;" d="M 0.0,0.0 L 5.0,-5.0 L -12.5,0.0 L 5.0,5.0 L 0.0,0.0 z " id="path11" />
    </marker>
  </defs>
  <g inkscape:label="Label-pattern" id="pattern" inkscape:groupmode="layer" transform="translate(88.582677,88.582677)">
    <g id="document.bodice.Bodice Front.pattern" transform=" translate(1218.722868, 753.637233)">
      <g id="A.letter" transform="matrix(10.000000, 0, 0, 10.000000, 3029.527559, -2556.516245)">
        <text style="font-size:24; vertical-align:top; fill-opacity:1.0; fill:#000000; text-anchor:start; stroke:none; font-weight:normal; font-style:normal; text-align:right; " transform="" id="A.letter.letterline" y="284.057360546" x="-336.614173228">
A</text>
      </g>
      <line style="stroke-linejoin:miter; stroke:green; stroke-width:4; stroke-miterlimit:4; fill:none; " y2="965.551181102" marker-end="url(#Arrow1Mend)" marker-start="url(#Arrow1Mstart)" transform="" x2="-137.396735852" y1="0.0" x1="-137.396735852" id="A.grainline" />
      <path style="stroke-linejoin:miter; stroke-dashoffset:0; stroke:green; stroke-miterlimit:4; stroke-dasharray:6,6; stroke-width:3; fill:none; " transform="" d="M -284.265730014  1240.15748031 L -354.330708661  724.427188327 L -424.395687309  1240.15748031 L -354.330708661  1832.39595051 L -284.265730014  1240.15748031 M -1060.52473942  555.652888008 L -447.860031437  637.795275591 L -1060.52473942  719.937663173 " id="A.dartline" />
      <path style="stroke-linejoin:miter; stroke-dashoffset:0; stroke:green; stroke-dasharray:24,6; stroke-miterlimit:4; stroke-width:4; fill:none; " transform="" d="M 0.0  0.0 L 0.0  1931.1023622 L -354.330708661  1931.1023622 L -918.915824676  1879.60197782 L -986.666730146  1174.18662555 L -1004.6514426  713.438647602 L -1031.71351684  637.795275591 L -1004.6514426  562.151903579 L -952.292535812  415.799328021 C -860.573954726  448.612448116  -725.291567763  411.388520832  -673.228346457  329.057360546 C -574.500779984  172.932654928  -699.176509364  -132.813565675  -717.519685039  -223.334513127 L -266.065549767  -314.81723338 C -266.065549767  -157.40861669  -199.549162325  0.0  0.0  0.0 " id="A.seamline" />
      <path style="fill:none;stroke:#008000;stroke-width:4;stroke-linejoin:miter;stroke-miterlimit:4" d="M -277.21875,-369.9375 C -446.3551,-335.68172 -615.48213,-301.37982 -784.625,-267.15625 -776.21092,-228.47477 -768.55972,-189.6049 -756.68814,-151.79544 -727.76442,-53.39172 -697.88405,46.094179 -692.39847,149.09299 -690.54615,195.35587 -693.1185,243.94683 -713.625,286.25 -730.31832,321.75987 -765.71034,344.53333 -801.46959,357.56446 -847.04751,373.84039 -898.73376,377.58671 -944.20213,359.07425 -958.291,354.1745 -972.37988,349.27475 -986.46875,344.375 -1021.4789,442.17345 -1056.474,539.97729 -1091.4688,637.78125 -1081.2345,666.94357 -1070.223,695.95722 -1060.4922,725.21799 -1054.4647,876.99454 -1048.8392,1028.7985 -1042.5606,1180.5579 -1018.5161,1430.8299 -994.50123,1681.1048 -970.4375,1931.375 -765.59487,1950.0282 -560.76046,1968.8942 -355.90625,1987.3438 -218.52083,1987.3438 -81.135417,1987.3437 56.25,1987.3438 56.25,1306.2708 56.25,625.19792 56.25,-55.875 13.823944,-56.880626 -29.621437,-53.006966 -70.769052,-65.635241 -111.19168,-76.982299 -146.38937,-104.17628 -168.03125,-140.0625 -199.30908,-191.22575 -209.15582,-252.48473 -209.8125,-311.59375 -209.8125,-335.59375 -209.8125,-359.59375 -209.8125,-383.59375 -232.28125,-379.04167 -254.75,-374.48958 -277.21875,-369.9375 z" id="A.cuttingline" inkscape:connector-curvature="0" />
      <g id="A.info" transform="">
        <text style="font-size:12; vertical-align:top; fill-opacity:1.0; fill:#000000; text-anchor:start; stroke:none; font-weight:normal; font-style:normal; text-align:right; " transform="" id="A.info.lineSeamly Patterns" y="329.057360546" x="-336.614173228">
Seamly Patterns</text>
        <text style="font-size:12; vertical-align:top; fill-opacity:1.0; fill:#000000; text-anchor:start; stroke:none; font-weight:normal; font-style:normal; text-align:right; " transform="" id="A.info.lineDesigner:S.L.Spencer" y="343.457360546" x="-336.614173228">
Designer:S.L.Spencer</text>
        <text style="font-size:12; vertical-align:top; fill-opacity:1.0; fill:#000000; text-anchor:start; stroke:none; font-weight:normal; font-style:normal; text-align:right; " transform="" id="A.info.lineClient:DressFormLg" y="357.857360546" x="-336.614173228">
Client:DressFormLg</text>
        <text style="font-size:12; vertical-align:top; fill-opacity:1.0; fill:#000000; text-anchor:start; stroke:none; font-weight:normal; font-style:normal; text-align:right; " transform="" id="A.info.lineBlock_W_Bodice-Long_Spencer" y="372.257360546" x="-336.614173228">
Block_W_Bodice-Long_Spencer</text>
        <text style="font-size:12; vertical-align:top; fill-opacity:1.0; fill:#000000; text-anchor:start; stroke:none; font-weight:normal; font-style:normal; text-align:right; " transform="" id="A.info.linePattern Piece A" y="386.657360546" x="-336.614173228">
Pattern Piece A</text>
        <text style="font-size:12; vertical-align:top; fill-opacity:1.0; fill:#000000; text-anchor:start; stroke:none; font-weight:normal; font-style:normal; text-align:right; " transform="" id="A.info.lineCut 2 Fabric" y="401.057360546" x="-336.614173228">
Cut 2 Fabric</text>
      </g>
    </g>
    <g id="document.bodice.Bodice Back.pattern" transform=" translate(1389.972868, 580.552283)">
      <g id="B.letter" transform="matrix(10.000000, 0, 0, 10.000000, -1280.119391, -2403.705423)">
        <text style="font-size:24; vertical-align:top; fill-opacity:1.0; fill:#000000; text-anchor:start; stroke:none; font-weight:normal; font-style:normal; text-align:right; " transform="" id="B.letter.letterline" y="267.078380389" x="142.235487856">
B</text>
      </g>
      <line style="stroke-linejoin:miter; stroke:green; stroke-width:4; stroke-miterlimit:4; fill:none; " y2="985.306726845" marker-end="url(#Arrow1Mend)" marker-start="url(#Arrow1Mstart)" transform="" x2="248.176654023" y1="312.078380389" x1="248.176654023" id="B.grainline" />
      <path style="stroke-linejoin:miter; stroke-dashoffset:0; stroke:green; stroke-miterlimit:4; stroke-dasharray:6,6; stroke-width:3; fill:none; " transform="" d="M 312.917874443  1346.45669291 L 391.147343053  624.156760777 L 469.376811664  1346.45669291 L 391.147343053  2029.8087739 L 312.917874443  1346.45669291 " id="B.dartline" />
      <path style="stroke-linejoin:miter; stroke-dashoffset:0; stroke:green; stroke-dasharray:24,6; stroke-miterlimit:4; stroke-width:4; fill:none; " transform="" d="M 0.0  0.0 L 0.0  2143.7007874 L 391.147343053  2143.7007874 L 1048.34721494  2004.18827634 L 829.321411985  1330.22336476 L 885.826771654  716.282745029 C 789.68387004  707.434024061  649.107206559  712.961900107  611.220472441  624.156760777 C 533.475345126  441.924984294  670.045495751  129.054339455  708.661417323  37.8293872947 L 284.470975712  -141.732283465 C 256.846103288  -76.4722155244  213.353231784  0.0  0.0  0.0 " id="B.seamline" />
      <path style="fill:none;stroke:#008000;stroke-width:4;stroke-linejoin:miter;stroke-miterlimit:4" d="M 232.78125,-163.875 C 221.79268,-136.59231 206.33255,-109.44449 180.84375,-93.3125 144.86807,-70.070731 101.45729,-62.80344 59.5625,-58.6875 21.048313,-55.149373 -17.608574,-56.529159 -56.25,-56.25 -56.25,695.8125 -56.25,1447.875 -56.25,2199.9375 94.854167,2199.9375 245.95833,2199.9375 397.0625,2199.9375 638.43083,2148.7261 879.78871,2097.4652 1121.1562,2046.25 1042.903,1805.4352 964.63439,1564.6253 886.375,1323.8125 906.58853,1104.3026 926.75493,884.78828 947,665.28125 899.7381,660.63833 852.37954,657.26547 805.0071,654.01909 767.00596,650.36589 727.54979,646.95325 692.46875,630.375 677.68479,623.47465 664.87138,611.39053 660.25,595.375 640.24789,541.10675 641.70398,481.68066 648.3388,424.92132 661.60957,321.83647 694.70595,222.41329 732.86756,126.11187 748.75441,86.486326 765.84949,47.341829 782.4375,8 606.57548,-66.478563 430.70415,-140.93519 254.8125,-215.34375 247.46875,-198.1875 240.125,-181.03125 232.78125,-163.875 z" id="B.cuttingline" inkscape:connector-curvature="0" />
      <g id="B.info" transform="">
        <text style="font-size:12; vertical-align:top; fill-opacity:1.0; fill:#000000; text-anchor:start; stroke:none; font-weight:normal; font-style:normal; text-align:right; " transform="" id="B.info.lineSeamly Patterns" y="312.078380389" x="142.235487856">
Seamly Patterns</text>
        <text style="font-size:12; vertical-align:top; fill-opacity:1.0; fill:#000000; text-anchor:start; stroke:none; font-weight:normal; font-style:normal; text-align:right; " transform="" id="B.info.lineDesigner:S.L.Spencer" y="326.478380389" x="142.235487856">
Designer:S.L.Spencer</text>
        <text style="font-size:12; vertical-align:top; fill-opacity:1.0; fill:#000000; text-anchor:start; stroke:none; font-weight:normal; font-style:normal; text-align:right; " transform="" id="B.info.lineClient:DressFormLg" y="340.878380389" x="142.235487856">
Client:DressFormLg</text>
        <text style="font-size:12; vertical-align:top; fill-opacity:1.0; fill:#000000; text-anchor:start; stroke:none; font-weight:normal; font-style:normal; text-align:right; " transform="" id="B.info.lineBlock_W_Bodice-Long_Spencer" y="355.278380389" x="142.235487856">
Block_W_Bodice-Long_Spencer</text>
        <text style="font-size:12; vertical-align:top; fill-opacity:1.0; fill:#000000; text-anchor:start; stroke:none; font-weight:normal; font-style:normal; text-align:right; " transform="" id="B.info.linePattern Piece B" y="369.678380389" x="142.235487856">
Pattern Piece B</text>
        <text style="font-size:12; vertical-align:top; fill-opacity:1.0; fill:#000000; text-anchor:start; stroke:none; font-weight:normal; font-style:normal; text-align:right; " transform="" id="B.info.lineCut 2 Fabric" y="384.078380389" x="142.235487856">
Cut 2 Fabric</text>
      </g>
    </g>
    <g id="document.bodice.Sleeve.pattern" transform=" translate(628.583412, 2895.503071)">
      <g id="C.letter" transform="matrix(10.000000, 0, 0, 10.000000, 3303.784509, -6650.610236)">
        <text style="font-size:24; vertical-align:top; fill-opacity:1.0; fill:#000000; text-anchor:start; stroke:none; font-weight:normal; font-style:normal; text-align:right; " transform="" id="C.letter.letterline" y="738.956692913" x="-367.087167684">
C</text>
      </g>
      <line style="stroke-linejoin:miter; stroke:green; stroke-width:4; stroke-miterlimit:4; fill:none; " y2="1727.36220472" marker-end="url(#Arrow1Mend)" marker-start="url(#Arrow1Mstart)" transform="" x2="0" y1="425.196850394" x1="0" id="C.grainline" />
      <path style="stroke-linejoin:miter; stroke-dashoffset:0; stroke:green; stroke-miterlimit:4; stroke-dasharray:6,6; stroke-width:3; fill:none; " transform="" d="M 602.611908563  1112.97030487 L 328.073923674  1112.65094589 L 595.888956182  1173.03567492 M 582.851916362  1243.91423514 L 316.024065106  1175.07295366 L 561.322164592  1300.63197018 M 545.274519974  1330.89299177 L 282.600576849  1263.12341386 L 524.079937904  1386.72775954 " id="C.dartline" />
      <path style="stroke-linejoin:miter; stroke-dashoffset:0; stroke:green; stroke-dasharray:24,6; stroke-miterlimit:4; stroke-width:4; fill:none; " transform="" d="M -626.083412143  361.417322835 C -375.650047286  361.417322835  -313.041706072  0  0  0 C 174.402738815  0  382.402492039  170.433722968  496.585289914  302.261656184 C 547.822985625  361.417322835  547.822985625  361.417322835  626.083412143  361.417322835 L 546.361946621  1112.90487155 L 548.899506742  1137.36734867 L 541.016456873  1160.66347545 L 528.385451777  1229.86194936 L 520.684014566  1252.76078632 L 511.2504791  1275.00212797 L 490.808055389  1316.84070599 L 489.552599266  1341.68130527 L 474.008252413  1361.09791732 L 127.256221794  2271.42093775 L -146.557637355  2198.08519447 C -234.72154237  2174.47219868  -332.207591488  2174.47219868  -420.371496504  2198.08519447 L -531.496062992  1206.49606299 L -626.083412143  361.417322835 " id="C.seamline" />
      <path style="fill:none;stroke:#008000;stroke-width:4;stroke-linejoin:miter;stroke-miterlimit:4" d="M -4.125,-56.21875 C -79.725138,-56.080719 -154.9443,-34.429905 -219.125,5.46875 -293.33572,50.541692 -352.09416,115.4768 -411.35511,177.79274 -451.44624,219.11624 -492.69613,261.95185 -545.28368,287.07375 -574.66344,301.30171 -607.61402,306.56756 -640.09375,305.15625 -656.39583,305.15625 -672.69792,305.15625 -689,305.15625 -615.74708,959.79951 -542.40729,1614.433 -469.03125,2269.0625 -422.96783,2257.3701 -377.42261,2242.597 -329.875,2238.8438 -267.33384,2232.7099 -203.85626,2239.2324 -143.58137,2257.1248 -41.803779,2284.3731 59.967149,2311.6463 161.75,2338.875 282.29983,2022.3598 402.877,1705.8549 523.4375,1389.3438 530.37398,1380.0477 538.89186,1371.3528 544.86398,1361.6888 545.94813,1350.9705 544.95249,1339.7154 547.31473,1329.3277 560.94142,1302.3752 573.68578,1274.8927 582.32462,1245.8854 587.84386,1221.4076 590.9044,1196.3012 596.61734,1171.8769 599.59403,1162.162 603.74368,1152.578 606.02045,1142.7867 604.72156,1127.9091 601.54047,1113.021 604.51958,1098.1462 632.55414,833.81613 660.59385,569.48664 688.625,305.15625 653.30865,304.72813 617.83775,306.09608 582.65625,304.28125 577.02881,304.29559 571.97743,302.3753 568.375,297.8125 545.46845,274.23869 525.2474,248.24229 502.15445,224.83803 426.96811,146.55906 342.71067,76.250399 248.71875,21.625 171.8222,-22.286381 85.771341,-56.986969 -4.125,-56.21875 z" id="C.cuttingline" inkscape:connector-curvature="0" />
      <g id="C.info" transform="">
        <text style="font-size:12; vertical-align:top; fill-opacity:1.0; fill:#000000; text-anchor:start; stroke:none; font-weight:normal; font-style:normal; text-align:right; " transform="" id="C.info.lineSeamly Patterns" y="783.956692913" x="-367.087167684">
Seamly Patterns</text>
        <text style="font-size:12; vertical-align:top; fill-opacity:1.0; fill:#000000; text-anchor:start; stroke:none; font-weight:normal; font-style:normal; text-align:right; " transform="" id="C.info.lineDesigner:S.L.Spencer" y="798.356692913" x="-367.087167684">
Designer:S.L.Spencer</text>
        <text style="font-size:12; vertical-align:top; fill-opacity:1.0; fill:#000000; text-anchor:start; stroke:none; font-weight:normal; font-style:normal; text-align:right; " transform="" id="C.info.lineClient:DressFormLg" y="812.756692913" x="-367.087167684">
Client:DressFormLg</text>
        <text style="font-size:12; vertical-align:top; fill-opacity:1.0; fill:#000000; text-anchor:start; stroke:none; font-weight:normal; font-style:normal; text-align:right; " transform="" id="C.info.lineBlock_W_Bodice-Long_Spencer" y="827.156692913" x="-367.087167684">
Block_W_Bodice-Long_Spencer</text>
        <text style="font-size:12; vertical-align:top; fill-opacity:1.0; fill:#000000; text-anchor:start; stroke:none; font-weight:normal; font-style:normal; text-align:right; " transform="" id="C.info.linePattern Piece C" y="841.556692913" x="-367.087167684">
Pattern Piece C</text>
        <text style="font-size:12; vertical-align:top; fill-opacity:1.0; fill:#000000; text-anchor:start; stroke:none; font-weight:normal; font-style:normal; text-align:right; " transform="" id="C.info.lineCut 2 Fabric" y="855.956692913" x="-367.087167684">
Cut 2 Fabric</text>
      </g>
    </g>
  </g>
  <g inkscape:label="Label-notes" id="notes" inkscape:groupmode="layer" transform="translate(88.582677,88.582677)">
    <g id="document.titleblock">
      <text style="font-size:40; vertical-align:top; fill-opacity:1.0; fill:#000000; text-anchor:right; stroke:none; font-weight:normal; font-style:normal; text-align:right; " transform="" id="company" y="0.0" x="0.0">
Seamly Patterns</text>
      <text style="font-size:40; vertical-align:top; fill-opacity:1.0; fill:#000000; text-anchor:right; stroke:none; font-weight:normal; font-style:normal; text-align:right; " transform="" id="designer" y="44.0" x="0.0">
S.L.Spencer</text>
      <text style="font-size:40; vertical-align:top; fill-opacity:1.0; fill:#000000; text-anchor:right; stroke:none; font-weight:normal; font-style:normal; text-align:right; " transform="" id="pattern_number" y="88.0" x="0.0">
Block_W_Bodice-Long_Spencer</text>
      <text style="font-size:40; vertical-align:top; fill-opacity:1.0; fill:#000000; text-anchor:right; stroke:none; font-weight:normal; font-style:normal; text-align:right; " transform="" id="pattern_name" y="132.0" x="0.0">
Block Women Bodice-Long - Spencer</text>
      <text style="font-size:40; vertical-align:top; fill-opacity:1.0; fill:#000000; text-anchor:right; stroke:none; font-weight:normal; font-style:normal; text-align:right; " transform="" id="client" y="176.0" x="0.0">
DressFormLg</text>
    </g>
    <g id="document.testgrid">
      <path style="stroke-linejoin:miter; stroke:green; stroke-width:4; stroke-miterlimit:4; fill:none; " d="M 1320.0  0.0 L 1320.0  212.598425197 M 1355.43307087  0.0 L 1355.43307087  212.598425197 M 1390.86614173  0.0 L 1390.86614173  212.598425197 M 1426.2992126  0.0 L 1426.2992126  212.598425197 M 1461.73228346  0.0 L 1461.73228346  212.598425197 M 1497.16535433  0.0 L 1497.16535433  212.598425197 M 1532.5984252  0.0 L 1532.5984252  212.598425197 M 1320.0  0.0 L 1532.5984252  0.0 M 1320.0  35.4330708661 L 1532.5984252  35.4330708661 M 1320.0  70.8661417323 L 1532.5984252  70.8661417323 M 1320.0  106.299212598 L 1532.5984252  106.299212598 M 1320.0  141.732283465 L 1532.5984252  141.732283465 M 1320.0  177.165354331 L 1532.5984252  177.165354331 M 1320.0  212.598425197 L 1532.5984252  212.598425197 M 1709.76377953  0.0 L 1709.76377953  270.0 M 1799.76377953  0.0 L 1799.76377953  270.0 M 1889.76377953  0.0 L 1889.76377953  270.0 M 1979.76377953  0.0 L 1979.76377953  270.0 M 1709.76377953  0.0 L 1979.76377953  0.0 M 1709.76377953  90.0 L 1979.76377953  90.0 M 1709.76377953  180.0 L 1979.76377953  180.0 M 1709.76377953  270.0 L 1979.76377953  270.0 " id="testgrid" />
    </g>
    <g id="document.bodice.Bodice Front.notes" transform=" translate(1218.722868, 753.637233)" />
    <g id="document.bodice.Bodice Back.notes" transform=" translate(1389.972868, 580.552283)" />
    <g id="document.bodice.Sleeve.notes" transform=" translate(628.583412, 2895.503071)" />
  </g>
  <g inkscape:label="Label-reference" id="reference" inkscape:groupmode="layer" transform="translate(88.582677,88.582677)">
    <g id="document.bodice.Bodice Front.reference" transform=" translate(1218.722868, 753.637233)">
      <circle style="stroke:gray; stroke-width:1; fill:none; " transform="" cy="0.0" cx="-199.549162325" r="5" id="A.a1.inpoint" d="M -194.54916,0 C -194.54916,2.7614237 -196.78774,5 -199.54916,5 -202.31059,5 -204.54916,2.7614237 -204.54916,0 -204.54916,-2.7614237 -202.31059,-5 -199.54916,-5 -196.78774,-5 -194.54916,-2.7614237 -194.54916,0 z" />
      <text style="font-size:25; vertical-align:top; fill-opacity:1.0; fill:gray; text-anchor:right; stroke:none; font-weight:normal; font-style:italic; text-align:right; " transform="" id="A.a1.inpoint.text" y="-7.0" x="-192.549162325">
a1.in</text>
      <circle style="stroke:red; stroke-width:1; fill:red; " transform="" cy="0.0" cx="0.0" r="5" id="A.a1" d="M 5,0 C 5,2.7614237 2.7614237,5 0,5 -2.7614237,5 -5,2.7614237 -5,0 -5,-2.7614237 -2.7614237,-5 0,-5 2.7614237,-5 5,-2.7614237 5,0 z" />
      <text style="font-size:30; vertical-align:top; fill-opacity:1.0; fill:darkblue; text-anchor:right; stroke:none; font-weight:normal; font-style:italic; text-align:right; " transform="" id="A.a1.text" y="-7.0" x="7.0">
a1</text>
      <circle style="stroke:red; stroke-width:1; fill:red; " transform="" cy="1240.15748031" cx="0.0" r="5" id="A.a2" d="M 5,1240.1575 C 5,1242.9189 2.7614237,1245.1575 0,1245.1575 -2.7614237,1245.1575 -5,1242.9189 -5,1240.1575 -5,1237.396 -2.7614237,1235.1575 0,1235.1575 2.7614237,1235.1575 5,1237.396 5,1240.1575 z" />
      <text style="font-size:30; vertical-align:top; fill-opacity:1.0; fill:darkblue; text-anchor:right; stroke:none; font-weight:normal; font-style:italic; text-align:right; " transform="" id="A.a2.text" y="1233.15748031" x="7.0">
a2</text>
      <circle style="stroke:red; stroke-width:1; fill:red; " transform="" cy="637.795275591" cx="0.0" r="5" id="A.a3" d="M 5,637.79529 C 5,640.55671 2.7614237,642.79529 0,642.79529 -2.7614237,642.79529 -5,640.55671 -5,637.79529 -5,635.03386 -2.7614237,632.79529 0,632.79529 2.7614237,632.79529 5,635.03386 5,637.79529 z" />
      <text style="font-size:30; vertical-align:top; fill-opacity:1.0; fill:darkblue; text-anchor:right; stroke:none; font-weight:normal; font-style:italic; text-align:right; " transform="" id="A.a3.text" y="630.795275591" x="7.0">
a3</text>
      <circle style="stroke:red; stroke-width:1; fill:red; " transform="" cy="637.795275591" cx="-354.330708661" r="5" id="A.a4" d="M -349.33072,637.79529 C -349.33072,640.55671 -351.5693,642.79529 -354.33072,642.79529 -357.09214,642.79529 -359.33072,640.55671 -359.33072,637.79529 -359.33072,635.03386 -357.09214,632.79529 -354.33072,632.79529 -351.5693,632.79529 -349.33072,635.03386 -349.33072,637.79529 z" />
      <text style="font-size:30; vertical-align:top; fill-opacity:1.0; fill:darkblue; text-anchor:right; stroke:none; font-weight:normal; font-style:italic; text-align:right; " transform="" id="A.a4.text" y="630.795275591" x="-347.330708661">
a4</text>
      <circle style="stroke:gray; stroke-width:1; fill:none; " transform="" cy="-132.813565675" cx="-699.176509364" r="5" id="A.a5.inpoint" d="M -694.17651,-132.81357 C -694.17651,-130.05214 -696.41509,-127.81357 -699.17651,-127.81357 -701.93794,-127.81357 -704.17651,-130.05214 -704.17651,-132.81357 -704.17651,-135.57499 -701.93794,-137.81357 -699.17651,-137.81357 -696.41509,-137.81357 -694.17651,-135.57499 -694.17651,-132.81357 z" />
      <text style="font-size:25; vertical-align:top; fill-opacity:1.0; fill:gray; text-anchor:right; stroke:none; font-weight:normal; font-style:italic; text-align:right; " transform="" id="A.a5.inpoint.text" y="-139.813565675" x="-692.176509364">
a5.in</text>
      <circle style="stroke:red; stroke-width:1; fill:red; " transform="" cy="-223.334513127" cx="-717.519685039" r="5" id="A.a5" d="M -712.51971,-223.33452 C -712.51971,-220.57309 -714.75829,-218.33452 -717.51971,-218.33452 -720.28114,-218.33452 -722.51971,-220.57309 -722.51971,-223.33452 -722.51971,-226.09594 -720.28114,-228.33452 -717.51971,-228.33452 -714.75829,-228.33452 -712.51971,-226.09594 -712.51971,-223.33452 z" />
      <text style="font-size:30; vertical-align:top; fill-opacity:1.0; fill:darkblue; text-anchor:right; stroke:none; font-weight:normal; font-style:italic; text-align:right; " transform="" id="A.a5.text" y="-230.334513127" x="-710.519685039">
a5</text>
      <circle style="stroke:gray; stroke-width:1; fill:none; " transform="" cy="-157.40861669" cx="-266.065549767" r="5" id="A.a6.outpoint" d="M -261.06555,-157.40862 C -261.06555,-154.64719 -263.30413,-152.40862 -266.06555,-152.40862 -268.82698,-152.40862 -271.06555,-154.64719 -271.06555,-157.40862 -271.06555,-160.17004 -268.82698,-162.40862 -266.06555,-162.40862 -263.30413,-162.40862 -261.06555,-160.17004 -261.06555,-157.40862 z" />
      <text style="font-size:25; vertical-align:top; fill-opacity:1.0; fill:gray; text-anchor:right; stroke:none; font-weight:normal; font-style:italic; text-align:right; " transform="" id="A.a6.outpoint.text" y="-164.40861669" x="-259.065549767">
a6.out</text>
      <circle style="stroke:red; stroke-width:1; fill:red; " transform="" cy="-314.81723338" cx="-266.065549767" r="5" id="A.a6" d="M -261.06555,-314.81723 C -261.06555,-312.05581 -263.30413,-309.81723 -266.06555,-309.81723 -268.82698,-309.81723 -271.06555,-312.05581 -271.06555,-314.81723 -271.06555,-317.57865 -268.82698,-319.81723 -266.06555,-319.81723 -263.30413,-319.81723 -261.06555,-317.57865 -261.06555,-314.81723 z" />
      <text style="font-size:30; vertical-align:top; fill-opacity:1.0; fill:darkblue; text-anchor:right; stroke:none; font-weight:normal; font-style:italic; text-align:right; " transform="" id="A.a6.text" y="-321.81723338" x="-259.065549767">
a6</text>
      <circle style="stroke:gray; stroke-width:1; fill:none; " transform="" cy="172.932654928" cx="-574.500779984" r="5" id="A.a7.outpoint" d="M -569.50079,172.93265 C -569.50079,175.69407 -571.73937,177.93265 -574.50079,177.93265 -577.26222,177.93265 -579.50079,175.69407 -579.50079,172.93265 -579.50079,170.17122 -577.26222,167.93265 -574.50079,167.93265 -571.73937,167.93265 -569.50079,170.17122 -569.50079,172.93265 z" />
      <text style="font-size:25; vertical-align:top; fill-opacity:1.0; fill:gray; text-anchor:right; stroke:none; font-weight:normal; font-style:italic; text-align:right; " transform="" id="A.a7.outpoint.text" y="165.932654928" x="-567.500779984">
a7.out</text>
      <circle style="stroke:gray; stroke-width:1; fill:none; " transform="" cy="411.388520832" cx="-725.291567763" r="5" id="A.a7.inpoint" d="M -720.29156,411.38852 C -720.29156,414.14994 -722.53014,416.38852 -725.29156,416.38852 -728.05299,416.38852 -730.29156,414.14994 -730.29156,411.38852 -730.29156,408.6271 -728.05299,406.38852 -725.29156,406.38852 -722.53014,406.38852 -720.29156,408.6271 -720.29156,411.38852 z" />
      <text style="font-size:25; vertical-align:top; fill-opacity:1.0; fill:gray; text-anchor:right; stroke:none; font-weight:normal; font-style:italic; text-align:right; " transform="" id="A.a7.inpoint.text" y="404.388520832" x="-718.291567763">
a7.in</text>
      <circle style="stroke:red; stroke-width:1; fill:red; " transform="" cy="329.057360546" cx="-673.228346457" r="5" id="A.a7" d="M -668.22833,329.05737 C -668.22833,331.8188 -670.46691,334.05737 -673.22833,334.05737 -675.98976,334.05737 -678.22833,331.8188 -678.22833,329.05737 -678.22833,326.29595 -675.98976,324.05737 -673.22833,324.05737 -670.46691,324.05737 -668.22833,326.29595 -668.22833,329.05737 z" />
      <text style="font-size:30; vertical-align:top; fill-opacity:1.0; fill:darkblue; text-anchor:right; stroke:none; font-weight:normal; font-style:italic; text-align:right; " transform="" id="A.a7.text" y="322.057360546" x="-666.228346457">
a7</text>
      <circle style="stroke:red; stroke-width:1; fill:red; " transform="" cy="329.057360546" cx="0.0" r="5" id="A.a8" d="M 5,329.05737 C 5,331.8188 2.7614237,334.05737 0,334.05737 -2.7614237,334.05737 -5,331.8188 -5,329.05737 -5,326.29595 -2.7614237,324.05737 0,324.05737 2.7614237,324.05737 5,326.29595 5,329.05737 z" />
      <text style="font-size:30; vertical-align:top; fill-opacity:1.0; fill:darkblue; text-anchor:right; stroke:none; font-weight:normal; font-style:italic; text-align:right; " transform="" id="A.a8.text" y="322.057360546" x="7.0">
a8</text>
      <circle style="stroke:red; stroke-width:1; fill:red; " transform="" cy="329.057360546" cx="-921.25984252" r="5" id="A.a9" d="M -916.25983,329.05737 C -916.25983,331.8188 -918.4984,334.05737 -921.25983,334.05737 -924.02125,334.05737 -926.25983,331.8188 -926.25983,329.05737 -926.25983,326.29595 -924.02125,324.05737 -921.25983,324.05737 -918.4984,324.05737 -916.25983,326.29595 -916.25983,329.05737 z" />
      <text style="font-size:30; vertical-align:top; fill-opacity:1.0; fill:darkblue; text-anchor:right; stroke:none; font-weight:normal; font-style:italic; text-align:right; " transform="" id="A.a9.text" y="322.057360546" x="-914.25984252">
a9</text>
      <circle style="stroke:red; stroke-width:1; fill:red; " transform="" cy="422.953552796" cx="-954.852021949" r="5" id="A.a10" d="M -949.85205,422.95355 C -949.85205,425.71498 -952.09063,427.95355 -954.85205,427.95355 -957.61347,427.95355 -959.85205,425.71498 -959.85205,422.95355 -959.85205,420.19213 -957.61347,417.95355 -954.85205,417.95355 -952.09063,417.95355 -949.85205,420.19213 -949.85205,422.95355 z" />
      <text style="font-size:30; vertical-align:top; fill-opacity:1.0; fill:darkblue; text-anchor:right; stroke:none; font-weight:normal; font-style:italic; text-align:right; " transform="" id="A.a10.text" y="415.953552796" x="-947.852021949">
a10</text>
      <circle style="stroke:gray; stroke-width:1; fill:none; " transform="" cy="448.612448116" cx="-860.573954726" r="5" id="A.a11.outpoint" d="M -855.57397,448.61246 C -855.57397,451.37388 -857.81255,453.61246 -860.57397,453.61246 -863.3354,453.61246 -865.57397,451.37388 -865.57397,448.61246 -865.57397,445.85103 -863.3354,443.61246 -860.57397,443.61246 -857.81255,443.61246 -855.57397,445.85103 -855.57397,448.61246 z" />
      <text style="font-size:25; vertical-align:top; fill-opacity:1.0; fill:gray; text-anchor:right; stroke:none; font-weight:normal; font-style:italic; text-align:right; " transform="" id="A.a11.outpoint.text" y="441.612448116" x="-853.573954726">
a11.out</text>
      <circle style="stroke:red; stroke-width:1; fill:red; " transform="" cy="415.799328021" cx="-952.292535812" r="5" id="A.a11" d="M -947.29254,415.79932 C -947.29254,418.56074 -949.53112,420.79932 -952.29254,420.79932 -955.05397,420.79932 -957.29254,418.56074 -957.29254,415.79932 -957.29254,413.03789 -955.05397,410.79932 -952.29254,410.79932 -949.53112,410.79932 -947.29254,413.03789 -947.29254,415.79932 z" />
      <text style="font-size:30; vertical-align:top; fill-opacity:1.0; fill:darkblue; text-anchor:right; stroke:none; font-weight:normal; font-style:italic; text-align:right; " transform="" id="A.a11.text" y="408.799328021" x="-945.292535812">
a11</text>
      <circle style="stroke:red; stroke-width:1; fill:red; " transform="" cy="1240.15748031" cx="-850.393700787" r="5" id="A.a12" d="M -845.39368,1240.1575 C -845.39368,1242.9189 -847.63225,1245.1575 -850.39368,1245.1575 -853.1551,1245.1575 -855.39368,1242.9189 -855.39368,1240.1575 -855.39368,1237.396 -853.1551,1235.1575 -850.39368,1235.1575 -847.63225,1235.1575 -845.39368,1237.396 -845.39368,1240.1575 z" />
      <text style="font-size:30; vertical-align:top; fill-opacity:1.0; fill:darkblue; text-anchor:right; stroke:none; font-weight:normal; font-style:italic; text-align:right; " transform="" id="A.a12.text" y="1233.15748031" x="-843.393700787">
a12</text>
      <circle style="stroke:red; stroke-width:1; fill:red; " transform="" cy="1240.15748031" cx="-354.330708661" r="5" id="A.a13" d="M -349.33072,1240.1575 C -349.33072,1242.9189 -351.5693,1245.1575 -354.33072,1245.1575 -357.09214,1245.1575 -359.33072,1242.9189 -359.33072,1240.1575 -359.33072,1237.396 -357.09214,1235.1575 -354.33072,1235.1575 -351.5693,1235.1575 -349.33072,1237.396 -349.33072,1240.1575 z" />
      <text style="font-size:30; vertical-align:top; fill-opacity:1.0; fill:darkblue; text-anchor:right; stroke:none; font-weight:normal; font-style:italic; text-align:right; " transform="" id="A.a13.text" y="1233.15748031" x="-347.330708661">
a13</text>
      <circle style="stroke:red; stroke-width:1; fill:red; " transform="" cy="637.795275591" cx="-1031.71351684" r="5" id="A.a14" d="M -1026.7135,637.79529 C -1026.7135,640.55671 -1028.9521,642.79529 -1031.7135,642.79529 -1034.4749,642.79529 -1036.7135,640.55671 -1036.7135,637.79529 -1036.7135,635.03386 -1034.4749,632.79529 -1031.7135,632.79529 -1028.9521,632.79529 -1026.7135,635.03386 -1026.7135,637.79529 z" />
      <text style="font-size:30; vertical-align:top; fill-opacity:1.0; fill:darkblue; text-anchor:right; stroke:none; font-weight:normal; font-style:italic; text-align:right; " transform="" id="A.a14.text" y="630.795275591" x="-1024.71351684">
a14</text>
      <circle style="stroke:red; stroke-width:1; fill:red; " transform="" cy="996.303264198" cx="-1159.97286785" r="5" id="A.a15" d="M -1154.9729,996.30328 C -1154.9729,999.06471 -1157.2115,1001.3033 -1159.9729,1001.3033 -1162.7343,1001.3033 -1164.9729,999.06471 -1164.9729,996.30328 -1164.9729,993.54186 -1162.7343,991.30328 -1159.9729,991.30328 -1157.2115,991.30328 -1154.9729,993.54186 -1154.9729,996.30328 z" />
      <text style="font-size:30; vertical-align:top; fill-opacity:1.0; fill:darkblue; text-anchor:right; stroke:none; font-weight:normal; font-style:italic; text-align:right; " transform="" id="A.a15.text" y="989.303264198" x="-1152.97286785">
a15</text>
      <circle style="stroke:red; stroke-width:1; fill:red; " transform="" cy="724.427188327" cx="-354.330708661" r="5" id="A.aD1" d="M -349.33072,724.42719 C -349.33072,727.18861 -351.5693,729.42719 -354.33072,729.42719 -357.09214,729.42719 -359.33072,727.18861 -359.33072,724.42719 -359.33072,721.66576 -357.09214,719.42719 -354.33072,719.42719 -351.5693,719.42719 -349.33072,721.66576 -349.33072,724.42719 z" />
      <text style="font-size:30; vertical-align:top; fill-opacity:1.0; fill:darkblue; text-anchor:right; stroke:none; font-weight:normal; font-style:italic; text-align:right; " transform="" id="A.aD1.text" y="717.427188327" x="-347.330708661">
aD1</text>
      <circle style="stroke:red; stroke-width:1; fill:red; " transform="" cy="1240.15748031" cx="-284.265730014" r="5" id="A.aD1.i" d="M -279.26572,1240.1575 C -279.26572,1242.9189 -281.50429,1245.1575 -284.26572,1245.1575 -287.02714,1245.1575 -289.26572,1242.9189 -289.26572,1240.1575 -289.26572,1237.396 -287.02714,1235.1575 -284.26572,1235.1575 -281.50429,1235.1575 -279.26572,1237.396 -279.26572,1240.1575 z" />
      <text style="font-size:30; vertical-align:top; fill-opacity:1.0; fill:darkblue; text-anchor:right; stroke:none; font-weight:normal; font-style:italic; text-align:right; " transform="" id="A.aD1.i.text" y="1233.15748031" x="-277.265730014">
aD1.i</text>
      <circle style="stroke:gray; stroke-width:1; fill:none; " transform="" cy="1214.98482128" cx="-515.330496042" r="5" id="A.aD1.o.outpoint" d="M -510.33051,1214.9849 C -510.33051,1217.7463 -512.56908,1219.9849 -515.33051,1219.9849 -518.09193,1219.9849 -520.33051,1217.7463 -520.33051,1214.9849 -520.33051,1212.2234 -518.09193,1209.9849 -515.33051,1209.9849 -512.56908,1209.9849 -510.33051,1212.2234 -510.33051,1214.9849 z" />
      <text style="font-size:25; vertical-align:top; fill-opacity:1.0; fill:gray; text-anchor:right; stroke:none; font-weight:normal; font-style:italic; text-align:right; " transform="" id="A.aD1.o.outpoint.text" y="1207.98482128" x="-508.330496042">
aD1.o.out</text>
      <circle style="stroke:red; stroke-width:1; fill:red; " transform="" cy="1240.15748031" cx="-424.395687309" r="5" id="A.aD1.o" d="M -419.39569,1240.1575 C -419.39569,1242.9189 -421.63427,1245.1575 -424.39569,1245.1575 -427.15711,1245.1575 -429.39569,1242.9189 -429.39569,1240.1575 -429.39569,1237.396 -427.15711,1235.1575 -424.39569,1235.1575 -421.63427,1235.1575 -419.39569,1237.396 -419.39569,1240.1575 z" />
      <text style="font-size:30; vertical-align:top; fill-opacity:1.0; fill:darkblue; text-anchor:right; stroke:none; font-weight:normal; font-style:italic; text-align:right; " transform="" id="A.aD1.o.text" y="1233.15748031" x="-417.395687309">
aD1.o</text>
      <circle style="stroke:red; stroke-width:1; fill:red; " transform="" cy="637.795275591" cx="-447.860031437" r="5" id="A.aD2" d="M -442.86005,637.79529 C -442.86005,640.55671 -445.09862,642.79529 -447.86005,642.79529 -450.62147,642.79529 -452.86005,640.55671 -452.86005,637.79529 -452.86005,635.03386 -450.62147,632.79529 -447.86005,632.79529 -445.09862,632.79529 -442.86005,635.03386 -442.86005,637.79529 z" />
      <text style="font-size:30; vertical-align:top; fill-opacity:1.0; fill:darkblue; text-anchor:right; stroke:none; font-weight:normal; font-style:italic; text-align:right; " transform="" id="A.aD2.text" y="630.795275591" x="-440.860031437">
aD2</text>
      <circle style="stroke:red; stroke-width:1; fill:red; " transform="" cy="562.151903579" cx="-1004.6514426" r="5" id="A.aD2.i" d="M -999.65143,562.15192 C -999.65143,564.91334 -1001.89,567.15192 -1004.6514,567.15192 -1007.4129,567.15192 -1009.6514,564.91334 -1009.6514,562.15192 -1009.6514,559.39049 -1007.4129,557.15192 -1004.6514,557.15192 -1001.89,557.15192 -999.65143,559.39049 -999.65143,562.15192 z" />
      <text style="font-size:30; vertical-align:top; fill-opacity:1.0; fill:darkblue; text-anchor:right; stroke:none; font-weight:normal; font-style:italic; text-align:right; " transform="" id="A.aD2.i.text" y="555.151903579" x="-997.651442603">
aD2.i</text>
      <circle style="stroke:red; stroke-width:1; fill:red; " transform="" cy="713.438647602" cx="-1004.6514426" r="5" id="A.aD2.o" d="M -999.65143,713.43866 C -999.65143,716.20008 -1001.89,718.43866 -1004.6514,718.43866 -1007.4129,718.43866 -1009.6514,716.20008 -1009.6514,713.43866 -1009.6514,710.67724 -1007.4129,708.43866 -1004.6514,708.43866 -1001.89,708.43866 -999.65143,710.67724 -999.65143,713.43866 z" />
      <text style="font-size:30; vertical-align:top; fill-opacity:1.0; fill:darkblue; text-anchor:right; stroke:none; font-weight:normal; font-style:italic; text-align:right; " transform="" id="A.aD2.o.text" y="706.438647602" x="-997.651442603">
aD2.o</text>
      <circle style="stroke:gray; stroke-width:1; fill:none; " transform="" cy="1182.32340614" cx="-892.663565283" r="5" id="A.a16.inpoint" d="M -887.66357,1182.3234 C -887.66357,1185.0848 -889.90215,1187.3234 -892.66357,1187.3234 -895.425,1187.3234 -897.66357,1185.0848 -897.66357,1182.3234 -897.66357,1179.5619 -895.425,1177.3234 -892.66357,1177.3234 -889.90215,1177.3234 -887.66357,1179.5619 -887.66357,1182.3234 z" />
      <text style="font-size:25; vertical-align:top; fill-opacity:1.0; fill:gray; text-anchor:right; stroke:none; font-weight:normal; font-style:italic; text-align:right; " transform="" id="A.a16.inpoint.text" y="1175.32340614" x="-885.663565283">
a16.in</text>
      <circle style="stroke:red; stroke-width:1; fill:red; " transform="" cy="1174.18662555" cx="-986.666730146" r="5" id="A.a16" d="M -981.66675,1174.1866 C -981.66675,1176.9481 -983.90532,1179.1866 -986.66675,1179.1866 -989.42817,1179.1866 -991.66675,1176.9481 -991.66675,1174.1866 -991.66675,1171.4252 -989.42817,1169.1866 -986.66675,1169.1866 -983.90532,1169.1866 -981.66675,1171.4252 -981.66675,1174.1866 z" />
      <text style="font-size:30; vertical-align:top; fill-opacity:1.0; fill:darkblue; text-anchor:right; stroke:none; font-weight:normal; font-style:italic; text-align:right; " transform="" id="A.a16.text" y="1167.18662555" x="-979.666730146">
a16</text>
      <circle style="stroke:red; stroke-width:1; fill:red; " transform="" cy="1240.15748031" cx="-990.523658082" r="5" id="A.a17" d="M -985.52368,1240.1575 C -985.52368,1242.9189 -987.76226,1245.1575 -990.52368,1245.1575 -993.28511,1245.1575 -995.52368,1242.9189 -995.52368,1240.1575 -995.52368,1237.396 -993.28511,1235.1575 -990.52368,1235.1575 -987.76226,1235.1575 -985.52368,1237.396 -985.52368,1240.1575 z" />
      <text style="font-size:30; vertical-align:top; fill-opacity:1.0; fill:darkblue; text-anchor:right; stroke:none; font-weight:normal; font-style:italic; text-align:right; " transform="" id="A.a17.text" y="1233.15748031" x="-983.523658082">
a17</text>
      <circle style="stroke:red; stroke-width:1; fill:red; " transform="" cy="1931.1023622" cx="0.0" r="5" id="A.a18" d="M 5,1931.1024 C 5,1933.8638 2.7614237,1936.1024 0,1936.1024 -2.7614237,1936.1024 -5,1933.8638 -5,1931.1024 -5,1928.341 -2.7614237,1926.1024 0,1926.1024 2.7614237,1926.1024 5,1928.341 5,1931.1024 z" />
      <text style="font-size:30; vertical-align:top; fill-opacity:1.0; fill:darkblue; text-anchor:right; stroke:none; font-weight:normal; font-style:italic; text-align:right; " transform="" id="A.a18.text" y="1924.1023622" x="7.0">
a18</text>
      <circle style="stroke:red; stroke-width:1; fill:red; " transform="" cy="1931.1023622" cx="-921.25984252" r="5" id="A.a19" d="M -916.25983,1931.1024 C -916.25983,1933.8638 -918.4984,1936.1024 -921.25983,1936.1024 -924.02125,1936.1024 -926.25983,1933.8638 -926.25983,1931.1024 -926.25983,1928.341 -924.02125,1926.1024 -921.25983,1926.1024 -918.4984,1926.1024 -916.25983,1928.341 -916.25983,1931.1024 z" />
      <text style="font-size:30; vertical-align:top; fill-opacity:1.0; fill:darkblue; text-anchor:right; stroke:none; font-weight:normal; font-style:italic; text-align:right; " transform="" id="A.a19.text" y="1924.1023622" x="-914.25984252">
a19</text>
      <circle style="stroke:red; stroke-width:1; fill:red; " transform="" cy="1931.1023622" cx="-354.330708661" r="5" id="A.a20" d="M -349.33072,1931.1024 C -349.33072,1933.8638 -351.5693,1936.1024 -354.33072,1936.1024 -357.09214,1936.1024 -359.33072,1933.8638 -359.33072,1931.1024 -359.33072,1928.341 -357.09214,1926.1024 -354.33072,1926.1024 -351.5693,1926.1024 -349.33072,1928.341 -349.33072,1931.1024 z" />
      <text style="font-size:30; vertical-align:top; fill-opacity:1.0; fill:darkblue; text-anchor:right; stroke:none; font-weight:normal; font-style:italic; text-align:right; " transform="" id="A.a20.text" y="1924.1023622" x="-347.330708661">
a20</text>
      <circle style="stroke:red; stroke-width:1; fill:red; " transform="" cy="1879.60197782" cx="-918.915824676" r="5" id="A.a21" d="M -913.91583,1879.6019 C -913.91583,1882.3634 -916.15441,1884.6019 -918.91583,1884.6019 -921.67726,1884.6019 -923.91583,1882.3634 -923.91583,1879.6019 -923.91583,1876.8405 -921.67726,1874.6019 -918.91583,1874.6019 -916.15441,1874.6019 -913.91583,1876.8405 -913.91583,1879.6019 z" />
      <text style="font-size:30; vertical-align:top; fill-opacity:1.0; fill:darkblue; text-anchor:right; stroke:none; font-weight:normal; font-style:italic; text-align:right; " transform="" id="A.a21.text" y="1872.60197782" x="-911.915824676">
a21</text>
      <circle style="stroke:red; stroke-width:1; fill:red; " transform="" cy="1832.39595051" cx="-354.330708661" r="5" id="A.aD1.d" d="M -349.33072,1832.396 C -349.33072,1835.1574 -351.5693,1837.396 -354.33072,1837.396 -357.09214,1837.396 -359.33072,1835.1574 -359.33072,1832.396 -359.33072,1829.6346 -357.09214,1827.396 -354.33072,1827.396 -351.5693,1827.396 -349.33072,1829.6346 -349.33072,1832.396 z" />
      <text style="font-size:30; vertical-align:top; fill-opacity:1.0; fill:darkblue; text-anchor:right; stroke:none; font-weight:normal; font-style:italic; text-align:right; " transform="" id="A.aD1.d.text" y="1825.39595051" x="-347.330708661">
aD1.d</text>
      <path style="stroke-linejoin:miter; stroke-dashoffset:0; stroke:gray; stroke-miterlimit:4; stroke-dasharray:6,6; stroke-width:2; fill:none; " transform="" d="M 0.0  0.0 L 0.0  1240.15748031 L -717.519685039  -223.334513127 M 0.0  329.057360546 L -921.25984252  329.057360546 M 0.0  0.0 L -717.519685039  -223.334513127 M 0.0  637.795275591 L -354.330708661  637.795275591 M 0.0  1240.15748031 L -850.393700787  1240.15748031 M -354.330708661  637.795275591 L -266.065549767  -314.81723338 L -673.228346457  329.057360546 M -952.292535812  415.799328021 L -1159.97286785  996.303264198 M -354.330708661  637.795275591 L -954.852021949  422.953552796 M -1031.71351684  637.795275591 L -354.330708661  637.795275591 L -354.330708661  1931.1023622 M 0.0  1931.1023622 L -921.25984252  1931.1023622 M -990.523658082  1240.15748031 L -424.395687309  1240.15748031 L -986.666730146  1174.18662555 M -918.915824676  1879.60197782 L -986.666730146  1174.18662555 M -952.292535812  415.799328021 C -860.573954726  448.612448116  -725.291567763  411.388520832  -673.228346457  329.057360546 C -574.500779984  172.932654928  -699.176509364  -132.813565675  -717.519685039  -223.334513127 L -266.065549767  -314.81723338 C -266.065549767  -157.40861669  -199.549162325  0.0  0.0  0.0 " id="A.gridline" />
    </g>
    <g id="document.bodice.Bodice Back.reference" transform=" translate(1389.972868, 580.552283)">
      <circle style="stroke:gray; stroke-width:1; fill:none; " transform="" cy="0.0" cx="213.353231784" r="5" id="B.b1.inpoint" d="M 218.35323,0 C 218.35323,2.7614237 216.11465,5 213.35323,5 210.5918,5 208.35323,2.7614237 208.35323,0 208.35323,-2.7614237 210.5918,-5 213.35323,-5 216.11465,-5 218.35323,-2.7614237 218.35323,0 z" />
      <text style="font-size:25; vertical-align:top; fill-opacity:1.0; fill:gray; text-anchor:right; stroke:none; font-weight:normal; font-style:italic; text-align:right; " transform="" id="B.b1.inpoint.text" y="-7.0" x="220.353231784">
b1.in</text>
      <circle style="stroke:red; stroke-width:1; fill:red; " transform="" cy="0.0" cx="0.0" r="5" id="B.b1" d="M 5,0 C 5,2.7614237 2.7614237,5 0,5 -2.7614237,5 -5,2.7614237 -5,0 -5,-2.7614237 -2.7614237,-5 0,-5 2.7614237,-5 5,-2.7614237 5,0 z" />
      <text style="font-size:30; vertical-align:top; fill-opacity:1.0; fill:darkblue; text-anchor:right; stroke:none; font-weight:normal; font-style:italic; text-align:right; " transform="" id="B.b1.text" y="-7.0" x="7.0">
b1</text>
      <circle style="stroke:red; stroke-width:1; fill:red; " transform="" cy="1346.45669291" cx="0.0" r="5" id="B.b2" d="M 5,1346.4567 C 5,1349.2181 2.7614237,1351.4567 0,1351.4567 -2.7614237,1351.4567 -5,1349.2181 -5,1346.4567 -5,1343.6952 -2.7614237,1341.4567 0,1341.4567 2.7614237,1341.4567 5,1343.6952 5,1346.4567 z" />
      <text style="font-size:30; vertical-align:top; fill-opacity:1.0; fill:darkblue; text-anchor:right; stroke:none; font-weight:normal; font-style:italic; text-align:right; " transform="" id="B.b2.text" y="1339.45669291" x="7.0">
b2</text>
      <circle style="stroke:red; stroke-width:1; fill:red; " transform="" cy="-141.732283465" cx="0.0" r="5" id="B.b3" d="M 5,-141.73228 C 5,-138.97086 2.7614237,-136.73228 0,-136.73228 -2.7614237,-136.73228 -5,-138.97086 -5,-141.73228 -5,-144.49371 -2.7614237,-146.73228 0,-146.73228 2.7614237,-146.73228 5,-144.49371 5,-141.73228 z" />
      <text style="font-size:30; vertical-align:top; fill-opacity:1.0; fill:darkblue; text-anchor:right; stroke:none; font-weight:normal; font-style:italic; text-align:right; " transform="" id="B.b3.text" y="-148.732283465" x="7.0">
b3</text>
      <circle style="stroke:red; stroke-width:1; fill:red; " transform="" cy="1346.45669291" cx="673.228346457" r="5" id="B.b4" d="M 678.22833,1346.4567 C 678.22833,1349.2181 675.98976,1351.4567 673.22833,1351.4567 670.46691,1351.4567 668.22833,1349.2181 668.22833,1346.4567 668.22833,1343.6952 670.46691,1341.4567 673.22833,1341.4567 675.98976,1341.4567 678.22833,1343.6952 678.22833,1346.4567 z" />
      <text style="font-size:30; vertical-align:top; fill-opacity:1.0; fill:darkblue; text-anchor:right; stroke:none; font-weight:normal; font-style:italic; text-align:right; " transform="" id="B.b4.text" y="1339.45669291" x="680.228346457">
b4</text>
      <circle style="stroke:gray; stroke-width:1; fill:none; " transform="" cy="129.054339455" cx="670.045495751" r="5" id="B.b5.inpoint" d="M 675.04547,129.05434 C 675.04547,131.81576 672.80689,134.05434 670.04547,134.05434 667.28405,134.05434 665.04547,131.81576 665.04547,129.05434 665.04547,126.29291 667.28405,124.05434 670.04547,124.05434 672.80689,124.05434 675.04547,126.29291 675.04547,129.05434 z" />
      <text style="font-size:25; vertical-align:top; fill-opacity:1.0; fill:gray; text-anchor:right; stroke:none; font-weight:normal; font-style:italic; text-align:right; " transform="" id="B.b5.inpoint.text" y="122.054339455" x="677.045495751">
b5.in</text>
      <circle style="stroke:red; stroke-width:1; fill:red; " transform="" cy="37.8293872947" cx="708.661417323" r="5" id="B.b5" d="M 713.66144,37.829388 C 713.66144,40.590811 711.42286,42.829388 708.66144,42.829388 705.90001,42.829388 703.66144,40.590811 703.66144,37.829388 703.66144,35.067964 705.90001,32.829388 708.66144,32.829388 711.42286,32.829388 713.66144,35.067964 713.66144,37.829388 z" />
      <text style="font-size:30; vertical-align:top; fill-opacity:1.0; fill:darkblue; text-anchor:right; stroke:none; font-weight:normal; font-style:italic; text-align:right; " transform="" id="B.b5.text" y="30.8293872947" x="715.661417323">
b5</text>
      <circle style="stroke:gray; stroke-width:1; fill:none; " transform="" cy="-76.4722155244" cx="256.846103288" r="5" id="B.b6.outpoint" d="M 261.8461,-76.472214 C 261.8461,-73.71079 259.60752,-71.472214 256.8461,-71.472214 254.08468,-71.472214 251.8461,-73.71079 251.8461,-76.472214 251.8461,-79.233637 254.08468,-81.472214 256.8461,-81.472214 259.60752,-81.472214 261.8461,-79.233637 261.8461,-76.472214 z" />
      <text style="font-size:25; vertical-align:top; fill-opacity:1.0; fill:gray; text-anchor:right; stroke:none; font-weight:normal; font-style:italic; text-align:right; " transform="" id="B.b6.outpoint.text" y="-83.4722155244" x="263.846103288">
b6.out</text>
      <circle style="stroke:red; stroke-width:1; fill:red; " transform="" cy="-141.732283465" cx="284.470975712" r="5" id="B.b6" d="M 289.47098,-141.73228 C 289.47098,-138.97086 287.2324,-136.73228 284.47098,-136.73228 281.70955,-136.73228 279.47098,-138.97086 279.47098,-141.73228 279.47098,-144.49371 281.70955,-146.73228 284.47098,-146.73228 287.2324,-146.73228 289.47098,-144.49371 289.47098,-141.73228 z" />
      <text style="font-size:30; vertical-align:top; fill-opacity:1.0; fill:darkblue; text-anchor:right; stroke:none; font-weight:normal; font-style:italic; text-align:right; " transform="" id="B.b6.text" y="-148.732283465" x="291.470975712">
b6</text>
      <circle style="stroke:gray; stroke-width:1; fill:none; " transform="" cy="712.961900107" cx="649.107206559" r="5" id="B.b7.inpoint" d="M 654.10718,712.96191 C 654.10718,715.72334 651.8686,717.96191 649.10718,717.96191 646.34575,717.96191 644.10718,715.72334 644.10718,712.96191 644.10718,710.20049 646.34575,707.96191 649.10718,707.96191 651.8686,707.96191 654.10718,710.20049 654.10718,712.96191 z" />
      <text style="font-size:25; vertical-align:top; fill-opacity:1.0; fill:gray; text-anchor:right; stroke:none; font-weight:normal; font-style:italic; text-align:right; " transform="" id="B.b7.inpoint.text" y="705.961900107" x="656.107206559">
b7.in</text>
      <circle style="stroke:gray; stroke-width:1; fill:none; " transform="" cy="441.924984294" cx="533.475345126" r="5" id="B.b7.outpoint" d="M 538.47534,441.92499 C 538.47534,444.68641 536.23677,446.92499 533.47534,446.92499 530.71392,446.92499 528.47534,444.68641 528.47534,441.92499 528.47534,439.16356 530.71392,436.92499 533.47534,436.92499 536.23677,436.92499 538.47534,439.16356 538.47534,441.92499 z" />
      <text style="font-size:25; vertical-align:top; fill-opacity:1.0; fill:gray; text-anchor:right; stroke:none; font-weight:normal; font-style:italic; text-align:right; " transform="" id="B.b7.outpoint.text" y="434.924984294" x="540.475345126">
b7.out</text>
      <circle style="stroke:red; stroke-width:1; fill:red; " transform="" cy="624.156760777" cx="611.220472441" r="5" id="B.b7" d="M 616.22046,624.15674 C 616.22046,626.91816 613.98188,629.15674 611.22046,629.15674 608.45904,629.15674 606.22046,626.91816 606.22046,624.15674 606.22046,621.39531 608.45904,619.15674 611.22046,619.15674 613.98188,619.15674 616.22046,621.39531 616.22046,624.15674 z" />
      <text style="font-size:30; vertical-align:top; fill-opacity:1.0; fill:darkblue; text-anchor:right; stroke:none; font-weight:normal; font-style:italic; text-align:right; " transform="" id="B.b7.text" y="617.156760777" x="618.220472441">
b7</text>
      <circle style="stroke:red; stroke-width:1; fill:red; " transform="" cy="624.156760777" cx="0.0" r="5" id="B.b8" d="M 5,624.15674 C 5,626.91816 2.7614237,629.15674 0,629.15674 -2.7614237,629.15674 -5,626.91816 -5,624.15674 -5,621.39531 -2.7614237,619.15674 0,619.15674 2.7614237,619.15674 5,621.39531 5,624.15674 z" />
      <text style="font-size:30; vertical-align:top; fill-opacity:1.0; fill:darkblue; text-anchor:right; stroke:none; font-weight:normal; font-style:italic; text-align:right; " transform="" id="B.b8.text" y="617.156760777" x="7.0">
b8</text>
      <circle style="stroke:red; stroke-width:1; fill:red; " transform="" cy="624.156760777" cx="885.826771654" r="5" id="B.b9" d="M 890.82678,624.15674 C 890.82678,626.91816 888.58821,629.15674 885.82678,629.15674 883.06536,629.15674 880.82678,626.91816 880.82678,624.15674 880.82678,621.39531 883.06536,619.15674 885.82678,619.15674 888.58821,619.15674 890.82678,621.39531 890.82678,624.15674 z" />
      <text style="font-size:30; vertical-align:top; fill-opacity:1.0; fill:darkblue; text-anchor:right; stroke:none; font-weight:normal; font-style:italic; text-align:right; " transform="" id="B.b9.text" y="617.156760777" x="892.826771654">
b9</text>
      <circle style="stroke:gray; stroke-width:1; fill:none; " transform="" cy="707.434024061" cx="789.68387004" r="5" id="B.b10.outpoint" d="M 794.6839,707.43402 C 794.6839,710.19544 792.44532,712.43402 789.6839,712.43402 786.92248,712.43402 784.6839,710.19544 784.6839,707.43402 784.6839,704.6726 786.92248,702.43402 789.6839,702.43402 792.44532,702.43402 794.6839,704.6726 794.6839,707.43402 z" />
      <text style="font-size:25; vertical-align:top; fill-opacity:1.0; fill:gray; text-anchor:right; stroke:none; font-weight:normal; font-style:italic; text-align:right; " transform="" id="B.b10.outpoint.text" y="700.434024061" x="796.68387004">
b10.out</text>
      <circle style="stroke:red; stroke-width:1; fill:red; " transform="" cy="716.282745029" cx="885.826771654" r="5" id="B.b10" d="M 890.82678,716.28271 C 890.82678,719.04414 888.58821,721.28271 885.82678,721.28271 883.06536,721.28271 880.82678,719.04414 880.82678,716.28271 880.82678,713.52129 883.06536,711.28271 885.82678,711.28271 888.58821,711.28271 890.82678,713.52129 890.82678,716.28271 z" />
      <text style="font-size:30; vertical-align:top; fill-opacity:1.0; fill:darkblue; text-anchor:right; stroke:none; font-weight:normal; font-style:italic; text-align:right; " transform="" id="B.b10.text" y="709.282745029" x="892.826771654">
b10</text>
      <circle style="stroke:red; stroke-width:1; fill:red; " transform="" cy="624.156760777" cx="391.147343053" r="5" id="B.bD1" d="M 396.14734,624.15674 C 396.14734,626.91816 393.90876,629.15674 391.14734,629.15674 388.38592,629.15674 386.14734,626.91816 386.14734,624.15674 386.14734,621.39531 388.38592,619.15674 391.14734,619.15674 393.90876,619.15674 396.14734,621.39531 396.14734,624.15674 z" />
      <text style="font-size:30; vertical-align:top; fill-opacity:1.0; fill:darkblue; text-anchor:right; stroke:none; font-weight:normal; font-style:italic; text-align:right; " transform="" id="B.bD1.text" y="617.156760777" x="398.147343053">
bD1</text>
      <circle style="stroke:red; stroke-width:1; fill:red; " transform="" cy="1346.45669291" cx="391.147343053" r="5" id="B.b12" d="M 396.14734,1346.4567 C 396.14734,1349.2181 393.90876,1351.4567 391.14734,1351.4567 388.38592,1351.4567 386.14734,1349.2181 386.14734,1346.4567 386.14734,1343.6952 388.38592,1341.4567 391.14734,1341.4567 393.90876,1341.4567 396.14734,1343.6952 396.14734,1346.4567 z" />
      <text style="font-size:30; vertical-align:top; fill-opacity:1.0; fill:darkblue; text-anchor:right; stroke:none; font-weight:normal; font-style:italic; text-align:right; " transform="" id="B.b12.text" y="1339.45669291" x="398.147343053">
b12</text>
      <circle style="stroke:red; stroke-width:1; fill:red; " transform="" cy="1346.45669291" cx="312.917874443" r="5" id="B.bD1.i" d="M 317.91788,1346.4567 C 317.91788,1349.2181 315.6793,1351.4567 312.91788,1351.4567 310.15645,1351.4567 307.91788,1349.2181 307.91788,1346.4567 307.91788,1343.6952 310.15645,1341.4567 312.91788,1341.4567 315.6793,1341.4567 317.91788,1343.6952 317.91788,1346.4567 z" />
      <text style="font-size:30; vertical-align:top; fill-opacity:1.0; fill:darkblue; text-anchor:right; stroke:none; font-weight:normal; font-style:italic; text-align:right; " transform="" id="B.bD1.i.text" y="1339.45669291" x="319.917874443">
bD1.i</text>
      <circle style="stroke:gray; stroke-width:1; fill:none; " transform="" cy="1333.59957224" cx="528.03605276" r="5" id="B.bD1.o.outpoint" d="M 533.03607,1333.5996 C 533.03607,1336.361 530.7975,1338.5996 528.03607,1338.5996 525.27465,1338.5996 523.03607,1336.361 523.03607,1333.5996 523.03607,1330.8382 525.27465,1328.5996 528.03607,1328.5996 530.7975,1328.5996 533.03607,1330.8382 533.03607,1333.5996 z" />
      <text style="font-size:25; vertical-align:top; fill-opacity:1.0; fill:gray; text-anchor:right; stroke:none; font-weight:normal; font-style:italic; text-align:right; " transform="" id="B.bD1.o.outpoint.text" y="1326.59957224" x="535.03605276">
bD1.o.out</text>
      <circle style="stroke:red; stroke-width:1; fill:red; " transform="" cy="1346.45669291" cx="469.376811664" r="5" id="B.bD1.o" d="M 474.3768,1346.4567 C 474.3768,1349.2181 472.13822,1351.4567 469.3768,1351.4567 466.61538,1351.4567 464.3768,1349.2181 464.3768,1346.4567 464.3768,1343.6952 466.61538,1341.4567 469.3768,1341.4567 472.13822,1341.4567 474.3768,1343.6952 474.3768,1346.4567 z" />
      <text style="font-size:30; vertical-align:top; fill-opacity:1.0; fill:darkblue; text-anchor:right; stroke:none; font-weight:normal; font-style:italic; text-align:right; " transform="" id="B.bD1.o.text" y="1339.45669291" x="476.376811664">
bD1.o</text>
      <circle style="stroke:gray; stroke-width:1; fill:none; " transform="" cy="1304.34902914" cx="712.038134288" r="5" id="B.b11.inpoint" d="M 717.03815,1304.349 C 717.03815,1307.1104 714.79957,1309.349 712.03815,1309.349 709.27672,1309.349 707.03815,1307.1104 707.03815,1304.349 707.03815,1301.5876 709.27672,1299.349 712.03815,1299.349 714.79957,1299.349 717.03815,1301.5876 717.03815,1304.349 z" />
      <text style="font-size:25; vertical-align:top; fill-opacity:1.0; fill:gray; text-anchor:right; stroke:none; font-weight:normal; font-style:italic; text-align:right; " transform="" id="B.b11.inpoint.text" y="1297.34902914" x="719.038134288">
b11.in</text>
      <circle style="stroke:red; stroke-width:1; fill:red; " transform="" cy="1330.22336476" cx="829.321411985" r="5" id="B.b11" d="M 834.32141,1330.2234 C 834.32141,1332.9848 832.08283,1335.2234 829.32141,1335.2234 826.55999,1335.2234 824.32141,1332.9848 824.32141,1330.2234 824.32141,1327.462 826.55999,1325.2234 829.32141,1325.2234 832.08283,1325.2234 834.32141,1327.462 834.32141,1330.2234 z" />
      <text style="font-size:30; vertical-align:top; fill-opacity:1.0; fill:darkblue; text-anchor:right; stroke:none; font-weight:normal; font-style:italic; text-align:right; " transform="" id="B.b11.text" y="1323.22336476" x="836.321411985">
b11</text>
      <circle style="stroke:red; stroke-width:1; fill:red; " transform="" cy="2143.7007874" cx="0.0" r="5" id="B.b13" d="M 5,2143.7007 C 5,2146.4621 2.7614237,2148.7007 0,2148.7007 -2.7614237,2148.7007 -5,2146.4621 -5,2143.7007 -5,2140.9393 -2.7614237,2138.7007 0,2138.7007 2.7614237,2138.7007 5,2140.9393 5,2143.7007 z" />
      <text style="font-size:30; vertical-align:top; fill-opacity:1.0; fill:darkblue; text-anchor:right; stroke:none; font-weight:normal; font-style:italic; text-align:right; " transform="" id="B.b13.text" y="2136.7007874" x="7.0">
b13</text>
      <circle style="stroke:red; stroke-width:1; fill:red; " transform="" cy="1346.45669291" cx="829.687283678" r="5" id="B.b14" d="M 834.68726,1346.4567 C 834.68726,1349.2181 832.44868,1351.4567 829.68726,1351.4567 826.92583,1351.4567 824.68726,1349.2181 824.68726,1346.4567 824.68726,1343.6952 826.92583,1341.4567 829.68726,1341.4567 832.44868,1341.4567 834.68726,1343.6952 834.68726,1346.4567 z" />
      <text style="font-size:30; vertical-align:top; fill-opacity:1.0; fill:darkblue; text-anchor:right; stroke:none; font-weight:normal; font-style:italic; text-align:right; " transform="" id="B.b14.text" y="1339.45669291" x="836.687283678">
b14</text>
      <circle style="stroke:red; stroke-width:1; fill:red; " transform="" cy="2143.7007874" cx="391.147343053" r="5" id="B.b15" d="M 396.14734,2143.7007 C 396.14734,2146.4621 393.90876,2148.7007 391.14734,2148.7007 388.38592,2148.7007 386.14734,2146.4621 386.14734,2143.7007 386.14734,2140.9393 388.38592,2138.7007 391.14734,2138.7007 393.90876,2138.7007 396.14734,2140.9393 396.14734,2143.7007 z" />
      <text style="font-size:30; vertical-align:top; fill-opacity:1.0; fill:darkblue; text-anchor:right; stroke:none; font-weight:normal; font-style:italic; text-align:right; " transform="" id="B.b15.text" y="2136.7007874" x="398.147343053">
b15</text>
      <circle style="stroke:red; stroke-width:1; fill:red; " transform="" cy="2143.7007874" cx="1062.99212598" r="5" id="B.b16" d="M 1067.9921,2143.7007 C 1067.9921,2146.4621 1065.7535,2148.7007 1062.9921,2148.7007 1060.2306,2148.7007 1057.9921,2146.4621 1057.9921,2143.7007 1057.9921,2140.9393 1060.2306,2138.7007 1062.9921,2138.7007 1065.7535,2138.7007 1067.9921,2140.9393 1067.9921,2143.7007 z" />
      <text style="font-size:30; vertical-align:top; fill-opacity:1.0; fill:darkblue; text-anchor:right; stroke:none; font-weight:normal; font-style:italic; text-align:right; " transform="" id="B.b16.text" y="2136.7007874" x="1069.99212598">
b16</text>
      <circle style="stroke:red; stroke-width:1; fill:red; " transform="" cy="2004.18827634" cx="1048.34721494" r="5" id="B.b17" d="M 1053.3472,2004.1882 C 1053.3472,2006.9497 1051.1086,2009.1882 1048.3472,2009.1882 1045.5857,2009.1882 1043.3472,2006.9497 1043.3472,2004.1882 1043.3472,2001.4268 1045.5857,1999.1882 1048.3472,1999.1882 1051.1086,1999.1882 1053.3472,2001.4268 1053.3472,2004.1882 z" />
      <text style="font-size:30; vertical-align:top; fill-opacity:1.0; fill:darkblue; text-anchor:right; stroke:none; font-weight:normal; font-style:italic; text-align:right; " transform="" id="B.b17.text" y="1997.18827634" x="1055.34721494">
b17</text>
      <circle style="stroke:red; stroke-width:1; fill:red; " transform="" cy="2029.8087739" cx="391.147343053" r="5" id="B.bD1.d" d="M 396.14734,2029.8087 C 396.14734,2032.5701 393.90876,2034.8087 391.14734,2034.8087 388.38592,2034.8087 386.14734,2032.5701 386.14734,2029.8087 386.14734,2027.0473 388.38592,2024.8087 391.14734,2024.8087 393.90876,2024.8087 396.14734,2027.0473 396.14734,2029.8087 z" />
      <text style="font-size:30; vertical-align:top; fill-opacity:1.0; fill:darkblue; text-anchor:right; stroke:none; font-weight:normal; font-style:italic; text-align:right; " transform="" id="B.bD1.d.text" y="2022.8087739" x="398.147343053">
bD1.d</text>
      <path style="stroke-linejoin:miter; stroke-dashoffset:0; stroke:gray; stroke-miterlimit:4; stroke-dasharray:6,6; stroke-width:2; fill:none; " transform="" d="M 284.470975712  -141.732283465 L 0.0  -141.732283465 L 0.0  1346.45669291 L 829.687283678  1346.45669291 M 469.376811664  1346.45669291 L 829.321411985  1330.22336476 M 0.0  0.0 L 708.661417323  37.8293872947 M 0.0  1346.45669291 L 708.661417323  37.8293872947 M 284.470975712  -141.732283465 L 611.220472441  624.156760777 M 0.0  624.156760777 L 885.826771654  624.156760777 M 391.147343053  624.156760777 L 391.147343053  2143.7007874 L 1062.99212598  2143.7007874 M 1048.34721494  2004.18827634 L 829.321411985  1330.22336476 " id="B.gridline" />
    </g>
    <g id="document.bodice.Sleeve.reference" transform=" translate(628.583412, 2895.503071)">
      <circle style="stroke:gray; stroke-width:1; fill:none; " transform="" cy="0" cx="-313.041706072" r="5" id="C.SCM.inpoint" d="M -308.04172,0 C -308.04172,2.7614237 -310.28029,5 -313.04172,5 -315.80314,5 -318.04172,2.7614237 -318.04172,0 -318.04172,-2.7614237 -315.80314,-5 -313.04172,-5 -310.28029,-5 -308.04172,-2.7614237 -308.04172,0 z" />
      <text style="font-size:25; vertical-align:top; fill-opacity:1.0; fill:gray; text-anchor:right; stroke:none; font-weight:normal; font-style:italic; text-align:right; " transform="" id="C.SCM.inpoint.text" y="-7" x="-306.041706072">
SCM.in</text>
      <circle style="stroke:gray; stroke-width:1; fill:none; " transform="" cy="0" cx="174.402738815" r="5" id="C.SCM.outpoint" d="M 179.40274,0 C 179.40274,2.7614237 177.16416,5 174.40274,5 171.64132,5 169.40274,2.7614237 169.40274,0 169.40274,-2.7614237 171.64132,-5 174.40274,-5 177.16416,-5 179.40274,-2.7614237 179.40274,0 z" />
      <text style="font-size:25; vertical-align:top; fill-opacity:1.0; fill:gray; text-anchor:right; stroke:none; font-weight:normal; font-style:italic; text-align:right; " transform="" id="C.SCM.outpoint.text" y="-7" x="181.402738815">
SCM.out</text>
      <circle style="stroke:red; stroke-width:1; fill:red; " transform="" cy="0" cx="0" r="5" id="C.SCM" d="M 5,0 C 5,2.7614237 2.7614237,5 0,5 -2.7614237,5 -5,2.7614237 -5,0 -5,-2.7614237 -2.7614237,-5 0,-5 2.7614237,-5 5,-2.7614237 5,0 z" />
      <text style="font-size:30; vertical-align:top; fill-opacity:1.0; fill:darkblue; text-anchor:right; stroke:none; font-weight:normal; font-style:italic; text-align:right; " transform="" id="C.SCM.text" y="-7" x="7">
SCM</text>
      <circle style="stroke:red; stroke-width:1; fill:red; " transform="" cy="2161.41732283" cx="0" r="5" id="C.SWM" d="M 5,2161.4172 C 5,2164.1787 2.7614237,2166.4172 0,2166.4172 -2.7614237,2166.4172 -5,2164.1787 -5,2161.4172 -5,2158.6558 -2.7614237,2156.4172 0,2156.4172 2.7614237,2156.4172 5,2158.6558 5,2161.4172 z" />
      <text style="font-size:30; vertical-align:top; fill-opacity:1.0; fill:darkblue; text-anchor:right; stroke:none; font-weight:normal; font-style:italic; text-align:right; " transform="" id="C.SWM.text" y="2154.41732283" x="7">
SWM</text>
      <circle style="stroke:red; stroke-width:1; fill:red; " transform="" cy="425.196850394" cx="0" r="5" id="C.SBM1" d="M 5,425.19684 C 5,427.95826 2.7614237,430.19684 0,430.19684 -2.7614237,430.19684 -5,427.95826 -5,425.19684 -5,422.43541 -2.7614237,420.19684 0,420.19684 2.7614237,420.19684 5,422.43541 5,425.19684 z" />
      <text style="font-size:30; vertical-align:top; fill-opacity:1.0; fill:darkblue; text-anchor:right; stroke:none; font-weight:normal; font-style:italic; text-align:right; " transform="" id="C.SBM1.text" y="418.196850394" x="7">
SBM1</text>
      <circle style="stroke:red; stroke-width:1; fill:red; " transform="" cy="1206.49606299" cx="0" r="5" id="C.SEM" d="M 5,1206.4961 C 5,1209.2575 2.7614237,1211.4961 0,1211.4961 -2.7614237,1211.4961 -5,1209.2575 -5,1206.4961 -5,1203.7347 -2.7614237,1201.4961 0,1201.4961 2.7614237,1201.4961 5,1203.7347 5,1206.4961 z" />
      <text style="font-size:30; vertical-align:top; fill-opacity:1.0; fill:darkblue; text-anchor:right; stroke:none; font-weight:normal; font-style:italic; text-align:right; " transform="" id="C.SEM.text" y="1199.49606299" x="7">
SEM</text>
      <circle style="stroke:red; stroke-width:1; fill:red; " transform="" cy="425.196850394" cx="-584.645669291" r="5" id="C.SBF1" d="M -579.64569,425.19684 C -579.64569,427.95826 -581.88427,430.19684 -584.64569,430.19684 -587.40711,430.19684 -589.64569,427.95826 -589.64569,425.19684 -589.64569,422.43541 -587.40711,420.19684 -584.64569,420.19684 -581.88427,420.19684 -579.64569,422.43541 -579.64569,425.19684 z" />
      <text style="font-size:30; vertical-align:top; fill-opacity:1.0; fill:darkblue; text-anchor:right; stroke:none; font-weight:normal; font-style:italic; text-align:right; " transform="" id="C.SBF1.text" y="418.196850394" x="-577.645669291">
SBF1</text>
      <circle style="stroke:red; stroke-width:1; fill:red; " transform="" cy="425.196850394" cx="584.645669291" r="5" id="C.SBB1" d="M 589.64569,425.19684 C 589.64569,427.95826 587.40711,430.19684 584.64569,430.19684 581.88427,430.19684 579.64569,427.95826 579.64569,425.19684 579.64569,422.43541 581.88427,420.19684 584.64569,420.19684 587.40711,420.19684 589.64569,422.43541 589.64569,425.19684 z" />
      <text style="font-size:30; vertical-align:top; fill-opacity:1.0; fill:darkblue; text-anchor:right; stroke:none; font-weight:normal; font-style:italic; text-align:right; " transform="" id="C.SBB1.text" y="418.196850394" x="591.645669291">
SBB1</text>
      <circle style="stroke:red; stroke-width:1; fill:red; " transform="" cy="361.417322835" cx="0" r="5" id="C.SBM" d="M 5,361.41733 C 5,364.17875 2.7614237,366.41733 0,366.41733 -2.7614237,366.41733 -5,364.17875 -5,361.41733 -5,358.6559 -2.7614237,356.41733 0,356.41733 2.7614237,356.41733 5,358.6559 5,361.41733 z" />
      <text style="font-size:30; vertical-align:top; fill-opacity:1.0; fill:darkblue; text-anchor:right; stroke:none; font-weight:normal; font-style:italic; text-align:right; " transform="" id="C.SBM.text" y="354.417322835" x="7">
SBM</text>
      <circle style="stroke:gray; stroke-width:1; fill:none; " transform="" cy="361.417322835" cx="-375.650047286" r="5" id="C.SBF.outpoint" d="M -370.65005,361.41733 C -370.65005,364.17875 -372.88863,366.41733 -375.65005,366.41733 -378.41148,366.41733 -380.65005,364.17875 -380.65005,361.41733 -380.65005,358.6559 -378.41148,356.41733 -375.65005,356.41733 -372.88863,356.41733 -370.65005,358.6559 -370.65005,361.41733 z" />
      <text style="font-size:25; vertical-align:top; fill-opacity:1.0; fill:gray; text-anchor:right; stroke:none; font-weight:normal; font-style:italic; text-align:right; " transform="" id="C.SBF.outpoint.text" y="354.417322835" x="-368.650047286">
SBF.out</text>
      <circle style="stroke:red; stroke-width:1; fill:red; " transform="" cy="361.417322835" cx="-626.083412143" r="5" id="C.SBF" d="M -621.08344,361.41733 C -621.08344,364.17875 -623.32201,366.41733 -626.08344,366.41733 -628.84486,366.41733 -631.08344,364.17875 -631.08344,361.41733 -631.08344,358.6559 -628.84486,356.41733 -626.08344,356.41733 -623.32201,356.41733 -621.08344,358.6559 -621.08344,361.41733 z" />
      <text style="font-size:30; vertical-align:top; fill-opacity:1.0; fill:darkblue; text-anchor:right; stroke:none; font-weight:normal; font-style:italic; text-align:right; " transform="" id="C.SBF.text" y="354.417322835" x="-619.083412143">
SBF</text>
      <circle style="stroke:gray; stroke-width:1; fill:none; " transform="" cy="361.417322835" cx="547.822985625" r="5" id="C.SBB.inpoint" d="M 552.823,361.41733 C 552.823,364.17875 550.58442,366.41733 547.823,366.41733 545.06157,366.41733 542.823,364.17875 542.823,361.41733 542.823,358.6559 545.06157,356.41733 547.823,356.41733 550.58442,356.41733 552.823,358.6559 552.823,361.41733 z" />
      <text style="font-size:25; vertical-align:top; fill-opacity:1.0; fill:gray; text-anchor:right; stroke:none; font-weight:normal; font-style:italic; text-align:right; " transform="" id="C.SBB.inpoint.text" y="354.417322835" x="554.822985625">
SBB.in</text>
      <circle style="stroke:red; stroke-width:1; fill:red; " transform="" cy="361.417322835" cx="626.083412143" r="5" id="C.SBB" d="M 631.08344,361.41733 C 631.08344,364.17875 628.84486,366.41733 626.08344,366.41733 623.32201,366.41733 621.08344,364.17875 621.08344,361.41733 621.08344,358.6559 623.32201,356.41733 626.08344,356.41733 628.84486,356.41733 631.08344,358.6559 631.08344,361.41733 z" />
      <text style="font-size:30; vertical-align:top; fill-opacity:1.0; fill:darkblue; text-anchor:right; stroke:none; font-weight:normal; font-style:italic; text-align:right; " transform="" id="C.SBB.text" y="354.417322835" x="633.083412143">
SBB</text>
      <circle style="stroke:red; stroke-width:1; fill:red; " transform="" cy="361.417322835" cx="-469.562559107" r="5" id="C.SCF1" d="M -464.56256,361.41733 C -464.56256,364.17875 -466.80114,366.41733 -469.56256,366.41733 -472.32398,366.41733 -474.56256,364.17875 -474.56256,361.41733 -474.56256,358.6559 -472.32398,356.41733 -469.56256,356.41733 -466.80114,356.41733 -464.56256,358.6559 -464.56256,361.41733 z" />
      <text style="font-size:30; vertical-align:top; fill-opacity:1.0; fill:darkblue; text-anchor:right; stroke:none; font-weight:normal; font-style:italic; text-align:right; " transform="" id="C.SCF1.text" y="354.417322835" x="-462.562559107">
SCF1</text>
      <circle style="stroke:red; stroke-width:1; fill:red; " transform="" cy="0" cx="-156.520853036" r="5" id="C.SCF4" d="M -151.52086,0 C -151.52086,2.7614237 -153.75944,5 -156.52086,5 -159.28228,5 -161.52086,2.7614237 -161.52086,0 -161.52086,-2.7614237 -159.28228,-5 -156.52086,-5 -153.75944,-5 -151.52086,-2.7614237 -151.52086,0 z" />
      <text style="font-size:30; vertical-align:top; fill-opacity:1.0; fill:darkblue; text-anchor:right; stroke:none; font-weight:normal; font-style:italic; text-align:right; " transform="" id="C.SCF4.text" y="-7" x="-149.520853036">
SCF4</text>
      <circle style="stroke:red; stroke-width:1; fill:red; " transform="" cy="243.105989532" cx="-367.087167684" r="5" id="C.SCF2" d="M -362.08716,243.10599 C -362.08716,245.86741 -364.32573,248.10599 -367.08716,248.10599 -369.84858,248.10599 -372.08716,245.86741 -372.08716,243.10599 -372.08716,240.34456 -369.84858,238.10599 -367.08716,238.10599 -364.32573,238.10599 -362.08716,240.34456 -362.08716,243.10599 z" />
      <text style="font-size:30; vertical-align:top; fill-opacity:1.0; fill:darkblue; text-anchor:right; stroke:none; font-weight:normal; font-style:italic; text-align:right; " transform="" id="C.SCF2.text" y="236.105989532" x="-360.087167684">
SCF2</text>
      <circle style="stroke:red; stroke-width:1; fill:red; " transform="" cy="118.311333302" cx="-258.996244459" r="5" id="C.SCF3" d="M -253.99625,118.31133 C -253.99625,121.07276 -256.23482,123.31133 -258.99625,123.31133 -261.75767,123.31133 -263.99625,121.07276 -263.99625,118.31133 -263.99625,115.54991 -261.75767,113.31133 -258.99625,113.31133 -256.23482,113.31133 -253.99625,115.54991 -253.99625,118.31133 z" />
      <text style="font-size:30; vertical-align:top; fill-opacity:1.0; fill:darkblue; text-anchor:right; stroke:none; font-weight:normal; font-style:italic; text-align:right; " transform="" id="C.SCF3.text" y="111.311333302" x="-251.996244459">
SCF3</text>
      <circle style="stroke:red; stroke-width:1; fill:red; " transform="" cy="361.417322835" cx="547.822985625" r="5" id="C.SCB4" d="M 552.823,361.41733 C 552.823,364.17875 550.58442,366.41733 547.823,366.41733 545.06157,366.41733 542.823,364.17875 542.823,361.41733 542.823,358.6559 545.06157,356.41733 547.823,356.41733 550.58442,356.41733 552.823,358.6559 552.823,361.41733 z" />
      <text style="font-size:30; vertical-align:top; fill-opacity:1.0; fill:darkblue; text-anchor:right; stroke:none; font-weight:normal; font-style:italic; text-align:right; " transform="" id="C.SCB4.text" y="354.417322835" x="554.822985625">
SCB4</text>
      <circle style="stroke:red; stroke-width:1; fill:red; " transform="" cy="0" cx="234.781279554" r="5" id="C.SCB1" d="M 239.78128,0 C 239.78128,2.7614237 237.5427,5 234.78128,5 232.01986,5 229.78128,2.7614237 229.78128,0 229.78128,-2.7614237 232.01986,-5 234.78128,-5 237.5427,-5 239.78128,-2.7614237 239.78128,0 z" />
      <text style="font-size:30; vertical-align:top; fill-opacity:1.0; fill:darkblue; text-anchor:right; stroke:none; font-weight:normal; font-style:italic; text-align:right; " transform="" id="C.SCB1.text" y="-7" x="241.781279554">
SCB1</text>
      <circle style="stroke:red; stroke-width:1; fill:red; " transform="" cy="177.466999953" cx="388.494366688" r="5" id="C.SCB2" d="M 393.49435,177.467 C 393.49435,180.22842 391.25578,182.467 388.49435,182.467 385.73293,182.467 383.49435,180.22842 383.49435,177.467 383.49435,174.70557 385.73293,172.467 388.49435,172.467 391.25578,172.467 393.49435,174.70557 393.49435,177.467 z" />
      <text style="font-size:30; vertical-align:top; fill-opacity:1.0; fill:darkblue; text-anchor:right; stroke:none; font-weight:normal; font-style:italic; text-align:right; " transform="" id="C.SCB2.text" y="170.466999953" x="395.494366688">
SCB2</text>
      <circle style="stroke:gray; stroke-width:1; fill:none; " transform="" cy="170.433722968" cx="382.402492039" r="5" id="C.SCB3.inpoint" d="M 387.4025,170.43372 C 387.4025,173.19514 385.16392,175.43372 382.4025,175.43372 379.64107,175.43372 377.4025,173.19514 377.4025,170.43372 377.4025,167.67229 379.64107,165.43372 382.4025,165.43372 385.16392,165.43372 387.4025,167.67229 387.4025,170.43372 z" />
      <text style="font-size:25; vertical-align:top; fill-opacity:1.0; fill:gray; text-anchor:right; stroke:none; font-weight:normal; font-style:italic; text-align:right; " transform="" id="C.SCB3.inpoint.text" y="163.433722968" x="389.402492039">
SCB3.in</text>
      <circle style="stroke:gray; stroke-width:1; fill:none; " transform="" cy="361.417322835" cx="547.822985625" r="5" id="C.SCB3.outpoint" d="M 552.823,361.41733 C 552.823,364.17875 550.58442,366.41733 547.823,366.41733 545.06157,366.41733 542.823,364.17875 542.823,361.41733 542.823,358.6559 545.06157,356.41733 547.823,356.41733 550.58442,356.41733 552.823,358.6559 552.823,361.41733 z" />
      <text style="font-size:25; vertical-align:top; fill-opacity:1.0; fill:gray; text-anchor:right; stroke:none; font-weight:normal; font-style:italic; text-align:right; " transform="" id="C.SCB3.outpoint.text" y="354.417322835" x="554.822985625">
SCB3.out</text>
      <circle style="stroke:red; stroke-width:1; fill:red; " transform="" cy="302.261656184" cx="496.585289914" r="5" id="C.SCB3" d="M 501.5853,302.26166 C 501.5853,305.02308 499.34672,307.26166 496.5853,307.26166 493.82387,307.26166 491.5853,305.02308 491.5853,302.26166 491.5853,299.50023 493.82387,297.26166 496.5853,297.26166 499.34672,297.26166 501.5853,299.50023 501.5853,302.26166 z" />
      <text style="font-size:30; vertical-align:top; fill-opacity:1.0; fill:darkblue; text-anchor:right; stroke:none; font-weight:normal; font-style:italic; text-align:right; " transform="" id="C.SCB3.text" y="295.261656184" x="503.585289914">
SCB3</text>
      <circle style="stroke:red; stroke-width:1; fill:red; " transform="" cy="1206.49606299" cx="-531.496062992" r="5" id="C.SEF" d="M -526.49603,1206.4961 C -526.49603,1209.2575 -528.73461,1211.4961 -531.49603,1211.4961 -534.25746,1211.4961 -536.49603,1209.2575 -536.49603,1206.4961 -536.49603,1203.7347 -534.25746,1201.4961 -531.49603,1201.4961 -528.73461,1201.4961 -526.49603,1203.7347 -526.49603,1206.4961 z" />
      <text style="font-size:30; vertical-align:top; fill-opacity:1.0; fill:darkblue; text-anchor:right; stroke:none; font-weight:normal; font-style:italic; text-align:right; " transform="" id="C.SEF.text" y="1199.49606299" x="-524.496062992">
SEF</text>
      <circle style="stroke:red; stroke-width:1; fill:red; " transform="" cy="1206.49606299" cx="531.496062992" r="5" id="C.SEB" d="M 536.49603,1206.4961 C 536.49603,1209.2575 534.25746,1211.4961 531.49603,1211.4961 528.73461,1211.4961 526.49603,1209.2575 526.49603,1206.4961 526.49603,1203.7347 528.73461,1201.4961 531.49603,1201.4961 534.25746,1201.4961 536.49603,1203.7347 536.49603,1206.4961 z" />
      <text style="font-size:30; vertical-align:top; fill-opacity:1.0; fill:darkblue; text-anchor:right; stroke:none; font-weight:normal; font-style:italic; text-align:right; " transform="" id="C.SEB.text" y="1199.49606299" x="538.496062992">
SEB</text>
      <circle style="stroke:red; stroke-width:1; fill:red; " transform="" cy="1206.49606299" cx="265.748031496" r="5" id="C.SEB1" d="M 270.74802,1206.4961 C 270.74802,1209.2575 268.50944,1211.4961 265.74802,1211.4961 262.98659,1211.4961 260.74802,1209.2575 260.74802,1206.4961 260.74802,1203.7347 262.98659,1201.4961 265.74802,1201.4961 268.50944,1201.4961 270.74802,1203.7347 270.74802,1206.4961 z" />
      <text style="font-size:30; vertical-align:top; fill-opacity:1.0; fill:darkblue; text-anchor:right; stroke:none; font-weight:normal; font-style:italic; text-align:right; " transform="" id="C.SEB1.text" y="1199.49606299" x="272.748031496">
SEB1</text>
      <circle style="stroke:red; stroke-width:1; fill:red; " transform="" cy="2161.41732283" cx="-283.464566929" r="5" id="C.SWF1" d="M -278.46457,2161.4172 C -278.46457,2164.1787 -280.70315,2166.4172 -283.46457,2166.4172 -286.22599,2166.4172 -288.46457,2164.1787 -288.46457,2161.4172 -288.46457,2158.6558 -286.22599,2156.4172 -283.46457,2156.4172 -280.70315,2156.4172 -278.46457,2158.6558 -278.46457,2161.4172 z" />
      <text style="font-size:30; vertical-align:top; fill-opacity:1.0; fill:darkblue; text-anchor:right; stroke:none; font-weight:normal; font-style:italic; text-align:right; " transform="" id="C.SWF1.text" y="2154.41732283" x="-276.464566929">
SWF1</text>
      <circle style="stroke:red; stroke-width:1; fill:red; " transform="" cy="2234.75306611" cx="-9.65070778025" r="5" id="C.SWM1" d="M -4.6507082,2234.7532 C -4.6507082,2237.5146 -6.8892844,2239.7532 -9.6507082,2239.7532 -12.412132,2239.7532 -14.650708,2237.5146 -14.650708,2234.7532 -14.650708,2231.9918 -12.412132,2229.7532 -9.6507082,2229.7532 -6.8892844,2229.7532 -4.6507082,2231.9918 -4.6507082,2234.7532 z" />
      <text style="font-size:30; vertical-align:top; fill-opacity:1.0; fill:darkblue; text-anchor:right; stroke:none; font-weight:normal; font-style:italic; text-align:right; " transform="" id="C.SWM1.text" y="2227.75306611" x="-2.65070778025">
SWM1</text>
      <circle style="stroke:red; stroke-width:1; fill:red; " transform="" cy="2271.42093775" cx="127.256221794" r="5" id="C.SWB" d="M 132.25623,2271.4209 C 132.25623,2274.1823 130.01765,2276.4209 127.25623,2276.4209 124.4948,2276.4209 122.25623,2274.1823 122.25623,2271.4209 122.25623,2268.6595 124.4948,2266.4209 127.25623,2266.4209 130.01765,2266.4209 132.25623,2268.6595 132.25623,2271.4209 z" />
      <text style="font-size:30; vertical-align:top; fill-opacity:1.0; fill:darkblue; text-anchor:right; stroke:none; font-weight:normal; font-style:italic; text-align:right; " transform="" id="C.SWB.text" y="2264.42093775" x="134.256221794">
SWB</text>
      <circle style="stroke:gray; stroke-width:1; fill:none; " transform="" cy="2174.47219868" cx="-234.72154237" r="5" id="C.SWF2.outpoint" d="M -229.72154,2174.4722 C -229.72154,2177.2336 -231.96012,2179.4722 -234.72154,2179.4722 -237.48297,2179.4722 -239.72154,2177.2336 -239.72154,2174.4722 -239.72154,2171.7107 -237.48297,2169.4722 -234.72154,2169.4722 -231.96012,2169.4722 -229.72154,2171.7107 -229.72154,2174.4722 z" />
      <text style="font-size:25; vertical-align:top; fill-opacity:1.0; fill:gray; text-anchor:right; stroke:none; font-weight:normal; font-style:italic; text-align:right; " transform="" id="C.SWF2.outpoint.text" y="2167.47219868" x="-227.72154237">
SWF2.out</text>
      <circle style="stroke:red; stroke-width:1; fill:red; " transform="" cy="2198.08519447" cx="-146.557637355" r="5" id="C.SWF2" d="M -141.55763,2198.0852 C -141.55763,2200.8466 -143.79621,2203.0852 -146.55763,2203.0852 -149.31906,2203.0852 -151.55763,2200.8466 -151.55763,2198.0852 -151.55763,2195.3238 -149.31906,2193.0852 -146.55763,2193.0852 -143.79621,2193.0852 -141.55763,2195.3238 -141.55763,2198.0852 z" />
      <text style="font-size:30; vertical-align:top; fill-opacity:1.0; fill:darkblue; text-anchor:right; stroke:none; font-weight:normal; font-style:italic; text-align:right; " transform="" id="C.SWF2.text" y="2191.08519447" x="-139.557637355">
SWF2</text>
      <circle style="stroke:gray; stroke-width:1; fill:none; " transform="" cy="2174.47219868" cx="-332.207591488" r="5" id="C.SWF.inpoint" d="M -327.20758,2174.4722 C -327.20758,2177.2336 -329.44616,2179.4722 -332.20758,2179.4722 -334.969,2179.4722 -337.20758,2177.2336 -337.20758,2174.4722 -337.20758,2171.7107 -334.969,2169.4722 -332.20758,2169.4722 -329.44616,2169.4722 -327.20758,2171.7107 -327.20758,2174.4722 z" />
      <text style="font-size:25; vertical-align:top; fill-opacity:1.0; fill:gray; text-anchor:right; stroke:none; font-weight:normal; font-style:italic; text-align:right; " transform="" id="C.SWF.inpoint.text" y="2167.47219868" x="-325.207591488">
SWF.in</text>
      <circle style="stroke:red; stroke-width:1; fill:red; " transform="" cy="2198.08519447" cx="-420.371496504" r="5" id="C.SWF" d="M -415.37149,2198.0852 C -415.37149,2200.8466 -417.61007,2203.0852 -420.37149,2203.0852 -423.13291,2203.0852 -425.37149,2200.8466 -425.37149,2198.0852 -425.37149,2195.3238 -423.13291,2193.0852 -420.37149,2193.0852 -417.61007,2193.0852 -415.37149,2195.3238 -415.37149,2198.0852 z" />
      <text style="font-size:30; vertical-align:top; fill-opacity:1.0; fill:darkblue; text-anchor:right; stroke:none; font-weight:normal; font-style:italic; text-align:right; " transform="" id="C.SWF.text" y="2191.08519447" x="-413.371496504">
SWF</text>
      <circle style="stroke:red; stroke-width:1; fill:red; " transform="" cy="1112.65094589" cx="328.073923674" r="5" id="C.SD1" d="M 333.07391,1112.651 C 333.07391,1115.4124 330.83534,1117.651 328.07391,1117.651 325.31249,1117.651 323.07391,1115.4124 323.07391,1112.651 323.07391,1109.8896 325.31249,1107.651 328.07391,1107.651 330.83534,1107.651 333.07391,1109.8896 333.07391,1112.651 z" />
      <text style="font-size:30; vertical-align:top; fill-opacity:1.0; fill:darkblue; text-anchor:right; stroke:none; font-weight:normal; font-style:italic; text-align:right; " transform="" id="C.SD1.text" y="1105.65094589" x="335.073923674">
SD1</text>
      <circle style="stroke:red; stroke-width:1; fill:red; " transform="" cy="1175.07295366" cx="316.024065106" r="5" id="C.SD2" d="M 321.02408,1175.073 C 321.02408,1177.8344 318.7855,1180.073 316.02408,1180.073 313.26265,1180.073 311.02408,1177.8344 311.02408,1175.073 311.02408,1172.3116 313.26265,1170.073 316.02408,1170.073 318.7855,1170.073 321.02408,1172.3116 321.02408,1175.073 z" />
      <text style="font-size:30; vertical-align:top; fill-opacity:1.0; fill:darkblue; text-anchor:right; stroke:none; font-weight:normal; font-style:italic; text-align:right; " transform="" id="C.SD2.text" y="1168.07295366" x="323.024065106">
SD2</text>
      <circle style="stroke:red; stroke-width:1; fill:red; " transform="" cy="1263.12341386" cx="282.600576849" r="5" id="C.SD3" d="M 287.60059,1263.1234 C 287.60059,1265.8848 285.36201,1268.1234 282.60059,1268.1234 279.83916,1268.1234 277.60059,1265.8848 277.60059,1263.1234 277.60059,1260.362 279.83916,1258.1234 282.60059,1258.1234 285.36201,1258.1234 287.60059,1260.362 287.60059,1263.1234 z" />
      <text style="font-size:30; vertical-align:top; fill-opacity:1.0; fill:darkblue; text-anchor:right; stroke:none; font-weight:normal; font-style:italic; text-align:right; " transform="" id="C.SD3.text" y="1256.12341386" x="289.600576849">
SD3</text>
      <circle style="stroke:red; stroke-width:1; fill:red; " transform="" cy="1112.90487155" cx="546.361946621" r="5" id="C.SD1.i" d="M 551.36194,1112.9049 C 551.36194,1115.6663 549.12336,1117.9049 546.36194,1117.9049 543.60051,1117.9049 541.36194,1115.6663 541.36194,1112.9049 541.36194,1110.1435 543.60051,1107.9049 546.36194,1107.9049 549.12336,1107.9049 551.36194,1110.1435 551.36194,1112.9049 z" />
      <text style="font-size:30; vertical-align:top; fill-opacity:1.0; fill:darkblue; text-anchor:right; stroke:none; font-weight:normal; font-style:italic; text-align:right; " transform="" id="C.SD1.i.text" y="1105.90487155" x="553.361946621">
SD1.i</text>
      <circle style="stroke:red; stroke-width:1; fill:red; " transform="" cy="1160.66347545" cx="541.016456873" r="5" id="C.SD1.o" d="M 546.01648,1160.6635 C 546.01648,1163.4249 543.7779,1165.6635 541.01648,1165.6635 538.25506,1165.6635 536.01648,1163.4249 536.01648,1160.6635 536.01648,1157.902 538.25506,1155.6635 541.01648,1155.6635 543.7779,1155.6635 546.01648,1157.902 546.01648,1160.6635 z" />
      <text style="font-size:30; vertical-align:top; fill-opacity:1.0; fill:darkblue; text-anchor:right; stroke:none; font-weight:normal; font-style:italic; text-align:right; " transform="" id="C.SD1.o.text" y="1153.66347545" x="548.016456873">
SD1.o</text>
      <circle style="stroke:red; stroke-width:1; fill:red; " transform="" cy="1229.86194936" cx="528.385451777" r="5" id="C.SD2.i" d="M 533.38544,1229.8619 C 533.38544,1232.6234 531.14686,1234.8619 528.38544,1234.8619 525.62401,1234.8619 523.38544,1232.6234 523.38544,1229.8619 523.38544,1227.1005 525.62401,1224.8619 528.38544,1224.8619 531.14686,1224.8619 533.38544,1227.1005 533.38544,1229.8619 z" />
      <text style="font-size:30; vertical-align:top; fill-opacity:1.0; fill:darkblue; text-anchor:right; stroke:none; font-weight:normal; font-style:italic; text-align:right; " transform="" id="C.SD2.i.text" y="1222.86194936" x="535.385451777">
SD2.i</text>
      <circle style="stroke:red; stroke-width:1; fill:red; " transform="" cy="1275.00212797" cx="511.2504791" r="5" id="C.SD2.o" d="M 516.25049,1275.0021 C 516.25049,1277.7635 514.01191,1280.0021 511.25049,1280.0021 508.48906,1280.0021 506.25049,1277.7635 506.25049,1275.0021 506.25049,1272.2407 508.48906,1270.0021 511.25049,1270.0021 514.01191,1270.0021 516.25049,1272.2407 516.25049,1275.0021 z" />
      <text style="font-size:30; vertical-align:top; fill-opacity:1.0; fill:darkblue; text-anchor:right; stroke:none; font-weight:normal; font-style:italic; text-align:right; " transform="" id="C.SD2.o.text" y="1268.00212797" x="518.2504791">
SD2.o</text>
      <circle style="stroke:red; stroke-width:1; fill:red; " transform="" cy="1316.84070599" cx="490.808055389" r="5" id="C.SD3.i" d="M 495.80804,1316.8407 C 495.80804,1319.6021 493.56947,1321.8407 490.80804,1321.8407 488.04662,1321.8407 485.80804,1319.6021 485.80804,1316.8407 485.80804,1314.0793 488.04662,1311.8407 490.80804,1311.8407 493.56947,1311.8407 495.80804,1314.0793 495.80804,1316.8407 z" />
      <text style="font-size:30; vertical-align:top; fill-opacity:1.0; fill:darkblue; text-anchor:right; stroke:none; font-weight:normal; font-style:italic; text-align:right; " transform="" id="C.SD3.i.text" y="1309.84070599" x="497.808055389">
SD3.i</text>
      <circle style="stroke:red; stroke-width:1; fill:red; " transform="" cy="1361.09791732" cx="474.008252413" r="5" id="C.SD3.o" d="M 479.00824,1361.0979 C 479.00824,1363.8593 476.76966,1366.0979 474.00824,1366.0979 471.24682,1366.0979 469.00824,1363.8593 469.00824,1361.0979 469.00824,1358.3365 471.24682,1356.0979 474.00824,1356.0979 476.76966,1356.0979 479.00824,1358.3365 479.00824,1361.0979 z" />
      <text style="font-size:30; vertical-align:top; fill-opacity:1.0; fill:darkblue; text-anchor:right; stroke:none; font-weight:normal; font-style:italic; text-align:right; " transform="" id="C.SD3.o.text" y="1354.09791732" x="481.008252413">
SD3.o</text>
      <path style="stroke-linejoin:miter; stroke-dashoffset:0; stroke:gray; stroke-miterlimit:4; stroke-dasharray:6,6; stroke-width:2; fill:none; " transform="" d="M 0  0 L 0  2161.41732283 M -626.083412143  361.417322835 L 626.083412143  361.417322835 M -531.496062992  1206.49606299 L 531.496062992  1206.49606299 M -283.464566929  2161.41732283 L 127.256221794  2271.42093775 M 265.748031496  1206.49606299 L -9.65070778025  2234.75306611 M -469.562559107  361.417322835 L -156.520853036  0 L 234.781279554  0 L 547.822985625  361.417322835 " id="C.gridline" />
    </g>
  </g>
</svg>
