<?xml version="1.0" encoding="UTF-8" standalone="no"?>
<svg xmlns:dc="http://purl.org/dc/elements/1.1/" xmlns:cc="http://creativecommons.org/ns#" xmlns:rdf="http://www.w3.org/1999/02/22-rdf-syntax-ns#" xmlns:svg="http://www.w3.org/2000/svg" xmlns="http://www.w3.org/2000/svg" xmlns:sodipodi="http://sodipodi.sourceforge.net/DTD/sodipodi-0.dtd" xmlns:inkscape="http://www.inkscape.org/namespaces/inkscape" patternNumber="MR_B1" fitBoxtoViewport="True" companyName="Seamly Patterns" currentscale="0.5:1" margin-right="88.5826771654" client-name="DressFormLg" designerName="S.L.Spencer" height="4284.05564733" width="1159.97003033" margin-top="88.5826771654" version="1.1" margin-bottom="88.5826771654" margin-left="88.5826771654" preserveAspectRatio="xMidYMid meet" id="svg2" inkscape:version="0.48.4 r9939" sodipodi:docname="DressFormLg-adult_bibb-2015-01-06-0217.svg">
  <metadata id="metadata76">
    <rdf:RDF>
      <cc:Work rdf:about="">
        <dc:format>image/svg+xml</dc:format>
        <dc:type rdf:resource="http://purl.org/dc/dcmitype/StillImage" />
      </cc:Work>
    </rdf:RDF>
  </metadata>
  <sodipodi:namedview id="base" pagecolor="#ffffff" bordercolor="#666666" borderopacity="1.0" inkscape:pageopacity="0.0" inkscape:pageshadow="2" inkscape:zoom="0.20681337" inkscape:document-units="pt" showgrid="false" inkscape:window-maximized="1" inkscape:cx="579.98499" inkscape:cy="2142.0278" inkscape:window-width="1855" inkscape:window-height="1056" inkscape:window-x="65" inkscape:window-y="24" inkscape:current-layer="pattern" />
  <defs id="defs5">
    <marker style="overflow:visible" id="Arrow1Mstart" refX="0.0" refY="0.0" orient="auto" inkscape:stockid="Arrow1Mstart">
      <path transform="scale(0.4) translate(10,0)" style="fill-rule:evenodd;stroke:#000000;stroke-width:1.0pt;marker-start:none" d="M 0.0,0.0 L 5.0,-5.0 L -12.5,0.0 L 5.0,5.0 L 0.0,0.0 z " id="path8" />
    </marker>
    <marker style="overflow:visible;" id="Arrow1Mend" refX="0.0" refY="0.0" orient="auto" inkscape:stockid="Arrow1Mend">
      <path transform="scale(0.4) rotate(180) translate(10,0)" style="fill-rule:evenodd;stroke:#000000;stroke-width:1.0pt;marker-start:none;" d="M 0.0,0.0 L 5.0,-5.0 L -12.5,0.0 L 5.0,5.0 L 0.0,0.0 z " id="path11" />
    </marker>
  </defs>
  <g inkscape:label="Label-pattern" id="pattern" inkscape:groupmode="layer" transform="translate(88.582677,88.582677)">
    <g id="document.bibb.Bibb Front &amp; Back.pattern" transform=" translate(116.554676, 1305.640293)">
      <g id="A.letter" transform="matrix(10.000000, 0, 0, 10.000000, 0.000000, -11947.500000)">
        <text style="font-size:24; vertical-align:top; fill-opacity:1.0; fill:#000000; text-anchor:start; stroke:none; font-weight:normal; font-style:normal; text-align:right; " transform="" id="A.letter.letterline" y="1327.5" x="0.0">
A</text>
      </g>
      <line style="stroke-linejoin:miter; stroke:green; stroke-width:4; stroke-miterlimit:4; fill:none; " y2="2401.875" marker-end="url(#Arrow1Mend)" marker-start="url(#Arrow1Mstart)" transform="" x2="0.0" y1="2058.75" x1="0.0" id="A.grainline" />
      <path style="stroke-linejoin:miter; stroke-dashoffset:0; stroke:green; stroke-dasharray:24,6; stroke-miterlimit:4; stroke-width:4; fill:none; " transform="" d="M 0  0 C 303.958261937  0  315.0  -170.0  315.0  -255.0 C 315.0  -627.0  -57.8046761963  -573.179706606  45.0  -720.0 C 147.804676196  -866.820293394  810.0  -787.90168327  810.0  0 L 810.0  2745.0 L 0  2745.0 L 0  0 " id="A.seamline" />
      <path style="fill:none;stroke:#008000;stroke-width:4;stroke-linejoin:miter;stroke-miterlimit:4" d="M 207.40625,-836.5 C 149.7359,-835.54495 89.996897,-824.92464 41.0625,-792.75 8.3318722,-771.20543 -16.379475,-737.34973 -26.1875,-699.375 -34.651937,-666.62063 -25.026077,-630.66552 -2.78125,-605.4375 26.099582,-572.17633 66.719275,-552.97458 103.20294,-529.57057 149.60869,-501.14872 193.81986,-465.80581 220.92075,-417.70501 253.78698,-360.56984 261.27411,-292.86178 258.125,-228.09375 256.2119,-188.82497 245.75073,-147.53723 217.29227,-118.81706 186.28811,-86.941666 142.03817,-72.304271 99.3125,-64.28125 48.076904,-54.619412 -4.3029032,-56.289346 -56.25,-56.25 -56.25,896.25 -56.25,1848.75 -56.25,2801.25 251.25,2801.25 558.75,2801.25 866.25,2801.25 866.20186,1862.9168 866.34628,924.58295 866.1778,-13.74979 864.7593,-166.69898 838.69528,-321.88415 771.06307,-460.15965 716.66632,-572.21231 633.3996,-671.0305 528.35552,-738.62301 433.33124,-799.88904 321.02866,-837.25579 207.40625,-836.5 z" id="A.cuttingline" inkscape:connector-curvature="0" />
      <g id="A.info" transform="">
        <text style="font-size:12; vertical-align:top; fill-opacity:1.0; fill:#000000; text-anchor:start; stroke:none; font-weight:normal; font-style:normal; text-align:right; " transform="" id="A.info.lineSeamly Patterns" y="1372.5" x="0.0">
Seamly Patterns</text>
        <text style="font-size:12; vertical-align:top; fill-opacity:1.0; fill:#000000; text-anchor:start; stroke:none; font-weight:normal; font-style:normal; text-align:right; " transform="" id="A.info.lineMR_B1" y="1386.9" x="0.0">
MR_B1</text>
        <text style="font-size:12; vertical-align:top; fill-opacity:1.0; fill:#000000; text-anchor:start; stroke:none; font-weight:normal; font-style:normal; text-align:right; " transform="" id="A.info.lineSpencer Bibb Short" y="1401.3" x="0.0">
Spencer Bibb Short</text>
        <text style="font-size:12; vertical-align:top; fill-opacity:1.0; fill:#000000; text-anchor:start; stroke:none; font-weight:normal; font-style:normal; text-align:right; " transform="" id="A.info.linePattern Piece A" y="1415.7" x="0.0">
Pattern Piece A</text>
        <text style="font-size:12; vertical-align:top; fill-opacity:1.0; fill:#000000; text-anchor:start; stroke:none; font-weight:normal; font-style:normal; text-align:right; " transform="" id="A.info.lineCut 2 Fabric" y="1430.1" x="0.0">
Cut 2 Fabric</text>
        <text style="font-size:12; vertical-align:top; fill-opacity:1.0; fill:#000000; text-anchor:start; stroke:none; font-weight:normal; font-style:normal; text-align:right; " transform="" id="A.info.lineCut 1 Lining" y="1444.5" x="0.0">
Cut 1 Lining</text>
        <text style="font-size:12; vertical-align:top; fill-opacity:1.0; fill:#000000; text-anchor:start; stroke:none; font-weight:normal; font-style:normal; text-align:right; " transform="" id="A.info.line " y="1458.9" x="0.0" />
        <text style="font-size:12; vertical-align:top; fill-opacity:1.0; fill:#000000; text-anchor:start; stroke:none; font-weight:normal; font-style:normal; text-align:right; " transform="" id="A.info.lineDressFormLg" y="1473.3" x="0.0">
DressFormLg</text>
        <text style="font-size:12; vertical-align:top; fill-opacity:1.0; fill:#000000; text-anchor:start; stroke:none; font-weight:normal; font-style:normal; text-align:right; " transform="" id="A.info.line2015/1/6 2:17" y="1487.7" x="0.0">
2015/1/6 2:17</text>
      </g>
    </g>
  </g>
  <g inkscape:label="Label-notes" id="notes" inkscape:groupmode="layer" transform="translate(88.582677,88.582677)">
    <g id="document.titleblock">
      <text style="font-size:40; vertical-align:top; fill-opacity:1.0; fill:#000000; text-anchor:right; stroke:none; font-weight:normal; font-style:normal; text-align:right; " transform="" id="company" y="0.0" x="0.0">
Seamly Patterns</text>
      <text style="font-size:40; vertical-align:top; fill-opacity:1.0; fill:#000000; text-anchor:right; stroke:none; font-weight:normal; font-style:normal; text-align:right; " transform="" id="designer" y="44.0" x="0.0">
S.L.Spencer</text>
      <text style="font-size:40; vertical-align:top; fill-opacity:1.0; fill:#000000; text-anchor:right; stroke:none; font-weight:normal; font-style:normal; text-align:right; " transform="" id="pattern_number" y="88.0" x="0.0">
MR_B1</text>
      <text style="font-size:40; vertical-align:top; fill-opacity:1.0; fill:#000000; text-anchor:right; stroke:none; font-weight:normal; font-style:normal; text-align:right; " transform="" id="pattern_name" y="132.0" x="0.0">
Spencer Bibb Short</text>
      <text style="font-size:40; vertical-align:top; fill-opacity:1.0; fill:#000000; text-anchor:right; stroke:none; font-weight:normal; font-style:normal; text-align:right; " transform="" id="client" y="176.0" x="0.0">
DressFormLg</text>
      <text style="font-size:40; vertical-align:top; fill-opacity:1.0; fill:#000000; text-anchor:right; stroke:none; font-weight:normal; font-style:normal; text-align:right; " transform="" id="date" y="220.0" x="0.0">
2015/1/6 2:17</text>
    </g>
    <g id="document.testgrid">
      <path style="stroke-linejoin:miter; stroke:green; stroke-width:4; stroke-miterlimit:4; fill:none; " d="M 1080.0  0.0 L 1080.0  212.598425197 M 1115.43307087  0.0 L 1115.43307087  212.598425197 M 1150.86614173  0.0 L 1150.86614173  212.598425197 M 1186.2992126  0.0 L 1186.2992126  212.598425197 M 1221.73228346  0.0 L 1221.73228346  212.598425197 M 1257.16535433  0.0 L 1257.16535433  212.598425197 M 1292.5984252  0.0 L 1292.5984252  212.598425197 M 1080.0  0.0 L 1292.5984252  0.0 M 1080.0  35.4330708661 L 1292.5984252  35.4330708661 M 1080.0  70.8661417323 L 1292.5984252  70.8661417323 M 1080.0  106.299212598 L 1292.5984252  106.299212598 M 1080.0  141.732283465 L 1292.5984252  141.732283465 M 1080.0  177.165354331 L 1292.5984252  177.165354331 M 1080.0  212.598425197 L 1292.5984252  212.598425197 M 1469.76377953  0.0 L 1469.76377953  270.0 M 1559.76377953  0.0 L 1559.76377953  270.0 M 1649.76377953  0.0 L 1649.76377953  270.0 M 1739.76377953  0.0 L 1739.76377953  270.0 M 1469.76377953  0.0 L 1739.76377953  0.0 M 1469.76377953  90.0 L 1739.76377953  90.0 M 1469.76377953  180.0 L 1739.76377953  180.0 M 1469.76377953  270.0 L 1739.76377953  270.0 " id="testgrid" />
    </g>
    <g id="document.bibb.Bibb Front &amp; Back.notes" transform=" translate(116.554676, 1305.640293)" />
  </g>
  <g inkscape:label="Label-reference" id="reference" inkscape:groupmode="layer" transform="translate(88.582677,88.582677)">
    <g id="document.bibb.Bibb Front &amp; Back.reference" transform=" translate(116.554676, 1305.640293)">
      <circle style="stroke:gray; stroke-width:1; fill:none; " transform="" cy="0" cx="303.958261937" r="5" id="A.a.outpoint" d="M 308.95825,0 C 308.95825,2.7614237 306.71968,5 303.95825,5 301.19683,5 298.95825,2.7614237 298.95825,0 298.95825,-2.7614237 301.19683,-5 303.95825,-5 306.71968,-5 308.95825,-2.7614237 308.95825,0 z" />
      <text style="font-size:25; vertical-align:top; fill-opacity:1.0; fill:gray; text-anchor:right; stroke:none; font-weight:normal; font-style:italic; text-align:right; " transform="" id="A.a.outpoint.text" y="-7" x="310.958261937">
a.out</text>
      <circle style="stroke:red; stroke-width:1; fill:red; " transform="" cy="0" cx="0" r="5" id="A.a" d="M 5,0 C 5,2.7614237 2.7614237,5 0,5 -2.7614237,5 -5,2.7614237 -5,0 -5,-2.7614237 -2.7614237,-5 0,-5 2.7614237,-5 5,-2.7614237 5,0 z" />
      <text style="font-size:30; vertical-align:top; fill-opacity:1.0; fill:darkblue; text-anchor:right; stroke:none; font-weight:normal; font-style:italic; text-align:right; " transform="" id="A.a.text" y="-7" x="7">
a</text>
      <circle style="stroke:red; stroke-width:1; fill:red; " transform="" cy="-765.0" cx="0" r="5" id="A.b" d="M 5,-765 C 5,-762.23858 2.7614237,-760 0,-760 -2.7614237,-760 -5,-762.23858 -5,-765 -5,-767.76142 -2.7614237,-770 0,-770 2.7614237,-770 5,-767.76142 5,-765 z" />
      <text style="font-size:30; vertical-align:top; fill-opacity:1.0; fill:darkblue; text-anchor:right; stroke:none; font-weight:normal; font-style:italic; text-align:right; " transform="" id="A.b.text" y="-772.0" x="7">
b</text>
      <circle style="stroke:red; stroke-width:1; fill:red; " transform="" cy="2745.0" cx="0" r="5" id="A.c" d="M 5,2745 C 5,2747.7614 2.7614237,2750 0,2750 -2.7614237,2750 -5,2747.7614 -5,2745 -5,2742.2386 -2.7614237,2740 0,2740 2.7614237,2740 5,2742.2386 5,2745 z" />
      <text style="font-size:30; vertical-align:top; fill-opacity:1.0; fill:darkblue; text-anchor:right; stroke:none; font-weight:normal; font-style:italic; text-align:right; " transform="" id="A.c.text" y="2738.0" x="7">
c</text>
      <circle style="stroke:red; stroke-width:1; fill:red; " transform="" cy="-765.0" cx="810.0" r="5" id="A.d" d="M 815,-765 C 815,-762.23858 812.76142,-760 810,-760 807.23858,-760 805,-762.23858 805,-765 805,-767.76142 807.23858,-770 810,-770 812.76142,-770 815,-767.76142 815,-765 z" />
      <text style="font-size:30; vertical-align:top; fill-opacity:1.0; fill:darkblue; text-anchor:right; stroke:none; font-weight:normal; font-style:italic; text-align:right; " transform="" id="A.d.text" y="-772.0" x="817.0">
d</text>
      <circle style="stroke:red; stroke-width:1; fill:red; " transform="" cy="2745.0" cx="810.0" r="5" id="A.e" d="M 815,2745 C 815,2747.7614 812.76142,2750 810,2750 807.23858,2750 805,2747.7614 805,2745 805,2742.2386 807.23858,2740 810,2740 812.76142,2740 815,2742.2386 815,2745 z" />
      <text style="font-size:30; vertical-align:top; fill-opacity:1.0; fill:darkblue; text-anchor:right; stroke:none; font-weight:normal; font-style:italic; text-align:right; " transform="" id="A.e.text" y="2738.0" x="817.0">
e</text>
      <circle style="stroke:red; stroke-width:1; fill:red; " transform="" cy="-255.0" cx="0" r="5" id="A.f" d="M 5,-255 C 5,-252.23858 2.7614237,-250 0,-250 -2.7614237,-250 -5,-252.23858 -5,-255 -5,-257.76142 -2.7614237,-260 0,-260 2.7614237,-260 5,-257.76142 5,-255 z" />
      <text style="font-size:30; vertical-align:top; fill-opacity:1.0; fill:darkblue; text-anchor:right; stroke:none; font-weight:normal; font-style:italic; text-align:right; " transform="" id="A.f.text" y="-262.0" x="7">
f</text>
      <circle style="stroke:gray; stroke-width:1; fill:none; " transform="" cy="-170.0" cx="315.0" r="5" id="A.g.inpoint" d="M 320,-170 C 320,-167.23858 317.76142,-165 315,-165 312.23858,-165 310,-167.23858 310,-170 310,-172.76142 312.23858,-175 315,-175 317.76142,-175 320,-172.76142 320,-170 z" />
      <text style="font-size:25; vertical-align:top; fill-opacity:1.0; fill:gray; text-anchor:right; stroke:none; font-weight:normal; font-style:italic; text-align:right; " transform="" id="A.g.inpoint.text" y="-177.0" x="322.0">
g.in</text>
      <circle style="stroke:gray; stroke-width:1; fill:none; " transform="" cy="-627.0" cx="315.0" r="5" id="A.g.outpoint" d="M 320,-627 C 320,-624.23858 317.76142,-622 315,-622 312.23858,-622 310,-624.23858 310,-627 310,-629.76142 312.23858,-632 315,-632 317.76142,-632 320,-629.76142 320,-627 z" />
      <text style="font-size:25; vertical-align:top; fill-opacity:1.0; fill:gray; text-anchor:right; stroke:none; font-weight:normal; font-style:italic; text-align:right; " transform="" id="A.g.outpoint.text" y="-634.0" x="322.0">
g.out</text>
      <circle style="stroke:red; stroke-width:1; fill:red; " transform="" cy="-255.0" cx="315.0" r="5" id="A.g" d="M 320,-255 C 320,-252.23858 317.76142,-250 315,-250 312.23858,-250 310,-252.23858 310,-255 310,-257.76142 312.23858,-260 315,-260 317.76142,-260 320,-257.76142 320,-255 z" />
      <text style="font-size:30; vertical-align:top; fill-opacity:1.0; fill:darkblue; text-anchor:right; stroke:none; font-weight:normal; font-style:italic; text-align:right; " transform="" id="A.g.text" y="-262.0" x="322.0">
g</text>
      <circle style="stroke:gray; stroke-width:1; fill:none; " transform="" cy="-787.90168327" cx="810.0" r="5" id="A.h.inpoint" d="M 815,-787.90167 C 815,-785.14025 812.76142,-782.90167 810,-782.90167 807.23858,-782.90167 805,-785.14025 805,-787.90167 805,-790.6631 807.23858,-792.90167 810,-792.90167 812.76142,-792.90167 815,-790.6631 815,-787.90167 z" />
      <text style="font-size:25; vertical-align:top; fill-opacity:1.0; fill:gray; text-anchor:right; stroke:none; font-weight:normal; font-style:italic; text-align:right; " transform="" id="A.h.inpoint.text" y="-794.90168327" x="817.0">
h.in</text>
      <circle style="stroke:red; stroke-width:1; fill:red; " transform="" cy="0" cx="810.0" r="5" id="A.h" d="M 815,0 C 815,2.7614237 812.76142,5 810,5 807.23858,5 805,2.7614237 805,0 805,-2.7614237 807.23858,-5 810,-5 812.76142,-5 815,-2.7614237 815,0 z" />
      <text style="font-size:30; vertical-align:top; fill-opacity:1.0; fill:darkblue; text-anchor:right; stroke:none; font-weight:normal; font-style:italic; text-align:right; " transform="" id="A.h.text" y="-7" x="817.0">
h</text>
      <circle style="stroke:red; stroke-width:1; fill:red; " transform="" cy="-720.0" cx="0" r="5" id="A.i" d="M 5,-720 C 5,-717.23858 2.7614237,-715 0,-715 -2.7614237,-715 -5,-717.23858 -5,-720 -5,-722.76142 -2.7614237,-725 0,-725 2.7614237,-725 5,-722.76142 5,-720 z" />
      <text style="font-size:30; vertical-align:top; fill-opacity:1.0; fill:darkblue; text-anchor:right; stroke:none; font-weight:normal; font-style:italic; text-align:right; " transform="" id="A.i.text" y="-727.0" x="7">
i</text>
      <circle style="stroke:gray; stroke-width:1; fill:none; " transform="" cy="-573.179706606" cx="-57.8046761963" r="5" id="A.j.inpoint" d="M -52.804676,-573.17969 C -52.804676,-570.41826 -55.043252,-568.17969 -57.804676,-568.17969 -60.5661,-568.17969 -62.804676,-570.41826 -62.804676,-573.17969 -62.804676,-575.94111 -60.5661,-578.17969 -57.804676,-578.17969 -55.043252,-578.17969 -52.804676,-575.94111 -52.804676,-573.17969 z" />
      <text style="font-size:25; vertical-align:top; fill-opacity:1.0; fill:gray; text-anchor:right; stroke:none; font-weight:normal; font-style:italic; text-align:right; " transform="" id="A.j.inpoint.text" y="-580.179706606" x="-50.8046761963">
j.in</text>
      <circle style="stroke:gray; stroke-width:1; fill:none; " transform="" cy="-866.820293394" cx="147.804676196" r="5" id="A.j.outpoint" d="M 152.80467,-866.82031 C 152.80467,-864.05889 150.5661,-861.82031 147.80467,-861.82031 145.04325,-861.82031 142.80467,-864.05889 142.80467,-866.82031 142.80467,-869.58174 145.04325,-871.82031 147.80467,-871.82031 150.5661,-871.82031 152.80467,-869.58174 152.80467,-866.82031 z" />
      <text style="font-size:25; vertical-align:top; fill-opacity:1.0; fill:gray; text-anchor:right; stroke:none; font-weight:normal; font-style:italic; text-align:right; " transform="" id="A.j.outpoint.text" y="-873.820293394" x="154.804676196">
j.out</text>
      <circle style="stroke:red; stroke-width:1; fill:red; " transform="" cy="-720.0" cx="45.0" r="5" id="A.j" d="M 50,-720 C 50,-717.23858 47.761424,-715 45,-715 42.238576,-715 40,-717.23858 40,-720 40,-722.76142 42.238576,-725 45,-725 47.761424,-725 50,-722.76142 50,-720 z" />
      <text style="font-size:30; vertical-align:top; fill-opacity:1.0; fill:darkblue; text-anchor:right; stroke:none; font-weight:normal; font-style:italic; text-align:right; " transform="" id="A.j.text" y="-727.0" x="52.0">
j</text>
      <path style="stroke-linejoin:miter; stroke-dashoffset:0; stroke:gray; stroke-miterlimit:4; stroke-dasharray:6,6; stroke-width:2; fill:none; " transform="" d="M 0  0 L 315.0  -255.0 L 45.0  -720.0 L 810.0  0 L 810.0  2745.0 L 0  2745.0 L 0  0 " id="A.gridline" />
    </g>
  </g>
</svg>
