<?xml version="1.0" encoding="UTF-8" standalone="no"?>
<svg xmlns:dc="http://purl.org/dc/elements/1.1/" xmlns:cc="http://creativecommons.org/ns#" xmlns:rdf="http://www.w3.org/1999/02/22-rdf-syntax-ns#" xmlns:svg="http://www.w3.org/2000/svg" xmlns="http://www.w3.org/2000/svg" xmlns:sodipodi="http://sodipodi.sourceforge.net/DTD/sodipodi-0.dtd" xmlns:inkscape="http://www.inkscape.org/namespaces/inkscape" patternNumber="" fitBoxtoViewport="True" companyName="Seamly Patterns" currentscale="0.5:1" margin-right="88.5826771654" client-name="DressFormLg" designerName="" height="4323.19969933" width="1912.16535433" margin-top="88.5826771654" version="1.1" margin-bottom="88.5826771654" margin-left="88.5826771654" preserveAspectRatio="xMidYMid meet" id="svg2" inkscape:version="0.48.4 r9939" sodipodi:docname="DressFormLg-adult_bibb-2015-06-22-1714.svg">
  <metadata id="metadata106">
    <rdf:RDF>
      <cc:Work rdf:about="">
        <dc:format>image/svg+xml</dc:format>
        <dc:type rdf:resource="http://purl.org/dc/dcmitype/StillImage" />
      </cc:Work>
    </rdf:RDF>
  </metadata>
  <sodipodi:namedview id="base" pagecolor="#ffffff" bordercolor="#666666" borderopacity="1.0" inkscape:pageopacity="0.0" inkscape:pageshadow="2" inkscape:zoom="1.077" inkscape:document-units="pt" showgrid="false" inkscape:window-maximized="1" inkscape:cx="1455" inkscape:cy="1722" inkscape:current-layer="pattern" units="in" fit-margin-top="1" fit-margin-left="1" fit-margin-bottom="1" fit-margin-right="1" />
  <defs id="defs5">
    <marker style="overflow:visible" id="Arrow1Mstart" refX="0.0" refY="0.0" orient="auto" inkscape:stockid="Arrow1Mstart">
      <path transform="scale(0.4) translate(10,0)" style="fill-rule:evenodd;stroke:#000000;stroke-width:1.0pt;marker-start:none" d="M 0.0,0.0 L 5.0,-5.0 L -12.5,0.0 L 5.0,5.0 L 0.0,0.0 z " id="path8" />
    </marker>
    <marker style="overflow:visible;" id="Arrow1Mend" refX="0.0" refY="0.0" orient="auto" inkscape:stockid="Arrow1Mend">
      <path transform="scale(0.4) rotate(180) translate(10,0)" style="fill-rule:evenodd;stroke:#000000;stroke-width:1.0pt;marker-start:none;" d="M 0.0,0.0 L 5.0,-5.0 L -12.5,0.0 L 5.0,5.0 L 0.0,0.0 z " id="path11" />
    </marker>
    <marker style="overflow:visible" id="Arrow1Mstart-3" refX="0" refY="0" orient="auto" inkscape:stockid="Arrow1Mstart">
      <path inkscape:connector-curvature="0" transform="matrix(0.4,0,0,0.4,4,0)" style="fill-rule:evenodd;stroke:#000000;stroke-width:1pt;marker-start:none" d="M 0,0 L 5,-5 L -12.5,0 L 5,5 L 0,0 z" id="path8-2" />
    </marker>
    <marker style="overflow:visible" id="Arrow1Mend-8" refX="0" refY="0" orient="auto" inkscape:stockid="Arrow1Mend">
      <path inkscape:connector-curvature="0" transform="matrix(-0.4,0,0,-0.4,-4,0)" style="fill-rule:evenodd;stroke:#000000;stroke-width:1pt;marker-start:none" d="M 0,0 L 5,-5 L -12.5,0 L 5,5 L 0,0 z" id="path11-1" />
    </marker>
  </defs>
  <g inkscape:label="Label-pattern" id="pattern" inkscape:groupmode="layer" transform="translate(88.582677,88.582677)">
    <g id="document.bibb.Bibb Front &amp; Back.pattern" transform=" translate(868.750000, 1344.784345)">
      <g id="A.letter" transform="matrix(10.000000, 0, 0, 10.000000, -2835.000000, -11947.500000)">
        <text style="font-size:24; vertical-align:top; fill-opacity:1.0; fill:#000000; text-anchor:start; stroke:none; font-weight:normal; font-style:normal; text-align:right; " id="A.letter.letterline" y="1327.5" x="315.0" transform="">
A</text>
      </g>
      <line style="fill:none;stroke:#008000;stroke-width:5.1766;stroke-linejoin:miter;stroke-miterlimit:4;marker-start:url(#Arrow1Mstart);marker-end:url(#Arrow1Mend)" y2="2056" x2="-1.101e-13" y1="809.9" x1="-1.101e-13" id="A.grainline" />
      <path style="stroke-linejoin:miter; stroke-dashoffset:0; stroke:green; stroke-dasharray:24,6; stroke-miterlimit:4; stroke-width:4; fill:none; " d="M 0  0 C 276.384476601  0  315.0  -127.5  315.0  -191.25 C 315.0  -614.25  -22.6854860805  -534.035655369  45.0  -720.0 C 112.685486081  -905.964344631  810.0  -787.90168327  810.0  0 L 810.0  1830.0 C 810.0  2516.25  810.0  2745.0  0  2745.0 C -810.0  2745.0  -810.0  2516.25  -810.0  1830.0 L -810.0  0 C -810.0  -787.90168327  -112.685486081  -905.964344631  -45.0  -720.0 C 22.6854860805  -534.035655369  -315.0  -614.25  -315.0  -191.25 C -315.0  -127.5  -276.384476601  0  0  0 " id="A.seamline" transform="" />
      <path style="fill:none;stroke:#008000;stroke-width:4;stroke-linejoin:miter;stroke-miterlimit:4" d="m -211.1,-807 c -92,2 -181.5,33.7 -259.8,80.8 c -110.7,66.9 -198.5,168 -255.4,283.7 c -66.4,133.9 -92.7,284.6 -93.7,433.25 c 0,642.75 -0.1,1285.25 0.1,1928.25 c 0.6,119 0.7,238 14,357 c 10.2,85 27.7,172 71.2,247 c 33.5,59 84.8,106 144.3,138 c 77.3,42 164.1,61 250.4,74 c 131.4,19 264.36,21 396.81,20 c 117.59,-2 235.89,-8 351.39,-32 c 83.5,-17 167.3,-44 235.8,-97 c 52.5,-40 92.1,-95 116.5,-156 c 32.7,-81 44.3,-169 51.2,-255 c 9.8,-135 7.9,-269 8.3,-404 C 819.9,1202 820.1,593.5 819.9,-15.28 C 818.3,-163.7 791.1,-313.8 724,-447.1 C 666.5,-562 578.3,-662.3 467.4,-728.3 c -77.7,-46.1 -166.3,-77 -257.3,-78.7 c -46.2,-0.3 -94.6,6.9 -133.69,33 c -21.72,14.3 -38.09,36.5 -44.53,61.8 c -8.5,27 -8.66,58.1 6.43,82.8 c 18.92,31.4 51.04,50.8 80.09,71.5 c 45.5,30.8 89.7,65.6 120.7,111.7 c 41,59.4 58.8,131.4 64,202.4 c 1.8,34.5 5.6,70.3 -6.8,103.1 c -14.9,43.06 -51.2,75.39 -91.8,94.29 C 146.2,-19.33 81.34,-11.79 17.78,-10.2 c -67.91,1.002 -136.98,-3.49 -201.08,-27.26 c -45.3,-16.69 -88.5,-47.02 -108.5,-92.24 c -12,-25.5 -14.5,-53.8 -12.9,-81.8 c 2,-74.2 15.3,-149.8 53,-214.8 c 26.8,-47 66.9,-84.9 110.9,-115.8 c 31.8,-23.7 67.4,-43.1 93.14,-73.8 c 17.26,-20.4 24.82,-48.1 20.56,-74.5 c -3.9,-26.5 -13.89,-53.2 -34.24,-71.5 c -31.87,-29.5 -75.96,-40.7 -118.26,-44.1 c -10.4,-0.8 -21,-1.1 -31.5,-1 z" id="A.cuttingline" inkscape:connector-curvature="0" />
      <g id="A.info" transform="">
        <text style="font-size:12; vertical-align:top; fill-opacity:1.0; fill:#000000; text-anchor:start; stroke:none; font-weight:normal; font-style:normal; text-align:right; " id="A.info.lineSeamly Patterns" y="1372.5" x="315.0" transform="">
Seamly Patterns</text>
        <text style="font-size:12; vertical-align:top; fill-opacity:1.0; fill:#000000; text-anchor:start; stroke:none; font-weight:normal; font-style:normal; text-align:right; " id="A.info.line" y="1386.9" x="315.0" transform="" />
        <text style="font-size:12px;font-style:normal;font-weight:normal;text-align:right;text-anchor:start;fill:#000000;fill-opacity:1;stroke:none" id="A.info.lineAdult Bibb" y="1390.1548" x="314.07123">Adult Bibb</text>
        <text style="font-size:12px;font-style:normal;font-weight:normal;text-align:right;text-anchor:start;fill:#000000;fill-opacity:1;stroke:none" id="A.info.linePattern Piece A" y="1403.6259" x="313.14246">Pattern Piece A</text>
        <text style="font-size:12; vertical-align:top; fill-opacity:1.0; fill:#000000; text-anchor:start; stroke:none; font-weight:normal; font-style:normal; text-align:right; " id="A.info.line " y="1458.9" x="315.0" transform="" />
      </g>
    </g>
  </g>
  <g inkscape:label="Label-notes" id="notes" inkscape:groupmode="layer" transform="translate(88.582677,88.582677)">
    <g id="document.titleblock">
      <text style="font-size:40; vertical-align:top; fill-opacity:1.0; fill:#000000; text-anchor:right; stroke:none; font-weight:normal; font-style:normal; text-align:right; " id="company" y="0.0" x="0.0" transform="">
Seamly Patterns</text>
      <text style="font-size:40; vertical-align:top; fill-opacity:1.0; fill:#000000; text-anchor:right; stroke:none; font-weight:normal; font-style:normal; text-align:right; " id="designer" y="44.0" x="0.0" transform="" />
      <text style="font-size:40; vertical-align:top; fill-opacity:1.0; fill:#000000; text-anchor:right; stroke:none; font-weight:normal; font-style:normal; text-align:right; " id="pattern_number" y="88.0" x="0.0" transform="" />
      <text style="font-size:40px;font-style:normal;font-weight:normal;text-align:right;fill:#000000;fill-opacity:1;stroke:none" id="pattern_name" y="59.534199" x="5.1761289">Adult Bibb</text>
    </g>
    <g id="document.testgrid">
      <path style="stroke-linejoin:miter; stroke:green; stroke-width:4; stroke-miterlimit:4; fill:none; " d="M 1080.0  0.0 L 1080.0  212.598425197 M 1115.43307087  0.0 L 1115.43307087  212.598425197 M 1150.86614173  0.0 L 1150.86614173  212.598425197 M 1186.2992126  0.0 L 1186.2992126  212.598425197 M 1221.73228346  0.0 L 1221.73228346  212.598425197 M 1257.16535433  0.0 L 1257.16535433  212.598425197 M 1292.5984252  0.0 L 1292.5984252  212.598425197 M 1080.0  0.0 L 1292.5984252  0.0 M 1080.0  35.4330708661 L 1292.5984252  35.4330708661 M 1080.0  70.8661417323 L 1292.5984252  70.8661417323 M 1080.0  106.299212598 L 1292.5984252  106.299212598 M 1080.0  141.732283465 L 1292.5984252  141.732283465 M 1080.0  177.165354331 L 1292.5984252  177.165354331 M 1080.0  212.598425197 L 1292.5984252  212.598425197 M 1469.76377953  0.0 L 1469.76377953  270.0 M 1559.76377953  0.0 L 1559.76377953  270.0 M 1649.76377953  0.0 L 1649.76377953  270.0 M 1739.76377953  0.0 L 1739.76377953  270.0 M 1469.76377953  0.0 L 1739.76377953  0.0 M 1469.76377953  90.0 L 1739.76377953  90.0 M 1469.76377953  180.0 L 1739.76377953  180.0 M 1469.76377953  270.0 L 1739.76377953  270.0 " id="testgrid" />
    </g>
    <g id="document.bibb.Bibb Front &amp; Back.notes" transform=" translate(868.750000, 1344.784345)" />
  </g>
  <g inkscape:label="Label-reference" id="reference" inkscape:groupmode="layer" transform="translate(88.582677,88.582677)" />
</svg>
