<?xml version="1.0" encoding="UTF-8" standalone="no"?>
<svg xmlns:dc="http://purl.org/dc/elements/1.1/" xmlns:cc="http://creativecommons.org/ns#" xmlns:rdf="http://www.w3.org/1999/02/22-rdf-syntax-ns#" xmlns:svg="http://www.w3.org/2000/svg" xmlns="http://www.w3.org/2000/svg" xmlns:sodipodi="http://sodipodi.sourceforge.net/DTD/sodipodi-0.dtd" xmlns:inkscape="http://www.inkscape.org/namespaces/inkscape" patternNumber="HM_1" fitBoxtoViewport="True" companyName="Seamly Patterns" currentscale="0.5:1" margin-right="88.5826771654" client-name="DressFormLg" designerName="S.L.Spencer" height="6297.67826814" width="2731.44685023" margin-top="88.5826771654" version="1.1" margin-bottom="88.5826771654" margin-left="88.5826771654" preserveAspectRatio="xMidYMid meet" id="svg2" inkscape:version="0.48.4 r9939" sodipodi:docname="DressFormLg-single_breasted_dinner_jacket_tuxedo_1880-2015-01-14-1955.svg">
  <metadata id="metadata227">
    <rdf:RDF>
      <cc:Work rdf:about="">
        <dc:format>image/svg+xml</dc:format>
        <dc:type rdf:resource="http://purl.org/dc/dcmitype/StillImage" />
      </cc:Work>
    </rdf:RDF>
  </metadata>
  <sodipodi:namedview id="base" pagecolor="#ffffff" bordercolor="#666666" borderopacity="1.0" inkscape:pageopacity="0.0" inkscape:pageshadow="2" inkscape:zoom="0.14068677" inkscape:document-units="pt" showgrid="false" inkscape:window-maximized="1" inkscape:cx="1365.7234" inkscape:cy="3148.8391" inkscape:window-width="1855" inkscape:window-height="1056" inkscape:window-x="65" inkscape:window-y="24" inkscape:current-layer="pattern" />
  <defs id="defs5">
    <marker style="overflow:visible" id="Arrow1Mstart" refX="0.0" refY="0.0" orient="auto" inkscape:stockid="Arrow1Mstart">
      <path transform="scale(0.4) translate(10,0)" style="fill-rule:evenodd;stroke:#000000;stroke-width:1.0pt;marker-start:none" d="M 0.0,0.0 L 5.0,-5.0 L -12.5,0.0 L 5.0,5.0 L 0.0,0.0 z " id="path8" />
    </marker>
    <marker style="overflow:visible;" id="Arrow1Mend" refX="0.0" refY="0.0" orient="auto" inkscape:stockid="Arrow1Mend">
      <path transform="scale(0.4) rotate(180) translate(10,0)" style="fill-rule:evenodd;stroke:#000000;stroke-width:1.0pt;marker-start:none;" d="M 0.0,0.0 L 5.0,-5.0 L -12.5,0.0 L 5.0,5.0 L 0.0,0.0 z " id="path11" />
    </marker>
  </defs>
  <g inkscape:label="Label-pattern" id="pattern" inkscape:groupmode="layer" transform="translate(88.582677,88.582677)">
    <g id="document.tuxedo.Tuxedo Back.pattern" transform=" translate(58.750000, 580.552283)">
      <g id="A.letter" transform="matrix(10.000000, 0, 0, 10.000000, -2082.751244, -11713.110236)">
        <text style="font-size:24; vertical-align:top; fill-opacity:1.0; fill:#000000; text-anchor:start; stroke:none; font-weight:normal; font-style:normal; text-align:right; " transform="" id="A.letter.letterline" y="1301.45669291" x="231.416804841">
A</text>
      </g>
      <line style="stroke-linejoin:miter; stroke:green; stroke-width:4; stroke-miterlimit:4; fill:none; " y2="2143.7007874" marker-end="url(#Arrow1Mend)" marker-start="url(#Arrow1Mstart)" transform="" x2="159.999741003" y1="265.748031496" x1="159.999741003" id="A.grainline" />
      <path style="stroke-linejoin:miter; stroke-dashoffset:0; stroke:green; stroke-dasharray:24,6; stroke-miterlimit:4; stroke-width:4; fill:none; " transform="" d="M 0  0 C 90.4567285987  0  208.328898861  -54.2716160406  231.416804841  -141.732283465 L 744.094488189  -6.39540004341 C 728.18902456  53.8570310723  716.680830076  115.367067561  708.661417323  177.165354331 C 698.781784675  253.298656154  698.781784675  331.347013137  708.661417323  407.480314961 L 673.228346457  637.795275591 C 637.130178211  872.433369185  602.362204724  1109.05805619  602.362204724  1346.45669291 C 602.362204724  1612.61451344  640.740384932  1877.60866052  646.653543307  2143.7007874 L 655.511811024  2542.32283465 L 53.1496062992  2542.32283465 L 62.0078740157  2143.7007874 C 67.915207335  1877.87078803  88.5826771654  1612.35232122  88.5826771654  1346.45669291 C 88.5826771654  1109.57278205  61.95222844  873.190096072  35.4330708661  637.795275591 C 21.4866840279  514.001477955  0  390.324939624  0  265.748031496 L 0  0 " id="A.seamline" />
      <path style="fill:none;stroke:#008000;stroke-width:4;stroke-linejoin:miter;stroke-miterlimit:4" d="M 177.1875,-156.71875 C 169.09863,-126.87264 143.83793,-105.41937 118.34375,-89.96875 77.929867,-66.16331 30.961167,-54.197395 -16,-56.25 -29.416667,-56.25 -42.833333,-56.25 -56.25,-56.25 -56.085812,59.259793 -56.580486,174.77453 -56,290.28125 -53.185254,422.41219 -29.420359,552.7645 -15.970595,683.9998 10.646758,920.387 35.57506,1157.5484 32.09375,1395.75 29.540514,1658.8072 9.3728673,1921.3647 4.8184324,2184.4272 1.7690832,2322.4724 -1.335649,2460.5164 -4.34375,2598.5625 234.77083,2598.5625 473.88542,2598.5625 713,2598.5625 709.23401,2433.1478 705.98175,2267.71 701.77362,2102.3137 692.77626,1831.1564 653.36555,1561.4886 659.24042,1289.9382 665.38921,1030.7838 709.57989,774.6856 748.43308,518.81335 753.98094,481.61731 760.23223,444.42473 765.34228,407.22678 753.59951,322.78433 755.34592,236.5731 768.91611,152.38491 777.6967,92.451664 791.16816,33.296055 807.08502,-25.187677 808.93168,-32.291785 810.77834,-39.395892 812.625,-46.5 605.75146,-101.05979 398.89264,-155.67541 192.03125,-210.28125 187.08333,-192.42708 182.13542,-174.57292 177.1875,-156.71875 z" id="A.cuttingline" inkscape:connector-curvature="0" />
      <g id="A.info" transform="">
        <text style="font-size:12; vertical-align:top; fill-opacity:1.0; fill:#000000; text-anchor:start; stroke:none; font-weight:normal; font-style:normal; text-align:right; " transform="" id="A.info.lineSeamly Patterns" y="1346.45669291" x="231.416804841">
Seamly Patterns</text>
        <text style="font-size:12; vertical-align:top; fill-opacity:1.0; fill:#000000; text-anchor:start; stroke:none; font-weight:normal; font-style:normal; text-align:right; " transform="" id="A.info.lineHM_1" y="1360.85669291" x="231.416804841">
HM_1</text>
        <text style="font-size:12; vertical-align:top; fill-opacity:1.0; fill:#000000; text-anchor:start; stroke:none; font-weight:normal; font-style:normal; text-align:right; " transform="" id="A.info.lineSingle Breasted Tuxedo Jacket, circa 1880 to 1900" y="1375.25669291" x="231.416804841">
Single Breasted Tuxedo Jacket, circa 1880 to 1900</text>
        <text style="font-size:12; vertical-align:top; fill-opacity:1.0; fill:#000000; text-anchor:start; stroke:none; font-weight:normal; font-style:normal; text-align:right; " transform="" id="A.info.linePattern Piece A" y="1389.65669291" x="231.416804841">
Pattern Piece A</text>
        <text style="font-size:12; vertical-align:top; fill-opacity:1.0; fill:#000000; text-anchor:start; stroke:none; font-weight:normal; font-style:normal; text-align:right; " transform="" id="A.info.lineCut 2 Fabric" y="1404.05669291" x="231.416804841">
Cut 2 Fabric</text>
        <text style="font-size:12; vertical-align:top; fill-opacity:1.0; fill:#000000; text-anchor:start; stroke:none; font-weight:normal; font-style:normal; text-align:right; " transform="" id="A.info.line " y="1418.45669291" x="231.416804841" />
        <text style="font-size:12; vertical-align:top; fill-opacity:1.0; fill:#000000; text-anchor:start; stroke:none; font-weight:normal; font-style:normal; text-align:right; " transform="" id="A.info.lineDressFormLg" y="1432.85669291" x="231.416804841">
DressFormLg</text>
        <text style="font-size:12; vertical-align:top; fill-opacity:1.0; fill:#000000; text-anchor:start; stroke:none; font-weight:normal; font-style:normal; text-align:right; " transform="" id="A.info.line2015/1/14 19:55" y="1447.25669291" x="231.416804841">
2015/1/14 19:55</text>
      </g>
    </g>
    <g id="document.tuxedo.Tuxedo Front.pattern" transform=" translate(88.582677, 3433.357402)">
      <g id="B.letter" transform="matrix(10.000000, 0, 0, 10.000000, -16104.330709, -5335.157480)">
        <text style="font-size:24; vertical-align:top; fill-opacity:1.0; fill:#000000; text-anchor:start; stroke:none; font-weight:normal; font-style:normal; text-align:right; " transform="" id="B.letter.letterline" y="592.795275591" x="1789.37007874">
B</text>
      </g>
      <line style="stroke-linejoin:miter; stroke:green; stroke-width:4; stroke-miterlimit:4; fill:none; " y2="2143.7007874" marker-end="url(#Arrow1Mend)" marker-start="url(#Arrow1Mstart)" transform="" x2="2183.49263349" y1="637.795275591" x1="2183.49263349" id="B.grainline" />
      <path style="stroke-linejoin:miter; stroke-dashoffset:0; stroke:green; stroke-dasharray:24,6; stroke-miterlimit:4; stroke-width:4; fill:none; " transform="" d="M 1789.37007874  -35.4330708661 L 1852.00749046  132.244478044 L 1962.96208344  176.924096174 L 2338.39459112  138.086250552 L 2409.4488189  637.795275591 L 2374.01574803  1257.87401575 L 2303.1496063  2630.90551181 L 797.244094488  2542.32283465 L 832.677165354  2143.7007874 L 974.409448819  1346.45669291 L 974.409448819  637.795275591 L 1009.84251969  407.480314961 L 1074.62930757  537.57541684 L 1455.79558244  587.685346215 L 1505.90551181  549.212598425 L 1469.1077684  269.937211623 L 1300.96952629  43.9320189064 L 1789.37007874  -35.4330708661 " id="B.seamline" />
      <path style="fill:none;stroke:#008000;stroke-width:4;stroke-linejoin:miter;stroke-miterlimit:4" d="M 1780.3438,-90.96875 C 1587.0937,-59.562684 1393.8441,-28.154067 1200.5938,3.25 1272.1511,99.405029 1343.6779,195.58271 1415.2188,291.75 1425.4375,369.29167 1435.6562,446.83333 1445.875,524.375 1441.5829,530.19787 1435.2619,528.47665 1429.1252,527.44078 1323.2918,513.52302 1217.4584,499.60526 1111.625,485.6875 1068.1384,398.37869 1024.6636,311.06404 981.1875,223.75 960.23732,360.66157 938.87216,497.54075 918.15625,634.46875 918.15625,870.16667 918.15625,1105.8646 918.15625,1341.5625 871.05887,1606.7936 823.75524,1871.9986 776.78674,2137.2461 763.22454,2289.8518 749.64677,2442.456 736.09375,2595.0625 1276.1978,2626.8349 1816.3004,2658.633 2356.4062,2690.375 2381.4054,2208.1902 2406.0395,1725.9849 2431.1875,1243.8089 2442.7582,1041.0079 2454.3468,838.20789 2465.9062,635.40625 2439.4364,449.12368 2412.9502,262.84342 2386.4688,76.5625 2248.0147,90.936763 2109.5516,105.2246 1971.0938,119.5625 1946.0625,109.48958 1921.0312,99.416667 1896,89.34375 1872.6355,26.770803 1849.2825,-35.806432 1825.9062,-98.375 1810.7187,-95.90625 1795.5312,-93.4375 1780.3438,-90.96875 z" id="B.cuttingline" inkscape:connector-curvature="0" />
      <g id="B.info" transform="">
        <text style="font-size:12; vertical-align:top; fill-opacity:1.0; fill:#000000; text-anchor:start; stroke:none; font-weight:normal; font-style:normal; text-align:right; " transform="" id="B.info.lineSeamly Patterns" y="637.795275591" x="1789.37007874">
Seamly Patterns</text>
        <text style="font-size:12; vertical-align:top; fill-opacity:1.0; fill:#000000; text-anchor:start; stroke:none; font-weight:normal; font-style:normal; text-align:right; " transform="" id="B.info.lineHM_1" y="652.195275591" x="1789.37007874">
HM_1</text>
        <text style="font-size:12; vertical-align:top; fill-opacity:1.0; fill:#000000; text-anchor:start; stroke:none; font-weight:normal; font-style:normal; text-align:right; " transform="" id="B.info.lineSingle Breasted Tuxedo Jacket, circa 1880 to 1900" y="666.595275591" x="1789.37007874">
Single Breasted Tuxedo Jacket, circa 1880 to 1900</text>
        <text style="font-size:12; vertical-align:top; fill-opacity:1.0; fill:#000000; text-anchor:start; stroke:none; font-weight:normal; font-style:normal; text-align:right; " transform="" id="B.info.linePattern Piece B" y="680.995275591" x="1789.37007874">
Pattern Piece B</text>
        <text style="font-size:12; vertical-align:top; fill-opacity:1.0; fill:#000000; text-anchor:start; stroke:none; font-weight:normal; font-style:normal; text-align:right; " transform="" id="B.info.lineCut 2 Fabric" y="695.395275591" x="1789.37007874">
Cut 2 Fabric</text>
        <text style="font-size:12; vertical-align:top; fill-opacity:1.0; fill:#000000; text-anchor:start; stroke:none; font-weight:normal; font-style:normal; text-align:right; " transform="" id="B.info.line " y="709.795275591" x="1789.37007874" />
        <text style="font-size:12; vertical-align:top; fill-opacity:1.0; fill:#000000; text-anchor:start; stroke:none; font-weight:normal; font-style:normal; text-align:right; " transform="" id="B.info.lineDressFormLg" y="724.195275591" x="1789.37007874">
DressFormLg</text>
        <text style="font-size:12; vertical-align:top; fill-opacity:1.0; fill:#000000; text-anchor:start; stroke:none; font-weight:normal; font-style:normal; text-align:right; " transform="" id="B.info.line2015/1/14 19:55" y="738.595275591" x="1789.37007874">
2015/1/14 19:55</text>
      </g>
    </g>
  </g>
  <g inkscape:label="Label-notes" id="notes" inkscape:groupmode="layer" transform="translate(88.582677,88.582677)">
    <g id="document.titleblock">
      <text style="font-size:40; vertical-align:top; fill-opacity:1.0; fill:#000000; text-anchor:right; stroke:none; font-weight:normal; font-style:normal; text-align:right; " transform="" id="company" y="0.0" x="0.0">
Seamly Patterns</text>
      <text style="font-size:40; vertical-align:top; fill-opacity:1.0; fill:#000000; text-anchor:right; stroke:none; font-weight:normal; font-style:normal; text-align:right; " transform="" id="designer" y="44.0" x="0.0">
S.L.Spencer</text>
      <text style="font-size:40; vertical-align:top; fill-opacity:1.0; fill:#000000; text-anchor:right; stroke:none; font-weight:normal; font-style:normal; text-align:right; " transform="" id="pattern_number" y="88.0" x="0.0">
HM_1</text>
      <text style="font-size:40; vertical-align:top; fill-opacity:1.0; fill:#000000; text-anchor:right; stroke:none; font-weight:normal; font-style:normal; text-align:right; " transform="" id="pattern_name" y="132.0" x="0.0">
Single Breasted Tuxedo Jacket, circa 1880 to 1900</text>
      <text style="font-size:40; vertical-align:top; fill-opacity:1.0; fill:#000000; text-anchor:right; stroke:none; font-weight:normal; font-style:normal; text-align:right; " transform="" id="client" y="176.0" x="0.0">
DressFormLg</text>
      <text style="font-size:40; vertical-align:top; fill-opacity:1.0; fill:#000000; text-anchor:right; stroke:none; font-weight:normal; font-style:normal; text-align:right; " transform="" id="date" y="220.0" x="0.0">
2015/1/14 19:55</text>
    </g>
    <g id="document.testgrid">
      <path style="stroke-linejoin:miter; stroke:green; stroke-width:4; stroke-miterlimit:4; fill:none; " d="M 1080.0  0.0 L 1080.0  212.598425197 M 1115.43307087  0.0 L 1115.43307087  212.598425197 M 1150.86614173  0.0 L 1150.86614173  212.598425197 M 1186.2992126  0.0 L 1186.2992126  212.598425197 M 1221.73228346  0.0 L 1221.73228346  212.598425197 M 1257.16535433  0.0 L 1257.16535433  212.598425197 M 1292.5984252  0.0 L 1292.5984252  212.598425197 M 1080.0  0.0 L 1292.5984252  0.0 M 1080.0  35.4330708661 L 1292.5984252  35.4330708661 M 1080.0  70.8661417323 L 1292.5984252  70.8661417323 M 1080.0  106.299212598 L 1292.5984252  106.299212598 M 1080.0  141.732283465 L 1292.5984252  141.732283465 M 1080.0  177.165354331 L 1292.5984252  177.165354331 M 1080.0  212.598425197 L 1292.5984252  212.598425197 M 1469.76377953  0.0 L 1469.76377953  270.0 M 1559.76377953  0.0 L 1559.76377953  270.0 M 1649.76377953  0.0 L 1649.76377953  270.0 M 1739.76377953  0.0 L 1739.76377953  270.0 M 1469.76377953  0.0 L 1739.76377953  0.0 M 1469.76377953  90.0 L 1739.76377953  90.0 M 1469.76377953  180.0 L 1739.76377953  180.0 M 1469.76377953  270.0 L 1739.76377953  270.0 " id="testgrid" />
    </g>
    <g id="document.tuxedo.Tuxedo Back.notes" transform=" translate(58.750000, 580.552283)" />
    <g id="document.tuxedo.Tuxedo Front.notes" transform=" translate(88.582677, 3433.357402)" />
  </g>
  <g inkscape:label="Label-reference" id="reference" inkscape:groupmode="layer" transform="translate(88.582677,88.582677)">
    <g id="document.tuxedo.Tuxedo Back.reference" transform=" translate(58.750000, 580.552283)">
      <circle style="stroke:gray; stroke-width:1; fill:none; " transform="" cy="0" cx="90.4567285987" r="5" id="A.pA.outpoint" d="M 95.456726,0 C 95.456726,2.7614237 93.21815,5 90.456726,5 87.695302,5 85.456726,2.7614237 85.456726,0 85.456726,-2.7614237 87.695302,-5 90.456726,-5 93.21815,-5 95.456726,-2.7614237 95.456726,0 z" />
      <text style="font-size:25; vertical-align:top; fill-opacity:1.0; fill:gray; text-anchor:right; stroke:none; font-weight:normal; font-style:italic; text-align:right; " transform="" id="A.pA.outpoint.text" y="-7" x="97.4567285987">
pA.out</text>
      <circle style="stroke:red; stroke-width:1; fill:red; " transform="" cy="0" cx="0" r="5" id="A.pA" d="M 5,0 C 5,2.7614237 2.7614237,5 0,5 -2.7614237,5 -5,2.7614237 -5,0 -5,-2.7614237 -2.7614237,-5 0,-5 2.7614237,-5 5,-2.7614237 5,0 z" />
      <text style="font-size:30; vertical-align:top; fill-opacity:1.0; fill:darkblue; text-anchor:right; stroke:none; font-weight:normal; font-style:italic; text-align:right; " transform="" id="A.pA.text" y="-7" x="7">
pA</text>
      <circle style="stroke:gray; stroke-width:1; fill:none; " transform="" cy="390.324939624" cx="0" r="5" id="A.pB.inpoint" d="M 5,390.32495 C 5,393.08637 2.7614237,395.32495 0,395.32495 -2.7614237,395.32495 -5,393.08637 -5,390.32495 -5,387.56353 -2.7614237,385.32495 0,385.32495 2.7614237,385.32495 5,387.56353 5,390.32495 z" />
      <text style="font-size:25; vertical-align:top; fill-opacity:1.0; fill:gray; text-anchor:right; stroke:none; font-weight:normal; font-style:italic; text-align:right; " transform="" id="A.pB.inpoint.text" y="383.324939624" x="7">
pB.in</text>
      <circle style="stroke:red; stroke-width:1; fill:red; " transform="" cy="265.748031496" cx="0" r="5" id="A.pB" d="M 5,265.74802 C 5,268.50944 2.7614237,270.74802 0,270.74802 -2.7614237,270.74802 -5,268.50944 -5,265.74802 -5,262.98659 -2.7614237,260.74802 0,260.74802 2.7614237,260.74802 5,262.98659 5,265.74802 z" />
      <text style="font-size:30; vertical-align:top; fill-opacity:1.0; fill:darkblue; text-anchor:right; stroke:none; font-weight:normal; font-style:italic; text-align:right; " transform="" id="A.pB.text" y="258.748031496" x="7">
pB</text>
      <circle style="stroke:red; stroke-width:1; fill:red; " transform="" cy="637.795275591" cx="0" r="5" id="A.pC" d="M 5,637.79529 C 5,640.55671 2.7614237,642.79529 0,642.79529 -2.7614237,642.79529 -5,640.55671 -5,637.79529 -5,635.03386 -2.7614237,632.79529 0,632.79529 2.7614237,632.79529 5,635.03386 5,637.79529 z" />
      <text style="font-size:30; vertical-align:top; fill-opacity:1.0; fill:darkblue; text-anchor:right; stroke:none; font-weight:normal; font-style:italic; text-align:right; " transform="" id="A.pC.text" y="630.795275591" x="7">
pC</text>
      <circle style="stroke:red; stroke-width:1; fill:red; " transform="" cy="1346.45669291" cx="0" r="5" id="A.pD" d="M 5,1346.4567 C 5,1349.2181 2.7614237,1351.4567 0,1351.4567 -2.7614237,1351.4567 -5,1349.2181 -5,1346.4567 -5,1343.6952 -2.7614237,1341.4567 0,1341.4567 2.7614237,1341.4567 5,1343.6952 5,1346.4567 z" />
      <text style="font-size:30; vertical-align:top; fill-opacity:1.0; fill:darkblue; text-anchor:right; stroke:none; font-weight:normal; font-style:italic; text-align:right; " transform="" id="A.pD.text" y="1339.45669291" x="7">
pD</text>
      <circle style="stroke:red; stroke-width:1; fill:red; " transform="" cy="2143.7007874" cx="0" r="5" id="A.pE" d="M 5,2143.7007 C 5,2146.4621 2.7614237,2148.7007 0,2148.7007 -2.7614237,2148.7007 -5,2146.4621 -5,2143.7007 -5,2140.9393 -2.7614237,2138.7007 0,2138.7007 2.7614237,2138.7007 5,2140.9393 5,2143.7007 z" />
      <text style="font-size:30; vertical-align:top; fill-opacity:1.0; fill:darkblue; text-anchor:right; stroke:none; font-weight:normal; font-style:italic; text-align:right; " transform="" id="A.pE.text" y="2136.7007874" x="7">
pE</text>
      <circle style="stroke:red; stroke-width:1; fill:red; " transform="" cy="2542.32283465" cx="0" r="5" id="A.pF" d="M 5,2542.3228 C 5,2545.0842 2.7614237,2547.3228 0,2547.3228 -2.7614237,2547.3228 -5,2545.0842 -5,2542.3228 -5,2539.5613 -2.7614237,2537.3228 0,2537.3228 2.7614237,2537.3228 5,2539.5613 5,2542.3228 z" />
      <text style="font-size:30; vertical-align:top; fill-opacity:1.0; fill:darkblue; text-anchor:right; stroke:none; font-weight:normal; font-style:italic; text-align:right; " transform="" id="A.pF.text" y="2535.32283465" x="7">
pF</text>
      <circle style="stroke:red; stroke-width:1; fill:red; " transform="" cy="-141.732283465" cx="0" r="5" id="A.BSH" d="M 5,-141.73228 C 5,-138.97086 2.7614237,-136.73228 0,-136.73228 -2.7614237,-136.73228 -5,-138.97086 -5,-141.73228 -5,-144.49371 -2.7614237,-146.73228 0,-146.73228 2.7614237,-146.73228 5,-144.49371 5,-141.73228 z" />
      <text style="font-size:30; vertical-align:top; fill-opacity:1.0; fill:darkblue; text-anchor:right; stroke:none; font-weight:normal; font-style:italic; text-align:right; " transform="" id="A.BSH.text" y="-148.732283465" x="7">
BSH</text>
      <circle style="stroke:red; stroke-width:1; fill:red; " transform="" cy="-141.732283465" cx="708.661417323" r="5" id="A.BSW" d="M 713.66144,-141.73228 C 713.66144,-138.97086 711.42286,-136.73228 708.66144,-136.73228 705.90001,-136.73228 703.66144,-138.97086 703.66144,-141.73228 703.66144,-144.49371 705.90001,-146.73228 708.66144,-146.73228 711.42286,-146.73228 713.66144,-144.49371 713.66144,-141.73228 z" />
      <text style="font-size:30; vertical-align:top; fill-opacity:1.0; fill:darkblue; text-anchor:right; stroke:none; font-weight:normal; font-style:italic; text-align:right; " transform="" id="A.BSW.text" y="-148.732283465" x="715.661417323">
BSW</text>
      <circle style="stroke:red; stroke-width:1; fill:red; " transform="" cy="0" cx="708.661417323" r="5" id="A.p1" d="M 713.66144,0 C 713.66144,2.7614237 711.42286,5 708.66144,5 705.90001,5 703.66144,2.7614237 703.66144,0 703.66144,-2.7614237 705.90001,-5 708.66144,-5 711.42286,-5 713.66144,-2.7614237 713.66144,0 z" />
      <text style="font-size:30; vertical-align:top; fill-opacity:1.0; fill:darkblue; text-anchor:right; stroke:none; font-weight:normal; font-style:italic; text-align:right; " transform="" id="A.p1.text" y="-7" x="715.661417323">
p1</text>
      <circle style="stroke:red; stroke-width:1; fill:red; " transform="" cy="637.795275591" cx="708.661417323" r="5" id="A.p3" d="M 713.66144,637.79529 C 713.66144,640.55671 711.42286,642.79529 708.66144,642.79529 705.90001,642.79529 703.66144,640.55671 703.66144,637.79529 703.66144,635.03386 705.90001,632.79529 708.66144,632.79529 711.42286,632.79529 713.66144,635.03386 713.66144,637.79529 z" />
      <text style="font-size:30; vertical-align:top; fill-opacity:1.0; fill:darkblue; text-anchor:right; stroke:none; font-weight:normal; font-style:italic; text-align:right; " transform="" id="A.p3.text" y="630.795275591" x="715.661417323">
p3</text>
      <circle style="stroke:red; stroke-width:1; fill:red; " transform="" cy="1346.45669291" cx="708.661417323" r="5" id="A.p4" d="M 713.66144,1346.4567 C 713.66144,1349.2181 711.42286,1351.4567 708.66144,1351.4567 705.90001,1351.4567 703.66144,1349.2181 703.66144,1346.4567 703.66144,1343.6952 705.90001,1341.4567 708.66144,1341.4567 711.42286,1341.4567 713.66144,1343.6952 713.66144,1346.4567 z" />
      <text style="font-size:30; vertical-align:top; fill-opacity:1.0; fill:darkblue; text-anchor:right; stroke:none; font-weight:normal; font-style:italic; text-align:right; " transform="" id="A.p4.text" y="1339.45669291" x="715.661417323">
p4</text>
      <circle style="stroke:red; stroke-width:1; fill:red; " transform="" cy="2143.7007874" cx="708.661417323" r="5" id="A.p5" d="M 713.66144,2143.7007 C 713.66144,2146.4621 711.42286,2148.7007 708.66144,2148.7007 705.90001,2148.7007 703.66144,2146.4621 703.66144,2143.7007 703.66144,2140.9393 705.90001,2138.7007 708.66144,2138.7007 711.42286,2138.7007 713.66144,2140.9393 713.66144,2143.7007 z" />
      <text style="font-size:30; vertical-align:top; fill-opacity:1.0; fill:darkblue; text-anchor:right; stroke:none; font-weight:normal; font-style:italic; text-align:right; " transform="" id="A.p5.text" y="2136.7007874" x="715.661417323">
p5</text>
      <circle style="stroke:red; stroke-width:1; fill:red; " transform="" cy="2542.32283465" cx="708.661417323" r="5" id="A.p6" d="M 713.66144,2542.3228 C 713.66144,2545.0842 711.42286,2547.3228 708.66144,2547.3228 705.90001,2547.3228 703.66144,2545.0842 703.66144,2542.3228 703.66144,2539.5613 705.90001,2537.3228 708.66144,2537.3228 711.42286,2537.3228 713.66144,2539.5613 713.66144,2542.3228 z" />
      <text style="font-size:30; vertical-align:top; fill-opacity:1.0; fill:darkblue; text-anchor:right; stroke:none; font-weight:normal; font-style:italic; text-align:right; " transform="" id="A.p6.text" y="2535.32283465" x="715.661417323">
p6</text>
      <circle style="stroke:gray; stroke-width:1; fill:none; " transform="" cy="873.190096072" cx="61.95222844" r="5" id="A.p7.inpoint" d="M 66.952229,873.19012 C 66.952229,875.95155 64.713652,878.19012 61.952229,878.19012 59.190805,878.19012 56.952229,875.95155 56.952229,873.19012 56.952229,870.4287 59.190805,868.19012 61.952229,868.19012 64.713652,868.19012 66.952229,870.4287 66.952229,873.19012 z" />
      <text style="font-size:25; vertical-align:top; fill-opacity:1.0; fill:gray; text-anchor:right; stroke:none; font-weight:normal; font-style:italic; text-align:right; " transform="" id="A.p7.inpoint.text" y="866.190096072" x="68.95222844">
p7.in</text>
      <circle style="stroke:gray; stroke-width:1; fill:none; " transform="" cy="514.001477955" cx="21.4866840279" r="5" id="A.p7.outpoint" d="M 26.486685,514.00146 C 26.486685,516.76289 24.248109,519.00146 21.486685,519.00146 18.725261,519.00146 16.486685,516.76289 16.486685,514.00146 16.486685,511.24004 18.725261,509.00146 21.486685,509.00146 24.248109,509.00146 26.486685,511.24004 26.486685,514.00146 z" />
      <text style="font-size:25; vertical-align:top; fill-opacity:1.0; fill:gray; text-anchor:right; stroke:none; font-weight:normal; font-style:italic; text-align:right; " transform="" id="A.p7.outpoint.text" y="507.001477955" x="28.4866840279">
p7.out</text>
      <circle style="stroke:red; stroke-width:1; fill:red; " transform="" cy="637.795275591" cx="35.4330708661" r="5" id="A.p7" d="M 40.433071,637.79529 C 40.433071,640.55671 38.194495,642.79529 35.433071,642.79529 32.671647,642.79529 30.433071,640.55671 30.433071,637.79529 30.433071,635.03386 32.671647,632.79529 35.433071,632.79529 38.194495,632.79529 40.433071,635.03386 40.433071,637.79529 z" />
      <text style="font-size:30; vertical-align:top; fill-opacity:1.0; fill:darkblue; text-anchor:right; stroke:none; font-weight:normal; font-style:italic; text-align:right; " transform="" id="A.p7.text" y="630.795275591" x="42.4330708661">
p7</text>
      <circle style="stroke:gray; stroke-width:1; fill:none; " transform="" cy="1612.35232122" cx="88.5826771654" r="5" id="A.p8.inpoint" d="M 93.58268,1612.3523 C 93.58268,1615.1137 91.344103,1617.3523 88.58268,1617.3523 85.821256,1617.3523 83.58268,1615.1137 83.58268,1612.3523 83.58268,1609.5909 85.821256,1607.3523 88.58268,1607.3523 91.344103,1607.3523 93.58268,1609.5909 93.58268,1612.3523 z" />
      <text style="font-size:25; vertical-align:top; fill-opacity:1.0; fill:gray; text-anchor:right; stroke:none; font-weight:normal; font-style:italic; text-align:right; " transform="" id="A.p8.inpoint.text" y="1605.35232122" x="95.5826771654">
p8.in</text>
      <circle style="stroke:gray; stroke-width:1; fill:none; " transform="" cy="1109.57278205" cx="88.5826771654" r="5" id="A.p8.outpoint" d="M 93.58268,1109.5728 C 93.58268,1112.3342 91.344103,1114.5728 88.58268,1114.5728 85.821256,1114.5728 83.58268,1112.3342 83.58268,1109.5728 83.58268,1106.8113 85.821256,1104.5728 88.58268,1104.5728 91.344103,1104.5728 93.58268,1106.8113 93.58268,1109.5728 z" />
      <text style="font-size:25; vertical-align:top; fill-opacity:1.0; fill:gray; text-anchor:right; stroke:none; font-weight:normal; font-style:italic; text-align:right; " transform="" id="A.p8.outpoint.text" y="1102.57278205" x="95.5826771654">
p8.out</text>
      <circle style="stroke:red; stroke-width:1; fill:red; " transform="" cy="1346.45669291" cx="88.5826771654" r="5" id="A.p8" d="M 93.58268,1346.4567 C 93.58268,1349.2181 91.344103,1351.4567 88.58268,1351.4567 85.821256,1351.4567 83.58268,1349.2181 83.58268,1346.4567 83.58268,1343.6952 85.821256,1341.4567 88.58268,1341.4567 91.344103,1341.4567 93.58268,1343.6952 93.58268,1346.4567 z" />
      <text style="font-size:30; vertical-align:top; fill-opacity:1.0; fill:darkblue; text-anchor:right; stroke:none; font-weight:normal; font-style:italic; text-align:right; " transform="" id="A.p8.text" y="1339.45669291" x="95.5826771654">
p8</text>
      <circle style="stroke:gray; stroke-width:1; fill:none; " transform="" cy="1877.87078803" cx="67.915207335" r="5" id="A.p9.outpoint" d="M 72.915207,1877.8707 C 72.915207,1880.6322 70.676631,1882.8707 67.915207,1882.8707 65.153783,1882.8707 62.915207,1880.6322 62.915207,1877.8707 62.915207,1875.1093 65.153783,1872.8707 67.915207,1872.8707 70.676631,1872.8707 72.915207,1875.1093 72.915207,1877.8707 z" />
      <text style="font-size:25; vertical-align:top; fill-opacity:1.0; fill:gray; text-anchor:right; stroke:none; font-weight:normal; font-style:italic; text-align:right; " transform="" id="A.p9.outpoint.text" y="1870.87078803" x="74.915207335">
p9.out</text>
      <circle style="stroke:red; stroke-width:1; fill:red; " transform="" cy="2143.7007874" cx="62.0078740157" r="5" id="A.p9" d="M 67.007874,2143.7007 C 67.007874,2146.4621 64.769297,2148.7007 62.007874,2148.7007 59.24645,2148.7007 57.007874,2146.4621 57.007874,2143.7007 57.007874,2140.9393 59.24645,2138.7007 62.007874,2138.7007 64.769297,2138.7007 67.007874,2140.9393 67.007874,2143.7007 z" />
      <text style="font-size:30; vertical-align:top; fill-opacity:1.0; fill:darkblue; text-anchor:right; stroke:none; font-weight:normal; font-style:italic; text-align:right; " transform="" id="A.p9.text" y="2136.7007874" x="69.0078740157">
p9</text>
      <circle style="stroke:red; stroke-width:1; fill:red; " transform="" cy="2542.32283465" cx="53.1496062992" r="5" id="A.p10" d="M 58.149605,2542.3228 C 58.149605,2545.0842 55.911029,2547.3228 53.149605,2547.3228 50.388181,2547.3228 48.149605,2545.0842 48.149605,2542.3228 48.149605,2539.5613 50.388181,2537.3228 53.149605,2537.3228 55.911029,2537.3228 58.149605,2539.5613 58.149605,2542.3228 z" />
      <text style="font-size:30; vertical-align:top; fill-opacity:1.0; fill:darkblue; text-anchor:right; stroke:none; font-weight:normal; font-style:italic; text-align:right; " transform="" id="A.p10.text" y="2535.32283465" x="60.1496062992">
p10</text>
      <circle style="stroke:red; stroke-width:1; fill:red; " transform="" cy="0" cx="301.181102362" r="5" id="A.p11" d="M 306.18109,0 C 306.18109,2.7614237 303.94252,5 301.18109,5 298.41967,5 296.18109,2.7614237 296.18109,0 296.18109,-2.7614237 298.41967,-5 301.18109,-5 303.94252,-5 306.18109,-2.7614237 306.18109,0 z" />
      <text style="font-size:30; vertical-align:top; fill-opacity:1.0; fill:darkblue; text-anchor:right; stroke:none; font-weight:normal; font-style:italic; text-align:right; " transform="" id="A.p11.text" y="-7" x="308.181102362">
p11</text>
      <circle style="stroke:red; stroke-width:1; fill:red; " transform="" cy="-6.39540004341" cx="708.661417323" r="5" id="A.p2b" d="M 713.66144,-6.3954 C 713.66144,-3.6339763 711.42286,-1.3954 708.66144,-1.3954 705.90001,-1.3954 703.66144,-3.6339763 703.66144,-6.3954 703.66144,-9.1568238 705.90001,-11.3954 708.66144,-11.3954 711.42286,-11.3954 713.66144,-9.1568238 713.66144,-6.3954 z" />
      <text style="font-size:30; vertical-align:top; fill-opacity:1.0; fill:darkblue; text-anchor:right; stroke:none; font-weight:normal; font-style:italic; text-align:right; " transform="" id="A.p2b.text" y="-13.3954000434" x="715.661417323">
p2b</text>
      <circle style="stroke:gray; stroke-width:1; fill:none; " transform="" cy="53.8570310723" cx="728.18902456" r="5" id="A.p13b.outpoint" d="M 733.18903,53.857033 C 733.18903,56.618457 730.95045,58.857033 728.18903,58.857033 725.4276,58.857033 723.18903,56.618457 723.18903,53.857033 723.18903,51.095609 725.4276,48.857033 728.18903,48.857033 730.95045,48.857033 733.18903,51.095609 733.18903,53.857033 z" />
      <text style="font-size:25; vertical-align:top; fill-opacity:1.0; fill:gray; text-anchor:right; stroke:none; font-weight:normal; font-style:italic; text-align:right; " transform="" id="A.p13b.outpoint.text" y="46.8570310723" x="735.18902456">
p13b.out</text>
      <circle style="stroke:red; stroke-width:1; fill:red; " transform="" cy="-6.39540004341" cx="744.094488189" r="5" id="A.p13b" d="M 749.09448,-6.3954 C 749.09448,-3.6339763 746.85591,-1.3954 744.09448,-1.3954 741.33306,-1.3954 739.09448,-3.6339763 739.09448,-6.3954 739.09448,-9.1568238 741.33306,-11.3954 744.09448,-11.3954 746.85591,-11.3954 749.09448,-9.1568238 749.09448,-6.3954 z" />
      <text style="font-size:30; vertical-align:top; fill-opacity:1.0; fill:darkblue; text-anchor:right; stroke:none; font-weight:normal; font-style:italic; text-align:right; " transform="" id="A.p13b.text" y="-13.3954000434" x="751.094488189">
p13b</text>
      <circle style="stroke:gray; stroke-width:1; fill:none; " transform="" cy="-54.2716160406" cx="208.328898861" r="5" id="A.p12b.inpoint" d="M 213.3289,-54.271618 C 213.3289,-51.510194 211.09033,-49.271618 208.3289,-49.271618 205.56748,-49.271618 203.3289,-51.510194 203.3289,-54.271618 203.3289,-57.033042 205.56748,-59.271618 208.3289,-59.271618 211.09033,-59.271618 213.3289,-57.033042 213.3289,-54.271618 z" />
      <text style="font-size:25; vertical-align:top; fill-opacity:1.0; fill:gray; text-anchor:right; stroke:none; font-weight:normal; font-style:italic; text-align:right; " transform="" id="A.p12b.inpoint.text" y="-61.2716160406" x="215.328898861">
p12b.in</text>
      <circle style="stroke:red; stroke-width:1; fill:red; " transform="" cy="-141.732283465" cx="231.416804841" r="5" id="A.p12b" d="M 236.41681,-141.73228 C 236.41681,-138.97086 234.17823,-136.73228 231.41681,-136.73228 228.65539,-136.73228 226.41681,-138.97086 226.41681,-141.73228 226.41681,-144.49371 228.65539,-146.73228 231.41681,-146.73228 234.17823,-146.73228 236.41681,-144.49371 236.41681,-141.73228 z" />
      <text style="font-size:30; vertical-align:top; fill-opacity:1.0; fill:darkblue; text-anchor:right; stroke:none; font-weight:normal; font-style:italic; text-align:right; " transform="" id="A.p12b.text" y="-148.732283465" x="238.416804841">
p12b</text>
      <circle style="stroke:gray; stroke-width:1; fill:none; " transform="" cy="331.347013137" cx="698.781784675" r="5" id="A.p14.inpoint" d="M 703.7818,331.34702 C 703.7818,334.10844 701.54322,336.34702 698.7818,336.34702 696.02038,336.34702 693.7818,334.10844 693.7818,331.34702 693.7818,328.58559 696.02038,326.34702 698.7818,326.34702 701.54322,326.34702 703.7818,328.58559 703.7818,331.34702 z" />
      <text style="font-size:25; vertical-align:top; fill-opacity:1.0; fill:gray; text-anchor:right; stroke:none; font-weight:normal; font-style:italic; text-align:right; " transform="" id="A.p14.inpoint.text" y="324.347013137" x="705.781784675">
p14.in</text>
      <circle style="stroke:red; stroke-width:1; fill:red; " transform="" cy="407.480314961" cx="708.661417323" r="5" id="A.p14" d="M 713.66144,407.48032 C 713.66144,410.24174 711.42286,412.48032 708.66144,412.48032 705.90001,412.48032 703.66144,410.24174 703.66144,407.48032 703.66144,404.71889 705.90001,402.48032 708.66144,402.48032 711.42286,402.48032 713.66144,404.71889 713.66144,407.48032 z" />
      <text style="font-size:30; vertical-align:top; fill-opacity:1.0; fill:darkblue; text-anchor:right; stroke:none; font-weight:normal; font-style:italic; text-align:right; " transform="" id="A.p14.text" y="400.480314961" x="715.661417323">
p14</text>
      <circle style="stroke:gray; stroke-width:1; fill:none; " transform="" cy="115.367067561" cx="716.680830076" r="5" id="A.p15.inpoint" d="M 721.68085,115.36707 C 721.68085,118.12849 719.44227,120.36707 716.68085,120.36707 713.91942,120.36707 711.68085,118.12849 711.68085,115.36707 711.68085,112.60564 713.91942,110.36707 716.68085,110.36707 719.44227,110.36707 721.68085,112.60564 721.68085,115.36707 z" />
      <text style="font-size:25; vertical-align:top; fill-opacity:1.0; fill:gray; text-anchor:right; stroke:none; font-weight:normal; font-style:italic; text-align:right; " transform="" id="A.p15.inpoint.text" y="108.367067561" x="723.680830076">
p15.in</text>
      <circle style="stroke:gray; stroke-width:1; fill:none; " transform="" cy="253.298656154" cx="698.781784675" r="5" id="A.p15.outpoint" d="M 703.7818,253.29866 C 703.7818,256.06008 701.54322,258.29866 698.7818,258.29866 696.02038,258.29866 693.7818,256.06008 693.7818,253.29866 693.7818,250.53724 696.02038,248.29866 698.7818,248.29866 701.54322,248.29866 703.7818,250.53724 703.7818,253.29866 z" />
      <text style="font-size:25; vertical-align:top; fill-opacity:1.0; fill:gray; text-anchor:right; stroke:none; font-weight:normal; font-style:italic; text-align:right; " transform="" id="A.p15.outpoint.text" y="246.298656154" x="705.781784675">
p15.out</text>
      <circle style="stroke:red; stroke-width:1; fill:red; " transform="" cy="177.165354331" cx="708.661417323" r="5" id="A.p15" d="M 713.66144,177.16536 C 713.66144,179.92678 711.42286,182.16536 708.66144,182.16536 705.90001,182.16536 703.66144,179.92678 703.66144,177.16536 703.66144,174.40394 705.90001,172.16536 708.66144,172.16536 711.42286,172.16536 713.66144,174.40394 713.66144,177.16536 z" />
      <text style="font-size:30; vertical-align:top; fill-opacity:1.0; fill:darkblue; text-anchor:right; stroke:none; font-weight:normal; font-style:italic; text-align:right; " transform="" id="A.p15.text" y="170.165354331" x="715.661417323">
p15</text>
      <circle style="stroke:gray; stroke-width:1; fill:none; " transform="" cy="872.433369185" cx="637.130178211" r="5" id="A.p16.outpoint" d="M 642.13019,872.43335 C 642.13019,875.19477 639.89161,877.43335 637.13019,877.43335 634.36876,877.43335 632.13019,875.19477 632.13019,872.43335 632.13019,869.67193 634.36876,867.43335 637.13019,867.43335 639.89161,867.43335 642.13019,869.67193 642.13019,872.43335 z" />
      <text style="font-size:25; vertical-align:top; fill-opacity:1.0; fill:gray; text-anchor:right; stroke:none; font-weight:normal; font-style:italic; text-align:right; " transform="" id="A.p16.outpoint.text" y="865.433369185" x="644.130178211">
p16.out</text>
      <circle style="stroke:red; stroke-width:1; fill:red; " transform="" cy="637.795275591" cx="673.228346457" r="5" id="A.p16" d="M 678.22833,637.79529 C 678.22833,640.55671 675.98976,642.79529 673.22833,642.79529 670.46691,642.79529 668.22833,640.55671 668.22833,637.79529 668.22833,635.03386 670.46691,632.79529 673.22833,632.79529 675.98976,632.79529 678.22833,635.03386 678.22833,637.79529 z" />
      <text style="font-size:30; vertical-align:top; fill-opacity:1.0; fill:darkblue; text-anchor:right; stroke:none; font-weight:normal; font-style:italic; text-align:right; " transform="" id="A.p16.text" y="630.795275591" x="680.228346457">
p16</text>
      <circle style="stroke:gray; stroke-width:1; fill:none; " transform="" cy="1109.05805619" cx="602.362204724" r="5" id="A.p17.inpoint" d="M 607.36218,1109.0581 C 607.36218,1111.8195 605.12361,1114.0581 602.36218,1114.0581 599.60076,1114.0581 597.36218,1111.8195 597.36218,1109.0581 597.36218,1106.2967 599.60076,1104.0581 602.36218,1104.0581 605.12361,1104.0581 607.36218,1106.2967 607.36218,1109.0581 z" />
      <text style="font-size:25; vertical-align:top; fill-opacity:1.0; fill:gray; text-anchor:right; stroke:none; font-weight:normal; font-style:italic; text-align:right; " transform="" id="A.p17.inpoint.text" y="1102.05805619" x="609.362204724">
p17.in</text>
      <circle style="stroke:gray; stroke-width:1; fill:none; " transform="" cy="1612.61451344" cx="602.362204724" r="5" id="A.p17.outpoint" d="M 607.36218,1612.6145 C 607.36218,1615.3759 605.12361,1617.6145 602.36218,1617.6145 599.60076,1617.6145 597.36218,1615.3759 597.36218,1612.6145 597.36218,1609.8531 599.60076,1607.6145 602.36218,1607.6145 605.12361,1607.6145 607.36218,1609.8531 607.36218,1612.6145 z" />
      <text style="font-size:25; vertical-align:top; fill-opacity:1.0; fill:gray; text-anchor:right; stroke:none; font-weight:normal; font-style:italic; text-align:right; " transform="" id="A.p17.outpoint.text" y="1605.61451344" x="609.362204724">
p17.out</text>
      <circle style="stroke:red; stroke-width:1; fill:red; " transform="" cy="1346.45669291" cx="602.362204724" r="5" id="A.p17" d="M 607.36218,1346.4567 C 607.36218,1349.2181 605.12361,1351.4567 602.36218,1351.4567 599.60076,1351.4567 597.36218,1349.2181 597.36218,1346.4567 597.36218,1343.6952 599.60076,1341.4567 602.36218,1341.4567 605.12361,1341.4567 607.36218,1343.6952 607.36218,1346.4567 z" />
      <text style="font-size:30; vertical-align:top; fill-opacity:1.0; fill:darkblue; text-anchor:right; stroke:none; font-weight:normal; font-style:italic; text-align:right; " transform="" id="A.p17.text" y="1339.45669291" x="609.362204724">
p17</text>
      <circle style="stroke:gray; stroke-width:1; fill:none; " transform="" cy="1877.60866052" cx="640.740384932" r="5" id="A.p18.inpoint" d="M 645.74036,1877.6086 C 645.74036,1880.3701 643.50178,1882.6086 640.74036,1882.6086 637.97893,1882.6086 635.74036,1880.3701 635.74036,1877.6086 635.74036,1874.8472 637.97893,1872.6086 640.74036,1872.6086 643.50178,1872.6086 645.74036,1874.8472 645.74036,1877.6086 z" />
      <text style="font-size:25; vertical-align:top; fill-opacity:1.0; fill:gray; text-anchor:right; stroke:none; font-weight:normal; font-style:italic; text-align:right; " transform="" id="A.p18.inpoint.text" y="1870.60866052" x="647.740384932">
p18.in</text>
      <circle style="stroke:red; stroke-width:1; fill:red; " transform="" cy="2143.7007874" cx="646.653543307" r="5" id="A.p18" d="M 651.65356,2143.7007 C 651.65356,2146.4621 649.41499,2148.7007 646.65356,2148.7007 643.89214,2148.7007 641.65356,2146.4621 641.65356,2143.7007 641.65356,2140.9393 643.89214,2138.7007 646.65356,2138.7007 649.41499,2138.7007 651.65356,2140.9393 651.65356,2143.7007 z" />
      <text style="font-size:30; vertical-align:top; fill-opacity:1.0; fill:darkblue; text-anchor:right; stroke:none; font-weight:normal; font-style:italic; text-align:right; " transform="" id="A.p18.text" y="2136.7007874" x="653.653543307">
p18</text>
      <circle style="stroke:red; stroke-width:1; fill:red; " transform="" cy="2542.32283465" cx="655.511811024" r="5" id="A.p19" d="M 660.51184,2542.3228 C 660.51184,2545.0842 658.27326,2547.3228 655.51184,2547.3228 652.75042,2547.3228 650.51184,2545.0842 650.51184,2542.3228 650.51184,2539.5613 652.75042,2537.3228 655.51184,2537.3228 658.27326,2537.3228 660.51184,2539.5613 660.51184,2542.3228 z" />
      <text style="font-size:30; vertical-align:top; fill-opacity:1.0; fill:darkblue; text-anchor:right; stroke:none; font-weight:normal; font-style:italic; text-align:right; " transform="" id="A.p19.text" y="2535.32283465" x="662.511811024">
p19</text>
      <path style="stroke-linejoin:miter; stroke-dashoffset:0; stroke:gray; stroke-miterlimit:4; stroke-dasharray:6,6; stroke-width:2; fill:none; " transform="" d="M 0  -141.732283465 L 708.661417323  -141.732283465 L 708.661417323  2542.32283465 L 0  2542.32283465 L 0  -141.732283465 " id="A.gridline" />
    </g>
    <g id="document.tuxedo.Tuxedo Front.reference" transform=" translate(88.582677, 3433.357402)">
      <circle style="stroke:red; stroke-width:1; fill:red; " transform="" cy="637.795275591" cx="974.409448819" r="5" id="B.p20" d="M 979.40942,637.79529 C 979.40942,640.55671 977.17085,642.79529 974.40942,642.79529 971.648,642.79529 969.40942,640.55671 969.40942,637.79529 969.40942,635.03386 971.648,632.79529 974.40942,632.79529 977.17085,632.79529 979.40942,635.03386 979.40942,637.79529 z" />
      <text style="font-size:30; vertical-align:top; fill-opacity:1.0; fill:darkblue; text-anchor:right; stroke:none; font-weight:normal; font-style:italic; text-align:right; " transform="" id="B.p20.text" y="630.795275591" x="981.409448819">
p20</text>
      <circle style="stroke:red; stroke-width:1; fill:red; " transform="" cy="407.480314961" cx="1009.84251969" r="5" id="B.p21" d="M 1014.8425,407.48032 C 1014.8425,410.24174 1012.604,412.48032 1009.8425,412.48032 1007.0811,412.48032 1004.8425,410.24174 1004.8425,407.48032 1004.8425,404.71889 1007.0811,402.48032 1009.8425,402.48032 1012.604,402.48032 1014.8425,404.71889 1014.8425,407.48032 z" />
      <text style="font-size:30; vertical-align:top; fill-opacity:1.0; fill:darkblue; text-anchor:right; stroke:none; font-weight:normal; font-style:italic; text-align:right; " transform="" id="B.p21.text" y="400.480314961" x="1016.84251969">
p21</text>
      <circle style="stroke:red; stroke-width:1; fill:red; " transform="" cy="1346.45669291" cx="974.409448819" r="5" id="B.p22" d="M 979.40942,1346.4567 C 979.40942,1349.2181 977.17085,1351.4567 974.40942,1351.4567 971.648,1351.4567 969.40942,1349.2181 969.40942,1346.4567 969.40942,1343.6952 971.648,1341.4567 974.40942,1341.4567 977.17085,1341.4567 979.40942,1343.6952 979.40942,1346.4567 z" />
      <text style="font-size:30; vertical-align:top; fill-opacity:1.0; fill:darkblue; text-anchor:right; stroke:none; font-weight:normal; font-style:italic; text-align:right; " transform="" id="B.p22.text" y="1339.45669291" x="981.409448819">
p22</text>
      <circle style="stroke:red; stroke-width:1; fill:red; " transform="" cy="2143.7007874" cx="832.677165354" r="5" id="B.p23" d="M 837.67719,2143.7007 C 837.67719,2146.4621 835.43861,2148.7007 832.67719,2148.7007 829.91576,2148.7007 827.67719,2146.4621 827.67719,2143.7007 827.67719,2140.9393 829.91576,2138.7007 832.67719,2138.7007 835.43861,2138.7007 837.67719,2140.9393 837.67719,2143.7007 z" />
      <text style="font-size:30; vertical-align:top; fill-opacity:1.0; fill:darkblue; text-anchor:right; stroke:none; font-weight:normal; font-style:italic; text-align:right; " transform="" id="B.p23.text" y="2136.7007874" x="839.677165354">
p23</text>
      <circle style="stroke:red; stroke-width:1; fill:red; " transform="" cy="2542.32283465" cx="797.244094488" r="5" id="B.p24" d="M 802.24408,2542.3228 C 802.24408,2545.0842 800.0055,2547.3228 797.24408,2547.3228 794.48266,2547.3228 792.24408,2545.0842 792.24408,2542.3228 792.24408,2539.5613 794.48266,2537.3228 797.24408,2537.3228 800.0055,2537.3228 802.24408,2539.5613 802.24408,2542.3228 z" />
      <text style="font-size:30; vertical-align:top; fill-opacity:1.0; fill:darkblue; text-anchor:right; stroke:none; font-weight:normal; font-style:italic; text-align:right; " transform="" id="B.p24.text" y="2535.32283465" x="804.244094488">
p24</text>
      <circle style="stroke:red; stroke-width:1; fill:red; " transform="" cy="637.795275591" cx="1505.90551181" r="5" id="B.p25" d="M 1510.9055,637.79529 C 1510.9055,640.55671 1508.6669,642.79529 1505.9055,642.79529 1503.1441,642.79529 1500.9055,640.55671 1500.9055,637.79529 1500.9055,635.03386 1503.1441,632.79529 1505.9055,632.79529 1508.6669,632.79529 1510.9055,635.03386 1510.9055,637.79529 z" />
      <text style="font-size:30; vertical-align:top; fill-opacity:1.0; fill:darkblue; text-anchor:right; stroke:none; font-weight:normal; font-style:italic; text-align:right; " transform="" id="B.p25.text" y="630.795275591" x="1512.90551181">
p25</text>
      <circle style="stroke:red; stroke-width:1; fill:red; " transform="" cy="-35.4330708661" cx="1505.90551181" r="5" id="B.p26" d="M 1510.9055,-35.433071 C 1510.9055,-32.671647 1508.6669,-30.433071 1505.9055,-30.433071 1503.1441,-30.433071 1500.9055,-32.671647 1500.9055,-35.433071 1500.9055,-38.194495 1503.1441,-40.433071 1505.9055,-40.433071 1508.6669,-40.433071 1510.9055,-38.194495 1510.9055,-35.433071 z" />
      <text style="font-size:30; vertical-align:top; fill-opacity:1.0; fill:darkblue; text-anchor:right; stroke:none; font-weight:normal; font-style:italic; text-align:right; " transform="" id="B.p26.text" y="-42.4330708661" x="1512.90551181">
p26</text>
      <circle style="stroke:red; stroke-width:1; fill:red; " transform="" cy="-35.4330708661" cx="1789.37007874" r="5" id="B.p27" d="M 1794.3701,-35.433071 C 1794.3701,-32.671647 1792.1315,-30.433071 1789.3701,-30.433071 1786.6087,-30.433071 1784.3701,-32.671647 1784.3701,-35.433071 1784.3701,-38.194495 1786.6087,-40.433071 1789.3701,-40.433071 1792.1315,-40.433071 1794.3701,-38.194495 1794.3701,-35.433071 z" />
      <text style="font-size:30; vertical-align:top; fill-opacity:1.0; fill:darkblue; text-anchor:right; stroke:none; font-weight:normal; font-style:italic; text-align:right; " transform="" id="B.p27.text" y="-42.4330708661" x="1796.37007874">
p27</text>
      <circle style="stroke:red; stroke-width:1; fill:red; " transform="" cy="10.6299212598" cx="1505.90551181" r="5" id="B.p28" d="M 1510.9055,10.629921 C 1510.9055,13.391345 1508.6669,15.629921 1505.9055,15.629921 1503.1441,15.629921 1500.9055,13.391345 1500.9055,10.629921 1500.9055,7.8684972 1503.1441,5.629921 1505.9055,5.629921 1508.6669,5.629921 1510.9055,7.8684972 1510.9055,10.629921 z" />
      <text style="font-size:30; vertical-align:top; fill-opacity:1.0; fill:darkblue; text-anchor:right; stroke:none; font-weight:normal; font-style:italic; text-align:right; " transform="" id="B.p28.text" y="3.62992125984" x="1512.90551181">
p28</text>
      <circle style="stroke:red; stroke-width:1; fill:red; " transform="" cy="43.9320189064" cx="1300.96952629" r="5" id="B.p29" d="M 1305.9695,43.932018 C 1305.9695,46.693442 1303.7309,48.932018 1300.9695,48.932018 1298.2081,48.932018 1295.9695,46.693442 1295.9695,43.932018 1295.9695,41.170595 1298.2081,38.932018 1300.9695,38.932018 1303.7309,38.932018 1305.9695,41.170595 1305.9695,43.932018 z" />
      <text style="font-size:30; vertical-align:top; fill-opacity:1.0; fill:darkblue; text-anchor:right; stroke:none; font-weight:normal; font-style:italic; text-align:right; " transform="" id="B.p29.text" y="36.9320189064" x="1307.96952629">
p29</text>
      <circle style="stroke:red; stroke-width:1; fill:red; " transform="" cy="549.212598425" cx="1505.90551181" r="5" id="B.p30" d="M 1510.9055,549.21259 C 1510.9055,551.97401 1508.6669,554.21259 1505.9055,554.21259 1503.1441,554.21259 1500.9055,551.97401 1500.9055,549.21259 1500.9055,546.45116 1503.1441,544.21259 1505.9055,544.21259 1508.6669,544.21259 1510.9055,546.45116 1510.9055,549.21259 z" />
      <text style="font-size:30; vertical-align:top; fill-opacity:1.0; fill:darkblue; text-anchor:right; stroke:none; font-weight:normal; font-style:italic; text-align:right; " transform="" id="B.p30.text" y="542.212598425" x="1512.90551181">
p30</text>
      <circle style="stroke:red; stroke-width:1; fill:red; " transform="" cy="296.572308666" cx="1403.43751905" r="5" id="B.pG" d="M 1408.4375,296.5723 C 1408.4375,299.33372 1406.1989,301.5723 1403.4375,301.5723 1400.6761,301.5723 1398.4375,299.33372 1398.4375,296.5723 1398.4375,293.81087 1400.6761,291.5723 1403.4375,291.5723 1406.1989,291.5723 1408.4375,293.81087 1408.4375,296.5723 z" />
      <text style="font-size:30; vertical-align:top; fill-opacity:1.0; fill:darkblue; text-anchor:right; stroke:none; font-weight:normal; font-style:italic; text-align:right; " transform="" id="B.pG.text" y="289.572308666" x="1410.43751905">
pG</text>
      <circle style="stroke:red; stroke-width:1; fill:red; " transform="" cy="269.937211623" cx="1469.1077684" r="5" id="B.pH" d="M 1474.1078,269.93723 C 1474.1078,272.69865 1471.8692,274.93723 1469.1078,274.93723 1466.3464,274.93723 1464.1078,272.69865 1464.1078,269.93723 1464.1078,267.1758 1466.3464,264.93723 1469.1078,264.93723 1471.8692,264.93723 1474.1078,267.1758 1474.1078,269.93723 z" />
      <text style="font-size:30; vertical-align:top; fill-opacity:1.0; fill:darkblue; text-anchor:right; stroke:none; font-weight:normal; font-style:italic; text-align:right; " transform="" id="B.pH.text" y="262.937211623" x="1476.1077684">
pH</text>
      <circle style="stroke:red; stroke-width:1; fill:red; " transform="" cy="587.685346215" cx="1455.79558244" r="5" id="B.pI" d="M 1460.7955,587.68536 C 1460.7955,590.44679 1458.557,592.68536 1455.7955,592.68536 1453.0341,592.68536 1450.7955,590.44679 1450.7955,587.68536 1450.7955,584.92394 1453.0341,582.68536 1455.7955,582.68536 1458.557,582.68536 1460.7955,584.92394 1460.7955,587.68536 z" />
      <text style="font-size:30; vertical-align:top; fill-opacity:1.0; fill:darkblue; text-anchor:right; stroke:none; font-weight:normal; font-style:italic; text-align:right; " transform="" id="B.pI.text" y="580.685346215" x="1462.79558244">
pI</text>
      <circle style="stroke:red; stroke-width:1; fill:red; " transform="" cy="537.57541684" cx="1074.62930757" r="5" id="B.pJ" d="M 1079.6293,537.57544 C 1079.6293,540.33686 1077.3907,542.57544 1074.6293,542.57544 1071.8678,542.57544 1069.6293,540.33686 1069.6293,537.57544 1069.6293,534.81402 1071.8678,532.57544 1074.6293,532.57544 1077.3907,532.57544 1079.6293,534.81402 1079.6293,537.57544 z" />
      <text style="font-size:30; vertical-align:top; fill-opacity:1.0; fill:darkblue; text-anchor:right; stroke:none; font-weight:normal; font-style:italic; text-align:right; " transform="" id="B.pJ.text" y="530.57541684" x="1081.62930757">
pJ</text>
      <circle style="stroke:red; stroke-width:1; fill:red; " transform="" cy="637.795275591" cx="2303.1496063" r="5" id="B.p31" d="M 2308.1497,637.79529 C 2308.1497,640.55671 2305.9111,642.79529 2303.1497,642.79529 2300.3882,642.79529 2298.1497,640.55671 2298.1497,637.79529 2298.1497,635.03386 2300.3882,632.79529 2303.1497,632.79529 2305.9111,632.79529 2308.1497,635.03386 2308.1497,637.79529 z" />
      <text style="font-size:30; vertical-align:top; fill-opacity:1.0; fill:darkblue; text-anchor:right; stroke:none; font-weight:normal; font-style:italic; text-align:right; " transform="" id="B.p31.text" y="630.795275591" x="2310.1496063">
p31</text>
      <circle style="stroke:red; stroke-width:1; fill:red; " transform="" cy="1346.45669291" cx="2303.1496063" r="5" id="B.p32" d="M 2308.1497,1346.4567 C 2308.1497,1349.2181 2305.9111,1351.4567 2303.1497,1351.4567 2300.3882,1351.4567 2298.1497,1349.2181 2298.1497,1346.4567 2298.1497,1343.6952 2300.3882,1341.4567 2303.1497,1341.4567 2305.9111,1341.4567 2308.1497,1343.6952 2308.1497,1346.4567 z" />
      <text style="font-size:30; vertical-align:top; fill-opacity:1.0; fill:darkblue; text-anchor:right; stroke:none; font-weight:normal; font-style:italic; text-align:right; " transform="" id="B.p32.text" y="1339.45669291" x="2310.1496063">
p32</text>
      <circle style="stroke:red; stroke-width:1; fill:red; " transform="" cy="2143.7007874" cx="2303.1496063" r="5" id="B.p33" d="M 2308.1497,2143.7007 C 2308.1497,2146.4621 2305.9111,2148.7007 2303.1497,2148.7007 2300.3882,2148.7007 2298.1497,2146.4621 2298.1497,2143.7007 2298.1497,2140.9393 2300.3882,2138.7007 2303.1497,2138.7007 2305.9111,2138.7007 2308.1497,2140.9393 2308.1497,2143.7007 z" />
      <text style="font-size:30; vertical-align:top; fill-opacity:1.0; fill:darkblue; text-anchor:right; stroke:none; font-weight:normal; font-style:italic; text-align:right; " transform="" id="B.p33.text" y="2136.7007874" x="2310.1496063">
p33</text>
      <circle style="stroke:red; stroke-width:1; fill:red; " transform="" cy="2542.32283465" cx="2303.1496063" r="5" id="B.p34" d="M 2308.1497,2542.3228 C 2308.1497,2545.0842 2305.9111,2547.3228 2303.1497,2547.3228 2300.3882,2547.3228 2298.1497,2545.0842 2298.1497,2542.3228 2298.1497,2539.5613 2300.3882,2537.3228 2303.1497,2537.3228 2305.9111,2537.3228 2308.1497,2539.5613 2308.1497,2542.3228 z" />
      <text style="font-size:30; vertical-align:top; fill-opacity:1.0; fill:darkblue; text-anchor:right; stroke:none; font-weight:normal; font-style:italic; text-align:right; " transform="" id="B.p34.text" y="2535.32283465" x="2310.1496063">
p34</text>
      <circle style="stroke:red; stroke-width:1; fill:red; " transform="" cy="2630.90551181" cx="2303.1496063" r="5" id="B.p35" d="M 2308.1497,2630.9055 C 2308.1497,2633.6669 2305.9111,2635.9055 2303.1497,2635.9055 2300.3882,2635.9055 2298.1497,2633.6669 2298.1497,2630.9055 2298.1497,2628.1441 2300.3882,2625.9055 2303.1497,2625.9055 2305.9111,2625.9055 2308.1497,2628.1441 2308.1497,2630.9055 z" />
      <text style="font-size:30; vertical-align:top; fill-opacity:1.0; fill:darkblue; text-anchor:right; stroke:none; font-weight:normal; font-style:italic; text-align:right; " transform="" id="B.p35.text" y="2623.90551181" x="2310.1496063">
p35</text>
      <circle style="stroke:red; stroke-width:1; fill:red; " transform="" cy="1257.87401575" cx="2303.1496063" r="5" id="B.pK" d="M 2308.1497,1257.874 C 2308.1497,1260.6354 2305.9111,1262.874 2303.1497,1262.874 2300.3882,1262.874 2298.1497,1260.6354 2298.1497,1257.874 2298.1497,1255.1126 2300.3882,1252.874 2303.1497,1252.874 2305.9111,1252.874 2308.1497,1255.1126 2308.1497,1257.874 z" />
      <text style="font-size:30; vertical-align:top; fill-opacity:1.0; fill:darkblue; text-anchor:right; stroke:none; font-weight:normal; font-style:italic; text-align:right; " transform="" id="B.pK.text" y="1250.87401575" x="2310.1496063">
pK</text>
      <circle style="stroke:red; stroke-width:1; fill:red; " transform="" cy="1612.20472441" cx="2303.1496063" r="5" id="B.pL" d="M 2308.1497,1612.2047 C 2308.1497,1614.9661 2305.9111,1617.2047 2303.1497,1617.2047 2300.3882,1617.2047 2298.1497,1614.9661 2298.1497,1612.2047 2298.1497,1609.4433 2300.3882,1607.2047 2303.1497,1607.2047 2305.9111,1607.2047 2308.1497,1609.4433 2308.1497,1612.2047 z" />
      <text style="font-size:30; vertical-align:top; fill-opacity:1.0; fill:darkblue; text-anchor:right; stroke:none; font-weight:normal; font-style:italic; text-align:right; " transform="" id="B.pL.text" y="1605.20472441" x="2310.1496063">
pL</text>
      <circle style="stroke:red; stroke-width:1; fill:red; " transform="" cy="1257.87401575" cx="2374.01574803" r="5" id="B.p36" d="M 2379.0159,1257.874 C 2379.0159,1260.6354 2376.7773,1262.874 2374.0159,1262.874 2371.2544,1262.874 2369.0159,1260.6354 2369.0159,1257.874 2369.0159,1255.1126 2371.2544,1252.874 2374.0159,1252.874 2376.7773,1252.874 2379.0159,1255.1126 2379.0159,1257.874 z" />
      <text style="font-size:30; vertical-align:top; fill-opacity:1.0; fill:darkblue; text-anchor:right; stroke:none; font-weight:normal; font-style:italic; text-align:right; " transform="" id="B.p36.text" y="1250.87401575" x="2381.01574803">
p36</text>
      <circle style="stroke:red; stroke-width:1; fill:red; " transform="" cy="141.732283465" cx="2303.1496063" r="5" id="B.p37" d="M 2308.1497,141.73228 C 2308.1497,144.49371 2305.9111,146.73228 2303.1497,146.73228 2300.3882,146.73228 2298.1497,144.49371 2298.1497,141.73228 2298.1497,138.97086 2300.3882,136.73228 2303.1497,136.73228 2305.9111,136.73228 2308.1497,138.97086 2308.1497,141.73228 z" />
      <text style="font-size:30; vertical-align:top; fill-opacity:1.0; fill:darkblue; text-anchor:right; stroke:none; font-weight:normal; font-style:italic; text-align:right; " transform="" id="B.p37.text" y="134.732283465" x="2310.1496063">
p37</text>
      <circle style="stroke:red; stroke-width:1; fill:red; " transform="" cy="194.881889764" cx="1789.37007874" r="5" id="B.p38" d="M 1794.3701,194.8819 C 1794.3701,197.64332 1792.1315,199.8819 1789.3701,199.8819 1786.6087,199.8819 1784.3701,197.64332 1784.3701,194.8819 1784.3701,192.12047 1786.6087,189.8819 1789.3701,189.8819 1792.1315,189.8819 1794.3701,192.12047 1794.3701,194.8819 z" />
      <text style="font-size:30; vertical-align:top; fill-opacity:1.0; fill:darkblue; text-anchor:right; stroke:none; font-weight:normal; font-style:italic; text-align:right; " transform="" id="B.p38.text" y="187.881889764" x="1796.37007874">
p38</text>
      <circle style="stroke:red; stroke-width:1; fill:red; " transform="" cy="132.244478044" cx="1852.00749046" r="5" id="B.p39" d="M 1857.0074,132.24448 C 1857.0074,135.0059 1854.7689,137.24448 1852.0074,137.24448 1849.246,137.24448 1847.0074,135.0059 1847.0074,132.24448 1847.0074,129.48305 1849.246,127.24448 1852.0074,127.24448 1854.7689,127.24448 1857.0074,129.48305 1857.0074,132.24448 z" />
      <text style="font-size:30; vertical-align:top; fill-opacity:1.0; fill:darkblue; text-anchor:right; stroke:none; font-weight:normal; font-style:italic; text-align:right; " transform="" id="B.p39.text" y="125.244478044" x="1859.00749046">
p39</text>
      <circle style="stroke:red; stroke-width:1; fill:red; " transform="" cy="-49.6413840983" cx="1876.80585248" r="5" id="B.p40" d="M 1881.8059,-49.641384 C 1881.8059,-46.87996 1879.5673,-44.641384 1876.8059,-44.641384 1874.0445,-44.641384 1871.8059,-46.87996 1871.8059,-49.641384 1871.8059,-52.402808 1874.0445,-54.641384 1876.8059,-54.641384 1879.5673,-54.641384 1881.8059,-52.402808 1881.8059,-49.641384 z" />
      <text style="font-size:30; vertical-align:top; fill-opacity:1.0; fill:darkblue; text-anchor:right; stroke:none; font-weight:normal; font-style:italic; text-align:right; " transform="" id="B.p40.text" y="-56.6413840983" x="1883.80585248">
p40</text>
      <circle style="stroke:red; stroke-width:1; fill:red; " transform="" cy="176.924096174" cx="1962.96208344" r="5" id="B.p41" d="M 1967.962,176.9241 C 1967.962,179.68553 1965.7235,181.9241 1962.962,181.9241 1960.2006,181.9241 1957.962,179.68553 1957.962,176.9241 1957.962,174.16268 1960.2006,171.9241 1962.962,171.9241 1965.7235,171.9241 1967.962,174.16268 1967.962,176.9241 z" />
      <text style="font-size:30; vertical-align:top; fill-opacity:1.0; fill:darkblue; text-anchor:right; stroke:none; font-weight:normal; font-style:italic; text-align:right; " transform="" id="B.p41.text" y="169.924096174" x="1969.96208344">
p41</text>
      <circle style="stroke:red; stroke-width:1; fill:red; " transform="" cy="138.086250552" cx="2338.39459112" r="5" id="B.p42" d="M 2343.3945,138.08626 C 2343.3945,140.84768 2341.156,143.08626 2338.3945,143.08626 2335.6331,143.08626 2333.3945,140.84768 2333.3945,138.08626 2333.3945,135.32483 2335.6331,133.08626 2338.3945,133.08626 2341.156,133.08626 2343.3945,135.32483 2343.3945,138.08626 z" />
      <text style="font-size:30; vertical-align:top; fill-opacity:1.0; fill:darkblue; text-anchor:right; stroke:none; font-weight:normal; font-style:italic; text-align:right; " transform="" id="B.p42.text" y="131.086250552" x="2345.39459112">
p42</text>
      <circle style="stroke:red; stroke-width:1; fill:red; " transform="" cy="637.795275591" cx="2409.4488189" r="5" id="B.p43" d="M 2414.4487,637.79529 C 2414.4487,640.55671 2412.2102,642.79529 2409.4487,642.79529 2406.6873,642.79529 2404.4487,640.55671 2404.4487,637.79529 2404.4487,635.03386 2406.6873,632.79529 2409.4487,632.79529 2412.2102,632.79529 2414.4487,635.03386 2414.4487,637.79529 z" />
      <text style="font-size:30; vertical-align:top; fill-opacity:1.0; fill:darkblue; text-anchor:right; stroke:none; font-weight:normal; font-style:italic; text-align:right; " transform="" id="B.p43.text" y="630.795275591" x="2416.4488189">
p43</text>
      <circle style="stroke:red; stroke-width:1; fill:red; " transform="" cy="157.505173363" cx="2150.67833728" r="5" id="B.p44" d="M 2155.6782,157.50517 C 2155.6782,160.2666 2153.4396,162.50517 2150.6782,162.50517 2147.9168,162.50517 2145.6782,160.2666 2145.6782,157.50517 2145.6782,154.74375 2147.9168,152.50517 2150.6782,152.50517 2153.4396,152.50517 2155.6782,154.74375 2155.6782,157.50517 z" />
      <text style="font-size:30; vertical-align:top; fill-opacity:1.0; fill:darkblue; text-anchor:right; stroke:none; font-weight:normal; font-style:italic; text-align:right; " transform="" id="B.p44.text" y="150.505173363" x="2157.67833728">
p44</text>
      <circle style="stroke:red; stroke-width:1; fill:red; " transform="" cy="474.710036749" cx="2183.49263349" r="5" id="B.BD1" d="M 2188.4927,474.71002 C 2188.4927,477.47145 2186.2541,479.71002 2183.4927,479.71002 2180.7313,479.71002 2178.4927,477.47145 2178.4927,474.71002 2178.4927,471.9486 2180.7313,469.71002 2183.4927,469.71002 2186.2541,469.71002 2188.4927,471.9486 2188.4927,474.71002 z" />
      <text style="font-size:30; vertical-align:top; fill-opacity:1.0; fill:darkblue; text-anchor:right; stroke:none; font-weight:normal; font-style:italic; text-align:right; " transform="" id="B.BD1.text" y="467.710036749" x="2190.49263349">
BD1</text>
      <circle style="stroke:red; stroke-width:1; fill:red; " transform="" cy="157.567341619" cx="2123.74111122" r="5" id="B.BD1.i" d="M 2128.7412,157.56734 C 2128.7412,160.32876 2126.5026,162.56734 2123.7412,162.56734 2120.9798,162.56734 2118.7412,160.32876 2118.7412,157.56734 2118.7412,154.80591 2120.9798,152.56734 2123.7412,152.56734 2126.5026,152.56734 2128.7412,154.80591 2128.7412,157.56734 z" />
      <text style="font-size:30; vertical-align:top; fill-opacity:1.0; fill:darkblue; text-anchor:right; stroke:none; font-weight:normal; font-style:italic; text-align:right; " transform="" id="B.BD1.i.text" y="150.567341619" x="2130.74111122">
BD1.i</text>
      <circle style="stroke:red; stroke-width:1; fill:red; " transform="" cy="152.051816486" cx="2177.05785417" r="5" id="B.BD1.o" d="M 2182.0579,152.05182 C 2182.0579,154.81324 2179.8193,157.05182 2177.0579,157.05182 2174.2964,157.05182 2172.0579,154.81324 2172.0579,152.05182 2172.0579,149.2904 2174.2964,147.05182 2177.0579,147.05182 2179.8193,147.05182 2182.0579,149.2904 2182.0579,152.05182 z" />
      <text style="font-size:30; vertical-align:top; fill-opacity:1.0; fill:darkblue; text-anchor:right; stroke:none; font-weight:normal; font-style:italic; text-align:right; " transform="" id="B.BD1.o.text" y="145.051816486" x="2184.05785417">
BD1.o</text>
      <circle style="stroke:red; stroke-width:1; fill:red; " transform="" cy="1612.20472441" cx="1505.90551181" r="5" id="B.pM" d="M 1510.9055,1612.2047 C 1510.9055,1614.9661 1508.6669,1617.2047 1505.9055,1617.2047 1503.1441,1617.2047 1500.9055,1614.9661 1500.9055,1612.2047 1500.9055,1609.4433 1503.1441,1607.2047 1505.9055,1607.2047 1508.6669,1607.2047 1510.9055,1609.4433 1510.9055,1612.2047 z" />
      <text style="font-size:30; vertical-align:top; fill-opacity:1.0; fill:darkblue; text-anchor:right; stroke:none; font-weight:normal; font-style:italic; text-align:right; " transform="" id="B.pM.text" y="1605.20472441" x="1512.90551181">
pM</text>
      <circle style="stroke:red; stroke-width:1; fill:red; " transform="" cy="1596.59946267" cx="1240.61606225" r="5" id="B.pN" d="M 1245.6161,1596.5995 C 1245.6161,1599.3609 1243.3775,1601.5995 1240.6161,1601.5995 1237.8547,1601.5995 1235.6161,1599.3609 1235.6161,1596.5995 1235.6161,1593.8381 1237.8547,1591.5995 1240.6161,1591.5995 1243.3775,1591.5995 1245.6161,1593.8381 1245.6161,1596.5995 z" />
      <text style="font-size:30; vertical-align:top; fill-opacity:1.0; fill:darkblue; text-anchor:right; stroke:none; font-weight:normal; font-style:italic; text-align:right; " transform="" id="B.pN.text" y="1589.59946267" x="1247.61606225">
pN</text>
      <circle style="stroke:red; stroke-width:1; fill:red; " transform="" cy="1627.80998615" cx="1771.19496138" r="5" id="B.pO" d="M 1776.1949,1627.8099 C 1776.1949,1630.5714 1773.9564,1632.8099 1771.1949,1632.8099 1768.4335,1632.8099 1766.1949,1630.5714 1766.1949,1627.8099 1766.1949,1625.0485 1768.4335,1622.8099 1771.1949,1622.8099 1773.9564,1622.8099 1776.1949,1625.0485 1776.1949,1627.8099 z" />
      <text style="font-size:30; vertical-align:top; fill-opacity:1.0; fill:darkblue; text-anchor:right; stroke:none; font-weight:normal; font-style:italic; text-align:right; " transform="" id="B.pO.text" y="1620.80998615" x="1778.19496138">
pO</text>
      <circle style="stroke:red; stroke-width:1; fill:red; " transform="" cy="1755.77313241" cx="1231.2529052" r="5" id="B.pNb" d="M 1236.2529,1755.7732 C 1236.2529,1758.5346 1234.0144,1760.7732 1231.2529,1760.7732 1228.4915,1760.7732 1226.2529,1758.5346 1226.2529,1755.7732 1226.2529,1753.0118 1228.4915,1750.7732 1231.2529,1750.7732 1234.0144,1750.7732 1236.2529,1753.0118 1236.2529,1755.7732 z" />
      <text style="font-size:30; vertical-align:top; fill-opacity:1.0; fill:darkblue; text-anchor:right; stroke:none; font-weight:normal; font-style:italic; text-align:right; " transform="" id="B.pNb.text" y="1748.77313241" x="1238.2529052">
pNb</text>
      <circle style="stroke:red; stroke-width:1; fill:red; " transform="" cy="1707.39682102" cx="1766.51338285" r="5" id="B.pOb" d="M 1771.5134,1707.3969 C 1771.5134,1710.1583 1769.2749,1712.3969 1766.5134,1712.3969 1763.752,1712.3969 1761.5134,1710.1583 1761.5134,1707.3969 1761.5134,1704.6354 1763.752,1702.3969 1766.5134,1702.3969 1769.2749,1702.3969 1771.5134,1704.6354 1771.5134,1707.3969 z" />
      <text style="font-size:30; vertical-align:top; fill-opacity:1.0; fill:darkblue; text-anchor:right; stroke:none; font-weight:normal; font-style:italic; text-align:right; " transform="" id="B.pOb.text" y="1700.39682102" x="1773.51338285">
pOb</text>
      <circle style="stroke:red; stroke-width:1; fill:red; " transform="" cy="1764.61611406" cx="1381.58359329" r="5" id="B.pMb" d="M 1386.5836,1764.6161 C 1386.5836,1767.3775 1384.345,1769.6161 1381.5836,1769.6161 1378.8222,1769.6161 1376.5836,1767.3775 1376.5836,1764.6161 1376.5836,1761.8547 1378.8222,1759.6161 1381.5836,1759.6161 1384.345,1759.6161 1386.5836,1761.8547 1386.5836,1764.6161 z" />
      <text style="font-size:30; vertical-align:top; fill-opacity:1.0; fill:darkblue; text-anchor:right; stroke:none; font-weight:normal; font-style:italic; text-align:right; " transform="" id="B.pMb.text" y="1757.61611406" x="1388.58359329">
pMb</text>
      <path style="stroke-linejoin:miter; stroke-dashoffset:0; stroke:gray; stroke-miterlimit:4; stroke-dasharray:6,6; stroke-width:2; fill:none; " transform="" d="M 708.661417323  -141.732283465 L 708.661417323  2542.32283465 L 2303.1496063  2542.32283465 L 2303.1496063  141.732283465 L 1789.37007874  194.881889764 L 1789.37007874  -35.4330708661 L 708.661417323  -141.732283465 " id="B.gridline" />
    </g>
  </g>
</svg>
