<?xml version="1.0" encoding="UTF-8" standalone="no"?>
<svg xmlns:dc="http://purl.org/dc/elements/1.1/" xmlns:cc="http://creativecommons.org/ns#" xmlns:rdf="http://www.w3.org/1999/02/22-rdf-syntax-ns#" xmlns:svg="http://www.w3.org/2000/svg" xmlns="http://www.w3.org/2000/svg" xmlns:sodipodi="http://sodipodi.sourceforge.net/DTD/sodipodi-0.dtd" xmlns:inkscape="http://www.inkscape.org/namespaces/inkscape" patternNumber="HM_1" fitBoxtoViewport="True" companyName="Seamly Patterns" currentscale="0.5:1" margin-right="88.5826771654" client-name="DressFormLg" designerName="S.L.Spencer" height="7304.7456" width="3029.8882" margin-top="88.5826771654" version="1.1" margin-bottom="88.5826771654" margin-left="88.5826771654" preserveAspectRatio="xMidYMid meet" id="svg2" inkscape:version="0.48.4 r9939" sodipodi:docname="DressFormLg-Mens_1880_tuxedo_jacket_shawl_collar-2015-01-26-1939.svg">
  <metadata id="metadata554">
    <rdf:RDF>
      <cc:Work rdf:about="">
        <dc:format>image/svg+xml</dc:format>
        <dc:type rdf:resource="http://purl.org/dc/dcmitype/StillImage" />
      </cc:Work>
    </rdf:RDF>
  </metadata>
  <sodipodi:namedview id="base" pagecolor="#ffffff" bordercolor="#666666" borderopacity="1.0" inkscape:pageopacity="0.0" inkscape:pageshadow="2" inkscape:zoom="0.13618176" inkscape:document-units="pt" showgrid="false" inkscape:window-maximized="1" inkscape:cx="573.15988" inkscape:cy="2991.3458" inkscape:window-width="1855" inkscape:window-height="1056" inkscape:window-x="65" inkscape:window-y="24" inkscape:current-layer="pattern" units="in" fit-margin-top="1" fit-margin-left="1" fit-margin-right="1" fit-margin-bottom="1" />
  <defs id="defs5">
    <marker style="overflow:visible" id="Arrow1Mstart" refX="0" refY="0" orient="auto" inkscape:stockid="Arrow1Mstart">
      <path transform="matrix(0.4,0,0,0.4,4,0)" style="fill-rule:evenodd;stroke:#000000;stroke-width:1pt;marker-start:none" d="M 0,0 5,-5 -12.5,0 5,5 0,0 z" id="path8" inkscape:connector-curvature="0" />
    </marker>
    <marker style="overflow:visible" id="Arrow1Mend" refX="0" refY="0" orient="auto" inkscape:stockid="Arrow1Mend">
      <path transform="matrix(-0.4,0,0,-0.4,-4,0)" style="fill-rule:evenodd;stroke:#000000;stroke-width:1pt;marker-start:none" d="M 0,0 5,-5 -12.5,0 5,5 0,0 z" id="path11" inkscape:connector-curvature="0" />
    </marker>
  </defs>
  <g inkscape:label="Label-pattern" id="pattern" inkscape:groupmode="layer" transform="translate(89.839977,120.39063)">
    <g id="document.tuxedo.Tuxedo Back.pattern" transform="translate(58.75,580.55228)">
      <g id="A.letter" transform="matrix(10,0,0,10,-2082.7512,-11713.11)">
        <text style="font-size:24px;font-style:normal;font-weight:normal;text-align:right;text-anchor:start;fill:#000000;fill-opacity:1;stroke:none" id="A.letter.letterline" y="1301.4567" x="231.41681">A</text>
      </g>
      <line style="fill:none;stroke:#008000;stroke-width:4;stroke-linejoin:miter;stroke-miterlimit:4;marker-start:url(#Arrow1Mstart);marker-end:url(#Arrow1Mend)" y2="2143.7007" x2="159.99974" y1="265.74802" x1="159.99974" id="A.grainline" />
      <path style="fill:none;stroke:#008000;stroke-width:4;stroke-linejoin:miter;stroke-miterlimit:4;stroke-dasharray:24, 6;stroke-dashoffset:0" d="M 0,0 C 90.456729,0 208.3289,-54.271616 231.4168,-141.73228 L 744.09449,-6.3954 C 728.18902,53.857031 716.68083,115.36707 708.66142,177.16535 698.78178,253.29866 698.78178,331.34701 708.66142,407.48031 L 673.22835,637.79528 C 637.13018,872.43337 602.3622,1109.0581 602.3622,1346.4567 602.3622,1612.6145 640.74038,1877.6087 646.65354,2143.7008 L 655.51181,2542.3228 53.149606,2542.3228 62.007874,2143.7008 C 67.915207,1877.8708 88.582677,1612.3523 88.582677,1346.4567 88.582677,1109.5728 61.952228,873.1901 35.433071,637.79528 21.486684,514.00148 0,390.32494 0,265.74803 L 0,0" id="A.seamline" inkscape:connector-curvature="0" />
      <path style="fill:none;stroke:#008000;stroke-width:4;stroke-linejoin:miter;stroke-miterlimit:4" d="M 177.1875,-156.71875 C 169.09863,-126.87264 143.83793,-105.41937 118.34375,-89.96875 77.929867,-66.16331 30.961167,-54.197395 -16,-56.25 -29.416667,-56.25 -42.833333,-56.25 -56.25,-56.25 -56.085812,59.259793 -56.580486,174.77453 -56,290.28125 -53.185254,422.41219 -29.420359,552.7645 -15.970595,683.9998 10.646758,920.387 35.57506,1157.5484 32.09375,1395.75 29.540514,1658.8072 9.3728673,1921.3647 4.8184324,2184.4272 1.7690832,2322.4724 -1.335649,2460.5164 -4.34375,2598.5625 234.77083,2598.5625 473.88542,2598.5625 713,2598.5625 709.23401,2433.1478 705.98175,2267.71 701.77362,2102.3137 692.77626,1831.1564 653.36555,1561.4886 659.24042,1289.9382 665.38921,1030.7838 709.57989,774.6856 748.43308,518.81335 753.98094,481.61731 760.23223,444.42473 765.34228,407.22678 753.59951,322.78433 755.34592,236.5731 768.91611,152.38491 777.6967,92.451664 791.16816,33.296055 807.08502,-25.187677 808.93168,-32.291785 810.77834,-39.395892 812.625,-46.5 605.75146,-101.05979 398.89264,-155.67541 192.03125,-210.28125 187.08333,-192.42708 182.13542,-174.57292 177.1875,-156.71875 z" id="A.cuttingline" inkscape:connector-curvature="0" />
      <g id="A.info">
        <text style="font-size:12px;font-style:normal;font-weight:normal;text-align:right;text-anchor:start;fill:#000000;fill-opacity:1;stroke:none" id="A.info.lineSeamly Patterns" y="1346.4567" x="231.41681">Seamly Patterns</text>
        <text style="font-size:12px;font-style:normal;font-weight:normal;text-align:right;text-anchor:start;fill:#000000;fill-opacity:1;stroke:none" id="A.info.lineHM_1" y="1360.8567" x="231.41681">HM_1</text>
        <text style="font-size:12px;font-style:normal;font-weight:normal;text-align:right;text-anchor:start;fill:#000000;fill-opacity:1;stroke:none" id="A.info.lineSingle Breasted Tuxedo Jacket, circa 1880 to 1900" y="1375.2567" x="231.41681">Single Breasted Tuxedo Jacket, circa 1880 to 1900</text>
        <text style="font-size:12px;font-style:normal;font-weight:normal;text-align:right;text-anchor:start;fill:#000000;fill-opacity:1;stroke:none" id="A.info.linePattern Piece A" y="1389.6567" x="231.41681">Pattern Piece A</text>
        <text style="font-size:12px;font-style:normal;font-weight:normal;text-align:right;text-anchor:start;fill:#000000;fill-opacity:1;stroke:none" id="A.info.lineCut 2 Fabric" y="1404.0566" x="231.41681">Cut 2 Fabric</text>
        <text style="font-size:12px;font-style:normal;font-weight:normal;text-align:right;text-anchor:start;fill:#000000;fill-opacity:1;stroke:none" id="A.info.line " y="1418.4567" x="231.41681" />
        <text style="font-size:12px;font-style:normal;font-weight:normal;text-align:right;text-anchor:start;fill:#000000;fill-opacity:1;stroke:none" id="A.info.lineDressFormLg" y="1432.8567" x="231.41681">DressFormLg</text>
        <text style="font-size:12px;font-style:normal;font-weight:normal;text-align:right;text-anchor:start;fill:#000000;fill-opacity:1;stroke:none" id="A.info.line2015/1/26 19:39" y="1447.2567" x="231.41681">2015/1/26 19:39</text>
      </g>
    </g>
    <g id="g3545" transform="translate(88.117513,-2959.2802)">
      <g transform="translate(88.582677,3520.9319)" id="document.tuxedo.Tuxedo Front.pattern">
        <g transform="matrix(10,0,0,10,-14828.74,-5335.1575)" id="B.letter">
          <text x="1647.6378" y="592.79529" id="B.letter.letterline" style="font-size:24px;font-style:normal;font-weight:normal;text-align:right;text-anchor:start;fill:#000000;fill-opacity:1;stroke:none">B</text>
        </g>
        <line id="B.grainline" x1="2099.7998" y1="637.79529" x2="2099.7998" y2="2143.7007" style="fill:none;stroke:#008000;stroke-width:4;stroke-linejoin:miter;stroke-miterlimit:4;marker-start:url(#Arrow1Mstart);marker-end:url(#Arrow1Mend)" />
        <path id="B.foldline" d="M 1240.6161,1596.5995 1505.9055,1612.2047 1771.195,1627.81 C 1761.8318,1786.9837 1761.8318,1786.9837 1496.5424,1771.3784 L 1231.2529,1755.7731 1240.6161,1596.5995" style="fill:none;stroke:#006400;stroke-width:6;stroke-linejoin:miter;stroke-miterlimit:4" inkscape:connector-curvature="0" />
        <path id="B.dartline" d="M 2133.4336,6.5648608 2099.7997,392.37299 2197.3045,17.577089 M 1306.8944,581.69704 1311.0236,637.79528 C 1326.6466,850.04353 1359.9678,1060.7412 1375.5907,1272.9895 1383.6921,1383.0521 1374.0137,1493.9396 1364.4178,1603.8819 1338.8275,1496.5295 1313.0172,1388.2542 1304.9158,1278.1916 1289.2292,1065.079 1291.2771,850.90788 1275.5906,637.79528 L 1271.4613,581.69704" style="fill:none;stroke:#008000;stroke-width:3;stroke-linejoin:miter;stroke-miterlimit:4;stroke-dasharray:6, 6;stroke-dashoffset:0" inkscape:connector-curvature="0" />
        <path id="B.seamline" d="M 1789.3701,-212.59843 C 1806.3253,-108.25832 1864.8993,30.738821 1969.0711,48.699467 L 2128.5484,62.602323 2156.2405,65.01646 2183.1422,72.015058 2338.0675,112.31954 C 2398.3601,284.43465 2403.9045,461.11496 2409.4488,637.79528 2415.9424,844.72351 2394.9179,1051.9018 2374.0157,1257.874 L 2356.2992,1612.2047 C 2329.6252,2145.6852 2303.1496,2630.9055 1926.6732,2608.7598 L 797.24409,2542.3228 832.67717,2143.7008 C 856.57537,1874.846 949.11747,1615.1839 974.40945,1346.4567 996.54414,1111.2756 950.42984,872.79547 974.40945,637.79528 982.29451,560.52165 996.08191,483.92659 1009.8425,407.48031 1016.0768,455.52227 1040.3737,503.31979 1074.6293,537.57542 1165.2441,628.19021 1354.15,665.72546 1455.7956,587.68535 1561.6535,506.41113 1521.6778,311.19769 1471.3094,187.60795 1425.6111,75.477188 1320.3911,-13.715775 1300.9695,-133.23334 L 1789.3701,-212.59843" style="fill:none;stroke:#008000;stroke-width:4;stroke-linejoin:miter;stroke-miterlimit:4;stroke-dasharray:24, 6;stroke-dashoffset:0" inkscape:connector-curvature="0" />
        <path inkscape:connector-curvature="0" id="B.cuttingline" d="M 1780.3438,-268.125 C 1598.9278,-238.63108 1417.505,-209.179 1236.0938,-179.65625 1243.2189,-139.72841 1247.3896,-98.809033 1262.606,-60.878012 1291.8328,17.090525 1346.5782,81.341472 1389.609,151.51326 1418.2778,196.98237 1435.6925,248.71949 1449.3913,300.19029 1462.6664,353.93201 1471.4296,409.82828 1462.75,465.09375 1457.6679,496.94519 1443.4679,529.8011 1415.2188,547.59375 1378.1299,571.76874 1331.832,576.25326 1288.6562,572.625 1229.4625,566.7532 1170.4437,545.6874 1124.5,507.1875 1092.485,479.79445 1071.0359,440.3578 1065.2469,398.76986 1047.8729,346.53407 1030.499,294.29829 1013.125,242.0625 993.57294,294.22977 973.55032,346.26717 954.29185,398.51548 933.94931,510.94922 914.06449,624.07749 911.75904,738.53005 906.29377,925.44349 932.54318,1112.1274 921.625,1298.8125 912.24575,1448.0032 878.66374,1594.131 846.58164,1739.741 815.62868,1878.7567 785.69577,2018.3599 774.70815,2160.6323 761.83788,2305.4425 748.95416,2450.2515 736.09375,2595.0625 1135.1983,2618.4876 1534.2974,2642.1372 1933.4062,2665.4062 2005.753,2668.5878 2080.1705,2653.1242 2141.5347,2613.5883 2208.3123,2571.4189 2256.2109,2505.161 2288.9195,2434.311 2331.1135,2342.7745 2352.8914,2243.6056 2368.7759,2144.5427 2393.8623,1981.84 2401.9348,1817.1608 2410.5774,1652.9217 2417.357,1521.3061 2423.4866,1389.644 2430.5582,1258.0515 2452.2296,1044.835 2473.4389,830.64177 2465.0339,616.04094 2460.3872,462.73006 2453.0186,307.66079 2411.6369,159.17131 2403.0012,127.46206 2392.2559,96.403915 2381.2812,65.4375 2309.123,46.799761 2237.0566,27.62691 2164.8475,9.3193319 2101.5253,3.6020343 2038.1004,-1.4164169 1974.835,-7.4920879 1942.1014,-15.259085 1918.3542,-42.198194 1900.5,-69.21875 1868.1505,-120.05913 1850.7225,-179.16478 1842.1002,-238.55326 1839.973,-251.41051 1837.8459,-264.26775 1835.7188,-277.125 1817.2604,-274.125 1798.8021,-271.125 1780.3438,-268.125 z" style="fill:none;stroke:#008000;stroke-width:4;stroke-linejoin:miter;stroke-miterlimit:4" />
        <g id="B.info">
          <text x="1647.6378" y="637.79529" id="B.info.lineSeamly Patterns" style="font-size:12px;font-style:normal;font-weight:normal;text-align:right;text-anchor:start;fill:#000000;fill-opacity:1;stroke:none">Seamly Patterns</text>
          <text x="1647.6378" y="652.19525" id="B.info.lineHM_1" style="font-size:12px;font-style:normal;font-weight:normal;text-align:right;text-anchor:start;fill:#000000;fill-opacity:1;stroke:none">HM_1</text>
          <text x="1647.6378" y="666.59528" id="B.info.lineSingle Breasted Tuxedo Jacket, circa 1880 to 1900" style="font-size:12px;font-style:normal;font-weight:normal;text-align:right;text-anchor:start;fill:#000000;fill-opacity:1;stroke:none">Single Breasted Tuxedo Jacket, circa 1880 to 1900</text>
          <text x="1647.6378" y="680.9953" id="B.info.linePattern Piece B" style="font-size:12px;font-style:normal;font-weight:normal;text-align:right;text-anchor:start;fill:#000000;fill-opacity:1;stroke:none">Pattern Piece B</text>
          <text x="1647.6378" y="695.39526" id="B.info.lineCut 2 Fabric" style="font-size:12px;font-style:normal;font-weight:normal;text-align:right;text-anchor:start;fill:#000000;fill-opacity:1;stroke:none">Cut 2 Fabric</text>
          <text x="1647.6378" y="709.79529" id="B.info.line " style="font-size:12px;font-style:normal;font-weight:normal;text-align:right;text-anchor:start;fill:#000000;fill-opacity:1;stroke:none" />
          <text x="1647.6378" y="724.19525" id="B.info.lineDressFormLg" style="font-size:12px;font-style:normal;font-weight:normal;text-align:right;text-anchor:start;fill:#000000;fill-opacity:1;stroke:none">DressFormLg</text>
          <text x="1647.6378" y="738.59528" id="B.info.line2015/1/26 19:39" style="font-size:12px;font-style:normal;font-weight:normal;text-align:right;text-anchor:start;fill:#000000;fill-opacity:1;stroke:none">2015/1/26 19:39</text>
        </g>
      </g>
    </g>
    <g id="document.tuxedo.Tuxedo UnderCollar.pattern" transform="matrix(0.6948136,-0.71918987,0.71918987,0.6948136,409.16666,5007.2092)">
      <g id="C.letter" transform="matrix(3,0,0,3,-3490.6965,779.78217)">
        <text style="font-size:24px;font-style:normal;font-weight:normal;text-align:right;text-anchor:start;fill:#000000;fill-opacity:1;stroke:none" id="C.letter.letterline" y="-389.89108" x="1745.3483">C</text>
      </g>
      <line style="fill:none;stroke:#008000;stroke-width:4;stroke-linejoin:miter;stroke-miterlimit:4;marker-start:url(#Arrow1Mstart);marker-end:url(#Arrow1Mend)" y2="-140.47835" x2="1797.5438" y1="-389.89108" x1="1626.0165" id="C.grainline" />
      <path style="fill:none;stroke:#006400;stroke-width:6;stroke-linejoin:miter;stroke-miterlimit:4" d="M 1626.0165,-450.12601 C 1740.368,-283.85085 1902.3544,-141.75416 1969.0711,48.699467" id="C.foldline" inkscape:connector-curvature="0" />
      <path style="fill:none;stroke:#008000;stroke-width:4;stroke-linejoin:miter;stroke-miterlimit:4;stroke-dasharray:24, 6;stroke-dashoffset:0" d="M 1745.3482,-557.99557 C 1938.7045,-344.09332 2181.9763,-152.86231 2288.9028,114.92033 L 1969.0711,48.699467 C 1842.3486,34.897463 1745.5601,-88.710314 1673.3276,-193.74152 L 1538.4307,-389.89109 1626.0165,-450.12601 1745.3482,-557.99557" id="C.seamline" inkscape:connector-curvature="0" />
      <path style="fill:none;stroke:#008000;stroke-width:4;stroke-linejoin:miter;stroke-miterlimit:4" d="M 1707.625,-599.71875 C 1668.1869,-564.29657 1629.1896,-528.3166 1589.4768,-493.2421 1546.388,-463.62381 1503.2952,-434.01124 1460.2188,-404.375 1522.6094,-314.00618 1584.3508,-223.1636 1647.124,-133.07925 1696.6665,-63.989791 1751.8388,3.3623263 1823,51.25 1864.4842,79.186282 1912.0475,98.793555 1961.896,104.65549 2101.4409,133.54208 2240.9805,162.45406 2380.5312,191.3125 2359.519,140.93425 2340.8391,89.518899 2317.5015,40.162576 2250.6583,-99.645535 2149.6407,-219.32726 2043.4375,-330.75 1951.2292,-427.42736 1854.2836,-519.49734 1765.5341,-619.48508 1760.1165,-625.45881 1754.6989,-631.43253 1749.2812,-637.40625 1735.3958,-624.84375 1721.5104,-612.28125 1707.625,-599.71875 z" id="C.cuttingline" inkscape:connector-curvature="0" />
      <g id="C.info">
        <text style="font-size:12px;font-style:normal;font-weight:normal;text-align:right;text-anchor:start;fill:#000000;fill-opacity:1;stroke:none" id="C.info.lineSeamly Patterns" y="-389.89108" x="1745.3483">Seamly Patterns</text>
        <text style="font-size:12px;font-style:normal;font-weight:normal;text-align:right;text-anchor:start;fill:#000000;fill-opacity:1;stroke:none" id="C.info.lineHM_1" y="-375.49109" x="1745.3483">HM_1</text>
        <text style="font-size:12px;font-style:normal;font-weight:normal;text-align:right;text-anchor:start;fill:#000000;fill-opacity:1;stroke:none" id="C.info.lineSingle Breasted Tuxedo Jacket, circa 1880 to 1900" y="-361.09109" x="1745.3483">Single Breasted Tuxedo Jacket, circa 1880 to 1900</text>
        <text style="font-size:12px;font-style:normal;font-weight:normal;text-align:right;text-anchor:start;fill:#000000;fill-opacity:1;stroke:none" id="C.info.linePattern Piece C" y="-346.69107" x="1745.3483">Pattern Piece C</text>
        <text style="font-size:12px;font-style:normal;font-weight:normal;text-align:right;text-anchor:start;fill:#000000;fill-opacity:1;stroke:none" id="C.info.lineCut 1 Lining" y="-332.29108" x="1745.3483">Cut 1 Lining</text>
        <text style="font-size:12px;font-style:normal;font-weight:normal;text-align:right;text-anchor:start;fill:#000000;fill-opacity:1;stroke:none" id="C.info.lineCut 1 Interfacing" y="-317.89108" x="1745.3483">Cut 1 Interfacing</text>
        <text style="font-size:12px;font-style:normal;font-weight:normal;text-align:right;text-anchor:start;fill:#000000;fill-opacity:1;stroke:none" id="C.info.line " y="-303.49109" x="1745.3483" />
        <text style="font-size:12px;font-style:normal;font-weight:normal;text-align:right;text-anchor:start;fill:#000000;fill-opacity:1;stroke:none" id="C.info.lineDressFormLg" y="-289.09109" x="1745.3483">DressFormLg</text>
        <text style="font-size:12px;font-style:normal;font-weight:normal;text-align:right;text-anchor:start;fill:#000000;fill-opacity:1;stroke:none" id="C.info.line2015/1/26 19:39" y="-274.69107" x="1745.3483">2015/1/26 19:39</text>
      </g>
    </g>
    <g id="document.tuxedo.Tuxedo Collar.pattern" transform="matrix(0.49790388,0.86723222,-0.86723222,0.49790388,1379.3257,2182.3543)">
      <g id="D.letter" transform="matrix(3,0,0,3,-3877.409,387.48304)">
        <text style="font-size:24px;font-style:normal;font-weight:normal;text-align:right;text-anchor:start;fill:#000000;fill-opacity:1;stroke:none" id="D.letter.letterline" y="-193.74152" x="1938.7045">D</text>
      </g>
      <line style="fill:none;stroke:#008000;stroke-width:4;stroke-linejoin:miter;stroke-miterlimit:4;marker-start:url(#Arrow1Mstart);marker-end:url(#Arrow1Mend)" y2="-140.47835" x2="1797.5438" y1="-389.89108" x1="1626.0165" id="D.grainline" />
      <path style="fill:none;stroke:#006400;stroke-width:6;stroke-linejoin:miter;stroke-miterlimit:4" d="M 1626.0165,-450.12601 C 1740.368,-283.85085 1902.3544,-141.75416 1969.0711,48.699467 L 2374.0157,1257.874" id="D.foldline" inkscape:connector-curvature="0" />
      <path style="fill:none;stroke:#008000;stroke-width:4;stroke-linejoin:miter;stroke-miterlimit:4;stroke-dasharray:24, 6;stroke-dashoffset:0" d="M 1745.3482,-557.99557 C 1938.7045,-344.09332 2181.9763,-152.86231 2288.9028,114.92033 2356.5316,284.28727 2369.6587,460.56646 2382.7858,636.84565 2398.1602,843.30409 2386.0527,1051.1941 2374.0157,1257.874 L 2356.2992,1612.2047 C 2329.6252,2145.6852 2303.1496,2630.9055 1926.6732,2608.7598 L 1926.6732,1257.874 C 1926.6732,705.43853 1763.8849,125.5261 1450.8449,-329.65616 L 1626.0165,-450.12601 1745.3482,-557.99557" id="D.seamline" inkscape:connector-curvature="0" />
      <path style="fill:none;stroke:#008000;stroke-width:4;stroke-linejoin:miter;stroke-miterlimit:4" d="M 1707.625,-599.71875 C 1668.1871,-564.29639 1629.1893,-528.31696 1589.477,-493.24183 1517.224,-443.56783 1444.9863,-393.87159 1372.7188,-344.21875 1415.2876,-282.75908 1457.0577,-220.67019 1494.6773,-156.0392 1657.8095,121.97433 1766.7324,430.88117 1824.2381,747.79696 1856.5751,926.31355 1872.0217,1107.5686 1870.4375,1289 1870.4375,1746.625 1870.4375,2204.25 1870.4375,2661.875 1916.1321,2664.4151 1962.2122,2668.9257 2007.7534,2661.905 2076.8717,2652.8544 2142.9829,2621.6998 2193.0938,2573.0938 2254.8091,2514.0025 2293.3941,2435.2815 2320.1049,2355.154 2356.7324,2243.5063 2373.5915,2126.5108 2385.9868,2009.9525 2403.3759,1838.1843 2409.4763,1665.5437 2418.5897,1493.1833 2424.5076,1374.2464 2430.2814,1255.2927 2437.2242,1136.4169 2446.6874,959.39123 2451.7457,781.60382 2436.7901,604.73398 2425.6548,454.09402 2411.2416,301.90631 2364.0938,157.59375 2336.9272,72.457323 2296.9792,-8.3148785 2247.5121,-82.678659 2147.4413,-233.79333 2015.3367,-359.4158 1889.1324,-488.14158 1841.1418,-536.59578 1794.8226,-586.65306 1749.2812,-637.40625 1735.3958,-624.84375 1721.5104,-612.28125 1707.625,-599.71875 z" id="D.cuttingline" inkscape:connector-curvature="0" />
      <g id="D.info">
        <text style="font-size:12px;font-style:normal;font-weight:normal;text-align:right;text-anchor:start;fill:#000000;fill-opacity:1;stroke:none" id="D.info.lineSeamly Patterns" y="-171.24152" x="1763.8849">Seamly Patterns</text>
        <text style="font-size:12px;font-style:normal;font-weight:normal;text-align:right;text-anchor:start;fill:#000000;fill-opacity:1;stroke:none" id="D.info.lineHM_1" y="-156.84152" x="1763.8849">HM_1</text>
        <text style="font-size:12px;font-style:normal;font-weight:normal;text-align:right;text-anchor:start;fill:#000000;fill-opacity:1;stroke:none" id="D.info.lineSingle Breasted Tuxedo Jacket, circa 1880 to 1900" y="-142.44151" x="1763.8849">Single Breasted Tuxedo Jacket, circa 1880 to 1900</text>
        <text style="font-size:12px;font-style:normal;font-weight:normal;text-align:right;text-anchor:start;fill:#000000;fill-opacity:1;stroke:none" id="D.info.linePattern Piece D" y="-128.04152" x="1763.8849">Pattern Piece D</text>
        <text style="font-size:12px;font-style:normal;font-weight:normal;text-align:right;text-anchor:start;fill:#000000;fill-opacity:1;stroke:none" id="D.info.lineCut 1 Fabric" y="-113.64152" x="1763.8849">Cut 1 Fabric</text>
        <text style="font-size:12px;font-style:normal;font-weight:normal;text-align:right;text-anchor:start;fill:#000000;fill-opacity:1;stroke:none" id="D.info.lineCut 1 Interfacing" y="-99.241516" x="1763.8849">Cut 1 Interfacing</text>
        <text style="font-size:12px;font-style:normal;font-weight:normal;text-align:right;text-anchor:start;fill:#000000;fill-opacity:1;stroke:none" id="D.info.line " y="-84.841515" x="1763.8849" />
        <text style="font-size:12px;font-style:normal;font-weight:normal;text-align:right;text-anchor:start;fill:#000000;fill-opacity:1;stroke:none" id="D.info.lineDressFormLg" y="-70.441521" x="1763.8849">DressFormLg</text>
        <text style="font-size:12px;font-style:normal;font-weight:normal;text-align:right;text-anchor:start;fill:#000000;fill-opacity:1;stroke:none" id="D.info.line2015/1/26 19:39" y="-56.041519" x="1763.8849">2015/1/26 19:39</text>
      </g>
    </g>
    <g id="document.tuxedo.Tuxedo Pocket.pattern" transform="translate(-959.09205,1788.2854)">
      <g id="E.letter" transform="matrix(3,0,0,3,-2605.0339,-3352.3726)">
        <text style="font-size:24px;font-style:normal;font-weight:normal;text-align:right;text-anchor:start;fill:#000000;fill-opacity:1;stroke:none" id="E.letter.letterline" y="1676.1863" x="1302.517">E</text>
      </g>
      <line style="fill:none;stroke:#008000;stroke-width:4;stroke-linejoin:miter;stroke-miterlimit:4;marker-start:url(#Arrow1Mstart);marker-end:url(#Arrow1Mend)" y2="1723.4685" x2="1364.4178" y1="1603.882" x1="1364.4178" id="E.grainline" />
      <path style="fill:none;stroke:#008000;stroke-width:4;stroke-linejoin:miter;stroke-miterlimit:4;stroke-dasharray:24, 6;stroke-dashoffset:0" d="M 1240.6161,1596.5995 1505.9055,1612.2047 1771.195,1627.81 C 1761.8318,1786.9837 1761.8318,1786.9837 1496.5424,1771.3784 L 1231.2529,1755.7731 1240.6161,1596.5995" id="E.seamline" inkscape:connector-curvature="0" />
      <path style="fill:none;stroke:#008000;stroke-width:4;stroke-linejoin:miter;stroke-miterlimit:4" d="M 1184.4688,1593.2812 C 1180.24,1665.0625 1176.0178,1736.8442 1171.7812,1808.625 1308.419,1816.4905 1445.0251,1825.0899 1581.6875,1832.4062 1627.8879,1834.0079 1674.8635,1837.2713 1720.4436,1827.6522 1753.5604,1820.8452 1784.8952,1801.3471 1801.4375,1771.25 1821.5607,1735.494 1823.0239,1693.4184 1825.9873,1653.5129 1827.6202,1627.3415 1829.0669,1601.149 1830.625,1574.9688 1616.3442,1562.347 1402.0606,1549.7722 1187.7812,1537.125 1186.6771,1555.8437 1185.5729,1574.5625 1184.4688,1593.2812 z" id="E.cuttingline" inkscape:connector-curvature="0" />
      <g id="E.info">
        <text style="font-size:12px;font-style:normal;font-weight:normal;text-align:right;text-anchor:start;fill:#000000;fill-opacity:1;stroke:none" id="E.info.lineSeamly Patterns" y="1627.8099" x="1505.9055">Seamly Patterns</text>
        <text style="font-size:12px;font-style:normal;font-weight:normal;text-align:right;text-anchor:start;fill:#000000;fill-opacity:1;stroke:none" id="E.info.lineHM_1" y="1642.21" x="1505.9055">HM_1</text>
        <text style="font-size:12px;font-style:normal;font-weight:normal;text-align:right;text-anchor:start;fill:#000000;fill-opacity:1;stroke:none" id="E.info.lineSingle Breasted Tuxedo Jacket, circa 1880 to 1900" y="1656.61" x="1505.9055">Single Breasted Tuxedo Jacket, circa 1880 to 1900</text>
        <text style="font-size:12px;font-style:normal;font-weight:normal;text-align:right;text-anchor:start;fill:#000000;fill-opacity:1;stroke:none" id="E.info.linePattern Piece E" y="1671.01" x="1505.9055">Pattern Piece E</text>
        <text style="font-size:12px;font-style:normal;font-weight:normal;text-align:right;text-anchor:start;fill:#000000;fill-opacity:1;stroke:none" id="E.info.lineCut 1 Fabric" y="1685.41" x="1505.9055">Cut 1 Fabric</text>
        <text style="font-size:12px;font-style:normal;font-weight:normal;text-align:right;text-anchor:start;fill:#000000;fill-opacity:1;stroke:none" id="E.info.lineCut 1 Lining" y="1699.8099" x="1505.9055">Cut 1 Lining</text>
        <text style="font-size:12px;font-style:normal;font-weight:normal;text-align:right;text-anchor:start;fill:#000000;fill-opacity:1;stroke:none" id="E.info.lineCut 1 Interfacing" y="1714.21" x="1505.9055">Cut 1 Interfacing</text>
        <text style="font-size:12px;font-style:normal;font-weight:normal;text-align:right;text-anchor:start;fill:#000000;fill-opacity:1;stroke:none" id="E.info.line " y="1728.61" x="1505.9055" />
        <text style="font-size:12px;font-style:normal;font-weight:normal;text-align:right;text-anchor:start;fill:#000000;fill-opacity:1;stroke:none" id="E.info.lineDressFormLg" y="1743.01" x="1505.9055">DressFormLg</text>
        <text style="font-size:12px;font-style:normal;font-weight:normal;text-align:right;text-anchor:start;fill:#000000;fill-opacity:1;stroke:none" id="E.info.line2015/1/26 19:39" y="1757.41" x="1505.9055">2015/1/26 19:39</text>
      </g>
    </g>
    <g id="document.tuxedo.Tuxedo UpperSleeve.pattern" transform="matrix(0,1,-1,0,2790.1736,5205.3307)">
      <g id="F.letter" transform="matrix(10,0,0,10,-676.48405,-5580.7087)">
        <text style="font-size:24px;font-style:normal;font-weight:normal;text-align:right;text-anchor:start;fill:#000000;fill-opacity:1;stroke:none" id="F.letter.letterline" y="620.07874" x="75.164894">F</text>
      </g>
      <line style="fill:none;stroke:#008000;stroke-width:4;stroke-linejoin:miter;stroke-miterlimit:4;marker-start:url(#Arrow1Mstart);marker-end:url(#Arrow1Mend)" y2="1776.0826" x2="407.48032" y1="620.07874" x1="407.48032" id="F.grainline" />
      <path style="fill:none;stroke:#008000;stroke-width:4;stroke-linejoin:miter;stroke-miterlimit:4;stroke-dasharray:24, 6;stroke-dashoffset:0" d="M 0,159.44882 C 75.164894,75.164894 189.20265,-14.862523 407.48031,0 630.20545,15.165351 754.35524,202.16484 814.96063,531.49606 786.08206,791.07467 756.9676,1052.7736 768.89764,1313.6811 780.42077,1565.6898 832.89944,1814.7008 884.9226,2061.5505 L 265.74803,2161.4173 C 175.76766,1882.7631 85.185527,1602.2453 35.433071,1313.6811 -3.9007672,1085.5448 0,851.58102 0,620.07874 L 0,159.44882" id="F.seamline" inkscape:connector-curvature="0" />
      <path style="fill:none;stroke:#008000;stroke-width:4;stroke-linejoin:miter;stroke-miterlimit:4" d="M 352.71875,-57.8125 C 262.80147,-57.123275 171.82968,-36.800544 93.763514,8.6797779 38.257276,40.314428 -9.327248,84.078973 -51.100965,132.07856 -57.102729,135.9977 -56.575677,142.42821 -56.25,148.78125 -56.155535,366.63532 -56.406251,584.49005 -56.20409,802.34362 -55.393417,986.76701 -48.769162,1172.179 -14.585338,1353.7948 37.31427,1638.1732 126.60794,1913.6489 215.29351,2188.2031 219.2165,2200.3437 223.1395,2212.4844 227.0625,2224.625 468.74966,2185.6541 710.43378,2146.6644 952.125,2107.7188 896.02858,1839.8929 835.47984,1571.2322 824.51528,1297.2828 814.29609,1040.4073 843.48964,784.32621 871.8125,529.375 850.29142,412.47433 820.16985,295.59165 764.49335,189.87023 724.78917,114.9278 669.62,46.102536 596.59375,1.4375 535.94332,-36.30629 464.85826,-54.870393 393.78221,-57.106208 380.10879,-57.737951 366.4101,-58.007089 352.71875,-57.8125 z" id="F.cuttingline" inkscape:connector-curvature="0" />
      <g id="F.info">
        <text style="font-size:12px;font-style:normal;font-weight:normal;text-align:right;text-anchor:start;fill:#000000;fill-opacity:1;stroke:none" id="F.info.lineSeamly Patterns" y="655.51184" x="75.164894">Seamly Patterns</text>
        <text style="font-size:12px;font-style:normal;font-weight:normal;text-align:right;text-anchor:start;fill:#000000;fill-opacity:1;stroke:none" id="F.info.lineHM_1" y="669.9118" x="75.164894">HM_1</text>
        <text style="font-size:12px;font-style:normal;font-weight:normal;text-align:right;text-anchor:start;fill:#000000;fill-opacity:1;stroke:none" id="F.info.lineSingle Breasted Tuxedo Jacket, circa 1880 to 1900" y="684.31183" x="75.164894">Single Breasted Tuxedo Jacket, circa 1880 to 1900</text>
        <text style="font-size:12px;font-style:normal;font-weight:normal;text-align:right;text-anchor:start;fill:#000000;fill-opacity:1;stroke:none" id="F.info.linePattern Piece F" y="698.71179" x="75.164894">Pattern Piece F</text>
        <text style="font-size:12px;font-style:normal;font-weight:normal;text-align:right;text-anchor:start;fill:#000000;fill-opacity:1;stroke:none" id="F.info.lineCut 2 Fabric" y="713.11182" x="75.164894">Cut 2 Fabric</text>
        <text style="font-size:12px;font-style:normal;font-weight:normal;text-align:right;text-anchor:start;fill:#000000;fill-opacity:1;stroke:none" id="F.info.line " y="727.51184" x="75.164894" />
        <text style="font-size:12px;font-style:normal;font-weight:normal;text-align:right;text-anchor:start;fill:#000000;fill-opacity:1;stroke:none" id="F.info.lineDressFormLg" y="741.9118" x="75.164894">DressFormLg</text>
        <text style="font-size:12px;font-style:normal;font-weight:normal;text-align:right;text-anchor:start;fill:#000000;fill-opacity:1;stroke:none" id="F.info.line2015/1/26 19:39" y="756.31183" x="75.164894">2015/1/26 19:39</text>
      </g>
    </g>
    <g id="document.tuxedo.Tuxedo UnderSleeve.pattern" transform="matrix(0,1,-1,0,2628.011,6140.23)">
      <g id="G.letter" transform="matrix(10,0,0,10,-676.48405,-5580.7087)">
        <text style="font-size:24px;font-style:normal;font-weight:normal;text-align:right;text-anchor:start;fill:#000000;fill-opacity:1;stroke:none" id="G.letter.letterline" y="620.07874" x="75.164894">G</text>
      </g>
      <line style="fill:none;stroke:#008000;stroke-width:4;stroke-linejoin:miter;stroke-miterlimit:4;marker-start:url(#Arrow1Mstart);marker-end:url(#Arrow1Mend)" y2="1776.0826" x2="407.48032" y1="620.07874" x1="407.48032" id="G.grainline" />
      <path style="fill:none;stroke:#008000;stroke-width:4;stroke-linejoin:miter;stroke-miterlimit:4;stroke-dasharray:24, 6;stroke-dashoffset:0" d="M 46.062992,159.44882 C 142.20326,308.27823 247.98911,472.03943 407.48031,549.2126 529.86155,608.42932 683.70059,566.91625 814.96063,531.49606 786.08206,791.07467 756.9676,1052.7736 768.89764,1313.6811 780.42077,1565.6898 832.89944,1814.7008 884.9226,2061.5505 L 265.74803,2161.4173 C 175.76766,1882.7631 85.185527,1602.2453 35.433071,1313.6811 -3.9007672,1085.5448 25.334948,543.65049 46.062992,159.44882" id="G.seamline" inkscape:connector-curvature="0" />
      <path style="fill:none;stroke:#008000;stroke-width:4;stroke-linejoin:miter;stroke-miterlimit:4" d="M -10.09375,156.40625 C -23.673574,410.23643 -37.585764,664.19194 -40.026599,918.43726 -40.612268,1032.9385 -39.941942,1147.7026 -28.392779,1261.713 -21.660143,1325.0182 -8.3571629,1387.3692 4.3478042,1449.6833 60.139428,1712.9636 144.52033,1968.8089 227.0625,2224.625 468.74966,2185.6541 710.43378,2146.6644 952.125,2107.7188 896.02858,1839.8929 835.47984,1571.2322 824.51528,1297.2828 813.45247,1018.1277 848.75576,740.19183 879.1636,463.17816 882.8188,453.56199 875.81214,456.3785 869.38052,458.52447 784.87268,480.59266 700.95552,507.11464 614.21875,518.5 554.51114,525.90351 491.29913,525.82647 435.49643,500.24124 351.76536,460.75394 284.49852,393.7534 227.37324,322.22079 158.57733,235.33796 101.38921,140.08557 40.752671,47.431804 26.908031,25.97537 13.06339,4.5189348 -0.78125,-16.9375 -3.8854167,40.84375 -6.9895833,98.625 -10.09375,156.40625 z" id="G.cuttingline" inkscape:connector-curvature="0" />
      <g id="G.info">
        <text style="font-size:12px;font-style:normal;font-weight:normal;text-align:right;text-anchor:start;fill:#000000;fill-opacity:1;stroke:none" id="G.info.lineSeamly Patterns" y="655.51184" x="75.164894">Seamly Patterns</text>
        <text style="font-size:12px;font-style:normal;font-weight:normal;text-align:right;text-anchor:start;fill:#000000;fill-opacity:1;stroke:none" id="G.info.lineHM_1" y="669.9118" x="75.164894">HM_1</text>
        <text style="font-size:12px;font-style:normal;font-weight:normal;text-align:right;text-anchor:start;fill:#000000;fill-opacity:1;stroke:none" id="G.info.lineSingle Breasted Tuxedo Jacket, circa 1880 to 1900" y="684.31183" x="75.164894">Single Breasted Tuxedo Jacket, circa 1880 to 1900</text>
        <text style="font-size:12px;font-style:normal;font-weight:normal;text-align:right;text-anchor:start;fill:#000000;fill-opacity:1;stroke:none" id="G.info.linePattern Piece G" y="698.71179" x="75.164894">Pattern Piece G</text>
        <text style="font-size:12px;font-style:normal;font-weight:normal;text-align:right;text-anchor:start;fill:#000000;fill-opacity:1;stroke:none" id="G.info.lineCut 2 Fabric" y="713.11182" x="75.164894">Cut 2 Fabric</text>
        <text style="font-size:12px;font-style:normal;font-weight:normal;text-align:right;text-anchor:start;fill:#000000;fill-opacity:1;stroke:none" id="G.info.line " y="727.51184" x="75.164894" />
        <text style="font-size:12px;font-style:normal;font-weight:normal;text-align:right;text-anchor:start;fill:#000000;fill-opacity:1;stroke:none" id="G.info.lineDressFormLg" y="741.9118" x="75.164894">DressFormLg</text>
        <text style="font-size:12px;font-style:normal;font-weight:normal;text-align:right;text-anchor:start;fill:#000000;fill-opacity:1;stroke:none" id="G.info.line2015/1/26 19:39" y="756.31183" x="75.164894">2015/1/26 19:39</text>
      </g>
    </g>
  </g>
  <g inkscape:label="Label-notes" id="notes" inkscape:groupmode="layer" transform="translate(89.839977,120.39063)">
    <g id="document.titleblock">
      <text style="font-size:40px;font-style:normal;font-weight:normal;text-align:right;fill:#000000;fill-opacity:1;stroke:none" id="company" y="0" x="0">Seamly Patterns</text>
      <text style="font-size:40px;font-style:normal;font-weight:normal;text-align:right;fill:#000000;fill-opacity:1;stroke:none" id="designer" y="44" x="0">S.L.Spencer</text>
      <text style="font-size:40px;font-style:normal;font-weight:normal;text-align:right;fill:#000000;fill-opacity:1;stroke:none" id="pattern_number" y="88" x="0">HM_1</text>
      <text style="font-size:40px;font-style:normal;font-weight:normal;text-align:right;fill:#000000;fill-opacity:1;stroke:none" id="pattern_name" y="132" x="0">Single Breasted Tuxedo Jacket, circa 1880 to 1900</text>
      <text style="font-size:40px;font-style:normal;font-weight:normal;text-align:right;fill:#000000;fill-opacity:1;stroke:none" id="client" y="176" x="0">DressFormLg</text>
      <text style="font-size:40px;font-style:normal;font-weight:normal;text-align:right;fill:#000000;fill-opacity:1;stroke:none" id="date" y="220" x="0">2015/1/26 19:39</text>
    </g>
    <g id="document.testgrid">
      <path style="fill:none;stroke:#008000;stroke-width:4;stroke-linejoin:miter;stroke-miterlimit:4" d="M 1080,0 1080,212.59843 M 1115.4331,0 1115.4331,212.59843 M 1150.8661,0 1150.8661,212.59843 M 1186.2992,0 1186.2992,212.59843 M 1221.7323,0 1221.7323,212.59843 M 1257.1654,0 1257.1654,212.59843 M 1292.5984,0 1292.5984,212.59843 M 1080,0 1292.5984,0 M 1080,35.433071 1292.5984,35.433071 M 1080,70.866142 1292.5984,70.866142 M 1080,106.29921 1292.5984,106.29921 M 1080,141.73228 1292.5984,141.73228 M 1080,177.16535 1292.5984,177.16535 M 1080,212.59843 1292.5984,212.59843 M 1469.7638,0 1469.7638,270 M 1559.7638,0 1559.7638,270 M 1649.7638,0 1649.7638,270 M 1739.7638,0 1739.7638,270 M 1469.7638,0 1739.7638,0 M 1469.7638,90 1739.7638,90 M 1469.7638,180 1739.7638,180 M 1469.7638,270 1739.7638,270" id="testgrid" inkscape:connector-curvature="0" />
    </g>
    <g id="document.tuxedo.Tuxedo Back.notes" transform="translate(58.75,580.55228)" />
    <g id="document.tuxedo.Tuxedo Front.notes" transform="translate(88.582677,3520.9319)" />
    <g id="document.tuxedo.Tuxedo UnderCollar.notes" transform="translate(88.582677,6881.0829)" />
    <g id="document.tuxedo.Tuxedo Collar.notes" transform="translate(88.582677,7722.7488)" />
    <g id="document.tuxedo.Tuxedo Pocket.notes" transform="translate(-1142.6702,8925.8049)" />
    <g id="document.tuxedo.Tuxedo UpperSleeve.notes" transform="translate(803.6755,10539.767)" />
    <g id="document.tuxedo.Tuxedo UnderSleeve.notes" transform="translate(1861.2489,10522.404)" />
  </g>
  <g inkscape:label="Label-reference" id="reference" inkscape:groupmode="layer" transform="translate(89.839977,120.39063)" />
</svg>
