<?xml version="1.0" encoding="UTF-8" standalone="no"?>
<svg xmlns:dc="http://purl.org/dc/elements/1.1/" xmlns:cc="http://creativecommons.org/ns#" xmlns:rdf="http://www.w3.org/1999/02/22-rdf-syntax-ns#" xmlns:svg="http://www.w3.org/2000/svg" xmlns="http://www.w3.org/2000/svg" xmlns:sodipodi="http://sodipodi.sourceforge.net/DTD/sodipodi-0.dtd" xmlns:inkscape="http://www.inkscape.org/namespaces/inkscape" patternNumber="HM_1" fitBoxtoViewport="True" companyName="Seamly Patterns" currentscale="0.5:1" margin-right="88.5826771654" client-name="DressFormLg" designerName="S.L.Spencer" height="6385.25272314" width="2737.94039627" margin-top="88.5826771654" version="1.1" margin-bottom="88.5826771654" margin-left="88.5826771654" preserveAspectRatio="xMidYMid meet" id="svg2" inkscape:version="0.48.4 r9939" sodipodi:docname="DressFormLg-single_breasted_dinner_jacket_tuxedo_1880-2015-01-15-2022.svg">
  <metadata id="metadata287">
    <rdf:RDF>
      <cc:Work rdf:about="">
        <dc:format>image/svg+xml</dc:format>
        <dc:type rdf:resource="http://purl.org/dc/dcmitype/StillImage" />
      </cc:Work>
    </rdf:RDF>
  </metadata>
  <sodipodi:namedview id="base" pagecolor="#ffffff" bordercolor="#666666" borderopacity="1.0" inkscape:pageopacity="0.0" inkscape:pageshadow="2" inkscape:zoom="0.13875723" inkscape:document-units="pt" showgrid="false" inkscape:window-maximized="1" inkscape:cx="1368.9702" inkscape:cy="3192.6265" inkscape:window-width="1855" inkscape:window-height="1056" inkscape:window-x="65" inkscape:window-y="24" inkscape:current-layer="pattern" />
  <defs id="defs5">
    <marker style="overflow:visible" id="Arrow1Mstart" refX="0.0" refY="0.0" orient="auto" inkscape:stockid="Arrow1Mstart">
      <path transform="scale(0.4) translate(10,0)" style="fill-rule:evenodd;stroke:#000000;stroke-width:1.0pt;marker-start:none" d="M 0.0,0.0 L 5.0,-5.0 L -12.5,0.0 L 5.0,5.0 L 0.0,0.0 z " id="path8" />
    </marker>
    <marker style="overflow:visible;" id="Arrow1Mend" refX="0.0" refY="0.0" orient="auto" inkscape:stockid="Arrow1Mend">
      <path transform="scale(0.4) rotate(180) translate(10,0)" style="fill-rule:evenodd;stroke:#000000;stroke-width:1.0pt;marker-start:none;" d="M 0.0,0.0 L 5.0,-5.0 L -12.5,0.0 L 5.0,5.0 L 0.0,0.0 z " id="path11" />
    </marker>
  </defs>
  <g inkscape:label="Label-pattern" id="pattern" inkscape:groupmode="layer" transform="translate(88.582677,88.582677)">
    <g id="document.tuxedo.Tuxedo Back.pattern" transform=" translate(58.750000, 580.552283)">
      <g id="A.letter" transform="matrix(10.000000, 0, 0, 10.000000, -2082.751244, -11713.110236)">
        <text style="font-size:24; vertical-align:top; fill-opacity:1.0; fill:#000000; text-anchor:start; stroke:none; font-weight:normal; font-style:normal; text-align:right; " transform="" id="A.letter.letterline" y="1301.45669291" x="231.416804841">
A</text>
      </g>
      <line style="stroke-linejoin:miter; stroke:green; stroke-width:4; stroke-miterlimit:4; fill:none; " y2="2143.7007874" marker-end="url(#Arrow1Mend)" marker-start="url(#Arrow1Mstart)" transform="" x2="159.999741003" y1="265.748031496" x1="159.999741003" id="A.grainline" />
      <path style="stroke-linejoin:miter; stroke-dashoffset:0; stroke:green; stroke-dasharray:24,6; stroke-miterlimit:4; stroke-width:4; fill:none; " transform="" d="M 0  0 C 90.4567285987  0  208.328898861  -54.2716160406  231.416804841  -141.732283465 L 744.094488189  -6.39540004341 C 728.18902456  53.8570310723  716.680830076  115.367067561  708.661417323  177.165354331 C 698.781784675  253.298656154  698.781784675  331.347013137  708.661417323  407.480314961 L 673.228346457  637.795275591 C 637.130178211  872.433369185  602.362204724  1109.05805619  602.362204724  1346.45669291 C 602.362204724  1612.61451344  640.740384932  1877.60866052  646.653543307  2143.7007874 L 655.511811024  2542.32283465 L 53.1496062992  2542.32283465 L 62.0078740157  2143.7007874 C 67.915207335  1877.87078803  88.5826771654  1612.35232122  88.5826771654  1346.45669291 C 88.5826771654  1109.57278205  61.95222844  873.190096072  35.4330708661  637.795275591 C 21.4866840279  514.001477955  0  390.324939624  0  265.748031496 L 0  0 " id="A.seamline" />
      <path style="fill:none;stroke:#008000;stroke-width:4;stroke-linejoin:miter;stroke-miterlimit:4" d="M 177.1875,-156.71875 C 169.09863,-126.87264 143.83793,-105.41937 118.34375,-89.96875 77.929867,-66.16331 30.961167,-54.197395 -16,-56.25 -29.416667,-56.25 -42.833333,-56.25 -56.25,-56.25 -56.085812,59.259793 -56.580486,174.77453 -56,290.28125 -53.185254,422.41219 -29.420359,552.7645 -15.970595,683.9998 10.646758,920.387 35.57506,1157.5484 32.09375,1395.75 29.540514,1658.8072 9.3728673,1921.3647 4.8184324,2184.4272 1.7690832,2322.4724 -1.335649,2460.5164 -4.34375,2598.5625 234.77083,2598.5625 473.88542,2598.5625 713,2598.5625 709.23401,2433.1478 705.98175,2267.71 701.77362,2102.3137 692.77626,1831.1564 653.36555,1561.4886 659.24042,1289.9382 665.38921,1030.7838 709.57989,774.6856 748.43308,518.81335 753.98094,481.61731 760.23223,444.42473 765.34228,407.22678 753.59951,322.78433 755.34592,236.5731 768.91611,152.38491 777.6967,92.451664 791.16816,33.296055 807.08502,-25.187677 808.93168,-32.291785 810.77834,-39.395892 812.625,-46.5 605.75146,-101.05979 398.89264,-155.67541 192.03125,-210.28125 187.08333,-192.42708 182.13542,-174.57292 177.1875,-156.71875 z" id="A.cuttingline" inkscape:connector-curvature="0" />
      <g id="A.info" transform="">
        <text style="font-size:12; vertical-align:top; fill-opacity:1.0; fill:#000000; text-anchor:start; stroke:none; font-weight:normal; font-style:normal; text-align:right; " transform="" id="A.info.lineSeamly Patterns" y="1346.45669291" x="231.416804841">
Seamly Patterns</text>
        <text style="font-size:12; vertical-align:top; fill-opacity:1.0; fill:#000000; text-anchor:start; stroke:none; font-weight:normal; font-style:normal; text-align:right; " transform="" id="A.info.lineHM_1" y="1360.85669291" x="231.416804841">
HM_1</text>
        <text style="font-size:12; vertical-align:top; fill-opacity:1.0; fill:#000000; text-anchor:start; stroke:none; font-weight:normal; font-style:normal; text-align:right; " transform="" id="A.info.lineSingle Breasted Tuxedo Jacket, circa 1880 to 1900" y="1375.25669291" x="231.416804841">
Single Breasted Tuxedo Jacket, circa 1880 to 1900</text>
        <text style="font-size:12; vertical-align:top; fill-opacity:1.0; fill:#000000; text-anchor:start; stroke:none; font-weight:normal; font-style:normal; text-align:right; " transform="" id="A.info.linePattern Piece A" y="1389.65669291" x="231.416804841">
Pattern Piece A</text>
        <text style="font-size:12; vertical-align:top; fill-opacity:1.0; fill:#000000; text-anchor:start; stroke:none; font-weight:normal; font-style:normal; text-align:right; " transform="" id="A.info.lineCut 2 Fabric" y="1404.05669291" x="231.416804841">
Cut 2 Fabric</text>
        <text style="font-size:12; vertical-align:top; fill-opacity:1.0; fill:#000000; text-anchor:start; stroke:none; font-weight:normal; font-style:normal; text-align:right; " transform="" id="A.info.line " y="1418.45669291" x="231.416804841" />
        <text style="font-size:12; vertical-align:top; fill-opacity:1.0; fill:#000000; text-anchor:start; stroke:none; font-weight:normal; font-style:normal; text-align:right; " transform="" id="A.info.lineDressFormLg" y="1432.85669291" x="231.416804841">
DressFormLg</text>
        <text style="font-size:12; vertical-align:top; fill-opacity:1.0; fill:#000000; text-anchor:start; stroke:none; font-weight:normal; font-style:normal; text-align:right; " transform="" id="A.info.line2015/1/15 20:22" y="1447.25669291" x="231.416804841">
2015/1/15 20:22</text>
      </g>
    </g>
    <g id="document.tuxedo.Tuxedo Front.pattern" transform=" translate(88.582677, 3520.931857)">
      <g id="B.letter" transform="matrix(10.000000, 0, 0, 10.000000, -14828.740157, -5335.157480)">
        <text style="font-size:24; vertical-align:top; fill-opacity:1.0; fill:#000000; text-anchor:start; stroke:none; font-weight:normal; font-style:normal; text-align:right; " transform="" id="B.letter.letterline" y="592.795275591" x="1647.63779528">
B</text>
      </g>
      <line style="stroke-linejoin:miter; stroke:green; stroke-width:4; stroke-miterlimit:4; fill:none; " y2="2143.7007874" marker-end="url(#Arrow1Mend)" marker-start="url(#Arrow1Mstart)" transform="" x2="2099.79971595" y1="637.795275591" x1="2099.79971595" id="B.grainline" />
      <path style="stroke-linejoin:miter; stroke:darkgreen; stroke-width:6; stroke-miterlimit:4; fill:none; " transform="" d="M 1240.61606225  1596.59946267 L 1505.90551181  1612.20472441 L 1771.19496138  1627.80998615 C 1761.83180433  1786.98365589  1761.83180433  1786.98365589  1496.54235477  1771.37839415 L 1231.2529052  1755.77313241 L 1240.61606225  1596.59946267 " id="B.foldline" />
      <path style="stroke-linejoin:miter; stroke-dashoffset:0; stroke:green; stroke-miterlimit:4; stroke-dasharray:6,6; stroke-width:3; fill:none; " transform="" d="M 2132.50246099  17.2454263512 L 2099.79971595  392.372994135 L 2194.60520637  27.9527962437 " id="B.dartline" />
      <path style="stroke-linejoin:miter; stroke-dashoffset:0; stroke:green; stroke-dasharray:24,6; stroke-miterlimit:4; stroke-width:4; fill:none; " transform="" d="M 1789.37007874  -212.598425197 C 1806.32534513  -108.25832431  1864.89933563  30.738821103  1969.07108278  48.6994671636 L 2127.61724594  73.2828885876 L 2154.72137743  73.8273575291 L 2180.4429332  82.3907657008 L 2338.06748442  112.319536412 C 2370.85428552  286.019558301  2403.90447291  461.114964977  2409.4488189  637.795275591 C 2415.94236494  844.723510935  2394.91786231  1051.90177893  2374.01574803  1257.87401575 L 2356.2992126  1612.20472441 C 2329.62518769  2145.68522267  2303.1496063  2630.90551181  1926.67322835  2608.75984252 L 797.244094488  2542.32283465 L 832.677165354  2143.7007874 C 856.575368659  1874.84600023  949.117472046  1615.18394613  974.409448819  1346.45669291 C 996.544144  1111.27555662  950.429837477  872.79546674  974.409448819  637.795275591 C 982.294512408  560.521652413  996.081907593  483.926587738  1009.84251969  407.480314961 C 1016.07680707  455.522271583  1040.37368077  503.319790037  1074.62930757  537.57541684 C 1165.24410098  628.190210247  1354.15000944  665.725458076  1455.79558244  587.685346215 C 1561.65351347  506.411125059  1521.67783392  311.197691223  1471.30943493  187.607946622 C 1425.61108977  75.4771876414  1320.39112981  -13.7157753051  1300.96952629  -133.233335424 L 1789.37007874  -212.598425197 " id="B.seamline" />
      <path style="fill:none;stroke:#008000;stroke-width:4;stroke-linejoin:miter;stroke-miterlimit:4" d="M 1780.3438,-268.125 C 1598.9278,-238.63108 1417.505,-209.179 1236.0938,-179.65625 1243.2189,-139.72841 1247.3896,-98.809033 1262.606,-60.878012 1291.8328,17.090525 1346.5782,81.341472 1389.609,151.51326 1418.2778,196.98237 1435.6925,248.71949 1449.3913,300.19029 1462.6664,353.93201 1471.4296,409.82828 1462.75,465.09375 1457.6679,496.94519 1443.4679,529.8011 1415.2188,547.59375 1378.1299,571.76874 1331.832,576.25326 1288.6562,572.625 1229.4625,566.7532 1170.4437,545.6874 1124.5,507.1875 1092.485,479.79445 1071.0359,440.3578 1065.2469,398.76986 1047.8729,346.53407 1030.499,294.29829 1013.125,242.0625 993.57294,294.22977 973.55032,346.26717 954.29185,398.51548 933.94931,510.94922 914.06449,624.07749 911.75904,738.53005 906.29377,925.44349 932.54318,1112.1274 921.625,1298.8125 912.24575,1448.0032 878.66374,1594.131 846.58164,1739.741 815.62868,1878.7567 785.69577,2018.3599 774.70815,2160.6323 761.83788,2305.4425 748.95416,2450.2515 736.09375,2595.0625 1135.1983,2618.4876 1534.2974,2642.1372 1933.4062,2665.4062 2005.753,2668.5878 2080.1705,2653.1242 2141.5347,2613.5883 2208.3123,2571.4189 2256.2109,2505.161 2288.9195,2434.311 2331.1135,2342.7745 2352.8914,2243.6056 2368.7759,2144.5427 2393.8623,1981.84 2401.9348,1817.1608 2410.5774,1652.9217 2417.357,1521.3061 2423.4866,1389.644 2430.5582,1258.0515 2452.9005,1036.9717 2475.284,814.67835 2463.7558,592.22036 2453.899,414.21875 2419.1486,239.04165 2386.2188,64.1875 2321.7501,51.810856 2257.1096,40.078691 2192.7597,27.240134 2179.8209,23.753214 2167.5536,16.400161 2153.8129,17.522294 2136.9623,18.121089 2120.3953,15.465277 2103.8419,12.653843 2060.2799,5.6936533 2016.5601,-0.45146441 1973.0938,-7.90625 1940.009,-16.649683 1916.2943,-44.57993 1898.5625,-72.28125 1866.8511,-123.39747 1850.0819,-182.28293 1841.6105,-241.51303 1839.6466,-253.38369 1837.6827,-265.25434 1835.7188,-277.125 1817.2604,-274.125 1798.8021,-271.125 1780.3438,-268.125 z" id="B.cuttingline" inkscape:connector-curvature="0" />
      <g id="B.info" transform="">
        <text style="font-size:12; vertical-align:top; fill-opacity:1.0; fill:#000000; text-anchor:start; stroke:none; font-weight:normal; font-style:normal; text-align:right; " transform="" id="B.info.lineSeamly Patterns" y="637.795275591" x="1647.63779528">
Seamly Patterns</text>
        <text style="font-size:12; vertical-align:top; fill-opacity:1.0; fill:#000000; text-anchor:start; stroke:none; font-weight:normal; font-style:normal; text-align:right; " transform="" id="B.info.lineHM_1" y="652.195275591" x="1647.63779528">
HM_1</text>
        <text style="font-size:12; vertical-align:top; fill-opacity:1.0; fill:#000000; text-anchor:start; stroke:none; font-weight:normal; font-style:normal; text-align:right; " transform="" id="B.info.lineSingle Breasted Tuxedo Jacket, circa 1880 to 1900" y="666.595275591" x="1647.63779528">
Single Breasted Tuxedo Jacket, circa 1880 to 1900</text>
        <text style="font-size:12; vertical-align:top; fill-opacity:1.0; fill:#000000; text-anchor:start; stroke:none; font-weight:normal; font-style:normal; text-align:right; " transform="" id="B.info.linePattern Piece B" y="680.995275591" x="1647.63779528">
Pattern Piece B</text>
        <text style="font-size:12; vertical-align:top; fill-opacity:1.0; fill:#000000; text-anchor:start; stroke:none; font-weight:normal; font-style:normal; text-align:right; " transform="" id="B.info.lineCut 2 Fabric" y="695.395275591" x="1647.63779528">
Cut 2 Fabric</text>
        <text style="font-size:12; vertical-align:top; fill-opacity:1.0; fill:#000000; text-anchor:start; stroke:none; font-weight:normal; font-style:normal; text-align:right; " transform="" id="B.info.line " y="709.795275591" x="1647.63779528" />
        <text style="font-size:12; vertical-align:top; fill-opacity:1.0; fill:#000000; text-anchor:start; stroke:none; font-weight:normal; font-style:normal; text-align:right; " transform="" id="B.info.lineDressFormLg" y="724.195275591" x="1647.63779528">
DressFormLg</text>
        <text style="font-size:12; vertical-align:top; fill-opacity:1.0; fill:#000000; text-anchor:start; stroke:none; font-weight:normal; font-style:normal; text-align:right; " transform="" id="B.info.line2015/1/15 20:22" y="738.595275591" x="1647.63779528">
2015/1/15 20:22</text>
      </g>
    </g>
  </g>
  <g inkscape:label="Label-notes" id="notes" inkscape:groupmode="layer" transform="translate(88.582677,88.582677)">
    <g id="document.titleblock">
      <text style="font-size:40; vertical-align:top; fill-opacity:1.0; fill:#000000; text-anchor:right; stroke:none; font-weight:normal; font-style:normal; text-align:right; " transform="" id="company" y="0.0" x="0.0">
Seamly Patterns</text>
      <text style="font-size:40; vertical-align:top; fill-opacity:1.0; fill:#000000; text-anchor:right; stroke:none; font-weight:normal; font-style:normal; text-align:right; " transform="" id="designer" y="44.0" x="0.0">
S.L.Spencer</text>
      <text style="font-size:40; vertical-align:top; fill-opacity:1.0; fill:#000000; text-anchor:right; stroke:none; font-weight:normal; font-style:normal; text-align:right; " transform="" id="pattern_number" y="88.0" x="0.0">
HM_1</text>
      <text style="font-size:40; vertical-align:top; fill-opacity:1.0; fill:#000000; text-anchor:right; stroke:none; font-weight:normal; font-style:normal; text-align:right; " transform="" id="pattern_name" y="132.0" x="0.0">
Single Breasted Tuxedo Jacket, circa 1880 to 1900</text>
      <text style="font-size:40; vertical-align:top; fill-opacity:1.0; fill:#000000; text-anchor:right; stroke:none; font-weight:normal; font-style:normal; text-align:right; " transform="" id="client" y="176.0" x="0.0">
DressFormLg</text>
      <text style="font-size:40; vertical-align:top; fill-opacity:1.0; fill:#000000; text-anchor:right; stroke:none; font-weight:normal; font-style:normal; text-align:right; " transform="" id="date" y="220.0" x="0.0">
2015/1/15 20:22</text>
    </g>
    <g id="document.testgrid">
      <path style="stroke-linejoin:miter; stroke:green; stroke-width:4; stroke-miterlimit:4; fill:none; " d="M 1080.0  0.0 L 1080.0  212.598425197 M 1115.43307087  0.0 L 1115.43307087  212.598425197 M 1150.86614173  0.0 L 1150.86614173  212.598425197 M 1186.2992126  0.0 L 1186.2992126  212.598425197 M 1221.73228346  0.0 L 1221.73228346  212.598425197 M 1257.16535433  0.0 L 1257.16535433  212.598425197 M 1292.5984252  0.0 L 1292.5984252  212.598425197 M 1080.0  0.0 L 1292.5984252  0.0 M 1080.0  35.4330708661 L 1292.5984252  35.4330708661 M 1080.0  70.8661417323 L 1292.5984252  70.8661417323 M 1080.0  106.299212598 L 1292.5984252  106.299212598 M 1080.0  141.732283465 L 1292.5984252  141.732283465 M 1080.0  177.165354331 L 1292.5984252  177.165354331 M 1080.0  212.598425197 L 1292.5984252  212.598425197 M 1469.76377953  0.0 L 1469.76377953  270.0 M 1559.76377953  0.0 L 1559.76377953  270.0 M 1649.76377953  0.0 L 1649.76377953  270.0 M 1739.76377953  0.0 L 1739.76377953  270.0 M 1469.76377953  0.0 L 1739.76377953  0.0 M 1469.76377953  90.0 L 1739.76377953  90.0 M 1469.76377953  180.0 L 1739.76377953  180.0 M 1469.76377953  270.0 L 1739.76377953  270.0 " id="testgrid" />
    </g>
    <g id="document.tuxedo.Tuxedo Back.notes" transform=" translate(58.750000, 580.552283)" />
    <g id="document.tuxedo.Tuxedo Front.notes" transform=" translate(88.582677, 3520.931857)" />
  </g>
  <g inkscape:label="Label-reference" id="reference" inkscape:groupmode="layer" transform="translate(88.582677,88.582677)">
    <g id="document.tuxedo.Tuxedo Back.reference" transform=" translate(58.750000, 580.552283)">
      <circle style="stroke:gray; stroke-width:1; fill:none; " transform="" cy="0" cx="90.4567285987" r="5" id="A.pA.outpoint" d="M 95.456726,0 C 95.456726,2.7614237 93.21815,5 90.456726,5 87.695302,5 85.456726,2.7614237 85.456726,0 85.456726,-2.7614237 87.695302,-5 90.456726,-5 93.21815,-5 95.456726,-2.7614237 95.456726,0 z" />
      <text style="font-size:25; vertical-align:top; fill-opacity:1.0; fill:gray; text-anchor:right; stroke:none; font-weight:normal; font-style:italic; text-align:right; " transform="" id="A.pA.outpoint.text" y="-7" x="97.4567285987">
pA.out</text>
      <circle style="stroke:red; stroke-width:1; fill:red; " transform="" cy="0" cx="0" r="5" id="A.pA" d="M 5,0 C 5,2.7614237 2.7614237,5 0,5 -2.7614237,5 -5,2.7614237 -5,0 -5,-2.7614237 -2.7614237,-5 0,-5 2.7614237,-5 5,-2.7614237 5,0 z" />
      <text style="font-size:30; vertical-align:top; fill-opacity:1.0; fill:darkblue; text-anchor:right; stroke:none; font-weight:normal; font-style:italic; text-align:right; " transform="" id="A.pA.text" y="-7" x="7">
pA</text>
      <circle style="stroke:gray; stroke-width:1; fill:none; " transform="" cy="390.324939624" cx="0" r="5" id="A.pB.inpoint" d="M 5,390.32495 C 5,393.08637 2.7614237,395.32495 0,395.32495 -2.7614237,395.32495 -5,393.08637 -5,390.32495 -5,387.56353 -2.7614237,385.32495 0,385.32495 2.7614237,385.32495 5,387.56353 5,390.32495 z" />
      <text style="font-size:25; vertical-align:top; fill-opacity:1.0; fill:gray; text-anchor:right; stroke:none; font-weight:normal; font-style:italic; text-align:right; " transform="" id="A.pB.inpoint.text" y="383.324939624" x="7">
pB.in</text>
      <circle style="stroke:red; stroke-width:1; fill:red; " transform="" cy="265.748031496" cx="0" r="5" id="A.pB" d="M 5,265.74802 C 5,268.50944 2.7614237,270.74802 0,270.74802 -2.7614237,270.74802 -5,268.50944 -5,265.74802 -5,262.98659 -2.7614237,260.74802 0,260.74802 2.7614237,260.74802 5,262.98659 5,265.74802 z" />
      <text style="font-size:30; vertical-align:top; fill-opacity:1.0; fill:darkblue; text-anchor:right; stroke:none; font-weight:normal; font-style:italic; text-align:right; " transform="" id="A.pB.text" y="258.748031496" x="7">
pB</text>
      <circle style="stroke:red; stroke-width:1; fill:red; " transform="" cy="637.795275591" cx="0" r="5" id="A.pC" d="M 5,637.79529 C 5,640.55671 2.7614237,642.79529 0,642.79529 -2.7614237,642.79529 -5,640.55671 -5,637.79529 -5,635.03386 -2.7614237,632.79529 0,632.79529 2.7614237,632.79529 5,635.03386 5,637.79529 z" />
      <text style="font-size:30; vertical-align:top; fill-opacity:1.0; fill:darkblue; text-anchor:right; stroke:none; font-weight:normal; font-style:italic; text-align:right; " transform="" id="A.pC.text" y="630.795275591" x="7">
pC</text>
      <circle style="stroke:red; stroke-width:1; fill:red; " transform="" cy="1346.45669291" cx="0" r="5" id="A.pD" d="M 5,1346.4567 C 5,1349.2181 2.7614237,1351.4567 0,1351.4567 -2.7614237,1351.4567 -5,1349.2181 -5,1346.4567 -5,1343.6952 -2.7614237,1341.4567 0,1341.4567 2.7614237,1341.4567 5,1343.6952 5,1346.4567 z" />
      <text style="font-size:30; vertical-align:top; fill-opacity:1.0; fill:darkblue; text-anchor:right; stroke:none; font-weight:normal; font-style:italic; text-align:right; " transform="" id="A.pD.text" y="1339.45669291" x="7">
pD</text>
      <circle style="stroke:red; stroke-width:1; fill:red; " transform="" cy="2143.7007874" cx="0" r="5" id="A.pE" d="M 5,2143.7007 C 5,2146.4621 2.7614237,2148.7007 0,2148.7007 -2.7614237,2148.7007 -5,2146.4621 -5,2143.7007 -5,2140.9393 -2.7614237,2138.7007 0,2138.7007 2.7614237,2138.7007 5,2140.9393 5,2143.7007 z" />
      <text style="font-size:30; vertical-align:top; fill-opacity:1.0; fill:darkblue; text-anchor:right; stroke:none; font-weight:normal; font-style:italic; text-align:right; " transform="" id="A.pE.text" y="2136.7007874" x="7">
pE</text>
      <circle style="stroke:red; stroke-width:1; fill:red; " transform="" cy="2542.32283465" cx="0" r="5" id="A.pF" d="M 5,2542.3228 C 5,2545.0842 2.7614237,2547.3228 0,2547.3228 -2.7614237,2547.3228 -5,2545.0842 -5,2542.3228 -5,2539.5613 -2.7614237,2537.3228 0,2537.3228 2.7614237,2537.3228 5,2539.5613 5,2542.3228 z" />
      <text style="font-size:30; vertical-align:top; fill-opacity:1.0; fill:darkblue; text-anchor:right; stroke:none; font-weight:normal; font-style:italic; text-align:right; " transform="" id="A.pF.text" y="2535.32283465" x="7">
pF</text>
      <circle style="stroke:red; stroke-width:1; fill:red; " transform="" cy="-141.732283465" cx="0" r="5" id="A.BSH" d="M 5,-141.73228 C 5,-138.97086 2.7614237,-136.73228 0,-136.73228 -2.7614237,-136.73228 -5,-138.97086 -5,-141.73228 -5,-144.49371 -2.7614237,-146.73228 0,-146.73228 2.7614237,-146.73228 5,-144.49371 5,-141.73228 z" />
      <text style="font-size:30; vertical-align:top; fill-opacity:1.0; fill:darkblue; text-anchor:right; stroke:none; font-weight:normal; font-style:italic; text-align:right; " transform="" id="A.BSH.text" y="-148.732283465" x="7">
BSH</text>
      <circle style="stroke:red; stroke-width:1; fill:red; " transform="" cy="-141.732283465" cx="708.661417323" r="5" id="A.BSW" d="M 713.66144,-141.73228 C 713.66144,-138.97086 711.42286,-136.73228 708.66144,-136.73228 705.90001,-136.73228 703.66144,-138.97086 703.66144,-141.73228 703.66144,-144.49371 705.90001,-146.73228 708.66144,-146.73228 711.42286,-146.73228 713.66144,-144.49371 713.66144,-141.73228 z" />
      <text style="font-size:30; vertical-align:top; fill-opacity:1.0; fill:darkblue; text-anchor:right; stroke:none; font-weight:normal; font-style:italic; text-align:right; " transform="" id="A.BSW.text" y="-148.732283465" x="715.661417323">
BSW</text>
      <circle style="stroke:red; stroke-width:1; fill:red; " transform="" cy="0" cx="708.661417323" r="5" id="A.p1" d="M 713.66144,0 C 713.66144,2.7614237 711.42286,5 708.66144,5 705.90001,5 703.66144,2.7614237 703.66144,0 703.66144,-2.7614237 705.90001,-5 708.66144,-5 711.42286,-5 713.66144,-2.7614237 713.66144,0 z" />
      <text style="font-size:30; vertical-align:top; fill-opacity:1.0; fill:darkblue; text-anchor:right; stroke:none; font-weight:normal; font-style:italic; text-align:right; " transform="" id="A.p1.text" y="-7" x="715.661417323">
p1</text>
      <circle style="stroke:red; stroke-width:1; fill:red; " transform="" cy="637.795275591" cx="708.661417323" r="5" id="A.p3" d="M 713.66144,637.79529 C 713.66144,640.55671 711.42286,642.79529 708.66144,642.79529 705.90001,642.79529 703.66144,640.55671 703.66144,637.79529 703.66144,635.03386 705.90001,632.79529 708.66144,632.79529 711.42286,632.79529 713.66144,635.03386 713.66144,637.79529 z" />
      <text style="font-size:30; vertical-align:top; fill-opacity:1.0; fill:darkblue; text-anchor:right; stroke:none; font-weight:normal; font-style:italic; text-align:right; " transform="" id="A.p3.text" y="630.795275591" x="715.661417323">
p3</text>
      <circle style="stroke:red; stroke-width:1; fill:red; " transform="" cy="1346.45669291" cx="708.661417323" r="5" id="A.p4" d="M 713.66144,1346.4567 C 713.66144,1349.2181 711.42286,1351.4567 708.66144,1351.4567 705.90001,1351.4567 703.66144,1349.2181 703.66144,1346.4567 703.66144,1343.6952 705.90001,1341.4567 708.66144,1341.4567 711.42286,1341.4567 713.66144,1343.6952 713.66144,1346.4567 z" />
      <text style="font-size:30; vertical-align:top; fill-opacity:1.0; fill:darkblue; text-anchor:right; stroke:none; font-weight:normal; font-style:italic; text-align:right; " transform="" id="A.p4.text" y="1339.45669291" x="715.661417323">
p4</text>
      <circle style="stroke:red; stroke-width:1; fill:red; " transform="" cy="2143.7007874" cx="708.661417323" r="5" id="A.p5" d="M 713.66144,2143.7007 C 713.66144,2146.4621 711.42286,2148.7007 708.66144,2148.7007 705.90001,2148.7007 703.66144,2146.4621 703.66144,2143.7007 703.66144,2140.9393 705.90001,2138.7007 708.66144,2138.7007 711.42286,2138.7007 713.66144,2140.9393 713.66144,2143.7007 z" />
      <text style="font-size:30; vertical-align:top; fill-opacity:1.0; fill:darkblue; text-anchor:right; stroke:none; font-weight:normal; font-style:italic; text-align:right; " transform="" id="A.p5.text" y="2136.7007874" x="715.661417323">
p5</text>
      <circle style="stroke:red; stroke-width:1; fill:red; " transform="" cy="2542.32283465" cx="708.661417323" r="5" id="A.p6" d="M 713.66144,2542.3228 C 713.66144,2545.0842 711.42286,2547.3228 708.66144,2547.3228 705.90001,2547.3228 703.66144,2545.0842 703.66144,2542.3228 703.66144,2539.5613 705.90001,2537.3228 708.66144,2537.3228 711.42286,2537.3228 713.66144,2539.5613 713.66144,2542.3228 z" />
      <text style="font-size:30; vertical-align:top; fill-opacity:1.0; fill:darkblue; text-anchor:right; stroke:none; font-weight:normal; font-style:italic; text-align:right; " transform="" id="A.p6.text" y="2535.32283465" x="715.661417323">
p6</text>
      <circle style="stroke:gray; stroke-width:1; fill:none; " transform="" cy="873.190096072" cx="61.95222844" r="5" id="A.p7.inpoint" d="M 66.952229,873.19012 C 66.952229,875.95155 64.713652,878.19012 61.952229,878.19012 59.190805,878.19012 56.952229,875.95155 56.952229,873.19012 56.952229,870.4287 59.190805,868.19012 61.952229,868.19012 64.713652,868.19012 66.952229,870.4287 66.952229,873.19012 z" />
      <text style="font-size:25; vertical-align:top; fill-opacity:1.0; fill:gray; text-anchor:right; stroke:none; font-weight:normal; font-style:italic; text-align:right; " transform="" id="A.p7.inpoint.text" y="866.190096072" x="68.95222844">
p7.in</text>
      <circle style="stroke:gray; stroke-width:1; fill:none; " transform="" cy="514.001477955" cx="21.4866840279" r="5" id="A.p7.outpoint" d="M 26.486685,514.00146 C 26.486685,516.76289 24.248109,519.00146 21.486685,519.00146 18.725261,519.00146 16.486685,516.76289 16.486685,514.00146 16.486685,511.24004 18.725261,509.00146 21.486685,509.00146 24.248109,509.00146 26.486685,511.24004 26.486685,514.00146 z" />
      <text style="font-size:25; vertical-align:top; fill-opacity:1.0; fill:gray; text-anchor:right; stroke:none; font-weight:normal; font-style:italic; text-align:right; " transform="" id="A.p7.outpoint.text" y="507.001477955" x="28.4866840279">
p7.out</text>
      <circle style="stroke:red; stroke-width:1; fill:red; " transform="" cy="637.795275591" cx="35.4330708661" r="5" id="A.p7" d="M 40.433071,637.79529 C 40.433071,640.55671 38.194495,642.79529 35.433071,642.79529 32.671647,642.79529 30.433071,640.55671 30.433071,637.79529 30.433071,635.03386 32.671647,632.79529 35.433071,632.79529 38.194495,632.79529 40.433071,635.03386 40.433071,637.79529 z" />
      <text style="font-size:30; vertical-align:top; fill-opacity:1.0; fill:darkblue; text-anchor:right; stroke:none; font-weight:normal; font-style:italic; text-align:right; " transform="" id="A.p7.text" y="630.795275591" x="42.4330708661">
p7</text>
      <circle style="stroke:gray; stroke-width:1; fill:none; " transform="" cy="1612.35232122" cx="88.5826771654" r="5" id="A.p8.inpoint" d="M 93.58268,1612.3523 C 93.58268,1615.1137 91.344103,1617.3523 88.58268,1617.3523 85.821256,1617.3523 83.58268,1615.1137 83.58268,1612.3523 83.58268,1609.5909 85.821256,1607.3523 88.58268,1607.3523 91.344103,1607.3523 93.58268,1609.5909 93.58268,1612.3523 z" />
      <text style="font-size:25; vertical-align:top; fill-opacity:1.0; fill:gray; text-anchor:right; stroke:none; font-weight:normal; font-style:italic; text-align:right; " transform="" id="A.p8.inpoint.text" y="1605.35232122" x="95.5826771654">
p8.in</text>
      <circle style="stroke:gray; stroke-width:1; fill:none; " transform="" cy="1109.57278205" cx="88.5826771654" r="5" id="A.p8.outpoint" d="M 93.58268,1109.5728 C 93.58268,1112.3342 91.344103,1114.5728 88.58268,1114.5728 85.821256,1114.5728 83.58268,1112.3342 83.58268,1109.5728 83.58268,1106.8113 85.821256,1104.5728 88.58268,1104.5728 91.344103,1104.5728 93.58268,1106.8113 93.58268,1109.5728 z" />
      <text style="font-size:25; vertical-align:top; fill-opacity:1.0; fill:gray; text-anchor:right; stroke:none; font-weight:normal; font-style:italic; text-align:right; " transform="" id="A.p8.outpoint.text" y="1102.57278205" x="95.5826771654">
p8.out</text>
      <circle style="stroke:red; stroke-width:1; fill:red; " transform="" cy="1346.45669291" cx="88.5826771654" r="5" id="A.p8" d="M 93.58268,1346.4567 C 93.58268,1349.2181 91.344103,1351.4567 88.58268,1351.4567 85.821256,1351.4567 83.58268,1349.2181 83.58268,1346.4567 83.58268,1343.6952 85.821256,1341.4567 88.58268,1341.4567 91.344103,1341.4567 93.58268,1343.6952 93.58268,1346.4567 z" />
      <text style="font-size:30; vertical-align:top; fill-opacity:1.0; fill:darkblue; text-anchor:right; stroke:none; font-weight:normal; font-style:italic; text-align:right; " transform="" id="A.p8.text" y="1339.45669291" x="95.5826771654">
p8</text>
      <circle style="stroke:gray; stroke-width:1; fill:none; " transform="" cy="1877.87078803" cx="67.915207335" r="5" id="A.p9.outpoint" d="M 72.915207,1877.8707 C 72.915207,1880.6322 70.676631,1882.8707 67.915207,1882.8707 65.153783,1882.8707 62.915207,1880.6322 62.915207,1877.8707 62.915207,1875.1093 65.153783,1872.8707 67.915207,1872.8707 70.676631,1872.8707 72.915207,1875.1093 72.915207,1877.8707 z" />
      <text style="font-size:25; vertical-align:top; fill-opacity:1.0; fill:gray; text-anchor:right; stroke:none; font-weight:normal; font-style:italic; text-align:right; " transform="" id="A.p9.outpoint.text" y="1870.87078803" x="74.915207335">
p9.out</text>
      <circle style="stroke:red; stroke-width:1; fill:red; " transform="" cy="2143.7007874" cx="62.0078740157" r="5" id="A.p9" d="M 67.007874,2143.7007 C 67.007874,2146.4621 64.769297,2148.7007 62.007874,2148.7007 59.24645,2148.7007 57.007874,2146.4621 57.007874,2143.7007 57.007874,2140.9393 59.24645,2138.7007 62.007874,2138.7007 64.769297,2138.7007 67.007874,2140.9393 67.007874,2143.7007 z" />
      <text style="font-size:30; vertical-align:top; fill-opacity:1.0; fill:darkblue; text-anchor:right; stroke:none; font-weight:normal; font-style:italic; text-align:right; " transform="" id="A.p9.text" y="2136.7007874" x="69.0078740157">
p9</text>
      <circle style="stroke:red; stroke-width:1; fill:red; " transform="" cy="2542.32283465" cx="53.1496062992" r="5" id="A.p10" d="M 58.149605,2542.3228 C 58.149605,2545.0842 55.911029,2547.3228 53.149605,2547.3228 50.388181,2547.3228 48.149605,2545.0842 48.149605,2542.3228 48.149605,2539.5613 50.388181,2537.3228 53.149605,2537.3228 55.911029,2537.3228 58.149605,2539.5613 58.149605,2542.3228 z" />
      <text style="font-size:30; vertical-align:top; fill-opacity:1.0; fill:darkblue; text-anchor:right; stroke:none; font-weight:normal; font-style:italic; text-align:right; " transform="" id="A.p10.text" y="2535.32283465" x="60.1496062992">
p10</text>
      <circle style="stroke:red; stroke-width:1; fill:red; " transform="" cy="0" cx="301.181102362" r="5" id="A.p11" d="M 306.18109,0 C 306.18109,2.7614237 303.94252,5 301.18109,5 298.41967,5 296.18109,2.7614237 296.18109,0 296.18109,-2.7614237 298.41967,-5 301.18109,-5 303.94252,-5 306.18109,-2.7614237 306.18109,0 z" />
      <text style="font-size:30; vertical-align:top; fill-opacity:1.0; fill:darkblue; text-anchor:right; stroke:none; font-weight:normal; font-style:italic; text-align:right; " transform="" id="A.p11.text" y="-7" x="308.181102362">
p11</text>
      <circle style="stroke:red; stroke-width:1; fill:red; " transform="" cy="-6.39540004341" cx="708.661417323" r="5" id="A.p2b" d="M 713.66144,-6.3954 C 713.66144,-3.6339763 711.42286,-1.3954 708.66144,-1.3954 705.90001,-1.3954 703.66144,-3.6339763 703.66144,-6.3954 703.66144,-9.1568238 705.90001,-11.3954 708.66144,-11.3954 711.42286,-11.3954 713.66144,-9.1568238 713.66144,-6.3954 z" />
      <text style="font-size:30; vertical-align:top; fill-opacity:1.0; fill:darkblue; text-anchor:right; stroke:none; font-weight:normal; font-style:italic; text-align:right; " transform="" id="A.p2b.text" y="-13.3954000434" x="715.661417323">
p2b</text>
      <circle style="stroke:gray; stroke-width:1; fill:none; " transform="" cy="53.8570310723" cx="728.18902456" r="5" id="A.p13b.outpoint" d="M 733.18903,53.857033 C 733.18903,56.618457 730.95045,58.857033 728.18903,58.857033 725.4276,58.857033 723.18903,56.618457 723.18903,53.857033 723.18903,51.095609 725.4276,48.857033 728.18903,48.857033 730.95045,48.857033 733.18903,51.095609 733.18903,53.857033 z" />
      <text style="font-size:25; vertical-align:top; fill-opacity:1.0; fill:gray; text-anchor:right; stroke:none; font-weight:normal; font-style:italic; text-align:right; " transform="" id="A.p13b.outpoint.text" y="46.8570310723" x="735.18902456">
p13b.out</text>
      <circle style="stroke:red; stroke-width:1; fill:red; " transform="" cy="-6.39540004341" cx="744.094488189" r="5" id="A.p13b" d="M 749.09448,-6.3954 C 749.09448,-3.6339763 746.85591,-1.3954 744.09448,-1.3954 741.33306,-1.3954 739.09448,-3.6339763 739.09448,-6.3954 739.09448,-9.1568238 741.33306,-11.3954 744.09448,-11.3954 746.85591,-11.3954 749.09448,-9.1568238 749.09448,-6.3954 z" />
      <text style="font-size:30; vertical-align:top; fill-opacity:1.0; fill:darkblue; text-anchor:right; stroke:none; font-weight:normal; font-style:italic; text-align:right; " transform="" id="A.p13b.text" y="-13.3954000434" x="751.094488189">
p13b</text>
      <circle style="stroke:gray; stroke-width:1; fill:none; " transform="" cy="-54.2716160406" cx="208.328898861" r="5" id="A.p12b.inpoint" d="M 213.3289,-54.271618 C 213.3289,-51.510194 211.09033,-49.271618 208.3289,-49.271618 205.56748,-49.271618 203.3289,-51.510194 203.3289,-54.271618 203.3289,-57.033042 205.56748,-59.271618 208.3289,-59.271618 211.09033,-59.271618 213.3289,-57.033042 213.3289,-54.271618 z" />
      <text style="font-size:25; vertical-align:top; fill-opacity:1.0; fill:gray; text-anchor:right; stroke:none; font-weight:normal; font-style:italic; text-align:right; " transform="" id="A.p12b.inpoint.text" y="-61.2716160406" x="215.328898861">
p12b.in</text>
      <circle style="stroke:red; stroke-width:1; fill:red; " transform="" cy="-141.732283465" cx="231.416804841" r="5" id="A.p12b" d="M 236.41681,-141.73228 C 236.41681,-138.97086 234.17823,-136.73228 231.41681,-136.73228 228.65539,-136.73228 226.41681,-138.97086 226.41681,-141.73228 226.41681,-144.49371 228.65539,-146.73228 231.41681,-146.73228 234.17823,-146.73228 236.41681,-144.49371 236.41681,-141.73228 z" />
      <text style="font-size:30; vertical-align:top; fill-opacity:1.0; fill:darkblue; text-anchor:right; stroke:none; font-weight:normal; font-style:italic; text-align:right; " transform="" id="A.p12b.text" y="-148.732283465" x="238.416804841">
p12b</text>
      <circle style="stroke:gray; stroke-width:1; fill:none; " transform="" cy="331.347013137" cx="698.781784675" r="5" id="A.p14.inpoint" d="M 703.7818,331.34702 C 703.7818,334.10844 701.54322,336.34702 698.7818,336.34702 696.02038,336.34702 693.7818,334.10844 693.7818,331.34702 693.7818,328.58559 696.02038,326.34702 698.7818,326.34702 701.54322,326.34702 703.7818,328.58559 703.7818,331.34702 z" />
      <text style="font-size:25; vertical-align:top; fill-opacity:1.0; fill:gray; text-anchor:right; stroke:none; font-weight:normal; font-style:italic; text-align:right; " transform="" id="A.p14.inpoint.text" y="324.347013137" x="705.781784675">
p14.in</text>
      <circle style="stroke:red; stroke-width:1; fill:red; " transform="" cy="407.480314961" cx="708.661417323" r="5" id="A.p14" d="M 713.66144,407.48032 C 713.66144,410.24174 711.42286,412.48032 708.66144,412.48032 705.90001,412.48032 703.66144,410.24174 703.66144,407.48032 703.66144,404.71889 705.90001,402.48032 708.66144,402.48032 711.42286,402.48032 713.66144,404.71889 713.66144,407.48032 z" />
      <text style="font-size:30; vertical-align:top; fill-opacity:1.0; fill:darkblue; text-anchor:right; stroke:none; font-weight:normal; font-style:italic; text-align:right; " transform="" id="A.p14.text" y="400.480314961" x="715.661417323">
p14</text>
      <circle style="stroke:gray; stroke-width:1; fill:none; " transform="" cy="115.367067561" cx="716.680830076" r="5" id="A.p15.inpoint" d="M 721.68085,115.36707 C 721.68085,118.12849 719.44227,120.36707 716.68085,120.36707 713.91942,120.36707 711.68085,118.12849 711.68085,115.36707 711.68085,112.60564 713.91942,110.36707 716.68085,110.36707 719.44227,110.36707 721.68085,112.60564 721.68085,115.36707 z" />
      <text style="font-size:25; vertical-align:top; fill-opacity:1.0; fill:gray; text-anchor:right; stroke:none; font-weight:normal; font-style:italic; text-align:right; " transform="" id="A.p15.inpoint.text" y="108.367067561" x="723.680830076">
p15.in</text>
      <circle style="stroke:gray; stroke-width:1; fill:none; " transform="" cy="253.298656154" cx="698.781784675" r="5" id="A.p15.outpoint" d="M 703.7818,253.29866 C 703.7818,256.06008 701.54322,258.29866 698.7818,258.29866 696.02038,258.29866 693.7818,256.06008 693.7818,253.29866 693.7818,250.53724 696.02038,248.29866 698.7818,248.29866 701.54322,248.29866 703.7818,250.53724 703.7818,253.29866 z" />
      <text style="font-size:25; vertical-align:top; fill-opacity:1.0; fill:gray; text-anchor:right; stroke:none; font-weight:normal; font-style:italic; text-align:right; " transform="" id="A.p15.outpoint.text" y="246.298656154" x="705.781784675">
p15.out</text>
      <circle style="stroke:red; stroke-width:1; fill:red; " transform="" cy="177.165354331" cx="708.661417323" r="5" id="A.p15" d="M 713.66144,177.16536 C 713.66144,179.92678 711.42286,182.16536 708.66144,182.16536 705.90001,182.16536 703.66144,179.92678 703.66144,177.16536 703.66144,174.40394 705.90001,172.16536 708.66144,172.16536 711.42286,172.16536 713.66144,174.40394 713.66144,177.16536 z" />
      <text style="font-size:30; vertical-align:top; fill-opacity:1.0; fill:darkblue; text-anchor:right; stroke:none; font-weight:normal; font-style:italic; text-align:right; " transform="" id="A.p15.text" y="170.165354331" x="715.661417323">
p15</text>
      <circle style="stroke:gray; stroke-width:1; fill:none; " transform="" cy="872.433369185" cx="637.130178211" r="5" id="A.p16.outpoint" d="M 642.13019,872.43335 C 642.13019,875.19477 639.89161,877.43335 637.13019,877.43335 634.36876,877.43335 632.13019,875.19477 632.13019,872.43335 632.13019,869.67193 634.36876,867.43335 637.13019,867.43335 639.89161,867.43335 642.13019,869.67193 642.13019,872.43335 z" />
      <text style="font-size:25; vertical-align:top; fill-opacity:1.0; fill:gray; text-anchor:right; stroke:none; font-weight:normal; font-style:italic; text-align:right; " transform="" id="A.p16.outpoint.text" y="865.433369185" x="644.130178211">
p16.out</text>
      <circle style="stroke:red; stroke-width:1; fill:red; " transform="" cy="637.795275591" cx="673.228346457" r="5" id="A.p16" d="M 678.22833,637.79529 C 678.22833,640.55671 675.98976,642.79529 673.22833,642.79529 670.46691,642.79529 668.22833,640.55671 668.22833,637.79529 668.22833,635.03386 670.46691,632.79529 673.22833,632.79529 675.98976,632.79529 678.22833,635.03386 678.22833,637.79529 z" />
      <text style="font-size:30; vertical-align:top; fill-opacity:1.0; fill:darkblue; text-anchor:right; stroke:none; font-weight:normal; font-style:italic; text-align:right; " transform="" id="A.p16.text" y="630.795275591" x="680.228346457">
p16</text>
      <circle style="stroke:gray; stroke-width:1; fill:none; " transform="" cy="1109.05805619" cx="602.362204724" r="5" id="A.p17.inpoint" d="M 607.36218,1109.0581 C 607.36218,1111.8195 605.12361,1114.0581 602.36218,1114.0581 599.60076,1114.0581 597.36218,1111.8195 597.36218,1109.0581 597.36218,1106.2967 599.60076,1104.0581 602.36218,1104.0581 605.12361,1104.0581 607.36218,1106.2967 607.36218,1109.0581 z" />
      <text style="font-size:25; vertical-align:top; fill-opacity:1.0; fill:gray; text-anchor:right; stroke:none; font-weight:normal; font-style:italic; text-align:right; " transform="" id="A.p17.inpoint.text" y="1102.05805619" x="609.362204724">
p17.in</text>
      <circle style="stroke:gray; stroke-width:1; fill:none; " transform="" cy="1612.61451344" cx="602.362204724" r="5" id="A.p17.outpoint" d="M 607.36218,1612.6145 C 607.36218,1615.3759 605.12361,1617.6145 602.36218,1617.6145 599.60076,1617.6145 597.36218,1615.3759 597.36218,1612.6145 597.36218,1609.8531 599.60076,1607.6145 602.36218,1607.6145 605.12361,1607.6145 607.36218,1609.8531 607.36218,1612.6145 z" />
      <text style="font-size:25; vertical-align:top; fill-opacity:1.0; fill:gray; text-anchor:right; stroke:none; font-weight:normal; font-style:italic; text-align:right; " transform="" id="A.p17.outpoint.text" y="1605.61451344" x="609.362204724">
p17.out</text>
      <circle style="stroke:red; stroke-width:1; fill:red; " transform="" cy="1346.45669291" cx="602.362204724" r="5" id="A.p17" d="M 607.36218,1346.4567 C 607.36218,1349.2181 605.12361,1351.4567 602.36218,1351.4567 599.60076,1351.4567 597.36218,1349.2181 597.36218,1346.4567 597.36218,1343.6952 599.60076,1341.4567 602.36218,1341.4567 605.12361,1341.4567 607.36218,1343.6952 607.36218,1346.4567 z" />
      <text style="font-size:30; vertical-align:top; fill-opacity:1.0; fill:darkblue; text-anchor:right; stroke:none; font-weight:normal; font-style:italic; text-align:right; " transform="" id="A.p17.text" y="1339.45669291" x="609.362204724">
p17</text>
      <circle style="stroke:gray; stroke-width:1; fill:none; " transform="" cy="1877.60866052" cx="640.740384932" r="5" id="A.p18.inpoint" d="M 645.74036,1877.6086 C 645.74036,1880.3701 643.50178,1882.6086 640.74036,1882.6086 637.97893,1882.6086 635.74036,1880.3701 635.74036,1877.6086 635.74036,1874.8472 637.97893,1872.6086 640.74036,1872.6086 643.50178,1872.6086 645.74036,1874.8472 645.74036,1877.6086 z" />
      <text style="font-size:25; vertical-align:top; fill-opacity:1.0; fill:gray; text-anchor:right; stroke:none; font-weight:normal; font-style:italic; text-align:right; " transform="" id="A.p18.inpoint.text" y="1870.60866052" x="647.740384932">
p18.in</text>
      <circle style="stroke:red; stroke-width:1; fill:red; " transform="" cy="2143.7007874" cx="646.653543307" r="5" id="A.p18" d="M 651.65356,2143.7007 C 651.65356,2146.4621 649.41499,2148.7007 646.65356,2148.7007 643.89214,2148.7007 641.65356,2146.4621 641.65356,2143.7007 641.65356,2140.9393 643.89214,2138.7007 646.65356,2138.7007 649.41499,2138.7007 651.65356,2140.9393 651.65356,2143.7007 z" />
      <text style="font-size:30; vertical-align:top; fill-opacity:1.0; fill:darkblue; text-anchor:right; stroke:none; font-weight:normal; font-style:italic; text-align:right; " transform="" id="A.p18.text" y="2136.7007874" x="653.653543307">
p18</text>
      <circle style="stroke:red; stroke-width:1; fill:red; " transform="" cy="2542.32283465" cx="655.511811024" r="5" id="A.p19" d="M 660.51184,2542.3228 C 660.51184,2545.0842 658.27326,2547.3228 655.51184,2547.3228 652.75042,2547.3228 650.51184,2545.0842 650.51184,2542.3228 650.51184,2539.5613 652.75042,2537.3228 655.51184,2537.3228 658.27326,2537.3228 660.51184,2539.5613 660.51184,2542.3228 z" />
      <text style="font-size:30; vertical-align:top; fill-opacity:1.0; fill:darkblue; text-anchor:right; stroke:none; font-weight:normal; font-style:italic; text-align:right; " transform="" id="A.p19.text" y="2535.32283465" x="662.511811024">
p19</text>
      <path style="stroke-linejoin:miter; stroke-dashoffset:0; stroke:gray; stroke-miterlimit:4; stroke-dasharray:6,6; stroke-width:2; fill:none; " transform="" d="M 0  -141.732283465 L 708.661417323  -141.732283465 L 708.661417323  2542.32283465 L 0  2542.32283465 L 0  -141.732283465 " id="A.gridline" />
    </g>
    <g id="document.tuxedo.Tuxedo Front.reference" transform=" translate(88.582677, 3520.931857)">
      <circle style="stroke:red; stroke-width:1; fill:red; " transform="" cy="-212.598425197" cx="708.661417323" r="5" id="B.FSH" d="M 713.66144,-212.59842 C 713.66144,-209.837 711.42286,-207.59842 708.66144,-207.59842 705.90001,-207.59842 703.66144,-209.837 703.66144,-212.59842 703.66144,-215.35984 705.90001,-217.59842 708.66144,-217.59842 711.42286,-217.59842 713.66144,-215.35984 713.66144,-212.59842 z" />
      <text style="font-size:30; vertical-align:top; fill-opacity:1.0; fill:darkblue; text-anchor:right; stroke:none; font-weight:normal; font-style:italic; text-align:right; " transform="" id="B.FSH.text" y="-219.598425197" x="715.661417323">
FSH</text>
      <circle style="stroke:gray; stroke-width:1; fill:none; " transform="" cy="872.79546674" cx="950.429837477" r="5" id="B.p20.inpoint" d="M 955.42981,872.79547 C 955.42981,875.55689 953.19123,877.79547 950.42981,877.79547 947.66839,877.79547 945.42981,875.55689 945.42981,872.79547 945.42981,870.03405 947.66839,867.79547 950.42981,867.79547 953.19123,867.79547 955.42981,870.03405 955.42981,872.79547 z" />
      <text style="font-size:25; vertical-align:top; fill-opacity:1.0; fill:gray; text-anchor:right; stroke:none; font-weight:normal; font-style:italic; text-align:right; " transform="" id="B.p20.inpoint.text" y="865.79546674" x="957.429837477">
p20.in</text>
      <circle style="stroke:gray; stroke-width:1; fill:none; " transform="" cy="560.521652413" cx="982.294512408" r="5" id="B.p20.outpoint" d="M 987.29449,560.52167 C 987.29449,563.28309 985.05592,565.52167 982.29449,565.52167 979.53307,565.52167 977.29449,563.28309 977.29449,560.52167 977.29449,557.76024 979.53307,555.52167 982.29449,555.52167 985.05592,555.52167 987.29449,557.76024 987.29449,560.52167 z" />
      <text style="font-size:25; vertical-align:top; fill-opacity:1.0; fill:gray; text-anchor:right; stroke:none; font-weight:normal; font-style:italic; text-align:right; " transform="" id="B.p20.outpoint.text" y="553.521652413" x="989.294512408">
p20.out</text>
      <circle style="stroke:red; stroke-width:1; fill:red; " transform="" cy="637.795275591" cx="974.409448819" r="5" id="B.p20" d="M 979.40942,637.79529 C 979.40942,640.55671 977.17085,642.79529 974.40942,642.79529 971.648,642.79529 969.40942,640.55671 969.40942,637.79529 969.40942,635.03386 971.648,632.79529 974.40942,632.79529 977.17085,632.79529 979.40942,635.03386 979.40942,637.79529 z" />
      <text style="font-size:30; vertical-align:top; fill-opacity:1.0; fill:darkblue; text-anchor:right; stroke:none; font-weight:normal; font-style:italic; text-align:right; " transform="" id="B.p20.text" y="630.795275591" x="981.409448819">
p20</text>
      <circle style="stroke:gray; stroke-width:1; fill:none; " transform="" cy="483.926587738" cx="996.081907593" r="5" id="B.p21.inpoint" d="M 1001.0819,483.92657 C 1001.0819,486.688 998.84333,488.92657 996.08191,488.92657 993.32049,488.92657 991.08191,486.688 991.08191,483.92657 991.08191,481.16515 993.32049,478.92657 996.08191,478.92657 998.84333,478.92657 1001.0819,481.16515 1001.0819,483.92657 z" />
      <text style="font-size:25; vertical-align:top; fill-opacity:1.0; fill:gray; text-anchor:right; stroke:none; font-weight:normal; font-style:italic; text-align:right; " transform="" id="B.p21.inpoint.text" y="476.926587738" x="1003.08190759">
p21.in</text>
      <circle style="stroke:gray; stroke-width:1; fill:none; " transform="" cy="455.522271583" cx="1016.07680707" r="5" id="B.p21.outpoint" d="M 1021.0768,455.52228 C 1021.0768,458.2837 1018.8382,460.52228 1016.0768,460.52228 1013.3154,460.52228 1011.0768,458.2837 1011.0768,455.52228 1011.0768,452.76085 1013.3154,450.52228 1016.0768,450.52228 1018.8382,450.52228 1021.0768,452.76085 1021.0768,455.52228 z" />
      <text style="font-size:25; vertical-align:top; fill-opacity:1.0; fill:gray; text-anchor:right; stroke:none; font-weight:normal; font-style:italic; text-align:right; " transform="" id="B.p21.outpoint.text" y="448.522271583" x="1023.07680707">
p21.out</text>
      <circle style="stroke:red; stroke-width:1; fill:red; " transform="" cy="407.480314961" cx="1009.84251969" r="5" id="B.p21" d="M 1014.8425,407.48032 C 1014.8425,410.24174 1012.604,412.48032 1009.8425,412.48032 1007.0811,412.48032 1004.8425,410.24174 1004.8425,407.48032 1004.8425,404.71889 1007.0811,402.48032 1009.8425,402.48032 1012.604,402.48032 1014.8425,404.71889 1014.8425,407.48032 z" />
      <text style="font-size:30; vertical-align:top; fill-opacity:1.0; fill:darkblue; text-anchor:right; stroke:none; font-weight:normal; font-style:italic; text-align:right; " transform="" id="B.p21.text" y="400.480314961" x="1016.84251969">
p21</text>
      <circle style="stroke:gray; stroke-width:1; fill:none; " transform="" cy="1615.18394613" cx="949.117472046" r="5" id="B.p22.inpoint" d="M 954.11749,1615.184 C 954.11749,1617.9454 951.87892,1620.184 949.11749,1620.184 946.35607,1620.184 944.11749,1617.9454 944.11749,1615.184 944.11749,1612.4225 946.35607,1610.184 949.11749,1610.184 951.87892,1610.184 954.11749,1612.4225 954.11749,1615.184 z" />
      <text style="font-size:25; vertical-align:top; fill-opacity:1.0; fill:gray; text-anchor:right; stroke:none; font-weight:normal; font-style:italic; text-align:right; " transform="" id="B.p22.inpoint.text" y="1608.18394613" x="956.117472046">
p22.in</text>
      <circle style="stroke:gray; stroke-width:1; fill:none; " transform="" cy="1111.27555662" cx="996.544144" r="5" id="B.p22.outpoint" d="M 1001.5441,1111.2755 C 1001.5441,1114.0369 999.30555,1116.2755 996.54413,1116.2755 993.7827,1116.2755 991.54413,1114.0369 991.54413,1111.2755 991.54413,1108.5141 993.7827,1106.2755 996.54413,1106.2755 999.30555,1106.2755 1001.5441,1108.5141 1001.5441,1111.2755 z" />
      <text style="font-size:25; vertical-align:top; fill-opacity:1.0; fill:gray; text-anchor:right; stroke:none; font-weight:normal; font-style:italic; text-align:right; " transform="" id="B.p22.outpoint.text" y="1104.27555662" x="1003.544144">
p22.out</text>
      <circle style="stroke:red; stroke-width:1; fill:red; " transform="" cy="1346.45669291" cx="974.409448819" r="5" id="B.p22" d="M 979.40942,1346.4567 C 979.40942,1349.2181 977.17085,1351.4567 974.40942,1351.4567 971.648,1351.4567 969.40942,1349.2181 969.40942,1346.4567 969.40942,1343.6952 971.648,1341.4567 974.40942,1341.4567 977.17085,1341.4567 979.40942,1343.6952 979.40942,1346.4567 z" />
      <text style="font-size:30; vertical-align:top; fill-opacity:1.0; fill:darkblue; text-anchor:right; stroke:none; font-weight:normal; font-style:italic; text-align:right; " transform="" id="B.p22.text" y="1339.45669291" x="981.409448819">
p22</text>
      <circle style="stroke:gray; stroke-width:1; fill:none; " transform="" cy="1874.84600023" cx="856.575368659" r="5" id="B.p23.outpoint" d="M 861.57538,1874.8459 C 861.57538,1877.6074 859.3368,1879.8459 856.57538,1879.8459 853.81395,1879.8459 851.57538,1877.6074 851.57538,1874.8459 851.57538,1872.0845 853.81395,1869.8459 856.57538,1869.8459 859.3368,1869.8459 861.57538,1872.0845 861.57538,1874.8459 z" />
      <text style="font-size:25; vertical-align:top; fill-opacity:1.0; fill:gray; text-anchor:right; stroke:none; font-weight:normal; font-style:italic; text-align:right; " transform="" id="B.p23.outpoint.text" y="1867.84600023" x="863.575368659">
p23.out</text>
      <circle style="stroke:red; stroke-width:1; fill:red; " transform="" cy="2143.7007874" cx="832.677165354" r="5" id="B.p23" d="M 837.67719,2143.7007 C 837.67719,2146.4621 835.43861,2148.7007 832.67719,2148.7007 829.91576,2148.7007 827.67719,2146.4621 827.67719,2143.7007 827.67719,2140.9393 829.91576,2138.7007 832.67719,2138.7007 835.43861,2138.7007 837.67719,2140.9393 837.67719,2143.7007 z" />
      <text style="font-size:30; vertical-align:top; fill-opacity:1.0; fill:darkblue; text-anchor:right; stroke:none; font-weight:normal; font-style:italic; text-align:right; " transform="" id="B.p23.text" y="2136.7007874" x="839.677165354">
p23</text>
      <circle style="stroke:red; stroke-width:1; fill:red; " transform="" cy="2542.32283465" cx="797.244094488" r="5" id="B.p24" d="M 802.24408,2542.3228 C 802.24408,2545.0842 800.0055,2547.3228 797.24408,2547.3228 794.48266,2547.3228 792.24408,2545.0842 792.24408,2542.3228 792.24408,2539.5613 794.48266,2537.3228 797.24408,2537.3228 800.0055,2537.3228 802.24408,2539.5613 802.24408,2542.3228 z" />
      <text style="font-size:30; vertical-align:top; fill-opacity:1.0; fill:darkblue; text-anchor:right; stroke:none; font-weight:normal; font-style:italic; text-align:right; " transform="" id="B.p24.text" y="2535.32283465" x="804.244094488">
p24</text>
      <circle style="stroke:red; stroke-width:1; fill:red; " transform="" cy="637.795275591" cx="1505.90551181" r="5" id="B.p25" d="M 1510.9055,637.79529 C 1510.9055,640.55671 1508.6669,642.79529 1505.9055,642.79529 1503.1441,642.79529 1500.9055,640.55671 1500.9055,637.79529 1500.9055,635.03386 1503.1441,632.79529 1505.9055,632.79529 1508.6669,632.79529 1510.9055,635.03386 1510.9055,637.79529 z" />
      <text style="font-size:30; vertical-align:top; fill-opacity:1.0; fill:darkblue; text-anchor:right; stroke:none; font-weight:normal; font-style:italic; text-align:right; " transform="" id="B.p25.text" y="630.795275591" x="1512.90551181">
p25</text>
      <circle style="stroke:red; stroke-width:1; fill:red; " transform="" cy="-212.598425197" cx="1505.90551181" r="5" id="B.p26" d="M 1510.9055,-212.59842 C 1510.9055,-209.837 1508.6669,-207.59842 1505.9055,-207.59842 1503.1441,-207.59842 1500.9055,-209.837 1500.9055,-212.59842 1500.9055,-215.35984 1503.1441,-217.59842 1505.9055,-217.59842 1508.6669,-217.59842 1510.9055,-215.35984 1510.9055,-212.59842 z" />
      <text style="font-size:30; vertical-align:top; fill-opacity:1.0; fill:darkblue; text-anchor:right; stroke:none; font-weight:normal; font-style:italic; text-align:right; " transform="" id="B.p26.text" y="-219.598425197" x="1512.90551181">
p26</text>
      <circle style="stroke:gray; stroke-width:1; fill:none; " transform="" cy="-108.25832431" cx="1806.32534513" r="5" id="B.p27.outpoint" d="M 1811.3253,-108.25832 C 1811.3253,-105.4969 1809.0867,-103.25832 1806.3253,-103.25832 1803.5639,-103.25832 1801.3253,-105.4969 1801.3253,-108.25832 1801.3253,-111.01975 1803.5639,-113.25832 1806.3253,-113.25832 1809.0867,-113.25832 1811.3253,-111.01975 1811.3253,-108.25832 z" />
      <text style="font-size:25; vertical-align:top; fill-opacity:1.0; fill:gray; text-anchor:right; stroke:none; font-weight:normal; font-style:italic; text-align:right; " transform="" id="B.p27.outpoint.text" y="-115.25832431" x="1813.32534513">
p27.out</text>
      <circle style="stroke:red; stroke-width:1; fill:red; " transform="" cy="-212.598425197" cx="1789.37007874" r="5" id="B.p27" d="M 1794.3701,-212.59842 C 1794.3701,-209.837 1792.1315,-207.59842 1789.3701,-207.59842 1786.6087,-207.59842 1784.3701,-209.837 1784.3701,-212.59842 1784.3701,-215.35984 1786.6087,-217.59842 1789.3701,-217.59842 1792.1315,-217.59842 1794.3701,-215.35984 1794.3701,-212.59842 z" />
      <text style="font-size:30; vertical-align:top; fill-opacity:1.0; fill:darkblue; text-anchor:right; stroke:none; font-weight:normal; font-style:italic; text-align:right; " transform="" id="B.p27.text" y="-219.598425197" x="1796.37007874">
p27</text>
      <circle style="stroke:red; stroke-width:1; fill:red; " transform="" cy="-166.535433071" cx="1505.90551181" r="5" id="B.p28" d="M 1510.9055,-166.53543 C 1510.9055,-163.77401 1508.6669,-161.53543 1505.9055,-161.53543 1503.1441,-161.53543 1500.9055,-163.77401 1500.9055,-166.53543 1500.9055,-169.29685 1503.1441,-171.53543 1505.9055,-171.53543 1508.6669,-171.53543 1510.9055,-169.29685 1510.9055,-166.53543 z" />
      <text style="font-size:30; vertical-align:top; fill-opacity:1.0; fill:darkblue; text-anchor:right; stroke:none; font-weight:normal; font-style:italic; text-align:right; " transform="" id="B.p28.text" y="-173.535433071" x="1512.90551181">
p28</text>
      <circle style="stroke:gray; stroke-width:1; fill:none; " transform="" cy="-13.7157753051" cx="1320.39112981" r="5" id="B.p29.inpoint" d="M 1325.3911,-13.715775 C 1325.3911,-10.954352 1323.1525,-8.7157755 1320.3911,-8.7157755 1317.6297,-8.7157755 1315.3911,-10.954352 1315.3911,-13.715775 1315.3911,-16.477199 1317.6297,-18.715775 1320.3911,-18.715775 1323.1525,-18.715775 1325.3911,-16.477199 1325.3911,-13.715775 z" />
      <text style="font-size:25; vertical-align:top; fill-opacity:1.0; fill:gray; text-anchor:right; stroke:none; font-weight:normal; font-style:italic; text-align:right; " transform="" id="B.p29.inpoint.text" y="-20.7157753051" x="1327.39112981">
p29.in</text>
      <circle style="stroke:red; stroke-width:1; fill:red; " transform="" cy="-133.233335424" cx="1300.96952629" r="5" id="B.p29" d="M 1305.9695,-133.23334 C 1305.9695,-130.47191 1303.7309,-128.23334 1300.9695,-128.23334 1298.2081,-128.23334 1295.9695,-130.47191 1295.9695,-133.23334 1295.9695,-135.99476 1298.2081,-138.23334 1300.9695,-138.23334 1303.7309,-138.23334 1305.9695,-135.99476 1305.9695,-133.23334 z" />
      <text style="font-size:30; vertical-align:top; fill-opacity:1.0; fill:darkblue; text-anchor:right; stroke:none; font-weight:normal; font-style:italic; text-align:right; " transform="" id="B.p29.text" y="-140.233335424" x="1307.96952629">
p29</text>
      <circle style="stroke:red; stroke-width:1; fill:red; " transform="" cy="549.212598425" cx="1505.90551181" r="5" id="B.p30" d="M 1510.9055,549.21259 C 1510.9055,551.97401 1508.6669,554.21259 1505.9055,554.21259 1503.1441,554.21259 1500.9055,551.97401 1500.9055,549.21259 1500.9055,546.45116 1503.1441,544.21259 1505.9055,544.21259 1508.6669,544.21259 1510.9055,546.45116 1510.9055,549.21259 z" />
      <text style="font-size:30; vertical-align:top; fill-opacity:1.0; fill:darkblue; text-anchor:right; stroke:none; font-weight:normal; font-style:italic; text-align:right; " transform="" id="B.p30.text" y="542.212598425" x="1512.90551181">
p30</text>
      <circle style="stroke:red; stroke-width:1; fill:red; " transform="" cy="207.9896315" cx="1403.43751905" r="5" id="B.pG" d="M 1408.4375,207.98962 C 1408.4375,210.75105 1406.1989,212.98962 1403.4375,212.98962 1400.6761,212.98962 1398.4375,210.75105 1398.4375,207.98962 1398.4375,205.2282 1400.6761,202.98962 1403.4375,202.98962 1406.1989,202.98962 1408.4375,205.2282 1408.4375,207.98962 z" />
      <text style="font-size:30; vertical-align:top; fill-opacity:1.0; fill:darkblue; text-anchor:right; stroke:none; font-weight:normal; font-style:italic; text-align:right; " transform="" id="B.pG.text" y="200.9896315" x="1410.43751905">
pG</text>
      <circle style="stroke:gray; stroke-width:1; fill:none; " transform="" cy="311.197691223" cx="1521.67783392" r="5" id="B.pH.inpoint" d="M 1526.6779,311.19769 C 1526.6779,313.95912 1524.4393,316.19769 1521.6779,316.19769 1518.9164,316.19769 1516.6779,313.95912 1516.6779,311.19769 1516.6779,308.43627 1518.9164,306.19769 1521.6779,306.19769 1524.4393,306.19769 1526.6779,308.43627 1526.6779,311.19769 z" />
      <text style="font-size:25; vertical-align:top; fill-opacity:1.0; fill:gray; text-anchor:right; stroke:none; font-weight:normal; font-style:italic; text-align:right; " transform="" id="B.pH.inpoint.text" y="304.197691223" x="1528.67783392">
pH.in</text>
      <circle style="stroke:gray; stroke-width:1; fill:none; " transform="" cy="75.4771876414" cx="1425.61108977" r="5" id="B.pH.outpoint" d="M 1430.6111,75.477188 C 1430.6111,78.238612 1428.3725,80.477188 1425.6111,80.477188 1422.8497,80.477188 1420.6111,78.238612 1420.6111,75.477188 1420.6111,72.715764 1422.8497,70.477188 1425.6111,70.477188 1428.3725,70.477188 1430.6111,72.715764 1430.6111,75.477188 z" />
      <text style="font-size:25; vertical-align:top; fill-opacity:1.0; fill:gray; text-anchor:right; stroke:none; font-weight:normal; font-style:italic; text-align:right; " transform="" id="B.pH.outpoint.text" y="68.4771876414" x="1432.61108977">
pH.out</text>
      <circle style="stroke:red; stroke-width:1; fill:red; " transform="" cy="187.607946622" cx="1471.30943493" r="5" id="B.pH" d="M 1476.3094,187.60794 C 1476.3094,190.36936 1474.0709,192.60794 1471.3094,192.60794 1468.548,192.60794 1466.3094,190.36936 1466.3094,187.60794 1466.3094,184.84652 1468.548,182.60794 1471.3094,182.60794 1474.0709,182.60794 1476.3094,184.84652 1476.3094,187.60794 z" />
      <text style="font-size:30; vertical-align:top; fill-opacity:1.0; fill:darkblue; text-anchor:right; stroke:none; font-weight:normal; font-style:italic; text-align:right; " transform="" id="B.pH.text" y="180.607946622" x="1478.30943493">
pH</text>
      <circle style="stroke:gray; stroke-width:1; fill:none; " transform="" cy="665.725458076" cx="1354.15000944" r="5" id="B.pI.inpoint" d="M 1359.15,665.72546 C 1359.15,668.48689 1356.9114,670.72546 1354.15,670.72546 1351.3886,670.72546 1349.15,668.48689 1349.15,665.72546 1349.15,662.96404 1351.3886,660.72546 1354.15,660.72546 1356.9114,660.72546 1359.15,662.96404 1359.15,665.72546 z" />
      <text style="font-size:25; vertical-align:top; fill-opacity:1.0; fill:gray; text-anchor:right; stroke:none; font-weight:normal; font-style:italic; text-align:right; " transform="" id="B.pI.inpoint.text" y="658.725458076" x="1361.15000944">
pI.in</text>
      <circle style="stroke:gray; stroke-width:1; fill:none; " transform="" cy="506.411125059" cx="1561.65351347" r="5" id="B.pI.outpoint" d="M 1566.6536,506.41113 C 1566.6536,509.17256 1564.415,511.41113 1561.6536,511.41113 1558.8921,511.41113 1556.6536,509.17256 1556.6536,506.41113 1556.6536,503.64971 1558.8921,501.41113 1561.6536,501.41113 1564.415,501.41113 1566.6536,503.64971 1566.6536,506.41113 z" />
      <text style="font-size:25; vertical-align:top; fill-opacity:1.0; fill:gray; text-anchor:right; stroke:none; font-weight:normal; font-style:italic; text-align:right; " transform="" id="B.pI.outpoint.text" y="499.411125059" x="1568.65351347">
pI.out</text>
      <circle style="stroke:red; stroke-width:1; fill:red; " transform="" cy="587.685346215" cx="1455.79558244" r="5" id="B.pI" d="M 1460.7955,587.68536 C 1460.7955,590.44679 1458.557,592.68536 1455.7955,592.68536 1453.0341,592.68536 1450.7955,590.44679 1450.7955,587.68536 1450.7955,584.92394 1453.0341,582.68536 1455.7955,582.68536 1458.557,582.68536 1460.7955,584.92394 1460.7955,587.68536 z" />
      <text style="font-size:30; vertical-align:top; fill-opacity:1.0; fill:darkblue; text-anchor:right; stroke:none; font-weight:normal; font-style:italic; text-align:right; " transform="" id="B.pI.text" y="580.685346215" x="1462.79558244">
pI</text>
      <circle style="stroke:gray; stroke-width:1; fill:none; " transform="" cy="503.319790037" cx="1040.37368077" r="5" id="B.pJ.inpoint" d="M 1045.3737,503.31979 C 1045.3737,506.08122 1043.1351,508.31979 1040.3737,508.31979 1037.6122,508.31979 1035.3737,506.08122 1035.3737,503.31979 1035.3737,500.55837 1037.6122,498.31979 1040.3737,498.31979 1043.1351,498.31979 1045.3737,500.55837 1045.3737,503.31979 z" />
      <text style="font-size:25; vertical-align:top; fill-opacity:1.0; fill:gray; text-anchor:right; stroke:none; font-weight:normal; font-style:italic; text-align:right; " transform="" id="B.pJ.inpoint.text" y="496.319790037" x="1047.37368077">
pJ.in</text>
      <circle style="stroke:gray; stroke-width:1; fill:none; " transform="" cy="628.190210247" cx="1165.24410098" r="5" id="B.pJ.outpoint" d="M 1170.2441,628.19019 C 1170.2441,630.95161 1168.0056,633.19019 1165.2441,633.19019 1162.4827,633.19019 1160.2441,630.95161 1160.2441,628.19019 1160.2441,625.42876 1162.4827,623.19019 1165.2441,623.19019 1168.0056,623.19019 1170.2441,625.42876 1170.2441,628.19019 z" />
      <text style="font-size:25; vertical-align:top; fill-opacity:1.0; fill:gray; text-anchor:right; stroke:none; font-weight:normal; font-style:italic; text-align:right; " transform="" id="B.pJ.outpoint.text" y="621.190210247" x="1172.24410098">
pJ.out</text>
      <circle style="stroke:red; stroke-width:1; fill:red; " transform="" cy="537.57541684" cx="1074.62930757" r="5" id="B.pJ" d="M 1079.6293,537.57544 C 1079.6293,540.33686 1077.3907,542.57544 1074.6293,542.57544 1071.8678,542.57544 1069.6293,540.33686 1069.6293,537.57544 1069.6293,534.81402 1071.8678,532.57544 1074.6293,532.57544 1077.3907,532.57544 1079.6293,534.81402 1079.6293,537.57544 z" />
      <text style="font-size:30; vertical-align:top; fill-opacity:1.0; fill:darkblue; text-anchor:right; stroke:none; font-weight:normal; font-style:italic; text-align:right; " transform="" id="B.pJ.text" y="530.57541684" x="1081.62930757">
pJ</text>
      <circle style="stroke:red; stroke-width:1; fill:red; " transform="" cy="637.795275591" cx="2303.1496063" r="5" id="B.p31" d="M 2308.1497,637.79529 C 2308.1497,640.55671 2305.9111,642.79529 2303.1497,642.79529 2300.3882,642.79529 2298.1497,640.55671 2298.1497,637.79529 2298.1497,635.03386 2300.3882,632.79529 2303.1497,632.79529 2305.9111,632.79529 2308.1497,635.03386 2308.1497,637.79529 z" />
      <text style="font-size:30; vertical-align:top; fill-opacity:1.0; fill:darkblue; text-anchor:right; stroke:none; font-weight:normal; font-style:italic; text-align:right; " transform="" id="B.p31.text" y="630.795275591" x="2310.1496063">
p31</text>
      <circle style="stroke:red; stroke-width:1; fill:red; " transform="" cy="1346.45669291" cx="2303.1496063" r="5" id="B.p32" d="M 2308.1497,1346.4567 C 2308.1497,1349.2181 2305.9111,1351.4567 2303.1497,1351.4567 2300.3882,1351.4567 2298.1497,1349.2181 2298.1497,1346.4567 2298.1497,1343.6952 2300.3882,1341.4567 2303.1497,1341.4567 2305.9111,1341.4567 2308.1497,1343.6952 2308.1497,1346.4567 z" />
      <text style="font-size:30; vertical-align:top; fill-opacity:1.0; fill:darkblue; text-anchor:right; stroke:none; font-weight:normal; font-style:italic; text-align:right; " transform="" id="B.p32.text" y="1339.45669291" x="2310.1496063">
p32</text>
      <circle style="stroke:red; stroke-width:1; fill:red; " transform="" cy="2143.7007874" cx="2303.1496063" r="5" id="B.p33" d="M 2308.1497,2143.7007 C 2308.1497,2146.4621 2305.9111,2148.7007 2303.1497,2148.7007 2300.3882,2148.7007 2298.1497,2146.4621 2298.1497,2143.7007 2298.1497,2140.9393 2300.3882,2138.7007 2303.1497,2138.7007 2305.9111,2138.7007 2308.1497,2140.9393 2308.1497,2143.7007 z" />
      <text style="font-size:30; vertical-align:top; fill-opacity:1.0; fill:darkblue; text-anchor:right; stroke:none; font-weight:normal; font-style:italic; text-align:right; " transform="" id="B.p33.text" y="2136.7007874" x="2310.1496063">
p33</text>
      <circle style="stroke:red; stroke-width:1; fill:red; " transform="" cy="2542.32283465" cx="2303.1496063" r="5" id="B.p34" d="M 2308.1497,2542.3228 C 2308.1497,2545.0842 2305.9111,2547.3228 2303.1497,2547.3228 2300.3882,2547.3228 2298.1497,2545.0842 2298.1497,2542.3228 2298.1497,2539.5613 2300.3882,2537.3228 2303.1497,2537.3228 2305.9111,2537.3228 2308.1497,2539.5613 2308.1497,2542.3228 z" />
      <text style="font-size:30; vertical-align:top; fill-opacity:1.0; fill:darkblue; text-anchor:right; stroke:none; font-weight:normal; font-style:italic; text-align:right; " transform="" id="B.p34.text" y="2535.32283465" x="2310.1496063">
p34</text>
      <circle style="stroke:red; stroke-width:1; fill:red; " transform="" cy="2630.90551181" cx="2303.1496063" r="5" id="B.p35" d="M 2308.1497,2630.9055 C 2308.1497,2633.6669 2305.9111,2635.9055 2303.1497,2635.9055 2300.3882,2635.9055 2298.1497,2633.6669 2298.1497,2630.9055 2298.1497,2628.1441 2300.3882,2625.9055 2303.1497,2625.9055 2305.9111,2625.9055 2308.1497,2628.1441 2308.1497,2630.9055 z" />
      <text style="font-size:30; vertical-align:top; fill-opacity:1.0; fill:darkblue; text-anchor:right; stroke:none; font-weight:normal; font-style:italic; text-align:right; " transform="" id="B.p35.text" y="2623.90551181" x="2310.1496063">
p35</text>
      <circle style="stroke:red; stroke-width:1; fill:red; " transform="" cy="1257.87401575" cx="2303.1496063" r="5" id="B.pK" d="M 2308.1497,1257.874 C 2308.1497,1260.6354 2305.9111,1262.874 2303.1497,1262.874 2300.3882,1262.874 2298.1497,1260.6354 2298.1497,1257.874 2298.1497,1255.1126 2300.3882,1252.874 2303.1497,1252.874 2305.9111,1252.874 2308.1497,1255.1126 2308.1497,1257.874 z" />
      <text style="font-size:30; vertical-align:top; fill-opacity:1.0; fill:darkblue; text-anchor:right; stroke:none; font-weight:normal; font-style:italic; text-align:right; " transform="" id="B.pK.text" y="1250.87401575" x="2310.1496063">
pK</text>
      <circle style="stroke:red; stroke-width:1; fill:red; " transform="" cy="1612.20472441" cx="2303.1496063" r="5" id="B.pL" d="M 2308.1497,1612.2047 C 2308.1497,1614.9661 2305.9111,1617.2047 2303.1497,1617.2047 2300.3882,1617.2047 2298.1497,1614.9661 2298.1497,1612.2047 2298.1497,1609.4433 2300.3882,1607.2047 2303.1497,1607.2047 2305.9111,1607.2047 2308.1497,1609.4433 2308.1497,1612.2047 z" />
      <text style="font-size:30; vertical-align:top; fill-opacity:1.0; fill:darkblue; text-anchor:right; stroke:none; font-weight:normal; font-style:italic; text-align:right; " transform="" id="B.pL.text" y="1605.20472441" x="2310.1496063">
pL</text>
      <circle style="stroke:gray; stroke-width:1; fill:none; " transform="" cy="1051.90177893" cx="2394.91786231" r="5" id="B.p36.inpoint" d="M 2399.918,1051.9017 C 2399.918,1054.6632 2397.6794,1056.9017 2394.918,1056.9017 2392.1565,1056.9017 2389.918,1054.6632 2389.918,1051.9017 2389.918,1049.1403 2392.1565,1046.9017 2394.918,1046.9017 2397.6794,1046.9017 2399.918,1049.1403 2399.918,1051.9017 z" />
      <text style="font-size:25; vertical-align:top; fill-opacity:1.0; fill:gray; text-anchor:right; stroke:none; font-weight:normal; font-style:italic; text-align:right; " transform="" id="B.p36.inpoint.text" y="1044.90177893" x="2401.91786231">
p36.in</text>
      <circle style="stroke:red; stroke-width:1; fill:red; " transform="" cy="1257.87401575" cx="2374.01574803" r="5" id="B.p36" d="M 2379.0159,1257.874 C 2379.0159,1260.6354 2376.7773,1262.874 2374.0159,1262.874 2371.2544,1262.874 2369.0159,1260.6354 2369.0159,1257.874 2369.0159,1255.1126 2371.2544,1252.874 2374.0159,1252.874 2376.7773,1252.874 2379.0159,1255.1126 2379.0159,1257.874 z" />
      <text style="font-size:30; vertical-align:top; fill-opacity:1.0; fill:darkblue; text-anchor:right; stroke:none; font-weight:normal; font-style:italic; text-align:right; " transform="" id="B.p36.text" y="1250.87401575" x="2381.01574803">
p36</text>
      <circle style="stroke:red; stroke-width:1; fill:red; " transform="" cy="106.299212598" cx="2303.1496063" r="5" id="B.p37b" d="M 2308.1497,106.29921 C 2308.1497,109.06063 2305.9111,111.29921 2303.1497,111.29921 2300.3882,111.29921 2298.1497,109.06063 2298.1497,106.29921 2298.1497,103.53779 2300.3882,101.29921 2303.1497,101.29921 2305.9111,101.29921 2308.1497,103.53779 2308.1497,106.29921 z" />
      <text style="font-size:30; vertical-align:top; fill-opacity:1.0; fill:darkblue; text-anchor:right; stroke:none; font-weight:normal; font-style:italic; text-align:right; " transform="" id="B.p37b.text" y="99.2992125984" x="2310.1496063">
p37b</text>
      <circle style="stroke:red; stroke-width:1; fill:red; " transform="" cy="17.7165354331" cx="1789.37007874" r="5" id="B.p38" d="M 1794.3701,17.716536 C 1794.3701,20.477959 1792.1315,22.716536 1789.3701,22.716536 1786.6087,22.716536 1784.3701,20.477959 1784.3701,17.716536 1784.3701,14.955112 1786.6087,12.716536 1789.3701,12.716536 1792.1315,12.716536 1794.3701,14.955112 1794.3701,17.716536 z" />
      <text style="font-size:30; vertical-align:top; fill-opacity:1.0; fill:darkblue; text-anchor:right; stroke:none; font-weight:normal; font-style:italic; text-align:right; " transform="" id="B.p38.text" y="10.7165354331" x="1796.37007874">
p38</text>
      <circle style="stroke:red; stroke-width:1; fill:red; " transform="" cy="-44.9208762862" cx="1852.00749046" r="5" id="B.p39" d="M 1857.0074,-44.920876 C 1857.0074,-42.159452 1854.7689,-39.920876 1852.0074,-39.920876 1849.246,-39.920876 1847.0074,-42.159452 1847.0074,-44.920876 1847.0074,-47.682299 1849.246,-49.920876 1852.0074,-49.920876 1854.7689,-49.920876 1857.0074,-47.682299 1857.0074,-44.920876 z" />
      <text style="font-size:30; vertical-align:top; fill-opacity:1.0; fill:darkblue; text-anchor:right; stroke:none; font-weight:normal; font-style:italic; text-align:right; " transform="" id="B.p39.text" y="-51.9208762862" x="1859.00749046">
p39</text>
      <circle style="stroke:red; stroke-width:1; fill:red; " transform="" cy="-226.806738429" cx="1876.80585248" r="5" id="B.p40" d="M 1881.8059,-226.80673 C 1881.8059,-224.04531 1879.5673,-221.80673 1876.8059,-221.80673 1874.0445,-221.80673 1871.8059,-224.04531 1871.8059,-226.80673 1871.8059,-229.56816 1874.0445,-231.80673 1876.8059,-231.80673 1879.5673,-231.80673 1881.8059,-229.56816 1881.8059,-226.80673 z" />
      <text style="font-size:30; vertical-align:top; fill-opacity:1.0; fill:darkblue; text-anchor:right; stroke:none; font-weight:normal; font-style:italic; text-align:right; " transform="" id="B.p40.text" y="-233.806738429" x="1883.80585248">
p40</text>
      <circle style="stroke:gray; stroke-width:1; fill:none; " transform="" cy="30.738821103" cx="1864.89933563" r="5" id="B.p41.inpoint" d="M 1869.8993,30.738821 C 1869.8993,33.500245 1867.6607,35.738821 1864.8993,35.738821 1862.1379,35.738821 1859.8993,33.500245 1859.8993,30.738821 1859.8993,27.977397 1862.1379,25.738821 1864.8993,25.738821 1867.6607,25.738821 1869.8993,27.977397 1869.8993,30.738821 z" />
      <text style="font-size:25; vertical-align:top; fill-opacity:1.0; fill:gray; text-anchor:right; stroke:none; font-weight:normal; font-style:italic; text-align:right; " transform="" id="B.p41.inpoint.text" y="23.738821103" x="1871.89933563">
p41.in</text>
      <circle style="stroke:red; stroke-width:1; fill:red; " transform="" cy="48.6994671636" cx="1969.07108278" r="5" id="B.p41" d="M 1974.071,48.699467 C 1974.071,51.46089 1971.8325,53.699467 1969.071,53.699467 1966.3096,53.699467 1964.071,51.46089 1964.071,48.699467 1964.071,45.938043 1966.3096,43.699467 1969.071,43.699467 1971.8325,43.699467 1974.071,45.938043 1974.071,48.699467 z" />
      <text style="font-size:30; vertical-align:top; fill-opacity:1.0; fill:darkblue; text-anchor:right; stroke:none; font-weight:normal; font-style:italic; text-align:right; " transform="" id="B.p41.text" y="41.6994671636" x="1976.07108278">
p41</text>
      <circle style="stroke:gray; stroke-width:1; fill:none; " transform="" cy="286.019558301" cx="2370.85428552" r="5" id="B.p42.outpoint" d="M 2375.8542,286.01956 C 2375.8542,288.78099 2373.6157,291.01956 2370.8542,291.01956 2368.0928,291.01956 2365.8542,288.78099 2365.8542,286.01956 2365.8542,283.25814 2368.0928,281.01956 2370.8542,281.01956 2373.6157,281.01956 2375.8542,283.25814 2375.8542,286.01956 z" />
      <text style="font-size:25; vertical-align:top; fill-opacity:1.0; fill:gray; text-anchor:right; stroke:none; font-weight:normal; font-style:italic; text-align:right; " transform="" id="B.p42.outpoint.text" y="279.019558301" x="2377.85428552">
p42.out</text>
      <circle style="stroke:red; stroke-width:1; fill:red; " transform="" cy="112.319536412" cx="2338.06748442" r="5" id="B.p42" d="M 2343.0674,112.31953 C 2343.0674,115.08096 2340.8288,117.31953 2338.0674,117.31953 2335.306,117.31953 2333.0674,115.08096 2333.0674,112.31953 2333.0674,109.55811 2335.306,107.31953 2338.0674,107.31953 2340.8288,107.31953 2343.0674,109.55811 2343.0674,112.31953 z" />
      <text style="font-size:30; vertical-align:top; fill-opacity:1.0; fill:darkblue; text-anchor:right; stroke:none; font-weight:normal; font-style:italic; text-align:right; " transform="" id="B.p42.text" y="105.319536412" x="2345.06748442">
p42</text>
      <circle style="stroke:gray; stroke-width:1; fill:none; " transform="" cy="461.114964977" cx="2403.90447291" r="5" id="B.p43.inpoint" d="M 2408.9045,461.11496 C 2408.9045,463.87638 2406.666,466.11496 2403.9045,466.11496 2401.1431,466.11496 2398.9045,463.87638 2398.9045,461.11496 2398.9045,458.35354 2401.1431,456.11496 2403.9045,456.11496 2406.666,456.11496 2408.9045,458.35354 2408.9045,461.11496 z" />
      <text style="font-size:25; vertical-align:top; fill-opacity:1.0; fill:gray; text-anchor:right; stroke:none; font-weight:normal; font-style:italic; text-align:right; " transform="" id="B.p43.inpoint.text" y="454.114964977" x="2410.90447291">
p43.in</text>
      <circle style="stroke:gray; stroke-width:1; fill:none; " transform="" cy="844.723510935" cx="2415.94236494" r="5" id="B.p43.outpoint" d="M 2420.9424,844.72351 C 2420.9424,847.48493 2418.7038,849.72351 2415.9424,849.72351 2413.181,849.72351 2410.9424,847.48493 2410.9424,844.72351 2410.9424,841.96209 2413.181,839.72351 2415.9424,839.72351 2418.7038,839.72351 2420.9424,841.96209 2420.9424,844.72351 z" />
      <text style="font-size:25; vertical-align:top; fill-opacity:1.0; fill:gray; text-anchor:right; stroke:none; font-weight:normal; font-style:italic; text-align:right; " transform="" id="B.p43.outpoint.text" y="837.723510935" x="2422.94236494">
p43.out</text>
      <circle style="stroke:red; stroke-width:1; fill:red; " transform="" cy="637.795275591" cx="2409.4488189" r="5" id="B.p43" d="M 2414.4487,637.79529 C 2414.4487,640.55671 2412.2102,642.79529 2409.4487,642.79529 2406.6873,642.79529 2404.4487,640.55671 2404.4487,637.79529 2404.4487,635.03386 2406.6873,632.79529 2409.4487,632.79529 2412.2102,632.79529 2414.4487,635.03386 2414.4487,637.79529 z" />
      <text style="font-size:30; vertical-align:top; fill-opacity:1.0; fill:darkblue; text-anchor:right; stroke:none; font-weight:normal; font-style:italic; text-align:right; " transform="" id="B.p43.text" y="630.795275591" x="2416.4488189">
p43</text>
      <circle style="stroke:red; stroke-width:1; fill:red; " transform="" cy="80.5095017877" cx="2153.5692836" r="5" id="B.p44" d="M 2158.5693,80.509499 C 2158.5693,83.270922 2156.3308,85.509499 2153.5693,85.509499 2150.8079,85.509499 2148.5693,83.270922 2148.5693,80.509499 2148.5693,77.748075 2150.8079,75.509499 2153.5693,75.509499 2156.3308,75.509499 2158.5693,77.748075 2158.5693,80.509499 z" />
      <text style="font-size:30; vertical-align:top; fill-opacity:1.0; fill:darkblue; text-anchor:right; stroke:none; font-weight:normal; font-style:italic; text-align:right; " transform="" id="B.p44.text" y="73.5095017877" x="2160.5692836">
p44</text>
      <circle style="stroke:gray; stroke-width:1; fill:none; " transform="" cy="2145.68522267" cx="2329.62518769" r="5" id="B.p45.outpoint" d="M 2334.6252,2145.6853 C 2334.6252,2148.4467 2332.3867,2150.6853 2329.6252,2150.6853 2326.8638,2150.6853 2324.6252,2148.4467 2324.6252,2145.6853 2324.6252,2142.9239 2326.8638,2140.6853 2329.6252,2140.6853 2332.3867,2140.6853 2334.6252,2142.9239 2334.6252,2145.6853 z" />
      <text style="font-size:25; vertical-align:top; fill-opacity:1.0; fill:gray; text-anchor:right; stroke:none; font-weight:normal; font-style:italic; text-align:right; " transform="" id="B.p45.outpoint.text" y="2138.68522267" x="2336.62518769">
p45.out</text>
      <circle style="stroke:red; stroke-width:1; fill:red; " transform="" cy="1612.20472441" cx="2356.2992126" r="5" id="B.p45" d="M 2361.2993,1612.2047 C 2361.2993,1614.9661 2359.0607,1617.2047 2356.2993,1617.2047 2353.5379,1617.2047 2351.2993,1614.9661 2351.2993,1612.2047 2351.2993,1609.4433 2353.5379,1607.2047 2356.2993,1607.2047 2359.0607,1607.2047 2361.2993,1609.4433 2361.2993,1612.2047 z" />
      <text style="font-size:30; vertical-align:top; fill-opacity:1.0; fill:darkblue; text-anchor:right; stroke:none; font-weight:normal; font-style:italic; text-align:right; " transform="" id="B.p45.text" y="1605.20472441" x="2363.2992126">
p45</text>
      <circle style="stroke:red; stroke-width:1; fill:red; " transform="" cy="2143.7007874" cx="2267.71653543" r="5" id="B.p46" d="M 2272.7166,2143.7007 C 2272.7166,2146.4621 2270.478,2148.7007 2267.7166,2148.7007 2264.9551,2148.7007 2262.7166,2146.4621 2262.7166,2143.7007 2262.7166,2140.9393 2264.9551,2138.7007 2267.7166,2138.7007 2270.478,2138.7007 2272.7166,2140.9393 2272.7166,2143.7007 z" />
      <text style="font-size:30; vertical-align:top; fill-opacity:1.0; fill:darkblue; text-anchor:right; stroke:none; font-weight:normal; font-style:italic; text-align:right; " transform="" id="B.p46.text" y="2136.7007874" x="2274.71653543">
p46</text>
      <circle style="stroke:red; stroke-width:1; fill:red; " transform="" cy="2542.32283465" cx="2125.98425197" r="5" id="B.p47" d="M 2130.9841,2542.3228 C 2130.9841,2545.0842 2128.7456,2547.3228 2125.9841,2547.3228 2123.2227,2547.3228 2120.9841,2545.0842 2120.9841,2542.3228 2120.9841,2539.5613 2123.2227,2537.3228 2125.9841,2537.3228 2128.7456,2537.3228 2130.9841,2539.5613 2130.9841,2542.3228 z" />
      <text style="font-size:30; vertical-align:top; fill-opacity:1.0; fill:darkblue; text-anchor:right; stroke:none; font-weight:normal; font-style:italic; text-align:right; " transform="" id="B.p47.text" y="2535.32283465" x="2132.98425197">
p47</text>
      <circle style="stroke:gray; stroke-width:1; fill:none; " transform="" cy="2630.90551181" cx="2303.1496063" r="5" id="B.p48.inpoint" d="M 2308.1497,2630.9055 C 2308.1497,2633.6669 2305.9111,2635.9055 2303.1497,2635.9055 2300.3882,2635.9055 2298.1497,2633.6669 2298.1497,2630.9055 2298.1497,2628.1441 2300.3882,2625.9055 2303.1497,2625.9055 2305.9111,2625.9055 2308.1497,2628.1441 2308.1497,2630.9055 z" />
      <text style="font-size:25; vertical-align:top; fill-opacity:1.0; fill:gray; text-anchor:right; stroke:none; font-weight:normal; font-style:italic; text-align:right; " transform="" id="B.p48.inpoint.text" y="2623.90551181" x="2310.1496063">
p48.in</text>
      <circle style="stroke:red; stroke-width:1; fill:red; " transform="" cy="2608.75984252" cx="1926.67322835" r="5" id="B.p48" d="M 1931.6732,2608.7598 C 1931.6732,2611.5212 1929.4346,2613.7598 1926.6732,2613.7598 1923.9118,2613.7598 1921.6732,2611.5212 1921.6732,2608.7598 1921.6732,2605.9983 1923.9118,2603.7598 1926.6732,2603.7598 1929.4346,2603.7598 1931.6732,2605.9983 1931.6732,2608.7598 z" />
      <text style="font-size:30; vertical-align:top; fill-opacity:1.0; fill:darkblue; text-anchor:right; stroke:none; font-weight:normal; font-style:italic; text-align:right; " transform="" id="B.p48.text" y="2601.75984252" x="1933.67322835">
p48</text>
      <circle style="stroke:red; stroke-width:1; fill:red; " transform="" cy="392.372994135" cx="2099.79971595" r="5" id="B.BD1" d="M 2104.7998,392.37299 C 2104.7998,395.13441 2102.5612,397.37299 2099.7998,397.37299 2097.0384,397.37299 2094.7998,395.13441 2094.7998,392.37299 2094.7998,389.61156 2097.0384,387.37299 2099.7998,387.37299 2102.5612,387.37299 2104.7998,389.61156 2104.7998,392.37299 z" />
      <text style="font-size:30; vertical-align:top; fill-opacity:1.0; fill:darkblue; text-anchor:right; stroke:none; font-weight:normal; font-style:italic; text-align:right; " transform="" id="B.BD1.text" y="385.372994135" x="2106.79971595">
BD1</text>
      <circle style="stroke:red; stroke-width:1; fill:red; " transform="" cy="73.2828885876" cx="2127.61724594" r="5" id="B.BD1.i" d="M 2132.6172,73.28289 C 2132.6172,76.044314 2130.3786,78.28289 2127.6172,78.28289 2124.8558,78.28289 2122.6172,76.044314 2122.6172,73.28289 2122.6172,70.521467 2124.8558,68.28289 2127.6172,68.28289 2130.3786,68.28289 2132.6172,70.521467 2132.6172,73.28289 z" />
      <text style="font-size:30; vertical-align:top; fill-opacity:1.0; fill:darkblue; text-anchor:right; stroke:none; font-weight:normal; font-style:italic; text-align:right; " transform="" id="B.BD1.i.text" y="66.2828885876" x="2134.61724594">
BD1.i</text>
      <circle style="stroke:red; stroke-width:1; fill:red; " transform="" cy="82.3907657008" cx="2180.4429332" r="5" id="B.BD1.o" d="M 2185.4429,82.390762 C 2185.4429,85.152186 2183.2043,87.390762 2180.4429,87.390762 2177.6814,87.390762 2175.4429,85.152186 2175.4429,82.390762 2175.4429,79.629339 2177.6814,77.390762 2180.4429,77.390762 2183.2043,77.390762 2185.4429,79.629339 2185.4429,82.390762 z" />
      <text style="font-size:30; vertical-align:top; fill-opacity:1.0; fill:darkblue; text-anchor:right; stroke:none; font-weight:normal; font-style:italic; text-align:right; " transform="" id="B.BD1.o.text" y="75.3907657008" x="2187.4429332">
BD1.o</text>
      <circle style="stroke:red; stroke-width:1; fill:red; " transform="" cy="1612.20472441" cx="1505.90551181" r="5" id="B.pM" d="M 1510.9055,1612.2047 C 1510.9055,1614.9661 1508.6669,1617.2047 1505.9055,1617.2047 1503.1441,1617.2047 1500.9055,1614.9661 1500.9055,1612.2047 1500.9055,1609.4433 1503.1441,1607.2047 1505.9055,1607.2047 1508.6669,1607.2047 1510.9055,1609.4433 1510.9055,1612.2047 z" />
      <text style="font-size:30; vertical-align:top; fill-opacity:1.0; fill:darkblue; text-anchor:right; stroke:none; font-weight:normal; font-style:italic; text-align:right; " transform="" id="B.pM.text" y="1605.20472441" x="1512.90551181">
pM</text>
      <circle style="stroke:red; stroke-width:1; fill:red; " transform="" cy="1596.59946267" cx="1240.61606225" r="5" id="B.pN" d="M 1245.6161,1596.5995 C 1245.6161,1599.3609 1243.3775,1601.5995 1240.6161,1601.5995 1237.8547,1601.5995 1235.6161,1599.3609 1235.6161,1596.5995 1235.6161,1593.8381 1237.8547,1591.5995 1240.6161,1591.5995 1243.3775,1591.5995 1245.6161,1593.8381 1245.6161,1596.5995 z" />
      <text style="font-size:30; vertical-align:top; fill-opacity:1.0; fill:darkblue; text-anchor:right; stroke:none; font-weight:normal; font-style:italic; text-align:right; " transform="" id="B.pN.text" y="1589.59946267" x="1247.61606225">
pN</text>
      <circle style="stroke:gray; stroke-width:1; fill:none; " transform="" cy="1786.98365589" cx="1761.83180433" r="5" id="B.pO.outpoint" d="M 1766.8318,1786.9836 C 1766.8318,1789.7451 1764.5932,1791.9836 1761.8318,1791.9836 1759.0704,1791.9836 1756.8318,1789.7451 1756.8318,1786.9836 1756.8318,1784.2222 1759.0704,1781.9836 1761.8318,1781.9836 1764.5932,1781.9836 1766.8318,1784.2222 1766.8318,1786.9836 z" />
      <text style="font-size:25; vertical-align:top; fill-opacity:1.0; fill:gray; text-anchor:right; stroke:none; font-weight:normal; font-style:italic; text-align:right; " transform="" id="B.pO.outpoint.text" y="1779.98365589" x="1768.83180433">
pO.out</text>
      <circle style="stroke:red; stroke-width:1; fill:red; " transform="" cy="1627.80998615" cx="1771.19496138" r="5" id="B.pO" d="M 1776.1949,1627.8099 C 1776.1949,1630.5714 1773.9564,1632.8099 1771.1949,1632.8099 1768.4335,1632.8099 1766.1949,1630.5714 1766.1949,1627.8099 1766.1949,1625.0485 1768.4335,1622.8099 1771.1949,1622.8099 1773.9564,1622.8099 1776.1949,1625.0485 1776.1949,1627.8099 z" />
      <text style="font-size:30; vertical-align:top; fill-opacity:1.0; fill:darkblue; text-anchor:right; stroke:none; font-weight:normal; font-style:italic; text-align:right; " transform="" id="B.pO.text" y="1620.80998615" x="1778.19496138">
pO</text>
      <circle style="stroke:gray; stroke-width:1; fill:none; " transform="" cy="1786.98365589" cx="1761.83180433" r="5" id="B.pP.inpoint" d="M 1766.8318,1786.9836 C 1766.8318,1789.7451 1764.5932,1791.9836 1761.8318,1791.9836 1759.0704,1791.9836 1756.8318,1789.7451 1756.8318,1786.9836 1756.8318,1784.2222 1759.0704,1781.9836 1761.8318,1781.9836 1764.5932,1781.9836 1766.8318,1784.2222 1766.8318,1786.9836 z" />
      <text style="font-size:25; vertical-align:top; fill-opacity:1.0; fill:gray; text-anchor:right; stroke:none; font-weight:normal; font-style:italic; text-align:right; " transform="" id="B.pP.inpoint.text" y="1779.98365589" x="1768.83180433">
pP.in</text>
      <circle style="stroke:red; stroke-width:1; fill:red; " transform="" cy="1771.37839415" cx="1496.54235477" r="5" id="B.pP" d="M 1501.5424,1771.3784 C 1501.5424,1774.1398 1499.3038,1776.3784 1496.5424,1776.3784 1493.7809,1776.3784 1491.5424,1774.1398 1491.5424,1771.3784 1491.5424,1768.617 1493.7809,1766.3784 1496.5424,1766.3784 1499.3038,1766.3784 1501.5424,1768.617 1501.5424,1771.3784 z" />
      <text style="font-size:30; vertical-align:top; fill-opacity:1.0; fill:darkblue; text-anchor:right; stroke:none; font-weight:normal; font-style:italic; text-align:right; " transform="" id="B.pP.text" y="1764.37839415" x="1503.54235477">
pP</text>
      <circle style="stroke:red; stroke-width:1; fill:red; " transform="" cy="1755.77313241" cx="1231.2529052" r="5" id="B.pQ" d="M 1236.2529,1755.7732 C 1236.2529,1758.5346 1234.0144,1760.7732 1231.2529,1760.7732 1228.4915,1760.7732 1226.2529,1758.5346 1226.2529,1755.7732 1226.2529,1753.0118 1228.4915,1750.7732 1231.2529,1750.7732 1234.0144,1750.7732 1236.2529,1753.0118 1236.2529,1755.7732 z" />
      <text style="font-size:30; vertical-align:top; fill-opacity:1.0; fill:darkblue; text-anchor:right; stroke:none; font-weight:normal; font-style:italic; text-align:right; " transform="" id="B.pQ.text" y="1748.77313241" x="1238.2529052">
pQ</text>
      <circle style="stroke:red; stroke-width:1; fill:red; " transform="" cy="1786.98365589" cx="1761.83180433" r="5" id="B.pR" d="M 1766.8318,1786.9836 C 1766.8318,1789.7451 1764.5932,1791.9836 1761.8318,1791.9836 1759.0704,1791.9836 1756.8318,1789.7451 1756.8318,1786.9836 1756.8318,1784.2222 1759.0704,1781.9836 1761.8318,1781.9836 1764.5932,1781.9836 1766.8318,1784.2222 1766.8318,1786.9836 z" />
      <text style="font-size:30; vertical-align:top; fill-opacity:1.0; fill:darkblue; text-anchor:right; stroke:none; font-weight:normal; font-style:italic; text-align:right; " transform="" id="B.pR.text" y="1779.98365589" x="1768.83180433">
pR</text>
      <path style="stroke-linejoin:miter; stroke-dashoffset:0; stroke:gray; stroke-miterlimit:4; stroke-dasharray:6,6; stroke-width:2; fill:none; " transform="" d="M 708.661417323  -212.598425197 L 708.661417323  2542.32283465 L 2303.1496063  2542.32283465 L 2303.1496063  106.299212598 L 1789.37007874  17.7165354331 L 1789.37007874  -212.598425197 L 708.661417323  -212.598425197 " id="B.gridline" />
    </g>
  </g>
</svg>
