<?xml version="1.0" encoding="UTF-8" standalone="no"?>
<svg xmlns:dc="http://purl.org/dc/elements/1.1/" xmlns:cc="http://creativecommons.org/ns#" xmlns:rdf="http://www.w3.org/1999/02/22-rdf-syntax-ns#" xmlns:svg="http://www.w3.org/2000/svg" xmlns="http://www.w3.org/2000/svg" xmlns:sodipodi="http://sodipodi.sourceforge.net/DTD/sodipodi-0.dtd" xmlns:inkscape="http://www.inkscape.org/namespaces/inkscape" patternNumber="MR_B1" fitBoxtoViewport="True" companyName="Next Patterns" currentscale="0.5:1" margin-right="88.5826771654" client-name="DressFormLg" designerName="S.L.Spencer" height="4652.13782257" width="2545.52426033" margin-top="88.5826771654" version="1.1" margin-bottom="88.5826771654" margin-left="88.5826771654" preserveAspectRatio="xMidYMid meet" id="svg2" inkscape:version="0.48.4 r9939" sodipodi:docname="DressFormLg-spencer_bodice_short-2014-12-23-0811.svg">
  <metadata id="metadata297">
    <rdf:RDF>
      <cc:Work rdf:about="">
        <dc:format>image/svg+xml</dc:format>
        <dc:type rdf:resource="http://purl.org/dc/dcmitype/StillImage" />
      </cc:Work>
    </rdf:RDF>
  </metadata>
  <sodipodi:namedview id="base" pagecolor="#ffffff" bordercolor="#666666" borderopacity="1.0" inkscape:pageopacity="0.0" inkscape:pageshadow="2" inkscape:zoom="0.19045008" inkscape:document-units="pt" showgrid="false" inkscape:window-maximized="1" inkscape:cx="1272.7621" inkscape:cy="2326.0688" inkscape:window-width="1855" inkscape:window-height="1056" inkscape:window-x="65" inkscape:window-y="24" inkscape:current-layer="pattern" />
  <defs id="defs5">
    <marker style="overflow:visible" id="Arrow1Mstart" refX="0.0" refY="0.0" orient="auto" inkscape:stockid="Arrow1Mstart">
      <path transform="scale(0.4) translate(10,0)" style="fill-rule:evenodd;stroke:#000000;stroke-width:1.0pt;marker-start:none" d="M 0.0,0.0 L 5.0,-5.0 L -12.5,0.0 L 5.0,5.0 L 0.0,0.0 z " id="path8" />
    </marker>
    <marker style="overflow:visible;" id="Arrow1Mend" refX="0.0" refY="0.0" orient="auto" inkscape:stockid="Arrow1Mend">
      <path transform="scale(0.4) rotate(180) translate(10,0)" style="fill-rule:evenodd;stroke:#000000;stroke-width:1.0pt;marker-start:none;" d="M 0.0,0.0 L 5.0,-5.0 L -12.5,0.0 L 5.0,5.0 L 0.0,0.0 z " id="path11" />
    </marker>
  </defs>
  <g inkscape:label="Label-pattern" id="pattern" inkscape:groupmode="layer" transform="translate(88.582677,88.582677)">
    <g id="document.bodice.Bodice Front.pattern" transform=" translate(58.750000, 757.717638)">
      <g id="A.letter" transform="matrix(10.000000, 0, 0, 10.000000, -3228.838583, -1030.039370)">
        <text style="font-size:24; vertical-align:top; fill-opacity:1.0; fill:#000000; text-anchor:start; stroke:none; font-weight:normal; font-style:normal; text-align:right; " transform="" id="A.letter.letterline" y="114.448818898" x="358.75984252">
A</text>
      </g>
      <line style="stroke-linejoin:miter; stroke:green; stroke-width:4; stroke-miterlimit:4; fill:none; " y2="1089.56692913" marker-end="url(#Arrow1Mend)" marker-start="url(#Arrow1Mstart)" transform="" x2="133.455818164" y1="159.448818898" x1="133.455818164" id="A.grainline" />
      <path style="stroke-linejoin:miter; stroke-dashoffset:0; stroke:green; stroke-miterlimit:4; stroke-dasharray:6,6; stroke-width:3; fill:none; " transform="" d="M 259.422273289  1311.16500733 L 354.330708661  710.078740157 L 449.239144033  1311.16500733 M 1114.86823763  636.674759603 L 437.620968391  649.368247433 L 1085.75248476  846.219779863 " id="A.dartline" />
      <path style="stroke-linejoin:miter; stroke-dashoffset:0; stroke:green; stroke-dasharray:24,6; stroke-miterlimit:4; stroke-width:4; fill:none; " transform="" d="M 0.0  0.0 L 0.0  1240.15748031 C 88.6510629953  1240.15748031  170.37146643  1240.15748031  268.195175027  1255.60334164 L 354.330708661  1278.11886836 L 440.466242295  1255.60334164 C 638.608627086  1224.31767642  840.663085938  1206.62791188  1038.67054744  1192.7249741 L 1031.93019923  829.872789912 L 1031.48308144  731.883892537 L 1058.6281151  637.72885512 L 983.736240613  410.343378751 C 821.738234984  463.076114248  639.566929134  372.404562614  639.566929134  159.448818898 C 639.566929134  30.5375758868  705.363247815  -166.013360476  717.519685039  -223.334513127 L 266.911636328  -318.897637795 C 233.832093174  -162.917928626  160.146981797  0.0  0.0  0.0 " id="A.seamline" />
      <path style="fill:none;stroke:#008000;stroke-width:4;stroke-linejoin:miter;stroke-miterlimit:4" d="M 211.90625,-330.65625 C 197.45138,-264.20535 177.34444,-197.87692 139.96875,-140.40625 116.15169,-104.08797 82.171731,-71.60028 38.90625,-60.9375 9.6980416,-53.498727 -20.657228,-57.036286 -50.466985,-55.829847 -59.45958,-58.486119 -55.389515,-48.189039 -56.25,-42.78125 -56.25,403.61458 -56.25,850.01042 -56.25,1296.4062 46.358054,1296.5757 149.38339,1294.0996 251,1309.8438 278.00729,1315.4948 304.50194,1323.6109 331.30863,1330.2263 339.63709,1331.7447 347.95565,1335.9211 356.2779,1335.7723 389.43648,1327.3273 422.39894,1317.9228 455.70196,1310.1632 667.64626,1276.9863 881.79613,1259.7817 1095.875,1245.0625 1093.3981,1101.3214 1090.2621,957.58857 1088.1138,813.84393 1088.1812,788.83905 1087.4889,763.72867 1088.0272,738.78919 1097.8512,704.73439 1107.6787,670.6806 1117.5,636.625 1084.91,537.67927 1052.3266,438.73139 1019.75,339.78125 982.42204,350.98158 945.6588,366.69394 906.25144,368.33494 849.94297,372.13789 790.82506,353.54746 751.15625,312.46875 714.41608,275.2554 697.56763,222.44856 696.05532,171.06324 694.57419,112.85636 706.05956,55.303484 718.18505,-1.2716408 732.98851,-68.950136 753.25297,-135.33813 770.44779,-202.47342 775.33861,-223.81445 779.95787,-245.22649 784.75,-266.59375 597.70798,-306.25877 410.66451,-345.91692 223.625,-385.59375 219.71875,-367.28125 215.8125,-348.96875 211.90625,-330.65625 z" id="A.cuttingline" inkscape:connector-curvature="0" />
      <g id="A.info" transform="">
        <text style="font-size:12; vertical-align:top; fill-opacity:1.0; fill:#000000; text-anchor:start; stroke:none; font-weight:normal; font-style:normal; text-align:right; " transform="" id="A.info.lineNext Patterns" y="159.448818898" x="358.75984252">
Next Patterns</text>
        <text style="font-size:12; vertical-align:top; fill-opacity:1.0; fill:#000000; text-anchor:start; stroke:none; font-weight:normal; font-style:normal; text-align:right; " transform="" id="A.info.lineMR_B1" y="173.848818898" x="358.75984252">
MR_B1</text>
        <text style="font-size:12; vertical-align:top; fill-opacity:1.0; fill:#000000; text-anchor:start; stroke:none; font-weight:normal; font-style:normal; text-align:right; " transform="" id="A.info.lineSpencer Bodice Short" y="188.248818898" x="358.75984252">
Spencer Bodice Short</text>
        <text style="font-size:12; vertical-align:top; fill-opacity:1.0; fill:#000000; text-anchor:start; stroke:none; font-weight:normal; font-style:normal; text-align:right; " transform="" id="A.info.linePattern Piece A" y="202.648818898" x="358.75984252">
Pattern Piece A</text>
        <text style="font-size:12; vertical-align:top; fill-opacity:1.0; fill:#000000; text-anchor:start; stroke:none; font-weight:normal; font-style:normal; text-align:right; " transform="" id="A.info.lineCut 2 Fabric" y="217.048818898" x="358.75984252">
Cut 2 Fabric</text>
        <text style="font-size:12; vertical-align:top; fill-opacity:1.0; fill:#000000; text-anchor:start; stroke:none; font-weight:normal; font-style:normal; text-align:right; " transform="" id="A.info.line " y="231.448818898" x="358.75984252" />
        <text style="font-size:12; vertical-align:top; fill-opacity:1.0; fill:#000000; text-anchor:start; stroke:none; font-weight:normal; font-style:normal; text-align:right; " transform="" id="A.info.lineDressFormLg" y="245.848818898" x="358.75984252">
DressFormLg</text>
        <text style="font-size:12; vertical-align:top; fill-opacity:1.0; fill:#000000; text-anchor:start; stroke:none; font-weight:normal; font-style:normal; text-align:right; " transform="" id="A.info.line2014/12/23 8:11" y="260.248818898" x="358.75984252">
2014/12/23 8:11</text>
      </g>
    </g>
    <g id="document.bodice.Bodice Back.pattern" transform=" translate(2312.108906, 580.552283)">
      <g id="B.letter" transform="matrix(10.000000, 0, 0, 10.000000, 3220.308797, -2465.078740)">
        <text style="font-size:24; vertical-align:top; fill-opacity:1.0; fill:#000000; text-anchor:start; stroke:none; font-weight:normal; font-style:normal; text-align:right; " transform="" id="B.letter.letterline" y="273.897637795" x="-357.812088528">
B</text>
      </g>
      <line style="stroke-linejoin:miter; stroke:green; stroke-width:4; stroke-miterlimit:4; fill:none; " y2="1222.44094488" marker-end="url(#Arrow1Mend)" marker-start="url(#Arrow1Mstart)" transform="" x2="-142.235487856" y1="212.598425197" x1="-142.235487856" id="B.grainline" />
      <path style="stroke-linejoin:miter; stroke-dashoffset:0; stroke:green; stroke-miterlimit:4; stroke-dasharray:6,6; stroke-width:3; fill:none; " transform="" d="M -467.412859897  1410.15443315 L -383.761673202  637.795275591 L -300.110486507  1410.15443315 M -549.94563235  -87.4182932197 L -430.45219408  104.234043908 L -518.493439004  -103.751627012 " id="B.dartline" />
      <path style="stroke-linejoin:miter; stroke-dashoffset:0; stroke:green; stroke-dasharray:24,6; stroke-miterlimit:4; stroke-width:4; fill:none; " transform="" d="M 0.0  0.0 L 0.0  1346.45669291 C -101.067774363  1346.45669291  -234.382038208  1346.45669291  -306.167282905  1354.23147081 L -383.761673202  1369.18520373 L -461.356063499  1354.23147081 C -537.639427833  1345.96951924  -722.618056563  1344.80107546  -851.361750937  1343.98784763 L -908.074019882  743.623370461 C -815.843211147  734.910965532  -627.342519685  637.795275591  -627.342519685  435.978023208 C -627.342519685  315.641150946  -690.415334864  130.711716533  -715.624177057  82.1684498171 L -520.185017325  -39.6860369005 L -508.858261319  -46.7481632481 L -496.566196517  -51.9514480849 L -284.470975712  -141.732283465 C -252.688753608  -78.3927191927  -213.353231784  0.0  0.0  0.0 " id="B.seamline" />
      <path style="fill:none;stroke:#008000;stroke-width:4;stroke-linejoin:miter;stroke-miterlimit:4" d="M -306.40625,-193.53125 C -382.79654,-161.0806 -459.42069,-128.98719 -535.6605,-96.313751 -620.16419,-43.615592 -704.74718,9.1028878 -789.28125,61.8125 -774.47257,90.863412 -758.50939,119.35215 -747.75913,150.18399 -720.91443,223.53391 -699.53857,298.97735 -688.21875,376.34375 -681.80485,421.14333 -680.50927,467.73426 -695.3125,511.09375 -716.96104,577.49787 -770.40593,629.85449 -831.69596,661.031 -861.84585,676.47623 -894.64124,687.45532 -928.67287,689.1754 -942.21942,690.55443 -955.76596,691.93347 -969.3125,693.3125 -947.07183,928.85406 -924.83025,1164.3955 -902.59375,1399.9375 -775.64485,1400.9932 -648.58518,1400.5625 -521.8204,1406.2453 -496.33317,1407.6564 -470.67826,1408.4508 -445.71534,1414.5128 -424.73313,1418.3062 -403.74796,1423.1073 -382.76822,1426.2787 -353.12077,1420.8297 -323.53396,1414.2695 -293.84375,1409.5312 -215.64936,1402.8606 -136.93136,1403.3506 -58.375001,1402.7484 -20.166707,1402.687 18.04167,1402.733 56.25,1402.7188 56.25,916.39583 56.25,430.07292 56.25,-56.25 -8.2028894,-56.354282 -74.213712,-53.53629 -136.34375,-73.46875 -166.34681,-82.915222 -194.66624,-100.53616 -212.09375,-127.3125 -229.87902,-154.77479 -242.63111,-185.13446 -257.875,-214.0625 -274.05208,-207.21875 -290.22917,-200.375 -306.40625,-193.53125 z" id="B.cuttingline" inkscape:connector-curvature="0" />
      <g id="B.info" transform="">
        <text style="font-size:12; vertical-align:top; fill-opacity:1.0; fill:#000000; text-anchor:start; stroke:none; font-weight:normal; font-style:normal; text-align:right; " transform="" id="B.info.lineNext Patterns" y="318.897637795" x="-357.812088528">
Next Patterns</text>
        <text style="font-size:12; vertical-align:top; fill-opacity:1.0; fill:#000000; text-anchor:start; stroke:none; font-weight:normal; font-style:normal; text-align:right; " transform="" id="B.info.lineMR_B1" y="333.297637795" x="-357.812088528">
MR_B1</text>
        <text style="font-size:12; vertical-align:top; fill-opacity:1.0; fill:#000000; text-anchor:start; stroke:none; font-weight:normal; font-style:normal; text-align:right; " transform="" id="B.info.lineSpencer Bodice Short" y="347.697637795" x="-357.812088528">
Spencer Bodice Short</text>
        <text style="font-size:12; vertical-align:top; fill-opacity:1.0; fill:#000000; text-anchor:start; stroke:none; font-weight:normal; font-style:normal; text-align:right; " transform="" id="B.info.linePattern Piece B" y="362.097637795" x="-357.812088528">
Pattern Piece B</text>
        <text style="font-size:12; vertical-align:top; fill-opacity:1.0; fill:#000000; text-anchor:start; stroke:none; font-weight:normal; font-style:normal; text-align:right; " transform="" id="B.info.lineCut 2 Fabric" y="376.497637795" x="-357.812088528">
Cut 2 Fabric</text>
        <text style="font-size:12; vertical-align:top; fill-opacity:1.0; fill:#000000; text-anchor:start; stroke:none; font-weight:normal; font-style:normal; text-align:right; " transform="" id="B.info.line " y="390.897637795" x="-357.812088528" />
        <text style="font-size:12; vertical-align:top; fill-opacity:1.0; fill:#000000; text-anchor:start; stroke:none; font-weight:normal; font-style:normal; text-align:right; " transform="" id="B.info.lineDressFormLg" y="405.297637795" x="-357.812088528">
DressFormLg</text>
        <text style="font-size:12; vertical-align:top; fill-opacity:1.0; fill:#000000; text-anchor:start; stroke:none; font-weight:normal; font-style:normal; text-align:right; " transform="" id="B.info.line2014/12/23 8:11" y="419.697637795" x="-357.812088528">
2014/12/23 8:11</text>
      </g>
    </g>
    <g id="document.bodice.Bodice Sleeve.pattern" transform=" translate(679.953399, 2240.132645)">
      <line style="stroke-linejoin:miter; stroke:green; stroke-width:4; stroke-miterlimit:4; fill:none; " y2="1877.95275591" marker-end="url(#Arrow1Mend)" marker-start="url(#Arrow1Mstart)" transform="" x2="0" y1="492.696850394" x1="0" id="C.grainline" />
      <g id="C.letter" transform="matrix(15.000000, 0, 0, 15.000000, 0.000000, -11872.027559)">
        <text style="font-size:24; vertical-align:top; fill-opacity:1.0; fill:#000000; text-anchor:start; stroke:none; font-weight:normal; font-style:normal; text-align:right; " transform="" id="C.letter.letterline" y="848.001968504" x="0">
C</text>
      </g>
      <path style="stroke-linejoin:miter; stroke-dashoffset:0; stroke:green; stroke-dasharray:24,6; stroke-miterlimit:4; stroke-width:4; fill:none; " transform="" d="M 0  0 L 304.0581104  178.89557672 L 588.870721972  447.218941717 L 459.192660866  2178.58982324 L -459.192660866  2178.58982324 L -588.870721972  447.218941717 L -304.0581104  178.89557672 L 0  0 " id="C.seamline" />
      <path style="fill:none;stroke:#008000;stroke-width:4;stroke-linejoin:miter;stroke-miterlimit:4" d="M -28.53125,-48.46875 C -131.69963,12.226252 -234.85425,72.94467 -338.03125,133.625 -440.99803,230.64853 -543.96811,327.66865 -646.96875,424.65625 -601.77604,1028.0525 -556.58465,1631.4488 -511.375,2234.8438 -170.45833,2234.8438 170.45833,2234.8437 511.375,2234.8438 556.58465,1631.4488 601.77604,1028.0525 646.96875,424.65625 543.96815,327.6686 440.99799,230.64857 338.03125,133.625 225.3431,67.35218 112.68395,1.0299841 0,-65.25 -9.5104167,-59.65625 -19.020833,-54.0625 -28.53125,-48.46875 z" id="C.cuttingline" inkscape:connector-curvature="0" />
      <g id="C.info" transform="">
        <text style="font-size:12; vertical-align:top; fill-opacity:1.0; fill:#000000; text-anchor:start; stroke:none; font-weight:normal; font-style:normal; text-align:right; " transform="" id="C.info.lineNext Patterns" y="918.868110236" x="0">
Next Patterns</text>
        <text style="font-size:12; vertical-align:top; fill-opacity:1.0; fill:#000000; text-anchor:start; stroke:none; font-weight:normal; font-style:normal; text-align:right; " transform="" id="C.info.lineMR_B1" y="933.268110236" x="0">
MR_B1</text>
        <text style="font-size:12; vertical-align:top; fill-opacity:1.0; fill:#000000; text-anchor:start; stroke:none; font-weight:normal; font-style:normal; text-align:right; " transform="" id="C.info.lineSpencer Bodice Short" y="947.668110236" x="0">
Spencer Bodice Short</text>
        <text style="font-size:12; vertical-align:top; fill-opacity:1.0; fill:#000000; text-anchor:start; stroke:none; font-weight:normal; font-style:normal; text-align:right; " transform="" id="C.info.linePattern Piece C" y="962.068110236" x="0">
Pattern Piece C</text>
        <text style="font-size:12; vertical-align:top; fill-opacity:1.0; fill:#000000; text-anchor:start; stroke:none; font-weight:normal; font-style:normal; text-align:right; " transform="" id="C.info.lineCut 2 Fabric" y="976.468110236" x="0">
Cut 2 Fabric</text>
        <text style="font-size:12; vertical-align:top; fill-opacity:1.0; fill:#000000; text-anchor:start; stroke:none; font-weight:normal; font-style:normal; text-align:right; " transform="" id="C.info.line " y="990.868110236" x="0" />
        <text style="font-size:12; vertical-align:top; fill-opacity:1.0; fill:#000000; text-anchor:start; stroke:none; font-weight:normal; font-style:normal; text-align:right; " transform="" id="C.info.lineDressFormLg" y="1005.26811024" x="0">
DressFormLg</text>
        <text style="font-size:12; vertical-align:top; fill-opacity:1.0; fill:#000000; text-anchor:start; stroke:none; font-weight:normal; font-style:normal; text-align:right; " transform="" id="C.info.line2014/12/23 8:11" y="1019.66811024" x="0">
2014/12/23 8:11</text>
      </g>
    </g>
  </g>
  <g inkscape:label="Label-notes" id="notes" inkscape:groupmode="layer" transform="translate(88.582677,88.582677)">
    <g id="document.titleblock">
      <text style="font-size:40; vertical-align:top; fill-opacity:1.0; fill:#000000; text-anchor:right; stroke:none; font-weight:normal; font-style:normal; text-align:right; " transform="" id="company" y="0.0" x="0.0">
Next Patterns</text>
      <text style="font-size:40; vertical-align:top; fill-opacity:1.0; fill:#000000; text-anchor:right; stroke:none; font-weight:normal; font-style:normal; text-align:right; " transform="" id="designer" y="44.0" x="0.0">
S.L.Spencer</text>
      <text style="font-size:40; vertical-align:top; fill-opacity:1.0; fill:#000000; text-anchor:right; stroke:none; font-weight:normal; font-style:normal; text-align:right; " transform="" id="pattern_number" y="88.0" x="0.0">
MR_B1</text>
      <text style="font-size:40; vertical-align:top; fill-opacity:1.0; fill:#000000; text-anchor:right; stroke:none; font-weight:normal; font-style:normal; text-align:right; " transform="" id="pattern_name" y="132.0" x="0.0">
Spencer Bodice Short</text>
      <text style="font-size:40; vertical-align:top; fill-opacity:1.0; fill:#000000; text-anchor:right; stroke:none; font-weight:normal; font-style:normal; text-align:right; " transform="" id="client" y="176.0" x="0.0">
DressFormLg</text>
      <text style="font-size:40; vertical-align:top; fill-opacity:1.0; fill:#000000; text-anchor:right; stroke:none; font-weight:normal; font-style:normal; text-align:right; " transform="" id="date" y="220.0" x="0.0">
2014/12/23 8:11</text>
    </g>
    <g id="document.testgrid">
      <path style="stroke-linejoin:miter; stroke:green; stroke-width:4; stroke-miterlimit:4; fill:none; " d="M 1080.0  0.0 L 1080.0  212.598425197 M 1115.43307087  0.0 L 1115.43307087  212.598425197 M 1150.86614173  0.0 L 1150.86614173  212.598425197 M 1186.2992126  0.0 L 1186.2992126  212.598425197 M 1221.73228346  0.0 L 1221.73228346  212.598425197 M 1257.16535433  0.0 L 1257.16535433  212.598425197 M 1292.5984252  0.0 L 1292.5984252  212.598425197 M 1080.0  0.0 L 1292.5984252  0.0 M 1080.0  35.4330708661 L 1292.5984252  35.4330708661 M 1080.0  70.8661417323 L 1292.5984252  70.8661417323 M 1080.0  106.299212598 L 1292.5984252  106.299212598 M 1080.0  141.732283465 L 1292.5984252  141.732283465 M 1080.0  177.165354331 L 1292.5984252  177.165354331 M 1080.0  212.598425197 L 1292.5984252  212.598425197 M 1469.76377953  0.0 L 1469.76377953  270.0 M 1559.76377953  0.0 L 1559.76377953  270.0 M 1649.76377953  0.0 L 1649.76377953  270.0 M 1739.76377953  0.0 L 1739.76377953  270.0 M 1469.76377953  0.0 L 1739.76377953  0.0 M 1469.76377953  90.0 L 1739.76377953  90.0 M 1469.76377953  180.0 L 1739.76377953  180.0 M 1469.76377953  270.0 L 1739.76377953  270.0 " id="testgrid" />
    </g>
    <g id="document.bodice.Bodice Front.notes" transform=" translate(58.750000, 757.717638)" />
    <g id="document.bodice.Bodice Back.notes" transform=" translate(2312.108906, 580.552283)" />
    <g id="document.bodice.Bodice Sleeve.notes" transform=" translate(679.953399, 2240.132645)" />
  </g>
  <g inkscape:label="Label-reference" id="reference" inkscape:groupmode="layer" transform="translate(88.582677,88.582677)">
    <g id="document.bodice.Bodice Front.reference" transform=" translate(58.750000, 757.717638)">
      <circle style="stroke:gray; stroke-width:1; fill:none; " transform="" cy="0.0" cx="160.146981797" r="5" id="A.FNC.inpoint" d="M 165.14699,0 C 165.14699,2.7614237 162.90841,5 160.14699,5 157.38556,5 155.14699,2.7614237 155.14699,0 155.14699,-2.7614237 157.38556,-5 160.14699,-5 162.90841,-5 165.14699,-2.7614237 165.14699,0 z" />
      <text style="font-size:25; vertical-align:top; fill-opacity:1.0; fill:gray; text-anchor:right; stroke:none; font-weight:normal; font-style:italic; text-align:right; " transform="" id="A.FNC.inpoint.text" y="-7.0" x="167.146981797">
FNC.in</text>
      <circle style="stroke:red; stroke-width:1; fill:red; " transform="" cy="0.0" cx="0.0" r="5" id="A.FNC" d="M 5,0 C 5,2.7614237 2.7614237,5 0,5 -2.7614237,5 -5,2.7614237 -5,0 -5,-2.7614237 -2.7614237,-5 0,-5 2.7614237,-5 5,-2.7614237 5,0 z" />
      <text style="font-size:30; vertical-align:top; fill-opacity:1.0; fill:darkblue; text-anchor:right; stroke:none; font-weight:normal; font-style:italic; text-align:right; " transform="" id="A.FNC.text" y="-7.0" x="7.0">
FNC</text>
      <circle style="stroke:gray; stroke-width:1; fill:none; " transform="" cy="1240.15748031" cx="88.6510629953" r="5" id="A.FWC.outpoint" d="M 93.651062,1240.1575 C 93.651062,1242.9189 91.412486,1245.1575 88.651062,1245.1575 85.889638,1245.1575 83.651062,1242.9189 83.651062,1240.1575 83.651062,1237.396 85.889638,1235.1575 88.651062,1235.1575 91.412486,1235.1575 93.651062,1237.396 93.651062,1240.1575 z" />
      <text style="font-size:25; vertical-align:top; fill-opacity:1.0; fill:gray; text-anchor:right; stroke:none; font-weight:normal; font-style:italic; text-align:right; " transform="" id="A.FWC.outpoint.text" y="1233.15748031" x="95.6510629953">
FWC.out</text>
      <circle style="stroke:red; stroke-width:1; fill:red; " transform="" cy="1240.15748031" cx="0.0" r="5" id="A.FWC" d="M 5,1240.1575 C 5,1242.9189 2.7614237,1245.1575 0,1245.1575 -2.7614237,1245.1575 -5,1242.9189 -5,1240.1575 -5,1237.396 -2.7614237,1235.1575 0,1235.1575 2.7614237,1235.1575 5,1237.396 5,1240.1575 z" />
      <text style="font-size:30; vertical-align:top; fill-opacity:1.0; fill:darkblue; text-anchor:right; stroke:none; font-weight:normal; font-style:italic; text-align:right; " transform="" id="A.FWC.text" y="1233.15748031" x="7.0">
FWC</text>
      <circle style="stroke:red; stroke-width:1; fill:red; " transform="" cy="-318.897637795" cx="0.0" r="5" id="A.FSH" d="M 5,-318.89764 C 5,-316.13622 2.7614237,-313.89764 0,-313.89764 -2.7614237,-313.89764 -5,-316.13622 -5,-318.89764 -5,-321.65907 -2.7614237,-323.89764 0,-323.89764 2.7614237,-323.89764 5,-321.65907 5,-318.89764 z" />
      <text style="font-size:30; vertical-align:top; fill-opacity:1.0; fill:darkblue; text-anchor:right; stroke:none; font-weight:normal; font-style:italic; text-align:right; " transform="" id="A.FSH.text" y="-325.897637795" x="7.0">
FSH</text>
      <circle style="stroke:red; stroke-width:1; fill:red; " transform="" cy="-318.897637795" cx="717.519685039" r="5" id="A.FSW" d="M 722.51971,-318.89764 C 722.51971,-316.13622 720.28114,-313.89764 717.51971,-313.89764 714.75829,-313.89764 712.51971,-316.13622 712.51971,-318.89764 712.51971,-321.65907 714.75829,-323.89764 717.51971,-323.89764 720.28114,-323.89764 722.51971,-321.65907 722.51971,-318.89764 z" />
      <text style="font-size:30; vertical-align:top; fill-opacity:1.0; fill:darkblue; text-anchor:right; stroke:none; font-weight:normal; font-style:italic; text-align:right; " transform="" id="A.FSW.text" y="-325.897637795" x="724.519685039">
FSW</text>
      <circle style="stroke:gray; stroke-width:1; fill:none; " transform="" cy="-166.013360476" cx="705.363247815" r="5" id="A.FSP.inpoint" d="M 710.36322,-166.01337 C 710.36322,-163.25194 708.12464,-161.01337 705.36322,-161.01337 702.6018,-161.01337 700.36322,-163.25194 700.36322,-166.01337 700.36322,-168.77479 702.6018,-171.01337 705.36322,-171.01337 708.12464,-171.01337 710.36322,-168.77479 710.36322,-166.01337 z" />
      <text style="font-size:25; vertical-align:top; fill-opacity:1.0; fill:gray; text-anchor:right; stroke:none; font-weight:normal; font-style:italic; text-align:right; " transform="" id="A.FSP.inpoint.text" y="-173.013360476" x="712.363247815">
FSP.in</text>
      <circle style="stroke:red; stroke-width:1; fill:red; " transform="" cy="-223.334513127" cx="717.519685039" r="5" id="A.FSP" d="M 722.51971,-223.33452 C 722.51971,-220.57309 720.28114,-218.33452 717.51971,-218.33452 714.75829,-218.33452 712.51971,-220.57309 712.51971,-223.33452 712.51971,-226.09594 714.75829,-228.33452 717.51971,-228.33452 720.28114,-228.33452 722.51971,-226.09594 722.51971,-223.33452 z" />
      <text style="font-size:30; vertical-align:top; fill-opacity:1.0; fill:darkblue; text-anchor:right; stroke:none; font-weight:normal; font-style:italic; text-align:right; " transform="" id="A.FSP.text" y="-230.334513127" x="724.519685039">
FSP</text>
      <circle style="stroke:gray; stroke-width:1; fill:none; " transform="" cy="-162.917928626" cx="233.832093174" r="5" id="A.FNS.outpoint" d="M 238.83209,-162.91792 C 238.83209,-160.1565 236.59352,-157.91792 233.83209,-157.91792 231.07067,-157.91792 228.83209,-160.1565 228.83209,-162.91792 228.83209,-165.67935 231.07067,-167.91792 233.83209,-167.91792 236.59352,-167.91792 238.83209,-165.67935 238.83209,-162.91792 z" />
      <text style="font-size:25; vertical-align:top; fill-opacity:1.0; fill:gray; text-anchor:right; stroke:none; font-weight:normal; font-style:italic; text-align:right; " transform="" id="A.FNS.outpoint.text" y="-169.917928626" x="240.832093174">
FNS.out</text>
      <circle style="stroke:red; stroke-width:1; fill:red; " transform="" cy="-318.897637795" cx="266.911636328" r="5" id="A.FNS" d="M 271.91162,-318.89764 C 271.91162,-316.13622 269.67304,-313.89764 266.91162,-313.89764 264.1502,-313.89764 261.91162,-316.13622 261.91162,-318.89764 261.91162,-321.65907 264.1502,-323.89764 266.91162,-323.89764 269.67304,-323.89764 271.91162,-321.65907 271.91162,-318.89764 z" />
      <text style="font-size:30; vertical-align:top; fill-opacity:1.0; fill:darkblue; text-anchor:right; stroke:none; font-weight:normal; font-style:italic; text-align:right; " transform="" id="A.FNS.text" y="-325.897637795" x="273.911636328">
FNS</text>
      <circle style="stroke:red; stroke-width:1; fill:red; " transform="" cy="318.897637795" cx="0.0" r="5" id="A.FUC" d="M 5,318.89764 C 5,321.65907 2.7614237,323.89764 0,323.89764 -2.7614237,323.89764 -5,321.65907 -5,318.89764 -5,316.13622 -2.7614237,313.89764 0,313.89764 2.7614237,313.89764 5,316.13622 5,318.89764 z" />
      <text style="font-size:30; vertical-align:top; fill-opacity:1.0; fill:darkblue; text-anchor:right; stroke:none; font-weight:normal; font-style:italic; text-align:right; " transform="" id="A.FUC.text" y="311.897637795" x="7.0">
FUC</text>
      <circle style="stroke:red; stroke-width:1; fill:red; " transform="" cy="637.795275591" cx="0.0" r="5" id="A.FBC" d="M 5,637.79529 C 5,640.55671 2.7614237,642.79529 0,642.79529 -2.7614237,642.79529 -5,640.55671 -5,637.79529 -5,635.03386 -2.7614237,632.79529 0,632.79529 2.7614237,632.79529 5,635.03386 5,637.79529 z" />
      <text style="font-size:30; vertical-align:top; fill-opacity:1.0; fill:darkblue; text-anchor:right; stroke:none; font-weight:normal; font-style:italic; text-align:right; " transform="" id="A.FBC.text" y="630.795275591" x="7.0">
FBC</text>
      <circle style="stroke:red; stroke-width:1; fill:red; " transform="" cy="637.795275591" cx="354.330708661" r="5" id="A.FBP" d="M 359.33072,637.79529 C 359.33072,640.55671 357.09214,642.79529 354.33072,642.79529 351.5693,642.79529 349.33072,640.55671 349.33072,637.79529 349.33072,635.03386 351.5693,632.79529 354.33072,632.79529 357.09214,632.79529 359.33072,635.03386 359.33072,637.79529 z" />
      <text style="font-size:30; vertical-align:top; fill-opacity:1.0; fill:darkblue; text-anchor:right; stroke:none; font-weight:normal; font-style:italic; text-align:right; " transform="" id="A.FBP.text" y="630.795275591" x="361.330708661">
FBP</text>
      <circle style="stroke:red; stroke-width:1; fill:red; " transform="" cy="318.897637795" cx="673.228346457" r="5" id="A.f10" d="M 678.22833,318.89764 C 678.22833,321.65907 675.98976,323.89764 673.22833,323.89764 670.46691,323.89764 668.22833,321.65907 668.22833,318.89764 668.22833,316.13622 670.46691,313.89764 673.22833,313.89764 675.98976,313.89764 678.22833,316.13622 678.22833,318.89764 z" />
      <text style="font-size:30; vertical-align:top; fill-opacity:1.0; fill:darkblue; text-anchor:right; stroke:none; font-weight:normal; font-style:italic; text-align:right; " transform="" id="A.f10.text" y="311.897637795" x="680.228346457">
f10</text>
      <circle style="stroke:red; stroke-width:1; fill:red; " transform="" cy="159.448818898" cx="0.0" r="5" id="A.FAC" d="M 5,159.44882 C 5,162.21025 2.7614237,164.44882 0,164.44882 -2.7614237,164.44882 -5,162.21025 -5,159.44882 -5,156.6874 -2.7614237,154.44882 0,154.44882 2.7614237,154.44882 5,156.6874 5,159.44882 z" />
      <text style="font-size:30; vertical-align:top; fill-opacity:1.0; fill:darkblue; text-anchor:right; stroke:none; font-weight:normal; font-style:italic; text-align:right; " transform="" id="A.FAC.text" y="152.448818898" x="7.0">
FAC</text>
      <circle style="stroke:gray; stroke-width:1; fill:none; " transform="" cy="372.404562614" cx="639.566929134" r="5" id="A.FAS.inpoint" d="M 644.56696,372.40457 C 644.56696,375.166 642.32838,377.40457 639.56696,377.40457 636.80553,377.40457 634.56696,375.166 634.56696,372.40457 634.56696,369.64315 636.80553,367.40457 639.56696,367.40457 642.32838,367.40457 644.56696,369.64315 644.56696,372.40457 z" />
      <text style="font-size:25; vertical-align:top; fill-opacity:1.0; fill:gray; text-anchor:right; stroke:none; font-weight:normal; font-style:italic; text-align:right; " transform="" id="A.FAS.inpoint.text" y="365.404562614" x="646.566929134">
FAS.in</text>
      <circle style="stroke:gray; stroke-width:1; fill:none; " transform="" cy="30.5375758868" cx="639.566929134" r="5" id="A.FAS.outpoint" d="M 644.56696,30.537577 C 644.56696,33.299 642.32838,35.537577 639.56696,35.537577 636.80553,35.537577 634.56696,33.299 634.56696,30.537577 634.56696,27.776153 636.80553,25.537577 639.56696,25.537577 642.32838,25.537577 644.56696,27.776153 644.56696,30.537577 z" />
      <text style="font-size:25; vertical-align:top; fill-opacity:1.0; fill:gray; text-anchor:right; stroke:none; font-weight:normal; font-style:italic; text-align:right; " transform="" id="A.FAS.outpoint.text" y="23.5375758868" x="646.566929134">
FAS.out</text>
      <circle style="stroke:red; stroke-width:1; fill:red; " transform="" cy="159.448818898" cx="639.566929134" r="5" id="A.FAS" d="M 644.56696,159.44882 C 644.56696,162.21025 642.32838,164.44882 639.56696,164.44882 636.80553,164.44882 634.56696,162.21025 634.56696,159.44882 634.56696,156.6874 636.80553,154.44882 639.56696,154.44882 642.32838,154.44882 644.56696,156.6874 644.56696,159.44882 z" />
      <text style="font-size:30; vertical-align:top; fill-opacity:1.0; fill:darkblue; text-anchor:right; stroke:none; font-weight:normal; font-style:italic; text-align:right; " transform="" id="A.FAS.text" y="152.448818898" x="646.566929134">
FAS</text>
      <circle style="stroke:red; stroke-width:1; fill:red; " transform="" cy="318.897637795" cx="921.25984252" r="5" id="A.f1" d="M 926.25983,318.89764 C 926.25983,321.65907 924.02125,323.89764 921.25983,323.89764 918.4984,323.89764 916.25983,321.65907 916.25983,318.89764 916.25983,316.13622 918.4984,313.89764 921.25983,313.89764 924.02125,313.89764 926.25983,316.13622 926.25983,318.89764 z" />
      <text style="font-size:30; vertical-align:top; fill-opacity:1.0; fill:darkblue; text-anchor:right; stroke:none; font-weight:normal; font-style:italic; text-align:right; " transform="" id="A.f1.text" y="311.897637795" x="928.25984252">
f1</text>
      <circle style="stroke:red; stroke-width:1; fill:red; " transform="" cy="440.379318512" cx="960.803917844" r="5" id="A.f2" d="M 965.80389,440.37933 C 965.80389,443.14076 963.56532,445.37933 960.80389,445.37933 958.04247,445.37933 955.80389,443.14076 955.80389,440.37933 955.80389,437.61791 958.04247,435.37933 960.80389,435.37933 963.56532,435.37933 965.80389,437.61791 965.80389,440.37933 z" />
      <text style="font-size:30; vertical-align:top; fill-opacity:1.0; fill:darkblue; text-anchor:right; stroke:none; font-weight:normal; font-style:italic; text-align:right; " transform="" id="A.f2.text" y="433.379318512" x="967.803917844">
f2</text>
      <circle style="stroke:red; stroke-width:1; fill:red; " transform="" cy="992.756759109" cx="1140.61090594" r="5" id="A.f3" d="M 1145.611,992.75677 C 1145.611,995.5182 1143.3724,997.75677 1140.611,997.75677 1137.8495,997.75677 1135.611,995.5182 1135.611,992.75677 1135.611,989.99535 1137.8495,987.75677 1140.611,987.75677 1143.3724,987.75677 1145.611,989.99535 1145.611,992.75677 z" />
      <text style="font-size:30; vertical-align:top; fill-opacity:1.0; fill:darkblue; text-anchor:right; stroke:none; font-weight:normal; font-style:italic; text-align:right; " transform="" id="A.f3.text" y="985.756759109" x="1147.61090594">
f3</text>
      <circle style="stroke:red; stroke-width:1; fill:red; " transform="" cy="1240.15748031" cx="354.330708661" r="5" id="A.f4" d="M 359.33072,1240.1575 C 359.33072,1242.9189 357.09214,1245.1575 354.33072,1245.1575 351.5693,1245.1575 349.33072,1242.9189 349.33072,1240.1575 349.33072,1237.396 351.5693,1235.1575 354.33072,1235.1575 357.09214,1235.1575 359.33072,1237.396 359.33072,1240.1575 z" />
      <text style="font-size:30; vertical-align:top; fill-opacity:1.0; fill:darkblue; text-anchor:right; stroke:none; font-weight:normal; font-style:italic; text-align:right; " transform="" id="A.f4.text" y="1233.15748031" x="361.330708661">
f4</text>
      <circle style="stroke:red; stroke-width:1; fill:red; " transform="" cy="1150.61284812" cx="670.334447545" r="5" id="A.f5" d="M 675.33447,1150.6128 C 675.33447,1153.3742 673.0959,1155.6128 670.33447,1155.6128 667.57305,1155.6128 665.33447,1153.3742 665.33447,1150.6128 665.33447,1147.8514 667.57305,1145.6128 670.33447,1145.6128 673.0959,1145.6128 675.33447,1147.8514 675.33447,1150.6128 z" />
      <text style="font-size:30; vertical-align:top; fill-opacity:1.0; fill:darkblue; text-anchor:right; stroke:none; font-weight:normal; font-style:italic; text-align:right; " transform="" id="A.f5.text" y="1143.61284812" x="677.334447545">
f5</text>
      <circle style="stroke:red; stroke-width:1; fill:red; " transform="" cy="985.130882295" cx="1164.03803945" r="5" id="A.f6" d="M 1169.0381,985.13086 C 1169.0381,987.89228 1166.7995,990.13086 1164.0381,990.13086 1161.2767,990.13086 1159.0381,987.89228 1159.0381,985.13086 1159.0381,982.36944 1161.2767,980.13086 1164.0381,980.13086 1166.7995,980.13086 1169.0381,982.36944 1169.0381,985.13086 z" />
      <text style="font-size:30; vertical-align:top; fill-opacity:1.0; fill:darkblue; text-anchor:right; stroke:none; font-weight:normal; font-style:italic; text-align:right; " transform="" id="A.f6.text" y="978.130882295" x="1171.03803945">
f6</text>
      <circle style="stroke:red; stroke-width:1; fill:red; " transform="" cy="308.91716441" cx="951.920432539" r="5" id="A.f7" d="M 956.92041,308.91718 C 956.92041,311.6786 954.68183,313.91718 951.92041,313.91718 949.15899,313.91718 946.92041,311.6786 946.92041,308.91718 946.92041,306.15575 949.15899,303.91718 951.92041,303.91718 954.68183,303.91718 956.92041,306.15575 956.92041,308.91718 z" />
      <text style="font-size:30; vertical-align:top; fill-opacity:1.0; fill:darkblue; text-anchor:right; stroke:none; font-weight:normal; font-style:italic; text-align:right; " transform="" id="A.f7.text" y="301.91716441" x="958.920432539">
f7</text>
      <circle style="stroke:red; stroke-width:1; fill:red; " transform="" cy="430.82332606" cx="990.160477948" r="5" id="A.FBS" d="M 995.16046,430.82333 C 995.16046,433.58476 992.92189,435.82333 990.16046,435.82333 987.39904,435.82333 985.16046,433.58476 985.16046,430.82333 985.16046,428.06191 987.39904,425.82333 990.16046,425.82333 992.92189,425.82333 995.16046,428.06191 995.16046,430.82333 z" />
      <text style="font-size:30; vertical-align:top; fill-opacity:1.0; fill:darkblue; text-anchor:right; stroke:none; font-weight:normal; font-style:italic; text-align:right; " transform="" id="A.FBS.text" y="423.82332606" x="997.160477948">
FBS</text>
      <circle style="stroke:gray; stroke-width:1; fill:none; " transform="" cy="463.076114248" cx="821.738234984" r="5" id="A.FUS.outpoint" d="M 826.73822,463.07611 C 826.73822,465.83753 824.49964,468.07611 821.73822,468.07611 818.9768,468.07611 816.73822,465.83753 816.73822,463.07611 816.73822,460.31469 818.9768,458.07611 821.73822,458.07611 824.49964,458.07611 826.73822,460.31469 826.73822,463.07611 z" />
      <text style="font-size:25; vertical-align:top; fill-opacity:1.0; fill:gray; text-anchor:right; stroke:none; font-weight:normal; font-style:italic; text-align:right; " transform="" id="A.FUS.outpoint.text" y="456.076114248" x="828.738234984">
FUS.out</text>
      <circle style="stroke:red; stroke-width:1; fill:red; " transform="" cy="410.343378751" cx="983.736240613" r="5" id="A.FUS" d="M 988.73627,410.34338 C 988.73627,413.10481 986.49769,415.34338 983.73627,415.34338 980.97484,415.34338 978.73627,413.10481 978.73627,410.34338 978.73627,407.58196 980.97484,405.34338 983.73627,405.34338 986.49769,405.34338 988.73627,407.58196 988.73627,410.34338 z" />
      <text style="font-size:30; vertical-align:top; fill-opacity:1.0; fill:darkblue; text-anchor:right; stroke:none; font-weight:normal; font-style:italic; text-align:right; " transform="" id="A.FUS.text" y="403.343378751" x="990.736240613">
FUS</text>
      <circle style="stroke:gray; stroke-width:1; fill:none; " transform="" cy="1206.62791188" cx="840.663085938" r="5" id="A.FWS.inpoint" d="M 845.66309,1206.6279 C 845.66309,1209.3894 843.42451,1211.6279 840.66309,1211.6279 837.90166,1211.6279 835.66309,1209.3894 835.66309,1206.6279 835.66309,1203.8665 837.90166,1201.6279 840.66309,1201.6279 843.42451,1201.6279 845.66309,1203.8665 845.66309,1206.6279 z" />
      <text style="font-size:25; vertical-align:top; fill-opacity:1.0; fill:gray; text-anchor:right; stroke:none; font-weight:normal; font-style:italic; text-align:right; " transform="" id="A.FWS.inpoint.text" y="1199.62791188" x="847.663085938">
FWS.in</text>
      <circle style="stroke:red; stroke-width:1; fill:red; " transform="" cy="1192.7249741" cx="1038.67054744" r="5" id="A.FWS" d="M 1043.6705,1192.725 C 1043.6705,1195.4864 1041.432,1197.725 1038.6705,1197.725 1035.9091,1197.725 1033.6705,1195.4864 1033.6705,1192.725 1033.6705,1189.9636 1035.9091,1187.725 1038.6705,1187.725 1041.432,1187.725 1043.6705,1189.9636 1043.6705,1192.725 z" />
      <text style="font-size:30; vertical-align:top; fill-opacity:1.0; fill:darkblue; text-anchor:right; stroke:none; font-weight:normal; font-style:italic; text-align:right; " transform="" id="A.FWS.text" y="1185.7249741" x="1045.67054744">
FWS</text>
      <circle style="stroke:red; stroke-width:1; fill:red; " transform="" cy="649.368247433" cx="437.620968391" r="5" id="A.FD2" d="M 442.62097,649.36823 C 442.62097,652.12965 440.3824,654.36823 437.62097,654.36823 434.85955,654.36823 432.62097,652.12965 432.62097,649.36823 432.62097,646.6068 434.85955,644.36823 437.62097,644.36823 440.3824,644.36823 442.62097,646.6068 442.62097,649.36823 z" />
      <text style="font-size:30; vertical-align:top; fill-opacity:1.0; fill:darkblue; text-anchor:right; stroke:none; font-weight:normal; font-style:italic; text-align:right; " transform="" id="A.FD2.text" y="642.368247433" x="444.620968391">
FD2</text>
      <circle style="stroke:red; stroke-width:1; fill:red; " transform="" cy="637.72885512" cx="1058.6281151" r="5" id="A.FD2.i" d="M 1063.6282,637.72888 C 1063.6282,640.49031 1061.3896,642.72888 1058.6282,642.72888 1055.8668,642.72888 1053.6282,640.49031 1053.6282,637.72888 1053.6282,634.96746 1055.8668,632.72888 1058.6282,632.72888 1061.3896,632.72888 1063.6282,634.96746 1063.6282,637.72888 z" />
      <text style="font-size:30; vertical-align:top; fill-opacity:1.0; fill:darkblue; text-anchor:right; stroke:none; font-weight:normal; font-style:italic; text-align:right; " transform="" id="A.FD2.i.text" y="630.72885512" x="1065.6281151">
FD2.i</text>
      <circle style="stroke:red; stroke-width:1; fill:red; " transform="" cy="829.872789912" cx="1031.93019923" r="5" id="A.FD2.o" d="M 1036.9302,829.8728 C 1036.9302,832.63423 1034.6916,834.8728 1031.9302,834.8728 1029.1688,834.8728 1026.9302,832.63423 1026.9302,829.8728 1026.9302,827.11138 1029.1688,824.8728 1031.9302,824.8728 1034.6916,824.8728 1036.9302,827.11138 1036.9302,829.8728 z" />
      <text style="font-size:30; vertical-align:top; fill-opacity:1.0; fill:darkblue; text-anchor:right; stroke:none; font-weight:normal; font-style:italic; text-align:right; " transform="" id="A.FD2.o.text" y="822.872789912" x="1038.93019923">
FD2.o</text>
      <circle style="stroke:red; stroke-width:1; fill:red; " transform="" cy="1240.15748031" cx="270.633997225" r="5" id="A.f8" d="M 275.634,1240.1575 C 275.634,1242.9189 273.39543,1245.1575 270.634,1245.1575 267.87258,1245.1575 265.634,1242.9189 265.634,1240.1575 265.634,1237.396 267.87258,1235.1575 270.634,1235.1575 273.39543,1235.1575 275.634,1237.396 275.634,1240.1575 z" />
      <text style="font-size:30; vertical-align:top; fill-opacity:1.0; fill:darkblue; text-anchor:right; stroke:none; font-weight:normal; font-style:italic; text-align:right; " transform="" id="A.f8.text" y="1233.15748031" x="277.633997225">
f8</text>
      <circle style="stroke:red; stroke-width:1; fill:red; " transform="" cy="1240.15748031" cx="438.027420098" r="5" id="A.f9" d="M 443.02744,1240.1575 C 443.02744,1242.9189 440.78886,1245.1575 438.02744,1245.1575 435.26601,1245.1575 433.02744,1242.9189 433.02744,1240.1575 433.02744,1237.396 435.26601,1235.1575 438.02744,1235.1575 440.78886,1235.1575 443.02744,1237.396 443.02744,1240.1575 z" />
      <text style="font-size:30; vertical-align:top; fill-opacity:1.0; fill:darkblue; text-anchor:right; stroke:none; font-weight:normal; font-style:italic; text-align:right; " transform="" id="A.f9.text" y="1233.15748031" x="445.027420098">
f9</text>
      <circle style="stroke:red; stroke-width:1; fill:red; " transform="" cy="710.078740157" cx="354.330708661" r="5" id="A.FD1" d="M 359.33072,710.07874 C 359.33072,712.84016 357.09214,715.07874 354.33072,715.07874 351.5693,715.07874 349.33072,712.84016 349.33072,710.07874 349.33072,707.31731 351.5693,705.07874 354.33072,705.07874 357.09214,705.07874 359.33072,707.31731 359.33072,710.07874 z" />
      <text style="font-size:30; vertical-align:top; fill-opacity:1.0; fill:darkblue; text-anchor:right; stroke:none; font-weight:normal; font-style:italic; text-align:right; " transform="" id="A.FD1.text" y="703.078740157" x="361.330708661">
FD1</text>
      <circle style="stroke:gray; stroke-width:1; fill:none; " transform="" cy="1240.15748031" cx="170.37146643" r="5" id="A.FD1.i.inpoint" d="M 175.37146,1240.1575 C 175.37146,1242.9189 173.13288,1245.1575 170.37146,1245.1575 167.61004,1245.1575 165.37146,1242.9189 165.37146,1240.1575 165.37146,1237.396 167.61004,1235.1575 170.37146,1235.1575 173.13288,1235.1575 175.37146,1237.396 175.37146,1240.1575 z" />
      <text style="font-size:25; vertical-align:top; fill-opacity:1.0; fill:gray; text-anchor:right; stroke:none; font-weight:normal; font-style:italic; text-align:right; " transform="" id="A.FD1.i.inpoint.text" y="1233.15748031" x="177.37146643">
FD1.i.in</text>
      <circle style="stroke:red; stroke-width:1; fill:red; " transform="" cy="1255.60334164" cx="268.195175027" r="5" id="A.FD1.i" d="M 273.19516,1255.6034 C 273.19516,1258.3648 270.95658,1260.6034 268.19516,1260.6034 265.43374,1260.6034 263.19516,1258.3648 263.19516,1255.6034 263.19516,1252.842 265.43374,1250.6034 268.19516,1250.6034 270.95658,1250.6034 273.19516,1252.842 273.19516,1255.6034 z" />
      <text style="font-size:30; vertical-align:top; fill-opacity:1.0; fill:darkblue; text-anchor:right; stroke:none; font-weight:normal; font-style:italic; text-align:right; " transform="" id="A.FD1.i.text" y="1248.60334164" x="275.195175027">
FD1.i</text>
      <circle style="stroke:gray; stroke-width:1; fill:none; " transform="" cy="1224.31767642" cx="638.608627086" r="5" id="A.FD1.o.outpoint" d="M 643.60864,1224.3176 C 643.60864,1227.0791 641.37007,1229.3176 638.60864,1229.3176 635.84722,1229.3176 633.60864,1227.0791 633.60864,1224.3176 633.60864,1221.5562 635.84722,1219.3176 638.60864,1219.3176 641.37007,1219.3176 643.60864,1221.5562 643.60864,1224.3176 z" />
      <text style="font-size:25; vertical-align:top; fill-opacity:1.0; fill:gray; text-anchor:right; stroke:none; font-weight:normal; font-style:italic; text-align:right; " transform="" id="A.FD1.o.outpoint.text" y="1217.31767642" x="645.608627086">
FD1.o.out</text>
      <circle style="stroke:red; stroke-width:1; fill:red; " transform="" cy="1255.60334164" cx="440.466242295" r="5" id="A.FD1.o" d="M 445.46625,1255.6034 C 445.46625,1258.3648 443.22767,1260.6034 440.46625,1260.6034 437.70482,1260.6034 435.46625,1258.3648 435.46625,1255.6034 435.46625,1252.842 437.70482,1250.6034 440.46625,1250.6034 443.22767,1250.6034 445.46625,1252.842 445.46625,1255.6034 z" />
      <text style="font-size:30; vertical-align:top; fill-opacity:1.0; fill:darkblue; text-anchor:right; stroke:none; font-weight:normal; font-style:italic; text-align:right; " transform="" id="A.FD1.o.text" y="1248.60334164" x="447.466242295">
FD1.o</text>
      <path style="stroke-linejoin:miter; stroke-dashoffset:0; stroke:gray; stroke-miterlimit:4; stroke-dasharray:6,6; stroke-width:2; fill:none; " transform="" d="M 0.0  1240.15748031 L 717.519685039  -223.334513127 L 717.519685039  -318.897637795 L 0.0  -318.897637795 L 0.0  0.0 M 0.0  637.795275591 L 354.330708661  637.795275591 L 990.160477948  430.82332606 M 0.0  318.897637795 L 921.25984252  318.897637795 L 951.920432539  308.91716441 L 1164.03803945  985.130882295 L 1140.61090594  992.756759109 L 921.25984252  318.897637795 M 0.0  1240.15748031 L 354.330708661  1240.15748031 L 354.330708661  637.795275591 L 670.334447545  1150.61284812 L 1140.61090594  992.756759109 M 354.330708661  637.795275591 L 437.620968391  649.368247433 M 0.0  159.448818898 L 639.566929134  159.448818898 " id="A.gridline" />
    </g>
    <g id="document.bodice.Bodice Back.reference" transform=" translate(2312.108906, 580.552283)">
      <circle style="stroke:gray; stroke-width:1; fill:none; " transform="" cy="0.0" cx="-213.353231784" r="5" id="B.BNC.inpoint" d="M -208.35323,0 C -208.35323,2.7614237 -210.5918,5 -213.35323,5 -216.11465,5 -218.35323,2.7614237 -218.35323,0 -218.35323,-2.7614237 -216.11465,-5 -213.35323,-5 -210.5918,-5 -208.35323,-2.7614237 -208.35323,0 z" />
      <text style="font-size:25; vertical-align:top; fill-opacity:1.0; fill:gray; text-anchor:right; stroke:none; font-weight:normal; font-style:italic; text-align:right; " transform="" id="B.BNC.inpoint.text" y="-7.0" x="-206.353231784">
BNC.in</text>
      <circle style="stroke:red; stroke-width:1; fill:red; " transform="" cy="0.0" cx="0.0" r="5" id="B.BNC" d="M 5,0 C 5,2.7614237 2.7614237,5 0,5 -2.7614237,5 -5,2.7614237 -5,0 -5,-2.7614237 -2.7614237,-5 0,-5 2.7614237,-5 5,-2.7614237 5,0 z" />
      <text style="font-size:30; vertical-align:top; fill-opacity:1.0; fill:darkblue; text-anchor:right; stroke:none; font-weight:normal; font-style:italic; text-align:right; " transform="" id="B.BNC.text" y="-7.0" x="7.0">
BNC</text>
      <circle style="stroke:gray; stroke-width:1; fill:none; " transform="" cy="1346.45669291" cx="-101.067774363" r="5" id="B.BWC.outpoint" d="M -96.067772,1346.4567 C -96.067772,1349.2181 -98.306348,1351.4567 -101.06777,1351.4567 -103.8292,1351.4567 -106.06777,1349.2181 -106.06777,1346.4567 -106.06777,1343.6952 -103.8292,1341.4567 -101.06777,1341.4567 -98.306348,1341.4567 -96.067772,1343.6952 -96.067772,1346.4567 z" />
      <text style="font-size:25; vertical-align:top; fill-opacity:1.0; fill:gray; text-anchor:right; stroke:none; font-weight:normal; font-style:italic; text-align:right; " transform="" id="B.BWC.outpoint.text" y="1339.45669291" x="-94.0677743631">
BWC.out</text>
      <circle style="stroke:red; stroke-width:1; fill:red; " transform="" cy="1346.45669291" cx="0.0" r="5" id="B.BWC" d="M 5,1346.4567 C 5,1349.2181 2.7614237,1351.4567 0,1351.4567 -2.7614237,1351.4567 -5,1349.2181 -5,1346.4567 -5,1343.6952 -2.7614237,1341.4567 0,1341.4567 2.7614237,1341.4567 5,1343.6952 5,1346.4567 z" />
      <text style="font-size:30; vertical-align:top; fill-opacity:1.0; fill:darkblue; text-anchor:right; stroke:none; font-weight:normal; font-style:italic; text-align:right; " transform="" id="B.BWC.text" y="1339.45669291" x="7.0">
BWC</text>
      <circle style="stroke:red; stroke-width:1; fill:red; " transform="" cy="-141.732283465" cx="0.0" r="5" id="B.BSH" d="M 5,-141.73228 C 5,-138.97086 2.7614237,-136.73228 0,-136.73228 -2.7614237,-136.73228 -5,-138.97086 -5,-141.73228 -5,-144.49371 -2.7614237,-146.73228 0,-146.73228 2.7614237,-146.73228 5,-144.49371 5,-141.73228 z" />
      <text style="font-size:30; vertical-align:top; fill-opacity:1.0; fill:darkblue; text-anchor:right; stroke:none; font-weight:normal; font-style:italic; text-align:right; " transform="" id="B.BSH.text" y="-148.732283465" x="7.0">
BSH</text>
      <circle style="stroke:red; stroke-width:1; fill:red; " transform="" cy="-141.732283465" cx="-708.661417323" r="5" id="B.BSW" d="M -703.66144,-141.73228 C -703.66144,-138.97086 -705.90001,-136.73228 -708.66144,-136.73228 -711.42286,-136.73228 -713.66144,-138.97086 -713.66144,-141.73228 -713.66144,-144.49371 -711.42286,-146.73228 -708.66144,-146.73228 -705.90001,-146.73228 -703.66144,-144.49371 -703.66144,-141.73228 z" />
      <text style="font-size:30; vertical-align:top; fill-opacity:1.0; fill:darkblue; text-anchor:right; stroke:none; font-weight:normal; font-style:italic; text-align:right; " transform="" id="B.BSW.text" y="-148.732283465" x="-701.661417323">
BSW</text>
      <circle style="stroke:gray; stroke-width:1; fill:none; " transform="" cy="130.711716533" cx="-690.415334864" r="5" id="B.BSP.inpoint" d="M -685.41534,130.71172 C -685.41534,133.47314 -687.65392,135.71172 -690.41534,135.71172 -693.17677,135.71172 -695.41534,133.47314 -695.41534,130.71172 -695.41534,127.95029 -693.17677,125.71172 -690.41534,125.71172 -687.65392,125.71172 -685.41534,127.95029 -685.41534,130.71172 z" />
      <text style="font-size:25; vertical-align:top; fill-opacity:1.0; fill:gray; text-anchor:right; stroke:none; font-weight:normal; font-style:italic; text-align:right; " transform="" id="B.BSP.inpoint.text" y="123.711716533" x="-683.415334864">
BSP.in</text>
      <circle style="stroke:red; stroke-width:1; fill:red; " transform="" cy="82.1684498171" cx="-715.624177057" r="5" id="B.BSP" d="M -710.62421,82.168449 C -710.62421,84.929873 -712.86278,87.168449 -715.62421,87.168449 -718.38563,87.168449 -720.62421,84.929873 -720.62421,82.168449 -720.62421,79.407026 -718.38563,77.168449 -715.62421,77.168449 -712.86278,77.168449 -710.62421,79.407026 -710.62421,82.168449 z" />
      <text style="font-size:30; vertical-align:top; fill-opacity:1.0; fill:darkblue; text-anchor:right; stroke:none; font-weight:normal; font-style:italic; text-align:right; " transform="" id="B.BSP.text" y="75.1684498171" x="-708.624177057">
BSP</text>
      <circle style="stroke:gray; stroke-width:1; fill:none; " transform="" cy="-78.3927191927" cx="-252.688753608" r="5" id="B.BNS.outpoint" d="M -247.68875,-78.392715 C -247.68875,-75.631292 -249.92733,-73.392715 -252.68875,-73.392715 -255.45017,-73.392715 -257.68875,-75.631292 -257.68875,-78.392715 -257.68875,-81.154139 -255.45017,-83.392715 -252.68875,-83.392715 -249.92733,-83.392715 -247.68875,-81.154139 -247.68875,-78.392715 z" />
      <text style="font-size:25; vertical-align:top; fill-opacity:1.0; fill:gray; text-anchor:right; stroke:none; font-weight:normal; font-style:italic; text-align:right; " transform="" id="B.BNS.outpoint.text" y="-85.3927191927" x="-245.688753608">
BNS.out</text>
      <circle style="stroke:red; stroke-width:1; fill:red; " transform="" cy="-141.732283465" cx="-284.470975712" r="5" id="B.BNS" d="M -279.47098,-141.73228 C -279.47098,-138.97086 -281.70955,-136.73228 -284.47098,-136.73228 -287.2324,-136.73228 -289.47098,-138.97086 -289.47098,-141.73228 -289.47098,-144.49371 -287.2324,-146.73228 -284.47098,-146.73228 -281.70955,-146.73228 -279.47098,-144.49371 -279.47098,-141.73228 z" />
      <text style="font-size:30; vertical-align:top; fill-opacity:1.0; fill:darkblue; text-anchor:right; stroke:none; font-weight:normal; font-style:italic; text-align:right; " transform="" id="B.BNS.text" y="-148.732283465" x="-277.470975712">
BNS</text>
      <circle style="stroke:red; stroke-width:1; fill:red; " transform="" cy="637.795275591" cx="0.0" r="5" id="B.BUC" d="M 5,637.79529 C 5,640.55671 2.7614237,642.79529 0,642.79529 -2.7614237,642.79529 -5,640.55671 -5,637.79529 -5,635.03386 -2.7614237,632.79529 0,632.79529 2.7614237,632.79529 5,635.03386 5,637.79529 z" />
      <text style="font-size:30; vertical-align:top; fill-opacity:1.0; fill:darkblue; text-anchor:right; stroke:none; font-weight:normal; font-style:italic; text-align:right; " transform="" id="B.BUC.text" y="630.795275591" x="7.0">
BUC</text>
      <circle style="stroke:red; stroke-width:1; fill:red; " transform="" cy="637.795275591" cx="-627.342519685" r="5" id="B.b7" d="M -622.34253,637.79529 C -622.34253,640.55671 -624.58111,642.79529 -627.34253,642.79529 -630.10395,642.79529 -632.34253,640.55671 -632.34253,637.79529 -632.34253,635.03386 -630.10395,632.79529 -627.34253,632.79529 -624.58111,632.79529 -622.34253,635.03386 -622.34253,637.79529 z" />
      <text style="font-size:30; vertical-align:top; fill-opacity:1.0; fill:darkblue; text-anchor:right; stroke:none; font-weight:normal; font-style:italic; text-align:right; " transform="" id="B.b7.text" y="630.795275591" x="-620.342519685">
b7</text>
      <circle style="stroke:red; stroke-width:1; fill:red; " transform="" cy="425.196850394" cx="0.0" r="5" id="B.BAC" d="M 5,425.19684 C 5,427.95826 2.7614237,430.19684 0,430.19684 -2.7614237,430.19684 -5,427.95826 -5,425.19684 -5,422.43541 -2.7614237,420.19684 0,420.19684 2.7614237,420.19684 5,422.43541 5,425.19684 z" />
      <text style="font-size:30; vertical-align:top; fill-opacity:1.0; fill:darkblue; text-anchor:right; stroke:none; font-weight:normal; font-style:italic; text-align:right; " transform="" id="B.BAC.text" y="418.196850394" x="7.0">
BAC</text>
      <circle style="stroke:gray; stroke-width:1; fill:none; " transform="" cy="637.795275591" cx="-627.342519685" r="5" id="B.BAS.inpoint" d="M -622.34253,637.79529 C -622.34253,640.55671 -624.58111,642.79529 -627.34253,642.79529 -630.10395,642.79529 -632.34253,640.55671 -632.34253,637.79529 -632.34253,635.03386 -630.10395,632.79529 -627.34253,632.79529 -624.58111,632.79529 -622.34253,635.03386 -622.34253,637.79529 z" />
      <text style="font-size:25; vertical-align:top; fill-opacity:1.0; fill:gray; text-anchor:right; stroke:none; font-weight:normal; font-style:italic; text-align:right; " transform="" id="B.BAS.inpoint.text" y="630.795275591" x="-620.342519685">
BAS.in</text>
      <circle style="stroke:gray; stroke-width:1; fill:none; " transform="" cy="315.641150946" cx="-627.342519685" r="5" id="B.BAS.outpoint" d="M -622.34253,315.64114 C -622.34253,318.40257 -624.58111,320.64114 -627.34253,320.64114 -630.10395,320.64114 -632.34253,318.40257 -632.34253,315.64114 -632.34253,312.87972 -630.10395,310.64114 -627.34253,310.64114 -624.58111,310.64114 -622.34253,312.87972 -622.34253,315.64114 z" />
      <text style="font-size:25; vertical-align:top; fill-opacity:1.0; fill:gray; text-anchor:right; stroke:none; font-weight:normal; font-style:italic; text-align:right; " transform="" id="B.BAS.outpoint.text" y="308.641150946" x="-620.342519685">
BAS.out</text>
      <circle style="stroke:red; stroke-width:1; fill:red; " transform="" cy="435.978023208" cx="-627.342519685" r="5" id="B.BAS" d="M -622.34253,435.97803 C -622.34253,438.73945 -624.58111,440.97803 -627.34253,440.97803 -630.10395,440.97803 -632.34253,438.73945 -632.34253,435.97803 -632.34253,433.2166 -630.10395,430.97803 -627.34253,430.97803 -624.58111,430.97803 -622.34253,433.2166 -622.34253,435.97803 z" />
      <text style="font-size:30; vertical-align:top; fill-opacity:1.0; fill:darkblue; text-anchor:right; stroke:none; font-weight:normal; font-style:italic; text-align:right; " transform="" id="B.BAS.text" y="428.978023208" x="-620.342519685">
BAS</text>
      <circle style="stroke:red; stroke-width:1; fill:red; " transform="" cy="637.795275591" cx="-885.826771654" r="5" id="B.b1" d="M -880.82678,637.79529 C -880.82678,640.55671 -883.06536,642.79529 -885.82678,642.79529 -888.58821,642.79529 -890.82678,640.55671 -890.82678,637.79529 -890.82678,635.03386 -888.58821,632.79529 -885.82678,632.79529 -883.06536,632.79529 -880.82678,635.03386 -880.82678,637.79529 z" />
      <text style="font-size:30; vertical-align:top; fill-opacity:1.0; fill:darkblue; text-anchor:right; stroke:none; font-weight:normal; font-style:italic; text-align:right; " transform="" id="B.b1.text" y="630.795275591" x="-878.826771654">
b1</text>
      <circle style="stroke:red; stroke-width:1; fill:red; " transform="" cy="637.795275591" cx="-383.761673202" r="5" id="B.BD1" d="M -378.76169,637.79529 C -378.76169,640.55671 -381.00026,642.79529 -383.76169,642.79529 -386.52311,642.79529 -388.76169,640.55671 -388.76169,637.79529 -388.76169,635.03386 -386.52311,632.79529 -383.76169,632.79529 -381.00026,632.79529 -378.76169,635.03386 -378.76169,637.79529 z" />
      <text style="font-size:30; vertical-align:top; fill-opacity:1.0; fill:darkblue; text-anchor:right; stroke:none; font-weight:normal; font-style:italic; text-align:right; " transform="" id="B.BD1.text" y="630.795275591" x="-376.761673202">
BD1</text>
      <circle style="stroke:red; stroke-width:1; fill:red; " transform="" cy="1346.45669291" cx="-383.761673202" r="5" id="B.b2" d="M -378.76169,1346.4567 C -378.76169,1349.2181 -381.00026,1351.4567 -383.76169,1351.4567 -386.52311,1351.4567 -388.76169,1349.2181 -388.76169,1346.4567 -388.76169,1343.6952 -386.52311,1341.4567 -383.76169,1341.4567 -381.00026,1341.4567 -378.76169,1343.6952 -378.76169,1346.4567 z" />
      <text style="font-size:30; vertical-align:top; fill-opacity:1.0; fill:darkblue; text-anchor:right; stroke:none; font-weight:normal; font-style:italic; text-align:right; " transform="" id="B.b2.text" y="1339.45669291" x="-376.761673202">
b2</text>
      <circle style="stroke:red; stroke-width:1; fill:red; " transform="" cy="1346.45669291" cx="-307.009338562" r="5" id="B.b3" d="M -302.00934,1346.4567 C -302.00934,1349.2181 -304.24791,1351.4567 -307.00934,1351.4567 -309.77076,1351.4567 -312.00934,1349.2181 -312.00934,1346.4567 -312.00934,1343.6952 -309.77076,1341.4567 -307.00934,1341.4567 -304.24791,1341.4567 -302.00934,1343.6952 -302.00934,1346.4567 z" />
      <text style="font-size:30; vertical-align:top; fill-opacity:1.0; fill:darkblue; text-anchor:right; stroke:none; font-weight:normal; font-style:italic; text-align:right; " transform="" id="B.b3.text" y="1339.45669291" x="-300.009338562">
b3</text>
      <circle style="stroke:red; stroke-width:1; fill:red; " transform="" cy="1346.45669291" cx="-460.514007842" r="5" id="B.b4" d="M -455.51401,1346.4567 C -455.51401,1349.2181 -457.75258,1351.4567 -460.51401,1351.4567 -463.27543,1351.4567 -465.51401,1349.2181 -465.51401,1346.4567 -465.51401,1343.6952 -463.27543,1341.4567 -460.51401,1341.4567 -457.75258,1341.4567 -455.51401,1343.6952 -455.51401,1346.4567 z" />
      <text style="font-size:30; vertical-align:top; fill-opacity:1.0; fill:darkblue; text-anchor:right; stroke:none; font-weight:normal; font-style:italic; text-align:right; " transform="" id="B.b4.text" y="1339.45669291" x="-453.514007842">
b4</text>
      <circle style="stroke:gray; stroke-width:1; fill:none; " transform="" cy="1346.45669291" cx="-234.382038208" r="5" id="B.BD1.i.inpoint" d="M -229.38203,1346.4567 C -229.38203,1349.2181 -231.62061,1351.4567 -234.38203,1351.4567 -237.14346,1351.4567 -239.38203,1349.2181 -239.38203,1346.4567 -239.38203,1343.6952 -237.14346,1341.4567 -234.38203,1341.4567 -231.62061,1341.4567 -229.38203,1343.6952 -229.38203,1346.4567 z" />
      <text style="font-size:25; vertical-align:top; fill-opacity:1.0; fill:gray; text-anchor:right; stroke:none; font-weight:normal; font-style:italic; text-align:right; " transform="" id="B.BD1.i.inpoint.text" y="1339.45669291" x="-227.382038208">
BD1.i.in</text>
      <circle style="stroke:red; stroke-width:1; fill:red; " transform="" cy="1354.23147081" cx="-306.167282905" r="5" id="B.BD1.i" d="M -301.1673,1354.2314 C -301.1673,1356.9929 -303.40587,1359.2314 -306.1673,1359.2314 -308.92872,1359.2314 -311.1673,1356.9929 -311.1673,1354.2314 -311.1673,1351.47 -308.92872,1349.2314 -306.1673,1349.2314 -303.40587,1349.2314 -301.1673,1351.47 -301.1673,1354.2314 z" />
      <text style="font-size:30; vertical-align:top; fill-opacity:1.0; fill:darkblue; text-anchor:right; stroke:none; font-weight:normal; font-style:italic; text-align:right; " transform="" id="B.BD1.i.text" y="1347.23147081" x="-299.167282905">
BD1.i</text>
      <circle style="stroke:gray; stroke-width:1; fill:none; " transform="" cy="1345.96951924" cx="-537.639427833" r="5" id="B.BD1.o.outpoint" d="M -532.6394,1345.9695 C -532.6394,1348.7309 -534.87798,1350.9695 -537.6394,1350.9695 -540.40083,1350.9695 -542.6394,1348.7309 -542.6394,1345.9695 -542.6394,1343.2081 -540.40083,1340.9695 -537.6394,1340.9695 -534.87798,1340.9695 -532.6394,1343.2081 -532.6394,1345.9695 z" />
      <text style="font-size:25; vertical-align:top; fill-opacity:1.0; fill:gray; text-anchor:right; stroke:none; font-weight:normal; font-style:italic; text-align:right; " transform="" id="B.BD1.o.outpoint.text" y="1338.96951924" x="-530.639427833">
BD1.o.out</text>
      <circle style="stroke:red; stroke-width:1; fill:red; " transform="" cy="1354.23147081" cx="-461.356063499" r="5" id="B.BD1.o" d="M -456.35605,1354.2314 C -456.35605,1356.9929 -458.59462,1359.2314 -461.35605,1359.2314 -464.11747,1359.2314 -466.35605,1356.9929 -466.35605,1354.2314 -466.35605,1351.47 -464.11747,1349.2314 -461.35605,1349.2314 -458.59462,1349.2314 -456.35605,1351.47 -456.35605,1354.2314 z" />
      <text style="font-size:30; vertical-align:top; fill-opacity:1.0; fill:darkblue; text-anchor:right; stroke:none; font-weight:normal; font-style:italic; text-align:right; " transform="" id="B.BD1.o.text" y="1347.23147081" x="-454.356063499">
BD1.o</text>
      <circle style="stroke:red; stroke-width:1; fill:red; " transform="" cy="1343.98784763" cx="-826.724693851" r="5" id="B.b5" d="M -821.72467,1343.9878 C -821.72467,1346.7492 -823.96325,1348.9878 -826.72467,1348.9878 -829.48609,1348.9878 -831.72467,1346.7492 -831.72467,1343.9878 -831.72467,1341.2264 -829.48609,1338.9878 -826.72467,1338.9878 -823.96325,1338.9878 -821.72467,1341.2264 -821.72467,1343.9878 z" />
      <text style="font-size:30; vertical-align:top; fill-opacity:1.0; fill:darkblue; text-anchor:right; stroke:none; font-weight:normal; font-style:italic; text-align:right; " transform="" id="B.b5.text" y="1336.98784763" x="-819.724693851">
b5</text>
      <circle style="stroke:red; stroke-width:1; fill:red; " transform="" cy="637.795275591" cx="-918.070866142" r="5" id="B.b6" d="M -913.07086,637.79529 C -913.07086,640.55671 -915.30944,642.79529 -918.07086,642.79529 -920.83229,642.79529 -923.07086,640.55671 -923.07086,637.79529 -923.07086,635.03386 -920.83229,632.79529 -918.07086,632.79529 -915.30944,632.79529 -913.07086,635.03386 -913.07086,637.79529 z" />
      <text style="font-size:30; vertical-align:top; fill-opacity:1.0; fill:darkblue; text-anchor:right; stroke:none; font-weight:normal; font-style:italic; text-align:right; " transform="" id="B.b6.text" y="630.795275591" x="-911.070866142">
b6</text>
      <circle style="stroke:gray; stroke-width:1; fill:none; " transform="" cy="1344.80107546" cx="-722.618056563" r="5" id="B.BWS.inpoint" d="M -717.61804,1344.801 C -717.61804,1347.5624 -719.85662,1349.801 -722.61804,1349.801 -725.37947,1349.801 -727.61804,1347.5624 -727.61804,1344.801 -727.61804,1342.0396 -725.37947,1339.801 -722.61804,1339.801 -719.85662,1339.801 -717.61804,1342.0396 -717.61804,1344.801 z" />
      <text style="font-size:25; vertical-align:top; fill-opacity:1.0; fill:gray; text-anchor:right; stroke:none; font-weight:normal; font-style:italic; text-align:right; " transform="" id="B.BWS.inpoint.text" y="1337.80107546" x="-715.618056563">
BWS.in</text>
      <circle style="stroke:red; stroke-width:1; fill:red; " transform="" cy="1343.98784763" cx="-851.361750937" r="5" id="B.BWS" d="M -846.36176,1343.9878 C -846.36176,1346.7492 -848.60033,1348.9878 -851.36176,1348.9878 -854.12318,1348.9878 -856.36176,1346.7492 -856.36176,1343.9878 -856.36176,1341.2264 -854.12318,1338.9878 -851.36176,1338.9878 -848.60033,1338.9878 -846.36176,1341.2264 -846.36176,1343.9878 z" />
      <text style="font-size:30; vertical-align:top; fill-opacity:1.0; fill:darkblue; text-anchor:right; stroke:none; font-weight:normal; font-style:italic; text-align:right; " transform="" id="B.BWS.text" y="1336.98784763" x="-844.361750937">
BWS</text>
      <circle style="stroke:gray; stroke-width:1; fill:none; " transform="" cy="734.910965532" cx="-815.843211147" r="5" id="B.BUS.outpoint" d="M -810.8432,734.91095 C -810.8432,737.67237 -813.08178,739.91095 -815.8432,739.91095 -818.60462,739.91095 -820.8432,737.67237 -820.8432,734.91095 -820.8432,732.14953 -818.60462,729.91095 -815.8432,729.91095 -813.08178,729.91095 -810.8432,732.14953 -810.8432,734.91095 z" />
      <text style="font-size:25; vertical-align:top; fill-opacity:1.0; fill:gray; text-anchor:right; stroke:none; font-weight:normal; font-style:italic; text-align:right; " transform="" id="B.BUS.outpoint.text" y="727.910965532" x="-808.843211147">
BUS.out</text>
      <circle style="stroke:red; stroke-width:1; fill:red; " transform="" cy="743.623370461" cx="-908.074019882" r="5" id="B.BUS" d="M -903.07404,743.62335 C -903.07404,746.38478 -905.31261,748.62335 -908.07404,748.62335 -910.83546,748.62335 -913.07404,746.38478 -913.07404,743.62335 -913.07404,740.86193 -910.83546,738.62335 -908.07404,738.62335 -905.31261,738.62335 -903.07404,740.86193 -903.07404,743.62335 z" />
      <text style="font-size:30; vertical-align:top; fill-opacity:1.0; fill:darkblue; text-anchor:right; stroke:none; font-weight:normal; font-style:italic; text-align:right; " transform="" id="B.BUS.text" y="736.623370461" x="-901.074019882">
BUS</text>
      <circle style="stroke:red; stroke-width:1; fill:red; " transform="" cy="104.234043908" cx="-430.45219408" r="5" id="B.BD2" d="M -425.45218,104.23405 C -425.45218,106.99547 -427.69076,109.23405 -430.45218,109.23405 -433.2136,109.23405 -435.45218,106.99547 -435.45218,104.23405 -435.45218,101.47262 -433.2136,99.234047 -430.45218,99.234047 -427.69076,99.234047 -425.45218,101.47262 -425.45218,104.23405 z" />
      <text style="font-size:30; vertical-align:top; fill-opacity:1.0; fill:darkblue; text-anchor:right; stroke:none; font-weight:normal; font-style:italic; text-align:right; " transform="" id="B.BD2.text" y="97.2340439084" x="-423.45219408">
BD2</text>
      <circle style="stroke:red; stroke-width:1; fill:red; " transform="" cy="-51.9514480849" cx="-496.566196517" r="5" id="B.BD2.i" d="M -491.56619,-51.951447 C -491.56619,-49.190023 -493.80477,-46.951447 -496.56619,-46.951447 -499.32762,-46.951447 -501.56619,-49.190023 -501.56619,-51.951447 -501.56619,-54.71287 -499.32762,-56.951447 -496.56619,-56.951447 -493.80477,-56.951447 -491.56619,-54.71287 -491.56619,-51.951447 z" />
      <text style="font-size:30; vertical-align:top; fill-opacity:1.0; fill:darkblue; text-anchor:right; stroke:none; font-weight:normal; font-style:italic; text-align:right; " transform="" id="B.BD2.i.text" y="-58.9514480849" x="-489.566196517">
BD2.i</text>
      <circle style="stroke:red; stroke-width:1; fill:red; " transform="" cy="-39.6860369005" cx="-520.185017325" r="5" id="B.BD2.o" d="M -515.185,-39.686035 C -515.185,-36.924611 -517.42357,-34.686035 -520.185,-34.686035 -522.94642,-34.686035 -525.185,-36.924611 -525.185,-39.686035 -525.185,-42.447459 -522.94642,-44.686035 -520.185,-44.686035 -517.42357,-44.686035 -515.185,-42.447459 -515.185,-39.686035 z" />
      <text style="font-size:30; vertical-align:top; fill-opacity:1.0; fill:darkblue; text-anchor:right; stroke:none; font-weight:normal; font-style:italic; text-align:right; " transform="" id="B.BD2.o.text" y="-46.6860369005" x="-513.185017325">
BD2.o</text>
      <path style="stroke-linejoin:miter; stroke-dashoffset:0; stroke:gray; stroke-miterlimit:4; stroke-dasharray:6,6; stroke-width:2; fill:none; " transform="" d="M 0.0  1346.45669291 L -715.624177057  82.1684498171 L -708.661417323  -141.732283465 L 0.0  -141.732283465 L 0.0  637.795275591 L -918.070866142  637.795275591 L -908.074019882  743.623370461 M -885.826771654  637.795275591 L -826.724693851  1343.98784763 L -851.361750937  1343.98784763 M 0.0  425.196850394 L -627.342519685  435.978023208 " id="B.gridline" />
    </g>
    <g id="document.bodice.Bodice Sleeve.reference" transform=" translate(679.953399, 2240.132645)">
      <circle style="stroke:red; stroke-width:1; fill:red; " transform="" cy="0" cx="0" r="5" id="C.SCM" d="M 5,0 C 5,2.7614237 2.7614237,5 0,5 -2.7614237,5 -5,2.7614237 -5,0 -5,-2.7614237 -2.7614237,-5 0,-5 2.7614237,-5 5,-2.7614237 5,0 z" />
      <text style="font-size:30; vertical-align:top; fill-opacity:1.0; fill:darkblue; text-anchor:right; stroke:none; font-weight:normal; font-style:italic; text-align:right; " transform="" id="C.SCM.text" y="-7" x="7">
SCM</text>
      <circle style="stroke:red; stroke-width:1; fill:red; " transform="" cy="2161.41732283" cx="0" r="5" id="C.SWM" d="M 5,2161.4172 C 5,2164.1787 2.7614237,2166.4172 0,2166.4172 -2.7614237,2166.4172 -5,2164.1787 -5,2161.4172 -5,2158.6558 -2.7614237,2156.4172 0,2156.4172 2.7614237,2156.4172 5,2158.6558 5,2161.4172 z" />
      <text style="font-size:30; vertical-align:top; fill-opacity:1.0; fill:darkblue; text-anchor:right; stroke:none; font-weight:normal; font-style:italic; text-align:right; " transform="" id="C.SWM.text" y="2154.41732283" x="7">
SWM</text>
      <circle style="stroke:red; stroke-width:1; fill:red; " transform="" cy="425.196850394" cx="0" r="5" id="C.SUM" d="M 5,425.19684 C 5,427.95826 2.7614237,430.19684 0,430.19684 -2.7614237,430.19684 -5,427.95826 -5,425.19684 -5,422.43541 -2.7614237,420.19684 0,420.19684 2.7614237,420.19684 5,422.43541 5,425.19684 z" />
      <text style="font-size:30; vertical-align:top; fill-opacity:1.0; fill:darkblue; text-anchor:right; stroke:none; font-weight:normal; font-style:italic; text-align:right; " transform="" id="C.SUM.text" y="418.196850394" x="7">
SUM</text>
      <circle style="stroke:red; stroke-width:1; fill:red; " transform="" cy="492.696850394" cx="0" r="5" id="C.SUM1" d="M 5,492.69684 C 5,495.45826 2.7614237,497.69684 0,497.69684 -2.7614237,497.69684 -5,495.45826 -5,492.69684 -5,489.93541 -2.7614237,487.69684 0,487.69684 2.7614237,487.69684 5,489.93541 5,492.69684 z" />
      <text style="font-size:30; vertical-align:top; fill-opacity:1.0; fill:darkblue; text-anchor:right; stroke:none; font-weight:normal; font-style:italic; text-align:right; " transform="" id="C.SUM1.text" y="485.696850394" x="7">
SUM1</text>
      <circle style="stroke:red; stroke-width:1; fill:red; " transform="" cy="1293.30708661" cx="0.0" r="5" id="C.SEM1" d="M 5,1293.3071 C 5,1296.0686 2.7614237,1298.3071 0,1298.3071 -2.7614237,1298.3071 -5,1296.0686 -5,1293.3071 -5,1290.5457 -2.7614237,1288.3071 0,1288.3071 2.7614237,1288.3071 5,1290.5457 5,1293.3071 z" />
      <text style="font-size:30; vertical-align:top; fill-opacity:1.0; fill:darkblue; text-anchor:right; stroke:none; font-weight:normal; font-style:italic; text-align:right; " transform="" id="C.SEM1.text" y="1286.30708661" x="7.0">
SEM1</text>
      <circle style="stroke:red; stroke-width:1; fill:red; " transform="" cy="1203.30708661" cx="0.0" r="5" id="C.SEM" d="M 5,1203.3071 C 5,1206.0686 2.7614237,1208.3071 0,1208.3071 -2.7614237,1208.3071 -5,1206.0686 -5,1203.3071 -5,1200.5457 -2.7614237,1198.3071 0,1198.3071 2.7614237,1198.3071 5,1200.5457 5,1203.3071 z" />
      <text style="font-size:30; vertical-align:top; fill-opacity:1.0; fill:darkblue; text-anchor:right; stroke:none; font-weight:normal; font-style:italic; text-align:right; " transform="" id="C.SEM.text" y="1196.30708661" x="7.0">
SEM</text>
      <circle style="stroke:red; stroke-width:1; fill:red; " transform="" cy="1203.30708661" cx="265.748031496" r="5" id="C.SEF1" d="M 270.74802,1203.3071 C 270.74802,1206.0686 268.50944,1208.3071 265.74802,1208.3071 262.98659,1208.3071 260.74802,1206.0686 260.74802,1203.3071 260.74802,1200.5457 262.98659,1198.3071 265.74802,1198.3071 268.50944,1198.3071 270.74802,1200.5457 270.74802,1203.3071 z" />
      <text style="font-size:30; vertical-align:top; fill-opacity:1.0; fill:darkblue; text-anchor:right; stroke:none; font-weight:normal; font-style:italic; text-align:right; " transform="" id="C.SEF1.text" y="1196.30708661" x="272.748031496">
SEF1</text>
      <circle style="stroke:red; stroke-width:1; fill:red; " transform="" cy="1203.30708661" cx="-265.748031496" r="5" id="C.SEB1" d="M -260.74802,1203.3071 C -260.74802,1206.0686 -262.98659,1208.3071 -265.74802,1208.3071 -268.50944,1208.3071 -270.74802,1206.0686 -270.74802,1203.3071 -270.74802,1200.5457 -268.50944,1198.3071 -265.74802,1198.3071 -262.98659,1198.3071 -260.74802,1200.5457 -260.74802,1203.3071 z" />
      <text style="font-size:30; vertical-align:top; fill-opacity:1.0; fill:darkblue; text-anchor:right; stroke:none; font-weight:normal; font-style:italic; text-align:right; " transform="" id="C.SEB1.text" y="1196.30708661" x="-258.748031496">
SEB1</text>
      <circle style="stroke:red; stroke-width:1; fill:red; " transform="" cy="492.696850394" cx="292.322834646" r="5" id="C.SUF1" d="M 297.32285,492.69684 C 297.32285,495.45826 295.08427,497.69684 292.32285,497.69684 289.56142,497.69684 287.32285,495.45826 287.32285,492.69684 287.32285,489.93541 289.56142,487.69684 292.32285,487.69684 295.08427,487.69684 297.32285,489.93541 297.32285,492.69684 z" />
      <text style="font-size:30; vertical-align:top; fill-opacity:1.0; fill:darkblue; text-anchor:right; stroke:none; font-weight:normal; font-style:italic; text-align:right; " transform="" id="C.SUF1.text" y="485.696850394" x="299.322834646">
SUF1</text>
      <circle style="stroke:red; stroke-width:1; fill:red; " transform="" cy="492.696850394" cx="-292.322834646" r="5" id="C.SUB1" d="M -287.32285,492.69684 C -287.32285,495.45826 -289.56142,497.69684 -292.32285,497.69684 -295.08427,497.69684 -297.32285,495.45826 -297.32285,492.69684 -297.32285,489.93541 -295.08427,487.69684 -292.32285,487.69684 -289.56142,487.69684 -287.32285,489.93541 -287.32285,492.69684 z" />
      <text style="font-size:30; vertical-align:top; fill-opacity:1.0; fill:darkblue; text-anchor:right; stroke:none; font-weight:normal; font-style:italic; text-align:right; " transform="" id="C.SUB1.text" y="485.696850394" x="-285.322834646">
SUB1</text>
      <circle style="stroke:red; stroke-width:1; fill:red; " transform="" cy="0" cx="310.748296515" r="5" id="C.SCF" d="M 315.74829,0 C 315.74829,2.7614237 313.50971,5 310.74829,5 307.98687,5 305.74829,2.7614237 305.74829,0 305.74829,-2.7614237 307.98687,-5 310.74829,-5 313.50971,-5 315.74829,-2.7614237 315.74829,0 z" />
      <text style="font-size:30; vertical-align:top; fill-opacity:1.0; fill:darkblue; text-anchor:right; stroke:none; font-weight:normal; font-style:italic; text-align:right; " transform="" id="C.SCF.text" y="-7" x="317.748296515">
SCF</text>
      <circle style="stroke:red; stroke-width:1; fill:red; " transform="" cy="0" cx="-310.748296515" r="5" id="C.SCB" d="M -305.74829,0 C -305.74829,2.7614237 -307.98687,5 -310.74829,5 -313.50971,5 -315.74829,2.7614237 -315.74829,0 -315.74829,-2.7614237 -313.50971,-5 -310.74829,-5 -307.98687,-5 -305.74829,-2.7614237 -305.74829,0 z" />
      <text style="font-size:30; vertical-align:top; fill-opacity:1.0; fill:darkblue; text-anchor:right; stroke:none; font-weight:normal; font-style:italic; text-align:right; " transform="" id="C.SCB.text" y="-7" x="-303.748296515">
SCB</text>
      <circle style="stroke:red; stroke-width:1; fill:red; " transform="" cy="2161.41732283" cx="229.917431787" r="5" id="C.SWF1" d="M 234.91743,2161.4172 C 234.91743,2164.1787 232.67886,2166.4172 229.91743,2166.4172 227.15601,2166.4172 224.91743,2164.1787 224.91743,2161.4172 224.91743,2158.6558 227.15601,2156.4172 229.91743,2156.4172 232.67886,2156.4172 234.91743,2158.6558 234.91743,2161.4172 z" />
      <text style="font-size:30; vertical-align:top; fill-opacity:1.0; fill:darkblue; text-anchor:right; stroke:none; font-weight:normal; font-style:italic; text-align:right; " transform="" id="C.SWF1.text" y="2154.41732283" x="236.917431787">
SWF1</text>
      <circle style="stroke:red; stroke-width:1; fill:red; " transform="" cy="2161.41732283" cx="-229.917431787" r="5" id="C.SWB1" d="M -224.91743,2161.4172 C -224.91743,2164.1787 -227.15601,2166.4172 -229.91743,2166.4172 -232.67886,2166.4172 -234.91743,2164.1787 -234.91743,2161.4172 -234.91743,2158.6558 -232.67886,2156.4172 -229.91743,2156.4172 -227.15601,2156.4172 -224.91743,2158.6558 -224.91743,2161.4172 z" />
      <text style="font-size:30; vertical-align:top; fill-opacity:1.0; fill:darkblue; text-anchor:right; stroke:none; font-weight:normal; font-style:italic; text-align:right; " transform="" id="C.SWB1.text" y="2154.41732283" x="-222.917431787">
SWB1</text>
      <circle style="stroke:red; stroke-width:1; fill:red; " transform="" cy="246.348425197" cx="301.53556558" r="5" id="C.s1" d="M 306.53555,246.34842 C 306.53555,249.10984 304.29698,251.34842 301.53555,251.34842 298.77413,251.34842 296.53555,249.10984 296.53555,246.34842 296.53555,243.587 298.77413,241.34842 301.53555,241.34842 304.29698,241.34842 306.53555,243.587 306.53555,246.34842 z" />
      <text style="font-size:30; vertical-align:top; fill-opacity:1.0; fill:darkblue; text-anchor:right; stroke:none; font-weight:normal; font-style:italic; text-align:right; " transform="" id="C.s1.text" y="239.348425197" x="308.53556558">
s1</text>
      <circle style="stroke:red; stroke-width:1; fill:red; " transform="" cy="178.89557672" cx="304.0581104" r="5" id="C.s2" d="M 309.05811,178.89558 C 309.05811,181.65701 306.81953,183.89558 304.05811,183.89558 301.29668,183.89558 299.05811,181.65701 299.05811,178.89558 299.05811,176.13416 301.29668,173.89558 304.05811,173.89558 306.81953,173.89558 309.05811,176.13416 309.05811,178.89558 z" />
      <text style="font-size:30; vertical-align:top; fill-opacity:1.0; fill:darkblue; text-anchor:right; stroke:none; font-weight:normal; font-style:italic; text-align:right; " transform="" id="C.s2.text" y="171.89557672" x="311.0581104">
s2</text>
      <circle style="stroke:red; stroke-width:1; fill:red; " transform="" cy="246.348425197" cx="-301.53556558" r="5" id="C.s3" d="M -296.53555,246.34842 C -296.53555,249.10984 -298.77413,251.34842 -301.53555,251.34842 -304.29698,251.34842 -306.53555,249.10984 -306.53555,246.34842 -306.53555,243.587 -304.29698,241.34842 -301.53555,241.34842 -298.77413,241.34842 -296.53555,243.587 -296.53555,246.34842 z" />
      <text style="font-size:30; vertical-align:top; fill-opacity:1.0; fill:darkblue; text-anchor:right; stroke:none; font-weight:normal; font-style:italic; text-align:right; " transform="" id="C.s3.text" y="239.348425197" x="-294.53556558">
s3</text>
      <circle style="stroke:red; stroke-width:1; fill:red; " transform="" cy="178.89557672" cx="-304.0581104" r="5" id="C.s4" d="M -299.05811,178.89558 C -299.05811,181.65701 -301.29668,183.89558 -304.05811,183.89558 -306.81953,183.89558 -309.05811,181.65701 -309.05811,178.89558 -309.05811,176.13416 -306.81953,173.89558 -304.05811,173.89558 -301.29668,173.89558 -299.05811,176.13416 -299.05811,178.89558 z" />
      <text style="font-size:30; vertical-align:top; fill-opacity:1.0; fill:darkblue; text-anchor:right; stroke:none; font-weight:normal; font-style:italic; text-align:right; " transform="" id="C.s4.text" y="171.89557672" x="-297.0581104">
s4</text>
      <circle style="stroke:red; stroke-width:1; fill:red; " transform="" cy="0.0" cx="155.374148258" r="5" id="C.s5" d="M 160.37415,0 C 160.37415,2.7614237 158.13557,5 155.37415,5 152.61272,5 150.37415,2.7614237 150.37415,0 150.37415,-2.7614237 152.61272,-5 155.37415,-5 158.13557,-5 160.37415,-2.7614237 160.37415,0 z" />
      <text style="font-size:30; vertical-align:top; fill-opacity:1.0; fill:darkblue; text-anchor:right; stroke:none; font-weight:normal; font-style:italic; text-align:right; " transform="" id="C.s5.text" y="-7.0" x="162.374148258">
s5</text>
      <circle style="stroke:red; stroke-width:1; fill:red; " transform="" cy="0.0" cx="-155.374148258" r="5" id="C.s6" d="M -150.37415,0 C -150.37415,2.7614237 -152.61272,5 -155.37415,5 -158.13557,5 -160.37415,2.7614237 -160.37415,0 -160.37415,-2.7614237 -158.13557,-5 -155.37415,-5 -152.61272,-5 -150.37415,-2.7614237 -150.37415,0 z" />
      <text style="font-size:30; vertical-align:top; fill-opacity:1.0; fill:darkblue; text-anchor:right; stroke:none; font-weight:normal; font-style:italic; text-align:right; " transform="" id="C.s6.text" y="-7.0" x="-148.374148258">
s6</text>
      <circle style="stroke:red; stroke-width:1; fill:red; " transform="" cy="492.696850394" cx="146.161417323" r="5" id="C.s7" d="M 151.16142,492.69684 C 151.16142,495.45826 148.92285,497.69684 146.16142,497.69684 143.4,497.69684 141.16142,495.45826 141.16142,492.69684 141.16142,489.93541 143.4,487.69684 146.16142,487.69684 148.92285,487.69684 151.16142,489.93541 151.16142,492.69684 z" />
      <text style="font-size:30; vertical-align:top; fill-opacity:1.0; fill:darkblue; text-anchor:right; stroke:none; font-weight:normal; font-style:italic; text-align:right; " transform="" id="C.s7.text" y="485.696850394" x="153.161417323">
s7</text>
      <circle style="stroke:red; stroke-width:1; fill:red; " transform="" cy="492.696850394" cx="-90.0" r="5" id="C.s8" d="M -85,492.69684 C -85,495.45826 -87.238576,497.69684 -90,497.69684 -92.761424,497.69684 -95,495.45826 -95,492.69684 -95,489.93541 -92.761424,487.69684 -90,487.69684 -87.238576,487.69684 -85,489.93541 -85,492.69684 z" />
      <text style="font-size:30; vertical-align:top; fill-opacity:1.0; fill:darkblue; text-anchor:right; stroke:none; font-weight:normal; font-style:italic; text-align:right; " transform="" id="C.s8.text" y="485.696850394" x="-83.0">
s8</text>
      <circle style="stroke:red; stroke-width:1; fill:red; " transform="" cy="89.44778836" cx="229.716129329" r="5" id="C.s9" d="M 234.71613,89.447792 C 234.71613,92.209216 232.47755,94.447792 229.71613,94.447792 226.9547,94.447792 224.71613,92.209216 224.71613,89.447792 224.71613,86.686368 226.9547,84.447792 229.71613,84.447792 232.47755,84.447792 234.71613,86.686368 234.71613,89.447792 z" />
      <text style="font-size:30; vertical-align:top; fill-opacity:1.0; fill:darkblue; text-anchor:right; stroke:none; font-weight:normal; font-style:italic; text-align:right; " transform="" id="C.s9.text" y="82.44778836" x="236.716129329">
s9</text>
      <circle style="stroke:red; stroke-width:1; fill:red; " transform="" cy="98.0996817433" cx="-236.906904036" r="5" id="C.s10" d="M -231.90691,98.099678 C -231.90691,100.8611 -234.14548,103.09968 -236.90691,103.09968 -239.66833,103.09968 -241.90691,100.8611 -241.90691,98.099678 -241.90691,95.338254 -239.66833,93.099678 -236.90691,93.099678 -234.14548,93.099678 -231.90691,95.338254 -231.90691,98.099678 z" />
      <text style="font-size:30; vertical-align:top; fill-opacity:1.0; fill:darkblue; text-anchor:right; stroke:none; font-weight:normal; font-style:italic; text-align:right; " transform="" id="C.s10.text" y="91.0996817433" x="-229.906904036">
s10</text>
      <circle style="stroke:red; stroke-width:1; fill:red; " transform="" cy="335.796213557" cx="225.109763861" r="5" id="C.s11" d="M 230.10976,335.7962 C 230.10976,338.55763 227.87118,340.7962 225.10976,340.7962 222.34833,340.7962 220.10976,338.55763 220.10976,335.7962 220.10976,333.03478 222.34833,330.7962 225.10976,330.7962 227.87118,330.7962 230.10976,333.03478 230.10976,335.7962 z" />
      <text style="font-size:30; vertical-align:top; fill-opacity:1.0; fill:darkblue; text-anchor:right; stroke:none; font-weight:normal; font-style:italic; text-align:right; " transform="" id="C.s11.text" y="328.796213557" x="232.109763861">
s11</text>
      <circle style="stroke:red; stroke-width:1; fill:red; " transform="" cy="335.796213557" cx="-197.0290552" r="5" id="C.s12" d="M -192.02905,335.7962 C -192.02905,338.55763 -194.26763,340.7962 -197.02905,340.7962 -199.79048,340.7962 -202.02905,338.55763 -202.02905,335.7962 -202.02905,333.03478 -199.79048,330.7962 -197.02905,330.7962 -194.26763,330.7962 -192.02905,333.03478 -192.02905,335.7962 z" />
      <text style="font-size:30; vertical-align:top; fill-opacity:1.0; fill:darkblue; text-anchor:right; stroke:none; font-weight:normal; font-style:italic; text-align:right; " transform="" id="C.s12.text" y="328.796213557" x="-190.0290552">
s12</text>
      <circle style="stroke:red; stroke-width:1; fill:red; " transform="" cy="447.218941717" cx="588.870721972" r="5" id="C.SUF" d="M 593.87073,447.21893 C 593.87073,449.98036 591.63215,452.21893 588.87073,452.21893 586.1093,452.21893 583.87073,449.98036 583.87073,447.21893 583.87073,444.45751 586.1093,442.21893 588.87073,442.21893 591.63215,442.21893 593.87073,444.45751 593.87073,447.21893 z" />
      <text style="font-size:30; vertical-align:top; fill-opacity:1.0; fill:darkblue; text-anchor:right; stroke:none; font-weight:normal; font-style:italic; text-align:right; " transform="" id="C.SUF.text" y="440.218941717" x="595.870721972">
SUF</text>
      <circle style="stroke:red; stroke-width:1; fill:red; " transform="" cy="447.218941717" cx="-588.870721972" r="5" id="C.SUB" d="M -583.87073,447.21893 C -583.87073,449.98036 -586.1093,452.21893 -588.87073,452.21893 -591.63215,452.21893 -593.87073,449.98036 -593.87073,447.21893 -593.87073,444.45751 -591.63215,442.21893 -588.87073,442.21893 -586.1093,442.21893 -583.87073,444.45751 -583.87073,447.21893 z" />
      <text style="font-size:30; vertical-align:top; fill-opacity:1.0; fill:darkblue; text-anchor:right; stroke:none; font-weight:normal; font-style:italic; text-align:right; " transform="" id="C.SUB.text" y="440.218941717" x="-581.870721972">
SUB</text>
      <circle style="stroke:red; stroke-width:1; fill:red; " transform="" cy="514.530401498" cx="583.829156535" r="5" id="C.SUF2" d="M 588.82916,514.5304 C 588.82916,517.29182 586.59059,519.5304 583.82916,519.5304 581.06774,519.5304 578.82916,517.29182 578.82916,514.5304 578.82916,511.76897 581.06774,509.5304 583.82916,509.5304 586.59059,509.5304 588.82916,511.76897 588.82916,514.5304 z" />
      <text style="font-size:30; vertical-align:top; fill-opacity:1.0; fill:darkblue; text-anchor:right; stroke:none; font-weight:normal; font-style:italic; text-align:right; " transform="" id="C.SUF2.text" y="507.530401498" x="590.829156535">
SUF2</text>
      <circle style="stroke:red; stroke-width:1; fill:red; " transform="" cy="514.530401498" cx="-583.829156535" r="5" id="C.SUB2" d="M -578.82916,514.5304 C -578.82916,517.29182 -581.06774,519.5304 -583.82916,519.5304 -586.59059,519.5304 -588.82916,517.29182 -588.82916,514.5304 -588.82916,511.76897 -586.59059,509.5304 -583.82916,509.5304 -581.06774,509.5304 -578.82916,511.76897 -578.82916,514.5304 z" />
      <text style="font-size:30; vertical-align:top; fill-opacity:1.0; fill:darkblue; text-anchor:right; stroke:none; font-weight:normal; font-style:italic; text-align:right; " transform="" id="C.SUB2.text" y="507.530401498" x="-576.829156535">
SUB2</text>
      <circle style="stroke:red; stroke-width:1; fill:red; " transform="" cy="1223.15576944" cx="530.753778668" r="5" id="C.SEF" d="M 535.75378,1223.1558 C 535.75378,1225.9172 533.51521,1228.1558 530.75378,1228.1558 527.99236,1228.1558 525.75378,1225.9172 525.75378,1223.1558 525.75378,1220.3943 527.99236,1218.1558 530.75378,1218.1558 533.51521,1218.1558 535.75378,1220.3943 535.75378,1223.1558 z" />
      <text style="font-size:30; vertical-align:top; fill-opacity:1.0; fill:darkblue; text-anchor:right; stroke:none; font-weight:normal; font-style:italic; text-align:right; " transform="" id="C.SEF.text" y="1216.15576944" x="537.753778668">
SEF</text>
      <circle style="stroke:red; stroke-width:1; fill:red; " transform="" cy="1223.15576944" cx="-530.753778668" r="5" id="C.SEB" d="M -525.75378,1223.1558 C -525.75378,1225.9172 -527.99236,1228.1558 -530.75378,1228.1558 -533.51521,1228.1558 -535.75378,1225.9172 -535.75378,1223.1558 -535.75378,1220.3943 -533.51521,1218.1558 -530.75378,1218.1558 -527.99236,1218.1558 -525.75378,1220.3943 -525.75378,1223.1558 z" />
      <text style="font-size:30; vertical-align:top; fill-opacity:1.0; fill:darkblue; text-anchor:right; stroke:none; font-weight:normal; font-style:italic; text-align:right; " transform="" id="C.SEB.text" y="1216.15576944" x="-523.753778668">
SEB</text>
      <circle style="stroke:red; stroke-width:1; fill:red; " transform="" cy="2178.58982324" cx="459.192660866" r="5" id="C.SWF" d="M 464.19266,2178.5898 C 464.19266,2181.3513 461.95408,2183.5898 459.19266,2183.5898 456.43123,2183.5898 454.19266,2181.3513 454.19266,2178.5898 454.19266,2175.8284 456.43123,2173.5898 459.19266,2173.5898 461.95408,2173.5898 464.19266,2175.8284 464.19266,2178.5898 z" />
      <text style="font-size:30; vertical-align:top; fill-opacity:1.0; fill:darkblue; text-anchor:right; stroke:none; font-weight:normal; font-style:italic; text-align:right; " transform="" id="C.SWF.text" y="2171.58982324" x="466.192660866">
SWF</text>
      <circle style="stroke:red; stroke-width:1; fill:red; " transform="" cy="2178.58982324" cx="-459.192660866" r="5" id="C.SWB" d="M -454.19266,2178.5898 C -454.19266,2181.3513 -456.43123,2183.5898 -459.19266,2183.5898 -461.95408,2183.5898 -464.19266,2181.3513 -464.19266,2178.5898 -464.19266,2175.8284 -461.95408,2173.5898 -459.19266,2173.5898 -456.43123,2173.5898 -454.19266,2175.8284 -454.19266,2178.5898 z" />
      <text style="font-size:30; vertical-align:top; fill-opacity:1.0; fill:darkblue; text-anchor:right; stroke:none; font-weight:normal; font-style:italic; text-align:right; " transform="" id="C.SWB.text" y="2171.58982324" x="-452.192660866">
SWB</text>
      <path style="stroke-linejoin:miter; stroke-dashoffset:0; stroke:gray; stroke-miterlimit:4; stroke-dasharray:6,6; stroke-width:2; fill:none; " transform="" d="M -310.748296515  0 L 310.748296515  0 L 229.917431787  2161.41732283 M -310.748296515  0 L 229.917431787  2161.41732283 M 0  0 L 0  2161.41732283 M 146.161417323  492.696850394 L 304.0581104  178.89557672 L 155.374148258  0.0 M -90.0  492.696850394 L -304.0581104  178.89557672 L -155.374148258  0.0 M -583.829156535  514.530401498 L -292.322834646  492.696850394 L 292.322834646  492.696850394 L 583.829156535  514.530401498 M -530.753778668  1223.15576944 L -265.748031496  1203.30708661 L 265.748031496  1203.30708661 L 530.753778668  1223.15576944 M 304.0581104  178.89557672 L 0  425.196850394 L -304.0581104  178.89557672 M 304.0581104  178.89557672 L 229.917431787  2161.41732283 M -304.0581104  178.89557672 L -229.917431787  2161.41732283 M 459.192660866  2178.58982324 L 229.917431787  2161.41732283 L -229.917431787  2161.41732283 L -459.192660866  2178.58982324 " id="C.gridline" />
    </g>
  </g>
</svg>
