<?xml version="1.0" encoding="UTF-8" standalone="no"?>
<svg xmlns:dc="http://purl.org/dc/elements/1.1/" xmlns:cc="http://creativecommons.org/ns#" xmlns:rdf="http://www.w3.org/1999/02/22-rdf-syntax-ns#" xmlns:svg="http://www.w3.org/2000/svg" xmlns="http://www.w3.org/2000/svg" xmlns:sodipodi="http://sodipodi.sourceforge.net/DTD/sodipodi-0.dtd" xmlns:inkscape="http://www.inkscape.org/namespaces/inkscape" patternNumber="MR_B1" fitBoxtoViewport="True" companyName="Next Patterns" currentscale="0.5:1" margin-right="88.5826771654" client-name="DressFormLg" designerName="S.L.Spencer" height="4713.47457831" width="2545.52425947" margin-top="88.5826771654" version="1.1" margin-bottom="88.5826771654" margin-left="88.5826771654" preserveAspectRatio="xMidYMid meet" id="svg2" inkscape:version="0.48.4 r9939" sodipodi:docname="DressFormLg-spencer_bodice_short-2015-01-29-1842.svg">
  <metadata id="metadata308">
    <rdf:RDF>
      <cc:Work rdf:about="">
        <dc:format>image/svg+xml</dc:format>
        <dc:type rdf:resource="http://purl.org/dc/dcmitype/StillImage" />
      </cc:Work>
    </rdf:RDF>
  </metadata>
  <sodipodi:namedview id="base" pagecolor="#ffffff" bordercolor="#666666" borderopacity="1.0" inkscape:pageopacity="0.0" inkscape:pageshadow="2" inkscape:zoom="0.18797173" inkscape:document-units="pt" showgrid="false" inkscape:window-maximized="1" inkscape:cx="1272.7621" inkscape:cy="2356.7373" inkscape:window-width="1855" inkscape:window-height="1056" inkscape:window-x="65" inkscape:window-y="24" inkscape:current-layer="pattern" />
  <defs id="defs5">
    <marker style="overflow:visible" id="Arrow1Mstart" refX="0.0" refY="0.0" orient="auto" inkscape:stockid="Arrow1Mstart">
      <path transform="scale(0.4) translate(10,0)" style="fill-rule:evenodd;stroke:#000000;stroke-width:1.0pt;marker-start:none" d="M 0.0,0.0 L 5.0,-5.0 L -12.5,0.0 L 5.0,5.0 L 0.0,0.0 z " id="path8" />
    </marker>
    <marker style="overflow:visible;" id="Arrow1Mend" refX="0.0" refY="0.0" orient="auto" inkscape:stockid="Arrow1Mend">
      <path transform="scale(0.4) rotate(180) translate(10,0)" style="fill-rule:evenodd;stroke:#000000;stroke-width:1.0pt;marker-start:none;" d="M 0.0,0.0 L 5.0,-5.0 L -12.5,0.0 L 5.0,5.0 L 0.0,0.0 z " id="path11" />
    </marker>
  </defs>
  <g inkscape:label="Label-pattern" id="pattern" inkscape:groupmode="layer" transform="translate(88.582677,88.582677)">
    <g id="document.bodice.Bodice Front.pattern" transform=" translate(1222.788039, 757.717638)">
      <g id="A.letter" transform="matrix(10.000000, 0, 0, 10.000000, 3228.838583, -1030.039370)">
        <text style="font-size:24; vertical-align:top; fill-opacity:1.0; fill:#000000; text-anchor:start; stroke:none; font-weight:normal; font-style:normal; text-align:right; " transform="" id="A.letter.letterline" y="114.448818898" x="-358.75984252">
A</text>
      </g>
      <line style="stroke-linejoin:miter; stroke:green; stroke-width:4; stroke-miterlimit:4; fill:none; " y2="1089.56692913" marker-end="url(#Arrow1Mend)" marker-start="url(#Arrow1Mstart)" transform="" x2="-133.455818164" y1="159.448818898" x1="-133.455818164" id="A.grainline" />
      <path style="stroke-linejoin:miter; stroke-dashoffset:0; stroke:green; stroke-miterlimit:4; stroke-dasharray:6,6; stroke-width:3; fill:none; " transform="" d="M -260.170731247  1306.42477747 L -354.330708661  710.078740157 L -448.490686076  1306.42477747 M -1127.50104066  636.437985918 L -437.620968391  649.368247433 L -1097.84218693  849.891683389 " id="A.dartline" />
      <path style="stroke-linejoin:miter; stroke-dashoffset:0; stroke:green; stroke-dasharray:24,6; stroke-miterlimit:4; stroke-width:4; fill:none; " transform="" d="M 0.0  0.0 L 0.0  1240.15748031 C -88.8216859352  1240.15748031  -201.141355711  1240.15748031  -268.943632985  1250.86311177 L -354.330708661  1274.80925799 L -439.717784338  1250.86311177 C -627.381596258  1221.23195941  -840.574890512  1206.63410445  -1038.67054744  1192.7249741 L -1044.01990141  833.544693437 L -1038.56001916  732.867215211 L -1071.26091813  637.492081435 L -983.736240613  410.343378751 C -821.738234984  463.076114248  -639.566929134  372.404562614  -639.566929134  159.448818898 C -639.566929134  30.5375758868  -705.363247815  -166.013360476  -717.519685039  -223.334513127 L -266.911636328  -318.897637795 C -233.832093174  -162.917928626  -160.146981797  0.0  0.0  0.0 " id="A.seamline" />
      <path style="fill:none;stroke:#008000;stroke-width:4;stroke-linejoin:miter;stroke-miterlimit:4" d="M -278.5625,-373.9375 C -447.29175,-338.15663 -616.02019,-302.37197 -784.75,-266.59375 -776.1054,-226.95634 -767.51237,-187.308 -756.04873,-148.38209 -732.13294,-61.021214 -707.64909,26.591836 -698.09375,116.90625 -692.48122,169.69544 -696.07849,225.48483 -722.03125,272.84375 -746.7211,319.57476 -793.41186,352.70929 -844.875,363.625 -888.98277,373.65628 -935.67874,368.43216 -978.05499,353.09551 -991.08874,348.92826 -1004.1225,344.761 -1017.1562,340.59375 -1055.1541,439.18031 -1093.1319,537.7746 -1131.0938,636.375 -1119.1905,671.19564 -1107.2383,705.99955 -1095.3125,740.8125 -1096.7675,774.33626 -1099.7145,807.83215 -1100.1765,841.37422 -1098.1575,975.97862 -1096.1581,1110.5833 -1094.125,1245.1875 -883.61082,1260.4074 -672.6643,1272.6978 -463.80526,1304.059 -441.68054,1307.1929 -420.51428,1315.3453 -398.82367,1320.7553 -383.67671,1324.6429 -368.53082,1329.9671 -353.38074,1332.9493 -320.54323,1323.9498 -287.85998,1314.1965 -254.9375,1305.625 -187.60914,1296.95 -119.57773,1297.1691 -51.71875,1296.4688 -15.729231,1296.3755 20.260404,1296.4132 56.25,1296.4062 56.25,845.67708 56.25,394.94792 56.25,-55.78125 29.420001,-56.67232 2.4051935,-54.696426 -24.25,-58 -65.264002,-63.466829 -100.95256,-89.033964 -125.88059,-121.05736 -163.69001,-169.28508 -185.26407,-227.75231 -201.28125,-286.1875 -210.10107,-318.98896 -216.33336,-352.42589 -223.625,-385.59375 -241.9375,-381.70833 -260.25,-377.82292 -278.5625,-373.9375 z" id="A.cuttingline" inkscape:connector-curvature="0" />
      <g id="A.info" transform="">
        <text style="font-size:12; vertical-align:top; fill-opacity:1.0; fill:#000000; text-anchor:start; stroke:none; font-weight:normal; font-style:normal; text-align:right; " transform="" id="A.info.lineNext Patterns" y="159.448818898" x="-358.75984252">
Next Patterns</text>
        <text style="font-size:12; vertical-align:top; fill-opacity:1.0; fill:#000000; text-anchor:start; stroke:none; font-weight:normal; font-style:normal; text-align:right; " transform="" id="A.info.lineMR_B1" y="173.848818898" x="-358.75984252">
MR_B1</text>
        <text style="font-size:12; vertical-align:top; fill-opacity:1.0; fill:#000000; text-anchor:start; stroke:none; font-weight:normal; font-style:normal; text-align:right; " transform="" id="A.info.lineSpencer Bodice Short" y="188.248818898" x="-358.75984252">
Spencer Bodice Short</text>
        <text style="font-size:12; vertical-align:top; fill-opacity:1.0; fill:#000000; text-anchor:start; stroke:none; font-weight:normal; font-style:normal; text-align:right; " transform="" id="A.info.linePattern Piece A" y="202.648818898" x="-358.75984252">
Pattern Piece A</text>
        <text style="font-size:12; vertical-align:top; fill-opacity:1.0; fill:#000000; text-anchor:start; stroke:none; font-weight:normal; font-style:normal; text-align:right; " transform="" id="A.info.lineCut 2 Fabric" y="217.048818898" x="-358.75984252">
Cut 2 Fabric</text>
        <text style="font-size:12; vertical-align:top; fill-opacity:1.0; fill:#000000; text-anchor:start; stroke:none; font-weight:normal; font-style:normal; text-align:right; " transform="" id="A.info.line " y="231.448818898" x="-358.75984252" />
        <text style="font-size:12; vertical-align:top; fill-opacity:1.0; fill:#000000; text-anchor:start; stroke:none; font-weight:normal; font-style:normal; text-align:right; " transform="" id="A.info.lineDressFormLg" y="245.848818898" x="-358.75984252">
DressFormLg</text>
        <text style="font-size:12; vertical-align:top; fill-opacity:1.0; fill:#000000; text-anchor:start; stroke:none; font-weight:normal; font-style:normal; text-align:right; " transform="" id="A.info.line2015/1/29 18:42" y="260.248818898" x="-358.75984252">
2015/1/29 18:42</text>
      </g>
    </g>
    <g id="document.bodice.Bodice Back.pattern" transform=" translate(1394.038039, 580.552283)">
      <g id="B.letter" transform="matrix(10.000000, 0, 0, 10.000000, -2165.029322, -2465.078740)">
        <text style="font-size:24; vertical-align:top; fill-opacity:1.0; fill:#000000; text-anchor:start; stroke:none; font-weight:normal; font-style:normal; text-align:right; " transform="" id="B.letter.letterline" y="273.897637795" x="240.558813505">
B</text>
      </g>
      <line style="stroke-linejoin:miter; stroke:green; stroke-width:4; stroke-miterlimit:4; fill:none; " y2="1222.44094488" marker-end="url(#Arrow1Mend)" marker-start="url(#Arrow1Mstart)" transform="" x2="120.279406752" y1="212.598425197" x1="120.279406752" id="B.grainline" />
      <path style="stroke-linejoin:miter; stroke-dashoffset:0; stroke:green; stroke-miterlimit:4; stroke-dasharray:6,6; stroke-width:3; fill:none; " transform="" d="M 467.456709306  1410.55929882 L 383.761673202  637.795275591 L 300.066637097  1410.55929882 M 518.493439004  -103.751627012 L 430.45219408  104.234043908 L 477.540046365  -116.655146147 " id="B.dartline" />
      <path style="stroke-linejoin:miter; stroke-dashoffset:0; stroke:green; stroke-dasharray:24,6; stroke-miterlimit:4; stroke-width:4; fill:none; " transform="" d="M 0.0  0.0 L 0.0  1346.45669291 C 101.056789144  1346.45669291  230.600026626  1346.45669291  306.123433496  1354.63633647 L 383.761673202  1369.49183214 L 461.399912908  1354.63633647 C 544.772448194  1345.60658464  722.628170118  1344.66753805  851.361750937  1343.98784763 L 908.074019882  743.623370461 C 815.843211147  734.910965532  627.342519685  637.795275591  627.342519685  435.978023208 C 627.342519685  301.876523128  690.343494931  95.9670984261  708.661417323  37.8293872947 L 496.566196517  -51.9514480849 L 481.651995756  -58.2646945519 L 465.812511661  -61.6412621745 L 240.558813505  -109.659514506 C 214.193583726  -61.5848128519  180.419110128  0.0  0.0  0.0 " id="B.seamline" />
      <path style="fill:none;stroke:#008000;stroke-width:4;stroke-linejoin:miter;stroke-miterlimit:4" d="M 191.3125,-136.84375 C 180.36223,-115.76054 166.78064,-94.206593 145.09375,-82.625 112.33462,-64.486244 74.293501,-59.907301 37.50352,-57.318897 6.3059133,-55.479777 -24.980053,-56.527988 -56.25,-56.25 -56.25,430.07292 -56.25,916.39583 -56.25,1402.7188 51.053508,1403.0854 158.58414,1401.3062 265.62057,1407.6643 285.36394,1408.5865 304.9521,1410.9645 324.23543,1415.3671 344.401,1418.9821 364.56635,1423.6072 384.73211,1426.5929 414.79196,1421.1603 444.83138,1414.4149 474.90625,1409.8125 555.19096,1402.9928 636.15742,1402.5299 716.81189,1401.2391 778.73673,1400.5196 840.66599,1400.3271 902.59375,1400 924.81893,1164.4361 947.0735,928.87505 969.3125,693.3125 943.97213,690.07751 918.19706,689.57454 893.1875,684.1875 837.76744,670.29019 786.72884,639.67755 747.53125,598.125 709.25171,557.73165 685.79783,503.60428 683.88774,448.03289 682.34578,392.06609 691.9008,336.34324 702.56733,281.59157 721.41154,188.07333 748.54006,96.673339 777.625,5.96875 684.31707,-33.443878 591.13595,-73.277656 497.70996,-112.33573 402.30956,-132.7264 306.87244,-152.98354 211.46875,-173.375 204.75,-161.19792 198.03125,-149.02083 191.3125,-136.84375 z" id="B.cuttingline" inkscape:connector-curvature="0" />
      <g id="B.info" transform="">
        <text style="font-size:12; vertical-align:top; fill-opacity:1.0; fill:#000000; text-anchor:start; stroke:none; font-weight:normal; font-style:normal; text-align:right; " transform="" id="B.info.lineNext Patterns" y="318.897637795" x="240.558813505">
Next Patterns</text>
        <text style="font-size:12; vertical-align:top; fill-opacity:1.0; fill:#000000; text-anchor:start; stroke:none; font-weight:normal; font-style:normal; text-align:right; " transform="" id="B.info.lineMR_B1" y="333.297637795" x="240.558813505">
MR_B1</text>
        <text style="font-size:12; vertical-align:top; fill-opacity:1.0; fill:#000000; text-anchor:start; stroke:none; font-weight:normal; font-style:normal; text-align:right; " transform="" id="B.info.lineSpencer Bodice Short" y="347.697637795" x="240.558813505">
Spencer Bodice Short</text>
        <text style="font-size:12; vertical-align:top; fill-opacity:1.0; fill:#000000; text-anchor:start; stroke:none; font-weight:normal; font-style:normal; text-align:right; " transform="" id="B.info.linePattern Piece B" y="362.097637795" x="240.558813505">
Pattern Piece B</text>
        <text style="font-size:12; vertical-align:top; fill-opacity:1.0; fill:#000000; text-anchor:start; stroke:none; font-weight:normal; font-style:normal; text-align:right; " transform="" id="B.info.lineCut 2 Fabric" y="376.497637795" x="240.558813505">
Cut 2 Fabric</text>
        <text style="font-size:12; vertical-align:top; fill-opacity:1.0; fill:#000000; text-anchor:start; stroke:none; font-weight:normal; font-style:normal; text-align:right; " transform="" id="B.info.line " y="390.897637795" x="240.558813505" />
        <text style="font-size:12; vertical-align:top; fill-opacity:1.0; fill:#000000; text-anchor:start; stroke:none; font-weight:normal; font-style:normal; text-align:right; " transform="" id="B.info.lineDressFormLg" y="405.297637795" x="240.558813505">
DressFormLg</text>
        <text style="font-size:12; vertical-align:top; fill-opacity:1.0; fill:#000000; text-anchor:start; stroke:none; font-weight:normal; font-style:normal; text-align:right; " transform="" id="B.info.line2015/1/29 18:42" y="419.697637795" x="240.558813505">
2015/1/29 18:42</text>
      </g>
    </g>
    <g id="document.bodice.Bodice Sleeve.pattern" transform=" translate(741.849007, 2235.392415)">
      <line style="stroke-linejoin:miter; stroke:green; stroke-width:4; stroke-miterlimit:4; fill:none; " y2="1877.95275591" marker-end="url(#Arrow1Mend)" marker-start="url(#Arrow1Mstart)" transform="" x2="-90.0" y1="467.716535433" x1="-90.0" id="C.grainline" />
      <g id="C.letter" transform="matrix(15.000000, 0, 0, 15.000000, 0.000000, -12475.984252)">
        <text style="font-size:24; vertical-align:top; fill-opacity:1.0; fill:#000000; text-anchor:start; stroke:none; font-weight:normal; font-style:normal; text-align:right; " transform="" id="C.letter.letterline" y="891.141732283" x="0">
C</text>
      </g>
      <path style="stroke-linejoin:miter; stroke-dashoffset:0; stroke:green; stroke-miterlimit:4; stroke-dasharray:6,6; stroke-width:3; fill:none; " transform="" d="M -575.766033818  1503.22562846 L -285.645036954  1294.82837872 L -639.70344583  1342.18077702 " id="C.dartline" />
      <path style="stroke-linejoin:miter; stroke-dashoffset:0; stroke:green; stroke-dasharray:24,6; stroke-miterlimit:4; stroke-width:4; fill:none; " transform="" d="M 0  0 C 126.63755436  0.0  279.046100368  54.5016513711  332.891396657  168.376103949 C 355.680432517  216.571381203  481.949984317  478.803031284  688.488328687  493.078965122 L 583.949864112  1334.72419432 L 481.268559293  2161.41732283 C 263.090551181  2161.41732283  0  2161.41732283  -222.687921597  2244.66680898 L -530.080677105  1470.40931115 L -570.1333855  1407.77485662 L -583.949864112  1334.72419432 L -650.766329967  490.471619936 C -493.261769586  479.584902072  -412.68748013  292.153849311  -343.361446692  184.164352366 C -254.87792885  46.3331494851  -112.566714987  0.0  0  0 " id="C.seamline" />
      <path style="fill:none;stroke:#008000;stroke-width:4;stroke-linejoin:miter;stroke-miterlimit:4" d="M -5.96875,-56.21875 C -120.16531,-54.869629 -234.50976,-12.129158 -318.12377,66.452566 -354.90721,100.32334 -384.5495,141.18057 -409.54981,184.31867 -448.21904,248.57261 -483.71451,315.93708 -535.71875,370.78125 -565.69392,402.2929 -604.20344,429.2312 -648.375,433.78125 -669.33899,435.52876 -690.35835,436.6735 -711.34375,438.1875 -687.38082,739.84266 -663.68629,1041.5349 -639.59509,1343.17 -633.88489,1371.9813 -629.1514,1401.1743 -622.83701,1429.7492 -608.55896,1452.5788 -593.35991,1474.9337 -579.63697,1498.0463 -471.30642,1770.8732 -363.00698,2043.7124 -254.65625,2316.5312 -204.11603,2297.4396 -153.56963,2278.4419 -100.96768,2265.7562 47.845555,2228.3353 202.11646,2220.3298 355.03125,2218.2188 413.6743,2217.5225 472.32276,2217.6762 530.96875,2217.6562 604.48902,1625.6119 677.99858,1033.5663 751.59375,441.53125 723.23842,438.68203 694.45993,438.64452 666.46875,433.46875 605.7316,421.00863 554.08749,382.18261 512.03125,338.125 456.28672,279.10802 413.91057,208.71787 379.43241,135.68845 345.16875,69.178276 283.63512,20.476498 216.40454,-9.9815582 146.93355,-41.491916 70.232244,-56.81801 -5.96875,-56.21875 z" id="C.cuttingline" inkscape:connector-curvature="0" />
      <g id="C.info" transform="">
        <text style="font-size:12; vertical-align:top; fill-opacity:1.0; fill:#000000; text-anchor:start; stroke:none; font-weight:normal; font-style:normal; text-align:right; " transform="" id="C.info.lineNext Patterns" y="962.007874016" x="0">
Next Patterns</text>
        <text style="font-size:12; vertical-align:top; fill-opacity:1.0; fill:#000000; text-anchor:start; stroke:none; font-weight:normal; font-style:normal; text-align:right; " transform="" id="C.info.lineMR_B1" y="976.407874016" x="0">
MR_B1</text>
        <text style="font-size:12; vertical-align:top; fill-opacity:1.0; fill:#000000; text-anchor:start; stroke:none; font-weight:normal; font-style:normal; text-align:right; " transform="" id="C.info.lineSpencer Bodice Short" y="990.807874016" x="0">
Spencer Bodice Short</text>
        <text style="font-size:12; vertical-align:top; fill-opacity:1.0; fill:#000000; text-anchor:start; stroke:none; font-weight:normal; font-style:normal; text-align:right; " transform="" id="C.info.linePattern Piece C" y="1005.20787402" x="0">
Pattern Piece C</text>
        <text style="font-size:12; vertical-align:top; fill-opacity:1.0; fill:#000000; text-anchor:start; stroke:none; font-weight:normal; font-style:normal; text-align:right; " transform="" id="C.info.lineCut 2 Fabric" y="1019.60787402" x="0">
Cut 2 Fabric</text>
        <text style="font-size:12; vertical-align:top; fill-opacity:1.0; fill:#000000; text-anchor:start; stroke:none; font-weight:normal; font-style:normal; text-align:right; " transform="" id="C.info.line " y="1034.00787402" x="0" />
        <text style="font-size:12; vertical-align:top; fill-opacity:1.0; fill:#000000; text-anchor:start; stroke:none; font-weight:normal; font-style:normal; text-align:right; " transform="" id="C.info.lineDressFormLg" y="1048.40787402" x="0">
DressFormLg</text>
        <text style="font-size:12; vertical-align:top; fill-opacity:1.0; fill:#000000; text-anchor:start; stroke:none; font-weight:normal; font-style:normal; text-align:right; " transform="" id="C.info.line2015/1/29 18:42" y="1062.80787402" x="0">
2015/1/29 18:42</text>
      </g>
    </g>
  </g>
  <g inkscape:label="Label-notes" id="notes" inkscape:groupmode="layer" transform="translate(88.582677,88.582677)">
    <g id="document.titleblock">
      <text style="font-size:40; vertical-align:top; fill-opacity:1.0; fill:#000000; text-anchor:right; stroke:none; font-weight:normal; font-style:normal; text-align:right; " transform="" id="company" y="0.0" x="0.0">
Next Patterns</text>
      <text style="font-size:40; vertical-align:top; fill-opacity:1.0; fill:#000000; text-anchor:right; stroke:none; font-weight:normal; font-style:normal; text-align:right; " transform="" id="designer" y="44.0" x="0.0">
S.L.Spencer</text>
      <text style="font-size:40; vertical-align:top; fill-opacity:1.0; fill:#000000; text-anchor:right; stroke:none; font-weight:normal; font-style:normal; text-align:right; " transform="" id="pattern_number" y="88.0" x="0.0">
MR_B1</text>
      <text style="font-size:40; vertical-align:top; fill-opacity:1.0; fill:#000000; text-anchor:right; stroke:none; font-weight:normal; font-style:normal; text-align:right; " transform="" id="pattern_name" y="132.0" x="0.0">
Spencer Bodice Short</text>
      <text style="font-size:40; vertical-align:top; fill-opacity:1.0; fill:#000000; text-anchor:right; stroke:none; font-weight:normal; font-style:normal; text-align:right; " transform="" id="client" y="176.0" x="0.0">
DressFormLg</text>
      <text style="font-size:40; vertical-align:top; fill-opacity:1.0; fill:#000000; text-anchor:right; stroke:none; font-weight:normal; font-style:normal; text-align:right; " transform="" id="date" y="220.0" x="0.0">
2015/1/29 18:42</text>
    </g>
    <g id="document.testgrid">
      <path style="stroke-linejoin:miter; stroke:green; stroke-width:4; stroke-miterlimit:4; fill:none; " d="M 1080.0  0.0 L 1080.0  212.598425197 M 1115.43307087  0.0 L 1115.43307087  212.598425197 M 1150.86614173  0.0 L 1150.86614173  212.598425197 M 1186.2992126  0.0 L 1186.2992126  212.598425197 M 1221.73228346  0.0 L 1221.73228346  212.598425197 M 1257.16535433  0.0 L 1257.16535433  212.598425197 M 1292.5984252  0.0 L 1292.5984252  212.598425197 M 1080.0  0.0 L 1292.5984252  0.0 M 1080.0  35.4330708661 L 1292.5984252  35.4330708661 M 1080.0  70.8661417323 L 1292.5984252  70.8661417323 M 1080.0  106.299212598 L 1292.5984252  106.299212598 M 1080.0  141.732283465 L 1292.5984252  141.732283465 M 1080.0  177.165354331 L 1292.5984252  177.165354331 M 1080.0  212.598425197 L 1292.5984252  212.598425197 M 1469.76377953  0.0 L 1469.76377953  270.0 M 1559.76377953  0.0 L 1559.76377953  270.0 M 1649.76377953  0.0 L 1649.76377953  270.0 M 1739.76377953  0.0 L 1739.76377953  270.0 M 1469.76377953  0.0 L 1739.76377953  0.0 M 1469.76377953  90.0 L 1739.76377953  90.0 M 1469.76377953  180.0 L 1739.76377953  180.0 M 1469.76377953  270.0 L 1739.76377953  270.0 " id="testgrid" />
    </g>
    <g id="document.bodice.Bodice Front.notes" transform=" translate(1222.788039, 757.717638)" />
    <g id="document.bodice.Bodice Back.notes" transform=" translate(1394.038039, 580.552283)" />
    <g id="document.bodice.Bodice Sleeve.notes" transform=" translate(741.849007, 2235.392415)" />
  </g>
  <g inkscape:label="Label-reference" id="reference" inkscape:groupmode="layer" transform="translate(88.582677,88.582677)">
    <g id="document.bodice.Bodice Front.reference" transform=" translate(1222.788039, 757.717638)">
      <circle style="stroke:gray; stroke-width:1; fill:none; " transform="" cy="0.0" cx="-160.146981797" r="5" id="A.FNC.inpoint" d="M -155.14699,0 C -155.14699,2.7614237 -157.38556,5 -160.14699,5 -162.90841,5 -165.14699,2.7614237 -165.14699,0 -165.14699,-2.7614237 -162.90841,-5 -160.14699,-5 -157.38556,-5 -155.14699,-2.7614237 -155.14699,0 z" />
      <text style="font-size:25; vertical-align:top; fill-opacity:1.0; fill:gray; text-anchor:right; stroke:none; font-weight:normal; font-style:italic; text-align:right; " transform="" id="A.FNC.inpoint.text" y="-7.0" x="-153.146981797">
FNC.in</text>
      <circle style="stroke:red; stroke-width:1; fill:red; " transform="" cy="0.0" cx="0.0" r="5" id="A.FNC" d="M 5,0 C 5,2.7614237 2.7614237,5 0,5 -2.7614237,5 -5,2.7614237 -5,0 -5,-2.7614237 -2.7614237,-5 0,-5 2.7614237,-5 5,-2.7614237 5,0 z" />
      <text style="font-size:30; vertical-align:top; fill-opacity:1.0; fill:darkblue; text-anchor:right; stroke:none; font-weight:normal; font-style:italic; text-align:right; " transform="" id="A.FNC.text" y="-7.0" x="7.0">
FNC</text>
      <circle style="stroke:gray; stroke-width:1; fill:none; " transform="" cy="1240.15748031" cx="-88.8216859352" r="5" id="A.FWC.outpoint" d="M -83.821686,1240.1575 C -83.821686,1242.9189 -86.060262,1245.1575 -88.821686,1245.1575 -91.58311,1245.1575 -93.821686,1242.9189 -93.821686,1240.1575 -93.821686,1237.396 -91.58311,1235.1575 -88.821686,1235.1575 -86.060262,1235.1575 -83.821686,1237.396 -83.821686,1240.1575 z" />
      <text style="font-size:25; vertical-align:top; fill-opacity:1.0; fill:gray; text-anchor:right; stroke:none; font-weight:normal; font-style:italic; text-align:right; " transform="" id="A.FWC.outpoint.text" y="1233.15748031" x="-81.8216859352">
FWC.out</text>
      <circle style="stroke:red; stroke-width:1; fill:red; " transform="" cy="1240.15748031" cx="0.0" r="5" id="A.FWC" d="M 5,1240.1575 C 5,1242.9189 2.7614237,1245.1575 0,1245.1575 -2.7614237,1245.1575 -5,1242.9189 -5,1240.1575 -5,1237.396 -2.7614237,1235.1575 0,1235.1575 2.7614237,1235.1575 5,1237.396 5,1240.1575 z" />
      <text style="font-size:30; vertical-align:top; fill-opacity:1.0; fill:darkblue; text-anchor:right; stroke:none; font-weight:normal; font-style:italic; text-align:right; " transform="" id="A.FWC.text" y="1233.15748031" x="7.0">
FWC</text>
      <circle style="stroke:red; stroke-width:1; fill:red; " transform="" cy="-318.897637795" cx="0.0" r="5" id="A.FSH" d="M 5,-318.89764 C 5,-316.13622 2.7614237,-313.89764 0,-313.89764 -2.7614237,-313.89764 -5,-316.13622 -5,-318.89764 -5,-321.65907 -2.7614237,-323.89764 0,-323.89764 2.7614237,-323.89764 5,-321.65907 5,-318.89764 z" />
      <text style="font-size:30; vertical-align:top; fill-opacity:1.0; fill:darkblue; text-anchor:right; stroke:none; font-weight:normal; font-style:italic; text-align:right; " transform="" id="A.FSH.text" y="-325.897637795" x="7.0">
FSH</text>
      <circle style="stroke:red; stroke-width:1; fill:red; " transform="" cy="-318.897637795" cx="-717.519685039" r="5" id="A.FSW" d="M -712.51971,-318.89764 C -712.51971,-316.13622 -714.75829,-313.89764 -717.51971,-313.89764 -720.28114,-313.89764 -722.51971,-316.13622 -722.51971,-318.89764 -722.51971,-321.65907 -720.28114,-323.89764 -717.51971,-323.89764 -714.75829,-323.89764 -712.51971,-321.65907 -712.51971,-318.89764 z" />
      <text style="font-size:30; vertical-align:top; fill-opacity:1.0; fill:darkblue; text-anchor:right; stroke:none; font-weight:normal; font-style:italic; text-align:right; " transform="" id="A.FSW.text" y="-325.897637795" x="-710.519685039">
FSW</text>
      <circle style="stroke:gray; stroke-width:1; fill:none; " transform="" cy="-166.013360476" cx="-705.363247815" r="5" id="A.FSP.inpoint" d="M -700.36322,-166.01337 C -700.36322,-163.25194 -702.6018,-161.01337 -705.36322,-161.01337 -708.12464,-161.01337 -710.36322,-163.25194 -710.36322,-166.01337 -710.36322,-168.77479 -708.12464,-171.01337 -705.36322,-171.01337 -702.6018,-171.01337 -700.36322,-168.77479 -700.36322,-166.01337 z" />
      <text style="font-size:25; vertical-align:top; fill-opacity:1.0; fill:gray; text-anchor:right; stroke:none; font-weight:normal; font-style:italic; text-align:right; " transform="" id="A.FSP.inpoint.text" y="-173.013360476" x="-698.363247815">
FSP.in</text>
      <circle style="stroke:red; stroke-width:1; fill:red; " transform="" cy="-223.334513127" cx="-717.519685039" r="5" id="A.FSP" d="M -712.51971,-223.33452 C -712.51971,-220.57309 -714.75829,-218.33452 -717.51971,-218.33452 -720.28114,-218.33452 -722.51971,-220.57309 -722.51971,-223.33452 -722.51971,-226.09594 -720.28114,-228.33452 -717.51971,-228.33452 -714.75829,-228.33452 -712.51971,-226.09594 -712.51971,-223.33452 z" />
      <text style="font-size:30; vertical-align:top; fill-opacity:1.0; fill:darkblue; text-anchor:right; stroke:none; font-weight:normal; font-style:italic; text-align:right; " transform="" id="A.FSP.text" y="-230.334513127" x="-710.519685039">
FSP</text>
      <circle style="stroke:gray; stroke-width:1; fill:none; " transform="" cy="-162.917928626" cx="-233.832093174" r="5" id="A.FNS.outpoint" d="M -228.83209,-162.91792 C -228.83209,-160.1565 -231.07067,-157.91792 -233.83209,-157.91792 -236.59352,-157.91792 -238.83209,-160.1565 -238.83209,-162.91792 -238.83209,-165.67935 -236.59352,-167.91792 -233.83209,-167.91792 -231.07067,-167.91792 -228.83209,-165.67935 -228.83209,-162.91792 z" />
      <text style="font-size:25; vertical-align:top; fill-opacity:1.0; fill:gray; text-anchor:right; stroke:none; font-weight:normal; font-style:italic; text-align:right; " transform="" id="A.FNS.outpoint.text" y="-169.917928626" x="-226.832093174">
FNS.out</text>
      <circle style="stroke:red; stroke-width:1; fill:red; " transform="" cy="-318.897637795" cx="-266.911636328" r="5" id="A.FNS" d="M -261.91162,-318.89764 C -261.91162,-316.13622 -264.1502,-313.89764 -266.91162,-313.89764 -269.67304,-313.89764 -271.91162,-316.13622 -271.91162,-318.89764 -271.91162,-321.65907 -269.67304,-323.89764 -266.91162,-323.89764 -264.1502,-323.89764 -261.91162,-321.65907 -261.91162,-318.89764 z" />
      <text style="font-size:30; vertical-align:top; fill-opacity:1.0; fill:darkblue; text-anchor:right; stroke:none; font-weight:normal; font-style:italic; text-align:right; " transform="" id="A.FNS.text" y="-325.897637795" x="-259.911636328">
FNS</text>
      <circle style="stroke:red; stroke-width:1; fill:red; " transform="" cy="318.897637795" cx="0.0" r="5" id="A.FUC" d="M 5,318.89764 C 5,321.65907 2.7614237,323.89764 0,323.89764 -2.7614237,323.89764 -5,321.65907 -5,318.89764 -5,316.13622 -2.7614237,313.89764 0,313.89764 2.7614237,313.89764 5,316.13622 5,318.89764 z" />
      <text style="font-size:30; vertical-align:top; fill-opacity:1.0; fill:darkblue; text-anchor:right; stroke:none; font-weight:normal; font-style:italic; text-align:right; " transform="" id="A.FUC.text" y="311.897637795" x="7.0">
FUC</text>
      <circle style="stroke:red; stroke-width:1; fill:red; " transform="" cy="637.795275591" cx="0.0" r="5" id="A.FBC" d="M 5,637.79529 C 5,640.55671 2.7614237,642.79529 0,642.79529 -2.7614237,642.79529 -5,640.55671 -5,637.79529 -5,635.03386 -2.7614237,632.79529 0,632.79529 2.7614237,632.79529 5,635.03386 5,637.79529 z" />
      <text style="font-size:30; vertical-align:top; fill-opacity:1.0; fill:darkblue; text-anchor:right; stroke:none; font-weight:normal; font-style:italic; text-align:right; " transform="" id="A.FBC.text" y="630.795275591" x="7.0">
FBC</text>
      <circle style="stroke:red; stroke-width:1; fill:red; " transform="" cy="637.795275591" cx="-354.330708661" r="5" id="A.FBP" d="M -349.33072,637.79529 C -349.33072,640.55671 -351.5693,642.79529 -354.33072,642.79529 -357.09214,642.79529 -359.33072,640.55671 -359.33072,637.79529 -359.33072,635.03386 -357.09214,632.79529 -354.33072,632.79529 -351.5693,632.79529 -349.33072,635.03386 -349.33072,637.79529 z" />
      <text style="font-size:30; vertical-align:top; fill-opacity:1.0; fill:darkblue; text-anchor:right; stroke:none; font-weight:normal; font-style:italic; text-align:right; " transform="" id="A.FBP.text" y="630.795275591" x="-347.330708661">
FBP</text>
      <circle style="stroke:red; stroke-width:1; fill:red; " transform="" cy="318.897637795" cx="-673.228346457" r="5" id="A.f10" d="M -668.22833,318.89764 C -668.22833,321.65907 -670.46691,323.89764 -673.22833,323.89764 -675.98976,323.89764 -678.22833,321.65907 -678.22833,318.89764 -678.22833,316.13622 -675.98976,313.89764 -673.22833,313.89764 -670.46691,313.89764 -668.22833,316.13622 -668.22833,318.89764 z" />
      <text style="font-size:30; vertical-align:top; fill-opacity:1.0; fill:darkblue; text-anchor:right; stroke:none; font-weight:normal; font-style:italic; text-align:right; " transform="" id="A.f10.text" y="311.897637795" x="-666.228346457">
f10</text>
      <circle style="stroke:red; stroke-width:1; fill:red; " transform="" cy="159.448818898" cx="0.0" r="5" id="A.FAC" d="M 5,159.44882 C 5,162.21025 2.7614237,164.44882 0,164.44882 -2.7614237,164.44882 -5,162.21025 -5,159.44882 -5,156.6874 -2.7614237,154.44882 0,154.44882 2.7614237,154.44882 5,156.6874 5,159.44882 z" />
      <text style="font-size:30; vertical-align:top; fill-opacity:1.0; fill:darkblue; text-anchor:right; stroke:none; font-weight:normal; font-style:italic; text-align:right; " transform="" id="A.FAC.text" y="152.448818898" x="7.0">
FAC</text>
      <circle style="stroke:gray; stroke-width:1; fill:none; " transform="" cy="372.404562614" cx="-639.566929134" r="5" id="A.FAS.inpoint" d="M -634.56696,372.40457 C -634.56696,375.166 -636.80553,377.40457 -639.56696,377.40457 -642.32838,377.40457 -644.56696,375.166 -644.56696,372.40457 -644.56696,369.64315 -642.32838,367.40457 -639.56696,367.40457 -636.80553,367.40457 -634.56696,369.64315 -634.56696,372.40457 z" />
      <text style="font-size:25; vertical-align:top; fill-opacity:1.0; fill:gray; text-anchor:right; stroke:none; font-weight:normal; font-style:italic; text-align:right; " transform="" id="A.FAS.inpoint.text" y="365.404562614" x="-632.566929134">
FAS.in</text>
      <circle style="stroke:gray; stroke-width:1; fill:none; " transform="" cy="30.5375758868" cx="-639.566929134" r="5" id="A.FAS.outpoint" d="M -634.56696,30.537577 C -634.56696,33.299 -636.80553,35.537577 -639.56696,35.537577 -642.32838,35.537577 -644.56696,33.299 -644.56696,30.537577 -644.56696,27.776153 -642.32838,25.537577 -639.56696,25.537577 -636.80553,25.537577 -634.56696,27.776153 -634.56696,30.537577 z" />
      <text style="font-size:25; vertical-align:top; fill-opacity:1.0; fill:gray; text-anchor:right; stroke:none; font-weight:normal; font-style:italic; text-align:right; " transform="" id="A.FAS.outpoint.text" y="23.5375758868" x="-632.566929134">
FAS.out</text>
      <circle style="stroke:red; stroke-width:1; fill:red; " transform="" cy="159.448818898" cx="-639.566929134" r="5" id="A.FAS" d="M -634.56696,159.44882 C -634.56696,162.21025 -636.80553,164.44882 -639.56696,164.44882 -642.32838,164.44882 -644.56696,162.21025 -644.56696,159.44882 -644.56696,156.6874 -642.32838,154.44882 -639.56696,154.44882 -636.80553,154.44882 -634.56696,156.6874 -634.56696,159.44882 z" />
      <text style="font-size:30; vertical-align:top; fill-opacity:1.0; fill:darkblue; text-anchor:right; stroke:none; font-weight:normal; font-style:italic; text-align:right; " transform="" id="A.FAS.text" y="152.448818898" x="-632.566929134">
FAS</text>
      <circle style="stroke:red; stroke-width:1; fill:red; " transform="" cy="318.897637795" cx="-921.25984252" r="5" id="A.f1" d="M -916.25983,318.89764 C -916.25983,321.65907 -918.4984,323.89764 -921.25983,323.89764 -924.02125,323.89764 -926.25983,321.65907 -926.25983,318.89764 -926.25983,316.13622 -924.02125,313.89764 -921.25983,313.89764 -918.4984,313.89764 -916.25983,316.13622 -916.25983,318.89764 z" />
      <text style="font-size:30; vertical-align:top; fill-opacity:1.0; fill:darkblue; text-anchor:right; stroke:none; font-weight:normal; font-style:italic; text-align:right; " transform="" id="A.f1.text" y="311.897637795" x="-914.25984252">
f1</text>
      <circle style="stroke:red; stroke-width:1; fill:red; " transform="" cy="440.379318512" cx="-960.803917844" r="5" id="A.f2" d="M -955.80389,440.37933 C -955.80389,443.14076 -958.04247,445.37933 -960.80389,445.37933 -963.56532,445.37933 -965.80389,443.14076 -965.80389,440.37933 -965.80389,437.61791 -963.56532,435.37933 -960.80389,435.37933 -958.04247,435.37933 -955.80389,437.61791 -955.80389,440.37933 z" />
      <text style="font-size:30; vertical-align:top; fill-opacity:1.0; fill:darkblue; text-anchor:right; stroke:none; font-weight:normal; font-style:italic; text-align:right; " transform="" id="A.f2.text" y="433.379318512" x="-953.803917844">
f2</text>
      <circle style="stroke:red; stroke-width:1; fill:red; " transform="" cy="992.756759109" cx="-1140.61090594" r="5" id="A.f3" d="M -1135.611,992.75677 C -1135.611,995.5182 -1137.8495,997.75677 -1140.611,997.75677 -1143.3724,997.75677 -1145.611,995.5182 -1145.611,992.75677 -1145.611,989.99535 -1143.3724,987.75677 -1140.611,987.75677 -1137.8495,987.75677 -1135.611,989.99535 -1135.611,992.75677 z" />
      <text style="font-size:30; vertical-align:top; fill-opacity:1.0; fill:darkblue; text-anchor:right; stroke:none; font-weight:normal; font-style:italic; text-align:right; " transform="" id="A.f3.text" y="985.756759109" x="-1133.61090594">
f3</text>
      <circle style="stroke:red; stroke-width:1; fill:red; " transform="" cy="1240.15748031" cx="-354.330708661" r="5" id="A.f4" d="M -349.33072,1240.1575 C -349.33072,1242.9189 -351.5693,1245.1575 -354.33072,1245.1575 -357.09214,1245.1575 -359.33072,1242.9189 -359.33072,1240.1575 -359.33072,1237.396 -357.09214,1235.1575 -354.33072,1235.1575 -351.5693,1235.1575 -349.33072,1237.396 -349.33072,1240.1575 z" />
      <text style="font-size:30; vertical-align:top; fill-opacity:1.0; fill:darkblue; text-anchor:right; stroke:none; font-weight:normal; font-style:italic; text-align:right; " transform="" id="A.f4.text" y="1233.15748031" x="-347.330708661">
f4</text>
      <circle style="stroke:red; stroke-width:1; fill:red; " transform="" cy="1150.61284812" cx="-670.334447545" r="5" id="A.f5" d="M -665.33447,1150.6128 C -665.33447,1153.3742 -667.57305,1155.6128 -670.33447,1155.6128 -673.0959,1155.6128 -675.33447,1153.3742 -675.33447,1150.6128 -675.33447,1147.8514 -673.0959,1145.6128 -670.33447,1145.6128 -667.57305,1145.6128 -665.33447,1147.8514 -665.33447,1150.6128 z" />
      <text style="font-size:30; vertical-align:top; fill-opacity:1.0; fill:darkblue; text-anchor:right; stroke:none; font-weight:normal; font-style:italic; text-align:right; " transform="" id="A.f5.text" y="1143.61284812" x="-663.334447545">
f5</text>
      <circle style="stroke:red; stroke-width:1; fill:red; " transform="" cy="985.130882295" cx="-1164.03803945" r="5" id="A.f6" d="M -1159.0381,985.13086 C -1159.0381,987.89228 -1161.2767,990.13086 -1164.0381,990.13086 -1166.7995,990.13086 -1169.0381,987.89228 -1169.0381,985.13086 -1169.0381,982.36944 -1166.7995,980.13086 -1164.0381,980.13086 -1161.2767,980.13086 -1159.0381,982.36944 -1159.0381,985.13086 z" />
      <text style="font-size:30; vertical-align:top; fill-opacity:1.0; fill:darkblue; text-anchor:right; stroke:none; font-weight:normal; font-style:italic; text-align:right; " transform="" id="A.f6.text" y="978.130882295" x="-1157.03803945">
f6</text>
      <circle style="stroke:red; stroke-width:1; fill:red; " transform="" cy="308.91716441" cx="-951.920432539" r="5" id="A.f7" d="M -946.92041,308.91718 C -946.92041,311.6786 -949.15899,313.91718 -951.92041,313.91718 -954.68183,313.91718 -956.92041,311.6786 -956.92041,308.91718 -956.92041,306.15575 -954.68183,303.91718 -951.92041,303.91718 -949.15899,303.91718 -946.92041,306.15575 -946.92041,308.91718 z" />
      <text style="font-size:30; vertical-align:top; fill-opacity:1.0; fill:darkblue; text-anchor:right; stroke:none; font-weight:normal; font-style:italic; text-align:right; " transform="" id="A.f7.text" y="301.91716441" x="-944.920432539">
f7</text>
      <circle style="stroke:red; stroke-width:1; fill:red; " transform="" cy="430.82332606" cx="-990.160477948" r="5" id="A.FBS" d="M -985.16046,430.82333 C -985.16046,433.58476 -987.39904,435.82333 -990.16046,435.82333 -992.92189,435.82333 -995.16046,433.58476 -995.16046,430.82333 -995.16046,428.06191 -992.92189,425.82333 -990.16046,425.82333 -987.39904,425.82333 -985.16046,428.06191 -985.16046,430.82333 z" />
      <text style="font-size:30; vertical-align:top; fill-opacity:1.0; fill:darkblue; text-anchor:right; stroke:none; font-weight:normal; font-style:italic; text-align:right; " transform="" id="A.FBS.text" y="423.82332606" x="-983.160477948">
FBS</text>
      <circle style="stroke:gray; stroke-width:1; fill:none; " transform="" cy="463.076114248" cx="-821.738234984" r="5" id="A.FUS.outpoint" d="M -816.73822,463.07611 C -816.73822,465.83753 -818.9768,468.07611 -821.73822,468.07611 -824.49964,468.07611 -826.73822,465.83753 -826.73822,463.07611 -826.73822,460.31469 -824.49964,458.07611 -821.73822,458.07611 -818.9768,458.07611 -816.73822,460.31469 -816.73822,463.07611 z" />
      <text style="font-size:25; vertical-align:top; fill-opacity:1.0; fill:gray; text-anchor:right; stroke:none; font-weight:normal; font-style:italic; text-align:right; " transform="" id="A.FUS.outpoint.text" y="456.076114248" x="-814.738234984">
FUS.out</text>
      <circle style="stroke:red; stroke-width:1; fill:red; " transform="" cy="410.343378751" cx="-983.736240613" r="5" id="A.FUS" d="M -978.73627,410.34338 C -978.73627,413.10481 -980.97484,415.34338 -983.73627,415.34338 -986.49769,415.34338 -988.73627,413.10481 -988.73627,410.34338 -988.73627,407.58196 -986.49769,405.34338 -983.73627,405.34338 -980.97484,405.34338 -978.73627,407.58196 -978.73627,410.34338 z" />
      <text style="font-size:30; vertical-align:top; fill-opacity:1.0; fill:darkblue; text-anchor:right; stroke:none; font-weight:normal; font-style:italic; text-align:right; " transform="" id="A.FUS.text" y="403.343378751" x="-976.736240613">
FUS</text>
      <circle style="stroke:gray; stroke-width:1; fill:none; " transform="" cy="1206.63410445" cx="-840.574890512" r="5" id="A.FWS.inpoint" d="M -835.57489,1206.6342 C -835.57489,1209.3956 -837.81347,1211.6342 -840.57489,1211.6342 -843.33631,1211.6342 -845.57489,1209.3956 -845.57489,1206.6342 -845.57489,1203.8727 -843.33631,1201.6342 -840.57489,1201.6342 -837.81347,1201.6342 -835.57489,1203.8727 -835.57489,1206.6342 z" />
      <text style="font-size:25; vertical-align:top; fill-opacity:1.0; fill:gray; text-anchor:right; stroke:none; font-weight:normal; font-style:italic; text-align:right; " transform="" id="A.FWS.inpoint.text" y="1199.63410445" x="-833.574890512">
FWS.in</text>
      <circle style="stroke:red; stroke-width:1; fill:red; " transform="" cy="1192.7249741" cx="-1038.67054744" r="5" id="A.FWS" d="M -1033.6705,1192.725 C -1033.6705,1195.4864 -1035.9091,1197.725 -1038.6705,1197.725 -1041.432,1197.725 -1043.6705,1195.4864 -1043.6705,1192.725 -1043.6705,1189.9636 -1041.432,1187.725 -1038.6705,1187.725 -1035.9091,1187.725 -1033.6705,1189.9636 -1033.6705,1192.725 z" />
      <text style="font-size:30; vertical-align:top; fill-opacity:1.0; fill:darkblue; text-anchor:right; stroke:none; font-weight:normal; font-style:italic; text-align:right; " transform="" id="A.FWS.text" y="1185.7249741" x="-1031.67054744">
FWS</text>
      <circle style="stroke:red; stroke-width:1; fill:red; " transform="" cy="649.368247433" cx="-437.620968391" r="5" id="A.FD2" d="M -432.62097,649.36823 C -432.62097,652.12965 -434.85955,654.36823 -437.62097,654.36823 -440.3824,654.36823 -442.62097,652.12965 -442.62097,649.36823 -442.62097,646.6068 -440.3824,644.36823 -437.62097,644.36823 -434.85955,644.36823 -432.62097,646.6068 -432.62097,649.36823 z" />
      <text style="font-size:30; vertical-align:top; fill-opacity:1.0; fill:darkblue; text-anchor:right; stroke:none; font-weight:normal; font-style:italic; text-align:right; " transform="" id="A.FD2.text" y="642.368247433" x="-430.620968391">
FD2</text>
      <circle style="stroke:red; stroke-width:1; fill:red; " transform="" cy="637.492081435" cx="-1071.26091813" r="5" id="A.FD2.i" d="M -1066.2609,637.49207 C -1066.2609,640.25349 -1068.4994,642.49207 -1071.2609,642.49207 -1074.0223,642.49207 -1076.2609,640.25349 -1076.2609,637.49207 -1076.2609,634.73064 -1074.0223,632.49207 -1071.2609,632.49207 -1068.4994,632.49207 -1066.2609,634.73064 -1066.2609,637.49207 z" />
      <text style="font-size:30; vertical-align:top; fill-opacity:1.0; fill:darkblue; text-anchor:right; stroke:none; font-weight:normal; font-style:italic; text-align:right; " transform="" id="A.FD2.i.text" y="630.492081435" x="-1064.26091813">
FD2.i</text>
      <circle style="stroke:red; stroke-width:1; fill:red; " transform="" cy="833.544693437" cx="-1044.01990141" r="5" id="A.FD2.o" d="M -1039.0199,833.54468 C -1039.0199,836.3061 -1041.2585,838.54468 -1044.0199,838.54468 -1046.7813,838.54468 -1049.0199,836.3061 -1049.0199,833.54468 -1049.0199,830.78325 -1046.7813,828.54468 -1044.0199,828.54468 -1041.2585,828.54468 -1039.0199,830.78325 -1039.0199,833.54468 z" />
      <text style="font-size:30; vertical-align:top; fill-opacity:1.0; fill:darkblue; text-anchor:right; stroke:none; font-weight:normal; font-style:italic; text-align:right; " transform="" id="A.FD2.o.text" y="826.544693437" x="-1037.01990141">
FD2.o</text>
      <circle style="stroke:red; stroke-width:1; fill:red; " transform="" cy="710.078740157" cx="-354.330708661" r="5" id="A.FD1" d="M -349.33072,710.07874 C -349.33072,712.84016 -351.5693,715.07874 -354.33072,715.07874 -357.09214,715.07874 -359.33072,712.84016 -359.33072,710.07874 -359.33072,707.31731 -357.09214,705.07874 -354.33072,705.07874 -351.5693,705.07874 -349.33072,707.31731 -349.33072,710.07874 z" />
      <text style="font-size:30; vertical-align:top; fill-opacity:1.0; fill:darkblue; text-anchor:right; stroke:none; font-weight:normal; font-style:italic; text-align:right; " transform="" id="A.FD1.text" y="703.078740157" x="-347.330708661">
FD1</text>
      <circle style="stroke:gray; stroke-width:1; fill:none; " transform="" cy="1221.23195941" cx="-627.381596258" r="5" id="A.FD1.o.outpoint" d="M -622.38159,1221.2319 C -622.38159,1223.9934 -624.62017,1226.2319 -627.38159,1226.2319 -630.14302,1226.2319 -632.38159,1223.9934 -632.38159,1221.2319 -632.38159,1218.4705 -630.14302,1216.2319 -627.38159,1216.2319 -624.62017,1216.2319 -622.38159,1218.4705 -622.38159,1221.2319 z" />
      <text style="font-size:25; vertical-align:top; fill-opacity:1.0; fill:gray; text-anchor:right; stroke:none; font-weight:normal; font-style:italic; text-align:right; " transform="" id="A.FD1.o.outpoint.text" y="1214.23195941" x="-620.381596258">
FD1.o.out</text>
      <circle style="stroke:red; stroke-width:1; fill:red; " transform="" cy="1250.86311177" cx="-439.717784338" r="5" id="A.FD1.o" d="M -434.71777,1250.8632 C -434.71777,1253.6246 -436.95635,1255.8632 -439.71777,1255.8632 -442.4792,1255.8632 -444.71777,1253.6246 -444.71777,1250.8632 -444.71777,1248.1017 -442.4792,1245.8632 -439.71777,1245.8632 -436.95635,1245.8632 -434.71777,1248.1017 -434.71777,1250.8632 z" />
      <text style="font-size:30; vertical-align:top; fill-opacity:1.0; fill:darkblue; text-anchor:right; stroke:none; font-weight:normal; font-style:italic; text-align:right; " transform="" id="A.FD1.o.text" y="1243.86311177" x="-432.717784338">
FD1.o</text>
      <circle style="stroke:gray; stroke-width:1; fill:none; " transform="" cy="1240.15748031" cx="-201.141355711" r="5" id="A.FD1.i.inpoint" d="M -196.14136,1240.1575 C -196.14136,1242.9189 -198.37993,1245.1575 -201.14136,1245.1575 -203.90278,1245.1575 -206.14136,1242.9189 -206.14136,1240.1575 -206.14136,1237.396 -203.90278,1235.1575 -201.14136,1235.1575 -198.37993,1235.1575 -196.14136,1237.396 -196.14136,1240.1575 z" />
      <text style="font-size:25; vertical-align:top; fill-opacity:1.0; fill:gray; text-anchor:right; stroke:none; font-weight:normal; font-style:italic; text-align:right; " transform="" id="A.FD1.i.inpoint.text" y="1233.15748031" x="-194.141355711">
FD1.i.in</text>
      <circle style="stroke:red; stroke-width:1; fill:red; " transform="" cy="1250.86311177" cx="-268.943632985" r="5" id="A.FD1.i" d="M -263.94363,1250.8632 C -263.94363,1253.6246 -266.18221,1255.8632 -268.94363,1255.8632 -271.70506,1255.8632 -273.94363,1253.6246 -273.94363,1250.8632 -273.94363,1248.1017 -271.70506,1245.8632 -268.94363,1245.8632 -266.18221,1245.8632 -263.94363,1248.1017 -263.94363,1250.8632 z" />
      <text style="font-size:30; vertical-align:top; fill-opacity:1.0; fill:darkblue; text-anchor:right; stroke:none; font-weight:normal; font-style:italic; text-align:right; " transform="" id="A.FD1.i.text" y="1243.86311177" x="-261.943632985">
FD1.i</text>
      <path style="stroke-linejoin:miter; stroke-dashoffset:0; stroke:gray; stroke-miterlimit:4; stroke-dasharray:6,6; stroke-width:2; fill:none; " transform="" d="M 0.0  1240.15748031 L -717.519685039  -223.334513127 L -717.519685039  -318.897637795 L 0.0  -318.897637795 L 0.0  0.0 M 0.0  637.795275591 L -354.330708661  637.795275591 L -990.160477948  430.82332606 M 0.0  318.897637795 L -921.25984252  318.897637795 L -951.920432539  308.91716441 L -1164.03803945  985.130882295 L -1140.61090594  992.756759109 L -921.25984252  318.897637795 M 0.0  1240.15748031 L -354.330708661  1240.15748031 L -354.330708661  637.795275591 L -670.334447545  1150.61284812 L -1140.61090594  992.756759109 M -354.330708661  637.795275591 L -437.620968391  649.368247433 M 0.0  159.448818898 L -639.566929134  159.448818898 " id="A.gridline" />
    </g>
    <g id="document.bodice.Bodice Back.reference" transform=" translate(1394.038039, 580.552283)">
      <circle style="stroke:gray; stroke-width:1; fill:none; " transform="" cy="0.0" cx="180.419110128" r="5" id="B.BNC.inpoint" d="M 185.41911,0 C 185.41911,2.7614237 183.18054,5 180.41911,5 177.65769,5 175.41911,2.7614237 175.41911,0 175.41911,-2.7614237 177.65769,-5 180.41911,-5 183.18054,-5 185.41911,-2.7614237 185.41911,0 z" />
      <text style="font-size:25; vertical-align:top; fill-opacity:1.0; fill:gray; text-anchor:right; stroke:none; font-weight:normal; font-style:italic; text-align:right; " transform="" id="B.BNC.inpoint.text" y="-7.0" x="187.419110128">
BNC.in</text>
      <circle style="stroke:red; stroke-width:1; fill:red; " transform="" cy="0.0" cx="0.0" r="5" id="B.BNC" d="M 5,0 C 5,2.7614237 2.7614237,5 0,5 -2.7614237,5 -5,2.7614237 -5,0 -5,-2.7614237 -2.7614237,-5 0,-5 2.7614237,-5 5,-2.7614237 5,0 z" />
      <text style="font-size:30; vertical-align:top; fill-opacity:1.0; fill:darkblue; text-anchor:right; stroke:none; font-weight:normal; font-style:italic; text-align:right; " transform="" id="B.BNC.text" y="-7.0" x="7.0">
BNC</text>
      <circle style="stroke:gray; stroke-width:1; fill:none; " transform="" cy="1346.45669291" cx="101.056789144" r="5" id="B.BWC.outpoint" d="M 106.05679,1346.4567 C 106.05679,1349.2181 103.81821,1351.4567 101.05679,1351.4567 98.295362,1351.4567 96.056786,1349.2181 96.056786,1346.4567 96.056786,1343.6952 98.295362,1341.4567 101.05679,1341.4567 103.81821,1341.4567 106.05679,1343.6952 106.05679,1346.4567 z" />
      <text style="font-size:25; vertical-align:top; fill-opacity:1.0; fill:gray; text-anchor:right; stroke:none; font-weight:normal; font-style:italic; text-align:right; " transform="" id="B.BWC.outpoint.text" y="1339.45669291" x="108.056789144">
BWC.out</text>
      <circle style="stroke:red; stroke-width:1; fill:red; " transform="" cy="1346.45669291" cx="0.0" r="5" id="B.BWC" d="M 5,1346.4567 C 5,1349.2181 2.7614237,1351.4567 0,1351.4567 -2.7614237,1351.4567 -5,1349.2181 -5,1346.4567 -5,1343.6952 -2.7614237,1341.4567 0,1341.4567 2.7614237,1341.4567 5,1343.6952 5,1346.4567 z" />
      <text style="font-size:30; vertical-align:top; fill-opacity:1.0; fill:darkblue; text-anchor:right; stroke:none; font-weight:normal; font-style:italic; text-align:right; " transform="" id="B.BWC.text" y="1339.45669291" x="7.0">
BWC</text>
      <circle style="stroke:red; stroke-width:1; fill:red; " transform="" cy="-141.732283465" cx="0.0" r="5" id="B.BSH" d="M 5,-141.73228 C 5,-138.97086 2.7614237,-136.73228 0,-136.73228 -2.7614237,-136.73228 -5,-138.97086 -5,-141.73228 -5,-144.49371 -2.7614237,-146.73228 0,-146.73228 2.7614237,-146.73228 5,-144.49371 5,-141.73228 z" />
      <text style="font-size:30; vertical-align:top; fill-opacity:1.0; fill:darkblue; text-anchor:right; stroke:none; font-weight:normal; font-style:italic; text-align:right; " transform="" id="B.BSH.text" y="-148.732283465" x="7.0">
BSH</text>
      <circle style="stroke:red; stroke-width:1; fill:red; " transform="" cy="-141.732283465" cx="708.661417323" r="5" id="B.BSW" d="M 713.66144,-141.73228 C 713.66144,-138.97086 711.42286,-136.73228 708.66144,-136.73228 705.90001,-136.73228 703.66144,-138.97086 703.66144,-141.73228 703.66144,-144.49371 705.90001,-146.73228 708.66144,-146.73228 711.42286,-146.73228 713.66144,-144.49371 713.66144,-141.73228 z" />
      <text style="font-size:30; vertical-align:top; fill-opacity:1.0; fill:darkblue; text-anchor:right; stroke:none; font-weight:normal; font-style:italic; text-align:right; " transform="" id="B.BSW.text" y="-148.732283465" x="715.661417323">
BSW</text>
      <circle style="stroke:gray; stroke-width:1; fill:none; " transform="" cy="95.9670984261" cx="690.343494931" r="5" id="B.BSP.inpoint" d="M 695.34351,95.967102 C 695.34351,98.728526 693.10493,100.9671 690.34351,100.9671 687.58208,100.9671 685.34351,98.728526 685.34351,95.967102 685.34351,93.205678 687.58208,90.967102 690.34351,90.967102 693.10493,90.967102 695.34351,93.205678 695.34351,95.967102 z" />
      <text style="font-size:25; vertical-align:top; fill-opacity:1.0; fill:gray; text-anchor:right; stroke:none; font-weight:normal; font-style:italic; text-align:right; " transform="" id="B.BSP.inpoint.text" y="88.9670984261" x="697.343494931">
BSP.in</text>
      <circle style="stroke:red; stroke-width:1; fill:red; " transform="" cy="37.8293872947" cx="708.661417323" r="5" id="B.BSP" d="M 713.66144,37.829388 C 713.66144,40.590811 711.42286,42.829388 708.66144,42.829388 705.90001,42.829388 703.66144,40.590811 703.66144,37.829388 703.66144,35.067964 705.90001,32.829388 708.66144,32.829388 711.42286,32.829388 713.66144,35.067964 713.66144,37.829388 z" />
      <text style="font-size:30; vertical-align:top; fill-opacity:1.0; fill:darkblue; text-anchor:right; stroke:none; font-weight:normal; font-style:italic; text-align:right; " transform="" id="B.BSP.text" y="30.8293872947" x="715.661417323">
BSP</text>
      <circle style="stroke:red; stroke-width:1; fill:red; " transform="" cy="637.795275591" cx="0.0" r="5" id="B.BUC" d="M 5,637.79529 C 5,640.55671 2.7614237,642.79529 0,642.79529 -2.7614237,642.79529 -5,640.55671 -5,637.79529 -5,635.03386 -2.7614237,632.79529 0,632.79529 2.7614237,632.79529 5,635.03386 5,637.79529 z" />
      <text style="font-size:30; vertical-align:top; fill-opacity:1.0; fill:darkblue; text-anchor:right; stroke:none; font-weight:normal; font-style:italic; text-align:right; " transform="" id="B.BUC.text" y="630.795275591" x="7.0">
BUC</text>
      <circle style="stroke:red; stroke-width:1; fill:red; " transform="" cy="637.795275591" cx="627.342519685" r="5" id="B.b7" d="M 632.34253,637.79529 C 632.34253,640.55671 630.10395,642.79529 627.34253,642.79529 624.58111,642.79529 622.34253,640.55671 622.34253,637.79529 622.34253,635.03386 624.58111,632.79529 627.34253,632.79529 630.10395,632.79529 632.34253,635.03386 632.34253,637.79529 z" />
      <text style="font-size:30; vertical-align:top; fill-opacity:1.0; fill:darkblue; text-anchor:right; stroke:none; font-weight:normal; font-style:italic; text-align:right; " transform="" id="B.b7.text" y="630.795275591" x="634.342519685">
b7</text>
      <circle style="stroke:red; stroke-width:1; fill:red; " transform="" cy="425.196850394" cx="0.0" r="5" id="B.BAC" d="M 5,425.19684 C 5,427.95826 2.7614237,430.19684 0,430.19684 -2.7614237,430.19684 -5,427.95826 -5,425.19684 -5,422.43541 -2.7614237,420.19684 0,420.19684 2.7614237,420.19684 5,422.43541 5,425.19684 z" />
      <text style="font-size:30; vertical-align:top; fill-opacity:1.0; fill:darkblue; text-anchor:right; stroke:none; font-weight:normal; font-style:italic; text-align:right; " transform="" id="B.BAC.text" y="418.196850394" x="7.0">
BAC</text>
      <circle style="stroke:gray; stroke-width:1; fill:none; " transform="" cy="637.795275591" cx="627.342519685" r="5" id="B.BAS.inpoint" d="M 632.34253,637.79529 C 632.34253,640.55671 630.10395,642.79529 627.34253,642.79529 624.58111,642.79529 622.34253,640.55671 622.34253,637.79529 622.34253,635.03386 624.58111,632.79529 627.34253,632.79529 630.10395,632.79529 632.34253,635.03386 632.34253,637.79529 z" />
      <text style="font-size:25; vertical-align:top; fill-opacity:1.0; fill:gray; text-anchor:right; stroke:none; font-weight:normal; font-style:italic; text-align:right; " transform="" id="B.BAS.inpoint.text" y="630.795275591" x="634.342519685">
BAS.in</text>
      <circle style="stroke:gray; stroke-width:1; fill:none; " transform="" cy="301.876523128" cx="627.342519685" r="5" id="B.BAS.outpoint" d="M 632.34253,301.87653 C 632.34253,304.63795 630.10395,306.87653 627.34253,306.87653 624.58111,306.87653 622.34253,304.63795 622.34253,301.87653 622.34253,299.1151 624.58111,296.87653 627.34253,296.87653 630.10395,296.87653 632.34253,299.1151 632.34253,301.87653 z" />
      <text style="font-size:25; vertical-align:top; fill-opacity:1.0; fill:gray; text-anchor:right; stroke:none; font-weight:normal; font-style:italic; text-align:right; " transform="" id="B.BAS.outpoint.text" y="294.876523128" x="634.342519685">
BAS.out</text>
      <circle style="stroke:red; stroke-width:1; fill:red; " transform="" cy="435.978023208" cx="627.342519685" r="5" id="B.BAS" d="M 632.34253,435.97803 C 632.34253,438.73945 630.10395,440.97803 627.34253,440.97803 624.58111,440.97803 622.34253,438.73945 622.34253,435.97803 622.34253,433.2166 624.58111,430.97803 627.34253,430.97803 630.10395,430.97803 632.34253,433.2166 632.34253,435.97803 z" />
      <text style="font-size:30; vertical-align:top; fill-opacity:1.0; fill:darkblue; text-anchor:right; stroke:none; font-weight:normal; font-style:italic; text-align:right; " transform="" id="B.BAS.text" y="428.978023208" x="634.342519685">
BAS</text>
      <circle style="stroke:gray; stroke-width:1; fill:none; " transform="" cy="-61.5848128519" cx="214.193583726" r="5" id="B.BNS.outpoint" d="M 219.19359,-61.584812 C 219.19359,-58.823388 216.95501,-56.584812 214.19359,-56.584812 211.43216,-56.584812 209.19359,-58.823388 209.19359,-61.584812 209.19359,-64.346236 211.43216,-66.584812 214.19359,-66.584812 216.95501,-66.584812 219.19359,-64.346236 219.19359,-61.584812 z" />
      <text style="font-size:25; vertical-align:top; fill-opacity:1.0; fill:gray; text-anchor:right; stroke:none; font-weight:normal; font-style:italic; text-align:right; " transform="" id="B.BNS.outpoint.text" y="-68.5848128519" x="221.193583726">
BNS.out</text>
      <circle style="stroke:red; stroke-width:1; fill:red; " transform="" cy="-109.659514506" cx="240.558813505" r="5" id="B.BNS" d="M 245.55881,-109.65952 C 245.55881,-106.89809 243.32023,-104.65952 240.55881,-104.65952 237.79738,-104.65952 235.55881,-106.89809 235.55881,-109.65952 235.55881,-112.42094 237.79738,-114.65952 240.55881,-114.65952 243.32023,-114.65952 245.55881,-112.42094 245.55881,-109.65952 z" />
      <text style="font-size:30; vertical-align:top; fill-opacity:1.0; fill:darkblue; text-anchor:right; stroke:none; font-weight:normal; font-style:italic; text-align:right; " transform="" id="B.BNS.text" y="-116.659514506" x="247.558813505">
BNS</text>
      <circle style="stroke:red; stroke-width:1; fill:red; " transform="" cy="637.795275591" cx="885.826771654" r="5" id="B.b1" d="M 890.82678,637.79529 C 890.82678,640.55671 888.58821,642.79529 885.82678,642.79529 883.06536,642.79529 880.82678,640.55671 880.82678,637.79529 880.82678,635.03386 883.06536,632.79529 885.82678,632.79529 888.58821,632.79529 890.82678,635.03386 890.82678,637.79529 z" />
      <text style="font-size:30; vertical-align:top; fill-opacity:1.0; fill:darkblue; text-anchor:right; stroke:none; font-weight:normal; font-style:italic; text-align:right; " transform="" id="B.b1.text" y="630.795275591" x="892.826771654">
b1</text>
      <circle style="stroke:red; stroke-width:1; fill:red; " transform="" cy="637.795275591" cx="383.761673202" r="5" id="B.BD1" d="M 388.76169,637.79529 C 388.76169,640.55671 386.52311,642.79529 383.76169,642.79529 381.00026,642.79529 378.76169,640.55671 378.76169,637.79529 378.76169,635.03386 381.00026,632.79529 383.76169,632.79529 386.52311,632.79529 388.76169,635.03386 388.76169,637.79529 z" />
      <text style="font-size:30; vertical-align:top; fill-opacity:1.0; fill:darkblue; text-anchor:right; stroke:none; font-weight:normal; font-style:italic; text-align:right; " transform="" id="B.BD1.text" y="630.795275591" x="390.761673202">
BD1</text>
      <circle style="stroke:red; stroke-width:1; fill:red; " transform="" cy="1346.45669291" cx="383.761673202" r="5" id="B.b2" d="M 388.76169,1346.4567 C 388.76169,1349.2181 386.52311,1351.4567 383.76169,1351.4567 381.00026,1351.4567 378.76169,1349.2181 378.76169,1346.4567 378.76169,1343.6952 381.00026,1341.4567 383.76169,1341.4567 386.52311,1341.4567 388.76169,1343.6952 388.76169,1346.4567 z" />
      <text style="font-size:30; vertical-align:top; fill-opacity:1.0; fill:darkblue; text-anchor:right; stroke:none; font-weight:normal; font-style:italic; text-align:right; " transform="" id="B.b2.text" y="1339.45669291" x="390.761673202">
b2</text>
      <circle style="stroke:gray; stroke-width:1; fill:none; " transform="" cy="1346.45669291" cx="230.600026626" r="5" id="B.BD1.i.inpoint" d="M 235.60002,1346.4567 C 235.60002,1349.2181 233.36145,1351.4567 230.60002,1351.4567 227.8386,1351.4567 225.60002,1349.2181 225.60002,1346.4567 225.60002,1343.6952 227.8386,1341.4567 230.60002,1341.4567 233.36145,1341.4567 235.60002,1343.6952 235.60002,1346.4567 z" />
      <text style="font-size:25; vertical-align:top; fill-opacity:1.0; fill:gray; text-anchor:right; stroke:none; font-weight:normal; font-style:italic; text-align:right; " transform="" id="B.BD1.i.inpoint.text" y="1339.45669291" x="237.600026626">
BD1.i.in</text>
      <circle style="stroke:red; stroke-width:1; fill:red; " transform="" cy="1354.63633647" cx="306.123433496" r="5" id="B.BD1.i" d="M 311.12344,1354.6364 C 311.12344,1357.3978 308.88487,1359.6364 306.12344,1359.6364 303.36202,1359.6364 301.12344,1357.3978 301.12344,1354.6364 301.12344,1351.8749 303.36202,1349.6364 306.12344,1349.6364 308.88487,1349.6364 311.12344,1351.8749 311.12344,1354.6364 z" />
      <text style="font-size:30; vertical-align:top; fill-opacity:1.0; fill:darkblue; text-anchor:right; stroke:none; font-weight:normal; font-style:italic; text-align:right; " transform="" id="B.BD1.i.text" y="1347.63633647" x="313.123433496">
BD1.i</text>
      <circle style="stroke:gray; stroke-width:1; fill:none; " transform="" cy="1345.60658464" cx="544.772448194" r="5" id="B.BD1.o.outpoint" d="M 549.77246,1345.6066 C 549.77246,1348.368 547.53388,1350.6066 544.77246,1350.6066 542.01104,1350.6066 539.77246,1348.368 539.77246,1345.6066 539.77246,1342.8451 542.01104,1340.6066 544.77246,1340.6066 547.53388,1340.6066 549.77246,1342.8451 549.77246,1345.6066 z" />
      <text style="font-size:25; vertical-align:top; fill-opacity:1.0; fill:gray; text-anchor:right; stroke:none; font-weight:normal; font-style:italic; text-align:right; " transform="" id="B.BD1.o.outpoint.text" y="1338.60658464" x="551.772448194">
BD1.o.out</text>
      <circle style="stroke:red; stroke-width:1; fill:red; " transform="" cy="1354.63633647" cx="461.399912908" r="5" id="B.BD1.o" d="M 466.3999,1354.6364 C 466.3999,1357.3978 464.16133,1359.6364 461.3999,1359.6364 458.63848,1359.6364 456.3999,1357.3978 456.3999,1354.6364 456.3999,1351.8749 458.63848,1349.6364 461.3999,1349.6364 464.16133,1349.6364 466.3999,1351.8749 466.3999,1354.6364 z" />
      <text style="font-size:30; vertical-align:top; fill-opacity:1.0; fill:darkblue; text-anchor:right; stroke:none; font-weight:normal; font-style:italic; text-align:right; " transform="" id="B.BD1.o.text" y="1347.63633647" x="468.399912908">
BD1.o</text>
      <circle style="stroke:red; stroke-width:1; fill:red; " transform="" cy="1343.98784763" cx="826.724693851" r="5" id="B.b5" d="M 831.72467,1343.9878 C 831.72467,1346.7492 829.48609,1348.9878 826.72467,1348.9878 823.96325,1348.9878 821.72467,1346.7492 821.72467,1343.9878 821.72467,1341.2264 823.96325,1338.9878 826.72467,1338.9878 829.48609,1338.9878 831.72467,1341.2264 831.72467,1343.9878 z" />
      <text style="font-size:30; vertical-align:top; fill-opacity:1.0; fill:darkblue; text-anchor:right; stroke:none; font-weight:normal; font-style:italic; text-align:right; " transform="" id="B.b5.text" y="1336.98784763" x="833.724693851">
b5</text>
      <circle style="stroke:red; stroke-width:1; fill:red; " transform="" cy="637.795275591" cx="918.070866142" r="5" id="B.b6" d="M 923.07086,637.79529 C 923.07086,640.55671 920.83229,642.79529 918.07086,642.79529 915.30944,642.79529 913.07086,640.55671 913.07086,637.79529 913.07086,635.03386 915.30944,632.79529 918.07086,632.79529 920.83229,632.79529 923.07086,635.03386 923.07086,637.79529 z" />
      <text style="font-size:30; vertical-align:top; fill-opacity:1.0; fill:darkblue; text-anchor:right; stroke:none; font-weight:normal; font-style:italic; text-align:right; " transform="" id="B.b6.text" y="630.795275591" x="925.070866142">
b6</text>
      <circle style="stroke:gray; stroke-width:1; fill:none; " transform="" cy="1344.66753805" cx="722.628170118" r="5" id="B.BWS.inpoint" d="M 727.62817,1344.6675 C 727.62817,1347.4289 725.3896,1349.6675 722.62817,1349.6675 719.86675,1349.6675 717.62817,1347.4289 717.62817,1344.6675 717.62817,1341.9061 719.86675,1339.6675 722.62817,1339.6675 725.3896,1339.6675 727.62817,1341.9061 727.62817,1344.6675 z" />
      <text style="font-size:25; vertical-align:top; fill-opacity:1.0; fill:gray; text-anchor:right; stroke:none; font-weight:normal; font-style:italic; text-align:right; " transform="" id="B.BWS.inpoint.text" y="1337.66753805" x="729.628170118">
BWS.in</text>
      <circle style="stroke:red; stroke-width:1; fill:red; " transform="" cy="1343.98784763" cx="851.361750937" r="5" id="B.BWS" d="M 856.36176,1343.9878 C 856.36176,1346.7492 854.12318,1348.9878 851.36176,1348.9878 848.60033,1348.9878 846.36176,1346.7492 846.36176,1343.9878 846.36176,1341.2264 848.60033,1338.9878 851.36176,1338.9878 854.12318,1338.9878 856.36176,1341.2264 856.36176,1343.9878 z" />
      <text style="font-size:30; vertical-align:top; fill-opacity:1.0; fill:darkblue; text-anchor:right; stroke:none; font-weight:normal; font-style:italic; text-align:right; " transform="" id="B.BWS.text" y="1336.98784763" x="858.361750937">
BWS</text>
      <circle style="stroke:gray; stroke-width:1; fill:none; " transform="" cy="734.910965532" cx="815.843211147" r="5" id="B.BUS.outpoint" d="M 820.8432,734.91095 C 820.8432,737.67237 818.60462,739.91095 815.8432,739.91095 813.08178,739.91095 810.8432,737.67237 810.8432,734.91095 810.8432,732.14953 813.08178,729.91095 815.8432,729.91095 818.60462,729.91095 820.8432,732.14953 820.8432,734.91095 z" />
      <text style="font-size:25; vertical-align:top; fill-opacity:1.0; fill:gray; text-anchor:right; stroke:none; font-weight:normal; font-style:italic; text-align:right; " transform="" id="B.BUS.outpoint.text" y="727.910965532" x="822.843211147">
BUS.out</text>
      <circle style="stroke:red; stroke-width:1; fill:red; " transform="" cy="743.623370461" cx="908.074019882" r="5" id="B.BUS" d="M 913.07404,743.62335 C 913.07404,746.38478 910.83546,748.62335 908.07404,748.62335 905.31261,748.62335 903.07404,746.38478 903.07404,743.62335 903.07404,740.86193 905.31261,738.62335 908.07404,738.62335 910.83546,738.62335 913.07404,740.86193 913.07404,743.62335 z" />
      <text style="font-size:30; vertical-align:top; fill-opacity:1.0; fill:darkblue; text-anchor:right; stroke:none; font-weight:normal; font-style:italic; text-align:right; " transform="" id="B.BUS.text" y="736.623370461" x="915.074019882">
BUS</text>
      <circle style="stroke:red; stroke-width:1; fill:red; " transform="" cy="104.234043908" cx="430.45219408" r="5" id="B.BD2" d="M 435.45218,104.23405 C 435.45218,106.99547 433.2136,109.23405 430.45218,109.23405 427.69076,109.23405 425.45218,106.99547 425.45218,104.23405 425.45218,101.47262 427.69076,99.234047 430.45218,99.234047 433.2136,99.234047 435.45218,101.47262 435.45218,104.23405 z" />
      <text style="font-size:30; vertical-align:top; fill-opacity:1.0; fill:darkblue; text-anchor:right; stroke:none; font-weight:normal; font-style:italic; text-align:right; " transform="" id="B.BD2.text" y="97.2340439084" x="437.45219408">
BD2</text>
      <circle style="stroke:red; stroke-width:1; fill:red; " transform="" cy="-51.9514480849" cx="496.566196517" r="5" id="B.BD2.o" d="M 501.56619,-51.951447 C 501.56619,-49.190023 499.32762,-46.951447 496.56619,-46.951447 493.80477,-46.951447 491.56619,-49.190023 491.56619,-51.951447 491.56619,-54.71287 493.80477,-56.951447 496.56619,-56.951447 499.32762,-56.951447 501.56619,-54.71287 501.56619,-51.951447 z" />
      <text style="font-size:30; vertical-align:top; fill-opacity:1.0; fill:darkblue; text-anchor:right; stroke:none; font-weight:normal; font-style:italic; text-align:right; " transform="" id="B.BD2.o.text" y="-58.9514480849" x="503.566196517">
BD2.o</text>
      <circle style="stroke:red; stroke-width:1; fill:red; " transform="" cy="-61.6412621745" cx="465.812511661" r="5" id="B.BD2.i" d="M 470.8125,-61.641262 C 470.8125,-58.879838 468.57392,-56.641262 465.8125,-56.641262 463.05108,-56.641262 460.8125,-58.879838 460.8125,-61.641262 460.8125,-64.402686 463.05108,-66.641262 465.8125,-66.641262 468.57392,-66.641262 470.8125,-64.402686 470.8125,-61.641262 z" />
      <text style="font-size:30; vertical-align:top; fill-opacity:1.0; fill:darkblue; text-anchor:right; stroke:none; font-weight:normal; font-style:italic; text-align:right; " transform="" id="B.BD2.i.text" y="-68.6412621745" x="472.812511661">
BD2.i</text>
      <path style="stroke-linejoin:miter; stroke-dashoffset:0; stroke:gray; stroke-miterlimit:4; stroke-dasharray:6,6; stroke-width:2; fill:none; " transform="" d="M 0.0  1346.45669291 L 708.661417323  37.8293872947 L 708.661417323  -141.732283465 L 0.0  -141.732283465 L 0.0  637.795275591 L 918.070866142  637.795275591 L 908.074019882  743.623370461 M 885.826771654  637.795275591 L 826.724693851  1343.98784763 L 851.361750937  1343.98784763 M 0.0  425.196850394 L 627.342519685  435.978023208 " id="B.gridline" />
    </g>
    <g id="document.bodice.Bodice Sleeve.reference" transform=" translate(741.849007, 2235.392415)">
      <circle style="stroke:gray; stroke-width:1; fill:none; " transform="" cy="0.0" cx="-112.566714987" r="5" id="C.SCM.inpoint" d="M -107.56671,0 C -107.56671,2.7614237 -109.80529,5 -112.56671,5 -115.32814,5 -117.56671,2.7614237 -117.56671,0 -117.56671,-2.7614237 -115.32814,-5 -112.56671,-5 -109.80529,-5 -107.56671,-2.7614237 -107.56671,0 z" />
      <text style="font-size:25; vertical-align:top; fill-opacity:1.0; fill:gray; text-anchor:right; stroke:none; font-weight:normal; font-style:italic; text-align:right; " transform="" id="C.SCM.inpoint.text" y="-7.0" x="-105.566714987">
SCM.in</text>
      <circle style="stroke:gray; stroke-width:1; fill:none; " transform="" cy="0.0" cx="126.63755436" r="5" id="C.SCM.outpoint" d="M 131.63756,0 C 131.63756,2.7614237 129.39898,5 126.63756,5 123.87613,5 121.63756,2.7614237 121.63756,0 121.63756,-2.7614237 123.87613,-5 126.63756,-5 129.39898,-5 131.63756,-2.7614237 131.63756,0 z" />
      <text style="font-size:25; vertical-align:top; fill-opacity:1.0; fill:gray; text-anchor:right; stroke:none; font-weight:normal; font-style:italic; text-align:right; " transform="" id="C.SCM.outpoint.text" y="-7.0" x="133.63755436">
SCM.out</text>
      <circle style="stroke:red; stroke-width:1; fill:red; " transform="" cy="0" cx="0" r="5" id="C.SCM" d="M 5,0 C 5,2.7614237 2.7614237,5 0,5 -2.7614237,5 -5,2.7614237 -5,0 -5,-2.7614237 -2.7614237,-5 0,-5 2.7614237,-5 5,-2.7614237 5,0 z" />
      <text style="font-size:30; vertical-align:top; fill-opacity:1.0; fill:darkblue; text-anchor:right; stroke:none; font-weight:normal; font-style:italic; text-align:right; " transform="" id="C.SCM.text" y="-7" x="7">
SCM</text>
      <circle style="stroke:red; stroke-width:1; fill:red; " transform="" cy="2161.41732283" cx="0" r="5" id="C.SWM" d="M 5,2161.4172 C 5,2164.1787 2.7614237,2166.4172 0,2166.4172 -2.7614237,2166.4172 -5,2164.1787 -5,2161.4172 -5,2158.6558 -2.7614237,2156.4172 0,2156.4172 2.7614237,2156.4172 5,2158.6558 5,2161.4172 z" />
      <text style="font-size:30; vertical-align:top; fill-opacity:1.0; fill:darkblue; text-anchor:right; stroke:none; font-weight:normal; font-style:italic; text-align:right; " transform="" id="C.SWM.text" y="2154.41732283" x="7">
SWM</text>
      <circle style="stroke:red; stroke-width:1; fill:red; " transform="" cy="425.196850394" cx="0" r="5" id="C.SUM1" d="M 5,425.19684 C 5,427.95826 2.7614237,430.19684 0,430.19684 -2.7614237,430.19684 -5,427.95826 -5,425.19684 -5,422.43541 -2.7614237,420.19684 0,420.19684 2.7614237,420.19684 5,422.43541 5,425.19684 z" />
      <text style="font-size:30; vertical-align:top; fill-opacity:1.0; fill:darkblue; text-anchor:right; stroke:none; font-weight:normal; font-style:italic; text-align:right; " transform="" id="C.SUM1.text" y="418.196850394" x="7">
SUM1</text>
      <circle style="stroke:red; stroke-width:1; fill:red; " transform="" cy="467.716535433" cx="0" r="5" id="C.SUM" d="M 5,467.71652 C 5,470.47795 2.7614237,472.71652 0,472.71652 -2.7614237,472.71652 -5,470.47795 -5,467.71652 -5,464.9551 -2.7614237,462.71652 0,462.71652 2.7614237,462.71652 5,464.9551 5,467.71652 z" />
      <text style="font-size:30; vertical-align:top; fill-opacity:1.0; fill:darkblue; text-anchor:right; stroke:none; font-weight:normal; font-style:italic; text-align:right; " transform="" id="C.SUM.text" y="460.716535433" x="7">
SUM</text>
      <circle style="stroke:red; stroke-width:1; fill:red; " transform="" cy="467.716535433" cx="321.55511811" r="5" id="C.SUFm" d="M 326.55511,467.71652 C 326.55511,470.47795 324.31654,472.71652 321.55511,472.71652 318.79369,472.71652 316.55511,470.47795 316.55511,467.71652 316.55511,464.9551 318.79369,462.71652 321.55511,462.71652 324.31654,462.71652 326.55511,464.9551 326.55511,467.71652 z" />
      <text style="font-size:30; vertical-align:top; fill-opacity:1.0; fill:darkblue; text-anchor:right; stroke:none; font-weight:normal; font-style:italic; text-align:right; " transform="" id="C.SUFm.text" y="460.716535433" x="328.55511811">
SUFm</text>
      <circle style="stroke:red; stroke-width:1; fill:red; " transform="" cy="467.716535433" cx="-321.55511811" r="5" id="C.SUBm" d="M -316.55511,467.71652 C -316.55511,470.47795 -318.79369,472.71652 -321.55511,472.71652 -324.31654,472.71652 -326.55511,470.47795 -326.55511,467.71652 -326.55511,464.9551 -324.31654,462.71652 -321.55511,462.71652 -318.79369,462.71652 -316.55511,464.9551 -316.55511,467.71652 z" />
      <text style="font-size:30; vertical-align:top; fill-opacity:1.0; fill:darkblue; text-anchor:right; stroke:none; font-weight:normal; font-style:italic; text-align:right; " transform="" id="C.SUBm.text" y="460.716535433" x="-314.55511811">
SUBm</text>
      <circle style="stroke:red; stroke-width:1; fill:red; " transform="" cy="1314.56692913" cx="0.0" r="5" id="C.SEM" d="M 5,1314.5669 C 5,1317.3283 2.7614237,1319.5669 0,1319.5669 -2.7614237,1319.5669 -5,1317.3283 -5,1314.5669 -5,1311.8055 -2.7614237,1309.5669 0,1309.5669 2.7614237,1309.5669 5,1311.8055 5,1314.5669 z" />
      <text style="font-size:30; vertical-align:top; fill-opacity:1.0; fill:darkblue; text-anchor:right; stroke:none; font-weight:normal; font-style:italic; text-align:right; " transform="" id="C.SEM.text" y="1307.56692913" x="7.0">
SEM</text>
      <circle style="stroke:red; stroke-width:1; fill:red; " transform="" cy="1314.56692913" cx="292.322834646" r="5" id="C.SEF1" d="M 297.32285,1314.5669 C 297.32285,1317.3283 295.08427,1319.5669 292.32285,1319.5669 289.56142,1319.5669 287.32285,1317.3283 287.32285,1314.5669 287.32285,1311.8055 289.56142,1309.5669 292.32285,1309.5669 295.08427,1309.5669 297.32285,1311.8055 297.32285,1314.5669 z" />
      <text style="font-size:30; vertical-align:top; fill-opacity:1.0; fill:darkblue; text-anchor:right; stroke:none; font-weight:normal; font-style:italic; text-align:right; " transform="" id="C.SEF1.text" y="1307.56692913" x="299.322834646">
SEF1</text>
      <circle style="stroke:red; stroke-width:1; fill:red; " transform="" cy="1314.56692913" cx="-292.322834646" r="5" id="C.SEB1" d="M -287.32285,1314.5669 C -287.32285,1317.3283 -289.56142,1319.5669 -292.32285,1319.5669 -295.08427,1319.5669 -297.32285,1317.3283 -297.32285,1314.5669 -297.32285,1311.8055 -295.08427,1309.5669 -292.32285,1309.5669 -289.56142,1309.5669 -287.32285,1311.8055 -287.32285,1314.5669 z" />
      <text style="font-size:30; vertical-align:top; fill-opacity:1.0; fill:darkblue; text-anchor:right; stroke:none; font-weight:normal; font-style:italic; text-align:right; " transform="" id="C.SEB1.text" y="1307.56692913" x="-285.322834646">
SEB1</text>
      <circle style="stroke:red; stroke-width:1; fill:red; " transform="" cy="0" cx="337.700144961" r="5" id="C.SCF" d="M 342.70013,0 C 342.70013,2.7614237 340.46156,5 337.70013,5 334.93871,5 332.70013,2.7614237 332.70013,0 332.70013,-2.7614237 334.93871,-5 337.70013,-5 340.46156,-5 342.70013,-2.7614237 342.70013,0 z" />
      <text style="font-size:30; vertical-align:top; fill-opacity:1.0; fill:darkblue; text-anchor:right; stroke:none; font-weight:normal; font-style:italic; text-align:right; " transform="" id="C.SCF.text" y="-7" x="344.700144961">
SCF</text>
      <circle style="stroke:red; stroke-width:1; fill:red; " transform="" cy="0" cx="-337.700144961" r="5" id="C.SCB" d="M -332.70013,0 C -332.70013,2.7614237 -334.93871,5 -337.70013,5 -340.46156,5 -342.70013,2.7614237 -342.70013,0 -342.70013,-2.7614237 -340.46156,-5 -337.70013,-5 -334.93871,-5 -332.70013,-2.7614237 -332.70013,0 z" />
      <text style="font-size:30; vertical-align:top; fill-opacity:1.0; fill:darkblue; text-anchor:right; stroke:none; font-weight:normal; font-style:italic; text-align:right; " transform="" id="C.SCB.text" y="-7" x="-330.700144961">
SCB</text>
      <circle style="stroke:red; stroke-width:1; fill:red; " transform="" cy="2161.41732283" cx="263.090551181" r="5" id="C.SWF1" d="M 268.09055,2161.4172 C 268.09055,2164.1787 265.85197,2166.4172 263.09055,2166.4172 260.32912,2166.4172 258.09055,2164.1787 258.09055,2161.4172 258.09055,2158.6558 260.32912,2156.4172 263.09055,2156.4172 265.85197,2156.4172 268.09055,2158.6558 268.09055,2161.4172 z" />
      <text style="font-size:30; vertical-align:top; fill-opacity:1.0; fill:darkblue; text-anchor:right; stroke:none; font-weight:normal; font-style:italic; text-align:right; " transform="" id="C.SWF1.text" y="2154.41732283" x="270.090551181">
SWF1</text>
      <circle style="stroke:red; stroke-width:1; fill:red; " transform="" cy="233.858267717" cx="329.627631536" r="5" id="C.s1" d="M 334.62762,233.85826 C 334.62762,236.61968 332.38905,238.85826 329.62762,238.85826 326.8662,238.85826 324.62762,236.61968 324.62762,233.85826 324.62762,231.09684 326.8662,228.85826 329.62762,228.85826 332.38905,228.85826 334.62762,231.09684 334.62762,233.85826 z" />
      <text style="font-size:30; vertical-align:top; fill-opacity:1.0; fill:darkblue; text-anchor:right; stroke:none; font-weight:normal; font-style:italic; text-align:right; " transform="" id="C.s1.text" y="226.858267717" x="336.627631536">
s1</text>
      <circle style="stroke:gray; stroke-width:1; fill:none; " transform="" cy="54.5016513711" cx="279.046100368" r="5" id="C.s2.inpoint" d="M 284.04611,54.501652 C 284.04611,57.263076 281.80754,59.501652 279.04611,59.501652 276.28469,59.501652 274.04611,57.263076 274.04611,54.501652 274.04611,51.740228 276.28469,49.501652 279.04611,49.501652 281.80754,49.501652 284.04611,51.740228 284.04611,54.501652 z" />
      <text style="font-size:25; vertical-align:top; fill-opacity:1.0; fill:gray; text-anchor:right; stroke:none; font-weight:normal; font-style:italic; text-align:right; " transform="" id="C.s2.inpoint.text" y="47.5016513711" x="286.046100368">
s2.in</text>
      <circle style="stroke:gray; stroke-width:1; fill:none; " transform="" cy="216.571381203" cx="355.680432517" r="5" id="C.s2.outpoint" d="M 360.68042,216.57138 C 360.68042,219.3328 358.44184,221.57138 355.68042,221.57138 352.919,221.57138 350.68042,219.3328 350.68042,216.57138 350.68042,213.80996 352.919,211.57138 355.68042,211.57138 358.44184,211.57138 360.68042,213.80996 360.68042,216.57138 z" />
      <text style="font-size:25; vertical-align:top; fill-opacity:1.0; fill:gray; text-anchor:right; stroke:none; font-weight:normal; font-style:italic; text-align:right; " transform="" id="C.s2.outpoint.text" y="209.571381203" x="362.680432517">
s2.out</text>
      <circle style="stroke:red; stroke-width:1; fill:red; " transform="" cy="168.376103949" cx="332.891396657" r="5" id="C.s2" d="M 337.89139,168.3761 C 337.89139,171.13752 335.65281,173.3761 332.89139,173.3761 330.12996,173.3761 327.89139,171.13752 327.89139,168.3761 327.89139,165.61467 330.12996,163.3761 332.89139,163.3761 335.65281,163.3761 337.89139,165.61467 337.89139,168.3761 z" />
      <text style="font-size:30; vertical-align:top; fill-opacity:1.0; fill:darkblue; text-anchor:right; stroke:none; font-weight:normal; font-style:italic; text-align:right; " transform="" id="C.s2.text" y="161.376103949" x="339.891396657">
s2</text>
      <circle style="stroke:red; stroke-width:1; fill:red; " transform="" cy="233.858267717" cx="-329.627631536" r="5" id="C.s3" d="M -324.62762,233.85826 C -324.62762,236.61968 -326.8662,238.85826 -329.62762,238.85826 -332.38905,238.85826 -334.62762,236.61968 -334.62762,233.85826 -334.62762,231.09684 -332.38905,228.85826 -329.62762,228.85826 -326.8662,228.85826 -324.62762,231.09684 -324.62762,233.85826 z" />
      <text style="font-size:30; vertical-align:top; fill-opacity:1.0; fill:darkblue; text-anchor:right; stroke:none; font-weight:normal; font-style:italic; text-align:right; " transform="" id="C.s3.text" y="226.858267717" x="-322.627631536">
s3</text>
      <circle style="stroke:gray; stroke-width:1; fill:none; " transform="" cy="292.153849311" cx="-412.68748013" r="5" id="C.s4.inpoint" d="M -407.68747,292.15384 C -407.68747,294.91526 -409.92605,297.15384 -412.68747,297.15384 -415.44889,297.15384 -417.68747,294.91526 -417.68747,292.15384 -417.68747,289.39242 -415.44889,287.15384 -412.68747,287.15384 -409.92605,287.15384 -407.68747,289.39242 -407.68747,292.15384 z" />
      <text style="font-size:25; vertical-align:top; fill-opacity:1.0; fill:gray; text-anchor:right; stroke:none; font-weight:normal; font-style:italic; text-align:right; " transform="" id="C.s4.inpoint.text" y="285.153849311" x="-405.68748013">
s4.in</text>
      <circle style="stroke:gray; stroke-width:1; fill:none; " transform="" cy="46.3331494851" cx="-254.87792885" r="5" id="C.s4.outpoint" d="M -249.87793,46.333149 C -249.87793,49.094573 -252.11651,51.333149 -254.87793,51.333149 -257.63935,51.333149 -259.87793,49.094573 -259.87793,46.333149 -259.87793,43.571725 -257.63935,41.333149 -254.87793,41.333149 -252.11651,41.333149 -249.87793,43.571725 -249.87793,46.333149 z" />
      <text style="font-size:25; vertical-align:top; fill-opacity:1.0; fill:gray; text-anchor:right; stroke:none; font-weight:normal; font-style:italic; text-align:right; " transform="" id="C.s4.outpoint.text" y="39.3331494851" x="-247.87792885">
s4.out</text>
      <circle style="stroke:red; stroke-width:1; fill:red; " transform="" cy="184.164352366" cx="-343.361446692" r="5" id="C.s4" d="M -338.36145,184.16435 C -338.36145,186.92578 -340.60003,189.16435 -343.36145,189.16435 -346.12287,189.16435 -348.36145,186.92578 -348.36145,184.16435 -348.36145,181.40293 -346.12287,179.16435 -343.36145,179.16435 -340.60003,179.16435 -338.36145,181.40293 -338.36145,184.16435 z" />
      <text style="font-size:30; vertical-align:top; fill-opacity:1.0; fill:darkblue; text-anchor:right; stroke:none; font-weight:normal; font-style:italic; text-align:right; " transform="" id="C.s4.text" y="177.164352366" x="-336.361446692">
s4</text>
      <circle style="stroke:red; stroke-width:1; fill:red; " transform="" cy="0" cx="253.275108721" r="5" id="C.s5" d="M 258.27512,0 C 258.27512,2.7614237 256.03654,5 253.27512,5 250.51369,5 248.27512,2.7614237 248.27512,0 248.27512,-2.7614237 250.51369,-5 253.27512,-5 256.03654,-5 258.27512,-2.7614237 258.27512,0 z" />
      <text style="font-size:30; vertical-align:top; fill-opacity:1.0; fill:darkblue; text-anchor:right; stroke:none; font-weight:normal; font-style:italic; text-align:right; " transform="" id="C.s5.text" y="-7" x="260.275108721">
s5</text>
      <circle style="stroke:red; stroke-width:1; fill:red; " transform="" cy="0" cx="-225.133429974" r="5" id="C.s6" d="M -220.13342,0 C -220.13342,2.7614237 -222.372,5 -225.13342,5 -227.89485,5 -230.13342,2.7614237 -230.13342,0 -230.13342,-2.7614237 -227.89485,-5 -225.13342,-5 -222.372,-5 -220.13342,-2.7614237 -220.13342,0 z" />
      <text style="font-size:30; vertical-align:top; fill-opacity:1.0; fill:darkblue; text-anchor:right; stroke:none; font-weight:normal; font-style:italic; text-align:right; " transform="" id="C.s6.text" y="-7" x="-218.133429974">
s6</text>
      <circle style="stroke:red; stroke-width:1; fill:red; " transform="" cy="467.716535433" cx="160.777559055" r="5" id="C.s7" d="M 165.77756,467.71652 C 165.77756,470.47795 163.53898,472.71652 160.77756,472.71652 158.01613,472.71652 155.77756,470.47795 155.77756,467.71652 155.77756,464.9551 158.01613,462.71652 160.77756,462.71652 163.53898,462.71652 165.77756,464.9551 165.77756,467.71652 z" />
      <text style="font-size:30; vertical-align:top; fill-opacity:1.0; fill:darkblue; text-anchor:right; stroke:none; font-weight:normal; font-style:italic; text-align:right; " transform="" id="C.s7.text" y="460.716535433" x="167.777559055">
s7</text>
      <circle style="stroke:red; stroke-width:1; fill:red; " transform="" cy="467.716535433" cx="-90.0" r="5" id="C.s8" d="M -85,467.71652 C -85,470.47795 -87.238576,472.71652 -90,472.71652 -92.761424,472.71652 -95,470.47795 -95,467.71652 -95,464.9551 -92.761424,462.71652 -90,462.71652 -87.238576,462.71652 -85,464.9551 -85,467.71652 z" />
      <text style="font-size:30; vertical-align:top; fill-opacity:1.0; fill:darkblue; text-anchor:right; stroke:none; font-weight:normal; font-style:italic; text-align:right; " transform="" id="C.s8.text" y="460.716535433" x="-83.0">
s8</text>
      <circle style="stroke:red; stroke-width:1; fill:red; " transform="" cy="92.6662989701" cx="-284.622427726" r="5" id="C.s10" d="M -279.62244,92.666298 C -279.62244,95.427722 -281.86101,97.666298 -284.62244,97.666298 -287.38386,97.666298 -289.62244,95.427722 -289.62244,92.666298 -289.62244,89.904874 -287.38386,87.666298 -284.62244,87.666298 -281.86101,87.666298 -279.62244,89.904874 -279.62244,92.666298 z" />
      <text style="font-size:30; vertical-align:top; fill-opacity:1.0; fill:darkblue; text-anchor:right; stroke:none; font-weight:normal; font-style:italic; text-align:right; " transform="" id="C.s10.text" y="85.6662989701" x="-277.622427726">
s10</text>
      <circle style="stroke:red; stroke-width:1; fill:red; " transform="" cy="317.057491022" cx="246.366912291" r="5" id="C.s11" d="M 251.36691,317.0575 C 251.36691,319.81892 249.12834,322.0575 246.36691,322.0575 243.60549,322.0575 241.36691,319.81892 241.36691,317.0575 241.36691,314.29607 243.60549,312.0575 246.36691,312.0575 249.12834,312.0575 251.36691,314.29607 251.36691,317.0575 z" />
      <text style="font-size:30; vertical-align:top; fill-opacity:1.0; fill:darkblue; text-anchor:right; stroke:none; font-weight:normal; font-style:italic; text-align:right; " transform="" id="C.s11.text" y="310.057491022" x="253.366912291">
s11</text>
      <circle style="stroke:red; stroke-width:1; fill:red; " transform="" cy="317.057491022" cx="-210.978132764" r="5" id="C.s12" d="M -205.97813,317.0575 C -205.97813,319.81892 -208.21671,322.0575 -210.97813,322.0575 -213.73956,322.0575 -215.97813,319.81892 -215.97813,317.0575 -215.97813,314.29607 -213.73956,312.0575 -210.97813,312.0575 -208.21671,312.0575 -205.97813,314.29607 -205.97813,317.0575 z" />
      <text style="font-size:30; vertical-align:top; fill-opacity:1.0; fill:darkblue; text-anchor:right; stroke:none; font-weight:normal; font-style:italic; text-align:right; " transform="" id="C.s12.text" y="310.057491022" x="-203.978132764">
s12</text>
      <circle style="stroke:gray; stroke-width:1; fill:none; " transform="" cy="478.803031284" cx="481.949984317" r="5" id="C.SUF.inpoint" d="M 486.94998,478.80304 C 486.94998,481.56446 484.71141,483.80304 481.94998,483.80304 479.18856,483.80304 476.94998,481.56446 476.94998,478.80304 476.94998,476.04162 479.18856,473.80304 481.94998,473.80304 484.71141,473.80304 486.94998,476.04162 486.94998,478.80304 z" />
      <text style="font-size:25; vertical-align:top; fill-opacity:1.0; fill:gray; text-anchor:right; stroke:none; font-weight:normal; font-style:italic; text-align:right; " transform="" id="C.SUF.inpoint.text" y="471.803031284" x="488.949984317">
SUF.in</text>
      <circle style="stroke:red; stroke-width:1; fill:red; " transform="" cy="493.078965122" cx="688.488328687" r="5" id="C.SUF" d="M 693.48834,493.07898 C 693.48834,495.8404 691.24977,498.07898 688.48834,498.07898 685.72692,498.07898 683.48834,495.8404 683.48834,493.07898 683.48834,490.31756 685.72692,488.07898 688.48834,488.07898 691.24977,488.07898 693.48834,490.31756 693.48834,493.07898 z" />
      <text style="font-size:30; vertical-align:top; fill-opacity:1.0; fill:darkblue; text-anchor:right; stroke:none; font-weight:normal; font-style:italic; text-align:right; " transform="" id="C.SUF.text" y="486.078965122" x="695.488328687">
SUF</text>
      <circle style="stroke:gray; stroke-width:1; fill:none; " transform="" cy="479.584902072" cx="-493.261769586" r="5" id="C.SUB.outpoint" d="M -488.26178,479.5849 C -488.26178,482.34632 -490.50036,484.5849 -493.26178,484.5849 -496.0232,484.5849 -498.26178,482.34632 -498.26178,479.5849 -498.26178,476.82348 -496.0232,474.5849 -493.26178,474.5849 -490.50036,474.5849 -488.26178,476.82348 -488.26178,479.5849 z" />
      <text style="font-size:25; vertical-align:top; fill-opacity:1.0; fill:gray; text-anchor:right; stroke:none; font-weight:normal; font-style:italic; text-align:right; " transform="" id="C.SUB.outpoint.text" y="472.584902072" x="-486.261769586">
SUB.out</text>
      <circle style="stroke:red; stroke-width:1; fill:red; " transform="" cy="490.471619936" cx="-650.766329967" r="5" id="C.SUB" d="M -645.76636,490.47162 C -645.76636,493.23304 -648.00493,495.47162 -650.76636,495.47162 -653.52778,495.47162 -655.76636,493.23304 -655.76636,490.47162 -655.76636,487.71019 -653.52778,485.47162 -650.76636,485.47162 -648.00493,485.47162 -645.76636,487.71019 -645.76636,490.47162 z" />
      <text style="font-size:30; vertical-align:top; fill-opacity:1.0; fill:darkblue; text-anchor:right; stroke:none; font-weight:normal; font-style:italic; text-align:right; " transform="" id="C.SUB.text" y="483.471619936" x="-643.766329967">
SUB</text>
      <circle style="stroke:red; stroke-width:1; fill:red; " transform="" cy="1334.72419432" cx="583.949864112" r="5" id="C.SEF" d="M 588.94989,1334.7242 C 588.94989,1337.4857 586.71131,1339.7242 583.94989,1339.7242 581.18847,1339.7242 578.94989,1337.4857 578.94989,1334.7242 578.94989,1331.9628 581.18847,1329.7242 583.94989,1329.7242 586.71131,1329.7242 588.94989,1331.9628 588.94989,1334.7242 z" />
      <text style="font-size:30; vertical-align:top; fill-opacity:1.0; fill:darkblue; text-anchor:right; stroke:none; font-weight:normal; font-style:italic; text-align:right; " transform="" id="C.SEF.text" y="1327.72419432" x="590.949864112">
SEF</text>
      <circle style="stroke:red; stroke-width:1; fill:red; " transform="" cy="1334.72419432" cx="-583.949864112" r="5" id="C.SEB" d="M -578.94989,1334.7242 C -578.94989,1337.4857 -581.18847,1339.7242 -583.94989,1339.7242 -586.71131,1339.7242 -588.94989,1337.4857 -588.94989,1334.7242 -588.94989,1331.9628 -586.71131,1329.7242 -583.94989,1329.7242 -581.18847,1329.7242 -578.94989,1331.9628 -578.94989,1334.7242 z" />
      <text style="font-size:30; vertical-align:top; fill-opacity:1.0; fill:darkblue; text-anchor:right; stroke:none; font-weight:normal; font-style:italic; text-align:right; " transform="" id="C.SEB.text" y="1327.72419432" x="-576.949864112">
SEB</text>
      <circle style="stroke:gray; stroke-width:1; fill:none; " transform="" cy="2161.41732283" cx="263.090551181" r="5" id="C.SWF.outpoint" d="M 268.09055,2161.4172 C 268.09055,2164.1787 265.85197,2166.4172 263.09055,2166.4172 260.32912,2166.4172 258.09055,2164.1787 258.09055,2161.4172 258.09055,2158.6558 260.32912,2156.4172 263.09055,2156.4172 265.85197,2156.4172 268.09055,2158.6558 268.09055,2161.4172 z" />
      <text style="font-size:25; vertical-align:top; fill-opacity:1.0; fill:gray; text-anchor:right; stroke:none; font-weight:normal; font-style:italic; text-align:right; " transform="" id="C.SWF.outpoint.text" y="2154.41732283" x="270.090551181">
SWF.out</text>
      <circle style="stroke:red; stroke-width:1; fill:red; " transform="" cy="2161.41732283" cx="481.268559293" r="5" id="C.SWF" d="M 486.26855,2161.4172 C 486.26855,2164.1787 484.02998,2166.4172 481.26855,2166.4172 478.50713,2166.4172 476.26855,2164.1787 476.26855,2161.4172 476.26855,2158.6558 478.50713,2156.4172 481.26855,2156.4172 484.02998,2156.4172 486.26855,2158.6558 486.26855,2161.4172 z" />
      <text style="font-size:30; vertical-align:top; fill-opacity:1.0; fill:darkblue; text-anchor:right; stroke:none; font-weight:normal; font-style:italic; text-align:right; " transform="" id="C.SWF.text" y="2154.41732283" x="488.268559293">
SWF</text>
      <circle style="stroke:red; stroke-width:1; fill:red; " transform="" cy="2161.41732283" cx="-255.739314723" r="5" id="C.SWB" d="M -250.73932,2161.4172 C -250.73932,2164.1787 -252.9779,2166.4172 -255.73932,2166.4172 -258.50074,2166.4172 -260.73932,2164.1787 -260.73932,2161.4172 -260.73932,2158.6558 -258.50074,2156.4172 -255.73932,2156.4172 -252.9779,2156.4172 -250.73932,2158.6558 -250.73932,2161.4172 z" />
      <text style="font-size:30; vertical-align:top; fill-opacity:1.0; fill:darkblue; text-anchor:right; stroke:none; font-weight:normal; font-style:italic; text-align:right; " transform="" id="C.SWB.text" y="2154.41732283" x="-248.739314723">
SWB</text>
      <circle style="stroke:red; stroke-width:1; fill:red; " transform="" cy="1294.82837872" cx="-285.645036954" r="5" id="C.SD1" d="M -280.64505,1294.8284 C -280.64505,1297.5898 -282.88363,1299.8284 -285.64505,1299.8284 -288.40647,1299.8284 -290.64505,1297.5898 -290.64505,1294.8284 -290.64505,1292.0669 -288.40647,1289.8284 -285.64505,1289.8284 -282.88363,1289.8284 -280.64505,1292.0669 -280.64505,1294.8284 z" />
      <text style="font-size:30; vertical-align:top; fill-opacity:1.0; fill:darkblue; text-anchor:right; stroke:none; font-weight:normal; font-style:italic; text-align:right; " transform="" id="C.SD1.text" y="1287.82837872" x="-278.645036954">
SD1</text>
      <circle style="stroke:red; stroke-width:1; fill:red; " transform="" cy="1334.72419432" cx="-583.949864112" r="5" id="C.SD1.i" d="M -578.94989,1334.7242 C -578.94989,1337.4857 -581.18847,1339.7242 -583.94989,1339.7242 -586.71131,1339.7242 -588.94989,1337.4857 -588.94989,1334.7242 -588.94989,1331.9628 -586.71131,1329.7242 -583.94989,1329.7242 -581.18847,1329.7242 -578.94989,1331.9628 -578.94989,1334.7242 z" />
      <text style="font-size:30; vertical-align:top; fill-opacity:1.0; fill:darkblue; text-anchor:right; stroke:none; font-weight:normal; font-style:italic; text-align:right; " transform="" id="C.SD1.i.text" y="1327.72419432" x="-576.949864112">
SD1.i</text>
      <circle style="stroke:red; stroke-width:1; fill:red; " transform="" cy="1470.40931115" cx="-530.080677105" r="5" id="C.SD1.o" d="M -525.08069,1470.4093 C -525.08069,1473.1707 -527.31926,1475.4093 -530.08069,1475.4093 -532.84211,1475.4093 -535.08069,1473.1707 -535.08069,1470.4093 -535.08069,1467.6479 -532.84211,1465.4093 -530.08069,1465.4093 -527.31926,1465.4093 -525.08069,1467.6479 -525.08069,1470.4093 z" />
      <text style="font-size:30; vertical-align:top; fill-opacity:1.0; fill:darkblue; text-anchor:right; stroke:none; font-weight:normal; font-style:italic; text-align:right; " transform="" id="C.SD1.o.text" y="1463.40931115" x="-523.080677105">
SD1.o</text>
      <circle style="stroke:gray; stroke-width:1; fill:none; " transform="" cy="2161.41732283" cx="0" r="5" id="C.s13.inpoint" d="M 5,2161.4172 C 5,2164.1787 2.7614237,2166.4172 0,2166.4172 -2.7614237,2166.4172 -5,2164.1787 -5,2161.4172 -5,2158.6558 -2.7614237,2156.4172 0,2156.4172 2.7614237,2156.4172 5,2158.6558 5,2161.4172 z" />
      <text style="font-size:25; vertical-align:top; fill-opacity:1.0; fill:gray; text-anchor:right; stroke:none; font-weight:normal; font-style:italic; text-align:right; " transform="" id="C.s13.inpoint.text" y="2154.41732283" x="7">
s13.in</text>
      <circle style="stroke:red; stroke-width:1; fill:red; " transform="" cy="2244.66680898" cx="-222.687921597" r="5" id="C.s13" d="M -217.68793,2244.6667 C -217.68793,2247.4282 -219.9265,2249.6667 -222.68793,2249.6667 -225.44935,2249.6667 -227.68793,2247.4282 -227.68793,2244.6667 -227.68793,2241.9053 -225.44935,2239.6667 -222.68793,2239.6667 -219.9265,2239.6667 -217.68793,2241.9053 -217.68793,2244.6667 z" />
      <text style="font-size:30; vertical-align:top; fill-opacity:1.0; fill:darkblue; text-anchor:right; stroke:none; font-weight:normal; font-style:italic; text-align:right; " transform="" id="C.s13.text" y="2237.66680898" x="-215.687921597">
s13</text>
      <path style="stroke-linejoin:miter; stroke-dashoffset:0; stroke:gray; stroke-miterlimit:4; stroke-dasharray:6,6; stroke-width:2; fill:none; " transform="" d="M -292.322834646  1314.56692913 L -337.700144961  0 L 337.700144961  0 L 292.322834646  1314.56692913 M 0  0 L 0.0  1314.56692913 M 160.777559055  467.716535433 L 332.891396657  168.376103949 L 253.275108721  0 M -90.0  467.716535433 L -343.361446692  184.164352366 L -225.133429974  0 M -343.361446692  184.164352366 L 0  425.196850394 L 332.891396657  168.376103949 M -650.766329967  490.471619936 L -321.55511811  467.716535433 L 321.55511811  467.716535433 L 688.488328687  493.078965122 M -583.949864112  1334.72419432 L -292.322834646  1314.56692913 L 292.322834646  1314.56692913 L 583.949864112  1334.72419432 M 688.488328687  493.078965122 L 583.949864112  1334.72419432 L 481.268559293  2161.41732283 M -650.766329967  490.471619936 L -583.949864112  1334.72419432 L -255.739314723  2161.41732283 M -343.361446692  184.164352366 L -292.322834646  1314.56692913 M 332.891396657  168.376103949 L 292.322834646  1314.56692913 " id="C.gridline" />
    </g>
  </g>
</svg>
