<?xml version="1.0" encoding="UTF-8" standalone="no"?>
<svg xmlns:dc="http://purl.org/dc/elements/1.1/" xmlns:cc="http://creativecommons.org/ns#" xmlns:rdf="http://www.w3.org/1999/02/22-rdf-syntax-ns#" xmlns:svg="http://www.w3.org/2000/svg" xmlns="http://www.w3.org/2000/svg" xmlns:sodipodi="http://sodipodi.sourceforge.net/DTD/sodipodi-0.dtd" xmlns:inkscape="http://www.inkscape.org/namespaces/inkscape" patternNumber="" fitBoxtoViewport="True" companyName="Seamly Patterns" currentscale="0.5:1" margin-right="88.5826771654" client-name="DressFormLg" designerName="" height="4323.19969933" width="1912.16535433" margin-top="88.5826771654" version="1.1" margin-bottom="88.5826771654" margin-left="88.5826771654" preserveAspectRatio="xMidYMid meet" id="svg2" inkscape:version="0.48.4 r9939" sodipodi:docname="DressFormLg-adult_bibb-2015-10-06-2003.svg">
  <metadata id="metadata106">
    <rdf:RDF>
      <cc:Work rdf:about="">
        <dc:format>image/svg+xml</dc:format>
        <dc:type rdf:resource="http://purl.org/dc/dcmitype/StillImage" />
      </cc:Work>
    </rdf:RDF>
  </metadata>
  <sodipodi:namedview id="base" pagecolor="#ffffff" bordercolor="#666666" borderopacity="1.0" inkscape:pageopacity="0.0" inkscape:pageshadow="2" inkscape:zoom="0.05459" inkscape:document-units="pt" showgrid="false" inkscape:window-maximized="1" inkscape:cx="956.1" inkscape:cy="2162" inkscape:current-layer="pattern" />
  <defs id="defs5">
    <marker style="overflow:visible" id="Arrow1Mstart" refX="0.0" refY="0.0" orient="auto" inkscape:stockid="Arrow1Mstart">
      <path transform="scale(0.4) translate(10,0)" style="fill-rule:evenodd;stroke:#000000;stroke-width:1.0pt;marker-start:none" d="M 0.0,0.0 L 5.0,-5.0 L -12.5,0.0 L 5.0,5.0 L 0.0,0.0 z " id="path8" />
    </marker>
    <marker style="overflow:visible;" id="Arrow1Mend" refX="0.0" refY="0.0" orient="auto" inkscape:stockid="Arrow1Mend">
      <path transform="scale(0.4) rotate(180) translate(10,0)" style="fill-rule:evenodd;stroke:#000000;stroke-width:1.0pt;marker-start:none;" d="M 0.0,0.0 L 5.0,-5.0 L -12.5,0.0 L 5.0,5.0 L 0.0,0.0 z " id="path11" />
    </marker>
  </defs>
  <g inkscape:label="Label-pattern" id="pattern" inkscape:groupmode="layer" transform="translate(88.582677,88.582677)">
    <g id="document.bibb.Bibb Front &amp; Back.pattern" transform=" translate(868.750000, 1344.784345)">
      <g id="A.letter" transform="matrix(10.000000, 0, 0, 10.000000, -2835.000000, -11947.500000)">
        <text style="font-size:24; vertical-align:top; fill-opacity:1.0; fill:#000000; text-anchor:start; stroke:none; font-weight:normal; font-style:normal; text-align:right; " transform="" id="A.letter.letterline" y="1327.5" x="315.0">
A</text>
      </g>
      <line style="stroke-linejoin:miter; stroke:green; stroke-width:4; stroke-miterlimit:4; fill:none; " y2="2058.75" marker-end="url(#Arrow1Mend)" marker-start="url(#Arrow1Mstart)" transform="" x2="0.0" y1="1372.5" x1="0.0" id="A.grainline" />
      <path style="stroke-linejoin:miter; stroke-dashoffset:0; stroke:green; stroke-dasharray:24,6; stroke-miterlimit:4; stroke-width:4; fill:none; " transform="" d="M 0  0 C 276.384476601  0  315.0  -127.5  315.0  -191.25 C 315.0  -614.25  -22.6854860805  -534.035655369  45.0  -720.0 C 112.685486081  -905.964344631  810.0  -787.90168327  810.0  0 L 810.0  1830.0 C 810.0  2516.25  810.0  2745.0  0  2745.0 C -810.0  2745.0  -810.0  2516.25  -810.0  1830.0 L -810.0  0 C -810.0  -787.90168327  -112.685486081  -905.964344631  -45.0  -720.0 C 22.6854860805  -534.035655369  -315.0  -614.25  -315.0  -191.25 C -315.0  -127.5  -276.384476601  0  0  0 " id="A.seamline" />
      <path style="fill:none;stroke:#008000;stroke-width:4;stroke-linejoin:miter;stroke-miterlimit:4" d="m -211.1,-807 c -92,2 -181.5,33.7 -259.8,80.8 c -110.7,66.9 -198.5,168 -255.4,283.7 c -66.4,133.9 -92.7,284.6 -93.7,433.25 c 0,642.75 -0.1,1285.25 0.1,1928.25 c 0.6,119 0.7,238 14,357 c 10.2,85 27.7,172 71.2,247 c 33.5,59 84.8,106 144.3,138 c 77.3,42 164.1,61 250.4,74 c 131.4,19 264.36,21 396.81,20 c 117.59,-2 235.89,-8 351.39,-32 c 83.5,-17 167.3,-44 235.8,-97 c 52.5,-40 92.1,-95 116.5,-156 c 32.7,-81 44.3,-169 51.2,-255 c 9.8,-135 7.9,-269 8.3,-404 C 819.9,1202 820.1,593.5 819.9,-15.28 C 818.3,-163.7 791.1,-313.8 724,-447.1 C 666.5,-562 578.3,-662.3 467.4,-728.3 c -77.7,-46.1 -166.3,-77 -257.3,-78.7 c -46.2,-0.3 -94.6,6.9 -133.69,33 c -21.72,14.3 -38.09,36.5 -44.53,61.8 c -8.5,27 -8.66,58.1 6.43,82.8 c 18.92,31.4 51.04,50.8 80.09,71.5 c 45.5,30.8 89.7,65.6 120.7,111.7 c 41,59.4 58.8,131.4 64,202.4 c 1.8,34.5 5.6,70.3 -6.8,103.1 c -14.9,43.06 -51.2,75.39 -91.8,94.29 C 146.2,-19.33 81.34,-11.79 17.78,-10.2 c -67.91,1.002 -136.98,-3.49 -201.08,-27.26 c -45.3,-16.69 -88.5,-47.02 -108.5,-92.24 c -12,-25.5 -14.5,-53.8 -12.9,-81.8 c 2,-74.2 15.3,-149.8 53,-214.8 c 26.8,-47 66.9,-84.9 110.9,-115.8 c 31.8,-23.7 67.4,-43.1 93.14,-73.8 c 17.26,-20.4 24.82,-48.1 20.56,-74.5 c -3.9,-26.5 -13.89,-53.2 -34.24,-71.5 c -31.87,-29.5 -75.96,-40.7 -118.26,-44.1 c -10.4,-0.8 -21,-1.1 -31.5,-1 z" id="A.cuttingline" inkscape:connector-curvature="0" />
      <g id="A.info" transform="">
        <text style="font-size:12; vertical-align:top; fill-opacity:1.0; fill:#000000; text-anchor:start; stroke:none; font-weight:normal; font-style:normal; text-align:right; " transform="" id="A.info.lineSeamly Patterns" y="1372.5" x="315.0">
Seamly Patterns</text>
        <text style="font-size:12; vertical-align:top; fill-opacity:1.0; fill:#000000; text-anchor:start; stroke:none; font-weight:normal; font-style:normal; text-align:right; " transform="" id="A.info.line" y="1386.9" x="315.0" />
        <text style="font-size:12; vertical-align:top; fill-opacity:1.0; fill:#000000; text-anchor:start; stroke:none; font-weight:normal; font-style:normal; text-align:right; " transform="" id="A.info.lineAdult Bibb" y="1401.3" x="315.0">
Adult Bibb</text>
        <text style="font-size:12; vertical-align:top; fill-opacity:1.0; fill:#000000; text-anchor:start; stroke:none; font-weight:normal; font-style:normal; text-align:right; " transform="" id="A.info.linePattern Piece A" y="1415.7" x="315.0">
Pattern Piece A</text>
        <text style="font-size:12; vertical-align:top; fill-opacity:1.0; fill:#000000; text-anchor:start; stroke:none; font-weight:normal; font-style:normal; text-align:right; " transform="" id="A.info.lineCut 2 Fabric" y="1430.1" x="315.0">
Cut 2 Fabric</text>
        <text style="font-size:12; vertical-align:top; fill-opacity:1.0; fill:#000000; text-anchor:start; stroke:none; font-weight:normal; font-style:normal; text-align:right; " transform="" id="A.info.lineCut 1 Lining" y="1444.5" x="315.0">
Cut 1 Lining</text>
        <text style="font-size:12; vertical-align:top; fill-opacity:1.0; fill:#000000; text-anchor:start; stroke:none; font-weight:normal; font-style:normal; text-align:right; " transform="" id="A.info.line " y="1458.9" x="315.0" />
        <text style="font-size:12; vertical-align:top; fill-opacity:1.0; fill:#000000; text-anchor:start; stroke:none; font-weight:normal; font-style:normal; text-align:right; " transform="" id="A.info.lineDressFormLg" y="1473.3" x="315.0">
DressFormLg</text>
        <text style="font-size:12; vertical-align:top; fill-opacity:1.0; fill:#000000; text-anchor:start; stroke:none; font-weight:normal; font-style:normal; text-align:right; " transform="" id="A.info.line2015/10/6 20:3" y="1487.7" x="315.0">
2015/10/6 20:3</text>
      </g>
    </g>
  </g>
  <g inkscape:label="Label-notes" id="notes" inkscape:groupmode="layer" transform="translate(88.582677,88.582677)">
    <g id="document.titleblock">
      <text style="font-size:40; vertical-align:top; fill-opacity:1.0; fill:#000000; text-anchor:right; stroke:none; font-weight:normal; font-style:normal; text-align:right; " transform="" id="company" y="0.0" x="0.0">
Seamly Patterns</text>
      <text style="font-size:40; vertical-align:top; fill-opacity:1.0; fill:#000000; text-anchor:right; stroke:none; font-weight:normal; font-style:normal; text-align:right; " transform="" id="designer" y="44.0" x="0.0" />
      <text style="font-size:40; vertical-align:top; fill-opacity:1.0; fill:#000000; text-anchor:right; stroke:none; font-weight:normal; font-style:normal; text-align:right; " transform="" id="pattern_number" y="88.0" x="0.0" />
      <text style="font-size:40; vertical-align:top; fill-opacity:1.0; fill:#000000; text-anchor:right; stroke:none; font-weight:normal; font-style:normal; text-align:right; " transform="" id="pattern_name" y="132.0" x="0.0">
Adult Bibb</text>
      <text style="font-size:40; vertical-align:top; fill-opacity:1.0; fill:#000000; text-anchor:right; stroke:none; font-weight:normal; font-style:normal; text-align:right; " transform="" id="client" y="176.0" x="0.0">
DressFormLg</text>
      <text style="font-size:40; vertical-align:top; fill-opacity:1.0; fill:#000000; text-anchor:right; stroke:none; font-weight:normal; font-style:normal; text-align:right; " transform="" id="date" y="220.0" x="0.0">
2015/10/6 20:3</text>
    </g>
    <g id="document.testgrid">
      <path style="stroke-linejoin:miter; stroke:green; stroke-width:4; stroke-miterlimit:4; fill:none; " d="M 1080.0  0.0 L 1080.0  212.598425197 M 1115.43307087  0.0 L 1115.43307087  212.598425197 M 1150.86614173  0.0 L 1150.86614173  212.598425197 M 1186.2992126  0.0 L 1186.2992126  212.598425197 M 1221.73228346  0.0 L 1221.73228346  212.598425197 M 1257.16535433  0.0 L 1257.16535433  212.598425197 M 1292.5984252  0.0 L 1292.5984252  212.598425197 M 1080.0  0.0 L 1292.5984252  0.0 M 1080.0  35.4330708661 L 1292.5984252  35.4330708661 M 1080.0  70.8661417323 L 1292.5984252  70.8661417323 M 1080.0  106.299212598 L 1292.5984252  106.299212598 M 1080.0  141.732283465 L 1292.5984252  141.732283465 M 1080.0  177.165354331 L 1292.5984252  177.165354331 M 1080.0  212.598425197 L 1292.5984252  212.598425197 M 1469.76377953  0.0 L 1469.76377953  270.0 M 1559.76377953  0.0 L 1559.76377953  270.0 M 1649.76377953  0.0 L 1649.76377953  270.0 M 1739.76377953  0.0 L 1739.76377953  270.0 M 1469.76377953  0.0 L 1739.76377953  0.0 M 1469.76377953  90.0 L 1739.76377953  90.0 M 1469.76377953  180.0 L 1739.76377953  180.0 M 1469.76377953  270.0 L 1739.76377953  270.0 " id="testgrid" />
    </g>
    <g id="document.bibb.Bibb Front &amp; Back.notes" transform=" translate(868.750000, 1344.784345)" />
  </g>
  <g inkscape:label="Label-reference" id="reference" inkscape:groupmode="layer" transform="translate(88.582677,88.582677)">
    <g id="document.bibb.Bibb Front &amp; Back.reference" transform=" translate(868.750000, 1344.784345)">
      <circle style="stroke:gray; stroke-width:1; fill:none; " transform="" cy="0" cx="276.384476601" r="5" id="A.a.outpoint" d="m 281.4,0 c 0,2.761 -2.3,5 -5,5 c -2.8,0 -5,-2.239 -5,-5 c 0,-2.761 2.2,-5 5,-5 c 2.7,0 5,2.239 5,5 z" />
      <text style="font-size:25; vertical-align:top; fill-opacity:1.0; fill:gray; text-anchor:right; stroke:none; font-weight:normal; font-style:italic; text-align:right; " transform="" id="A.a.outpoint.text" y="-7" x="283.384476601">
a.out</text>
      <circle style="stroke:gray; stroke-width:1; fill:none; " transform="" cy="0" cx="-276.384476601" r="5" id="A.a.inpoint" d="m -271.4,0 c 0,2.761 -2.2,5 -5,5 c -2.7,0 -5,-2.239 -5,-5 c 0,-2.761 2.3,-5 5,-5 c 2.8,0 5,2.239 5,5 z" />
      <text style="font-size:25; vertical-align:top; fill-opacity:1.0; fill:gray; text-anchor:right; stroke:none; font-weight:normal; font-style:italic; text-align:right; " transform="" id="A.a.inpoint.text" y="-7" x="-269.384476601">
a.in</text>
      <circle style="stroke:red; stroke-width:1; fill:red; " transform="" cy="0" cx="0" r="5" id="A.a" d="M 5,0 C 5,2.761 2.761,5 0,5 C -2.761,5 -5,2.761 -5,0 c 0,-2.761 2.239,-5 5,-5 c 2.761,0 5,2.239 5,5 z" />
      <text style="font-size:30; vertical-align:top; fill-opacity:1.0; fill:darkblue; text-anchor:right; stroke:none; font-weight:normal; font-style:italic; text-align:right; " transform="" id="A.a.text" y="-7" x="7">
a</text>
      <circle style="stroke:red; stroke-width:1; fill:red; " transform="" cy="-765.0" cx="0" r="5" id="A.b" d="m 5,-765 c 0,2.8 -2.239,5 -5,5 c -2.761,0 -5,-2.2 -5,-5 c 0,-2.8 2.239,-5 5,-5 c 2.761,0 5,2.2 5,5 z" />
      <text style="font-size:30; vertical-align:top; fill-opacity:1.0; fill:darkblue; text-anchor:right; stroke:none; font-weight:normal; font-style:italic; text-align:right; " transform="" id="A.b.text" y="-772.0" x="7">
b</text>
      <circle style="stroke:gray; stroke-width:1; fill:none; " transform="" cy="2745.0" cx="810.0" r="5" id="A.c.inpoint" d="m 815,2745 c 0,3 -2.2,5 -5,5 c -2.8,0 -5,-2 -5,-5 c 0,-3 2.2,-5 5,-5 c 2.8,0 5,2 5,5 z" />
      <text style="font-size:25; vertical-align:top; fill-opacity:1.0; fill:gray; text-anchor:right; stroke:none; font-weight:normal; font-style:italic; text-align:right; " transform="" id="A.c.inpoint.text" y="2738.0" x="817.0">
c.in</text>
      <circle style="stroke:gray; stroke-width:1; fill:none; " transform="" cy="2745.0" cx="-810.0" r="5" id="A.c.outpoint" d="m -805,2745 c 0,3 -2.2,5 -5,5 c -2.8,0 -5,-2 -5,-5 c 0,-3 2.2,-5 5,-5 c 2.8,0 5,2 5,5 z" />
      <text style="font-size:25; vertical-align:top; fill-opacity:1.0; fill:gray; text-anchor:right; stroke:none; font-weight:normal; font-style:italic; text-align:right; " transform="" id="A.c.outpoint.text" y="2738.0" x="-803.0">
c.out</text>
      <circle style="stroke:red; stroke-width:1; fill:red; " transform="" cy="2745.0" cx="0" r="5" id="A.c" d="m 5,2745 c 0,3 -2.239,5 -5,5 c -2.761,0 -5,-2 -5,-5 c 0,-3 2.239,-5 5,-5 c 2.761,0 5,2 5,5 z" />
      <text style="font-size:30; vertical-align:top; fill-opacity:1.0; fill:darkblue; text-anchor:right; stroke:none; font-weight:normal; font-style:italic; text-align:right; " transform="" id="A.c.text" y="2738.0" x="7">
c</text>
      <circle style="stroke:red; stroke-width:1; fill:red; " transform="" cy="-765.0" cx="810.0" r="5" id="A.d" d="m 815,-765 c 0,2.8 -2.2,5 -5,5 c -2.8,0 -5,-2.2 -5,-5 c 0,-2.8 2.2,-5 5,-5 c 2.8,0 5,2.2 5,5 z" />
      <text style="font-size:30; vertical-align:top; fill-opacity:1.0; fill:darkblue; text-anchor:right; stroke:none; font-weight:normal; font-style:italic; text-align:right; " transform="" id="A.d.text" y="-772.0" x="817.0">
d</text>
      <circle style="stroke:red; stroke-width:1; fill:red; " transform="" cy="2745.0" cx="810.0" r="5" id="A.e" d="m 815,2745 c 0,3 -2.2,5 -5,5 c -2.8,0 -5,-2 -5,-5 c 0,-3 2.2,-5 5,-5 c 2.8,0 5,2 5,5 z" />
      <text style="font-size:30; vertical-align:top; fill-opacity:1.0; fill:darkblue; text-anchor:right; stroke:none; font-weight:normal; font-style:italic; text-align:right; " transform="" id="A.e.text" y="2738.0" x="817.0">
e</text>
      <circle style="stroke:red; stroke-width:1; fill:red; " transform="" cy="-191.25" cx="0" r="5" id="A.f" d="m 5,-191.3 c 0,2.8 -2.239,5 -5,5 c -2.761,0 -5,-2.2 -5,-5 c 0,-2.7 2.239,-5 5,-5 c 2.761,0 5,2.3 5,5 z" />
      <text style="font-size:30; vertical-align:top; fill-opacity:1.0; fill:darkblue; text-anchor:right; stroke:none; font-weight:normal; font-style:italic; text-align:right; " transform="" id="A.f.text" y="-198.25" x="7">
f</text>
      <circle style="stroke:gray; stroke-width:1; fill:none; " transform="" cy="-127.5" cx="315.0" r="5" id="A.g.inpoint" d="m 320,-127.5 c 0,2.8 -2.2,5 -5,5 c -2.8,0 -5,-2.2 -5,-5 c 0,-2.8 2.2,-5 5,-5 c 2.8,0 5,2.2 5,5 z" />
      <text style="font-size:25; vertical-align:top; fill-opacity:1.0; fill:gray; text-anchor:right; stroke:none; font-weight:normal; font-style:italic; text-align:right; " transform="" id="A.g.inpoint.text" y="-134.5" x="322.0">
g.in</text>
      <circle style="stroke:gray; stroke-width:1; fill:none; " transform="" cy="-614.25" cx="315.0" r="5" id="A.g.outpoint" d="m 320,-614.2 c 0,2.7 -2.2,5 -5,5 c -2.8,0 -5,-2.3 -5,-5 c 0,-2.8 2.2,-5 5,-5 c 2.8,0 5,2.2 5,5 z" />
      <text style="font-size:25; vertical-align:top; fill-opacity:1.0; fill:gray; text-anchor:right; stroke:none; font-weight:normal; font-style:italic; text-align:right; " transform="" id="A.g.outpoint.text" y="-621.25" x="322.0">
g.out</text>
      <circle style="stroke:red; stroke-width:1; fill:red; " transform="" cy="-191.25" cx="315.0" r="5" id="A.g" d="m 320,-191.3 c 0,2.8 -2.2,5 -5,5 c -2.8,0 -5,-2.2 -5,-5 c 0,-2.7 2.2,-5 5,-5 c 2.8,0 5,2.3 5,5 z" />
      <text style="font-size:30; vertical-align:top; fill-opacity:1.0; fill:darkblue; text-anchor:right; stroke:none; font-weight:normal; font-style:italic; text-align:right; " transform="" id="A.g.text" y="-198.25" x="322.0">
g</text>
      <circle style="stroke:gray; stroke-width:1; fill:none; " transform="" cy="-787.90168327" cx="810.0" r="5" id="A.h.inpoint" d="m 815,-787.9 c 0,2.8 -2.2,5 -5,5 c -2.8,0 -5,-2.2 -5,-5 c 0,-2.8 2.2,-5 5,-5 c 2.8,0 5,2.2 5,5 z" />
      <text style="font-size:25; vertical-align:top; fill-opacity:1.0; fill:gray; text-anchor:right; stroke:none; font-weight:normal; font-style:italic; text-align:right; " transform="" id="A.h.inpoint.text" y="-794.90168327" x="817.0">
h.in</text>
      <circle style="stroke:red; stroke-width:1; fill:red; " transform="" cy="0" cx="810.0" r="5" id="A.h" d="m 815,0 c 0,2.761 -2.2,5 -5,5 c -2.8,0 -5,-2.239 -5,-5 c 0,-2.761 2.2,-5 5,-5 c 2.8,0 5,2.239 5,5 z" />
      <text style="font-size:30; vertical-align:top; fill-opacity:1.0; fill:darkblue; text-anchor:right; stroke:none; font-weight:normal; font-style:italic; text-align:right; " transform="" id="A.h.text" y="-7" x="817.0">
h</text>
      <circle style="stroke:red; stroke-width:1; fill:red; " transform="" cy="-720.0" cx="0" r="5" id="A.i" d="m 5,-720 c 0,2.8 -2.239,5 -5,5 c -2.761,0 -5,-2.2 -5,-5 c 0,-2.8 2.239,-5 5,-5 c 2.761,0 5,2.2 5,5 z" />
      <text style="font-size:30; vertical-align:top; fill-opacity:1.0; fill:darkblue; text-anchor:right; stroke:none; font-weight:normal; font-style:italic; text-align:right; " transform="" id="A.i.text" y="-727.0" x="7">
i</text>
      <circle style="stroke:gray; stroke-width:1; fill:none; " transform="" cy="-534.035655369" cx="-22.6854860805" r="5" id="A.j.inpoint" d="m -17.69,-534 c 0,2.7 -2.23,5 -5,5 c -2.76,0 -5,-2.3 -5,-5 c 0,-2.8 2.24,-5 5,-5 c 2.77,0 5,2.2 5,5 z" />
      <text style="font-size:25; vertical-align:top; fill-opacity:1.0; fill:gray; text-anchor:right; stroke:none; font-weight:normal; font-style:italic; text-align:right; " transform="" id="A.j.inpoint.text" y="-541.035655369" x="-15.6854860805">
j.in</text>
      <circle style="stroke:gray; stroke-width:1; fill:none; " transform="" cy="-905.964344631" cx="112.685486081" r="5" id="A.j.outpoint" d="m 117.7,-906 c 0,2.8 -2.3,5 -5,5 c -2.8,0 -5,-2.2 -5,-5 c 0,-2.7 2.2,-5 5,-5 c 2.7,0 5,2.3 5,5 z" />
      <text style="font-size:25; vertical-align:top; fill-opacity:1.0; fill:gray; text-anchor:right; stroke:none; font-weight:normal; font-style:italic; text-align:right; " transform="" id="A.j.outpoint.text" y="-912.964344631" x="119.685486081">
j.out</text>
      <circle style="stroke:red; stroke-width:1; fill:red; " transform="" cy="-720.0" cx="45.0" r="5" id="A.j" d="m 50,-720 c 0,2.8 -2.24,5 -5,5 c -2.76,0 -5,-2.2 -5,-5 c 0,-2.8 2.24,-5 5,-5 c 2.76,0 5,2.2 5,5 z" />
      <text style="font-size:30; vertical-align:top; fill-opacity:1.0; fill:darkblue; text-anchor:right; stroke:none; font-weight:normal; font-style:italic; text-align:right; " transform="" id="A.j.text" y="-727.0" x="52.0">
j</text>
      <circle style="stroke:gray; stroke-width:1; fill:none; " transform="" cy="2516.25" cx="810.0" r="5" id="A.k.outpoint" d="m 815,2516 c 0,3 -2.2,5 -5,5 c -2.8,0 -5,-2 -5,-5 c 0,-3 2.2,-5 5,-5 c 2.8,0 5,2 5,5 z" />
      <text style="font-size:25; vertical-align:top; fill-opacity:1.0; fill:gray; text-anchor:right; stroke:none; font-weight:normal; font-style:italic; text-align:right; " transform="" id="A.k.outpoint.text" y="2509.25" x="817.0">
k.out</text>
      <circle style="stroke:red; stroke-width:1; fill:red; " transform="" cy="1830.0" cx="810.0" r="5" id="A.k" d="m 815,1830 c 0,3 -2.2,5 -5,5 c -2.8,0 -5,-2 -5,-5 c 0,-3 2.2,-5 5,-5 c 2.8,0 5,2 5,5 z" />
      <text style="font-size:30; vertical-align:top; fill-opacity:1.0; fill:darkblue; text-anchor:right; stroke:none; font-weight:normal; font-style:italic; text-align:right; " transform="" id="A.k.text" y="1823.0" x="817.0">
k</text>
      <circle style="stroke:gray; stroke-width:1; fill:none; " transform="" cy="2516.25" cx="-810.0" r="5" id="A.l.inpoint" d="m -805,2516 c 0,3 -2.2,5 -5,5 c -2.8,0 -5,-2 -5,-5 c 0,-3 2.2,-5 5,-5 c 2.8,0 5,2 5,5 z" />
      <text style="font-size:25; vertical-align:top; fill-opacity:1.0; fill:gray; text-anchor:right; stroke:none; font-weight:normal; font-style:italic; text-align:right; " transform="" id="A.l.inpoint.text" y="2509.25" x="-803.0">
l.in</text>
      <circle style="stroke:red; stroke-width:1; fill:red; " transform="" cy="1830.0" cx="-810.0" r="5" id="A.l" d="m -805,1830 c 0,3 -2.2,5 -5,5 c -2.8,0 -5,-2 -5,-5 c 0,-3 2.2,-5 5,-5 c 2.8,0 5,2 5,5 z" />
      <text style="font-size:30; vertical-align:top; fill-opacity:1.0; fill:darkblue; text-anchor:right; stroke:none; font-weight:normal; font-style:italic; text-align:right; " transform="" id="A.l.text" y="1823.0" x="-803.0">
l</text>
      <circle style="stroke:gray; stroke-width:1; fill:none; " transform="" cy="-787.90168327" cx="-810.0" r="5" id="A.m.outpoint" d="m -805,-787.9 c 0,2.8 -2.2,5 -5,5 c -2.8,0 -5,-2.2 -5,-5 c 0,-2.8 2.2,-5 5,-5 c 2.8,0 5,2.2 5,5 z" />
      <text style="font-size:25; vertical-align:top; fill-opacity:1.0; fill:gray; text-anchor:right; stroke:none; font-weight:normal; font-style:italic; text-align:right; " transform="" id="A.m.outpoint.text" y="-794.90168327" x="-803.0">
m.out</text>
      <circle style="stroke:red; stroke-width:1; fill:red; " transform="" cy="0" cx="-810.0" r="5" id="A.m" d="m -805,0 c 0,2.761 -2.2,5 -5,5 c -2.8,0 -5,-2.239 -5,-5 c 0,-2.761 2.2,-5 5,-5 c 2.8,0 5,2.239 5,5 z" />
      <text style="font-size:30; vertical-align:top; fill-opacity:1.0; fill:darkblue; text-anchor:right; stroke:none; font-weight:normal; font-style:italic; text-align:right; " transform="" id="A.m.text" y="-7" x="-803.0">
m</text>
      <circle style="stroke:gray; stroke-width:1; fill:none; " transform="" cy="-905.964344631" cx="-112.685486081" r="5" id="A.n.inpoint" d="m -107.7,-906 c 0,2.8 -2.2,5 -5,5 c -2.7,0 -5,-2.2 -5,-5 c 0,-2.7 2.3,-5 5,-5 c 2.8,0 5,2.3 5,5 z" />
      <text style="font-size:25; vertical-align:top; fill-opacity:1.0; fill:gray; text-anchor:right; stroke:none; font-weight:normal; font-style:italic; text-align:right; " transform="" id="A.n.inpoint.text" y="-912.964344631" x="-105.685486081">
n.in</text>
      <circle style="stroke:gray; stroke-width:1; fill:none; " transform="" cy="-534.035655369" cx="22.6854860805" r="5" id="A.n.outpoint" d="m 27.69,-534 c 0,2.7 -2.24,5 -5,5 c -2.77,0 -5,-2.3 -5,-5 c 0,-2.8 2.23,-5 5,-5 c 2.76,0 5,2.2 5,5 z" />
      <text style="font-size:25; vertical-align:top; fill-opacity:1.0; fill:gray; text-anchor:right; stroke:none; font-weight:normal; font-style:italic; text-align:right; " transform="" id="A.n.outpoint.text" y="-541.035655369" x="29.6854860805">
n.out</text>
      <circle style="stroke:red; stroke-width:1; fill:red; " transform="" cy="-720.0" cx="-45.0" r="5" id="A.n" d="m -40,-720 c 0,2.8 -2.24,5 -5,5 c -2.76,0 -5,-2.2 -5,-5 c 0,-2.8 2.24,-5 5,-5 c 2.76,0 5,2.2 5,5 z" />
      <text style="font-size:30; vertical-align:top; fill-opacity:1.0; fill:darkblue; text-anchor:right; stroke:none; font-weight:normal; font-style:italic; text-align:right; " transform="" id="A.n.text" y="-727.0" x="-38.0">
n</text>
      <circle style="stroke:gray; stroke-width:1; fill:none; " transform="" cy="-614.25" cx="-315.0" r="5" id="A.o.inpoint" d="m -310,-614.2 c 0,2.7 -2.2,5 -5,5 c -2.8,0 -5,-2.3 -5,-5 c 0,-2.8 2.2,-5 5,-5 c 2.8,0 5,2.2 5,5 z" />
      <text style="font-size:25; vertical-align:top; fill-opacity:1.0; fill:gray; text-anchor:right; stroke:none; font-weight:normal; font-style:italic; text-align:right; " transform="" id="A.o.inpoint.text" y="-621.25" x="-308.0">
o.in</text>
      <circle style="stroke:gray; stroke-width:1; fill:none; " transform="" cy="-127.5" cx="-315.0" r="5" id="A.o.outpoint" d="m -310,-127.5 c 0,2.8 -2.2,5 -5,5 c -2.8,0 -5,-2.2 -5,-5 c 0,-2.8 2.2,-5 5,-5 c 2.8,0 5,2.2 5,5 z" />
      <text style="font-size:25; vertical-align:top; fill-opacity:1.0; fill:gray; text-anchor:right; stroke:none; font-weight:normal; font-style:italic; text-align:right; " transform="" id="A.o.outpoint.text" y="-134.5" x="-308.0">
o.out</text>
      <circle style="stroke:red; stroke-width:1; fill:red; " transform="" cy="-191.25" cx="-315.0" r="5" id="A.o" d="m -310,-191.3 c 0,2.8 -2.2,5 -5,5 c -2.8,0 -5,-2.2 -5,-5 c 0,-2.7 2.2,-5 5,-5 c 2.8,0 5,2.3 5,5 z" />
      <text style="font-size:30; vertical-align:top; fill-opacity:1.0; fill:darkblue; text-anchor:right; stroke:none; font-weight:normal; font-style:italic; text-align:right; " transform="" id="A.o.text" y="-198.25" x="-308.0">
o</text>
      <path style="stroke-linejoin:miter; stroke-dashoffset:0; stroke:gray; stroke-miterlimit:4; stroke-dasharray:6,6; stroke-width:2; fill:none; " transform="" d="M 0  0 L 315.0  -191.25 L 45.0  -720.0 L 810.0  0 L 810.0  2745.0 L 0  2745.0 L -810.0  1830.0 L -810.0  0 L -45.0  -720.0 L -315.0  -191.25 L 0  0 " id="A.gridline" />
    </g>
  </g>
</svg>
