<?xml version="1.0" encoding="UTF-8" standalone="no"?>
<svg xmlns:dc="http://purl.org/dc/elements/1.1/" xmlns:cc="http://creativecommons.org/ns#" xmlns:rdf="http://www.w3.org/1999/02/22-rdf-syntax-ns#" xmlns:svg="http://www.w3.org/2000/svg" xmlns="http://www.w3.org/2000/svg" xmlns:sodipodi="http://sodipodi.sourceforge.net/DTD/sodipodi-0.dtd" xmlns:inkscape="http://www.inkscape.org/namespaces/inkscape" patternNumber="Bl_W_Bodice_Short_Pivnick" fitBoxtoViewport="True" companyName="Seamly Patterns" currentscale="0.5:1" margin-right="88.5826771654" client-name="DressFormLg" designerName="Ester Pivnick" height="2327.19617622" width="2563.37934233" margin-top="88.5826771654" version="1.1" margin-bottom="88.5826771654" margin-left="88.5826771654" preserveAspectRatio="xMidYMid meet" id="svg2" inkscape:version="0.48.4 r9939" sodipodi:docname="DressFormLg-pivnick_bodice_short_1-2015-10-06-1457.svg">
  <metadata id="metadata169">
    <rdf:RDF>
      <cc:Work rdf:about="">
        <dc:format>image/svg+xml</dc:format>
        <dc:type rdf:resource="http://purl.org/dc/dcmitype/StillImage" />
      </cc:Work>
    </rdf:RDF>
  </metadata>
  <defs id="defs167" />
  <sodipodi:namedview id="base" pagecolor="#ffffff" bordercolor="#666666" borderopacity="1.0" inkscape:pageopacity="0.0" inkscape:pageshadow="2" inkscape:zoom="0.1014" inkscape:document-units="pt" showgrid="false" inkscape:window-maximized="1" inkscape:cx="1282" inkscape:cy="1164" inkscape:current-layer="pattern" />
  <g inkscape:label="Label-pattern" id="pattern" inkscape:groupmode="layer" transform="translate(88.582677,88.582677)">
    <g id="document.bodice.Front.pattern" transform=" translate(172.746323, 1447.765981)">
      <g id="A.letter" transform="matrix(10.000000, 0, 0, 10.000000, -4580.367761, 3275.078740)">
        <text style="font-size:24; vertical-align:top; fill-opacity:1.0; fill:#000000; text-anchor:start; stroke:none; font-weight:normal; font-style:normal; text-align:right; " transform="" id="A.letter.letterline" y="-363.897637795" x="508.929751246">
A</text>
      </g>
      <path style="stroke-linejoin:miter; stroke-dashoffset:0; stroke:green; stroke-miterlimit:4; stroke-dasharray:6,6; stroke-width:3; fill:none; " transform="" d="M 207.998660252  645.879663615 L 354.330708661  0.0 L 500.06482824  646.014840893 " id="A.dartline" />
      <path style="stroke-linejoin:miter; stroke-dashoffset:0; stroke:green; stroke-dasharray:24,6; stroke-miterlimit:4; stroke-width:4; fill:none; " transform="" d="M 155.031607418  -697.642233383 L -113.996322554  512.983451491 L 220.427790293  591.020031586 L 354.043573596  620.388570867 L 487.68648499  591.143727196 L 992.125984252  532.796482558 L 1046.9912879  -120.361894169 C 943.597796981  -129.046947406  829.493255061  -215.698791128  805.381849674  -316.616005932 C 772.211017111  -455.451050236  832.381988475  -612.739515102  899.215897119  -738.869219435 L 508.929751246  -945.67497353 C 450.863736573  -836.092137345  327.767001732  -659.256590202  155.031607418  -697.642233383 " id="A.seamline" />
      <path style="fill:none;stroke:#008000;stroke-width:4;stroke-linejoin:miter;stroke-miterlimit:4" d="m 500.1,-950.4 c -35.9,67.1 -79.5,131.4 -137.3,181.6 c -42.5,36.7 -95.6,64.7 -152.5,66.4 c -21.3,0.9 -42.3,-2.1 -62.9,-7.1 c -91.09,410 -182.18,820 -273.3,1230 c 121.238,28.1 242.4,56.9 363.7,84.6 c 38.7,8.5 77.5,17 116.2,25.6 c 46.2,-9.9 92.2,-20.7 138.4,-30.1 C 662.1,581 831.7,561.4 1001,541.8 c 19,-223.7 38,-447.51 57,-671.3 c -68.4,-3.7 -132.9,-37.5 -181,-85.1 c -32.9,-32.8 -58.4,-74.8 -65.4,-121.2 c -13.7,-76.1 -0.6,-154.3 22.5,-227.1 c 20,-62.5 47.7,-122.3 78.6,-180.2 c -136,-72 -271.9,-144.1 -407.9,-216.1 c -1.6,2.9 -3.1,5.9 -4.7,8.8 z" id="A.cuttingline" inkscape:connector-curvature="0" />
      <g id="A.info" transform="">
        <text style="font-size:12; vertical-align:top; fill-opacity:1.0; fill:#000000; text-anchor:start; stroke:none; font-weight:normal; font-style:normal; text-align:right; " transform="" id="A.info.lineSeamly Patterns" y="-318.897637795" x="508.929751246">
Seamly Patterns</text>
        <text style="font-size:12; vertical-align:top; fill-opacity:1.0; fill:#000000; text-anchor:start; stroke:none; font-weight:normal; font-style:normal; text-align:right; " transform="" id="A.info.lineBl_W_Bodice_Short_Pivnick" y="-304.497637795" x="508.929751246">
Bl_W_Bodice_Short_Pivnick</text>
        <text style="font-size:12; vertical-align:top; fill-opacity:1.0; fill:#000000; text-anchor:start; stroke:none; font-weight:normal; font-style:normal; text-align:right; " transform="" id="A.info.lineWomens Bodice Block - Short - Pivnick" y="-290.097637795" x="508.929751246">
Womens Bodice Block - Short - Pivnick</text>
        <text style="font-size:12; vertical-align:top; fill-opacity:1.0; fill:#000000; text-anchor:start; stroke:none; font-weight:normal; font-style:normal; text-align:right; " transform="" id="A.info.linePattern Piece A" y="-275.697637795" x="508.929751246">
Pattern Piece A</text>
        <text style="font-size:12; vertical-align:top; fill-opacity:1.0; fill:#000000; text-anchor:start; stroke:none; font-weight:normal; font-style:normal; text-align:right; " transform="" id="A.info.lineCut 2 Fabric" y="-261.297637795" x="508.929751246">
Cut 2 Fabric</text>
        <text style="font-size:12; vertical-align:top; fill-opacity:1.0; fill:#000000; text-anchor:start; stroke:none; font-weight:normal; font-style:normal; text-align:right; " transform="" id="A.info.line " y="-246.897637795" x="508.929751246" />
        <text style="font-size:12; vertical-align:top; fill-opacity:1.0; fill:#000000; text-anchor:start; stroke:none; font-weight:normal; font-style:normal; text-align:right; " transform="" id="A.info.lineDressFormLg" y="-232.497637795" x="508.929751246">
DressFormLg</text>
        <text style="font-size:12; vertical-align:top; fill-opacity:1.0; fill:#000000; text-anchor:start; stroke:none; font-weight:normal; font-style:normal; text-align:right; " transform="" id="A.info.line2015/10/6 14:57" y="-218.097637795" x="508.929751246">
2015/10/6 14:57</text>
      </g>
    </g>
    <g id="document.bodice.Back.pattern" transform=" translate(2329.963988, 438.820000)">
      <g id="B.letter" transform="matrix(10.000000, 0, 0, 10.000000, 3322.596367, -4059.566929)">
        <text style="font-size:24; vertical-align:top; fill-opacity:1.0; fill:#000000; text-anchor:start; stroke:none; font-weight:normal; font-style:normal; text-align:right; " transform="" id="B.letter.letterline" y="451.062992126" x="-369.177374118">
B</text>
      </g>
      <path style="stroke-linejoin:miter; stroke-dashoffset:0; stroke:green; stroke-miterlimit:4; stroke-dasharray:6,6; stroke-width:3; fill:none; " transform="" d="M -331.491060381  1546.32237427 L -389.717966732  782.6894069 L -448.151627993  1546.30658109 M -515.629383321  34.3217293866 L -420.938074864  309.800082849 L -552.807357533  50.0593286113 " id="B.dartline" />
      <path style="stroke-linejoin:miter; stroke-dashoffset:0; stroke:green; stroke-dasharray:24,6; stroke-miterlimit:4; stroke-width:4; fill:none; " transform="" d="M 0.0  141.732283465 L 0.0  1488.18897638 L -335.767700706  1490.23518458 L -389.814829059  1498.18875252 L -443.859801967  1490.22055137 L -780.608539941  1483.49617636 L -936.812614881  792.264455894 C -825.542732707  767.119763457  -730.151545092  720.356423837  -708.661417323  655.370615374 C -660.566952282  509.933709328  -678.641388743  333.195816447  -738.354748236  192.130987712 L -527.343274159  100.215514251 L -513.163129456  91.9307209234 L -497.344401977  87.5168603411 L -284.470975712  0.0 C -256.846103288  65.2600679401  -142.235487856  141.732283465  0.0  141.732283465 " id="B.seamline" />
      <path style="fill:none;stroke:#008000;stroke-width:4;stroke-linejoin:miter;stroke-miterlimit:4" d="M -288.3,-9.25 C -359.8,19.97 -431,49.79 -502.6,78.63 c -9.3,2.02 -18.2,5.14 -26,10.74 c -32.1,15.13 -65.1,28.53 -97.6,43.03 c -41.8,18.1 -83.5,36.3 -125.3,54.5 c 46.4,106.7 67.5,224.9 58.1,341.1 c -3.9,44.4 -12.1,88.9 -27.4,131.1 c -15.6,34.7 -48.3,57.5 -80.8,75.1 c -46.2,24.5 -96.4,39.3 -147.2,50.6 C -895.4,1021 -842,1257 -788.6,1493 c 114.9,2 229.8,4 344.7,7 c 18.6,3 37,6 55.6,8 c 19.8,-3 39.4,-7 59.4,-8 c 112.9,-1 225.9,-1 338.9,-2 c 0,-455 0,-910.9 0,-1366.3 c -78.96,1.6 -159.3,-20 -224,-66.32 C -241.6,45.23 -267.3,19.7 -279.2,-13 c -3,1.25 -6.1,2.5 -9.1,3.75 z" id="B.cuttingline" inkscape:connector-curvature="0" />
      <g id="B.info" transform="">
        <text style="font-size:12; vertical-align:top; fill-opacity:1.0; fill:#000000; text-anchor:start; stroke:none; font-weight:normal; font-style:normal; text-align:right; " transform="" id="B.info.lineSeamly Patterns" y="496.062992126" x="-369.177374118">
Seamly Patterns</text>
        <text style="font-size:12; vertical-align:top; fill-opacity:1.0; fill:#000000; text-anchor:start; stroke:none; font-weight:normal; font-style:normal; text-align:right; " transform="" id="B.info.lineBl_W_Bodice_Short_Pivnick" y="510.462992126" x="-369.177374118">
Bl_W_Bodice_Short_Pivnick</text>
        <text style="font-size:12; vertical-align:top; fill-opacity:1.0; fill:#000000; text-anchor:start; stroke:none; font-weight:normal; font-style:normal; text-align:right; " transform="" id="B.info.lineWomens Bodice Block - Short - Pivnick" y="524.862992126" x="-369.177374118">
Womens Bodice Block - Short - Pivnick</text>
        <text style="font-size:12; vertical-align:top; fill-opacity:1.0; fill:#000000; text-anchor:start; stroke:none; font-weight:normal; font-style:normal; text-align:right; " transform="" id="B.info.linePattern Piece B" y="539.262992126" x="-369.177374118">
Pattern Piece B</text>
        <text style="font-size:12; vertical-align:top; fill-opacity:1.0; fill:#000000; text-anchor:start; stroke:none; font-weight:normal; font-style:normal; text-align:right; " transform="" id="B.info.lineCut 2 Fabric" y="553.662992126" x="-369.177374118">
Cut 2 Fabric</text>
        <text style="font-size:12; vertical-align:top; fill-opacity:1.0; fill:#000000; text-anchor:start; stroke:none; font-weight:normal; font-style:normal; text-align:right; " transform="" id="B.info.line " y="568.062992126" x="-369.177374118" />
        <text style="font-size:12; vertical-align:top; fill-opacity:1.0; fill:#000000; text-anchor:start; stroke:none; font-weight:normal; font-style:normal; text-align:right; " transform="" id="B.info.lineDressFormLg" y="582.462992126" x="-369.177374118">
DressFormLg</text>
        <text style="font-size:12; vertical-align:top; fill-opacity:1.0; fill:#000000; text-anchor:start; stroke:none; font-weight:normal; font-style:normal; text-align:right; " transform="" id="B.info.line2015/10/6 14:57" y="596.862992126" x="-369.177374118">
2015/10/6 14:57</text>
      </g>
    </g>
  </g>
  <g inkscape:label="Label-notes" id="notes" inkscape:groupmode="layer" transform="translate(88.582677,88.582677)">
    <g id="document.titleblock">
      <text style="font-size:40; vertical-align:top; fill-opacity:1.0; fill:#000000; text-anchor:right; stroke:none; font-weight:normal; font-style:normal; text-align:right; " transform="" id="company" y="0.0" x="0.0">
Seamly Patterns</text>
      <text style="font-size:40; vertical-align:top; fill-opacity:1.0; fill:#000000; text-anchor:right; stroke:none; font-weight:normal; font-style:normal; text-align:right; " transform="" id="designer" y="44.0" x="0.0">
Ester Pivnick</text>
      <text style="font-size:40; vertical-align:top; fill-opacity:1.0; fill:#000000; text-anchor:right; stroke:none; font-weight:normal; font-style:normal; text-align:right; " transform="" id="pattern_number" y="88.0" x="0.0">
Bl_W_Bodice_Short_Pivnick</text>
      <text style="font-size:40; vertical-align:top; fill-opacity:1.0; fill:#000000; text-anchor:right; stroke:none; font-weight:normal; font-style:normal; text-align:right; " transform="" id="pattern_name" y="132.0" x="0.0">
Womens Bodice Block - Short - Pivnick</text>
      <text style="font-size:40; vertical-align:top; fill-opacity:1.0; fill:#000000; text-anchor:right; stroke:none; font-weight:normal; font-style:normal; text-align:right; " transform="" id="client" y="176.0" x="0.0">
DressFormLg</text>
      <text style="font-size:40; vertical-align:top; fill-opacity:1.0; fill:#000000; text-anchor:right; stroke:none; font-weight:normal; font-style:normal; text-align:right; " transform="" id="date" y="220.0" x="0.0">
2015/10/6 14:57</text>
    </g>
    <g id="document.testgrid">
      <path style="stroke-linejoin:miter; stroke:green; stroke-width:4; stroke-miterlimit:4; fill:none; " d="M 1080.0  0.0 L 1080.0  212.598425197 M 1115.43307087  0.0 L 1115.43307087  212.598425197 M 1150.86614173  0.0 L 1150.86614173  212.598425197 M 1186.2992126  0.0 L 1186.2992126  212.598425197 M 1221.73228346  0.0 L 1221.73228346  212.598425197 M 1257.16535433  0.0 L 1257.16535433  212.598425197 M 1292.5984252  0.0 L 1292.5984252  212.598425197 M 1080.0  0.0 L 1292.5984252  0.0 M 1080.0  35.4330708661 L 1292.5984252  35.4330708661 M 1080.0  70.8661417323 L 1292.5984252  70.8661417323 M 1080.0  106.299212598 L 1292.5984252  106.299212598 M 1080.0  141.732283465 L 1292.5984252  141.732283465 M 1080.0  177.165354331 L 1292.5984252  177.165354331 M 1080.0  212.598425197 L 1292.5984252  212.598425197 M 1469.76377953  0.0 L 1469.76377953  270.0 M 1559.76377953  0.0 L 1559.76377953  270.0 M 1649.76377953  0.0 L 1649.76377953  270.0 M 1739.76377953  0.0 L 1739.76377953  270.0 M 1469.76377953  0.0 L 1739.76377953  0.0 M 1469.76377953  90.0 L 1739.76377953  90.0 M 1469.76377953  180.0 L 1739.76377953  180.0 M 1469.76377953  270.0 L 1739.76377953  270.0 " id="testgrid" />
    </g>
    <g id="document.bodice.Front.notes" transform=" translate(172.746323, 1447.765981)" />
    <g id="document.bodice.Back.notes" transform=" translate(2329.963988, 438.820000)" />
  </g>
  <g inkscape:label="Label-reference" id="reference" inkscape:groupmode="layer" transform="translate(88.582677,88.582677)">
    <g id="document.bodice.Front.reference" transform=" translate(172.746323, 1447.765981)">
      <circle style="stroke:red; stroke-width:1; fill:red; " transform="" cy="0.0" cx="0.0" r="5" id="A.FBC1" d="M 5,0 C 5,2.761 2.761,5 0,5 C -2.761,5 -5,2.761 -5,0 c 0,-2.761 2.239,-5 5,-5 c 2.761,0 5,2.239 5,5 z" />
      <text style="font-size:30; vertical-align:top; fill-opacity:1.0; fill:darkblue; text-anchor:right; stroke:none; font-weight:normal; font-style:italic; text-align:right; " transform="" id="A.FBC1.text" y="-7.0" x="7.0">
FBC1</text>
      <circle style="stroke:red; stroke-width:1; fill:red; " transform="" cy="0.0" cx="992.125984252" r="5" id="A.FBS" d="m 997.1,0 c 0,2.761 -2.2,5 -5,5 c -2.7,0 -5,-2.239 -5,-5 c 0,-2.761 2.3,-5 5,-5 c 2.8,0 5,2.239 5,5 z" />
      <text style="font-size:30; vertical-align:top; fill-opacity:1.0; fill:darkblue; text-anchor:right; stroke:none; font-weight:normal; font-style:italic; text-align:right; " transform="" id="A.FBS.text" y="-7.0" x="999.125984252">
FBS</text>
      <circle style="stroke:red; stroke-width:1; fill:red; " transform="" cy="-318.897637795" cx="0.0" r="5" id="A.FUC1" d="m 5,-318.9 c 0,2.8 -2.239,5 -5,5 c -2.761,0 -5,-2.2 -5,-5 c 0,-2.8 2.239,-5 5,-5 c 2.761,0 5,2.2 5,5 z" />
      <text style="font-size:30; vertical-align:top; fill-opacity:1.0; fill:darkblue; text-anchor:right; stroke:none; font-weight:normal; font-style:italic; text-align:right; " transform="" id="A.FUC1.text" y="-325.897637795" x="7.0">
FUC1</text>
      <circle style="stroke:red; stroke-width:1; fill:red; " transform="" cy="-318.897637795" cx="70.8661417323" r="5" id="A.FUC" d="m 75.87,-318.9 c 0,2.8 -2.24,5 -5,5 c -2.77,0 -5,-2.2 -5,-5 c 0,-2.8 2.23,-5 5,-5 c 2.76,0 5,2.2 5,5 z" />
      <text style="font-size:30; vertical-align:top; fill-opacity:1.0; fill:darkblue; text-anchor:right; stroke:none; font-weight:normal; font-style:italic; text-align:right; " transform="" id="A.FUC.text" y="-325.897637795" x="77.8661417323">
FUC</text>
      <circle style="stroke:red; stroke-width:1; fill:red; " transform="" cy="0.0" cx="354.330708661" r="5" id="A.FBP" d="m 359.3,0 c 0,2.761 -2.2,5 -5,5 c -2.7,0 -5,-2.239 -5,-5 c 0,-2.761 2.3,-5 5,-5 c 2.8,0 5,2.239 5,5 z" />
      <text style="font-size:30; vertical-align:top; fill-opacity:1.0; fill:darkblue; text-anchor:right; stroke:none; font-weight:normal; font-style:italic; text-align:right; " transform="" id="A.FBP.text" y="-7.0" x="361.330708661">
FBP</text>
      <circle style="stroke:red; stroke-width:1; fill:red; " transform="" cy="-75.0347383048" cx="16.6743862899" r="5" id="A.FBC" d="m 21.67,-75.03 c 0,2.76 -2.23,5 -5,5 c -2.76,0 -5,-2.24 -5,-5 c 0,-2.77 2.24,-5 5,-5 c 2.77,0 5,2.23 5,5 z" />
      <text style="font-size:30; vertical-align:top; fill-opacity:1.0; fill:darkblue; text-anchor:right; stroke:none; font-weight:normal; font-style:italic; text-align:right; " transform="" id="A.FBC.text" y="-82.0347383048" x="23.6743862899">
FBC</text>
      <circle style="stroke:red; stroke-width:1; fill:red; " transform="" cy="-1008.94598092" cx="224.210217983" r="5" id="A.FSH" d="m 229.2,-1009 c 0,3 -2.2,5 -5,5 c -2.8,0 -5,-2 -5,-5 c 0,-3 2.2,-5 5,-5 c 2.8,0 5,2 5,5 z" />
      <text style="font-size:30; vertical-align:top; fill-opacity:1.0; fill:darkblue; text-anchor:right; stroke:none; font-weight:normal; font-style:italic; text-align:right; " transform="" id="A.FSH.text" y="-1015.94598092" x="231.210217983">
FSH</text>
      <circle style="stroke:red; stroke-width:1; fill:red; " transform="" cy="512.983451491" cx="-113.996322554" r="5" id="A.FWC" d="m -109,513 c 0,2.7 -2.2,5 -5,5 c -2.8,0 -5,-2.3 -5,-5 c 0,-2.8 2.2,-5 5,-5 c 2.8,0 5,2.2 5,5 z" />
      <text style="font-size:30; vertical-align:top; fill-opacity:1.0; fill:darkblue; text-anchor:right; stroke:none; font-weight:normal; font-style:italic; text-align:right; " transform="" id="A.FWC.text" y="505.983451491" x="-106.996322554">
FWC</text>
      <circle style="stroke:gray; stroke-width:1; fill:none; " transform="" cy="-659.256590202" cx="327.767001732" r="5" id="A.FNC.inpoint" d="m 332.8,-659.3 c 0,2.8 -2.3,5 -5,5 c -2.8,0 -5,-2.2 -5,-5 c 0,-2.7 2.2,-5 5,-5 c 2.7,0 5,2.3 5,5 z" />
      <text style="font-size:25; vertical-align:top; fill-opacity:1.0; fill:gray; text-anchor:right; stroke:none; font-weight:normal; font-style:italic; text-align:right; " transform="" id="A.FNC.inpoint.text" y="-666.256590202" x="334.767001732">
FNC.in</text>
      <circle style="stroke:red; stroke-width:1; fill:red; " transform="" cy="-697.642233383" cx="155.031607418" r="5" id="A.FNC" d="m 160,-697.6 c 0,2.7 -2.2,5 -5,5 c -2.7,0 -5,-2.3 -5,-5 c 0,-2.8 2.3,-5 5,-5 c 2.8,0 5,2.2 5,5 z" />
      <text style="font-size:30; vertical-align:top; fill-opacity:1.0; fill:darkblue; text-anchor:right; stroke:none; font-weight:normal; font-style:italic; text-align:right; " transform="" id="A.FNC.text" y="-704.642233383" x="162.031607418">
FNC</text>
      <circle style="stroke:red; stroke-width:1; fill:red; " transform="" cy="-853.294107152" cx="924.643649945" r="5" id="A.FSW" d="m 929.6,-853.3 c 0,2.8 -2.2,5 -5,5 c -2.7,0 -5,-2.2 -5,-5 c 0,-2.8 2.3,-5 5,-5 c 2.8,0 5,2.2 5,5 z" />
      <text style="font-size:30; vertical-align:top; fill-opacity:1.0; fill:darkblue; text-anchor:right; stroke:none; font-weight:normal; font-style:italic; text-align:right; " transform="" id="A.FSW.text" y="-860.294107152" x="931.643649945">
FSW</text>
      <circle style="stroke:red; stroke-width:1; fill:red; " transform="" cy="0.0" cx="735.022737245" r="5" id="A.FAP1" d="m 740,0 c 0,2.761 -2.2,5 -5,5 c -2.7,0 -5,-2.239 -5,-5 c 0,-2.761 2.3,-5 5,-5 c 2.8,0 5,2.239 5,5 z" />
      <text style="font-size:30; vertical-align:top; fill-opacity:1.0; fill:darkblue; text-anchor:right; stroke:none; font-weight:normal; font-style:italic; text-align:right; " transform="" id="A.FAP1.text" y="-7.0" x="742.022737245">
FAP1</text>
      <circle style="stroke:gray; stroke-width:1; fill:none; " transform="" cy="-612.739515102" cx="832.381988475" r="5" id="A.FSP.inpoint" d="m 837.4,-612.7 c 0,2.7 -2.3,5 -5,5 c -2.8,0 -5,-2.3 -5,-5 c 0,-2.8 2.2,-5 5,-5 c 2.7,0 5,2.2 5,5 z" />
      <text style="font-size:25; vertical-align:top; fill-opacity:1.0; fill:gray; text-anchor:right; stroke:none; font-weight:normal; font-style:italic; text-align:right; " transform="" id="A.FSP.inpoint.text" y="-619.739515102" x="839.381988475">
FSP.in</text>
      <circle style="stroke:red; stroke-width:1; fill:red; " transform="" cy="-738.869219435" cx="899.215897119" r="5" id="A.FSP" d="m 904.2,-738.9 c 0,2.8 -2.2,5 -5,5 c -2.7,0 -5,-2.2 -5,-5 c 0,-2.7 2.3,-5 5,-5 c 2.8,0 5,2.3 5,5 z" />
      <text style="font-size:30; vertical-align:top; fill-opacity:1.0; fill:darkblue; text-anchor:right; stroke:none; font-weight:normal; font-style:italic; text-align:right; " transform="" id="A.FSP.text" y="-745.869219435" x="906.215897119">
FSP</text>
      <circle style="stroke:gray; stroke-width:1; fill:none; " transform="" cy="-836.092137345" cx="450.863736573" r="5" id="A.FNS.outpoint" d="m 455.9,-836.1 c 0,2.8 -2.3,5 -5,5 c -2.8,0 -5,-2.2 -5,-5 c 0,-2.8 2.2,-5 5,-5 c 2.7,0 5,2.2 5,5 z" />
      <text style="font-size:25; vertical-align:top; fill-opacity:1.0; fill:gray; text-anchor:right; stroke:none; font-weight:normal; font-style:italic; text-align:right; " transform="" id="A.FNS.outpoint.text" y="-843.092137345" x="457.863736573">
FNS.out</text>
      <circle style="stroke:red; stroke-width:1; fill:red; " transform="" cy="-945.67497353" cx="508.929751246" r="5" id="A.FNS" d="m 513.9,-945.7 c 0,2.8 -2.2,5 -5,5 c -2.7,0 -5,-2.2 -5,-5 c 0,-2.7 2.3,-5 5,-5 c 2.8,0 5,2.3 5,5 z" />
      <text style="font-size:30; vertical-align:top; fill-opacity:1.0; fill:darkblue; text-anchor:right; stroke:none; font-weight:normal; font-style:italic; text-align:right; " transform="" id="A.FNS.text" y="-952.67497353" x="515.929751246">
FNS</text>
      <circle style="stroke:red; stroke-width:1; fill:red; " transform="" cy="532.796482558" cx="992.125984252" r="5" id="A.FWS" d="m 997.1,532.8 c 0,2.8 -2.2,5 -5,5 c -2.7,0 -5,-2.2 -5,-5 c 0,-2.8 2.3,-5 5,-5 c 2.8,0 5,2.2 5,5 z" />
      <text style="font-size:30; vertical-align:top; fill-opacity:1.0; fill:darkblue; text-anchor:right; stroke:none; font-weight:normal; font-style:italic; text-align:right; " transform="" id="A.FWS.text" y="525.796482558" x="999.125984252">
FWS</text>
      <circle style="stroke:red; stroke-width:1; fill:red; " transform="" cy="-175.864934765" cx="992.125984252" r="5" id="A.FUS1" d="m 997.1,-175.9 c 0,2.8 -2.2,5 -5,5 c -2.7,0 -5,-2.2 -5,-5 c 0,-2.7 2.3,-5 5,-5 c 2.8,0 5,2.3 5,5 z" />
      <text style="font-size:30; vertical-align:top; fill-opacity:1.0; fill:darkblue; text-anchor:right; stroke:none; font-weight:normal; font-style:italic; text-align:right; " transform="" id="A.FUS1.text" y="-182.864934765" x="999.125984252">
FUS1</text>
      <circle style="stroke:red; stroke-width:1; fill:red; " transform="" cy="-175.864934765" cx="774.103833859" r="5" id="A.FAP2" d="m 779.1,-175.9 c 0,2.8 -2.2,5 -5,5 c -2.8,0 -5,-2.2 -5,-5 c 0,-2.7 2.2,-5 5,-5 c 2.8,0 5,2.3 5,5 z" />
      <text style="font-size:30; vertical-align:top; fill-opacity:1.0; fill:darkblue; text-anchor:right; stroke:none; font-weight:normal; font-style:italic; text-align:right; " transform="" id="A.FAP2.text" y="-182.864934765" x="781.103833859">
FAP2</text>
      <circle style="stroke:gray; stroke-width:1; fill:none; " transform="" cy="-215.698791128" cx="829.493255061" r="5" id="A.FAP.inpoint" d="m 834.5,-215.7 c 0,2.8 -2.2,5 -5,5 c -2.8,0 -5,-2.2 -5,-5 c 0,-2.8 2.2,-5 5,-5 c 2.8,0 5,2.2 5,5 z" />
      <text style="font-size:25; vertical-align:top; fill-opacity:1.0; fill:gray; text-anchor:right; stroke:none; font-weight:normal; font-style:italic; text-align:right; " transform="" id="A.FAP.inpoint.text" y="-222.698791128" x="836.493255061">
FAP.in</text>
      <circle style="stroke:gray; stroke-width:1; fill:none; " transform="" cy="-455.451050236" cx="772.211017111" r="5" id="A.FAP.outpoint" d="m 777.2,-455.5 c 0,2.8 -2.2,5 -5,5 c -2.8,0 -5,-2.2 -5,-5 c 0,-2.7 2.2,-5 5,-5 c 2.8,0 5,2.3 5,5 z" />
      <text style="font-size:25; vertical-align:top; fill-opacity:1.0; fill:gray; text-anchor:right; stroke:none; font-weight:normal; font-style:italic; text-align:right; " transform="" id="A.FAP.outpoint.text" y="-462.451050236" x="779.211017111">
FAP.out</text>
      <circle style="stroke:red; stroke-width:1; fill:red; " transform="" cy="-316.616005932" cx="805.381849674" r="5" id="A.FAP" d="m 810.4,-316.6 c 0,2.7 -2.3,5 -5,5 c -2.8,0 -5,-2.3 -5,-5 c 0,-2.8 2.2,-5 5,-5 c 2.7,0 5,2.2 5,5 z" />
      <text style="font-size:30; vertical-align:top; fill-opacity:1.0; fill:darkblue; text-anchor:right; stroke:none; font-weight:normal; font-style:italic; text-align:right; " transform="" id="A.FAP.text" y="-323.616005932" x="812.381849674">
FAP</text>
      <circle style="stroke:red; stroke-width:1; fill:red; " transform="" cy="-175.864934765" cx="1051.65354331" r="5" id="A.FUS2" d="m 1057,-175.9 c 0,2.8 -3,5 -5,5 c -3,0 -5,-2.2 -5,-5 c 0,-2.7 2,-5 5,-5 c 2,0 5,2.3 5,5 z" />
      <text style="font-size:30; vertical-align:top; fill-opacity:1.0; fill:darkblue; text-anchor:right; stroke:none; font-weight:normal; font-style:italic; text-align:right; " transform="" id="A.FUS2.text" y="-182.864934765" x="1058.65354331">
FUS2</text>
      <circle style="stroke:red; stroke-width:1; fill:red; " transform="" cy="-173.377930798" cx="1051.44463497" r="5" id="A.FUS3" d="m 1056,-173.4 c 0,2.8 -2,5 -5,5 c -2,0 -5,-2.2 -5,-5 c 0,-2.7 3,-5 5,-5 c 3,0 5,2.3 5,5 z" />
      <text style="font-size:30; vertical-align:top; fill-opacity:1.0; fill:darkblue; text-anchor:right; stroke:none; font-weight:normal; font-style:italic; text-align:right; " transform="" id="A.FUS3.text" y="-180.377930798" x="1058.44463497">
FUS3</text>
      <circle style="stroke:gray; stroke-width:1; fill:none; " transform="" cy="-129.046947406" cx="943.597796981" r="5" id="A.FUS.outpoint" d="m 948.6,-129 c 0,2.7 -2.2,5 -5,5 c -2.8,0 -5,-2.3 -5,-5 c 0,-2.8 2.2,-5 5,-5 c 2.8,0 5,2.2 5,5 z" />
      <text style="font-size:25; vertical-align:top; fill-opacity:1.0; fill:gray; text-anchor:right; stroke:none; font-weight:normal; font-style:italic; text-align:right; " transform="" id="A.FUS.outpoint.text" y="-136.046947406" x="950.597796981">
FUS.out</text>
      <circle style="stroke:red; stroke-width:1; fill:red; " transform="" cy="-120.361894169" cx="1046.9912879" r="5" id="A.FUS" d="m 1052,-120.4 c 0,2.8 -2,5 -5,5 c -3,0 -5,-2.2 -5,-5 c 0,-2.7 2,-5 5,-5 c 3,0 5,2.3 5,5 z" />
      <text style="font-size:30; vertical-align:top; fill-opacity:1.0; fill:darkblue; text-anchor:right; stroke:none; font-weight:normal; font-style:italic; text-align:right; " transform="" id="A.FUS.text" y="-127.361894169" x="1053.9912879">
FUS</text>
      <circle style="stroke:red; stroke-width:1; fill:red; " transform="" cy="0.0" cx="354.330708661" r="5" id="A.FD1" d="m 359.3,0 c 0,2.761 -2.2,5 -5,5 c -2.7,0 -5,-2.239 -5,-5 c 0,-2.761 2.3,-5 5,-5 c 2.8,0 5,2.239 5,5 z" />
      <text style="font-size:30; vertical-align:top; fill-opacity:1.0; fill:darkblue; text-anchor:right; stroke:none; font-weight:normal; font-style:italic; text-align:right; " transform="" id="A.FD1.text" y="-7.0" x="361.330708661">
FD1</text>
      <circle style="stroke:red; stroke-width:1; fill:red; " transform="" cy="591.020031586" cx="220.427790293" r="5" id="A.FD1.i" d="m 225.4,591 c 0,2.8 -2.2,5 -5,5 c -2.7,0 -5,-2.2 -5,-5 c 0,-2.7 2.3,-5 5,-5 c 2.8,0 5,2.3 5,5 z" />
      <text style="font-size:30; vertical-align:top; fill-opacity:1.0; fill:darkblue; text-anchor:right; stroke:none; font-weight:normal; font-style:italic; text-align:right; " transform="" id="A.FD1.i.text" y="584.020031586" x="227.427790293">
FD1.i</text>
      <circle style="stroke:red; stroke-width:1; fill:red; " transform="" cy="591.143727196" cx="487.68648499" r="5" id="A.FD1.o" d="m 492.7,591.1 c 0,2.8 -2.3,5 -5,5 c -2.8,0 -5,-2.2 -5,-5 c 0,-2.7 2.2,-5 5,-5 c 2.7,0 5,2.3 5,5 z" />
      <text style="font-size:30; vertical-align:top; fill-opacity:1.0; fill:darkblue; text-anchor:right; stroke:none; font-weight:normal; font-style:italic; text-align:right; " transform="" id="A.FD1.o.text" y="584.143727196" x="494.68648499">
FD1.o</text>
      <path style="stroke-linejoin:miter; stroke-dashoffset:0; stroke:gray; stroke-miterlimit:4; stroke-dasharray:6,6; stroke-width:2; fill:none; " transform="" d="M 735.022737245  0.0 L 924.643649945  -853.294107152 L 224.210217983  -1008.94598092 L -113.996322554  512.983451491 M 0.0  0.0 L 0.0  -318.897637795 L 70.8661417323  -318.897637795 M 16.6743862899  -75.0347383048 L 354.330708661  0.0 M 0.0  0.0 L 992.125984252  0.0 M -113.996322554  512.983451491 L 899.215897119  -738.869219435 M 155.031607418  -697.642233383 L 992.125984252  532.796482558 M 774.103833859  -175.864934765 L 992.125984252  -175.864934765 M 354.330708661  0.0 L 354.043573596  620.388570867 M 992.125984252  532.796482558 L 992.125984252  -175.864934765 M 70.8661417323  -318.897637795 L 1046.9912879  -120.361894169 " id="A.gridline" />
    </g>
    <g id="document.bodice.Back.reference" transform=" translate(2329.963988, 438.820000)">
      <circle style="stroke:red; stroke-width:1; fill:red; " transform="" cy="0.0" cx="0.0" r="5" id="B.BSH" d="M 5,0 C 5,2.761 2.761,5 0,5 C -2.761,5 -5,2.761 -5,0 c 0,-2.761 2.239,-5 5,-5 c 2.761,0 5,2.239 5,5 z" />
      <text style="font-size:30; vertical-align:top; fill-opacity:1.0; fill:darkblue; text-anchor:right; stroke:none; font-weight:normal; font-style:italic; text-align:right; " transform="" id="B.BSH.text" y="-7.0" x="7.0">
BSH</text>
      <circle style="stroke:red; stroke-width:1; fill:red; " transform="" cy="0.0" cx="-708.661417323" r="5" id="B.BSW" d="m -703.7,0 c 0,2.761 -2.2,5 -5,5 c -2.7,0 -5,-2.239 -5,-5 c 0,-2.761 2.3,-5 5,-5 c 2.8,0 5,2.239 5,5 z" />
      <text style="font-size:30; vertical-align:top; fill-opacity:1.0; fill:darkblue; text-anchor:right; stroke:none; font-weight:normal; font-style:italic; text-align:right; " transform="" id="B.BSW.text" y="-7.0" x="-701.661417323">
BSW</text>
      <circle style="stroke:red; stroke-width:1; fill:red; " transform="" cy="0.0" cx="-885.826771654" r="5" id="B.BUW" d="m -880.8,0 c 0,2.761 -2.3,5 -5,5 c -2.8,0 -5,-2.239 -5,-5 c 0,-2.761 2.2,-5 5,-5 c 2.7,0 5,2.239 5,5 z" />
      <text style="font-size:30; vertical-align:top; fill-opacity:1.0; fill:darkblue; text-anchor:right; stroke:none; font-weight:normal; font-style:italic; text-align:right; " transform="" id="B.BUW.text" y="-7.0" x="-878.826771654">
BUW</text>
      <circle style="stroke:red; stroke-width:1; fill:red; " transform="" cy="1488.18897638" cx="0.0" r="5" id="B.BWC" d="m 5,1488 c 0,3 -2.239,5 -5,5 c -2.761,0 -5,-2 -5,-5 c 0,-3 2.239,-5 5,-5 c 2.761,0 5,2 5,5 z" />
      <text style="font-size:30; vertical-align:top; fill-opacity:1.0; fill:darkblue; text-anchor:right; stroke:none; font-weight:normal; font-style:italic; text-align:right; " transform="" id="B.BWC.text" y="1481.18897638" x="7.0">
BWC</text>
      <circle style="stroke:gray; stroke-width:1; fill:none; " transform="" cy="141.732283465" cx="-142.235487856" r="5" id="B.BNC.inpoint" d="m -137.2,141.7 c 0,2.8 -2.3,5 -5,5 c -2.8,0 -5,-2.2 -5,-5 c 0,-2.7 2.2,-5 5,-5 c 2.7,0 5,2.3 5,5 z" />
      <text style="font-size:25; vertical-align:top; fill-opacity:1.0; fill:gray; text-anchor:right; stroke:none; font-weight:normal; font-style:italic; text-align:right; " transform="" id="B.BNC.inpoint.text" y="134.732283465" x="-135.235487856">
BNC.in</text>
      <circle style="stroke:red; stroke-width:1; fill:red; " transform="" cy="141.732283465" cx="0.0" r="5" id="B.BNC" d="m 5,141.7 c 0,2.8 -2.239,5 -5,5 c -2.761,0 -5,-2.2 -5,-5 c 0,-2.7 2.239,-5 5,-5 c 2.761,0 5,2.3 5,5 z" />
      <text style="font-size:30; vertical-align:top; fill-opacity:1.0; fill:darkblue; text-anchor:right; stroke:none; font-weight:normal; font-style:italic; text-align:right; " transform="" id="B.BNC.text" y="134.732283465" x="7.0">
BNC</text>
      <circle style="stroke:red; stroke-width:1; fill:red; " transform="" cy="179.561670759" cx="-708.661417323" r="5" id="B.BSP1" d="m -703.7,179.6 c 0,2.7 -2.2,5 -5,5 c -2.7,0 -5,-2.3 -5,-5 c 0,-2.8 2.3,-5 5,-5 c 2.8,0 5,2.2 5,5 z" />
      <text style="font-size:30; vertical-align:top; fill-opacity:1.0; fill:darkblue; text-anchor:right; stroke:none; font-weight:normal; font-style:italic; text-align:right; " transform="" id="B.BSP1.text" y="172.561670759" x="-701.661417323">
BSP1</text>
      <circle style="stroke:gray; stroke-width:1; fill:none; " transform="" cy="65.2600679401" cx="-256.846103288" r="5" id="B.BNS.outpoint" d="m -251.8,65.26 c 0,2.76 -2.3,5 -5,5 c -2.8,0 -5,-2.24 -5,-5 c 0,-2.76 2.2,-5 5,-5 c 2.7,0 5,2.24 5,5 z" />
      <text style="font-size:25; vertical-align:top; fill-opacity:1.0; fill:gray; text-anchor:right; stroke:none; font-weight:normal; font-style:italic; text-align:right; " transform="" id="B.BNS.outpoint.text" y="58.2600679401" x="-249.846103288">
BNS.out</text>
      <circle style="stroke:red; stroke-width:1; fill:red; " transform="" cy="0.0" cx="-284.470975712" r="5" id="B.BNS" d="m -279.5,0 c 0,2.761 -2.2,5 -5,5 c -2.7,0 -5,-2.239 -5,-5 c 0,-2.761 2.3,-5 5,-5 c 2.8,0 5,2.239 5,5 z" />
      <text style="font-size:30; vertical-align:top; fill-opacity:1.0; fill:darkblue; text-anchor:right; stroke:none; font-weight:normal; font-style:italic; text-align:right; " transform="" id="B.BNS.text" y="-7.0" x="-277.470975712">
BNS</text>
      <circle style="stroke:gray; stroke-width:1; fill:none; " transform="" cy="333.195816447" cx="-678.641388743" r="5" id="B.BSP.inpoint" d="m -673.6,333.2 c 0,2.8 -2.3,5 -5,5 c -2.8,0 -5,-2.2 -5,-5 c 0,-2.8 2.2,-5 5,-5 c 2.7,0 5,2.2 5,5 z" />
      <text style="font-size:25; vertical-align:top; fill-opacity:1.0; fill:gray; text-anchor:right; stroke:none; font-weight:normal; font-style:italic; text-align:right; " transform="" id="B.BSP.inpoint.text" y="326.195816447" x="-671.641388743">
BSP.in</text>
      <circle style="stroke:red; stroke-width:1; fill:red; " transform="" cy="192.130987712" cx="-738.354748236" r="5" id="B.BSP" d="m -733.4,192.1 c 0,2.8 -2.2,5 -5,5 c -2.7,0 -5,-2.2 -5,-5 c 0,-2.7 2.3,-5 5,-5 c 2.8,0 5,2.3 5,5 z" />
      <text style="font-size:30; vertical-align:top; fill-opacity:1.0; fill:darkblue; text-anchor:right; stroke:none; font-weight:normal; font-style:italic; text-align:right; " transform="" id="B.BSP.text" y="185.130987712" x="-731.354748236">
BSP</text>
      <circle style="stroke:gray; stroke-width:1; fill:none; " transform="" cy="720.356423837" cx="-730.151545092" r="5" id="B.BAP.inpoint" d="m -725.2,720.4 c 0,2.7 -2.2,5 -5,5 c -2.7,0 -5,-2.3 -5,-5 c 0,-2.8 2.3,-5 5,-5 c 2.8,0 5,2.2 5,5 z" />
      <text style="font-size:25; vertical-align:top; fill-opacity:1.0; fill:gray; text-anchor:right; stroke:none; font-weight:normal; font-style:italic; text-align:right; " transform="" id="B.BAP.inpoint.text" y="713.356423837" x="-723.151545092">
BAP.in</text>
      <circle style="stroke:gray; stroke-width:1; fill:none; " transform="" cy="509.933709328" cx="-660.566952282" r="5" id="B.BAP.outpoint" d="m -655.6,509.9 c 0,2.8 -2.2,5 -5,5 c -2.7,0 -5,-2.2 -5,-5 c 0,-2.7 2.3,-5 5,-5 c 2.8,0 5,2.3 5,5 z" />
      <text style="font-size:25; vertical-align:top; fill-opacity:1.0; fill:gray; text-anchor:right; stroke:none; font-weight:normal; font-style:italic; text-align:right; " transform="" id="B.BAP.outpoint.text" y="502.933709328" x="-653.566952282">
BAP.out</text>
      <circle style="stroke:red; stroke-width:1; fill:red; " transform="" cy="655.370615374" cx="-708.661417323" r="5" id="B.BAP" d="m -703.7,655.4 c 0,2.7 -2.2,5 -5,5 c -2.7,0 -5,-2.3 -5,-5 c 0,-2.8 2.3,-5 5,-5 c 2.8,0 5,2.2 5,5 z" />
      <text style="font-size:30; vertical-align:top; fill-opacity:1.0; fill:darkblue; text-anchor:right; stroke:none; font-weight:normal; font-style:italic; text-align:right; " transform="" id="B.BAP.text" y="648.370615374" x="-701.661417323">
BAP</text>
      <circle style="stroke:red; stroke-width:1; fill:red; " transform="" cy="1467.51639689" cx="-885.826771654" r="5" id="B.BWS1" d="m -880.8,1468 c 0,2 -2.3,5 -5,5 c -2.8,0 -5,-3 -5,-5 c 0,-3 2.2,-5 5,-5 c 2.7,0 5,2 5,5 z" />
      <text style="font-size:30; vertical-align:top; fill-opacity:1.0; fill:darkblue; text-anchor:right; stroke:none; font-weight:normal; font-style:italic; text-align:right; " transform="" id="B.BWS1.text" y="1460.51639689" x="-878.826771654">
BWS1</text>
      <circle style="stroke:red; stroke-width:1; fill:red; " transform="" cy="1469.9992447" cx="-779.435933464" r="5" id="B.BWS2" d="m -774.4,1470 c 0,3 -2.3,5 -5,5 c -2.8,0 -5,-2 -5,-5 c 0,-3 2.2,-5 5,-5 c 2.7,0 5,2 5,5 z" />
      <text style="font-size:30; vertical-align:top; fill-opacity:1.0; fill:darkblue; text-anchor:right; stroke:none; font-weight:normal; font-style:italic; text-align:right; " transform="" id="B.BWS2.text" y="1462.9992447" x="-772.435933464">
BWS2</text>
      <circle style="stroke:red; stroke-width:1; fill:red; " transform="" cy="782.6894069" cx="-389.717966732" r="5" id="B.BD1" d="m -384.7,782.7 c 0,2.8 -2.3,5 -5,5 c -2.8,0 -5,-2.2 -5,-5 c 0,-2.8 2.2,-5 5,-5 c 2.7,0 5,2.2 5,5 z" />
      <text style="font-size:30; vertical-align:top; fill-opacity:1.0; fill:darkblue; text-anchor:right; stroke:none; font-weight:normal; font-style:italic; text-align:right; " transform="" id="B.BD1.text" y="775.6894069" x="-382.717966732">
BD1</text>
      <circle style="stroke:red; stroke-width:1; fill:red; " transform="" cy="1490.23518458" cx="-335.767700706" r="5" id="B.BD1.i" d="m -330.8,1490 c 0,3 -2.2,5 -5,5 c -2.7,0 -5,-2 -5,-5 c 0,-3 2.3,-5 5,-5 c 2.8,0 5,2 5,5 z" />
      <text style="font-size:30; vertical-align:top; fill-opacity:1.0; fill:darkblue; text-anchor:right; stroke:none; font-weight:normal; font-style:italic; text-align:right; " transform="" id="B.BD1.i.text" y="1483.23518458" x="-328.767700706">
BD1.i</text>
      <circle style="stroke:red; stroke-width:1; fill:red; " transform="" cy="1490.22055137" cx="-443.859801967" r="5" id="B.BD1.o" d="m -438.9,1490 c 0,3 -2.2,5 -5,5 c -2.7,0 -5,-2 -5,-5 c 0,-3 2.3,-5 5,-5 c 2.8,0 5,2 5,5 z" />
      <text style="font-size:30; vertical-align:top; fill-opacity:1.0; fill:darkblue; text-anchor:right; stroke:none; font-weight:normal; font-style:italic; text-align:right; " transform="" id="B.BD1.o.text" y="1483.22055137" x="-436.859801967">
BD1.o</text>
      <circle style="stroke:red; stroke-width:1; fill:red; " transform="" cy="1483.49617636" cx="-780.608539941" r="5" id="B.BWS" d="m -775.6,1483 c 0,3 -2.2,5 -5,5 c -2.8,0 -5,-2 -5,-5 c 0,-2 2.2,-5 5,-5 c 2.8,0 5,3 5,5 z" />
      <text style="font-size:30; vertical-align:top; fill-opacity:1.0; fill:darkblue; text-anchor:right; stroke:none; font-weight:normal; font-style:italic; text-align:right; " transform="" id="B.BWS.text" y="1476.49617636" x="-773.608539941">
BWS</text>
      <circle style="stroke:red; stroke-width:1; fill:red; " transform="" cy="782.6894069" cx="-885.826771654" r="5" id="B.BUS1" d="m -880.8,782.7 c 0,2.8 -2.3,5 -5,5 c -2.8,0 -5,-2.2 -5,-5 c 0,-2.8 2.2,-5 5,-5 c 2.7,0 5,2.2 5,5 z" />
      <text style="font-size:30; vertical-align:top; fill-opacity:1.0; fill:darkblue; text-anchor:right; stroke:none; font-weight:normal; font-style:italic; text-align:right; " transform="" id="B.BUS1.text" y="775.6894069" x="-878.826771654">
BUS1</text>
      <circle style="stroke:red; stroke-width:1; fill:red; " transform="" cy="782.6894069" cx="0.0" r="5" id="B.BUC" d="m 5,782.7 c 0,2.8 -2.239,5 -5,5 c -2.761,0 -5,-2.2 -5,-5 c 0,-2.8 2.239,-5 5,-5 c 2.761,0 5,2.2 5,5 z" />
      <text style="font-size:30; vertical-align:top; fill-opacity:1.0; fill:darkblue; text-anchor:right; stroke:none; font-weight:normal; font-style:italic; text-align:right; " transform="" id="B.BUC.text" y="775.6894069" x="7.0">
BUC</text>
      <circle style="stroke:red; stroke-width:1; fill:red; " transform="" cy="782.6894069" cx="-938.976377953" r="5" id="B.BUS2" d="m -934,782.7 c 0,2.8 -2.2,5 -5,5 c -2.7,0 -5,-2.2 -5,-5 c 0,-2.8 2.3,-5 5,-5 c 2.8,0 5,2.2 5,5 z" />
      <text style="font-size:30; vertical-align:top; fill-opacity:1.0; fill:darkblue; text-anchor:right; stroke:none; font-weight:normal; font-style:italic; text-align:right; " transform="" id="B.BUS2.text" y="775.6894069" x="-931.976377953">
BUS2</text>
      <circle style="stroke:gray; stroke-width:1; fill:none; " transform="" cy="767.119763457" cx="-825.542732707" r="5" id="B.BUS.outpoint" d="m -820.5,767.1 c 0,2.8 -2.3,5 -5,5 c -2.8,0 -5,-2.2 -5,-5 c 0,-2.7 2.2,-5 5,-5 c 2.7,0 5,2.3 5,5 z" />
      <text style="font-size:25; vertical-align:top; fill-opacity:1.0; fill:gray; text-anchor:right; stroke:none; font-weight:normal; font-style:italic; text-align:right; " transform="" id="B.BUS.outpoint.text" y="760.119763457" x="-818.542732707">
BUS.out</text>
      <circle style="stroke:red; stroke-width:1; fill:red; " transform="" cy="792.264455894" cx="-936.812614881" r="5" id="B.BUS" d="m -931.8,792.3 c 0,2.7 -2.3,5 -5,5 c -2.8,0 -5,-2.3 -5,-5 c 0,-2.8 2.2,-5 5,-5 c 2.7,0 5,2.2 5,5 z" />
      <text style="font-size:30; vertical-align:top; fill-opacity:1.0; fill:darkblue; text-anchor:right; stroke:none; font-weight:normal; font-style:italic; text-align:right; " transform="" id="B.BUS.text" y="785.264455894" x="-929.812614881">
BUS</text>
      <circle style="stroke:red; stroke-width:1; fill:red; " transform="" cy="309.800082849" cx="-420.938074864" r="5" id="B.BD2" d="m -415.9,309.8 c 0,2.8 -2.3,5 -5,5 c -2.8,0 -5,-2.2 -5,-5 c 0,-2.8 2.2,-5 5,-5 c 2.7,0 5,2.2 5,5 z" />
      <text style="font-size:30; vertical-align:top; fill-opacity:1.0; fill:darkblue; text-anchor:right; stroke:none; font-weight:normal; font-style:italic; text-align:right; " transform="" id="B.BD2.text" y="302.800082849" x="-413.938074864">
BD2</text>
      <circle style="stroke:red; stroke-width:1; fill:red; " transform="" cy="87.5168603411" cx="-497.344401977" r="5" id="B.BD2.i" d="m -492.3,87.52 c 0,2.76 -2.3,5 -5,5 c -2.8,0 -5,-2.24 -5,-5 c 0,-2.76 2.2,-5 5,-5 c 2.7,0 5,2.24 5,5 z" />
      <text style="font-size:30; vertical-align:top; fill-opacity:1.0; fill:darkblue; text-anchor:right; stroke:none; font-weight:normal; font-style:italic; text-align:right; " transform="" id="B.BD2.i.text" y="80.5168603411" x="-490.344401977">
BD2.i</text>
      <circle style="stroke:red; stroke-width:1; fill:red; " transform="" cy="100.215514251" cx="-527.343274159" r="5" id="B.BD2.o" d="m -522.3,100.2 c 0,2.8 -2.3,5 -5,5 c -2.8,0 -5,-2.2 -5,-5 c 0,-2.75 2.2,-4.98 5,-4.98 c 2.7,0 5,2.23 5,4.98 z" />
      <text style="font-size:30; vertical-align:top; fill-opacity:1.0; fill:darkblue; text-anchor:right; stroke:none; font-weight:normal; font-style:italic; text-align:right; " transform="" id="B.BD2.o.text" y="93.2155142507" x="-520.343274159">
BD2.o</text>
      <path style="stroke-linejoin:miter; stroke-dashoffset:0; stroke:gray; stroke-miterlimit:4; stroke-dasharray:6,6; stroke-width:2; fill:none; " transform="" d="M -885.826771654  0.0 L 0.0  0.0 L 0.0  1488.18897638 L -708.661417323  179.561670759 L -708.661417323  0.0 M -708.661417323  179.561670759 L -708.661417323  655.370615374 L -780.608539941  1483.49617636 M -708.661417323  655.370615374 L -885.826771654  1467.51639689 M -938.976377953  782.6894069 L 0.0  782.6894069 M -885.826771654  0.0 L -885.826771654  1467.51639689 M 0.0  141.732283465 L -885.826771654  1467.51639689 " id="B.gridline" />
    </g>
  </g>
</svg>
