<?xml version="1.0" encoding="UTF-8" standalone="no"?>
<svg xmlns:dc="http://purl.org/dc/elements/1.1/" xmlns:cc="http://creativecommons.org/ns#" xmlns:rdf="http://www.w3.org/1999/02/22-rdf-syntax-ns#" xmlns:svg="http://www.w3.org/2000/svg" xmlns="http://www.w3.org/2000/svg" xmlns:sodipodi="http://sodipodi.sourceforge.net/DTD/sodipodi-0.dtd" xmlns:inkscape="http://www.inkscape.org/namespaces/inkscape" patternNumber="" fitBoxtoViewport="True" companyName="Seamly Patterns" currentscale="0.5:1" margin-right="88.5826771654" client-name="DressFormLg" designerName="" height="4323.19969933" width="1957.53632633" margin-top="88.5826771654" version="1.1" margin-bottom="88.5826771654" margin-left="88.5826771654" preserveAspectRatio="xMidYMid meet" id="svg2" inkscape:version="0.48.4 r9939" sodipodi:docname="DressFormLg-adult_bibb-2015-01-11-1205.svg">
  <metadata id="metadata106">
    <rdf:RDF>
      <cc:Work rdf:about="">
        <dc:format>image/svg+xml</dc:format>
        <dc:type rdf:resource="http://purl.org/dc/dcmitype/StillImage" />
      </cc:Work>
    </rdf:RDF>
  </metadata>
  <sodipodi:namedview id="base" pagecolor="#ffffff" bordercolor="#666666" borderopacity="1.0" inkscape:pageopacity="0.0" inkscape:pageshadow="2" inkscape:zoom="0.2049408" inkscape:document-units="pt" showgrid="false" inkscape:window-maximized="1" inkscape:cx="978.76819" inkscape:cy="2161.5999" inkscape:window-width="1855" inkscape:window-height="1056" inkscape:window-x="65" inkscape:window-y="24" inkscape:current-layer="pattern" />
  <defs id="defs5">
    <marker style="overflow:visible" id="Arrow1Mstart" refX="0.0" refY="0.0" orient="auto" inkscape:stockid="Arrow1Mstart">
      <path transform="scale(0.4) translate(10,0)" style="fill-rule:evenodd;stroke:#000000;stroke-width:1.0pt;marker-start:none" d="M 0.0,0.0 L 5.0,-5.0 L -12.5,0.0 L 5.0,5.0 L 0.0,0.0 z " id="path8" />
    </marker>
    <marker style="overflow:visible;" id="Arrow1Mend" refX="0.0" refY="0.0" orient="auto" inkscape:stockid="Arrow1Mend">
      <path transform="scale(0.4) rotate(180) translate(10,0)" style="fill-rule:evenodd;stroke:#000000;stroke-width:1.0pt;marker-start:none;" d="M 0.0,0.0 L 5.0,-5.0 L -12.5,0.0 L 5.0,5.0 L 0.0,0.0 z " id="path11" />
    </marker>
  </defs>
  <g inkscape:label="Label-pattern" id="pattern" inkscape:groupmode="layer" transform="translate(88.582677,88.582677)">
    <g id="document.bibb.Bibb Front &amp; Back.pattern" transform=" translate(104.120972, 1344.784345)">
      <g id="A.letter" transform="matrix(10.000000, 0, 0, 10.000000, -2835.000000, -11947.500000)">
        <text style="font-size:24; vertical-align:top; fill-opacity:1.0; fill:#000000; text-anchor:start; stroke:none; font-weight:normal; font-style:normal; text-align:right; " transform="" id="A.letter.letterline" y="1327.5" x="315.0">
A</text>
      </g>
      <line style="stroke-linejoin:miter; stroke:green; stroke-width:4; stroke-miterlimit:4; fill:none; " y2="2058.75" marker-end="url(#Arrow1Mend)" marker-start="url(#Arrow1Mstart)" transform="" x2="0.0" y1="1372.5" x1="0.0" id="A.grainline" />
      <path style="stroke-linejoin:miter; stroke-dashoffset:0; stroke:green; stroke-dasharray:24,6; stroke-miterlimit:4; stroke-width:4; fill:none; " transform="" d="M 0  0 C 276.384476601  0  315.0  -127.5  315.0  -191.25 C 315.0  -614.25  -22.6854860805  -534.035655369  45.0  -720.0 C 112.685486081  -905.964344631  810.0  -787.90168327  810.0  0 L 810.0  1830.0 C 810.0  2516.25  810.0  2745.0  0  2745.0 C 1620.0  0  1620.0  0  1620.0  0 L 1620.0  0 C 1620.0  0  225.370972161  0  90.0  0 C -45.370972161  0  630.0  0  630.0  0 C 630.0  0  552.768953203  0  0  0 " id="A.seamline" />
      <path style="fill:none;stroke:#008000;stroke-width:4;stroke-linejoin:miter;stroke-miterlimit:4" d="M 199.65625,-853.1875 C 143.8412,-852.23135 85.543511,-840.11754 40.6875,-805.09375 13.711909,-784.38776 -5.4166046,-754.33061 -13.579379,-721.38002 -24.66365,-683.61525 -22.426871,-640.89071 -1.90625,-606.5625 22.482843,-564.54351 65.357323,-538.94253 103.9483,-511.64127 145.74346,-482.98782 185.2831,-448.89851 210.875,-404.53125 248.86542,-339.654 258.84945,-262.84689 258.71875,-188.8125 258.39751,-157.31178 242.1347,-127.10125 217.15625,-108.15625 180.26302,-79.665215 133.47121,-68.213363 88.207601,-61.748407 58.875281,-57.727971 29.325264,-56.263563 -0.28125,-56.25 -37.895833,-37.40625 -75.510417,-18.5625 -113.125,0.28125 -75.416667,18.9375 -37.708333,37.59375 0,56.25 251.25,56.25 502.5,56.25 753.75,56.25 753.75,489.88542 753.75,923.52083 753.75,1357.1562 469.66884,1838.5221 185.56929,2319.8771 -98.5,2801.25 13.240593,2801.4438 125.18963,2802.0809 236.61886,2792.9997 340.64932,2784.4438 445.42531,2769.726 543.625,2732.9688 617.11839,2705.3974 686.26135,2662.3707 736.38706,2601.1935 790.13243,2536.7087 820.2326,2456.0081 837.03096,2374.6283 858.93838,2267.1582 862.69129,2157.1466 865.04682,2047.8135 867.14524,1908.8869 865.90635,1769.9369 866.25,1631 866.25,1549.9479 866.25,1468.8958 866.25,1387.8438 1150.3312,906.47788 1434.4307,425.12287 1718.5,-56.25 1434.0312,-56.25 1149.5625,-56.25 865.09375,-56.25 858.83632,-209.26318 824.50816,-363.28575 749.48349,-497.78855 682.24254,-619.21383 580.98416,-722.7491 457.375,-786.8125 378.06645,-827.85505 289.48003,-854.09611 199.65625,-853.1875 z" id="A.cuttingline" inkscape:connector-curvature="0" />
      <g id="A.info" transform="">
        <text style="font-size:12; vertical-align:top; fill-opacity:1.0; fill:#000000; text-anchor:start; stroke:none; font-weight:normal; font-style:normal; text-align:right; " transform="" id="A.info.lineSeamly Patterns" y="1372.5" x="315.0">
Seamly Patterns</text>
        <text style="font-size:12; vertical-align:top; fill-opacity:1.0; fill:#000000; text-anchor:start; stroke:none; font-weight:normal; font-style:normal; text-align:right; " transform="" id="A.info.line" y="1386.9" x="315.0" />
        <text style="font-size:12; vertical-align:top; fill-opacity:1.0; fill:#000000; text-anchor:start; stroke:none; font-weight:normal; font-style:normal; text-align:right; " transform="" id="A.info.lineAdult Bibb" y="1401.3" x="315.0">
Adult Bibb</text>
        <text style="font-size:12; vertical-align:top; fill-opacity:1.0; fill:#000000; text-anchor:start; stroke:none; font-weight:normal; font-style:normal; text-align:right; " transform="" id="A.info.linePattern Piece A" y="1415.7" x="315.0">
Pattern Piece A</text>
        <text style="font-size:12; vertical-align:top; fill-opacity:1.0; fill:#000000; text-anchor:start; stroke:none; font-weight:normal; font-style:normal; text-align:right; " transform="" id="A.info.lineCut 2 Fabric" y="1430.1" x="315.0">
Cut 2 Fabric</text>
        <text style="font-size:12; vertical-align:top; fill-opacity:1.0; fill:#000000; text-anchor:start; stroke:none; font-weight:normal; font-style:normal; text-align:right; " transform="" id="A.info.lineCut 1 Lining" y="1444.5" x="315.0">
Cut 1 Lining</text>
        <text style="font-size:12; vertical-align:top; fill-opacity:1.0; fill:#000000; text-anchor:start; stroke:none; font-weight:normal; font-style:normal; text-align:right; " transform="" id="A.info.line " y="1458.9" x="315.0" />
        <text style="font-size:12; vertical-align:top; fill-opacity:1.0; fill:#000000; text-anchor:start; stroke:none; font-weight:normal; font-style:normal; text-align:right; " transform="" id="A.info.lineDressFormLg" y="1473.3" x="315.0">
DressFormLg</text>
        <text style="font-size:12; vertical-align:top; fill-opacity:1.0; fill:#000000; text-anchor:start; stroke:none; font-weight:normal; font-style:normal; text-align:right; " transform="" id="A.info.line2015/1/11 12:5" y="1487.7" x="315.0">
2015/1/11 12:5</text>
      </g>
    </g>
  </g>
  <g inkscape:label="Label-notes" id="notes" inkscape:groupmode="layer" transform="translate(88.582677,88.582677)">
    <g id="document.titleblock">
      <text style="font-size:40; vertical-align:top; fill-opacity:1.0; fill:#000000; text-anchor:right; stroke:none; font-weight:normal; font-style:normal; text-align:right; " transform="" id="company" y="0.0" x="0.0">
Seamly Patterns</text>
      <text style="font-size:40; vertical-align:top; fill-opacity:1.0; fill:#000000; text-anchor:right; stroke:none; font-weight:normal; font-style:normal; text-align:right; " transform="" id="designer" y="44.0" x="0.0" />
      <text style="font-size:40; vertical-align:top; fill-opacity:1.0; fill:#000000; text-anchor:right; stroke:none; font-weight:normal; font-style:normal; text-align:right; " transform="" id="pattern_number" y="88.0" x="0.0" />
      <text style="font-size:40; vertical-align:top; fill-opacity:1.0; fill:#000000; text-anchor:right; stroke:none; font-weight:normal; font-style:normal; text-align:right; " transform="" id="pattern_name" y="132.0" x="0.0">
Adult Bibb</text>
      <text style="font-size:40; vertical-align:top; fill-opacity:1.0; fill:#000000; text-anchor:right; stroke:none; font-weight:normal; font-style:normal; text-align:right; " transform="" id="client" y="176.0" x="0.0">
DressFormLg</text>
      <text style="font-size:40; vertical-align:top; fill-opacity:1.0; fill:#000000; text-anchor:right; stroke:none; font-weight:normal; font-style:normal; text-align:right; " transform="" id="date" y="220.0" x="0.0">
2015/1/11 12:5</text>
    </g>
    <g id="document.testgrid">
      <path style="stroke-linejoin:miter; stroke:green; stroke-width:4; stroke-miterlimit:4; fill:none; " d="M 1080.0  0.0 L 1080.0  212.598425197 M 1115.43307087  0.0 L 1115.43307087  212.598425197 M 1150.86614173  0.0 L 1150.86614173  212.598425197 M 1186.2992126  0.0 L 1186.2992126  212.598425197 M 1221.73228346  0.0 L 1221.73228346  212.598425197 M 1257.16535433  0.0 L 1257.16535433  212.598425197 M 1292.5984252  0.0 L 1292.5984252  212.598425197 M 1080.0  0.0 L 1292.5984252  0.0 M 1080.0  35.4330708661 L 1292.5984252  35.4330708661 M 1080.0  70.8661417323 L 1292.5984252  70.8661417323 M 1080.0  106.299212598 L 1292.5984252  106.299212598 M 1080.0  141.732283465 L 1292.5984252  141.732283465 M 1080.0  177.165354331 L 1292.5984252  177.165354331 M 1080.0  212.598425197 L 1292.5984252  212.598425197 M 1469.76377953  0.0 L 1469.76377953  270.0 M 1559.76377953  0.0 L 1559.76377953  270.0 M 1649.76377953  0.0 L 1649.76377953  270.0 M 1739.76377953  0.0 L 1739.76377953  270.0 M 1469.76377953  0.0 L 1739.76377953  0.0 M 1469.76377953  90.0 L 1739.76377953  90.0 M 1469.76377953  180.0 L 1739.76377953  180.0 M 1469.76377953  270.0 L 1739.76377953  270.0 " id="testgrid" />
    </g>
    <g id="document.bibb.Bibb Front &amp; Back.notes" transform=" translate(104.120972, 1344.784345)" />
  </g>
  <g inkscape:label="Label-reference" id="reference" inkscape:groupmode="layer" transform="translate(88.582677,88.582677)">
    <g id="document.bibb.Bibb Front &amp; Back.reference" transform=" translate(104.120972, 1344.784345)">
      <circle style="stroke:gray; stroke-width:1; fill:none; " transform="" cy="0" cx="276.384476601" r="5" id="A.a.outpoint" d="M 281.38449,0 C 281.38449,2.7614237 279.14591,5 276.38449,5 273.62307,5 271.38449,2.7614237 271.38449,0 271.38449,-2.7614237 273.62307,-5 276.38449,-5 279.14591,-5 281.38449,-2.7614237 281.38449,0 z" />
      <text style="font-size:25; vertical-align:top; fill-opacity:1.0; fill:gray; text-anchor:right; stroke:none; font-weight:normal; font-style:italic; text-align:right; " transform="" id="A.a.outpoint.text" y="-7" x="283.384476601">
a.out</text>
      <circle style="stroke:gray; stroke-width:1; fill:none; " transform="" cy="0" cx="552.768953203" r="5" id="A.a.inpoint" d="M 557.76898,0 C 557.76898,2.7614237 555.53041,5 552.76898,5 550.00756,5 547.76898,2.7614237 547.76898,0 547.76898,-2.7614237 550.00756,-5 552.76898,-5 555.53041,-5 557.76898,-2.7614237 557.76898,0 z" />
      <text style="font-size:25; vertical-align:top; fill-opacity:1.0; fill:gray; text-anchor:right; stroke:none; font-weight:normal; font-style:italic; text-align:right; " transform="" id="A.a.inpoint.text" y="-7" x="559.768953203">
a.in</text>
      <circle style="stroke:red; stroke-width:1; fill:red; " transform="" cy="0" cx="0" r="5" id="A.a" d="M 5,0 C 5,2.7614237 2.7614237,5 0,5 -2.7614237,5 -5,2.7614237 -5,0 -5,-2.7614237 -2.7614237,-5 0,-5 2.7614237,-5 5,-2.7614237 5,0 z" />
      <text style="font-size:30; vertical-align:top; fill-opacity:1.0; fill:darkblue; text-anchor:right; stroke:none; font-weight:normal; font-style:italic; text-align:right; " transform="" id="A.a.text" y="-7" x="7">
a</text>
      <circle style="stroke:red; stroke-width:1; fill:red; " transform="" cy="-765.0" cx="0" r="5" id="A.b" d="M 5,-765 C 5,-762.23858 2.7614237,-760 0,-760 -2.7614237,-760 -5,-762.23858 -5,-765 -5,-767.76142 -2.7614237,-770 0,-770 2.7614237,-770 5,-767.76142 5,-765 z" />
      <text style="font-size:30; vertical-align:top; fill-opacity:1.0; fill:darkblue; text-anchor:right; stroke:none; font-weight:normal; font-style:italic; text-align:right; " transform="" id="A.b.text" y="-772.0" x="7">
b</text>
      <circle style="stroke:gray; stroke-width:1; fill:none; " transform="" cy="2745.0" cx="810.0" r="5" id="A.c.inpoint" d="M 815,2745 C 815,2747.7614 812.76142,2750 810,2750 807.23858,2750 805,2747.7614 805,2745 805,2742.2386 807.23858,2740 810,2740 812.76142,2740 815,2742.2386 815,2745 z" />
      <text style="font-size:25; vertical-align:top; fill-opacity:1.0; fill:gray; text-anchor:right; stroke:none; font-weight:normal; font-style:italic; text-align:right; " transform="" id="A.c.inpoint.text" y="2738.0" x="817.0">
c.in</text>
      <circle style="stroke:gray; stroke-width:1; fill:none; " transform="" cy="0" cx="1620.0" r="5" id="A.c.outpoint" d="M 1625,0 C 1625,2.7614237 1622.7614,5 1620,5 1617.2386,5 1615,2.7614237 1615,0 1615,-2.7614237 1617.2386,-5 1620,-5 1622.7614,-5 1625,-2.7614237 1625,0 z" />
      <text style="font-size:25; vertical-align:top; fill-opacity:1.0; fill:gray; text-anchor:right; stroke:none; font-weight:normal; font-style:italic; text-align:right; " transform="" id="A.c.outpoint.text" y="-7" x="1627.0">
c.out</text>
      <circle style="stroke:red; stroke-width:1; fill:red; " transform="" cy="2745.0" cx="0" r="5" id="A.c" d="M 5,2745 C 5,2747.7614 2.7614237,2750 0,2750 -2.7614237,2750 -5,2747.7614 -5,2745 -5,2742.2386 -2.7614237,2740 0,2740 2.7614237,2740 5,2742.2386 5,2745 z" />
      <text style="font-size:30; vertical-align:top; fill-opacity:1.0; fill:darkblue; text-anchor:right; stroke:none; font-weight:normal; font-style:italic; text-align:right; " transform="" id="A.c.text" y="2738.0" x="7">
c</text>
      <circle style="stroke:red; stroke-width:1; fill:red; " transform="" cy="-765.0" cx="810.0" r="5" id="A.d" d="M 815,-765 C 815,-762.23858 812.76142,-760 810,-760 807.23858,-760 805,-762.23858 805,-765 805,-767.76142 807.23858,-770 810,-770 812.76142,-770 815,-767.76142 815,-765 z" />
      <text style="font-size:30; vertical-align:top; fill-opacity:1.0; fill:darkblue; text-anchor:right; stroke:none; font-weight:normal; font-style:italic; text-align:right; " transform="" id="A.d.text" y="-772.0" x="817.0">
d</text>
      <circle style="stroke:red; stroke-width:1; fill:red; " transform="" cy="2745.0" cx="810.0" r="5" id="A.e" d="M 815,2745 C 815,2747.7614 812.76142,2750 810,2750 807.23858,2750 805,2747.7614 805,2745 805,2742.2386 807.23858,2740 810,2740 812.76142,2740 815,2742.2386 815,2745 z" />
      <text style="font-size:30; vertical-align:top; fill-opacity:1.0; fill:darkblue; text-anchor:right; stroke:none; font-weight:normal; font-style:italic; text-align:right; " transform="" id="A.e.text" y="2738.0" x="817.0">
e</text>
      <circle style="stroke:red; stroke-width:1; fill:red; " transform="" cy="-191.25" cx="0" r="5" id="A.f" d="M 5,-191.25 C 5,-188.48858 2.7614237,-186.25 0,-186.25 -2.7614237,-186.25 -5,-188.48858 -5,-191.25 -5,-194.01142 -2.7614237,-196.25 0,-196.25 2.7614237,-196.25 5,-194.01142 5,-191.25 z" />
      <text style="font-size:30; vertical-align:top; fill-opacity:1.0; fill:darkblue; text-anchor:right; stroke:none; font-weight:normal; font-style:italic; text-align:right; " transform="" id="A.f.text" y="-198.25" x="7">
f</text>
      <circle style="stroke:gray; stroke-width:1; fill:none; " transform="" cy="-127.5" cx="315.0" r="5" id="A.g.inpoint" d="M 320,-127.5 C 320,-124.73858 317.76142,-122.5 315,-122.5 312.23858,-122.5 310,-124.73858 310,-127.5 310,-130.26142 312.23858,-132.5 315,-132.5 317.76142,-132.5 320,-130.26142 320,-127.5 z" />
      <text style="font-size:25; vertical-align:top; fill-opacity:1.0; fill:gray; text-anchor:right; stroke:none; font-weight:normal; font-style:italic; text-align:right; " transform="" id="A.g.inpoint.text" y="-134.5" x="322.0">
g.in</text>
      <circle style="stroke:gray; stroke-width:1; fill:none; " transform="" cy="-614.25" cx="315.0" r="5" id="A.g.outpoint" d="M 320,-614.25 C 320,-611.48858 317.76142,-609.25 315,-609.25 312.23858,-609.25 310,-611.48858 310,-614.25 310,-617.01142 312.23858,-619.25 315,-619.25 317.76142,-619.25 320,-617.01142 320,-614.25 z" />
      <text style="font-size:25; vertical-align:top; fill-opacity:1.0; fill:gray; text-anchor:right; stroke:none; font-weight:normal; font-style:italic; text-align:right; " transform="" id="A.g.outpoint.text" y="-621.25" x="322.0">
g.out</text>
      <circle style="stroke:red; stroke-width:1; fill:red; " transform="" cy="-191.25" cx="315.0" r="5" id="A.g" d="M 320,-191.25 C 320,-188.48858 317.76142,-186.25 315,-186.25 312.23858,-186.25 310,-188.48858 310,-191.25 310,-194.01142 312.23858,-196.25 315,-196.25 317.76142,-196.25 320,-194.01142 320,-191.25 z" />
      <text style="font-size:30; vertical-align:top; fill-opacity:1.0; fill:darkblue; text-anchor:right; stroke:none; font-weight:normal; font-style:italic; text-align:right; " transform="" id="A.g.text" y="-198.25" x="322.0">
g</text>
      <circle style="stroke:gray; stroke-width:1; fill:none; " transform="" cy="-787.90168327" cx="810.0" r="5" id="A.h.inpoint" d="M 815,-787.90167 C 815,-785.14025 812.76142,-782.90167 810,-782.90167 807.23858,-782.90167 805,-785.14025 805,-787.90167 805,-790.6631 807.23858,-792.90167 810,-792.90167 812.76142,-792.90167 815,-790.6631 815,-787.90167 z" />
      <text style="font-size:25; vertical-align:top; fill-opacity:1.0; fill:gray; text-anchor:right; stroke:none; font-weight:normal; font-style:italic; text-align:right; " transform="" id="A.h.inpoint.text" y="-794.90168327" x="817.0">
h.in</text>
      <circle style="stroke:red; stroke-width:1; fill:red; " transform="" cy="0" cx="810.0" r="5" id="A.h" d="M 815,0 C 815,2.7614237 812.76142,5 810,5 807.23858,5 805,2.7614237 805,0 805,-2.7614237 807.23858,-5 810,-5 812.76142,-5 815,-2.7614237 815,0 z" />
      <text style="font-size:30; vertical-align:top; fill-opacity:1.0; fill:darkblue; text-anchor:right; stroke:none; font-weight:normal; font-style:italic; text-align:right; " transform="" id="A.h.text" y="-7" x="817.0">
h</text>
      <circle style="stroke:red; stroke-width:1; fill:red; " transform="" cy="-720.0" cx="0" r="5" id="A.i" d="M 5,-720 C 5,-717.23858 2.7614237,-715 0,-715 -2.7614237,-715 -5,-717.23858 -5,-720 -5,-722.76142 -2.7614237,-725 0,-725 2.7614237,-725 5,-722.76142 5,-720 z" />
      <text style="font-size:30; vertical-align:top; fill-opacity:1.0; fill:darkblue; text-anchor:right; stroke:none; font-weight:normal; font-style:italic; text-align:right; " transform="" id="A.i.text" y="-727.0" x="7">
i</text>
      <circle style="stroke:gray; stroke-width:1; fill:none; " transform="" cy="-534.035655369" cx="-22.6854860805" r="5" id="A.j.inpoint" d="M -17.685486,-534.03564 C -17.685486,-531.27422 -19.924062,-529.03564 -22.685486,-529.03564 -25.44691,-529.03564 -27.685486,-531.27422 -27.685486,-534.03564 -27.685486,-536.79707 -25.44691,-539.03564 -22.685486,-539.03564 -19.924062,-539.03564 -17.685486,-536.79707 -17.685486,-534.03564 z" />
      <text style="font-size:25; vertical-align:top; fill-opacity:1.0; fill:gray; text-anchor:right; stroke:none; font-weight:normal; font-style:italic; text-align:right; " transform="" id="A.j.inpoint.text" y="-541.035655369" x="-15.6854860805">
j.in</text>
      <circle style="stroke:gray; stroke-width:1; fill:none; " transform="" cy="-905.964344631" cx="112.685486081" r="5" id="A.j.outpoint" d="M 117.68549,-905.96436 C 117.68549,-903.20293 115.44691,-900.96436 112.68549,-900.96436 109.92406,-900.96436 107.68549,-903.20293 107.68549,-905.96436 107.68549,-908.72578 109.92406,-910.96436 112.68549,-910.96436 115.44691,-910.96436 117.68549,-908.72578 117.68549,-905.96436 z" />
      <text style="font-size:25; vertical-align:top; fill-opacity:1.0; fill:gray; text-anchor:right; stroke:none; font-weight:normal; font-style:italic; text-align:right; " transform="" id="A.j.outpoint.text" y="-912.964344631" x="119.685486081">
j.out</text>
      <circle style="stroke:red; stroke-width:1; fill:red; " transform="" cy="-720.0" cx="45.0" r="5" id="A.j" d="M 50,-720 C 50,-717.23858 47.761424,-715 45,-715 42.238576,-715 40,-717.23858 40,-720 40,-722.76142 42.238576,-725 45,-725 47.761424,-725 50,-722.76142 50,-720 z" />
      <text style="font-size:30; vertical-align:top; fill-opacity:1.0; fill:darkblue; text-anchor:right; stroke:none; font-weight:normal; font-style:italic; text-align:right; " transform="" id="A.j.text" y="-727.0" x="52.0">
j</text>
      <circle style="stroke:gray; stroke-width:1; fill:none; " transform="" cy="2516.25" cx="810.0" r="5" id="A.k.outpoint" d="M 815,2516.25 C 815,2519.0114 812.76142,2521.25 810,2521.25 807.23858,2521.25 805,2519.0114 805,2516.25 805,2513.4886 807.23858,2511.25 810,2511.25 812.76142,2511.25 815,2513.4886 815,2516.25 z" />
      <text style="font-size:25; vertical-align:top; fill-opacity:1.0; fill:gray; text-anchor:right; stroke:none; font-weight:normal; font-style:italic; text-align:right; " transform="" id="A.k.outpoint.text" y="2509.25" x="817.0">
k.out</text>
      <circle style="stroke:red; stroke-width:1; fill:red; " transform="" cy="1830.0" cx="810.0" r="5" id="A.k" d="M 815,1830 C 815,1832.7614 812.76142,1835 810,1835 807.23858,1835 805,1832.7614 805,1830 805,1827.2386 807.23858,1825 810,1825 812.76142,1825 815,1827.2386 815,1830 z" />
      <text style="font-size:30; vertical-align:top; fill-opacity:1.0; fill:darkblue; text-anchor:right; stroke:none; font-weight:normal; font-style:italic; text-align:right; " transform="" id="A.k.text" y="1823.0" x="817.0">
k</text>
      <circle style="stroke:gray; stroke-width:1; fill:none; " transform="" cy="0" cx="1620.0" r="5" id="A.l.inpoint" d="M 1625,0 C 1625,2.7614237 1622.7614,5 1620,5 1617.2386,5 1615,2.7614237 1615,0 1615,-2.7614237 1617.2386,-5 1620,-5 1622.7614,-5 1625,-2.7614237 1625,0 z" />
      <text style="font-size:25; vertical-align:top; fill-opacity:1.0; fill:gray; text-anchor:right; stroke:none; font-weight:normal; font-style:italic; text-align:right; " transform="" id="A.l.inpoint.text" y="-7" x="1627.0">
l.in</text>
      <circle style="stroke:red; stroke-width:1; fill:red; " transform="" cy="0" cx="1620.0" r="5" id="A.l" d="M 1625,0 C 1625,2.7614237 1622.7614,5 1620,5 1617.2386,5 1615,2.7614237 1615,0 1615,-2.7614237 1617.2386,-5 1620,-5 1622.7614,-5 1625,-2.7614237 1625,0 z" />
      <text style="font-size:30; vertical-align:top; fill-opacity:1.0; fill:darkblue; text-anchor:right; stroke:none; font-weight:normal; font-style:italic; text-align:right; " transform="" id="A.l.text" y="-7" x="1627.0">
l</text>
      <circle style="stroke:gray; stroke-width:1; fill:none; " transform="" cy="0" cx="1620.0" r="5" id="A.m.outpoint" d="M 1625,0 C 1625,2.7614237 1622.7614,5 1620,5 1617.2386,5 1615,2.7614237 1615,0 1615,-2.7614237 1617.2386,-5 1620,-5 1622.7614,-5 1625,-2.7614237 1625,0 z" />
      <text style="font-size:25; vertical-align:top; fill-opacity:1.0; fill:gray; text-anchor:right; stroke:none; font-weight:normal; font-style:italic; text-align:right; " transform="" id="A.m.outpoint.text" y="-7" x="1627.0">
m.out</text>
      <circle style="stroke:red; stroke-width:1; fill:red; " transform="" cy="0" cx="1620.0" r="5" id="A.m" d="M 1625,0 C 1625,2.7614237 1622.7614,5 1620,5 1617.2386,5 1615,2.7614237 1615,0 1615,-2.7614237 1617.2386,-5 1620,-5 1622.7614,-5 1625,-2.7614237 1625,0 z" />
      <text style="font-size:30; vertical-align:top; fill-opacity:1.0; fill:darkblue; text-anchor:right; stroke:none; font-weight:normal; font-style:italic; text-align:right; " transform="" id="A.m.text" y="-7" x="1627.0">
m</text>
      <circle style="stroke:gray; stroke-width:1; fill:none; " transform="" cy="0" cx="225.370972161" r="5" id="A.n.inpoint" d="M 230.37097,0 C 230.37097,2.7614237 228.1324,5 225.37097,5 222.60955,5 220.37097,2.7614237 220.37097,0 220.37097,-2.7614237 222.60955,-5 225.37097,-5 228.1324,-5 230.37097,-2.7614237 230.37097,0 z" />
      <text style="font-size:25; vertical-align:top; fill-opacity:1.0; fill:gray; text-anchor:right; stroke:none; font-weight:normal; font-style:italic; text-align:right; " transform="" id="A.n.inpoint.text" y="-7" x="232.370972161">
n.in</text>
      <circle style="stroke:gray; stroke-width:1; fill:none; " transform="" cy="0" cx="-45.370972161" r="5" id="A.n.outpoint" d="M -40.370972,0 C -40.370972,2.7614237 -42.609548,5 -45.370972,5 -48.132395,5 -50.370972,2.7614237 -50.370972,0 -50.370972,-2.7614237 -48.132395,-5 -45.370972,-5 -42.609548,-5 -40.370972,-2.7614237 -40.370972,0 z" />
      <text style="font-size:25; vertical-align:top; fill-opacity:1.0; fill:gray; text-anchor:right; stroke:none; font-weight:normal; font-style:italic; text-align:right; " transform="" id="A.n.outpoint.text" y="-7" x="-38.370972161">
n.out</text>
      <circle style="stroke:red; stroke-width:1; fill:red; " transform="" cy="0" cx="90.0" r="5" id="A.n" d="M 95,0 C 95,2.7614237 92.761424,5 90,5 87.238576,5 85,2.7614237 85,0 85,-2.7614237 87.238576,-5 90,-5 92.761424,-5 95,-2.7614237 95,0 z" />
      <text style="font-size:30; vertical-align:top; fill-opacity:1.0; fill:darkblue; text-anchor:right; stroke:none; font-weight:normal; font-style:italic; text-align:right; " transform="" id="A.n.text" y="-7" x="97.0">
n</text>
      <circle style="stroke:gray; stroke-width:1; fill:none; " transform="" cy="0" cx="630.0" r="5" id="A.o.inpoint" d="M 635,0 C 635,2.7614237 632.76142,5 630,5 627.23858,5 625,2.7614237 625,0 625,-2.7614237 627.23858,-5 630,-5 632.76142,-5 635,-2.7614237 635,0 z" />
      <text style="font-size:25; vertical-align:top; fill-opacity:1.0; fill:gray; text-anchor:right; stroke:none; font-weight:normal; font-style:italic; text-align:right; " transform="" id="A.o.inpoint.text" y="-7" x="637.0">
o.in</text>
      <circle style="stroke:gray; stroke-width:1; fill:none; " transform="" cy="0" cx="630.0" r="5" id="A.o.outpoint" d="M 635,0 C 635,2.7614237 632.76142,5 630,5 627.23858,5 625,2.7614237 625,0 625,-2.7614237 627.23858,-5 630,-5 632.76142,-5 635,-2.7614237 635,0 z" />
      <text style="font-size:25; vertical-align:top; fill-opacity:1.0; fill:gray; text-anchor:right; stroke:none; font-weight:normal; font-style:italic; text-align:right; " transform="" id="A.o.outpoint.text" y="-7" x="637.0">
o.out</text>
      <circle style="stroke:red; stroke-width:1; fill:red; " transform="" cy="0" cx="630.0" r="5" id="A.o" d="M 635,0 C 635,2.7614237 632.76142,5 630,5 627.23858,5 625,2.7614237 625,0 625,-2.7614237 627.23858,-5 630,-5 632.76142,-5 635,-2.7614237 635,0 z" />
      <text style="font-size:30; vertical-align:top; fill-opacity:1.0; fill:darkblue; text-anchor:right; stroke:none; font-weight:normal; font-style:italic; text-align:right; " transform="" id="A.o.text" y="-7" x="637.0">
o</text>
      <path style="stroke-linejoin:miter; stroke-dashoffset:0; stroke:gray; stroke-miterlimit:4; stroke-dasharray:6,6; stroke-width:2; fill:none; " transform="" d="M 0  0 L 315.0  -191.25 L 45.0  -720.0 L 810.0  0 L 810.0  2745.0 L 0  2745.0 L 1620.0  0 L 1620.0  0 L 90.0  0 L 630.0  0 L 0  0 " id="A.gridline" />
    </g>
  </g>
</svg>
