<?xml version="1.0" encoding="UTF-8" standalone="no"?>
<svg xmlns:dc="http://purl.org/dc/elements/1.1/" xmlns:cc="http://creativecommons.org/ns#" xmlns:rdf="http://www.w3.org/1999/02/22-rdf-syntax-ns#" xmlns:svg="http://www.w3.org/2000/svg" xmlns="http://www.w3.org/2000/svg" xmlns:sodipodi="http://sodipodi.sourceforge.net/DTD/sodipodi-0.dtd" xmlns:inkscape="http://www.inkscape.org/namespaces/inkscape" patternNumber="MR_B1" fitBoxtoViewport="True" companyName="Next Patterns" currentscale="0.5:1" margin-right="88.5826771654" client-name="DressFormLg" designerName="S.L.Spencer" height="4272.23535433" width="1102.16535433" margin-top="88.5826771654" version="1.1" margin-bottom="88.5826771654" margin-left="88.5826771654" preserveAspectRatio="xMidYMid meet" id="svg2" inkscape:version="0.48.4 r9939" sodipodi:docname="DressFormLg-adult_bibb-2015-01-06-0148.svg">
  <metadata id="metadata64">
    <rdf:RDF>
      <cc:Work rdf:about="">
        <dc:format>image/svg+xml</dc:format>
        <dc:type rdf:resource="http://purl.org/dc/dcmitype/StillImage" />
      </cc:Work>
    </rdf:RDF>
  </metadata>
  <sodipodi:namedview id="base" pagecolor="#ffffff" bordercolor="#666666" borderopacity="1.0" inkscape:pageopacity="0.0" inkscape:pageshadow="2" inkscape:zoom="0.20738558" inkscape:document-units="pt" showgrid="false" inkscape:window-maximized="1" inkscape:cx="551.0827" inkscape:cy="2136.1177" inkscape:window-width="1855" inkscape:window-height="1056" inkscape:window-x="65" inkscape:window-y="24" inkscape:current-layer="pattern" />
  <defs id="defs5">
    <marker style="overflow:visible" id="Arrow1Mstart" refX="0.0" refY="0.0" orient="auto" inkscape:stockid="Arrow1Mstart">
      <path transform="scale(0.4) translate(10,0)" style="fill-rule:evenodd;stroke:#000000;stroke-width:1.0pt;marker-start:none" d="M 0.0,0.0 L 5.0,-5.0 L -12.5,0.0 L 5.0,5.0 L 0.0,0.0 z " id="path8" />
    </marker>
    <marker style="overflow:visible;" id="Arrow1Mend" refX="0.0" refY="0.0" orient="auto" inkscape:stockid="Arrow1Mend">
      <path transform="scale(0.4) rotate(180) translate(10,0)" style="fill-rule:evenodd;stroke:#000000;stroke-width:1.0pt;marker-start:none;" d="M 0.0,0.0 L 5.0,-5.0 L -12.5,0.0 L 5.0,5.0 L 0.0,0.0 z " id="path11" />
    </marker>
  </defs>
  <g inkscape:label="Label-pattern" id="pattern" inkscape:groupmode="layer" transform="translate(88.582677,88.582677)">
    <g id="document.bibb.Bibb Front &amp; Back.pattern" transform=" translate(58.750000, 1203.820000)">
      <g id="A.letter" transform="matrix(10.000000, 0, 0, 10.000000, 0.000000, -12352.500000)">
        <text style="font-size:24; vertical-align:top; fill-opacity:1.0; fill:#000000; text-anchor:start; stroke:none; font-weight:normal; font-style:normal; text-align:right; " transform="" id="A.letter.letterline" y="1372.5" x="0.0">
A</text>
      </g>
      <line style="stroke-linejoin:miter; stroke:green; stroke-width:4; stroke-miterlimit:4; fill:none; " y2="2480.625" marker-end="url(#Arrow1Mend)" marker-start="url(#Arrow1Mstart)" transform="" x2="0.0" y1="2126.25" x1="0.0" id="A.grainline" />
      <path style="stroke-linejoin:miter; stroke-dashoffset:0; stroke:green; stroke-dasharray:24,6; stroke-miterlimit:4; stroke-width:4; fill:none; " transform="" d="M 0  0 L 45.0  -630.0 L 315.0  -255.0 L 810.0  0 L 810.0  2835.0 L 0  2835.0 L 0  0 " id="A.seamline" />
      <path style="fill:none;stroke:#008000;stroke-width:4;stroke-linejoin:miter;stroke-miterlimit:4" d="M -11.09375,-634 C -26.102708,-422.6653 -41.456352,-211.34151 -56.25,0 -56.25,963.75 -56.25,1927.5 -56.25,2891.25 251.25,2891.25 558.75,2891.25 866.25,2891.25 866.25,1916.0625 866.25,940.875 866.25,-34.3125 695.07517,-122.43265 523.94038,-210.63059 352.78125,-298.78125 235.16809,-462.13644 117.57886,-625.50887 -0.0625,-788.84375 -3.7395833,-737.22917 -7.4166667,-685.61458 -11.09375,-634 z" id="A.cuttingline" inkscape:connector-curvature="0" />
      <g id="A.info" transform="">
        <text style="font-size:12; vertical-align:top; fill-opacity:1.0; fill:#000000; text-anchor:start; stroke:none; font-weight:normal; font-style:normal; text-align:right; " transform="" id="A.info.lineNext Patterns" y="1417.5" x="0.0">
Next Patterns</text>
        <text style="font-size:12; vertical-align:top; fill-opacity:1.0; fill:#000000; text-anchor:start; stroke:none; font-weight:normal; font-style:normal; text-align:right; " transform="" id="A.info.lineMR_B1" y="1431.9" x="0.0">
MR_B1</text>
        <text style="font-size:12; vertical-align:top; fill-opacity:1.0; fill:#000000; text-anchor:start; stroke:none; font-weight:normal; font-style:normal; text-align:right; " transform="" id="A.info.lineSpencer Bibb Short" y="1446.3" x="0.0">
Spencer Bibb Short</text>
        <text style="font-size:12; vertical-align:top; fill-opacity:1.0; fill:#000000; text-anchor:start; stroke:none; font-weight:normal; font-style:normal; text-align:right; " transform="" id="A.info.linePattern Piece A" y="1460.7" x="0.0">
Pattern Piece A</text>
        <text style="font-size:12; vertical-align:top; fill-opacity:1.0; fill:#000000; text-anchor:start; stroke:none; font-weight:normal; font-style:normal; text-align:right; " transform="" id="A.info.lineCut 2 Fabric" y="1475.1" x="0.0">
Cut 2 Fabric</text>
        <text style="font-size:12; vertical-align:top; fill-opacity:1.0; fill:#000000; text-anchor:start; stroke:none; font-weight:normal; font-style:normal; text-align:right; " transform="" id="A.info.lineCut 1 Lining" y="1489.5" x="0.0">
Cut 1 Lining</text>
        <text style="font-size:12; vertical-align:top; fill-opacity:1.0; fill:#000000; text-anchor:start; stroke:none; font-weight:normal; font-style:normal; text-align:right; " transform="" id="A.info.line " y="1503.9" x="0.0" />
        <text style="font-size:12; vertical-align:top; fill-opacity:1.0; fill:#000000; text-anchor:start; stroke:none; font-weight:normal; font-style:normal; text-align:right; " transform="" id="A.info.lineDressFormLg" y="1518.3" x="0.0">
DressFormLg</text>
        <text style="font-size:12; vertical-align:top; fill-opacity:1.0; fill:#000000; text-anchor:start; stroke:none; font-weight:normal; font-style:normal; text-align:right; " transform="" id="A.info.line2015/1/6 1:48" y="1532.7" x="0.0">
2015/1/6 1:48</text>
      </g>
    </g>
  </g>
  <g inkscape:label="Label-notes" id="notes" inkscape:groupmode="layer" transform="translate(88.582677,88.582677)">
    <g id="document.titleblock">
      <text style="font-size:40; vertical-align:top; fill-opacity:1.0; fill:#000000; text-anchor:right; stroke:none; font-weight:normal; font-style:normal; text-align:right; " transform="" id="company" y="0.0" x="0.0">
Next Patterns</text>
      <text style="font-size:40; vertical-align:top; fill-opacity:1.0; fill:#000000; text-anchor:right; stroke:none; font-weight:normal; font-style:normal; text-align:right; " transform="" id="designer" y="44.0" x="0.0">
S.L.Spencer</text>
      <text style="font-size:40; vertical-align:top; fill-opacity:1.0; fill:#000000; text-anchor:right; stroke:none; font-weight:normal; font-style:normal; text-align:right; " transform="" id="pattern_number" y="88.0" x="0.0">
MR_B1</text>
      <text style="font-size:40; vertical-align:top; fill-opacity:1.0; fill:#000000; text-anchor:right; stroke:none; font-weight:normal; font-style:normal; text-align:right; " transform="" id="pattern_name" y="132.0" x="0.0">
Spencer Bibb Short</text>
      <text style="font-size:40; vertical-align:top; fill-opacity:1.0; fill:#000000; text-anchor:right; stroke:none; font-weight:normal; font-style:normal; text-align:right; " transform="" id="client" y="176.0" x="0.0">
DressFormLg</text>
      <text style="font-size:40; vertical-align:top; fill-opacity:1.0; fill:#000000; text-anchor:right; stroke:none; font-weight:normal; font-style:normal; text-align:right; " transform="" id="date" y="220.0" x="0.0">
2015/1/6 1:48</text>
    </g>
    <g id="document.testgrid">
      <path style="stroke-linejoin:miter; stroke:green; stroke-width:4; stroke-miterlimit:4; fill:none; " d="M 1080.0  0.0 L 1080.0  212.598425197 M 1115.43307087  0.0 L 1115.43307087  212.598425197 M 1150.86614173  0.0 L 1150.86614173  212.598425197 M 1186.2992126  0.0 L 1186.2992126  212.598425197 M 1221.73228346  0.0 L 1221.73228346  212.598425197 M 1257.16535433  0.0 L 1257.16535433  212.598425197 M 1292.5984252  0.0 L 1292.5984252  212.598425197 M 1080.0  0.0 L 1292.5984252  0.0 M 1080.0  35.4330708661 L 1292.5984252  35.4330708661 M 1080.0  70.8661417323 L 1292.5984252  70.8661417323 M 1080.0  106.299212598 L 1292.5984252  106.299212598 M 1080.0  141.732283465 L 1292.5984252  141.732283465 M 1080.0  177.165354331 L 1292.5984252  177.165354331 M 1080.0  212.598425197 L 1292.5984252  212.598425197 M 1469.76377953  0.0 L 1469.76377953  270.0 M 1559.76377953  0.0 L 1559.76377953  270.0 M 1649.76377953  0.0 L 1649.76377953  270.0 M 1739.76377953  0.0 L 1739.76377953  270.0 M 1469.76377953  0.0 L 1739.76377953  0.0 M 1469.76377953  90.0 L 1739.76377953  90.0 M 1469.76377953  180.0 L 1739.76377953  180.0 M 1469.76377953  270.0 L 1739.76377953  270.0 " id="testgrid" />
    </g>
    <g id="document.bibb.Bibb Front &amp; Back.notes" transform=" translate(58.750000, 1203.820000)" />
  </g>
  <g inkscape:label="Label-reference" id="reference" inkscape:groupmode="layer" transform="translate(88.582677,88.582677)">
    <g id="document.bibb.Bibb Front &amp; Back.reference" transform=" translate(58.750000, 1203.820000)">
      <circle style="stroke:red; stroke-width:1; fill:red; " transform="" cy="0" cx="0" r="5" id="A.a" d="M 5,0 C 5,2.7614237 2.7614237,5 0,5 -2.7614237,5 -5,2.7614237 -5,0 -5,-2.7614237 -2.7614237,-5 0,-5 2.7614237,-5 5,-2.7614237 5,0 z" />
      <text style="font-size:30; vertical-align:top; fill-opacity:1.0; fill:darkblue; text-anchor:right; stroke:none; font-weight:normal; font-style:italic; text-align:right; " transform="" id="A.a.text" y="-7" x="7">
a</text>
      <circle style="stroke:red; stroke-width:1; fill:red; " transform="" cy="-765.0" cx="0" r="5" id="A.b" d="M 5,-765 C 5,-762.23858 2.7614237,-760 0,-760 -2.7614237,-760 -5,-762.23858 -5,-765 -5,-767.76142 -2.7614237,-770 0,-770 2.7614237,-770 5,-767.76142 5,-765 z" />
      <text style="font-size:30; vertical-align:top; fill-opacity:1.0; fill:darkblue; text-anchor:right; stroke:none; font-weight:normal; font-style:italic; text-align:right; " transform="" id="A.b.text" y="-772.0" x="7">
b</text>
      <circle style="stroke:red; stroke-width:1; fill:red; " transform="" cy="2835.0" cx="0" r="5" id="A.c" d="M 5,2835 C 5,2837.7614 2.7614237,2840 0,2840 -2.7614237,2840 -5,2837.7614 -5,2835 -5,2832.2386 -2.7614237,2830 0,2830 2.7614237,2830 5,2832.2386 5,2835 z" />
      <text style="font-size:30; vertical-align:top; fill-opacity:1.0; fill:darkblue; text-anchor:right; stroke:none; font-weight:normal; font-style:italic; text-align:right; " transform="" id="A.c.text" y="2828.0" x="7">
c</text>
      <circle style="stroke:red; stroke-width:1; fill:red; " transform="" cy="-765.0" cx="810.0" r="5" id="A.d" d="M 815,-765 C 815,-762.23858 812.76142,-760 810,-760 807.23858,-760 805,-762.23858 805,-765 805,-767.76142 807.23858,-770 810,-770 812.76142,-770 815,-767.76142 815,-765 z" />
      <text style="font-size:30; vertical-align:top; fill-opacity:1.0; fill:darkblue; text-anchor:right; stroke:none; font-weight:normal; font-style:italic; text-align:right; " transform="" id="A.d.text" y="-772.0" x="817.0">
d</text>
      <circle style="stroke:red; stroke-width:1; fill:red; " transform="" cy="2835.0" cx="810.0" r="5" id="A.e" d="M 815,2835 C 815,2837.7614 812.76142,2840 810,2840 807.23858,2840 805,2837.7614 805,2835 805,2832.2386 807.23858,2830 810,2830 812.76142,2830 815,2832.2386 815,2835 z" />
      <text style="font-size:30; vertical-align:top; fill-opacity:1.0; fill:darkblue; text-anchor:right; stroke:none; font-weight:normal; font-style:italic; text-align:right; " transform="" id="A.e.text" y="2828.0" x="817.0">
e</text>
      <circle style="stroke:red; stroke-width:1; fill:red; " transform="" cy="-255.0" cx="0" r="5" id="A.f" d="M 5,-255 C 5,-252.23858 2.7614237,-250 0,-250 -2.7614237,-250 -5,-252.23858 -5,-255 -5,-257.76142 -2.7614237,-260 0,-260 2.7614237,-260 5,-257.76142 5,-255 z" />
      <text style="font-size:30; vertical-align:top; fill-opacity:1.0; fill:darkblue; text-anchor:right; stroke:none; font-weight:normal; font-style:italic; text-align:right; " transform="" id="A.f.text" y="-262.0" x="7">
f</text>
      <circle style="stroke:red; stroke-width:1; fill:red; " transform="" cy="-255.0" cx="315.0" r="5" id="A.g" d="M 320,-255 C 320,-252.23858 317.76142,-250 315,-250 312.23858,-250 310,-252.23858 310,-255 310,-257.76142 312.23858,-260 315,-260 317.76142,-260 320,-257.76142 320,-255 z" />
      <text style="font-size:30; vertical-align:top; fill-opacity:1.0; fill:darkblue; text-anchor:right; stroke:none; font-weight:normal; font-style:italic; text-align:right; " transform="" id="A.g.text" y="-262.0" x="322.0">
g</text>
      <circle style="stroke:red; stroke-width:1; fill:red; " transform="" cy="0" cx="810.0" r="5" id="A.h" d="M 815,0 C 815,2.7614237 812.76142,5 810,5 807.23858,5 805,2.7614237 805,0 805,-2.7614237 807.23858,-5 810,-5 812.76142,-5 815,-2.7614237 815,0 z" />
      <text style="font-size:30; vertical-align:top; fill-opacity:1.0; fill:darkblue; text-anchor:right; stroke:none; font-weight:normal; font-style:italic; text-align:right; " transform="" id="A.h.text" y="-7" x="817.0">
h</text>
      <circle style="stroke:red; stroke-width:1; fill:red; " transform="" cy="-630.0" cx="0" r="5" id="A.i" d="M 5,-630 C 5,-627.23858 2.7614237,-625 0,-625 -2.7614237,-625 -5,-627.23858 -5,-630 -5,-632.76142 -2.7614237,-635 0,-635 2.7614237,-635 5,-632.76142 5,-630 z" />
      <text style="font-size:30; vertical-align:top; fill-opacity:1.0; fill:darkblue; text-anchor:right; stroke:none; font-weight:normal; font-style:italic; text-align:right; " transform="" id="A.i.text" y="-637.0" x="7">
i</text>
      <circle style="stroke:red; stroke-width:1; fill:red; " transform="" cy="-630.0" cx="45.0" r="5" id="A.j" d="M 50,-630 C 50,-627.23858 47.761424,-625 45,-625 42.238576,-625 40,-627.23858 40,-630 40,-632.76142 42.238576,-635 45,-635 47.761424,-635 50,-632.76142 50,-630 z" />
      <text style="font-size:30; vertical-align:top; fill-opacity:1.0; fill:darkblue; text-anchor:right; stroke:none; font-weight:normal; font-style:italic; text-align:right; " transform="" id="A.j.text" y="-637.0" x="52.0">
j</text>
      <path style="stroke-linejoin:miter; stroke-dashoffset:0; stroke:gray; stroke-miterlimit:4; stroke-dasharray:6,6; stroke-width:2; fill:none; " transform="" d="M 0  0 L 45.0  -630.0 L 315.0  -255.0 L 810.0  0 L 810.0  2835.0 L 0  2835.0 L 0  0 " id="A.gridline" />
    </g>
  </g>
</svg>
