<?xml version="1.0" encoding="UTF-8" standalone="no"?>
<svg xmlns:dc="http://purl.org/dc/elements/1.1/" xmlns:cc="http://creativecommons.org/ns#" xmlns:rdf="http://www.w3.org/1999/02/22-rdf-syntax-ns#" xmlns:svg="http://www.w3.org/2000/svg" xmlns="http://www.w3.org/2000/svg" xmlns:sodipodi="http://sodipodi.sourceforge.net/DTD/sodipodi-0.dtd" xmlns:inkscape="http://www.inkscape.org/namespaces/inkscape" patternNumber="Coat_W_Topper_MRohr_p7" fitBoxtoViewport="True" companyName="Seamly Patterns" currentscale="0.5:1" margin-right="88.5826771654" client-name="DressFormLg" designerName="S.L.Spencer" height="7947.7114" width="3182.229" margin-top="88.5826771654" version="1.1" margin-bottom="88.5826771654" margin-left="88.5826771654" preserveAspectRatio="xMidYMid meet" id="svg2" inkscape:version="0.48.4 r9939" sodipodi:docname="mrohr_topper_coat_p7_140601_1722.svg">
  <metadata id="metadata529">
    <rdf:RDF>
      <cc:Work rdf:about="">
        <dc:format>image/svg+xml</dc:format>
        <dc:type rdf:resource="http://purl.org/dc/dcmitype/StillImage" />
        <dc:title></dc:title>
      </cc:Work>
    </rdf:RDF>
  </metadata>
  <sodipodi:namedview id="base" pagecolor="#ffffff" bordercolor="#666666" borderopacity="1.0" inkscape:pageopacity="0.0" inkscape:pageshadow="2" inkscape:zoom="0.091852103" inkscape:document-units="pt" showgrid="false" inkscape:window-maximized="1" inkscape:cx="1947.8277" inkscape:cy="3494.5713" inkscape:window-width="1855" inkscape:window-height="1056" inkscape:window-x="65" inkscape:window-y="24" inkscape:current-layer="pattern" units="in" fit-margin-top="1" fit-margin-left="1" fit-margin-bottom="1" fit-margin-right="1" />
  <defs id="defs5">
    <inkscape:perspective sodipodi:type="inkscape:persp3d" inkscape:vp_x="0 : 4334.8345 : 1" inkscape:vp_y="0 : 1000 : 0" inkscape:vp_z="3928.8877 : 4334.8345 : 1" inkscape:persp3d-origin="1964.4438 : 2889.8896 : 1" id="perspective3543" />
    <marker style="overflow:visible" id="Arrow1Mstart" refX="0" refY="0" orient="auto" inkscape:stockid="Arrow1Mstart">
      <path transform="matrix(0.4,0,0,0.4,4,0)" style="fill-rule:evenodd;stroke:#000000;stroke-width:1pt;marker-start:none" d="M 0,0 5,-5 -12.5,0 5,5 0,0 z" id="path8" inkscape:connector-curvature="0" />
    </marker>
    <marker style="overflow:visible" id="Arrow1Mend" refX="0" refY="0" orient="auto" inkscape:stockid="Arrow1Mend">
      <path transform="matrix(-0.4,0,0,-0.4,-4,0)" style="fill-rule:evenodd;stroke:#000000;stroke-width:1pt;marker-start:none" d="M 0,0 5,-5 -12.5,0 5,5 0,0 z" id="path11" inkscape:connector-curvature="0" />
    </marker>
  </defs>
  <g inkscape:label="Label-pattern" id="pattern" inkscape:groupmode="layer" transform="translate(111.3841,-281.21905)">
    <g id="document.coat.Lower Front.pattern" transform="translate(1502.2037,1156.3753)">
      <g id="A.letter" transform="matrix(10,0,0,10,5110.2665,-14738.641)">
        <text style="font-size:24px;font-style:normal;font-weight:normal;text-align:right;text-anchor:start;fill:#000000;fill-opacity:1;stroke:none" id="A.letter.letterline" y="1637.6268" x="-567.80737">A</text>
      </g>
      <line style="fill:none;stroke:#008000;stroke-width:4;stroke-linejoin:miter;stroke-miterlimit:4;marker-start:url(#Arrow1Mstart);marker-end:url(#Arrow1Mend)" y2="1931.1024" x2="0" y1="329.05737" x1="0" id="A.grainline" />
      <path style="fill:none;stroke:#008000;stroke-width:3;stroke-linejoin:miter;stroke-miterlimit:4;stroke-dasharray:6, 6;stroke-dashoffset:0" d="M -163.39044,-7.9184353 -567.80739,1359.7217 -1374.8474,1637.6268" id="A.dartline" inkscape:connector-curvature="0" />
      <path style="fill:none;stroke:#008000;stroke-width:4;stroke-linejoin:miter;stroke-miterlimit:4;stroke-dasharray:24, 6;stroke-dashoffset:0" d="M 124.01575,37.204724 124.01575,2170.5359 0,2170.5359 C -49.070039,2170.5359 -114.33541,2169.7053 -163.39044,2168.4919 -549.27001,2158.9473 -1062.6455,2114.8718 -1443.4537,2051.7909 L -1374.8474,1637.6268 -567.80739,1359.7217 -163.39044,-7.9184353 C -239.44294,-87.507564 -282.40222,-199.20016 -302.52915,-307.42824 -326.1254,-434.31178 -349.72164,-561.19532 -373.31789,-688.07886 L -214.81495,-717.5553 C -191.21871,-590.67176 -167.62246,-463.78822 -144.02622,-336.90468 -115.97828,-186.08316 124.01575,-116.20263 124.01575,37.204724" id="A.seamline" inkscape:connector-curvature="0" />
      <path style="fill:none;stroke:#008000;stroke-width:4;stroke-linejoin:miter;stroke-miterlimit:4" d="M -225.09375,-772.875 C -296.36455,-759.62481 -367.63476,-746.37149 -438.90625,-733.125 -410.61859,-581.6719 -382.83288,-430.11508 -354.21661,-278.72964 -332.8472,-176.97642 -293.79813,-76.839048 -227.5625,4.34375 -224.78454,9.2588051 -230.14588,15.819144 -230.69364,21.405646 -358.30617,452.92668 -485.91871,884.44772 -613.53125,1315.9688 -883.9693,1409.0922 -1154.4029,1502.2286 -1424.8438,1595.3438 -1452.6577,1762.9529 -1480.3889,1930.5758 -1508.1875,2098.1875 -1387.921,2118.4829 -1267.2557,2136.2214 -1146.1652,2150.8479 -876.23753,2183.54 -605.10336,2206.1332 -333.47063,2218.743 -199.08267,2225.1126 -64.538493,2227.4287 70,2226.7812 106.76042,2226.7812 143.52083,2226.7813 180.28125,2226.7812 180.23958,1495.396 180.36459,764.00933 180.21875,32.625 179.49366,-18.909364 156.59502,-67.758202 124.37561,-107.12424 74.155772,-169.82155 5.3277177,-214.00613 -48.0625,-273.53125 -68.810516,-296.84008 -86.522888,-324.49891 -90.364056,-356.03583 -116.8357,-498.40944 -143.31562,-640.78152 -169.78125,-783.15625 -188.21875,-779.72917 -206.65625,-776.30208 -225.09375,-772.875 z" id="A.cuttingline" inkscape:connector-curvature="0" />
      <g id="A.info">
        <text style="font-size:12px;font-style:normal;font-weight:normal;text-align:right;text-anchor:start;fill:#000000;fill-opacity:1;stroke:none" id="A.info.lineSeamly Patterns" y="1872.0836" x="-567.80737">Seamly Patterns</text>
        <text style="font-size:12px;font-style:normal;font-weight:normal;text-align:right;text-anchor:start;fill:#000000;fill-opacity:1;stroke:none" id="A.info.lineDesigner:S.L.Spencer" y="1886.4836" x="-567.80737">Designer:S.L.Spencer</text>
        <text style="font-size:12px;font-style:normal;font-weight:normal;text-align:right;text-anchor:start;fill:#000000;fill-opacity:1;stroke:none" id="A.info.lineClient:DressFormLg" y="1900.8835" x="-567.80737">Client:DressFormLg</text>
        <text style="font-size:12px;font-style:normal;font-weight:normal;text-align:right;text-anchor:start;fill:#000000;fill-opacity:1;stroke:none" id="A.info.lineCoat_W_Topper_MRohr_p7" y="1915.2836" x="-567.80737">Coat_W_Topper_MRohr_p7</text>
        <text style="font-size:12px;font-style:normal;font-weight:normal;text-align:right;text-anchor:start;fill:#000000;fill-opacity:1;stroke:none" id="A.info.linePattern Piece A" y="1929.6836" x="-567.80737">Pattern Piece A</text>
        <text style="font-size:12px;font-style:normal;font-weight:normal;text-align:right;text-anchor:start;fill:#000000;fill-opacity:1;stroke:none" id="A.info.lineCut 2 Fabric" y="1944.0836" x="-567.80737">Cut 2 Fabric</text>
      </g>
    </g>
    <g id="document.coat.Back.pattern" transform="translate(313.2409,3607.1569)">
      <g id="B.letter" transform="matrix(10,0,0,10,-1280.1194,-2403.7054)">
        <text style="font-size:24px;font-style:normal;font-weight:normal;text-align:right;text-anchor:start;fill:#000000;fill-opacity:1;stroke:none" id="B.letter.letterline" y="267.07837" x="142.23549">B</text>
      </g>
      <line style="fill:none;stroke:#008000;stroke-width:4;stroke-linejoin:miter;stroke-miterlimit:4;marker-start:url(#Arrow1Mstart);marker-end:url(#Arrow1Mend)" y2="1696.0072" x2="71.117744" y1="624.15674" x1="71.117744" id="B.grainline" />
      <path style="fill:none;stroke:#008000;stroke-width:4;stroke-linejoin:miter;stroke-miterlimit:4;stroke-dasharray:24, 6;stroke-dashoffset:0" d="M 0,40.393701 0,222.54991 C 0,484.75608 -230.27082,2043.5416 -268.58925,2302.9328 243.88077,2369.0956 948.58802,2324.6636 1448.6896,2194.6578 L 1098.0524,845.8388 C 936.32573,887.88104 715.19303,777.34003 648.4252,624.15676 569.26248,442.53631 710.15886,130.23161 745.86614,37.829387 L 318.73251,-127.22923 C 282.7497,-51.535112 239.04938,40.393701 0,40.393701" id="B.seamline" inkscape:connector-curvature="0" />
      <path style="fill:none;stroke:#008000;stroke-width:4;stroke-linejoin:miter;stroke-miterlimit:4" d="M 267.875,-151.3125 C 252.51024,-118.05307 235.00758,-83.801213 204.40625,-61.96875 166.23836,-34.341386 118.56519,-24.608809 72.638182,-19.395752 29.982897,-14.669778 -13.22597,-16.097177 -56.25,-15.53125 -56.421833,69.268633 -55.906706,154.16433 -56.506459,238.90554 -60.05408,324.70159 -69.648814,410.12536 -78.736738,495.55101 -108.42059,761.41418 -144.33355,1026.7189 -180.55304,1291.8529 -229.2727,1645.3549 -280.35391,1998.4702 -332.625,2351.5 -242.75265,2363.5187 -152.61489,2373.5637 -62.117845,2379.4125 186.32358,2395.8791 435.92693,2391.5603 684.09375,2372.4375 913.62937,2354.1615 1142.5004,2323.2986 1367.168,2272.3962 1417.4873,2261.0761 1467.3763,2247.9495 1517.3125,2235.0312 1391.0283,1749.3499 1264.8037,1263.6531 1138.5312,777.96875 1102.8936,785.94693 1067.6956,798.34746 1030.8761,798.50488 961.49953,799.65009 893.29724,777.137 833.92376,742.2355 779.00456,709.18785 728.56778,663.57028 701.21875,604.40625 679.78062,556.22051 678.6701,502.07467 682.86134,450.28882 691.5488,356.52469 719.43757,265.74033 751.54065,177.59409 772.8542,119.88803 796.88146,63.251504 818.84375,5.75 642.65611,-62.370326 466.44298,-130.42473 290.25,-198.53125 282.79167,-182.79167 275.33333,-167.05208 267.875,-151.3125 z" id="B.cuttingline" inkscape:connector-curvature="0" />
      <g id="B.info">
        <text style="font-size:12px;font-style:normal;font-weight:normal;text-align:right;text-anchor:start;fill:#000000;fill-opacity:1;stroke:none" id="B.info.lineSeamly Patterns" y="312.07837" x="142.23549">Seamly Patterns</text>
        <text style="font-size:12px;font-style:normal;font-weight:normal;text-align:right;text-anchor:start;fill:#000000;fill-opacity:1;stroke:none" id="B.info.lineDesigner:S.L.Spencer" y="326.47839" x="142.23549">Designer:S.L.Spencer</text>
        <text style="font-size:12px;font-style:normal;font-weight:normal;text-align:right;text-anchor:start;fill:#000000;fill-opacity:1;stroke:none" id="B.info.lineClient:DressFormLg" y="340.87839" x="142.23549">Client:DressFormLg</text>
        <text style="font-size:12px;font-style:normal;font-weight:normal;text-align:right;text-anchor:start;fill:#000000;fill-opacity:1;stroke:none" id="B.info.lineCoat_W_Topper_MRohr_p7" y="355.27838" x="142.23549">Coat_W_Topper_MRohr_p7</text>
        <text style="font-size:12px;font-style:normal;font-weight:normal;text-align:right;text-anchor:start;fill:#000000;fill-opacity:1;stroke:none" id="B.info.linePattern Piece B" y="369.67838" x="142.23549">Pattern Piece B</text>
        <text style="font-size:12px;font-style:normal;font-weight:normal;text-align:right;text-anchor:start;fill:#000000;fill-opacity:1;stroke:none" id="B.info.lineCut 2 Fabric" y="384.07837" x="142.23549">Cut 2 Fabric</text>
      </g>
    </g>
    <g id="document.coat.Sleeve Back.pattern" transform="translate(2227.2941,3240.4256)">
      <g id="C.letter" transform="matrix(15,0,0,15,0,-10011.369)">
        <text style="font-size:24px;font-style:normal;font-weight:normal;text-align:right;text-anchor:start;fill:#000000;fill-opacity:1;stroke:none" id="C.letter.letterline" y="715.09784" x="0">C</text>
      </g>
      <line style="fill:none;stroke:#008000;stroke-width:4;stroke-linejoin:miter;stroke-miterlimit:4;marker-start:url(#Arrow1Mstart);marker-end:url(#Arrow1Mend)" y2="1729.7512" x2="310.36533" y1="425.19684" x1="310.36533" id="C.grainline" />
      <path style="fill:none;stroke:#008000;stroke-width:4;stroke-linejoin:miter;stroke-miterlimit:4;stroke-dasharray:24, 6;stroke-dashoffset:0" d="M 605.86324,-79.763409 C 619.61937,-28.424831 672.34252,53.149606 672.34252,212.59843 L 672.34252,2164.6027 0,2167.788 C 0,1280.5316 -105.19456,979.56661 -265.12201,424.90333 -60.694058,420.93167 199.74784,384.55869 310.36533,212.59843 388.68009,90.854337 443.50499,-36.259647 605.86324,-79.763409" id="C.seamline" inkscape:connector-curvature="0" />
      <path style="fill:none;stroke:#008000;stroke-width:4;stroke-linejoin:miter;stroke-miterlimit:4" d="M 591.1875,-134.0625 C 525.03509,-116.79602 463.60484,-81.984309 415.21875,-33.625 350.9874,29.442562 309.385,110.38006 261.0625,185.21875 221.65934,244.84308 158.7362,284.44622 93.224245,310.1437 3.8970942,344.93674 -91.914701,358.87331 -186.99646,365.36899 -237.69098,368.81604 -288.56945,368.92454 -339.46875,370.34375 -291.58797,537.687 -241.04123,704.15039 -196.89481,872.52476 -154.94785,1032.5725 -121.64508,1194.7613 -100.23827,1358.7989 -62.689239,1643.6255 -55.742278,1931.4883 -56.165283,2218.8749 -58.814393,2227.6978 -48.291234,2223.2606 -43.156411,2224.2477 214.09352,2222.9941 471.34386,2221.825 728.59375,2220.5625 728.53901,1547.4482 728.70322,874.33249 728.51166,201.21918 727.70621,122.55094 712.9486,44.047105 684.54038,-29.308988 674.08193,-57.32429 661.46795,-84.546104 654.89013,-113.85675 651.71842,-125.47742 648.54671,-137.09808 645.375,-148.71875 627.3125,-143.83333 609.25,-138.94792 591.1875,-134.0625 z" id="C.cuttingline" inkscape:connector-curvature="0" />
      <g id="C.info">
        <text style="font-size:12px;font-style:normal;font-weight:normal;text-align:right;text-anchor:start;fill:#000000;fill-opacity:1;stroke:none" id="C.info.lineSeamly Patterns" y="981.40533" x="0">Seamly Patterns</text>
        <text style="font-size:12px;font-style:normal;font-weight:normal;text-align:right;text-anchor:start;fill:#000000;fill-opacity:1;stroke:none" id="C.info.lineDesigner:S.L.Spencer" y="995.8053" x="0">Designer:S.L.Spencer</text>
        <text style="font-size:12px;font-style:normal;font-weight:normal;text-align:right;text-anchor:start;fill:#000000;fill-opacity:1;stroke:none" id="C.info.lineClient:DressFormLg" y="1010.2053" x="0">Client:DressFormLg</text>
        <text style="font-size:12px;font-style:normal;font-weight:normal;text-align:right;text-anchor:start;fill:#000000;fill-opacity:1;stroke:none" id="C.info.lineCoat_W_Topper_MRohr_p7" y="1024.6053" x="0">Coat_W_Topper_MRohr_p7</text>
        <text style="font-size:12px;font-style:normal;font-weight:normal;text-align:right;text-anchor:start;fill:#000000;fill-opacity:1;stroke:none" id="C.info.linePattern Piece C" y="1039.0054" x="0">Pattern Piece C</text>
        <text style="font-size:12px;font-style:normal;font-weight:normal;text-align:right;text-anchor:start;fill:#000000;fill-opacity:1;stroke:none" id="C.info.lineCut 2 Fabric" y="1053.4053" x="0">Cut 2 Fabric</text>
      </g>
    </g>
    <g id="document.coat.Welt.pattern" transform="matrix(0,1,-1,0,2209.6952,1883.1722)">
      <g id="D.letter" transform="matrix(5,0,0,5,4507.2337,-6210.676)">
        <text style="font-size:24px;font-style:normal;font-weight:normal;text-align:right;text-anchor:start;fill:#000000;fill-opacity:1;stroke:none" id="D.letter.letterline" y="1552.6689" x="-1126.8085">D</text>
      </g>
      <line style="fill:none;stroke:#008000;stroke-width:4;stroke-linejoin:miter;stroke-miterlimit:4;marker-start:url(#Arrow1Mstart);marker-end:url(#Arrow1Mend)" y2="1404.5621" x2="-687.02356" y1="1274.3457" x1="-687.02356" id="D.grainline" />
      <path style="fill:none;stroke:#008000;stroke-width:4;stroke-linejoin:miter;stroke-miterlimit:4;stroke-dasharray:24, 6;stroke-dashoffset:0" d="M -515.05735,1181.3338 -567.80739,1359.7217 -1374.8474,1637.6268 -1346.7009,1467.7112 -515.05735,1181.3338" id="D.seamline" inkscape:connector-curvature="0" />
      <path style="fill:none;stroke:#008000;stroke-width:4;stroke-linejoin:miter;stroke-miterlimit:4" d="M -533.375,1128.1562 C -821.14638,1227.2484 -1108.9133,1326.3536 -1396.6875,1425.4375 -1413.0787,1524.131 -1429.4012,1622.8359 -1445.7812,1721.5312 -1137.8766,1615.5359 -829.99077,1509.4861 -522.09375,1403.4688 -491.46315,1299.8497 -460.82005,1196.2343 -430.15625,1092.625 -464.5625,1104.4687 -498.96875,1116.3125 -533.375,1128.1562 z" id="D.cuttingline" inkscape:connector-curvature="0" />
      <g id="D.info">
        <text style="font-size:12px;font-style:normal;font-weight:normal;text-align:right;text-anchor:start;fill:#000000;fill-opacity:1;stroke:none" id="D.info.lineSeamly Patterns" y="1333.4315" x="-906.91602">Seamly Patterns</text>
        <text style="font-size:12px;font-style:normal;font-weight:normal;text-align:right;text-anchor:start;fill:#000000;fill-opacity:1;stroke:none" id="D.info.lineDesigner:S.L.Spencer" y="1347.8315" x="-906.91602">Designer:S.L.Spencer</text>
        <text style="font-size:12px;font-style:normal;font-weight:normal;text-align:right;text-anchor:start;fill:#000000;fill-opacity:1;stroke:none" id="D.info.lineClient:DressFormLg" y="1362.2314" x="-906.91602">Client:DressFormLg</text>
        <text style="font-size:12px;font-style:normal;font-weight:normal;text-align:right;text-anchor:start;fill:#000000;fill-opacity:1;stroke:none" id="D.info.lineCoat_W_Topper_MRohr_p7" y="1376.6315" x="-906.91602">Coat_W_Topper_MRohr_p7</text>
        <text style="font-size:12px;font-style:normal;font-weight:normal;text-align:right;text-anchor:start;fill:#000000;fill-opacity:1;stroke:none" id="D.info.linePattern Piece D" y="1391.0315" x="-906.91602">Pattern Piece D</text>
        <text style="font-size:12px;font-style:normal;font-weight:normal;text-align:right;text-anchor:start;fill:#000000;fill-opacity:1;stroke:none" id="D.info.lineCut 2 Fabric" y="1405.4315" x="-906.91602">Cut 2 Fabric</text>
      </g>
    </g>
    <g id="document.coat.Pocket.pattern" transform="matrix(0,1,-1,0,3274.7451,4910.7951)">
      <g id="E.letter" transform="matrix(10,0,0,10,9812.9815,-16120.65)">
        <text style="font-size:24px;font-style:normal;font-weight:normal;text-align:right;text-anchor:start;fill:#000000;fill-opacity:1;stroke:none" id="E.letter.letterline" y="1791.1833" x="-1090.3313">E</text>
      </g>
      <line style="fill:none;stroke:#008000;stroke-width:4;stroke-linejoin:miter;stroke-miterlimit:4;marker-start:url(#Arrow1Mstart);marker-end:url(#Arrow1Mend)" y2="1889.8674" x2="-734.6861" y1="1429.198" x1="-734.6861" id="E.grainline" />
      <path style="fill:none;stroke:#008000;stroke-width:4;stroke-linejoin:miter;stroke-miterlimit:4;stroke-dasharray:24, 6;stroke-dashoffset:0" d="M -1374.8474,1637.6268 C -1374.8474,2067.585 -1238.7711,2051.7909 -921.25984,2051.7909 -673.84312,2051.7909 -567.80739,1844.1701 -567.80739,1359.7217 L -1374.8474,1637.6268" id="E.seamline" inkscape:connector-curvature="0" />
      <path style="fill:none;stroke:#008000;stroke-width:4;stroke-linejoin:miter;stroke-miterlimit:4" d="M -586.125,1306.5312 C -867.82421,1403.5275 -1149.5127,1500.5548 -1431.2188,1597.5312 -1431.2618,1690.3929 -1430.7537,1784.4693 -1409.161,1875.2507 -1395.164,1933.8864 -1369.4303,1992.1568 -1323.6942,2032.9502 -1280.9109,2071.9371 -1224.0447,2091.0873 -1167.6269,2099.195 -1090.2508,2110.3094 -1011.8187,2107.6486 -933.875,2108.0582 -869.69599,2109.4398 -803.9717,2098.8091 -746.98057,2068.1153 -684.62893,2035.3355 -636.43724,1980.1269 -604.31287,1918.1165 -562.98792,1838.8235 -542.76981,1750.4344 -529.89239,1662.4472 -512.68933,1542.0445 -510.84302,1420.1577 -511.5625,1298.7188 -512.19178,1293.3095 -510.30245,1284.3686 -512.50797,1281.1695 -537.04698,1289.6234 -561.58599,1298.0773 -586.125,1306.5312 z" id="E.cuttingline" inkscape:connector-curvature="0" />
      <g id="E.info">
        <text style="font-size:12px;font-style:normal;font-weight:normal;text-align:right;text-anchor:start;fill:#000000;fill-opacity:1;stroke:none" id="E.info.lineSeamly Patterns" y="1929.238" x="-1090.3313">Seamly Patterns</text>
        <text style="font-size:12px;font-style:normal;font-weight:normal;text-align:right;text-anchor:start;fill:#000000;fill-opacity:1;stroke:none" id="E.info.lineDesigner:S.L.Spencer" y="1943.6381" x="-1090.3313">Designer:S.L.Spencer</text>
        <text style="font-size:12px;font-style:normal;font-weight:normal;text-align:right;text-anchor:start;fill:#000000;fill-opacity:1;stroke:none" id="E.info.lineClient:DressFormLg" y="1958.038" x="-1090.3313">Client:DressFormLg</text>
        <text style="font-size:12px;font-style:normal;font-weight:normal;text-align:right;text-anchor:start;fill:#000000;fill-opacity:1;stroke:none" id="E.info.lineCoat_W_Topper_MRohr_p7" y="1972.438" x="-1090.3313">Coat_W_Topper_MRohr_p7</text>
        <text style="font-size:12px;font-style:normal;font-weight:normal;text-align:right;text-anchor:start;fill:#000000;fill-opacity:1;stroke:none" id="E.info.linePattern Piece E" y="1986.838" x="-1090.3313">Pattern Piece E</text>
        <text style="font-size:12px;font-style:normal;font-weight:normal;text-align:right;text-anchor:start;fill:#000000;fill-opacity:1;stroke:none" id="E.info.lineCut 2 Fabric" y="2001.238" x="-1090.3313">Cut 2 Fabric</text>
      </g>
    </g>
    <g id="document.coat.Front Facing.pattern" transform="translate(2126.1357,1199.3715)">
      <g id="F.letter" transform="matrix(8,0,0,8,0,-2303.4015)">
        <text style="font-size:24px;font-style:normal;font-weight:normal;text-align:right;text-anchor:start;fill:#000000;fill-opacity:1;stroke:none" id="F.letter.letterline" y="329.05737" x="0">F</text>
      </g>
      <line style="fill:none;stroke:#008000;stroke-width:4;stroke-linejoin:miter;stroke-miterlimit:4;marker-start:url(#Arrow1Mstart);marker-end:url(#Arrow1Mend)" y2="1635.6702" x2="-91.538895" y1="3.3623545" x1="-91.538895" id="F.grainline" />
      <path style="fill:none;stroke:#008000;stroke-width:4;stroke-linejoin:miter;stroke-miterlimit:4;stroke-dasharray:24, 6;stroke-dashoffset:0" d="M -163.39044,-7.9184353 C -239.44294,-87.507564 -282.40222,-199.20016 -302.52915,-307.42824 -326.1254,-434.31178 -349.72164,-561.19532 -373.31789,-688.07886 L -214.81495,-717.5553 C -191.21871,-590.67176 -167.62246,-463.78822 -144.02622,-336.90468 -115.97828,-186.08316 124.01575,-116.20263 124.01575,37.204724 L 124.01575,2170.5359 0,2170.5359 C -49.070039,2170.5359 -114.33541,2169.7053 -163.39044,2168.4919 L -163.39044,-7.9184353" id="F.seamline" inkscape:connector-curvature="0" />
      <path style="fill:none;stroke:#008000;stroke-width:4;stroke-linejoin:miter;stroke-miterlimit:4" d="M -225.09375,-772.875 C -296.36455,-759.62481 -367.63476,-746.37149 -438.90625,-733.125 -410.61859,-581.6719 -382.83288,-430.11508 -354.21661,-278.72964 -332.30998,-174.34236 -291.69558,-71.539533 -222.33526,10.653583 -216.9547,15.01851 -220.75127,22.823012 -219.625,28.78125 -219.625,760.33333 -219.625,1491.8854 -219.625,2223.4375 -115.44434,2226.4452 -11.218758,2227.1471 93,2226.7812 122.09375,2226.7812 151.1875,2226.7812 180.28125,2226.7812 180.23958,1495.396 180.36459,764.00933 180.21875,32.625 179.49366,-18.909364 156.59502,-67.758202 124.37561,-107.12424 74.155772,-169.82155 5.3277177,-214.00613 -48.0625,-273.53125 -68.810516,-296.84008 -86.522888,-324.49891 -90.364056,-356.03583 -116.8357,-498.40944 -143.31562,-640.78152 -169.78125,-783.15625 -188.21875,-779.72917 -206.65625,-776.30208 -225.09375,-772.875 z" id="F.cuttingline" inkscape:connector-curvature="0" />
      <g id="F.info">
        <text style="font-size:12px;font-style:normal;font-weight:normal;text-align:right;text-anchor:start;fill:#000000;fill-opacity:1;stroke:none" id="F.info.lineSeamly Patterns" y="379.05737" x="-25">Seamly Patterns</text>
        <text style="font-size:12px;font-style:normal;font-weight:normal;text-align:right;text-anchor:start;fill:#000000;fill-opacity:1;stroke:none" id="F.info.lineDesigner:S.L.Spencer" y="393.45737" x="-25">Designer:S.L.Spencer</text>
        <text style="font-size:12px;font-style:normal;font-weight:normal;text-align:right;text-anchor:start;fill:#000000;fill-opacity:1;stroke:none" id="F.info.lineClient:DressFormLg" y="407.85736" x="-25">Client:DressFormLg</text>
        <text style="font-size:12px;font-style:normal;font-weight:normal;text-align:right;text-anchor:start;fill:#000000;fill-opacity:1;stroke:none" id="F.info.lineCoat_W_Topper_MRohr_p7" y="422.25735" x="-25">Coat_W_Topper_MRohr_p7</text>
        <text style="font-size:12px;font-style:normal;font-weight:normal;text-align:right;text-anchor:start;fill:#000000;fill-opacity:1;stroke:none" id="F.info.linePattern Piece F" y="436.65735" x="-25">Pattern Piece F</text>
        <text style="font-size:12px;font-style:normal;font-weight:normal;text-align:right;text-anchor:start;fill:#000000;fill-opacity:1;stroke:none" id="F.info.lineCut 2 Fabric" y="451.05737" x="-25">Cut 2 Fabric</text>
      </g>
    </g>
    <g id="document.coat.Upper Front.pattern" transform="translate(1627.2225,6415.3995)">
      <g id="G.letter" transform="matrix(10,0,0,10,5067.5432,-4755.7396)">
        <text style="font-size:24px;font-style:normal;font-weight:normal;text-align:right;text-anchor:start;fill:#000000;fill-opacity:1;stroke:none" id="G.letter.letterline" y="528.41553" x="-563.06036">G</text>
      </g>
      <line style="fill:none;stroke:#008000;stroke-width:4;stroke-linejoin:miter;stroke-miterlimit:4;marker-start:url(#Arrow1Mstart);marker-end:url(#Arrow1Mend)" y2="1106.0886" x2="-613.06036" y1="329.05737" x1="-613.06036" id="G.grainline" />
      <path style="fill:none;stroke:#008000;stroke-width:4;stroke-linejoin:miter;stroke-miterlimit:4;stroke-dasharray:24, 6;stroke-dashoffset:0" d="M -316.69795,-34.505369 -354.33071,637.79528 -567.80739,1359.7217 -1374.8474,1637.6268 -1215.6992,676.87741 C -1046.88,704.84233 -828.58773,580.45441 -771.79,419.03575 -710.47759,244.78638 -904.12775,-23.297051 -941.68858,-108.44219 L -520.86799,-294.08253 C -476.43697,-193.36363 -408.98797,-94.513397 -316.69795,-34.505369" id="G.seamline" inkscape:connector-curvature="0" />
      <path style="fill:none;stroke:#008000;stroke-width:4;stroke-linejoin:miter;stroke-miterlimit:4" d="M -543.59375,-345.5625 C -701.08138,-276.06849 -858.58843,-206.61848 -1016.0625,-137.09375 -1000.8745,-103.14944 -986.62595,-68.753218 -967.74586,-36.636699 -917.23375,52.947474 -864.12447,142.6653 -833.6874,241.43203 -820.183,286.92611 -810.47272,335.40676 -819.90625,382.59375 -829.92485,425.68357 -855.43663,463.65758 -885.09375,495.78125 -939.59649,553.42066 -1011.1377,594.74155 -1088,614.4375 -1130.5052,625.20636 -1175.4759,628.06966 -1218.7912,619.4444 -1233.215,617.17127 -1247.6387,614.89813 -1262.0625,612.625 -1323.2941,982.26001 -1384.5487,1351.8912 -1445.75,1721.5312 -1137.8621,1615.5177 -829.97951,1509.4886 -522.09375,1403.4688 -447.59395,1151.4656 -373.06349,899.47153 -298.5625,647.46875 -285.26547,410.36548 -271.98746,173.26112 -258.71875,-63.84375 -287.82012,-82.283515 -316.76167,-101.48564 -341.29004,-125.79543 -402.17405,-184.33033 -445.26501,-258.81648 -477.9803,-336.104 -482.72645,-346.80892 -487.4726,-357.51383 -492.21875,-368.21875 -509.34375,-360.66667 -526.46875,-353.11458 -543.59375,-345.5625 z" id="G.cuttingline" inkscape:connector-curvature="0" />
      <g id="G.info">
        <text style="font-size:12px;font-style:normal;font-weight:normal;text-align:right;text-anchor:start;fill:#000000;fill-opacity:1;stroke:none" id="G.info.lineSeamly Patterns" y="578.41553" x="-563.06036">Seamly Patterns</text>
        <text style="font-size:12px;font-style:normal;font-weight:normal;text-align:right;text-anchor:start;fill:#000000;fill-opacity:1;stroke:none" id="G.info.lineDesigner:S.L.Spencer" y="592.81549" x="-563.06036">Designer:S.L.Spencer</text>
        <text style="font-size:12px;font-style:normal;font-weight:normal;text-align:right;text-anchor:start;fill:#000000;fill-opacity:1;stroke:none" id="G.info.lineClient:DressFormLg" y="607.21552" x="-563.06036">Client:DressFormLg</text>
        <text style="font-size:12px;font-style:normal;font-weight:normal;text-align:right;text-anchor:start;fill:#000000;fill-opacity:1;stroke:none" id="G.info.lineCoat_W_Topper_MRohr_p7" y="621.61554" x="-563.06036">Coat_W_Topper_MRohr_p7</text>
        <text style="font-size:12px;font-style:normal;font-weight:normal;text-align:right;text-anchor:start;fill:#000000;fill-opacity:1;stroke:none" id="G.info.linePattern Piece G" y="636.0155" x="-563.06036">Pattern Piece G</text>
        <text style="font-size:12px;font-style:normal;font-weight:normal;text-align:right;text-anchor:start;fill:#000000;fill-opacity:1;stroke:none" id="G.info.lineCut 2 Fabric" y="650.41553" x="-563.06036">Cut 2 Fabric</text>
      </g>
    </g>
    <g id="document.coat.Sleeve Front.pattern" transform="translate(1264.1888,5634.9529)">
      <g id="H.letter" transform="matrix(15,0,0,15,-14486.552,-10011.369)">
        <text style="font-size:24px;font-style:normal;font-weight:normal;text-align:right;text-anchor:start;fill:#000000;fill-opacity:1;stroke:none" id="H.letter.letterline" y="715.09784" x="1034.7538">H</text>
      </g>
      <line style="fill:none;stroke:#008000;stroke-width:4;stroke-linejoin:miter;stroke-miterlimit:4;marker-start:url(#Arrow1Mstart);marker-end:url(#Arrow1Mend)" y2="1729.7512" x2="840.42816" y1="425.19684" x1="840.42816" id="H.grainline" />
      <path style="fill:none;stroke:#008000;stroke-width:4;stroke-linejoin:miter;stroke-miterlimit:4;stroke-dasharray:24, 6;stroke-dashoffset:0" d="M 738.8218,-79.763409 C 901.18005,-36.259647 956.00495,90.854337 1034.7537,212.59843 1150.532,391.58931 1424.8316,421.97695 1637.9829,424.95577 1461.4746,974.81598 1344.685,1277.8979 1344.685,2161.4173 L 672.34252,2164.6027 672.34252,212.59843 C 672.34252,53.149606 725.06567,-28.424831 738.8218,-79.763409" id="H.seamline" inkscape:connector-curvature="0" />
      <path style="fill:none;stroke:#008000;stroke-width:4;stroke-linejoin:miter;stroke-miterlimit:4" d="M 684.53125,-94.5625 C 674.61382,-62.69855 659.99172,-32.484282 649.9375,-0.625 624.77442,72.928311 614.69613,151.01155 616.09375,228.59375 616.09375,892.77083 616.09375,1556.9479 616.09375,2221.125 877.67694,2219.8446 1139.2606,2218.6606 1400.8438,2217.375 1400.3123,1967.8903 1406.0643,1718.1238 1434.6562,1470.2188 1453.6932,1303.1998 1484.6958,1137.4507 1527.9062,974.78125 1578.5159,783.0117 1643.0445,595.04155 1703.1515,405.97655 1706.9864,394.03645 1710.8213,382.09635 1714.6562,370.15625 1628.3398,368.53846 1542.1608,368.25472 1456.4015,357.54063 1371.2171,346.98464 1285.5682,329.00866 1208.1875,290.25 1155.4301,263.85035 1107.3069,225.10467 1076.7908,173.94085 1030.2932,100.75079 988.57564,22.671826 925.18184,-37.790908 876.64121,-85.010476 815.33124,-118.46243 749.76553,-135.08222 732.95827,-139.65898 716.15101,-144.23574 699.34375,-148.8125 694.40625,-130.72917 689.46875,-112.64583 684.53125,-94.5625 z" id="H.cuttingline" inkscape:connector-curvature="0" />
      <g id="H.info">
        <text style="font-size:12px;font-style:normal;font-weight:normal;text-align:right;text-anchor:start;fill:#000000;fill-opacity:1;stroke:none" id="H.info.lineSeamly Patterns" y="1004.9988" x="1034.7538">Seamly Patterns</text>
        <text style="font-size:12px;font-style:normal;font-weight:normal;text-align:right;text-anchor:start;fill:#000000;fill-opacity:1;stroke:none" id="H.info.lineDesigner:S.L.Spencer" y="1019.3988" x="1034.7538">Designer:S.L.Spencer</text>
        <text style="font-size:12px;font-style:normal;font-weight:normal;text-align:right;text-anchor:start;fill:#000000;fill-opacity:1;stroke:none" id="H.info.lineClient:DressFormLg" y="1033.7988" x="1034.7538">Client:DressFormLg</text>
        <text style="font-size:12px;font-style:normal;font-weight:normal;text-align:right;text-anchor:start;fill:#000000;fill-opacity:1;stroke:none" id="H.info.lineCoat_W_Topper_MRohr_p7" y="1048.1987" x="1034.7538">Coat_W_Topper_MRohr_p7</text>
        <text style="font-size:12px;font-style:normal;font-weight:normal;text-align:right;text-anchor:start;fill:#000000;fill-opacity:1;stroke:none" id="H.info.linePattern Piece H" y="1062.5988" x="1034.7538">Pattern Piece H</text>
        <text style="font-size:12px;font-style:normal;font-weight:normal;text-align:right;text-anchor:start;fill:#000000;fill-opacity:1;stroke:none" id="H.info.lineCut 2 Fabric" y="1076.9988" x="1034.7538">Cut 2 Fabric</text>
      </g>
    </g>
    <g id="document.coat.Sleeve Facing.pattern" transform="matrix(0,1,-1,0,2292.9035,1094.5864)">
      <g id="I.letter" transform="matrix(8,0,0,8,-2353.2252,-13652.536)">
        <text style="font-size:24px;font-style:normal;font-weight:normal;text-align:right;text-anchor:start;fill:#000000;fill-opacity:1;stroke:none" id="I.letter.letterline" y="1950.3623" x="336.17502">I</text>
      </g>
      <line style="fill:none;stroke:#008000;stroke-width:4;stroke-linejoin:miter;stroke-miterlimit:4;marker-start:url(#Arrow1Mstart);marker-end:url(#Arrow1Mend)" y2="2059.0752" x2="1008.5251" y1="1841.6494" x1="1008.5251" id="I.grainline" />
      <path style="fill:none;stroke:#008000;stroke-width:4;stroke-linejoin:miter;stroke-miterlimit:4;stroke-dasharray:24, 6;stroke-dashoffset:0" d="M 0,1732.9366 1344.685,1726.5659 1344.685,2161.4173 0,2167.788 0,1732.9366" id="I.seamline" inkscape:connector-curvature="0" />
      <path style="fill:none;stroke:#008000;stroke-width:4;stroke-linejoin:miter;stroke-miterlimit:4" d="M 1344.4062,1670.3125 C 877.52086,1672.5363 410.63526,1674.7185 -56.25,1676.9688 -56.25,1859.4167 -56.25,2041.8646 -56.25,2224.3125 429.47901,2221.9687 915.20851,2219.7233 1400.9375,2217.375 1400.9375,2034.9271 1400.9375,1852.4792 1400.9375,1670.0312 1382.0937,1670.125 1363.25,1670.2188 1344.4062,1670.3125 z" id="I.cuttingline" inkscape:connector-curvature="0" />
      <g id="I.info">
        <text style="font-size:12px;font-style:normal;font-weight:normal;text-align:right;text-anchor:start;fill:#000000;fill-opacity:1;stroke:none" id="I.info.lineSeamly Patterns" y="1950.3623" x="672.35004">Seamly Patterns</text>
        <text style="font-size:12px;font-style:normal;font-weight:normal;text-align:right;text-anchor:start;fill:#000000;fill-opacity:1;stroke:none" id="I.info.lineDesigner:S.L.Spencer" y="1964.7623" x="672.35004">Designer:S.L.Spencer</text>
        <text style="font-size:12px;font-style:normal;font-weight:normal;text-align:right;text-anchor:start;fill:#000000;fill-opacity:1;stroke:none" id="I.info.lineClient:DressFormLg" y="1979.1622" x="672.35004">Client:DressFormLg</text>
        <text style="font-size:12px;font-style:normal;font-weight:normal;text-align:right;text-anchor:start;fill:#000000;fill-opacity:1;stroke:none" id="I.info.lineCoat_W_Topper_MRohr_p7" y="1993.5623" x="672.35004">Coat_W_Topper_MRohr_p7</text>
        <text style="font-size:12px;font-style:normal;font-weight:normal;text-align:right;text-anchor:start;fill:#000000;fill-opacity:1;stroke:none" id="I.info.linePattern Piece I" y="2007.9623" x="672.35004">Pattern Piece I</text>
        <text style="font-size:12px;font-style:normal;font-weight:normal;text-align:right;text-anchor:start;fill:#000000;fill-opacity:1;stroke:none" id="I.info.lineCut 2 Fabric" y="2022.3623" x="672.35004">Cut 2 Fabric</text>
      </g>
    </g>
  </g>
  <g inkscape:label="Label-notes" id="notes" inkscape:groupmode="layer" transform="translate(111.3841,-281.21905)">
    <g id="document.coat.Lower Front.notes" transform="translate(1502.2037,1156.3753)" />
    <g id="document.coat.Back.notes" transform="translate(2066.0587,580.55228)" />
    <g id="document.coat.Sleeve Back.notes" transform="translate(267.62201,3577.9246)" />
    <g id="document.coat.Welt.notes" transform="translate(3155.9045,2314.3274)" />
    <g id="document.coat.Pocket.notes" transform="translate(4184.4445,2135.9396)" />
    <g id="document.coat.Front Facing.notes" transform="translate(373.31789,6632.0179)" />
    <g id="document.coat.Upper Front.notes" transform="translate(2040.931,6208.5452)" />
    <g id="document.coat.Sleeve Front.notes" transform="translate(1220.6406,5994.2261)" />
    <g id="document.coat.Sleeve Facing.notes" transform="translate(0,7244.738)" />
  </g>
  <g inkscape:label="Label-reference" id="reference" inkscape:groupmode="layer" transform="translate(111.3841,-281.21905)" />
</svg>
