<?xml version="1.0" encoding="UTF-8" standalone="no"?>
<svg
   xmlns:dc="http://purl.org/dc/elements/1.1/"
   xmlns:cc="http://creativecommons.org/ns#"
   xmlns:rdf="http://www.w3.org/1999/02/22-rdf-syntax-ns#"
   xmlns:svg="http://www.w3.org/2000/svg"
   xmlns="http://www.w3.org/2000/svg"
   xmlns:sodipodi="http://sodipodi.sourceforge.net/DTD/sodipodi-0.dtd"
   xmlns:inkscape="http://www.inkscape.org/namespaces/inkscape"
   patternNumber="W_Block_Bodice_1"
   fitBoxtoViewport="True"
   companyName="Seamly Patterns"
   currentscale="0.5:1"
   margin-right="88.5826771654"
   client-name="DressFormLg"
   designerName="S.L.Spencer"
   height="2285.45103514"
   width="1416.31434633"
   margin-top="88.5826771654"
   version="1.1"
   margin-bottom="88.5826771654"
   margin-left="88.5826771654"
   preserveAspectRatio="xMidYMid meet"
   id="svg2"
   inkscape:version="0.48.4 r9939"
   sodipodi:docname="spencer_bodice.svg">
  <metadata
     id="metadata95">
    <rdf:RDF>
      <cc:Work
         rdf:about="">
        <dc:format>image/svg+xml</dc:format>
        <dc:type
           rdf:resource="http://purl.org/dc/dcmitype/StillImage" />
      </cc:Work>
    </rdf:RDF>
  </metadata>
  <sodipodi:namedview
     id="base"
     pagecolor="#ffffff"
     bordercolor="#666666"
     borderopacity="1.0"
     inkscape:pageopacity="0.0"
     inkscape:pageshadow="2"
     inkscape:zoom="0.39773333"
     inkscape:document-units="pt"
     showgrid="false"
     inkscape:window-maximized="1"
     inkscape:cx="708.15717"
     inkscape:cy="1142.7255"
     inkscape:window-width="1855"
     inkscape:window-height="1056"
     inkscape:window-x="65"
     inkscape:window-y="24"
     inkscape:current-layer="pattern" />
  <defs
     id="defs5">
    <marker
       style="overflow:visible"
       id="Arrow1Mstart"
       refX="0.0"
       refY="0.0"
       orient="auto"
       inkscape:stockid="Arrow1Mstart">
      <path
         transform="scale(0.4) translate(10,0)"
         style="fill-rule:evenodd;stroke:#000000;stroke-width:1.0pt;marker-start:none"
         d="M 0.0,0.0 L 5.0,-5.0 L -12.5,0.0 L 5.0,5.0 L 0.0,0.0 z "
         id="path8" />
    </marker>
    <marker
       style="overflow:visible;"
       id="Arrow1Mend"
       refX="0.0"
       refY="0.0"
       orient="auto"
       inkscape:stockid="Arrow1Mend">
      <path
         transform="scale(0.4) rotate(180) translate(10,0)"
         style="fill-rule:evenodd;stroke:#000000;stroke-width:1.0pt;marker-start:none;"
         d="M 0.0,0.0 L 5.0,-5.0 L -12.5,0.0 L 5.0,5.0 L 0.0,0.0 z "
         id="path11" />
    </marker>
  </defs>
  <g
     inkscape:label="Label-pattern"
     id="pattern"
     inkscape:groupmode="layer"
     transform="translate(88.582677,88.582677)">
    <g
       id="document.bodice.front.pattern"
       transform=" translate(1182.898992, 755.725267)">
      <g
         id="A.letter"
         transform="matrix(10.000000, 0, 0, 10.000000, 3029.527559, -2497.322953)">
        <text
           style="font-size:24; vertical-align:top; fill-opacity:1.0; fill:#000000; text-anchor:start; stroke:none; font-weight:normal; font-style:normal; text-align:right; "
           transform=""
           id="A.letter.letterline"
           y="277.480328162"
           x="-336.614173228">
A</text>
      </g>
      <line
         style="stroke-linejoin:miter; stroke:green; stroke-width:4; stroke-miterlimit:4; fill:none; "
         y2="942.559068319"
         marker-end="url(#Arrow1Mend)"
         marker-start="url(#Arrow1Mstart)"
         transform=""
         x2="-84.1535433071"
         y1="322.480328162"
         x1="-84.1535433071"
         id="A.grainline" />
      <path
         style="stroke-linejoin:miter; stroke-dashoffset:0; stroke:green; stroke-miterlimit:4; stroke-dasharray:6,6; stroke-width:3; fill:none; "
         transform=""
         d="M -315.594524061  1296.31041381 L -354.330708661  637.795275591 L -487.350686802  1283.8977169 M -1051.20978972  637.795275591 L -354.330708661  637.795275591 L -1027.46421086  818.160853903 "
         id="A.dartline" />
      <path
         style="stroke-linejoin:miter; stroke-dashoffset:0; stroke:green; stroke-dasharray:24,6; stroke-miterlimit:4; stroke-width:4; fill:none; "
         transform=""
         d="M 0.0  0.0 L 0.0  1240.15748031 L -318.897637795  1240.15748031 L -398.54251442  1249.56000047 L -476.00780104  1228.80323948 C -560.146025082  1206.2584703  -911.328656004  1214.32984287  -998.267935614  1208.9382732 L -973.130883131  803.602282616 L -967.857427734  718.567600493 L -994.959789724  637.795275591 L -921.25984252  418.1496195 C -837.248847615  446.338685468  -718.554964308  398.62472007  -673.228346457  322.480328162 C -579.216145448  164.548803219  -689.110380288  -137.927747608  -708.37210871  -227.784026997 L -292.620059846  -316.905267169 C -292.620059846  -158.452633585  -219.465044884  0.0  0.0  0.0 "
         id="A.seamline" />
      <path
         style="fill:none;stroke:#008000;stroke-width:4;stroke-linejoin:miter;stroke-miterlimit:4"
         d="m -304.40625,-371.90625 c -156.96928,33.64338 -313.93317,67.31189 -470.90625,100.9375 8.4031,39.66515 16.93702,79.32033 28.27977,118.26296 26.59484,97.022169 52.08875,195.759301 54.93898,296.73704 0.78485,48.466 -3.17139,99.09059 -25.65625,142.90625 -18.2226,34.63312 -52.76754,57.58531 -88.46875,71.28125 -33.17024,12.23664 -70.93868,17.15356 -104.67286,4.19758 -15.35905,-4.86794 -30.71809,-9.73589 -46.07714,-14.60383 -32.4426,96.65803 -64.85985,193.32462 -97.34375,289.96875 9.7551,29.73572 20.4702,59.35693 29.5631,89.18559 -11.0346,178.28298 -22.1576,356.56046 -33.1568,534.84566 46.4084,3.0427 92.85604,5.3609 139.37462,5.3489 119.95613,1.4185 240.12352,-0.033 359.779,7.5042 29.46686,2.1703 59.2515,4.5483 87.50908,13.6652 23.20337,5.9497 46.32576,12.9389 69.58052,18.2409 30.06626,-3.2133 60.05364,-7.7079 90.16298,-10.1655 122.58333,0 245.166667,1e-4 367.75,0 0,-450.77078 0,-901.54162 0,-1352.31245 -46.193762,-0.76418 -92.994303,2.482992 -137.926189,-10.443224 -44.487551,-11.620914 -85.169061,-39.195986 -110.167561,-77.931776 -33.23103,-50.38534 -44.17017,-112.10685 -44.51681,-171.37493 -0.20203,-23.57295 -0.40557,-47.14588 -0.60819,-70.71882 -22.47917,4.82292 -44.95833,9.64583 -67.4375,14.46875 z"
         id="A.cuttingline"
         inkscape:connector-curvature="0" />
      <g
         id="A.info"
         transform="">
        <text
           style="font-size:12; vertical-align:top; fill-opacity:1.0; fill:#000000; text-anchor:start; stroke:none; font-weight:normal; font-style:normal; text-align:right; "
           transform=""
           id="A.info.lineSeamly Patterns"
           y="322.480328162"
           x="-336.614173228">
Seamly Patterns</text>
        <text
           style="font-size:12; vertical-align:top; fill-opacity:1.0; fill:#000000; text-anchor:start; stroke:none; font-weight:normal; font-style:normal; text-align:right; "
           transform=""
           id="A.info.lineDesigner:S.L.Spencer"
           y="336.880328162"
           x="-336.614173228">
Designer:S.L.Spencer</text>
        <text
           style="font-size:12; vertical-align:top; fill-opacity:1.0; fill:#000000; text-anchor:start; stroke:none; font-weight:normal; font-style:normal; text-align:right; "
           transform=""
           id="A.info.lineClient:DressFormLg"
           y="351.280328162"
           x="-336.614173228">
Client:DressFormLg</text>
        <text
           style="font-size:12; vertical-align:top; fill-opacity:1.0; fill:#000000; text-anchor:start; stroke:none; font-weight:normal; font-style:normal; text-align:right; "
           transform=""
           id="A.info.lineW_Block_Bodice_1"
           y="365.680328162"
           x="-336.614173228">
W_Block_Bodice_1</text>
        <text
           style="font-size:12; vertical-align:top; fill-opacity:1.0; fill:#000000; text-anchor:start; stroke:none; font-weight:normal; font-style:normal; text-align:right; "
           transform=""
           id="A.info.linePattern Piece A"
           y="380.080328162"
           x="-336.614173228">
Pattern Piece A</text>
        <text
           style="font-size:12; vertical-align:top; fill-opacity:1.0; fill:#000000; text-anchor:start; stroke:none; font-weight:normal; font-style:normal; text-align:right; "
           transform=""
           id="A.info.lineCut 2 Fabric"
           y="394.480328162"
           x="-336.614173228">
Cut 2 Fabric</text>
      </g>
    </g>
  </g>
  <g
     inkscape:label="Label-notes"
     id="notes"
     inkscape:groupmode="layer"
     transform="translate(88.582677,88.582677)">
    <g
       id="document.titleblock">
      <text
         style="font-size:40; vertical-align:top; fill-opacity:1.0; fill:#000000; text-anchor:right; stroke:none; font-weight:normal; font-style:normal; text-align:right; "
         transform=""
         id="company"
         y="0.0"
         x="0.0">
Seamly Patterns</text>
      <text
         style="font-size:40; vertical-align:top; fill-opacity:1.0; fill:#000000; text-anchor:right; stroke:none; font-weight:normal; font-style:normal; text-align:right; "
         transform=""
         id="designer"
         y="44.0"
         x="0.0">
S.L.Spencer</text>
      <text
         style="font-size:40; vertical-align:top; fill-opacity:1.0; fill:#000000; text-anchor:right; stroke:none; font-weight:normal; font-style:normal; text-align:right; "
         transform=""
         id="pattern_number"
         y="88.0"
         x="0.0">
W_Block_Bodice_1</text>
      <text
         style="font-size:40; vertical-align:top; fill-opacity:1.0; fill:#000000; text-anchor:right; stroke:none; font-weight:normal; font-style:normal; text-align:right; "
         transform=""
         id="pattern_name"
         y="132.0"
         x="0.0">
Spencer Bodice Block</text>
      <text
         style="font-size:40; vertical-align:top; fill-opacity:1.0; fill:#000000; text-anchor:right; stroke:none; font-weight:normal; font-style:normal; text-align:right; "
         transform=""
         id="client"
         y="176.0"
         x="0.0">
DressFormLg</text>
    </g>
    <g
       id="document.testgrid">
      <path
         style="stroke-linejoin:miter; stroke:green; stroke-width:4; stroke-miterlimit:4; fill:none; "
         d="M 1080.0  0.0 L 1080.0  212.598425197 M 1115.43307087  0.0 L 1115.43307087  212.598425197 M 1150.86614173  0.0 L 1150.86614173  212.598425197 M 1186.2992126  0.0 L 1186.2992126  212.598425197 M 1221.73228346  0.0 L 1221.73228346  212.598425197 M 1257.16535433  0.0 L 1257.16535433  212.598425197 M 1292.5984252  0.0 L 1292.5984252  212.598425197 M 1080.0  0.0 L 1292.5984252  0.0 M 1080.0  35.4330708661 L 1292.5984252  35.4330708661 M 1080.0  70.8661417323 L 1292.5984252  70.8661417323 M 1080.0  106.299212598 L 1292.5984252  106.299212598 M 1080.0  141.732283465 L 1292.5984252  141.732283465 M 1080.0  177.165354331 L 1292.5984252  177.165354331 M 1080.0  212.598425197 L 1292.5984252  212.598425197 M 1469.76377953  0.0 L 1469.76377953  270.0 M 1559.76377953  0.0 L 1559.76377953  270.0 M 1649.76377953  0.0 L 1649.76377953  270.0 M 1739.76377953  0.0 L 1739.76377953  270.0 M 1469.76377953  0.0 L 1739.76377953  0.0 M 1469.76377953  90.0 L 1739.76377953  90.0 M 1469.76377953  180.0 L 1739.76377953  180.0 M 1469.76377953  270.0 L 1739.76377953  270.0 "
         id="testgrid" />
    </g>
    <g
       id="document.bodice.front.notes"
       transform=" translate(1182.898992, 755.725267)" />
  </g>
  <g
     inkscape:label="Label-reference"
     id="reference"
     inkscape:groupmode="layer"
     transform="translate(88.582677,88.582677)">
    <g
       id="document.bodice.front.reference"
       transform=" translate(1182.898992, 755.725267)">
      <circle
         style="stroke:gray; stroke-width:1; fill:none; "
         transform=""
         cy="0.0"
         cx="-219.465044884"
         r="5"
         id="A.a1.inpoint"
         d="m -214.46504,0 c 0,2.7614237 -2.23858,5 -5,5 -2.76143,0 -5,-2.2385763 -5,-5 0,-2.7614237 2.23857,-5 5,-5 2.76142,0 5,2.2385763 5,5 z" />
      <text
         style="font-size:25; vertical-align:top; fill-opacity:1.0; fill:gray; text-anchor:right; stroke:none; font-weight:normal; font-style:italic; text-align:right; "
         transform=""
         id="A.a1.inpoint.text"
         y="-7.0"
         x="-212.465044884">
a1.in</text>
      <circle
         style="stroke:red; stroke-width:1; fill:red; "
         transform=""
         cy="0.0"
         cx="0.0"
         r="5"
         id="A.a1"
         d="M 5,0 C 5,2.7614237 2.7614237,5 0,5 -2.7614237,5 -5,2.7614237 -5,0 c 0,-2.7614237 2.2385763,-5 5,-5 2.7614237,0 5,2.2385763 5,5 z" />
      <text
         style="font-size:30; vertical-align:top; fill-opacity:1.0; fill:darkblue; text-anchor:right; stroke:none; font-weight:normal; font-style:italic; text-align:right; "
         transform=""
         id="A.a1.text"
         y="-7.0"
         x="7.0">
a1</text>
      <circle
         style="stroke:red; stroke-width:1; fill:red; "
         transform=""
         cy="1240.15748031"
         cx="0.0"
         r="5"
         id="A.a2"
         d="m 5,1240.1575 c 0,2.7614 -2.2385763,5 -5,5 -2.7614237,0 -5,-2.2386 -5,-5 0,-2.7615 2.2385763,-5 5,-5 2.7614237,0 5,2.2385 5,5 z" />
      <text
         style="font-size:30; vertical-align:top; fill-opacity:1.0; fill:darkblue; text-anchor:right; stroke:none; font-weight:normal; font-style:italic; text-align:right; "
         transform=""
         id="A.a2.text"
         y="1233.15748031"
         x="7.0">
a2</text>
      <circle
         style="stroke:red; stroke-width:1; fill:red; "
         transform=""
         cy="637.795275591"
         cx="0.0"
         r="5"
         id="A.a3"
         d="m 5,637.79529 c 0,2.76142 -2.2385763,5 -5,5 -2.7614237,0 -5,-2.23858 -5,-5 0,-2.76143 2.2385763,-5 5,-5 2.7614237,0 5,2.23857 5,5 z" />
      <text
         style="font-size:30; vertical-align:top; fill-opacity:1.0; fill:darkblue; text-anchor:right; stroke:none; font-weight:normal; font-style:italic; text-align:right; "
         transform=""
         id="A.a3.text"
         y="630.795275591"
         x="7.0">
a3</text>
      <circle
         style="stroke:red; stroke-width:1; fill:red; "
         transform=""
         cy="637.795275591"
         cx="-354.330708661"
         r="5"
         id="A.a4"
         d="m -349.33072,637.79529 c 0,2.76142 -2.23858,5 -5,5 -2.76142,0 -5,-2.23858 -5,-5 0,-2.76143 2.23858,-5 5,-5 2.76142,0 5,2.23857 5,5 z" />
      <text
         style="font-size:30; vertical-align:top; fill-opacity:1.0; fill:darkblue; text-anchor:right; stroke:none; font-weight:normal; font-style:italic; text-align:right; "
         transform=""
         id="A.a4.text"
         y="630.795275591"
         x="-347.330708661">
a4</text>
      <circle
         style="stroke:gray; stroke-width:1; fill:none; "
         transform=""
         cy="-137.927747608"
         cx="-689.110380288"
         r="5"
         id="A.a5.inpoint"
         d="m -684.11035,-137.92775 c 0,2.76142 -2.23858,5 -5,5 -2.76143,0 -5,-2.23858 -5,-5 0,-2.76142 2.23857,-5 5,-5 2.76142,0 5,2.23858 5,5 z" />
      <text
         style="font-size:25; vertical-align:top; fill-opacity:1.0; fill:gray; text-anchor:right; stroke:none; font-weight:normal; font-style:italic; text-align:right; "
         transform=""
         id="A.a5.inpoint.text"
         y="-144.927747608"
         x="-682.110380288">
a5.in</text>
      <circle
         style="stroke:red; stroke-width:1; fill:red; "
         transform=""
         cy="-227.784026997"
         cx="-708.37210871"
         r="5"
         id="A.a5"
         d="m -703.37213,-227.78403 c 0,2.76143 -2.23858,5 -5,5 -2.76143,0 -5,-2.23857 -5,-5 0,-2.76142 2.23857,-5 5,-5 2.76142,0 5,2.23858 5,5 z" />
      <text
         style="font-size:30; vertical-align:top; fill-opacity:1.0; fill:darkblue; text-anchor:right; stroke:none; font-weight:normal; font-style:italic; text-align:right; "
         transform=""
         id="A.a5.text"
         y="-234.784026997"
         x="-701.37210871">
a5</text>
      <circle
         style="stroke:gray; stroke-width:1; fill:none; "
         transform=""
         cy="-158.452633585"
         cx="-292.620059846"
         r="5"
         id="A.a6.outpoint"
         d="m -287.62006,-158.45264 c 0,2.76143 -2.23857,5 -5,5 -2.76142,0 -5,-2.23857 -5,-5 0,-2.76142 2.23858,-5 5,-5 2.76143,0 5,2.23858 5,5 z" />
      <text
         style="font-size:25; vertical-align:top; fill-opacity:1.0; fill:gray; text-anchor:right; stroke:none; font-weight:normal; font-style:italic; text-align:right; "
         transform=""
         id="A.a6.outpoint.text"
         y="-165.452633585"
         x="-285.620059846">
a6.out</text>
      <circle
         style="stroke:red; stroke-width:1; fill:red; "
         transform=""
         cy="-316.905267169"
         cx="-292.620059846"
         r="5"
         id="A.a6"
         d="m -287.62006,-316.90527 c 0,2.76142 -2.23857,5 -5,5 -2.76142,0 -5,-2.23858 -5,-5 0,-2.76143 2.23858,-5 5,-5 2.76143,0 5,2.23857 5,5 z" />
      <text
         style="font-size:30; vertical-align:top; fill-opacity:1.0; fill:darkblue; text-anchor:right; stroke:none; font-weight:normal; font-style:italic; text-align:right; "
         transform=""
         id="A.a6.text"
         y="-323.905267169"
         x="-285.620059846">
a6</text>
      <circle
         style="stroke:gray; stroke-width:1; fill:none; "
         transform=""
         cy="164.548803219"
         cx="-579.216145448"
         r="5"
         id="A.a7.outpoint"
         d="m -574.21613,164.5488 c 0,2.76142 -2.23857,5 -5,5 -2.76142,0 -5,-2.23858 -5,-5 0,-2.76143 2.23858,-5 5,-5 2.76143,0 5,2.23857 5,5 z" />
      <text
         style="font-size:25; vertical-align:top; fill-opacity:1.0; fill:gray; text-anchor:right; stroke:none; font-weight:normal; font-style:italic; text-align:right; "
         transform=""
         id="A.a7.outpoint.text"
         y="157.548803219"
         x="-572.216145448">
a7.out</text>
      <circle
         style="stroke:gray; stroke-width:1; fill:none; "
         transform=""
         cy="398.62472007"
         cx="-718.554964308"
         r="5"
         id="A.a7.inpoint"
         d="m -713.55499,398.62473 c 0,2.76142 -2.23858,5 -5,5 -2.76143,0 -5,-2.23858 -5,-5 0,-2.76143 2.23857,-5 5,-5 2.76142,0 5,2.23857 5,5 z" />
      <text
         style="font-size:25; vertical-align:top; fill-opacity:1.0; fill:gray; text-anchor:right; stroke:none; font-weight:normal; font-style:italic; text-align:right; "
         transform=""
         id="A.a7.inpoint.text"
         y="391.62472007"
         x="-711.554964308">
a7.in</text>
      <circle
         style="stroke:red; stroke-width:1; fill:red; "
         transform=""
         cy="322.480328162"
         cx="-673.228346457"
         r="5"
         id="A.a7"
         d="m -668.22833,322.48032 c 0,2.76142 -2.23858,5 -5,5 -2.76143,0 -5,-2.23858 -5,-5 0,-2.76143 2.23857,-5 5,-5 2.76142,0 5,2.23857 5,5 z" />
      <text
         style="font-size:30; vertical-align:top; fill-opacity:1.0; fill:darkblue; text-anchor:right; stroke:none; font-weight:normal; font-style:italic; text-align:right; "
         transform=""
         id="A.a7.text"
         y="315.480328162"
         x="-666.228346457">
a7</text>
      <circle
         style="stroke:red; stroke-width:1; fill:red; "
         transform=""
         cy="322.480328162"
         cx="0.0"
         r="5"
         id="A.a8"
         d="m 5,322.48032 c 0,2.76142 -2.2385763,5 -5,5 -2.7614237,0 -5,-2.23858 -5,-5 0,-2.76143 2.2385763,-5 5,-5 2.7614237,0 5,2.23857 5,5 z" />
      <text
         style="font-size:30; vertical-align:top; fill-opacity:1.0; fill:darkblue; text-anchor:right; stroke:none; font-weight:normal; font-style:italic; text-align:right; "
         transform=""
         id="A.a8.text"
         y="315.480328162"
         x="7.0">
a8</text>
      <circle
         style="stroke:red; stroke-width:1; fill:red; "
         transform=""
         cy="322.480328162"
         cx="-921.25984252"
         r="5"
         id="A.a9"
         d="m -916.25983,322.48032 c 0,2.76142 -2.23857,5 -5,5 -2.76142,0 -5,-2.23858 -5,-5 0,-2.76143 2.23858,-5 5,-5 2.76143,0 5,2.23857 5,5 z" />
      <text
         style="font-size:30; vertical-align:top; fill-opacity:1.0; fill:darkblue; text-anchor:right; stroke:none; font-weight:normal; font-style:italic; text-align:right; "
         transform=""
         id="A.a9.text"
         y="315.480328162"
         x="-914.25984252">
a9</text>
      <circle
         style="stroke:gray; stroke-width:1; fill:none; "
         transform=""
         cy="446.338685468"
         cx="-837.248847615"
         r="5"
         id="A.a11.outpoint"
         d="m -832.24884,446.33868 c 0,2.76143 -2.23858,5 -5,5 -2.76142,0 -5,-2.23857 -5,-5 0,-2.76142 2.23858,-5 5,-5 2.76142,0 5,2.23858 5,5 z" />
      <text
         style="font-size:25; vertical-align:top; fill-opacity:1.0; fill:gray; text-anchor:right; stroke:none; font-weight:normal; font-style:italic; text-align:right; "
         transform=""
         id="A.a11.outpoint.text"
         y="439.338685468"
         x="-830.248847615">
a11.out</text>
      <circle
         style="stroke:red; stroke-width:1; fill:red; "
         transform=""
         cy="418.1496195"
         cx="-921.25984252"
         r="5"
         id="A.a11"
         d="m -916.25983,418.14963 c 0,2.76142 -2.23857,5 -5,5 -2.76142,0 -5,-2.23858 -5,-5 0,-2.76143 2.23858,-5 5,-5 2.76143,0 5,2.23857 5,5 z" />
      <text
         style="font-size:30; vertical-align:top; fill-opacity:1.0; fill:darkblue; text-anchor:right; stroke:none; font-weight:normal; font-style:italic; text-align:right; "
         transform=""
         id="A.a11.text"
         y="411.1496195"
         x="-914.25984252">
a11</text>
      <circle
         style="stroke:red; stroke-width:1; fill:red; "
         transform=""
         cy="1240.15748031"
         cx="-841.535433071"
         r="5"
         id="A.a12"
         d="m -836.53546,1240.1575 c 0,2.7614 -2.23858,5 -5,5 -2.76143,0 -5,-2.2386 -5,-5 0,-2.7615 2.23857,-5 5,-5 2.76142,0 5,2.2385 5,5 z" />
      <text
         style="font-size:30; vertical-align:top; fill-opacity:1.0; fill:darkblue; text-anchor:right; stroke:none; font-weight:normal; font-style:italic; text-align:right; "
         transform=""
         id="A.a12.text"
         y="1233.15748031"
         x="-834.535433071">
a12</text>
      <circle
         style="stroke:red; stroke-width:1; fill:red; "
         transform=""
         cy="637.795275591"
         cx="-354.330708661"
         r="5"
         id="A.aD1"
         d="m -349.33072,637.79529 c 0,2.76142 -2.23858,5 -5,5 -2.76142,0 -5,-2.23858 -5,-5 0,-2.76143 2.23858,-5 5,-5 2.76142,0 5,2.23857 5,5 z" />
      <text
         style="font-size:30; vertical-align:top; fill-opacity:1.0; fill:darkblue; text-anchor:right; stroke:none; font-weight:normal; font-style:italic; text-align:right; "
         transform=""
         id="A.aD1.text"
         y="630.795275591"
         x="-347.330708661">
aD1</text>
      <circle
         style="stroke:red; stroke-width:1; fill:red; "
         transform=""
         cy="1240.15748031"
         cx="-318.897637795"
         r="5"
         id="A.aD1.i"
         d="m -313.89764,1240.1575 c 0,2.7614 -2.23858,5 -5,5 -2.76143,0 -5,-2.2386 -5,-5 0,-2.7615 2.23857,-5 5,-5 2.76142,0 5,2.2385 5,5 z" />
      <text
         style="font-size:30; vertical-align:top; fill-opacity:1.0; fill:darkblue; text-anchor:right; stroke:none; font-weight:normal; font-style:italic; text-align:right; "
         transform=""
         id="A.aD1.i.text"
         y="1233.15748031"
         x="-311.897637795">
aD1.i</text>
      <circle
         style="stroke:gray; stroke-width:1; fill:none; "
         transform=""
         cy="1206.2584703"
         cx="-560.146025082"
         r="5"
         id="A.aD1.o.outpoint"
         d="m -555.146,1206.2584 c 0,2.7614 -2.23857,5 -5,5 -2.76142,0 -5,-2.2386 -5,-5 0,-2.7614 2.23858,-5 5,-5 2.76143,0 5,2.2386 5,5 z" />
      <text
         style="font-size:25; vertical-align:top; fill-opacity:1.0; fill:gray; text-anchor:right; stroke:none; font-weight:normal; font-style:italic; text-align:right; "
         transform=""
         id="A.aD1.o.outpoint.text"
         y="1199.2584703"
         x="-553.146025082">
aD1.o.out</text>
      <circle
         style="stroke:red; stroke-width:1; fill:red; "
         transform=""
         cy="1228.80323948"
         cx="-476.00780104"
         r="5"
         id="A.aD1.o"
         d="m -471.00781,1228.8032 c 0,2.7614 -2.23858,5 -5,5 -2.76143,0 -5,-2.2386 -5,-5 0,-2.7614 2.23857,-5 5,-5 2.76142,0 5,2.2386 5,5 z" />
      <text
         style="font-size:30; vertical-align:top; fill-opacity:1.0; fill:darkblue; text-anchor:right; stroke:none; font-weight:normal; font-style:italic; text-align:right; "
         transform=""
         id="A.aD1.o.text"
         y="1221.80323948"
         x="-469.00780104">
aD1.o</text>
      <circle
         style="stroke:red; stroke-width:1; fill:red; "
         transform=""
         cy="1022.8138293"
         cx="-1124.14899194"
         r="5"
         id="A.a13"
         d="m -1119.149,1022.8138 c 0,2.7615 -2.2386,5 -5,5 -2.7615,0 -5,-2.2385 -5,-5 0,-2.7614 2.2385,-5 5,-5 2.7614,0 5,2.2386 5,5 z" />
      <text
         style="font-size:30; vertical-align:top; fill-opacity:1.0; fill:darkblue; text-anchor:right; stroke:none; font-weight:normal; font-style:italic; text-align:right; "
         transform=""
         id="A.a13.text"
         y="1015.8138293"
         x="-1117.14899194">
a13</text>
      <circle
         style="stroke:red; stroke-width:1; fill:red; "
         transform=""
         cy="637.795275591"
         cx="-354.330708661"
         r="5"
         id="A.aD2"
         d="m -349.33072,637.79529 c 0,2.76142 -2.23858,5 -5,5 -2.76142,0 -5,-2.23858 -5,-5 0,-2.76143 2.23858,-5 5,-5 2.76142,0 5,2.23857 5,5 z" />
      <text
         style="font-size:30; vertical-align:top; fill-opacity:1.0; fill:darkblue; text-anchor:right; stroke:none; font-weight:normal; font-style:italic; text-align:right; "
         transform=""
         id="A.aD2.text"
         y="630.795275591"
         x="-347.330708661">
aD2</text>
      <circle
         style="stroke:red; stroke-width:1; fill:red; "
         transform=""
         cy="637.795275591"
         cx="-994.959789724"
         r="5"
         id="A.aD2.i"
         d="m -989.95978,637.79529 c 0,2.76142 -2.23857,5 -5,5 -2.76142,0 -5,-2.23858 -5,-5 0,-2.76143 2.23858,-5 5,-5 2.76143,0 5,2.23857 5,5 z" />
      <text
         style="font-size:30; vertical-align:top; fill-opacity:1.0; fill:darkblue; text-anchor:right; stroke:none; font-weight:normal; font-style:italic; text-align:right; "
         transform=""
         id="A.aD2.i.text"
         y="630.795275591"
         x="-987.959789724">
aD2.i</text>
      <circle
         style="stroke:red; stroke-width:1; fill:red; "
         transform=""
         cy="803.602282616"
         cx="-973.130883131"
         r="5"
         id="A.aD2.o"
         d="m -968.13086,803.60229 c 0,2.76143 -2.23858,5 -5,5 -2.76142,0 -5,-2.23857 -5,-5 0,-2.76142 2.23858,-5 5,-5 2.76142,0 5,2.23858 5,5 z" />
      <text
         style="font-size:30; vertical-align:top; fill-opacity:1.0; fill:darkblue; text-anchor:right; stroke:none; font-weight:normal; font-style:italic; text-align:right; "
         transform=""
         id="A.aD2.o.text"
         y="796.602282616"
         x="-966.130883131">
aD2.o</text>
      <circle
         style="stroke:gray; stroke-width:1; fill:none; "
         transform=""
         cy="1214.32984287"
         cx="-911.328656004"
         r="5"
         id="A.a14.inpoint"
         d="m -906.32867,1214.3298 c 0,2.7615 -2.23858,5 -5,5 -2.76143,0 -5,-2.2385 -5,-5 0,-2.7614 2.23857,-5 5,-5 2.76142,0 5,2.2386 5,5 z" />
      <text
         style="font-size:25; vertical-align:top; fill-opacity:1.0; fill:gray; text-anchor:right; stroke:none; font-weight:normal; font-style:italic; text-align:right; "
         transform=""
         id="A.a14.inpoint.text"
         y="1207.32984287"
         x="-904.328656004">
a14.in</text>
      <circle
         style="stroke:red; stroke-width:1; fill:red; "
         transform=""
         cy="1208.9382732"
         cx="-998.267935614"
         r="5"
         id="A.a14"
         d="m -993.26794,1208.9382 c 0,2.7615 -2.23858,5 -5,5 -2.76146,0 -4.99996,-2.2385 -4.99996,-5 0,-2.7614 2.2385,-5 4.99996,-5 2.76142,0 5,2.2386 5,5 z" />
      <text
         style="font-size:30; vertical-align:top; fill-opacity:1.0; fill:darkblue; text-anchor:right; stroke:none; font-weight:normal; font-style:italic; text-align:right; "
         transform=""
         id="A.a14.text"
         y="1201.9382732"
         x="-991.267935614">
a14</text>
      <path
         style="stroke-linejoin:miter; stroke-dashoffset:0; stroke:gray; stroke-miterlimit:4; stroke-dasharray:6,6; stroke-width:2; fill:none; "
         transform=""
         d="M 0.0  0.0 L 0.0  1240.15748031 L -708.37210871  -227.784026997 M 0.0  322.480328162 L -921.25984252  322.480328162 M 0.0  0.0 L -708.37210871  -227.784026997 M 0.0  637.795275591 L -354.330708661  637.795275591 M 0.0  1240.15748031 L -841.535433071  1240.15748031 M -354.330708661  637.795275591 L -292.620059846  -316.905267169 L -673.228346457  322.480328162 M -921.25984252  418.1496195 L -1124.14899194  1022.8138293 "
         id="A.gridline" />
    </g>
  </g>
</svg>
