<?xml version="1.0" encoding="UTF-8" standalone="no"?>
<svg xmlns:dc="http://purl.org/dc/elements/1.1/" xmlns:cc="http://creativecommons.org/ns#" xmlns:rdf="http://www.w3.org/1999/02/22-rdf-syntax-ns#" xmlns:svg="http://www.w3.org/2000/svg" xmlns="http://www.w3.org/2000/svg" xmlns:sodipodi="http://sodipodi.sourceforge.net/DTD/sodipodi-0.dtd" xmlns:inkscape="http://www.inkscape.org/namespaces/inkscape" patternNumber="HM_1" fitBoxtoViewport="True" companyName="Seamly Patterns" currentscale="0.5:1" margin-right="88.5826771654" client-name="DressFormLg" designerName="S.L.Spencer" height="7871.8574" width="3030.7766" margin-top="88.5826771654" version="1.1" margin-bottom="88.5826771654" margin-left="88.5826771654" preserveAspectRatio="xMidYMid meet" id="svg2" inkscape:version="0.48.4 r9939" sodipodi:docname="Victor_single_breasted_dinner_jacket_tuxedo_1880_2015-01-19.svg">
  <metadata id="metadata554">
    <rdf:RDF>
      <cc:Work rdf:about="">
        <dc:format>image/svg+xml</dc:format>
        <dc:type rdf:resource="http://purl.org/dc/dcmitype/StillImage" />
        <dc:title></dc:title>
      </cc:Work>
    </rdf:RDF>
  </metadata>
  <sodipodi:namedview id="base" pagecolor="#ffffff" bordercolor="#666666" borderopacity="1.0" inkscape:pageopacity="0.0" inkscape:pageshadow="2" inkscape:zoom="0.11255285" inkscape:document-units="pt" showgrid="false" inkscape:window-maximized="1" inkscape:cx="1515.3883" inkscape:cy="3936.3047" inkscape:window-width="1855" inkscape:window-height="1056" inkscape:window-x="65" inkscape:window-y="24" inkscape:current-layer="pattern" units="in" fit-margin-left="1" fit-margin-top="1" fit-margin-right="1" fit-margin-bottom="1" />
  <defs id="defs5">
    <marker inkscape:stockid="DotL" orient="auto" refY="0" refX="0" id="DotL" style="overflow:visible">
      <path id="path6049" d="M -2.5,-1 C -2.5,1.76 -4.74,4 -7.5,4 -10.26,4 -12.5,1.76 -12.5,-1 -12.5,-3.76 -10.26,-6 -7.5,-6 -4.74,-6 -2.5,-3.76 -2.5,-1 z" style="fill-rule:evenodd;stroke:#000000;stroke-width:1pt" transform="matrix(0.8,0,0,0.8,5.92,0.8)" inkscape:connector-curvature="0" />
    </marker>
    <marker inkscape:stockid="Arrow1Lend" orient="auto" refY="0" refX="0" id="Arrow1Lend" style="overflow:visible">
      <path id="path5991" d="M 0,0 5,-5 -12.5,0 5,5 0,0 z" style="fill-rule:evenodd;stroke:#000000;stroke-width:1pt" transform="matrix(-0.8,0,0,-0.8,-10,0)" inkscape:connector-curvature="0" />
    </marker>
    <marker inkscape:stockid="DotM" orient="auto" refY="0" refX="0" id="DotM" style="overflow:visible">
      <path id="path6052" d="M -2.5,-1 C -2.5,1.76 -4.74,4 -7.5,4 -10.26,4 -12.5,1.76 -12.5,-1 -12.5,-3.76 -10.26,-6 -7.5,-6 -4.74,-6 -2.5,-3.76 -2.5,-1 z" style="fill-rule:evenodd;stroke:#000000;stroke-width:1pt" transform="matrix(0.4,0,0,0.4,2.96,0.4)" inkscape:connector-curvature="0" />
    </marker>
    <marker inkscape:stockid="Arrow2Lend" orient="auto" refY="0" refX="0" id="Arrow2Lend" style="overflow:visible">
      <path id="path6009" style="fill-rule:evenodd;stroke-width:0.625;stroke-linejoin:round" d="M 8.7185878,4.0337352 -2.2072895,0.01601326 8.7185884,-4.0017078 C 6.97309,-1.6296469 6.9831476,1.6157441 8.7185878,4.0337352 z" transform="matrix(-1.1,0,0,-1.1,-1.1,0)" inkscape:connector-curvature="0" />
    </marker>
    <marker style="overflow:visible" id="Arrow1Mstart" refX="0" refY="0" orient="auto" inkscape:stockid="Arrow1Mstart">
      <path transform="matrix(0.4,0,0,0.4,4,0)" style="fill-rule:evenodd;stroke:#000000;stroke-width:1pt;marker-start:none" d="M 0,0 5,-5 -12.5,0 5,5 0,0 z" id="path8" inkscape:connector-curvature="0" />
    </marker>
    <marker style="overflow:visible" id="Arrow1Mend" refX="0" refY="0" orient="auto" inkscape:stockid="Arrow1Mend">
      <path transform="matrix(-0.4,0,0,-0.4,-4,0)" style="fill-rule:evenodd;stroke:#000000;stroke-width:1pt;marker-start:none" d="M 0,0 5,-5 -12.5,0 5,5 0,0 z" id="path11" inkscape:connector-curvature="0" />
    </marker>
  </defs>
  <g inkscape:label="Label-pattern" id="pattern" inkscape:groupmode="layer" transform="translate(33.317889,72.025901)">
    <path style="fill:none;stroke:#008000;stroke-width:4;stroke-linejoin:miter;stroke-miterlimit:4" d="M 290.15625,438.875 C 278.54049,482.10718 244.80954,515.55981 207.36149,538.02069 162.64421,564.82385 110.88956,579.74856 58.78125,580.71875 58.950568,681.21711 58.18119,781.72763 59.318262,882.21806 63.661976,1012.2455 87.097563,1140.801 100.03298,1270.1743 126.89982,1508.919 151.28632,1748.7125 146.96875,1989.3438 143.73513,2255.8393 123.37263,2521.7994 119.32454,2788.2133 116.85406,2899.767 114.35843,3011.3202 111.9375,3122.875 312.6875,3122.875 513.4375,3122.875 714.1875,3122.875 710.75673,2971.2627 708.01098,2819.6488 703.71433,2668.097 693.3102,2395.8447 654.11891,2124.5619 662.24832,1851.5961 670.06873,1589.793 715.3023,1331.2965 754.29906,1072.8595 758.61452,1044.2349 763.61398,1015.6268 767.21875,986.9375 755.26366,894.98408 758.6817,801.42222 774.24237,710.09815 781.53926,664.35058 791.30184,619.01409 802.71875,574.125 631.87839,529.04043 460.94647,483.8934 290.15625,438.875 z" id="A.cuttingline" inkscape:connector-curvature="0" />
    <g transform="matrix(10,0,0,10,-14740.157,-1814.2256)" id="B.letter" />
    <g id="g4861" transform="translate(-1315.0082,-2755.0059)">
      <path style="opacity:0.5;fill:none;stroke:#006400;stroke-width:2.5;stroke-linejoin:miter;stroke-miterlimit:4;stroke-dasharray:none" d="M 1714.5992,6430.9569 C 1828.9507,6597.2321 1990.9371,6739.3287 2057.6538,6929.7824" id="C.foldline" inkscape:connector-curvature="0" />
      <path inkscape:connector-curvature="0" id="C.cuttingline" d="M 1833.8125,6323.2188 C 1792.7832,6359.8296 1752.7104,6397.481 1711.1369,6433.3572 1683.1175,6452.6418 1655.0767,6471.8953 1627.0625,6491.1875 1681.7829,6570.3324 1735.5289,6650.2688 1791.2182,6728.7426 1838.0809,6792.5692 1890.6211,6854.8313 1959.2812,6895.9375 1990.6756,6914.3856 2025.6155,6926.6124 2061.875,6930.6562 2167.0957,6952.4279 2272.3171,6974.1967 2377.5312,6996 2340.3977,6903.1689 2285.9371,6817.8108 2223.8913,6739.7708 2114.5928,6601.9425 1983.711,6483.8765 1863.875,6355.6562 1853.8014,6344.9193 1843.7271,6334.0017 1833.8125,6323.2188 z" style="fill:none;stroke:#008000;stroke-width:4;stroke-linejoin:miter;stroke-miterlimit:4" />
    </g>
    <g transform="matrix(3,0,0,3,-3788.8263,8110.2319)" id="D.letter" />
    <g id="g4867" transform="translate(-708.27325,-3947.5818)">
      <path style="opacity:0.5;fill:none;stroke:#006400;stroke-width:2.5;stroke-linejoin:miter;stroke-miterlimit:4;stroke-dasharray:none" d="M 1714.5992,7272.6228 C 1828.9507,7438.898 1990.9371,7580.9946 2057.6538,7771.4483 L 2462.5984,8980.6228" id="D.foldline" inkscape:connector-curvature="0" />
      <path inkscape:connector-curvature="0" id="D.cuttingline" d="M 1833.875,7164.8438 C 1792.8617,7201.4679 1752.7465,7239.1309 1711.1369,7275.0134 1653.9544,7314.3863 1596.5835,7353.7305 1539.5,7393.0938 1612.0348,7498.7893 1676.0641,7610.2059 1731.6485,7725.6631 1863.2728,7998.864 1948.5738,8293.7165 1989.1921,8593.9874 2008.6108,8737.8049 2016.9006,8883.0382 2015.2812,9028.1562 2015.2813,9462.6042 2015.2812,9897.0521 2015.2812,10331.5 2068.4024,10334.759 2123.0332,10327.912 2171.4062,10304.562 2225.3651,10279.613 2268.2095,10234.954 2298.9058,10184.809 2344.7584,10109.959 2368.9674,10024.286 2387.25,9939.125 2414.0764,9807.7979 2424.7175,9674.0489 2433.6846,9540.5233 2442.0372,9405.5749 2447.8259,9270.3173 2454.8475,9135.2512 2460.098,9023.9911 2466.6743,8912.7883 2472.3945,8801.5994 2480.1373,8640.354 2482.4318,8478.4709 2468.2188,8317.5625 2456.9723,8168.1625 2441.6269,8017.2159 2391.5938,7875.0312 2359.5992,7783.0914 2311.0687,7697.5253 2253.107,7619.5686 2130.5173,7454.0373 1973.7958,7319.1151 1835.9071,7166.9351 1835.2871,7166.3442 1834.4698,7165.2032 1833.875,7164.8438 z" style="fill:none;stroke:#008000;stroke-width:4;stroke-linejoin:miter;stroke-miterlimit:4" />
    </g>
    <path style="fill:none;stroke:#008000;stroke-width:4;stroke-linejoin:miter;stroke-miterlimit:4" d="M 166.71212,3510.2644 C 289.14282,3517.3454 411.53142,3525.3034 534.01972,3531.2884 573.65212,3532.4644 614.23691,3535.3714 652.93087,3524.8894 670.36584,3519.5354 685.79638,3507.0474 692.05587,3489.6084 704.00352,3458.5634 703.28,3424.5534 706.05131,3391.8324 707.5867,3384.9714 706.74767,3380.1874 698.63216,3381.8894 524.44938,3371.6574 350.26798,3361.4034 176.08712,3351.1394 172.96212,3404.1814 169.83712,3457.2234 166.71212,3510.2644 z" id="E.cuttingline" inkscape:connector-curvature="0" />
    <path style="fill:none;stroke:#008000;stroke-width:4;stroke-linejoin:miter;stroke-miterlimit:4" d="M 2214.2958,3346.1208 C 2125.6881,3346.5708 2035.8222,3368.5668 1961.5224,3418.1068 1924.0094,3442.7898 1890.9006,3473.5808 1860.8895,3506.8708 1861.0344,3731.2448 1860.5308,3955.6218 1861.1101,4179.9948 1862.5319,4354.7468 1870.3104,4530.0788 1903.6075,4702.0308 1953.6417,4971.0708 2037.1707,5231.9468 2121.0666,5491.8308 2122.9242,5497.5838 2124.7819,5503.3368 2126.6395,5509.0898 2333.0341,5475.8008 2539.4299,5442.5188 2745.827,5409.2458 2691.2949,5150.9108 2636.4999,4890.5308 2628.4295,4625.8128 2620.4959,4376.0108 2648.2619,4127.0218 2675.8582,3879.2138 2654.7781,3767.0728 2625.5305,3655.0178 2570.452,3554.2768 2534.7086,3489.5698 2485.381,3429.9168 2420.6395,3392.5898 2365.9618,3360.4758 2302.3461,3346.9338 2239.3596,3346.2798 2231.0074,3346.0808 2222.6497,3345.9818 2214.2958,3346.1208 z" id="F.cuttingline" inkscape:connector-curvature="0" />
    <g transform="matrix(10,0,0,10,1184.7648,4941.6956)" id="G.letter" />
    <path style="fill:none;stroke:#008000;stroke-width:4;stroke-linejoin:miter;stroke-miterlimit:4" d="M 175.73001,4063.3049 C 162.24011,4319.5229 148.46391,4575.9179 148.30451,4832.5859 148.60491,4933.3629 150.38101,5034.2499 162.41751,5134.3369 171.68971,5202.0319 186.14951,5268.9489 200.63391,5335.7159 252.39881,5566.9289 325.23231,5792.4649 397.98001,6017.7109 604.37461,5984.4229 810.77041,5951.1409 1017.1675,5917.8679 963.02431,5661.0809 908.51861,5402.5659 899.94211,5139.3689 891.52291,4887.9049 919.40771,4637.2659 947.23001,4387.7739 863.78931,4410.3199 779.19011,4433.0869 692.26131,4435.2219 634.33631,4436.6459 575.13521,4426.1589 524.18051,4397.6209 429.62391,4347.4429 355.15201,4267.3009 291.69541,4182.5339 251.42081,4128.6999 214.63941,4072.3199 178.29251,4015.7429 177.43831,4031.5969 176.58421,4047.4509 175.73001,4063.3049 z" id="G.cuttingline" inkscape:connector-curvature="0" />
    <g id="g4836" transform="translate(-5.2078917,-2932.0429)">
      <path style="opacity:0.5;fill:none;stroke:#006400;stroke-width:2.5;stroke-linejoin:miter;stroke-miterlimit:4;stroke-dasharray:none" d="M 1329.1988,5117.5314 1859.7777,5148.7419" id="B.foldline" inkscape:connector-curvature="0" sodipodi:nodetypes="cc" />
      <path style="fill:none;stroke:#008000;stroke-width:3;stroke-linejoin:miter;stroke-miterlimit:4;stroke-dasharray:none;stroke-dashoffset:0" d="M 2217.0578,3582.0522 2188.3824,3913.3049 2271.1887,3590.9775 M 1399.6063,4158.7272 C 1415.2293,4370.9754 1448.5505,4581.6731 1464.1734,4793.9214 1472.2748,4903.984 1462.5964,5014.8715 1453.0005,5124.8138 1427.4102,5017.4614 1401.5999,4909.1861 1393.4985,4799.1235 1377.8119,4586.0109 1379.8598,4371.8398 1364.1733,4158.7272 L 1364.3613,4149.0393 C 1349.802,4148.8479 1369.8457,4149.561 1355.5625,4147.625 1285.8555,4137.7581 1217.3391,4109.7496 1165.7537,4060.9884 1130.0904,4026.5082 1106.6915,3980.1506 1098.4375,3931.375 1093.2039,3953.0792 1090.3052,3975.4148 1086.1539,3997.3966 1069.6812,4091.8415 1056.5803,4187.2091 1056.0816,4283.1869 1053.2493,4470.8978 1079.2791,4658.5646 1064.7008,4846.2468 1045.5769,5087.3125 969.57921,5319.0774 934.21875,5557.3438 922.11353,5634.458 917.48835,5712.4078 910.10239,5790.1226 902.00219,5881.1638 893.92289,5972.2069 885.84375,6063.25 1267.1702,6085.5449 1648.4708,6108.3484 2029.8125,6130.3438 2096.5134,6132.4866 2165.2853,6115.4658 2218.5533,6074.1232 2276.6047,6029.6914 2314.7007,5964.6165 2341.0472,5897.4836 2377.5362,5804.4955 2395.4168,5705.7569 2408.8906,5607.1703 2431.7806,5434.2627 2437.9724,5259.7652 2447.3012,5085.6701 2452.6761,4980.5571 2457.317,4875.3858 2463.489,4770.3277 2485.0966,4557.8455 2506.0573,4344.5369 2497.1608,4130.6913 2492.4697,3982.7737 2485.2097,3833.267 2444.6175,3690.1236 2439.3147,3670.9708 2433.0629,3652.1 2426.6875,3633.2812 2396.0542,3625.3916 2303.5303,3600.1888 2272.9183,3592.1873 L 2186.8599,3909.0673 2215.1391,3584.1209 C 2183.4783,3581.4074 2084.6294,3572.0287 2053.0303,3568.8182 2010.8297,3559.8127 1976.1056,3530.4143 1951.4379,3496.0779 1911.7307,3440.8354 1889.5196,3374.8995 1877.875,3308.375 1787.1979,3323.1042 1696.5208,3337.8333 1605.8438,3352.5625 1533.7507,3364.2854 1461.6583,3376.0123 1389.5625,3387.7188 1398.3679,3442.8825 1426.3373,3492.5425 1456.6875,3538.5625 1492.6588,3593.6898 1534.2182,3646.1426 1559.4104,3707.5554 1583.5223,3766.255 1600.5408,3828.0799 1608.1875,3891.125 1613.2366,3938.6696 1612.8066,3988.1204 1597.0312,4033.75 1584.3305,4070.3754 1559.1863,4103.1165 1524.75,4121.625 1499.2775,4136.1268 1427.3436,4144.5628 1398.5565,4148.4054 z" id="B.dartline" inkscape:connector-curvature="0" sodipodi:nodetypes="ccccscsccccccccccccccccccccccccccccccccccc" />
      <g transform="translate(-1817.5541,-3083.0718)" id="g4814">
        <path sodipodi:nodetypes="cc" inkscape:connector-curvature="0" id="D.foldline-4" d="M 3876.3901,6655.8698 4281.3347,7865.0443" style="opacity:0.5;fill:none;stroke:#006400;stroke-width:2.5;stroke-linejoin:miter;stroke-miterlimit:4;stroke-dasharray:none" />
      </g>
    </g>
    <text xml:space="preserve" style="font-size:40px;font-style:normal;font-variant:normal;font-weight:normal;font-stretch:normal;text-align:start;line-height:125%;letter-spacing:0px;word-spacing:0px;writing-mode:lr-tb;text-anchor:start;fill:#000000;fill-opacity:1;stroke:none;font-family:Nimbus Sans L;-inkscape-font-specification:Nimbus Sans L" x="-1666.5253" y="1706.3855" id="text5704" sodipodi:linespacing="125%" transform="translate(-88.582677,-88.582677)"><tspan sodipodi:role="line" id="tspan5706" x="-1666.5253" y="1706.3855" /></text>
    <text xml:space="preserve" style="font-size:40px;font-style:normal;font-variant:normal;font-weight:normal;font-stretch:normal;text-align:start;line-height:125%;letter-spacing:0px;word-spacing:0px;writing-mode:lr-tb;text-anchor:start;fill:#000000;fill-opacity:1;stroke:none;font-family:Nimbus Sans L;-inkscape-font-specification:Nimbus Sans L" x="255.18669" y="1175.1805" id="text5708" sodipodi:linespacing="125%" transform="translate(-88.582677,-88.582677)"><tspan sodipodi:role="line" id="tspan5710" x="255.18669" y="1175.1805" style="font-size:64px">Jacket Back</tspan></text>
    <text xml:space="preserve" style="font-size:40px;font-style:normal;font-variant:normal;font-weight:normal;font-stretch:normal;text-align:start;line-height:125%;letter-spacing:0px;word-spacing:0px;writing-mode:lr-tb;text-anchor:start;fill:#000000;fill-opacity:1;stroke:none;font-family:Nimbus Sans L;-inkscape-font-specification:Nimbus Sans L" x="1734.2279" y="1669.9302" id="text5712" sodipodi:linespacing="125%" transform="translate(-88.582677,-88.582677)"><tspan sodipodi:role="line" id="tspan5714" x="1734.2279" y="1669.9302" style="font-size:64px">Jacket Front</tspan></text>
    <text xml:space="preserve" style="font-size:40px;font-style:normal;font-variant:normal;font-weight:normal;font-stretch:normal;text-align:start;line-height:125%;letter-spacing:0px;word-spacing:0px;writing-mode:lr-tb;text-anchor:start;fill:#000000;fill-opacity:1;stroke:none;font-family:Nimbus Sans L;-inkscape-font-specification:Nimbus Sans L" x="1911.2961" y="1888.6617" id="text5716" sodipodi:linespacing="125%" transform="translate(-88.582677,-88.582677)"><tspan sodipodi:role="line" id="tspan5718" x="1911.2961" y="1888.6617" /></text>
    <text xml:space="preserve" style="font-size:40px;font-style:normal;font-variant:normal;font-weight:normal;font-stretch:normal;text-align:start;line-height:125%;letter-spacing:0px;word-spacing:0px;writing-mode:lr-tb;text-anchor:start;fill:#000000;fill-opacity:1;stroke:none;font-family:Nimbus Sans L;-inkscape-font-specification:Nimbus Sans L" x="1652.0538" y="-1822.2627" id="text5720" sodipodi:linespacing="125%" transform="matrix(0.28386329,0.95886476,-0.95886476,0.28386329,0,0)" inkscape:transform-center-x="224.15835" inkscape:transform-center-y="-23.434282"><tspan sodipodi:role="line" id="tspan5722" x="1652.0538" y="-1822.2627">Roll Line</tspan></text>
    <text xml:space="preserve" style="font-size:40px;font-style:normal;font-variant:normal;font-weight:normal;font-stretch:normal;text-align:start;line-height:125%;letter-spacing:0px;word-spacing:0px;writing-mode:lr-tb;text-anchor:start;fill:#000000;fill-opacity:1;stroke:none;font-family:Nimbus Sans L;-inkscape-font-specification:Nimbus Sans L" x="1609.2474" y="2173.584" id="text5724" sodipodi:linespacing="125%" transform="matrix(0.9990193,0.04427691,-0.04427691,0.9990193,0,0)"><tspan sodipodi:role="line" id="tspan5726" x="1609.2474" y="2173.584">Pocket Line</tspan></text>
    <text xml:space="preserve" style="font-size:40px;font-style:normal;font-variant:normal;font-weight:normal;font-stretch:normal;text-align:start;line-height:125%;letter-spacing:0px;word-spacing:0px;writing-mode:lr-tb;text-anchor:start;fill:#000000;fill-opacity:1;stroke:none;font-family:Nimbus Sans L;-inkscape-font-specification:Nimbus Sans L" x="343.2988" y="3422.9529" id="text5728" sodipodi:linespacing="125%" transform="matrix(0.99938285,0.03512708,-0.03512708,0.99938285,0,0)"><tspan sodipodi:role="line" id="tspan5730" x="343.2988" y="3422.9529" style="font-size:64px">Pocket Flap</tspan></text>
    <text xml:space="preserve" style="font-size:40px;font-style:normal;font-variant:normal;font-weight:normal;font-stretch:normal;text-align:start;line-height:125%;letter-spacing:0px;word-spacing:0px;writing-mode:lr-tb;text-anchor:start;fill:#000000;fill-opacity:1;stroke:none;font-family:Nimbus Sans L;-inkscape-font-specification:Nimbus Sans L" x="440.49185" y="3810.4927" id="text5732" sodipodi:linespacing="125%" transform="matrix(0.99997917,0.00645513,-0.00645513,0.99997917,0,0)"><tspan sodipodi:role="line" id="tspan5734" x="440.49185" y="3810.4927" style="font-size:56px">Undercollar</tspan></text>
    <text xml:space="preserve" style="font-size:40px;font-style:normal;font-variant:normal;font-weight:normal;font-stretch:normal;text-align:start;line-height:125%;letter-spacing:0px;word-spacing:0px;writing-mode:lr-tb;text-anchor:start;fill:#000000;fill-opacity:1;stroke:none;font-family:Nimbus Sans L;-inkscape-font-specification:Nimbus Sans L" x="3681.8601" y="1465.2614" id="text5720-9" sodipodi:linespacing="125%" transform="matrix(0.50892053,0.86081351,-0.86081351,0.50892053,0,0)" inkscape:transform-center-x="222.88234" inkscape:transform-center-y="31.103737"><tspan sodipodi:role="line" id="tspan5722-4" x="3681.8601" y="1465.2614">Roll Line</tspan></text>
    <text xml:space="preserve" style="font-size:40px;font-style:normal;font-variant:normal;font-weight:normal;font-stretch:normal;text-align:start;line-height:125%;letter-spacing:0px;word-spacing:0px;writing-mode:lr-tb;text-anchor:start;fill:#000000;fill-opacity:1;stroke:none;font-family:Nimbus Sans L;-inkscape-font-specification:Nimbus Sans L" x="4324.5073" y="-243.32805" id="text5720-5" sodipodi:linespacing="125%" transform="matrix(0.28386329,0.95886476,-0.95886476,0.28386329,0,0)" inkscape:transform-center-x="224.15835" inkscape:transform-center-y="-23.434282"><tspan sodipodi:role="line" id="tspan5722-1" x="4324.5073" y="-243.32805">Roll Line</tspan></text>
    <text xml:space="preserve" style="font-size:40px;font-style:normal;font-variant:normal;font-weight:normal;font-stretch:normal;text-align:start;line-height:125%;letter-spacing:0px;word-spacing:0px;writing-mode:lr-tb;text-anchor:start;fill:#000000;fill-opacity:1;stroke:none;font-family:Nimbus Sans L;-inkscape-font-specification:Nimbus Sans L" x="1325.9647" y="4594.4912" id="text5766" sodipodi:linespacing="125%"><tspan sodipodi:role="line" id="tspan5768" x="1325.9647" y="4594.4912" style="font-size:64px">Upper Collar</tspan></text>
    <text xml:space="preserve" style="font-size:40px;font-style:normal;font-variant:normal;font-weight:normal;font-stretch:normal;text-align:start;line-height:125%;letter-spacing:0px;word-spacing:0px;writing-mode:lr-tb;text-anchor:start;fill:#000000;fill-opacity:1;stroke:none;font-family:Nimbus Sans L;-inkscape-font-specification:Nimbus Sans L" x="2244.939" y="4232.5142" id="text5789" sodipodi:linespacing="125%" transform="translate(-88.582677,-88.582677)"><tspan sodipodi:role="line" id="tspan5791" x="2244.939" y="4232.5142" style="font-size:64px">Upper Sleeve</tspan></text>
    <text xml:space="preserve" style="font-size:40px;font-style:normal;font-variant:normal;font-weight:normal;font-stretch:normal;text-align:start;line-height:125%;letter-spacing:0px;word-spacing:0px;writing-mode:lr-tb;text-anchor:start;fill:#000000;fill-opacity:1;stroke:none;font-family:Nimbus Sans L;-inkscape-font-specification:Nimbus Sans L" x="366.73447" y="4939.7881" id="text5793" sodipodi:linespacing="125%" transform="translate(-88.582677,-88.582677)"><tspan sodipodi:role="line" id="tspan5795" x="366.73447" y="4939.7881" style="font-size:64px">Under Sleeve</tspan></text>
    <text xml:space="preserve" style="font-size:40px;font-style:normal;font-variant:normal;font-weight:normal;font-stretch:normal;text-align:start;line-height:125%;letter-spacing:0px;word-spacing:0px;writing-mode:lr-tb;text-anchor:start;fill:#000000;fill-opacity:1;stroke:none;font-family:Nimbus Sans L;-inkscape-font-specification:Nimbus Sans L" x="159.79144" y="6697.4941" id="text5797" sodipodi:linespacing="125%" transform="translate(-88.582677,-88.582677)"><tspan sodipodi:role="line" id="tspan5799" x="159.79144" y="6697.4941">Instructions:</tspan><tspan sodipodi:role="line" x="159.79144" y="6747.4941" id="tspan5801" /><tspan sodipodi:role="line" x="159.79144" y="6797.4941" id="tspan7421">Jacket Right pieces are shown above.</tspan><tspan sodipodi:role="line" x="159.79144" y="6847.4941" id="tspan7423">1. Make mirror copy of Jacket Right pieces for Jacket Left pieces</tspan><tspan sodipodi:role="line" x="159.79144" y="6897.4941" id="tspan5803">2. Sew Left &amp; Right Jacket Backs together down Center Back seam</tspan><tspan sodipodi:role="line" x="159.79144" y="6947.4941" id="tspan7431" /><tspan sodipodi:role="line" x="159.79144" y="6997.4941" id="tspan7429">For each Left &amp; Right side:</tspan><tspan sodipodi:role="line" x="159.79144" y="7047.4941" id="tspan5954">3. Sew Pocket Flap to Jacket Front along Pocket Line</tspan><tspan sodipodi:role="line" x="159.79144" y="7097.4941" id="tspan5834">4. Sew Jacket Front side dart</tspan><tspan sodipodi:role="line" x="159.79144" y="7147.4941" id="tspan5836">5. Sew Jacket Front lapel dart</tspan><tspan sodipodi:role="line" x="159.79144" y="7197.4941" id="tspan7419">6. Sew Jacket Front &amp; Back together at Shoulder seam</tspan><tspan sodipodi:role="line" x="159.79144" y="7247.4941" id="tspan5956" /><tspan sodipodi:role="line" x="159.79144" y="7297.4941" id="tspan5960">7. Sew Left &amp; Right Under Collars together down Center Back Neck seam</tspan><tspan sodipodi:role="line" x="159.79144" y="7347.4941" id="tspan5962">8. Sew Left &amp; Right Upper Collars together down Center Back Neck seam</tspan><tspan sodipodi:role="line" x="159.79144" y="7397.4941" id="tspan5964">9. Sew Under Collar to Jacket neck along curved Neck seam, matching seams at Center Back, ending at Lapel Points</tspan><tspan sodipodi:role="line" x="159.79144" y="7447.4941" id="tspan7396">10. Sew Upper Collar to Under Collar along Lapel seam, matching seams at Center Back. At Lapel points, continue sewing down Lapel seam to bottom of jacket </tspan><tspan sodipodi:role="line" x="159.79144" y="7497.4941" id="tspan5958" /><tspan sodipodi:role="line" x="159.79144" y="7547.4941" id="tspan5838" /><tspan sodipodi:role="line" x="159.79144" y="7597.4941" id="tspan5865">11. Sew Jacket Front &amp; Back together at Left &amp; Right Side seams</tspan><tspan sodipodi:role="line" x="159.79144" y="7647.4941" id="tspan5867" /><tspan sodipodi:role="line" x="159.79144" y="7697.4941" id="tspan5869">For each Left &amp; Right sleeve:</tspan><tspan sodipodi:role="line" x="159.79144" y="7747.4941" id="tspan7439">12. Sew Upper Sleeve to Under Sleeve down front &amp; back seams</tspan><tspan sodipodi:role="line" x="159.79144" y="7797.4941" id="tspan5950">13. Sew Sleeve to Jacket armhole</tspan><tspan sodipodi:role="line" x="159.79144" y="7847.4941" id="tspan5952" /></text>
    <text xml:space="preserve" style="font-size:40px;font-style:normal;font-variant:normal;font-weight:normal;font-stretch:normal;text-align:start;line-height:125%;letter-spacing:0px;word-spacing:0px;writing-mode:lr-tb;text-anchor:start;fill:#000000;fill-opacity:1;stroke:none;font-family:Nimbus Sans L;-inkscape-font-specification:Nimbus Sans L" x="1650.3679" y="-140.96333" id="text5805" sodipodi:linespacing="125%" transform="matrix(0.01533984,0.99988234,-0.99988234,0.01533984,0,0)"><tspan sodipodi:role="line" id="tspan5807" x="1650.3679" y="-140.96333">Center Back</tspan></text>
    <text xml:space="preserve" style="font-size:40px;font-style:normal;font-variant:normal;font-weight:normal;font-stretch:normal;text-align:start;line-height:125%;letter-spacing:0px;word-spacing:0px;writing-mode:lr-tb;text-anchor:start;fill:#000000;fill-opacity:1;stroke:none;font-family:Nimbus Sans L;-inkscape-font-specification:Nimbus Sans L" x="-1622.7565" y="863.03412" id="text5809" sodipodi:linespacing="125%" transform="matrix(0.13821647,-0.99040204,0.99040204,0.13821647,0,0)"><tspan sodipodi:role="line" id="tspan5811" x="-1622.7565" y="863.03412">Side</tspan></text>
    <text xml:space="preserve" style="font-size:40px;font-style:normal;font-variant:normal;font-weight:normal;font-stretch:normal;text-align:start;line-height:125%;letter-spacing:0px;word-spacing:0px;writing-mode:lr-tb;text-anchor:start;fill:#000000;fill-opacity:1;stroke:none;font-family:Nimbus Sans L;-inkscape-font-specification:Nimbus Sans L" x="1592.9735" y="-1017.8333" id="text5809-4" sodipodi:linespacing="125%" transform="matrix(0.03785586,0.99928321,-0.99928321,0.03785586,0,0)"><tspan sodipodi:role="line" id="tspan5811-2" x="1592.9735" y="-1017.8333">Side </tspan></text>
    <text xml:space="preserve" style="font-size:40px;font-style:normal;font-variant:normal;font-weight:normal;font-stretch:normal;text-align:start;line-height:125%;letter-spacing:0px;word-spacing:0px;writing-mode:lr-tb;text-anchor:start;fill:#000000;fill-opacity:1;stroke:none;font-family:Nimbus Sans L;-inkscape-font-specification:Nimbus Sans L" x="456.9032" y="443.53201" id="text5840" sodipodi:linespacing="125%" transform="matrix(0.98330654,0.1819567,-0.1819567,0.98330654,0,0)"><tspan sodipodi:role="line" id="tspan5842" x="456.9032" y="443.53201">Shoulder</tspan></text>
    <text xml:space="preserve" style="font-size:40px;font-style:normal;font-variant:normal;font-weight:normal;font-stretch:normal;text-align:start;line-height:125%;letter-spacing:0px;word-spacing:0px;writing-mode:lr-tb;text-anchor:start;fill:#000000;fill-opacity:1;stroke:none;font-family:Nimbus Sans L;-inkscape-font-specification:Nimbus Sans L" x="1463.3413" y="619.71722" id="text5840-1" sodipodi:linespacing="125%" transform="matrix(0.99562877,-0.09339893,0.09339893,0.99562877,0,0)"><tspan sodipodi:role="line" id="tspan5842-3" x="1463.3413" y="619.71722">Shoulder</tspan></text>
    <text xml:space="preserve" style="font-size:40px;font-style:normal;font-variant:normal;font-weight:normal;font-stretch:normal;text-align:start;line-height:125%;letter-spacing:0px;word-spacing:0px;writing-mode:lr-tb;text-anchor:start;fill:#000000;fill-opacity:1;stroke:none;font-family:Nimbus Sans L;-inkscape-font-specification:Nimbus Sans L" x="4631.9453" y="-2136.1028" id="text5871" sodipodi:linespacing="125%" transform="matrix(0.09597941,0.99538332,-0.99538332,0.09597941,0,0)" inkscape:transform-center-x="94.303151" inkscape:transform-center-y="26.19532"><tspan sodipodi:role="line" id="tspan5873" x="4631.9453" y="-2136.1028">Front</tspan></text>
    <text xml:space="preserve" style="font-size:40px;font-style:normal;font-variant:normal;font-weight:normal;font-stretch:normal;text-align:start;line-height:125%;letter-spacing:0px;word-spacing:0px;writing-mode:lr-tb;text-anchor:start;fill:#000000;fill-opacity:1;stroke:none;font-family:Nimbus Sans L;-inkscape-font-specification:Nimbus Sans L" x="4996.8242" y="-369.12857" id="text5871-7" sodipodi:linespacing="125%" transform="matrix(0.09597941,0.99538332,-0.99538332,0.09597941,0,0)" inkscape:transform-center-x="94.303151" inkscape:transform-center-y="26.19532"><tspan sodipodi:role="line" id="tspan5873-5" x="4996.8242" y="-369.12857">Front</tspan></text>
    <text xml:space="preserve" style="font-size:40px;font-style:normal;font-variant:normal;font-weight:normal;font-stretch:normal;text-align:start;line-height:125%;letter-spacing:0px;word-spacing:0px;writing-mode:lr-tb;text-anchor:start;fill:#000000;fill-opacity:1;stroke:none;font-family:Nimbus Sans L;-inkscape-font-specification:Nimbus Sans L" x="4980.2344" y="72.811096" id="text5896" sodipodi:linespacing="125%" transform="matrix(0.04959601,0.99876936,-0.99876936,0.04959601,0,0)" inkscape:transform-center-x="-55.010172" inkscape:transform-center-y="65.4883"><tspan sodipodi:role="line" id="tspan5898" x="4980.2344" y="72.811096">Back</tspan></text>
    <text xml:space="preserve" style="font-size:40px;font-style:normal;font-variant:normal;font-weight:normal;font-stretch:normal;text-align:start;line-height:125%;letter-spacing:0px;word-spacing:0px;writing-mode:lr-tb;text-anchor:start;fill:#000000;fill-opacity:1;stroke:none;font-family:Nimbus Sans L;-inkscape-font-specification:Nimbus Sans L" x="4464.5229" y="-1668.6631" id="text5896-1" sodipodi:linespacing="125%" transform="matrix(0.04959601,0.99876936,-0.99876936,0.04959601,0,0)" inkscape:transform-center-x="-55.010172" inkscape:transform-center-y="65.4883"><tspan sodipodi:role="line" id="tspan5898-5" x="4464.5229" y="-1668.6631">Back</tspan></text>
    <text xml:space="preserve" style="font-size:40px;font-style:normal;font-variant:normal;font-weight:normal;font-stretch:normal;text-align:start;line-height:125%;letter-spacing:0px;word-spacing:0px;writing-mode:lr-tb;text-anchor:start;fill:#000000;fill-opacity:1;stroke:none;font-family:Nimbus Sans L;-inkscape-font-specification:Nimbus Sans L" x="-103.61246" y="632.60449" id="text5934" sodipodi:linespacing="125%" transform="matrix(0.95907284,-0.28315946,0.28315946,0.95907284,0,0)"><tspan sodipodi:role="line" id="tspan5936" x="-103.61246" y="632.60449">Back Neck</tspan></text>
    <text xml:space="preserve" style="font-size:40px;font-style:normal;font-variant:normal;font-weight:normal;font-stretch:normal;text-align:start;line-height:125%;letter-spacing:0px;word-spacing:0px;writing-mode:lr-tb;text-anchor:start;fill:#000000;fill-opacity:1;stroke:none;font-family:Nimbus Sans L;-inkscape-font-specification:Nimbus Sans L" x="1171.5667" y="-1526.1071" id="text5938" sodipodi:linespacing="125%" transform="matrix(0.38686695,0.92213554,-0.92213554,0.38686695,0,0)" inkscape:transform-center-x="30.507866" inkscape:transform-center-y="18.336724"><tspan sodipodi:role="line" id="tspan5940" x="1171.5667" y="-1526.1071">Front Neck</tspan></text>
    <text xml:space="preserve" style="font-size:40px;font-style:normal;font-variant:normal;font-weight:normal;font-stretch:normal;text-align:start;line-height:125%;letter-spacing:0px;word-spacing:0px;writing-mode:lr-tb;text-anchor:start;fill:#000000;fill-opacity:1;stroke:none;font-family:Nimbus Sans L;-inkscape-font-specification:Nimbus Sans L" x="-1383.0967" y="3306.4326" id="text5942" sodipodi:linespacing="125%" transform="matrix(0.79910147,-0.60119617,0.60119617,0.79910147,0,0)"><tspan sodipodi:role="line" id="tspan5944" x="-1383.0967" y="3306.4326">Center Back Neck</tspan></text>
    <text xml:space="preserve" style="font-size:40px;font-style:normal;font-variant:normal;font-weight:normal;font-stretch:normal;text-align:start;line-height:125%;letter-spacing:0px;word-spacing:0px;writing-mode:lr-tb;text-anchor:start;fill:#000000;fill-opacity:1;stroke:none;font-family:Nimbus Sans L;-inkscape-font-specification:Nimbus Sans L" x="-2100.3374" y="3147.8699" id="text5946" sodipodi:linespacing="125%" transform="matrix(0.77791103,-0.62837444,0.62837444,0.77791103,0,0)"><tspan sodipodi:role="line" id="tspan5948" x="-2100.3374" y="3147.8699" style="font-size:32px">Center Back Neck</tspan></text>
    <text xml:space="preserve" style="font-size:40px;font-style:normal;font-variant:normal;font-weight:normal;font-stretch:normal;text-align:start;line-height:125%;letter-spacing:0px;word-spacing:0px;writing-mode:lr-tb;text-anchor:start;fill:#000000;fill-opacity:1;stroke:none;font-family:Nimbus Sans L;-inkscape-font-specification:Nimbus Sans L" x="3428.5605" y="1929.7876" id="text5966" sodipodi:linespacing="125%" transform="matrix(0.58666457,0.80983003,-0.80983003,0.58666457,0,0)" inkscape:transform-center-y="-96.922683"><tspan sodipodi:role="line" id="tspan5968" x="3428.5605" y="1929.7876">Neck</tspan></text>
    <text xml:space="preserve" style="font-size:40px;font-style:normal;font-variant:normal;font-weight:normal;font-stretch:normal;text-align:start;line-height:125%;letter-spacing:0px;word-spacing:0px;writing-mode:lr-tb;text-anchor:start;fill:#000000;fill-opacity:1;stroke:none;font-family:Nimbus Sans L;-inkscape-font-specification:Nimbus Sans L" x="3218.76" y="2262.9905" id="text5970" sodipodi:linespacing="125%" transform="matrix(0.71978847,0.69419346,-0.69419346,0.71978847,0,0)"><tspan sodipodi:role="line" id="tspan5972" x="3218.76" y="2262.9905">Lapel</tspan></text>
    <text xml:space="preserve" style="font-size:40px;font-style:normal;font-variant:normal;font-weight:normal;font-stretch:normal;text-align:start;line-height:125%;letter-spacing:0px;word-spacing:0px;writing-mode:lr-tb;text-anchor:start;fill:#000000;fill-opacity:1;stroke:none;font-family:Nimbus Sans L;-inkscape-font-specification:Nimbus Sans L" x="3588.4224" y="1209.623" id="text5974" sodipodi:linespacing="125%" transform="matrix(0.64284442,0.76599677,-0.76599677,0.64284442,0,0)"><tspan sodipodi:role="line" id="tspan5976" x="3588.4224" y="1209.623">Lapel</tspan></text>
    <text xml:space="preserve" style="font-size:40px;font-style:normal;font-variant:normal;font-weight:normal;font-stretch:normal;text-align:start;line-height:125%;letter-spacing:0px;word-spacing:0px;writing-mode:lr-tb;text-anchor:start;fill:#000000;fill-opacity:1;stroke:none;font-family:Nimbus Sans L;-inkscape-font-specification:Nimbus Sans L" x="2624.771" y="614.94067" id="text5978" sodipodi:linespacing="125%" transform="translate(-88.582677,-88.582677)"><tspan sodipodi:role="line" id="tspan5980" x="2624.771" y="614.94067">Lapel Point</tspan></text>
    <path style="fill:none;stroke:#000000;stroke-width:1.25;stroke-linecap:butt;stroke-linejoin:miter;stroke-miterlimit:4;stroke-opacity:1;stroke-dasharray:none;marker-start:url(#DotL);marker-end:url(#Arrow1Lend)" d="M 2713.8351,635.89695 C 2540.946,774.73215 2540.946,774.73215 2540.946,774.73215" id="path5982" inkscape:connector-curvature="0" transform="translate(-88.582677,-88.582677)" />
    <text xml:space="preserve" style="font-size:40px;font-style:normal;font-variant:normal;font-weight:normal;font-stretch:normal;text-align:start;line-height:125%;letter-spacing:0px;word-spacing:0px;writing-mode:lr-tb;text-anchor:start;fill:#000000;fill-opacity:1;stroke:none;font-family:Nimbus Sans L;-inkscape-font-specification:Nimbus Sans L" x="912.34357" y="-2452.396" id="text5974-0" sodipodi:linespacing="125%" transform="matrix(-0.02012642,0.99979744,-0.99979744,-0.02012642,0,0)" inkscape:transform-center-x="19.562611"><tspan sodipodi:role="line" id="tspan5976-2" x="912.34357" y="-2452.396">Lapel</tspan></text>
    <text xml:space="preserve" style="font-size:40px;font-style:normal;font-variant:normal;font-weight:normal;font-stretch:normal;text-align:start;line-height:125%;letter-spacing:0px;word-spacing:0px;writing-mode:lr-tb;text-anchor:start;fill:#000000;fill-opacity:1;stroke:none;font-family:Nimbus Sans L;-inkscape-font-specification:Nimbus Sans L" x="1199.7456" y="6838.9487" id="text7425" sodipodi:linespacing="125%" transform="translate(-88.582677,-88.582677)"><tspan sodipodi:role="line" id="tspan7427" x="1199.7456" y="6838.9487" /></text>
    <text xml:space="preserve" style="font-size:40px;font-style:normal;font-variant:normal;font-weight:normal;font-stretch:normal;text-align:start;line-height:125%;letter-spacing:0px;word-spacing:0px;writing-mode:lr-tb;text-anchor:start;fill:#000000;fill-opacity:1;stroke:none;font-family:Nimbus Sans L;-inkscape-font-specification:Nimbus Sans L" x="183.36723" y="7643.145" id="text7433" sodipodi:linespacing="125%" transform="translate(-88.582677,-88.582677)"><tspan sodipodi:role="line" id="tspan7435" x="183.36723" y="7643.145"></tspan><tspan sodipodi:role="line" id="tspan7437" x="183.36723" y="7693.145" /></text>
    <text xml:space="preserve" style="font-size:40px;font-style:normal;font-variant:normal;font-weight:normal;font-stretch:normal;text-align:start;line-height:125%;letter-spacing:0px;word-spacing:0px;writing-mode:lr-tb;text-anchor:start;fill:#000000;fill-opacity:1;stroke:none;font-family:Nimbus Sans L;-inkscape-font-specification:Nimbus Sans L" x="172.88911" y="211.53278" id="text7441" sodipodi:linespacing="125%" transform="translate(-88.582677,-88.582677)"><tspan sodipodi:role="line" id="tspan7443" x="172.88911" y="211.53278" style="font-size:144px">Men's 1880 Tuxedo Jacket</tspan></text>
  </g>
  <g inkscape:label="Label-notes" id="notes" inkscape:groupmode="layer" transform="translate(33.317889,72.025901)">
    <g id="document.tuxedo.Tuxedo Back.notes" transform="translate(58.75,580.55228)" />
    <g id="document.tuxedo.Tuxedo Front.notes" transform="translate(88.582677,3520.9319)" />
    <g id="document.tuxedo.Tuxedo UnderCollar.notes" transform="translate(88.582677,6881.0829)" />
    <g id="document.tuxedo.Tuxedo Collar.notes" transform="translate(88.582677,7722.7488)" />
    <g id="document.tuxedo.Tuxedo Pocket.notes" transform="translate(-1142.6702,8925.8049)" />
    <g id="document.tuxedo.Tuxedo UpperSleeve.notes" transform="translate(803.6755,10539.767)" />
    <g id="document.tuxedo.Tuxedo UnderSleeve.notes" transform="translate(1861.2489,10522.404)" />
  </g>
  <g inkscape:label="Label-reference" id="reference" inkscape:groupmode="layer" transform="translate(33.317889,72.025901)">
    <g id="document.tuxedo.Tuxedo Pocket.reference" transform="translate(-1142.6702,8925.8049)" />
  </g>
</svg>
