<?xml version="1.0" encoding="UTF-8" standalone="no"?>
<svg xmlns:dc="http://purl.org/dc/elements/1.1/" xmlns:cc="http://creativecommons.org/ns#" xmlns:rdf="http://www.w3.org/1999/02/22-rdf-syntax-ns#" xmlns:svg="http://www.w3.org/2000/svg" xmlns="http://www.w3.org/2000/svg" xmlns:sodipodi="http://sodipodi.sourceforge.net/DTD/sodipodi-0.dtd" xmlns:inkscape="http://www.inkscape.org/namespaces/inkscape" patternNumber="M-S-S-1" fitBoxtoViewport="True" companyName="Seamly Patterns" currentscale="0.5:1" margin-right="88.5826771654" client-name="Marie O" designerName="Winifred Aldrich" height="680.909880331" width="305.035316331" margin-top="88.5826771654" version="1.1" margin-bottom="88.5826771654" margin-left="88.5826771654" preserveAspectRatio="xMidYMid meet" id="svg2" inkscape:version="0.48.4 r9939" sodipodi:docname="Marie-mens_shirt_classic_2-2015-11-09-1620.svg">
  <metadata id="metadata71">
    <rdf:RDF>
      <cc:Work rdf:about="">
        <dc:format>image/svg+xml</dc:format>
        <dc:type rdf:resource="http://purl.org/dc/dcmitype/StillImage" />
      </cc:Work>
    </rdf:RDF>
  </metadata>
  <sodipodi:namedview id="base" pagecolor="#ffffff" bordercolor="#666666" borderopacity="1.0" inkscape:pageopacity="0.0" inkscape:pageshadow="2" inkscape:zoom="2.724" inkscape:document-units="pt" showgrid="false" inkscape:window-maximized="1" inkscape:cx="153.3" inkscape:cy="297.9" inkscape:current-layer="pattern" />
  <defs id="defs5">
    <marker style="overflow:visible" id="Arrow1Mstart" refX="0.0" refY="0.0" orient="auto" inkscape:stockid="Arrow1Mstart">
      <path transform="scale(0.4) translate(10,0)" style="fill-rule:evenodd;stroke:#000000;stroke-width:1.0pt;marker-start:none" d="M 0.0,0.0 L 5.0,-5.0 L -12.5,0.0 L 5.0,5.0 L 0.0,0.0 z " id="path8" />
    </marker>
    <marker style="overflow:visible;" id="Arrow1Mend" refX="0.0" refY="0.0" orient="auto" inkscape:stockid="Arrow1Mend">
      <path transform="scale(0.4) rotate(180) translate(10,0)" style="fill-rule:evenodd;stroke:#000000;stroke-width:1.0pt;marker-start:none;" d="M 0.0,0.0 L 5.0,-5.0 L -12.5,0.0 L 5.0,5.0 L 0.0,0.0 z " id="path11" />
    </marker>
  </defs>
  <g inkscape:label="Label-pattern" id="pattern" inkscape:groupmode="layer" transform="translate(88.582677,88.582677)">
    <g id="A.letter" transform="translate(12.51,351.4)">
      <text x="250.84349" y="2.0875001" id="A.letter.letterline" style="font-size:24px;font-style:normal;font-weight:normal;text-align:right;text-anchor:start;fill:#000000;fill-opacity:1;stroke:none">A</text>
    </g>
    <path inkscape:connector-curvature="0" id="A.seamline" d="m -37.79,354.7 c 1.67,0 -6.5,0 -1.85,-4.7 c 1.19,-1.1 3.14,-1.2 4.66,-1.9 l 3.56,7.6 c -0.32,0.2 -0.12,0.7 -0.12,1.1 l -6.25,0 l 0,-2.1" style="fill:none;stroke:#008000;stroke-width:4;stroke-linejoin:miter;stroke-miterlimit:4;stroke-dasharray:24, 6;stroke-dashoffset:0" />
    <path inkscape:connector-curvature="0" id="A.cuttingline" d="m -38.76,337.8 c -9.67,1.3 -16.82,14.1 -9.03,21.7 c -2.94,9 6.5,5.6 12,6.2 c 4.46,-1.2 14.49,2.6 15.21,-2 c -0.38,-5.9 1.55,-9.6 -2.62,-15.1 c -3.15,-4 -3.94,-14.2 -8.7,-13.9 c -2.28,1 -4.57,2 -6.86,3.1 z" style="fill:none;stroke:#008000;stroke-width:4;stroke-linejoin:miter;stroke-miterlimit:4" />
    <g id="A.info" transform="translate(12.51,351.4)">
      <text x="2.812" y="0" id="A.info.lineSeamly Patterns" style="font-size:12px;font-style:normal;font-weight:normal;text-align:right;text-anchor:start;fill:#000000;fill-opacity:1;stroke:none">Seamly Patterns</text>
      <text x="2.812" y="14.4" id="A.info.lineM-S-S-1" style="font-size:12px;font-style:normal;font-weight:normal;text-align:right;text-anchor:start;fill:#000000;fill-opacity:1;stroke:none">M-S-S-1</text>
      <text x="2.812" y="28.799999" id="A.info.lineMens Shirt Classic" style="font-size:12px;font-style:normal;font-weight:normal;text-align:right;text-anchor:start;fill:#000000;fill-opacity:1;stroke:none">Mens Shirt Classic</text>
      <text x="2.812" y="43.200001" id="A.info.linePattern Piece A" style="font-size:12px;font-style:normal;font-weight:normal;text-align:right;text-anchor:start;fill:#000000;fill-opacity:1;stroke:none">Pattern Piece A</text>
      <text x="2.812" y="57.599998" id="A.info.lineCut 2 Fabric" style="font-size:12px;font-style:normal;font-weight:normal;text-align:right;text-anchor:start;fill:#000000;fill-opacity:1;stroke:none">Cut 2 Fabric</text>
      <text x="2.812" y="72" id="A.info.line " style="font-size:12px;font-style:normal;font-weight:normal;text-align:right;text-anchor:start;fill:#000000;fill-opacity:1;stroke:none" />
      <text x="2.812" y="86.400002" id="A.info.lineMarie O" style="font-size:12px;font-style:normal;font-weight:normal;text-align:right;text-anchor:start;fill:#000000;fill-opacity:1;stroke:none">Marie O</text>
      <text x="2.812" y="100.8" id="A.info.line2015/11/9 16:20" style="font-size:12px;font-style:normal;font-weight:normal;text-align:right;text-anchor:start;fill:#000000;fill-opacity:1;stroke:none">2015/11/9 16:20</text>
    </g>
  </g>
  <g inkscape:label="Label-notes" id="notes" inkscape:groupmode="layer" transform="translate(88.582677,88.582677)">
    <g id="document.titleblock">
      <text style="font-size:40; vertical-align:top; fill-opacity:1.0; fill:#000000; text-anchor:right; stroke:none; font-weight:normal; font-style:normal; text-align:right; " transform="" id="company" y="0.0" x="0.0">
Seamly Patterns</text>
      <text style="font-size:40; vertical-align:top; fill-opacity:1.0; fill:#000000; text-anchor:right; stroke:none; font-weight:normal; font-style:normal; text-align:right; " transform="" id="designer" y="44.0" x="0.0">
Winifred Aldrich</text>
      <text style="font-size:40; vertical-align:top; fill-opacity:1.0; fill:#000000; text-anchor:right; stroke:none; font-weight:normal; font-style:normal; text-align:right; " transform="" id="pattern_number" y="88.0" x="0.0">
M-S-S-1</text>
      <text style="font-size:40; vertical-align:top; fill-opacity:1.0; fill:#000000; text-anchor:right; stroke:none; font-weight:normal; font-style:normal; text-align:right; " transform="" id="pattern_name" y="132.0" x="0.0">
Mens Shirt Classic</text>
      <text style="font-size:40; vertical-align:top; fill-opacity:1.0; fill:#000000; text-anchor:right; stroke:none; font-weight:normal; font-style:normal; text-align:right; " transform="" id="client" y="176.0" x="0.0">
Marie O</text>
      <text style="font-size:40; vertical-align:top; fill-opacity:1.0; fill:#000000; text-anchor:right; stroke:none; font-weight:normal; font-style:normal; text-align:right; " transform="" id="date" y="220.0" x="0.0">
2015/11/9 16:20</text>
    </g>
    <g id="document.testgrid">
      <path style="stroke-linejoin:miter; stroke:green; stroke-width:4; stroke-miterlimit:4; fill:none; " d="M 1080.0  0.0 L 1080.0  212.598425197 M 1115.43307087  0.0 L 1115.43307087  212.598425197 M 1150.86614173  0.0 L 1150.86614173  212.598425197 M 1186.2992126  0.0 L 1186.2992126  212.598425197 M 1221.73228346  0.0 L 1221.73228346  212.598425197 M 1257.16535433  0.0 L 1257.16535433  212.598425197 M 1292.5984252  0.0 L 1292.5984252  212.598425197 M 1080.0  0.0 L 1292.5984252  0.0 M 1080.0  35.4330708661 L 1292.5984252  35.4330708661 M 1080.0  70.8661417323 L 1292.5984252  70.8661417323 M 1080.0  106.299212598 L 1292.5984252  106.299212598 M 1080.0  141.732283465 L 1292.5984252  141.732283465 M 1080.0  177.165354331 L 1292.5984252  177.165354331 M 1080.0  212.598425197 L 1292.5984252  212.598425197 M 1469.76377953  0.0 L 1469.76377953  270.0 M 1559.76377953  0.0 L 1559.76377953  270.0 M 1649.76377953  0.0 L 1649.76377953  270.0 M 1739.76377953  0.0 L 1739.76377953  270.0 M 1469.76377953  0.0 L 1739.76377953  0.0 M 1469.76377953  90.0 L 1739.76377953  90.0 M 1469.76377953  180.0 L 1739.76377953  180.0 M 1469.76377953  270.0 L 1739.76377953  270.0 " id="testgrid" />
    </g>
    <g id="document.shirt.yoke.notes" transform=" translate(65.253462, 445.407026)" />
  </g>
  <g inkscape:label="Label-reference" id="reference" inkscape:groupmode="layer" transform="translate(88.582677,88.582677)">
    <g id="document.shirt.yoke.reference" transform="translate(-65.73,319.6)">
      <circle style="fill:none;stroke:#808080;stroke-width:1" cy="0" cx="1.67" r="5" id="A.a1.outpoint" d="m 6.67,0 c 0,2.761 -2.239,5 -5,5 c -2.761,0 -5,-2.239 -5,-5 c 0,-2.761 2.239,-5 5,-5 c 2.761,0 5,2.239 5,5 z" sodipodi:cx="1.67" sodipodi:cy="0" sodipodi:rx="5" sodipodi:ry="5" />
      <text style="font-size:25px;font-style:italic;font-weight:normal;text-align:right;fill:#808080;fill-opacity:1;stroke:none" id="A.a1.outpoint.text" y="-7" x="8.6700363">a1.out</text>
      <circle style="fill:#ff0000;stroke:#ff0000;stroke-width:1" cy="0" cx="0" r="5" id="A.a1" d="M 5,0 C 5,2.761 2.761,5 0,5 C -2.761,5 -5,2.761 -5,0 c 0,-2.761 2.239,-5 5,-5 c 2.761,0 5,2.239 5,5 z" sodipodi:cx="0" sodipodi:cy="0" sodipodi:rx="5" sodipodi:ry="5" />
      <text style="font-size:30px;font-style:italic;font-weight:normal;text-align:right;fill:#00008b;fill-opacity:1;stroke:none" id="A.a1.text" y="-7" x="7">a1</text>
      <circle style="fill:#ff0000;stroke:#ff0000;stroke-width:1" cy="2.088" cx="0" r="5" id="A.a2" d="m 5,2.088 c 0,2.761 -2.239,5 -5,5 c -2.761,0 -5,-2.239 -5,-5 c 0,-2.7614 2.239,-5 5,-5 c 2.761,0 5,2.2386 5,5 z" sodipodi:cx="0" sodipodi:cy="2.088" sodipodi:rx="5" sodipodi:ry="5" />
      <text style="font-size:30px;font-style:italic;font-weight:normal;text-align:right;fill:#00008b;fill-opacity:1;stroke:none" id="A.a2.text" y="-4.9124999" x="7">a2</text>
      <circle style="fill:none;stroke:#808080;stroke-width:1" cy="1.737" cx="6.247" r="5" id="A.a3.inpoint" d="m 11.25,1.737 c 0,2.761 -2.242,5 -5.003,5 c -2.761,0 -5,-2.239 -5,-5 c 0,-2.761 2.239,-5 5,-5 c 2.761,0 5.003,2.239 5.003,5 z" sodipodi:cx="6.247" sodipodi:cy="1.737" sodipodi:rx="5" sodipodi:ry="5" />
      <text style="font-size:25px;font-style:italic;font-weight:normal;text-align:right;fill:#808080;fill-opacity:1;stroke:none" id="A.a3.inpoint.text" y="-5.2626705" x="13.2475">a3.in</text>
      <circle style="fill:#ff0000;stroke:#ff0000;stroke-width:1" cy="2.088" cx="6.247" r="5" id="A.a3" d="m 11.25,2.088 c 0,2.761 -2.242,5 -5.003,5 c -2.761,0 -5,-2.239 -5,-5 c 0,-2.7614 2.239,-5 5,-5 c 2.761,0 5.003,2.2386 5.003,5 z" sodipodi:cx="6.247" sodipodi:cy="2.088" sodipodi:rx="5" sodipodi:ry="5" />
      <text style="font-size:30px;font-style:italic;font-weight:normal;text-align:right;fill:#00008b;fill-opacity:1;stroke:none" id="A.a3.text" y="-4.9124999" x="13.2475">a3</text>
      <circle style="fill:#ff0000;stroke:#ff0000;stroke-width:1" cy="0" cx="6.247" r="5" id="A.a4" d="m 11.25,0 c 0,2.761 -2.242,5 -5.003,5 c -2.761,0 -5,-2.239 -5,-5 c 0,-2.761 2.239,-5 5,-5 c 2.761,0 5.003,2.239 5.003,5 z" sodipodi:cx="6.247" sodipodi:cy="0" sodipodi:rx="5" sodipodi:ry="5" />
      <text style="font-size:30px;font-style:italic;font-weight:normal;text-align:right;fill:#00008b;fill-opacity:1;stroke:none" id="A.a4.text" y="-7" x="13.2475">a4</text>
      <circle style="fill:none;stroke:#808080;stroke-width:1" cy="1.192" cx="6.049" r="5" id="A.a5.outpoint" d="m 11.05,1.192 c 0,2.761 -2.24,5 -5.001,5 c -2.761,0 -5,-2.239 -5,-5 c 0,-2.761 2.239,-5 5,-5 c 2.761,0 5.001,2.239 5.001,5 z" sodipodi:cx="6.049" sodipodi:cy="1.192" sodipodi:rx="5" sodipodi:ry="5" />
      <text style="font-size:25px;font-style:italic;font-weight:normal;text-align:right;fill:#808080;fill-opacity:1;stroke:none" id="A.a5.outpoint.text" y="-5.8083911" x="13.049077">a5.out</text>
      <circle style="fill:#ff0000;stroke:#ff0000;stroke-width:1" cy="1.044" cx="6.366" r="5" id="A.a5" d="m 11.37,1.044 c 0,2.761 -2.243,5 -5.004,5 c -2.761,0 -5,-2.239 -5,-5 c 0,-2.761 2.239,-5 5,-5 c 2.761,0 5.004,2.239 5.004,5 z" sodipodi:cx="6.366" sodipodi:cy="1.044" sodipodi:rx="5" sodipodi:ry="5" />
      <text style="font-size:30px;font-style:italic;font-weight:normal;text-align:right;fill:#00008b;fill-opacity:1;stroke:none" id="A.a5.text" y="-5.9562502" x="13.3665">a5</text>
      <circle style="fill:#ff0000;stroke:#ff0000;stroke-width:1" cy="0" cx="2.812" r="5" id="A.a6" d="m 7.812,0 c 0,2.761 -2.239,5 -5,5 c -2.7614,0 -5,-2.239 -5,-5 c 0,-2.761 2.2386,-5 5,-5 c 2.761,0 5,2.239 5,5 z" sodipodi:cx="2.812" sodipodi:cy="0" sodipodi:rx="5" sodipodi:ry="5" />
      <text style="font-size:30px;font-style:italic;font-weight:normal;text-align:right;fill:#00008b;fill-opacity:1;stroke:none" id="A.a6.text" y="-7" x="9.8120003">a6</text>
      <circle style="fill:none;stroke:#808080;stroke-width:1" cy="-5.877" cx="1.289" r="5" id="A.a7.inpoint" d="m 6.289,-5.877 c 0,2.761 -2.239,5 -5,5 c -2.761,0 -5,-2.239 -5,-5 c 0,-2.761 2.239,-5.003 5,-5.003 c 2.761,0 5,2.242 5,5.003 z" sodipodi:cx="1.289" sodipodi:cy="-5.877" sodipodi:rx="5" sodipodi:ry="5" />
      <text style="font-size:25px;font-style:italic;font-weight:normal;text-align:right;fill:#808080;fill-opacity:1;stroke:none" id="A.a7.inpoint.text" y="-12.877439" x="8.2886629">a7.in</text>
      <circle style="fill:#ff0000;stroke:#ff0000;stroke-width:1" cy="-6.587" cx="2.812" r="5" id="A.a7" d="m 7.812,-6.587 c 0,2.761 -2.239,5 -5,5 c -2.7614,0 -5,-2.239 -5,-5 c 0,-2.761 2.2386,-5.003 5,-5.003 c 2.761,0 5,2.242 5,5.003 z" sodipodi:cx="2.812" sodipodi:cy="-6.587" sodipodi:rx="5" sodipodi:ry="5" />
      <text style="font-size:30px;font-style:italic;font-weight:normal;text-align:right;fill:#00008b;fill-opacity:1;stroke:none" id="A.a7.text" y="-13.587026" x="9.8120003">a7</text>
      <circle style="fill:none;stroke:#808080;stroke-width:1" cy="-5.846" cx="-0.6574" r="5" id="A.a8.outpoint" d="m 4.343,-5.846 c 0,2.761 -2.239,5 -5.0004,5 c -2.7616,0 -4.9996,-2.239 -4.9996,-5 c 0,-2.761 2.238,-5.004 4.9996,-5.004 c 2.7614,0 5.0004,2.243 5.0004,5.004 z" sodipodi:cx="-0.6574" sodipodi:cy="-5.846" sodipodi:rx="5" sodipodi:ry="5" />
      <text style="font-size:25px;font-style:italic;font-weight:normal;text-align:right;fill:#808080;fill-opacity:1;stroke:none" id="A.a8.outpoint.text" y="-12.846022" x="6.3425603">a8.out</text>
      <circle style="fill:none;stroke:#808080;stroke-width:1" cy="0" cx="-6.503" r="5" id="A.a8.inpoint" d="m -1.503,0 c 0,2.761 -2.239,5 -5,5 C -9.264,5 -11.5,2.761 -11.5,0 c 0,-2.761 2.236,-5 4.997,-5 c 2.761,0 5,2.239 5,5 z" sodipodi:cx="-6.503" sodipodi:cy="0" sodipodi:rx="5" sodipodi:ry="5" />
      <text style="font-size:25px;font-style:italic;font-weight:normal;text-align:right;fill:#808080;fill-opacity:1;stroke:none" id="A.a8.inpoint.text" y="-7" x="0.4965384">a8.in</text>
      <circle style="fill:#ff0000;stroke:#ff0000;stroke-width:1" cy="-4.658" cx="-1.846" r="5" id="A.a8" d="m 3.154,-4.658 c 0,2.761 -2.2386,5 -5,5 c -2.761,0 -5,-2.239 -5,-5 c 0,-2.761 2.239,-5 5,-5 c 2.7614,0 5,2.239 5,5 z" sodipodi:cx="-1.846" sodipodi:cy="-4.658" sodipodi:rx="5" sodipodi:ry="5" />
      <text style="font-size:30px;font-style:italic;font-weight:normal;text-align:right;fill:#00008b;fill-opacity:1;stroke:none" id="A.a8.text" y="-11.657731" x="5.1542692">a8</text>
      <path style="fill:none;stroke:#808080;stroke-width:2;stroke-linejoin:miter;stroke-miterlimit:4;stroke-dasharray:6, 6;stroke-dashoffset:0" d="m 0,0 l 0,2.088 l 6.247,0 L 6.247,0 L 0,0 m 2.812,-6.587 l 0,6.587 l -4.658,-4.658" id="A.gridline" inkscape:connector-curvature="0" />
    </g>
  </g>
</svg>
